<svg id="Слой_1" xmlns="http://www.w3.org/2000/svg" viewBox="0 0 1000 1000"><style>.st0{fill:#1d85d7;stroke:#0b6d19;stroke-miterlimit:10}</style><path class="st0" d="M336.4 829c-41.2 0-74.8 33.5-74.8 74.5 0 41.1 33.6 74.5 74.8 74.5s74.8-33.4 74.8-74.5-33.6-74.5-74.8-74.5zM982.1 227.1c-15.2-27.2-45.5-34.6-48.9-35.3-1.7-.4-3.3-.2-5-.2H176.9L162.2 92c-13.4-57.6-40.1-67.7-66.9-69.4-1.1-.1-2.3-.6-3.5-.6H32.3C20 22 10 30.9 10 43.2s10 21.2 22.3 21.2h57.3c16.4 0 27.1 14.5 34.3 38.3.3 1 .2 2.7.3 3.7l90.4 598.8c.3 1.3.6 2.6 1 3.8.7 2 7.7 19.4 23.9 37.7 22.5 25.4 51.9 38.2 85 38.2H864c12.4 0 22.3-8.9 22.3-21.2s-10-21.2-22.3-21.2H324.5c-43.7 0-62.7-42.6-66.3-51l-16-97.4h570.5c83.5 0 113.7-87.5 114-88.3l57.9-219.4c.1-.2.2.3.2.1 9.8-27.9 3.9-47.4-2.7-59.4M798.2 829c-41.3 0-74.8 33.5-74.8 74.5 0 41.1 33.6 74.5 74.8 74.5 41.3 0 74.8-33.4 74.8-74.5S839.5 829 798.2 829z"/></svg>