<svg xmlns="http://www.w3.org/2000/svg" width="512" height="512" viewBox="0 0 612 612"><path d="M371.718 338.58l44.566-99.29-99.289 44.565c-20.535-3.406-42.361 2.734-58.17 18.543-15.809 15.809-21.949 37.635-18.543 58.17l-44.565 99.289 99.29-44.565c20.535 3.405 42.36-2.735 58.169-18.544s21.949-37.634 18.542-58.168zm-49.872 26.839c-8.737 8.737-22.954 8.737-31.69 0s-8.737-22.954 0-31.69 22.954-8.736 31.69 0c8.736 8.737 8.736 22.954 0 31.69zM306 477.347l15.509 34.529H290.49L306 477.347zm0-255.726l-15.509-34.53h31.019L306 221.621zm127.863 127.863l34.529-15.509v31.019l-34.529-15.51zm-255.725 0l-34.53 15.509v-31.019l34.53 15.51zM367.728 94.55c3.658-8.302 5.726-17.456 5.726-27.094C373.453 30.263 343.193 0 306 0s-67.453 30.263-67.453 67.456c0 9.639 2.067 18.792 5.725 27.094C129.267 122.393 43.574 226.136 43.574 349.574 43.574 494.275 161.297 612 306 612c144.703 0 262.426-117.726 262.426-262.426 0-123.438-85.693-227.181-200.698-255.024zm-87.949-27.094c0-14.461 11.764-26.224 26.221-26.224 14.458 0 26.222 11.763 26.222 26.224 0 8.204-3.863 15.448-9.778 20.26-5.444-.338-10.916-.567-16.443-.567s-10.999.229-16.442.567c-5.917-4.812-9.78-12.056-9.78-20.26zM306 540.368c-105.204 0-190.795-85.593-190.795-190.795 0-105.202 85.591-190.794 190.795-190.794s190.795 85.593 190.795 190.795c0 105.202-85.591 190.794-190.795 190.794z" fill="#06437f"/></svg>