<svg id="Layer_1" xmlns="http://www.w3.org/2000/svg" viewBox="0 0 1132 238"><style>.st0{fill:#e30613}.st1{fill:#364b9b}</style><title>paxis_logo_slogan</title><g id="Page-1_1_"><g id="paxis_logo_big"><g id="Page-1"><g id="Group-2"><g id="paxis_logo"><g id="Group"><path id="Shape" class="st0" d="M99.4 24.9L116 41.4v107.7H74.6V0l8.2 8.3v132.5h16.6z"/><path id="Shape_1_" class="st1" d="M41.4 107.7v99.4h99.4v-116l8.3 8.3v116H24.9v-91.1z"/><path id="Shape_2_" class="st1" d="M66.3 82.8L49.7 99.4v99.4h82.9v-116l-8.3-8.2v115.9h-58z"/><path id="Shape_3_" class="st1" d="M16.6 132.6L0 149.1V232h165.7V116l-8.3-8.3v116H16.6z"/><g id="Shape_4_"><path class="st1" d="M180 40.7l35-39.2h-14l-32.3 36.2h-.4V1.5h-26.4l5.5 8.5h8.6v72.9l12.3.1V44.3h.4l34.1 38.6h15.1zM126.3 1.5c7.4 0 12.5 4.1 12.5 11.1v59.3c0 5.9-5.1 11.1-12.5 11.1H61.2V10H26v64.5h7.5L39 83H13.7V10H6L.5 1.5h73.2v73h47c5 0 5.5-2.3 5.5-5v-24H95.5v-8.6h30.7V14.8c0-2.5-.6-4.8-5.5-4.8H90l-5.5-8.5h41.8z" transform="translate(183 149)"/><path class="st0" d="M174.6.6h19.6l-19.5 22z" transform="translate(183 149)"/><path class="st1" d="M231.7 69.5c0 3.2.9 5 5.7 5h36.5V83h-40.6c-10.8 0-13.9-6.4-13.9-12.2V13.7c0-6.7 3.7-12.2 15.3-12.2h33.4l-5.5 8.5h-25.3c-3.7 0-5.7 1.4-5.7 4.8l.1 54.7zM414.4 74.5V83h-41.3c-10.8 0-13.9-6.4-13.9-12.2V13.7c0-6.7 3.7-12.2 15.3-12.2h41.6l-5.5 8.5h-33.4c-3.7 0-5.7 1.4-5.7 4.8v54.7c0 3.2.9 5 5.7 5h37.2zM342.7 74.5h10.8l-5.5 8.4h-17.8V26h-.4l-38.1 56.9h-9V10h-12l5.4-8.5H295v57h.4l38.2-57h9.1z" transform="translate(183 149)"/></g></g></g></g></g></g></g><path class="st0" d="M684.6 92.3v29.9h-3.2V95h-15.3v27.2h-3.2V92.3h21.7zM689.5 120c2.1 0 3.5-1.2 3.5-3.6v-13.5h13v19.2h-3v-16.7h-6.8v11.1c0 3.7-2 5.8-4.9 5.8-.6 0-1.4 0-1.7-.2V120zM726.6 122.1c-.3.1-.8.2-1.2.2-1.6 0-2.7-.8-3.2-2-1.5 1.4-3.5 2.2-5.5 2.2-3.8 0-5.5-2.7-5.5-5.2 0-4 4.1-6.2 9.3-6.2.7 0 1.1 0 1.5.1v-2.3c0-1.6-1.2-3.5-3.9-3.5-1.5 0-3.3.6-4.2 1.6l-1.7-1.7c1.5-1.5 3.7-2.4 6.1-2.4 4.5 0 6.7 2.9 6.7 6.1v9.7c0 1 .7 1.6 1.6 1.6v1.8zm-4.7-4.1v-4.8c-.3 0-.7-.1-1.3-.1-3.6 0-6.3 1.4-6.3 3.8 0 1.2.8 3 3.3 3 1.4 0 3.1-.6 4.3-1.9zM739.6 119.7c2.1 0 3.8-.7 5-2l1.9 1.9c-1.7 1.8-4.2 2.9-7.1 2.9-5.9 0-9.9-4-9.9-9.9s4-9.9 9.9-9.9c2.9 0 5.4 1.1 7.1 2.9l-1.9 1.9c-1.2-1.3-2.9-2-5-2-4.1 0-6.8 2.9-6.8 7.1 0 4.2 2.8 7.1 6.8 7.1zM758 122.1h-3.1v-16.7h-6v-2.5H764v2.5h-6v16.7zM772 117.1l10.9-14.2h2.5v19.2h-3.1v-14.2l-10.9 14.2h-2.5v-19.2h3.1v14.2zM791.6 122.1v-19.2h3.1v8.9l7.9-8.9h3.7l-8.1 9.1 8.9 10.1h-3.7l-8.6-9.9v9.9h-3.2zM818.5 102.6c5.9 0 9.9 4 9.9 9.9s-4 9.9-9.9 9.9-9.9-4-9.9-9.9c-.1-5.8 3.9-9.9 9.9-9.9zm0 17.1c4 0 6.7-2.9 6.7-7.1 0-4.2-2.7-7.1-6.7-7.1s-6.7 2.9-6.7 7.1c0 4.2 2.7 7.1 6.7 7.1zM833.4 102.9h7.1c3.4 0 5.4 2 5.4 4.9 0 1.9-.9 3.3-2.3 4.2 2.2.7 3.4 2.5 3.4 4.9 0 3.1-2.1 5.3-5.8 5.3h-7.8v-19.3zm6.6 8.2c1.7 0 2.9-1.2 2.9-2.9s-1.2-2.9-2.9-2.9h-3.5v5.8h3.5zm-3.5 2.2v6.5h4.1c1.9 0 3.2-1.3 3.2-3.2 0-1.9-1.3-3.2-3.2-3.2h-4.1zM866.6 122.1c-.3.1-.8.2-1.2.2-1.6 0-2.7-.8-3.2-2-1.5 1.4-3.5 2.2-5.5 2.2-3.8 0-5.5-2.7-5.5-5.2 0-4 4.1-6.2 9.3-6.2.7 0 1.1 0 1.5.1v-2.3c0-1.6-1.2-3.5-3.9-3.5-1.5 0-3.3.6-4.2 1.6l-1.7-1.7c1.5-1.5 3.7-2.4 6.1-2.4 4.5 0 6.7 2.9 6.7 6.1v9.7c0 1 .7 1.6 1.6 1.6v1.8zm-4.8-4.1v-4.8c-.3 0-.7-.1-1.3-.1-3.6 0-6.3 1.4-6.3 3.8 0 1.2.8 3 3.3 3 1.5 0 3.2-.6 4.3-1.9zM884.4 122.1h-3.1v-7.9h-3.5l-4.4 7.9h-3.3l4.8-8.1c-2.8-.6-4.4-2.7-4.4-5.4 0-3.3 2.3-5.7 6.3-5.7h7.6v19.2zm-3.1-10.2v-6.5H877c-1.9 0-3.2 1.3-3.2 3.2s1.3 3.3 3.2 3.3h4.3zM908.2 122.1h-3.1v-16.7h-6v-2.5h15.1v2.5h-6v16.7zM931.8 122.1c-.3.1-.8.2-1.2.2-1.6 0-2.7-.8-3.2-2-1.5 1.4-3.5 2.2-5.5 2.2-3.8 0-5.5-2.7-5.5-5.2 0-4 4.1-6.2 9.3-6.2.7 0 1.1 0 1.5.1v-2.3c0-1.6-1.2-3.5-3.9-3.5-1.5 0-3.3.6-4.2 1.6l-1.7-1.7c1.5-1.5 3.7-2.4 6.1-2.4 4.5 0 6.7 2.9 6.7 6.1v9.7c0 1 .7 1.6 1.6 1.6v1.8zm-4.7-4.1v-4.8c-.3 0-.7-.1-1.3-.1-3.6 0-6.3 1.4-6.3 3.8 0 1.2.8 3 3.3 3 1.4 0 3.2-.6 4.3-1.9zM940 102.9v1.6c1.5-1.2 3.5-1.9 5.7-1.9 5.5 0 9.3 4 9.3 9.9s-3.9 9.9-9.7 9.9c-2 0-3.8-.5-5.2-1.4v11.8H937v-29.9h3zm4.9 2.5c-2.1 0-3.8.7-4.9 1.9v10.5c1.2 1.2 2.9 1.8 4.9 1.8 4 0 6.7-2.9 6.7-7.1.1-4.2-2.6-7.1-6.7-7.1zM974.3 122.1c-.3.1-.8.2-1.2.2-1.6 0-2.7-.8-3.2-2-1.5 1.4-3.5 2.2-5.5 2.2-3.8 0-5.5-2.7-5.5-5.2 0-4 4.1-6.2 9.3-6.2.7 0 1.1 0 1.5.1v-2.3c0-1.6-1.2-3.5-3.9-3.5-1.5 0-3.3.6-4.2 1.6l-1.7-1.7c1.5-1.5 3.7-2.4 6.1-2.4 4.5 0 6.7 2.9 6.7 6.1v9.7c0 1 .7 1.6 1.6 1.6v1.8zm-4.8-4.1v-4.8c-.3 0-.7-.1-1.3-.1-3.6 0-6.3 1.4-6.3 3.8 0 1.2.8 3 3.3 3 1.5 0 3.2-.6 4.3-1.9zM988.6 109.6h24.7v2.5h-24.7v-2.5zM666.2 162.5h8.6c-.5-3.5-3.1-5.9-6.7-5.9-2.1 0-3.8.7-5 2l-1.9-1.9c1.7-1.8 4.2-2.9 7.1-2.9 5.9 0 9.9 4 9.9 9.9s-4 9.9-9.9 9.9c-2.9 0-5.4-1.1-7.1-2.9l1.9-2c1.2 1.3 2.9 2 5 2 3.7 0 6.3-2.4 6.7-6.1h-8.6v-2.1zM696.1 173.5V184H693v-10.5c-.4 0-.7.1-1.1.1-5.9 0-9.9-3.9-9.9-9.8s4-9.8 9.9-9.8c.3 0 .7 0 1.1.1v-12.7h3.1V154c.3 0 .7-.1 1.1-.1 5.9 0 9.9 3.9 9.9 9.8s-4 9.8-9.9 9.8c-.4.1-.8 0-1.1 0zm-4.2-2.6c.3 0 .7 0 1.1-.1v-14.1c-.4 0-.7-.1-1.1-.1-4 0-6.7 2.9-6.7 7.1s2.7 7.2 6.7 7.2zm4.2-14.2v14.1c.3 0 .7.1 1.1.1 4 0 6.7-2.9 6.7-7.1s-2.7-7.1-6.7-7.1c-.4-.1-.8 0-1.1 0zM725 173.5V184h-3.1v-10.5c-.4 0-.7.1-1.1.1-5.9 0-9.9-3.9-9.9-9.8s4-9.8 9.9-9.8c.3 0 .7 0 1.1.1v-12.7h3.1V154c.3 0 .7-.1 1.1-.1 5.9 0 9.9 3.9 9.9 9.8s-4 9.8-9.9 9.8c-.4.1-.8 0-1.1 0zm-4.2-2.6c.3 0 .7 0 1.1-.1v-14.1c-.4 0-.7-.1-1.1-.1-4 0-6.7 2.9-6.7 7.1s2.7 7.2 6.7 7.2zm4.2-14.2v14.1c.3 0 .7.1 1.1.1 4 0 6.7-2.9 6.7-7.1s-2.7-7.1-6.7-7.1c-.4-.1-.8 0-1.1 0zM743.2 164.6c.3 3.8 2.8 6.3 6.8 6.3 2.2 0 3.9-.7 5.1-2l1.9 1.9c-1.8 1.8-4.2 2.9-7.2 2.9-5.9 0-9.9-4-9.9-10 0-5.8 3.7-9.8 9.2-9.8 5.5 0 8.7 4.1 8.7 10.7h-14.6zm0-2.3h11.5c-.4-3.5-2.3-5.8-5.5-5.8s-5.7 2.3-6 5.8zM762.7 173.3v-19.2h3.1v8.9l7.9-8.9h3.7l-8.1 9.1 8.9 10.1h-3.7l-8.6-9.9v9.9h-3.2zM790.3 173.3h-3.1v-16.7h-6v-2.5h15.1v2.5h-6v16.7zM804.2 168.4l10.9-14.2h2.5v19.2h-3.1v-14.2l-10.9 14.2h-2.5v-19.2h3.1v14.2zM823.8 154.1h7.1c3.4 0 5.4 2 5.4 4.9 0 1.9-.9 3.3-2.3 4.2 2.2.7 3.4 2.5 3.4 4.9 0 3.1-2.1 5.3-5.8 5.3h-7.8v-19.3zm6.6 8.2c1.7 0 2.9-1.2 2.9-2.9s-1.2-2.9-2.9-2.9h-3.5v5.8h3.5zm-3.5 2.2v6.5h4.1c1.9 0 3.2-1.3 3.2-3.2s-1.3-3.2-3.2-3.2h-4.1zM845.8 162.4h10.1v-8.2h3.1v19.2h-3.1V165h-10.1v8.4h-3.1v-19.2h3.1v8.2zM865.2 154.1h3.1v8.1h3.8c3.9 0 6.1 2.3 6.1 5.5s-2.3 5.5-6.1 5.5h-7v-19.1zm3.1 10.5v6.3h3.8c1.8 0 3.1-1.3 3.1-3.2 0-1.8-1.3-3.2-3.1-3.2h-3.8zm13.1-10.5h3.1v19.2h-3.1v-19.2zM892.9 164.6c.3 3.8 2.8 6.3 6.8 6.3 2.2 0 3.9-.7 5.1-2l1.9 1.9c-1.8 1.8-4.2 2.9-7.2 2.9-5.9 0-9.9-4-9.9-10 0-5.8 3.7-9.8 9.2-9.8 5.5 0 8.7 4.1 8.7 10.7h-14.6zm0-2.3h11.5c-.4-3.5-2.3-5.8-5.5-5.8s-5.7 2.3-6 5.8zM925.4 154.1v1.6c1.5-1.2 3.5-1.9 5.7-1.9 5.5 0 9.3 4 9.3 9.9s-3.9 9.9-9.7 9.9c-2 0-3.8-.5-5.2-1.4V184h-3.1v-29.9h3zm4.9 2.5c-2.1 0-3.8.7-4.9 1.9V169c1.2 1.2 2.9 1.8 4.9 1.8 4 0 6.7-2.9 6.7-7.1s-2.7-7.1-6.7-7.1zM947.5 164.6c.3 3.8 2.8 6.3 6.8 6.3 2.2 0 3.9-.7 5.1-2l1.9 1.9c-1.8 1.8-4.2 2.9-7.2 2.9-5.9 0-9.9-4-9.9-10 0-5.8 3.7-9.8 9.2-9.8 5.5 0 8.7 4.1 8.7 10.7h-14.6zm0-2.3H959c-.4-3.5-2.3-5.8-5.5-5.8s-5.7 2.3-6 5.8zM987.9 154.1h3.1v19.2h-24v-19.2h3.1v16.7h7.4v-16.7h3.1v16.7h7.4v-16.7zM999.4 164.6c.3 3.8 2.8 6.3 6.8 6.3 2.2 0 3.9-.7 5.1-2l1.9 1.9c-1.8 1.8-4.2 2.9-7.2 2.9-5.9 0-9.9-4-9.9-10 0-5.8 3.7-9.8 9.2-9.8 5.5 0 8.7 4.1 8.7 10.7h-14.6zm0-2.3h11.5c-.4-3.5-2.3-5.8-5.5-5.8s-5.6 2.3-6 5.8zM1022.1 162.4h10.1v-8.2h3.1v19.2h-3.1V165h-10.1v8.4h-3.1v-19.2h3.1v8.2zM1044.6 168.4l10.9-14.2h2.5v19.2h-3.1v-14.2l-10.9 14.2h-2.5v-19.2h3.1v14.2zM1077.7 173.3h-3.1v-7.9h-3.5l-4.4 7.9h-3.3l4.8-8.1c-2.8-.6-4.4-2.7-4.4-5.4 0-3.3 2.3-5.7 6.3-5.7h7.6v19.2zm-3.1-10.2v-6.5h-4.4c-1.9 0-3.2 1.3-3.2 3.2s1.3 3.3 3.2 3.3h4.4zM1083.3 176.7c.9-.9 1.8-2 2-3.1-1-.1-1.7-1-1.7-2 0-1.2.9-2.1 2.1-2.1 1 0 2.1.7 2.1 2.4 0 2.3-1.7 4.4-3.3 5.9l-1.2-1.1zM675.4 207.8h-9.5v16.7h-3.1v-19.2h15.7v19.2h-3.1v-16.7zM687.9 205.3v1.6c1.5-1.2 3.5-1.9 5.7-1.9 5.5 0 9.3 4 9.3 9.9s-3.9 9.9-9.7 9.9c-2 0-3.8-.5-5.2-1.4v11.8h-3.1v-29.9h3zm4.9 2.5c-2.1 0-3.8.7-4.9 1.9v10.5c1.2 1.2 2.9 1.8 4.9 1.8 4 0 6.7-2.9 6.7-7.1s-2.7-7.1-6.7-7.1zM716.6 205c5.9 0 9.9 4 9.9 9.9s-4 9.9-9.9 9.9-9.9-4-9.9-9.9 3.9-9.9 9.9-9.9zm0 17.1c4 0 6.7-2.9 6.7-7.1s-2.7-7.1-6.7-7.1-6.7 2.9-6.7 7.1 2.7 7.1 6.7 7.1zM734.6 219.6l10.9-14.2h2.5v19.2h-3.1v-14.2L734 224.5h-2.5v-19.2h3.1v14.3zM765.4 210.1c0 1.9-.9 3.5-2.4 4.4 2.3.8 3.4 2.6 3.4 4.9 0 3.2-2.5 5.4-6.9 5.4-3.2 0-5.2-1.2-6.9-2.9l1.8-1.7c1.2 1.3 2.9 2 4.8 2 2.6 0 4.1-1.4 4.1-3.4 0-1.9-1.3-3.2-3.2-3.2h-2.9v-2.2h2.2c1.8 0 3-1.3 3-3 0-1.5-1.1-3-3.4-3-1.6 0-3.2.7-4.3 1.9l-1.7-1.8c1.6-1.6 3.6-2.6 6.3-2.6 3.8.1 6.1 2.2 6.1 5.2zM771.7 205.3h7.1c3.4 0 5.4 2 5.4 4.9 0 1.9-.9 3.3-2.3 4.2 2.2.7 3.4 2.5 3.4 4.9 0 3.1-2.1 5.3-5.8 5.3h-7.8v-19.3zm6.6 8.2c1.7 0 2.9-1.2 2.9-2.9s-1.2-2.9-2.9-2.9h-3.5v5.8h3.5zm-3.5 2.2v6.5h4.1c1.9 0 3.2-1.3 3.2-3.2s-1.3-3.2-3.2-3.2h-4.1zM799.3 205c5.9 0 9.9 4 9.9 9.9s-4 9.9-9.9 9.9-9.9-4-9.9-9.9 3.9-9.9 9.9-9.9zm0 17.1c4 0 6.7-2.9 6.7-7.1s-2.7-7.1-6.7-7.1-6.7 2.9-6.7 7.1 2.7 7.1 6.7 7.1zM830.9 229.7H828v-5.1h-13.7v5.1h-2.9v-7.6c2.1 0 3.8-1.8 3.8-4.3v-12.5h13.2V222h2.6v7.7zm-14.5-7.6h8.9v-14.2h-7v9.7c0 1.8-.7 3.3-1.9 4.5zM843.3 222.1c2.1 0 3.8-.7 5-2l1.9 1.9c-1.7 1.8-4.2 2.9-7.1 2.9-5.9 0-9.9-4-9.9-9.9s4-9.9 9.9-9.9c2.9 0 5.4 1.1 7.1 2.9l-1.9 1.9c-1.2-1.3-2.9-2-5-2-4.1 0-6.8 2.9-6.8 7.1s2.7 7.1 6.8 7.1zM861.7 224.5h-3.1v-16.7h-6v-2.5h15.1v2.5h-6v16.7zM872.5 205.3h7.1c3.4 0 5.4 2 5.4 4.9 0 1.9-.9 3.3-2.3 4.2 2.2.7 3.4 2.5 3.4 4.9 0 3.1-2.1 5.3-5.8 5.3h-7.8v-19.3zm6.6 8.2c1.7 0 2.9-1.2 2.9-2.9s-1.2-2.9-2.9-2.9h-3.5v5.8h3.5zm-3.5 2.2v6.5h4.1c1.9 0 3.2-1.3 3.2-3.2s-1.3-3.2-3.2-3.2h-4.1zM900.1 205c5.9 0 9.9 4 9.9 9.9s-4 9.9-9.9 9.9-9.9-4-9.9-9.9 4-9.9 9.9-9.9zm0 17.1c4 0 6.7-2.9 6.7-7.1s-2.7-7.1-6.7-7.1-6.7 2.9-6.7 7.1 2.7 7.1 6.7 7.1zM928 219.6l10.9-14.2h2.5v19.2h-3.1v-14.2l-10.9 14.2h-2.5v-19.2h3.1v14.2zM970 207.8h-9.5v16.7h-3.1v-19.2h15.7v19.2H970v-16.7zM982.5 205.3v1.6c1.5-1.2 3.5-1.9 5.7-1.9 5.5 0 9.3 4 9.3 9.9s-3.9 9.9-9.7 9.9c-2 0-3.8-.5-5.2-1.4v11.8h-3.1v-29.9h3zm4.9 2.5c-2.1 0-3.8.7-4.9 1.9v10.5c1.2 1.2 2.9 1.8 4.9 1.8 4 0 6.7-2.9 6.7-7.1s-2.7-7.1-6.7-7.1zM1011.2 205c5.9 0 9.9 4 9.9 9.9s-4 9.9-9.9 9.9-9.9-4-9.9-9.9 4-9.9 9.9-9.9zm0 17.1c4 0 6.7-2.9 6.7-7.1s-2.7-7.1-6.7-7.1-6.7 2.9-6.7 7.1 2.7 7.1 6.7 7.1zM1042.9 229.7h-2.9v-5.1h-13.7v5.1h-2.9v-7.6c2.1 0 3.8-1.8 3.8-4.3v-12.5h13.2V222h2.6v7.7zm-14.5-7.6h8.9v-14.2h-7v9.7c-.1 1.8-.7 3.3-1.9 4.5zM1061.9 224.5c-.3.1-.8.2-1.2.2-1.6 0-2.7-.8-3.2-2-1.5 1.4-3.5 2.2-5.5 2.2-3.8 0-5.5-2.7-5.5-5.2 0-4 4.1-6.2 9.3-6.2.7 0 1.1 0 1.5.1v-2.3c0-1.6-1.2-3.5-3.9-3.5-1.5 0-3.3.6-4.2 1.6l-1.7-1.7c1.5-1.5 3.7-2.4 6.1-2.4 4.5 0 6.7 2.9 6.7 6.1v9.7c0 1 .7 1.6 1.6 1.6v1.8zm-4.7-4v-4.8c-.3 0-.7-.1-1.3-.1-3.6 0-6.3 1.4-6.3 3.8 0 1.2.8 3 3.3 3 1.4-.1 3.1-.7 4.3-1.9zM1079.6 214.6v10h-3.1v-10l-7.8 10h-3.5l7.9-10.1-7.2-9.1h3.6l7 9v-9h3.1v9l7-9h3.6l-7.2 9.1 7.9 10.1h-3.6l-7.7-10zM1109 224.5c-.3.1-.8.2-1.2.2-1.6 0-2.7-.8-3.2-2-1.5 1.4-3.5 2.2-5.5 2.2-3.8 0-5.5-2.7-5.5-5.2 0-4 4.1-6.2 9.3-6.2.7 0 1.1 0 1.5.1v-2.3c0-1.6-1.2-3.5-3.9-3.5-1.5 0-3.3.6-4.2 1.6l-1.7-1.7c1.5-1.5 3.7-2.4 6.1-2.4 4.5 0 6.7 2.9 6.7 6.1v9.7c0 1 .7 1.6 1.6 1.6v1.8zm-4.8-4v-4.8c-.3 0-.7-.1-1.3-.1-3.6 0-6.3 1.4-6.3 3.8 0 1.2.8 3 3.3 3 1.5-.1 3.2-.7 4.3-1.9z"/></svg>