<svg xmlns="http://www.w3.org/2000/svg" width="512" height="512" viewBox="0 0 612 612"><path d="M605.821 350.504c-14.572-10.472-36.69-17.157-61.467-17.157-38.362 0-70.37 16.019-77.817 37.32h-3.195c-7.265-21.44-39.371-37.6-77.898-37.6-24.817 0-46.924 6.727-61.489 17.229v180.318c0 44.877-36.509 81.386-81.386 81.386-44.877 0-81.386-36.509-81.386-81.386 0-9.918 8.036-17.953 17.953-17.953s17.953 8.035 17.953 17.953c0 25.077 20.401 45.479 45.479 45.479s45.479-20.401 45.479-45.479V350.59c-14.569-10.509-36.688-17.243-61.516-17.243-38.362 0-70.37 16.019-77.816 37.32h-3.196c-7.265-21.44-39.371-37.6-77.899-37.6-24.761 0-46.869 6.676-61.44 17.136 11.71-127.852 132.01-229.48 281.868-237.048v-13.42c0-9.917 8.036-17.953 17.953-17.953s17.953 8.036 17.953 17.953v13.422c149.963 7.584 270.318 109.361 281.867 237.347zM200.577 28.726s-35.256 24.968-40.29 34.503c-5.034 9.535-1.384 21.346 8.151 26.38 9.535 5.034 21.346 1.384 26.38-8.151 5.033-9.536 5.759-52.732 5.759-52.732zM279.668 0s-35.256 24.968-40.29 34.503c-5.034 9.535-1.384 21.346 8.151 26.379 9.536 5.034 21.346 1.384 26.38-8.151S279.668 0 279.668 0zm93.261 0s-35.256 24.968-40.29 34.503c-5.033 9.535-1.384 21.346 8.151 26.379s21.346 1.384 26.379-8.151C372.203 43.196 372.929 0 372.929 0zm74.264 26.711s-35.256 24.968-40.29 34.503c-5.033 9.535-1.384 21.346 8.151 26.379 9.535 5.034 21.346 1.384 26.38-8.151 5.034-9.535 5.759-52.731 5.759-52.731z" fill="#06437f"/></svg>