<svg id="Layer_1" data-name="Layer 1" xmlns="http://www.w3.org/2000/svg" viewBox="0 0 328.67 320.67"><defs><style>.cls-1{fill:#006bb3;fill-rule:evenodd}</style></defs><title>webmoney</title><path class="cls-1" d="M164.4 5.89a154 154 0 0 1 68 15.74q4.84 2.3 9.67 5.07l-14.32 12.78L206.3 17.3l-36.2 32.29-21.5-23.47-67.45 60.79 43.23 47.65-17 14.94L150 197.22l-16.89 14.91 60.85 67.74 36.12-33.26 31.23 35.64a165.57 165.57 0 0 1-20.43 13.57 153.9 153.9 0 0 1-76.46 20.25C79 316.07 9.31 246.4 9.31 161S79 5.89 164.4 5.89z"/><path class="cls-1" d="M136.14 151.18l36.88-33.21 33.21 36.89-36.88 33.2-33.21-36.88zM162.36 214.91l36.88-33.2 33.22 36.88-36.88 33.21-33.22-36.89zM109.75 88.2L146.63 55l33.2 36.88-36.88 33.2-33.2-36.88zM177.43 70.33l27.65-24.9 24.91 27.66L202.33 98l-24.9-27.67zM226.57 184.4l27.67-24.91 24.9 27.67-27.66 24.9-24.91-27.66zM250.9 240.27l27.65-24.91 24.91 27.66-27.65 24.9-24.91-27.65zM262.04 112.22l18.44-16.6 16.6 18.44-18.43 16.6-16.61-18.44zM238.48 57.43l18.44-16.6 16.61 18.44-18.45 16.6-16.6-18.44zM285.62 167.01l18.44-16.6 16.6 18.43-18.44 16.61-16.6-18.44zM202.92 125.96l27.66-24.92 24.9 27.66-27.65 24.91-24.91-27.65z"/></svg>