<svg id="Layer_1" data-name="Layer 1" xmlns="http://www.w3.org/2000/svg" viewBox="0 0 84.85 28.62"><defs><style>.cls-1{fill:#dd0b1c;}</style></defs><title>coca-logo</title><path class="cls-1" d="M244.66,265.15a10.59,10.59,0,0,0-6.75-2.12,4.12,4.12,0,0,0-3.29,1.92c-1-1.92-3-3.1-6.18-3.07-5.05.06-10.07,2.58-14,2.58-3.81,0-6.59-2.57-6.5-7.15.16-8,6.46-15.25,11.17-18.5,2.71-1.87,5-2.42,6.46-2.25a2.35,2.35,0,0,1,1.56,3.45c-1.2,2.9-2.87,2.66-2.81,1.27a2.32,2.32,0,0,1,1-1.78,1.93,1.93,0,0,1,1-.26c.24-.22.42-1.8-1.52-1.28s-4.27,2.57-6.5,5.21-5.69,7.65-6.54,12.9c-.4,2.44-.13,6.88,5.23,6.82,4.55,0,11.26-3.27,17.43-3.21a11.14,11.14,0,0,1,6.1,1.79,17.14,17.14,0,0,1,4.19,3.66m1.46-14.54H247s-4.67,7.26-7.31,6.94c-1.47-.18-1-2.14-1-2.14s-2.07,2.61-4,2.09c-1.72-.48-.61-3.56-.61-3.56-.2.09-3.93,4.61-6.55,3.53s-1.32-4.93-.8-6.06c.44-1,.93-1.9.93-1.9l-.68.19-.66.15s-1.3,2.27-2.09,3.4-4.16,5-6.15,4.25-1.5-3.76-.38-6.14c1.81-3.85,6.1-8.58,8.69-7.87s.45,5.28.45,5.28.52.07,1.77-.84c1.79-1.32,4.16-4.86,6.72-4.44,1.2.19,2.33,1.52.79,4-.49.81-1.32,1.54-1.95.82-.39-.44,0-1.26.36-1.81a1.56,1.56,0,0,1,1.38-.68s.42-1-.65-1c-.87,0-3.08,2.21-4.32,4.41-1.14,2-2.87,5.48-1.13,6.23s4.62-3.18,6-5.21,4.6-6.63,7.28-6.82a1.78,1.78,0,0,1,1.48.84l.31-.53h2.68s-5,9.08-5.45,9.76-.72,1.75.42,1.07,3.52-4,3.52-4m-20.8-.92a5.69,5.69,0,0,1-1.38-.68,3.09,3.09,0,0,1-1-1.17s-.05,0-.08,0-.17.24-1.12,1.74-2.37,4.6-1,5.13c.85.34,2.28-1.27,3.05-2.33a26.51,26.51,0,0,0,1.6-2.59c0-.09,0-.11,0-.13m1.06-4.82c-.7-.57-2.49.77-2.5,2.13s1.62,1.8,1.83,1.81a.21.21,0,0,0,.26-.11,12.33,12.33,0,0,0,.52-1.24c.25-.7.56-2.06-.1-2.59M240,252.42c1.08-1.6,4.07-7.19,4.07-7.19s0-.39-.4-.41-1.1.13-2.47,2a34.78,34.78,0,0,0-3.21,4.84c-.85,1.67-1.22,2.84-.73,3.16a.67.67,0,0,0,.51.06,3.11,3.11,0,0,0,1.3-1.14c.27-.33.57-.77.92-1.29m12.05-8.66h-2.55l-1.44,2.5h2.55Zm33.4,18.65a.86.86,0,0,0-.65.29,1,1,0,0,0-.27.7,1,1,0,0,0,.27.71.87.87,0,0,0,.65.29.88.88,0,0,0,.65-.29,1,1,0,0,0,.27-.71,1,1,0,0,0-.27-.7.87.87,0,0,0-.65-.29m1.07,1a1.15,1.15,0,0,1-.31.82,1,1,0,0,1-1.52,0,1.16,1.16,0,0,1-.31-.82,1.14,1.14,0,0,1,.32-.81,1,1,0,0,1,.75-.34,1,1,0,0,1,.76.34,1.13,1.13,0,0,1,.31.81m-.79-.25a.21.21,0,0,0-.08-.19.5.5,0,0,0-.25,0h-.18v.46h.19a.69.69,0,0,0,.2,0,.21.21,0,0,0,.12-.2m-.71-.39h.41a.85.85,0,0,1,.32,0,.31.31,0,0,1,.19.32.27.27,0,0,1-.12.25.39.39,0,0,1-.17.07.27.27,0,0,1,.2.12.39.39,0,0,1,.06.2v.09s0,.06,0,.09,0,.06,0,.07v0h-.2v-.14c0-.15,0-.24-.11-.29a.44.44,0,0,0-.23,0h-.17v.5h-.2Zm4.62-23.51a11,11,0,0,1-7,2.22c-.63.71-1.31,1.52-2,2.41,4.35.92,8.15-2,10.17-4.44a14.75,14.75,0,0,0,1.89-2.91,17.22,17.22,0,0,1-3.07,2.72m-7.45,21.24c-.36.62-.77,1.81.42,1.07,1.45-.9,3.51-4.27,3.51-4.27h.93a33.69,33.69,0,0,1-2.83,4c-1.47,1.75-3.26,3.34-4.52,3.18-1.47-.18-1-2.27-1-2.27s-2.12,2.42-3.57,2.24c-2-.23-1.37-2.86-1.37-2.86s-2.23,2.95-3.74,2.86c-2.38-.15-1.79-3.27-1.12-5.46.35-1.17.68-2.1.68-2.1a7.2,7.2,0,0,1-.74.15c-.27,0-.75.07-.75.07a34.91,34.91,0,0,1-1.78,3c-.79,1.13-4.16,5-6.15,4.25-1.83-.72-1.23-3.74-.16-6.14,1.56-3.5,5.94-8.53,8.47-7.87s.06,5.83.06,5.83a0,0,0,0,0,0,0,1,1,0,0,0,.5,0,5.17,5.17,0,0,0,1-.31,61,61,0,0,1,5.54-9.82c2.91-3.88,8.71-10.57,11-9,.56.4.3,1.77-.45,3.43a9.62,9.62,0,0,1-1,.29,9.36,9.36,0,0,0,.93-2.38c.34-2-4,2.22-7.12,6.77a64.19,64.19,0,0,0-5,8.67,13.36,13.36,0,0,0,1.61-1.23,48.29,48.29,0,0,0,4-4,45.28,45.28,0,0,0,3.36-4.17,9.11,9.11,0,0,0,1-.11,45.13,45.13,0,0,1-3.71,4.72c-1.24,1.35-2.58,2.8-3.75,3.86a31,31,0,0,1-3.29,2.63s-2.73,5.9-1.24,6.28c.87.22,2.59-2.62,2.59-2.62s2.24-3.68,3.59-5.34c1.85-2.26,3.43-3.56,5-3.59.92,0,1.47,1,1.47,1l.43-.72h2.68s-5,9.12-5.39,9.81m-15.05-3.59a5.48,5.48,0,0,1-1.23-.84,4.24,4.24,0,0,1-.93-1.21s-.05,0-.08,0-.13.14-1.09,1.65-2.42,4.63-1.09,5.15c.85.34,2.27-1.26,3-2.33a19.85,19.85,0,0,0,1.42-2.33c0-.09,0-.11,0-.13m1.35-2.55c.25-.7.56-2.06-.09-2.59s-2.49.77-2.5,2.13a2.32,2.32,0,0,0,1.57,2.12c.17,0,.23,0,.32-.11a12.51,12.51,0,0,0,.71-1.55m15.38-1.93a1,1,0,0,0,.08-.19s0-.39-.4-.41-1,.06-2.46,1.83a24,24,0,0,0-3.14,4.81c-.85,1.67-1.19,2.91-.7,3.23a.69.69,0,0,0,.51.06c.33-.09.7-.42,1.27-1.12.27-.33.56-.8.92-1.32,1-1.43,3.43-6,3.92-6.86m5.78-13.17a11,11,0,0,1-7,2.22c-.63.71-1.31,1.52-2,2.41,4.35.92,8.15-2,10.17-4.44a14.75,14.75,0,0,0,1.89-2.91,17.22,17.22,0,0,1-3.07,2.72m-12.21,3.39c-2.06-1.13-3.56-2.52-5.12-3.38a5.52,5.52,0,0,0-3.66-1,3.36,3.36,0,0,0-.5.13s.62,2.28-1.84,6.11-4.77,3.86-5.42,2.79.19-3.42,1.65-5.47a18.66,18.66,0,0,1,4.2-3.91s-.86-.56-3,.72a30.54,30.54,0,0,0-8.84,9.22c-3.26,5-3.92,7.76-4.39,9.93s0,4.49,2.2,4.49,4.83-3.67,5.57-4.95c1.36-2.37,2.25-6,.4-5.51a4.07,4.07,0,0,0-2.12,2.39,10.61,10.61,0,0,0-.67,2.11,7.61,7.61,0,0,0-1.81,1.13,13.84,13.84,0,0,0-1.72,1.63,12.27,12.27,0,0,1,1.29-4.54,7,7,0,0,1,5-4.21c1.21-.11,2.77,1,1.45,5s-5.24,9-9.35,9c-3.8.06-6.28-5.15-1-14.24,5.84-10.05,12.7-13.14,14.93-13.48s2.95.71,2.95.71a9,9,0,0,1,4.23-.76c2.72.2,4.82,2.27,7.6,3.72-.73.76-1.41,1.53-2,2.26m-10.13-3.94a10.63,10.63,0,0,0-3.44,2.88c-1.86,2.2-2.92,4.66-2.13,5.31.3.25,1,.29,2.29-.95a10.93,10.93,0,0,0,2.71-4,5.88,5.88,0,0,0,.56-3.19" transform="translate(-207.89 -236.53)"/></svg>