<svg id="Layer_1" data-name="Layer 1" xmlns="http://www.w3.org/2000/svg" xmlns:xlink="http://www.w3.org/1999/xlink" viewBox="0 0 483.58 110.69"><defs><style>.cls-1,.cls-2,.cls-3,.cls-4,.cls-5{fill-rule:evenodd;}.cls-1{fill:url(#GradientFill_1);}.cls-2{fill:url(#GradientFill_1-2);}.cls-3{fill:url(#GradientFill_2);}.cls-4{fill:url(#GradientFill_3);}.cls-5,.cls-6{fill:#1f3d7f;}</style><linearGradient id="GradientFill_1" x1="54.26" y1="392.86" x2="54.26" y2="147.66" gradientUnits="userSpaceOnUse"><stop offset="0" stop-color="#965915"/><stop offset="0.26" stop-color="#b98315"/><stop offset="0.51" stop-color="#e0b40c"/><stop offset="0.76" stop-color="#f1cf3f"/><stop offset="1" stop-color="#ffe96a"/></linearGradient><linearGradient id="GradientFill_1-2" x1="74.22" y1="107.47" x2="74.22" y2="353.21" xlink:href="#GradientFill_1"/><linearGradient id="GradientFill_2" x1="-77.94" y1="240.32" x2="166.51" y2="240.32" gradientUnits="userSpaceOnUse"><stop offset="0" stop-color="#075aa2"/><stop offset="0.06" stop-color="#075aa2"/><stop offset="0.28" stop-color="#154c8f"/><stop offset="0.53" stop-color="#1f3d7f"/><stop offset="0.76" stop-color="#1f386d"/><stop offset="1" stop-color="#1f335d"/></linearGradient><linearGradient id="GradientFill_3" x1="206.46" y1="260.28" x2="-38.05" y2="260.28" gradientUnits="userSpaceOnUse"><stop offset="0" stop-color="#075aa2"/><stop offset="0.06" stop-color="#075aa2"/><stop offset="0.26" stop-color="#154c8f"/><stop offset="0.48" stop-color="#1f3d7f"/><stop offset="0.74" stop-color="#1f386d"/><stop offset="1" stop-color="#1f335d"/></linearGradient></defs><title>eriell</title><path class="cls-1" d="M79.66,250.3a35.38,35.38,0,0,1-35.38,35.39h0A35.38,35.38,0,0,1,8.9,250.3h0a55.34,55.34,0,0,0,55.33,55.35,35.39,35.39,0,1,0,0-70.78h0A15.43,15.43,0,0,1,79.66,250.3Z" transform="translate(-8.9 -194.95)"/><path class="cls-2" d="M28.85,230.34a35.38,35.38,0,0,0,35.28,35.39h0A15.44,15.44,0,0,1,48.8,250.29h0A35.39,35.39,0,0,1,84.2,214.91h0a35.39,35.39,0,0,1,35.4,35.39A55.35,55.35,0,0,0,64.24,195h0a35.38,35.38,0,0,0-35.38,35.38Z" transform="translate(-8.9 -194.95)"/><path class="cls-3" d="M8.9,250.3a35.38,35.38,0,0,0,35.38,35.39h0a35.39,35.39,0,0,0,35.38-35.4,15.44,15.44,0,0,1-15.42,15.43h0a35.38,35.38,0,0,1-35.38-35.38h0A35.38,35.38,0,0,1,64.23,195h0A55.34,55.34,0,0,0,8.9,250.3Z" transform="translate(-8.9 -194.95)"/><path class="cls-4" d="M48.82,250.2a15.43,15.43,0,0,1,15.42-15.32h0a35.39,35.39,0,0,1,35.4,35.39h0a35.4,35.4,0,0,1-35.4,35.39,55.35,55.35,0,0,0,55.36-55.34A35.39,35.39,0,0,0,84.2,214.92h0A35.38,35.38,0,0,0,48.82,250.2Z" transform="translate(-8.9 -194.95)"/><path class="cls-5" d="M491.34,266.32H454.76V228.45a1.51,1.51,0,0,0-1.51-1.5h-8a1.51,1.51,0,0,0-1.51,1.5v44.84a1.51,1.51,0,0,0,1.51,1.5h40.83a3.78,3.78,0,0,0,2.88-1.6l3.28-5.27C492.78,267,492.38,266.32,491.34,266.32Z" transform="translate(-8.9 -194.95)"/><rect class="cls-6" x="289.44" y="31.99" width="11" height="47.82" rx="1.5" ry="1.5"/><path class="cls-5" d="M434.09,266.32H397.51V228.45a1.51,1.51,0,0,0-1.51-1.5h-8a1.5,1.5,0,0,0-1.5,1.5v44.84a1.51,1.51,0,0,0,1.5,1.5h40.84a3.78,3.78,0,0,0,2.87-1.6l3.28-5.27C435.52,267,435.13,266.32,434.09,266.32Z" transform="translate(-8.9 -194.95)"/><path class="cls-5" d="M221.67,266.32H182V255.1h22.4a3.76,3.76,0,0,0,2.87-1.59l3.28-5.27c.54-.88.14-1.6-.89-1.6H187.27a3.77,3.77,0,0,0-2.87,1.6L182,252.05V235.41H213.4a3.76,3.76,0,0,0,2.87-1.6l3.28-5.27c.55-.88.15-1.6-.88-1.6H178.89a7.88,7.88,0,0,0-7.88,7.7s0,.07,0,.1v38.55a1.51,1.51,0,0,0,1.5,1.5h43.9a3.78,3.78,0,0,0,2.87-1.6l3.28-5.28C223.1,267,222.7,266.32,221.67,266.32Z" transform="translate(-8.9 -194.95)"/><path class="cls-5" d="M375.17,266.32H335.53V255.1h22.4a3.76,3.76,0,0,0,2.87-1.59l3.28-5.27c.54-.88.15-1.6-.89-1.6H340.77a3.77,3.77,0,0,0-2.87,1.6l-2.37,3.83V235.41H366.9a3.78,3.78,0,0,0,2.87-1.6l3.28-5.27c.55-.88.15-1.6-.89-1.6H332.4a7.88,7.88,0,0,0-7.88,7.7s0,.07,0,.1v38.55a1.51,1.51,0,0,0,1.5,1.5h43.9a3.78,3.78,0,0,0,2.87-1.6l3.28-5.28C376.6,267,376.2,266.32,375.17,266.32Z" transform="translate(-8.9 -194.95)"/><path class="cls-5" d="M244.84,251.23l-2.36,3.8V235.41H272.2v14.23H247.72a3.78,3.78,0,0,0-2.87,1.59Zm38.36-16.4a7.89,7.89,0,0,0-7.89-7.88H239.37a7.89,7.89,0,0,0-7.89,7.9v38.39a1.51,1.51,0,0,0,1.51,1.51h8a1.51,1.51,0,0,0,1.5-1.51V258.11h23.07l5.72,15.25a2.34,2.34,0,0,0,2,1.41h8.76a1,1,0,0,0,1-1.41l-5.82-15.5a7.88,7.88,0,0,0,6-7.66Z" transform="translate(-8.9 -194.95)"/></svg>