<svg id="Layer_1" data-name="Layer 1" xmlns="http://www.w3.org/2000/svg" viewBox="0 0 319.13 98.29"><defs><style>.cls-1,.cls-2{fill:#095ba6;}.cls-1{fill-rule:evenodd;}</style></defs><title>haier</title><path class="cls-1" d="M332,242.62A20.39,20.39,0,0,1,350.88,256H313A20.39,20.39,0,0,1,332,242.62Zm35.94,24.86a36.09,36.09,0,0,0,.21-3.88c0-19.8-16.41-35.85-36.66-35.85s-36.66,16-36.66,35.85,16.42,35.85,36.66,35.85a36.66,36.66,0,0,0,34-22.43l-15.8-2.77A20.22,20.22,0,0,1,332,285c-10,0-18.37-7.55-20-17.48Z" transform="translate(-90.8 -201.16)"/><rect class="cls-2" x="175.43" y="28.09" width="18.71" height="68.91"/><ellipse class="cls-2" cx="184.78" cy="10.43" rx="10.44" ry="10.43"/><polygon class="cls-1" points="60.83 5.99 60.83 43.09 20.47 43.09 20.47 5.99 0 5.99 0 96.93 20.47 96.93 20.47 59.84 60.83 59.84 60.83 96.93 81.3 96.93 81.3 5.99 60.83 5.99"/><path class="cls-1" d="M218.4,284.33a20.72,20.72,0,1,1,21-20.72,20.84,20.84,0,0,1-21,20.72Zm17.73-55.06V233a35.84,35.84,0,1,0-.43,61.53v3.6H254V229.28Z" transform="translate(-90.8 -201.16)"/><path class="cls-1" d="M406.83,222.83a37.07,37.07,0,0,0-30.54,36.12v39.2h17.92V258.21a17.92,17.92,0,0,1,15.71-17.78Z" transform="translate(-90.8 -201.16)"/></svg>