<?xml version="1.0" encoding="utf-8"?>
<!-- Generator: Adobe Illustrator 20.1.0, SVG Export Plug-In . SVG Version: 6.00 Build 0)  -->
<svg version="1.1" id="Слой_1" xmlns="http://www.w3.org/2000/svg" xmlns:xlink="http://www.w3.org/1999/xlink" x="0px" y="0px"
	 viewBox="0 0 337.3 159.4" style="enable-background:new 0 0 337.3 159.4;" xml:space="preserve">
<style type="text/css">
	.st0{fill:#003F78;}
</style>
<path class="st0" d="M16.7,26.3c-2.7,0-7.2,0-10,2.7c-3,2.9-3,7.7-3,9.8v24.1c0,2.1,0,6.9,3,9.8c2.8,2.7,7.4,2.7,10.1,2.7h27.2
	c2.7,0,7.2,0,10-2.7c3-2.9,3-7.8,3-9.8v-6.9h-14v7.7H17.7V38h25.3v7h14v-6.2c0-2.1,0-6.9-3-9.8c-2.8-2.7-7.3-2.7-10-2.7H16.7z"/>
<path class="st0" d="M117,63.6H85.4V38H117V63.6z M84.4,26.3c-2.7,0-7.2,0-10,2.7c-3,2.9-3,7.7-3,9.8v24.1c0,2.1,0,6.9,3,9.8
	c2.8,2.7,7.3,2.7,10,2.7H118c2.7,0,7.2,0,10-2.7c3-2.9,3-7.8,3-9.8V38.8c0-2.1,0-6.9-3-9.8c-2.8-2.7-7.4-2.7-10.1-2.7H84.4"/>
<polygon class="st0" points="191.5,26.3 146.8,26.3 146.8,75.4 160.9,75.4 160.9,38 193.3,38 193.3,26.3 "/>
<path class="st0" d="M218,40.4c1.8,3.4,5.4,10.2,7.1,13.3h-14.4C212.4,50.6,216.2,43.8,218,40.4 M223.6,26.3h-11.3l-27.8,49.1h14.7
	c0,0,4.5-8.4,5.2-9.9h27c0.8,1.5,5.4,9.9,5.4,9.9h15.9l-28.2-49.1H223.6"/>
<path class="st0" d="M138.8,122.2c-0.1-1.9-0.3-2.1-2.4-2.2h-6.1v4.9h5.4C138.3,124.8,138.7,124.4,138.8,122.2"/>
<path class="st0" d="M213.5,120h-5.9v6h4.4c3.2-0.1,4.1-0.4,4.2-3.1C216.1,120.6,216,120.1,213.5,120"/>
<path class="st0" d="M116,119.8c-4.9,0.1-5.1,0.6-5.2,6.4c0.1,5.8,0.4,6.2,5.2,6.4c4.8-0.1,5-0.6,5.2-6.4
	C121,120.4,120.8,119.9,116,119.8"/>
<path class="st0" d="M167,123.2c0,1.7,1.2,2.7,3.9,2.7h5.1V120h-6C167.5,120,167,120.9,167,123.2"/>
<path class="st0" d="M136.4,127.2h-6v5.2h5.2c3.1-0.1,3.8-0.1,3.8-2.7C139.2,127.2,139,127.3,136.4,127.2"/>
<path class="st0" d="M271.7,26.3c-2.6,0-6.1,0.4-8.2,2.2c-2.9,2.5-2.9,6.5-2.9,7.8V45h12.4v-7.9h21.6c1.4,0,1.7,0.3,1.7,0.3
	c0.2,0.2,0.4,0.5,0.4,1.6v3.8c0,1.1-0.2,1.4-0.3,1.4c-0.3,0.3-0.7,0.3-1.5,0.3h-16.8v10.8h17.2c1,0,1.7,0.2,1.9,0.4
	c0.2,0.2,0.4,0.5,0.4,1.6v4.3c0,0.9-0.2,1.4-0.3,1.5c-0.2,0.2-0.6,0.4-2,0.4h-23v-7.7h-12.8v9c0,2.4,0.3,5.7,2.5,7.9
	c2.2,2.2,6.2,2.5,9.4,2.5h25c5.5,0,9.4-1,11.8-3.1c2.2-1.8,3.3-4.4,3.3-7.6v-5.8c0-3.6-1.4-5.8-2.6-7.1c-0.7-0.8-1.7-1.3-2.7-1.9
	c0.7-0.5,1.4-0.9,2-1.5c1.8-2,2.1-4.2,2.1-6v-5.6c0-2.6-0.3-5.6-2.7-7.8c-2-1.8-5-2.8-8.9-2.8H271.7z"/>
<rect x="3.7" y="3" class="st0" width="308.1" height="3.1"/>
<path class="st0" d="M3.7,156.8h307.8V95.5H3.7V156.8z M37,128.9c0,2.1-0.4,3.7-1.6,4.7c-1.2,1-3.1,1.3-5.9,1.3
	c-2.7,0-4.6-0.3-5.9-1.7c-1.2-1.4-1.7-3.5-1.7-7c0-3.5,0.4-5.7,1.6-7c1.2-1.4,3.1-1.7,5.9-1.7c5.8-0.1,7.1,1.9,7.2,5.7l0,0.4h-0.4
	h-2.3l0-0.3c-0.4-2.8-0.5-3.3-4.6-3.4c-4,0.1-4.7,0.8-4.8,6.5c0.1,5.6,0.8,6.2,4.8,6.3c4.3-0.1,4.7-0.6,4.8-3.7v-0.4h0.4H37V128.9z
	 M53.2,118v1.9h-5.8v14.7H47h-2.3V120h-5.5h-0.3v-0.3v-1.9h14.3V118z M68.8,127.1c-1,0.9-2.6,1.2-4.9,1.2h-5v6.4h-0.4h-2.3v-17h8.9
	c3.6,0,5.1,1.7,5.1,5C70.2,124.7,69.8,126.1,68.8,127.1 M87.6,134.7h-2.4l-0.1-0.2l-1.3-3.1h-8.6l-1.4,3.3h-0.2h-2.7l6.7-16.8
	l0.1-0.2H78h3.1l7,17H87.6z M106.1,134.7h-2.6l-5.4-7.3l-5.4,7.3h-0.2h-3.1l6.7-8.8l-6.2-8.2h0.7h2.6l4.9,6.7l4.9-6.7h0.2h2.4h0.7
	l-6.2,8.2l6.7,8.8H106.1z M122.3,133.2c-1.3,1.3-3.3,1.7-6.3,1.7c-3,0-5-0.3-6.3-1.7c-1.2-1.3-1.6-3.5-1.6-7c0-3.5,0.4-5.7,1.6-7
	c1.3-1.3,3.3-1.7,6.3-1.7c3,0,5,0.3,6.3,1.7c1.2,1.4,1.6,3.5,1.6,7C123.8,129.7,123.5,131.9,122.3,133.2 M137.2,134.7h-9.5v-17h9
	c3.1,0,4.9,1.3,4.9,4.4c0,1.5-0.2,2.9-1.5,3.7c1.7,0.7,2.1,2,2.1,3.9C142.1,132.6,140.8,134.7,137.2,134.7 M161.3,134.7h-2.4
	l-0.1-0.2l-1.3-3.2h-8.6l-1.4,3.4h-0.2h-2.7l6.7-16.8l0.1-0.2h0.2h3.1l7,17H161.3z M178.7,134.7h-0.4H176v-6.5h-5l-4,6.5h-0.2h-3.1
	l4.3-6.9c-2.1-0.5-3.7-2.3-3.7-5c0-3.6,2.3-5.1,6.1-5.1h8.3V134.7z M202,118v1.9h-9.1v14.7h-0.4h-2h-0.3v-17H202V118z M217.5,127.1
	c-1,0.9-2.6,1.2-5,1.2h-5v6.4h-0.4h-2.3v-17h8.9c3.6,0,5.1,1.6,5.1,5C218.9,124.7,218.6,126.1,217.5,127.1 M230.5,132
	c-0.8,1.8-2,2.8-3.6,2.8h0h-2.2v-0.4v-1.9h0.4h1.2c1.1-0.1,1.3-0.2,1.7-1.2l-6.8-13.6h0.6h2.4l5.3,10.8l4.8-10.8h0.2h2.6L230.5,132z
	 M255.1,134.7h-0.3h-2.4V120h-9.8v14.7h-0.3h-2h-0.3v-17h15.2V134.7z M274.5,134.7h-0.4h-2.4V120H262v14.7h-0.4h-2h-0.3v-17h15.2
	V134.7z M294.3,134.7h-2.4l-0.1-0.2l-1.3-3.1h-8.6l-1.5,3.3h-0.2h-2.7l6.8-17h0.2h2.9h0.2l7,17H294.3z"/>
<polygon class="st0" points="149.7,129.1 156.6,129.1 153.1,120.3 "/>
<polygon class="st0" points="282.7,129.1 289.6,129.1 286.1,120.3 "/>
<polygon class="st0" points="76,129.1 82.9,129.1 79.5,120.3 "/>
<path class="st0" d="M64.8,120h-5.9v6h4.4c3.2-0.1,4.1-0.4,4.2-3.1C67.4,120.6,67.3,120.1,64.8,120"/>
<path class="st0" d="M334.5,31.5c0,2.9-2.3,5.2-5.2,5.2c-2.9,0-5.3-2.3-5.3-5.2c0-2.8,2.3-5.1,5.3-5.1
	C332.2,26.4,334.5,28.7,334.5,31.5 M325.3,31.5c0,2.3,1.7,4.1,4,4.1c2.2,0,3.9-1.8,3.9-4.1c0-2.3-1.7-4.1-3.9-4.1
	C327,27.4,325.3,29.2,325.3,31.5 M328.4,34.2h-1.2v-5.1c0.5-0.1,1.1-0.2,2-0.2c1,0,1.4,0.2,1.8,0.4c0.3,0.2,0.5,0.6,0.5,1.1
	c0,0.6-0.4,1-1.1,1.2v0.1c0.5,0.2,0.8,0.6,0.9,1.2c0.2,0.8,0.2,1.1,0.4,1.3h-1.3c-0.2-0.2-0.2-0.7-0.4-1.2c-0.1-0.6-0.4-0.8-1.1-0.8
	h-0.6V34.2z M328.5,31.3h0.6c0.7,0,1.2-0.2,1.2-0.7c0-0.5-0.3-0.8-1.1-0.8c-0.3,0-0.5,0-0.7,0.1V31.3z"/>
</svg>
