<?xml version="1.0" encoding="utf-8"?>
<!-- Generator: Adobe Illustrator 20.1.0, SVG Export Plug-In . SVG Version: 6.00 Build 0)  -->
<svg version="1.1" id="Layer_1" xmlns="http://www.w3.org/2000/svg" xmlns:xlink="http://www.w3.org/1999/xlink" x="0px" y="0px"
	 viewBox="0 0 512 512" style="enable-background:new 0 0 512 512;" xml:space="preserve">
<style type="text/css">
	.st0{fill:#00A2FF;}
</style>
<g>
	<g>
		<g>
			<path class="st0" d="M507.4,290c-15-20.8-30.1-21.2-68.1-1.2l-73.6,45c-10.9,5.8-33.3,7.5-55,7.9c3.9-8,2.1-17.6-5.2-28.5
				c-13.4-20-36.3-31.9-61.3-31.9h-33.3c-18.1,0-35.4-5.6-48.9-15.7c-30.6-23.1-81.8-26.4-102.3-26.7v-17c0-4.7-3.8-8.5-8.5-8.5H8.5
				c-4.7,0-8.5,3.8-8.5,8.5v256c0,4.7,3.8,8.5,8.5,8.5h42.7c4.7,0,8.5-3.8,8.5-8.5v-17.1h110.9c17.4,0,35-1.3,52.2-3.9L333.5,440
				c4-0.1,8.1-0.5,11.7-1.3c10.2-1.4,19.9-6.3,28.2-14.1l129.3-100.7l0.2-0.2C513,315.4,515,300.6,507.4,290z M42.7,469.3H17.1
				V230.4h25.6V469.3z M492.1,310.5L362.6,411.4l-0.7,0.6c-5.7,5.5-12.3,8.9-19.9,10c-3.1,0.7-6.2,1-9.2,1l-112.5,17
				c-16.4,2.5-33.1,3.8-49.6,3.8H59.7V256c18.9,0.4,65.8,3.4,92,23.3c16.4,12.4,37.4,19.2,59.2,19.2h33.3c19.3,0,37,9.1,47.2,24.3
				c3.6,5.4,5,9.8,3.8,11.9c-2.3,3.9-12.9,6.4-23.6,6.8c-3.5-0.1-6.7-0.1-9.5-0.1h-82.9c0,0,0,0,0,0c-26.7,0-42.7,12.8-42.7,34.1
				c0,4.7,3.8,8.5,8.5,8.5s8.5-3.8,8.5-8.5c0-4.2,0-17.1,25.6-17.1h82.6c1.9,0.1,5.7,0.3,10.4,0.1c1.5,0,3,0.1,4.5,0.1
				c40,0.7,77.6,0.5,97.3-10l73.5-45c35.2-18.5,38.7-13.5,45.8-3.7C495.9,303.2,495.3,307.9,492.1,310.5z"/>
			<path class="st0" d="M162.1,230.4h290.1c14.1,0,25.6-11.5,25.6-25.6V51.2c0-14.1-11.5-25.6-25.6-25.6H162.1
				c-14.1,0-25.6,11.5-25.6,25.6v153.6C136.5,218.9,148,230.4,162.1,230.4z M460.8,102.4H153.6V85.3h307.2V102.4z M452.3,213.3
				H162.1c-4.7,0-8.5-3.8-8.5-8.5v-85.3h307.2v85.3C460.8,209.5,457,213.3,452.3,213.3z M162.1,42.7h290.1c4.7,0,8.5,3.8,8.5,8.5
				v17.1H153.6V51.2C153.6,46.5,157.4,42.7,162.1,42.7z"/>
			<path class="st0" d="M247.5,145.1h-51.2c-4.7,0-8.5,3.8-8.5,8.5s3.8,8.5,8.5,8.5h51.2c4.7,0,8.5-3.8,8.5-8.5
				C256,148.9,252.2,145.1,247.5,145.1z"/>
			<path class="st0" d="M298.7,145.1h-17.1c-4.7,0-8.5,3.8-8.5,8.5s3.8,8.5,8.5,8.5h17.1c4.7,0,8.5-3.8,8.5-8.5
				C307.2,148.9,303.4,145.1,298.7,145.1z"/>
			<path class="st0" d="M426.7,145.1h-51.2c-9.4,0-17.1,7.7-17.1,17.1v17.1c0,9.4,7.7,17.1,17.1,17.1h51.2c9.4,0,17.1-7.7,17.1-17.1
				v-17.1C443.7,152.7,436.1,145.1,426.7,145.1z M375.5,179.2v-17.1h51.2l0,17.1H375.5z"/>
		</g>
	</g>
</g>
</svg>
