<?xml version="1.0" encoding="utf-8"?>
<!-- Generator: Adobe Illustrator 20.1.0, SVG Export Plug-In . SVG Version: 6.00 Build 0)  -->
<svg version="1.1" id="Layer_1" xmlns="http://www.w3.org/2000/svg" xmlns:xlink="http://www.w3.org/1999/xlink" x="0px" y="0px"
	 viewBox="0 0 512 512" style="enable-background:new 0 0 512 512;" xml:space="preserve">
<style type="text/css">
	.st0{fill:#00A2FF;}
</style>
<g>
	<g>
		<g>
			<path class="st0" d="M451.1,213.3c-3.3,0.2-6,2.3-7.2,5.1l-19.7-19.7c-3.3-3.3-8.7-3.3-12.1,0c-3.3,3.3-3.3,8.7,0,12.1l34.1,34.1
				c0.2,0.2,0.4,0.4,0.7,0.6c0,0,0,0,0.1,0c0.2,0.2,0.4,0.3,0.6,0.4c0.1,0,0.1,0.1,0.2,0.1c0.2,0.1,0.3,0.2,0.5,0.3
				c0.1,0,0.2,0.1,0.2,0.1c0.2,0.1,0.3,0.2,0.5,0.2c0.1,0,0.2,0.1,0.3,0.1c0.2,0.1,0.3,0.1,0.5,0.2c0.1,0,0.2,0.1,0.3,0.1
				c0.2,0,0.3,0.1,0.5,0.1c0.1,0,0.3,0,0.4,0.1c0.1,0,0.3,0,0.4,0.1c0.3,0,0.6,0,0.8,0s0.6,0,0.8,0c0.1,0,0.3,0,0.4-0.1
				c0.1,0,0.3,0,0.4-0.1c0.2,0,0.3-0.1,0.5-0.1c0.1,0,0.2,0,0.3-0.1c0.2-0.1,0.3-0.1,0.5-0.2c0.1,0,0.2-0.1,0.3-0.1
				c0.2-0.1,0.3-0.2,0.5-0.2c0.1,0,0.2-0.1,0.2-0.1c0.2-0.1,0.3-0.2,0.5-0.3c0.1,0,0.1-0.1,0.2-0.1c0.2-0.1,0.4-0.3,0.6-0.4
				c0,0,0,0,0.1-0.1c0.2-0.2,0.5-0.4,0.7-0.6l34.1-34.1c3.3-3.3,3.3-8.7,0-12.1c-3.3-3.3-8.7-3.3-12.1,0l-20.5,20.5
				C458.7,215.6,455.3,213.1,451.1,213.3z"/>
			<path class="st0" d="M435.2,176.7c1.7,5.9,3.2,12,4.4,18c0.8,4.1,4.4,6.9,8.4,6.9c0.5,0,1.1-0.1,1.6-0.2c4.6-0.9,7.6-5.4,6.7-10
				c-1.3-6.6-2.9-13.1-4.7-19.5c-1.3-4.5-6-7.1-10.6-5.8C436.5,167.4,433.9,172.2,435.2,176.7z"/>
			<path class="st0" d="M417.1,134.3c3.1,5.2,5.9,10.7,8.5,16.4c1.4,3.1,4.5,5,7.8,5c1.2,0,2.4-0.2,3.5-0.8c4.3-2,6.2-7,4.2-11.3
				c-2.8-6.1-5.9-12.2-9.3-17.9c-2.4-4.1-7.6-5.4-11.7-3C416,125,414.7,130.3,417.1,134.3z"/>
			<path class="st0" d="M401.2,111.7c1.7,2,4.1,3.1,6.6,3.1c1.9,0,3.8-0.6,5.4-2c3.6-3,4.1-8.4,1.1-12c-4.3-5.2-8.9-10.2-13.8-14.8
				c-3.4-3.3-8.8-3.2-12.1,0.2c-3.3,3.4-3.2,8.8,0.2,12.1C393.1,102.5,397.3,107,401.2,111.7z"/>
			<path class="st0" d="M351.6,71.6c5.4,2.8,10.7,6,15.8,9.4c1.5,1,3.1,1.5,4.8,1.5c2.7,0,5.4-1.3,7.1-3.7c2.6-3.9,1.6-9.2-2.3-11.8
				c-5.5-3.8-11.4-7.3-17.4-10.4c-4.2-2.2-9.3-0.6-11.5,3.6C345.8,64.2,347.4,69.4,351.6,71.6z"/>
			<path class="st0" d="M308.4,55.9c6,1.3,12,3,17.8,4.9c0.9,0.3,1.8,0.4,2.7,0.4c3.6,0,6.9-2.3,8.1-5.8c1.5-4.5-0.9-9.3-5.4-10.8
				c-6.3-2.1-12.8-3.9-19.5-5.4c-4.6-1-9.2,1.9-10.2,6.5C300.9,50.3,303.8,54.9,308.4,55.9z"/>
			<path class="st0" d="M264.5,51.2c5.5,0,11.1,0.2,16.4,0.6c0.2,0,0.5,0,0.7,0c4.4,0,8.1-3.4,8.5-7.9c0.4-4.7-3.1-8.8-7.9-9.2
				c-5.8-0.4-11.8-0.7-17.7-0.7c-4.7,0-8.5,3.8-8.5,8.5C256,47.4,259.8,51.2,264.5,51.2z"/>
			<path class="st0" d="M60.8,326.2c-1.9-5.7-3.6-11.7-4.9-17.8c-1-4.6-5.6-7.5-10.2-6.5c-4.6,1-7.5,5.6-6.5,10.2
				c1.5,6.6,3.3,13.2,5.4,19.5c1.2,3.6,4.5,5.8,8.1,5.8c0.9,0,1.8-0.1,2.7-0.4C59.9,335.5,62.3,330.7,60.8,326.2z"/>
			<path class="st0" d="M71.6,351.6c-2.2-4.2-7.3-5.8-11.5-3.6c-4.2,2.2-5.8,7.4-3.6,11.5c3.2,6,6.7,11.9,10.4,17.4
				c1.6,2.4,4.3,3.7,7.1,3.7c1.7,0,3.3-0.5,4.8-1.5c3.9-2.6,4.9-8,2.3-11.9C77.6,362.3,74.4,357,71.6,351.6z"/>
			<path class="st0" d="M111.7,401.2c-4.7-3.9-9.2-8.1-13.4-12.5c-3.3-3.4-8.7-3.5-12.1-0.2c-3.4,3.3-3.5,8.7-0.2,12.1
				c4.7,4.9,9.7,9.5,14.8,13.8c1.6,1.3,3.5,2,5.4,2c2.5,0,4.9-1,6.6-3.1C115.9,409.6,115.4,404.2,111.7,401.2z"/>
			<path class="st0" d="M150.7,425.6c-5.6-2.6-11.1-5.4-16.4-8.5c-4-2.4-9.3-1-11.7,3c-2.4,4.1-1,9.3,3,11.7
				c5.7,3.4,11.8,6.5,17.9,9.3c1.2,0.5,2.3,0.8,3.5,0.8c3.2,0,6.3-1.9,7.8-5C156.9,432.6,155,427.5,150.7,425.6z"/>
			<path class="st0" d="M194.7,439.6c-6.1-1.2-12.2-2.7-18-4.4c-4.5-1.3-9.3,1.3-10.6,5.8c-1.3,4.5,1.3,9.3,5.8,10.6
				c6.3,1.9,12.9,3.4,19.5,4.7c0.6,0.1,1.1,0.2,1.6,0.2c4,0,7.6-2.8,8.4-6.9C202.4,444.9,199.3,440.5,194.7,439.6z"/>
			<path class="st0" d="M238.9,443.7c-5.5,0-11.1-0.2-16.5-0.6c-4.8-0.3-8.8,3.2-9.1,7.9c-0.3,4.7,3.2,8.8,7.9,9.1
				c5.8,0.4,11.8,0.6,17.7,0.6c4.7,0,8.5-3.8,8.5-8.5C247.5,447.6,243.7,443.7,238.9,443.7z"/>
			<path class="st0" d="M82.8,292.6l-34.1-34.1c-0.4-0.4-0.9-0.8-1.4-1.1c-0.1,0-0.1-0.1-0.2-0.1c-0.2-0.1-0.3-0.2-0.5-0.3
				c-0.1,0-0.2-0.1-0.3-0.1c-0.2-0.1-0.3-0.1-0.5-0.2c-0.1,0-0.2-0.1-0.4-0.1c-0.1-0.1-0.3-0.1-0.4-0.1c-0.1,0-0.3-0.1-0.4-0.1
				c-0.1,0-0.2-0.1-0.4-0.1c-0.2,0-0.4-0.1-0.6-0.1c-0.1,0-0.1,0-0.2,0c-0.6-0.1-1.2-0.1-1.7,0c0,0-0.1,0-0.1,0
				c-0.2,0-0.5,0.1-0.7,0.1c-0.1,0-0.2,0-0.3,0.1c-0.2,0-0.4,0.1-0.5,0.1c-0.1,0-0.2,0.1-0.3,0.1c-0.2,0.1-0.3,0.1-0.4,0.2
				c-0.1,0-0.2,0.1-0.3,0.2c-0.1,0.1-0.3,0.1-0.4,0.2c-0.1,0.1-0.3,0.1-0.4,0.2c-0.1,0.1-0.2,0.1-0.3,0.2c-0.2,0.1-0.3,0.2-0.5,0.3
				c-0.1,0.1-0.1,0.1-0.2,0.2c-0.2,0.2-0.4,0.4-0.7,0.6L2.5,292.6c-3.3,3.3-3.3,8.7,0,12.1c1.7,1.7,3.8,2.5,6,2.5s4.4-0.8,6-2.5
				l20.6-20.6c1.1,3.5,4.4,6,8.1,6c0.2,0,0.4,0,0.7,0c3.2-0.3,5.9-2.3,7.2-5.1l19.6,19.6c1.7,1.7,3.8,2.5,6,2.5c2.2,0,4.4-0.8,6-2.5
				C86.2,301.4,86.2,296,82.8,292.6z"/>
			<path class="st0" d="M102.4,110.9c0,15.9,10.9,29.3,25.6,33.1v32.9c-5.1-3-8.5-8.5-8.5-14.8c0-4.7-3.8-8.5-8.5-8.5
				s-8.5,3.8-8.5,8.5c0,15.9,10.9,29.3,25.6,33.1v9.6c0,4.7,3.8,8.5,8.5,8.5s8.5-3.8,8.5-8.5v-9.6c14.7-3.8,25.6-17.2,25.6-33.1
				s-10.9-29.3-25.6-33.1V96.2c5.1,3,8.5,8.5,8.5,14.8c0,4.7,3.8,8.5,8.5,8.5s8.5-3.8,8.5-8.5c0-15.9-10.9-29.3-25.6-33.1v-9.6
				c0-4.7-3.8-8.5-8.5-8.5s-8.5,3.8-8.5,8.5v9.6C113.3,81.7,102.4,95.1,102.4,110.9z M119.5,110.9c0-6.3,3.4-11.8,8.5-14.8v29.5
				C122.9,122.7,119.5,117.2,119.5,110.9z M153.6,162.1c0,6.3-3.4,11.8-8.5,14.8v-29.5C150.2,150.3,153.6,155.8,153.6,162.1z"/>
			<path class="st0" d="M89.4,63.9c1.5,0,2.9-0.4,4.3-1.2c4.9-2.9,10.1-5.2,15.5-7c4.5-1.5,6.8-6.4,5.3-10.8
				c-1.5-4.5-6.3-6.8-10.8-5.3c-6.4,2.2-12.7,5-18.6,8.4c-4.1,2.4-5.4,7.6-3.1,11.7C83.6,62.4,86.5,63.9,89.4,63.9z"/>
			<path class="st0" d="M68.9,213.4c5.1,4.5,10.7,8.5,16.5,11.9c1.4,0.8,2.8,1.1,4.3,1.1c3,0,5.8-1.5,7.4-4.3
				c2.4-4.1,1-9.3-3.1-11.7c-4.9-2.8-9.5-6.2-13.8-9.9c-3.5-3.1-8.9-2.8-12,0.8C65,204.9,65.4,210.3,68.9,213.4z"/>
			<path class="st0" d="M195.1,218.4c1.9,0,3.7-0.6,5.3-1.9c5.3-4.3,10.2-9,14.6-14.2c3-3.6,2.6-9-1.1-12c-3.6-3-9-2.6-12,1.1
				c-3.6,4.3-7.7,8.3-12.2,11.9c-3.7,2.9-4.3,8.3-1.3,12C190.1,217.3,192.6,218.4,195.1,218.4z"/>
			<path class="st0" d="M151.1,52.4c5.6,1,11.1,2.5,16.4,4.5c1,0.4,2.1,0.6,3.1,0.6c3.4,0,6.6-2.1,8-5.5c1.7-4.4-0.5-9.3-4.9-11
				c-6.3-2.5-12.9-4.3-19.6-5.4c-4.6-0.8-9.1,2.3-9.9,7C143.3,47.2,146.5,51.6,151.1,52.4z"/>
			<path class="st0" d="M151.4,220.6c-4.9,0.9-9.9,1.3-14.9,1.3l-2.1,0c-0.1,0-0.1,0-0.2,0c-4.6,0-8.4,3.7-8.5,8.3
				c-0.1,4.7,3.6,8.6,8.3,8.7l2.4,0c6,0,12-0.5,17.9-1.6c4.6-0.8,7.7-5.2,6.9-9.9C160.5,222.9,156.1,219.7,151.4,220.6z"/>
			<path class="st0" d="M221.9,136.5c0,5.7-0.6,11.4-1.7,16.9c-0.9,4.6,2.1,9.1,6.7,10.1c0.6,0.1,1.1,0.2,1.7,0.2
				c4,0,7.5-2.8,8.4-6.9c1.3-6.6,2-13.4,2-20.6l-8.5-0.1h8.5c0-4.7-3.8-8.3-8.5-8.3S221.9,131.8,221.9,136.5z"/>
			<path class="st0" d="M211.3,95.5c1.6,2.8,4.5,4.4,7.5,4.4c1.4,0,2.8-0.3,4.1-1.1c4.1-2.3,5.6-7.5,3.3-11.6
				c-3.3-6-7.2-11.6-11.5-16.8c-3.1-3.6-8.4-4.1-12-1c-3.6,3-4.1,8.4-1,12C205.4,85.8,208.6,90.5,211.3,95.5z"/>
			<path class="st0" d="M45.3,112.6c1,0.3,1.9,0.5,2.9,0.5c3.5,0,6.8-2.2,8-5.6c1.9-5.3,4.4-10.5,7.4-15.3c2.4-4,1.2-9.3-2.8-11.7
				c-4.1-2.5-9.3-1.2-11.7,2.8c-3.5,5.8-6.5,12-8.8,18.4C38.6,106.1,40.9,111,45.3,112.6z"/>
			<path class="st0" d="M56.4,165.9c-1.9-5.3-3.4-10.9-4.2-16.5c-0.7-4.7-5.1-7.9-9.7-7.2c-4.7,0.7-7.9,5.1-7.2,9.7
				c1,6.7,2.7,13.4,5.1,19.7c1.3,3.5,4.5,5.6,8,5.6c1,0,2-0.2,2.9-0.5C55.7,175.2,58,170.3,56.4,165.9z"/>
			<path class="st0" d="M136.5,273.1c75.3,0,136.5-61.3,136.5-136.5S211.8,0,136.5,0S0,61.3,0,136.5S61.3,273.1,136.5,273.1z
				 M136.5,17.1c65.9,0,119.5,53.6,119.5,119.5S202.4,256,136.5,256S17.1,202.4,17.1,136.5S70.7,17.1,136.5,17.1z"/>
			<path class="st0" d="M390.4,459.5c-4.9,0.9-9.9,1.3-14.9,1.3l-2.1,0c-0.1,0-0.1,0-0.2,0c-4.6,0-8.4,3.7-8.5,8.3
				c-0.1,4.7,3.6,8.6,8.3,8.7l2.4,0c6,0,12-0.5,17.9-1.6c4.6-0.8,7.7-5.2,6.9-9.9C399.4,461.8,395,458.7,390.4,459.5z"/>
			<path class="st0" d="M452.9,429.2c-3.6-3-9-2.6-12,1c-3.6,4.3-7.7,8.3-12.2,11.9c-3.7,2.9-4.3,8.3-1.3,12
				c1.7,2.1,4.2,3.2,6.7,3.2c1.9,0,3.7-0.6,5.3-1.9c5.3-4.3,10.2-9,14.6-14.2C457,437.6,456.5,432.3,452.9,429.2z"/>
			<path class="st0" d="M390,291.4c5.6,1,11.1,2.5,16.4,4.5c1,0.4,2.1,0.6,3.1,0.6c3.4,0,6.6-2.1,8-5.5c1.7-4.4-0.5-9.3-4.9-11
				c-6.3-2.5-12.9-4.3-19.6-5.4c-4.6-0.8-9.1,2.3-9.9,7C382.3,286.2,385.4,290.6,390,291.4z"/>
			<path class="st0" d="M465.2,326.1c-3.3-6-7.2-11.6-11.5-16.8c-3.1-3.6-8.4-4-12-1c-3.6,3-4.1,8.4-1,12c3.7,4.3,6.9,9,9.6,14
				c1.6,2.8,4.5,4.4,7.5,4.4c1.4,0,2.8-0.3,4.1-1.1C466,335.5,467.5,330.3,465.2,326.1z"/>
			<path class="st0" d="M477.9,375.1c0-4.7-3.8-8.3-8.5-8.3s-8.5,4-8.5,8.7c0,5.7-0.6,11.4-1.7,16.9c-0.9,4.6,2.1,9.1,6.7,10.1
				c0.6,0.1,1.1,0.2,1.7,0.2c4,0,7.5-2.8,8.4-6.9C477.2,389.1,477.9,382.3,477.9,375.1h-8.5H477.9z"/>
			<path class="st0" d="M328.3,302.8c1.5,0,2.9-0.4,4.3-1.2c4.9-2.9,10.1-5.2,15.5-7c4.5-1.5,6.8-6.4,5.3-10.8
				c-1.5-4.5-6.3-6.8-10.8-5.3c-6.4,2.2-12.7,5-18.6,8.4c-4.1,2.4-5.4,7.6-3.1,11.7C322.5,301.3,325.4,302.8,328.3,302.8z"/>
			<path class="st0" d="M291.1,388.4c-0.7-4.7-5.1-7.9-9.7-7.2c-4.7,0.7-7.9,5.1-7.2,9.7c1,6.7,2.7,13.4,5.1,19.7
				c1.3,3.5,4.5,5.6,8,5.6c1,0,2-0.2,2.9-0.5c4.4-1.6,6.7-6.5,5.1-10.9C293.4,399.5,291.9,394,291.1,388.4z"/>
			<path class="st0" d="M332.9,449.4c-4.9-2.8-9.5-6.2-13.8-9.9c-3.5-3.1-8.9-2.8-12,0.8c-3.1,3.5-2.8,8.9,0.8,12
				c5.1,4.5,10.7,8.5,16.5,11.9c1.4,0.8,2.8,1.1,4.3,1.1c3,0,5.8-1.5,7.4-4.3C338.4,457,337,451.8,332.9,449.4z"/>
			<path class="st0" d="M299.7,319.4c-4.1-2.5-9.3-1.2-11.7,2.9c-3.5,5.8-6.5,12-8.8,18.4c-1.6,4.4,0.7,9.3,5.1,10.9
				c1,0.4,1.9,0.5,2.9,0.5c3.5,0,6.8-2.2,8-5.6c1.9-5.3,4.4-10.5,7.4-15.3C305,327.1,303.7,321.9,299.7,319.4z"/>
			<path class="st0" d="M375.5,238.9c-75.3,0-136.5,61.3-136.5,136.5S300.2,512,375.5,512S512,450.7,512,375.5
				S450.8,238.9,375.5,238.9z M375.5,494.9c-65.9,0-119.5-53.6-119.5-119.5S309.6,256,375.5,256s119.5,53.6,119.5,119.5
				S441.3,494.9,375.5,494.9z"/>
			<path class="st0" d="M406.8,353c1.8-3.5,2.8-7.5,2.8-11.7c0-14.1-11.5-25.6-25.6-25.6h-25.6h-8.5c-4.7,0-8.5,3.8-8.5,8.5
				s3.8,8.5,8.5,8.5v25.6v17.1c-4.7,0-8.5,3.8-8.5,8.5s3.8,8.5,8.5,8.5v8.5c-4.7,0-8.5,3.8-8.5,8.5s3.8,8.5,8.5,8.5h8.5h34.1
				c18.8,0,34.1-15.3,34.1-34.1C426.7,370.3,418.5,358.4,406.8,353z M392.5,341.3c0,4.7-3.8,8.5-8.5,8.5h-17.1v-17.1H384
				C388.7,332.8,392.5,336.6,392.5,341.3z M392.5,401.1h-25.6v-8.5c4.7,0,8.5-3.8,8.5-8.5s-3.8-8.5-8.5-8.5v-8.5H384h8.5
				c9.4,0,17.1,7.7,17.1,17.1C409.6,393.4,401.9,401.1,392.5,401.1z"/>
		</g>
	</g>
</g>
</svg>
