<?xml version="1.0" encoding="utf-8"?>
<!-- Generator: Adobe Illustrator 20.1.0, SVG Export Plug-In . SVG Version: 6.00 Build 0)  -->
<svg version="1.1" id="Слой_1" xmlns="http://www.w3.org/2000/svg" xmlns:xlink="http://www.w3.org/1999/xlink" x="0px" y="0px"
	 viewBox="0 0 16 11" style="enable-background:new 0 0 16 11;" xml:space="preserve">
<style type="text/css">
	.st0{clip-path:url(#SVGID_2_);fill:#D03033;}
	.st1{clip-path:url(#SVGID_2_);fill:#FFFFFF;}
	.st2{clip-path:url(#SVGID_2_);fill:#1F189B;}
	.st3{clip-path:url(#SVGID_2_);}
	.st4{clip-path:url(#SVGID_2_);fill:#F2B126;}
	.st5{clip-path:url(#SVGID_2_);fill:#32784C;}
</style>
<g id="SOUTH_AFRICA_2_">
	<g>
		<g>
			<defs>
				<rect id="SVGID_1_" width="16" height="11"/>
			</defs>
			<use xlink:href="#SVGID_1_"  style="overflow:visible;fill:#FFFFFF;"/>
			<clipPath id="SVGID_2_">
				<use xlink:href="#SVGID_1_"  style="overflow:visible;"/>
			</clipPath>
			<polygon class="st0" points="2.8,0 7.5,3.7 16,3.7 16,0 			"/>
			<polygon class="st1" points="8.4,4.4 16,4.4 16,3.7 7.5,3.7 			"/>
			<polygon class="st1" points="7.5,7.3 16,7.3 16,6.6 8.4,6.6 			"/>
			<polygon class="st2" points="7.5,7.3 2.8,11 16,11 16,7.3 			"/>
			<polygon class="st3" points="0,3.7 1.9,3.7 0,2.2 			"/>
			<polygon class="st3" points="0,3.7 0,7.3 1.9,7.3 4.2,5.5 1.9,3.7 			"/>
			<polygon class="st3" points="0,7.3 0,8.8 1.9,7.3 			"/>
			<polygon class="st4" points="0,2.2 4.2,5.5 0,8.8 0,9.7 5.3,5.5 0,1.3 			"/>
			<polygon class="st5" points="0,0 0,1.3 5.3,5.5 0,9.7 0,11 1.7,11 7.3,6.6 16,6.6 16,4.4 7.3,4.4 1.7,0 			"/>
		</g>
	</g>
</g>
</svg>
