<?xml version="1.0" encoding="utf-8"?>
<!-- Generator: Adobe Illustrator 20.1.0, SVG Export Plug-In . SVG Version: 6.00 Build 0)  -->
<svg version="1.1" id="Слой_1" xmlns="http://www.w3.org/2000/svg" xmlns:xlink="http://www.w3.org/1999/xlink" x="0px" y="0px"
	 viewBox="0 0 16 11" style="enable-background:new 0 0 16 11;" xml:space="preserve">
<style type="text/css">
	.st0{clip-path:url(#SVGID_2_);fill:#1A237B;}
	.st1{clip-path:url(#SVGID_2_);fill:#FFFFFF;}
	.st2{clip-path:url(#SVGID_2_);fill:#BD0034;}
</style>
<g id="NEW_ZEALAND_2_">
	<g>
		<g>
			<defs>
				<rect id="SVGID_1_" width="16" height="11"/>
			</defs>
			<clipPath id="SVGID_2_">
				<use xlink:href="#SVGID_1_"  style="overflow:visible;"/>
			</clipPath>
			<polygon class="st0" points="8,0 8,0.4 8,0.5 8,0.5 6.2,1.6 8,1.6 8,1.9 8,2.4 8,2.8 8,3.1 6.2,3.1 8,4.2 8,4.4 8,4.7 8,4.8 
				7.5,4.8 7.3,4.8 7.2,4.8 4.7,3.3 4.7,4.8 4.4,4.8 4,4.8 3.6,4.8 3.3,4.8 3.3,3.3 0.8,4.8 0.5,4.8 0,4.8 0,11 16,11 16,0 			"/>
			<polygon class="st0" points="0,3.1 0,4.2 1.8,3.1 			"/>
			<polygon class="st0" points="4.7,0 4.7,1.4 7.1,0 			"/>
			<polygon class="st0" points="3.3,0 0.9,0 3.3,1.4 			"/>
			<polygon class="st0" points="0,1.6 1.8,1.6 0,0.5 			"/>
			<polygon class="st1" points="8,0 5.3,1.6 4.7,1.6 7.4,0 7.1,0 4.7,1.4 4.7,0 4.4,0 4.4,1.6 4.4,1.8 4.4,1.9 4.8,1.9 5.4,1.9 
				5.6,1.9 5.7,1.9 8,1.9 8,1.6 6.2,1.6 8,0.5 8,0.5 8,0.4 8,0 			"/>
			<polygon class="st1" points="3.3,0 3.3,1.4 0.9,0 0,0 2.7,1.6 2.1,1.6 0,0.4 0,0.5 1.8,1.6 0,1.6 0,1.9 2.3,1.9 2.6,1.9 3.2,1.9 
				3.6,1.9 3.6,1.8 3.6,1.7 3.6,1.6 3.6,0 			"/>
			<polygon class="st1" points="5.4,2.8 4.8,2.8 4.4,2.8 4.4,2.9 4.4,3.1 4.4,3.1 4.4,4.8 4.7,4.8 4.7,3.3 7.2,4.8 7.3,4.8 7.5,4.8 
				8,4.8 8,4.7 5.3,3.1 5.9,3.1 8,4.4 8,4.2 6.2,3.1 8,3.1 8,2.8 5.7,2.8 			"/>
			<polygon class="st1" points="3.2,2.8 2.6,2.8 2.4,2.8 2.3,2.8 0,2.8 0,3.1 1.8,3.1 0,4.2 0,4.7 2.7,3.1 3.3,3.1 0.5,4.8 0.8,4.8 
				3.3,3.3 3.3,4.8 3.6,4.8 3.6,3.1 3.6,2.9 3.6,2.8 			"/>
			<polygon class="st2" points="2.7,3.1 0,4.7 0,4.8 0.5,4.8 3.3,3.1 			"/>
			<polygon class="st2" points="0,0.4 2.1,1.6 2.7,1.6 0,0 			"/>
			<polygon class="st2" points="8,0 7.4,0 4.7,1.6 5.3,1.6 			"/>
			<polygon class="st2" points="5.3,3.1 8,4.7 8,4.4 5.9,3.1 			"/>
			<polygon class="st2" points="3.6,0 3.6,1.6 3.6,1.7 3.6,1.8 3.6,1.9 3.2,1.9 2.6,1.9 2.3,1.9 0,1.9 0,2.8 2.3,2.8 2.4,2.8 
				2.6,2.8 3.2,2.8 3.6,2.8 3.6,2.9 3.6,3.1 3.6,4.8 4,4.8 4.4,4.8 4.4,3.1 4.4,3.1 4.4,2.9 4.4,2.8 4.8,2.8 5.4,2.8 5.7,2.8 8,2.8 
				8,2.4 8,1.9 5.7,1.9 5.6,1.9 5.4,1.9 4.8,1.9 4.4,1.9 4.4,1.8 4.4,1.6 4.4,0 			"/>
			<polygon class="st1" points="11.1,3.2 11.5,3.2 11.7,2.7 11.8,3.2 12.2,3.2 11.9,3.5 12,4 11.7,3.7 11.3,4 11.5,3.5 			"/>
			<polygon class="st2" points="11.3,3.3 11.6,3.3 11.7,3 11.8,3.3 12.1,3.3 11.8,3.5 11.9,3.8 11.7,3.6 11.4,3.8 11.5,3.5 			"/>
			<polygon class="st1" points="9.4,5.3 9.8,5.3 9.9,4.8 10.1,5.3 10.5,5.3 10.2,5.6 10.3,6.1 9.9,5.8 9.6,6.1 9.7,5.6 			"/>
			<polygon class="st2" points="9.6,5.4 9.8,5.4 9.9,5 10,5.4 10.3,5.4 10.1,5.6 10.2,5.9 9.9,5.7 9.7,5.9 9.8,5.6 			"/>
			<polygon class="st1" points="12.7,4.8 13,4.8 13.2,4.3 13.3,4.8 13.7,4.8 13.4,5 13.5,5.5 13.2,5.2 12.9,5.5 13,5 			"/>
			<polygon class="st2" points="12.8,4.8 13.1,4.8 13.2,4.5 13.2,4.8 13.5,4.8 13.3,5 13.4,5.3 13.2,5.1 13,5.3 13,5 			"/>
			<polygon class="st1" points="11,8.5 11.5,8.5 11.7,8 11.8,8.5 12.3,8.5 11.9,8.9 12.1,9.4 11.7,9.1 11.3,9.4 11.4,8.9 			"/>
			<polygon class="st2" points="11.3,8.6 11.6,8.6 11.7,8.2 11.8,8.6 12.1,8.6 11.8,8.8 11.9,9.2 11.7,9 11.4,9.2 11.5,8.8 			"/>
		</g>
	</g>
</g>
</svg>
