<?xml version="1.0" encoding="utf-8"?>
<!-- Generator: Adobe Illustrator 20.1.0, SVG Export Plug-In . SVG Version: 6.00 Build 0)  -->
<svg version="1.1" id="Слой_1" xmlns="http://www.w3.org/2000/svg" xmlns:xlink="http://www.w3.org/1999/xlink" x="0px" y="0px"
	 viewBox="0 0 16 11" style="enable-background:new 0 0 16 11;" xml:space="preserve">
<style type="text/css">
	.st0{fill-rule:evenodd;clip-rule:evenodd;fill:#FFA800;}
	.st1{fill:#FFFFFF;}
</style>
<rect class="st0" width="16" height="11"/>
<g>
	<path class="st1" d="M9.7,5.4c0.3,0.3,0.5,0.6,0.5,1l0,0.1c0,0.8-0.6,1.4-1.4,1.4h0l0,0.4H7.8l0-0.4H7.4l0,0.4H6.5l0-0.4H6.3H5.8
		l0-0.9h0.5l0-1.1l0-0.9l0-1H5.8l0-0.9h0.5h0.2l0-0.5h0.9l0,0.5h0.4l0-0.5h0.9l0,0.5c0.7,0,1.3,0.6,1.3,1.3l0,0.1
		C10,4.9,9.9,5.2,9.7,5.4z M9.3,6.5L9.3,6.5c0-0.3-0.2-0.6-0.5-0.6H8.6H7.2l0,1.1h0.2h1.4C9,7,9.3,6.8,9.3,6.5 M7.2,4.1l0,1h1.4
		c0.3,0,0.5-0.2,0.5-0.4l0-0.1c0-0.2-0.2-0.4-0.5-0.4H7.4H7.2"/>
</g>
</svg>
