<?xml version="1.0" encoding="utf-8"?>
<!-- Generator: Adobe Illustrator 20.1.0, SVG Export Plug-In . SVG Version: 6.00 Build 0)  -->
<svg version="1.1" id="Слой_1" xmlns="http://www.w3.org/2000/svg" xmlns:xlink="http://www.w3.org/1999/xlink" x="0px" y="0px"
	 viewBox="0 0 16 11" style="enable-background:new 0 0 16 11;" xml:space="preserve">
<style type="text/css">
	.st0{clip-path:url(#SVGID_2_);fill:#180087;}
	.st1{clip-path:url(#SVGID_2_);fill:#FFFFFF;}
	.st2{clip-path:url(#SVGID_2_);fill:#EA0020;}
</style>
<g id="AUSTRALIA_2_">
	<g>
		<g>
			<defs>
				<rect id="SVGID_1_" width="16" height="11"/>
			</defs>
			<clipPath id="SVGID_2_">
				<use xlink:href="#SVGID_1_"  style="overflow:visible;"/>
			</clipPath>
			<rect class="st0" width="16" height="11"/>
			<polygon class="st1" points="4.2,6.7 4.5,7.6 5.2,7.3 4.8,8.1 5.5,8.6 4.7,8.6 4.8,9.6 4.2,8.9 3.7,9.6 3.8,8.6 3,8.6 3.7,8.1 
				3.2,7.3 4,7.6 			"/>
			<polygon class="st1" points="12.7,8.3 12.8,8.8 13.1,8.6 12.9,9 13.3,9.2 12.9,9.3 12.9,9.7 12.7,9.4 12.4,9.7 12.5,9.3 
				12.1,9.2 12.4,9 12.2,8.6 12.5,8.8 			"/>
			<polygon class="st1" points="10.6,4.4 10.7,4.8 11,4.7 10.8,5.1 11.1,5.3 10.8,5.3 10.8,5.8 10.6,5.4 10.3,5.8 10.3,5.3 10,5.3 
				10.3,5.1 10.1,4.7 10.4,4.8 			"/>
			<polygon class="st1" points="12.7,1.7 12.8,2.2 13.1,2 12.9,2.4 13.3,2.6 12.9,2.6 12.9,3.1 12.7,2.8 12.4,3.1 12.5,2.6 
				12.1,2.6 12.4,2.4 12.2,2 12.5,2.2 			"/>
			<polygon class="st1" points="14.5,3.8 14.7,4.2 15,4 14.8,4.4 15.1,4.6 14.7,4.7 14.8,5.1 14.5,4.8 14.3,5.1 14.3,4.7 14,4.6 
				14.3,4.4 14.1,4 14.4,4.2 			"/>
			<polygon class="st1" points="13.5,5.7 13.6,6 13.8,6 13.7,6.2 13.7,6.5 13.5,6.3 13.3,6.5 13.4,6.2 13.2,6 13.4,6 			"/>
			<polygon class="st1" points="3.5,0 3.5,1.7 0,1.7 0,3.3 3.5,3.3 3.5,5 4.9,5 4.9,3.3 8.4,3.3 8.4,1.7 4.9,1.7 4.9,0 			"/>
			<polygon class="st1" points="0,0 0,0.6 7.5,5 8.4,5 8.4,4.4 0.9,0 			"/>
			<polygon class="st1" points="7.5,0 0,4.4 0,5 0.9,5 8.4,0.6 8.4,0 			"/>
			<polygon class="st2" points="3.8,0 3.8,2 0,2 0,3 3.8,3 3.8,5 4.6,5 4.6,3 8.4,3 8.4,2 4.6,2 4.6,0 			"/>
			<path class="st2" d="M0,0v0.4l2.2,1.3h0.6L0,0z M7.8,0L5,1.7h0.6L8.4,0H7.8z"/>
			<path class="st2" d="M2.8,3.3L0,5h0.6l2.8-1.7H2.8z M5.6,3.3L8.4,5V4.6L6.3,3.3H5.6z"/>
		</g>
	</g>
</g>
</svg>
