<?xml version="1.0" encoding="utf-8"?>
<!-- Generator: Adobe Illustrator 20.1.0, SVG Export Plug-In . SVG Version: 6.00 Build 0)  -->
<svg version="1.1" id="Слой_1" xmlns="http://www.w3.org/2000/svg" xmlns:xlink="http://www.w3.org/1999/xlink" x="0px" y="0px"
	 viewBox="0 0 16 11" style="enable-background:new 0 0 16 11;" xml:space="preserve">
<style type="text/css">
	.st0{fill:#DA1841;}
	.st1{fill:#FFFFFF;}
	.st2{clip-path:url(#SVGID_2_);fill:#FFFFFF;}
	.st3{clip-path:url(#SVGID_2_);fill:#DA1841;}
	.st4{fill:none;}
</style>
<rect x="0" class="st0" width="16" height="5.5"/>
<rect x="0" y="5.5" class="st1" width="16" height="5.5"/>
<g>
	<defs>
		<rect id="SVGID_1_" x="0" width="18.9" height="11"/>
	</defs>
	<clipPath id="SVGID_2_">
		<use xlink:href="#SVGID_1_"  style="overflow:visible;"/>
	</clipPath>
	<path class="st2" d="M5.7,2.7c0,1.1-0.9,2.1-2.1,2.1c-1.1,0-2.1-0.9-2.1-2.1c0-1.1,0.9-2.1,2.1-2.1C4.7,0.7,5.7,1.6,5.7,2.7"/>
	<path class="st3" d="M6.3,2.7c0,1.1-0.9,2-2,2c-1.1,0-2-0.9-2-2c0-1.1,0.9-2,2-2C5.4,0.8,6.3,1.7,6.3,2.7"/>
	<polygon class="st2" points="3.8,2.8 3.6,2.6 3.3,2.8 3.4,2.5 3.1,2.2 3.5,2.2 3.6,1.9 3.7,2.2 4,2.2 3.7,2.5 	"/>
	<polygon class="st2" points="6.1,2.8 5.8,2.6 5.5,2.8 5.6,2.5 5.3,2.2 5.7,2.2 5.8,1.9 5.9,2.2 6.2,2.2 5.9,2.5 	"/>
	<polygon class="st2" points="4.9,2 4.7,1.8 4.4,2 4.5,1.6 4.2,1.4 4.6,1.4 4.7,1.1 4.8,1.4 5.1,1.4 4.8,1.6 	"/>
	<polygon class="st2" points="4.3,4.1 4,3.9 3.7,4.1 3.8,3.8 3.5,3.5 3.9,3.5 4,3.2 4.1,3.5 4.4,3.5 4.1,3.8 	"/>
	<polygon class="st2" points="5.6,4.1 5.4,3.9 5.1,4.1 5.2,3.8 4.9,3.5 5.3,3.5 5.4,3.2 5.5,3.5 5.8,3.5 5.5,3.8 	"/>
</g>
<rect x="0" class="st4" width="18.9" height="11"/>
</svg>
