<?xml version="1.0" encoding="utf-8"?>
<!-- Generator: Adobe Illustrator 20.1.0, SVG Export Plug-In . SVG Version: 6.00 Build 0)  -->
<svg version="1.1" id="Слой_1" xmlns="http://www.w3.org/2000/svg" xmlns:xlink="http://www.w3.org/1999/xlink" x="0px" y="0px"
	 viewBox="0 0 16 11" style="enable-background:new 0 0 16 11;" xml:space="preserve">
<style type="text/css">
	.st0{clip-path:url(#SVGID_2_);fill:#EA0020;}
	.st1{clip-path:url(#SVGID_2_);fill:#FFFFFF;}
	.st2{clip-path:url(#SVGID_2_);}
	.st3{clip-path:url(#SVGID_4_);fill:#EA0020;}
</style>
<g id="CANADA_2_">
	<g>
		<g>
			<defs>
				<rect id="SVGID_1_" x="0" width="16" height="11"/>
			</defs>
			<clipPath id="SVGID_2_">
				<use xlink:href="#SVGID_1_"  style="overflow:visible;"/>
			</clipPath>
			<rect x="0" class="st0" width="3.8" height="11"/>
			<rect x="12.2" class="st0" width="3.8" height="11"/>
			<rect x="3.8" class="st1" width="8.5" height="11"/>
			<g class="st2">
				<defs>
					<rect id="SVGID_3_" x="0" width="16" height="11"/>
				</defs>
				<clipPath id="SVGID_4_">
					<use xlink:href="#SVGID_3_"  style="overflow:visible;"/>
				</clipPath>
				<path class="st3" d="M8,1.4L7.4,2.7c-0.1,0.1-0.2,0.1-0.3,0L6.8,2.5l0.3,2c0.1,0.4-0.1,0.4-0.2,0.2l-0.7-1L6,4.2
					c0,0.1-0.1,0.1-0.2,0.1L5,4.1l0.2,1c0.1,0.2,0.1,0.3-0.1,0.4L4.8,5.7l1.5,1.5c0.1,0.1,0.1,0.2,0.1,0.3L6.3,8
					c0.5-0.1,1-0.1,1.5-0.2c0,0,0.1,0,0.1,0.1l-0.1,2h0.3l0-2c0-0.1,0.1-0.1,0.1-0.1c0.5,0.1,1,0.1,1.5,0.2L9.6,7.4
					c0-0.1,0-0.2,0.1-0.3l1.5-1.5l-0.3-0.2c-0.1-0.1-0.1-0.2-0.1-0.4l0.2-1l-0.9,0.2c-0.1,0-0.1-0.1-0.2-0.1L9.9,3.7l-0.7,1
					C9.1,4.8,8.9,4.8,8.9,4.4l0.3-2L8.8,2.7c-0.1,0.1-0.2,0.1-0.3,0L8,1.4z"/>
			</g>
		</g>
	</g>
</g>
</svg>
