<?xml version="1.0" encoding="utf-8"?>
<!-- Generator: Adobe Illustrator 20.1.0, SVG Export Plug-In . SVG Version: 6.00 Build 0)  -->
<svg version="1.1" id="Слой_1" xmlns="http://www.w3.org/2000/svg" xmlns:xlink="http://www.w3.org/1999/xlink" x="0px" y="0px"
	 viewBox="0 0 16 11" style="enable-background:new 0 0 16 11;" xml:space="preserve">
<style type="text/css">
	.st0{clip-path:url(#SVGID_2_);fill:#FFFFFF;}
	.st1{clip-path:url(#SVGID_2_);fill:#BE1637;}
	.st2{clip-path:url(#SVGID_2_);fill:#293270;}
</style>
<g id="UNITED_KINGDOM_2_">
	<g>
		<g>
			<defs>
				<rect id="SVGID_1_" y="0" width="16" height="11"/>
			</defs>
			<clipPath id="SVGID_2_">
				<use xlink:href="#SVGID_1_"  style="overflow:visible;"/>
			</clipPath>
			<rect y="0" class="st0" width="16" height="11"/>
			<polygon class="st1" points="10.7,4 16,0.5 16,0 15.6,0 9.6,4 			"/>
			<polygon class="st1" points="10.5,7.2 16,10.9 16,10.2 11.6,7.2 			"/>
			<polygon class="st1" points="0,0.8 4.7,4 5.8,4 0,0.1 			"/>
			<polygon class="st1" points="5.6,7.2 0,10.9 0,11 1,11 6.7,7.2 			"/>
			<polygon class="st2" points="14.9,0 9.3,0 9.3,3.7 			"/>
			<polygon class="st2" points="6.8,0 1.3,0 6.8,3.7 			"/>
			<polygon class="st2" points="16,4 16,1.5 12.2,4 			"/>
			<polygon class="st2" points="16,9.7 16,7.2 12.2,7.2 			"/>
			<polygon class="st2" points="1.6,11 6.8,11 6.8,7.5 			"/>
			<polygon class="st2" points="9.3,11 14.6,11 9.3,7.5 			"/>
			<polygon class="st2" points="0,7.2 0,9.9 3.9,7.2 			"/>
			<polygon class="st2" points="0,4 3.9,4 0,1.4 			"/>
			<polygon class="st1" points="7.3,0 7.3,4.6 0,4.6 0,6.6 7.3,6.6 7.3,11 8.8,11 8.8,6.6 16,6.6 16,4.6 8.8,4.6 8.8,0 			"/>
		</g>
	</g>
</g>
</svg>
