<?xml version="1.0" encoding="UTF-8" standalone="no"?>
<svg
   xmlns:dc="http://purl.org/dc/elements/1.1/"
   xmlns:cc="http://creativecommons.org/ns#"
   xmlns:rdf="http://www.w3.org/1999/02/22-rdf-syntax-ns#"
   xmlns:svg="http://www.w3.org/2000/svg"
   xmlns="http://www.w3.org/2000/svg"
   viewBox="0 0 146.66667 205.33333"
   width="125"
   xml:space="preserve"
   id="svg2"
   version="1.1"><metadata
     id="metadata8"><rdf:RDF><cc:Work
         rdf:about=""><dc:format>image/svg+xml</dc:format><dc:type
           rdf:resource="http://purl.org/dc/dcmitype/StillImage" /></cc:Work></rdf:RDF></metadata><defs
     id="defs6"><clipPath
       id="clipPath18"
       clipPathUnits="userSpaceOnUse"><path
         id="path16"
         d="M 0,154 H 110 V 0 H 0 Z" /></clipPath></defs><g
     transform="matrix(1.3333333,0,0,-1.3333333,0,205.33333)"
     id="g10"><g
       id="g12"><g
         clip-path="url(#clipPath18)"
         id="g14"><g
           transform="translate(101.3967,30.539)"
           id="g20"><path
             id="path22"
             style="fill:#231f20;fill-opacity:1;fill-rule:nonzero;stroke:none"
             d="m 0,0 v 0.327 c 0,2.039 -0.699,3.076 -2.22,3.076 -1.543,0 -2.749,-0.857 -2.749,-3.347 0,-2.355 1.127,-3.098 2.907,-3.098 1.003,0 1.747,0.214 1.949,0.293 l -0.157,0.732 c -0.271,-0.079 -1.071,-0.259 -1.522,-0.259 -1.273,0 -2.242,0.315 -2.276,2.276 z m -0.935,0.665 h -3.121 c 0.112,1.374 0.777,2.073 1.701,2.073 0.969,0 1.42,-0.834 1.42,-2.073 m -5.397,14.581 2.118,6.152 h -0.901 l -1.792,-5.51 -1.465,5.51 h -1.149 l -1.668,-5.51 -1.588,5.51 h -0.936 l 1.916,-6.152 h 1.194 l 1.42,4.507 0.214,0.834 0.203,-0.845 1.228,-4.496 z m -17.633,52.727 v 35.196 h 14.796 v 2.723 h -14.796 v 12.301 h -12.818 v -12.301 h -13.925 v -2.723 h 13.925 V 70.81 c 0,-10.577 6.387,-12.608 14.709,-12.608 8.447,0 11.907,4.071 13.973,10.927 l -2.47,0.729 c -1.331,-4.258 -4.117,-8.623 -7.847,-8.623 -3.638,0 -5.547,3.345 -5.547,6.738 M -57.678,33.399 h 0.89 v 8.496 h -0.89 z m 0.14,38.793 -15.002,30.977 h 7.565 v 2.723 h -27.422 v -2.723 h 5.674 l 22.159,-46.438 h 0.841 z M -83.21,41.365 h -1.003 l 2.873,-7.966 h 1.285 l 3.155,7.966 h -0.935 l -2.84,-7.233 z m 0.259,-19.967 h -0.901 v -0.755 h 0.901 v -3.684 c 0,-1.803 0.935,-1.837 2.085,-1.837 0.383,0 0.89,0.135 1.093,0.203 l -0.158,0.744 c -0.135,-0.045 -0.62,-0.169 -0.969,-0.169 -0.924,0 -1.172,0.169 -1.172,1.07 v 3.673 h 1.916 v 0.755 h -1.927 v 1.262 h -0.868 z m 11.008,1.397 h 0.89 v 1.037 h -0.89 z m 0.89,-1.397 h -0.901 v -6.152 h 0.901 z m 0.519,14.965 c 0,-2.355 1.127,-3.099 2.907,-3.099 1.003,0 1.746,0.214 1.949,0.293 l -0.157,0.732 c -0.271,-0.078 -1.071,-0.259 -1.522,-0.259 -1.273,0 -2.242,0.316 -2.276,2.276 h 4.068 v 0.327 c 0,2.039 -0.699,3.076 -2.22,3.076 -1.543,0 -2.749,-0.856 -2.749,-3.346 m 0.913,0.608 c 0.112,1.375 0.777,2.073 1.701,2.073 0.969,0 1.42,-0.833 1.42,-2.073 z m 8.101,-15.573 h -0.89 v -6.152 h 0.89 v 4.766 c 0.484,0.293 1.205,0.755 1.915,0.755 1.127,0 1.273,-0.665 1.273,-1.724 v -3.797 h 0.868 v 3.966 c 0,1.059 -0.101,2.344 -1.916,2.344 -0.901,0 -1.577,-0.462 -2.14,-0.856 z m 13.284,18.153 h -0.98 l 2.017,-6.152 h 1.251 l 2.208,6.152 h -0.913 l -1.464,-4.202 -0.44,-1.33 -0.394,1.307 z m 2.051,-54.459 h -0.89 v -6.152 h 0.89 v 4.529 c 0.293,0.451 0.856,0.981 1.6,0.981 0.36,0 0.529,-0.034 0.721,-0.079 l 0.158,0.755 c -0.113,0.034 -0.361,0.101 -0.721,0.101 -0.868,0 -1.488,-0.496 -1.758,-0.958 z m 9.476,51.271 c 0,-2.355 1.127,-3.099 2.907,-3.099 1.003,0 1.746,0.214 1.949,0.293 l -0.158,0.732 c -0.27,-0.078 -1.07,-0.259 -1.521,-0.259 -1.273,0 -2.242,0.316 -2.276,2.276 h 4.068 v 0.327 c 0,2.039 -0.699,3.076 -2.22,3.076 -1.544,0 -2.749,-0.856 -2.749,-3.346 m 0.912,0.608 c 0.113,1.375 0.778,2.073 1.702,2.073 0.969,0 1.42,-0.833 1.42,-2.073 z m 0.969,-13.759 v -6.264 c 0,-1.465 -0.27,-2.378 -1.633,-3.133 l 0.394,-0.676 c 1.87,0.834 2.174,2.118 2.174,3.831 v 6.242 z M -35.808,0 h 4.068 v 0.327 c 0,2.039 -0.699,3.076 -2.22,3.076 -1.544,0 -2.749,-0.857 -2.749,-3.347 0,-2.355 1.126,-3.098 2.907,-3.098 1.002,0 1.746,0.214 1.949,0.293 l -0.158,0.732 c -0.27,-0.079 -1.07,-0.259 -1.521,-0.259 -1.273,0 -2.242,0.315 -2.276,2.276 m 0.011,0.665 c 0.113,1.374 0.778,2.073 1.702,2.073 0.969,0 1.419,-0.834 1.419,-2.073 z m 0.789,-21.725 h 0.417 l -0.845,-2.479 h 0.867 l 3.009,8.631 h -0.913 l -1.521,-4.417 -0.36,-1.082 -0.338,1.105 -1.341,4.394 h -0.969 z m 9.296,39.27 c 0,-2.355 1.126,-3.099 2.907,-3.099 1.002,0 1.746,0.214 1.949,0.293 l -0.158,0.732 c -0.27,-0.079 -1.07,-0.259 -1.521,-0.259 -1.273,0 -2.242,0.316 -2.276,2.276 h 4.068 v 0.327 c 0,2.039 -0.699,3.076 -2.22,3.076 -1.544,0 -2.749,-0.856 -2.749,-3.346 m 0.912,0.608 c 0.113,1.375 0.778,2.073 1.702,2.073 0.969,0 1.419,-0.834 1.419,-2.073 z m 2.062,-13.229 h -0.89 v -8.496 h 0.89 z m 9.544,0 h -0.89 v -8.496 h 0.89 z" /></g></g></g></g></svg>
