<?xml version="1.0" encoding="iso-8859-1"?>
<!-- Generator: Adobe Illustrator 20.1.0, SVG Export Plug-In . SVG Version: 6.00 Build 0)  -->
<svg version="1.0" id="&#x421;&#x43B;&#x43E;&#x439;_1"
	 xmlns="http://www.w3.org/2000/svg" xmlns:xlink="http://www.w3.org/1999/xlink" x="0px" y="0px" viewBox="0 0 18 13"
	 style="enable-background:new 0 0 18 13;" xml:space="preserve">
<g>
	<path style="fill:#FFFFFF;" d="M15.505,6.065c-0.214-3.255-2.815-5.857-6.07-6.071v-0.015H9H8.565v0.015
		C5.31,0.208,2.708,2.81,2.494,6.065H2.479V6.5v0.435h0.015c0.214,3.255,2.816,5.857,6.071,6.07v0.016H9h0.435v-0.016
		c3.255-0.214,5.857-2.815,6.07-6.07h0.016V6.5V6.065H15.505z M6.561,1.401c-0.42,0.558-0.769,1.258-1.022,2.056H4.236
		C4.803,2.573,5.608,1.857,6.561,1.401z M3.782,4.326H5.31C5.194,4.876,5.12,5.459,5.096,6.065H3.365
		C3.411,5.453,3.556,4.868,3.782,4.326z M3.365,6.935h1.731C5.12,7.541,5.194,8.124,5.31,8.674H3.782
		C3.556,8.132,3.411,7.547,3.365,6.935z M4.236,9.543h1.302c0.254,0.798,0.603,1.498,1.023,2.056
		C5.608,11.143,4.803,10.428,4.236,9.543z M8.565,12.096c-0.894-0.239-1.663-1.199-2.13-2.553h2.13V12.096z M8.565,8.674H6.191
		c-0.123-0.542-0.2-1.127-0.225-1.739h2.6V8.674z M8.565,6.065h-2.6c0.025-0.612,0.103-1.197,0.225-1.739h2.374V6.065z M8.565,3.457
		h-2.13c0.467-1.354,1.236-2.314,2.13-2.552V3.457z M13.764,3.457h-1.301c-0.255-0.798-0.603-1.498-1.024-2.056
		C12.391,1.857,13.197,2.573,13.764,3.457z M9.435,0.905c0.893,0.238,1.663,1.198,2.13,2.552h-2.13V0.905z M9.435,4.326h2.374
		c0.123,0.542,0.199,1.127,0.226,1.739h-2.6V4.326z M9.435,6.935h2.6c-0.025,0.612-0.103,1.197-0.226,1.739H9.435V6.935z
		 M9.435,12.096V9.543h2.13C11.098,10.897,10.328,11.857,9.435,12.096z M11.439,11.599c0.42-0.559,0.769-1.258,1.024-2.056h1.301
		C13.197,10.428,12.391,11.143,11.439,11.599z M14.218,8.674H12.69c0.117-0.549,0.19-1.133,0.214-1.739h1.73
		C14.589,7.547,14.444,8.132,14.218,8.674z M12.904,6.065c-0.023-0.606-0.097-1.189-0.214-1.739h1.528
		c0.226,0.542,0.37,1.127,0.416,1.739H12.904z"/>
</g>
<g>
</g>
<g>
</g>
<g>
</g>
<g>
</g>
<g>
</g>
<g>
</g>
</svg>
