<?xml version="1.0" encoding="utf-8"?>
<!-- Generator: Adobe Illustrator 20.1.0, SVG Export Plug-In . SVG Version: 6.00 Build 0)  -->
<svg version="1.1" id="Layer_1" xmlns="http://www.w3.org/2000/svg" xmlns:xlink="http://www.w3.org/1999/xlink" x="0px" y="0px"
	 viewBox="0 0 512 512" style="enable-background:new 0 0 512 512;" xml:space="preserve">
<style type="text/css">
	.st0{fill:#00A2FF;}
</style>
<g>
	<g>
		<path class="st0" d="M358.7,90.8c1.8-19.5,12.5-47.2,29-63c4.7-4.5,6.2-11.4,3.7-17.5C388.9,4,383,0,376.3,0H135.7
			c-6.7,0-12.6,4-15.1,10.3c-2.5,6.1-1,13,3.7,17.5c0,0,0,0,0,0c16.5,15.8,27.2,43.6,29,63C65.2,131,8.5,218.7,8.5,315.7
			C8.5,392,43,462.9,103,510.2c1.5,1.2,3.4,1.8,5.3,1.8h11.1c0,0,0,0,0.1,0h204.8c0,0,0,0,0.1,0h79.4c1.9,0,3.8-0.6,5.3-1.8
			c60-47.3,94.5-118.2,94.5-194.4C503.5,218.7,446.8,131,358.7,90.8z M165.5,104.1c3.1-1.3,5.2-4.4,5.2-7.8
			c0-22.8-12.3-58.2-32.9-79.1l236.8-0.4c-20.9,20.9-33.3,56.6-33.3,79.6c0,3.4,2,6.5,5.2,7.8c85,36.4,139.9,119.5,139.9,211.7
			c0,47-14.1,91.8-39.8,129.5l2.5-8.1c0.7-2.2,0.4-4.5-0.6-6.5c-1.1-2-2.9-3.5-5-4.2l-182.7-56.2c0.2-0.4,0.3-0.8,0.4-1.2
			c0.5-2.2,0.1-4.5-1.1-6.4l-27.6-43.1c-2.5-4-7.8-5.1-11.8-2.6L52.7,424.3c-17.6-32.9-27.1-70-27.1-108.5
			C25.6,223.5,80.5,140.4,165.5,104.1z M82.8,465.7L64.4,437l28.8-18.4l18.4,28.8L82.8,465.7z M213.3,460.8v34.1h-34.1v-34.1H213.3z
			 M230.4,460.8h34.1v34.1h-34.1V460.8z M289.7,432.7l10-32.6l32.6,10l-10,32.6L289.7,432.7z M273.4,427.7l-32.6-10l10-32.6l32.6,10
			L273.4,427.7z M212.2,383l-18.4-28.8l28.7-18.4l18.4,28.7L212.2,383z M179.5,363.4l18.4,28.8l-28.7,18.4l-18.4-28.8L179.5,363.4z
			 M136.3,391l18.4,28.8L126,438.1l-18.4-28.8L136.3,391z M171,429.6C171.1,429.6,171.1,429.6,171,429.6c0.1-0.1,0.1-0.1,0.2-0.1
			l43-27.5c0,0,0,0,0,0c0,0,0,0,0,0l16.8-10.8l-9.1,29.6c-0.7,2.2-0.4,4.5,0.6,6.5c1.1,2,2.9,3.5,5,4.2l39.9,12.3H148.9L171,429.6z
			 M128,460.8h34.1v34.1H128V460.8z M281.6,494.9v-34.1h34.1v34.1H281.6z M348.7,415.2l32.6,10l-10,32.6l-32.6-10L348.7,415.2z
			 M397.7,430.2l32.6,10l-10,32.6l-32.6-10L397.7,430.2z M93.6,479.1l17.3-11.1v26.6C104.9,489.7,99.1,484.5,93.6,479.1z
			 M400.7,494.9h-67.9v-31.1l76.7,23.6C406.7,490,403.7,492.5,400.7,494.9z"/>
	</g>
</g>
</svg>
