<?xml version="1.0" encoding="utf-8"?>
<!-- Generator: Adobe Illustrator 20.1.0, SVG Export Plug-In . SVG Version: 6.00 Build 0)  -->
<svg version="1.1" id="Layer_1" xmlns="http://www.w3.org/2000/svg" xmlns:xlink="http://www.w3.org/1999/xlink" x="0px" y="0px"
	 viewBox="0 0 512 512" style="enable-background:new 0 0 512 512;" xml:space="preserve">
<style type="text/css">
	.st0{fill:#00A2FF;}
</style>
<g>
	<g>
		<path class="st0" d="M486.4,59.7H289.1c-1.4-5.3-4-10-7.5-14V8.5c0-4.7-3.8-8.5-8.5-8.5h-34.1c-4.7,0-8.5,3.8-8.5,8.5v37.2
			c-3.5,4-6.1,8.7-7.5,14H25.6c-4.7,0-8.5,3.8-8.5,8.5s3.8,8.5,8.5,8.5h64.3L34.8,218.5c0,0,0,0,0,0l-0.1,0.2c0,0,0,0.1,0,0.1
			c-0.1,0.2-0.1,0.4-0.2,0.6c0,0.1,0,0.2-0.1,0.2c0,0.2-0.1,0.4-0.1,0.6c0,0.1,0,0.2,0,0.3c0,0.2,0,0.3-0.1,0.5c0,0.1,0,0.3,0,0.4
			c0,0.1,0,0.2,0,0.3c0,0.1,0,0.1,0,0.2c0,0.1,0,0.1,0,0.2c0.3,23.8,30.2,42.3,68.3,42.3c38,0,67.8-18.5,68.2-42.2
			c0-0.1,0-0.3,0-0.4c0,0,0-0.1,0-0.1c0-0.1,0-0.1,0-0.1c0-0.2,0-0.4,0-0.6c0-0.1,0-0.2,0-0.3c0-0.2,0-0.4-0.1-0.5
			c0-0.1-0.1-0.2-0.1-0.4c0-0.1-0.1-0.3-0.1-0.4c0-0.1-0.1-0.3-0.1-0.4c0-0.1-0.1-0.2-0.1-0.3l-55.2-142h108.1c1.4,5.3,4,10,7.5,14
			v370h-34.1c-23.5,0-42.7,19.1-42.7,42.7c0,4.7,3.8,8.5,8.5,8.5h187.7c4.7,0,8.5-3.8,8.5-8.5c0-23.5-19.1-42.7-42.7-42.7h-34.1
			v-370c3.5-4,6.1-8.7,7.5-14h108.1L342,218.5c0,0,0,0,0,0l-0.1,0.2c0,0,0,0.1,0,0.1c-0.1,0.2-0.1,0.4-0.2,0.6c0,0.1,0,0.2-0.1,0.2
			c0,0.2-0.1,0.4-0.1,0.6c0,0.1,0,0.2,0,0.3c0,0.2,0,0.3-0.1,0.5c0,0.1,0,0.3,0,0.4c0,0.1,0,0.2,0,0.3c0,0.1,0,0.1,0,0.2
			c0,0.1,0,0.1,0,0.2c0.3,23.8,30.2,42.3,68.3,42.3c38,0,67.8-18.5,68.2-42.2c0-0.1,0-0.3,0-0.4c0,0,0-0.1,0-0.1c0-0.1,0-0.1,0-0.1
			c0-0.2,0-0.4,0-0.6c0-0.1,0-0.2,0-0.3c0-0.2,0-0.4-0.1-0.5c0-0.1-0.1-0.2-0.1-0.4c0-0.1-0.1-0.3-0.1-0.4c0-0.1-0.1-0.3-0.1-0.4
			c0-0.1-0.1-0.2-0.1-0.3l-55.2-142h64.3c4.7,0,8.5-3.8,8.5-8.5S491.1,59.7,486.4,59.7z M102.4,91.8l47.3,121.5H55.1L102.4,91.8z
			 M102.4,247.5c-23.1,0-40.9-7.9-47.9-17.1h95.8C143.3,239.5,125.5,247.5,102.4,247.5z M409.6,91.8l47.3,121.5h-94.5L409.6,91.8z
			 M409.6,247.5c-23.1,0-40.9-7.9-47.9-17.1h95.8C450.5,239.5,432.7,247.5,409.6,247.5z M245.3,81.5c-0.4-0.5-0.9-0.9-1.4-1.2
			c-3.1-3.1-5-7.3-5-12s1.9-9,5-12c0.5-0.4,0.9-0.8,1.4-1.2c2.9-2.4,6.7-3.8,10.7-3.8c4.1,0,7.8,1.4,10.7,3.8
			c0.4,0.5,0.9,0.9,1.4,1.2c3.1,3.1,5,7.3,5,12s-1.9,9-5,12c-0.5,0.4-0.9,0.8-1.4,1.2c-2.9,2.4-6.7,3.8-10.7,3.8
			C251.9,85.3,248.2,83.9,245.3,81.5z M264.5,17.1v18.1c-2.7-0.7-5.6-1.1-8.5-1.1c-2.9,0-5.8,0.4-8.5,1.1V17.1H264.5z M339.9,494.9
			H172.1c3.5-9.9,13-17.1,24.1-17.1h42.7h34.1h42.7C326.9,477.9,336.3,485,339.9,494.9z M247.5,460.8V101.3c2.7,0.7,5.6,1.1,8.5,1.1
			c2.9,0,5.8-0.4,8.5-1.1v359.5H247.5z"/>
	</g>
</g>
</svg>
