<!-- Created with Inkscape (http://www.inkscape.org/) -->
<svg xmlns:rdf="http://www.w3.org/1999/02/22-rdf-syntax-ns#" xmlns="http://www.w3.org/2000/svg" version="1.1" xmlns:cc="http://creativecommons.org/ns#" xmlns:dc="http://purl.org/dc/elements/1.1/" viewBox="0 0 234 80">
 <metadata>
  <rdf:RDF>
   <cc:Work rdf:about="">
    <dc:format>image/svg+xml</dc:format>
    <dc:type rdf:resource="http://purl.org/dc/dcmitype/StillImage"/>
    <dc:title/>
   </cc:Work>
  </rdf:RDF>
 </metadata>
 <path style="enable-background:accumulate;fill-rule:nonzero;color:#000000;fill:#68c429;" d="M78,39.535c0,21.263-17.237,38.5-38.5,38.5s-38.5-17.237-38.5-38.5c0-21.262,17.237-38.5,38.5-38.5s38.5,17.237,38.5,38.5z"/>
 <path style="stroke-linejoin:miter;stroke:#000000;stroke-linecap:butt;stroke-width:1px;fill:#fdfc68;" d="m61.467,23.233,0-10.625-6.125-4.25,0.125-1.875-17,0.625,0,2.5-6.25,4.125,0,19.375"/>
 <path style="stroke-linejoin:miter;stroke:#000000;stroke-linecap:butt;stroke-width:1px;fill:none;" d="m32.217,13.483,15.75,0"/>
 <path style="stroke-linejoin:miter;stroke:#000000;stroke-linecap:butt;stroke-width:1px;fill:none;" d="m55.092,8.358-7.125,4.875,0,14.5"/>
 <path style="stroke-linejoin:miter;stroke:#000000;stroke-linecap:butt;stroke-width:1px;fill:#ffffff;" d="m25.749,29.952-3.182-1.0607c-5.2361,5.743-4.6581,16.468,2.3865,12.816,6.1872-2.2097-0.088-1.2374-0.088-1.2374l-2.8285,1.149c-2.0278-3.6166,0.1088-10.467,3.7123-11.667z"/>
 <path style="stroke-linejoin:miter;stroke:#000000;stroke-linecap:butt;stroke-width:1px;fill:#fdfc68;" d="m38.342,22.608c-3-2-16.375-11.875-29.375-8.25-3.6699,1.0234,9,13.375,20,18.625,2.5774,1.2301,9.375-10.375,9.375-10.375z"/>
 <path style="stroke-linejoin:miter;stroke:#000000;stroke-linecap:butt;stroke-width:1px;fill:none;" d="m14.592,16.858s2.125-2.375,5.25-2.625"/>
 <path style="stroke-linejoin:miter;stroke:#000000;stroke-linecap:butt;stroke-width:1px;fill:none;" d="m19.467,18.983s3.25-2.875,8.75-2.25"/>
 <path style="stroke-linejoin:miter;stroke:#000000;stroke-linecap:butt;stroke-width:1px;fill:none;" d="m24.092,21.608s3.5-2.5,8.875-2.125"/>
 <path d="m103.08,47.483-3.4033,0,0-26.246-15.035,0,0,26.246-3.4033,0,0-29.269,21.841,0z" style="fill:#000000;"/>
 <path d="m131.51,47.483-3.6436-9.3091-11.731,0-3.6035,9.3091-3.4434,0,11.571-29.389,2.8628,0,11.511,29.389zm-4.7046-12.372-3.4033-9.0688c-0.44045-1.1478-0.89422-2.5558-1.3613-4.2241-0.29364,1.2813-0.71404,2.6893-1.2612,4.2241l-3.4434,9.0688z" style="fill:#000000;"/>
 <path d="m162.12,47.483-4.124,0-13.533-14.834,0,14.834-3.4033,0,0-29.269,3.4033,0,0,14.174,13.193-14.174,3.9038,0-12.953,14.214z" style="fill:#000000;"/>
 <path d="m184.44,47.483-16.316,0,0-29.269,16.316,0,0,3.023-12.913,0,0,9.4292,12.132,0,0,3.0029-12.132,0,0,10.77,12.913,0z" style="fill:#000000;"/>
 <path d="m203.95,47.483-3.4033,0,0-26.246-9.269,0,0-3.023,21.941,0,0,3.023-9.269,0z" style="fill:#000000;"/>
 <path style="enable-background:accumulate;color:#000000;stroke:#000000;stroke-width:1.02421439;fill:#ffffff;" d="m191.73,33.122c-2.2803,0.17191-4.5605,2.6368-6.2983,5.2152-1.9406,2.8793-5.105,9.312-6.0687,18.737-2.4612,2.4304-4.5597,4.4033-4.5597,4.4033l0.52486,0.12492,3.838-2.2797c-0.33476,4.2517,2.112,9.8684,5.1277,9.8684,4.0614,0,7.3762-4.4405,7.3762-8.9614,0-2.7663-3.222-6.303-6.3517-5.5717,5.4786-4.2739,12.003-11.244,12.054-15.697,0.0277-2.4121-1.2469-5.7235-5.0518-5.8398-0.19712-0.006-0.40299-0.0141-0.59047,0zm0.75444,1.5926c1.9947,0.35439,1.9137,5.9208,0.62327,8.3382s-3.8662,7.1834-9.4147,11.118c0.0936-6.1841,2.8416-12.308,4.1661-14.709,1.2734-2.3079,2.955-4.8652,4.6253-4.7468zm-6.3311,21.106c2.0291,0,4.0451,2.0459,4.0451,4.5809,0,3.5217-2.6655,5.7862-4.2307,5.7862-2.4002,0-3.3957-3.0746-3.3957-5.6096,0-2.7116,1.5521-4.7575,3.5812-4.7575z"/>
 <path style="stroke:#000000;stroke-width:1.02421439;fill:#ffffff;" d="m190.58,53.085,0.65607,0.24984s2.4602-2.0771,3.346-1.8113c0.64224,0.19272-0.92577,5.1996-1.7714,9.3063-0.52486,2.998-0.32804,3.9348,0.72168,4.1222,1.0497,0.18737,3.6373-5.3492,4.3301-6.8079,5.8706-12.007-1.1334,3.4276,3.6084,3.5601,1.673-0.0936,2.4275-2.6545,2.4275-2.6545l-0.29523-0.15614s-1.1481,0.78072-1.4106-0.3123c-0.33682-2.8997,0.42748-7.175,1.957-9.5195,0.96876-1.0644,0.96855-2.0478-0.14476-2.4176-2.644-0.87807-4.9106,4.7533-6.2735,8.252-0.47956,1.2312-1.829,3.9822-2.3539,3.8572-0.52486-0.12492-0.72634-0.69072,0.0464-4.2592,0.19288-0.89067,1.061-3.8452,1.1266-4.907s-0.32804-1.4365-0.78729-1.5614c-0.45925-0.12492-3.4772,2.8106-5.183,5.0591z"/>
 <path style="stroke:#000000;stroke-width:1.02421439;fill:#ffffff;" d="m213.28,44.645c-4.1264-0.56401-5.184,6.2741-6.3311,10.68-0.27454-0.23385-0.61133-0.38957-0.98411-0.43721-1.1427-0.14601-1.9827,0.61164-2.165,1.905-0.18235,1.2934,0.59588,2.4772,1.7386,2.6232,1.1427,0.14602,2.1486-0.8086,2.3947-2.0923,0.36222-1.8894,0.76268-4.0477,1.4762-5.9335,1.4749-3.746,2.7854-4.7974,2.9195-3.8724,0.16032,1.1055-1.0543,4.8032-1.1481,7.1202-0.17951,2.1447,0.0299,3.5804,1.9603,3.4749,1.2122-0.0663,1.9195-2.1327,1.9195-2.1327l-0.25282-0.22396s-1.0114,0.55542-1.6995-0.2041c-1.4332-1.5819,2.6913-10.563,0.17192-10.907z"/>
 <path style="stroke:#000000;stroke-width:1.02421439;fill:#ffffff;" d="m230.51,42.548c-0.95712-0.33875-3.5155,1.4602-4.5557,2.8314l0.45925,0.18737s1.9104-1.2318,2.3108-0.96209c0.36396,0.24514-1.6389,4.0741-1.8946,4.9638-0.63565,2.2118,0.10634,3.8962,1.345,4.2472,1.7655,0.50032,3.3008-0.70962,3.8052-2.0923,0.84298-2.3109,0.0902-3.1985-0.68888-3.5289-1.0846-0.45996-2.6578,0.0679-2.6578,0.0679,0.9041-2.3123,3.0201-5.4701,1.8768-5.7143zm-0.48194,6.7707c0.45344,0.0761,0.87884,0.58191,0.53166,1.6078-0.24485,0.72353-0.88216,1.3314-1.483,1.2496-0.60082-0.0817-0.715-0.80111-0.54126-1.5771,0.2048-0.91462,0.81069-1.3947,1.4926-1.2804z"/>
 <path d="m224.33,43.153c-4.0416-0.4693-5.0775,5.6229-6.201,9.5522-0.2689-0.20589-0.59877-0.34179-0.96388-0.38124-1.1192-0.1209-1.942,0.5598-2.1206,1.7119s0.58364,2.1993,1.7029,2.3202c1.1192,0.1209,2.1044-0.73634,2.3455-1.8804,0.35478-1.6838,0.74701-3.6073,1.4458-5.2907,1.4446-3.3445,2.7282-4.2902,2.8595-3.4683,0.15702,0.98231-1.0327,4.2817-1.1246,6.3439-0.17581,1.9096,0.0293,3.1853,1.92,3.0762,1.1873-0.0685,1.88-1.9126,1.88-1.9126l-0.24762-0.19727s-0.99058,0.50213-1.6646-0.16821c-1.4037-1.3961,2.636-9.4192,0.16839-9.7057z" style="stroke:#000000;stroke-width:1.02421439;fill:#ffffff;"/>
 <path style="stroke-linejoin:miter;stroke:#000000;stroke-linecap:butt;stroke-width:1px;fill:#68c429;" d="m51.717,22.858s0.25-3.25-1.25-3.625-3.75,0.125-4.75-0.625-3.375-2.75-3.375-2.75l-2.125,1.75s-1.625-2.125-2.125-1.75-4.75,1.5-5.25,2.75,0.125,2.5-0.875,3.375-2.875,2.375-2.875,3.75v6.25l10.625-1.25,6.375-3.875z"/>
 <path style="stroke-linejoin:miter;stroke:#000000;stroke-linecap:butt;stroke-width:1px;fill:#ffffff;" d="m43.25,78.477c14.978,0.375,30.341-4.0095,30.341-6.7175,0-1.3756-1.6302-2.7034-1.6302-2.7034s3.6391-5.2515,3.6391-12.676c0-7.4246-10.253-34.295-10.253-34.295l-13.788-0.35355-17.854,8.4853h-9.7227s0.8839,12.198,0,13.435c-0.8839,1.2374-4.2426,3.182-4.0659,4.9497,0.1768,1.7678,0.8839,4.0659,0.8839,4.0659s-3.5355,5.4801-3.3587,7.7782c0.1767,2.2981,4.4194,7.4246,4.4194,8.4853s-0.6125,3.2552-0.6125,3.2552,5.0372,5.866,22.002,6.2907z"/>
 <path style="stroke-linejoin:miter;stroke:#000000;stroke-linecap:butt;stroke-width:1px;fill:none;" d="m65.347,60.269s1.0607-4.0659,1.0607-8.6621-4.5962-18.915-4.5962-22.981c0-4.0659,3.3588-5.1265,3.3588-5.1265"/>
 <path style="stroke-linejoin:miter;stroke:#000000;stroke-linecap:butt;stroke-width:1px;fill:none;" d="m26.279,69.992c4.0659,2.2981,11.048,4.1543,17.766,3.6239"/>
 <path style="stroke-linejoin:miter;stroke:#000000;stroke-linecap:butt;stroke-width:1px;fill:none;" d="m59.867,50.547s-4.0659-8.8388-10.43-8.6621c-3.7108,0.10308-5.1265,2.4749-5.3033,4.4194-0.1767,1.9445,1.4143,4.773,5.6569,3.7123"/>
 <path style="stroke-linejoin:miter;stroke:#000000;stroke-linecap:butt;stroke-width:1px;fill:none;" d="m42.012,60.8c-1.4142,2.2981-3.8891,6.0104-7.7782,1.0607"/>
 <path style="stroke-linejoin:miter;stroke:#000000;stroke-linecap:butt;stroke-width:1px;fill:none;" d="m44.841,48.867c-3.2703,3.3588-8.662,8.9272-13.435,1.6794"/>
 <path style="stroke-linejoin:miter;stroke:#000000;stroke-linecap:butt;stroke-width:1px;fill:none;" d="m21.064,46.304s1.149-1.0607,3.9775-1.2374c2.8284-0.17678,4.0658,1.2374,4.2426,3.3588,0.1475,1.7704-1.6794,3.5355-3.8891,2.4749"/>
 <path style="stroke-linejoin:miter;stroke:#000000;stroke-linecap:butt;stroke-width:1px;fill:none;" d="m38.83,35.521c1.591-0.70711,3.0052-1.4142,4.5962-0.17678"/>
 <path style="stroke-linejoin:miter;stroke:#000000;stroke-linecap:butt;stroke-width:1px;fill:none;" d="m31.229,35.874c-1.7677-0.35355-2.6516,0.53033-3.3587,1.591"/>
 <path style="stroke-linejoin:miter;stroke:#000000;stroke-linecap:butt;stroke-width:1px;fill:#ffffff;" d="m39.361,43.122-7.2479,0.35355s-4.2426,1.7678-3.7123,3.5355c0.5303,1.7678,3.0052,3.3588,6.364,3.3588,3.3587,0,6.1872-1.4142,5.8336-2.6516-0.3535-1.2374-2.8284-0.88388-2.8284-2.1213s1.591-2.4749,1.591-2.4749z"/>
 <path style="stroke-linejoin:miter;stroke:#000000;stroke-linecap:butt;stroke-width:1px;fill:none;" d="m32.643,42.592s-2.1214-1.0607-4.0659-0.17678"/>
 <path style="stroke-linejoin:miter;stroke:#000000;stroke-linecap:butt;stroke-width:1px;fill:none;" d="m40.598,41.708c0.5303-1.4142,3.7123-2.4749,5.4801-1.2374"/>
 <path style="stroke-linejoin:miter;stroke:#000000;stroke-linecap:butt;stroke-width:1px;fill:none;" d="m32.342,21.358s1.625-1.125,3.125-1.125,3,0.5,3,0.5,0.25-1.125,1.5-1.25,1.875,1.375,1.875,1.375l1.75-0.375,0.75,1"/>
 <path style="stroke-linejoin:miter;stroke:#000000;stroke-linecap:butt;stroke-width:1px;fill:#ffffff;" d="m56.092,21.733s5.125,15.875,9.5,15-0.625-15.125-0.625-15.125l2-0.625s2.375,5.375,2.625,8.75c0.2776,3.7481-1.375,7.375-4.75,7.25s-9.25-4.875-12.375-15.25h3.625z"/>
</svg>
