<svg width="20" height="18" viewBox="0 0 20 18" fill="none" xmlns="http://www.w3.org/2000/svg">
<path d="M9.39084 17.7937C9.56673 17.9276 9.78051 18 10.0002 18C10.2199 18 10.4336 17.9275 10.6094 17.7934C11.9168 16.805 16.3709 13.2939 18.7948 9.61555C20.4137 7.15856 20.4007 4.24778 18.7614 2.20004C18.2467 1.54908 17.6019 1.01688 16.8699 0.638693C16.1379 0.260503 15.3353 0.0449507 14.5153 0.00631027C13.6953 -0.0323302 12.8766 0.106823 12.1134 0.414555C11.3502 0.722287 10.6599 1.19158 10.0882 1.79134L9.99998 1.88319L9.91183 1.79135C9.34017 1.19158 8.64988 0.722293 7.88667 0.414562C7.12346 0.106832 6.30474 -0.0323206 5.48472 0.0063202C4.66471 0.044961 3.86212 0.260513 3.13009 0.638703C2.39806 1.01689 1.75331 1.54909 1.23852 2.20005C-0.400634 4.24767 -0.413769 7.15846 1.20519 9.61556C3.62901 13.2939 8.08313 16.805 9.39084 17.7937Z" fill="#FF5800"/>
</svg>
