<svg width="20" height="18" viewBox="0 0 20 18" fill="none" xmlns="http://www.w3.org/2000/svg">
<path d="M9.39084 17.7937C9.56673 17.9276 9.7805 18 10.0002 18C10.2199 18 10.4336 17.9275 10.6094 17.7934C11.9168 16.805 16.3709 13.2939 18.7948 9.61555C20.4137 7.15856 20.4007 4.24778 18.7614 2.20004C18.2467 1.54908 17.6019 1.01688 16.8699 0.638693C16.1379 0.260503 15.3353 0.0449507 14.5153 0.00631027C13.6953 -0.0323302 12.8766 0.106823 12.1134 0.414555C11.3502 0.722287 10.6599 1.19158 10.0882 1.79134L9.99998 1.88319L9.91183 1.79135C9.34017 1.19158 8.64988 0.722293 7.88667 0.414562C7.12346 0.106832 6.30474 -0.0323206 5.48472 0.0063202C4.66471 0.044961 3.86212 0.260513 3.13009 0.638703C2.39806 1.01689 1.75331 1.54909 1.23852 2.20005C-0.400634 4.24767 -0.413769 7.15846 1.20519 9.61556C3.62901 13.2939 8.08313 16.805 9.39084 17.7937ZM2.10027 2.91501C2.51921 2.38863 3.04251 1.95815 3.636 1.65169C4.22948 1.34523 4.87979 1.16968 5.54446 1.13651C5.61752 1.13308 5.69033 1.13139 5.76288 1.13142C6.38917 1.13075 7.00914 1.25895 7.58554 1.50834C8.16194 1.75773 8.68288 2.12316 9.11706 2.58267L9.54642 3.02973C9.66845 3.14854 9.83077 3.21488 9.99962 3.21497C10.1685 3.21505 10.3309 3.14887 10.453 3.03018L10.8829 2.58268C11.3425 2.0959 11.8991 1.71497 12.5154 1.46552C13.1316 1.21607 13.7932 1.10388 14.4556 1.13652C15.1203 1.16969 15.7706 1.34525 16.364 1.65171C16.9575 1.95817 17.4808 2.38865 17.8997 2.91502C19.2435 4.59361 19.2327 6.91952 17.8716 8.98516C15.5781 12.4657 11.3344 15.8317 9.99998 16.8445C8.66501 15.8312 4.42172 12.4654 2.12838 8.98514C0.767366 6.91951 0.756618 4.59349 2.10027 2.91501Z" fill="#FF5800"/>
</svg>
