<svg id="SvgjsSvg1000" xmlns="http://www.w3.org/2000/svg" version="1.1" xmlns:xlink="http://www.w3.org/1999/xlink" xmlns:svgjs="http://svgjs.com/svgjs" width="71" viewBox="0 0 71 71"><title>Эллипс 1</title><desc>Created with Avocode.</desc><defs id="SvgjsDefs1001"><filter id="SvgjsFilter1008" width="200%" height="200%" x="-50%" y="-50%"><feMorphology id="SvgjsFeMorphology1009" operator="dilate" radius="0" result="SvgjsFeMorphology1009Out" in="SourceGraphic"></feMorphology><feOffset id="SvgjsFeOffset1010" dx="0" dy="0" result="SvgjsFeOffset1010Out" in="SvgjsFeMorphology1009Out"></feOffset><feGaussianBlur id="SvgjsFeGaussianBlur1011" stdDeviation="7.5 " result="SvgjsFeGaussianBlur1011Out" in="SvgjsFeOffset1010Out"></feGaussianBlur><feComposite id="SvgjsFeComposite1012" in="SvgjsFeGaussianBlur1011Out" in2="SourceAlpha" operator="out" result="SvgjsFeComposite1012Out"></feComposite></filter><clipPath id="SvgjsClipPath1017"><path id="SvgjsPath1016" d="M1539.5 1958C1550.82 1958 1560 1967.18 1560 1978.5C1560 1989.82 1550.82 1999 1539.5 1999C1528.18 1999 1519 1989.82 1519 1978.5C1519 1967.18 1528.18 1958 1539.5 1958Z " fill="#ffffff"></path></clipPath></defs><path id="SvgjsPath1007" d="M1539.5 1958C1550.82 1958 1560 1967.18 1560 1978.5C1560 1989.82 1550.82 1999 1539.5 1999C1528.18 1999 1519 1989.82 1519 1978.5C1519 1967.18 1528.18 1958 1539.5 1958Z " fill="#000000" fill-opacity="0.5" filter="url(#SvgjsFilter1008)" transform="matrix(1,0,0,1,-1504,-1943)"></path><path id="SvgjsPath1013" d="M1539.5 1958C1550.82 1958 1560 1967.18 1560 1978.5C1560 1989.82 1550.82 1999 1539.5 1999C1528.18 1999 1519 1989.82 1519 1978.5C1519 1967.18 1528.18 1958 1539.5 1958Z " fill="#ffffff" fill-opacity="1" transform="matrix(1,0,0,1,-1504,-1943)"></path><path id="SvgjsPath1014" d="M1539.5 1958C1550.82 1958 1560 1967.18 1560 1978.5C1560 1989.82 1550.82 1999 1539.5 1999C1528.18 1999 1519 1989.82 1519 1978.5C1519 1967.18 1528.18 1958 1539.5 1958Z " fill="#ffffff" fill-opacity="1" transform="matrix(1,0,0,1,-1504,-1943)"></path><path id="SvgjsPath1015" d="M1539.5 1958C1550.82 1958 1560 1967.18 1560 1978.5C1560 1989.82 1550.82 1999 1539.5 1999C1528.18 1999 1519 1989.82 1519 1978.5C1519 1967.18 1528.18 1958 1539.5 1958Z " fill-opacity="0" fill="#ffffff" stroke-dasharray="0" stroke-linejoin="round" stroke-linecap="butt" stroke-opacity="1" stroke="#1d85d7" stroke-miterlimit="50" stroke-width="2" clip-path="url(&quot;#SvgjsClipPath1017&quot;)" transform="matrix(1,0,0,1,-1504,-1943)"></path><path id="SvgjsPath1018" d="M1540.21 1973.6C1540.6000000000001 1973.99 1540.6000000000001 1974.62 1540.21 1975.01L1531.01 1984.21C1530.62 1984.6000000000001 1529.99 1984.6000000000001 1529.6 1984.21C1529.2099999999998 1983.82 1529.2099999999998 1983.18 1529.6 1982.79L1538.79 1973.6C1539.18 1973.2099999999998 1539.82 1973.2099999999998 1540.21 1973.6Z " fill="#1d85d7" fill-opacity="1" transform="matrix(1,0,0,1,-1504,-1943)"></path><path id="SvgjsPath1019" d="M1540.21 1973.6L1549.4 1982.79C1549.7900000000002 1983.18 1549.7900000000002 1983.82 1549.4 1984.21C1549.01 1984.6000000000001 1548.38 1984.6000000000001 1547.99 1984.21L1538.79 1975.01C1538.3999999999999 1974.62 1538.3999999999999 1973.99 1538.79 1973.6C1539.18 1973.2099999999998 1539.82 1973.2099999999998 1540.21 1973.6Z " fill="#1d85d7" fill-opacity="1" transform="matrix(1,0,0,1,-1504,-1943)"></path></svg>
