<?xml version="1.0" encoding="utf-8"?>
<!-- Generator: Adobe Illustrator 19.2.0, SVG Export Plug-In . SVG Version: 6.00 Build 0)  -->
<svg version="1.1" id="Слой_1" xmlns="http://www.w3.org/2000/svg" xmlns:xlink="http://www.w3.org/1999/xlink" x="0px" y="0px"
	 viewBox="0 0 1000 1000" style="enable-background:new 0 0 1000 1000;" xml:space="preserve">
<style type="text/css">
	.st0{fill:#1D85D7;stroke:#0B6D19;stroke-miterlimit:10;}
</style>
<g>
	<path class="st0" d="M336.4,829c-41.2,0-74.8,33.5-74.8,74.5c0,41.1,33.6,74.5,74.8,74.5s74.8-33.4,74.8-74.5
		C411.2,862.4,377.6,829,336.4,829z"/>
	<path class="st0" d="M982.1,227.1c-15.2-27.2-45.5-34.6-48.9-35.3c-1.7-0.4-3.3-0.2-5-0.2H176.9L162.2,92
		c-13.4-57.6-40.1-67.7-66.9-69.4C94.2,22.5,93,22,91.8,22H32.3C20,22,10,30.9,10,43.2s10,21.2,22.3,21.2h57.3
		c16.4,0,27.1,14.5,34.3,38.3c0.3,1,0.2,2.7,0.3,3.7l90.4,598.8c0.3,1.3,0.6,2.6,1,3.8c0.7,2,7.7,19.4,23.9,37.7
		c22.5,25.4,51.9,38.2,85,38.2H864c12.4,0,22.3-8.9,22.3-21.2s-10-21.2-22.3-21.2H324.5c-43.7,0-62.7-42.6-66.3-51l-16-97.4h570.5
		c83.5,0,113.7-87.5,114-88.3l57.9-219.4c0.1-0.2,0.2,0.3,0.2,0.1C994.6,258.6,988.7,239.1,982.1,227.1"/>
	<path class="st0" d="M798.2,829c-41.3,0-74.8,33.5-74.8,74.5c0,41.1,33.6,74.5,74.8,74.5c41.3,0,74.8-33.4,74.8-74.5
		S839.5,829,798.2,829z"/>
</g>
</svg>
