<svg id="SvgjsSvg1000" xmlns="http://www.w3.org/2000/svg" version="1.1" xmlns:xlink="http://www.w3.org/1999/xlink" xmlns:svgjs="http://svgjs.com/svgjs" width="31" viewBox="-2 -2 31 31"><title>Эллипс 3</title><desc>Created with Avocode.</desc><defs id="SvgjsDefs1001"><clipPath id="SvgjsClipPath1009"><path id="SvgjsPath1008" d="M1414.5 6300C1421.96 6300 1428 6306.04 1428 6313.5C1428 6320.96 1421.96 6327 1414.5 6327C1407.04 6327 1401 6320.96 1401 6313.5C1401 6306.04 1407.04 6300 1414.5 6300Z " fill="#ffffff"></path></clipPath></defs><path id="SvgjsPath1007" d="M1414.5 6300C1421.96 6300 1428 6306.04 1428 6313.5C1428 6320.96 1421.96 6327 1414.5 6327C1407.04 6327 1401 6320.96 1401 6313.5C1401 6306.04 1407.04 6300 1414.5 6300Z " fill-opacity="0" fill="#ffffff" stroke-dasharray="0" stroke-linejoin="round" stroke-linecap="butt" stroke-opacity="1" stroke="#06437f" stroke-miterlimit="50" stroke-width="2" clip-path="url(&quot;#SvgjsClipPath1009&quot;)" transform="matrix(1,0,0,1,-1401,-6300)"></path><path id="SvgjsPath1010" d="M1408.14 6307.84L1408.8400000000001 6307.14L1420.8600000000001 6319.160000000001L1420.16 6319.860000000001Z " fill="#06437f" fill-opacity="1" transform="matrix(1,0,0,1,-1401,-6300)"></path><path id="SvgjsPath1011" d="M1408.14 6319.16L1420.16 6307.139999999999L1420.8600000000001 6307.839999999999L1408.8400000000001 6319.86Z " fill="#06437f" fill-opacity="1" transform="matrix(1,0,0,1,-1401,-6300)"></path></svg>
