<svg id="SvgjsSvg1020" xmlns="http://www.w3.org/2000/svg" version="1.1" xmlns:xlink="http://www.w3.org/1999/xlink" xmlns:svgjs="http://svgjs.com/svgjs" width="20" height="20" viewBox="0 0 20 20"><title>Эллипс 2</title><desc>Created with Avocode.</desc><defs id="SvgjsDefs1021"></defs><path id="SvgjsPath1022" d="M1255 2494C1260.52 2494 1265 2498.48 1265 2504C1265 2509.52 1260.52 2514 1255 2514C1249.48 2514 1245 2509.52 1245 2504C1245 2498.48 1249.48 2494 1255 2494Z " fill="#e3e3e3" fill-opacity="1" transform="matrix(1,0,0,1,-1245,-2494)"></path><path id="SvgjsPath1023" d="M1250.93 2499.76C1251.3200000000002 2499.3700000000003 1251.95 2499.3700000000003 1252.3400000000001 2499.76L1259.41 2506.8300000000004C1259.8000000000002 2507.2200000000003 1259.8000000000002 2507.8500000000004 1259.41 2508.2400000000002C1259.02 2508.63 1258.39 2508.63 1258 2508.2400000000002L1250.93 2501.17C1250.54 2500.78 1250.54 2500.15 1250.93 2499.76Z " fill="#929292" fill-opacity="1" transform="matrix(1,0,0,1,-1245,-2494)"></path><path id="SvgjsPath1024" d="M1250.93 2506.83L1258 2499.7599999999998C1258.39 2499.37 1259.02 2499.37 1259.41 2499.7599999999998C1259.8000000000002 2500.1499999999996 1259.8000000000002 2500.7799999999997 1259.41 2501.1699999999996L1252.3400000000001 2508.24C1251.95 2508.6299999999997 1251.3200000000002 2508.6299999999997 1250.93 2508.24C1250.54 2507.85 1250.54 2507.22 1250.93 2506.83Z " fill="#929292" fill-opacity="1" transform="matrix(1,0,0,1,-1245,-2494)"></path></svg>