<svg id="Слой_1" data-name="Слой 1" xmlns="http://www.w3.org/2000/svg" viewBox="0 0 300 97"><defs><style>.cls-1{fill:#ed222a;}.cls-2{fill:#ec2027;}.cls-3{fill:#0f4a83;}.cls-4{fill:#0e4983;}.cls-5{fill:#0f4983;}</style></defs><title>neon_color</title><path class="cls-1" d="M19.66,11.43c7,6.93,30.73,30.47,47.09,46.72,5.36,5.32,11.9,12,17.22,17.39,7.26,7.69-1.78,19.24-11.49,10.7S20,34,8.57,22.51C1.54,15.25,13.33,5.08,19.66,11.43Z"/><path class="cls-2" d="M86.25,15.92c0,9.08-.13,21.59-.07,30.59.07,10.87-8.34,12.16-13.77,5.72-10.08-10.88-20-20.29-29.48-29.76-8-8,3-18,10.33-10.46,5.91,5.91,11,11,19.12,19.17,0-4.18-.15-12.26-.09-15.33C72.45,7.25,86.25,7.75,86.25,15.92Z"/><path class="cls-2" d="M39.13,86.08c-10.86-9.66-8.82-8.95-17.42-17.54,0,9.17.06,14.3.06,14.3,0,9.7-15.18,10.43-15.18-.51,0-5.77,0-24.08,0-31.83s8.44-10.64,15.05-4c9.19,9.07,19.14,19.34,28.31,28.44C58.5,84.08,48.92,94.79,39.13,86.08Z"/><path class="cls-3" d="M131.63,51.78c0-6.36,0-11.4.06-16.12,0-9.87,12.88-9.76,12.88.09.05,11.31-.16,22.33-.06,33.44.08,9-6.87,9.27-11.46,4.73-5.77-5.77-12-13.53-17.73-20.23,0,7.75-.1,10.78-.1,14.94,0,11.16-12.86,11.13-12.86.18,0-10.27,0-21.73,0-32,0-10.05,9-9.55,12.43-4.65C120.92,39.59,125.1,44.32,131.63,51.78Z"/><path class="cls-3" d="M281,51.78c0-6.36,0-11.4.06-16.12,0-9.87,12.88-9.76,12.88.09.05,11.31-.16,22.33-.06,33.44.08,9-6.87,9.27-11.46,4.73-5.77-5.77-12-13.53-17.73-20.23,0,7.75-.1,10.78-.1,14.94,0,11.16-12.86,11.13-12.86.18,0-10.27,0-21.73,0-32,0-10.05,9-9.55,12.43-4.65C270.29,39.59,274.47,44.32,281,51.78Z"/><path class="cls-4" d="M245.71,52.61c-.07,17.13-8.1,24.64-26.08,24.4-16.5-.21-24.2-8.5-24.08-25.93.1-15.67,8.45-22.95,26.23-22.86C238.34,28.3,245.78,35.88,245.71,52.61Zm-36.59-.13c.11,9.84,3.13,13.31,11.61,13.3,8.68,0,11.74-3.67,11.68-14-.06-9.49-3.19-12.66-12.33-12.5C211.74,39.47,209,42.74,209.12,52.48Z"/><path class="cls-5" d="M152.88,52c0-5.46.06-10.92,0-16.37-.07-4.89,2-7.48,7.12-7.45,8.4.05,16.79,0,25.19,0s8.45,11.08-.05,11.08c-6.3,0-13.59,0-19.38,0,0,2.56,0,4.75,0,7.75,4.66,0,12.19,0,17.33,0,7,0,7.33,10.75-.1,10.75l-17.32,0c0,5.33,0,4.09,0,8,5.45-.15,15.63,0,21.08,0,7.73,0,7.92,10.79,0,10.79-9,0-18-.1-27.07,0-4.84.06-6.89-2.31-6.88-6.91Q152.89,60.84,152.88,52Z"/></svg>