<?xml version="1.0" encoding="utf-8"?>
<!-- Generator: Adobe Illustrator 21.0.0, SVG Export Plug-In . SVG Version: 6.00 Build 0)  -->
<svg version="1.1" id="Layer_1" xmlns="http://www.w3.org/2000/svg" xmlns:xlink="http://www.w3.org/1999/xlink" x="0px" y="0px"
	 viewBox="0 0 1132 238" style="enable-background:new 0 0 1132 238;" xml:space="preserve">
<style type="text/css">
	.st0{fill:#E30613;}
	.st1{fill:#364B9B;}
</style>
<title>paxis_logo_slogan</title>
<desc>Created with Sketch.</desc>
<g id="Page-1_1_">
	<g id="paxis_logo_big">
		<g id="Page-1">
			<g id="Group-2">
				<g id="paxis_logo">
					<g id="Group">
						<polygon id="Shape" class="st0" points="99.4,24.9 116,41.4 116,149.1 74.6,149.1 74.6,0 82.8,8.3 82.8,140.8 99.4,140.8 
													"/>
						<polygon id="Shape_1_" class="st1" points="41.4,107.7 41.4,207.1 140.8,207.1 140.8,91.1 149.1,99.4 149.1,215.4 24.9,215.4 
							24.9,124.3 						"/>
						<polygon id="Shape_2_" class="st1" points="66.3,82.8 49.7,99.4 49.7,198.8 132.6,198.8 132.6,82.8 124.3,74.6 124.3,190.5 
							66.3,190.5 						"/>
						<polygon id="Shape_3_" class="st1" points="16.6,132.6 0,149.1 0,232 165.7,232 165.7,116 157.4,107.7 157.4,223.7 
							16.6,223.7 						"/>
						<g id="Shape_4_" transform="translate(183.000000, 149.000000)">
							<polygon class="st1" points="180,40.7 215,1.5 201,1.5 168.7,37.7 168.3,37.7 168.3,1.5 141.9,1.5 147.4,10 156,10 156,82.9 
								168.3,83 168.3,44.3 168.7,44.3 202.8,82.9 217.9,82.9 							"/>
							<path class="st1" d="M126.3,1.5c7.4,0,12.5,4.1,12.5,11.1v59.3c0,5.9-5.1,11.1-12.5,11.1H61.2V10H26v64.5h7.5L39,83H13.7V10
								H6L0.5,1.5h73.2v73h47c5,0,5.5-2.3,5.5-5v-24H95.5v-8.6h30.7V14.8c0-2.5-0.6-4.8-5.5-4.8H90l-5.5-8.5H126.3L126.3,1.5z"/>
							<polygon class="st0" points="174.6,0.6 194.2,0.6 174.7,22.6 							"/>
							<path class="st1" d="M231.7,69.5c0,3.2,0.9,5,5.7,5h36.5V83h-40.6c-10.8,0-13.9-6.4-13.9-12.2V13.7c0-6.7,3.7-12.2,15.3-12.2
								h33.4l-5.5,8.5h-25.3c-3.7,0-5.7,1.4-5.7,4.8L231.7,69.5L231.7,69.5z"/>
							<path class="st1" d="M414.4,74.5V83h-41.3c-10.8,0-13.9-6.4-13.9-12.2V13.7c0-6.7,3.7-12.2,15.3-12.2h41.6l-5.5,8.5h-33.4
								c-3.7,0-5.7,1.4-5.7,4.8v54.7c0,3.2,0.9,5,5.7,5H414.4L414.4,74.5z"/>
							<polygon class="st1" points="342.7,74.5 353.5,74.5 348,82.9 330.2,82.9 330.2,26 329.8,26 291.7,82.9 282.7,82.9 282.7,10 
								270.7,10 276.1,1.5 295,1.5 295,58.5 295.4,58.5 333.6,1.5 342.7,1.5 							"/>
						</g>
					</g>
				</g>
			</g>
		</g>
	</g>
</g>
<g>
	<path class="st0" d="M684.6,92.3v29.9h-3.2V95h-15.3v27.2h-3.2V92.3H684.6z"/>
	<path class="st0" d="M689.5,120c2.1,0,3.5-1.2,3.5-3.6v-13.5h13v19.2H703v-16.7h-6.8v11.1c0,3.7-2,5.8-4.9,5.8
		c-0.6,0-1.4,0-1.7-0.2V120z"/>
	<path class="st0" d="M726.6,122.1c-0.3,0.1-0.8,0.2-1.2,0.2c-1.6,0-2.7-0.8-3.2-2c-1.5,1.4-3.5,2.2-5.5,2.2c-3.8,0-5.5-2.7-5.5-5.2
		c0-4,4.1-6.2,9.3-6.2c0.7,0,1.1,0,1.5,0.1v-2.3c0-1.6-1.2-3.5-3.9-3.5c-1.5,0-3.3,0.6-4.2,1.6l-1.7-1.7c1.5-1.5,3.7-2.4,6.1-2.4
		c4.5,0,6.7,2.9,6.7,6.1v9.7c0,1,0.7,1.6,1.6,1.6V122.1z M721.9,118v-4.8c-0.3,0-0.7-0.1-1.3-0.1c-3.6,0-6.3,1.4-6.3,3.8
		c0,1.2,0.8,3,3.3,3C719,119.9,720.7,119.3,721.9,118z"/>
	<path class="st0" d="M739.6,119.7c2.1,0,3.8-0.7,5-2l1.9,1.9c-1.7,1.8-4.2,2.9-7.1,2.9c-5.9,0-9.9-4-9.9-9.9c0-5.9,4-9.9,9.9-9.9
		c2.9,0,5.4,1.1,7.1,2.9l-1.9,1.9c-1.2-1.3-2.9-2-5-2c-4.1,0-6.8,2.9-6.8,7.1C732.8,116.8,735.6,119.7,739.6,119.7z"/>
	<path class="st0" d="M758,122.1h-3.1v-16.7h-6v-2.5H764v2.5h-6V122.1z"/>
	<path class="st0" d="M772,117.1l10.9-14.2h2.5v19.2h-3.1v-14.2l-10.9,14.2h-2.5v-19.2h3.1V117.1z"/>
	<path class="st0" d="M791.6,122.1v-19.2h3.1v8.9l7.9-8.9h3.7l-8.1,9.1l8.9,10.1h-3.7l-8.6-9.9v9.9H791.6z"/>
	<path class="st0" d="M818.5,102.6c5.9,0,9.9,4,9.9,9.9c0,5.9-4,9.9-9.9,9.9c-5.9,0-9.9-4-9.9-9.9
		C808.5,106.7,812.5,102.6,818.5,102.6z M818.5,119.7c4,0,6.7-2.9,6.7-7.1c0-4.2-2.7-7.1-6.7-7.1c-4,0-6.7,2.9-6.7,7.1
		C811.8,116.8,814.5,119.7,818.5,119.7z"/>
	<path class="st0" d="M833.4,102.9h7.1c3.4,0,5.4,2,5.4,4.9c0,1.9-0.9,3.3-2.3,4.2c2.2,0.7,3.4,2.5,3.4,4.9c0,3.1-2.1,5.3-5.8,5.3
		h-7.8V102.9z M840,111.1c1.7,0,2.9-1.2,2.9-2.9c0-1.7-1.2-2.9-2.9-2.9h-3.5v5.8H840z M836.5,113.3v6.5h4.1c1.9,0,3.2-1.3,3.2-3.2
		c0-1.9-1.3-3.2-3.2-3.2H836.5z"/>
	<path class="st0" d="M866.6,122.1c-0.3,0.1-0.8,0.2-1.2,0.2c-1.6,0-2.7-0.8-3.2-2c-1.5,1.4-3.5,2.2-5.5,2.2c-3.8,0-5.5-2.7-5.5-5.2
		c0-4,4.1-6.2,9.3-6.2c0.7,0,1.1,0,1.5,0.1v-2.3c0-1.6-1.2-3.5-3.9-3.5c-1.5,0-3.3,0.6-4.2,1.6l-1.7-1.7c1.5-1.5,3.7-2.4,6.1-2.4
		c4.5,0,6.7,2.9,6.7,6.1v9.7c0,1,0.7,1.6,1.6,1.6V122.1z M861.8,118v-4.8c-0.3,0-0.7-0.1-1.3-0.1c-3.6,0-6.3,1.4-6.3,3.8
		c0,1.2,0.8,3,3.3,3C859,119.9,860.7,119.3,861.8,118z"/>
	<path class="st0" d="M884.4,122.1h-3.1v-7.9h-3.5l-4.4,7.9h-3.3l4.8-8.1c-2.8-0.6-4.4-2.7-4.4-5.4c0-3.3,2.3-5.7,6.3-5.7h7.6V122.1
		z M881.3,111.9v-6.5H877c-1.9,0-3.2,1.3-3.2,3.2s1.3,3.3,3.2,3.3H881.3z"/>
	<path class="st0" d="M908.2,122.1h-3.1v-16.7h-6v-2.5h15.1v2.5h-6V122.1z"/>
	<path class="st0" d="M931.8,122.1c-0.3,0.1-0.8,0.2-1.2,0.2c-1.6,0-2.7-0.8-3.2-2c-1.5,1.4-3.5,2.2-5.5,2.2c-3.8,0-5.5-2.7-5.5-5.2
		c0-4,4.1-6.2,9.3-6.2c0.7,0,1.1,0,1.5,0.1v-2.3c0-1.6-1.2-3.5-3.9-3.5c-1.5,0-3.3,0.6-4.2,1.6l-1.7-1.7c1.5-1.5,3.7-2.4,6.1-2.4
		c4.5,0,6.7,2.9,6.7,6.1v9.7c0,1,0.7,1.6,1.6,1.6V122.1z M927.1,118v-4.8c-0.3,0-0.7-0.1-1.3-0.1c-3.6,0-6.3,1.4-6.3,3.8
		c0,1.2,0.8,3,3.3,3C924.2,119.9,926,119.3,927.1,118z"/>
	<path class="st0" d="M940,102.9v1.6c1.5-1.2,3.5-1.9,5.7-1.9c5.5,0,9.3,4,9.3,9.9c0,5.9-3.9,9.9-9.7,9.9c-2,0-3.8-0.5-5.2-1.4v11.8
		h-3.1v-29.9H940z M944.9,105.4c-2.1,0-3.8,0.7-4.9,1.9v10.5c1.2,1.2,2.9,1.8,4.9,1.8c4,0,6.7-2.9,6.7-7.1
		C951.7,108.3,949,105.4,944.9,105.4z"/>
	<path class="st0" d="M974.3,122.1c-0.3,0.1-0.8,0.2-1.2,0.2c-1.6,0-2.7-0.8-3.2-2c-1.5,1.4-3.5,2.2-5.5,2.2c-3.8,0-5.5-2.7-5.5-5.2
		c0-4,4.1-6.2,9.3-6.2c0.7,0,1.1,0,1.5,0.1v-2.3c0-1.6-1.2-3.5-3.9-3.5c-1.5,0-3.3,0.6-4.2,1.6l-1.7-1.7c1.5-1.5,3.7-2.4,6.1-2.4
		c4.5,0,6.7,2.9,6.7,6.1v9.7c0,1,0.7,1.6,1.6,1.6V122.1z M969.5,118v-4.8c-0.3,0-0.7-0.1-1.3-0.1c-3.6,0-6.3,1.4-6.3,3.8
		c0,1.2,0.8,3,3.3,3C966.7,119.9,968.4,119.3,969.5,118z"/>
	<path class="st0" d="M988.6,109.6h24.7v2.5h-24.7V109.6z"/>
	<path class="st0" d="M666.2,162.5h8.6c-0.5-3.5-3.1-5.9-6.7-5.9c-2.1,0-3.8,0.7-5,2l-1.9-1.9c1.7-1.8,4.2-2.9,7.1-2.9
		c5.9,0,9.9,4,9.9,9.9s-4,9.9-9.9,9.9c-2.9,0-5.4-1.1-7.1-2.9l1.9-2c1.2,1.3,2.9,2,5,2c3.7,0,6.3-2.4,6.7-6.1h-8.6V162.5z"/>
	<path class="st0" d="M696.1,173.5V184H693v-10.5c-0.4,0-0.7,0.1-1.1,0.1c-5.9,0-9.9-3.9-9.9-9.8s4-9.8,9.9-9.8c0.3,0,0.7,0,1.1,0.1
		v-12.7h3.1V154c0.3,0,0.7-0.1,1.1-0.1c5.9,0,9.9,3.9,9.9,9.8s-4,9.8-9.9,9.8C696.8,173.6,696.4,173.5,696.1,173.5z M691.9,170.9
		c0.3,0,0.7,0,1.1-0.1v-14.1c-0.4,0-0.7-0.1-1.1-0.1c-4,0-6.7,2.9-6.7,7.1S687.9,170.9,691.9,170.9z M696.1,156.7v14.1
		c0.3,0,0.7,0.1,1.1,0.1c4,0,6.7-2.9,6.7-7.1s-2.7-7.1-6.7-7.1C696.8,156.6,696.4,156.7,696.1,156.7z"/>
	<path class="st0" d="M725,173.5V184h-3.1v-10.5c-0.4,0-0.7,0.1-1.1,0.1c-5.9,0-9.9-3.9-9.9-9.8s4-9.8,9.9-9.8c0.3,0,0.7,0,1.1,0.1
		v-12.7h3.1V154c0.3,0,0.7-0.1,1.1-0.1c5.9,0,9.9,3.9,9.9,9.8s-4,9.8-9.9,9.8C725.7,173.6,725.3,173.5,725,173.5z M720.8,170.9
		c0.3,0,0.7,0,1.1-0.1v-14.1c-0.4,0-0.7-0.1-1.1-0.1c-4,0-6.7,2.9-6.7,7.1S716.8,170.9,720.8,170.9z M725,156.7v14.1
		c0.3,0,0.7,0.1,1.1,0.1c4,0,6.7-2.9,6.7-7.1s-2.7-7.1-6.7-7.1C725.7,156.6,725.3,156.7,725,156.7z"/>
	<path class="st0" d="M743.2,164.6c0.3,3.8,2.8,6.3,6.8,6.3c2.2,0,3.9-0.7,5.1-2l1.9,1.9c-1.8,1.8-4.2,2.9-7.2,2.9
		c-5.9,0-9.9-4-9.9-10c0-5.8,3.7-9.8,9.2-9.8c5.5,0,8.7,4.1,8.7,10.7H743.2z M743.2,162.3h11.5c-0.4-3.5-2.3-5.8-5.5-5.8
		S743.5,158.8,743.2,162.3z"/>
	<path class="st0" d="M762.7,173.3v-19.2h3.1v8.9l7.9-8.9h3.7l-8.1,9.1l8.9,10.1h-3.7l-8.6-9.9v9.9H762.7z"/>
	<path class="st0" d="M790.3,173.3h-3.1v-16.7h-6v-2.5h15.1v2.5h-6V173.3z"/>
	<path class="st0" d="M804.2,168.4l10.9-14.2h2.5v19.2h-3.1v-14.2l-10.9,14.2h-2.5v-19.2h3.1V168.4z"/>
	<path class="st0" d="M823.8,154.1h7.1c3.4,0,5.4,2,5.4,4.9c0,1.9-0.9,3.3-2.3,4.2c2.2,0.7,3.4,2.5,3.4,4.9c0,3.1-2.1,5.3-5.8,5.3
		h-7.8V154.1z M830.4,162.3c1.7,0,2.9-1.2,2.9-2.9c0-1.7-1.2-2.9-2.9-2.9h-3.5v5.8H830.4z M826.9,164.5v6.5h4.1
		c1.9,0,3.2-1.3,3.2-3.2s-1.3-3.2-3.2-3.2H826.9z"/>
	<path class="st0" d="M845.8,162.4h10.1v-8.2h3.1v19.2h-3.1v-8.4h-10.1v8.4h-3.1v-19.2h3.1V162.4z"/>
	<path class="st0" d="M865.2,154.1h3.1v8.1h3.8c3.9,0,6.1,2.3,6.1,5.5c0,3.2-2.3,5.5-6.1,5.5h-7V154.1z M868.3,164.6v6.3h3.8
		c1.8,0,3.1-1.3,3.1-3.2c0-1.8-1.3-3.2-3.1-3.2H868.3z M881.4,154.1h3.1v19.2h-3.1V154.1z"/>
	<path class="st0" d="M892.9,164.6c0.3,3.8,2.8,6.3,6.8,6.3c2.2,0,3.9-0.7,5.1-2l1.9,1.9c-1.8,1.8-4.2,2.9-7.2,2.9
		c-5.9,0-9.9-4-9.9-10c0-5.8,3.7-9.8,9.2-9.8c5.5,0,8.7,4.1,8.7,10.7H892.9z M892.9,162.3h11.5c-0.4-3.5-2.3-5.8-5.5-5.8
		S893.2,158.8,892.9,162.3z"/>
	<path class="st0" d="M925.4,154.1v1.6c1.5-1.2,3.5-1.9,5.7-1.9c5.5,0,9.3,4,9.3,9.9s-3.9,9.9-9.7,9.9c-2,0-3.8-0.5-5.2-1.4V184
		h-3.1v-29.9H925.4z M930.3,156.6c-2.1,0-3.8,0.7-4.9,1.9V169c1.2,1.2,2.9,1.8,4.9,1.8c4,0,6.7-2.9,6.7-7.1S934.3,156.6,930.3,156.6
		z"/>
	<path class="st0" d="M947.5,164.6c0.3,3.8,2.8,6.3,6.8,6.3c2.2,0,3.9-0.7,5.1-2l1.9,1.9c-1.8,1.8-4.2,2.9-7.2,2.9
		c-5.9,0-9.9-4-9.9-10c0-5.8,3.7-9.8,9.2-9.8c5.5,0,8.7,4.1,8.7,10.7H947.5z M947.5,162.3h11.5c-0.4-3.5-2.3-5.8-5.5-5.8
		S947.8,158.8,947.5,162.3z"/>
	<path class="st0" d="M987.9,154.1h3.1v19.2H967v-19.2h3.1v16.7h7.4v-16.7h3.1v16.7h7.4V154.1z"/>
	<path class="st0" d="M999.4,164.6c0.3,3.8,2.8,6.3,6.8,6.3c2.2,0,3.9-0.7,5.1-2l1.9,1.9c-1.8,1.8-4.2,2.9-7.2,2.9
		c-5.9,0-9.9-4-9.9-10c0-5.8,3.7-9.8,9.2-9.8c5.5,0,8.7,4.1,8.7,10.7H999.4z M999.4,162.3h11.5c-0.4-3.5-2.3-5.8-5.5-5.8
		S999.8,158.8,999.4,162.3z"/>
	<path class="st0" d="M1022.1,162.4h10.1v-8.2h3.1v19.2h-3.1v-8.4h-10.1v8.4h-3.1v-19.2h3.1V162.4z"/>
	<path class="st0" d="M1044.6,168.4l10.9-14.2h2.5v19.2h-3.1v-14.2l-10.9,14.2h-2.5v-19.2h3.1V168.4z"/>
	<path class="st0" d="M1077.7,173.3h-3.1v-7.9h-3.5l-4.4,7.9h-3.3l4.8-8.1c-2.8-0.6-4.4-2.7-4.4-5.4c0-3.3,2.3-5.7,6.3-5.7h7.6
		V173.3z M1074.6,163.1v-6.5h-4.4c-1.9,0-3.2,1.3-3.2,3.2s1.3,3.3,3.2,3.3H1074.6z"/>
	<path class="st0" d="M1083.3,176.7c0.9-0.9,1.8-2,2-3.1c-1-0.1-1.7-1-1.7-2c0-1.2,0.9-2.1,2.1-2.1c1,0,2.1,0.7,2.1,2.4
		c0,2.3-1.7,4.4-3.3,5.9L1083.3,176.7z"/>
	<path class="st0" d="M675.4,207.8h-9.5v16.7h-3.1v-19.2h15.7v19.2h-3.1V207.8z"/>
	<path class="st0" d="M687.9,205.3v1.6c1.5-1.2,3.5-1.9,5.7-1.9c5.5,0,9.3,4,9.3,9.9s-3.9,9.9-9.7,9.9c-2,0-3.8-0.5-5.2-1.4v11.8
		h-3.1v-29.9H687.9z M692.8,207.8c-2.1,0-3.8,0.7-4.9,1.9v10.5c1.2,1.2,2.9,1.8,4.9,1.8c4,0,6.7-2.9,6.7-7.1
		S696.8,207.8,692.8,207.8z"/>
	<path class="st0" d="M716.6,205c5.9,0,9.9,4,9.9,9.9s-4,9.9-9.9,9.9c-5.9,0-9.9-4-9.9-9.9S710.6,205,716.6,205z M716.6,222.1
		c4,0,6.7-2.9,6.7-7.1s-2.7-7.1-6.7-7.1c-4,0-6.7,2.9-6.7,7.1S712.6,222.1,716.6,222.1z"/>
	<path class="st0" d="M734.6,219.6l10.9-14.2h2.5v19.2h-3.1v-14.2L734,224.5h-2.5v-19.2h3.1V219.6z"/>
	<path class="st0" d="M765.4,210.1c0,1.9-0.9,3.5-2.4,4.4c2.3,0.8,3.4,2.6,3.4,4.9c0,3.2-2.5,5.4-6.9,5.4c-3.2,0-5.2-1.2-6.9-2.9
		l1.8-1.7c1.2,1.3,2.9,2,4.8,2c2.6,0,4.1-1.4,4.1-3.4c0-1.9-1.3-3.2-3.2-3.2h-2.9v-2.2h2.2c1.8,0,3-1.3,3-3c0-1.5-1.1-3-3.4-3
		c-1.6,0-3.2,0.7-4.3,1.9l-1.7-1.8c1.6-1.6,3.6-2.6,6.3-2.6C763.1,205,765.4,207.1,765.4,210.1z"/>
	<path class="st0" d="M771.7,205.3h7.1c3.4,0,5.4,2,5.4,4.9c0,1.9-0.9,3.3-2.3,4.2c2.2,0.7,3.4,2.5,3.4,4.9c0,3.1-2.1,5.3-5.8,5.3
		h-7.8V205.3z M778.3,213.5c1.7,0,2.9-1.2,2.9-2.9c0-1.7-1.2-2.9-2.9-2.9h-3.5v5.8H778.3z M774.8,215.7v6.5h4.1
		c1.9,0,3.2-1.3,3.2-3.2s-1.3-3.2-3.2-3.2H774.8z"/>
	<path class="st0" d="M799.3,205c5.9,0,9.9,4,9.9,9.9s-4,9.9-9.9,9.9c-5.9,0-9.9-4-9.9-9.9S793.3,205,799.3,205z M799.3,222.1
		c4,0,6.7-2.9,6.7-7.1s-2.7-7.1-6.7-7.1c-4,0-6.7,2.9-6.7,7.1S795.3,222.1,799.3,222.1z"/>
	<path class="st0" d="M830.9,229.7H828v-5.1h-13.7v5.1h-2.9v-7.6c2.1,0,3.8-1.8,3.8-4.3v-12.5h13.2v16.7h2.6V229.7z M816.4,222.1
		h8.9v-14.2h-7v9.7C818.3,219.4,817.6,220.9,816.4,222.1z"/>
	<path class="st0" d="M843.3,222.1c2.1,0,3.8-0.7,5-2l1.9,1.9c-1.7,1.8-4.2,2.9-7.1,2.9c-5.9,0-9.9-4-9.9-9.9s4-9.9,9.9-9.9
		c2.9,0,5.4,1.1,7.1,2.9l-1.9,1.9c-1.2-1.3-2.9-2-5-2c-4.1,0-6.8,2.9-6.8,7.1S839.2,222.1,843.3,222.1z"/>
	<path class="st0" d="M861.7,224.5h-3.1v-16.7h-6v-2.5h15.1v2.5h-6V224.5z"/>
	<path class="st0" d="M872.5,205.3h7.1c3.4,0,5.4,2,5.4,4.9c0,1.9-0.9,3.3-2.3,4.2c2.2,0.7,3.4,2.5,3.4,4.9c0,3.1-2.1,5.3-5.8,5.3
		h-7.8V205.3z M879.1,213.5c1.7,0,2.9-1.2,2.9-2.9c0-1.7-1.2-2.9-2.9-2.9h-3.5v5.8H879.1z M875.6,215.7v6.5h4.1
		c1.9,0,3.2-1.3,3.2-3.2s-1.3-3.2-3.2-3.2H875.6z"/>
	<path class="st0" d="M900.1,205c5.9,0,9.9,4,9.9,9.9s-4,9.9-9.9,9.9c-5.9,0-9.9-4-9.9-9.9S894.2,205,900.1,205z M900.1,222.1
		c4,0,6.7-2.9,6.7-7.1s-2.7-7.1-6.7-7.1c-4,0-6.7,2.9-6.7,7.1S896.1,222.1,900.1,222.1z"/>
	<path class="st0" d="M928,219.6l10.9-14.2h2.5v19.2h-3.1v-14.2l-10.9,14.2h-2.5v-19.2h3.1V219.6z"/>
	<path class="st0" d="M970,207.8h-9.5v16.7h-3.1v-19.2h15.7v19.2H970V207.8z"/>
	<path class="st0" d="M982.5,205.3v1.6c1.5-1.2,3.5-1.9,5.7-1.9c5.5,0,9.3,4,9.3,9.9s-3.9,9.9-9.7,9.9c-2,0-3.8-0.5-5.2-1.4v11.8
		h-3.1v-29.9H982.5z M987.4,207.8c-2.1,0-3.8,0.7-4.9,1.9v10.5c1.2,1.2,2.9,1.8,4.9,1.8c4,0,6.7-2.9,6.7-7.1
		S991.4,207.8,987.4,207.8z"/>
	<path class="st0" d="M1011.2,205c5.9,0,9.9,4,9.9,9.9s-4,9.9-9.9,9.9c-5.9,0-9.9-4-9.9-9.9S1005.3,205,1011.2,205z M1011.2,222.1
		c4,0,6.7-2.9,6.7-7.1s-2.7-7.1-6.7-7.1c-4,0-6.7,2.9-6.7,7.1S1007.2,222.1,1011.2,222.1z"/>
	<path class="st0" d="M1042.9,229.7h-2.9v-5.1h-13.7v5.1h-2.9v-7.6c2.1,0,3.8-1.8,3.8-4.3v-12.5h13.2v16.7h2.6V229.7z M1028.4,222.1
		h8.9v-14.2h-7v9.7C1030.2,219.4,1029.6,220.9,1028.4,222.1z"/>
	<path class="st0" d="M1061.9,224.5c-0.3,0.1-0.8,0.2-1.2,0.2c-1.6,0-2.7-0.8-3.2-2c-1.5,1.4-3.5,2.2-5.5,2.2
		c-3.8,0-5.5-2.7-5.5-5.2c0-4,4.1-6.2,9.3-6.2c0.7,0,1.1,0,1.5,0.1v-2.3c0-1.6-1.2-3.5-3.9-3.5c-1.5,0-3.3,0.6-4.2,1.6l-1.7-1.7
		c1.5-1.5,3.7-2.4,6.1-2.4c4.5,0,6.7,2.9,6.7,6.1v9.7c0,1,0.7,1.6,1.6,1.6V224.5z M1057.2,220.5v-4.8c-0.3,0-0.7-0.1-1.3-0.1
		c-3.6,0-6.3,1.4-6.3,3.8c0,1.2,0.8,3,3.3,3C1054.3,222.3,1056,221.7,1057.2,220.5z"/>
	<path class="st0" d="M1079.6,214.6v10h-3.1v-10l-7.8,10h-3.5l7.9-10.1l-7.2-9.1h3.6l7,9v-9h3.1v9l7-9h3.6l-7.2,9.1l7.9,10.1h-3.6
		L1079.6,214.6z"/>
	<path class="st0" d="M1109,224.5c-0.3,0.1-0.8,0.2-1.2,0.2c-1.6,0-2.7-0.8-3.2-2c-1.5,1.4-3.5,2.2-5.5,2.2c-3.8,0-5.5-2.7-5.5-5.2
		c0-4,4.1-6.2,9.3-6.2c0.7,0,1.1,0,1.5,0.1v-2.3c0-1.6-1.2-3.5-3.9-3.5c-1.5,0-3.3,0.6-4.2,1.6l-1.7-1.7c1.5-1.5,3.7-2.4,6.1-2.4
		c4.5,0,6.7,2.9,6.7,6.1v9.7c0,1,0.7,1.6,1.6,1.6V224.5z M1104.2,220.5v-4.8c-0.3,0-0.7-0.1-1.3-0.1c-3.6,0-6.3,1.4-6.3,3.8
		c0,1.2,0.8,3,3.3,3C1101.4,222.3,1103.1,221.7,1104.2,220.5z"/>
</g>
</svg>
