<svg id="Layer_1" data-name="Layer 1" xmlns="http://www.w3.org/2000/svg" viewBox="0 0 1494 1160"><defs><style>.cls-1{fill:#785c37;}.cls-2{fill:#5b4426;}.cls-3{fill:#e6e7e8;}.cls-4{fill:#e2d21f;}</style></defs><title>Wallet</title><rect class="cls-1" x="46.45" y="45.74" width="1416.48" height="1084.26" rx="69.3" ry="69.3"/><path class="cls-2" d="M886.14,425h576.78V372.28H886.14c-119.06,0-215.58,96.52-215.58,215.58s96.52,215.58,215.58,215.58h576.78v-52.7H886.14a162.88,162.88,0,0,1,0-325.77Z"/><path class="cls-3" d="M969.23,587.87A86.23,86.23,0,1,1,883,501.63,86.23,86.23,0,0,1,969.23,587.87Z"/><path class="cls-4" d="M523.45,438.36c-7-18-17.12-28.7-27.9-38.73s-29.85-19.82-45.69-23.16c-11.41-2.93-28.21-4.18-49.76-4.18H232.76V572H205.42v44.79h27.34V635H205.42v44.79h27.34V803.45h48V679.76H452.59V635H280.74V616.81H403.91c46.27,0,79.37-12.94,100-38.06,19.73-24,31.8-45,31.8-81.84C535.73,475.58,529.79,455.93,523.45,438.36Zm-63,113.16c-12,13.8-28,20.49-55.86,20.49H280.74V418.12H403.59c19.65,0,33.28,1.25,40.25,3.76,11.54,7.32,20.6,13,27.26,25.51,7,13,10.46,28.44,10.46,46A88.77,88.77,0,0,1,460.4,551.52Z"/></svg>