<svg id="Layer_1" data-name="Layer 1" xmlns="http://www.w3.org/2000/svg" viewBox="0 0 328.67 320.67"><defs><style>.cls-1{fill:#006bb3;fill-rule:evenodd;}</style></defs><title>webmoney</title><path class="cls-1" d="M164.4,5.89a154,154,0,0,1,68,15.74q4.84,2.3,9.67,5.07L227.75,39.48,206.3,17.3,170.1,49.59l-21.5-23.47L81.15,86.91l43.23,47.65-17,14.94L150,197.22l-16.89,14.91,60.85,67.74,36.12-33.26,31.23,35.64a165.57,165.57,0,0,1-20.43,13.57,153.9,153.9,0,0,1-76.46,20.25C79,316.07,9.31,246.4,9.31,161S79,5.89,164.4,5.89Z"/><polygon class="cls-1" points="136.14 151.18 173.02 117.97 206.23 154.86 169.35 188.06 136.14 151.18 136.14 151.18"/><polygon class="cls-1" points="162.36 214.91 199.24 181.71 232.46 218.59 195.58 251.8 162.36 214.91 162.36 214.91"/><polygon class="cls-1" points="109.75 88.2 146.63 55 179.83 91.88 142.95 125.08 109.75 88.2 109.75 88.2"/><polygon class="cls-1" points="177.43 70.33 205.08 45.43 229.99 73.09 202.33 98 177.43 70.33 177.43 70.33"/><polygon class="cls-1" points="226.57 184.4 254.24 159.49 279.14 187.16 251.48 212.06 226.57 184.4 226.57 184.4"/><polygon class="cls-1" points="250.9 240.27 278.55 215.36 303.46 243.02 275.81 267.92 250.9 240.27 250.9 240.27"/><polygon class="cls-1" points="262.04 112.22 280.48 95.62 297.08 114.06 278.65 130.66 262.04 112.22 262.04 112.22"/><polygon class="cls-1" points="238.48 57.43 256.92 40.83 273.53 59.27 255.08 75.87 238.48 57.43 238.48 57.43"/><polygon class="cls-1" points="285.62 167.01 304.06 150.41 320.66 168.84 302.22 185.45 285.62 167.01 285.62 167.01"/><polygon class="cls-1" points="202.92 125.96 230.58 101.04 255.48 128.7 227.83 153.61 202.92 125.96 202.92 125.96"/></svg>