<svg version="1.1" id="Слой_1" xmlns="http://www.w3.org/2000/svg" x="0" y="0" width="26" height="59" viewBox="0 0 23.6 57.9" xml:space="preserve"><style>.st0{fill:#7facdd}</style><g id="XMLID_3_"><path id="XMLID_10_" class="st0" d="M16.3 55.6C-.4 47.1-3.2 23 14.8 9c1.4-1.1.1-3.4-1.4-2.4-20.2 13.7-16 42 2.4 51.2 1.4.5 1.9-1.3.5-2.2z"/><path id="XMLID_4_" class="st0" d="M9.7 1.9c2.7.1 4.8.6 6.6.9 1.5.3 3.1.6 4.6 1-1.2 3.6-2.1 7.5-3.6 11-.5.7.7 1.5 1.2.9 2.2-3.6 3.5-8 5.1-12.1.2-.6-.1-1.5-.8-1.7C20.5 1.3 12-.1 9.6 0c-1.1.4-.8 1.6.1 1.9z"/></g></svg>