<svg xmlns="http://www.w3.org/2000/svg" xmlns:xlink="http://www.w3.org/1999/xlink" width="200" height="68"><defs><path id="a" d="M469 570h101c10.2 0 19.125 5.454 24.02 13.604v-.591s8.362 9.912 25.98 9.987c.014 0 .1 22 0 22-14.757-.064-23.366 6.65-25.47 8.513C589.76 632.15 580.563 638 570 638H469c-10.565 0-19.764-5.851-24.531-14.49-3.218-2.793-11.445-8.566-24.438-8.51-.1 0-.013-22 0-22 17.334-.074 25.707-10.638 25.973-10.979C451.062 574.755 459.476 570 469 570z"/><linearGradient id="b" x1="419.98" x2="619.98" y1="604" y2="604" gradientUnits="userSpaceOnUse"><stop offset="0" stop-color="#00e2b2"/><stop offset="1" stop-color="#49bf57"/></linearGradient></defs><g transform="translate(-420 -570)"><use fill="#f3f7ec" xlink:href="#a"/><use fill="url(#b)" xlink:href="#a"/></g></svg>