<svg xmlns="http://www.w3.org/2000/svg" xmlns:xlink="http://www.w3.org/1999/xlink" width="200" height="68"><defs><path id="a" d="M1249 649h101c10.2 0 19.125 5.453 24.02 13.603v-.59s8.362 9.912 25.98 9.987c.013 0 .1 22 0 22-14.756-.064-23.366 6.649-25.47 8.512C1369.762 711.15 1360.564 717 1350 717h-101c-10.565 0-19.763-5.851-24.531-14.49-3.217-2.793-11.445-8.566-24.438-8.51-.1 0-.014-22 0-22 17.395-.074 25.766-10.713 25.975-10.982C1231.065 653.754 1239.477 649 1249 649z"/><linearGradient id="b" x1="1199.98" x2="1399.98" y1="683" y2="683" gradientUnits="userSpaceOnUse"><stop offset="0" stop-color="#a8e65a"/><stop offset="1" stop-color="#58c35b"/></linearGradient></defs><g transform="translate(-1200 -649)"><use fill="#f3f7ec" xlink:href="#a"/><use fill="url(#b)" xlink:href="#a"/></g></svg>