<svg xmlns="http://www.w3.org/2000/svg" xmlns:xlink="http://www.w3.org/1999/xlink" width="200" height="68"><defs><path id="a" d="M919 570h101c10.2 0 19.125 5.454 24.02 13.604v-.591s8.362 9.912 25.98 9.987c.014 0 .1 22 0 22-14.757-.064-23.366 6.65-25.47 8.513C1039.76 632.15 1030.563 638 1020 638H919c-10.565 0-19.763-5.851-24.531-14.49-3.217-2.793-11.445-8.566-24.438-8.51-.1 0-.014-22 0-22 17.358-.074 25.73-10.667 25.974-10.98C901.063 574.755 909.476 570 919 570z"/><linearGradient id="b" x1="869.98" x2="1069.98" y1="604" y2="604" gradientUnits="userSpaceOnUse"><stop offset="0" stop-color="#c3e141"/><stop offset="1" stop-color="#ff9a4b"/></linearGradient></defs><g transform="translate(-870 -570)"><use fill="#f3f7ec" xlink:href="#a"/><use fill="url(#b)" xlink:href="#a"/></g></svg>