<svg xmlns="http://www.w3.org/2000/svg" xmlns:xlink="http://www.w3.org/1999/xlink" width="200" height="68"><defs><path id="a" d="M1369 570h101c10.2 0 19.125 5.453 24.02 13.603v-.59s8.362 9.912 25.98 9.987c.013 0 .1 22 0 22-14.756-.064-23.366 6.649-25.47 8.513C1489.76 632.15 1480.564 638 1470 638h-101c-10.565 0-19.763-5.851-24.531-14.49-3.217-2.793-11.445-8.566-24.438-8.51-.1 0-.014-22 0-22 17.385-.074 25.757-10.701 25.975-10.982C1351.064 574.754 1359.477 570 1369 570z"/><linearGradient id="b" x1="1319.98" x2="1519.98" y1="604" y2="604" gradientUnits="userSpaceOnUse"><stop offset="0" stop-color="#ff4471"/><stop offset="1" stop-color="#95015b"/></linearGradient></defs><g transform="translate(-1320 -570)"><use fill="#f3f7ec" xlink:href="#a"/><use fill="url(#b)" xlink:href="#a"/></g></svg>