<svg xmlns="http://www.w3.org/2000/svg" xmlns:xlink="http://www.w3.org/1999/xlink" width="200" height="68"><defs><path id="a" d="M349 649h101c10.2 0 19.125 5.454 24.02 13.604v-.591s8.362 9.912 25.98 9.987c.014 0 .1 22 0 22-14.757-.064-23.366 6.65-25.47 8.513C469.76 711.15 460.564 717 450 717H349c-10.565 0-19.764-5.852-24.531-14.49-3.218-2.794-11.445-8.566-24.438-8.51-.1 0-.013-22 0-22 17.341-.074 25.715-10.647 25.973-10.98C331.063 653.756 339.476 649 349 649z"/><linearGradient id="b" x1="299.98" x2="499.98" y1="683" y2="683" gradientUnits="userSpaceOnUse"><stop offset="0" stop-color="#5e37cc"/><stop offset="1" stop-color="#95015b"/></linearGradient></defs><g transform="translate(-300 -649)"><use fill="#f3f7ec" xlink:href="#a"/><use fill="url(#b)" xlink:href="#a"/></g></svg>