<svg xmlns="http://www.w3.org/2000/svg" xmlns:xlink="http://www.w3.org/1999/xlink" width="200" height="68"><defs><path id="a" d="M799 649h101c10.2 0 19.125 5.454 24.02 13.604v-.591s8.362 9.912 25.98 9.987c.014 0 .1 22 0 22-14.757-.064-23.366 6.65-25.47 8.513C919.76 711.15 910.564 717 900 717H799c-10.565 0-19.763-5.851-24.531-14.49-3.218-2.793-11.445-8.566-24.438-8.51-.1 0-.014-22 0-22 17.367-.074 25.739-10.678 25.974-10.98C781.064 653.753 789.477 649 799 649z"/><linearGradient id="b" x1="749.98" x2="949.98" y1="683" y2="683" gradientUnits="userSpaceOnUse"><stop offset="0" stop-color="#fe4a77"/><stop offset="1" stop-color="#fe8e60"/></linearGradient></defs><g transform="translate(-750 -649)"><use fill="#f3f7ec" xlink:href="#a"/><use fill="url(#b)" xlink:href="#a"/></g></svg>