<svg xmlns="http://www.w3.org/2000/svg" height="512" width="512"><path d="M469.332 0H42.668C19.113.027.028 19.113 0 42.668v426.664c.027 23.555 19.113 42.64 42.668 42.668h426.664c23.555-.027 42.64-19.113 42.668-42.668V42.668C511.973 19.113 492.887.028 469.332 0zm25.602 469.332c0 14.14-11.461 25.602-25.602 25.602H42.668c-14.14 0-25.602-11.461-25.602-25.602V42.668c0-14.14 11.461-25.602 25.602-25.602h426.664c14.14 0 25.602 11.461 25.602 25.602zm0 0" data-original="#000000" class="active-path" data-old_color="#ff5c80" fill="#ff5c80"/><path d="M469.395 36.54l-.395-.212a16.816 16.816 0 0 0-8.2-2.195H51.2a16.85 16.85 0 0 0-8.208 2.195l-.387.211a17.02 17.02 0 0 0-8.472 14.66v128c0 9.426 7.64 17.067 17.066 17.067h409.602c9.426 0 17.066-7.641 17.066-17.067v-128a17.02 17.02 0 0 0-8.472-14.66zM51.199 54.612L229.477 115.2 51.199 175.785zm43-3.414h323.602L256 106.188zM256 124.211l161.8 54.988H94.2zm26.523-9.012l178.278-60.586v121.172zM51.2 349.867h-8.532a8.533 8.533 0 1 0 0 17.067h8.531a8.534 8.534 0 1 0 0-17.067zm110.933 0H85.332a8.532 8.532 0 0 0-8.531 8.531 8.533 8.533 0 0 0 8.531 8.536h76.8a8.534 8.534 0 1 0 0-17.067zM51.2 384h-8.532a8.534 8.534 0 1 0 0 17.066h8.531a8.533 8.533 0 1 0 0-17.066zm110.933 0H85.332a8.533 8.533 0 0 0-8.531 8.535 8.532 8.532 0 0 0 8.531 8.531h76.8a8.533 8.533 0 1 0 0-17.066zM51.2 418.133h-8.532a8.534 8.534 0 1 0 0 17.066h8.531a8.533 8.533 0 1 0 0-17.066zm110.933 0H85.332a8.533 8.533 0 0 0-8.531 8.535c0 4.71 3.82 8.531 8.531 8.531h76.8a8.533 8.533 0 1 0 0-17.066zM51.2 452.266h-8.532a8.534 8.534 0 1 0 0 17.066h8.531a8.533 8.533 0 1 0 0-17.066zm110.933 0H85.332a8.533 8.533 0 0 0-8.531 8.535c0 4.71 3.82 8.531 8.531 8.531h76.8a8.533 8.533 0 1 0 0-17.066zM204.8 349.867h-8.534a8.532 8.532 0 0 0-8.532 8.531 8.533 8.533 0 0 0 8.532 8.536h8.535c4.71 0 8.531-3.82 8.531-8.536 0-4.71-3.82-8.53-8.531-8.53zm110.934 0h-76.8a8.533 8.533 0 1 0 0 17.067h76.8a8.534 8.534 0 0 0 8.532-8.536c0-4.71-3.82-8.53-8.532-8.53zM204.8 384h-8.534a8.533 8.533 0 0 0-8.532 8.535 8.532 8.532 0 0 0 8.532 8.531h8.535a8.533 8.533 0 0 0 0-17.066zm110.934 0h-76.8a8.534 8.534 0 1 0 0 17.066h76.8a8.533 8.533 0 0 0 0-17.066zM204.8 418.133h-8.534a8.533 8.533 0 0 0-8.532 8.535c0 4.71 3.82 8.531 8.532 8.531h8.535c4.71 0 8.531-3.82 8.531-8.531a8.533 8.533 0 0 0-8.531-8.535zm110.934 0h-76.8a8.534 8.534 0 1 0 0 17.066h76.8a8.533 8.533 0 0 0 8.532-8.531 8.533 8.533 0 0 0-8.532-8.535zM204.8 452.266h-8.534a8.533 8.533 0 0 0-8.532 8.535c0 4.71 3.82 8.531 8.532 8.531h8.535c4.71 0 8.531-3.82 8.531-8.531a8.533 8.533 0 0 0-8.531-8.535zm110.934 0h-76.8a8.534 8.534 0 1 0 0 17.066h76.8a8.533 8.533 0 0 0 8.532-8.531 8.533 8.533 0 0 0-8.532-8.535zm42.664-102.399h-8.53a8.533 8.533 0 1 0 0 17.067h8.53a8.534 8.534 0 1 0 0-17.067zm110.934 0h-76.797a8.533 8.533 0 1 0 0 17.067h76.797a8.534 8.534 0 1 0 0-17.067zM358.398 384h-8.53a8.534 8.534 0 1 0 0 17.066h8.53a8.533 8.533 0 1 0 0-17.066zm110.934 0h-76.797a8.534 8.534 0 1 0 0 17.066h76.797a8.533 8.533 0 1 0 0-17.066zm-110.934 34.133h-8.53a8.534 8.534 0 1 0 0 17.066h8.53a8.533 8.533 0 1 0 0-17.066zm110.934 0h-76.797a8.534 8.534 0 1 0 0 17.066h76.797a8.533 8.533 0 1 0 0-17.066zm-110.934 34.133h-8.53a8.534 8.534 0 1 0 0 17.066h8.53a8.533 8.533 0 1 0 0-17.066zm110.934 0h-76.797a8.534 8.534 0 1 0 0 17.066h76.797a8.533 8.533 0 1 0 0-17.066zM165.965 218.625c-.05-.07-.137-.094-.195-.156a16.976 16.976 0 0 0-12.168-5.137H51.199c-9.426 0-17.066 7.64-17.066 17.066v85.336c0 9.426 7.64 17.067 17.066 17.067h102.403a16.971 16.971 0 0 0 12.183-5.121c.05-.059.13-.078.18-.137.05-.059.086-.18.144-.254a16.963 16.963 0 0 0 4.559-11.555v-85.336a16.958 16.958 0 0 0-4.559-11.52c-.058-.073-.078-.179-.144-.253zM51.199 240.383l38.137 32.683-38.137 32.684zm14.574-9.985h73.32l-36.695 31.43zm36.696 53.907l36.625 31.43h-73.32zm13.082-11.239l38.05-32.613v65.238zm204.015-54.441c-.054-.07-.136-.094-.199-.156a16.969 16.969 0 0 0-12.168-5.137H204.801c-9.426 0-17.067 7.64-17.067 17.066v85.336c0 9.426 7.641 17.067 17.067 17.067h102.398a16.98 16.98 0 0 0 12.188-5.121c.05-.059.125-.078.18-.137.05-.059.081-.18.144-.254a16.941 16.941 0 0 0 4.555-11.555v-85.336a16.935 16.935 0 0 0-4.555-11.52c-.063-.073-.078-.179-.145-.253zm-114.765 21.758l38.133 32.683L204.8 305.75zm14.574-9.985h73.316L256 261.828zm36.691 53.907l36.625 31.43h-73.316zm13.082-11.239l38.051-32.613v65.238zm204.016-54.441c-.05-.07-.137-.094-.195-.156a16.976 16.976 0 0 0-12.168-5.137H358.398c-9.425 0-17.066 7.64-17.066 17.066v85.336c0 9.426 7.64 17.067 17.066 17.067h102.403a16.971 16.971 0 0 0 12.183-5.121c.051-.059.13-.078.18-.137.05-.059.086-.18.145-.254a16.927 16.927 0 0 0 4.558-11.555v-85.336a16.94 16.94 0 0 0-4.558-11.52c-.059-.073-.075-.179-.145-.253zm-114.766 21.758l38.137 32.683-38.137 32.684zm14.579-9.985h73.316l-36.691 31.43zm36.691 53.907l36.625 31.43h-73.316zm13.082-11.239l38.05-32.613v65.238zm0 0" data-original="#000000" class="active-path" data-old_color="#ff5c80" fill="#ff5c80"/></svg>