<svg xmlns="http://www.w3.org/2000/svg" viewBox="0 -10 512 512" width="512" height="512"><path d="M471.313 372.66a10.235 10.235 0 0 0-8.258-6.96l-30.63-4.45-13.698-27.758a10.222 10.222 0 0 0-9.172-5.699 10.22 10.22 0 0 0-9.172 5.7l-13.7 27.757-30.628 4.45a10.23 10.23 0 0 0-5.672 17.445l22.164 21.605-5.23 30.508a10.237 10.237 0 0 0 4.07 10.004 10.238 10.238 0 0 0 10.77.777l27.398-14.402 27.398 14.402a10.23 10.23 0 0 0 4.758 1.176c2.117 0 4.23-.66 6.012-1.953a10.237 10.237 0 0 0 4.07-10.004l-5.234-30.508 22.164-21.605a10.232 10.232 0 0 0 2.59-10.485zm-42.883 21.195a10.228 10.228 0 0 0-2.942 9.055l2.64 15.383-13.816-7.266a10.239 10.239 0 0 0-9.515 0l-13.817 7.266 2.641-15.383a10.253 10.253 0 0 0-2.941-9.055l-11.176-10.89 15.441-2.246a10.231 10.231 0 0 0 7.703-5.594l6.907-13.996 6.906 13.996a10.218 10.218 0 0 0 7.7 5.594l15.444 2.246zM195.344 71.934h202.504c5.648 0 10.226-4.582 10.226-10.227 0-5.648-4.578-10.23-10.226-10.23H195.344c-5.649 0-10.23 4.582-10.23 10.23 0 5.645 4.581 10.227 10.23 10.227zM52.262 65.621c.258.613.574 1.207.941 1.758a9.551 9.551 0 0 0 1.27 1.555c.468.468.992.898 1.554 1.277a9.729 9.729 0 0 0 1.77.941 10.174 10.174 0 0 0 7.812 0 9.708 9.708 0 0 0 1.77-.941c.562-.379 1.086-.809 1.555-1.277s.898-.993 1.27-1.555c.378-.55.683-1.145.94-1.758a10.1 10.1 0 0 0 .583-1.914c.132-.664.203-1.34.203-2.004s-.07-1.34-.203-1.996a9.893 9.893 0 0 0-.582-1.91 9.473 9.473 0 0 0-.942-1.77 9.977 9.977 0 0 0-1.27-1.554 9.551 9.551 0 0 0-1.554-1.27 10.549 10.549 0 0 0-1.758-.941 11 11 0 0 0-1.914-.582 10.139 10.139 0 0 0-4 0 10.4 10.4 0 0 0-3.68 1.523 9.551 9.551 0 0 0-1.554 1.27 9.551 9.551 0 0 0-1.27 1.554 10.25 10.25 0 0 0-.941 1.77 9.627 9.627 0 0 0-.582 1.91c-.133.656-.203 1.332-.203 1.996s.07 1.34.203 2.004c.12.656.328 1.29.582 1.914zm40.91 0c.258.613.574 1.207.941 1.758a9.551 9.551 0 0 0 1.27 1.555c.469.468.992.898 1.555 1.277.55.371 1.144.687 1.769.941a10.174 10.174 0 0 0 7.813 0 9.708 9.708 0 0 0 1.77-.941c.562-.379 1.085-.809 1.554-1.277s.898-.993 1.27-1.555c.374-.55.683-1.145.94-1.758a10.1 10.1 0 0 0 .583-1.914c.133-.664.203-1.34.203-2.004s-.07-1.34-.203-1.996a9.893 9.893 0 0 0-.582-1.91 9.708 9.708 0 0 0-.942-1.77 9.977 9.977 0 0 0-1.27-1.554c-2.37-2.375-5.902-3.457-9.226-2.793a10.4 10.4 0 0 0-3.68 1.523 9.551 9.551 0 0 0-1.554 1.27 9.551 9.551 0 0 0-1.27 1.554 10.25 10.25 0 0 0-.941 1.77 9.628 9.628 0 0 0-.582 1.91c-.133.656-.203 1.332-.203 1.996s.07 1.34.203 2.004c.12.656.328 1.29.582 1.914zm40.91 0c.258.613.574 1.207.941 1.758a9.551 9.551 0 0 0 1.27 1.555c.469.468.992.898 1.555 1.277.55.371 1.144.687 1.77.941a10.174 10.174 0 0 0 7.812 0 9.708 9.708 0 0 0 1.77-.941c.562-.379 1.085-.809 1.554-1.277s.898-.993 1.27-1.555c.374-.55.683-1.145.937-1.758.258-.625.46-1.258.586-1.914.133-.664.203-1.34.203-2.004s-.07-1.34-.203-1.996a9.639 9.639 0 0 0-.586-1.91 9.457 9.457 0 0 0-.938-1.77 9.977 9.977 0 0 0-1.27-1.554c-2.37-2.375-5.901-3.47-9.226-2.793a10.4 10.4 0 0 0-3.68 1.523 9.551 9.551 0 0 0-1.554 1.27 9.551 9.551 0 0 0-1.27 1.554 10.25 10.25 0 0 0-.941 1.77 9.628 9.628 0 0 0-.582 1.91c-.133.656-.203 1.332-.203 1.996s.07 1.34.203 2.004c.121.656.328 1.29.582 1.914zm121.262 241.203h-88.465c-5.649 0-10.227 4.582-10.227 10.23 0 5.645 4.578 10.227 10.227 10.227h88.465c5.648 0 10.226-4.582 10.226-10.226 0-5.649-4.578-10.23-10.226-10.23zM50.793 327.281h34.266c5.648 0 10.23-4.582 10.23-10.226 0-5.649-4.582-10.23-10.23-10.23H50.793c-5.648 0-10.227 4.581-10.227 10.23 0 5.644 4.579 10.226 10.227 10.226zm204.551 20.453H50.793c-5.648 0-10.227 4.582-10.227 10.23 0 5.645 4.579 10.227 10.227 10.227h204.55c5.65 0 10.227-4.582 10.227-10.226 0-5.649-4.578-10.23-10.226-10.23zm10.187-195.124a9.699 9.699 0 0 0-.125-.98c-.027-.15-.054-.298-.086-.446a11.748 11.748 0 0 0-.277-.993c-.047-.144-.102-.285-.152-.425-.07-.184-.145-.36-.223-.536-.055-.125-.117-.25-.176-.37a14.697 14.697 0 0 0-.293-.548c-.031-.05-.054-.109-.086-.16-.039-.066-.086-.129-.129-.191a8.706 8.706 0 0 0-.324-.484 9.852 9.852 0 0 0-.965-1.164c-.093-.102-.195-.196-.297-.293a8.23 8.23 0 0 0-.742-.645 8.074 8.074 0 0 0-.469-.348 15.61 15.61 0 0 0-.812-.515 10.24 10.24 0 0 0-.438-.23 7.903 7.903 0 0 0-.425-.204c-.168-.074-.336-.14-.504-.207-.137-.05-.27-.101-.406-.148a8.426 8.426 0 0 0-.536-.16 8.714 8.714 0 0 0-.43-.114c-.171-.039-.34-.07-.515-.101a9.722 9.722 0 0 0-.504-.078c-.148-.016-.3-.032-.453-.043-.2-.02-.398-.028-.601-.032-.075 0-.145-.011-.22-.011H50.794c-.086 0-.168.011-.254.011-.18.004-.355.016-.535.028a9.73 9.73 0 0 0-.52.054c-.144.02-.289.04-.433.067a9.57 9.57 0 0 0-.582.113c-.121.027-.239.063-.356.094a7.752 7.752 0 0 0-.605.183c-.113.036-.223.078-.336.121-.192.075-.383.149-.57.235a7.518 7.518 0 0 0-.36.172 7.582 7.582 0 0 0-.5.261c-.137.079-.27.16-.402.243-.137.09-.278.175-.41.27a17.3 17.3 0 0 0-.426.32c-.117.09-.23.183-.344.277-.14.12-.273.246-.41.37-.105.106-.215.208-.316.317a8.252 8.252 0 0 0-.352.387 7.98 7.98 0 0 0-.328.395 10.16 10.16 0 0 0-.61.863c-.039.062-.081.12-.12.183-.032.051-.055.106-.087.157a9.627 9.627 0 0 0-.296.562 9.961 9.961 0 0 0-.172.356 9.43 9.43 0 0 0-.223.547c-.055.136-.11.277-.152.417a6.74 6.74 0 0 0-.149.5 7.71 7.71 0 0 0-.129.497c-.03.144-.058.296-.086.445a9.6 9.6 0 0 0-.09.57c-.015.137-.023.274-.035.406a10.83 10.83 0 0 0-.03.622c0 .062-.013.12-.013.183v122.73c0 .063.012.122.012.184.004.207.016.41.031.617.012.137.02.274.036.407.023.191.054.382.09.574.027.148.054.297.085.445.036.168.082.332.13.496a7.347 7.347 0 0 0 .3.918c.07.184.14.367.223.547a14.78 14.78 0 0 0 .468.918c.032.05.055.106.086.156.028.047.063.086.094.133.18.293.375.574.582.844.055.066.102.137.156.203.243.3.504.586.782.86.097.093.195.175.293.265.199.18.402.352.613.516.117.086.23.175.344.257.254.176.511.344.781.5.066.04.133.086.2.122.347.191.702.359 1.073.507.075.032.153.055.23.086a11.676 11.676 0 0 0 1.231.38c.285.066.575.12.868.163.113.02.226.04.34.051.35.043.71.066 1.074.07.039 0 .078.008.117.008.011 0 .02-.004.031-.004h204.469c.012 0 .02.004.031.004.04 0 .078-.008.117-.008a9.726 9.726 0 0 0 1.074-.07c.114-.012.223-.031.336-.05a9.347 9.347 0 0 0 1.196-.25c.308-.087.613-.184.91-.298.074-.027.152-.054.226-.082.371-.152.73-.32 1.079-.511.062-.035.125-.078.19-.114.27-.16.532-.328.79-.507a9.858 9.858 0 0 0 .957-.773c.098-.09.195-.173.29-.266.276-.27.538-.555.784-.856.055-.066.102-.14.156-.21.208-.27.399-.548.579-.833.03-.05.066-.094.097-.14.032-.055.055-.11.086-.165.102-.18.2-.359.293-.546.059-.122.121-.243.176-.368.078-.175.152-.355.223-.535.05-.14.105-.285.152-.426a13.245 13.245 0 0 0 .277-.996c.032-.148.059-.297.086-.445.031-.191.063-.379.086-.57.016-.137.028-.274.04-.41.015-.208.027-.41.03-.618 0-.062.008-.12.008-.183v-122.73c0-.063-.008-.122-.008-.184a10.82 10.82 0 0 0-.03-.614zM61.023 171.476l72.168 43.3-72.168 43.301zm26.696-7.836h130.699l-65.348 39.21zm65.351 63.066l65.348 39.207h-130.7zm19.88-11.93l72.167-43.3v86.601zm0 0" data-original="#000000" class="active-path" data-old_color="#ff5c80" fill="#ff5c80"/><path d="M450.348 294.648V31.195C450.348 13.996 436.355 0 419.156 0H31.196C13.991 0 0 13.996 0 31.195v346.711c0 17.2 13.992 31.196 31.195 31.196h277.79c9.5 46.777 50.945 82.093 100.484 82.093 56.535 0 102.531-45.992 102.531-102.527 0-42.016-25.402-78.2-61.652-94.02zM31.195 20.453h387.961c5.922 0 10.739 4.82 10.739 10.742v71.078H20.453V31.195c0-5.922 4.82-10.742 10.742-10.742zM20.453 377.906V122.73h409.442v165.45a102.65 102.65 0 0 0-20.426-2.043c-.465 0-.926.011-1.39.015V153.414c0-5.648-4.579-10.23-10.227-10.23H296.598c-5.645 0-10.227 4.582-10.227 10.23v203.863c0 5.649 4.582 10.227 10.227 10.227h12.543a102.526 102.526 0 0 0-2.204 21.14H31.195c-5.922 0-10.742-4.816-10.742-10.738zm295.32-30.855h-8.949V163.64h80.801v124.843c-32.164 7.008-58.738 29.153-71.852 58.567zm93.696 123.691c-45.258 0-82.074-36.82-82.074-82.074 0-45.258 36.816-82.078 82.074-82.078s82.078 36.82 82.078 82.078c0 45.254-36.82 82.074-82.078 82.074zm0 0" data-original="#000000" class="active-path" data-old_color="#ff5c80" fill="#ff5c80"/><path d="M121.719 326.504a10.4 10.4 0 0 0 1.91.582 10.21 10.21 0 0 0 1.996.203c.676 0 1.34-.07 2.004-.203.656-.133 1.3-.328 1.914-.582a10.549 10.549 0 0 0 1.758-.942 9.551 9.551 0 0 0 1.554-1.269 10.276 10.276 0 0 0 3.008-7.23c0-.665-.074-1.34-.207-2.004a10.673 10.673 0 0 0-.582-1.914 10.004 10.004 0 0 0-.941-1.758 9.806 9.806 0 0 0-1.278-1.555 10.237 10.237 0 0 0-7.23-2.996c-2.691 0-5.32 1.082-7.23 2.996a9.551 9.551 0 0 0-1.27 1.555c-.367.55-.684 1.144-.941 1.758a11 11 0 0 0-.582 1.914c-.133.664-.204 1.34-.204 2.004a10.3 10.3 0 0 0 2.997 7.23c.468.473 1 .902 1.554 1.27a11.08 11.08 0 0 0 1.77.94zm0 0" data-original="#000000" class="active-path" data-old_color="#ff5c80" fill="#ff5c80"/></svg>