<svg xmlns="http://www.w3.org/2000/svg" viewBox="0 0 32 32"><path d="M30.568 4.748a3.999 3.999 0 1 0-7.998 0l-.02 1.755a6.424 6.424 0 0 1-12.848 0l-.009-1.755a3.999 3.999 0 1 0-7.998 0l.124 17.923a8.68 8.68 0 0 0 8.698 8.699h11.254a8.68 8.68 0 0 0 8.699-8.699z" stroke="#d60a52" fill="none"/><path d="M15.16 23.52a1.98 1.98 0 1 1-3.959 0 1.98 1.98 0 1 1 3.959 0zm5.599 0a1.98 1.98 0 1 1-3.96 0 1.98 1.98 0 1 1 3.96 0zm-7.244-2.263s1.244-1.98 2.602-2.715m2.601 2.772s-.17-2.602-5.825-4.694" stroke="#d60a52" fill="none"/><path d="M28.707 3.266l-1.72-1.237m-1.57.47L24.221 4.29m.008 1.97l-.024 2.556m-1.162 1.98l-1.76 2.215m-2.466 1.108l-2.693.46m-3.293-.777l-2.237-1.3m-1.777-2.298l-.56-2.795M8.084 5.19L7.51 2.963m-1.488-.986l-2.27.996m-.555 1.33l.017 2.544m.013 2l.017 2.545m.013 2l.017 2.545m.014 2l.017 2.545m.013 2l.278 2.153m.572 1.445l1.256 1.688m1.346 1.048l1.928.815m1.678.232l2.47.008m2 0h2.544m2 0l2.47-.006m1.68-.221l1.933-.8m1.353-1.04l1.268-1.678m.587-1.439l.29-2.149m.011-2l.014-2.545m.01-2l.014-2.545m.01-2l.014-2.544m.01-2l.014-2.545" stroke="#d70b52" fill="none"/></svg>