<svg xmlns="http://www.w3.org/2000/svg" viewBox="0 0 32 32"><path d="M16.172 17.664s-3.553-2.432-3.553-4.185c0-.99.647-1.555 1.696-1.555.932 0 1.867 1.329 1.867 1.329s1.018-1.3 1.81-1.3c1.187 0 1.696.565 1.696 1.809s-3.516 3.902-3.516 3.902z" stroke="#d70b52" fill="none"/><path d="M30.304 11.044a9.166 9.166 0 0 1-9.186 9.186H10.757a9.166 9.166 0 0 1-9.186-9.186l.01-3.381h28.723zM3.5 5.372v2.29m5.119-2.29v2.29m4.919-2.29v2.29m4.998-2.29v2.29m5.039-2.29v2.29m4.959-2.29v2.29" stroke="#d70b52" fill="none"/><rect rx="1.448" ry="1.448" height="2.897" width="29.308" y="2.562" x="1.359" stroke="#d70b52" stroke-width=".987" fill="none"/><path d="M28.059 23.154l-2.432-4.128m-2.432 1.017l2.602 5.146M4.12 23.154l2.432-4.128m2.432 1.017l-2.602 5.146" stroke="#d70b52" fill="none"/><path style="block-progression:tb;text-indent:0;text-align:start;text-transform:none" d="M2.178 22.305a1.465 1.488 0 0 0-.976 2.574s5.408 5.302 14.858 5.302 14.738-5.302 14.738-5.302a1.465 1.488 0 1 0-2.045-2.108s-4.29 4.433-12.693 4.433c-8.403 0-12.815-4.464-12.815-4.464a1.465 1.488 0 0 0-1.067-.435z" stroke="#d70b52" stroke-width=".984" fill="none" color="#000"/></svg>