<svg xmlns="http://www.w3.org/2000/svg" viewBox="0 0 182 104"><path d="M34.4.569c-12.545 0-22.719 10.174-22.719 22.719v15.28s.478 2.934-1.281 5.813C4.21 51.931.15 59.501.15 69.693c0 .324.023.645.031.969 10.953-.215 26.472-2.162 34.156-17.625 7.897 15.151 22.279 17.244 34.25 17.5.006-.28.031-.564.031-.844 0-10.177-5.022-18.767-10.312-25.438-1.28-2.48-1.187-5.375-1.187-5.375V23.286c0-12.545-10.174-22.719-22.72-22.719zm0 6.718c9.188 0 16.625 7.469 16.625 16.656 0 9.188-7.437 16.625-16.625 16.625s-16.656-7.437-16.656-16.625S25.213 7.287 34.4 7.287zm.063 35.188a3.54 3.54 0 0 1 3.53 3.532 3.54 3.54 0 0 1-3.53 3.53c-1.944 0-3.5-1.587-3.5-3.53 0-1.944 1.556-3.532 3.5-3.532zm-5.47 4.22c.448-.022.72 0 .72 0s.248 1.341.562 1.812c.565.848 1.687 1.469 1.687 1.469-.428 1.332-1.249 3.707-4.625 5.437-3.154 1.617-8.28.781-8.28.781s.703-5.526 3.53-7.562c2.121-1.527 5.065-1.874 6.407-1.938zm10.345 0s4.297-.1 7.125 1.937 3.5 7.562 3.5 7.562-5.096.835-8.25-.781c-3.376-1.73-4.229-4.105-4.657-5.438 0 0 1.154-.62 1.72-1.468.313-.47.562-1.813.562-1.813z" color="#000" fill="#d70b52"/><path d="M34.243 58.35C26.887 70.981 10.676 73.477.399 73.725c1.205 11.656 7.217 22.958 11.531 29.719h44.844c4.41-6.92 10.5-18.373 11.625-30.063-10.393-.025-26.401-1.938-34.156-15.031zM21.493 75.6a.411.411 0 0 1 .219 0h6.875c2.368.065 3.983.59 4.844 1.594.86 1.003 1.268 2.112 1.218 3.281-.048 1.372-.374 2.464-1 3.281-.626.818-1.249 1.439-1.875 1.875-.626.436-.983.772-1.03 1 .057.243.467.786 1.218 1.625.751.84 1.499 1.966 2.25 3.406.751 1.44 1.161 3.205 1.219 5.25.007.14-.038.205-.125.25-.087.045-.266.067-.531.063h-2.938a6.87 6.87 0 0 1-.812 0c-.284-.02-.445-.117-.47-.313-.016-1.026-.213-2.173-.593-3.437-.38-1.264-.827-2.375-1.375-3.313-.548-.937-1.075-1.421-1.594-1.468-.453.014-1.021.256-1.656.718-.635.463-.968 1.04-1.031 1.782.012.689.095 1.485.25 2.343.154.858.314 1.592.469 2.25.154.659.238 1.034.25 1.125-.022.207-.159.336-.375.344-.217.008-.38-.017-.532-.031h-3.03c-.223.066-.44.003-.657-.219-.218-.221-.386-.976-.531-2.281-.146-1.305-.245-3.566-.25-6.75.006-3.175.079-5.617.218-7.344.14-1.726.33-2.948.532-3.656.202-.708.399-1.13.593-1.25a.994.994 0 0 1 .25-.125zm17.281 0a.304.304 0 0 1 .188 0h6.75c2.234.054 3.69.486 4.374 1.281.685.795.973 1.645.907 2.531-.037.952-.275 1.771-.75 2.47-.476.697-.962 1.28-1.438 1.75-.475.469-.713.826-.75 1.093.052.296.39.739 1.063 1.344.672.605 1.36 1.436 2.03 2.437s1.043 2.236 1.095 3.72c.025 1.323-.421 2.482-1.313 3.468-.891.986-2.393 1.481-4.5 1.531h-7.812c-.223.066-.439.003-.657-.219-.217-.221-.417-.976-.562-2.28-.145-1.306-.213-3.567-.219-6.75.006-3.176.08-5.618.219-7.345.14-1.726.297-2.948.5-3.656.203-.708.399-1.129.594-1.25.097-.06.203-.104.281-.125zm-11.281 3.063c-1.178-.058-2.015.28-2.562 1-.548.718-.831 2.183-.813 4.374-.015.305.036.64.125 1s.313.531.688.563c.346-.014.944-.242 1.812-.688a11.048 11.048 0 0 0 2.469-1.718c.77-.711 1.167-1.47 1.219-2.282-.035-.81-.344-1.404-.938-1.75-.594-.345-1.263-.509-2-.5zm17.219 0c-1.282-.038-2.234.313-2.844 1.062-.61.749-.911 2.135-.906 4.125-.017.277.002.53.062.781.061.252.279.39.625.406.17-.006.384-.074.657-.187a4.25 4.25 0 0 0 .75-.375l1.906-1.344c.407-.292.79-.71 1.187-1.25s.627-1.104.657-1.656c-.025-.611-.266-1.029-.688-1.25a2.817 2.817 0 0 0-1.406-.313zm.313 8.03c-.176.01-.362.089-.563.188a9.65 9.65 0 0 0-.531.281l-1.688.907a3.583 3.583 0 0 0-.812.53c-.195.176-.31.466-.313.876-.003 1.914.271 3.132.782 3.687.51.556 1.28.812 2.343.75.976.012 1.846-.201 2.594-.625.749-.423 1.148-1.122 1.188-2.125-.081-.992-.51-1.986-1.25-2.937-.74-.95-1.319-1.461-1.75-1.531z" color="#000" fill="#1d71b9"/><path d="M106.71 22.212c0 .943-.117 1.787-.352 2.531-.234.744-.583 1.376-1.045 1.894a4.5 4.5 0 0 1-1.719 1.187c-.682.272-1.472.408-2.368.408-.885 0-1.657-.115-2.316-.347a4.015 4.015 0 0 1-1.648-1.059c-.44-.474-.77-1.078-.99-1.81-.219-.733-.329-1.6-.329-2.602 0-.92.117-1.748.352-2.483.234-.735.583-1.36 1.046-1.876a4.565 4.565 0 0 1 1.718-1.187c.683-.275 1.475-.413 2.377-.413.862 0 1.622.114 2.281.343.66.228 1.21.58 1.653 1.054.442.475.776 1.074 1.002 1.798.225.723.338 1.577.338 2.562zm-2.426.123c0-.598-.047-1.141-.14-1.63a3.506 3.506 0 0 0-.48-1.257 2.287 2.287 0 0 0-.9-.809c-.375-.19-.844-.285-1.407-.285-.568 0-1.043.107-1.423.32a2.62 2.62 0 0 0-.923.857 3.54 3.54 0 0 0-.497 1.253 7.629 7.629 0 0 0-.145 1.516c0 .62.047 1.179.14 1.674.095.495.253.919.475 1.27.223.352.522.62.897.804.375.185.847.277 1.415.277.568 0 1.043-.105 1.424-.316.38-.211.688-.498.923-.862.234-.363.4-.786.496-1.27.097-.483.145-.997.145-1.542zm13.726 5.396a.24.24 0 0 1-.053.154.39.39 0 0 1-.184.11 1.736 1.736 0 0 1-.356.066c-.15.014-.336.022-.558.022-.223 0-.409-.007-.558-.022a1.683 1.683 0 0 1-.356-.066.423.423 0 0 1-.19-.11.227.227 0 0 1-.056-.154v-9.15h-4.237v9.15c0 .059-.019.11-.057.154a.424.424 0 0 1-.189.11 1.72 1.72 0 0 1-.351.066 5.87 5.87 0 0 1-.563.022c-.223 0-.409-.007-.558-.022a1.683 1.683 0 0 1-.356-.066.39.39 0 0 1-.185-.11.239.239 0 0 1-.052-.154V17.386c0-.246.061-.43.184-.55a.674.674 0 0 1 .493-.18h7.514c.211 0 .375.06.492.18.117.12.176.304.176.55zm10.56-10.125c0 .17-.007.315-.022.435s-.037.217-.066.29a.386.386 0 0 1-.11.163.227.227 0 0 1-.145.052h-2.847v9.167a.244.244 0 0 1-.058.159.4.4 0 0 1-.189.114 1.74 1.74 0 0 1-.356.07 4.784 4.784 0 0 1-.558.027 4.95 4.95 0 0 1-.558-.027 1.853 1.853 0 0 1-.356-.07.401.401 0 0 1-.189-.114.244.244 0 0 1-.057-.159v-9.167h-2.847a.222.222 0 0 1-.15-.052.411.411 0 0 1-.105-.163 1.183 1.183 0 0 1-.066-.29 3.676 3.676 0 0 1-.022-.435c0-.176.007-.325.022-.448.014-.123.036-.221.066-.295a.373.373 0 0 1 .105-.158.234.234 0 0 1 .15-.048h8.015a.24.24 0 0 1 .145.048c.044.032.08.085.11.158.03.074.051.172.066.295.015.123.022.272.022.448zm12.09 4.606c0 .943-.117 1.787-.352 2.531-.234.744-.583 1.376-1.045 1.894a4.5 4.5 0 0 1-1.719 1.187c-.682.272-1.472.408-2.368.408-.885 0-1.657-.115-2.316-.347a4.014 4.014 0 0 1-1.648-1.059c-.44-.474-.77-1.078-.989-1.81-.22-.733-.33-1.6-.33-2.602 0-.92.118-1.748.352-2.483.234-.735.583-1.36 1.046-1.876a4.565 4.565 0 0 1 1.718-1.187c.683-.275 1.475-.413 2.378-.413.861 0 1.621.114 2.28.343.66.228 1.21.58 1.653 1.054.442.475.776 1.074 1.002 1.798.225.723.338 1.577.338 2.562zm-2.426.123c0-.598-.047-1.141-.14-1.63a3.506 3.506 0 0 0-.48-1.257 2.287 2.287 0 0 0-.9-.809c-.375-.19-.844-.285-1.407-.285-.568 0-1.043.107-1.423.32a2.62 2.62 0 0 0-.923.857 3.54 3.54 0 0 0-.497 1.253 7.628 7.628 0 0 0-.145 1.516c0 .62.047 1.179.14 1.674.095.495.253.919.475 1.27.223.352.522.62.897.804.375.185.847.277 1.415.277.568 0 1.043-.105 1.424-.316.38-.211.688-.498.923-.862.234-.363.4-.786.496-1.27.097-.483.145-.997.145-1.542zm13.096 2.285c0 .404-.056.77-.167 1.099a2.94 2.94 0 0 1-.461.87 2.99 2.99 0 0 1-.704.65 4.106 4.106 0 0 1-.9.448 5.564 5.564 0 0 1-1.05.26 8.444 8.444 0 0 1-1.244.083h-3.024a.718.718 0 0 1-.488-.171c-.131-.115-.197-.3-.197-.558v-9.914c0-.258.066-.444.197-.559a.719.719 0 0 1 .488-.17h2.857c.697 0 1.287.058 1.77.175.484.117.891.294 1.222.532.331.237.585.537.76.9.176.364.264.791.264 1.284 0 .275-.035.534-.105.777a2.288 2.288 0 0 1-.804 1.19c-.197.154-.42.277-.673.37.323.06.62.162.892.308.273.147.51.336.712.567.202.231.362.502.48.813.116.31.175.66.175 1.046zm-2.988-4.79c0-.229-.036-.434-.106-.615a1.112 1.112 0 0 0-.316-.453 1.452 1.452 0 0 0-.532-.277c-.214-.064-.5-.096-.857-.096h-1.169v2.953h1.292c.334 0 .6-.04.8-.119.2-.08.365-.187.497-.325.131-.138.23-.299.294-.484.064-.184.097-.379.097-.584zm.589 4.87c0-.265-.044-.5-.132-.708a1.35 1.35 0 0 0-.387-.523 1.783 1.783 0 0 0-.65-.326c-.264-.076-.607-.114-1.029-.114h-1.37v3.235h1.67c.321 0 .592-.034.812-.101.22-.068.41-.167.571-.3.162-.131.288-.295.378-.492.091-.196.137-.42.137-.672zM163 27.169c.07.21.114.378.132.501.017.123-.006.215-.07.277-.065.061-.18.1-.343.114a13.943 13.943 0 0 1-1.376.009 1.744 1.744 0 0 1-.382-.053.349.349 0 0 1-.185-.11.6.6 0 0 1-.088-.184l-.764-2.285h-4.272l-.72 2.223a.708.708 0 0 1-.093.207c-.038.055-.1.1-.184.132a1.345 1.345 0 0 1-.36.065 8.48 8.48 0 0 1-.611.018c-.27 0-.48-.009-.633-.026-.153-.018-.258-.06-.317-.128-.058-.067-.079-.162-.061-.285.017-.123.061-.288.132-.493l3.506-10.09c.036-.1.077-.18.124-.241a.436.436 0 0 1 .224-.141 1.77 1.77 0 0 1 .426-.061c.182-.01.422-.014.72-.014.346 0 .622.004.827.014.205.009.365.029.479.061.114.032.196.08.246.145.05.065.092.152.127.264zm-5.22-8.34h-.01l-1.608 4.833h3.226zm15.15 8.902a.24.24 0 0 1-.053.154.388.388 0 0 1-.18.11 1.6 1.6 0 0 1-.351.066c-.15.014-.336.022-.559.022a5.74 5.74 0 0 1-.562-.022 1.76 1.76 0 0 1-.356-.066.392.392 0 0 1-.189-.11.239.239 0 0 1-.053-.154v-4.254h-.852c-.352 0-.62.035-.804.106-.185.07-.349.178-.493.325-.143.146-.27.33-.382.55-.111.219-.22.478-.325.777l-.861 2.46a.592.592 0 0 1-.115.181.516.516 0 0 1-.215.123c-.097.032-.224.054-.382.066s-.36.018-.607.018c-.27 0-.482-.01-.637-.027a1.479 1.479 0 0 1-.356-.075c-.082-.032-.135-.068-.158-.11a.262.262 0 0 1-.035-.131c0-.059.01-.13.03-.216a3.54 3.54 0 0 1 .128-.382l.852-2.232c.112-.293.226-.548.343-.765s.248-.412.391-.584c.144-.173.296-.318.457-.435s.339-.211.532-.282c-.363-.1-.684-.23-.962-.39a2.56 2.56 0 0 1-.703-.59 2.395 2.395 0 0 1-.431-.8 3.318 3.318 0 0 1-.145-1.015c0-.515.09-.983.268-1.401.179-.42.444-.775.795-1.068.352-.293.79-.52 1.314-.681.525-.162 1.256-.242 2.193-.242h2.786a.71.71 0 0 1 .48.171c.131.114.197.3.197.558zm-2.303-9.29h-1.186c-.498 0-.87.038-1.116.114a1.545 1.545 0 0 0-.602.33 1.258 1.258 0 0 0-.339.518c-.07.203-.105.427-.105.673 0 .24.038.461.114.663.076.202.193.378.352.528.158.15.36.265.606.347.246.082.598.123 1.055.123h1.221zm-74.87 28.542a.252.252 0 0 1-.053.163.393.393 0 0 1-.189.11c-.09.029-.212.05-.364.065a6.4 6.4 0 0 1-.59.022c-.251 0-.455-.007-.61-.022a1.663 1.663 0 0 1-.374-.07.467.467 0 0 1-.21-.132.551.551 0 0 1-.106-.206l-.914-2.532a5.783 5.783 0 0 0-.404-.927 2.434 2.434 0 0 0-.466-.606 1.472 1.472 0 0 0-.58-.33 2.559 2.559 0 0 0-.73-.097h-.518v4.553a.252.252 0 0 1-.053.163.417.417 0 0 1-.185.114 1.477 1.477 0 0 1-.351.07 5.87 5.87 0 0 1-.563.022c-.222 0-.408-.007-.558-.022a1.488 1.488 0 0 1-.356-.07.454.454 0 0 1-.189-.114.24.24 0 0 1-.057-.163V36.225a.24.24 0 0 1 .057-.162.424.424 0 0 1 .19-.11 1.69 1.69 0 0 1 .355-.066c.15-.015.336-.022.558-.022.229 0 .416.007.563.022.146.015.263.036.351.066s.15.066.185.11a.252.252 0 0 1 .053.162v4.272h.518c.264 0 .495-.035.695-.106a1.5 1.5 0 0 0 .54-.334c.161-.152.308-.35.44-.593.131-.243.259-.543.382-.9l.764-2.269a.8.8 0 0 1 .106-.206.405.405 0 0 1 .198-.132c.09-.032.21-.055.36-.07.15-.015.35-.022.602-.022.229 0 .418.007.567.022.15.015.267.035.352.061.085.027.142.062.17.106a.28.28 0 0 1 .045.162c0 .077-.013.17-.04.282a4.478 4.478 0 0 1-.136.44l-.765 2.02c-.14.376-.28.695-.421.959a3.954 3.954 0 0 1-.444.672c-.156.185-.32.335-.492.453a2.586 2.586 0 0 1-.576.29v.009c.234.1.447.212.637.338.19.126.37.286.536.479.167.193.327.43.48.712.152.281.307.627.465 1.037l.932 2.356c.093.24.15.405.167.496.017.09.026.166.026.224zm12.433-5.511c0 .943-.117 1.787-.352 2.531-.234.744-.583 1.376-1.045 1.894a4.5 4.5 0 0 1-1.719 1.187c-.682.272-1.472.408-2.368.408-.885 0-1.657-.115-2.316-.347a4.014 4.014 0 0 1-1.648-1.059c-.44-.474-.77-1.078-.989-1.81-.22-.733-.33-1.6-.33-2.602 0-.92.118-1.748.352-2.483.234-.735.583-1.36 1.046-1.876a4.565 4.565 0 0 1 1.718-1.187c.683-.275 1.475-.413 2.378-.413.861 0 1.621.114 2.28.343.66.228 1.21.58 1.653 1.055.442.474.776 1.073 1.002 1.797.225.724.338 1.578.338 2.562zm-2.426.123c0-.598-.047-1.141-.14-1.63a3.506 3.506 0 0 0-.48-1.257 2.287 2.287 0 0 0-.9-.809c-.375-.19-.844-.285-1.407-.285-.568 0-1.043.107-1.423.32a2.62 2.62 0 0 0-.923.857 3.54 3.54 0 0 0-.497 1.253 7.628 7.628 0 0 0-.145 1.516c0 .62.047 1.179.14 1.674.095.495.253.919.475 1.27.223.352.522.62.897.804.375.185.847.277 1.415.277.568 0 1.043-.105 1.424-.316.38-.211.688-.498.923-.862.234-.363.4-.786.496-1.27.097-.483.145-.997.145-1.542zm18.116 5.379a.273.273 0 0 1-.048.158.34.34 0 0 1-.176.114 1.73 1.73 0 0 1-.338.07c-.141.018-.32.027-.537.027-.21 0-.386-.009-.527-.026a1.631 1.631 0 0 1-.334-.07.368.368 0 0 1-.176-.115.257.257 0 0 1-.052-.158v-9.255h-.018l-3.296 9.246a.426.426 0 0 1-.114.19.559.559 0 0 1-.215.118 1.43 1.43 0 0 1-.348.057 8.18 8.18 0 0 1-.51.013c-.199 0-.369-.007-.51-.022a1.532 1.532 0 0 1-.346-.07.647.647 0 0 1-.216-.119.34.34 0 0 1-.105-.167l-3.182-9.246h-.017v9.255a.273.273 0 0 1-.049.158c-.032.047-.092.085-.18.114-.088.03-.2.053-.338.07a4.345 4.345 0 0 1-.532.027c-.21 0-.387-.009-.527-.026a1.73 1.73 0 0 1-.339-.07.34.34 0 0 1-.175-.115.273.273 0 0 1-.049-.158V36.84c0-.299.08-.527.238-.686.158-.158.369-.237.632-.237h1.512c.27 0 .501.022.694.066s.36.117.501.22c.141.102.258.237.352.404.094.167.176.374.246.62l2.46 6.776h.036l2.549-6.759c.076-.246.16-.454.25-.624.091-.17.197-.307.317-.413.12-.105.262-.18.426-.224a2.22 2.22 0 0 1 .571-.066h1.556c.158 0 .295.02.409.062a.696.696 0 0 1 .448.47c.038.114.057.245.057.391zm11.86.017a.24.24 0 0 1-.053.154.39.39 0 0 1-.184.11 1.736 1.736 0 0 1-.356.066c-.15.014-.336.022-.558.022-.223 0-.409-.007-.558-.022a1.683 1.683 0 0 1-.356-.066.423.423 0 0 1-.19-.11.227.227 0 0 1-.056-.154v-9.15h-4.237v9.15c0 .059-.019.11-.057.154a.424.424 0 0 1-.189.11 1.72 1.72 0 0 1-.351.066 5.87 5.87 0 0 1-.563.022c-.223 0-.409-.007-.558-.022a1.683 1.683 0 0 1-.356-.066.39.39 0 0 1-.185-.11.239.239 0 0 1-.052-.154V36.646c0-.246.061-.43.184-.55a.674.674 0 0 1 .493-.18h7.514c.211 0 .375.06.492.18.117.12.176.304.176.55zm12.31-.562c.07.21.114.378.132.501.017.123-.006.215-.07.277-.065.061-.18.1-.343.114a13.943 13.943 0 0 1-1.376.009 1.744 1.744 0 0 1-.382-.053.349.349 0 0 1-.185-.11.6.6 0 0 1-.088-.184l-.764-2.285h-4.272l-.72 2.223a.708.708 0 0 1-.093.207c-.038.055-.1.1-.184.132a1.345 1.345 0 0 1-.36.065 8.48 8.48 0 0 1-.611.018c-.27 0-.48-.009-.633-.026-.153-.018-.258-.06-.317-.128-.058-.067-.079-.162-.061-.285.017-.123.061-.288.132-.493l3.506-10.09c.036-.1.077-.18.124-.241a.436.436 0 0 1 .224-.14 1.77 1.77 0 0 1 .426-.062c.182-.01.422-.014.72-.014.346 0 .622.004.827.014.205.009.365.029.479.061.114.032.196.08.246.145a.85.85 0 0 1 .127.264zm-5.22-8.34h-.01l-1.608 4.833h3.226zm16.18 8.885a.244.244 0 0 1-.057.158.4.4 0 0 1-.19.114c-.087.03-.204.053-.35.07a4.784 4.784 0 0 1-.554.027c-.229 0-.418-.009-.567-.026a1.753 1.753 0 0 1-.352-.07.4.4 0 0 1-.184-.115.244.244 0 0 1-.057-.158v-4.597h-4.254v4.597a.257.257 0 0 1-.053.158.37.37 0 0 1-.185.114c-.088.03-.205.053-.351.07a4.88 4.88 0 0 1-.563.027 4.95 4.95 0 0 1-.558-.026 1.853 1.853 0 0 1-.356-.07.401.401 0 0 1-.189-.115.244.244 0 0 1-.057-.158v-10.74a.25.25 0 0 1 .057-.158.401.401 0 0 1 .19-.114c.087-.03.206-.053.355-.07.15-.018.336-.027.558-.027.229 0 .416.009.563.026.146.018.263.041.351.07s.15.068.185.115.053.1.053.158v4.175h4.254v-4.175c0-.059.019-.111.057-.158a.4.4 0 0 1 .184-.114c.085-.03.202-.053.352-.07a5 5 0 0 1 .567-.027c.222 0 .407.009.553.026.147.018.264.041.352.07s.15.068.189.115c.038.047.057.1.057.158zm12.23.017c0 .059-.019.11-.057.154a.424.424 0 0 1-.19.11 1.711 1.711 0 0 1-.355.066c-.15.014-.335.022-.558.022-.223 0-.409-.007-.558-.022a1.599 1.599 0 0 1-.352-.066.387.387 0 0 1-.18-.11.239.239 0 0 1-.053-.154v-5.994a21.062 21.062 0 0 1 .036-1.257h-.018a19.818 19.818 0 0 1-.373.628 14.928 14.928 0 0 1-.48.734L164.148 47c-.046.064-.095.12-.145.167a.515.515 0 0 1-.193.11 1.208 1.208 0 0 1-.29.052 5.901 5.901 0 0 1-.444.014 5.45 5.45 0 0 1-.553-.022c-.141-.015-.251-.037-.33-.066s-.133-.068-.163-.115a.309.309 0 0 1-.044-.167V36.215c0-.058.02-.11.058-.153a.426.426 0 0 1 .193-.11c.09-.03.21-.051.356-.066.146-.015.33-.022.554-.022.228 0 .416.007.562.022.147.015.264.036.352.066s.149.066.184.11a.239.239 0 0 1 .053.153v6.03a21.073 21.073 0 0 1-.036 1.213h.018a19.473 19.473 0 0 1 .853-1.354l3.955-5.897a.982.982 0 0 1 .132-.154.555.555 0 0 1 .189-.11c.079-.03.177-.05.294-.062.117-.011.267-.017.448-.017.223 0 .403.007.54.022.138.015.248.036.33.066a.36.36 0 0 1 .172.11.268.268 0 0 1 .048.162zm10.84 0a.24.24 0 0 1-.053.154.388.388 0 0 1-.18.11 1.6 1.6 0 0 1-.351.066c-.15.014-.336.022-.559.022a5.74 5.74 0 0 1-.562-.022 1.76 1.76 0 0 1-.356-.066.392.392 0 0 1-.189-.11.239.239 0 0 1-.053-.154v-4.254h-.852c-.352 0-.62.035-.804.106-.185.07-.349.178-.493.325-.143.146-.27.33-.382.55-.111.219-.22.478-.325.777l-.861 2.46a.592.592 0 0 1-.115.181.515.515 0 0 1-.215.123 1.623 1.623 0 0 1-.382.066c-.159.012-.36.018-.607.018-.27 0-.482-.01-.637-.027a1.479 1.479 0 0 1-.356-.075c-.082-.032-.135-.068-.158-.11a.262.262 0 0 1-.035-.131c0-.059.01-.13.03-.216a3.54 3.54 0 0 1 .128-.382l.853-2.232c.11-.293.225-.548.342-.765.117-.217.248-.412.391-.584.144-.173.296-.318.457-.435.162-.118.339-.211.532-.282-.363-.1-.684-.23-.962-.39a2.56 2.56 0 0 1-.703-.59 2.395 2.395 0 0 1-.431-.8 3.318 3.318 0 0 1-.145-1.015c0-.515.09-.983.268-1.402.179-.418.444-.774.795-1.067.352-.293.79-.52 1.314-.682.525-.16 1.256-.241 2.193-.241h2.786a.71.71 0 0 1 .48.171c.131.114.197.3.197.558zm-2.303-9.29h-1.186c-.498 0-.87.038-1.116.114a1.545 1.545 0 0 0-.602.33 1.258 1.258 0 0 0-.339.518c-.07.203-.105.427-.105.673 0 .24.038.461.114.663.076.202.193.378.352.528.158.15.36.265.606.347.246.082.598.123 1.055.123h1.221z" style="text-align:center" fill="#d70b52"/><path d="M109.36 69.354a.251.251 0 0 1-.044.15.315.315 0 0 1-.158.1 1.481 1.481 0 0 1-.308.062 4.62 4.62 0 0 1-.5.022c-.2 0-.363-.007-.488-.022a1.574 1.574 0 0 1-.308-.062.347.347 0 0 1-.167-.1.234.234 0 0 1-.048-.15v-2.68H99.77v2.68a.235.235 0 0 1-.048.15.347.347 0 0 1-.167.1c-.08.027-.183.047-.312.062s-.293.022-.492.022-.364-.007-.492-.022a1.582 1.582 0 0 1-.312-.062.318.318 0 0 1-.163-.1.25.25 0 0 1-.044-.15v-4.087c-.012-.17.019-.291.092-.365.074-.073.183-.11.33-.11h.527c.14-.199.274-.404.4-.615.126-.21.248-.461.365-.751.117-.29.233-.636.347-1.037s.227-.892.338-1.473c.112-.58.225-1.267.339-2.06.114-.794.233-1.728.356-2.8.035-.263.102-.455.202-.575.1-.12.252-.18.457-.18h5.81c.205 0 .366.06.483.18.117.12.176.303.176.549v8.763h.967c.158 0 .27.042.334.127a.578.578 0 0 1 .096.356zm-3.7-12.19h-2.654c-.106.89-.21 1.674-.313 2.351-.102.677-.205 1.27-.307 1.78-.103.51-.207.95-.312 1.318-.106.37-.213.689-.32.958a4.807 4.807 0 0 1-.7 1.222h4.606zm12.58 8.604c0 .17-.007.312-.022.426a1.1 1.1 0 0 1-.066.277.353.353 0 0 1-.11.154.24.24 0 0 1-.145.048h-5.713a.718.718 0 0 1-.487-.171c-.132-.114-.198-.3-.198-.558V56.03c0-.258.066-.444.198-.558a.719.719 0 0 1 .487-.172h5.678c.053 0 .1.015.14.044a.33.33 0 0 1 .106.154c.03.073.051.167.066.281.015.114.022.26.022.435 0 .164-.007.303-.022.418-.015.114-.037.206-.066.277s-.064.121-.105.153a.22.22 0 0 1-.141.049h-4.06v2.777h3.436a.24.24 0 0 1 .145.048c.044.033.08.082.11.15.03.067.051.158.066.272.014.114.022.254.022.418 0 .17-.007.31-.022.422-.015.11-.037.2-.066.268a.322.322 0 0 1-.11.145.256.256 0 0 1-.145.044h-3.436v3.208h4.095a.24.24 0 0 1 .145.048c.044.032.08.083.11.154.03.07.051.162.066.276s.022.257.022.427zm10.12-9.519c0 .17-.007.315-.022.435s-.037.217-.066.29a.386.386 0 0 1-.11.163.227.227 0 0 1-.145.052h-2.847v9.167a.244.244 0 0 1-.057.159.4.4 0 0 1-.19.114c-.087.03-.206.053-.355.07-.15.018-.336.027-.559.027a4.95 4.95 0 0 1-.558-.027 1.853 1.853 0 0 1-.356-.07.401.401 0 0 1-.189-.114.244.244 0 0 1-.057-.159V57.19h-2.847a.222.222 0 0 1-.15-.052.41.41 0 0 1-.105-.163 1.183 1.183 0 0 1-.066-.29 3.655 3.655 0 0 1-.022-.435c0-.176.007-.325.022-.448s.037-.221.066-.295a.373.373 0 0 1 .105-.158.234.234 0 0 1 .15-.048h8.015a.24.24 0 0 1 .145.048.35.35 0 0 1 .11.158c.03.074.052.172.066.295.015.123.022.272.022.448zm9.73 8.701c0 .146-.004.271-.013.374-.01.102-.022.19-.04.263a.748.748 0 0 1-.07.19.926.926 0 0 1-.14.18 1.788 1.788 0 0 1-.374.259c-.185.105-.41.206-.677.303a6.016 6.016 0 0 1-2.026.338c-.78 0-1.482-.12-2.11-.36-.626-.24-1.16-.6-1.599-1.077-.44-.477-.776-1.074-1.01-1.788-.235-.715-.352-1.547-.352-2.497 0-.966.129-1.825.387-2.575.257-.75.618-1.38 1.08-1.89a4.526 4.526 0 0 1 1.666-1.16 5.623 5.623 0 0 1 2.14-.395c.317 0 .621.026.914.08.293.052.564.12.813.206.25.085.473.183.673.294a2 2 0 0 1 .417.286c.08.079.133.145.163.197a.76.76 0 0 1 .07.203c.018.082.03.178.04.29a5.837 5.837 0 0 1-.005.861 1.155 1.155 0 0 1-.061.299.41.41 0 0 1-.106.167.21.21 0 0 1-.14.052c-.088 0-.2-.05-.335-.153a5.447 5.447 0 0 0-.522-.343 4.258 4.258 0 0 0-.765-.343 3.246 3.246 0 0 0-1.06-.154c-.45 0-.853.093-1.208.277a2.59 2.59 0 0 0-.905.791 3.713 3.713 0 0 0-.567 1.244 6.423 6.423 0 0 0-.193 1.643c0 .668.069 1.247.206 1.736.138.49.334.892.59 1.209s.562.552.922.707c.36.156.766.233 1.217.233.41 0 .765-.048 1.064-.145.299-.097.555-.203.769-.32.214-.118.39-.223.527-.317.138-.094.245-.14.321-.14a.25.25 0 0 1 .14.034c.036.024.065.07.089.141.023.07.04.169.052.295.012.126.018.294.018.505zm10.58 1.415a.252.252 0 0 1-.053.163.393.393 0 0 1-.189.11c-.09.029-.212.05-.364.065a6.4 6.4 0 0 1-.59.022c-.251 0-.455-.007-.61-.022a1.663 1.663 0 0 1-.374-.07.466.466 0 0 1-.21-.132.551.551 0 0 1-.106-.206l-.914-2.532a5.782 5.782 0 0 0-.404-.927 2.434 2.434 0 0 0-.466-.606 1.472 1.472 0 0 0-.58-.33 2.559 2.559 0 0 0-.73-.097h-.518v4.553a.252.252 0 0 1-.053.163.416.416 0 0 1-.185.114 1.477 1.477 0 0 1-.351.07 5.87 5.87 0 0 1-.563.022c-.222 0-.408-.007-.558-.022a1.488 1.488 0 0 1-.356-.07.454.454 0 0 1-.189-.114.24.24 0 0 1-.057-.163V55.607a.24.24 0 0 1 .057-.162.424.424 0 0 1 .19-.11c.087-.03.206-.052.355-.066.15-.015.336-.022.558-.022.229 0 .416.007.563.022.146.015.263.036.351.066a.39.39 0 0 1 .185.11.252.252 0 0 1 .053.162v4.272h.518c.264 0 .495-.035.695-.106a1.5 1.5 0 0 0 .54-.334c.161-.152.308-.35.44-.593.131-.243.259-.543.382-.9l.764-2.269a.803.803 0 0 1 .106-.206.405.405 0 0 1 .198-.132c.09-.032.21-.056.36-.07.15-.015.35-.022.602-.022.229 0 .418.007.567.022.15.015.267.035.352.061.085.027.142.062.17.106a.28.28 0 0 1 .045.162c0 .077-.013.17-.04.282a4.477 4.477 0 0 1-.136.44l-.765 2.02c-.14.376-.28.695-.421.959a3.954 3.954 0 0 1-.444.672c-.156.185-.32.335-.492.453a2.586 2.586 0 0 1-.576.29v.009c.234.1.447.212.637.338.19.126.37.286.536.479.167.193.327.43.48.712.152.281.307.627.465 1.037l.932 2.356c.093.24.15.405.167.496.017.09.026.166.026.224zm11.46.009c0 .059-.02.11-.057.154a.424.424 0 0 1-.19.11 1.711 1.711 0 0 1-.355.066c-.15.014-.335.022-.558.022-.223 0-.409-.007-.558-.022a1.599 1.599 0 0 1-.352-.066.387.387 0 0 1-.18-.11.239.239 0 0 1-.053-.154V60.38a21.17 21.17 0 0 1 .036-1.257h-.018a19.912 19.912 0 0 1-.373.628 14.928 14.928 0 0 1-.48.734l-3.955 5.898c-.046.064-.095.12-.145.167a.515.515 0 0 1-.193.11 1.208 1.208 0 0 1-.29.052 5.901 5.901 0 0 1-.444.014 5.45 5.45 0 0 1-.553-.022c-.141-.015-.251-.037-.33-.066s-.133-.068-.163-.115a.309.309 0 0 1-.044-.167V55.598c0-.058.02-.11.058-.153a.426.426 0 0 1 .193-.11c.09-.03.21-.052.356-.066.146-.015.33-.022.554-.022.228 0 .416.007.562.022.147.015.264.036.352.066a.39.39 0 0 1 .184.11.239.239 0 0 1 .053.153v6.03a21.074 21.074 0 0 1-.036 1.213h.018a19.462 19.462 0 0 1 .853-1.354l3.955-5.897a.976.976 0 0 1 .132-.154.555.555 0 0 1 .189-.11c.079-.03.177-.05.294-.062.117-.011.267-.017.448-.017.223 0 .403.007.54.022.138.014.248.036.33.066.082.029.14.066.172.11a.268.268 0 0 1 .048.162zm11.09-.571c.105.205.174.37.207.492.032.123.013.217-.058.281-.07.065-.197.106-.382.123-.184.018-.44.027-.769.027-.275 0-.492-.006-.65-.018a1.907 1.907 0 0 1-.374-.057.409.409 0 0 1-.198-.11.636.636 0 0 1-.105-.175l-2.136-4.105-2.127 4.105a.83.83 0 0 1-.114.175.408.408 0 0 1-.198.11c-.09.027-.217.046-.378.057s-.373.018-.637.018c-.305 0-.54-.01-.708-.027-.167-.017-.28-.058-.338-.123-.059-.064-.07-.158-.035-.28.035-.124.108-.288.22-.493l2.724-4.966-2.53-4.667a3.44 3.44 0 0 1-.216-.505c-.038-.126-.024-.22.044-.281.067-.062.192-.1.373-.115.182-.014.44-.022.774-.022.275 0 .493.006.654.018.162.012.289.03.383.057.093.026.16.063.198.11a.96.96 0 0 1 .11.176l1.994 3.761 1.943-3.761a.964.964 0 0 1 .11-.176.373.373 0 0 1 .184-.11c.085-.026.202-.045.352-.057.15-.012.356-.018.62-.018.292 0 .524.007.694.022.17.015.287.055.351.119.065.064.081.158.049.281-.033.123-.098.29-.198.501l-2.531 4.64zm-66.17 9.706c0 .17-.007.315-.022.435s-.037.217-.066.29a.386.386 0 0 1-.11.163.226.226 0 0 1-.145.052h-2.847v9.167a.244.244 0 0 1-.057.159.4.4 0 0 1-.19.114c-.087.03-.206.053-.355.07-.15.018-.336.027-.559.027a4.95 4.95 0 0 1-.558-.027 1.853 1.853 0 0 1-.356-.07.401.401 0 0 1-.189-.114.244.244 0 0 1-.057-.159V76.45h-2.847a.222.222 0 0 1-.15-.052.41.41 0 0 1-.105-.163 1.183 1.183 0 0 1-.066-.29 3.676 3.676 0 0 1-.022-.435c0-.176.007-.325.022-.448s.037-.221.066-.295a.373.373 0 0 1 .105-.158.234.234 0 0 1 .15-.048h8.015a.24.24 0 0 1 .145.048.35.35 0 0 1 .11.158c.03.074.052.172.066.295.015.123.022.272.022.448zm12.09 4.606c0 .943-.117 1.787-.352 2.531-.234.744-.583 1.376-1.045 1.894a4.5 4.5 0 0 1-1.719 1.187c-.682.272-1.472.408-2.368.408-.885 0-1.657-.115-2.316-.347a4.015 4.015 0 0 1-1.648-1.059c-.44-.474-.77-1.078-.99-1.81-.219-.733-.329-1.6-.329-2.602 0-.92.117-1.748.352-2.483.234-.735.583-1.36 1.046-1.876a4.565 4.565 0 0 1 1.718-1.187c.683-.275 1.475-.413 2.377-.413.862 0 1.622.114 2.281.343.66.228 1.21.58 1.653 1.055.442.474.776 1.073 1.002 1.797.225.724.338 1.578.338 2.562zm-2.426.123c0-.598-.047-1.141-.14-1.63a3.506 3.506 0 0 0-.48-1.257 2.286 2.286 0 0 0-.9-.809c-.375-.19-.844-.285-1.407-.285-.568 0-1.043.107-1.423.32a2.62 2.62 0 0 0-.923.857 3.54 3.54 0 0 0-.497 1.253 7.629 7.629 0 0 0-.145 1.516c0 .62.047 1.18.14 1.674.095.495.253.919.475 1.27.223.352.522.62.897.804.375.185.847.277 1.415.277.568 0 1.043-.105 1.424-.316.38-.211.688-.498.923-.862.234-.363.4-.786.496-1.27.097-.483.145-.997.145-1.542zm13.096 2.285c0 .404-.056.77-.167 1.099a2.94 2.94 0 0 1-.461.87 2.99 2.99 0 0 1-.704.65 4.106 4.106 0 0 1-.9.448 5.564 5.564 0 0 1-1.05.26 8.444 8.444 0 0 1-1.244.083h-3.024a.718.718 0 0 1-.488-.171c-.131-.115-.197-.3-.197-.558V75.29c0-.258.066-.444.197-.559a.719.719 0 0 1 .488-.17h2.857c.697 0 1.287.058 1.77.175.484.117.891.294 1.222.532.331.237.585.537.76.9.176.364.264.791.264 1.284 0 .275-.035.534-.105.777a2.288 2.288 0 0 1-.804 1.19c-.197.154-.42.277-.673.37.323.06.62.162.892.308.273.147.51.336.712.567.202.231.362.502.48.813.116.31.175.66.175 1.046zm-2.988-4.79c0-.229-.035-.434-.106-.615a1.112 1.112 0 0 0-.316-.453 1.452 1.452 0 0 0-.532-.277c-.214-.064-.5-.096-.857-.096h-1.169v2.953h1.292c.334 0 .6-.04.8-.119.2-.08.365-.187.497-.325.131-.138.23-.299.294-.484.064-.184.097-.379.097-.584zm.589 4.87c0-.265-.044-.5-.132-.708a1.35 1.35 0 0 0-.387-.523 1.783 1.783 0 0 0-.65-.326c-.264-.076-.607-.114-1.029-.114h-1.37v3.235h1.67c.321 0 .592-.034.812-.101.22-.068.41-.167.571-.3.162-.131.288-.295.378-.492.091-.196.137-.42.137-.672zm14.069 2.469c.07.21.114.378.132.501.017.123-.006.215-.07.277-.065.061-.18.1-.343.114a13.943 13.943 0 0 1-1.376.009 1.744 1.744 0 0 1-.382-.053.349.349 0 0 1-.185-.11.6.6 0 0 1-.088-.184l-.764-2.285h-4.272l-.72 2.223a.708.708 0 0 1-.093.207c-.038.055-.1.1-.184.132a1.345 1.345 0 0 1-.36.065 8.48 8.48 0 0 1-.611.018c-.27 0-.48-.009-.633-.026-.153-.018-.258-.06-.317-.128-.058-.067-.079-.162-.061-.285.017-.123.061-.288.132-.493l3.506-10.09c.036-.1.077-.18.124-.241a.436.436 0 0 1 .224-.141 1.77 1.77 0 0 1 .426-.061c.182-.01.422-.014.72-.014.346 0 .622.004.827.014.205.009.365.029.479.061.114.032.196.08.246.145a.85.85 0 0 1 .127.264zm-5.22-8.34h-.01l-1.608 4.833h3.226zm15.09 1.282c0 .639-.1 1.204-.299 1.696-.199.492-.49.907-.87 1.244-.38.337-.848.593-1.402.769-.554.176-1.205.264-1.955.264h-.95v3.63a.244.244 0 0 1-.057.158.4.4 0 0 1-.189.114c-.088.03-.205.053-.351.07a4.88 4.88 0 0 1-.563.027 4.95 4.95 0 0 1-.558-.027 1.853 1.853 0 0 1-.356-.07.37.37 0 0 1-.184-.114.257.257 0 0 1-.053-.158v-10.23c0-.276.072-.482.215-.62a.785.785 0 0 1 .567-.207h2.68c.27 0 .527.01.77.031.243.02.535.065.874.132.34.067.684.192 1.033.374.349.181.646.411.892.69.246.278.434.603.563.975.129.372.193.79.193 1.252zm-2.417.167c0-.398-.07-.727-.21-.984a1.457 1.457 0 0 0-.52-.572c-.205-.123-.42-.2-.645-.233a4.94 4.94 0 0 0-.7-.048h-.984v3.859h1.038c.369 0 .678-.05.927-.15.249-.1.452-.239.61-.417.159-.18.279-.393.36-.642.083-.249.124-.52.124-.813zm14.957 1.934c0 .943-.117 1.787-.352 2.531-.234.744-.583 1.376-1.045 1.894a4.5 4.5 0 0 1-1.719 1.187c-.682.272-1.472.408-2.368.408-.885 0-1.657-.115-2.316-.347a4.015 4.015 0 0 1-1.648-1.059c-.44-.474-.77-1.078-.99-1.81-.219-.733-.329-1.6-.329-2.602 0-.92.117-1.748.352-2.483.234-.735.583-1.36 1.046-1.876a4.565 4.565 0 0 1 1.718-1.187c.683-.275 1.475-.413 2.377-.413.862 0 1.622.114 2.281.343.66.228 1.21.58 1.653 1.055.442.474.776 1.073 1.002 1.797.225.724.338 1.578.338 2.562zm-2.426.123c0-.598-.047-1.141-.14-1.63a3.506 3.506 0 0 0-.48-1.257 2.286 2.286 0 0 0-.9-.809c-.375-.19-.844-.285-1.407-.285-.568 0-1.043.107-1.423.32a2.62 2.62 0 0 0-.923.857 3.54 3.54 0 0 0-.497 1.253 7.629 7.629 0 0 0-.145 1.516c0 .62.047 1.18.14 1.674.095.495.253.919.475 1.27.223.352.522.62.897.804.375.185.847.277 1.415.277.568 0 1.043-.105 1.424-.316.38-.211.688-.498.923-.862.234-.363.4-.786.496-1.27.097-.483.145-.997.145-1.542zm13.096 2.285c0 .404-.056.77-.167 1.099a2.94 2.94 0 0 1-.461.87 2.99 2.99 0 0 1-.704.65 4.106 4.106 0 0 1-.9.448 5.564 5.564 0 0 1-1.05.26 8.444 8.444 0 0 1-1.244.083h-3.024a.718.718 0 0 1-.488-.171c-.131-.115-.197-.3-.197-.558V75.29c0-.258.066-.444.197-.559a.719.719 0 0 1 .488-.17h2.857c.697 0 1.287.058 1.77.175.484.117.891.294 1.222.532.331.237.585.537.76.9.176.364.264.791.264 1.284 0 .275-.035.534-.105.777a2.288 2.288 0 0 1-.804 1.19c-.197.154-.42.277-.673.37.323.06.62.162.892.308.273.147.51.336.712.567.202.231.362.502.48.813.116.31.175.66.175 1.046zm-2.988-4.79c0-.229-.036-.434-.106-.615a1.112 1.112 0 0 0-.316-.453 1.452 1.452 0 0 0-.532-.277c-.214-.064-.5-.096-.857-.096h-1.169v2.953h1.292c.334 0 .6-.04.8-.119.2-.08.365-.187.497-.325.131-.138.23-.299.294-.484.064-.184.097-.379.097-.584zm.589 4.87c0-.265-.044-.5-.132-.708a1.35 1.35 0 0 0-.387-.523 1.783 1.783 0 0 0-.65-.326c-.264-.076-.607-.114-1.029-.114h-1.37v3.235h1.67c.321 0 .592-.034.812-.101.22-.068.41-.167.571-.3.162-.131.288-.295.378-.492.091-.196.137-.42.137-.672z" style="text-align:center" fill="#1d71b9"/></svg>