<svg xmlns="http://www.w3.org/2000/svg" viewBox="0 0 60 64"><path d="M30.333 10.358c-9.473 0-17.014 7.662-17.014 17.134 0 5.166 2.891 10.141 7.21 14.45 2.579 2.573 4.06 4.787 3.921 8.971 1.854 0 10.85-.09 12.036-.09 0-3.071 1.238-6.713 2.957-8.459 4.694-4.766 8.054-8.849 8.054-14.872 0-9.472-7.692-17.134-17.165-17.134zm-6.121 44.569h12.501m-11.301 4.041h9.912m-8.776 3.914h7.702m15.468-46.029l4.23-3.41M41.195 8.014l3.094-4.104m-13.89 1.62V.06M19.603 8.077l-3.409-4.483M11.08 16.537l-4.42-3.283m12.628 19.13c-.884-1.263-1.263-3.915-.884-5.619m.648-3.719c2.08-5.623 6.86-8.104 11.915-8.214" stroke="#eec130" stroke-width="2" fill="none"/><path d="M28.392 46.463c0-8.398-.16-15.276-4.639-20.795 3.28 2.64 4.959 2.56 6.638.16 1.84 2.4 4 2.4 6.879-.08-2.72 3.759-4.959 8.558-4.959 20.875" stroke="#eec130" stroke-width="2" fill="none"/></svg>