<svg xmlns="http://www.w3.org/2000/svg" viewBox="0 0 217 41"><path d="M9.935 18.793c-.677-.058-1.096-.412-1.257-1.063-.16-.651-.227-1.253-.2-1.804-.033-3.96.445-6.59 1.434-7.89.989-1.3 2.548-1.896 4.676-1.792 1.332-.017 2.534.287 3.608.91 1.073.625 1.64 1.668 1.703 3.132-.093 1.466-.836 2.842-2.228 4.127s-2.873 2.33-4.442 3.135c-1.57.805-2.667 1.22-3.293 1.245zM4.108.698c-.21-.065-.492.012-.844.23-.352.22-.711.969-1.077 2.25-.367 1.28-.676 3.48-.928 6.601S.875 17.33.865 23.07c.01 5.755.146 9.812.409 12.171.262 2.36.59 3.739.983 4.14.393.4.79.54 1.193.42h5.452c.274.027.607.033.998.019.392-.015.607-.209.647-.582-.022-.165-.172-.843-.451-2.033-.28-1.19-.559-2.56-.838-4.112-.279-1.55-.429-2.949-.45-4.195.113-1.341.744-2.43 1.891-3.266 1.148-.836 2.13-1.267 2.95-1.293.938.085 1.902.976 2.893 2.67.99 1.696 1.829 3.686 2.517 5.971.687 2.286 1.046 4.356 1.075 6.211.044.355.322.55.835.588a12.56 12.56 0 0 0 1.468.024h5.311c.481.01.8-.03.958-.112.158-.081.23-.248.217-.5-.104-3.696-.835-6.846-2.193-9.45-1.358-2.603-2.716-4.664-4.073-6.181-1.358-1.517-2.09-2.495-2.194-2.933.087-.413.697-1.013 1.828-1.802 1.132-.788 2.263-1.921 3.395-3.4 1.131-1.477 1.74-3.456 1.827-5.937.09-2.114-.642-4.078-2.197-5.892C23.761 1.78 20.843.816 16.563.699zm48.318 0a6.622 6.622 0 0 0-1.052.024c-.441.037-.686.234-.734.588.096.329.48 1.798 1.152 4.406.671 2.609 1.055 6.92 1.151 12.936-.048 4.22-.516 7.294-1.403 9.22-.887 1.927-1.905 3.138-3.053 3.634s-2.138.707-2.97.635c-1.49.085-2.94-.908-4.353-2.979s-2.171-5.73-2.274-10.98c.098-5.364.49-9.393 1.175-12.085.686-2.691 1.077-4.287 1.175-4.788-.013-.292-.127-.47-.34-.534a2.03 2.03 0 0 0-.694-.076h-6.533c-.367-.15-.843 1.126-1.427 3.83-.585 2.705-.908 7.741-.97 15.11.041 7.018 1.31 12.252 3.807 15.704s5.975 5.173 10.434 5.164c4.996-.059 8.635-2.02 10.916-5.886 2.282-3.866 3.406-9.283 3.373-16.25-.017-5.545-.187-9.579-.51-12.101-.324-2.523-.7-4.106-1.127-4.749-.427-.643-.806-.917-1.136-.822zm31.905 9.87c.732-.15 1.524-.918 2.373-2.303.85-1.384 1.313-2.481 1.387-3.29-.06-.804-1.15-1.804-3.272-3.002C82.697.776 79.902.116 76.435-.007c-3.154.06-5.624.688-7.408 1.889s-3.04 2.62-3.764 4.26c-.724 1.639-1.073 3.146-1.048 4.52-.05 1.345.175 2.723.674 4.136.499 1.413 1.57 2.78 3.212 4.105s4.154 2.525 7.535 3.603c1.483.393 2.983 1.017 4.5 1.874 1.518.857 2.337 2.128 2.456 3.813-.055 1.46-.72 2.57-1.997 3.325s-2.836 1.136-4.677 1.14c-3.29-.118-5.602-.943-6.933-2.474-1.331-1.531-2.145-3.062-2.442-4.594-.297-1.53-.54-2.355-.73-2.473-.325.015-.861.573-1.61 1.674-.747 1.102-1.167 2.659-1.257 4.67.143 3.73 1.55 6.505 4.219 8.326 2.669 1.82 5.743 2.726 9.223 2.72 3.293-.05 5.956-.698 7.99-1.945s3.517-2.797 4.45-4.65c.932-1.852 1.391-3.712 1.378-5.578.122-2.269-.626-4.5-2.244-6.692-1.618-2.192-4.833-4.129-9.647-5.81-1.432-.412-2.962-1.033-4.588-1.862-1.626-.83-2.51-2.073-2.65-3.73.077-1.356.676-2.347 1.798-2.974a7.1 7.1 0 0 1 3.56-.928c1.615.052 2.934.418 3.959 1.097s1.842 1.357 2.454 2.036c.612.68 1.106 1.045 1.483 1.097zm26.529 29.234c3.809-.09 6.52-1.026 8.13-2.808 1.613-1.782 2.396-3.87 2.35-6.263-.093-2.682-.746-4.927-1.96-6.737-1.215-1.809-2.43-3.26-3.644-4.355-1.215-1.094-1.869-1.908-1.962-2.444.066-.482.53-1.147 1.39-1.996.859-.85 1.719-1.905 2.579-3.167.86-1.261 1.323-2.752 1.389-4.472.12-1.601-.438-3.121-1.675-4.559-1.236-1.437-3.874-2.205-7.913-2.302H97.371c-.21-.065-.492.012-.844.23-.352.219-.711.968-1.077 2.249-.366 1.28-.675 3.48-.928 6.602-.252 3.12-.383 7.55-.394 13.29.01 5.756.147 9.813.41 12.172.262 2.359.59 3.738.983 4.139.393.4.79.541 1.192.421zm-4.512-18.236c.27-.157.588-.325.952-.505s.705-.278 1.022-.294c.78.126 1.84 1.049 3.178 2.767s2.081 3.475 2.227 5.27c-.073 1.811-.785 3.1-2.139 3.866s-2.912 1.137-4.676 1.116c-1.921.111-3.343-.335-4.265-1.34-.923-1.004-1.38-3.237-1.375-6.697.005-.74.183-1.269.535-1.586.351-.318.847-.635 1.486-.952zm-1.598-4.84c-.4.268-.846.505-1.34.71-.493.205-.892.312-1.198.323-.627-.03-.995-.274-1.104-.728a4.801 4.801 0 0 1-.118-1.434c-.009-3.597.538-6.073 1.64-7.426 1.1-1.353 2.81-1.995 5.128-1.927.938-.024 1.788.165 2.55.564.761.4 1.165 1.152 1.21 2.256-.054.999-.44 1.986-1.158 2.961-.717.975-1.444 1.727-2.18 2.256zm45.97 23.076c.486.093.992.048 1.516-.136.525-.183.97-1.064 1.339-2.642.368-1.578.56-4.412.576-8.502-.14-7.218-1.207-12.914-3.201-17.089-1.994-4.175-4.074-7.138-6.24-8.89-2.167-1.752-3.579-2.602-4.236-2.55-.584 0-1.71.588-3.377 1.776-1.666 1.187-3.47 2.992-5.412 5.415-1.941 2.423-3.616 5.485-5.024 9.187-1.409 3.702-2.146 8.065-2.214 13.09-.022 3.105.187 5.592.629 7.462.441 1.87 1.25 2.83 2.426 2.879h6.721c.305 0 .53-.016.676-.06.146-.042.218-.132.217-.27-.127-.426-.636-1.453-1.527-3.078s-1.4-3.404-1.528-5.334c.058-1.763.7-3.084 1.925-3.966s2.69-1.465 4.39-1.75c1.701-.287 3.293-.418 4.777-.394 1.097-.011 2.051.21 2.861.664.81.453 1.235 1.203 1.275 2.25-.15 2.735-.754 5.136-1.81 7.202-1.055 2.066-1.658 3.457-1.81 4.171.049.332.294.515.735.547a7.43 7.43 0 0 0 1.052.018zM140.67 8.03c.627.058 1.347.621 2.159 1.692.811 1.07 1.524 2.303 2.137 3.697.613 1.395.936 2.606.968 3.635.003.64-.191 1.063-.582 1.269-.39.206-.996.3-1.815.282-2.154.05-4.156.254-6.004.61-1.849.357-3.028.56-3.537.612-.284 0-.503-.08-.658-.235-.155-.155-.233-.374-.235-.658.046-1.215.512-2.665 1.398-4.352.885-1.686 1.912-3.182 3.08-4.487s2.197-1.994 3.089-2.065zm34.08 31.772c3.809-.09 6.52-1.026 8.13-2.808 1.613-1.782 2.396-3.87 2.35-6.263-.092-2.682-.746-4.927-1.96-6.737-1.215-1.809-2.43-3.26-3.644-4.355-1.215-1.094-1.869-1.908-1.962-2.444.066-.482.53-1.147 1.39-1.996.859-.85 1.719-1.905 2.579-3.167.86-1.261 1.323-2.752 1.389-4.472.12-1.601-.438-3.121-1.674-4.559C180.11 1.564 177.473.796 173.434.7h-12.173c-.21-.065-.492.012-.844.23-.352.219-.71.968-1.077 2.249-.366 1.28-.675 3.48-.927 6.602-.253 3.12-.384 7.55-.395 13.29.01 5.756.147 9.813.41 12.172.262 2.359.59 3.738.983 4.139.393.4.79.541 1.192.421zm-4.512-18.236c.27-.157.588-.325.952-.505s.705-.278 1.022-.294c.78.126 1.84 1.049 3.178 2.767s2.081 3.475 2.227 5.27c-.073 1.811-.785 3.1-2.139 3.866s-2.912 1.137-4.676 1.116c-1.921.111-3.343-.335-4.265-1.34-.923-1.004-1.38-3.237-1.375-6.697.005-.74.183-1.269.535-1.586.351-.318.847-.635 1.486-.952zm-1.598-4.84c-.4.268-.846.505-1.34.71-.493.205-.892.312-1.198.323-.627-.03-.995-.274-1.104-.728s-.15-.933-.118-1.434c-.009-3.597.538-6.073 1.64-7.426 1.1-1.353 2.81-1.995 5.128-1.927.938-.024 1.788.165 2.55.564.761.4 1.165 1.152 1.21 2.256-.054.999-.44 1.986-1.157 2.961-.718.975-1.445 1.727-2.18 2.256zM210.52.698a6.306 6.306 0 0 0-1.187.03c-.425.047-.656.304-.693.77.018.23.088.731.212 1.503.123.772.193 1.555.211 2.35-.058 1.921-.538 3.875-1.44 5.861-.902 1.986-1.88 3.661-2.933 5.025s-1.836 2.076-2.348 2.133c-.518-.033-1.247-.64-2.186-1.82-.94-1.181-1.8-2.735-2.583-4.663-.783-1.927-1.199-4.027-1.247-6.301.018-.479.088-1.143.212-1.992.123-.849.194-1.407.211-1.674-.056-.627-.39-.995-1.004-1.104a7.08 7.08 0 0 0-1.675-.118h-3.76c-1.04-.07-1.767.083-2.18.464-.412.381-.61 1.417-.593 3.108.132 4.156 1.059 7.735 2.778 10.738 1.72 3.003 3.44 5.406 5.16 7.208s2.646 2.98 2.778 3.532c-.131.819-.656 2.201-1.574 4.148-.919 1.946-1.444 4.34-1.575 7.18-.018.524.066 1.096.253 1.715.187.618.588.955 1.204 1.01h5.452c.399.024.847 0 1.345-.076.499-.075.771-.348.817-.817a10.7 10.7 0 0 0-.141-1.486 10.84 10.84 0 0 1-.141-1.522c.065-3.651.71-6.75 1.939-9.294 1.228-2.545 2.65-4.905 4.265-7.079s3.037-4.53 4.265-7.07c1.228-2.539 1.874-5.628 1.939-9.268.023-.906-.118-1.55-.423-1.933-.306-.383-.917-.569-1.833-.558z" fill="#eec130"/></svg>