<svg xmlns="http://www.w3.org/2000/svg" viewBox="0 0 32 32"><path d="M2.431 20.368h25.417c3.24 3.72 3.513 7.912 3.513 7.912h-5.84m-5.718 0h-8.838m-5.998 0H2.43V7.094" stroke="#d60a52" stroke-opacity=".953" fill="none"/><path d="M14.485 7.014v13.317m-2.643 5.838a3.76 3.76 0 1 1-7.518 0 3.76 3.76 0 1 1 7.518 0zm14.557 0a3.76 3.76 0 1 1-7.518 0 3.76 3.76 0 1 1 7.518 0z" stroke-opacity=".996" stroke="#d60a52" fill="none"/><rect rx="1.08" ry="1.08" height="4.719" width="5.878" y="9.414" x="5.567" stroke-opacity=".996" stroke="#d60a52" fill="none"/><rect rx="1.08" ry="1.08" height="3.959" width="7.918" y="3.375" x="18.524" stroke-opacity=".996" stroke="#d60a52" fill="none"/><path d="M16.302 3.357v1.035c0 1.876-.924 2.52-2.52 2.52H3.07c-1.676 0-2.52-.764-2.52-2.52V3.357z" stroke="#d60a52" stroke-opacity=".996" fill="none"/><path d="M20.363 7.334v4m4.119-4v4m-9.917.039h10.997s2.92 1.08 2.92 4.439-2.84 4.519-2.84 4.519" stroke="#d60a52" fill="none"/></svg>