<?xml version="1.0" encoding="UTF-8"?>
<svg width="512px" height="512px" viewBox="0 0 512 512" version="1.1" xmlns="http://www.w3.org/2000/svg" xmlns:xlink="http://www.w3.org/1999/xlink">
    <!-- Generator: Sketch 51.2 (57519) - http://www.bohemiancoding.com/sketch -->
    <title>icon-1</title>
    <desc>Created with Sketch.</desc>
    <defs>
        <linearGradient x1="50%" y1="0.1953125%" x2="50%" y2="99%" id="linearGradient-1">
            <stop stop-color="#BCD352" offset="0%"></stop>
            <stop stop-color="#63955B" offset="100%"></stop>
        </linearGradient>
    </defs>
    <g id="Page-1" stroke="none" stroke-width="1" fill="none" fill-rule="evenodd">
        <g id="Artboard" transform="translate(-441.000000, -559.000000)" fill="url(#linearGradient-1)" fill-rule="nonzero">
            <g id="icon-1" transform="translate(441.000000, 559.000000)">
                <path d="M264,464 L264,454.864 C277.768,451.288 288,438.872 288,424 C288,409.128 277.768,396.712 264,393.136 L264,384 C264,379.576 260.424,376 256,376 C251.576,376 248,379.576 248,384 L248,393.136 C234.232,396.712 224,409.128 224,424 C224,438.872 234.232,451.288 248,454.864 L248,464 C248,468.424 251.576,472 256,472 C260.424,472 264,468.424 264,464 Z M240,424 C240,415.176 247.176,408 256,408 C264.824,408 272,415.176 272,424 C272,432.824 264.824,440 256,440 C247.176,440 240,432.824 240,424 Z M504,496 L456,496 L456,477.848 C466.536,471.784 472,453.808 472,436 C472,414.136 463.76,392 448,392 C432.24,392 424,414.136 424,436 C424,453.8 429.464,471.776 440,477.848 L440,496 L295.736,496 C366.768,447.72 456,297.56 456,208 C456,143.272 424.976,81.144 372.992,41.744 C341.36,15.208 298.728,0 256,0 C215.472,0 175.064,14.392 139.168,41.616 C87.096,81.008 56,143.2 56,208 C56,267.368 92.76,345.576 127.168,398.976 C156.376,444.312 186.632,477.808 213.816,496 L72,496 L72,477.848 C82.536,471.784 88,453.808 88,436 C88,414.136 79.76,392 64,392 C48.24,392 40,414.136 40,436 C40,453.8 45.464,471.776 56,477.848 L56,496 L8,496 C3.576,496 0,499.576 0,504 C0,508.424 3.576,512 8,512 L504,512 C508.424,512 512,508.424 512,504 C512,499.576 508.424,496 504,496 Z M448,408.048 C450.36,409.176 456,418.848 456,436 C456,453.568 450.088,463.288 448.168,464.024 C445.912,463.288 440,453.568 440,436 C440,418.84 445.64,409.168 448,408.048 Z M72,208 C72,148.184 100.72,90.768 148.832,54.376 C181.928,29.264 218.984,16 256,16 C295.096,16 334.04,29.896 362.848,54.128 C362.952,54.216 363.056,54.296 363.168,54.384 C411.28,90.768 440,148.184 440,208 C440,297.096 322.296,495.536 255.504,495.536 C192.048,495.536 72,307.432 72,208 Z M64,408.048 C66.36,409.176 72,418.848 72,436 C72,453.568 66.088,463.288 64.168,464.024 C61.912,463.288 56,453.568 56,436 C56,418.84 61.64,409.168 64,408.048 Z M408,200.92 C408,117.616 339.816,49.84 256,49.84 C172.184,49.84 104,117.616 104,200.92 C104,284.224 172.184,352 256,352 C339.816,352 408,284.224 408,200.92 Z M120,200.92 C120,126.44 181.008,65.84 256,65.84 C330.992,65.84 392,126.432 392,200.92 C392,275.408 330.992,336 256,336 C181.008,336 120,275.408 120,200.92 Z M336,288 C340.424,288 344,284.424 344,280 C344,275.576 340.424,272 336,272 L320,272 L320,192 C320,187.576 316.424,184 312,184 C307.576,184 304,187.576 304,192 L304,272 L288,272 L288,216 C288,202.768 277.232,192 264,192 L248,192 C234.768,192 224,202.768 224,216 L224,272 L208,272 L208,192 C208,187.576 204.424,184 200,184 C195.576,184 192,187.576 192,192 L192,272 L176,272 C171.576,272 168,275.576 168,280 C168,284.424 171.576,288 176,288 L336,288 Z M240,216 C240,211.584 243.584,208 248,208 L264,208 C268.416,208 272,211.584 272,216 L272,272 L240,272 L240,216 Z M248,160 L264,160 C268.424,160 272,163.576 272,168 C272,172.424 268.424,176 264,176 L248,176 C243.576,176 240,172.424 240,168 C240,163.576 243.576,160 248,160 Z M176,192 C171.576,192 168,188.424 168,184 L168,168 C168,165.184 169.48,162.584 171.888,161.144 L251.888,113.144 C254.416,111.632 257.592,111.632 260.12,113.144 L340.12,161.144 C342.52,162.584 344,165.184 344,168 L344,184 C344,188.424 340.424,192 336,192 C331.576,192 328,188.424 328,184 L328,172.528 L256,129.328 L184,172.528 L184,184 C184,188.424 180.424,192 176,192 Z" id="Shape"></path>
            </g>
        </g>
    </g>
</svg>