<?xml version="1.0" encoding="UTF-8"?>
<svg width="512px" height="512px" viewBox="0 0 512 512" version="1.1" xmlns="http://www.w3.org/2000/svg" xmlns:xlink="http://www.w3.org/1999/xlink">
    <!-- Generator: Sketch 51.2 (57519) - http://www.bohemiancoding.com/sketch -->
    <title>icon-3</title>
    <desc>Created with Sketch.</desc>
    <defs>
        <linearGradient x1="50%" y1="0.1953125%" x2="50%" y2="99%" id="linearGradient-1">
            <stop stop-color="#BCD352" offset="0%"></stop>
            <stop stop-color="#63955B" offset="100%"></stop>
        </linearGradient>
    </defs>
    <g id="Page-1" stroke="none" stroke-width="1" fill="none" fill-rule="evenodd">
        <g id="Artboard" transform="translate(-890.000000, 0.000000)" fill="url(#linearGradient-1)" fill-rule="nonzero">
            <g id="icon-3" transform="translate(890.000000, 0.000000)">
                <path d="M424,384 L392,384 C378.768,384 368,394.768 368,408 L368,440 C368,444.424 371.584,448 376,448 L440,448 C444.416,448 448,444.424 448,440 L448,408 C448,394.768 437.232,384 424,384 Z M432,432 L384,432 L384,408 C384,403.584 387.592,400 392,400 L424,400 C428.408,400 432,403.584 432,408 L432,432 Z M504,0 L8,0 C3.584,0 0,3.576 0,8 L0,504 C0,508.424 3.584,512 8,512 L504,512 C508.416,512 512,508.424 512,504 L512,8 C512,3.576 508.416,0 504,0 Z M496,496 L16,496 L16,16 L496,16 L496,496 Z M72,448 L192,448 C196.416,448 200,444.424 200,440 L200,424 L328,424 C341.232,424 352,413.232 352,400 L352,368 L440,368 C444.416,368 448,364.424 448,360 L448,72 C448,67.576 444.416,64 440,64 L72,64 C67.584,64 64,67.576 64,72 L64,440 C64,444.424 67.584,448 72,448 Z M184,432 L80,432 L80,352 L112,352 C116.416,352 120,348.424 120,344 C120,339.576 116.416,336 112,336 L80,336 L80,232 L136,232 L136,240 C136,268.152 156.904,291.456 184,295.36 L184,432 Z M248,216 L216,216 L216,208 C216,188.68 229.768,172.52 248,168.808 L248,216 Z M184,279.192 C165.768,275.472 152,259.32 152,240 L152,232 L184,232 L184,279.192 Z M336,400 C336,404.416 332.408,408 328,408 L200,408 L200,368 L336,368 L336,400 Z M432,352 L200,352 L200,232 L208,232 L280,232 L280,240 C280,270.872 305.12,296 336,296 C340.416,296 344,292.424 344,288 L344,232 L432,232 L432,352 Z M296,232 L328,232 L328,279.192 C309.768,275.472 296,259.32 296,240 L296,232 Z M432,216 L368,216 L368,192 C368,187.576 364.416,184 360,184 C355.584,184 352,187.576 352,192 L352,216 L336,216 L288,216 L264,216 L264,160 L264,80 L352,80 L352,144 C352,148.424 355.584,152 360,152 C364.416,152 368,148.424 368,144 L368,80 L432,80 L432,216 Z M80,80 L144,80 L144,112 C144,116.424 147.584,120 152,120 C156.416,120 160,116.424 160,112 L160,80 L248,80 L248,152.64 C220.904,156.544 200,179.848 200,208 L200,216 L192,216 L80,216 L80,80 Z" id="Shape"></path>
            </g>
        </g>
    </g>
</svg>