<?xml version="1.0" encoding="UTF-8"?>
<svg width="512px" height="512px" viewBox="0 0 512 512" version="1.1" xmlns="http://www.w3.org/2000/svg" xmlns:xlink="http://www.w3.org/1999/xlink">
    <!-- Generator: Sketch 51.2 (57519) - http://www.bohemiancoding.com/sketch -->
    <title>icon-2</title>
    <desc>Created with Sketch.</desc>
    <defs>
        <linearGradient x1="50%" y1="0.1953125%" x2="50%" y2="99%" id="linearGradient-1">
            <stop stop-color="#BCD352" offset="0%"></stop>
            <stop stop-color="#63955B" offset="100%"></stop>
        </linearGradient>
    </defs>
    <g id="Page-1" stroke="none" stroke-width="1" fill="none" fill-rule="evenodd">
        <g id="Artboard" fill="url(#linearGradient-1)" fill-rule="nonzero">
            <g id="icon-2">
                <path d="M295.182,287.998 L343.182,287.998 C347.606,287.998 351.182,284.414 351.182,279.998 L351.182,175.998 C351.182,171.582 347.606,167.998 343.182,167.998 L295.182,167.998 C290.758,167.998 287.182,171.582 287.182,175.998 L287.182,279.998 C287.182,284.414 290.758,287.998 295.182,287.998 Z M335.182,271.998 L303.182,271.998 L303.182,255.998 L335.182,255.998 L335.182,271.998 Z M303.182,183.998 L335.182,183.998 L335.182,239.998 L303.182,239.998 L303.182,183.998 Z M305.046,416.254 L275.542,411.966 L262.35,385.238 C259.662,379.774 250.694,379.774 248.006,385.238 L234.814,411.966 L205.31,416.254 C202.294,416.694 199.798,418.806 198.846,421.702 C197.91,424.598 198.686,427.782 200.87,429.902 L222.222,450.71 L217.182,480.094 C216.67,483.094 217.902,486.126 220.358,487.918 C222.838,489.71 226.102,489.934 228.782,488.526 L255.182,474.654 L281.574,488.526 C282.742,489.142 284.022,489.446 285.294,489.446 C286.95,489.446 288.606,488.934 289.998,487.918 C292.462,486.126 293.694,483.094 293.174,480.094 L288.134,450.71 L309.486,429.902 C311.662,427.774 312.446,424.598 311.51,421.702 C310.566,418.806 308.062,416.686 305.046,416.254 Z M273.958,442.182 C272.078,444.022 271.214,446.67 271.662,449.262 L274.67,466.814 L258.902,458.526 C257.734,457.918 256.462,457.614 255.182,457.614 C253.902,457.614 252.63,457.918 251.462,458.534 L235.694,466.822 L238.702,449.27 C239.15,446.678 238.286,444.03 236.406,442.19 L223.662,429.758 L241.278,427.198 C243.886,426.822 246.134,425.182 247.302,422.822 L255.182,406.846 L263.062,422.814 C264.23,425.174 266.478,426.814 269.086,427.19 L286.702,429.75 L273.958,442.182 Z M255.182,55.998 C233.126,55.998 215.182,73.942 215.182,95.998 C215.182,118.054 233.126,135.998 255.182,135.998 C277.238,135.998 295.182,118.054 295.182,95.998 C295.182,73.942 277.238,55.998 255.182,55.998 Z M255.182,119.998 C241.95,119.998 231.182,109.23 231.182,95.998 C231.182,82.766 241.95,71.998 255.182,71.998 C268.414,71.998 279.182,82.766 279.182,95.998 C279.182,109.23 268.414,119.998 255.182,119.998 Z M55.182,167.998 C50.758,167.998 47.182,164.414 47.182,159.998 L47.182,135.998 C47.182,132.846 49.006,130.118 51.662,128.814 C58.902,124.582 174.326,50.494 250.854,1.27 C253.478,-0.418 256.854,-0.426 259.494,1.262 L459.494,129.262 C461.79,130.726 463.182,133.27 463.182,135.998 L463.182,159.998 C463.182,164.414 459.606,167.998 455.182,167.998 L415.182,167.998 C410.758,167.998 407.182,164.414 407.182,159.998 C407.182,155.582 410.758,151.998 415.182,151.998 L447.182,151.998 L447.182,140.374 L255.19,17.502 C119.174,104.99 77.222,131.966 63.182,140.286 L63.182,151.998 L95.182,151.998 C99.606,151.998 103.182,155.582 103.182,159.998 C103.182,164.414 99.606,167.998 95.182,167.998 L55.182,167.998 Z M510.19,371.534 L472.622,206.222 C471.974,203.398 469.862,201.142 467.086,200.326 C464.326,199.51 461.302,200.246 459.246,202.27 L427.726,232.974 C419.75,240.934 415.182,251.238 415.182,261.254 L415.182,346.014 L399.182,336.606 L399.182,311.998 C399.182,307.582 395.606,303.998 391.182,303.998 L391.182,143.998 C391.182,139.582 387.606,135.998 383.182,135.998 C378.758,135.998 375.182,139.582 375.182,143.998 L375.182,303.998 L255.182,303.998 L255.182,175.998 C255.182,171.582 251.606,167.998 247.182,167.998 L167.182,167.998 C162.758,167.998 159.182,171.582 159.182,175.998 L159.182,303.998 L135.182,303.998 L135.182,143.998 C135.182,139.582 131.606,135.998 127.182,135.998 C122.758,135.998 119.182,139.582 119.182,143.998 L119.182,303.998 C114.758,303.998 111.182,307.582 111.182,311.998 L111.182,337.07 L95.182,346.206 L95.182,261.246 C95.182,250.566 91.014,240.518 83.462,232.966 L52.838,202.334 C50.766,200.27 47.758,199.494 44.966,200.302 C42.166,201.11 40.03,203.374 39.382,206.214 L1.814,371.526 C-0.146,380.134 0.83,389.294 4.566,397.31 L55.934,507.374 C57.246,510.198 60.07,511.998 63.182,511.998 L151.182,511.998 C154.102,511.998 156.79,510.406 158.198,507.846 C159.598,505.286 159.502,502.166 157.934,499.694 L106.134,418.302 L171.622,374.646 C175.174,372.278 176.238,367.534 174.046,363.87 L171.71,359.998 L340.022,359.998 L337.71,363.958 C335.566,367.622 336.654,372.31 340.19,374.654 L405.766,418.318 L354.062,499.71 C352.494,502.174 352.398,505.294 353.806,507.854 C355.206,510.406 357.894,511.998 360.814,511.998 L448.814,511.998 C451.926,511.998 454.75,510.198 456.062,507.382 L507.43,397.31 C511.166,389.294 512.142,380.142 510.19,371.534 Z M239.182,303.998 L215.182,303.998 L215.182,183.998 L239.182,183.998 L239.182,303.998 Z M175.182,183.998 L199.182,183.998 L199.182,303.998 L175.182,303.998 L175.182,183.998 Z M383.182,319.998 L383.182,331.59 C371.142,330.438 359.086,334.846 350.566,343.998 L160.982,343.998 C152.254,334.75 139.598,330.262 127.182,331.67 L127.182,319.998 L383.182,319.998 Z M90.742,409.342 C87.118,411.758 86.094,416.622 88.43,420.294 L136.614,495.998 L68.278,495.998 L19.062,390.55 C16.822,385.734 16.23,380.246 17.414,375.078 L51.766,223.902 L72.15,244.278 C76.622,248.75 79.182,254.934 79.182,261.254 L79.182,357.07 L59.062,369.142 C55.27,371.414 54.046,376.326 56.318,380.118 C57.822,382.614 60.47,383.998 63.19,383.998 C64.59,383.998 66.014,383.63 67.302,382.854 L119.958,350.486 C131.206,344.07 145.774,347.854 152.446,358.982 L156.406,365.574 L90.742,409.342 Z M492.934,390.55 L443.718,495.998 L375.374,495.998 L423.462,420.286 C425.798,416.614 424.766,411.75 421.142,409.334 L355.318,365.518 L359.15,358.974 C365.87,347.782 379.966,344.054 391.142,350.438 L444.694,382.862 C445.99,383.63 447.406,383.998 448.806,383.998 C451.526,383.998 454.174,382.614 455.67,380.118 C457.942,376.326 456.718,371.414 452.926,369.142 L431.182,356.086 L431.182,261.254 C431.182,255.454 434.038,249.27 438.95,244.358 L460.174,223.686 L494.59,375.086 C495.758,380.246 495.174,385.742 492.934,390.55 Z" id="Shape"></path>
            </g>
        </g>
    </g>
</svg>