<svg xmlns="http://www.w3.org/2000/svg" viewBox="0 0 234 80"><path d="M78 39.535c0 21.263-17.237 38.5-38.5 38.5S1 60.798 1 39.535c0-21.262 17.237-38.5 38.5-38.5S78 18.272 78 39.535z" color="#000" fill="#68c429"/><path d="M61.467 23.233V12.608l-6.125-4.25.125-1.875-17 .625v2.5l-6.25 4.125v19.375" stroke="#000" fill="#fdfc68"/><path d="M32.217 13.483h15.75m7.125-5.125l-7.125 4.875v14.5" stroke="#000" fill="none"/><path d="M25.749 29.952l-3.182-1.06c-5.236 5.742-4.658 16.467 2.386 12.815 6.188-2.21-.088-1.237-.088-1.237l-2.828 1.149c-2.028-3.617.109-10.467 3.712-11.667z" stroke="#000" fill="#fff"/><path d="M38.342 22.608c-3-2-16.375-11.875-29.375-8.25-3.67 1.023 9 13.375 20 18.625 2.577 1.23 9.375-10.375 9.375-10.375z" stroke="#000" fill="#fdfc68"/><path d="M14.592 16.858s2.125-2.375 5.25-2.625m-.375 4.75s3.25-2.875 8.75-2.25m-4.125 4.875s3.5-2.5 8.875-2.125" stroke="#000" fill="none"/><path d="M103.08 47.483h-3.403V21.237H84.642v26.246h-3.404V18.214h21.841zm28.43 0l-3.644-9.31h-11.73l-3.604 9.31h-3.444l11.572-29.389h2.862l11.511 29.389zm-4.705-12.372l-3.403-9.069c-.44-1.148-.894-2.556-1.361-4.224-.294 1.281-.714 2.69-1.261 4.224l-3.444 9.069zm35.315 12.372h-4.124l-13.533-14.834v14.834h-3.403V18.214h3.403v14.174l13.193-14.174h3.904l-12.953 14.214zm22.32 0h-16.316V18.214h16.316v3.023h-12.913v9.43h12.132v3.002h-12.132v10.77h12.913zm19.51 0h-3.403V21.237h-9.27v-3.023h21.942v3.023h-9.27z"/><path d="M191.73 33.122c-2.28.172-4.56 2.637-6.298 5.215-1.94 2.88-5.105 9.312-6.069 18.737-2.461 2.43-4.56 4.404-4.56 4.404l.525.124 3.838-2.28c-.335 4.252 2.112 9.87 5.128 9.87 4.061 0 7.376-4.441 7.376-8.962 0-2.767-3.222-6.303-6.352-5.572 5.479-4.274 12.003-11.244 12.054-15.697.028-2.412-1.247-5.723-5.051-5.84-.198-.006-.403-.014-.59 0zm.754 1.593c1.995.354 1.914 5.92.624 8.338s-3.866 7.183-9.415 11.118c.094-6.184 2.842-12.308 4.166-14.71 1.274-2.307 2.955-4.864 4.625-4.746zm-6.33 21.106c2.028 0 4.044 2.046 4.044 4.58 0 3.522-2.665 5.787-4.23 5.787-2.4 0-3.396-3.075-3.396-5.61 0-2.712 1.552-4.757 3.581-4.757z" color="#000" stroke="#000" stroke-width="1.024" fill="#fff"/><path d="M190.58 53.085l.656.25s2.46-2.077 3.346-1.811c.642.192-.926 5.2-1.771 9.306-.525 2.998-.328 3.935.721 4.122 1.05.187 3.638-5.35 4.33-6.808 5.871-12.007-1.133 3.428 3.609 3.56 1.673-.093 2.427-2.654 2.427-2.654l-.295-.156s-1.148.78-1.41-.313c-.337-2.9.427-7.175 1.957-9.52.968-1.064.968-2.047-.145-2.417-2.644-.878-4.91 4.753-6.274 8.252-.48 1.231-1.829 3.982-2.354 3.857-.525-.125-.726-.69.047-4.259.193-.89 1.06-3.845 1.126-4.907s-.328-1.436-.787-1.561c-.46-.125-3.477 2.81-5.183 5.059z" stroke="#000" stroke-width="1.024" fill="#fff"/><path d="M213.28 44.645c-4.126-.564-5.184 6.274-6.331 10.68a1.88 1.88 0 0 0-.984-.437c-1.143-.146-1.983.611-2.165 1.905-.183 1.293.596 2.477 1.738 2.623 1.143.146 2.149-.809 2.395-2.092.362-1.89.763-4.048 1.476-5.934 1.475-3.746 2.786-4.797 2.92-3.872.16 1.105-1.055 4.803-1.148 7.12-.18 2.145.03 3.58 1.96 3.475 1.212-.066 1.92-2.133 1.92-2.133l-.253-.224s-1.012.556-1.7-.204c-1.433-1.582 2.691-10.563.172-10.907zm17.23-2.097c-.957-.339-3.515 1.46-4.556 2.831l.46.188s1.91-1.232 2.31-.962c.364.245-1.639 4.074-1.894 4.963-.636 2.212.106 3.897 1.345 4.248 1.765.5 3.3-.71 3.805-2.093.843-2.31.09-3.198-.689-3.529-1.085-.46-2.658.068-2.658.068.904-2.312 3.02-5.47 1.877-5.714zm-.482 6.77c.453.077.879.583.532 1.609-.245.723-.882 1.33-1.483 1.25-.601-.083-.715-.802-.542-1.578.205-.915.811-1.395 1.493-1.28zm-5.698-6.165c-4.042-.47-5.077 5.623-6.201 9.552a1.918 1.918 0 0 0-.964-.381c-1.12-.12-1.942.56-2.12 1.712s.583 2.2 1.702 2.32c1.12.121 2.105-.736 2.346-1.88.355-1.684.747-3.608 1.446-5.291 1.444-3.345 2.728-4.29 2.86-3.468.156.982-1.033 4.281-1.125 6.344-.176 1.91.029 3.185 1.92 3.076 1.187-.069 1.88-1.913 1.88-1.913l-.248-.197s-.99.502-1.665-.168c-1.403-1.396 2.636-9.42.169-9.706z" stroke="#000" stroke-width="1.024" fill="#fff"/><path d="M51.717 22.858s.25-3.25-1.25-3.625-3.75.125-4.75-.625-3.375-2.75-3.375-2.75l-2.125 1.75s-1.625-2.125-2.125-1.75-4.75 1.5-5.25 2.75.125 2.5-.875 3.375-2.875 2.375-2.875 3.75v6.25l10.625-1.25 6.375-3.875z" stroke="#000" fill="#68c429"/><path d="M43.25 78.477c14.978.375 30.341-4.01 30.341-6.718 0-1.375-1.63-2.703-1.63-2.703S75.6 63.805 75.6 56.38 65.347 22.085 65.347 22.085l-13.788-.353-17.854 8.485h-9.723s.884 12.198 0 13.435-4.242 3.182-4.066 4.95c.177 1.767.884 4.065.884 4.065s-3.535 5.48-3.358 7.779c.176 2.298 4.419 7.424 4.419 8.485s-.613 3.255-.613 3.255 5.038 5.866 22.002 6.29z" stroke="#000" fill="#fff"/><path d="M65.347 60.269s1.06-4.066 1.06-8.662-4.596-18.915-4.596-22.981c0-4.066 3.36-5.127 3.36-5.127M26.279 69.992c4.066 2.298 11.048 4.154 17.766 3.624m15.822-23.069s-4.066-8.839-10.43-8.662c-3.71.103-5.127 2.475-5.303 4.42-.177 1.944 1.414 4.772 5.657 3.712M42.012 60.8c-1.414 2.298-3.89 6.01-7.778 1.06m10.607-12.993c-3.27 3.359-8.662 8.927-13.435 1.68m-10.342-4.243s1.149-1.06 3.978-1.237c2.828-.177 4.065 1.237 4.242 3.358.148 1.77-1.68 3.536-3.889 2.475M38.83 35.521c1.591-.707 3.005-1.414 4.596-.177m-12.197.53c-1.768-.354-2.652.53-3.359 1.591" stroke="#000" fill="none"/><path d="M39.361 43.122l-7.248.354s-4.243 1.767-3.712 3.535c.53 1.768 3.005 3.359 6.364 3.359 3.358 0 6.187-1.414 5.833-2.652-.353-1.237-2.828-.884-2.828-2.121s1.591-2.475 1.591-2.475z" stroke="#000" fill="#fff"/><path d="M32.643 42.592s-2.121-1.06-4.066-.177m12.021-.707c.53-1.414 3.712-2.475 5.48-1.237M32.342 21.358s1.625-1.125 3.125-1.125 3 .5 3 .5.25-1.125 1.5-1.25 1.875 1.375 1.875 1.375l1.75-.375.75 1" stroke="#000" fill="none"/><path d="M56.092 21.733s5.125 15.875 9.5 15-.625-15.125-.625-15.125l2-.625s2.375 5.375 2.625 8.75c.278 3.748-1.375 7.375-4.75 7.25s-9.25-4.875-12.375-15.25h3.625z" stroke="#000" fill="#fff"/></svg>