<?xml version="1.0" encoding="utf-8"?>
<!-- Generator: Adobe Illustrator 19.0.1, SVG Export Plug-In . SVG Version: 6.00 Build 0)  -->
<svg version="1.1" id="Слой_1" xmlns="http://www.w3.org/2000/svg" xmlns:xlink="http://www.w3.org/1999/xlink" x="0px" y="0px"
	 viewBox="0 0 283.5 141.7" style="enable-background:new 0 0 283.5 141.7;" xml:space="preserve">
<style type="text/css">
	.st0{fill:#FFFFFF;}
	.st1{fill:#FEFFFF;}
</style>
<path class="st0" d="M121.1,60.1c0-0.9-0.3-1.2-1.2-1.2c-3.4,0-6.8,0-10.3,0c-3.5,0-6.9,0-10.4,0c-0.9,0-1.3,0.2-1.3,1.2
	c0,4.9,0,9.9,0,14.8c0,0.9,0.3,1.3,1.2,1.4c0.9,0,1.8,0.2,2.7,0.3c6,0.9,12.1,1.7,18.1,2.6c0.8,0.1,1.1-0.1,1.1-1
	C121,72.2,121,66.2,121.1,60.1z"/>
<path class="st0" d="M70.8,87.4c-0.4-1-0.9-1.1-1.7-1c-0.9,0-1.7-0.2-2.1,1.1c-0.7,2.1-1.5,4.1-2.3,6.2c-2.1,5.5-4.2,11-6.3,16.5
	c-0.1,0.3-0.4,0.6-0.1,0.9c0.4,0.5,2.9,0,3.1-0.6c0.6-1.8,1.3-3.5,1.9-5.3c0.2-0.6,0.5-0.9,1.2-0.9c3,0,6,0,8.9,0
	c0.7,0,1,0.3,1.2,0.9c0.6,1.6,1.2,3.1,1.7,4.7c0.3,1.1,0.9,1.6,1.8,1.3c1.8,0,1.8,0,1.2-1.5C76.5,102.2,73.6,94.8,70.8,87.4z
	 M72.4,101.8c-2.3,0-4.6,0-7,0c-0.6,0-0.9-0.1-0.6-0.7c1.3-3.5,2.6-7.1,3.9-10.6c0-0.1,0.1-0.2,0.3-0.4c0.5,1.4,1,2.6,1.4,3.8
	c0.9,2.3,1.7,4.6,2.6,7C73.3,101.5,73.2,101.8,72.4,101.8z"/>
<path class="st0" d="M112.8,94.6c0-1.1-0.4-1.2-1.3-1.1c-0.8,0-1.5-0.2-1.5,1.1c0.1,3,0,6,0,9c0,1.2-0.2,2.3-0.8,3.3
	c-1,1.8-2.9,2.7-4.9,2.3c-2-0.4-3.1-1.6-3.3-3.8c-0.4-3.5-0.1-7.1-0.2-10.6c0-0.4,0.3-1.1-0.3-1.3c-0.7-0.2-1.5,0-2.2,0
	c-0.1,0-0.2,0.3-0.2,0.5c0.1,4.1-0.3,8.2,0.2,12.3c0.3,2.5,1.5,4.4,4.1,5c2.7,0.6,5.1,0.2,6.9-2.2c0.2-0.2,0.2-0.5,0.7-0.6
	c0,0.5,0.1,1,0,1.4c-0.2,1.1,0.5,1.2,1.3,1.1c0.8,0,1.5,0.1,1.4-1.2C112.7,104.8,112.7,99.7,112.8,94.6z"/>
<path class="st0" d="M95.1,94.9c0.3-0.4,0.7-0.8,0.4-1.3c-0.2-0.4-0.7-0.2-1.1-0.2c-3.7,0-7.4,0-11.1,0c-0.8,0-1.4,0-1.4,1.1
	c0,1.1,0.4,1.4,1.4,1.3c2.4-0.1,4.7,0,7.1,0c0.3,0,0.7-0.2,0.9,0.3c-0.7,0.9-1.3,1.8-2,2.8c-2.7,3.7-5.3,7.3-7.9,11
	c-0.4,0.5-1,1.3,0.4,1.3c4.3,0,8.6,0,12.9,0c0.6,0,0.8-0.3,0.9-0.9c0.1-1-0.1-1.5-1.3-1.4c-3,0.1-6,0-9.2,0c0.5-0.7,0.9-1.3,1.3-1.9
	C89.3,103,92.2,99,95.1,94.9z"/>
<path class="st1" d="M125.9,93.2c-1.8-0.2-3.3,0.3-4.4,1.8c-0.4,0.6-0.7,1.2-1.3,2.1c0-1-0.1-1.8,0-2.5c0.1-1.1-0.5-1.1-1.3-1.1
	c-0.8,0-1.4,0-1.4,1.2c0.1,5.1,0.1,10.2,0,15.3c0,1.1,0.4,1.3,1.4,1.3c0.9,0,1.4-0.1,1.4-1.2c-0.1-3-0.1-6,0-9
	c0.1-3.9,2.6-5.7,6.3-4.8c0-0.7,0-1.3,0-1.9C126.7,93.5,126.5,93.3,125.9,93.2z"/>
<g>
	<path class="st0" d="M111.9,99.6c-0.5-1.2-0.9-2.5-1.4-3.8c-0.2,0.2-0.3,0.3-0.3,0.4c-1.3,3.5-2.6,7.1-3.9,10.6
		c-0.2,0.7,0,0.7,0.6,0.7c2.3,0,4.6,0,7,0c0.9,0,1-0.2,0.7-1C113.6,104.2,112.7,101.9,111.9,99.6z"/>
	<g>
		<path class="st0" d="M259.9,92c-0.1-1.9-0.1-3.7-0.6-5.6c-2.2-8.7-6.8-15.8-13.6-21.5c-3.6-3-7.7-5.2-12.1-6.7
			c-1.1-0.4-1.4-1-1.5-2.1c-0.1-8-3.3-14.6-9.4-19.6c-8.2-6.6-17.3-7.8-27.1-3.8c-1.4,0.6-1.4,0.6-2-0.6
			c-4.1-9.2-10.8-15.8-19.7-20.3c-5.6-2.8-11.5-4.8-17.9-4.9c-4.5-0.1-9-0.3-13.5,0.3c-5.7,0.7-11,2.7-16,5.5
			c-9.4,5.3-16.2,12.9-19.5,23.3c-0.3,1-0.7,1.1-1.6,0.7c-5-2-10.1-2.8-15.5-2.4c-9.9,0.9-18,5.3-24.1,13c-4.6,5.8-7,12.6-7.2,20
			c0,1-0.4,1.3-1.3,1.2c-1.4,0-2.8,0-4.3,0.2c-12.2,1.5-21,7.8-26.6,18.6c-1.5,2.8-2.5,5.8-2.8,9.1c-0.2,3-0.2,5.9-0.1,8.9
			c0.1,1.7,0.2,3.4,0.6,5.1c1.7,6.5,5.1,12,10.1,16.4c4.8,4.2,10.3,7.2,16.8,7.8c0.8,0.1,1.6-0.1,2.4,0.2c57,0,114,0,171,0
			c0.3-0.2,0.7-0.1,1.1-0.1c2-0.1,4-0.2,5.9-0.8c11.8-3.5,20.4-10.8,25.6-22c1.5-3.1,2.5-6.4,2.8-9.9c0.1-1.5,0-3.1,0.3-4.6
			c0-1.2,0-2.4,0-3.7C259.8,93.2,260,92.6,259.9,92z M139.4,48c0-0.8,0.3-1.1,1.1-1.2c5.7-0.8,11.3-1.6,17-2.4
			c1.4-0.2,2.8-0.4,4.2-0.6c0.6-0.1,0.8,0.1,0.8,0.7c0,6.2,0,12.5,0,18.7c0,0.9-0.5,0.8-1.1,0.8c-3.5,0-7,0-10.5,0
			c-3.4,0-6.8,0-10.3,0c-0.9,0-1.2-0.2-1.2-1.1C139.5,57.9,139.4,52.9,139.4,48z M120.9,50.5c0-0.7,0.2-1.1,0.9-1.2
			c5.3-0.7,10.6-1.5,15.9-2.2c0.6-0.1,0.8,0.1,0.8,0.7c0,5.1,0,10.3,0,15.4c0,0.8-0.5,0.8-1.1,0.8c-2.6,0-5.2,0-7.8,0
			c-2.5,0-5,0-7.6,0c-0.9,0-1.2-0.2-1.2-1.1C121,58.7,121,54.6,120.9,50.5z M119.6,116.9c-1,0.3-1.5-0.3-1.8-1.3
			c-0.5-1.6-1.2-3.1-1.7-4.7c-0.2-0.6-0.5-0.9-1.2-0.9c-3,0-6,0-8.9,0c-0.7,0-1,0.2-1.2,0.9c-0.6,1.8-1.2,3.5-1.9,5.3
			c-0.2,0.6-2.7,1.1-3.1,0.6c-0.2-0.3,0-0.6,0.1-0.9c2.1-5.5,4.2-11,6.3-16.5c0.8-2.1,1.6-4.1,2.3-6.2c0.4-1.2,1.2-1,2.1-1.1
			c0.8,0,1.4,0.1,1.7,1c2.8,7.4,5.7,14.8,8.5,22.2C121.4,116.9,121.4,116.9,119.6,116.9z M135.7,114.6c1.2,0,1.4,0.4,1.3,1.4
			c0,0.6-0.2,0.9-0.9,0.9c-4.3,0-8.6,0-12.9,0c-1.3,0-0.7-0.8-0.4-1.3c2.6-3.7,5.3-7.3,7.9-11c0.7-0.9,1.3-1.8,2-2.8
			c-0.2-0.4-0.6-0.3-0.9-0.3c-2.4,0-4.7-0.1-7.1,0c-1,0-1.4-0.2-1.4-1.3c0-1.1,0.6-1.1,1.4-1.1c3.7,0,7.4,0,11.1,0
			c0.4,0,0.9-0.2,1.1,0.2c0.3,0.5-0.2,0.9-0.4,1.3c-2.9,4-5.8,8-8.7,12.1c-0.4,0.5-0.8,1.1-1.3,1.9
			C129.7,114.6,132.7,114.7,135.7,114.6z M138.6,80.7c0,0.8-0.1,1.1-1,0.9c-5.3-0.8-10.5-1.5-15.8-2.2c-0.8-0.1-0.8-0.4-0.8-1
			c0-4.2,0-8.4,0-12.6c0-0.8,0.3-1.1,1.1-1.1c2.6,0,5.2,0,7.8,0c2.6,0,5.1,0,7.7,0c0.8,0,1.1,0.3,1.1,1.1
			C138.5,70.8,138.5,75.7,138.6,80.7z M139.4,65.9c0-1,0.3-1.2,1.3-1.2c3.5,0,6.9,0,10.4,0c3.4,0,6.8,0,10.3,0
			c0.9,0,1.2,0.2,1.2,1.2c0,6,0,12.1,0,18.1c0,0.9-0.3,1.2-1.1,1c-6-0.9-12.1-1.7-18.1-2.6c-0.9-0.1-1.8-0.3-2.7-0.3
			c-1,0-1.2-0.4-1.2-1.4C139.5,75.8,139.5,70.9,139.4,65.9z M152.8,116.9c-0.8,0-1.5,0-1.3-1.1c0.1-0.4,0-0.9,0-1.4
			c-0.5,0.1-0.5,0.4-0.7,0.6c-1.8,2.4-4.2,2.8-6.9,2.2c-2.6-0.6-3.8-2.5-4.1-5c-0.5-4.1-0.1-8.2-0.2-12.3c0-0.2,0.1-0.5,0.2-0.5
			c0.7,0,1.5-0.2,2.2,0c0.6,0.1,0.3,0.8,0.3,1.3c0.1,3.5-0.2,7.1,0.2,10.6c0.3,2.2,1.4,3.4,3.3,3.8c2,0.4,4-0.5,4.9-2.3
			c0.6-1,0.8-2.1,0.8-3.3c0-3,0.1-6,0-9c0-1.3,0.7-1.1,1.5-1.1c0.9-0.1,1.3,0.1,1.3,1.1c-0.1,5.1-0.1,10.3,0,15.4
			C154.2,116.9,153.6,116.9,152.8,116.9z M168.1,101.8c-3.8-0.9-6.2,1-6.3,4.8c-0.1,3-0.1,6,0,9c0,1.1-0.5,1.2-1.4,1.2
			c-0.9,0-1.4-0.2-1.4-1.3c0.1-5.1,0.1-10.2,0-15.3c0-1.2,0.6-1.2,1.4-1.2c0.8,0,1.5,0,1.3,1.1c-0.1,0.7,0,1.5,0,2.5
			c0.5-0.9,0.8-1.5,1.3-2.1c1.1-1.5,2.6-2,4.4-1.8c0.6,0.1,0.8,0.3,0.8,0.9C168.1,100.4,168.1,101,168.1,101.8z M181.2,108.7
			c-2.8,0-5.6,0.1-8.4,0c-1.2,0-1.3,0.5-1.2,1.5c0.7,3.9,4,5.7,8.2,4.5c1-0.3,1.9-0.8,2.9-1.3c0.4,2.2,0.3,2.5-1.6,3.2
			c-2,0.8-4.1,0.9-6.1,0.6c-3.5-0.6-5.3-3-6-6.3c-0.7-3.3-0.3-6.4,1.8-9.2c1.9-2.5,5.3-3.6,8.4-2.7c2.8,0.8,4.7,3.5,4.9,6.7
			C184.2,108.7,184.2,108.7,181.2,108.7z"/>
		<path class="st0" d="M178.6,101.4c-2.9-1.2-5.9,0.6-6.9,4c-0.2,0.8-0.1,1.1,0.8,1.1c1.3,0,2.6,0,3.9,0c1.3,0,2.7,0,4,0
			c0.4,0,0.8,0,0.8-0.6C181.4,104.3,180.1,102.1,178.6,101.4z"/>
	</g>
</g>
</svg>
