<?xml version="1.0" encoding="utf-8"?>
<!-- Generator: Adobe Illustrator 19.0.1, SVG Export Plug-In . SVG Version: 6.00 Build 0)  -->
<svg version="1.1" id="Capa_1" xmlns="http://www.w3.org/2000/svg" xmlns:xlink="http://www.w3.org/1999/xlink" x="0px" y="0px"
	 viewBox="101 -172.5 485.2 485.2" style="enable-background:new 101 -172.5 485.2 485.2;" xml:space="preserve" width="20">
<style type="text/css">
	.st0{fill:#336699;}
</style>
<g>
	<path class="st0" d="M161.7-96.7v-60.7c0-8.4,6.8-15.2,15.2-15.2c8.4,0,15.2,6.8,15.2,15.2v60.7c0,8.4-6.8,15.2-15.2,15.2
		C168.4-81.5,161.7-88.3,161.7-96.7z M419.4-81.5c8.4,0,15.2-6.8,15.2-15.2v-60.7c0-8.4-6.8-15.2-15.2-15.2
		c-8.4,0-15.2,6.8-15.2,15.2v60.7C404.3-88.3,411-81.5,419.4-81.5z M586.2,191.4c0,67-54.3,121.3-121.3,121.3
		c-67,0-121.3-54.3-121.3-121.3c0-67,54.3-121.3,121.3-121.3C531.9,70.1,586.2,124.4,586.2,191.4z M555.9,191.4
		c0-50.2-40.8-91-91-91c-50.2,0-91,40.8-91,91c0,50.2,40.8,91,91,91C515.1,282.4,555.9,241.6,555.9,191.4z M222.3,9.5h-60.7v60.7
		h60.7V9.5z M161.7,161.1h60.7v-60.7h-60.7V161.1z M252.6,70.1h60.7V9.5h-60.7V70.1z M252.6,161.1h60.7v-60.7h-60.7V161.1z
		 M131.3,188.4V-20.9h333.6v60.7h30.3V-78.5c0-18.4-14.7-33.3-32.8-33.3h-12.6v15.2c0,16.7-13.6,30.3-30.3,30.3
		c-16.7,0-30.3-13.6-30.3-30.3v-15.2h-182v15.2c0,16.7-13.6,30.3-30.3,30.3c-16.7,0-30.3-13.6-30.3-30.3v-15.2h-12.6
		c-18.2,0-32.9,14.9-32.9,33.3v266.9c0,18.4,14.7,33.3,32.9,33.3h179.4v-30.3H133.9C132.5,191.4,131.3,190,131.3,188.4z M404.3,70.1
		V9.5h-60.6v60.7H404.3z M510.4,191.4h-45.5v-45.5c0-8.4-6.8-15.2-15.2-15.2s-15.2,6.8-15.2,15.2v60.7c0,8.4,6.8,15.2,15.2,15.2
		h60.7c8.4,0,15.2-6.8,15.2-15.2C525.6,198.2,518.8,191.4,510.4,191.4z"/>
</g>
</svg>
