<?xml version="1.0" encoding="utf-8"?>
<!-- Generator: Adobe Illustrator 19.0.1, SVG Export Plug-In . SVG Version: 6.00 Build 0)  -->
<svg version="1.1" id="Слой_1" xmlns="http://www.w3.org/2000/svg" xmlns:xlink="http://www.w3.org/1999/xlink" x="0px" y="0px"
	 viewBox="30 35 81.7 71.7" style="enable-background:new 0 0 141.7 141.7;" xml:space="preserve">
<style type="text/css">
	.st0{fill:#A2C2D4;}
	.st1{fill:none;stroke:#34679A;stroke-width:3;stroke-linejoin:round;stroke-miterlimit:10;}
	.st2{fill:#34679A;}
	.st3{fill:none;stroke:#34679A;stroke-width:3;stroke-miterlimit:10;}
	.st4{fill:#F8F4EF;}
</style>
<g>
	<path class="st0" d="M85,83.6c0,4.7-10.7,8.5-23.9,8.5s-23.9-3.8-23.9-8.5v-8.3H85V83.6z"/>
	<path class="st1" d="M85,83.6c0,4.7-10.7,8.5-23.9,8.5s-23.9-3.8-23.9-8.5v-8.3H85V83.6z"/>
	<path class="st2" d="M85,74.9c0,4.7-10.7,8.5-23.9,8.5s-23.9-3.8-23.9-8.5c0-4.7,10.7-8.5,23.9-8.5S85,70.2,85,74.9"/>
	<ellipse class="st3" cx="61.1" cy="74.9" rx="23.9" ry="8.5"/>
	<path class="st0" d="M85,70.1c0,4.7-10.7,8.5-23.9,8.5s-23.9-3.8-23.9-8.5v-8.3H85V70.1z"/>
	<path class="st1" d="M85,70.1c0,4.7-10.7,8.5-23.9,8.5s-23.9-3.8-23.9-8.5v-8.3H85V70.1z"/>
	<path class="st2" d="M85,61.4c0,4.7-10.7,8.5-23.9,8.5s-23.9-3.8-23.9-8.5c0-4.7,10.7-8.5,23.9-8.5S85,56.7,85,61.4"/>
	<ellipse class="st3" cx="61.1" cy="61.4" rx="23.9" ry="8.5"/>
	<path class="st0" d="M85,55.9c0,4.7-10.7,8.5-23.9,8.5s-23.9-3.8-23.9-8.5v-8.3H85V55.9z"/>
	<path class="st1" d="M85,55.9c0,4.7-10.7,8.5-23.9,8.5s-23.9-3.8-23.9-8.5v-8.3H85V55.9z"/>
	<path class="st2" d="M85,47.1c0,4.7-10.7,8.5-23.9,8.5s-23.9-3.8-23.9-8.5c0-4.7,10.7-8.5,23.9-8.5S85,42.4,85,47.1"/>
	<ellipse class="st3" cx="61.1" cy="47.1" rx="23.9" ry="8.5"/>
	<path class="st4" d="M104.5,83.7c0,10.7-8.3,19.4-18.6,19.4c-10.2,0-18.6-8.7-18.6-19.4c0-10.7,8.3-19.4,18.6-19.4
		C96.2,64.3,104.5,73,104.5,83.7"/>
	<path class="st2" d="M86.1,71.7c6.4,0,11.5,5.4,11.5,12.1s-5.2,12.1-11.5,12.1c-6.4,0-11.5-5.4-11.5-12.1S79.8,71.7,86.1,71.7
		 M86.1,69.2c-7.7,0-13.9,6.5-13.9,14.5s6.2,14.5,13.9,14.5S100,91.7,100,83.7S93.8,69.2,86.1,69.2"/>
	<path class="st2" d="M86.1,86.3c0.7,0,1.3-0.6,1.3-1.4v-8.5c0-0.8-0.6-1.4-1.3-1.4c-0.7,0-1.3,0.6-1.3,1.4v8.5
		C84.8,85.7,85.4,86.3,86.1,86.3"/>
	<path class="st2" d="M85.8,91.8h0.5c0.7,0,1.3-0.6,1.3-1.4V90c0-0.8-0.6-1.4-1.3-1.4h-0.5c-0.7,0-1.3,0.6-1.3,1.4v0.5
		C84.5,91.2,85.1,91.8,85.8,91.8"/>
</g>
</svg>
