<?xml version="1.0" encoding="utf-8"?>
<!-- Generator: Adobe Illustrator 19.0.1, SVG Export Plug-In . SVG Version: 6.00 Build 0)  -->
<svg version="1.1" id="Слой_1" xmlns="http://www.w3.org/2000/svg" xmlns:xlink="http://www.w3.org/1999/xlink" x="0px" y="0px"
	 viewBox="30 35 81.7 71.7"  style="enable-background:new 0 0 141.7 141.7;" xml:space="preserve">
<style type="text/css">
	.st0{fill:#A2C2D4;}
	.st1{fill:none;stroke:#34679A;stroke-width:3;stroke-linejoin:round;stroke-miterlimit:10;}
	.st2{fill:#34679A;}
	.st3{fill:none;stroke:#34679A;stroke-width:3;stroke-miterlimit:10;}
	.st4{fill:#F8F4EF;}
</style>
<g>
	<path class="st0" d="M83.9,84.7c0,4.5-10.5,8.2-23.4,8.2c-12.9,0-23.4-3.7-23.4-8.2v-8h46.8V84.7z"/>
	<path class="st1" d="M83.9,84.7c0,4.5-10.5,8.2-23.4,8.2c-12.9,0-23.4-3.7-23.4-8.2v-8h46.8V84.7z"/>
	<path class="st2" d="M83.9,76.3c0,4.5-10.5,8.2-23.4,8.2c-12.9,0-23.4-3.7-23.4-8.2c0-4.5,10.5-8.2,23.4-8.2
		C73.4,68.1,83.9,71.8,83.9,76.3"/>
	<ellipse class="st3" cx="60.5" cy="76.3" rx="23.4" ry="8.2"/>
	<path class="st0" d="M83.9,71.7c0,4.5-10.5,8.2-23.4,8.2c-12.9,0-23.4-3.7-23.4-8.2v-8h46.8V71.7z"/>
	<path class="st1" d="M83.9,71.7c0,4.5-10.5,8.2-23.4,8.2c-12.9,0-23.4-3.7-23.4-8.2v-8h46.8V71.7z"/>
	<path class="st2" d="M83.9,63.2c0,4.5-10.5,8.2-23.4,8.2c-12.9,0-23.4-3.7-23.4-8.2c0-4.5,10.5-8.2,23.4-8.2
		C73.4,55,83.9,58.7,83.9,63.2"/>
	<ellipse class="st3" cx="60.5" cy="63.2" rx="23.4" ry="8.2"/>
	<path class="st0" d="M83.9,57.9c0,4.5-10.5,8.2-23.4,8.2c-12.9,0-23.4-3.7-23.4-8.2v-8h46.8V57.9z"/>
	<path class="st1" d="M83.9,57.9c0,4.5-10.5,8.2-23.4,8.2c-12.9,0-23.4-3.7-23.4-8.2v-8h46.8V57.9z"/>
	<path class="st2" d="M83.9,49.5c0,4.5-10.5,8.2-23.4,8.2c-12.9,0-23.4-3.7-23.4-8.2c0-4.5,10.5-8.2,23.4-8.2
		C73.4,41.3,83.9,45,83.9,49.5"/>
	<ellipse class="st3" cx="60.5" cy="49.5" rx="23.4" ry="8.2"/>
	<path class="st4" d="M95.3,100.4H74.6c-5.1,0-9.3-6-9.3-11.5c0-5,3.3-9.6,7.4-10.5c0-6.9,5.8-12,12.3-12c6.4,0,11.7,5.6,11.7,12.5
		c0,0.1,0,0.1,0,0.2c4.6,0.7,8,4.8,8,9.8C104.7,94.4,100.5,100.4,95.3,100.4"/>
	<path class="st2" d="M78.6,82.2c0-0.2,0-0.5,0-0.7c0-4.1,3.2-7.4,7.2-7.4s7.2,3.3,7.2,7.4c0,0.2,0,0.5,0,0.7l-0.1,1.3l1.3,0.1
		c2.9,0.1,5.1,2.6,5.1,5.5c0,3-2.4,5.5-5.3,5.5H77.7c-2.9,0-5.3-2.5-5.3-5.5c0-2.9,2.2-5.4,5.1-5.5l1.3-0.1L78.6,82.2z M95.5,81.2
		c-0.2-5.4-4.5-9.7-9.7-9.7c-5.2,0-9.5,4.3-9.7,9.7c-3.6,0.8-6.3,4.1-6.3,7.9c0,4.5,3.5,8.1,7.9,8.1h16.2c4.3,0,7.9-3.6,7.9-8.1
		C101.7,85.2,99.1,81.9,95.5,81.2"/>
</g>
</svg>
