<?xml version="1.0" encoding="utf-8"?>
<!-- Generator: Adobe Illustrator 19.0.1, SVG Export Plug-In . SVG Version: 6.00 Build 0)  -->
<svg version="1.1" id="Слой_1" xmlns="http://www.w3.org/2000/svg" xmlns:xlink="http://www.w3.org/1999/xlink" x="0px" y="0px"
	 viewBox="30 35 81.7 71.7"  style="enable-background:new 0 0 141.7 141.7;" xml:space="preserve">
<style type="text/css">
	.st0{fill:#A2C2D4;}
	.st1{fill:none;stroke:#34679A;stroke-width:3;stroke-linejoin:round;stroke-miterlimit:10;}
	.st2{fill:#34679A;}
	.st3{fill:none;stroke:#34679A;stroke-width:3;stroke-miterlimit:10;}
	.st4{fill:#F8F4EF;}
</style>
<g>
	<path class="st0" d="M83.3,83.1c0,4.4-10,7.9-22.3,7.9c-12.3,0-22.3-3.5-22.3-7.9v-7.7h44.7V83.1z"/>
	<path class="st1" d="M83.3,83.1c0,4.4-10,7.9-22.3,7.9c-12.3,0-22.3-3.5-22.3-7.9v-7.7h44.7V83.1z"/>
	<path class="st2" d="M83.3,74.9c0,4.4-10,7.9-22.3,7.9c-12.3,0-22.3-3.5-22.3-7.9c0-4.4,10-7.9,22.3-7.9
		C73.3,67.1,83.3,70.6,83.3,74.9"/>
	<ellipse class="st3" cx="61" cy="74.9" rx="22.3" ry="7.9"/>
	<path class="st0" d="M83.3,70.4c0,4.4-10,7.9-22.3,7.9c-12.3,0-22.3-3.5-22.3-7.9v-7.7h44.7V70.4z"/>
	<path class="st1" d="M83.3,70.4c0,4.4-10,7.9-22.3,7.9c-12.3,0-22.3-3.5-22.3-7.9v-7.7h44.7V70.4z"/>
	<path class="st2" d="M83.3,62.3c0,4.4-10,7.9-22.3,7.9c-12.3,0-22.3-3.5-22.3-7.9c0-4.4,10-7.9,22.3-7.9
		C73.3,54.4,83.3,57.9,83.3,62.3"/>
	<ellipse class="st3" cx="61" cy="62.3" rx="22.3" ry="7.9"/>
	<path class="st0" d="M83.3,57.1c0,4.4-10,7.9-22.3,7.9c-12.3,0-22.3-3.5-22.3-7.9v-7.7h44.7V57.1z"/>
	<path class="st1" d="M83.3,57.1c0,4.4-10,7.9-22.3,7.9c-12.3,0-22.3-3.5-22.3-7.9v-7.7h44.7V57.1z"/>
	<path class="st2" d="M83.3,49c0,4.4-10,7.9-22.3,7.9c-12.3,0-22.3-3.5-22.3-7.9c0-4.4,10-7.9,22.3-7.9C73.3,41.1,83.3,44.6,83.3,49
		"/>
	<ellipse class="st3" cx="61" cy="49" rx="22.3" ry="7.9"/>
	<path class="st4" d="M101.8,82.5c0,10-7.8,18.2-17.4,18.2s-17.4-8.1-17.4-18.2c0-10,7.8-18.2,17.4-18.2S101.8,72.4,101.8,82.5"/>
	<path class="st2" d="M102.8,77.9c-0.5-0.5-1.3-0.5-1.7,0l-3.6,3.7c-0.4-7.1-6.1-12.7-13-12.7c-7.2,0-13,6.1-13,13.6
		c0,7.5,5.8,13.6,13,13.6c3.4,0,6.6-1.3,9-3.7c0.4-0.4,0.6-1.1,0.2-1.7c-0.2-0.3-0.5-0.4-0.7-0.5c-0.4-0.1-0.8,0.2-0.8,0.3
		c-2,2.1-4.7,3.3-7.6,3.3c-6,0-10.8-5.1-10.8-11.3c0-6.2,4.9-11.3,10.8-11.3c5.6,0,10.2,4.4,10.8,10.1l-3.3-3.5
		c-0.5-0.5-1.2-0.5-1.7,0c-0.5,0.5-0.5,1.3,0,1.8l5.4,5.6c0,0,0,0,0,0c0,0,0,0,0,0c0.2,0.2,0.6,0.4,0.9,0.4c0.3,0,0.6-0.1,0.9-0.4
		l5.4-5.6C103.2,79.2,103.2,78.4,102.8,77.9"/>
</g>
</svg>
