<?xml version="1.0" encoding="utf-8"?>
<!-- Generator: Adobe Illustrator 19.0.1, SVG Export Plug-In . SVG Version: 6.00 Build 0)  -->
<svg version="1.1" id="Слой_1" xmlns="http://www.w3.org/2000/svg" xmlns:xlink="http://www.w3.org/1999/xlink" x="0px" y="0px"
	 viewBox="30 35 81.7 71.7"  style="enable-background:new 0 0 141.7 141.7;" xml:space="preserve">
<style type="text/css">
	.st0{fill:#A2C2D4;}
	.st1{fill:none;stroke:#34679A;stroke-width:3;stroke-linejoin:round;stroke-miterlimit:10;}
	.st2{fill:#34679A;}
	.st3{fill:none;stroke:#34679A;stroke-width:3;stroke-miterlimit:10;}
	.st4{fill:#F8F4EF;}
</style>
<g>
	<path class="st0" d="M84.5,83.1c0,4.5-10.2,8.2-22.8,8.2c-12.6,0-22.8-3.7-22.8-8.2v-8h45.6V83.1z"/>
	<path class="st1" d="M84.5,83.1c0,4.5-10.2,8.2-22.8,8.2c-12.6,0-22.8-3.7-22.8-8.2v-8h45.6V83.1z"/>
	<path class="st2" d="M84.5,74.7c0,4.5-10.2,8.2-22.8,8.2c-12.6,0-22.8-3.7-22.8-8.2c0-4.5,10.2-8.2,22.8-8.2
		C74.3,66.5,84.5,70.2,84.5,74.7"/>
	<ellipse class="st3" cx="61.7" cy="74.7" rx="22.8" ry="8.2"/>
	<path class="st0" d="M84.5,70c0,4.5-10.2,8.2-22.8,8.2c-12.6,0-22.8-3.7-22.8-8.2v-8h45.6V70z"/>
	<path class="st1" d="M84.5,70c0,4.5-10.2,8.2-22.8,8.2c-12.6,0-22.8-3.7-22.8-8.2v-8h45.6V70z"/>
	<path class="st2" d="M84.5,61.6c0,4.5-10.2,8.2-22.8,8.2c-12.6,0-22.8-3.7-22.8-8.2c0-4.5,10.2-8.2,22.8-8.2
		C74.3,53.4,84.5,57.1,84.5,61.6"/>
	<ellipse class="st3" cx="61.7" cy="61.6" rx="22.8" ry="8.2"/>
	<path class="st0" d="M84.5,56.3c0,4.5-10.2,8.2-22.8,8.2c-12.6,0-22.8-3.7-22.8-8.2v-8h45.6V56.3z"/>
	<path class="st1" d="M84.5,56.3c0,4.5-10.2,8.2-22.8,8.2c-12.6,0-22.8-3.7-22.8-8.2v-8h45.6V56.3z"/>
	<path class="st2" d="M84.5,47.9c0,4.5-10.2,8.2-22.8,8.2c-12.6,0-22.8-3.7-22.8-8.2c0-4.5,10.2-8.2,22.8-8.2
		C74.3,39.7,84.5,43.4,84.5,47.9"/>
	<ellipse class="st3" cx="61.7" cy="47.9" rx="22.8" ry="8.2"/>
	<path class="st4" d="M96.9,102h-20c-3.3,0-6-2.8-6-6.3V70.9c0-3.5,2.7-6.3,6-6.3h20c3.3,0,6,2.9,6,6.3v24.8
		C102.9,99.2,100.2,102,96.9,102"/>
	<path class="st2" d="M91.7,74.3H79.9c-0.5,0-1.3,0.4-1.3,1.5c0,1.1,0.8,1.5,1.3,1.5h11.8c0.5,0,1.3-0.4,1.3-1.5
		C93.1,74.7,92.3,74.3,91.7,74.3"/>
	<path class="st2" d="M91.7,80.3H79.9c-0.5,0-1.3,0.4-1.3,1.5c0,1.1,0.8,1.5,1.3,1.5h11.8c0.5,0,1.3-0.4,1.3-1.5
		C93.1,80.7,92.3,80.3,91.7,80.3"/>
	<path class="st2" d="M85.8,86.3h-5.9c-0.5,0-1.3,0.4-1.3,1.5c0,1.1,0.8,1.5,1.3,1.5h5.9c0.5,0,1.3-0.4,1.3-1.5
		C87.1,86.7,86.4,86.3,85.8,86.3"/>
	<path class="st2" d="M96.5,72.8V93c0,1.1-0.9,2-1.9,2H78.8c-1.1,0-1.9-0.9-1.9-2V72.8c0-1.1,0.9-2,1.9-2h15.7
		C95.6,70.8,96.5,71.7,96.5,72.8 M94.5,68.3H78.8c-2.4,0-4.3,2-4.3,4.5V93c0,2.5,1.9,4.5,4.3,4.5h15.7c2.4,0,4.3-2,4.3-4.5V72.8
		C98.9,70.3,96.9,68.3,94.5,68.3"/>
</g>
<path class="st0" d="M351.2,353.1c0,4.5-10.2,8.2-22.8,8.2c-12.6,0-22.8-3.7-22.8-8.2v-8h45.6V353.1z"/>
<path class="st1" d="M351.2,353.1c0,4.5-10.2,8.2-22.8,8.2c-12.6,0-22.8-3.7-22.8-8.2v-8h45.6V353.1z"/>
<path class="st2" d="M351.2,344.7c0,4.5-10.2,8.2-22.8,8.2c-12.6,0-22.8-3.7-22.8-8.2c0-4.5,10.2-8.2,22.8-8.2
	C341,336.5,351.2,340.1,351.2,344.7"/>
<ellipse class="st3" cx="328.4" cy="344.7" rx="22.8" ry="8.2"/>
<path class="st0" d="M351.2,340c0,4.5-10.2,8.2-22.8,8.2c-12.6,0-22.8-3.7-22.8-8.2v-8h45.6V340z"/>
<path class="st1" d="M351.2,340c0,4.5-10.2,8.2-22.8,8.2c-12.6,0-22.8-3.7-22.8-8.2v-8h45.6V340z"/>
<path class="st2" d="M351.2,331.6c0,4.5-10.2,8.2-22.8,8.2c-12.6,0-22.8-3.7-22.8-8.2c0-4.5,10.2-8.2,22.8-8.2
	C341,323.4,351.2,327.1,351.2,331.6"/>
<ellipse class="st3" cx="328.4" cy="331.6" rx="22.8" ry="8.2"/>
<path class="st0" d="M351.2,326.3c0,4.5-10.2,8.2-22.8,8.2c-12.6,0-22.8-3.7-22.8-8.2v-8h45.6V326.3z"/>
<path class="st1" d="M351.2,326.3c0,4.5-10.2,8.2-22.8,8.2c-12.6,0-22.8-3.7-22.8-8.2v-8h45.6V326.3z"/>
<path class="st2" d="M351.2,317.9c0,4.5-10.2,8.2-22.8,8.2c-12.6,0-22.8-3.7-22.8-8.2c0-4.5,10.2-8.2,22.8-8.2
	C341,309.7,351.2,313.4,351.2,317.9"/>
<ellipse class="st3" cx="328.4" cy="317.9" rx="22.8" ry="8.2"/>
<path class="st4" d="M363.6,372h-20c-3.3,0-6-2.8-6-6.3v-24.8c0-3.5,2.7-6.3,6-6.3h20c3.3,0,6,2.9,6,6.3v24.8
	C369.6,369.1,366.9,372,363.6,372"/>
<path class="st2" d="M358.5,344.3h-11.8c-0.5,0-1.3,0.4-1.3,1.5c0,1.1,0.8,1.5,1.3,1.5h11.8c0.5,0,1.3-0.4,1.3-1.5
	C359.8,344.7,359,344.3,358.5,344.3"/>
<path class="st2" d="M358.5,350.3h-11.8c-0.5,0-1.3,0.4-1.3,1.5c0,1.1,0.8,1.5,1.3,1.5h11.8c0.5,0,1.3-0.4,1.3-1.5
	C359.8,350.7,359,350.3,358.5,350.3"/>
<path class="st2" d="M352.6,356.3h-5.9c-0.5,0-1.3,0.4-1.3,1.5c0,1.1,0.8,1.5,1.3,1.5h5.9c0.5,0,1.3-0.4,1.3-1.5
	C353.9,356.7,353.1,356.3,352.6,356.3"/>
<path class="st2" d="M363.2,342.8V363c0,1.1-0.9,2-1.9,2h-15.7c-1.1,0-1.9-0.9-1.9-2v-20.2c0-1.1,0.9-2,1.9-2h15.7
	C362.3,340.8,363.2,341.7,363.2,342.8 M361.3,338.2h-15.7c-2.4,0-4.3,2-4.3,4.5V363c0,2.5,1.9,4.5,4.3,4.5h15.7c2.4,0,4.3-2,4.3-4.5
	v-20.2C365.6,340.3,363.7,338.2,361.3,338.2"/>
</svg>
