<?xml version="1.0" encoding="utf-8"?>
<!-- Generator: Adobe Illustrator 19.0.1, SVG Export Plug-In . SVG Version: 6.00 Build 0)  -->
<svg version="1.1" id="Слой_1" xmlns="http://www.w3.org/2000/svg" xmlns:xlink="http://www.w3.org/1999/xlink" x="0px" y="0px"
	 viewBox="30 35 81.7 71.7"  style="enable-background:new 0 0 141.7 141.7;" xml:space="preserve">
<style type="text/css">
	.st0{fill:#A2C2D4;}
	.st1{fill:none;stroke:#34679A;stroke-width:3;stroke-linejoin:round;stroke-miterlimit:10;}
	.st2{fill:#34679A;}
	.st3{fill:none;stroke:#34679A;stroke-width:3;stroke-miterlimit:10;}
	.st4{fill:#F8F4EF;}
</style>
<g>
	<path class="st0" d="M85.4,82.9c0,4.5-10.7,8.1-24,8.1c-13.3,0-24-3.6-24-8.1v-7.9h48V82.9z"/>
	<path class="st1" d="M85.4,82.9c0,4.5-10.7,8.1-24,8.1c-13.3,0-24-3.6-24-8.1v-7.9h48V82.9z"/>
	<path class="st2" d="M85.4,74.5c0,4.5-10.7,8.1-24,8.1c-13.3,0-24-3.6-24-8.1c0-4.5,10.7-8.1,24-8.1C74.7,66.4,85.4,70,85.4,74.5"
		/>
	<ellipse class="st3" cx="61.4" cy="74.5" rx="24" ry="8.1"/>
	<path class="st0" d="M85.4,69.9c0,4.5-10.7,8.1-24,8.1c-13.3,0-24-3.6-24-8.1v-7.9h48V69.9z"/>
	<path class="st1" d="M85.4,69.9c0,4.5-10.7,8.1-24,8.1c-13.3,0-24-3.6-24-8.1v-7.9h48V69.9z"/>
	<path class="st2" d="M85.4,61.5c0,4.5-10.7,8.1-24,8.1c-13.3,0-24-3.6-24-8.1c0-4.5,10.7-8.1,24-8.1C74.7,53.4,85.4,57,85.4,61.5"
		/>
	<ellipse class="st3" cx="61.4" cy="61.5" rx="24" ry="8.1"/>
	<path class="st0" d="M85.4,56.2c0,4.5-10.7,8.1-24,8.1c-13.3,0-24-3.6-24-8.1v-7.9h48V56.2z"/>
	<path class="st1" d="M85.4,56.2c0,4.5-10.7,8.1-24,8.1c-13.3,0-24-3.6-24-8.1v-7.9h48V56.2z"/>
	<path class="st2" d="M85.4,47.9c0,4.5-10.7,8.1-24,8.1c-13.3,0-24-3.6-24-8.1c0-4.5,10.7-8.1,24-8.1C74.7,39.7,85.4,43.4,85.4,47.9
		"/>
	<ellipse class="st3" cx="61.4" cy="47.9" rx="24" ry="8.1"/>
	<path class="st4" d="M104.3,83.4c0,10.3-8.3,18.6-18.6,18.6C75.4,102,67,93.7,67,83.4c0-10.3,8.3-18.6,18.6-18.6
		C96,64.7,104.3,73.1,104.3,83.4"/>
	<path class="st2" d="M90.1,85.9c1.1-1.2,1.7-2.7,1.7-4.3c0-3.5-2.8-6.4-6.4-6.4c-3.5,0-6.4,2.8-6.4,6.4c0,1.7,0.7,3.3,1.8,4.5
		c-1.9,0.9-3.5,2.3-4.6,4c-1.5-1.9-2.3-4.3-2.3-7c0-6.4,5.2-11.6,11.6-11.6c6.4,0,11.6,5.2,11.6,11.6c0,2.6-0.9,5-2.3,6.9
		C93.9,88.3,92.2,86.8,90.1,85.9 M86.9,94.7c-0.4,0-0.8,0.1-1.2,0.1c-0.3,0-0.6,0-0.8,0c-3.1-0.3-5.7-2-6.7-2.7
		c0.8-1.7,2.4-3.1,4.3-3.9c0.7-0.3,1.2-0.9,1.3-1.6c0.1-0.7-0.2-1.5-0.7-2c-0.9-0.7-1.4-1.8-1.4-3c0-2.1,1.7-3.8,3.8-3.8
		c2.1,0,3.8,1.7,3.8,3.8c0,1.1-0.5,2.2-1.3,2.9c-0.6,0.5-0.8,1.3-0.7,2s0.7,1.3,1.4,1.6c2,0.7,3.7,2.2,4.5,3.9
		c-0.5,0.4-1.2,0.9-2,1.4C89.9,94.1,88.4,94.6,86.9,94.7 M99.8,83.1c0-7.8-6.4-14.2-14.2-14.2c-7.8,0-14.2,6.4-14.2,14.2
		c0,3.7,1.4,7,3.7,9.5l0,0.1l0.6,0.5c0.1,0.1,0.3,0.3,0.5,0.4c2.3,2,5.2,3.3,8.3,3.5c0.3,0,0.7,0.1,1,0.1c0.5,0,0.9,0,1.4-0.1
		c0,0,0.1,0,0.1,0c2.1-0.2,3.8-0.8,5.1-1.5c0.2-0.1,0.4-0.2,0.6-0.4c0,0,0,0,0.1,0c0.8-0.5,1.6-1.1,2.3-1.7c0,0,0,0,0,0l0.9-0.8
		l0-0.1C98.4,90.2,99.8,86.8,99.8,83.1"/>
</g>
</svg>
