<?xml version="1.0" encoding="utf-8"?>
<!-- Generator: Adobe Illustrator 19.0.1, SVG Export Plug-In . SVG Version: 6.00 Build 0)  -->
<svg version="1.1" id="Слой_1" xmlns="http://www.w3.org/2000/svg" xmlns:xlink="http://www.w3.org/1999/xlink" x="0px" y="0px"
	 viewBox="30 35 81.7 71.7"  style="enable-background:new 0 0 141.7 141.7;" xml:space="preserve">
<style type="text/css">
	.st0{fill:#A2C2D4;}
	.st1{fill:none;stroke:#34679A;stroke-width:3;stroke-linejoin:round;stroke-miterlimit:10;}
	.st2{fill:#34679A;}
	.st3{fill:none;stroke:#34679A;stroke-width:3;stroke-miterlimit:10;}
	.st4{fill:#F8F4EF;}
</style>
<g>
	<path class="st0" d="M84.2,82.2c0,4.2-10.1,7.7-22.7,7.7c-12.5,0-22.7-3.4-22.7-7.7v-7.5h45.3V82.2z"/>
	<path class="st1" d="M84.2,82.2c0,4.2-10.1,7.7-22.7,7.7c-12.5,0-22.7-3.4-22.7-7.7v-7.5h45.3V82.2z"/>
	<path class="st2" d="M84.2,74.3c0,4.2-10.1,7.7-22.7,7.7c-12.5,0-22.7-3.4-22.7-7.7c0-4.2,10.1-7.7,22.7-7.7
		C74,66.6,84.2,70.1,84.2,74.3"/>
	<ellipse class="st3" cx="61.5" cy="74.3" rx="22.7" ry="7.7"/>
	<path class="st0" d="M84.2,69.9c0,4.2-10.1,7.7-22.7,7.7c-12.5,0-22.7-3.4-22.7-7.7v-7.5h45.3V69.9z"/>
	<path class="st1" d="M84.2,69.9c0,4.2-10.1,7.7-22.7,7.7c-12.5,0-22.7-3.4-22.7-7.7v-7.5h45.3V69.9z"/>
	<path class="st2" d="M84.2,61.9c0,4.2-10.1,7.7-22.7,7.7c-12.5,0-22.7-3.4-22.7-7.7c0-4.2,10.1-7.7,22.7-7.7
		C74,54.3,84.2,57.7,84.2,61.9"/>
	<ellipse class="st3" cx="61.5" cy="61.9" rx="22.7" ry="7.7"/>
	<path class="st0" d="M84.2,56.9c0,4.2-10.1,7.7-22.7,7.7c-12.5,0-22.7-3.4-22.7-7.7v-7.5h45.3V56.9z"/>
	<path class="st1" d="M84.2,56.9c0,4.2-10.1,7.7-22.7,7.7c-12.5,0-22.7-3.4-22.7-7.7v-7.5h45.3V56.9z"/>
	<path class="st2" d="M84.2,49c0,4.2-10.1,7.7-22.7,7.7c-12.5,0-22.7-3.4-22.7-7.7c0-4.2,10.1-7.7,22.7-7.7
		C74,41.3,84.2,44.7,84.2,49"/>
	<ellipse class="st3" cx="61.5" cy="49" rx="22.7" ry="7.7"/>
	<path class="st4" d="M102.9,82.7c0,9.8-7.9,17.7-17.7,17.7c-9.8,0-17.7-7.9-17.7-17.7c0-9.8,7.9-17.7,17.7-17.7
		C95,65,102.9,72.9,102.9,82.7"/>
	<path class="st2" d="M77.9,87.6c-0.9,0.3-1.5,0.7-2,1.2c-0.9-1.4-1.5-3.1-1.6-4.7h3.2C77.5,85.3,77.7,86.4,77.9,87.6 M84.2,79.1
		v2.5h-4.3c0.1-1,0.2-1.9,0.4-2.9C81.7,79,83.1,79.1,84.2,79.1 M77.4,74.8c0.7-0.7,1.5-1.3,2.3-1.8c-0.4,0.8-0.8,1.7-1.2,2.6
		C78,75.4,77.6,75.1,77.4,74.8 M74.2,81.6c0.2-1.7,0.7-3.3,1.6-4.7c0.5,0.5,1.2,0.9,2,1.2c-0.2,1.1-0.4,2.3-0.4,3.5H74.2z M84.2,89
		v4.9c-1.3-0.7-2.5-2.3-3.3-4.6C81.9,89.1,83,89,84.2,89 M79.9,84.1h4.3v2.4c-1.1,0-2.5,0.1-3.9,0.4C80.1,86,80,85,79.9,84.1
		 M78.5,90c0.3,1,0.7,1.8,1.2,2.6c-0.8-0.5-1.6-1.1-2.3-1.8C77.6,90.5,78,90.2,78.5,90 M81,76.3c0.8-2.3,2-3.9,3.3-4.6v4.9
		C83,76.6,81.9,76.5,81,76.3 M86.7,86.5v-2.4H91c-0.1,1-0.2,1.9-0.4,2.8C89.5,86.7,88.2,86.5,86.7,86.5 M93.6,90.8
		c-0.7,0.7-1.5,1.3-2.3,1.8c0.5-0.8,0.8-1.7,1.2-2.6C93,90.2,93.4,90.5,93.6,90.8 M96.7,84.1c-0.2,1.7-0.7,3.3-1.6,4.7
		c-0.5-0.5-1.2-0.9-2.1-1.2c0.2-1.1,0.4-2.3,0.4-3.5H96.7z M86.7,76.6v-4.9c1.3,0.7,2.5,2.3,3.3,4.6C89,76.5,87.9,76.6,86.7,76.6
		 M92.4,75.7c-0.3-1-0.7-1.8-1.2-2.6c0.8,0.5,1.6,1.1,2.3,1.8C93.4,75.1,93,75.4,92.4,75.7 M91,81.6h-4.3v-2.5
		c1.1,0,2.5-0.1,3.9-0.4C90.8,79.6,90.9,80.6,91,81.6 M96.7,81.6h-3.2c-0.1-1.2-0.2-2.4-0.4-3.5c0.9-0.3,1.5-0.7,2.1-1.2
		C96,78.3,96.5,79.9,96.7,81.6 M90,89.3c-0.8,2.3-2,3.9-3.3,4.6V89C87.9,89,89,89.1,90,89.3 M85.5,69c-7.6,0-13.8,6.2-13.8,13.9
		c0,7.6,6.2,13.9,13.8,13.9c7.6,0,13.8-6.2,13.8-13.9C99.3,75.2,93.1,69,85.5,69"/>
</g>
</svg>
