<?xml version="1.0" encoding="utf-8"?>
<!-- Generator: Adobe Illustrator 19.0.1, SVG Export Plug-In . SVG Version: 6.00 Build 0)  -->
<svg version="1.1" id="Слой_1" xmlns="http://www.w3.org/2000/svg" xmlns:xlink="http://www.w3.org/1999/xlink" x="0px" y="0px"
	 viewBox="35 35 243.5 61.7" style="enable-background:new 0 0 283.5 141.7;" xml:space="preserve">
<style type="text/css">
	.st0{fill:#F05124;}
	.st1{fill:#80BB41;}
	.st2{fill:#797979;}
	.st3{fill:#379FD9;}
	.st4{fill:#FDBA12;}
</style>
<g>
	<path class="st0" d="M40.8,50.9h20.3c0,6.8,0,13.6,0,20.3H40.8V50.9z"/>
	<path class="st1" d="M63.2,50.9h20.3c0,6.8,0,13.6,0,20.3c-6.8,0-13.6,0-20.3,0C63.2,64.5,63.2,57.7,63.2,50.9"/>
	<path class="st2" d="M130,58.9c0.9-0.1,1.8,0.2,2.4,0.9c0.7,0.8,0.8,2,0.3,2.9c-0.6,1-1.8,1.5-2.9,1.2c-1.1-0.2-2.1-1.3-2-2.5
		C127.8,60.2,128.8,59.1,130,58.9"/>
	<path class="st2" d="M96.3,59.5h6.4c2,5.1,4,10.1,6,15.2c0.5,1.3,1,2.5,1.5,3.8c2.6-6.3,5.2-12.6,7.7-18.9c2,0,4.1,0,6.2,0
		c0,8.6,0,17.1,0,25.7c-1.5,0-3,0-4.4,0c0-6.3,0-12.6,0-18.9c0-0.3,0-0.6,0-0.9c-0.1,0.1-0.2,0.3-0.2,0.4
		c-2.5,6.5-5.1,12.9-7.7,19.4c-1.1,0-2.1,0-3.2,0c-2.6-6.5-5.2-12.9-7.8-19.4c-0.1-0.1-0.1-0.3-0.2-0.4c-0.1,2.8,0,5.5,0,8.3
		c0,3.8,0,7.7,0,11.5c-1.4,0-2.8,0-4.2,0C96.3,76.6,96.3,68,96.3,59.5"/>
	<path class="st2" d="M142.1,66.7c2.1-0.6,4.4-0.6,6.5,0c0.4,0.1,0.9,0.3,1.3,0.5c0,1.4,0,2.8,0,4.2c-1.4-1.1-3.2-1.8-5-1.5
		c-1.4,0.1-2.8,0.9-3.7,2c-1.1,1.4-1.4,3.3-1.2,5.1c0.1,1.4,0.7,2.7,1.8,3.7c1.1,1,2.7,1.3,4.1,1.2c1.4-0.2,2.8-0.8,3.9-1.6
		c0,1.3,0,2.7,0,4c-1.8,1.1-4,1.3-6,1.2c-2.1-0.1-4.2-0.9-5.7-2.4c-1.7-1.6-2.6-3.9-2.7-6.2c-0.1-2.4,0.4-4.8,1.7-6.8
		C138.4,68.5,140.2,67.3,142.1,66.7"/>
	<path class="st2" d="M190.2,66.5c2-0.4,4.2-0.1,6.1,0.6c0,1.3,0,2.7,0,4c-1.3-0.9-3-1.4-4.6-1.4c-0.8,0-1.7,0.4-2.1,1.2
		c-0.3,0.8-0.1,1.8,0.6,2.3c1.2,0.8,2.7,1.2,4,1.9c1,0.6,2,1.3,2.5,2.4c1,2,0.6,4.7-1.1,6.2c-1.6,1.5-4,1.9-6.1,1.9
		c-1.5-0.1-3.1-0.4-4.5-1c0-1.4,0-2.8,0-4.3c1.2,0.9,2.5,1.5,4,1.7c1,0.2,2.1,0.2,3-0.3c0.9-0.4,1.1-1.7,0.5-2.5
		c-0.5-0.6-1.2-0.9-1.9-1.3c-1.3-0.6-2.7-1.1-3.8-1.9c-0.8-0.6-1.4-1.5-1.6-2.5c-0.4-1.5-0.2-3.1,0.6-4.4
		C186.8,67.7,188.5,66.8,190.2,66.5"/>
	<path class="st2" d="M159.7,67c1.2-0.7,2.8-0.8,4.1-0.3c0,1.5,0,2.9,0,4.4c-0.9-0.6-1.9-0.8-3-0.7c-1.2,0.1-2.2,1.1-2.8,2.2
		c-0.6,1.2-0.7,2.5-0.6,3.8c0,2.9,0,5.9,0,8.8h-4.3c0-6.1,0-12.3,0-18.4c1.4,0,2.9,0,4.3,0c0,1.1,0,2.1,0,3.2
		C157.9,68.8,158.6,67.7,159.7,67"/>
	<path class="st2" d="M128.2,66.8c1.5,0,2.9,0,4.4,0c0,6.1,0,12.2,0,18.4h-4.4C128.2,79,128.2,72.9,128.2,66.8"/>
	<path class="st2" d="M177.8,79.5c-0.4,0.9-1.2,1.7-2.2,2.1c-1.1,0.4-2.4,0.5-3.6,0.2c-1.2-0.3-2.2-1.2-2.8-2.3
		c-0.7-1.4-0.8-3-0.7-4.6c0.1-1.4,0.6-2.9,1.7-3.8c0.8-0.7,1.8-1.1,2.9-1.1c1.3-0.1,2.7,0.3,3.7,1.2c1,1,1.4,2.4,1.5,3.8
		C178.5,76.5,178.5,78.1,177.8,79.5 M182.1,71c-0.8-1.7-2.1-3.1-3.8-3.9c-2-0.9-4.2-1-6.3-0.7c-2.2,0.3-4.4,1.3-5.8,3.1
		c-1.3,1.6-1.9,3.6-2,5.6c-0.2,2.4,0.2,4.9,1.6,6.9c1.2,1.7,3.1,2.9,5.1,3.3c1.7,0.4,3.5,0.4,5.2,0c2-0.4,3.8-1.5,5-3.1
		c1.2-1.5,1.8-3.4,1.9-5.4C183.1,74.9,182.9,72.9,182.1,71"/>
	<path class="st2" d="M213.3,77.8c-0.2,1-0.5,1.9-1.1,2.7c-0.6,0.8-1.6,1.2-2.6,1.4c-1.1,0.2-2.2,0.1-3.1-0.3
		c-1.1-0.4-1.9-1.4-2.3-2.4c-0.5-1.3-0.6-2.7-0.5-4c0.1-1.3,0.5-2.6,1.3-3.7c0.8-0.9,2-1.5,3.2-1.5c1.2-0.1,2.6,0.2,3.5,1
		c0.9,0.7,1.4,1.8,1.6,2.9C213.5,75.2,213.5,76.5,213.3,77.8 M217.3,71.6c-0.7-1.8-2-3.4-3.8-4.3c-2-1-4.3-1.2-6.5-0.9
		c-1.8,0.2-3.5,0.9-4.9,2.1c-1.6,1.4-2.6,3.5-2.9,5.6c-0.3,2.1-0.2,4.4,0.7,6.4c0.8,2,2.5,3.6,4.5,4.3c2,0.8,4.1,0.9,6.2,0.5
		c2.1-0.3,4.1-1.5,5.4-3.2c1.4-1.8,2-4,2-6.3C218,74.5,217.8,73,217.3,71.6"/>
	<path class="st2" d="M241,70.3v-3.6c-1.5,0-2.9,0-4.4,0c0-1.8,0-3.7,0-5.5c-1.5,0.4-2.9,0.9-4.4,1.3c0,1.4,0,2.8,0,4.2
		c-2.1,0-4.3,0-6.4,0c0-1.1-0.1-2.2,0.1-3.3c0.1-0.9,0.6-1.7,1.5-2.1c1.1-0.4,2.2-0.1,3.2,0.3c0-1.3,0-2.5,0-3.8
		c-2.1-0.6-4.5-0.5-6.4,0.8c-1.2,0.8-2.1,2-2.5,3.4c-0.5,1.5-0.2,3.1-0.3,4.7c-1,0-2,0-3,0c0,1.2,0,2.4,0,3.5c1,0,2,0,3.1,0
		c0,4.9,0,9.9,0,14.8h4.4c0-4.9,0-9.9,0-14.8c2.1,0,4.3,0,6.4,0c0,3.2,0,6.3,0,9.5c0,1.5,0.3,3,1.2,4.2c0.8,1,2.2,1.5,3.5,1.6
		c1.4,0.1,2.8-0.1,4-0.6v-3.6c-1,0.6-2.3,0.9-3.3,0.3c-0.6-0.3-0.9-1.1-1-1.8c-0.1-1.1,0-2.3-0.1-3.4c0-2.1,0-4.1,0-6.2
		C238.1,70.3,239.5,70.3,241,70.3"/>
	<path class="st3" d="M40.8,73.4c6.8,0,13.6,0,20.3,0c0,6.8,0,13.6,0,20.3H40.8V73.4z"/>
	<path class="st4" d="M63.2,73.4c6.8,0,13.6,0,20.3,0v20.3H63.2C63.2,86.9,63.2,80.1,63.2,73.4"/>
</g>
</svg>
