<?xml version="1.0" encoding="utf-8"?>
<!-- Generator: Adobe Illustrator 19.0.1, SVG Export Plug-In . SVG Version: 6.00 Build 0)  -->
<svg version="1.1" id="Слой_1" xmlns="http://www.w3.org/2000/svg" xmlns:xlink="http://www.w3.org/1999/xlink" x="0px" y="0px"
	 viewBox="45 45 55.7 55.7" style="enable-background:new 0 0 141.7 141.7;" xml:space="preserve" width="76">
<style type="text/css">
	.st0{fill:#2BACE2;}
	.st1{fill:#FFFFFF;}
</style>
<g>
	<path class="st0" d="M70.8,95.6c13.3,0,24.1-10.8,24.1-24.1c0-13.3-10.8-24.1-24.1-24.1c-13.3,0-24.1,10.8-24.1,24.1
		C46.7,84.8,57.5,95.6,70.8,95.6"/>
	<path class="st1" d="M86.4,53.7c0.5,0,1,0.2,1.4,0.5C87.4,53.9,87,53.7,86.4,53.7L86.4,53.7z M84.1,54.4c-1.1,0.6-2.2,1.5-2.9,2.2
		C81.4,56.4,82.6,55.2,84.1,54.4 M55.9,58.9C55.9,58.9,55.9,59,55.9,58.9C55.9,59,55.9,58.9,55.9,58.9 M88.1,54.4
		c2,2.2-1.9,6.3-2.3,6.7C86.3,60.5,90.1,56.6,88.1,54.4 M52.9,62.1L52.9,62.1L52.9,62.1z M52.9,62.1C52.9,62.1,52.9,62.1,52.9,62.1
		C52.9,62.1,52.9,62.1,52.9,62.1 M52.9,62.1L52.9,62.1L52.9,62.1z M73.7,63.8l0.2,0.1l0.1-0.1C74,63.8,73.9,63.9,73.7,63.8
		 M78.4,68.4l0.1,0.2c0-0.1,0-0.2,0.1-0.3L78.4,68.4z M67.3,69.9c0.1,0.1,0.2,0.1,0.2,0.3c0,0.1,0,0.2-0.1,0.3l0.3-0.3L67.3,69.9z
		 M63.1,74.7c-0.1,0.1-0.1,0.1-0.2,0.1L63.1,74.7L63.1,74.7z M72.1,74.8C72.1,74.8,72.2,74.9,72.1,74.8c0.2,0,0.3,0.1,0.3,0.2
		l-0.2-0.4l-0.3,0.3C72,74.9,72,74.8,72.1,74.8 M56.9,75.2C56.9,75.2,56.8,75.2,56.9,75.2C56.8,75.2,56.9,75.2,56.9,75.2 M53.9,78.2
		c-0.1,0.1-0.1,0.2-0.1,0.3C53.8,78.4,53.8,78.3,53.9,78.2 M53.8,78.5c0,0.1,0.1,0.2,0.2,0.2C53.9,78.7,53.9,78.6,53.8,78.5
		 M67.5,79.3l0,0.1C67.5,79.4,67.5,79.3,67.5,79.3L67.5,79.3z M60.9,81.2c0.1,0,0.2,0.1,0.2,0.2l-0.1-0.1L60.9,81.2z M80.4,75.2
		l3.1,10.9c0,0,0,0.1,0,0.1c0,0,0-0.1,0-0.1L80.4,75.2z M63.6,88.3c0,0.1,0.1,0.1,0.2,0.2C63.7,88.5,63.7,88.4,63.6,88.3 M72.3,73.7
		C72.3,73.7,72.3,73.7,72.3,73.7c0.2,0,0.3,0.1,0.3,0.2l7.7,14.6l2.4-2.4l-5-17.7c0-0.1,0-0.3,0.1-0.3l7.4-7.4c0,0,4-4.1,2.3-5.8
		c-0.3-0.3-0.6-0.4-1.1-0.4c-1.5,0-3.6,1.6-4.7,2.7l-7.4,7.4c-0.1,0.1-0.2,0.1-0.3,0.1l-17.7-5L53.8,62l14.6,7.7
		c0.1,0.1,0.2,0.1,0.2,0.3c0,0.1,0,0.2-0.1,0.3l-5.1,5.1c-0.1,0.1-0.1,0.1-0.2,0.1l-6,0.4l-2.4,2.4l6.7,2.4c0.1,0,0.2,0.1,0.2,0.2
		l2.4,6.7l2.4-2.4l0.4-6c0-0.1,0-0.2,0.1-0.2l5.1-5.1C72.1,73.7,72.2,73.7,72.3,73.7 M63.9,88.5c0.1,0,0.2,0,0.2-0.1
		C64.1,88.5,64,88.5,63.9,88.5 M80.5,89.3c-0.1,0.1-0.1,0.1-0.2,0.1C80.3,89.4,80.4,89.4,80.5,89.3 M80.2,90.1
		C80.2,90.1,80.2,90.1,80.2,90.1l-0.1,0c-0.4-0.1-0.6-0.3-0.8-0.6L72,75.8l-3.9,3.9l-0.3,5.7c0,0.3-0.1,0.5-0.3,0.7l-2.9,2.9
		c-0.3,0.3-0.6,0.4-1,0.3c-0.4-0.1-0.6-0.3-0.8-0.7l-2.4-6.7l-6.7-2.4c-0.3-0.1-0.6-0.4-0.7-0.8c-0.1-0.4,0-0.7,0.3-1l2.9-2.9
		c0.2-0.2,0.4-0.3,0.7-0.3l5.7-0.3l3.9-3.9L52.8,63c-0.3-0.2-0.5-0.4-0.6-0.8c-0.1-0.3,0.1-0.7,0.3-0.9l2.9-2.9
		c0.3-0.3,0.7-0.4,1-0.3l17.3,4.9l7-7c0.3-0.3,3.2-3.1,5.7-3.1c0.8,0,1.5,0.3,2.1,0.8c2.7,2.7-1.8,7.3-2.3,7.8l-7,7l4.9,17.3
		c0.1,0.4,0,0.8-0.3,1L81,89.8C80.8,90,80.5,90.1,80.2,90.1"/>
	<path class="st1" d="M72.3,73.9l7.9,15l2.9-2.9l-5-17.9l7.4-7.4c0,0,4.3-4.3,2.3-6.3c-0.4-0.4-0.8-0.5-1.3-0.5h0
		c-1.7,0-4,1.9-5,2.8L74,64.2l-17.9-5L53.2,62l15,7.9L63.1,75L57,75.4l-2.9,2.9l7.2,2.6l2.6,7.2l2.9-2.9l0.4-6.1L72.3,73.9z
		 M80.2,89.7l-0.1,0c-0.2,0-0.4-0.2-0.5-0.4l-7.5-14.2l-4.3,4.3l-0.3,5.8c0,0.2-0.1,0.3-0.2,0.5l-2.9,2.9c-0.2,0.2-0.4,0.2-0.6,0.2
		c-0.2-0.1-0.4-0.2-0.5-0.4l-2.5-6.9l-6.9-2.5c-0.2-0.1-0.4-0.3-0.4-0.5c-0.1-0.2,0-0.5,0.2-0.6l2.9-2.9c0.1-0.1,0.3-0.2,0.5-0.2
		l5.8-0.3l4.3-4.3l-14.2-7.5c-0.2-0.1-0.3-0.3-0.4-0.5c0-0.2,0-0.4,0.2-0.6l2.9-2.9c0.2-0.2,0.4-0.2,0.7-0.2l17.5,4.9l7.1-7.1
		c0.3-0.3,3.1-3,5.5-3h0c0.7,0,1.3,0.2,1.8,0.7c2.4,2.4-1.8,6.8-2.3,7.3l-7.1,7.1l4.9,17.5c0.1,0.2,0,0.5-0.2,0.7l-2.9,2.9
		C80.5,89.6,80.4,89.7,80.2,89.7"/>
</g>
</svg>
