<?xml version="1.0" encoding="utf-8"?>
<!-- Generator: Adobe Illustrator 19.0.1, SVG Export Plug-In . SVG Version: 6.00 Build 0)  -->
<svg version="1.1" id="Слой_1" xmlns="http://www.w3.org/2000/svg" xmlns:xlink="http://www.w3.org/1999/xlink" x="0px" y="0px"
	 viewBox="45 45 55.7 55.7" style="enable-background:new 0 0 141.7 141.7;" xml:space="preserve">
<style type="text/css">
	.st0{fill:#2BACE2;}
	.st1{fill:#FFFFFF;}
</style>
<path class="st0" d="M70.6,96C83.9,96,94.7,85.3,94.7,72S83.9,47.9,70.6,47.9S46.6,58.7,46.6,72S57.3,96,70.6,96"/>
<path class="st1" d="M70.7,75.7l0.4,0.2c0.1,0.1,9.6,5.2,10.3,5.5c0.1,0.1,0.2,0.1,0.3,0c0.1,0,0.1-0.1,0.2-0.2l0.8-3.5
	c1.6-7,5.1-22,5.2-22.4c0,0,0,0,0,0c0,0,0,0,0,0l-13,4.6c-9.2,3.2-20.3,7.1-22.9,8.1l11.6,4.6c7.5-5,19.2-12.9,19.5-13.1
	c0,0,0.6-0.3,1,0.1s0,1.1-0.1,1.1c0,0-2.3,2.7-6.4,7.3c-3.3,3.7-6.5,7.3-6.5,7.3L70.7,75.7z M81.6,82.2c-0.2,0-0.3,0-0.5-0.1
	c-0.7-0.4-10.2-5.5-10.3-5.5L70,76.1c-0.1-0.1-0.2-0.1-0.2-0.2c0-0.1,0-0.2,0.1-0.3l0.6-0.7c0,0,3.3-3.7,6.5-7.3
	c4-4.6,5.7-6.4,6.3-7.2c0,0,0,0,0.1-0.1c0,0,0,0,0-0.1c0.1-0.1,0.1-0.1,0.1-0.2l0,0l0,0c-0.3,0.2-14.3,9.6-19.7,13.2
	c-0.1,0.1-0.2,0.1-0.3,0l-12.3-4.9c-0.1,0-0.2-0.1-0.2-0.1c-0.1,0-0.2-0.1-0.2-0.2c0-0.1,0-0.2,0.1-0.3c0.1-0.1,0.2-0.2,0.4-0.2
	c0.4-0.1,13.2-4.6,23.5-8.3l13-4.6c0.3-0.1,0.6-0.1,0.8,0.1c0.2,0.2,0.2,0.4,0.2,0.7C88.5,56,85,71,83.4,77.9l-0.8,3.5
	c-0.1,0.3-0.3,0.6-0.5,0.7C81.9,82.2,81.7,82.2,81.6,82.2 M69.4,76L81,82.2c0.3,0.2,0.7,0.2,1,0c0.3-0.1,0.5-0.4,0.6-0.8
	c0.2-0.9,5.9-25.3,6-25.9c0.1-0.4,0-0.7-0.2-0.9c-0.2-0.2-0.5-0.2-0.9-0.1l-13,4.6c-10.3,3.6-23.1,8.1-23.5,8.3
	c-0.3,0.1-0.5,0.3-0.5,0.5c0,0.1,0,0.4,0.5,0.6c0.8,0.3,7.8,3.1,7.8,3.1l4.7,1.9l0,0c0.6-0.4,12.1-8.1,17.3-11.6
	c0.1-0.1,0.3-0.1,0.5,0.1c0.1,0.1,0.1,0.3,0,0.5c-2.5,2.8-6.9,7.8-10.9,12.3l-0.1,0.1L69.4,76z M81.6,83c-0.3,0-0.6-0.1-0.9-0.2
	l-12-6.5c-0.1-0.1-0.2-0.1-0.2-0.2c0-0.1,0-0.2,0.1-0.3l1.3-1.4c0,0,0,0,0,0c0,0,0-0.1,0.1-0.1c3.1-3.5,6.5-7.4,9.1-10.2
	c-5.7,3.8-14.5,9.7-15,10.1l-0.2,0.1c-0.1,0.1-0.2,0.1-0.3,0l-4.9-1.9c-0.1,0-7-2.8-7.8-3.1c-0.9-0.4-1-1-1-1.2c0-0.5,0.4-1,1-1.2
	c0.4-0.1,13.2-4.6,23.5-8.3l13-4.6c0.6-0.2,1.2-0.1,1.6,0.2c0.4,0.4,0.6,0.9,0.4,1.5c-0.1,0.5-5.8,25-6,25.9c-0.1,0.6-0.5,1-1,1.3
	C82.1,83,81.8,83,81.6,83"/>
<path class="st1" d="M64.3,77.7l1.5,7.9l3.8-5.1L64.3,77.7z M65.6,86.7C65.6,86.7,65.6,86.7,65.6,86.7c-0.2,0-0.3-0.1-0.3-0.3
	l-1.8-9.3c0-0.1,0-0.3,0.1-0.3c0.1-0.1,0.3-0.1,0.4,0l6.4,3.3c0.1,0,0.2,0.1,0.2,0.2c0,0.1,0,0.2-0.1,0.3l-4.5,6
	C65.8,86.7,65.7,86.7,65.6,86.7 M63.2,76.2L63.2,76.2l2.1,11.1l0.1,0c0,0,0,0,0,0l5.4-7.2l0-0.1L63.2,76.2z M65.4,88.1
	c-0.1,0-0.1,0-0.2,0c-0.3-0.1-0.5-0.3-0.6-0.6l-2.2-11.1c-0.1-0.3,0.1-0.6,0.3-0.8c0.2-0.2,0.5-0.2,0.8-0.1l7.5,3.9
	c0.2,0.1,0.3,0.3,0.4,0.5s0,0.4-0.1,0.6L66,87.8C65.8,88,65.6,88.1,65.4,88.1"/>
<g>
	<path class="st1" d="M70.2,75.9l0.8,0.4c0.1,0.1,9.6,5.2,10.3,5.5c0.2,0.1,0.4,0.1,0.6,0c0.1-0.1,0.3-0.2,0.4-0.5
		c0.2-0.9,5.9-25.3,6-25.9c0-0.2,0-0.3-0.1-0.4c-0.1-0.1-0.2-0.1-0.4,0C87,55.4,51.9,67.8,51.3,68c-0.1,0-0.2,0.1-0.2,0.1
		c0,0,0.1,0.1,0.2,0.1l12.3,4.9c6.8-4.6,19.4-13,19.7-13.2l0.3-0.2l0.3,0.3c0.1,0.1,0.2,0.2-0.1,0.6l0,0c0,0-0.1,0-0.1,0.1
		c-0.6,0.8-2.2,2.6-6.3,7.2c-3.3,3.7-6.5,7.3-6.5,7.3L70.2,75.9z M81.6,82.8c-0.2,0-0.5-0.1-0.7-0.2l-12-6.5l1.3-1.4
		c0,0,0,0,0.1-0.1c3.9-4.4,8.4-9.4,10.9-12.3C75.9,65.9,64.4,73.6,63.8,74l-0.2,0.1l-4.9-1.9c-0.1,0-7-2.8-7.8-3.1
		c-0.7-0.3-0.7-0.7-0.7-0.9c0-0.4,0.3-0.7,0.8-0.9c0.7-0.2,35.8-12.6,36.5-12.9c0.5-0.2,0.9-0.1,1.2,0.2c0.3,0.3,0.4,0.7,0.3,1.2
		c-0.1,0.5-5.8,25-6,25.9c-0.1,0.5-0.4,0.8-0.8,1C82,82.7,81.8,82.8,81.6,82.8"/>
	<path class="st1" d="M63.8,77.1l1.8,9.3l4.5-6L63.8,77.1z M65.4,87.8C65.3,87.8,65.3,87.8,65.4,87.8c-0.2,0-0.4-0.2-0.4-0.3
		l-2.2-11.1c0-0.2,0-0.3,0.2-0.4c0.1-0.1,0.3-0.1,0.4,0l7.5,3.9c0.1,0.1,0.2,0.2,0.2,0.3c0,0.1,0,0.2-0.1,0.3l-5.4,7.2
		C65.6,87.8,65.5,87.8,65.4,87.8"/>
</g>
</svg>
