<?xml version="1.0" encoding="utf-8"?>
<!-- Generator: Adobe Illustrator 19.0.1, SVG Export Plug-In . SVG Version: 6.00 Build 0)  -->
<svg version="1.1" id="Слой_1" xmlns="http://www.w3.org/2000/svg" xmlns:xlink="http://www.w3.org/1999/xlink" x="0px" y="0px"
	 viewBox="00 50 283.5 51.7" style="enable-background:new 0 0 283.5 141.7;" xml:space="preserve" width="157">
<style type="text/css">
	.st0{fill:#2AABE2;}
</style>
<g>
	<path class="st0" d="M62.8,80.5l0.8,0.5c0.1,0.1,10.5,5.6,11.2,6c0.2,0.1,0.5,0.1,0.7,0c0.1-0.1,0.3-0.2,0.4-0.5
		c0.2-1,6.4-27.7,6.6-28.3c0-0.2,0-0.4-0.1-0.4c-0.1-0.1-0.3-0.1-0.5,0c-0.8,0.3-39.1,13.8-39.8,14C42,72,42,72,41.9,72
		c0,0,0.1,0.1,0.2,0.1l13.4,5.4c7.4-5,21.1-14.2,21.5-14.4l0.3-0.2l0.3,0.3c0.1,0.1,0.2,0.2-0.1,0.6l0,0c0,0-0.1,0-0.1,0.1
		c-0.6,0.8-2.4,2.8-6.9,7.9c-3.6,4-7.1,8-7.1,8L62.8,80.5z M75.3,88c-0.3,0-0.5-0.1-0.8-0.2l-13.1-7l1.4-1.6c0,0,0,0,0.1-0.1
		c4.3-4.8,9.2-10.3,11.9-13.4C69.1,69.6,56.6,78,55.9,78.4l-0.2,0.1l-5.3-2.1c-0.1,0-7.7-3.1-8.6-3.4c-0.7-0.3-0.8-0.8-0.8-1
		c0-0.4,0.3-0.8,0.8-1c0.8-0.3,39.1-13.8,39.8-14c0.5-0.2,1-0.1,1.4,0.2c0.3,0.3,0.5,0.8,0.3,1.3c-0.1,0.6-6.3,27.3-6.6,28.3
		c-0.1,0.5-0.4,0.9-0.9,1.1C75.7,88,75.5,88,75.3,88"/>
	<path class="st0" d="M63.4,80.4l0.4,0.2c0.1,0.1,10.5,5.6,11.2,6c0.1,0.1,0.2,0.1,0.3,0c0.1,0,0.1-0.1,0.2-0.2l0.9-3.8
		c1.8-7.6,5.6-24,5.7-24.4c0,0,0,0,0,0c0,0,0,0,0,0l-14.2,5c-10,3.5-22.1,7.8-25,8.8l12.6,5.1c8.1-5.5,21-14.1,21.3-14.3
		c0,0,0.6-0.4,1.1,0.1c0.5,0.5,0,1.2-0.1,1.2c0,0-2.5,2.9-6.9,7.9c-3.6,4-7.1,8-7.1,8L63.4,80.4z M75.3,87.5c-0.2,0-0.4,0-0.5-0.1
		c-0.7-0.4-11.1-6-11.2-6l-0.8-0.5c-0.1-0.1-0.2-0.2-0.2-0.3c0-0.1,0-0.2,0.1-0.3l0.6-0.7c0,0,3.6-4,7.1-8c4.4-5,6.2-7,6.8-7.9
		c0,0,0,0,0.1-0.1c0,0,0,0,0-0.1c0.1-0.1,0.1-0.1,0.1-0.2l0,0l-0.1,0c-0.3,0.2-15.6,10.5-21.5,14.4c-0.1,0.1-0.2,0.1-0.4,0L42,72.5
		c-0.1,0-0.2-0.1-0.2-0.1c-0.1,0-0.2-0.1-0.2-0.3c0-0.1,0-0.3,0.1-0.4c0.1-0.1,0.2-0.2,0.4-0.2c0.5-0.2,14.4-5.1,25.7-9l14.2-5
		c0.4-0.1,0.7-0.1,0.8,0.1c0.2,0.2,0.3,0.5,0.2,0.8c-0.1,0.5-3.9,16.8-5.7,24.4l-0.9,3.8c-0.1,0.3-0.3,0.6-0.6,0.8
		C75.6,87.5,75.4,87.5,75.3,87.5 M62,80.7l12.7,6.8c0.3,0.2,0.8,0.2,1.1,0c0.3-0.2,0.6-0.5,0.7-0.8c0.2-1,6.4-27.7,6.6-28.3
		c0.1-0.4,0-0.7-0.2-0.9c-0.2-0.2-0.6-0.2-1-0.1l-14.2,5c-11.3,4-25.2,8.9-25.7,9c-0.4,0.1-0.6,0.3-0.6,0.6c0,0.1,0,0.4,0.6,0.6
		c0.9,0.4,8.5,3.4,8.6,3.4l5.1,2l0,0c0.7-0.5,13.2-8.8,18.9-12.7c0.2-0.1,0.4-0.1,0.5,0.1c0.1,0.1,0.1,0.4,0,0.5
		c-2.7,3.1-7.6,8.6-11.9,13.4l-0.1,0.1h0L62,80.7z M75.3,88.4c-0.3,0-0.7-0.1-1-0.2l-13.1-7C61.1,81.1,61,81,61,80.8s0-0.2,0.1-0.3
		l1.4-1.6c0,0,0,0,0,0c0,0,0.1-0.1,0.1-0.1c3.4-3.8,7.1-8,9.9-11.2c-6.2,4.2-15.8,10.6-16.4,11l-0.2,0.1c-0.1,0.1-0.2,0.1-0.4,0
		l-5.3-2.1c-0.1,0-7.7-3.1-8.6-3.4c-1-0.4-1-1.1-1-1.3c0-0.6,0.4-1.1,1.1-1.3c0.5-0.2,14.4-5.1,25.7-9l14.2-5
		c0.7-0.2,1.3-0.1,1.7,0.3c0.4,0.4,0.6,1,0.5,1.7c-0.1,0.6-6.3,27.3-6.6,28.3c-0.1,0.6-0.5,1.1-1.1,1.4
		C75.8,88.3,75.6,88.4,75.3,88.4"/>
	<path class="st0" d="M55.8,81.8l2,10.2l5-6.6L55.8,81.8z M57.6,93.5C57.6,93.5,57.5,93.5,57.6,93.5c-0.3-0.1-0.4-0.2-0.4-0.4
		l-2.4-12.1c0-0.2,0-0.3,0.2-0.4c0.1-0.1,0.3-0.1,0.5,0l8.2,4.3c0.1,0.1,0.2,0.2,0.2,0.3c0,0.1,0,0.3-0.1,0.4l-5.9,7.8
		C57.9,93.5,57.7,93.5,57.6,93.5"/>
	<path class="st0" d="M56.4,82.5l1.7,8.6l4.2-5.5L56.4,82.5z M57.8,92.4C57.8,92.4,57.8,92.4,57.8,92.4c-0.2,0-0.3-0.2-0.4-0.3
		l-2-10.2c0-0.1,0-0.3,0.1-0.4c0.1-0.1,0.3-0.1,0.4,0l6.9,3.6c0.1,0.1,0.2,0.1,0.2,0.3c0,0.1,0,0.2-0.1,0.3l-5,6.6
		C58.1,92.3,58,92.4,57.8,92.4 M55.3,81L55.3,81l2.3,12.2l0.1,0.1c0,0,0,0,0.1,0l5.9-7.8l0-0.1L55.3,81z M57.6,93.9
		c-0.1,0-0.1,0-0.2,0c-0.3-0.1-0.6-0.3-0.6-0.6l-2.4-12.1c-0.1-0.3,0.1-0.6,0.3-0.8c0.3-0.2,0.6-0.2,0.9-0.1l8.2,4.3
		c0.2,0.1,0.4,0.3,0.4,0.6c0.1,0.2,0,0.5-0.1,0.7l-5.9,7.8C58.1,93.8,57.8,93.9,57.6,93.9"/>
	<path class="st0" d="M149.2,78.4l8.2,15.6l3-3l-5.2-18.6l7.7-7.7c0,0,4.4-4.5,2.4-6.6c-0.4-0.4-0.8-0.6-1.4-0.6
		c-1.8,0-4.2,1.9-5.2,2.9l-7.7,7.7L132.3,63l-3,3l15.6,8.2l-5.3,5.3l-6.3,0.4l-3,3l7.5,2.7l2.7,7.5l3-3l0.4-6.3L149.2,78.4z
		 M157.4,94.7l-0.1,0c-0.2,0-0.4-0.2-0.5-0.4L149,79.6l-4.5,4.5l-0.4,6.1c0,0.2-0.1,0.3-0.2,0.5l-3,3c-0.2,0.2-0.4,0.3-0.7,0.2
		c-0.2-0.1-0.4-0.2-0.5-0.5l-2.6-7.1l-7.1-2.6c-0.2-0.1-0.4-0.3-0.5-0.5c-0.1-0.2,0-0.5,0.2-0.7l3-3c0.1-0.1,0.3-0.2,0.5-0.2
		l6.1-0.4l4.5-4.5L129,66.6c-0.2-0.1-0.3-0.3-0.4-0.5c0-0.2,0-0.5,0.2-0.6l3-3c0.2-0.2,0.5-0.3,0.7-0.2l18.2,5.1l7.4-7.4
		c0.3-0.3,3.2-3.2,5.7-3.2c0.8,0,1.4,0.3,1.9,0.8c2.5,2.5-1.9,7.1-2.4,7.6l-7.4,7.4l5.1,18.2c0.1,0.3,0,0.5-0.2,0.7l-3,3
		C157.8,94.7,157.6,94.7,157.4,94.7"/>
	<path class="st0" d="M163.8,57.2c0.6,0,1.1,0.2,1.5,0.5C164.9,57.4,164.4,57.2,163.8,57.2 M161.4,58c-1.2,0.7-2.3,1.6-3,2.3
		C158.6,60.1,159.9,58.8,161.4,58 M132.1,62.7C132.1,62.7,132.1,62.7,132.1,62.7C132.1,62.7,132.1,62.7,132.1,62.7 M165.5,58
		c2.1,2.3-2,6.5-2.4,7C163.7,64.3,167.6,60.2,165.5,58 M129,66L129,66L129,66 M129,66L129,66L129,66z M150.6,67.8l0.2,0.1l0.1-0.1
		C150.9,67.8,150.8,67.8,150.6,67.8 M155.5,72.5l0.1,0.2c0-0.1,0-0.3,0.1-0.3L155.5,72.5z M143.9,74.1c0.1,0.1,0.2,0.2,0.2,0.3
		c0,0.1,0,0.2-0.1,0.3l0.3-0.3L143.9,74.1z M139.6,79.1c-0.1,0.1-0.1,0.1-0.2,0.1L139.6,79.1L139.6,79.1z M149,79.2
		C149,79.2,149,79.2,149,79.2c0.2,0,0.3,0.1,0.3,0.2l-0.2-0.4l-0.3,0.3C148.8,79.3,148.9,79.2,149,79.2 M133.1,79.6
		C133.1,79.6,133.1,79.6,133.1,79.6C133.1,79.6,133.1,79.6,133.1,79.6 M130,82.7c-0.1,0.1-0.1,0.2-0.1,0.3
		C129.9,82.9,130,82.8,130,82.7 M130,83c0,0.1,0.1,0.2,0.2,0.2C130.1,83.2,130,83.1,130,83 M144.2,83.9l0,0.1
		C144.2,83.9,144.2,83.8,144.2,83.9L144.2,83.9z M137.3,85.8c0.1,0,0.2,0.1,0.2,0.2l-0.1-0.2L137.3,85.8z M157.5,79.6l3.2,11.3
		c0,0,0,0.1,0,0.1c0,0,0-0.1,0-0.1L157.5,79.6z M140.1,93.2c0,0.1,0.1,0.1,0.2,0.2C140.3,93.4,140.2,93.3,140.1,93.2 M149.2,78
		C149.2,78,149.2,78,149.2,78c0.2,0,0.3,0.1,0.3,0.2l8,15.2l2.5-2.5l-5.2-18.4c0-0.1,0-0.3,0.1-0.4l7.7-7.7c0,0,4.2-4.3,2.4-6
		c-0.3-0.3-0.7-0.4-1.1-0.4c-1.5,0-3.8,1.7-4.9,2.8l-7.7,7.7c-0.1,0.1-0.2,0.1-0.4,0.1l-18.4-5.2l-2.5,2.5l15.2,8
		c0.1,0.1,0.2,0.2,0.2,0.3c0,0.1,0,0.2-0.1,0.3l-5.3,5.4c-0.1,0.1-0.1,0.1-0.2,0.1l-6.2,0.4l-2.5,2.5l6.9,2.5c0.1,0,0.2,0.1,0.2,0.2
		l2.5,6.9l2.5-2.5l0.4-6.2c0-0.1,0-0.2,0.1-0.2l5.3-5.3C149,78,149.1,78,149.2,78 M140.4,93.4c0.1,0,0.2,0,0.2-0.1
		C140.6,93.4,140.5,93.4,140.4,93.4 M157.6,94.3c-0.1,0.1-0.2,0.1-0.2,0.1C157.5,94.4,157.6,94.3,157.6,94.3 M157.4,95.1L157.4,95.1
		l-0.1,0c-0.4-0.1-0.7-0.3-0.8-0.6l-7.5-14.3l-4,4l-0.3,5.9c0,0.3-0.1,0.5-0.3,0.7l-3,3c-0.3,0.3-0.6,0.4-1,0.3
		c-0.4-0.1-0.7-0.3-0.8-0.7l-2.5-7l-7-2.5c-0.4-0.1-0.6-0.4-0.7-0.8c-0.1-0.4,0-0.7,0.3-1l3-3c0.2-0.2,0.4-0.3,0.7-0.3l5.9-0.3l4-4
		l-14.3-7.5c-0.3-0.2-0.5-0.5-0.6-0.8c-0.1-0.3,0.1-0.7,0.3-0.9l3-3c0.3-0.3,0.7-0.4,1.1-0.3l18,5.1l7.2-7.2c0.3-0.3,3.3-3.3,6-3.3
		c0.8,0,1.6,0.3,2.2,0.9c2.8,2.8-1.8,7.6-2.4,8.1l-7.2,7.2l5.1,18c0.1,0.4,0,0.8-0.3,1.1l-3,3C157.9,95,157.7,95.1,157.4,95.1"/>
	<path class="st0" d="M129.5,76.7c-0.2,0-0.4-0.1-0.6-0.2c-0.2-0.2-0.2-0.3-0.2-0.6c0-0.2,0.1-0.4,0.2-0.6l3.3-3.3
		c0.3-0.3,0.8-0.3,1.1,0c0.2,0.2,0.2,0.4,0.2,0.6s-0.1,0.4-0.2,0.6l-3.3,3.3C129.9,76.6,129.7,76.7,129.5,76.7"/>
	<path class="st0" d="M132.9,72.2c-0.1,0-0.2,0-0.3,0.1l-3.3,3.3c-0.1,0.1-0.1,0.2-0.1,0.3c0,0.1,0,0.2,0.1,0.3
		c0.2,0.2,0.4,0.2,0.6,0l3.3-3.3c0.1-0.1,0.1-0.2,0.1-0.3c0-0.1,0-0.2-0.1-0.3C133.1,72.2,133,72.2,132.9,72.2 M129.5,77.1
		c-0.3,0-0.6-0.1-0.8-0.3s-0.3-0.5-0.3-0.8c0-0.3,0.1-0.6,0.3-0.8l3.3-3.3c0.5-0.5,1.2-0.5,1.6,0c0.2,0.2,0.3,0.5,0.3,0.8
		c0,0.3-0.1,0.6-0.3,0.8l-3.3,3.3C130.1,77,129.8,77.1,129.5,77.1"/>
	<path class="st0" d="M147.3,94.5c-0.2,0-0.4-0.1-0.6-0.2c-0.2-0.2-0.2-0.4-0.2-0.6c0-0.2,0.1-0.4,0.2-0.6l3.3-3.3
		c0.3-0.3,0.8-0.3,1.1,0c0.2,0.2,0.2,0.4,0.2,0.6s-0.1,0.4-0.2,0.6l-3.3,3.3C147.7,94.4,147.5,94.5,147.3,94.5"/>
	<path class="st0" d="M150.6,89.9c-0.1,0-0.2,0-0.3,0.1l-3.3,3.3c-0.1,0.1-0.1,0.2-0.1,0.3s0,0.2,0.1,0.3c0.2,0.2,0.4,0.2,0.6,0
		l3.3-3.3c0.1-0.1,0.1-0.2,0.1-0.3c0-0.1,0-0.2-0.1-0.3C150.8,89.9,150.7,89.9,150.6,89.9 M147.3,94.8c-0.3,0-0.6-0.1-0.8-0.3
		s-0.3-0.5-0.3-0.8c0-0.3,0.1-0.6,0.3-0.8l3.3-3.3c0.5-0.5,1.2-0.5,1.6,0c0.2,0.2,0.3,0.5,0.3,0.8c0,0.3-0.1,0.6-0.3,0.8l-3.3,3.3
		C147.9,94.7,147.6,94.8,147.3,94.8"/>
	<path class="st0" d="M236.7,67.4c1,1,2.8,1,3.8,0c1-1,1-2.7,0-3.8c-1-1-2.8-1-3.8,0C235.7,64.7,235.7,66.4,236.7,67.4 M238.6,68.9
		c-0.9,0-1.8-0.4-2.4-1c-1.3-1.3-1.3-3.4,0-4.7c0.6-0.6,1.5-1,2.4-1c0.9,0,1.8,0.4,2.4,1c1.3,1.3,1.3,3.4,0,4.7
		C240.4,68.5,239.5,68.9,238.6,68.9 M219.3,79.3l5.5,5.4l-1.7,4.4c-0.2,0.6-0.2,1.1,0.1,1.4c0.2,0.2,0.7,0.2,1.3,0
		c1.2-0.5,2.2-0.9,3.1-1.3c6.4-2.6,7.3-2.9,6.5-10.1l0-0.2l0.2-0.1c0.1-0.1,13.8-9.8,12.3-20.6c0-0.1-0.1-0.3-0.1-0.3
		c-0.1-0.1-0.2-0.1-0.3-0.1c-11-1.5-20.7,12-20.8,12.2l-0.1,0.2l-0.2,0c-7.2-0.8-7.6,0.1-10.2,6.4c-0.4,0.9-0.8,2-1.3,3.1
		c-0.3,0.6-0.3,1.1,0,1.3c0.3,0.3,0.8,0.3,1.4,0.1L219.3,79.3z M223.6,91.3c-0.5,0-0.8-0.2-1-0.3c-0.5-0.4-0.6-1.3-0.3-2.1l1.5-4
		l-4.8-4.8l-4,1.5c-0.9,0.3-1.7,0.2-2.1-0.2c-0.3-0.3-0.6-0.9-0.1-2.1c0.5-1.1,0.9-2.2,1.3-3.1c2.6-6.4,3.2-7.7,10.7-6.9
		c0.6-0.7,2.9-3.8,6.3-6.6c5.2-4.4,10.4-6.3,15.1-5.7c0.3,0,0.5,0.2,0.7,0.3c0.2,0.2,0.3,0.4,0.3,0.7c0.6,4.7-1.3,9.8-5.7,15
		c-2.9,3.4-6,5.7-6.7,6.2c0.9,7.5-0.5,8-7,10.6c-0.9,0.4-2,0.8-3.1,1.3C224.3,91.3,223.9,91.3,223.6,91.3"/>
	<path class="st0" d="M238.6,62.5c-0.8,0-1.6,0.3-2.1,0.9C237,62.9,237.8,62.6,238.6,62.5c0.8,0,1.6,0.3,2.1,0.9
		C240.2,62.8,239.4,62.5,238.6,62.5 M241.1,63.8c0.8,1.1,0.8,2.7-0.2,3.7C241.8,66.5,241.9,64.9,241.1,63.8 M238.6,63.2
		c-0.6,0-1.2,0.2-1.6,0.6c-0.9,0.9-0.9,2.4,0,3.3c0.4,0.4,1,0.6,1.6,0.6c0.6,0,1.2-0.2,1.6-0.6c0.9-0.9,0.9-2.4,0-3.3
		C239.8,63.5,239.2,63.2,238.6,63.2 M235.7,66.6c0.1,0.4,0.4,0.8,0.7,1.1c0.6,0.6,1.3,0.9,2.1,0.9c0.8,0,1.6-0.3,2.1-0.9
		c-0.5,0.5-1.3,0.8-2.1,0.8c-0.8,0-1.6-0.3-2.1-0.9C236.1,67.3,235.9,67,235.7,66.6 M238.6,69.2c-1,0-2-0.4-2.7-1.1
		c-1.5-1.4-1.5-3.8,0-5.2c0.7-0.7,1.7-1.1,2.7-1.1c1,0,2,0.4,2.7,1.1c1.5,1.4,1.5,3.8,0,5.2C240.6,68.8,239.6,69.2,238.6,69.2
		 M246.7,57.5c0,0,0.1,0.1,0.1,0.1C246.8,57.6,246.7,57.6,246.7,57.5 M224.8,69.6c0.1,0,0.1,0,0.2,0c0.1-0.1,8.1-11.1,17.7-12.3
		c-3.6,0.5-7.5,2.4-11.3,5.6c-3.3,2.8-5.6,5.7-6.2,6.6C225,69.6,224.9,69.6,224.8,69.6 M221.4,69.4c-4.2,0-4.9,1.7-7,6.9
		c0,0.1-0.1,0.2-0.1,0.2c0-0.1,0.1-0.1,0.1-0.2c2.4-5.9,3-7.3,8.9-6.8C222.6,69.4,222,69.4,221.4,69.4 M234.4,79c0,0.1,0,0.1,0,0.2
		c0-0.1,0-0.2,0.1-0.3c0.8-0.6,3.8-2.9,6.7-6.2c2.7-3.2,4.5-6.4,5.3-9.5C244.3,72,234.6,78.9,234.4,79 M213.2,79.2
		c0,0.1-0.1,0.1-0.1,0.2c0,0,0,0,0,0.1c0,0,0,0,0-0.1C213.1,79.3,213.2,79.2,213.2,79.2 M219.1,79.7c0.1,0,0.2,0,0.2,0.1L219.1,79.7
		l-0.1,0C219,79.7,219,79.7,219.1,79.7 M213.1,81.1C213.1,81.1,213.2,81.1,213.1,81.1c0.4,0.4,1,0.4,1.8,0.2l1.1-0.4l-1.1,0.4
		C214.2,81.5,213.5,81.4,213.1,81.1C213.2,81.1,213.1,81.1,213.1,81.1 M224.2,84.6c0.1,0.1,0.1,0.2,0.1,0.3l0.1-0.2L224.2,84.6z
		 M219.3,78.9c0.1,0,0.2,0,0.3,0.1l5.5,5.4c0.1,0.1,0.1,0.2,0.1,0.4l-1.7,4.4c-0.2,0.5-0.1,0.9,0,1c0.1,0.1,0.4,0.1,0.9-0.1
		c1.2-0.5,2.2-0.9,3.1-1.3c6.3-2.5,7.1-2.8,6.3-9.7l0-0.2c0-0.1,0-0.2,0.1-0.3l0.2-0.1c0.1-0.1,13.6-9.7,12.2-20.3
		c0-0.1,0-0.1,0-0.1c0,0,0,0-0.1,0c-10.7-1.5-20.4,11.9-20.5,12l-0.1,0.2c-0.1,0.1-0.2,0.2-0.3,0.1l-0.2,0c-6.9-0.8-7.3,0-9.8,6.2
		c-0.4,1-0.8,2-1.3,3.1c-0.2,0.5-0.2,0.8-0.1,0.9c0.1,0.1,0.5,0.2,1,0l4.5-1.6C219.2,78.9,219.2,78.9,219.3,78.9 M234.6,80.2
		c0.6,6.3-0.8,6.8-6.8,9.3c-0.9,0.4-2,0.8-3.1,1.3c-0.1,0-0.2,0.1-0.2,0.1c0.1,0,0.1-0.1,0.2-0.1c1.2-0.5,2.2-0.9,3.1-1.3
		C233.8,87,235.2,86.5,234.6,80.2 M222.6,90.1c0,0.3,0.2,0.5,0.3,0.7c0.1,0.1,0.4,0.2,0.7,0.2h0c-0.4,0-0.6-0.1-0.7-0.2
		C222.7,90.6,222.6,90.3,222.6,90.1 M223.6,91.7c-0.6,0-1-0.2-1.2-0.4c-0.6-0.5-0.7-1.5-0.4-2.5l1.4-3.8l-4.5-4.4l-3.8,1.4
		c-1,0.4-2,0.2-2.5-0.3c-0.3-0.3-0.8-1.1-0.2-2.4c0.5-1.1,0.9-2.2,1.3-3.1c2.6-6.4,3.3-8,10.9-7.1c0.8-1,3-3.8,6.2-6.5
		c5.2-4.4,10.6-6.4,15.4-5.8c0.4,0.1,0.7,0.2,0.9,0.4c0.2,0.2,0.4,0.6,0.4,0.9c0.7,4.8-1.3,10-5.8,15.2c-2.7,3.2-5.6,5.4-6.6,6.2
		c0.8,7.6-0.7,8.2-7.2,10.8c-0.9,0.4-2,0.8-3.1,1.3C224.4,91.6,224,91.7,223.6,91.7"/>
	<path class="st0" d="M213.8,85.7c-1.5,1.1-3.7,3.5-3.6,7.6c1.6-1.1,2.4-1.3,3.3-1.5c0.6-0.1,1.3-0.3,2.3-0.8
		c1.1-0.5,1.8-1.4,2.3-2.1c-1.3,0.6-3.4,1.4-5.2,1.4c-0.1,0-0.2,0-0.3-0.1c-0.1-0.1-0.1-0.2-0.1-0.2
		C212.5,88.6,213.2,86.9,213.8,85.7 M209.9,94.3c0,0-0.1,0-0.1,0c-0.1-0.1-0.2-0.2-0.2-0.3c-0.6-6.8,5.1-9.7,5.2-9.7
		c0.1-0.1,0.3,0,0.4,0.1c0.1,0.1,0.1,0.3,0,0.4c0,0-1.8,2.7-2,4.9c2.5-0.2,5.5-1.8,5.6-1.8c0.1-0.1,0.3-0.1,0.4,0
		c0.1,0.1,0.2,0.3,0.1,0.4c0,0.1-1.1,2.4-3.2,3.4c-1.1,0.5-1.8,0.7-2.4,0.8c-0.9,0.2-1.7,0.4-3.5,1.7
		C210.1,94.3,210,94.3,209.9,94.3"/>
	<path class="st0" d="M213.8,85.4c0.1,0,0.2,0,0.2,0.1c0.1,0.1,0.2,0.3,0.1,0.4c-0.5,1-1.1,2.4-1.3,3.7c0.2-2.3,2-4.9,2-4.9
		c0,0-0.5,0.3-1.2,0.8C213.7,85.4,213.8,85.4,213.8,85.4 M218.1,88.7c0.1,0,0.2,0,0.3,0.1c0.1,0.1,0.1,0.3,0,0.4
		c-0.5,0.7-1.3,1.6-2.4,2.2c-0.1,0-0.2,0.1-0.2,0.1c0.1,0,0.1-0.1,0.2-0.1c2-1,3-3.1,3-3.2c-0.1,0.1-3.2,1.7-5.7,1.9
		c-0.1,0-0.2,0-0.3-0.1c-0.1-0.1-0.1-0.2-0.1-0.3c0,0.1,0,0.3,0,0.4c1.8,0,3.9-0.9,5.1-1.4C218,88.7,218,88.7,218.1,88.7
		 M213.9,92.1c-0.1,0-0.2,0.1-0.4,0.1c-0.1,0-0.2,0-0.2,0.1c0.1,0,0.1,0,0.2,0C213.7,92.2,213.8,92.1,213.9,92.1 M212.7,87.2
		c-1,1.2-2,3-2.1,5.4c1.3-0.8,2-1,2.8-1.1c0.6-0.1,1.2-0.3,2.2-0.7c0.5-0.2,0.9-0.5,1.3-0.9c-1.2,0.5-2.7,0.9-4,0.9h0
		c-0.2,0-0.4-0.1-0.5-0.2c-0.1-0.1-0.2-0.3-0.2-0.5C212.1,89.2,212.4,88.2,212.7,87.2 M209.9,93.4c0,0.2,0,0.4,0,0.6
		c0.2-0.1,0.4-0.3,0.5-0.4c-0.1,0.1-0.2,0.1-0.4,0C209.9,93.6,209.9,93.5,209.9,93.4 M209.9,94.7c-0.1,0-0.2,0-0.3-0.1
		c-0.2-0.1-0.4-0.3-0.4-0.6c-0.6-7.1,5.3-10,5.4-10c0.3-0.1,0.6-0.1,0.9,0.2c0.2,0.2,0.2,0.6,0.1,0.8c0,0-1.5,2.3-1.9,4.3
		c2.3-0.3,4.9-1.7,5-1.7c0.3-0.1,0.6-0.1,0.8,0.1c0.2,0.2,0.3,0.5,0.2,0.8c0,0.1-1.1,2.5-3.4,3.5c-1.1,0.5-1.9,0.7-2.5,0.8
		c-0.9,0.2-1.6,0.4-3.4,1.7C210.2,94.6,210.1,94.7,209.9,94.7"/>
</g>
</svg>
