<?xml version="1.0" encoding="utf-8"?>
<!-- Generator: Adobe Illustrator 19.0.1, SVG Export Plug-In . SVG Version: 6.00 Build 0)  -->
<svg version="1.1" id="Слой_1" xmlns="http://www.w3.org/2000/svg" xmlns:xlink="http://www.w3.org/1999/xlink" x="0px" y="0px"
	 viewBox="45 45 55.7 55.7" style="enable-background:new 0 0 141.7 141.7;" xml:space="preserve">
<style type="text/css">
	.st0{fill:#2BACE2;}
	.st1{fill:#FFFFFF;}
</style>
<g>
	<path class="st0" d="M71.2,95.5c13.3,0,24.1-10.8,24.1-24.1c0-13.3-10.8-24.1-24.1-24.1c-13.3,0-24.1,10.8-24.1,24.1
		C47.1,84.7,57.9,95.5,71.2,95.5"/>
	<path class="st1" d="M81,58.3c-0.8,0-1.5,0.3-2.1,0.9C79.5,58.6,80.3,58.3,81,58.3c0.8,0,1.5,0.3,2.1,0.9
		C82.5,58.6,81.8,58.3,81,58.3 M83.4,59.6c0.8,1.1,0.7,2.7-0.2,3.8C84.2,62.3,84.2,60.7,83.4,59.6 M83.3,63.3L83.3,63.3z M81,59
		c-0.6,0-1.2,0.2-1.6,0.6c-0.9,0.9-0.9,2.4,0,3.3c0.4,0.4,1,0.7,1.6,0.7h0c0.6,0,1.2-0.2,1.6-0.7c0.9-0.9,0.9-2.4,0-3.3
		C82.2,59.3,81.6,59,81,59 M78.3,62.4c0.1,0.4,0.4,0.8,0.7,1.1c0.6,0.6,1.3,0.9,2.1,0.9c0.8,0,1.5-0.3,2.1-0.9
		c-0.5,0.5-1.3,0.8-2.1,0.8h0c-0.8,0-1.6-0.3-2.1-0.9h0C78.6,63.1,78.4,62.8,78.3,62.4 M81,65.1c-1,0-1.9-0.4-2.6-1.1
		c-1.4-1.4-1.4-3.8,0-5.3c0.7-0.7,1.6-1.1,2.6-1.1c1,0,1.9,0.4,2.6,1.1c1.4,1.5,1.4,3.8,0,5.3C82.9,64.7,82,65.1,81,65.1 M88.9,53.3
		c0,0,0.1,0.1,0.1,0.1C89,53.4,88.9,53.3,88.9,53.3 M67.6,65.4c0.1,0,0.1,0,0.2,0c0.1-0.1,7.8-11.1,17.2-12.4
		c-3.5,0.5-7.3,2.4-11,5.6c-3.2,2.8-5.5,5.8-6.1,6.6C67.8,65.4,67.7,65.4,67.6,65.4L67.6,65.4L67.6,65.4z M64.3,65.2
		c-4.1,0-4.7,1.7-6.8,6.9c0,0.1-0.1,0.2-0.1,0.2c0-0.1,0.1-0.1,0.1-0.2c2.3-5.9,2.9-7.4,8.7-6.9C65.5,65.2,64.9,65.2,64.3,65.2
		 M77,74.9c0,0.1,0,0.1,0,0.2c0-0.1,0-0.2,0.1-0.3c0.8-0.6,3.7-2.9,6.5-6.2c2.7-3.2,4.4-6.4,5.2-9.5C86.6,67.8,77.1,74.8,77,74.9z
		 M56.3,75.1c0,0.1-0.1,0.1-0.1,0.2c0,0,0,0,0,0.1c0,0,0,0,0-0.1C56.3,75.2,56.3,75.1,56.3,75.1 M62,75.6c0.1,0,0.2,0,0.2,0.1
		L62,75.6l-0.1,0C62,75.6,62,75.6,62,75.6 M56.3,76.9C56.3,76.9,56.3,77,56.3,76.9c0.4,0.4,1,0.4,1.7,0.2l1.1-0.4L58,77.1
		C57.3,77.4,56.6,77.3,56.3,76.9C56.3,77,56.3,76.9,56.3,76.9 M67,80.5c0.1,0.1,0.1,0.2,0.1,0.4l0.1-0.2L67,80.5z M62.2,74.8
		c0.1,0,0.2,0,0.3,0.1l5.3,5.4c0.1,0.1,0.1,0.2,0.1,0.4l-1.6,4.5c-0.2,0.5-0.1,0.9,0,1c0.1,0.1,0.4,0.1,0.9-0.1
		c1.1-0.5,2.2-0.9,3.1-1.3c6.1-2.5,6.9-2.9,6.1-9.8l0-0.2c0-0.1,0-0.3,0.1-0.3l0.2-0.1c0.1-0.1,13.3-9.7,11.8-20.4
		c0-0.1,0-0.1,0-0.1c0,0,0,0-0.1,0c-10.4-1.5-19.8,12-19.9,12.1L68.2,66c-0.1,0.1-0.2,0.2-0.3,0.1l-0.2,0c-6.7-0.8-7.1,0-9.5,6.2
		c-0.4,1-0.8,2-1.3,3.1c-0.2,0.5-0.2,0.8-0.1,0.9c0.1,0.1,0.5,0.2,0.9,0l4.4-1.6C62.1,74.8,62.2,74.8,62.2,74.8 M77.1,76.1
		c0.6,6.3-0.7,6.9-6.7,9.3c-0.9,0.4-1.9,0.8-3.1,1.3c-0.1,0-0.1,0.1-0.2,0.1c0.1,0,0.1-0.1,0.2-0.1c1.1-0.5,2.1-0.9,3-1.3
		C76.4,82.9,77.7,82.4,77.1,76.1 M65.5,86c0,0.3,0.1,0.5,0.3,0.7c0.1,0.1,0.3,0.3,0.7,0.3h0c-0.4,0-0.6-0.1-0.7-0.3
		C65.6,86.5,65.5,86.3,65.5,86 M66.5,87.6c-0.6,0-1-0.2-1.2-0.4c-0.6-0.5-0.7-1.5-0.4-2.5l1.4-3.8L62,76.4l-3.7,1.4
		c-1,0.4-1.9,0.2-2.5-0.3c-0.3-0.3-0.8-1.1-0.2-2.5c0.5-1.2,0.9-2.2,1.3-3.1c2.5-6.4,3.2-8,10.6-7.2c0.8-1,3-3.9,6.1-6.6
		c5.1-4.4,10.3-6.4,15-5.8c0.4,0.1,0.7,0.2,0.9,0.4c0.2,0.3,0.4,0.6,0.4,0.9c0.6,4.8-1.3,10.1-5.7,15.3c-2.6,3.2-5.4,5.4-6.4,6.2
		c0.8,7.6-0.7,8.2-7,10.8c-0.9,0.4-1.9,0.8-3,1.3C67.3,87.5,66.9,87.6,66.5,87.6"/>
	<path class="st1" d="M56.9,81.3c0.1,0,0.2,0,0.2,0.1c0.1,0.1,0.2,0.3,0.1,0.4c-0.5,1-1.1,2.4-1.2,3.7c0.2-2.3,1.9-4.9,2-4.9
		c0,0-0.5,0.3-1.1,0.8C56.9,81.3,56.9,81.3,56.9,81.3 M61.1,84.6c0.1,0,0.2,0,0.3,0.1c0.1,0.1,0.1,0.3,0,0.4
		c-0.5,0.7-1.3,1.7-2.4,2.2c-0.1,0-0.1,0.1-0.2,0.1c0.1,0,0.1-0.1,0.2-0.1c2-1,2.9-3.1,3-3.2c-0.1,0.1-3.1,1.7-5.6,1.9
		c-0.1,0-0.2,0-0.3-0.1C56,85.8,56,85.7,56,85.6c0,0.1,0,0.3,0,0.4c1.7,0,3.8-0.9,4.9-1.4C61,84.6,61,84.6,61.1,84.6 M57,88.1
		c-0.1,0-0.2,0.1-0.4,0.1c-0.1,0-0.1,0-0.2,0.1c0.1,0,0.1,0,0.2-0.1C56.8,88.1,56.9,88.1,57,88.1 M55.9,83.2c-1,1.2-2,3-2.1,5.4
		c1.2-0.8,2-1,2.7-1.2c0.6-0.1,1.2-0.3,2.1-0.7c0.5-0.2,0.9-0.5,1.2-0.9c-1.2,0.5-2.6,0.9-3.9,0.9h0c-0.2,0-0.4-0.1-0.5-0.2
		c-0.1-0.1-0.2-0.3-0.2-0.5C55.3,85.1,55.5,84.1,55.9,83.2 M53.1,89.3c0,0.2,0,0.4,0,0.6c0.2-0.1,0.3-0.3,0.5-0.4
		c-0.1,0.1-0.2,0.1-0.3,0C53.2,89.5,53.1,89.4,53.1,89.3 M53.1,90.7c-0.1,0-0.2,0-0.3-0.1c-0.2-0.1-0.4-0.3-0.4-0.6
		c-0.6-7.1,5.2-10.1,5.2-10.1c0.3-0.1,0.6-0.1,0.8,0.2c0.2,0.2,0.2,0.6,0.1,0.8c0,0-1.5,2.3-1.8,4.3c2.2-0.3,4.7-1.7,4.9-1.7
		c0.3-0.1,0.6-0.1,0.8,0.1c0.2,0.2,0.3,0.5,0.2,0.8c0,0.1-1.1,2.5-3.3,3.6c-1.1,0.5-1.8,0.7-2.4,0.8c-0.9,0.2-1.6,0.4-3.3,1.7
		C53.4,90.6,53.3,90.7,53.1,90.7"/>
	<path class="st1" d="M79.2,63.2c1,1,2.7,1,3.7,0c1-1,1-2.7,0-3.8c-1-1-2.7-1-3.7,0C78.2,60.5,78.2,62.2,79.2,63.2L79.2,63.2z
		 M81,64.7c-0.9,0-1.7-0.4-2.3-1c-1.3-1.3-1.3-3.5,0-4.8c0.6-0.6,1.5-1,2.3-1c0.9,0,1.7,0.4,2.3,1c1.3,1.3,1.3,3.5,0,4.8
		C82.8,64.3,81.9,64.7,81,64.7 M62.2,75.1l5.3,5.4L65.9,85c-0.2,0.6-0.2,1.1,0.1,1.4c0.2,0.2,0.7,0.2,1.3,0c1.1-0.5,2.1-0.9,3.1-1.3
		c6.2-2.6,7.1-3,6.3-10.2l0-0.2l0.2-0.1c0.1-0.1,13.4-9.8,12-20.8c0-0.1-0.1-0.3-0.1-0.3c-0.1-0.1-0.2-0.1-0.3-0.1
		c-10.7-1.5-20.2,12.1-20.3,12.3l-0.1,0.2l-0.2,0c-7-0.8-7.4,0.1-9.9,6.5c-0.4,0.9-0.8,2-1.3,3.1c-0.3,0.6-0.3,1.1,0,1.3
		c0.2,0.3,0.8,0.3,1.3,0.1L62.2,75.1z M66.5,87.3c-0.5,0-0.8-0.2-0.9-0.3c-0.5-0.4-0.6-1.3-0.3-2.1l1.5-4L62,76l-3.9,1.5
		c-0.8,0.3-1.6,0.2-2.1-0.2c-0.3-0.3-0.6-0.9-0.1-2.1c0.5-1.2,0.9-2.2,1.3-3.1c2.5-6.4,3.1-7.8,10.4-6.9c0.5-0.8,2.8-3.8,6.1-6.7
		c5-4.4,10.1-6.4,14.7-5.7c0.3,0,0.5,0.1,0.7,0.3c0.2,0.2,0.3,0.4,0.3,0.7c0.6,4.7-1.3,9.9-5.6,15c-2.8,3.4-5.8,5.7-6.5,6.3
		c0.8,7.5-0.5,8.1-6.8,10.7c-0.9,0.4-1.9,0.8-3,1.3C67.1,87.2,66.8,87.3,66.5,87.3"/>
	<path class="st1" d="M56.9,81.6c-1.4,1.1-3.6,3.6-3.5,7.6c1.5-1.1,2.3-1.3,3.2-1.5c0.6-0.1,1.2-0.3,2.2-0.8c1-0.5,1.8-1.4,2.2-2.1
		c-1.2,0.6-3.3,1.4-5.1,1.4c-0.1,0-0.2,0-0.3-0.1s-0.1-0.2-0.1-0.2C55.6,84.5,56.3,82.8,56.9,81.6 M53.1,90.3c0,0-0.1,0-0.1,0
		c-0.1-0.1-0.2-0.2-0.2-0.3c-0.6-6.9,5-9.7,5-9.8c0.1-0.1,0.3,0,0.4,0.1c0.1,0.1,0.1,0.3,0,0.4c0,0-1.8,2.7-1.9,4.9
		c2.4-0.2,5.4-1.8,5.4-1.8c0.1-0.1,0.3-0.1,0.4,0s0.1,0.3,0.1,0.4c0,0.1-1,2.4-3.1,3.4c-1.1,0.5-1.8,0.7-2.4,0.8
		c-0.9,0.2-1.6,0.4-3.4,1.7C53.3,90.3,53.2,90.3,53.1,90.3"/>
</g>
</svg>
