<?xml version="1.0" encoding="utf-8"?>
<!-- Generator: Adobe Illustrator 19.0.1, SVG Export Plug-In . SVG Version: 6.00 Build 0)  -->
<svg version="1.1" id="Слой_1" xmlns="http://www.w3.org/2000/svg" xmlns:xlink="http://www.w3.org/1999/xlink" x="0px" y="0px"
	 viewBox="30 30 243.5 81.7" style="enable-background:new 0 0 283.5 141.7;" xml:space="preserve">
<style type="text/css">
	.st0{clip-path:url(#SVGID_2_);fill:#2BACE2;}
	.st1{clip-path:url(#SVGID_4_);fill:#2BACE2;}
	.st2{clip-path:url(#SVGID_6_);fill:#2BACE2;}
</style>
<g>
	<g>
		<defs>
			<rect id="SVGID_1_" x="34.8" y="32.3" width="213.8" height="77.2"/>
		</defs>
		<clipPath id="SVGID_2_">
			<use xlink:href="#SVGID_1_"  style="overflow:visible;"/>
		</clipPath>
		<path class="st0" d="M75.3,107.7c-20.4,0-36.9-16.5-36.9-36.9C38.4,50.5,54.9,34,75.3,34c15.8,0,29.2,9.9,34.5,23.8
			c-5.4-14.9-19.6-25.5-36.3-25.5c-21.3,0-38.6,17.3-38.6,38.6c0,21.3,17.3,38.6,38.6,38.6c16.7,0,31-10.6,36.3-25.5
			C104.5,97.8,91,107.7,75.3,107.7"/>
	</g>
	<g>
		<defs>
			<rect id="SVGID_3_" x="34.8" y="31.2" width="213.8" height="79.2"/>
		</defs>
		<clipPath id="SVGID_4_">
			<use xlink:href="#SVGID_3_"  style="overflow:visible;"/>
		</clipPath>
		<path class="st1" d="M126.9,75.6L126.9,75.6h-13c-2.4-0.1-2.3-1.7-2.3-4.8c0-3.1,0-4.7,2.3-4.8h14.3c0,0,0-2.6-1.2-2.6h0h-15.4
			c-1.3,0-7.3,0-7.3,7.4c0,7.4,6,7.4,7.3,7.4h16.6C128.1,78.3,128.1,75.6,126.9,75.6"/>
		<path class="st1" d="M71.3,63.5L71.3,63.5H56c-1.3,0-7.3,0-7.3,7.4v7.3c0,0,7.3,0,7.3-1.2v-6.1c0-3.1,0-4.7,2.3-4.8h14.3
			C72.6,66.1,72.6,63.5,71.3,63.5"/>
		<path class="st1" d="M99.1,63.5L99.1,63.5H83.7c-1.3,0-7.3,0-7.3,7.4v7.3c0,0,7.3,0,7.3-1.2v-6.1c0-3.1,0-4.7,2.3-4.8h14.3
			C100.3,66.1,100.3,63.5,99.1,63.5"/>
		<polygon class="st1" points="155.3,71.1 152.8,71.1 152.8,69.8 159.2,69.8 159.2,71.1 156.8,71.1 156.8,78.2 155.3,78.2 		"/>
		<polygon class="st1" points="163.7,69.8 163.7,73.2 167.3,73.2 167.3,69.8 168.8,69.8 168.8,78.2 167.3,78.2 167.3,74.5
			163.7,74.5 163.7,78.2 162.2,78.2 162.2,69.8 		"/>
		<rect x="172.6" y="69.8" class="st1" width="1.5" height="8.4"/>
		<path class="st1" d="M177.9,78.2v-8.4h1.8l2.2,3.6c0.6,0.9,1.1,1.9,1.4,2.8h0c-0.1-1.1-0.1-2.2-0.1-3.5v-2.9h1.4v8.4H183l-2.2-3.7
			c-0.5-0.9-1.1-2-1.5-2.9l0,0c0.1,1.1,0.1,2.2,0.1,3.6v3H177.9z"/>
		<path class="st1" d="M188.4,69.8h1.5v3.9h0c0.2-0.3,0.4-0.6,0.6-0.9l2.2-3h1.9l-2.9,3.6l3.1,4.8H193l-2.4-3.9l-0.8,0.9v3h-1.5
			V69.8z"/>
		<path class="st1" d="M203.7,78.2l-2.7-8.4h1.7l1.2,3.8c0.3,1.1,0.6,2.1,0.8,3.1h0c0.2-1,0.5-2,0.9-3.1l1.2-3.9h1.6l-2.9,8.4H203.7
			z"/>
		<path class="st1" d="M212.3,75.8l-0.7,2.4H210l2.7-8.4h2l2.7,8.4h-1.7l-0.8-2.4H212.3z M214.7,74.7l-0.7-2.1
			c-0.2-0.5-0.3-1.1-0.4-1.6h0c-0.1,0.5-0.3,1.1-0.4,1.6l-0.7,2.1H214.7z"/>
		<polygon class="st1" points="220.6,69.8 222.1,69.8 222.1,76.9 225.6,76.9 225.6,78.2 220.6,78.2 		"/>
		<path class="st1" d="M229.8,69.8v4.9c0,1.7,0.7,2.4,1.7,2.4c1.1,0,1.8-0.8,1.8-2.4v-4.9h1.5v4.8c0,2.6-1.3,3.8-3.4,3.8
			c-2,0-3.2-1.1-3.2-3.7v-4.8H229.8z"/>
	</g>
	<g>
		<defs>
			<rect id="SVGID_5_" x="34.8" y="32.3" width="213.8" height="77.2"/>
		</defs>
		<clipPath id="SVGID_6_">
			<use xlink:href="#SVGID_5_"  style="overflow:visible;"/>
		</clipPath>
		<polygon class="st2" points="243.4,74.5 240.2,74.5 240.2,77 243.7,77 243.7,78.2 238.6,78.2 238.6,69.8 243.5,69.8 243.5,71.1
			240.2,71.1 240.2,73.2 243.4,73.2 		"/>
		<path class="st2" d="M247.7,78.4c-0.6,0-0.9-0.4-0.9-1c0-0.6,0.4-1,1-1c0.6,0,1,0.4,1,1C248.7,77.9,248.3,78.4,247.7,78.4
			L247.7,78.4z"/>
	</g>
</g>
</svg>
