<?xml version="1.0" encoding="utf-8"?>
<!-- Generator: Adobe Illustrator 21.1.0, SVG Export Plug-In . SVG Version: 6.00 Build 0)  -->
<svg version="1.1" id="Layer_1" xmlns="http://www.w3.org/2000/svg" xmlns:xlink="http://www.w3.org/1999/xlink" x="0px" y="0px"
	 viewBox="0 0 293.2 344.3" style="enable-background:new 0 0 293.2 344.3;" xml:space="preserve">
<style type="text/css">
	.st0{fill:#00A2FF;stroke:#FFFFFF;stroke-width:14.4;}
	.st1{fill:#00A2FF;stroke:#FFFFFF;stroke-width:7.2;}
	.st2{fill:#00A2FF;}
</style>
<g>
	<g>
		<g id="b">
			<ellipse class="st0" cx="146.6" cy="110.7" rx="91" ry="84"/>
			<path class="st0" d="M77.6,89.7h138c12.2,0,22,9.8,22,22v138c0,12.2-9.8,22-22,22h-138c-12.2,0-22-9.8-22-22v-138
				C55.6,99.5,65.4,89.7,77.6,89.7z"/>
		</g>
	</g>
	<g>
		<g id="a">
			<path class="st1" d="M87,4.4L87,4.4c-3.1,1.7-4.3,5.7-2.5,8.8l35.4,63.8c1.7,3.1,5.7,4.3,8.8,2.5l0,0c3.1-1.7,4.3-5.7,2.5-8.8
				L95.8,6.9C94.1,3.8,90.1,2.7,87,4.4z"/>
			<path id="c" class="st1" d="M265.6,110.7L265.6,110.7c-13.3,0-24,10.7-24,24v85c0,13.3,10.7,24,24,24l0,0c13.3,0,24-10.7,24-24
				v-85C289.6,121.4,278.9,110.7,265.6,110.7z"/>
			<g transform="scale(-1,1)">
				<path id="c_1_" class="st1" d="M180.6,207.7L180.6,207.7c-13.3,0-24,10.7-24,24v85c0,13.3,10.7,24,24,24l0,0
					c13.3,0,24-10.7,24-24v-85C204.6,218.4,193.9,207.7,180.6,207.7z"/>
			</g>
		</g>
		<g id="a_1_">
			<path class="st1" d="M206.2,4.4L206.2,4.4c3.1,1.7,4.3,5.7,2.5,8.8l-35.4,63.8c-1.7,3.1-5.7,4.3-8.8,2.5l0,0
				c-3.1-1.7-4.3-5.7-2.5-8.8l35.4-63.8C199.1,3.8,203.1,2.7,206.2,4.4z"/>
			<path id="c_2_" class="st1" d="M27.6,110.7L27.6,110.7c13.3,0,24,10.7,24,24v85c0,13.3-10.7,24-24,24l0,0c-13.3,0-24-10.7-24-24
				v-85C3.6,121.4,14.3,110.7,27.6,110.7z"/>
			<g>
				<path id="c_3_" class="st1" d="M112.6,207.7L112.6,207.7c13.3,0,24,10.7,24,24v85c0,13.3-10.7,24-24,24l0,0
					c-13.3,0-24-10.7-24-24v-85C88.6,218.4,99.3,207.7,112.6,207.7z"/>
			</g>
		</g>
		<g id="b_1_">
			<ellipse class="st2" cx="146.6" cy="110.7" rx="91" ry="84"/>
			<path class="st2" d="M77.6,89.7h138c12.2,0,22,9.8,22,22v138c0,12.2-9.8,22-22,22h-138c-12.2,0-22-9.8-22-22v-138
				C55.6,99.5,65.4,89.7,77.6,89.7z"/>
		</g>
	</g>
	<g>
		<path class="st1" d="M51.6,114.2h190"/>
		<circle class="st1" cx="104.6" cy="69.7" r="4"/>
		<circle class="st1" cx="188.6" cy="69.7" r="4"/>
	</g>
</g>
</svg>
