<?xml version="1.0" encoding="utf-8"?>
<!-- Generator: Adobe Illustrator 21.1.0, SVG Export Plug-In . SVG Version: 6.00 Build 0)  -->
<svg version="1.1" id="Layer_1" xmlns="http://www.w3.org/2000/svg" xmlns:xlink="http://www.w3.org/1999/xlink" x="0px" y="0px"
	 viewBox="0 0 512 512" style="enable-background:new 0 0 512 512;" xml:space="preserve">
<style type="text/css">
	.st0{fill:#00A2FF;}
</style>
<g>
	<g>
		<g>
			<path class="st0" d="M226.5,148.3v14.6c0,0.3,0,0.5,0,0.8v27.9c0,4.5,3.6,8.2,8.2,8.2h41.9c4.5,0,8.2-3.6,8.2-8.2v-27.9
				c0-0.3,0-0.5,0-0.8v-14.6c14.5-9.7,23.3-25.9,23.3-43.5c0-28.9-23.5-52.3-52.3-52.3c-28.9,0-52.3,23.5-52.3,52.3
				C203.2,122.4,212,138.7,226.5,148.3z M268.3,183.5h-25.5v-11.6h25.5V183.5z M255.6,68.7c19.9,0,36,16.2,36,36
				c0,13.3-7.3,25.5-19,31.8c-2.6,1.4-4.3,4.2-4.3,7.2v11.8h-4.4v-29.6c0-4.5-3.6-8.2-8.2-8.2s-8.2,3.7-8.2,8.2v29.6h-4.7v-11.8
				c0-3-1.6-5.8-4.3-7.2c-11.7-6.3-19-18.5-19-31.8C219.5,84.9,235.7,68.7,255.6,68.7z"/>
			<path class="st0" d="M246.7,204.1c-4.5,0-8.2,3.6-8.2,8.2s3.6,8.2,8.2,8.2h17.7c4.5,0,8.2-3.6,8.2-8.2s-3.6-8.2-8.2-8.2H246.7z"
				/>
			<path class="st0" d="M164.4,111.6h23c4.5,0,8.2-3.7,8.2-8.2s-3.6-8.2-8.2-8.2h-23c-4.5,0-8.2,3.7-8.2,8.2
				S159.9,111.6,164.4,111.6z"/>
			<path class="st0" d="M315.6,103.4c0,4.5,3.6,8.2,8.2,8.2h23c4.5,0,8.2-3.7,8.2-8.2s-3.6-8.2-8.2-8.2h-23
				C319.2,95.3,315.6,98.9,315.6,103.4z"/>
			<path class="st0" d="M201.6,145.9l-16.3,16.3c-3.2,3.2-3.2,8.3,0,11.5c1.6,1.6,3.7,2.4,5.8,2.4s4.2-0.8,5.8-2.4l16.3-16.3
				c3.2-3.2,3.2-8.3,0-11.5C209.9,142.7,204.8,142.7,201.6,145.9z"/>
			<path class="st0" d="M303.8,63.4c2.1,0,4.2-0.8,5.8-2.4l16.3-16.3c3.2-3.2,3.2-8.3,0-11.5c-3.2-3.2-8.3-3.2-11.5,0L298,49.5
				c-3.2,3.2-3.2,8.3,0,11.5C299.6,62.6,301.7,63.4,303.8,63.4z"/>
			<path class="st0" d="M255.6,43.4c4.5,0,8.2-3.7,8.2-8.2v-23c0-4.5-3.6-8.2-8.2-8.2c-4.5,0-8.2,3.7-8.2,8.2v23
				C247.4,39.8,251.1,43.4,255.6,43.4z"/>
			<path class="st0" d="M298,145.9c-3.2,3.2-3.2,8.3,0,11.5l16.3,16.3c1.6,1.6,3.7,2.4,5.8,2.4s4.2-0.8,5.8-2.4
				c3.2-3.2,3.2-8.3,0-11.5l-16.3-16.3C306.4,142.7,301.2,142.7,298,145.9z"/>
			<path class="st0" d="M201.6,61c1.6,1.6,3.7,2.4,5.8,2.4c2.1,0,4.2-0.8,5.8-2.4c3.2-3.2,3.2-8.3,0-11.5l-16.3-16.3
				c-3.2-3.2-8.3-3.2-11.5,0c-3.2,3.2-3.2,8.3,0,11.5L201.6,61z"/>
			<path class="st0" d="M310.2,430.5l-29.9-12v-3.5c8.1-4.8,14.3-12.5,17.4-21.5c11.1-1.1,19.8-10.5,19.8-21.9
				c0-6.7-3.1-12.8-7.9-16.8v-13.1c0-26.5-20.1-48.3-45.8-51.2v-47.5c0-4.5-3.6-8.2-8.2-8.2s-8.2,3.6-8.2,8.2v47.7
				c-25.1,3.4-44.5,25-44.5,51v13.1c-4.9,4-8,10.1-8,16.9c0,11.5,8.9,20.9,20.1,21.9c3.1,9.1,9.3,16.7,17.4,21.5v3.5l-30.7,12
				c-3,1.1-27.5,11-27.5,42.2v27.1c0,4.5,3.6,8.2,8.2,8.2h19.3c4.5,0,8.2-3.6,8.2-8.2s-3.6-8.2-8.2-8.2h-11.1v-18.9
				c0-20.6,16.1-26.6,16.7-26.8c0.1,0,0.3-0.1,0.4-0.1l28.1-11l14.9,14.5c1.5,1.5,3.6,2.3,5.7,2.3c0,0,0.1,0,0.1,0
				c2.2,0,4.2-0.9,5.7-2.5l14-14.5l28.1,11.2c0.1,0.1,0.2,0.1,0.4,0.1c0.7,0.2,16.8,6.2,16.8,26.8v18.9h-42.1h-46.7h-6.8
				c-4.5,0-8.2,3.6-8.2,8.2c0,4.5,3.6,8.2,8.2,8.2h6.8h46.7h50.2c4.5,0,8.2-3.7,8.2-8.2v-27C337.7,441.5,313.4,431.6,310.2,430.5z
				 M299.8,367.8c0.9,1,1.4,2.3,1.4,3.7s-0.6,2.7-1.4,3.7V367.8z M213.1,375.6c-1-1-1.7-2.4-1.7-4c0-1.4,0.5-2.6,1.3-3.6
				c0.1,0,0.3-0.1,0.4-0.1L213.1,375.6L213.1,375.6z M221.2,345.5C221.2,345.5,221.2,345.5,221.2,345.5c-0.3,0-0.6,0-0.9,0
				c-0.1,0-0.2,0-0.3,0c-0.2,0-0.4,0-0.6,0.1c-0.1,0-0.2,0-0.2,0.1v-4.1c0-19.4,15.8-35.2,35.2-35.2h3.6c19.4,0,35.2,15.8,35.2,35.2
				v4.1c-10.1-2.4-13.4-16-13.5-16.1c-0.7-3.1-3.2-5.5-6.3-6.2c-3.1-0.6-6.4,0.6-8.2,3.2C251.8,345.2,221.7,345.5,221.2,345.5z
				 M264,423.6l-7.8,8.1l-7.3-7.1v-4.3c1.4,0.1,2.7,0.2,4.1,0.2h6.9c1.4,0,2.8-0.1,4.1-0.2L264,423.6L264,423.6z M259.9,404.3H253
				c-13,0-23.6-10.6-23.6-23.6v-19.4h0c9.9-1.1,26.7-4.6,39.9-15.4c3,5,7.5,10.3,14.2,13.5v21.3
				C283.5,393.7,272.9,404.3,259.9,404.3z"/>
			<path class="st0" d="M484.5,430.5l-29.9-12v-3.5c8.1-4.8,14.3-12.5,17.4-21.5c11.1-1.1,19.8-10.5,19.8-21.9
				c0-6.8-3.1-12.8-7.9-16.8v-13.1c0-26.4-19.9-48.2-45.5-51.1V145.7c0-4.5-3.6-8.2-8.2-8.2h-83.8c-4.5,0-8.2,3.6-8.2,8.2
				s3.6,8.2,8.2,8.2h75.6v136.7c-25.2,3.3-44.8,24.9-44.8,51.1v13.1c-4.9,4-8,10.1-8,16.9c0,11.5,8.9,20.9,20.1,21.9
				c3.1,9.1,9.3,16.7,17.4,21.5v3.5l-30.7,12c-3,1.1-27.5,11-27.5,42.2v27.1c0,4.5,3.6,8.2,8.2,8.2H376c4.5,0,8.2-3.6,8.2-8.2
				s-3.6-8.2-8.2-8.2h-11.2v-18.9c0-20.6,16.1-26.6,16.7-26.8c0.1,0,0.3-0.1,0.4-0.1l28.1-11l14.9,14.5c1.5,1.5,3.6,2.3,5.7,2.3
				c0,0,0.1,0,0.1,0c2.2,0,4.2-0.9,5.7-2.5l14-14.5l28.1,11.2c0.1,0.1,0.2,0.1,0.4,0.1c0.7,0.2,16.8,6.2,16.8,26.8v18.9h-42.1h-46.7
				h-6.8c-4.5,0-8.2,3.6-8.2,8.2c0,4.5,3.6,8.2,8.2,8.2h6.8h46.7h50.2c4.5,0,8.2-3.7,8.2-8.2v-27C512,441.5,487.6,431.6,484.5,430.5
				z M474.1,367.8c0.9,1,1.4,2.3,1.4,3.7s-0.6,2.7-1.4,3.7V367.8z M387.3,375.6c-1-1-1.7-2.4-1.7-4c0-1.4,0.5-2.6,1.3-3.6
				c0.1,0,0.3-0.1,0.4-0.1L387.3,375.6L387.3,375.6z M395.5,345.5C395.5,345.5,395.5,345.5,395.5,345.5c-0.3,0-0.6,0-0.9,0
				c-0.1,0-0.2,0-0.3,0c-0.2,0-0.4,0-0.6,0.1c-0.1,0-0.2,0-0.2,0.1v-4.1c0-19.4,15.8-35.2,35.2-35.2h3.6c19.4,0,35.2,15.8,35.2,35.2
				v4.1c-10.1-2.4-13.4-16-13.5-16.1c-0.7-3.1-3.2-5.5-6.3-6.2c-3.1-0.6-6.4,0.6-8.2,3.2C426.1,345.2,396,345.5,395.5,345.5z
				 M438.3,423.6l-7.8,8.1l-7.3-7.1v-4.3c1.4,0.1,2.7,0.2,4.1,0.2h6.9c1.4,0,2.8-0.1,4.1-0.2L438.3,423.6L438.3,423.6z M434.1,404.3
				h-6.9c-13,0-23.6-10.6-23.6-23.6v-19.4h0c9.9-1.1,26.7-4.6,39.9-15.4c3,5,7.5,10.3,14.2,13.5v21.3
				C457.8,393.7,447.2,404.3,434.1,404.3z"/>
			<path class="st0" d="M165.5,137.5H81.7c-4.5,0-8.2,3.6-8.2,8.2v144.9c-25.2,3.3-44.8,24.9-44.8,51.1v13.1c-4.9,4-8,10.1-8,16.9
				c0,11.5,8.9,20.9,20.1,21.9c3.1,9.1,9.3,16.7,17.4,21.5v3.5l-30.7,12c-3,1.1-27.5,10.9-27.5,42.2v27.1c0,4.5,3.6,8.2,8.2,8.2
				h19.3c4.5,0,8.2-3.6,8.2-8.2s-3.6-8.2-8.2-8.2H16.3v-18.9c0-20.6,16.1-26.6,16.7-26.8c0.1,0,0.3-0.1,0.4-0.1l28.1-11l14.9,14.5
				c1.5,1.5,3.6,2.3,5.7,2.3c0,0,0.1,0,0.1,0c2.2,0,4.2-0.9,5.7-2.5l14-14.5l28.1,11.2c0.1,0.1,0.2,0.1,0.4,0.1
				c0.7,0.2,16.8,6.2,16.8,26.8v18.9h-42.1H58.4h-6.8c-4.5,0-8.2,3.6-8.2,8.2c0,4.5,3.6,8.2,8.2,8.2h6.8h46.7h50.2
				c4.5,0,8.2-3.7,8.2-8.2v-27c0-31.1-24.4-41-27.5-42.2l-29.9-12v-3.5c8.1-4.8,14.3-12.5,17.4-21.5c11.1-1.1,19.8-10.5,19.8-21.9
				c0-6.8-3.1-12.8-7.9-16.8v-13.1c0-26.4-19.9-48.2-45.5-51.1V153.8h75.6c4.5,0,8.2-3.6,8.2-8.2C173.7,141.2,170,137.5,165.5,137.5
				z M38.8,375.6c-1-1-1.7-2.4-1.7-4c0-1.4,0.5-2.6,1.3-3.6c0.1,0,0.3-0.1,0.4-0.1C38.8,367.9,38.8,375.6,38.8,375.6z M125.5,367.8
				c0.9,1,1.4,2.3,1.4,3.7c0,1.4-0.6,2.7-1.4,3.7V367.8z M89.7,423.6l-7.8,8.1l-7.3-7.1v-4.3c1.4,0.1,2.7,0.2,4.1,0.2h6.9
				c1.4,0,2.8-0.1,4.1-0.2L89.7,423.6L89.7,423.6z M109.2,380.7c0,13-10.6,23.6-23.6,23.6h-6.9c-13,0-23.6-10.6-23.6-23.6v-19.4
				c9.9-1.1,26.7-4.6,39.9-15.4c3,5,7.5,10.3,14.2,13.5V380.7z M119.1,341.6v4.1c-10.1-2.4-13.4-16-13.5-16.1
				c-0.7-3.1-3.2-5.5-6.3-6.2c-3.1-0.6-6.4,0.6-8.2,3.2c-13.5,18.6-43.6,18.9-44.1,18.9c0,0,0,0,0,0c-0.3,0-0.6,0-0.8,0
				c-0.1,0-0.2,0-0.3,0c-0.2,0-0.4,0-0.6,0.1c-0.1,0-0.2,0-0.2,0.1v-4.1c0-19.4,15.8-35.2,35.2-35.2h3.6
				C103.3,306.4,119.1,322.2,119.1,341.6z"/>
		</g>
	</g>
</g>
</svg>
