<?xml version="1.0" encoding="utf-8"?>
<!-- Generator: Adobe Illustrator 21.1.0, SVG Export Plug-In . SVG Version: 6.00 Build 0)  -->
<svg version="1.1" id="Capa_1" xmlns="http://www.w3.org/2000/svg" xmlns:xlink="http://www.w3.org/1999/xlink" x="0px" y="0px"
	 viewBox="-164 42.3 512 512" style="enable-background:new -164 42.3 512 512;" xml:space="preserve">
<style type="text/css">
	.st0{fill:#FFFFFF;}
</style>
<path class="st0" d="M247.4,554.2c-21.3,0-47-5.3-75.3-16c-62-23.4-129.5-69.6-190-130.1s-106.7-128-130.1-190
	c-21.3-56.4-21.4-102.7-0.2-123.9c3.1-3.1,6.2-6.3,9.4-9.7c19.3-20.3,41.7-43.4,70.1-42.2c20,0.8,39.3,13.2,59.1,37.8
	C49,153,22.6,178.9-7.9,209l-5.4,5.3c-5,5-14.4,28.1,73.4,115.9c28.7,28.7,53.1,49.6,72.6,62.3c12.3,8,34.3,20,43.3,11l5.4-5.5
	c30-30.5,56-56.8,128.7,1.7c24.6,19.8,37,39.1,37.8,59.1c1.2,29-21.9,50.9-42.2,70.2c-3.3,3.2-6.6,6.3-9.6,9.3
	C285.5,549,268.7,554.2,247.4,554.2z M-70.7,59.5c-20.6,0-39.2,19.6-55.6,36.8c-3.3,3.5-6.5,6.9-9.7,10
	c-15.8,15.8-14.2,57.2,4.1,105.6C-109.3,271.8-64.5,337.2-5.7,396s124.1,103.6,183.9,126.2c48.4,18.3,89.9,19.9,105.6,4.1
	c3.2-3.1,6.5-6.3,10-9.6c17.7-16.8,37.8-35.9,36.9-57c-0.6-14.5-11.2-30.1-31.4-46.4c-60.6-48.7-77.5-31.5-105.6-3l-5.5,5.6
	c-13.4,13.4-35.2,10.5-64.8-8.8c-20.5-13.3-45.9-35.1-75.4-64.6l0,0C-25,269.5-48.3,224.9-25.5,202.1l5.5-5.4
	C8.6,168.6,25.8,151.6-22.9,91c-16.3-20.2-31.9-30.8-46.4-31.4C-69.8,59.6-70.3,59.5-70.7,59.5z M258.4,248.5
	c13.6-33.4,5.8-71.5-19.7-97c-26.2-26.2-66.5-33.6-100.2-18.3c-4.3,1.9-6.3,7-4.3,11.4c1.9,4.3,7.1,6.2,11.4,4.3
	c27.3-12.3,59.8-6.4,81,14.8c20.6,20.6,26.9,51.4,15.9,78.4c-1.8,4.4,0.3,9.4,4.7,11.2c1.1,0.4,2.2,0.6,3.2,0.6
	C253.8,253.9,257.1,251.8,258.4,248.5z M335.3,279.7c26.1-64.4,11.3-137.8-37.9-186.9c-50.5-50.5-128.1-64.6-193.1-35.2
	c-4.3,2-6.3,7.1-4.3,11.4c2,4.3,7.1,6.2,11.4,4.3C170,46.9,239.8,59.6,285.2,105c44.2,44.2,57.6,110.3,34.1,168.2
	c-1.8,4.4,0.3,9.4,4.7,11.2c1.1,0.4,2.2,0.6,3.2,0.6C330.7,285.1,333.9,283.1,335.3,279.7z"/>
</svg>
