<?xml version="1.0" encoding="utf-8"?>
<!-- Generator: Adobe Illustrator 21.1.0, SVG Export Plug-In . SVG Version: 6.00 Build 0)  -->
<svg version="1.1" id="Layer_1" xmlns="http://www.w3.org/2000/svg" xmlns:xlink="http://www.w3.org/1999/xlink" x="0px" y="0px"
	 viewBox="0 0 512 512" style="enable-background:new 0 0 512 512;" xml:space="preserve">
<style type="text/css">
	.st0{fill:#00A2FF;}
</style>
<g>
	<g>
		<g>
			<path class="st0" d="M189.4,407.9L162,396.5c-0.4-0.2-0.7-0.3-1.1-0.4l-16.6-4.2v-9.9c11.3,1.9,21.6,4.8,29.9,8.6
				c1.1,0.5,2.2,0.7,3.3,0.7c2.7,0,5.2-1.3,6.7-3.6c0.2-0.2,0.4-0.4,0.5-0.6c16-20.6,24.7-47.2,24.7-75.1
				c0-61.7-42.9-111.8-95.7-111.8s-95.7,50.2-95.7,111.8c0,28.4,9.1,55.5,25.7,76.3c0,0.1,0.1,0.1,0.2,0.2c0.1,0.1,0.1,0.2,0.2,0.2
				c0.2,0.2,0.4,0.4,0.6,0.6c0.1,0.1,0.1,0.1,0.2,0.2c0.9,0.7,1.8,1.2,2.8,1.5c0.1,0,0.1,0,0.2,0c0.3,0.1,0.6,0.2,0.9,0.2
				c0.1,0,0.1,0,0.2,0c0.4,0,0.7,0.1,1.1,0.1c0,0,0.1,0,0.1,0c0.3,0,0.6,0,1-0.1c0.1,0,0.3,0,0.4-0.1c0.3-0.1,0.7-0.1,1-0.3
				c0.1,0,0.2-0.1,0.4-0.1c0.1-0.1,0.3-0.1,0.4-0.2c8.2-3.7,18.5-6.7,29.8-8.5v9.8l-17.7,4.2c-0.4,0.1-0.8,0.2-1.2,0.4L37,407.9
				c-13,4.5-37,22-37,56.9v38.7c0,4.5,3.6,8.1,8.1,8.1h71.8h15.8c0,0,0,0,0,0c0,0,0,0,0,0h36.2c0,0,0,0,0,0c0,0,0,0,0,0h14.6h71.8
				c4.5,0,8.1-3.7,8.1-8.1v-38.6C226.4,429.9,202.4,412.4,189.4,407.9z M52.9,373.5c-12-17.2-18.6-38.8-18.6-61.4
				c0-52.8,35.7-95.7,79.6-95.7c43.9,0,79.6,42.9,79.6,95.7c0,22.6-6.6,44.2-18.6,61.4c-4.9-1.9-10.2-3.5-15.9-4.9
				c6.2-7.1,10.6-15.8,12.4-25.5c12.2-2.2,21.4-12.9,21.4-25.7c0-12.7-9.1-23.3-21.1-25.6c-1-2.5-3.1-4.4-5.9-4.9
				c-31.4-6.4-44.8-24.4-45.3-25.1c-1.4-2-3.6-3.2-6-3.4c-2.4-0.2-4.7,0.7-6.4,2.4c-18,18.5-46.3,26.1-46.5,26.1
				c-2.5,0.7-4.5,2.5-5.5,4.8c-12,2.3-21.1,12.9-21.1,25.6c0,12.8,9.3,23.5,21.4,25.7c1.8,9.6,6.1,18.4,12.4,25.5
				C63.1,370,57.8,371.6,52.9,373.5z M172.2,325.7v-16.5c2.6,1.8,4.4,4.8,4.4,8.3C176.6,320.9,174.9,323.9,172.2,325.7z M55.5,309.2
				v16.5c-2.6-1.8-4.4-4.8-4.4-8.3S52.8,311,55.5,309.2z M71.6,333.4v-32.7c9.1-3.1,26.8-10.2,41.7-22.8c7.2,7,21,17.5,42.7,23.3
				v32.2c0,20.6-16.7,37.3-37.3,37.3h-9.8C88.3,370.8,71.6,354,71.6,333.4z M93.2,406.1c3.6-0.9,6.2-4.1,6.2-7.9V386
				c3.1,0.6,6.3,0.9,9.5,0.9h9.8c3.2,0,6.4-0.3,9.4-0.8v12.2c0,3.7,2.5,6.9,6.1,7.8l15.5,3.9l-1.4,4.9c-32.7,18.4-61,4.9-69.1,0.2
				l-1.5-5.2L93.2,406.1z M79.8,495.5H53.3v-32.4c0-4.5-3.6-8.1-8.1-8.1s-8.1,3.6-8.1,8.1v32.4h-21v-30.6
				c0-32.1,25.3-41.4,26.3-41.7c0.2-0.1,0.4-0.1,0.5-0.2l19.5-8.1l2.1,7.5c0,0,0,0,0,0l20.5,73.1L79.8,495.5L79.8,495.5z
				 M125.9,495.5h-24v0L85,435.4c7.7,2.8,17.6,5.1,29,5.1c8.8,0,18.5-1.4,28.7-5.2L125.9,495.5z M210.2,495.5h-21v-32.4
				c0-4.5-3.6-8.1-8.1-8.1s-8.1,3.6-8.1,8.1v32.4h-26.6h-3.9l22.5-80.2l18.3,7.6c0.1,0.1,0.3,0.1,0.5,0.2
				c1.1,0.4,26.3,9.6,26.3,41.7L210.2,495.5L210.2,495.5z"/>
			<path class="st0" d="M130.5,124.4h36.4V162c0,3.4,2.1,6.4,5.3,7.6c0.9,0.3,1.9,0.5,2.8,0.5c2.3,0,4.5-1,6.1-2.8l16.9-19.5
				c1.1,3.2,4.1,5.5,7.6,5.5h87.4l37.1,42.8c1.6,1.8,3.8,2.8,6.1,2.8c0.9,0,1.9-0.2,2.8-0.5c3.2-1.2,5.3-4.2,5.3-7.6v-37.5h36.4
				c4.5,0,8.1-3.6,8.1-8.1V37.2c0-4.5-3.6-8.1-8.1-8.1h-67.1V8.4c0-4.5-3.6-8.1-8.1-8.1H130.5c-4.5,0-8.1,3.6-8.1,8.1v107.9
				C122.4,120.8,126,124.4,130.5,124.4z M138.6,16.5L138.6,16.5h159v12.6h-14c-4.5,0-8.1,3.6-8.1,8.1s3.6,8.1,8.1,8.1h89.1V137
				h-36.4c-4.5,0-8.1,3.6-8.1,8.1v24l-25.4-29.3c-1.5-1.8-3.8-2.8-6.1-2.8h-83.1V45.3h43c4.5,0,8.1-3.6,8.1-8.1s-3.6-8.1-8.1-8.1
				h-51c-4.5,0-8.1,3.6-8.1,8.1v86.4L183,140.3v-24c0-4.5-3.6-8.1-8.1-8.1h-36.4L138.6,16.5L138.6,16.5z"/>
			<path class="st0" d="M475,407.4l-26.9-11.2l-18.1-12v-4.4c13.9-7.6,24-21.2,26.9-37.2c12.2-2.2,21.4-12.9,21.4-25.7
				c0-6.7-2.5-12.8-6.7-17.5V274c0-38.4-31.3-69.7-69.7-69.7h-5.1c-38.4,0-69.7,31.3-69.7,69.7v25.6c-4.1,4.6-6.6,10.7-6.6,17.3
				c0,12.8,9.3,23.5,21.4,25.7c3,16,13.1,29.6,26.9,37.2v4l-18.2,12c-0.2,0.1-0.5,0.2-0.7,0.3l-27.4,11.4c-13,4.5-37,22-37,56.9V503
				c0,4.5,3.6,8.1,8.1,8.1h53c4.5,0,8.1-3.6,8.1-8.1c0-4.5-3.6-8.1-8.1-8.1h-7.8v-32.4c0-4.5-3.6-8.1-8.1-8.1
				c-4.5,0-8.1,3.6-8.1,8.1v32.4h-21v-30.6c0-32.1,25.3-41.4,26.3-41.7c0.2-0.1,0.4-0.1,0.5-0.2l19.5-8.1l22.7,80.9
				c-3.6,0.8-6.3,4-6.3,7.9c0,4.5,3.6,8.1,8.1,8.1h8.8c0,0,0,0,0,0c0,0,0,0,0,0h36.2h0h0c0,0,0,0,0,0c0,0,0,0,0,0h14.6h71.8
				c4.5,0,8.1-3.7,8.1-8.1v-38.6C512,429.4,488,411.9,475,407.4z M457.8,308.6c2.6,1.8,4.4,4.8,4.4,8.3c0,3.4-1.7,6.5-4.4,8.3V308.6
				z M341,325.2c-2.6-1.8-4.4-4.8-4.4-8.3c0-3.4,1.7-6.5,4.4-8.3V325.2z M349.1,286.2L349.1,286.2
				C349.1,286.2,349.1,286.2,349.1,286.2c-0.3,0-0.6,0-0.9,0c-0.1,0-0.2,0-0.3,0c-0.2,0-0.4,0-0.5,0.1c-0.1,0-0.2,0.1-0.3,0.1
				c-0.1,0-0.3,0.1-0.4,0.1c-0.1,0-0.3,0.1-0.4,0.1c-0.1,0-0.2,0.1-0.4,0.1c-0.1,0.1-0.3,0.1-0.4,0.2c-0.1,0-0.2,0.1-0.3,0.1
				c-0.1,0.1-0.3,0.2-0.4,0.3c-0.1,0.1-0.2,0.1-0.2,0.1c-0.1,0.1-0.3,0.2-0.4,0.3c-0.1,0.1-0.2,0.1-0.2,0.2
				c-0.1,0.1-0.2,0.2-0.3,0.3c-0.1,0.1-0.2,0.1-0.2,0.2c0,0-0.1,0.1-0.1,0.2V274c0-29.5,24-53.5,53.5-53.5h5.1
				c29.5,0,53.5,24,53.5,53.5v14.6c-0.1-0.1-0.1-0.1-0.2-0.2c-0.1-0.1-0.2-0.2-0.3-0.3c-0.1-0.1-0.2-0.1-0.3-0.2
				c-0.1-0.1-0.2-0.2-0.4-0.3c-0.1-0.1-0.2-0.1-0.3-0.2c-0.1-0.1-0.2-0.1-0.4-0.2c-0.1-0.1-0.2-0.1-0.4-0.2
				c-0.1-0.1-0.2-0.1-0.3-0.2c-0.1-0.1-0.3-0.1-0.4-0.2c-0.1,0-0.2-0.1-0.3-0.1c-0.2-0.1-0.3-0.1-0.5-0.1c-0.1,0-0.1,0-0.2-0.1
				c-16.7-3.8-22-25.5-22.1-25.7c-0.7-3.1-3.1-5.5-6.3-6.1c-3.1-0.6-6.3,0.6-8.2,3.2C394.7,285.9,349.7,286.2,349.1,286.2z
				 M357.2,332.9v-31c13.7-1.2,41.6-5.9,61.6-24.3c4.1,8.1,11.3,17.7,22.8,22.5v32.8c0,20.6-16.7,37.3-37.3,37.3h-9.8
				C373.9,370.2,357.2,353.5,357.2,332.9z M392.6,437.3l6.4-4.7l6.6,4.9l-2.1,5.6H395l0,0L392.6,437.3z M399.1,411L385,397.2v-9.1h0
				c0,0,0,0,0,0v-2.7c3.1,0.6,6.2,0.9,9.5,0.9h9.8c3.2,0,6.4-0.3,9.5-0.9v10.2L399.1,411z M379.2,465.5l-4.3-15.5
				c0.7-0.3,1.3-0.6,1.9-1l2.5-1.8l2.1,5L379.2,465.5z M375,430.2l-11.5-23.6l5.7-3.7c0.4,1.3,1.1,2.5,2.1,3.5l15.5,15.1L375,430.2z
				 M390.8,494.9l5.8-35.7h5.7l5.8,35.7H390.8z M427.7,404.6c0.5-0.5,0.9-1.1,1.2-1.7l5.7,3.7l-11.5,23.6l-2.8-2c0,0,0,0,0,0l-9-6.6
				L427.7,404.6z M419.7,465.7l-2.2-13.7l1.7-4.6l2.1,1.6c0.8,0.6,1.7,1,2.7,1.3L419.7,465.7z M495.9,494.9h-21v-32.4
				c0-4.5-3.6-8.1-8.1-8.1c-4.5,0-8.1,3.6-8.1,8.1v32.4h-26.5h-3.9l22.5-80.2l18.3,7.6c0.1,0.1,0.3,0.1,0.5,0.2
				c1.1,0.4,26.3,9.6,26.3,41.7L495.9,494.9L495.9,494.9z"/>
		</g>
	</g>
</g>
</svg>
