<?xml version="1.0" encoding="utf-8"?>
<!-- Generator: Adobe Illustrator 21.1.0, SVG Export Plug-In . SVG Version: 6.00 Build 0)  -->
<svg version="1.1" id="Capa_1" xmlns="http://www.w3.org/2000/svg" xmlns:xlink="http://www.w3.org/1999/xlink" x="0px" y="0px"
	 viewBox="-164 42.3 512 512" style="enable-background:new -164 42.3 512 512;" xml:space="preserve">
<style type="text/css">
	.st0{fill:#FFFFFF;}
</style>
<g>
	<g>
		<path class="st0" d="M45.6,429.5l211.1-121.9c3.3-1.9,5.4-5.4,5.4-9.3s-2-7.4-5.4-9.3L45.6,167.1c-3.3-1.9-7.4-1.9-10.7,0
			c-3.3,1.9-5.4,5.4-5.4,9.3v56.8h-182.2c-5.9,0-10.7,4.8-10.7,10.7v108.9c0,5.9,4.8,10.7,10.7,10.7H29.6v56.8c0,3.8,2,7.4,5.4,9.3
			c1.7,1,3.5,1.4,5.4,1.4C42.1,430.9,44,430.4,45.6,429.5z"/>
		<path class="st0" d="M268.3,42.3H50.2c-5.9,0-10.7,4.8-10.7,10.7v32.1c0,5.9,4.8,10.7,10.7,10.7h218.1c14.1,0,25.5,11.5,25.5,25.5
			v353.9c0,14.1-11.5,25.5-25.5,25.5H50.2c-5.9,0-10.7,4.8-10.7,10.7v32.1c0,5.9,4.8,10.7,10.7,10.7h218.1
			c43.6,0,79.1-35.5,79.1-79.1V121.3C347.4,77.7,311.9,42.3,268.3,42.3z"/>
	</g>
</g>
</svg>
