<?xml version="1.0" encoding="utf-8"?>
<!-- Generator: Adobe Illustrator 21.1.0, SVG Export Plug-In . SVG Version: 6.00 Build 0)  -->
<svg version="1.1" id="Слой_1" xmlns="http://www.w3.org/2000/svg" xmlns:xlink="http://www.w3.org/1999/xlink" x="0px" y="0px"
	 viewBox="-164 42.3 512 512" style="enable-background:new -164 42.3 512 512;" xml:space="preserve">
<style type="text/css">
	.st0{fill:#FFFFFF;}
</style>
<g>
	<path class="st0" d="M342,321.6c0.7-7.7,1.3-15.5,1.3-23.3C343.3,159.7,230.6,47,92,47s-251.3,112.7-251.3,251.3
		c0,7.8,0.6,15.6,1.3,23.3c-5,6.1-7.4,14-5.2,22.2l13,48.5c3.6,13.4,17.4,21.4,30.8,17.8l24.3-6.5c12,6.9,18.7,10.8,30.8,17.8
		l24.3-6.5c3.6,13.4,17.4,21.4,30.8,17.8s21.4-17.4,17.8-30.8l-39.1-145.6c-3.6-13.4-17.4-21.4-30.8-17.8
		c-13.4,3.6-21.4,17.4-17.8,30.8l-24.3,6.5c-1.8,3.1-3.4,5.9-4.9,8.5C-101,179.9-14.1,97.3,92,97.3c106.1,0,193,82.7,200.3,187
		c-1.5-2.6-3.1-5.4-4.9-8.5l-24.3-6.5c3.6-13.4-4.4-27.2-17.8-30.8c-13.4-3.6-27.2,4.4-30.8,17.8l-39,145.6
		c-3.6,13.4,4.4,27.2,17.8,30.8c13.4,3.6,27.2-4.4,30.8-17.8l24.3,6.5c11.2-6.5,18-10.4,28.5-16.5c-29.2,50.4-78.2,87.2-135.3,100.9
		c0.3-2.2,0.7-4.3,0.7-6.5c0-27.8-22.5-50.3-50.3-50.3s-50.3,22.5-50.3,50.3c0,27.8,22.5,50.3,50.3,50.3c14.2,0,27-6,36.2-15.5
		C203,522.5,267.7,475.8,302.8,410l0.6,0.2c13.4,3.6,27.2-4.4,30.8-17.8l13-48.5C349.4,335.6,346.9,327.6,342,321.6L342,321.6z"/>
</g>
</svg>
