<?xml version="1.0" encoding="utf-8"?>
<!-- Generator: Adobe Illustrator 21.1.0, SVG Export Plug-In . SVG Version: 6.00 Build 0)  -->
<svg version="1.1" id="Слой_1" xmlns="http://www.w3.org/2000/svg" xmlns:xlink="http://www.w3.org/1999/xlink" x="0px" y="0px"
	 viewBox="-233 356.9 129 129" style="enable-background:new -233 356.9 129 129;" xml:space="preserve">
<style type="text/css">
	.st0{fill:#232323;}
</style>
<g>
	<path class="st0" d="M-226.1,428.3c0.1,1.3,0.3,2.6,0.6,3.8c0.1,0.5,0.2,1,0.3,1.5c0.7,3.4,1.7,6.7,3.1,9.8c0.2,0.5,0.4,1,0.6,1.4
		c0.5,1.1,1,2.2,1.6,3.3c0.3,0.5,0.5,1,0.8,1.5c0.6,1.1,1.3,2.2,2,3.3c0.2,0.3,0.4,0.7,0.7,1c0.1,0.1,0.1,0.2,0.2,0.3
		c0.1,0.1,0.2,0.2,0.2,0.3c1.6,2.3,3.4,4.5,5.4,6.6c0,0,0.1,0.1,0.1,0.2c0.1,0.2,0.3,0.3,0.5,0.5c0.4,0.4,0.8,0.8,1.2,1.2
		c0.2,0.1,0.3,0.3,0.5,0.5l0.1,0.1c2.1,2,4.4,3.9,6.8,5.6c0.1,0.1,0.2,0.2,0.3,0.2c1.5,1,3.1,1.9,4.6,2.8c0.3,0.2,0.7,0.4,1,0.5
		c1.2,0.7,2.5,1.3,3.8,1.8c0.4,0.2,0.7,0.3,1.1,0.5c3.2,1.3,6.6,2.4,10,3.1c0.4,0.1,0.9,0.2,1.3,0.3c1.3,0.2,2.6,0.5,4,0.6
		c0.5,0.1,1,0.1,1.5,0.2c1.8,0.2,3.5,0.3,5.3,0.3c12.1,0,23.3-3.7,32.5-10c0,0,0.1,0,0.1-0.1c1.4-0.9,2.7-1.9,4-3
		c0.2-0.2,0.4-0.3,0.6-0.5c0.9-0.8,1.8-1.6,2.7-2.5l0.4-0.4c0.4-0.4,0.8-0.8,1.2-1.2l0.5-0.5c0.5-0.5,0.9-1.1,1.4-1.6
		c0.5-0.6,1.1-1.1,1.5-1.8c1-1.2,1.9-2.4,2.8-3.7c0,0,0-0.1,0.1-0.1c6.4-9.3,10.2-20.6,10.2-32.8c0-1.8-0.1-3.6-0.3-5.3
		c0-0.5-0.1-1-0.2-1.5c-0.2-1.3-0.4-2.7-0.6-4c-0.1-0.4-0.2-0.9-0.3-1.3c-0.7-3.4-1.8-6.8-3.1-10c-0.2-0.4-0.3-0.7-0.5-1.1
		c-0.6-1.3-1.2-2.5-1.8-3.8c-0.2-0.3-0.3-0.7-0.5-1c-0.9-1.6-1.8-3.1-2.8-4.6c-0.1-0.1-0.2-0.2-0.3-0.3c-0.7-1-1.5-2-2.2-3
		c0-0.1,0-0.1-0.1-0.2s-0.2-0.2-0.2-0.3c-2.6-3.3-5.6-6.2-8.9-8.9c-0.1-0.1-0.2-0.2-0.3-0.2c0,0-0.1,0-0.2-0.1
		c-0.9-0.7-1.8-1.4-2.7-2c-0.1-0.1-0.2-0.2-0.3-0.2c-0.1-0.1-0.2-0.1-0.3-0.2c-0.3-0.2-0.7-0.4-1-0.6c-1.1-0.7-2.2-1.4-3.4-2
		c-0.5-0.3-1-0.5-1.5-0.8c-1.1-0.6-2.2-1.1-3.3-1.6c-0.5-0.2-0.9-0.4-1.4-0.6c-3.2-1.3-6.5-2.3-9.9-3.1c-0.5-0.1-1-0.2-1.5-0.3
		c-1.3-0.2-2.6-0.4-3.9-0.6c-0.5-0.1-1-0.1-1.6-0.2c-1.8-0.2-3.5-0.3-5.3-0.3c-12.2,0-23.5,3.8-32.8,10.2c0,0-0.1,0-0.1,0.1
		c-1.1,0.7-2.1,1.5-3.1,2.3c-0.1,0.1-0.2,0.1-0.2,0.2c-3.3,2.6-6.2,5.6-8.9,8.9c-0.1,0.1-0.2,0.2-0.2,0.2c-0.9,1.1-1.8,2.2-2.6,3.4
		v0.1c-6.3,9.3-10,20.5-10,32.6c0,1.8,0.1,3.6,0.3,5.3C-226.2,427.2-226.2,427.8-226.1,428.3L-226.1,428.3z M-199.2,460.6
		c-1.3-1.1-2.6-2.2-3.9-3.3l-1.3-1.3c-1.1-1.1-2.2-2.3-3.2-3.6l15.6-15.6c2.2,3.3,5,6.1,8.3,8.2L-199.2,460.6z M-188.4,421.4
		c0-2.4,0.5-4.7,1.2-6.8c0.2-0.7,0.5-1.3,0.8-1.9c0.3-0.6,0.6-1.2,1-1.8c2.3-3.6,5.6-6.3,9.6-7.9c2.2-0.9,4.6-1.3,7.1-1.3
		c0.6,0,1.3,0,1.9,0.1c0.4,0,0.8,0.1,1.2,0.2c0.2,0,0.4,0.1,0.6,0.1c0.5,0.1,1.1,0.2,1.6,0.4c0,0,0.1,0,0.2,0
		c0.6,0.2,1.1,0.3,1.7,0.6c5.4,2.1,9.6,6.3,11.6,11.7c0.2,0.5,0.4,1.1,0.5,1.6v0.1c0.1,0.5,0.2,1,0.3,1.5c0,0.2,0.1,0.4,0.1,0.6
		c0.1,0.4,0.1,0.8,0.2,1.1c0.1,0.6,0.1,1.2,0.1,1.8c0,2.5-0.5,4.9-1.3,7.1c-1.5,4-4.3,7.4-7.9,9.6c-0.6,0.4-1.2,0.7-1.8,1
		c-0.6,0.3-1.3,0.6-1.9,0.8c-2.1,0.8-4.4,1.2-6.8,1.2c-0.6,0-1.2,0-1.8-0.1c-0.4,0-0.7-0.1-1.1-0.2c-0.2,0-0.4-0.1-0.6-0.1
		c-0.5-0.1-1-0.2-1.5-0.3h-0.1c-0.5-0.2-1.1-0.3-1.6-0.5c-5.4-2-9.7-6.2-11.7-11.6c-0.2-0.6-0.4-1.1-0.6-1.7v-0.1
		c-0.1-0.5-0.3-1-0.4-1.6c0-0.2-0.1-0.4-0.1-0.6c-0.1-0.4-0.1-0.8-0.2-1.2C-188.4,422.7-188.4,422-188.4,421.4L-188.4,421.4z
		 M-168.5,471.3c-1.5,0-3.1-0.1-4.6-0.2c-0.3,0-0.6-0.1-0.9-0.1c-1.5-0.2-2.9-0.4-4.3-0.7c-0.2,0-0.4-0.1-0.7-0.1
		c-1.4-0.3-2.7-0.6-4.1-1c-0.1,0-0.2-0.1-0.4-0.1c-1.4-0.4-2.8-1-4.2-1.5c-0.2-0.1-0.4-0.2-0.6-0.3c-1.4-0.6-2.7-1.2-4.1-2
		l16.7-16.7c0.1,0,0.2,0,0.3,0c0.9,0.2,1.9,0.4,2.8,0.6c0.2,0,0.5,0.1,0.7,0.1c1.1,0.1,2.2,0.2,3.3,0.2c2.5,0,4.8-0.3,7.1-0.9
		l16.7,16.7C-151.8,469.1-159.9,471.3-168.5,471.3z M-129.7,452.7c-0.6,0.7-1.2,1.4-1.8,2c-0.4,0.4-0.8,0.9-1.2,1.3l-1.2,1.2
		c-0.8,0.8-1.6,1.6-2.5,2.3c-0.2,0.2-0.5,0.4-0.7,0.6c-0.2,0.2-0.4,0.3-0.6,0.5l-15.7-15.6c0,0,0.1,0,0.1-0.1c0.7-0.5,1.4-1,2.1-1.5
		c0.1-0.1,0.2-0.1,0.2-0.2c2.3-1.8,4.2-4,5.9-6.4l15.6,15.6C-129.6,452.5-129.6,452.6-129.7,452.7z M-124.7,397.6
		c0.7,1.3,1.4,2.7,2,4.1c0.1,0.2,0.2,0.4,0.3,0.6c0.6,1.4,1.1,2.8,1.5,4.2c0,0.1,0.1,0.2,0.1,0.4c0.4,1.3,0.8,2.7,1.1,4.1
		c0,0.2,0.1,0.4,0.1,0.7c0.3,1.4,0.5,2.9,0.7,4.3c0,0.3,0.1,0.6,0.1,0.9c0.1,1.5,0.2,3,0.2,4.6c0,8.7-2.3,16.9-6.2,24.1l-16.7-16.7
		c0.7-2.4,1-4.9,1-7.5c0-1.1-0.1-2.3-0.2-3.4c0-0.2-0.1-0.4-0.1-0.6c-0.1-1-0.3-1.9-0.6-2.9c0-0.1,0-0.2,0-0.2L-124.7,397.6z
		 M-137.5,382.4l8,8c0.1,0.1,0.1,0.1,0.2,0.2l-15.6,15.7c-2.1-3.3-4.9-6.1-8.2-8.3L-137.5,382.4z M-168.5,371.5
		c1.5,0,3.1,0.1,4.6,0.2c0.3,0,0.6,0.1,0.9,0.1c1.5,0.2,2.9,0.4,4.3,0.7c0.2,0,0.5,0.1,0.7,0.2c1.3,0.3,2.5,0.6,3.8,1
		c0.2,0.1,0.5,0.1,0.7,0.2c1.4,0.4,2.7,0.9,4,1.5c0.3,0.1,0.6,0.3,0.9,0.4c1.1,0.5,2.3,1,3.4,1.6c0.2,0.1,0.4,0.2,0.6,0.3
		c0.1,0,0.1,0.1,0.2,0.1l-16.6,16.6c-0.1,0-0.2,0-0.3-0.1c-1-0.3-2-0.5-3-0.6c-0.3,0-0.5-0.1-0.8-0.1c-1.1-0.1-2.3-0.2-3.5-0.2
		c-2.6,0-5.1,0.4-7.5,1l-16.5-16.6C-185.4,373.8-177.2,371.5-168.5,371.5z M-207.5,390.5l8.1-8.1l15.6,15.6
		c-2.4,1.6-4.6,3.6-6.4,5.9c-0.1,0.1-0.1,0.2-0.2,0.2c-0.5,0.7-1,1.4-1.5,2.1c0,0,0,0.1-0.1,0.1l-15.7-15.6
		C-207.6,390.6-207.6,390.5-207.5,390.5z M-212.3,397.6l16.7,16.7c-0.6,2.3-0.9,4.6-0.9,7.1c0,1.2,0.1,2.3,0.2,3.5
		c0,0.3,0.1,0.5,0.1,0.8c0.2,1,0.4,2,0.6,3c0,0.1,0,0.2,0.1,0.3l-16.6,16.5c0-0.1-0.1-0.1-0.1-0.2c-0.1-0.2-0.2-0.4-0.3-0.7
		c-0.6-1.1-1.1-2.2-1.6-3.3c-0.1-0.3-0.3-0.6-0.4-0.9c-0.5-1.3-1-2.6-1.5-4c-0.1-0.3-0.1-0.5-0.2-0.8c-0.4-1.2-0.7-2.5-1-3.7
		c-0.1-0.2-0.1-0.5-0.2-0.7c-0.3-1.4-0.5-2.8-0.7-4.3c0-0.3-0.1-0.6-0.1-1c-0.1-1.5-0.2-3-0.2-4.6
		C-218.4,412.8-216.2,404.7-212.3,397.6L-212.3,397.6z"/>
</g>
</svg>
