<?xml version="1.0" encoding="utf-8"?>
<!-- Generator: Adobe Illustrator 21.1.0, SVG Export Plug-In . SVG Version: 6.00 Build 0)  -->
<svg version="1.1" id="Capa_1" xmlns="http://www.w3.org/2000/svg" xmlns:xlink="http://www.w3.org/1999/xlink" x="0px" y="0px"
	 viewBox="-164 42.3 512 512" style="enable-background:new -164 42.3 512 512;" xml:space="preserve">
<style type="text/css">
	.st0{fill:#FFFFFF;}
</style>
<g>
	<path class="st0" d="M340.4,307.8l-24.9-24.9c-10.2-10.2-26.7-10.2-36.9,0L144,417.4l-18.5,68l-4.5,4.5c-3.4,3.4-3.4,8.9-0.1,12.3
		l0,0.2l0.2,0c1.7,1.7,3.9,2.5,6.1,2.5c2.2,0,4.5-0.9,6.2-2.6l4.5-4.5l68-18.5l134.6-134.6C350.5,334.5,350.5,318,340.4,307.8z
		 M164.2,422l89.6-89.6l37.1,37.1l-89.6,89.6L164.2,422z M156.3,438.8l28.2,28.2l-38.7,10.6L156.3,438.8z M328,332.3l-24.8,24.8
		l-37.1-37.1l24.8-24.8c3.4-3.4,8.8-3.4,12.2,0l24.9,24.9C331.4,323.5,331.4,329,328,332.3z"/>
	<path class="st0" d="M89.5,432.6h-219.6c39.8-31.5,129.4-103,175.5-143.4l12.4,11c8.8,7.8,20.3,11.7,31.8,11.7
		c11.5,0,23-3.9,31.7-11.7l204.4-180.4v138c0,4.8,3.9,8.7,8.7,8.7s8.7-3.9,8.7-8.7V100.4c0-0.1,0-0.1,0-0.2c0-1-0.2-1.9-0.5-2.9
		c0-0.1-0.1-0.1-0.1-0.2c-0.1-0.2-0.3-0.4-0.4-0.6c-0.4-0.7-0.8-1.4-1.3-1.9c-0.2-0.2-0.5-0.5-0.7-0.7c-0.5-0.5-1.1-0.9-1.8-1.2
		c-0.3-0.1-0.6-0.3-0.8-0.4c-1-0.4-2-0.6-3.1-0.6h-489.6c-1.1,0-2.1,0.3-3.1,0.6c-0.3,0.1-0.6,0.3-0.8,0.4c-0.6,0.3-1.2,0.7-1.8,1.2
		c-0.3,0.2-0.5,0.4-0.7,0.7c-0.5,0.6-0.9,1.2-1.3,1.9c-0.1,0.2-0.3,0.4-0.4,0.6c0,0.1-0.1,0.1-0.1,0.2c-0.3,0.9-0.5,1.9-0.5,2.9
		c0,0.1,0,0.1,0,0.2v341c0,0,0,0,0,0.1c0,0.9,0.1,1.9,0.5,2.8c0,0.1,0.1,0.2,0.2,0.3c0.1,0.3,0.3,0.6,0.5,0.9
		c0.3,0.6,0.7,1.2,1.2,1.8c0.2,0.3,0.5,0.5,0.8,0.7c0.5,0.5,1.1,0.8,1.7,1.2c0.3,0.2,0.6,0.3,0.9,0.4c1,0.4,2,0.6,3.1,0.6H89.5
		c4.8,0,8.7-3.9,8.7-8.7S94.4,432.6,89.5,432.6z M-146.5,423.3V119.8L32.2,277.5C-16.4,320-110.8,395.1-146.5,423.3z M311.2,109.1
		l-201.6,178c-11.1,9.9-29.1,9.9-40.2,0l-17.3-15.3c-0.1-0.1-0.1-0.1-0.1-0.2c-0.2-0.2-0.5-0.3-0.7-0.5l-183.5-162H311.2z"/>
</g>
</svg>
