<?xml version="1.0" encoding="utf-8"?>
<!-- Generator: Adobe Illustrator 21.1.0, SVG Export Plug-In . SVG Version: 6.00 Build 0)  -->
<svg version="1.1" id="Слой_1" xmlns="http://www.w3.org/2000/svg" xmlns:xlink="http://www.w3.org/1999/xlink" x="0px" y="0px"
	 viewBox="-41 164.9 512 512" style="enable-background:new -41 164.9 512 512;" xml:space="preserve">
<style type="text/css">
	.st0{fill:#232323;}
</style>
<g>
	<path class="st0" d="M451.4,628.8L334.9,512.3c28.9-35.2,46.3-80.3,46.3-129.5c0-112.8-91.5-204.3-204.3-204.3
		C64,178.5-27.4,270-27.4,382.8S64,587.1,176.9,587.1c49.2,0,94.2-17.3,129.4-46.2l116.5,116.4c7.9,7.9,20.7,7.9,28.6,0
		C459.3,649.5,459.3,636.6,451.4,628.8z M176.9,546.4c-90.3,0-163.7-73.4-163.7-163.6s73.4-163.7,163.7-163.7
		c90.2,0,163.7,73.5,163.7,163.7S267.1,546.4,176.9,546.4z"/>
</g>
</svg>
