<?xml version="1.0" encoding="utf-8"?>
<!-- Generator: Adobe Illustrator 21.1.0, SVG Export Plug-In . SVG Version: 6.00 Build 0)  -->
<svg version="1.1" id="Layer_1" xmlns="http://www.w3.org/2000/svg" xmlns:xlink="http://www.w3.org/1999/xlink" x="0px" y="0px"
	 viewBox="0 0 512 512" style="enable-background:new 0 0 512 512;" xml:space="preserve">
<style type="text/css">
	.st0{fill:#00A2FF;}
</style>
<g>
	<g>
		<path class="st0" d="M503.7,291.9c4.6,0,8.3-3.7,8.3-8.3V167.1c0-6.9-8.2-10.8-13.6-6.4c-10.8,8.9-33.7,23.9-65.8,25.1
			c-37.5,1.4-64.3-17.1-74.1-25.1c-3.1-2.5-7.5-2.5-10.5,0c-1.5,1.2-3,2.3-4.5,3.5v-6H371c4.6,0,8.3-3.7,8.3-8.3V87.4h44.8
			c4.6,0,8.3-3.7,8.3-8.3V8.3c0-4.6-3.7-8.3-8.3-8.3H96.8c-4.6,0-8.3,3.7-8.3,8.3v62.5H43.7c-4.6,0-8.3,3.7-8.3,8.3v62.5H8.3
			c-4.6,0-8.3,3.7-8.3,8.3v70.8c0,4.6,3.7,8.3,8.3,8.3h53.6v54.2H26c-4.6,0-8.3,3.7-8.3,8.3v70.8c0,4.6,3.7,8.3,8.3,8.3h18.2v54.2
			H17.1c-4.6,0-8.3,3.7-8.3,8.3v70.8c0,4.6,3.7,8.3,8.3,8.3h327.3c1.1,0,8.6,0,8.8,0s0.6,0,0.9,0c23.7-2.5,59.1-10.9,92.7-37.1
			c43.6-34,59.4-78.4,64.9-101.9c0.1-0.6,0.2-1.3,0.2-1.9v-43.7c0-4.6-3.7-8.3-8.3-8.3s-8.3,3.7-8.3,8.3V370
			c-5.2,21.6-19.7,61.3-58.7,91.7c-30.1,23.5-61.8,31.2-83.4,33.6c-21.6-2.3-53.3-10.1-83.4-33.6c-39-30.4-53.5-70.1-58.7-91.7
			V183.2c16.1,10,34.4,16.4,53.2,18.5c20.8,2.3,41.9-0.9,61.2-8.7c9.8-4,19.1-9.2,27.7-15.4c14.1,10.2,42.3,26.2,79.9,24.8
			c26.7-1,47.8-10.3,62.2-19.2v100.4C495.4,288.2,499.1,291.9,503.7,291.9z M282,489.7c3.7,2.1,7.4,4,11.1,5.7H282V489.7z
			 M362.7,141.5h-54.2V87.4h54.2V141.5z M361.6,16.6h54.2v54.2h-54.2V16.6z M299.7,16.6H345v54.2h-45.3V16.6z M237.8,16.6h45.3v54.2
			h-45.3L237.8,16.6L237.8,16.6z M175.8,16.6h45.3v54.2h-45.3V16.6z M105.1,353.9v-54.2h45.3v54.2H105.1z M115,370.5v54.2H60.8
			v-54.2H115z M132.7,228.9v54.2H78.5v-54.2L132.7,228.9L132.7,228.9z M87.4,212.3v-54.2h45.3v54.2H87.4z M131.6,370.5h45.3v54.2
			h-45.3V370.5z M167,353.9v-54.2h27.6v54.2H167z M149.3,283.1v-54.2h45.3v54.2H149.3z M149.3,212.3v-54.2h45.3v54.2H149.3z
			 M168.1,141.5h-45.3V87.4h45.3V141.5z M105.1,16.6h54.2v54.2h-54.2V16.6z M52,87.4h54.2v54.2H52V87.4z M16.6,212.3v-54.2h54.2
			v54.2h-0.6H16.6z M34.3,353.9v-54.2h54.2v54.2H34.3z M79.6,495.4H25.4v-54.2h54.2V495.4z M141.5,495.4H96.2v-54.2h45.3V495.4z
			 M203.5,495.4h-45.3v-54.2h45.3V495.4z M220.1,441.2h6.1h0.6c8.7,11.6,19.5,23.1,33,33.6c1.9,1.5,3.8,2.9,5.7,4.2
			c0,0.1,0,0.2,0,0.3v16h-45.3V441.2z M215.7,424.6h-22.2v-54.2h1.1v0.6c0,0.6,0.1,1.3,0.2,1.9C197.9,385.7,203.9,404.6,215.7,424.6
			z M184.7,141.5V87.4H230v54.2L184.7,141.5L184.7,141.5z M256.6,183.7c-20.6-4.2-36.1-13.6-45.3-20.6v-5h45.3V183.7z M246.6,141.5
			V87.4h45.3v54.2L246.6,141.5L246.6,141.5z M274,185.8c-0.3,0-0.6,0-0.9,0v-27.6H327v16c0,0,0,0,0,0
			C314.5,180.4,296.2,186.6,274,185.8z"/>
	</g>
</g>
<g>
	<g>
		<path class="st0" d="M466.1,216.2c-12.2,3.3-24.9,5-37.6,5c-25.1,0-49-6.3-71.2-18.8c-2.5-1.4-5.6-1.4-8.1,0
			c-22.2,12.4-46.1,18.8-71.2,18.8c-12.7,0-25.3-1.7-37.6-5c-5.2-1.4-10.5,2.6-10.5,8V266c0,4.6,3.7,8.3,8.3,8.3s8.3-3.7,8.3-8.3
			v-31.2c10.3,2.1,20.9,3.1,31.4,3.1c26.4,0,51.7-6.3,75.3-18.7c23.6,12.4,48.9,18.7,75.3,18.7c10.5,0,21.1-1,31.4-3.1v130.8
			c-4.5,16.3-16.2,45.8-45.1,68.3c-22.2,17.3-45.6,23.6-61.6,25.8c-16.1-2.2-39.4-8.5-61.6-25.8c-28.9-22.5-40.6-52.1-45.1-68.3
			v-55.9c0-4.6-3.7-8.3-8.3-8.3s-8.3,3.7-8.3,8.3v57c0,0.7,0.1,1.4,0.3,2.1c4.8,18,17.9,52.2,51.2,78.2c25.6,20,52.6,27,70.7,29.4
			c0.7,0.1,1.4,0.1,2.1,0c18.1-2.4,45.1-9.4,70.7-29.4c33.4-26,46.4-60.1,51.2-78.2c0.2-0.7,0.3-1.4,0.3-2.1V224.3
			C476.6,218.9,471.3,214.8,466.1,216.2z"/>
	</g>
</g>
<g>
	<g>
		<path class="st0" d="M361.6,332.5v-45.9c10.9,3.5,18.8,13.7,18.8,25.8c0,4.6,3.7,8.3,8.3,8.3s8.3-3.7,8.3-8.3
			c0-21.2-15.3-39-35.4-42.9v-10.2c0-4.6-3.7-8.3-8.3-8.3s-8.3,3.7-8.3,8.3v10.2c-20.1,3.9-35.4,21.6-35.4,42.9
			c0,21.5,18.3,28.4,35.4,33v45.9c-10.9-3.5-18.8-13.7-18.8-25.8c0-4.6-3.7-8.3-8.3-8.3c-4.6,0-8.3,3.7-8.3,8.3
			c0,21.2,15.3,39,35.4,42.9v10.2c0,4.6,3.7,8.3,8.3,8.3s8.3-3.7,8.3-8.3v-10.2c20.1-3.9,35.4-21.6,35.4-42.9
			C397,344,378.7,337,361.6,332.5z M345,328.1c-12.7-3.8-18.8-7.6-18.8-15.7c0-12,7.9-22.3,18.8-25.8V328.1z M361.6,391.3v-41.5
			c12.7,3.8,18.8,7.6,18.8,15.7C380.4,377.5,372.5,387.8,361.6,391.3z"/>
	</g>
</g>
</svg>
