<?xml version="1.0" encoding="utf-8"?>
<!-- Generator: Adobe Illustrator 21.1.0, SVG Export Plug-In . SVG Version: 6.00 Build 0)  -->
<svg version="1.1" id="Capa_1" xmlns="http://www.w3.org/2000/svg" xmlns:xlink="http://www.w3.org/1999/xlink" x="0px" y="0px"
	 viewBox="-164 42.3 512 512" style="enable-background:new -164 42.3 512 512;" xml:space="preserve">
<style type="text/css">
	.st0{fill:#FFFFFF;}
</style>
<g>
	<path class="st0" d="M-78.7,259.6H32.3c4.7,0,8.5-3.8,8.5-8.5c0-4.7-3.8-8.5-8.5-8.5H-78.7c-4.7,0-8.5,3.8-8.5,8.5
		C-87.2,255.8-83.4,259.6-78.7,259.6z"/>
	<path class="st0" d="M143.2,293.7H-78.7c-4.7,0-8.5,3.8-8.5,8.5s3.8,8.5,8.5,8.5h221.9c4.7,0,8.5-3.8,8.5-8.5
		S147.9,293.7,143.2,293.7z"/>
	<path class="st0" d="M143.2,344.9H-78.7c-4.7,0-8.5,3.8-8.5,8.5s3.8,8.5,8.5,8.5h221.9c4.7,0,8.5-3.8,8.5-8.5
		S147.9,344.9,143.2,344.9z"/>
	<path class="st0" d="M297.4,63.9L6.1,63.3c-27.9,0-50.6,22.7-50.6,50.6v43.7l-68.9,0.1c-27.9,0-50.6,22.7-50.6,50.6v180.4
		c0,27.9,22.7,50.6,50.6,50.6h51.8v85.3c0,3.5,2.2,6.7,5.5,8c1,0.4,2,0.6,3.1,0.6c2.4,0,4.7-1,6.3-2.8l82.8-91.1l141.9-0.6
		c27.9,0,50.6-22.7,50.6-50.6v-1l44.9,49.4c1.6,1.8,4,2.8,6.3,2.8c1,0,2.1-0.2,3.1-0.6c3.3-1.3,5.5-4.4,5.5-8v-85.3h9.1
		c27.9,0,50.6-22.7,50.6-50.6V114.5C348,86.6,325.3,63.9,297.4,63.9z M211.5,388.2c0,18.5-15,33.5-33.6,33.5l-145.7,0.6
		c-2.4,0-4.7,1-6.3,2.8l-70.5,77.5v-71.8c0-4.7-3.8-8.5-8.5-8.5h-60.3c-18.5,0-33.5-15-33.5-33.5V208.4c0-18.5,15-33.5,33.6-33.5
		l77.4-0.2l0,0c0,0,0,0,0,0l213.9-0.4c18.5,0,33.5,15,33.5,33.5v157.4V388.2z M330.9,294.9c0,18.5-15,33.5-33.5,33.5h-17.7
		c-4.7,0-8.5,3.8-8.5,8.5v71.8l-42.7-46.9V207.8c0-27.9-22.7-50.6-50.6-50.6l-205.4,0.4v-43.7c0-18.5,15-33.5,33.5-33.5L297.4,81
		c0,0,0,0,0,0c18.5,0,33.5,15,33.5,33.5L330.9,294.9L330.9,294.9z"/>
</g>
</svg>
