<?xml version="1.0" encoding="utf-8"?>
<!-- Generator: Adobe Illustrator 21.1.0, SVG Export Plug-In . SVG Version: 6.00 Build 0)  -->
<svg version="1.1" id="Layer_1" xmlns="http://www.w3.org/2000/svg" xmlns:xlink="http://www.w3.org/1999/xlink" x="0px" y="0px"
	 viewBox="0 0 512 512" style="enable-background:new 0 0 512 512;" xml:space="preserve">
<style type="text/css">
	.st0{fill:#00A2FF;}
</style>
<g>
	<g>
		<g>
			<path class="st0" d="M49.9,214.2c-4.5,0-8.1,3.6-8.1,8.1v5.6c0,4.5,3.6,8.1,8.1,8.1s8.1-3.6,8.1-8.1v-5.6
				C58,217.8,54.3,214.2,49.9,214.2z"/>
			<path class="st0" d="M49.9,186.5c-4.5,0-8.1,3.6-8.1,8.1v5.6c0,4.5,3.6,8.1,8.1,8.1s8.1-3.6,8.1-8.1v-5.6
				C58,190.1,54.3,186.5,49.9,186.5z"/>
			<path class="st0" d="M470.3,284.1c0-4.5-3.6-8.1-8.1-8.1c-4.5,0-8.1,3.6-8.1,8.1v5.6c0,4.5,3.6,8.1,8.1,8.1
				c4.5,0,8.1-3.6,8.1-8.1V284.1z"/>
			<path class="st0" d="M454,311.8v5.6c0,4.5,3.6,8.1,8.1,8.1c4.5,0,8.1-3.6,8.1-8.1v-5.6c0-4.5-3.6-8.1-8.1-8.1
				S454,307.3,454,311.8z"/>
			<path class="st0" d="M496.7,398.6c0.8-2.3,1.3-4.8,1.3-7.4v-0.6c0-4-1-7.7-2.8-10.9c0-0.1,0-0.1,0-0.2v-74.2
				c0-4.5-3.6-8.1-8.1-8.1s-8.1,3.6-8.1,8.1v63.1c-1.1-0.2-2.3-0.3-3.4-0.3h-0.6h-40.8H425c5.4-5.3,10-11.7,11.6-18.9
				c1.6-7.5-0.3-14.9-5.5-21.4c0-0.1-0.1-0.1-0.1-0.2c-0.6-0.7-15.2-17.2-45,4.5c-3.2,2.3-6.2,4.1-8.9,5.4v-72.2h101.9v12.3
				c0,4.5,3.6,8.1,8.1,8.1s8.1-3.6,8.1-8.1v-56.1c0-4.5-3.6-8.1-8.1-8.1H482v-25.2c8.8-7.6,14.5-21.9,17.5-43.5
				c2.3-16.4,2.1-31,2-32.5V71c0-12.4-10.1-22.5-22.5-22.5h-0.6c-2.2,0-4.3,0.3-6.2,0.9V36.5c0-12.4-10.1-22.5-22.5-22.5h-0.6
				c-2.6,0-5,0.5-7.3,1.2C438.8,6.4,430.4,0,420.5,0h-0.6c-9.9,0-18.3,6.4-21.3,15.3c-2.3-0.8-4.8-1.3-7.4-1.3h-0.6
				c-4,0-7.7,1-10.9,2.9c-0.2,0-0.5,0-0.7,0H221.6c-4.5,0-8.1,3.6-8.1,8.1V30h-25.2c-7.6-8.8-21.9-14.5-43.5-17.5
				c-16.4-2.3-31.1-2.1-32.5-2H71c-12.4,0-22.5,10.1-22.5,22.5v0.6c0,2.2,0.3,4.3,0.9,6.2H36.5C24.1,39.8,14,49.9,14,62.3v0.6
				c0,2.6,0.5,5,1.3,7.3C6.4,73.2,0,81.6,0,91.5v0.6c0,9.9,6.4,18.3,15.3,21.3c-0.8,2.3-1.3,4.8-1.3,7.4v0.6c0,3.9,1,7.7,2.8,10.9
				v158.1c0,4.5,3.6,8.1,8.1,8.1H30v25.2c-8.8,7.6-14.5,21.9-17.5,43.5c-2.3,16.4-2.1,31.1-2,32.5V441c0,12.4,10.1,22.5,22.5,22.5
				h0.6c2.2,0,4.3-0.3,6.2-0.9v12.9c0,12.4,10.1,22.5,22.5,22.5h0.6c2.6,0,5-0.5,7.3-1.2c3,8.9,11.4,15.3,21.3,15.3h0.6
				c9.9,0,18.3-6.4,21.3-15.3c2.3,0.8,4.8,1.3,7.4,1.3h0.6c3.9,0,7.7-1,10.9-2.8h29.4c4.5,0,8.1-3.6,8.1-8.1s-3.6-8.1-8.1-8.1h-18
				c0.2-1.1,0.3-2.3,0.3-3.4v-0.6v-40.8V425c5.3,5.4,11.7,10,18.9,11.6c1.7,0.4,3.5,0.6,5.2,0.6c5.7,0,11.2-2.1,16.2-6.1
				c0.1,0,0.1-0.1,0.2-0.1c0.7-0.6,17.2-15.2-4.5-45c-2.3-3.2-4.1-6.2-5.4-8.9h72.2v101.9h-59.7c-4.5,0-8.1,3.6-8.1,8.1
				s3.6,8.1,8.1,8.1h103.5c4.5,0,8.1-3.6,8.1-8.1V482h25.2c7.6,8.8,21.9,14.5,43.5,17.5c13.2,1.8,25.4,2.1,30.3,2.1
				c1.2,0,1.9,0,2.2,0H441c12.4,0,22.5-10.1,22.5-22.5v-0.6c0-2.2-0.3-4.3-0.9-6.2h12.9c12.4,0,22.5-10.1,22.5-22.5v-0.6
				c0-2.6-0.5-5-1.3-7.3c8.9-3,15.3-11.4,15.3-21.3v-0.6C512,410,505.6,401.6,496.7,398.6z M478.9,249.2H377v-19.4h101.9
				L478.9,249.2L478.9,249.2z M379.9,119.6c3-1.5,4.7-4.7,4.5-7.9c0-0.2,0-0.3,0-0.5V77.9V37.1v-0.6c0-3.4,2.8-6.2,6.2-6.2h0.6v0
				c3.4,0,6.2,2.8,6.2,6.2c0,0.1,0,0.2,0,0.3c0,0.1,0,0.2,0,0.3V106c0,4.5,3.6,8.1,8.1,8.1c4.5,0,8.1-3.6,8.1-8.1V37.1
				c0-0.1,0-0.2,0-0.3c0-0.1,0-0.2,0-0.3v-14c0-3.4,2.8-6.2,6.2-6.2h0.6c3.4,0,6.2,2.8,6.2,6.2v11.7c-0.1,0.8-0.1,1.6-0.1,2.4v17.8
				c0,0.5,0,0.9,0.1,1.4V106c0,4.5,3.6,8.1,8.1,8.1s8.1-3.6,8.1-8.1V50.3c0-0.5,0-0.9-0.1-1.4v-0.2c0.1-0.5,0.1-0.9,0.1-1.4V35.3
				c0.6-2.8,3.1-5,6.1-5h0.6c3.4,0,6.2,2.8,6.2,6.2v28.7V71v35c0,4.5,3.6,8.1,8.1,8.1s8.1-3.6,8.1-8.1V71c0-3.4,2.8-6.2,6.2-6.2h0.6
				c3.4,0,6.2,2.8,6.2,6.2v41.4c0,0.1,0,0.1,0,0.2c0.5,22.7-4,57.9-15.6,64.7c-2.5,1.5-4,4.1-4,7v29.3h-77.4V194
				c0-2.5-1.2-4.9-3.2-6.5c-22.8-17.2-24.5-26.7-26.6-38.6c-1.6-9-3.5-19.2-13.1-32.4c-9.7-13.2-8.8-20.8-6.9-23.2
				c3.2-2.5,5.6-2.4,7.4-2c8.8,1.9,18.9,16.1,23.2,24.7C371,120,375.9,121.6,379.9,119.6z M265.4,33.1h103c-0.2,1.1-0.3,2.3-0.3,3.4
				v0.6v40.8V87c-5.3-5.4-11.7-10-18.9-11.6c-7.5-1.6-14.9,0.3-21.4,5.5c-0.1,0-0.1,0.1-0.2,0.1c-0.7,0.6-17.2,15.2,4.5,45
				c2.3,3.2,4.1,6.2,5.4,8.9h-72.2L265.4,33.1L265.4,33.1z M229.7,33.1h19.4V135h-19.4V33.1z M22.5,98.3c-3.4,0-6.2-2.8-6.2-6.2
				v-0.6c0-3.4,2.8-6.2,6.2-6.2h11.7c0.8,0.1,1.6,0.1,2.4,0.1h17.8c0.5,0,0.9-0.1,1.4-0.1H106c4.5,0,8.1-3.6,8.1-8.1
				S110.5,69,106,69H50.3c-0.5,0-0.9,0.1-1.4,0.1h-0.2c-0.5-0.1-0.9-0.1-1.4-0.1H35.3c-2.8-0.6-5-3.1-5-6.1v-0.6
				c0-3.4,2.8-6.2,6.2-6.2h28.7H71h35c4.5,0,8.1-3.6,8.1-8.1s-3.6-8.1-8.1-8.1H71c-3.4,0-6.2-2.8-6.2-6.2V33c0-3.4,2.8-6.2,6.2-6.2
				h41.4c0.1,0,0.1,0,0.2,0c22.7-0.5,57.9,4,64.7,15.6c1.5,2.5,4.1,4,7,4h29.3v77.4H194c-2.5,0-4.9,1.2-6.5,3.2
				c-17.2,22.8-26.7,24.5-38.6,26.6c-9,1.6-19.2,3.5-32.4,13.1c-13.2,9.7-20.8,8.8-23.2,6.9c-2.5-3.2-2.4-5.6-2-7.4
				c1.9-8.8,16.1-18.9,24.7-23.2c4-2,5.6-6.9,3.6-10.9c-1.5-3-4.7-4.7-7.9-4.5c-0.2,0-0.3,0-0.5,0H77.9H37.1h-0.6
				c-3.4,0-6.2-2.8-6.2-6.2v-0.6c0-3.4,2.8-6.2,6.2-6.2c0.1,0,0.2,0,0.3,0c0.1,0,0.2,0,0.3,0H106c4.5,0,8.1-3.6,8.1-8.1
				s-3.6-8.1-8.1-8.1H37.1c-0.1,0-0.2,0-0.3,0c-0.1,0-0.2,0-0.3,0L22.5,98.3L22.5,98.3z M135,246.6H33.1v-103
				c1.1,0.2,2.3,0.3,3.4,0.3h0.6h40.8H87c-5.4,5.3-10,11.7-11.6,18.9c-1.6,7.5,0.3,14.9,5.5,21.4c0,0.1,0.1,0.1,0.1,0.2
				c0.4,0.4,5.9,6.6,16.8,6.6c7.1,0,16.5-2.6,28.2-11.2c3.2-2.3,6.2-4.1,8.9-5.4L135,246.6L135,246.6L135,246.6z M135,262.8v19.4
				H33.1v-19.4H135z M173.6,418.7c-3.2,2.5-5.6,2.4-7.4,2c-8.8-1.9-18.9-16.1-23.2-24.7c-2-4-6.9-5.6-10.9-3.6
				c-3,1.5-4.7,4.7-4.5,7.9c0,0.2,0,0.3,0,0.5v33.4v40.8v0.6c0,3.4-2.8,6.2-6.2,6.2h-0.6c-3.4,0-6.2-2.8-6.2-6.2c0-0.1,0-0.2,0-0.3
				c0-0.1,0-0.2,0-0.3V406c0-4.5-3.6-8.1-8.1-8.1s-8.1,3.6-8.1,8.1v68.9c0,0.1,0,0.2,0,0.3c0,0.1,0,0.2,0,0.3v14
				c0,3.4-2.8,6.2-6.2,6.2h-0.6c-3.4,0-6.2-2.8-6.2-6.2v-11.7c0.1-0.8,0.1-1.6,0.1-2.4v-17.8c0-0.5,0-0.9-0.1-1.4V406
				c0-4.5-3.6-8.1-8.1-8.1S69,401.5,69,406v55.7c0,0.5,0,0.9,0.1,1.4v0.2c-0.1,0.5-0.1,0.9-0.1,1.4v12.1c-0.6,2.8-3.1,5-6.1,5h-0.6
				c-3.4,0-6.2-2.8-6.2-6.2v-28.7V441v-35c0-4.5-3.6-8.1-8.1-8.1s-8.1,3.6-8.1,8.1v35c0,3.4-2.8,6.2-6.2,6.2H33
				c-3.4,0-6.2-2.8-6.2-6.2v-41.4c0-0.1,0-0.1,0-0.2c-0.5-22.8,4-57.9,15.6-64.7c2.5-1.5,4-4.1,4-7v-29.3h77.4V318
				c0,2.5,1.2,4.9,3.2,6.5c22.8,17.2,24.5,26.7,26.6,38.6c0.4,2.4,0.9,4.8,1.5,7.4c0,0,0,0,0,0c1.7,7.2,4.6,15.2,11.7,25
				C176.3,408.7,175.5,416.3,173.6,418.7z M282.3,478.9h-19.4V377h19.4V478.9z M290.4,360.7H169.6c0-0.2-0.1-0.4-0.1-0.5
				c-2.4-13-4.8-26.5-29.6-46.1v-15.5h3.2c4.5,0,8.1-3.6,8.1-8.1V169.6c0.2,0,0.4-0.1,0.5-0.1c13-2.4,26.5-4.8,46.1-29.6h15.5v3.3
				c0,4.5,3.6,8.1,8.1,8.1h120.8c0,0.2,0.1,0.4,0.1,0.5c2.4,13,4.8,26.5,29.6,46.1v15.5h-3.3c-4.5,0-8.1,3.6-8.1,8.1v120.8
				c-0.2,0-0.4,0.1-0.5,0.1c-13,2.4-26.5,4.8-46.1,29.6h-15.5v-3.2C298.5,364.4,294.9,360.7,290.4,360.7z M495.8,420.5
				c0,3.4-2.8,6.2-6.2,6.2h-11.7c-0.8-0.1-1.6-0.1-2.4-0.1h-17.8c-0.5,0-0.9,0-1.4,0.1H406c-4.5,0-8.1,3.6-8.1,8.1s3.6,8.1,8.1,8.1
				h55.7c0.5,0,0.9,0,1.4-0.1h0.2c0.5,0.1,0.9,0.1,1.4,0.1h12.1c2.8,0.6,5,3.1,5,6.1v0.6h0c0,3.4-2.8,6.2-6.2,6.2h-28.7H441h-35
				c-4.5,0-8.1,3.6-8.1,8.1s3.6,8.1,8.1,8.1h35c3.4,0,6.2,2.8,6.2,6.2v0.6c0,3.4-2.8,6.2-6.2,6.2h-41.4c-0.1,0-0.1,0-0.2,0
				c-17.7,0.4-42.9-2.3-56.4-8.9c-0.2-0.3-0.4-0.6-0.6-0.9c-1.2-2-3.3-3.2-5.5-3.2c-0.9-0.8-1.6-1.7-2.1-2.6c-1.5-2.5-4.1-4-7-4
				h-29.3v-77.4H318c2.5,0,4.9-1.2,6.5-3.2c17.2-22.8,26.7-24.5,38.6-26.6c9-1.6,19.2-3.5,32.4-13.1c13.2-9.7,20.8-8.8,23.2-6.9
				c2.5,3.2,2.4,5.6,2,7.4c-1.9,8.8-16.1,18.9-24.7,23.2c-4,2-5.6,6.9-3.6,10.9c1.5,3,4.7,4.7,7.9,4.5c0.2,0,0.3,0,0.5,0h33.4h40.8
				h0.6c3.4,0,6.2,2.8,6.2,6.2v0.6c0,3.4-2.8,6.2-6.2,6.2c-0.1,0-0.2,0-0.3,0c-0.1,0-0.2,0-0.3,0H406c-4.5,0-8.1,3.6-8.1,8.1
				s3.6,8.1,8.1,8.1h68.9c0.1,0,0.2,0,0.3,0c0.1,0,0.2,0,0.3,0h14c3.4,0,6.2,2.8,6.2,6.2L495.8,420.5L495.8,420.5z"/>
			<path class="st0" d="M227.9,470.3c4.5,0,8.1-3.6,8.1-8.1s-3.6-8.1-8.1-8.1h-5.6c-4.5,0-8.1,3.6-8.1,8.1s3.6,8.1,8.1,8.1H227.9z"
				/>
			<path class="st0" d="M194.6,470.3h5.6c4.5,0,8.1-3.6,8.1-8.1s-3.6-8.1-8.1-8.1h-5.6c-4.5,0-8.1,3.6-8.1,8.1
				C186.5,466.6,190.1,470.3,194.6,470.3z"/>
			<path class="st0" d="M289.7,41.7h-5.6c-4.5,0-8.1,3.6-8.1,8.1s3.6,8.1,8.1,8.1h5.6c4.5,0,8.1-3.6,8.1-8.1S294.2,41.7,289.7,41.7z
				"/>
			<path class="st0" d="M325.5,49.9c0-4.5-3.6-8.1-8.1-8.1h-5.6c-4.5,0-8.1,3.6-8.1,8.1s3.6,8.1,8.1,8.1h5.6
				C321.9,58,325.5,54.3,325.5,49.9z"/>
		</g>
	</g>
</g>
</svg>
