<?xml version="1.0" encoding="utf-8"?>
<!-- Generator: Adobe Illustrator 20.1.0, SVG Export Plug-In . SVG Version: 6.00 Build 0)  -->
<svg version="1.1" id="Слой_1" xmlns="http://www.w3.org/2000/svg" xmlns:xlink="http://www.w3.org/1999/xlink" x="0px" y="0px"
	 viewBox="0 0 388.8 70.6" style="enable-background:new 0 0 388.8 70.6;" xml:space="preserve">
<style type="text/css">
	.st0{fill:#191412;}
	.st1{fill:#FF4C00;}
	.st2{fill:#A4A3A3;}
</style>
<g>
	<path class="st0" d="M115.7,7.7c-0.1,0.4-3.9,12.9-3.9,12.9H99.6l3.9-12.9h-14c0,0-10.6,34.6-10.8,35.3h14
		c0.1-0.4,4.5-14.8,4.5-14.8h12.2c0,0-4.3,14.1-4.5,14.8h14c0.1-0.4,10.6-34.6,10.8-35.3H115.7z"/>
	<path class="st0" d="M189.4,11.6l-0.6,0.5l1.3-4.3h-14c0,0-10.6,34.6-10.8,35.3h14c0.1-0.4,6.5-21.3,6.5-21.3c0.9-3,3.2-5,5.8-5
		h3.6c1.1,0,2,0.4,2.6,1.1c0.4,0.5,0.6,1.2,0.6,2.1c0,0.6-0.1,1.2-0.3,1.9c0,0-5.6,18.4-6.5,21.2h14c0.1-0.4,7.6-24.9,7.6-24.9
		c0.2-0.7,0.5-2,0.5-3.4c0-1.5-0.3-3.1-1.4-4.5c-1.6-2.1-4.3-3.2-8.2-3.2C196.6,7,191.7,9.9,189.4,11.6"/>
	<path class="st0" d="M133.9,10.3c0.1,0.4,2,7,2.2,7.5c1.2-0.5,6.5-2.6,11-2.6c4.3,0,6.8,0.6,7.7,1.8c0.5,0.6,0.5,1.4,0.2,2.5
		l-0.9,2.9l-0.3-0.1c-5.9-1.9-10.4-1.9-10.4-1.9c-4.7,0-8.9,1.2-12.2,3.4c-3.1,2.1-5.4,5.1-6.5,8.7c-1,3.2-0.7,5.9,0.7,7.8
		c1.7,2.2,4.9,3.4,9.5,3.4c4.3,0,9-1.1,13.1-3.1l0.5-0.3c0,0-0.7,2.2-0.8,2.7h14c0.1-0.4,7.5-24.4,7.5-24.4c0.3-1,0.5-2,0.5-2.9
		c0-1.5-0.4-2.9-1.3-4.1c-2.3-3-7.5-4.7-15-4.7C144.2,7,135.4,9.8,133.9,10.3 M145,27.6c1.1,0,4.7,0.1,7,1.1l0.2,0.1l-1.6,5.1
		l-0.1,0.1c-2.2,1-5.4,1.7-7.8,1.7c-2.4,0-4-0.5-4.8-1.6c-0.3-0.4-0.5-1-0.5-1.5c0-0.3,0.1-0.7,0.2-1.1
		C138.4,29.1,141.1,27.6,145,27.6"/>
	<path class="st0" d="M244,7.6c-0.2,0.1-13.4,10.6-13.4,10.6l3.3-10.6h-14c0,0-10.8,35.1-11,35.8h14c0.1-0.4,4.4-14.5,4.4-14.5
		s10,14.3,10.2,14.5h15c-0.5-0.8-12.8-18.3-12.8-18.3s20.1-16.6,21.2-17.5H244z"/>
	<path class="st0" d="M249.8,25.4L249.8,25.4c-1.5,5-0.9,9.6,1.6,13.1c2.9,3.9,8.1,6.1,14.7,6.1c15.5,0,24.2-6,28.3-19.4
		c1.5-5,0.9-9.6-1.6-13.1c-2.9-3.9-8.1-6.1-14.7-6.1C263.9,6.1,253.6,13.1,249.8,25.4 M263.5,33.3c-1.2-1.7-1.3-4.3-0.1-8
		c1.4-4.5,4.5-9.9,11.7-9.9c2.7,0,4.6,0.7,5.6,2.1c1.2,1.7,1.3,4.3,0.1,8c-1.4,4.5-4.5,9.9-11.7,9.9
		C266.4,35.4,264.6,34.7,263.5,33.3"/>
	<path class="st0" d="M296.5,25.4L296.5,25.4c-1.5,5-1,9.6,1.6,13.1c2.9,3.9,8.1,6.1,14.7,6.1c15.5,0,24.2-6,28.3-19.4
		c1.5-5,0.9-9.6-1.6-13.1c-2.9-3.9-8.1-6.1-14.7-6.1C310.6,6.1,300.3,13.1,296.5,25.4 M321.8,15.4c2.8,0,4.6,0.7,5.6,2.1
		c1.2,1.7,1.3,4.3,0.1,8c-1.4,4.5-4.5,9.9-11.7,9.9c-2.8,0-4.6-0.7-5.6-2.1c-1.2-1.7-1.3-4.3-0.1-8
		C311.5,20.8,314.6,15.4,321.8,15.4"/>
	<path class="st0" d="M372.8,7.2c-0.1,0.1-13.6,11.5-13.6,11.5l3.5-11.5h-14c0,0-10.9,35.7-11.1,36.4h14c0.1-0.4,4.5-14.8,4.5-14.8
		s10.8,14.6,11,14.8h15.4c-0.6-0.8-13.8-18.5-13.8-18.5s19-17,20.1-17.9H372.8z"/>
	<path class="st1" d="M82.9,1.7L82.7,0H70.8c1.4,14-8.3,29.7-22.1,33.4l0,0l0,0c-0.1,0-0.2,0-0.3-0.2c0-0.1,0-0.1,0.1-0.2l0,0
		C60,25.3,66,13,65,0H53.4c0.5,11.4-7.2,21.8-18.9,26.1c-0.1,0-0.2,0-0.3-0.2c0-0.1,0-0.1,0.1-0.2C42.8,19.9,47.9,11.3,47.6,0H36
		C35.9,13.5,23.8,22.9,0,22.9c0.3,0.2,0.7,0.4,1,0.6c15.4,8.4,23.5,13.6,34.9,22.9c1.8,1.5,4.2,2.3,6.6,2.2
		C73.2,46.4,84.3,19.5,82.9,1.7"/>
	<path class="st2" d="M153.8,50.1c0,0-1.1,3.7-1.4,4.6c-1.4-0.9-3.2-1.3-5.5-1.3c-5.3,0-9.4,2.6-10.7,6.6c-0.6,1.8-0.4,3.2,0.5,4.4
		c1.1,1.4,3.2,2.2,6.1,2.2c2.2,0,4.3-0.4,6.4-1.3c-0.1,0.2-0.3,1-0.3,1h4.2l5.3-17.4L153.8,50.1z M140.4,62.9
		c-0.5-0.6-0.5-1.5-0.2-2.7c0.9-3,3.1-4.5,6.5-4.5c2.4,0,4.1,0.7,4.9,1.4c-0.1,0.5-1.6,5.1-1.7,5.4c-1.9,1-4,1.6-6,1.6
		C142.2,64.1,141,63.7,140.4,62.9"/>
	<path class="st2" d="M163.3,54.5c0-0.1,0.3-0.9,0.3-0.9h-4.1l-3.9,12.6h4.1l2.2-7.1c0.6-2,2.6-3.2,5.5-3.2c1.6,0,2.4,0.2,3,0.4
		l0.3,0.1l1.9-2.5l-0.7-0.2c-0.8-0.2-1.9-0.3-3.5-0.3C166.7,53.3,164.8,53.8,163.3,54.5"/>
	<path class="st2" d="M173.6,50.6L173.6,50.6c-0.1,0.4,0,0.7,0.2,1c0.4,0.5,1.2,0.8,2.2,0.8c1.2,0,2.7-0.5,3-1.5
		c0.1-0.4,0-0.7-0.2-1c-0.4-0.5-1.2-0.8-2.1-0.8C175.2,49.1,173.9,49.7,173.6,50.6 M173.4,53.6l-3.9,12.6h4.1l3.9-12.6H173.4z"/>
	<path class="st2" d="M193.9,53.6c0,0-8.5,9.2-8.5,9.3c-0.4-1.5-2.8-9.3-2.8-9.3h-4.4l4.6,12.6h3.3l12.4-12.6H193.9z"/>
	<path class="st2" d="M199.3,50.6L199.3,50.6c-0.1,0.4,0,0.7,0.2,1c0.4,0.5,1.2,0.8,2.2,0.8c1.2,0,2.7-0.5,3-1.5
		c0.1-0.4,0-0.7-0.2-1c-0.4-0.5-1.2-0.8-2.1-0.8C200.9,49.1,199.6,49.7,199.3,50.6 M199.1,53.6l-3.9,12.6h4.1l3.9-12.6H199.1z"/>
	<path class="st2" d="M209.9,54.5c0-0.1,0.3-0.9,0.3-0.9H206l-3.9,12.6h4.1l2.2-7.1c0.7-2.1,2.9-3.3,6.2-3.3c1.8,0,3,0.3,3.5,1
		c0.3,0.4,0.4,1.1,0.1,2.1l-2.3,7.4h4.1l2.3-7.4c0.4-1.4,0.3-2.5-0.4-3.4c-1-1.3-3.1-2-6.3-2C213.5,53.3,211.5,53.8,209.9,54.5"/>
	<path class="st2" d="M223.3,59.9c-0.2,0.8-0.4,1.5-0.3,2.2c0,0.8,0.3,1.5,0.8,2.2c1.1,1.4,3.2,2.2,6.1,2.2c2.2,0,4.3-0.4,6.3-1.2
		c-0.8,2-2.6,3-9.6,3.1h-0.7l1.1,2.2h0.3c4.1-0.1,7.2-0.5,9.3-1.4c2.1-0.9,3.4-2.3,4-4.2l3.5-11.3h-4.2c0,0-0.2,0.7-0.3,1
		c-1.4-0.9-3.2-1.3-5.5-1.3C228.8,53.3,224.6,55.9,223.3,59.9 M227.5,62.9c-0.5-0.6-0.5-1.5-0.2-2.7c0.9-3,3.1-4.5,6.5-4.5
		c2.4,0,4.1,0.7,4.9,1.4c-0.1,0.5-1.6,5.1-1.7,5.4c-1.9,1-3.9,1.6-6,1.6C229.3,64.1,228.1,63.7,227.5,62.9"/>
	<path class="st2" d="M251,59.7c-0.2,0.7-0.3,1.4-0.3,2c0,0.8,0.3,1.6,0.8,2.2c1.7,2.3,5.5,2.5,7,2.5c3.3,0,5.5-0.4,8.5-1.4l0.7-0.2
		l-1.8-2l-0.3,0.1c-2.3,0.7-3.9,1.1-6.3,1.1c-1.9,0-3.2-0.4-3.9-1.3c-0.3-0.4-0.5-0.8-0.5-1.4c0-0.1,0-0.3,0-0.5h14.6l0.1-0.2
		c0.2-0.3,0.3-0.5,0.5-1c0.2-0.6,0.3-1.2,0.2-1.8c0-0.8-0.3-1.5-0.8-2.1c-1.2-1.6-3.6-2.4-7-2.4C256.8,53.3,252.2,55.9,251,59.7
		 M262,55.7c1.9,0,3.3,0.4,3.9,1.2c0.3,0.3,0.4,0.7,0.5,1.2c0,0.2,0,0.3,0,0.5h-10.7C256.8,56.7,259.1,55.7,262,55.7"/>
	<path class="st2" d="M288.1,55.2c-0.8-0.9-2.4-1.8-5.6-1.8c-2,0-3.8,0.4-5.2,1.1c0-0.1,0.3-0.9,0.3-0.9h-4.1l-3.9,12.6h4.1l2.2-7.1
		c0.7-2.2,2.6-3.3,5.6-3.3c1.6,0,2.7,0.3,3.1,0.8c0.3,0.5,0.4,1.2,0,2.2l-2.3,7.4h4.2l2.2-7.1c0.7-2.2,2.6-3.3,5.6-3.3
		c1.7,0,2.7,0.3,3.1,0.8c0.3,0.4,0.4,1.2,0,2.2l-2.3,7.4h4.2l2.3-7.4c0.4-1.5,0.3-2.7-0.4-3.6c-1-1.3-2.9-1.9-5.9-1.9
		C291.6,53.3,289.5,54.3,288.1,55.2"/>
	<path class="st2" d="M307,54.9c-2.3,1.1-3.8,2.8-4.4,4.8c-0.5,1.6-0.3,3,0.6,4.1c1.3,1.7,3.9,2.6,7.5,2.6c2.8,0,5.4-0.6,7.5-1.6
		c2.3-1.2,3.8-2.8,4.4-4.8c0.5-1.6,0.3-3-0.5-4.1c-1.3-1.7-4-2.6-7.6-2.6C311.7,53.3,309.1,53.9,307,54.9 M306.9,62.7
		c-0.5-0.7-0.6-1.5-0.2-2.6c0.8-2.7,3.5-4.3,7.4-4.3c2.1,0,3.6,0.5,4.3,1.4c0.5,0.6,0.6,1.5,0.2,2.6c-0.8,2.7-3.6,4.4-7.4,4.4
		C309.1,64.1,307.5,63.6,306.9,62.7"/>
	<path class="st2" d="M328,50.1c0,0-0.9,3-1.1,3.5h-2.7l-0.7,2.4h2.7c-0.3,1.1-2.2,7.2-2.2,7.2c-0.1,0.4-0.2,0.8-0.2,1.1
		c0,0.4,0.1,0.7,0.4,1c0.6,0.7,1.7,1.1,3.6,1.1c1.6,0,2.9-0.1,4.3-0.4h0.2l1.2-2.5l-1,0.2c-1,0.2-1.8,0.3-3.1,0.3
		c-1.1,0-1.3-0.2-1.4-0.2c0,0-0.1-0.1,0-0.5c0,0,1.8-5.9,2.3-7.3h5.5l0.7-2.4H331c0.3-0.9,1.5-4.8,1.5-4.8L328,50.1z"/>
	<path class="st2" d="M338.7,50.6L338.7,50.6c-0.1,0.4,0,0.7,0.2,1c0.4,0.5,1.2,0.8,2.2,0.8c1.2,0,2.7-0.5,3-1.5
		c0.1-0.4,0-0.7-0.2-1c-0.4-0.5-1.2-0.8-2.1-0.8C340.3,49.1,339,49.7,338.7,50.6 M338.5,53.6l-3.9,12.6h4.1l3.9-12.6H338.5z"/>
	<path class="st2" d="M346.8,54.9c-2.3,1.1-3.8,2.8-4.4,4.8c-0.5,1.6-0.3,3,0.5,4.1c1.3,1.7,4,2.6,7.5,2.6c2.8,0,5.4-0.6,7.5-1.6
		c2.3-1.2,3.8-2.8,4.4-4.8c0.5-1.6,0.3-3-0.5-4.1c-1.3-1.7-3.9-2.6-7.6-2.6C351.5,53.3,348.9,53.9,346.8,54.9 M353.8,55.7
		c2.1,0,3.6,0.5,4.3,1.4c0.5,0.6,0.6,1.5,0.2,2.6c-0.8,2.7-3.6,4.4-7.4,4.4c-2.1,0-3.6-0.5-4.2-1.4c-0.3-0.3-0.4-0.8-0.4-1.2
		c0-0.4,0-0.9,0.2-1.4C347.3,57.3,350,55.7,353.8,55.7"/>
	<path class="st2" d="M369.7,54.5c0-0.1,0.3-0.9,0.3-0.9h-4.2l-3.9,12.6h4.1l2.2-7.1c0.9-3,4.6-3.3,6.2-3.3c1.9,0,3,0.3,3.5,1
		c0.3,0.4,0.4,1.1,0.1,2.1l-2.3,7.4h4.2l2.3-7.4c0.4-1.4,0.3-2.5-0.4-3.4c-1-1.3-3.1-2-6.3-2C373.3,53.3,371.3,53.8,369.7,54.5"/>
</g>
</svg>
