<?xml version="1.0" encoding="utf-8"?>
<!-- Generator: Adobe Illustrator 20.1.0, SVG Export Plug-In . SVG Version: 6.00 Build 0)  -->
<svg version="1.1"
	 id="svg3409" inkscape:version="0.91 r13725" sodipodi:docname="MasterCard 2016.svg" xmlns:cc="http://creativecommons.org/ns#" xmlns:dc="http://purl.org/dc/elements/1.1/" xmlns:inkscape="http://www.inkscape.org/namespaces/inkscape" xmlns:rdf="http://www.w3.org/1999/02/22-rdf-syntax-ns#" xmlns:sodipodi="http://sodipodi.sourceforge.net/DTD/sodipodi-0.dtd" xmlns:svg="http://www.w3.org/2000/svg"
	 xmlns="http://www.w3.org/2000/svg" xmlns:xlink="http://www.w3.org/1999/xlink" x="0px" y="0px" viewBox="0 0 1000 776"
	 style="enable-background:new 0 0 1000 776;" xml:space="preserve">
<style type="text/css">
	.st0{fill:#FF5F00;}
	.st1{fill:#EB001B;}
	.st2{fill:#F79E1B;}
	.st3{font-family:'ProximaNova-Regular';}
	.st4{font-size:22px;}
</style>
<sodipodi:namedview  bordercolor="#666666" borderopacity="1" gridtolerance="10" guidetolerance="10" id="namedview4178" inkscape:current-layer="svg3409" inkscape:cx="400.80964" inkscape:cy="270.06961" inkscape:pageopacity="0" inkscape:pageshadow="2" inkscape:window-height="705" inkscape:window-maximized="1" inkscape:window-width="1366" inkscape:window-x="-8" inkscape:window-y="-8" inkscape:zoom="0.35355339" objecttolerance="10" pagecolor="#ffffff" showgrid="false">
	</sodipodi:namedview>
<g id="layer1" transform="matrix(3.3557321,0,0,3.3557321,-1551.7864,-1849.1059)">
	<g id="g13" transform="matrix(2.5579399,0,0,2.5579399,884.90115,-11.427398)">
		<g id="g15" transform="translate(-502.86126,-41.013507)">
			<path id="XMLID_1775_" inkscape:connector-curvature="0" d="M358.9,351.1v-6c0-2.3-1.4-3.8-3.8-3.8c-1.2,0-2.5,0.4-3.4,1.7
				c-0.7-1.1-1.7-1.7-3.2-1.7c-1,0-2,0.3-2.8,1.4v-1.2h-2.1v9.6h2.1v-5.3c0-1.7,0.9-2.5,2.3-2.5s2.1,0.9,2.1,2.5v5.3h2.1v-5.3
				c0-1.7,1-2.5,2.3-2.5c1.4,0,2.1,0.9,2.1,2.5v5.3H358.9z M390,341.5h-3.4v-2.9h-2.1v2.9h-1.9v1.9h1.9v4.4c0,2.2,0.9,3.5,3.3,3.5
				c0.9,0,1.9-0.3,2.6-0.7l-0.6-1.8c-0.6,0.4-1.3,0.5-1.8,0.5c-1,0-1.4-0.6-1.4-1.6v-4.3h3.4V341.5z M407.8,341.3
				c-1.2,0-2,0.6-2.5,1.4v-1.2h-2.1v9.6h2.1v-5.4c0-1.6,0.7-2.5,2-2.5c0.4,0,0.9,0.1,1.3,0.2l0.6-2
				C408.8,341.3,408.2,341.3,407.8,341.3L407.8,341.3z M380.9,342.3c-1-0.7-2.4-1-3.9-1c-2.4,0-4,1.2-4,3.1c0,1.6,1.2,2.5,3.3,2.8
				l1,0.1c1.1,0.2,1.7,0.5,1.7,1c0,0.7-0.8,1.2-2.2,1.2c-1.4,0-2.5-0.5-3.2-1l-1,1.6c1.1,0.8,2.6,1.2,4.1,1.2c2.8,0,4.4-1.3,4.4-3.1
				c0-1.7-1.3-2.6-3.3-2.9l-1-0.1c-0.9-0.1-1.6-0.3-1.6-0.9c0-0.7,0.7-1.1,1.8-1.1c1.2,0,2.4,0.5,3,0.8L380.9,342.3L380.9,342.3z
				 M436.7,341.3c-1.2,0-2,0.6-2.5,1.4v-1.2h-2.1v9.6h2.1v-5.4c0-1.6,0.7-2.5,2-2.5c0.4,0,0.9,0.1,1.3,0.2l0.6-2
				C437.7,341.3,437.1,341.3,436.7,341.3L436.7,341.3z M409.9,346.3c0,2.9,2,5,5.1,5c1.4,0,2.4-0.3,3.4-1.1l-1-1.7
				c-0.8,0.6-1.6,0.9-2.5,0.9c-1.7,0-2.9-1.2-2.9-3.1c0-1.8,1.2-3,2.9-3.1c0.9,0,1.7,0.3,2.5,0.9l1-1.7c-1-0.8-2-1.1-3.4-1.1
				C411.9,341.3,409.9,343.4,409.9,346.3L409.9,346.3L409.9,346.3z M429.3,346.3v-4.8h-2.1v1.2c-0.7-0.9-1.7-1.4-3-1.4
				c-2.7,0-4.8,2.1-4.8,5s2.1,5,4.8,5c1.4,0,2.4-0.5,3-1.4v1.2h2.1V346.3L429.3,346.3z M421.6,346.3c0-1.7,1.1-3.1,2.9-3.1
				c1.7,0,2.9,1.3,2.9,3.1c0,1.7-1.2,3.1-2.9,3.1C422.7,349.3,421.6,348,421.6,346.3L421.6,346.3z M396.5,341.3c-2.8,0-4.8,2-4.8,5
				s2,5,4.9,5c1.4,0,2.8-0.4,3.9-1.3l-1-1.5c-0.8,0.6-1.8,1-2.8,1c-1.3,0-2.6-0.6-2.9-2.3h7.1c0-0.3,0-0.5,0-0.8
				C401,343.3,399.2,341.3,396.5,341.3L396.5,341.3L396.5,341.3z M396.5,343.1c1.3,0,2.2,0.8,2.4,2.3h-5
				C394.1,344.1,395,343.1,396.5,343.1L396.5,343.1z M448.6,346.3v-8.6h-2.1v5c-0.7-0.9-1.7-1.4-3-1.4c-2.7,0-4.8,2.1-4.8,5
				s2.1,5,4.8,5c1.4,0,2.4-0.5,3-1.4v1.2h2.1V346.3L448.6,346.3z M440.9,346.3c0-1.7,1.1-3.1,2.9-3.1c1.7,0,2.9,1.3,2.9,3.1
				c0,1.7-1.2,3.1-2.9,3.1C442,349.3,440.9,348,440.9,346.3L440.9,346.3z M370.7,346.3v-4.8h-2.1v1.2c-0.7-0.9-1.7-1.4-3-1.4
				c-2.7,0-4.8,2.1-4.8,5s2.1,5,4.8,5c1.4,0,2.4-0.5,3-1.4v1.2h2.1V346.3L370.7,346.3z M362.9,346.3c0-1.7,1.1-3.1,2.9-3.1
				c1.7,0,2.9,1.3,2.9,3.1c0,1.7-1.2,3.1-2.9,3.1C364,349.3,362.9,348,362.9,346.3z"/>
		</g>
		<g id="XMLID_328_" transform="translate(-502.86126,-41.013507)">
			<rect id="rect19" x="380.2" y="268.6" class="st0" width="31.5" height="56.6"/>
			<path id="XMLID_330_" inkscape:connector-curvature="0" class="st1" d="M382.2,296.9c0-11.5,5.4-21.7,13.7-28.3
				c-6.1-4.8-13.8-7.7-22.2-7.7c-19.9,0-36,16.1-36,36c0,19.9,16.1,36,36,36c8.4,0,16.1-2.9,22.2-7.7
				C387.6,318.7,382.2,308.4,382.2,296.9z"/>
			<path id="path22" inkscape:connector-curvature="0" class="st2" d="M454.2,296.9c0,19.9-16.1,36-36,36c-8.4,0-16.1-2.9-22.2-7.7
				c8.4-6.6,13.7-16.8,13.7-28.3s-5.4-21.7-13.7-28.3c6.1-4.8,13.8-7.7,22.2-7.7C438.1,260.9,454.2,277.1,454.2,296.9z"/>
		</g>
	</g>
</g>
<circle cx="977.8" cy="765.8" r="8.8"/>
<text transform="matrix(1 0 0 1 964.0674 507.584)" class="st3 st4">TM</text>
</svg>
