<?xml version="1.0" encoding="utf-8"?>
<!-- Generator: Adobe Illustrator 20.1.0, SVG Export Plug-In . SVG Version: 6.00 Build 0)  -->
<svg version="1.1" id="Слой_1" xmlns="http://www.w3.org/2000/svg" xmlns:xlink="http://www.w3.org/1999/xlink" x="0px" y="0px"
	 viewBox="0 0 624 182" style="enable-background:new 0 0 624 182;" xml:space="preserve" width="347">
<style type="text/css">
	.st0{fill:#D33321;}
	.st1{fill:#292D2E;}
	.st2{fill:#2A2E2F;}
	.st3{fill:#D33322;}
	.st4{fill:#D33624;}
</style>
<g>
	<g>
		<path class="st0" d="M7,109.9c-1.2-5.7-1.4-11.4-0.1-16.4c3.1-15,12.8-23.2,27.8-23.2c23.7,0,47.4,0,71.1,0c5.1,0,11-0.6,11.1,6.7
			c0.1,8.1-6.2,7.1-11.5,7.1c-22.8,0-45.6,0-68.4-0.1c-4.6,0-8.9,0.4-12.6,3.3c-1.9,1.5-3.9,3.2-5.3,7.5c3.6-0.1,5.8,0,8,0
			c22.8-0.1,45.6-0.2,68.4-0.3c2.1,0,4.1,0,6.2,0c4.6,0.1,9.6,0.2,9.5,6.5c-0.1,5.8-4.4,6.8-9.4,6.7c-11-0.2-21.9-0.1-32.9-0.1
			c-16.2,0-32.3,0-49.7,0c4.1,7.8,9.3,10.9,16.9,10.8c22.5-0.2,45-0.1,67.5-0.1c2.1,0,4.1,0.1,6.2,0c4.8-0.2,7.2,2.4,7.1,7
			c-0.1,4.3-2.7,6.4-6.9,6.4c-27.5,0-55.1,0.2-82.6-0.3C17.9,131.4,10.2,122.4,7,109.9z"/>
		<path class="st0" d="M493.1,30.4c19.4-0.4,42.1,0.4,61.5,0c1.2,0,4.4,0,4.4,0c-0.3,2-2.6,4-3.8,4.9c-9.6,7.2-21.2,8.8-32.5,10.1
			c-14,1.6-28.2,2-42.3,2.9c-5.9,1.5-11.3,3.5-17.3,0.5c-8.8,0.3-0.2,0-22.1,0c-3.3,0-4.8,1.4-6.5,3.9c-5.5,8.1-10.8,16.3-16.3,24.3
			c-3.1,4.5-2.5,5.8,3.3,5.7c32-0.3,64-0.2,96-0.2c1.9,0,6.6-0.1,6.6-0.1c-1.4,3-3.7,5-5.9,6.6c-8.4,5.7-15.6,6.9-24.9,8.2
			c-30.4,4.1-60.9,2.4-91.5,1.7c-7-0.2-10.1-5.4-6.7-11.7c9.3-17.2,19.7-33.6,32.4-48.5c4.2-4.9,9.9-7.6,16.5-7.6
			c9.8,0,21.2-0.5,31-0.4C493.1,30.4,474.9,30.7,493.1,30.4z"/>
		<path class="st0" d="M187.2,131.8c-11.6,0-23.1,0-34.7,0c-19,0-31.6-14.7-29-33.9c2.5-18.6,12.7-27.5,31.5-27.5
			c23.4,0,46.8,0,70.2-0.1c5.4,0,11.1,0.3,11.2,6.9c0,6.7-5.7,7-11.1,7c-23.7-0.1-47.4-0.1-71.1-0.1c-12.4,0-17.6,5.2-17.6,17
			c0,11.6,5.6,17.3,17.5,17.3c24,0.1,48,0.1,72,0c5.1,0,10.4,0.4,10.5,6.6c0.1,6.1-5,7-10.3,6.9
			C213.2,131.7,200.2,131.8,187.2,131.8z"/>
		<path class="st1" d="M501.7,4.6c36.3,0.1,72.7,0.1,109,0.3c2.4,0,7.3,0.1,7.3,0.1c-4.4,10.1-21.4,13.1-32.9,14.2
			c-26.1,2.4-35.4,2.3-78.7,2.6c-6.8,0-11,1.9-13,8.6c-18.5,0.3-0.1,0-18.5,0.3C481.1,19.3,489,4.6,501.7,4.6z"/>
		<path class="st2" d="M484,48.1c-3.3,6.5-1.5,8.5,1.2,8.5c31.6,0,60.7-0.1,92.4-0.1c1.9,0,8-0.1,7.9,0c-1,2.1-3.9,5-5.6,6.3
			c-9.7,7.3-21.4,8.1-32.8,9.3c-25.9,2.7-52,2-78,1.3c-15.8-0.4-18.6-5.4-10.3-18.9c0.9-1.5,2.9-4.5,4.1-5.8
			C467.8,48.8,466.6,48.5,484,48.1z"/>
		<path class="st3" d="M297.3,134.7c-3.3-0.2-9.3-2.5-12.7-7.2c-11.1-15-22.2-30-33.3-44.9c-2.9-3.9-3.5-7.5,0.7-10.8
			c4.8-3.7,7.8-0.3,10.3,3.1c9.4,12.5,18.5,25.3,27.9,37.8c7.9,10.5,9.3,10.3,17-0.4c9-12.5,18.4-24.7,27.6-37
			c2.8-3.7,5.9-7.6,10.8-3.4c4.2,3.7,2.5,8-0.3,11.9c-10.3,14.1-20.6,28.2-31,42.2C310.3,131.5,306.3,134.9,297.3,134.7z"/>
		<path class="st4" d="M375.1,101.6c0,7.1,0,14.2,0,21.3c0,4.6-1.1,8.8-6.3,9c-5.3,0.2-7.6-3.4-7.6-8.8c0.1-14.8,0-29.6,0-44.4
			c0-4.9,2.2-8.3,7.2-8.3c4.5,0.1,6.6,3.7,6.7,8C375.2,86.2,375.1,93.9,375.1,101.6z"/>
	</g>
	<g>
		<path d="M25.8,169.7h-3.8v-10.3H11.5v10.3H7.8v-22.9h3.7v9.3h10.5v-9.3h3.8V169.7z"/>
		<path d="M46.8,161c0,2.8-0.7,5-2.2,6.6c-1.4,1.6-3.5,2.4-6.1,2.4c-1.6,0-3-0.4-4.3-1.1s-2.2-1.8-2.9-3.1c-0.7-1.4-1-2.9-1-4.8
			c0-2.8,0.7-5,2.2-6.6c1.4-1.6,3.5-2.4,6.1-2.4c2.5,0,4.5,0.8,5.9,2.4C46.1,156.1,46.8,158.3,46.8,161z M34.2,161c0,4,1.5,6,4.4,6
			c2.9,0,4.4-2,4.4-6c0-4-1.5-5.9-4.4-5.9c-1.5,0-2.7,0.5-3.4,1.5C34.5,157.6,34.2,159.1,34.2,161z"/>
		<path d="M57.4,167c0.9,0,1.8-0.1,2.7-0.4v2.8c-0.4,0.2-0.9,0.3-1.6,0.4c-0.6,0.1-1.3,0.2-2,0.2c-3.5,0-5.2-1.8-5.2-5.5v-9.3H49
			v-1.6l2.5-1.3l1.3-3.7H55v3.8H60v2.8H55v9.3c0,0.9,0.2,1.5,0.7,2C56.1,166.8,56.7,167,57.4,167z"/>
		<path d="M71.1,170c-2.7,0-4.8-0.8-6.3-2.4s-2.3-3.7-2.3-6.5c0-2.8,0.7-5,2.1-6.7s3.3-2.4,5.8-2.4c2.3,0,4.1,0.7,5.4,2.1
			s2,3.3,2,5.7v2H66.3c0.1,1.7,0.5,3,1.4,3.9c0.9,0.9,2.1,1.4,3.6,1.4c1,0,2-0.1,2.9-0.3c0.9-0.2,1.8-0.5,2.8-1v3
			c-0.9,0.4-1.8,0.7-2.7,0.9C73.4,169.9,72.3,170,71.1,170z M70.5,154.9c-1.2,0-2.1,0.4-2.8,1.1s-1.1,1.8-1.3,3.2h7.8
			c0-1.4-0.4-2.5-1-3.2C72.6,155.2,71.6,154.9,70.5,154.9z"/>
		<path d="M85.7,169.7H82v-24.3h3.7V169.7z"/>
		<path d="M109.6,169.7l-6.6-19.1h-0.1c0.2,2.8,0.3,5.5,0.3,8v11.1h-3.4v-22.9h5.3l6.3,18.2h0.1l6.5-18.2h5.3v22.9h-3.6v-11.3
			c0-1.1,0-2.6,0.1-4.4s0.1-2.9,0.1-3.3h-0.1l-6.9,19.1H109.6z"/>
		<path d="M139.7,169.7l-0.7-2.4h-0.1c-0.8,1.1-1.7,1.8-2.5,2.2c-0.8,0.4-1.9,0.6-3.3,0.6c-1.7,0-3-0.5-4-1.4s-1.4-2.2-1.4-3.9
			c0-1.8,0.7-3.1,2-4c1.3-0.9,3.3-1.4,6.1-1.5l3-0.1v-0.9c0-1.1-0.3-1.9-0.8-2.5c-0.5-0.5-1.3-0.8-2.4-0.8c-0.9,0-1.7,0.1-2.5,0.4
			c-0.8,0.3-1.6,0.6-2.3,0.9l-1.2-2.6c0.9-0.5,2-0.9,3.1-1.1c1.1-0.3,2.2-0.4,3.2-0.4c2.2,0,3.9,0.5,5,1.4c1.1,1,1.7,2.5,1.7,4.5
			v11.6H139.7z M134.2,167.2c1.3,0,2.4-0.4,3.2-1.1c0.8-0.7,1.2-1.8,1.2-3.1v-1.5l-2.2,0.1c-1.7,0.1-3,0.4-3.8,0.9
			c-0.8,0.5-1.2,1.3-1.2,2.4c0,0.8,0.2,1.4,0.7,1.8C132.6,167,133.3,167.2,134.2,167.2z"/>
		<path d="M162.6,169.7h-3.7v-10.6c0-1.3-0.3-2.3-0.8-3c-0.5-0.7-1.4-1-2.6-1c-1.6,0-2.7,0.5-3.4,1.4s-1.1,2.5-1.1,4.6v8.6h-3.7
			v-17.3h2.9l0.5,2.3h0.2c0.5-0.8,1.3-1.5,2.2-1.9c1-0.4,2-0.7,3.2-0.7c4.1,0,6.2,2.1,6.2,6.3V169.7z"/>
		<path d="M178.6,169.7l-0.7-2.4h-0.1c-0.8,1.1-1.7,1.8-2.5,2.2c-0.8,0.4-1.9,0.6-3.3,0.6c-1.7,0-3-0.5-4-1.4s-1.4-2.2-1.4-3.9
			c0-1.8,0.7-3.1,2-4c1.3-0.9,3.3-1.4,6.1-1.5l3-0.1v-0.9c0-1.1-0.3-1.9-0.8-2.5c-0.5-0.5-1.3-0.8-2.4-0.8c-0.9,0-1.7,0.1-2.5,0.4
			c-0.8,0.3-1.6,0.6-2.3,0.9l-1.2-2.6c0.9-0.5,2-0.9,3.1-1.1c1.1-0.3,2.2-0.4,3.2-0.4c2.2,0,3.9,0.5,5,1.4c1.1,1,1.7,2.5,1.7,4.5
			v11.6H178.6z M173.1,167.2c1.3,0,2.4-0.4,3.2-1.1c0.8-0.7,1.2-1.8,1.2-3.1v-1.5l-2.2,0.1c-1.7,0.1-3,0.4-3.8,0.9
			c-0.8,0.5-1.2,1.3-1.2,2.4c0,0.8,0.2,1.4,0.7,1.8C171.5,167,172.2,167.2,173.1,167.2z"/>
		<path d="M200.9,152.4v2l-3,0.5c0.3,0.4,0.5,0.8,0.7,1.3s0.3,1.1,0.3,1.7c0,1.8-0.6,3.2-1.8,4.2s-2.9,1.5-5.1,1.5
			c-0.6,0-1.1,0-1.5-0.1c-0.8,0.5-1.2,1.1-1.2,1.7c0,0.4,0.2,0.7,0.6,0.9c0.4,0.2,1.1,0.3,2,0.3h3c1.9,0,3.4,0.4,4.3,1.2
			s1.5,2,1.5,3.5c0,2-0.8,3.5-2.4,4.5c-1.6,1.1-4,1.6-7,1.6c-2.4,0-4.2-0.4-5.4-1.3c-1.2-0.8-1.9-2-1.9-3.6c0-1.1,0.3-2,1-2.7
			c0.7-0.7,1.6-1.2,2.8-1.5c-0.5-0.2-0.9-0.5-1.2-1s-0.5-1-0.5-1.5c0-0.6,0.2-1.2,0.5-1.6s0.9-0.9,1.6-1.3c-0.9-0.4-1.6-1-2.2-1.9
			c-0.6-0.9-0.8-1.9-0.8-3.1c0-1.9,0.6-3.3,1.8-4.4c1.2-1,2.9-1.5,5.1-1.5c0.5,0,1,0,1.5,0.1c0.5,0.1,0.9,0.1,1.2,0.2H200.9z
			 M187.3,172.4c0,0.8,0.4,1.4,1.1,1.8c0.7,0.4,1.7,0.6,3,0.6c2,0,3.5-0.3,4.5-0.9c1-0.6,1.5-1.3,1.5-2.3c0-0.8-0.3-1.3-0.8-1.6
			c-0.5-0.3-1.5-0.5-3-0.5h-2.8c-1.1,0-1.9,0.2-2.5,0.7C187.6,170.9,187.3,171.5,187.3,172.4z M188.9,158c0,1.1,0.3,1.9,0.8,2.5
			c0.6,0.6,1.4,0.9,2.4,0.9c2.1,0,3.2-1.1,3.2-3.4c0-1.1-0.3-2-0.8-2.6c-0.5-0.6-1.3-0.9-2.4-0.9c-1.1,0-1.9,0.3-2.4,0.9
			C189.2,156,188.9,156.8,188.9,158z"/>
		<path d="M211.7,170c-2.7,0-4.8-0.8-6.3-2.4s-2.3-3.7-2.3-6.5c0-2.8,0.7-5,2.1-6.7c1.4-1.6,3.3-2.4,5.8-2.4c2.3,0,4.1,0.7,5.4,2.1
			c1.3,1.4,2,3.3,2,5.7v2h-11.5c0.1,1.7,0.5,3,1.4,3.9c0.9,0.9,2.1,1.4,3.6,1.4c1,0,2-0.1,2.9-0.3c0.9-0.2,1.8-0.5,2.8-1v3
			c-0.9,0.4-1.8,0.7-2.7,0.9S212.9,170,211.7,170z M211,154.9c-1.2,0-2.1,0.4-2.8,1.1s-1.1,1.8-1.3,3.2h7.8c0-1.4-0.4-2.5-1-3.2
			C213.1,155.2,212.2,154.9,211,154.9z"/>
		<path d="M231.3,152.1c0.7,0,1.3,0.1,1.8,0.2l-0.4,3.4c-0.5-0.1-1.1-0.2-1.6-0.2c-1.5,0-2.7,0.5-3.6,1.4c-0.9,1-1.4,2.2-1.4,3.7v9
			h-3.7v-17.3h2.9l0.5,3h0.2c0.6-1,1.3-1.9,2.2-2.5S230.3,152.1,231.3,152.1z"/>
		<path d="M259.3,169.7l-2.3-6.3h-8.7l-2.2,6.3h-3.9l8.6-23h4.1l8.6,23H259.3z M256,160.1l-2.1-6.2c-0.2-0.4-0.4-1.1-0.6-2
			c-0.3-0.9-0.5-1.6-0.6-2c-0.3,1.3-0.7,2.7-1.2,4.2l-2.1,6H256z"/>
		<path d="M277.5,164.8c0,1.7-0.6,3-1.8,3.9s-3,1.4-5.3,1.4c-2.3,0-4.2-0.3-5.6-1v-3.2c2,0.9,3.9,1.4,5.7,1.4c2.3,0,3.4-0.7,3.4-2
			c0-0.4-0.1-0.8-0.4-1.1c-0.3-0.3-0.7-0.6-1.2-0.9c-0.6-0.3-1.4-0.7-2.4-1.1c-2-0.8-3.3-1.5-4-2.3c-0.7-0.8-1.1-1.8-1.1-3
			c0-1.5,0.6-2.6,1.8-3.4c1.2-0.8,2.8-1.2,4.9-1.2c2,0,4,0.4,5.8,1.2l-1.2,2.8c-1.9-0.8-3.4-1.2-4.7-1.2c-1.9,0-2.9,0.6-2.9,1.7
			c0,0.5,0.3,1,0.8,1.4s1.6,0.9,3.3,1.5c1.4,0.6,2.5,1.1,3.1,1.5c0.6,0.5,1.1,1,1.4,1.6C277.3,163.2,277.5,163.9,277.5,164.8z"/>
		<path d="M293.1,164.8c0,1.7-0.6,3-1.8,3.9c-1.2,0.9-3,1.4-5.3,1.4c-2.3,0-4.2-0.3-5.6-1v-3.2c2,0.9,3.9,1.4,5.7,1.4
			c2.3,0,3.4-0.7,3.4-2c0-0.4-0.1-0.8-0.4-1.1c-0.3-0.3-0.7-0.6-1.2-0.9c-0.6-0.3-1.4-0.7-2.4-1.1c-2-0.8-3.3-1.5-4-2.3
			c-0.7-0.8-1.1-1.8-1.1-3c0-1.5,0.6-2.6,1.8-3.4c1.2-0.8,2.8-1.2,4.9-1.2c2,0,4,0.4,5.8,1.2l-1.2,2.8c-1.9-0.8-3.4-1.2-4.7-1.2
			c-1.9,0-2.9,0.6-2.9,1.7c0,0.5,0.3,1,0.8,1.4c0.5,0.4,1.6,0.9,3.3,1.5c1.4,0.6,2.5,1.1,3.1,1.5c0.6,0.5,1.1,1,1.4,1.6
			S293.1,163.9,293.1,164.8z"/>
		<path d="M296.8,147.8c0-0.7,0.2-1.2,0.5-1.5c0.4-0.4,0.9-0.5,1.5-0.5c0.6,0,1.1,0.2,1.5,0.5s0.5,0.9,0.5,1.5
			c0,0.6-0.2,1.1-0.5,1.5c-0.4,0.4-0.9,0.5-1.5,0.5c-0.7,0-1.2-0.2-1.5-0.5C297,148.9,296.8,148.4,296.8,147.8z M300.7,169.7H297
			v-17.3h3.7V169.7z"/>
		<path d="M317.6,164.8c0,1.7-0.6,3-1.8,3.9c-1.2,0.9-3,1.4-5.3,1.4c-2.3,0-4.2-0.3-5.6-1v-3.2c2,0.9,3.9,1.4,5.7,1.4
			c2.3,0,3.4-0.7,3.4-2c0-0.4-0.1-0.8-0.4-1.1c-0.3-0.3-0.7-0.6-1.2-0.9c-0.6-0.3-1.4-0.7-2.4-1.1c-2-0.8-3.3-1.5-4-2.3
			c-0.7-0.8-1.1-1.8-1.1-3c0-1.5,0.6-2.6,1.8-3.4c1.2-0.8,2.8-1.2,4.9-1.2c2,0,4,0.4,5.8,1.2l-1.2,2.8c-1.9-0.8-3.4-1.2-4.7-1.2
			c-1.9,0-2.9,0.6-2.9,1.7c0,0.5,0.3,1,0.8,1.4c0.5,0.4,1.6,0.9,3.3,1.5c1.4,0.6,2.5,1.1,3.1,1.5c0.6,0.5,1.1,1,1.4,1.6
			S317.6,163.9,317.6,164.8z"/>
		<path d="M328,167c0.9,0,1.8-0.1,2.7-0.4v2.8c-0.4,0.2-0.9,0.3-1.6,0.4c-0.6,0.1-1.3,0.2-2,0.2c-3.5,0-5.2-1.8-5.2-5.5v-9.3h-2.4
			v-1.6l2.5-1.3l1.3-3.7h2.3v3.8h4.9v2.8h-4.9v9.3c0,0.9,0.2,1.5,0.7,2C326.7,166.8,327.3,167,328,167z"/>
		<path d="M345,169.7l-0.7-2.4h-0.1c-0.8,1.1-1.7,1.8-2.5,2.2c-0.8,0.4-1.9,0.6-3.3,0.6c-1.7,0-3-0.5-4-1.4c-1-0.9-1.4-2.2-1.4-3.9
			c0-1.8,0.7-3.1,2-4s3.3-1.4,6.1-1.5l3-0.1v-0.9c0-1.1-0.3-1.9-0.8-2.5c-0.5-0.5-1.3-0.8-2.4-0.8c-0.9,0-1.7,0.1-2.5,0.4
			c-0.8,0.3-1.6,0.6-2.3,0.9l-1.2-2.6c0.9-0.5,2-0.9,3.1-1.1c1.1-0.3,2.2-0.4,3.2-0.4c2.2,0,3.9,0.5,5,1.4c1.1,1,1.7,2.5,1.7,4.5
			v11.6H345z M339.5,167.2c1.3,0,2.4-0.4,3.2-1.1c0.8-0.7,1.2-1.8,1.2-3.1v-1.5l-2.2,0.1c-1.7,0.1-3,0.4-3.8,0.9
			c-0.8,0.5-1.2,1.3-1.2,2.4c0,0.8,0.2,1.4,0.7,1.8C337.9,167,338.6,167.2,339.5,167.2z"/>
		<path d="M367.9,169.7h-3.7v-10.6c0-1.3-0.3-2.3-0.8-3c-0.5-0.7-1.4-1-2.6-1c-1.6,0-2.7,0.5-3.4,1.4s-1.1,2.5-1.1,4.6v8.6h-3.7
			v-17.3h2.9l0.5,2.3h0.2c0.5-0.8,1.3-1.5,2.2-1.9c1-0.4,2-0.7,3.2-0.7c4.1,0,6.2,2.1,6.2,6.3V169.7z"/>
		<path d="M379.5,167c0.9,0,1.8-0.1,2.7-0.4v2.8c-0.4,0.2-0.9,0.3-1.6,0.4c-0.6,0.1-1.3,0.2-2,0.2c-3.5,0-5.2-1.8-5.2-5.5v-9.3H371
			v-1.6l2.5-1.3l1.3-3.7h2.3v3.8h4.9v2.8h-4.9v9.3c0,0.9,0.2,1.5,0.7,2C378.2,166.8,378.8,167,379.5,167z"/>
	</g>
</g>
</svg>
