<?xml version="1.0" encoding="utf-8"?>
<!-- Generator: Adobe Illustrator 20.1.0, SVG Export Plug-In . SVG Version: 6.00 Build 0)  -->
<svg version="1.1" id="Layer_1" xmlns="http://www.w3.org/2000/svg" xmlns:xlink="http://www.w3.org/1999/xlink" x="0px" y="0px"
	 viewBox="0 0 512 512" style="enable-background:new 0 0 512 512;" xml:space="preserve">
<style type="text/css">
	.st0{fill:#4B90D1;}
</style>
<g transform="translate(1 1)">
	<g>
		<g>
			<path class="st0" d="M424.8,154.3C416.3,73.2,351.4,8.4,271.2-0.1C266.1-0.1,261-1,255-1c-6,0-11.1,0.9-16.2,0.9
				C158.6,9.2,93.7,74.1,85.2,154.3c-6,54.6,13.7,108.4,52.9,145.9c21.3,20.5,35,44.4,40.1,67.4v100.7c0,5.1,3.4,8.5,8.5,8.5h12.8
				l15.4,20.5c6.8,8.5,16.2,13.7,27.3,13.7h25.6c11.1,0,21.3-5.1,27.3-13.7l15.4-20.5h12.8c5.1,0,8.5-3.4,8.5-8.5V367.6
				c4.3-23,18.8-46.9,40.1-67.4C411.2,261.8,430.8,208.9,424.8,154.3z M314.7,391.5h-25.6c-5.1,0-8.5,3.4-8.5,8.5s3.4,8.5,8.5,8.5
				h25.6v17.1h-51.2c-5.1,0-8.5,3.4-8.5,8.5s3.4,8.5,8.5,8.5h51.2v17.1h-8.5H203.8h-8.5v-17.1h25.6c5.1,0,8.5-3.4,8.5-8.5
				s-3.4-8.5-8.5-8.5h-25.6v-17.1h51.2c5.1,0,8.5-3.4,8.5-8.5s-3.4-8.5-8.5-8.5h-51.2v-17.1h119.5L314.7,391.5L314.7,391.5z
				 M281.5,487.1c-3.4,4.3-8.5,6.8-13.7,6.8h-25.6c-5.1,0-10.2-2.6-13.7-6.8l-7.7-10.2h68.3L281.5,487.1z M360,287.4
				c-21.3,21.3-36.7,45.2-43.5,70H193.6c-6.8-24.7-22.2-48.6-43.5-70c-35.8-34.1-52.9-81.9-47.8-131.4
				c8.5-72.5,66.6-130.6,139.1-139.1c4.3,0,8.5-0.9,13.7-0.9s9.4,0.9,13.7,0.9c72.5,8.5,131.4,66.6,139.1,139.1
				C412.9,205.5,395.8,253.3,360,287.4z"/>
			<path class="st0" d="M255,58.7c-61.4,0-110.9,49.5-110.9,110.9S193.6,280.6,255,280.6s110.9-49.5,110.9-110.9
				S316.4,58.7,255,58.7z M255,263.5c-52.1,0-93.9-41.8-93.9-93.9s42.7-93.9,93.9-93.9c52.1,0,93.9,41.8,93.9,93.9
				S307.1,263.5,255,263.5z"/>
			<path class="st0" d="M311.3,128.7c-3.4-2.6-9.4-1.7-11.9,1.7l-53.8,69.1l-27.3-27.3c-3.4-3.4-8.5-3.4-11.9,0s-3.4,8.5,0,11.9
				l33.7,33.7c0.4,0.5,0.8,0.9,1.3,1.3c0.1,0,0.2,0.1,0.3,0.1c1.4,1,2.8,1.6,4.8,1.6c0.3,0,0.6,0,0.9,0c2.2-0.2,4.4-1.1,5.9-3.4
				l59.7-76.8C315.6,137.2,314.7,131.3,311.3,128.7z"/>
		</g>
	</g>
</g>
</svg>
