<?xml version="1.0" encoding="utf-8"?>
<!-- Generator: Adobe Illustrator 20.1.0, SVG Export Plug-In . SVG Version: 6.00 Build 0)  -->
<svg version="1.1" id="Слой_1" xmlns="http://www.w3.org/2000/svg" xmlns:xlink="http://www.w3.org/1999/xlink" x="0px" y="0px"
	 viewBox="377 113 450 380" style="enable-background:new 0 0 1200 600;" xml:space="preserve">
<style type="text/css">
	.st0{fill:#E0E1E3;}
	.st1{fill:#A6A8AC;}
	.st2{fill:#BDBEC3;}
	.st3{fill:#0E0E0E;}
	.st4{fill:#CDCED1;}
	.st5{fill:#B3B3B3;}
	.st6{fill:#2E2E2E;}
	.st7{fill:#333333;}
	.st8{fill:#423D34;}
	.st9{fill:#4C4736;}
	.st10{fill:#514D3B;}
	.st11{fill:#575242;}
	.st12{fill:#F7F8FB;}
	.st13{fill:#464134;}
	.st14{fill:#F2F2EF;}
	.st15{fill:#ACAEB1;}
	.st16{fill:#A3A3A5;}
	.st17{fill:#999999;}
	.st18{fill:#989898;}
	.st19{fill:#0F0F0F;}
	.st20{fill:#181818;}
	.st21{fill:#020202;}
	.st22{fill:#202020;}
	.st23{fill:#121212;}
	.st24{fill:#030303;}
	.st25{fill:#0A0A0A;}
	.st26{fill:#070707;}
	.st27{fill:#141414;}
	.st28{fill:#1E1E1E;}
	.st29{fill:#1A1A1A;}
	.st30{fill:#050505;}
	.st31{fill:#1D1D1D;}
	.st32{fill:#0C0C0C;}
	.st33{fill:#1B1B1B;}
	.st34{fill:#212121;}
	.st35{fill:#242424;}
	.st36{fill:#161616;}
	.st37{fill:#262626;}
	.st38{fill:#B4B6B9;}
	.st39{fill:#D3D4D6;}
	.st40{fill:#A6A7AA;}
	.st41{fill:#C9CACD;}
	.st42{fill:#C3C4C7;}
	.st43{fill:#9C9EA1;}
	.st44{fill:#AFB0B3;}
	.st45{fill:#929397;}
	.st46{fill:#D4D5D6;}
	.st47{fill:#BDBEC1;}
	.st48{fill:#CBCCCE;}
	.st49{fill:#8B8D92;}
	.st50{fill:#D7D8DA;}
	.st51{fill:#97989B;}
	.st52{fill:#EBEBEC;}
	.st53{fill:#DDDDDA;}
	.st54{fill:#D7D7D5;}
	.st55{fill:#D2D2D0;}
	.st56{fill:#C0C1C3;}
	.st57{fill:#DFDFE1;}
	.st58{fill:#C5C5C4;}
	.st59{fill:#CBCBC9;}
	.st60{fill:#85878E;}
	.st61{fill:#D4D5D8;}
	.st62{fill:#989799;}
	.st63{fill:#D8D9DB;}
	.st64{fill:#B5B6BA;}
	.st65{fill:#A2A3A7;}
	.st66{fill:#E3E3E4;}
	.st67{fill:#A0A0A0;}
	.st68{fill:#9B9B9B;}
	.st69{fill:#A4A4A4;}
	.st70{fill:#D3D3D6;}
	.st71{fill:#DEDFE1;}
	.st72{fill:#DCDEE0;}
	.st73{fill:#A9AAAE;}
	.st74{fill:#ABACB0;}
	.st75{fill:#E5E6E9;}
	.st76{fill:#F1F2F5;}
	.st77{fill:#EBEDEF;}
	.st78{fill:#CCCED1;}
	.st79{fill:#DFE1E4;}
	.st80{fill:#C2C3C7;}
	.st81{fill:#D6D8DB;}
	.st82{fill:#DBDCDF;}
	.st83{fill:#C7C9CD;}
	.st84{fill:#D2D3D7;}
	.st85{fill:#BBBCBF;}
	.st86{fill:#FDFDFE;}
	.st87{fill:#06070E;}
	.st88{fill:#020307;}
	.st89{fill:#0D0E15;}
	.st90{fill:#111319;}
	.st91{fill:#16181E;}
	.st92{fill:#A8A9AD;}
	.st93{fill:#DBDCDE;}
	.st94{fill:#A4A5A9;}
	.st95{fill:#A8AAAD;}
	.st96{fill:#ADAFB2;}
	.st97{fill:#92918D;}
	.st98{fill:#8D8D89;}
	.st99{fill:#919396;}
	.st100{fill:#D8DADC;}
	.st101{fill:#DADCDE;}
	.st102{fill:#D6D7D9;}
	.st103{fill:#D1D3D5;}
	.st104{fill:#CFD0D3;}
	.st105{fill:#A8A8A6;}
	.st106{fill:#DDDEE0;}
	.st107{fill:#999A9D;}
	.st108{fill:#B6B7BB;}
	.st109{fill:#BCBEC4;}
	.st110{fill:#AFB1B5;}
	.st111{fill:#C1C3C8;}
	.st112{fill:#CBCCCF;}
	.st113{fill:#B3B5B9;}
	.st114{fill:#B1B3B6;}
	.st115{fill:#B7B8BC;}
	.st116{fill:#C8C9CC;}
	.st117{fill:#CACBCE;}
	.st118{fill:#C6C7CA;}
	.st119{fill:#ADAEB2;}
	.st120{fill:#C1C2C5;}
	.st121{fill:#BEBFC2;}
	.st122{fill:#BFC0C4;}
	.st123{fill:#C4C5C9;}
	.st124{fill:#C2C4C7;}
	.st125{fill:#BBBDC0;}
	.st126{fill:#B9BABE;}
	.st127{fill:#E0E1E2;}
	.st128{fill:#C5C7CB;}
	.st129{fill:#E3E4E5;}
	.st130{fill:#E6E7E8;}
</style>
<g>
	<path d="M379,126c0-0.3,0-0.7,0-1c1.9-7.6,2.9-8.4,10.5-8.5c81.7,0,163.3,0,245,0c0.9,0,1.8-0.1,2.6,0.4c4.3,6.3,6.5,13.8,9.9,20.6
		c0.9,3.3,2.9,6.1,4,9.2c1,3.2,2.7,6,4.1,8.9c1.3,3.8,3.3,7.3,4.9,11c0.7,2.5,2,4.7,3.2,7c1.6,4.7,4.2,9,5.9,13.6
		c0.9,2.1,2,4.2,3,6.2c0.8,1.7,1.3,3.5,2.1,5.1c2.2,4.2,3.7,8.7,5.9,12.8c1.4,3.8,3.2,7.4,5,11c1.1,3.1,2.5,6.1,4,9
		c1,2.4,1.8,4.9,3.1,7.1c3.2,7.3,6.3,14.6,9.8,21.7c1,2.4,1.9,4.9,3.1,7.3c1.9,5.5,5,10.4,7,15.8c2.2,4.3,3.7,8.9,6,13.1
		c1.6,4.9,4.4,9.2,6.2,13.9c2,5.2,4.5,10.3,7,15.3c1.5,3.7,3.1,7.4,5,10.8c2.7,4.8,5.3,6.1,10.7,4.5c17.5-5.1,35.3-9.2,52.6-14.9
		c3.8-1.2,7.5-2.7,11.5-3.1c4.8-0.5,7.4-3.1,9.1-7.4c0.5-1.3,0-4.5,3.3-3.4c0.1,1.2,0,2.3,0,3.5c0,20,0,39.9,0,59.9
		c0,1.8,0.4,3.7-0.4,5.4c-1.9,1.5-4.1,1.2-6.2,1.2c-143.5,0-287.1,0-430.6,0c-2.1,0-4.4,0.3-6.2-1.1c-0.9-1.9-0.5-3.9-0.5-5.9
		c0-81.2,0-162.3,0-243.5C379.5,129.9,380,127.9,379,126z"/>
	<path class="st0" d="M824,414c-2.7,5.3-6.6,8.7-13,8c-6.7-1.2-13.5-0.2-20.3-0.6c-0.7-0.1-1-0.5-1-1.2c0.3-0.5,0.7-0.9,1.3-1.1
		c2.6-0.9,5.2-0.5,7.9-0.6c3.1-0.1,4.7-1.6,4.6-4.6c-0.5-8.6,0.4-17.1-0.2-25.7c-0.2-2.1-1-4.3,1.2-5.9c6.5-0.2,13.1-1.3,19.6,0.6
		C824,393.3,824,403.7,824,414z"/>
	<path class="st1" d="M388.1,421.8c-4.6-0.2-6.5-4-9.1-6.8c0-2,0-4,0-6c1.1-6.6,0.2-13.2,0.5-19.7c0.1-2.1-0.4-4.3,0.3-6.4
		c6.5-1.7,13-0.8,19.5-0.5c0.3,0.2,0.8,0.4,0.7,0.6c-2.2,11.2,0.2,22.5-0.8,33.8c-0.1,1-0.2,2-0.7,2.9c-2.5,2.4-5.6,0.8-8.4,1.4
		C389.5,421.2,388.8,421.5,388.1,421.8z"/>
	<path class="st2" d="M400,383c-6.7,0-13.3,0-20,0c-0.3,0.5-0.7,0.4-1,0c0-0.7,0-1.3,0-2c0.3-0.5,0.6-0.5,1-0.1
		c1.7,0.1,3.3,0.2,5,0.2c144.3,0,288.6,0,433-0.1c1.7,0,3.3-0.1,5-0.2c0.4-0.4,0.7-0.3,1.1,0.1c0,0.3,0,0.7,0,1
		c-0.6,0.4-1.2,0.5-1.9,0.5c-10.4-0.6-20.7,1.1-31.1,0.9c-14.3,0-28.6,0-43,0c-13.7,0-27.3,0-41,0c-15.6,0-31.3,0-46.9,0
		c-12.3,0-24.7,0-37,0c-12,0-24,0-36,0c-12,0-24,0-36,0c-11.3,0-22.7,0-34,0c-12.7,0-25.3,0-38,0c-11.6,0-23.3,0-34.9,0
		c-10,0-20.1,0-30.1,0c-2,0-3.9,0-5.9,0.7C405.4,384.4,402.5,385.2,400,383z"/>
	<path class="st3" d="M380,380.9c-0.3,0-0.7,0-1,0.1c0-85,0-170,0-255c1.8,1.6,1,3.8,1,5.7C380,214.8,380,297.9,380,380.9z"/>
	<path class="st3" d="M636,117c-82.1,0-164.2,0-246.3,0c-0.7,0-1.3-0.1-2-0.1c-0.2-0.4-0.1-0.7,0.3-0.9c82.7,0,165.3,0,248,0
		c0.3,0.2,0.5,0.4,0.4,0.6C636.3,116.9,636.2,117,636,117z"/>
	<path class="st4" d="M546.9,471.9c0.4-0.3,0.7-0.6,1.1-0.9c4,2.1,3.1,5.7,3,9.4c4,0.4,8,0,11.9,0.2c25.4-0.1,50.8-0.1,76.1,0
		c4.9-0.1,9.9-0.1,14.3,0.1c-1-3.3-3.7-6.6,0.7-9.8c0.6,0.4,1.2,0.8,1.8,1.2c1.1,3.2-0.5,7.8,4.8,8.6c1.8,0.1,3.6-0.1,5.2,1.1
		c0.3,0.5,0.4,1,0.1,1.5c-3.4,2.4-7.5,0.3-11,1.8c-0.3,0-0.7,0-1,0c-0.8-0.6-1.6-0.8-2.6-0.9c-33.5-0.1-67,0-100.5-0.1
		c-1.7,0-3.4,0.1-5,1c-0.7,0-1.3,0-2,0c-1.3-1-2.9-0.2-4.2-0.7c-1.1-0.6-3.6,0-2.5-2.6c1.8-1.2,3.9-0.8,5.9-1.2
		C547,478.8,544.7,474.3,546.9,471.9z"/>
	<path class="st5" d="M546,485c0.7-1.2,2-1.5,3.1-2c1.7,1,3.6,0.5,5.4,0.5c31,0,61.9,0,92.9,0c1.8,0,3.7-0.4,5.4,0.4
		c0.4,0.4,0.8,0.7,1.2,1.1C618,485,582,485,546,485z"/>
	<path class="st6" d="M720,116c31.7,0,63.3,0,95,0c0.1,0.3,0.2,0.5,0.3,0.8c-0.3,0.5-0.7,0.9-1.3,1.1c-1.7,0.6-3.5,0.4-5.2,0.6
		c-10.6,0.1-21.2,0.2-31.9,0c-10.6,0-21.1,0.3-31.7,0.1c-6.1-0.4-12.3,0.2-18.4,0c-2.1-0.1-4.3,0.1-6.3-0.9
		C719.9,117.2,719.7,116.7,720,116z"/>
	<path class="st7" d="M720,116c0,0.3,0,0.7,0,1c-1.7,1.7-3.9,1.6-6.1,1.6c-7.6,0-15.2,0.1-22.9,0c-16.2,0.1-32.4,0-48.6,0.1
		c-1.8,0-3.6,0-5.4-0.7c-0.3-0.3-0.7-0.7-1-1c0-0.3,0-0.6,0-1C664,116,692,116,720,116z"/>
	<path class="st8" d="M824,381c-0.4,0-0.7-0.1-1.1-0.1c0.1-22,0.1-43.9,0.2-65.9c0.3-0.4,0.6-0.4,0.9,0C824,337,824,359,824,381z"/>
	<path class="st9" d="M824,217c0,22,0,44,0,66c-0.3,0.1-0.6,0.1-0.9,0.2c-0.5-0.4-0.9-0.9-1.1-1.5c-0.9-11.2-0.1-22.5-0.4-33.7
		c0-8.2,0-16.4,0-24.6c0-2-0.2-4,0.8-5.8C822.8,216.9,823.3,216.7,824,217z"/>
	<path class="st10" d="M824,217c-0.3,0-0.6,0-0.9,0c-2.2-2.1-1.3-4.8-1.5-7.2c0-10.7,0-21.4,0-32.2c0.2-3-0.5-6.2,0.8-9.1
		c0.4-0.6,0.9-0.7,1.6-0.4C824,184.3,824,200.7,824,217z"/>
	<path class="st11" d="M824,168c-0.3,0-0.6,0-0.9,0c-2.6-2.8-1.2-6.3-1.5-9.5c-0.2-2.5-0.1-4.9-0.1-7.4c0.5-8.2-0.9-16.4,0.8-24.6
		c0.4-0.6,0.9-0.8,1.6-0.5C824,140,824,154,824,168z"/>
	<path class="st12" d="M791,382.2c11-0.1,22-0.1,33-0.2c0,0.3,0,0.7,0,1c-6.7,0-13.3,0-20,0c-4,2.3-8.2,1.6-12.3,0.7
		c-0.2-0.2-0.5-0.4-0.7-0.6C791,382.8,791,382.5,791,382.2z"/>
	<path class="st13" d="M823.1,282.9c0.3,0,0.6,0,0.9,0.1c0,10.7,0,21.3,0,32c-0.3,0-0.6,0-0.9,0c-0.1-1-0.2-2-0.2-2.9
		c-1-1-1.3-2.3-1.4-3.6c-0.2-7.5,0.1-14.9,0.2-22.4C821.7,284.8,822.1,283.7,823.1,282.9z"/>
	<path class="st14" d="M824,126l-0.4-0.3l-0.5,0.1c-0.4-0.2-0.7-0.5-0.9-0.9c-1-2.4-2-4.8-4.5-6.1c-0.9-0.5-2.1-0.8-2.6-1.9
		c-0.1-0.3-0.1-0.6-0.1-0.9"/>
	<path class="st15" d="M379,383c0.3,0,0.7,0,1,0c0,7.1,0,14.2,0,21.3c0,1.6,0.5,3.4-1,4.6C379,400.3,379,391.7,379,383z"/>
	<path class="st16" d="M536.9,482.1c1.1,0.6,2.1,1.2,3.2,1.8c-0.1,0.6-0.7,0.7-1.1,1.1c-1,0-2,0-3,0c-0.6-0.7-1.3-1.3-1.9-2
		C534.3,480.5,535.6,481.4,536.9,482.1z"/>
	<path class="st17" d="M655,485c3.4-2,7.5-0.3,11-2c0.2,0.2,0.3,0.4,0.2,0.6c-0.1,0.2-0.2,0.3-0.2,0.3c-0.3,0.4-0.7,0.7-1,1.1
		C661.7,485,658.3,485,655,485z"/>
	<path class="st18" d="M539,485c0.4-0.4,0.7-0.7,1.1-1.1c1.4,0.2,2.9-0.4,3.9,1.1C542.3,485,540.7,485,539,485z"/>
	<path class="st19" d="M701,261c-3.3-7.3-6.7-14.7-10-22c0.3-1.7,1.4-2.4,3-2.8c23-6,45.8-12.8,68.7-19.1c17-4.7,33.9-9.6,50.9-14.2
		c2.8-0.8,5.8-2.7,8.8-0.3c0.1,2.5,0,5,0,7.5c0,4.2,0,8.3,0,12.5c-3,6-5.9,6.5-11.5,1.8c-0.1,1.1,0.7,1.7,0.9,2.7
		c0.3,1,0.3,2-0.8,2.5c-0.8,0.4-1.6,0.4-2.4,0.3c-1.7-0.3-5.6-2.1-6.6-3.3c0.4,1.9,0.4,3.4-0.4,4.7c-1.1,1.7-2.5,2.2-3.9,0.3
		c-1,3.7-5,2.1-7,3.9c-1.1,1-2.8,2-4.1,1.3c-3.9-2-6.4-0.3-9,2.4c-1,1.1-2.5,1.9-4,0.7c-2-1.7-2.4-3.8-1.7-6.4c-0.3,1-4.1-0.3-1.2,3
		c2,2.2-1,5.2-3.6,5.7c-5.1,0.8-10,5.3-15.6,1.1c-0.7-0.6-2.4-0.4-3.1,0.7c-0.3,0.6,0.7,1,1.1,1.4c0.4,0.3,0.5,0.7,0.6,1.2
		c-5.3,3.7-8.4,3.5-12.1-0.9c-1.8-2.2-1.8-2.2-5.6,0.2c0,0.3,0.2,0.6,0.4,0.9c0.9,1.2,3.5,1.2,2.9,3.4c-0.5,1.9-2.7,1.9-4.2,2
		c-5,0.5-9.4,3.7-14.6,3.6c-0.4-0.1-0.8-0.3-1.2-0.5c-0.6-1.2,0.9-2.3,0.4-3.5c-0.2-0.3-0.4-0.7-0.7-1c-3.7-1.8-5.9,1.7-8.8,2.5
		c-0.3,0.3-0.7,0.6-1,0.9c-1.5,1.5-4,2.4-2.9,5.5C703.2,260.2,702.3,261.4,701,261z"/>
	<path class="st20" d="M679,212c-2-4.3-4-8.7-6-13c1.2-5.9,1.6-6.3,7.5-5.3c2,0.4,3.6,0,5-1.3c1.4-1.3,3-2.1,4.8-2.5
		c7.5-1.9,14.5-5.6,22.6-5c2.5,0.2,5-0.7,7.2-2c6.7-3.9,14.3-4.9,21.5-7.1c6.6-2,13.6-2.5,19.8-5.9c3.2-1.8,7-2.1,10.7-1.4
		c2.7,0.5,4.9-0.1,6.7-2.3c1.8-2.2,4.2-2.8,7.1-2.9c4.3-0.2,8.5-0.3,12.4-3.6c3.1-2.6,7.8-2.2,11.9,0.9c0.1-1.6-1.4-3.2,0.2-4.4
		c1.4-1.1,2.8-0.9,4.3-0.5c2.8,0.9,6,1,7.8,3.9c0.1,3.1,0,6.2,0,9.3c-1.6,3.9-6.1,2.5-8.7,5.2c1.5,0.8,2.1,2.2,1.6,4
		c-0.6,0.9-1.3,1.4-2.4,1.4c-4.1-3.1-7.8-3.8-13.2-1.6c-8,3.2-16.9,3.9-25.1,7.2c-4.2,1.7-8.3,4.1-12.6,5.1c-3.9,0.9-8.1-0.5-12.2,1
		c-3.2,1.2-6.6,1.9-9.7,3.6c-2.9,1.6-6.8,0.4-9.8,1.9c-0.7-0.7-0.6,0.8-0.4,0.2c0.1-0.3,0.2-0.3,0.4-0.2c1.8,1,1.6,2.3,0.6,3.7
		c-0.9,1.2-2.1,1-3.1,0.2c-2.2-1.9-4.6-1.4-7.1-0.7c-6,1.7-12.2,2.4-17.8,5.9c-2.6,1.6-6.4,1.1-9.7,2.4
		C688.8,209.9,683.7,210.4,679,212z"/>
	<path class="st21" d="M823.1,282.9c-0.1,9.7-0.2,19.4-0.3,29.1c-0.6,1.7-1.3,3.3-1.9,5c-1.6,4.1-4.2,6.2-8.9,7.3
		c-13,3.1-25.6,7.6-38.5,11.1c-3.8,1-7.6,2.2-11.5,2.7c-5.3,0.6-10,3.7-15.5,4.7c-5,0.9-8.5,0-10.9-4.6c-2.1-4-3.8-8.1-5.6-12.2
		c0.8-2.1,2.8-2.7,4.7-3.3c24.9-7.3,50-14.1,75-21.3c0.6-0.2-0.2,0,0.5-0.1c10.2-2.6,10.2-2.6,10.5-13c0-1.7,0-3.3,0.8-4.9
		c0.4-0.5,0.8-0.6,1.4-0.3L823.1,282.9z"/>
	<path class="st22" d="M815.1,116.9c1.1,0,2.3,0.1,3,1.1c-1.6,4.5-4.7,6.6-9.5,6.3c-2.7-0.2-5.6,0.3-7.7,1.6
		c-4.6,3-9.5,2.5-14.4,2.3c-2.2-0.1-3.7-0.2-5.2,2.3c-2.1,3.6-8.2,3.3-10.8-0.5c-1,3.6-2.7,6.1-6.4,7.4c-3.4,1.2-6.8,2.6-10.4,3.4
		c-3.4,0.7-6.9,1.6-10.3,0.6c-2.2-0.7-3.7-0.1-5.4,1.2c-2.6,1.9-5.4,4.1-9.1,2.1c-1.7-0.9-2.4,0.4-3,1.7c-1.4,2.9-3.9,4.2-6.9,3.8
		c-3.5-0.4-6.3,1.1-9.5,1.9c-6.3,1.6-12.4,4.8-19.2,4.4c-2.2-0.1-4-0.3-5.4,2.6c-1.4,2.9-5.7,3.2-8.5,3.2c-5.4,0.1-9.8,2.7-14.6,4.4
		c-0.9,0.3-1.8,1-2.8,0.5c-1.7-3.7-3.3-7.3-5-11c1-5.2,2.1-5.9,7.3-4c2.1,0.8,3.6,0.6,4.2-1.8c0.3-1.2,0.7-2.4,1.9-2.7
		c6.4-1.6,12.2-5,19-5.5c3.6-0.2,7.6,0.2,10.6-2.8c1.6-1.6,4.1-0.8,6.2-1.3c8.6-1.9,16.6-5.4,24.8-8.2c2.4-0.8,4.3-0.8,4.8,2.6
		c2-3.4,5.2-5,8.7-5.8c2-0.5,2.9,1.3,3.7,2.8c2.8-5.2,10.8-8.6,16-6.5c1.6,0.6,2.1,1,2.9-0.7c0.6-1.2,1.9-1.9,3-2.6
		c4.9-3,5.9-2.8,9,2.1c0.7-1.5-0.6-3.4,0.9-4.7c11,0,22,0,33,0c1.5,1.5,3.2,0.4,4.8,0.2C814.9,117.1,815,117,815.1,116.9z"/>
	<path class="st23" d="M822,202c-13,3.5-26,7-39,10.6c-11.7,3.3-23.2,6.9-34.9,10.2c-13.7,3.9-27.5,7.4-41.3,11.3
		c-5.3,1.5-10.5,3.3-15.8,4.9c-1-2.3-2-4.7-3-7c0.2-0.3,0.3-0.6,0.2-0.9c-2.6-7.4-2.7-7.4,5.5-8.5c2.3-0.3,4.5-1,6.6-2
		c1-0.5,2.1-1.3,3.2-1.3c8.5,0,15.7-4.7,23.7-6.5c2.4-0.5,4.7-1.2,6.2,2.2c0.8-3.2,3.6-4.3,6.4-5.5c8.3-3.8,17.2-4.8,26.1-6.1
		c1-0.1,2.1,0.1,2.9-0.4c13-7.4,28.1-8.2,41.8-13.5c3.2-1.3,7-0.3,10.2-1.9c0.8-0.4,1.5,0.3,1.7,1.3C822.2,193.3,823,197.7,822,202z
		"/>
	<path class="st24" d="M822,283c0,2.7,0,5.3,0,8c0,8.7,0,8.6-8.5,11c-26.5,7.4-53,14.8-79.5,22.2c-1.4,0.4-2.7,1.2-4.1,1.9
		c-2.3-5-4.7-10-7-15c0.7-1,0.8-2.5,2.3-3c3.4-1.1,6-3.5,8.5-5.9c2.2-2,4.4-2.8,7.1-0.7c3.3,2.6,6,0.8,7.4-2c2-4.1,3.9-4.9,7.2,0.1
		c1.4-6.9,5.4-5.9,9.4-4.5c2.8,1,4.8,0.6,7.4-0.9c6.2-3.6,13-5.9,19.7-8c3.7-1.2,8.1-0.3,11.7-2.7c1.3-0.8,2.8,0.3,4.3,0.7
		c3.9,1.1,7.3-0.7,8.8-4.5c1.3-3,3.2-3.5,5.6-1.2C822.3,280,822.9,281.6,822,283z"/>
	<path class="st25" d="M711,284c-2.3-5.3-4.7-10.7-7-16c0.5-1.4,1.8-1.8,3.1-2.2c12.3-4,24.8-7.6,37.3-10.9
		c24.2-6.5,48.2-13.7,72.5-20c1.9-0.5,4.2-2,5.6,1c0,3.9,0,7.8,0,11.7c0,1.1,0.1,2.2-0.2,3.3c-6.9,3.8-14.7,5-22.1,7.1
		c-21.5,6.1-43.2,12-64.6,18.4c-3,0.9-6.2,1.1-9.2,2.1C721.2,280.2,715.8,281.4,711,284z"/>
	<path class="st26" d="M711,284c1.1-2.8,3.6-3.5,6.2-4.2c14.9-4.1,29.9-8.1,44.8-12.3c18.2-5.1,36.4-10.3,54.7-15.5
		c1.8-0.5,3.5-1.1,5.3-0.9c1.1,4.6,0.2,9.3,0.5,13.9c-0.2,2.5-2.3,2.9-4.1,3.6c-7.5,3.3-15.6,4.5-23.3,6.9
		c-23.2,7-46.5,13.3-69.9,19.5c-2.7,0.7-5.1,2.6-8.1,2.1C715,292.7,713,288.3,711,284z"/>
	<path class="st27" d="M822,188c-6.8,3.3-14.6,3.2-21.7,5.7c-7.9,2.8-16,5.8-24.6,6.3c-0.3,0-0.8,0-0.9,0.2
		c-5.8,7-14.5,4.3-21.7,6.4c-8.2,2.4-16.9,3.4-21.5,12.2c-0.6-0.7-0.9-0.9-0.9-1.2c-0.6-1.7,3.1-2.2,1.2-4.1
		c-1.5-1.5-3.4-0.2-4.6,0.6c-5.1,3.1-12.2,1.1-16.2,6.6c-0.1,0.1-0.3,0.2-0.5,0.1c-7.3-3.1-12.9,4.4-20,3.3c-3-0.5-5,0.9-2.8,4.4
		c0.6,1,1.9,2.2,0.3,3.5c-1.3-3-2.7-6-4-9c-1.9-8.1-1.9-8.1,6.4-10.4c24.9-7,49.7-14.1,74.6-21c8.1-2.2,16.1-5.1,24.2-7.3
		c7.8-2.1,15.6-4.4,23.7-5.3c0.7-0.3,1.3-0.7,2-1c2.3-1.6,4.5-3.6,7.3-0.9c0.1,0.5,0.2,1,0.1,1.5C822.2,181.7,823.1,184.9,822,188z"
		/>
	<path class="st28" d="M659,167c5.2-2.1,9.3-6.8,16.1-5.7c2.1,0.3,5.6-1.2,8.3-2.3c3.1-1.3,0.4-3,0.4-4.5c6.6,0.8,13.2,1,19.1-2.8
		c1.4-0.9,2.8-0.7,4.3-0.2c1,0.4,2.2,0.5,2.5-0.7c1.1-4.7,4.5-2.8,7.2-2.4c4,0.7,7.2,0.8,8.3-4.3c0.4-1.7,1.2-3.9,4-1.2
		c4.1,3.8,6.5-1.2,9.5-2.8c0.8-0.4,0.9-1.7,2.5-1.1c7.6,3.2,14.6,0.2,21.4-2.5c2.3-0.9,7-0.8,5.3-6.3c-0.4-1.3,3.4-1,5.2-2
		c-0.1,2.1-2.3,5.9,2.7,3.5c2-1,6.4,0.5,4.9-4.6c-0.3-1.1,1.5-1.2,2.4-0.8c7.9,3,15-0.9,22.2-2.9c1.8-0.5,3.1-0.5,5-0.2
		c3.7,0.6,5.3-3.4,8-5.2c3.2,1.3,4.6,3.8,4.8,7.1c-1.1,1.3,0.2,3.2-1.1,4.5c-17.5,5.2-35.2,9.8-52.8,14.9c-12,3.4-24,6.7-35.9,10.4
		c-5.9,1.8-12.1,2.6-17.8,4.6c-16.5,5.8-33.8,8.7-50.3,14.5c-1,0.3-1.9,0.5-2.9,0.1C661,171.7,659.3,169.6,659,167z"/>
	<path class="st29" d="M822,159c-3-0.8-6-1.6-9-2.5c-0.9-0.3-1.7-0.2-2.2,0.5c-0.4,0.6-0.5,1.2,0.2,1.7c1,0.6,3.9,0.2,1.8,2.4
		c-1.2,1.3-3.7,2.1-5.2-0.6c-0.6-1.1-8.6-1.1-9.2,0.1c-2.8,5.8-8.3,3.5-12.6,3.9c-2.7,0.3-5.1,0.5-6.3,2.7c-1.7,3-4.1,3.1-6.8,2.7
		c-4.8-0.7-9.5-1-13.2,3c-1.8,1.9-3.7-0.2-5.6,0.5c-8.1,2.8-16.5,4.6-24.9,6.6c-5.7,1.4-10.3,6.6-16.5,6.1
		c-7.9-0.6-14.6,3.4-21.9,4.9c-1.3,0.3-2.9,0.7-3.5,1.6c-2.4,3.5-5.1,3.2-8.4,1.7c-4.5-1.9-3.4,3.5-5.6,4.6c-0.7-1.7-1.3-3.3-2-5
		c0.5-1.3-0.3-2.3-0.9-3.3c-1.2-2.2-0.2-3.4,1.6-4.4c1.9-1,4-1.6,6.1-2.2c27.7-7.6,55.3-15.8,83-23.5c12.8-3.6,25.6-7.1,38.5-10.5
		c5.5-1.4,10.7-3.6,16.3-4.7c2.3-0.5,4.5-1.4,6.6,0.5c0.4,1.7,0.1,3.4,0.2,5.1C822.2,153.8,823,156.4,822,159z"/>
	<path class="st30" d="M717,297c6.3-4,13.6-4.7,20.5-6.8c15.5-4.7,31.4-7.9,46.7-13.4c3.1-1.1,6.8-1.6,10.2-2.6
		c9.2-2.6,18.6-4.8,27.5-8.2c0.8,4,0.8,8,0,12c-2.1,0.3-5.9-1-3.4,3.7c0.5,1-0.6,2-1.5,2.1c-3.6,0.6-7,4.1-11,0.8
		c-0.4-0.4-1.4-0.6-1.9-0.4c-11,4.7-23.8,4.9-33.6,12.7c-1.4,1.1-2.6,1.3-4,0.2c-1.8-1.4-4.1-1.3-6.1-1.9c-1.5-0.4-3.2,0.1-3.1,2.1
		c0.1,1.3,0.8,2.9-1,3.3c-1.8,0.4-3.1-0.7-3.6-2.6c-0.1-0.5-0.8-1-1.4-1.7c-2.1,2.4-1.6,6.1-5.6,7.2c-2.5,0.7-4.1,1.6-5.7-1
		c-1-1.6-2.8-2-3.8-0.8c-3.7,4.3-8.7,6.5-13.4,9.4C721,306.3,719,301.7,717,297z"/>
	<path class="st31" d="M662,174c11.7-5.5,24.4-8,36.8-10.8c4.6-1,8.6-3.4,13.1-4.5c16-3.9,31.9-8,47.6-12.9
		c18.9-5.9,38.1-10.3,57-16.2c1.8-0.6,3.6-0.6,5.4-0.6c1,2.5,0.3,5,0.4,7.5c-0.7,1.8-2.3,2.3-3.9,2.7c-21.4,5.8-42.6,12-63.9,18
		c-23.7,6.7-47.6,12.9-71.2,20.1c-3.2,1-6.5,1.5-9.7,2.5c-3.1,1-5.2,2-4.1,5.8c0.3,1,0.2,2.5-1.6,2.3C666,183.3,664,178.7,662,174z"
		/>
	<path class="st32" d="M822,235c-13.8,3.8-27.6,7.6-41.5,11.3c-8.2,2.2-16.3,4.4-24.5,6.7c-17.4,4.9-34.7,10-52.1,15
		c-1-2.3-2-4.7-3-7c0.4-0.5,1.1-1,1.1-1.5c0-3.9-0.1-3.9,3.9-6.5c0.9,0.7,1.9,1.3,1.3,2.7c-0.2,0.4-0.6,0.7-0.7,1.2
		c0.3-0.3,0.3-0.8,0.6-1.1c1.2-1.6-0.3-2.1-1.2-2.8c4.5-4.6,8.6-5.3,11-2l-0.4,0.3l0,0l0.4-0.3c2.3,2-0.3,2.8-1.1,4.2
		c-1.6-1.4-3.2,2.7-4.3-0.3c-0.1-0.4-0.1-0.6,0.2-0.8c-0.5,0-0.4,0.1-0.3,0.6c1.2,3.9,3.1-0.7,4.4,0.6c6.9-0.4,12.5-5.3,19.3-4.7
		c0.1-1.9-1.1-1.7-1.7-1.8c-1.9-0.3-2.8-2.4-2.6-3.1c0.4-1.9,2.7-2.2,4.3-3.2c1.4-0.9,2.6-0.2,3.2,1.2c2.7,6.8,7.3,4,12,2
		c0.3-0.3,0.3-0.3,0.3-0.3c-0.7,0.1,0.1-0.1-0.3,0.3c-0.5,0.5-0.8-0.1-0.3,0.3c0,0,0.4-0.4,0.3-0.3c-2.3,0.5-3.9-0.2-5.1-2.6
		c3.3-0.1,6-3.6,9.2,0.3c0.5,0.6,2.2,1.5,3.9,0.3c3.8-2.7,10.4-0.4,12.4-6.5c-0.7-1.7-2.5,2.7-3-0.7c-0.7-5.6,4.7-1.9,6.3-4.1
		c-0.4,1.1-0.9,2.2-1.3,3.4c-0.5,1.8,0.8,3,1.9,3.7c1.3,0.9,1.8-0.8,2.6-1.6c2.4-2.2,4.6-5.7,8.6-2.1c0.5,0.4,2.2,0.3,2.8-0.2
		c2-1.7,4-2.7,6.7-2.6c2.6,0,0.7-3.9,3.2-4.2c2.2,0.6-2,3,1,3.1c2,0.1,1.4-1.9,1.7-3.1c0.3-1.2,0.1-2.5,0.1-4.2
		c1.9,1.4,2.2,6.4,5.7,2.3c0.1-0.1,0.8,0.2,0.8,0.2c-0.3,2.6,1.7,2.4,2.8,1.8c2.2-1.2-1.1-2.2-0.5-3.7c0.3-0.7-0.1-1.6-0.2-2.5
		c1.7-0.2,2.1,1.5,2.9,2.2c3.6,3.1,6.3,0.1,9.4-0.9C822.8,227.7,822.8,231.3,822,235z"/>
	<path class="st33" d="M668.1,188c1.4-1.1,0.9-2.4,0.1-3.5c-2-3.1-0.6-4.3,2.4-5.2c17.2-4.7,34.4-9.2,51.5-14.3
		c19.4-5.8,39.1-10.6,58.4-16.7c13.7-4.4,27.7-7.5,41.6-11.2c0.8,3,0.8,6,0,9c-4.5-0.5-8.6,1.2-12.6,2.5
		c-19.5,6.3-39.5,10.7-59.1,16.7c-16.3,5-32.8,9.2-49.2,13.7c-8.6,2.4-17.2,4.9-25.7,7.3c-3.4,1-6.6,1.9-3.7,6.5
		c0.1,0.2-0.4,0.8-0.7,1.2C670,192,669,190,668.1,188z"/>
	<path class="st34" d="M777,117c0,0.5,0,1,0.1,1.5c0.2,2,2.4,4.9,0,5.7c-2.6,0.9-2.7-2.4-3.3-4.4c-0.4-1.2-1.4-2.1-2.7-1.1
		c-2.9,2.2-7.4,2.7-7.3,9.2c-3.3-7.2-7.5-3.5-11.2-3.2c-3.7,0.3-5.9,2.1-5.5,6.1c0.1,0.9-0.2,1.8-1.3,1.7c-0.5,0-1.1-0.7-1.4-1.3
		c-0.7-1.5-0.2-4.7-2.7-3.6c-2.7,1.1-6.3,1.5-7.4,5.1c-0.2,0.8,0.8,2.2-0.9,2.1c-1.3-0.1-2.2-0.9-1.9-2.4c0.7-3.1-0.7-2.3-2.7-1.7
		c-7.7,2.5-14.9,6.3-23.2,7.8c-3,0.5-8.7-1.1-10.2,4.8c-0.3,1.3-2.6-1.6-3.2-1c-3.4,3.2-7.6-0.1-11.1,1.7c-4.1,2.1-8.4,4-13.2,4.3
		c-1.1,0.1-1.1,0.9-1,2.2c0.4,2.5-3.8,5-5.4,3.2c-4.4-4.7-5.6-0.6-7.4,2.3c-1.3-3-3.4-5.7-4-9c0.2-0.3,0.2-0.6,0.1-0.9
		c-1.6-5.1-1.6-5.1,3.4-4.7c3.4,0.3,6.7-1,9.6-2.2c6.4-2.6,13.2-3.4,19.7-5.6c11.1-3.8,22.7-5.9,33.9-9.4c9.3-3,18.7-5.3,28.2-7.1
		C755.7,117,766.3,117,777,117z"/>
	<path class="st35" d="M745,117c-6.1,2.3-12.2,4-18.7,5.1c-3.9,0.7-7.7,3.2-11.8,3.8c-8.2,1.4-15.5,6.5-24.2,5.3
		c-4.7,4.7-11.3,4.2-17,6.1c-5.3,1.8-10.6,3.2-15.9,5c-2.7,0.9-5.1,0.9-7.3-0.9c-1.2,1.9,1.9,3.7,0,5.5c-1.3-3-3.4-5.7-4-9
		c-0.8-5.1-0.7-5,4.7-5.9c4.5-0.8,9-1.7,12.9-4.7c3.8-3,8.8-3.6,13.4-4.8c3.4-0.9,6.5-3.6,10.6-1.8c1.3,0.6,1.5-3.1,3.4-3.8
		c9.7,0,19.3,0,29,0C728.3,117,736.7,117,745,117z"/>
	<path class="st36" d="M813,179c-6.1,2.8-12.5,4.5-19.2,5.2c-4.6,0.5-8.9,2.5-13.1,3.9c-11.1,3.7-22.4,6.4-33.6,9.8
		c-16.7,5-33.5,9.5-50.4,14c-3.6,1-7,2.9-10.9,2.9c-2.3,0-3.2,1.9-2.3,4.4c0.5,1.2,2.2,2.4,0.5,3.9c-1.7-3.7-3.3-7.3-5-11
		c1.6-1.6,5.1-4.3,5.2-4c3,4.8,5.7-4.9,8.6-0.2c0.1,0.2,1.7-3.1,4.4-2.6c4.5,0.8,7.9-2.9,12.2-3.6c4.8-0.8,9.5-2.7,14.2-4
		c1.4-0.4,2.5,0.5,3.7,0.9c1.1,0.4,1.6,3.6,3.2,1.1c1.5-2.5-1.6-2.1-3-3.3c4.2,0.2,7.2-4.5,11.4-1.5c3.5-4.6,9.2-3.5,13.7-5.6
		c1.7-0.8,3.1-0.6,4.8-0.4c2.4,0.3,4.7-0.7,6.7-1c3.4-0.6,6.3-2.6,9-3.7c5.8-2.2,11.8-3.3,17.6-5.1c3-0.9,5.9-3.2,9.3-2
		c1.6,0.6,1.8-1.1,2.8-1.4c2.6-0.8,5.5-4.8,7.2,1.2C810.1,177.7,811.9,178.3,813,179z"/>
	<path class="st37" d="M691,117c-0.3,0.9-0.9,1.9-0.9,2.8c-0.1,3.6-1.8,3.9-4.5,2.2c-2.1-1.3-4.1-2-4.7,1.5
		c-0.1,0.7-0.7,1.4-1.3,1.2c-7.6-1.6-13,2.9-19.2,6c-3.2,1.6-6.9,3.5-11,2.5c-4.6-1.1-1.8,3.4-3.4,4.7c-3-6.7-6-13.4-9-20
		c1.8-1.1,3.8-1,5.8-1C658.9,117,674.9,117,691,117z"/>
	<path class="st38" d="M654.1,470.9c-1.2,2-1.5,4-0.6,6.2c1.8,4.3,0.1,5.5-4.1,5c-3.1-0.3-6.3-0.1-9.4-0.1c-1.2-1.1-2.8-1-4.2-1
		c-18.2-0.3-36.4-1.3-54.6-0.4c-6.4,0.3-12.9-0.7-19.1,1.4c-0.7,0-1.3,0-2,0c-3,0-6.2,0.7-8.8-0.2c-3.4-1.2,0-4.9-1.5-7.2
		c-0.7-1.1-1.1-2.4-1.7-3.5c0.6-0.4,1.2-0.8,1.8-1.3c0.9,0.1,1.6,0.7,2.2,1.4c2,3.7,4.8,5,9.3,4.7c13.9-0.9,27.7-3,41.6-2.3
		c13.5,0.7,27.1,1.2,40.6,2.9c5.5,0.7,6.4,0.1,7.1-4.5c0.1-1.2,0.4-2.4,1.5-3.2C652.8,469.5,653.5,470.2,654.1,470.9z"/>
	<path class="st39" d="M555,448.9c0.4-3.7-0.8-7.5,1-11c0.4,0.3,0.7,0.6,0.9,1c0.5,1.3,0.8,2.7,2.7,2.6c8-0.3,15.8-1.7,23.8-2.2
		c10.1-0.6,20.2-0.6,30.3,0c9.3,0.6,18.5,1.2,27.8,2.3c1.8,0.2,3.7,0,5.2,1.4c1.3,1,0.6,2.8,1.4,4c0,1.3,0.1,2.6,0.1,4
		c0.6,1.6,0.6,2.6-1.5,1.7c-3.2-2.8-4.5-8.3-10.4-7.3c-2.4,0.1-4.8,0-7.3,0.1c-1.7,0-3.5-0.1-5.2-0.4c-1.8-0.6-3.6-0.6-5.4-0.6
		c-15.5,0.5-30.9-0.9-46.4,0.9c-4,0.5-7.5,1-10.4,3.9c-1.1,1-2.4,1.7-3.8,2.4C554.7,452.9,554,451.8,555,448.9z"/>
	<path class="st40" d="M650.9,466c0,0.3,0,0.7,0,1c-4.1,3.6-9.4,2.3-14.1,3.2c-0.9,0.2-1.9-0.4-2.9,0c-0.1,0-0.1,0.1-0.1,0.4
		c0,0,0,0.1,0.1,0.1c5.3-0.1,10.3,1.3,15.3,2.6c1.2,0.3,2,1.2,2.2,2.4c-2.5,3-5.7,1.4-8.5,1.1c-18.8-1.9-37.4-5-56.4-3.4
		c-5.7,0.5-11.3,2.5-17.2,1.2c-1.2-2.7,1.1-3.1,2.6-3.4c3.3-0.7,6.7-2,10.1-1.2c2.1,0.5,2-0.9,2.8-1.8c9.5-1.3,19-0.2,28.5-0.6
		c4.9-0.1,9.7,0.4,14.6-0.3c1.5-0.5,3.1-0.8,4.6-0.9c2.2,0.3,4.3,0.6,6.4-0.2c0.7-0.2,1.4-0.3,2.2-0.4c2-0.1,4,0,6-0.7
		C648.6,464.9,649.8,465,650.9,466z"/>
	<path class="st41" d="M647,444c-7.1-1.9-14.4-2.3-21.6-2.7c-12.2-0.8-24.5-2.1-36.8-1.2c-10.5,0.8-21.1,1.9-31.6,2.9
		c-1-3.5,1.5-4,3.9-4.3c18.7-2.1,37.5-2.8,56.3-1.9c7.6,0.4,15.3,0.6,22.8,1.9c2.4,0.4,5,0.6,7,2.3c0.1,0.3,0.1,0.6,0.1,0.9
		C647.5,442.6,647.6,443.3,647,444z"/>
	<path class="st42" d="M552.1,464c0.3-1,0.6-2,1-3c1.7-1.5,3.6-1.2,5.7-0.8c18.5,3.7,37.3,4,56,3.2c9.7-0.4,19.5-0.9,29.1-3.2
		c2.3-0.6,4.7-0.7,6.1,1.8c0,0.3,0,0.7,0,1c-2.1,3.2-5.6,2.5-8.6,2.9c-17.7,2-35.5,2.6-53.3,2c-10.8-0.3-21.6-0.7-32.3-2.5
		C554.4,465.2,553.1,465,552.1,464z"/>
	<path class="st43" d="M646,428c0.1,1.3,0.1,2.7,0.2,4c-0.3,0.1-0.6,0.2-0.8,0.3c-0.6,0-1.2-0.2-1.7-0.5c-5.8-0.4-11.5-1.3-17.3-1.5
		c-17.1-0.7-34.2,0.1-51.3,0c-2.8,0-5.6,0.4-8.4,0.8c-3.1,0.4-6.3,0.8-9.3-0.6c-0.9-0.7-0.8-1.6-0.5-2.6c0.5-0.5,1-0.8,1.6-1
		c17.7-2,35.4-3,53.2-2.2c10.3,0.5,20.6,0.6,30.8,1.9C643.7,426.8,645,427.1,646,428z"/>
	<path class="st44" d="M552.1,464c11,0.9,22,2.3,33.1,2.7c10.9,0.4,21.9,0.8,32.8-0.4c6.7-0.8,13.6-0.4,20.3-1.2
		c3.9-0.5,7.9-0.9,11.7-2c0.3,1,0.6,2,0.9,3c-1.3,0-2.6,0-3.9,0c-1.8,1.2-4.2-0.3-6,1c-0.7,0-1.3,0-2,0c-2,0.8-4,0.7-6,0
		c-1.3,0.7-2.5,1.1-4,1c-4.9,1.4-10.1-0.4-15,1c-10,0-20,0-30,0c-0.5,0.4-1,0.5-1.6,0.5c-4.2-0.3-8.4-0.1-12.6-0.1
		c-5.9-1.1-12.2-0.2-17.8-3.4C552.1,465.4,552.1,464.7,552.1,464z"/>
	<path class="st45" d="M646,428c-18.3-0.5-36.6-2.7-55-2c-11,0.4-22.1,1.3-33.1,2c-1-3.3,1.7-3.1,3.4-3.4
		c20.3-2.7,40.7-2.3,61.1-1.8c6.7,0.1,13.5,1.8,20.3,1.9c1.2,0,2.3,0.5,3.2,1.3C646,426.7,646,427.3,646,428z"/>
	<path class="st46" d="M553.1,460c0.3-1.7,0.6-3.3,0.9-5c2.4-0.6,3.9,1.2,5.9,1.9c4.2,1.4,8.5,1.9,13,1.7c18.7,1.9,37.5,2.3,56.2,0
		c2.2-0.1,4.4,0.3,6.5-0.6c1.7-0.6,3.5-1.2,5.3-1.4c2.8,0.3,5.3-2.4,8.1-0.7c0,0.7,0,1.3,0,2c-3.2,3.7-7.9,3.3-11.9,3.8
		c-19.7,2.7-39.6,3.1-59.5,1.4C569.4,462.5,561.3,460.7,553.1,460z"/>
	<path class="st47" d="M556.1,439c-0.1-0.4-0.1-0.7-0.2-1.1c0-0.3,0-0.6,0.1-0.9c5.6-3.2,11.9-2.9,17.9-3.1
		c8.9-0.3,17.9-1.7,26.8-1.2c13.5,0.7,27.1,0.5,40.6,2.7c0.8,0.1,1.7,0,2.4-0.3c0.6-0.5,0.9-1.2,1.3-1.8c0.3-0.4,0.6-0.8,0.9-1.2
		c0,0,0.3,0.1,0.3,0.1c1.5,2.2,0.6,4.6,0.7,6.9c-2.8,2.1-5.9,0.6-8.7,0.2c-23.6-3-47.3-3-70.9-0.5
		C563.6,439.1,559.9,440.3,556.1,439z"/>
	<path class="st48" d="M553.1,460c5.3-1.7,10.2,1.3,15.4,1.4c5.1,0.1,10.1,1.4,15.2,1.5c11.9,0.2,23.8,1.3,35.6,0
		c10-1.1,20.1-1.1,29.6-5c0.7,1.2,1.1,2.5,0.9,4c-1.8-1.1-3.7-1-5.7-0.6c-20.9,3.8-41.9,4.3-63.2,2.9c-9.4-0.6-18.6-2.5-28-3.3
		C553.1,460.7,553.1,460.3,553.1,460z"/>
	<path class="st42" d="M556.1,439c17.1-1.6,34.2-3.5,51.4-3c10.6,0.3,21.1,1.2,31.5,2.8c2.6,0.4,5.3,0.2,7.9,0.2
		c0,0.7,0.1,1.3,0.1,2c-18.8-2.5-37.6-3.6-56.5-2.9c-10.1,0.3-20.1,1.3-30.2,1.9c-2,0.1-3.1,1-3.3,3
		C555.6,441.9,556.1,440.4,556.1,439z"/>
	<path class="st49" d="M646,426c-20.6-1.4-41.3-2.8-62-1.9c-8.1,0.3-16.1,1.3-24.1,2c-1.2,0.1-1.7,0.9-1.9,1.9c-0.3,0-0.6,0-0.9,0
		c-0.9-1.8-1-3.6,0.1-5.4c2.3-1.4,4.9-0.9,7.3-0.9c8.5-0.1,17,0,25.4,0c14.5,0.2,28.9-0.3,43.4,0.3c4,1.8,8.7-0.6,12.5,2.2
		C645.9,424.7,646,425.3,646,426z"/>
	<path class="st50" d="M649,456c-2.7,0.3-5.1,2.1-8,2c0.5-2.4,0.4-4.2-2.3-5.6c-2.3-1.2-4.6-2.6-6.9-3.9c-1.7-1-3.6-1.9-2.9-4.5
		c2.7,0,5.3,0,8,0c3.2,2.8,6.4,5.7,10,8c1.5,0.8,0.7-0.7,1-1.1C649.6,452.4,648.8,454.3,649,456z"/>
	<path class="st51" d="M651,475c-6.2-2.2-13.1-2-20.4-5.1c7.5-1.1,13.9-2,20.4-2.9c0.4,0.6,0.8,1.2,1.2,1.8
		c-0.1,1.1-0.1,2.1-0.2,3.2c-0.4,0.3-0.8,0.3-1.1-0.2c-0.4-0.6-0.7-1.4-1.6-1.6c0.9,0.5,1.3,1.3,1.9,2.1
		C651.5,473.2,651.7,474.2,651,475z"/>
	<path class="st52" d="M666.1,482.1c-2,0-4.1-0.1-6.1-0.1c-1.2-0.9-2-2.2-2.8-3.4c-1.9-2.7-1.4-4.5,1.8-5.6c3.5,2.9,8.7,3.8,10,9
		C668,482.7,667.1,482.8,666.1,482.1z"/>
	<path class="st53" d="M790,421c5.5,0,10.9,0,16.4,0c1.6,0,3.4-0.5,4.6,1c-14.7,0-29.3,0-44,0c-0.3-0.6-0.2-1.1,0.4-1.5
		c2.9-1.4,6-0.6,9-0.9C780.9,420.2,785.7,418.3,790,421z"/>
	<path class="st54" d="M767,421c0,0.3,0,0.7,0,1c-14,0-28,0-42,0c-0.3-0.6-0.2-1.1,0.4-1.5c1.6-1,3.5-0.8,5.3-0.9
		c5.8,0,11.5,0.1,17.3-0.1c4.6,0.2,9.2,0,13.8,0.1C763.6,419.7,765.5,419.4,767,421z"/>
	<path class="st55" d="M725,421c0,0.3,0,0.7,0,1c-14,0-28,0-42,0c-0.3-0.7-0.1-1.2,0.5-1.6c5.8-1.5,11.7-0.6,17.6-0.9
		c5.3,0.2,10.5,0,15.8,0C719.6,420,722.6,418.8,725,421z"/>
	<path class="st56" d="M655,422c-2.9,0.4-6.1-0.7-8.9,1c-0.3,0-0.6,0-0.9,0c-9.7-0.1-19.4-0.6-29.2-0.8c-0.4-0.6-0.3-1.2,0.3-1.7
		c1.3-0.9,2.8-0.9,4.3-0.9c10,0,20-0.1,30,0c1.3,0,2.7,0.1,3.9,0.7C655.1,420.8,655.3,421.3,655,422z"/>
	<path class="st57" d="M658.9,473.1c-2.3,1.9-2.7,3.9-0.4,6c0.8,0.8,1.4,1.7,1.4,2.9c-4.4-1.4-5.7-4.7-4.1-9.9
		C656.9,472.4,657.9,472.7,658.9,473.1z"/>
	<path class="st58" d="M655,422c0-0.3,0-0.7,0-1c4.4-2.4,9-1.6,13.5-0.6c0.6,0.4,0.8,0.9,0.5,1.6C664.3,422,659.7,422,655,422z"/>
	<path class="st59" d="M669,422c0-0.3,0-0.7,0-1c2-2,4.6-1.2,7-1.4c2.4,0.2,5-0.6,7,1.4c0,0.3,0,0.7,0,1
		C678.3,422,673.7,422,669,422z"/>
	<path class="st60" d="M645.9,424c-4-0.5-8.1,1.1-11.9-1c3.9-0.8,7.8-0.9,11.8,0.1c0,0,0.4-0.1,0.4-0.1
		C646.1,423.3,646,423.7,645.9,424z"/>
	<path class="st61" d="M647,444c0-0.7,0.1-1.4,0.1-2c1.5,1.5,0.8,3.3,0.9,5.1C646.8,446.2,647,445,647,444z"/>
	<path class="st62" d="M666.1,482.1c1,0,1.9,0,2.9-0.1c-0.4,1.6-1.4,2.1-3,1.9c0-0.3,0-0.6,0-0.9C666,482.7,666,482.4,666.1,482.1z"
		/>
	<path class="st63" d="M572,460c-6.5,0.1-12.7-0.8-18-5c0.2-2-0.7-4.3,1-6.1c0.5,0.7-1.1,3.6,1.8,1.7c0.8-0.5,1.8-1,2.4-1.8
		c5.4-6.8,13.5-5.3,20.4-5.7c13.5-0.8,27.2-0.2,40.8-0.2c1.3,0,2.7-0.3,3.7,1c-2.2,2.1-4.9,1.2-7.5,1.4c-10.3-0.1-20.5,0-30.8-0.1
		c-3.6,0-6.9,0.4-9.9,2.5c-3,2.2-7,1.8-10.2,3.7c-1.2,0.7-3.1,1.2-3,3c0.2,1.8,2.1,1.8,3.4,2.3c1.8,0.7,4,0.6,5.7,1.7
		C572.3,459,572.3,459.5,572,460z"/>
	<path class="st64" d="M646,435c-0.4,2.8-2.7,2.1-4.3,1.9c-15.4-2.2-31-3.1-46.6-2.7c-13,0.4-26.1,0.9-39.1,2.8c0-2,0.1-4,0.1-6
		c0.4-0.3,0.8-0.3,1.2,0c0.3,0.4,0.6,0.7,0.9,1.1c0.3,0.4,0.7,0.7,1.1,0.9c11.6-1.3,23.2-2,34.8-2.1c16.2-0.2,32.5,0.2,48.6,2.7
		C644,433.8,645.1,434.2,646,435z"/>
	<path class="st65" d="M583,469c0.3,0,0.7,0,1,0c0.9,1.1,2,2.1-0.7,2c-4.9-0.1-9.9,0.1-14.3,3c-8.1,3.8-13.3,2.9-18-3
		c-0.4-0.4-0.8-0.8-1.2-1.2c0.7-1.3,1.5-2.5,2.2-3.8c6,0.7,12,1.3,18,2C574.2,469.5,578.8,467.6,583,469z"/>
	<path class="st66" d="M536.9,482.1c-1.1-0.1-2.2-0.2-2.8,0.9c-1.9-1.9-0.1-3.1,1-3.9c2.9-2.1,6-4,9-6c3.7,3,1.2,5.9-0.1,8.9
		C541.6,482,539.3,482.1,536.9,482.1z"/>
	<path class="st67" d="M517,422c-21.7,0-43.3,0-65,0c-0.3-0.7-0.1-1.2,0.5-1.6c4.3-1.5,8.8-0.7,13.2-0.8c6.7-0.1,13.5,0,20.2-0.1
		c8.2,0,16.5,0,24.7,0c2,0,4-0.2,5.8,0.8C517.1,420.8,517.3,421.3,517,422z"/>
	<path class="st68" d="M452,421c0,0.3,0,0.7,0,1c-21.3,0.1-42.6,0.6-63.9-0.2c0.3-0.3,0.6-0.5,0.9-0.8c5.7-0.4,11.3-1.5,17.1-1.4
		c11.9,0,23.8,0,35.7,0C445.2,420,448.9,418.6,452,421z"/>
	<path class="st69" d="M517,422c0-0.3,0-0.6,0-1c3.7-2.7,8-0.9,11.9-1.5c8.6,0.3,17.3-0.6,25.9,0.5c0.6,0.3,1,0.7,1.3,1.3
		c-0.1,0.3-0.2,0.6-0.2,0.9C543,422.2,530,422.1,517,422z"/>
	<path class="st70" d="M544,482c0-3,2.2-5.9,0.1-8.9c1-0.4,1.9-0.8,2.9-1.2C546.6,475.5,548.3,479.6,544,482z"/>
	<path class="st47" d="M557,431c-0.3,0-0.6,0-0.8,0c-0.1-2.9-0.1-5.8-0.2-8.7c0,0,0.1-0.4,0.1-0.4c0.4-0.3,0.8-0.3,1.2,0
		c0.3,0.4,0.2,0.8,0,1.1c0,1.7,0,3.3,0,5c0,0.7-0.1,1.4-0.1,2c0.2,0.2,0.3,0.5,0.2,0.7C557.2,430.9,557.1,431,557,431z"/>
	<path class="st71" d="M791,383c4.3,0,8.7,0,13,0c2,10.1,0.3,20.3,0.9,30.5c0.4,6-0.4,6.5-6.5,6.5c-2.5,0-5,0-7.5,0
		c-2.3-2.9-2.3-6.5-2.5-9.9c-0.3-7.3,0.2-14.6,0.2-21.8C788.7,386.2,789,384.2,791,383z"/>
	<path class="st72" d="M791,383c-1.5,10.5-1.2,21.1-0.5,31.6c0.1,1.8,0.5,3.6,0.5,5.4c-0.3,0-0.7,0-1,0c-4.4,1-8.9,0.3-13.3,0.4
		c-0.6-0.1-1.1-0.5-1.4-1c-0.6-1.2-0.8-2.6-0.7-3.9c0.6-9.7-0.3-19.5,1-29.2c0.2-1.3,0.3-2.6,1.4-3.6
		C781.7,382.5,786.4,382.1,791,383L791,383z"/>
	<path class="st71" d="M776,420c4.7,0,9.3,0,14,0c0,0.3,0,0.7,0,1c-4.7,0-9.3,0-14,0c-0.3-0.2-0.3-0.4-0.3-0.7
		C775.8,420.1,775.9,420,776,420z"/>
	<path class="st73" d="M400,383c2.7,0,5.4,0,8-0.1c2.1-0.7,4.1-0.7,6.2,0c0.7,11.4,0.5,22.9,0.1,34.3c0,1-0.4,2-1,2.8
		c-2.3,1-4.8,0.3-7.2,0.5c-2.7-0.2-5.4,0.5-8.1-0.5c-0.1-9.9-0.1-19.8-0.5-29.7C397.4,387.3,398.6,385.2,400,383z"/>
	<path class="st74" d="M398,420c2.7,0,5.3,0,8,0c0.3,0.2,0.4,0.4,0.3,0.6c-0.1,0.2-0.2,0.3-0.3,0.3c-5.7,0-11.3,0-17,0
		C391.8,419,395,420.4,398,420z"/>
	<path class="st75" d="M660,382.2c15.7,0,31.3,0,47,0c0.1,0.7-0.1,1.2-0.7,1.5c-4.8,1.5-9.6,0.5-14.5,0.7c-4.9,0.1-9.7,0.1-14.6,0
		c-3.9,0.1-7.7,0.1-11.6,0c-1.7,0-3.5,0.1-5.2-0.8C659.9,383.3,659.8,382.8,660,382.2z"/>
	<path class="st76" d="M791,383c-4.7,0-9.3,0-14,0.1c-4.7,2.8-9.8,1.1-14.7,1.4c-4.5-0.2-9.1,0.7-13.6-0.7c-0.6-0.3-0.8-0.8-0.7-1.5
		c14.3,0,28.7,0,43,0C791,382.5,791,382.7,791,383z"/>
	<path class="st77" d="M748,382.2c0,0.2,0,0.5,0,0.7c-0.9,1.1-2.1,1.3-3.4,1.4c-5.2,0.4-10.4,0.1-15.7,0.1
		c-5.9,0.1-11.7,0.1-17.6-0.1c-1.6,0-3.2-0.1-4.3-1.4c0-0.2,0-0.5,0-0.7C720.7,382.2,734.4,382.2,748,382.2z"/>
	<path class="st78" d="M479,382.1c12.7,0,25.3,0,38,0c0,0.6-0.2,1.1-0.8,1.5c-3.1,1.3-6.4,0.7-9.6,0.8c-4.4,0.1-8.9,0.1-13.3,0.1
		c-4.1-0.3-8.2,0.2-12.2-0.3c-0.6-0.1-1.1-0.3-1.6-0.6C478.9,383.2,478.7,382.7,479,382.1z"/>
	<path class="st79" d="M660,382.2c0,0.3,0,0.5,0,0.8c-2.1,2-4.6,1.4-7.1,1.5c-4.6,0.1-9.1,0.1-13.7,0c-4.4,0-8.8,0.1-13.3-0.1
		c-0.9-0.1-1.7-0.3-2.5-0.7c-0.6-0.3-0.7-0.8-0.5-1.5C635.4,382.2,647.7,382.2,660,382.2z"/>
	<path class="st80" d="M414,383c-2,0-4,0-6,0c1-1.2,2.4-1,3.7-1c10.8,0,21.6,0.1,32.3,0.1c0.2,0.7,0,1.2-0.6,1.5
		c-3.2,1.3-6.6,0.7-10,0.8c-4.5-0.2-9,0.3-13.4,0.1C418,384.5,415.7,384.8,414,383z"/>
	<path class="st81" d="M551,382.2c12,0,24,0,36,0c0.2,0.7,0,1.2-0.6,1.5c-3.8,1.4-7.7,0.6-11.5,0.8c-3.3,0.1-6.5,0.1-9.8,0.1
		c-4.4-0.4-8.9,0.8-13.3-0.8C551.3,383.3,551,382.8,551,382.2z"/>
	<path class="st82" d="M587,383c0-0.3,0-0.5,0-0.8c12,0,24,0,36,0c0,0.3,0,0.5,0,0.8c-1.6,1.7-3.7,1.3-5.7,1.4
		c-1.4-0.1-2.8-0.1-4.2-0.1c-0.9,0-1.7,0-2.6,0c-2.9,0.1-5.8,0.1-8.7,0.1c-4.5-0.2-8.9,0.5-13.4-0.4
		C587.9,383.8,587.4,383.5,587,383z"/>
	<path class="st83" d="M444,383c0-0.3,0-0.6,0-0.9c11.7,0,23.3,0,35,0c0,0.3,0,0.6,0,0.9c-4.7,2.9-9.9,1.1-14.8,1.6
		c-5-0.3-9.9,0.2-14.9,0C447.5,384.2,445.4,384.6,444,383z"/>
	<path class="st84" d="M551,382.2c0,0.3,0,0.5,0,0.8c-0.2,0.2-0.4,0.4-0.7,0.6c-5,1.7-10.2,0.6-15.4,0.9c-5.8-0.5-11.6,1-17.3-0.9
		c-0.2-0.2-0.4-0.4-0.7-0.6c0-0.3,0-0.6,0-0.8C528.4,382.1,539.7,382.1,551,382.2z"/>
	<path class="st85" d="M562,482c0.3-2.1,1.9-2,3.4-2c10.3,0.1,20.5-0.9,30.8-1.2c13.6-0.5,27,1.7,40.5,1.2c1.5-0.1,3.1-0.1,3.4,2
		C614,482,588,482,562,482z"/>
	<path class="st86" d="M652.8,483.9c-33.5,0-67.1,0.1-100.6,0.1c-1.1,0-2.4,0.3-3.1-1c32.9,0,65.7,0,98.6,0
		C649.4,483,651.3,482.3,652.8,483.9z"/>
	<path class="st28" d="M814.8,117.2c-1.6,0.2-3.3,3.4-4.8-0.2C811.6,117.1,813.2,117.2,814.8,117.2z"/>
	<path class="st87" d="M822,235c0-3.7,0-7.3,0-11c0-4.7,0-9.3,0-14c0.3-0.4,0.6-0.5,0.9,0c0.1,2.3,0.2,4.6,0.2,7
		c-0.1,10.3-0.2,20.7-0.2,31c-0.3,0.4-0.6,0.4-0.9,0C822,243.7,822,239.3,822,235z"/>
	<path class="st88" d="M822,248c0.3,0,0.6,0,0.9,0c0,11.7,0,23.4,0,35c-0.3,0-0.6,0-0.9,0c0-1.7,0-3.3,0-5c0-4,0-8,0-12
		c0-5,0-10,0-15C822,250,822,249,822,248z"/>
	<path class="st89" d="M822.9,210c-0.3,0-0.6,0-0.9,0c0-2.7,0-5.3,0-8c0-4.7,0-9.3,0-14c0-3.7,0-7.3,0-11c0.3-0.3,0.6-0.3,0.9,0
		C822.9,188,822.9,199,822.9,210z"/>
	<path class="st90" d="M822.9,177c-0.3,0-0.6,0-0.9,0c0,0,0,0,0,0c-1.5-2.3-1.9-4.7,0-7c0-3.7,0-7.3,0-11c0-2.7,0-5.3,0-8
		c0.3-0.5,0.6-0.4,0.9,0c0.1,5.7,0.1,11.3,0.2,17C823,171,823,174,822.9,177z"/>
	<path class="st91" d="M822.9,151c-0.3,0-0.6,0-0.9,0c0-1.7,0-3.3,0-5c0-3,0-6,0-9c0-2.7,0-5.3,0-8c0.1-1.4-0.5-2.9,1-4
		c0.2,0.2,0.3,0.5,0.2,0.8C823.1,134.2,823,142.6,822.9,151z"/>
	<path class="st36" d="M822,170c0,2.3,0,4.7,0,7c-2.5-0.9-4.6,1.1-7,1c-0.6-1.8-0.7-4-3.9-3.4C814.6,172.1,817.8,169.8,822,170z"/>
	<path class="st19" d="M716.5,255.3c-1.8,0.7-2.8,1.5-3.9,1.5c-2.3,0-1.3-2.3-2-3.5c-0.4-0.7-0.7-1.6,0.4-2c0.3-0.1,0.6,0,0.9,0.1
		C711,254.7,714.5,254,716.5,255.3z"/>
	<path class="st19" d="M704.2,258.5c0.8-1.6,1.7-2.4,3-2c0.4,0.1,0.6,0.7,0.9,1.1C707.1,258.2,706,258.7,704.2,258.5z"/>
	<path class="st19" d="M706,253c1.1,0.1,2.5-0.3,2.8,1.3c0.3,1.3-0.7,1.6-1.8,1.7C706.7,255,706.3,254,706,253z"/>
	<path class="st19" d="M716.8,251.7c-0.4,0.2-0.9,0.7-1.5,0.7c-0.6,0-1.2-0.7-0.9-1.4c0.4-0.8,1.1-0.2,1.6-0.1
		C716.3,251,717.1,250.5,716.8,251.7z"/>
	<path class="st19" d="M751.3,243.2c0.3,0.9,0.6,1.4,0.5,1.6c-0.3,0.5-0.8,1-1.3,1.1c-1,0.2-0.4-0.7-0.3-0.8
		C750.4,244.5,750.8,244.1,751.3,243.2z"/>
	<path class="st92" d="M551,471c5,6.8,11.9,2.4,18,3c3.8-0.4,7.6-0.4,11.3-1.1c15.6-3,31-1.2,46.5,0.9c7.5,1,15.1,1.6,22.6,2.5
		c1.2,0.1,1.4-0.4,1.6-1.3c0-1,0-2,0-3l0,0c0.3,0,0.7,0,1,0c0,6.4-0.6,6.8-7.9,6c-17.5-2-35-3.3-52.5-2.9
		c-10.2,0.2-20.5,0.8-30.7,2.1C555.2,477.9,552.5,475.9,551,471z"/>
	<path class="st93" d="M616,444c2.7,0,5.3,0,8,0c1.7,0,3.3,0,5,0c2.4,4.8,7.9,5.4,11.8,8.2c3.7,2.5,3.3,3.8,0.2,5.8
		c-1.7,0.3-3.3,0.7-5,1c-1.8,1.3-4.2-0.3-6,1c-19.3,2.4-38.7,2-58,0c0-0.3,0-0.7,0-1c0.8-0.9,1.9-1.1,3-1.2c1.1,0,2.2,0.1,3.3,0.3
		c3.2,0.9,6.5,0.4,9.7,0.5c14.1-0.2,28.2,1,42.1-1.9c1-0.2,2-0.3,2.9-0.6c0.8-0.3,1.7-0.7,1.8-1.6c0.1-0.9-0.8-1.4-1.6-1.7
		c-2.3-1-4.6-1.8-7-2.7c-2.1-0.9-4.4-1.5-6.6-2.2C617.8,447.3,615.7,446.7,616,444z"/>
	<path class="st61" d="M647,452c-4.5-1.2-8.2-3.4-10-8C643.2,443.1,644.1,448.8,647,452z"/>
	<path class="st92" d="M614,469c4.9-2.2,10-0.4,15-1C624.1,470.2,619,468.4,614,469z"/>
	<path class="st92" d="M641,467c1.8-1.8,4-0.7,6-1C645.2,467.8,643,466.7,641,467z"/>
	<path class="st92" d="M633,467c2,0,4,0,6,0C637,468.5,635,468.5,633,467z"/>
	<path class="st94" d="M557,431c0-0.3,0-0.7,0.1-1c14.5-1.3,29.1-1.5,43.6-1.5c11.1,0,22.5-0.5,33.6,1.4c2.3,0.4,4.6,0.1,7,0.2
		c1.6,0.1,3.5-0.5,3.9,2c-5.2,2.3-10.4,0.3-15.6,0c-19.6-1.2-39.2-1.3-58.8,0.1c-4.5,0.3-9.1,2.2-13.6-0.1
		C557,431.7,557,431.3,557,431z"/>
	<path class="st95" d="M557,432c17.3-2.5,34.8-1.8,52.2-2c12-0.1,23.8,1,35.7,2c0.3,0,0.6,0,0.9,0c0,0.3,0,0.7,0.1,1
		c-5.6,2.3-11.1-0.1-16.6-0.4c-19.2-1.2-38.4-1.3-57.6,0.1c-4.9,0.3-9.7,2-14.7,0.3C557,432.7,557,432.3,557,432z"/>
	<path class="st40" d="M583,469c-4.3-0.6-8.8,1.2-13-1C574.3,468.6,578.8,466.8,583,469z"/>
	<path class="st50" d="M630,460c1.8-1.8,4-0.7,6-1C634.2,460.8,632,459.7,630,460z"/>
	<path class="st96" d="M557,433c20.5-2.4,41.1-2.2,61.7-1.9c9.1,0.2,18.2,1.2,27.2,1.9c0,0.7,0,1.3,0,2c-11-0.8-22-2.4-33-2.3
		c-7.3,0.1-14.6-1.6-22-0.1c-7.6,1.5-15.5-0.1-23.2,1.3c-2.4,0.5-4.9-0.2-7.4,0.8C558.8,435.3,557.3,435.2,557,433z"/>
	<path class="st97" d="M645.8,423.1c-3.9,0-7.8,0-11.8-0.1c-14.7,0-29.3,0-44,0c-0.3-0.7-0.1-1.2,0.5-1.6c8.5-1,17.1-1.9,25.5,0.6
		c8.4,0,16.8,0,25.2,0.1C642.8,422.1,644.6,421.2,645.8,423.1z"/>
	<path class="st98" d="M590,422.1c0,0.3,0,0.6,0,0.9c-11,0-21.9,0-32.9,0c-0.1-0.3-0.1-0.7-0.2-1C568,419.7,579,419.7,590,422.1z"/>
	<path class="st99" d="M651,472c-1.8-0.5-3.6-1.1-5.5-1.7C649.3,468.2,649.8,468.4,651,472C651,472,651,472,651,472z"/>
	<path class="st72" d="M776,420c0,0.3,0,0.7,0,1c-3,0-6,0-9,0c-1.7,0-3.3,0-5,0c-0.1-0.3-0.2-0.6-0.2-0.9c0.3-0.5,0.8-0.9,1.4-1.1
		C767.5,418.6,771.9,417.5,776,420z"/>
	<path class="st100" d="M745,383c1,0,2,0,3-0.1c4.7,0,9.3,0,14,0.1c2.7,4.1,1.5,8.7,1.4,13c-0.1,6.3-0.5,12.5,0,18.8
		c0.1,1.8,0,3.6-1.4,5.1c-4.6,1.4-9.4-0.4-14,1c-6,0-12,0-18,0c-0.3-0.6-0.2-1.1,0.3-1.5c0.5-0.3,1-0.5,1.6-0.7
		c0.3-0.1,0.6-0.1,1-0.2c11.6-0.6,11.6-0.6,11.6-12.1c0-4.5-0.2-9-0.7-13.4C743.4,389.8,742.7,386.2,745,383z"/>
	<path class="st101" d="M748,421c4.5-2.1,9.3-0.5,14-1c0,0.3,0,0.7,0,1C757.3,421,752.7,421,748,421z"/>
	<path class="st102" d="M730,420c0,0.3,0,0.7,0,1c-1.7,0-3.3,0-5,0c-2.7,0-5.3,0-8,0C719.7,417.8,724.8,417.4,730,420z"/>
	<path class="st103" d="M707,383c1.3,0,2.7,0,4,0c4.1,3.8,3,9,2.9,13.6c-0.2,6.3-0.7,12.6,0.1,18.9c0.4,3.6-0.6,5.3-4.6,5
		c-2.8-0.2-5.6-0.6-8.4,0.4c-6,0-12,0-18,0c-2.3,0-4.7,0-7,0c-0.3-0.6-0.2-1,0.2-1.4c0.7-0.5,1.5-0.7,2.3-0.8c3-0.2,6-0.4,8.9-0.1
		c3.6,0.4,4.6-1.2,4.6-4.4c0-2.2,0.2-4.3-0.5-6.4c-1-3.2-1.3-6.5-0.7-9.8c0.6-3.6,0.8-7.2,0.1-10.8c-0.3-1.5-0.1-3,1-4.2
		C697,383,702,383,707,383z"/>
	<path class="st61" d="M701,421c2.7-2,5.8-0.8,8.7-0.9c2.6-0.2,3.5-0.9,3-3.6c-1.2-6.7-0.6-13.5-0.2-20.3c0.2-4.2,0.2-8.9-1.5-13.1
		c6,0,12,0,18,0c2.8,1.6,2.6,4.5,2.9,7c0.9,9.4-1.3,18.8,0,28.2c0.1,0.6-0.5,1.2-0.9,1.7c-0.3,0-0.7,0-1,0c-4.3,0.6-8.8-1.2-13,1
		C711.7,421,706.3,421,701,421z"/>
	<path class="st104" d="M676,420c0,0.3,0,0.7,0,1c-2.3,0-4.7,0-7,0c-4.7,0-9.3,0-14,0c-13,0-26,0-39,0c-3,0.8-6,0.6-9,0.1
		c0.5-3.3,3.2-2.1,5.1-2.6c4-0.1,8-0.1,12,0c5-0.1,9.9-0.1,14.9,0c4.7-0.1,9.3-0.1,14,0c4-0.1,8.1-0.1,12.1,0
		C668.7,418.7,672.6,417.5,676,420z"/>
	<path class="st105" d="M607,421c3,0,6,0,9,0c0,0.3,0,0.6,0.1,0.9c-8.7,0-17.4,0.1-26.1,0.1c-11,0-22,0-33-0.1c-0.3,0-0.7,0-1-0.1
		c0-0.3,0-0.6,0-0.8c0.2-0.2,0.5-0.4,0.7-0.7c1.4-0.8,2.9-0.8,4.4-0.8c14.5,0,28.9-0.2,43.4,0.1C605.5,419.8,606.4,420.2,607,421z"
		/>
	<path class="st106" d="M616,444c2.2,4,7.2,2.3,10,5c-1.8,1.8-4.1,1.6-6.1,1.2c-14.1-2.9-28.1-1.3-42.1,0.4
		c-3.4,0.4-6.3,2.6-9.5,3.7c0.9,3.9,6.2,0.9,6.7,4.8c-1,0-2,0-3,0c-1.5-0.1-3.1,0.1-4.4-0.4c-2.9-0.9-7.7-0.7-7.6-4.1
		c0-3.1,4.7-4.4,7.7-5.3c3.7-1,7.3-1.7,10.3-4.4c1.3-1.2,3.2-0.8,4.8-0.8C593.8,444,604.9,444,616,444z"/>
	<path class="st107" d="M568.4,469.8c-4.2,1.9-8.5,3-13,1.8c-1.1-0.3-3-0.6-2.6-2.4c0.3-1.4,1.8-1.4,2.9-1.2
		C559.9,468.7,564.1,469.2,568.4,469.8z"/>
	<path class="st108" d="M452,421c-3.3,0-6.7,0-10-0.1c-0.3-0.6-0.2-1.1,0.4-1.5c0.5-0.3,1.1-0.5,1.6-0.7c4.7-0.5,9.5-0.2,14.2-0.2
		c4.9-0.1,9.7-0.1,14.6,0c4.3,0.2,8.6-0.8,12.7,0.8c0.6,0.4,0.8,0.9,0.5,1.6C474.7,421,463.3,421,452,421z"/>
	<path class="st109" d="M486,421c0-0.3,0-0.6,0-1c1.2-1.3,2.7-1.3,4.3-1.4c4.5-0.2,9.1-0.1,13.7,0c3.3-0.1,6.7-0.1,10,0
		c4.9,0.2,9.8-0.8,14.6,0.8c0.6,0.4,0.8,0.9,0.5,1.6c-4,0-8,0.1-12,0.1C506.7,421,496.3,421,486,421z"/>
	<path class="st110" d="M442,420c0,0.3,0,0.6,0,1c-12,0-24,0-36,0c0-0.3,0-0.6,0-1c2.3,0,4.7,0,7,0c4.8-2.9,10-1.1,15-1.5
		C432.7,418.9,437.6,417.2,442,420z"/>
	<path class="st111" d="M529,421c0-0.3,0-0.6,0-1c0.4-0.5,0.9-0.8,1.5-1c6-0.9,12-0.4,18-0.4c2.4,0.1,4.8-0.3,7,0.9
		c0.6,0.4,0.7,0.9,0.4,1.5c0,0,0,0.1,0,0.1C547,421,538,421,529,421z"/>
	<path class="st101" d="M762,420c-1-12.3,0.2-24.6,0-37c5,0,10,0,15,0c-0.3,12.3-0.7,24.6-1,37C771.3,420,766.7,420,762,420z"/>
	<path class="st74" d="M428,420c-5,0-10,0-15,0c0-10.4,0-20.8,0-31.2c0-2-0.1-4,1-5.8c6.7,0,13.3,0,20,0c0,0.2,0.1,0.5,0,0.5
		c-6.1,2.5-5.1,8.2-5.6,13.1c-0.6,6.3,1.1,12.5,0.7,18.7C429,417,429.3,418.7,428,420z"/>
	<path class="st104" d="M692,383c2.7,9-2.3,18.5,1.8,27.5c1.1,2.5-1.3,5.3-0.7,8.3c0.4,1.7-1.7,1.1-2.6,1.1c-4.2,0.1-8.3,0-12.5,0
		c-1.7-1.3-2.3-3.2-2.4-5.2c-0.4-9.7,0.8-19.4,0.3-29.1c-0.1-1,0.5-1.9,1.1-2.7C682,383,687,383,692,383z"/>
	<path class="st112" d="M665,420c-4,0-8,0-12,0c-0.5-0.7-1.1-1.3-1.1-2.2c-0.6-10.9-1.5-21.8,0-32.6c0.1-0.8,0.6-1.5,1.1-2.2
		c2.3,0,4.7,0,7-0.1c1.7,0,3.3,0,5,0.1c1.3,1.1,2.4,2.6,2,4.3c-2.3,9.9,1.1,20-0.9,30C666,418.3,665.7,419.2,665,420z"/>
	<path class="st4" d="M665,420c0.2-6.8,2-14.1,0.2-20.4c-1.7-5.9,3-11.2-0.2-16.6c4,0,8,0,12,0c0.9,9.6,0,19.1,0,28.7
		c0,2.8,0.2,5.6,1,8.3c-0.7,0-1.3,0-2,0C672.3,420,668.7,420,665,420z"/>
	<path class="st102" d="M731,420c-2-9.1-0.2-18.2-0.2-27.4c0-3.2-0.3-6.6-1.8-9.6c5.3,0,10.7,0,16,0c0.6,10.8,1.1,21.7,1.7,32.5
		c0.2,2.8-0.8,4.5-3.8,4.4C738.9,420,735,420,731,420z"/>
	<path class="st113" d="M490,420c-1.3,0-2.7,0-4,0c-4.3,0-8.7,0-13,0c-1.7-4.9-1.7-10.1-1.5-15c0.3-4.7,0.7-9.5,1.3-14.2
		c0.7-6.6,0.9-6.6,7.2-7.8c4.3,0,8.7,0,13,0c-1.5,10.3-0.9,20.7-1,31.1C492,416.4,491.7,418.4,490,420z"/>
	<path class="st114" d="M480,383c-5.8,0.8-6.1,5.6-6.3,9.7c-0.6,9.1-0.5,18.2-0.7,27.3c-5,0-10,0-15,0c-0.8-0.9-1.3-2-1.2-3.2
		c1.3-9.5-0.5-19.1,0.1-28.6c0.3-4.8,4-4.4,7-5.2c5,0,10,0,15-0.1C479.3,383,479.7,383,480,383z"/>
	<path class="st108" d="M490,420c1-4.3-0.4-8.8,0.4-12.9c1.3-7.2-0.7-14.3,0.6-21.4c0.3-1.3,1.4-1.8,2-2.7c4.7,0,9.3,0,14,0
		c-3.3,10.8-0.5,21.9-1.9,32.8c-0.2,1.5,0,3-1.1,4.2C499.3,420,494.7,420,490,420z"/>
	<path class="st115" d="M504,420c-0.5-5.4,0.3-10.7,0.4-16c0.1-3.8-0.2-8-0.5-12c-0.3-3.5,0.6-6.5,3-9c3.3,0,6.7,0,10-0.1
		c0,0,0,0,0,0c-1.4,9.8-0.1,19.8-0.8,29.6c-0.2,2.7-0.1,5.3-2.2,7.4C510.7,420,507.3,420,504,420z"/>
	<path class="st116" d="M639,420c-5,0-10,0-15,0c-0.9-1-1.5-2.3-1.3-3.6c1-8.3-0.9-16.6,0-24.8c0.3-2.9,0.3-6,2.3-8.5
		c4.7,0,9.3,0,14,0c1.1,1.4,1.2,3.1,1.2,4.7c0.5,9.4-0.1,18.7-0.1,28.1C640.2,417.3,640.1,418.8,639,420z"/>
	<path class="st117" d="M639,420c0-12.3,0-24.6,0-37c4.7,0,9.3,0,14,0c-0.9,12.3,0.1,24.6,0,37C648.3,420,643.7,420,639,420z"/>
	<path class="st118" d="M625,383c-2.2,12.3,0,24.7-1,37c-4,0-8,0-12,0c-1.9-1-1.3-2.6-1.2-4.3c0.7-9.3,2.3-18.7-1.3-27.9
		c-0.8-1.9,0-3.5,1.5-4.8c0.7,0,1.3,0,2,0c1.3,1.4,2.7,1,4,0c2,0,4,0,6-0.1C623.7,383,624.3,383,625,383z"/>
	<path class="st119" d="M428,420c-0.4-10.9-1.5-21.8-0.7-32.8c0.1-1.8,0.9-3.1,3-3.2c1.3-0.1,2.7,0.3,3.7-1c3.3,0,6.7,0,10-0.1
		c1.7,0,3.3,0,5,0c0,0.2,0.1,0.5,0,0.5c-6.2,2.6-5.2,7.8-4.9,12.9c0.5,7.3-1.1,14.6-0.3,21.9c0.1,0.7-0.4,1.2-0.9,1.7
		c-0.3,0-0.7,0-1,0C437.3,420,432.7,420,428,420z"/>
	<path class="st120" d="M587,383c0.3,0,0.7,0,1,0.1c4,7.7,5.2,15.4,1.1,23.6c-1.3,2.5-0.6,5.5-0.5,8.3c0.1,1.9,1,4-1,5.5
		c-4.9,0-9.7,0.3-14.6-0.1c-2.8-4.3-1.5-9-1.3-13.5c0.2-4.1,0.5-8.2,0-12.4c-0.5-4.1-0.5-8.4,3.3-11.4C579,383,583,383,587,383z"/>
	<path class="st121" d="M556,420c-2.3,0-4.7,0-7,0c-2.1-2.1-2.3-4.6-1.9-7.4c0.7-4.5,0.8-9-0.5-13.3c-1.4-4.6,0.7-8.8,1.4-13.1
		c0.3-1.6,1.8-2.2,2.9-3.2c0,0,0-0.1,0-0.1c4.7,0,9.3,0,14,0.1c-1.8,9.4,0.2,18.7,0.1,28.1c0,3.6-0.5,6.8-3.4,9.3
		C559.8,420.3,557.8,420.9,556,420z"/>
	<path class="st122" d="M562,420c2.5-10.6,2.2-21.2-0.2-31.9c-0.5-2.4,3-2.9,3.1-5.1c3.3,0,6.7,0,10,0c-2.2,5.1-1.7,10.3-1.3,15.8
		c0.4,7-1,14.1-0.7,21.1C569.3,420.8,565.7,420.8,562,420z"/>
	<path class="st123" d="M611,383c-0.8,2.4-0.7,4.3,0.9,6.8c1.5,2.3,1.1,5.9,1.1,9c-0.1,6.5,0.9,13.1-1.6,19.4
		c-0.2,0.5,0.4,1.2,0.7,1.8c-1.7,0.2-3.6-0.7-5,1c-0.7,0-1.3,0-2,0c-2.2-1.2-4.6-0.1-6.8-0.7c-1.2-7.9-0.8-15.8-1.1-23.7
		c-0.1-1.5,0.2-3-0.2-4.5c-1.3-4.7,0.4-7.7,5-9.1C605,383,608,383,611,383z"/>
	<path class="st124" d="M602,383c-7.2,3.8-3,10.4-3.4,15.7c-0.5,6.3,0.5,12.8,0.7,19.2c0,0.7-0.8,1.4-1.3,2.1c-3.3,0.8-6.7,0.8-10,0
		c-0.6-3.4-1.3-6.8-1-10.4c0.2-2.1,0.8-3.9,1.8-5.9c2.3-4.8,1.9-10.2,0.1-15.3c-0.7-1.8-2.3-3.3-0.9-5.4
		C592.7,383,597.3,383,602,383z"/>
	<path class="st123" d="M617,383c-1.3,1.7-2.7,3.7-4,0C614.3,383,615.7,383,617,383z"/>
	<path class="st110" d="M443,420c-2.3-10.2,1.4-20.5-0.8-30.8c-1-4.8,3.9-4.7,6.8-6.1c5,0,10,0,15,0c-5,1.2-5.3,4.1-5.5,9.2
		c-0.4,9.3,1.6,18.6-0.5,27.8C453,420,448,420,443,420z"/>
	<path class="st125" d="M551,383c-2.4,5.8-4.6,11.6-2.5,18c1.1,3.2,1,6.7,0.3,9.8c-0.7,3.2-0.2,6.1,0.2,9.2c-6.3,0-12.7,0-19,0
		c-1.3-1.1-2.3-2.5-2.2-4.3c0.3-8.1-0.6-16.3,0.2-24.4c0.4-4.4,2.2-7.6,7-8.3C540.3,383,545.7,383,551,383z"/>
	<path class="st126" d="M535,383c-6.5,3.1-6.5,9.2-5.8,14.9c0.8,7.4-1.5,14.8,0.9,22.1c-0.3,0-0.7,0-1,0c-5,0-10,0-15,0
		c1.2-10.3,1.5-20.6,0.5-30.9c-0.3-2.6,0.8-4.4,2.5-6.1C523,383,529,383,535,383z"/>
	<path class="st127" d="M575,459c-1.8-2-4.4-0.6-6.6-1.6c-1.6-0.8-3.1-1.5-3-3.4c0.2-2,2.1-1.5,3.4-2c11.2-4,22.8-4.7,34.5-4.8
		c7.6-0.1,15.1,2,22.7,1.9c3.6,0.1,6.5,2.5,9.9,3.1c1,0.2,1.8,0.9,1.9,2c0.2,1.5-1.1,1.9-2,2.5c-3.4,1.9-7.3,1.8-11,2.3
		c-12.2,1.9-24.5,0.8-36.7,1.1c-0.3-0.5-0.2-1,0.2-1.4c2.1-1.3,4.5-0.9,6.8-0.9c8.6-0.1,17.3,0.5,25.8-1.2c1.9-0.4,3.9-0.4,5.7-1.7
		c-13.1-5.9-43.1-5.7-52.6,0.3c2.7,1.6,5.5,1.3,8.3,1.7c1.5,0.2,3.9-0.3,3.5,2.6c-2.6,0.1-5.2,0.6-7.8-0.3C577,459,576,459,575,459z
		"/>
	<path class="st106" d="M578,459c2.7,0,5.3,0,8,0c0.7-0.6,1.3-0.5,2,0c0,0.3,0,0.7,0,1C584.7,459.5,581.2,461,578,459z"/>
	<path class="st128" d="M588,420c3.3,0,6.7,0,10,0c2.3,0.4,4.9-0.9,7,1c-16.3,0-32.7,0-49-0.1c0-0.3,0-0.6,0-0.9c2,0,4,0,6,0
		c3.7,0,7.3,0,11,0C578,420,583,420,588,420z"/>
	<path class="st129" d="M588,459c-0.7,0-1.3,0-2,0c-3.8-2.2-8.2-0.2-12-1.9c-1.1-0.5-2.7-0.1-2.8-2c-0.1-1.9,1.4-2.2,2.6-2.4
		c11.3-2.4,22.4-4.9,34.2-3.1c5.8,0.9,11.7,2,17.6,2.6c1.4,0.1,3.9,0.1,4,2.1c0.1,2.2-1.9,2.4-3.9,2.8
		C613.2,459.8,600.6,458.8,588,459z"/>
	<path class="st130" d="M598.5,457.7c-5.2,2.1-10.3-2.2-15.7-0.9c-0.9,0.2-1.7-0.4-1.6-1.4c0.2-1.8,1.3-3,3.2-3.2
		c3.9-0.4,7.8-0.5,11.8-0.8c6.9-0.7,13.7,2.1,20.7,0.7c1.7-0.4,3.4,0.7,3.4,2.7c0,1.8-1.6,2.3-3.3,2.2
		C610.9,456.4,604.9,459,598.5,457.7z"/>
</g>
</svg>
