<svg xmlns="http://www.w3.org/2000/svg" viewBox="0 0 192.8 112.2" width="192" height="112"><path d="M177.1 56.7l-.1 2.4-.2 2.4-.3 2.4-.4 2.3-.5 2.3-.6 2.2-.8 2.2-.8 2.1-1 2.1-1 2.1-1.2 2-1.2 1.9-1.3 1.8-1.4 1.8-1.5 1.7-1.6 1.7-1.6 1.6-1.7 1.5-1.8 1.4-1.8 1.3-1.9 1.2-2 1.2-2 1-2.1 1-2.2.9-2.2.8-2.3.6-2.3.5-2.3.4-2.4.3-2.4.2-2.4.1-2.4-.1-2.4-.2-2.4-.3-2.3-.4-2.3-.5-2.2-.6-2.2-.8-2.2-.9-2.1-1-2-1-2-1.2-1.9-1.2-1.8-1.3-1.8-1.4-1.7-1.5-1.6-1.6-.7-.7-.2-.2-.7-.7-1.5-1.7L92 85l-.9-1.3-.1-.1-.3-.5-1.2-1.9-1.1-2-.6-1.2-.1-.2-.7-.5-1-2.1-.8-2.1-.7-2.2-.6-2.2-.5-2.3-.5-2.4-.3-2.4V61H82l-.2-2.6h.5v-1.7l.1-2.4.2-2.4.2-1.4.1-.3.1-.6.4-2.3.5-2.3.6-2.2.7-2.2.8-2.1 1-2.1 1-2 1.1-2 1.2-1.9 1.3-1.9.7-.8.1-.1.6-.8 1.5-1.7 1.6-1.6 1.6-1.6 1.7-1.5 1.8-1.4 1.8-1.3 1.9-1.2 2-1.1 2-1 2.1-1 2.2-.8 2.2-.8 2.2-.6 2.3-.5 2.3-.4 2.4-.3 2.4-.2 2.4-.1 2.4.1 2.4.2 2.4.3 2.3.4 2.3.5 2.3.6 2.2.8 2.2.8 2.1 1 2 1 2 1.1 1.9 1.2 1.8 1.3 1.8 1.4 1.7 1.5 1.6 1.6 1.6 1.6 1.5 1.7 1.4 1.8 1.3 1.9 1.2 1.9 1.2 2 1 2 1 2.1.8 2.1.8 2.2.6 2.2.5 2.3.4 2.3.3 2.4.2 2.4.5 2.2zm-4.4 28.7v.4l-.1.1-.1.1h-.3l.5.8h-.3l-.5-.8h-.4v.8h-.5V85h1.4l.1.1.1.1.1.1v.1zm-.3.1v-.3h-1v.6h.8l.1-.1.1-.2zm1.6 0l.1.3v.1l-.1.5-.1.4-.2.4-.3.3-.3.3-.4.2-.4.1-.4.1-.5-.1-.4-.1-.4-.2-.3-.3-.3-.3-.2-.4-.1-.4v-1l.1-.4.2-.4.3-.3.3-.2.4-.2.4-.1.5-.1.4.1.4.1.4.2.3.2.3.3.2.4.1.5zm-.4 0l-.1-.4-.2-.3-.2-.3-.2-.2-.3-.2-.3-.1h-.8l-.4.1-.3.2-.2.2-.2.3-.2.3-.1.3v.8l.1.3.2.3.2.3.2.2.3.2.4.1h.8l.3-.1.3-.2.2-.2.2-.3.2-.3.1-.3v-.7z" fill="#fab41e"/><path d="M95.5 89.5L93.2 87h9.5l1.4-1.8.9-1.3H90.8l-1.6-2.6h17.6l1.1-1.9.6-1.2h-21l-1.2-2.6h23.5l.2-.4.8-2.1.2-.6H85l-.8-2.6h27.5l.4-1.2.4-1.9H104l.5-2.6h8.5V64l.3-2.4V61H105l.5-2.6h8v-1.7l-.1-2.4-.2-2.4-.2-1.4H82.8l.5-2.6h29.4l-.1-.7-.5-2.3v-.2H83.9l.8-2.6h26.5l-.6-1.7-.6-1.5H85.8l1.1-2.6h22l-.1-.2-1-2-.5-.9H88.6l1.5-2.6h15.6l-.3-.5-1.3-1.9-.7-.8h-11l2.2-2.6h6.8l-.1-.1-1.6-1.6-1.6-1.6-1.7-1.5-1.8-1.4-1.8-1.3-1.9-1.2-2-1.1-2-1-2.1-1-2.2-.8-2.2-.8-2.3-.4-2.3-.5-2.3-.5-2.4-.3-2.4-.2-2.4-.1-2.4.1-2.4.2-2.4.3-2.3.4-2.4.6-2.3.6-2.1.8-2.2.8-2.1 1-2.1 1-2 1.1-1.9 1.2-1.9 1.3-1.8 1.4-1.7 1.5-1.6 1.6-1.5 1.7-1.5 1.7-1.4 1.8-1.3 1.8-1.2 1.9-1.1 2-1 2-1 2.1-.8 2.1-.9 2.3-.6 2.2-.5 2.3-.4 2.3-.3 2.4-.2 2.4-.1 2.4.1 2.4.2 2.4.3 2.4.4 2.3.5 2.3.6 2.2.8 2.2.8 2.1 1 2.1 1 2.1 1.1 2 1.2 1.9 1.3 1.8 1.4 1.8 1.5 1.7 1.6 1.7 1.6 1.6 1.7 1.5 1.8 1.4 1.9 1.3 1.9 1.2 2 1.2 2.1 1 2.1 1 2.2.9 2.2.8 2.3.6 2.3.5 2.3.4 2.4.3 2.4.2 2.4.1 2.4-.1 2.4-.2 2.4-.3 2.3-.4 2.3-.5 2.3-.6 2.2-.8 2.2-.9 2.1-1 2-1 2-1.2 1.9-1.2 1.8-1.3 1.8-1.4 1.7-1.5 1.6-1.6.7-.7h-4.9zM82 61l-.2-2.6h3.5V61H82z" fill="#e40520"/><path d="M84.2 65l-.5 3-.1.1-.1.1-.1.1-.1.1-.1.1h-3.9l-.6-.1-.5-.1-.4-.1-.4-.2-.4.1-.3-.2-.2-.2-.2-.2-.1-.3-.1-.3-.1-.3v-1.5l3-17.4h4.4l-.4 3.9h2.7l-.6 3.6-2.8-.1-1.5 8.9v.3l.1.3.2.2.2.2.3.1.3.1.4.1h1.3l.2-.1.2-.1.2-.1zm89.9 1.6l-.1.5-.1.4-.2.4-.3.3-.3.3-.4.2-.4.1h-.9l-.4-.1-.4-.2-.3-.3-.3-.3-.2-.4-.1-.4v-1l.1-.4.2-.4.3-.3.3-.3.4-.2.4-.1.5-.1.4.1.4.1.4.2.3.3.3.3.2.4.1.4.1.5zm-.5 0v-.4l-.1-.3-.2-.3-.2-.3-.2-.2-.3-.2-.3-.1h-.8l-.4.1-.3.2-.2.2-.2.3-.2.3-.1.3v.8l.1.4.2.3.2.3.2.2.3.2.4.1h.8l.3-.1.3-.2.2-.2.2-.3.2-.3.1-.4v-.4zM69.1 56.2l.1-.2.1-.2.1-.1.2-.2.2-.1.2-.1.2-.1.3-.1h.3l.3-.1h4.3l.8-3.6h-5.8l-.9.1-.8.1H68l-.6.2-.6.2-.5.2-.5.3-.4.3-.3.4-.3.4-.2.5-.2.5-.2.6-.1.6-.1.7v1l.1.9.3.7.4.6.5.5.6.4.6.3.6.3.6.3.6.2.7.3.5.2.4.3.3.3.1.4v.5l-.1.2-.1.2-.1.3-.2.2-.2.2-.3.2-.4.1-.5.1h-2.8l-.4-.1-.3-.1-.4-.1-.4-.1-.3-.1-.3-.1-.3-.1-.2-.1h-.3l-.7 3.7.3.1.2.1.3.1.3.1.3.1h.3l.3.1h5.8l.5-.1.6-.1.5-.2.5-.2.5-.2.5-.3.4-.3.4-.4.4-.5.3-.5.3-.6.2-.7.1-.8.1-1-.1-.9v-.7l-.2-.6-.3-.5-.4-.4-.4-.3-.5-.3-.5-.2-.5-.2-.5-.2-.5-.2-.5-.2-.6-.1-.4-.2-.3-.3-.2-.2-.1-.3-.1-.2v-.4l.1-.2zm-6.2.5l-1.6 8.4-.6 3.5h-4l.1-.7.1-.6.1-.4.1-.2-.4.3-.2.3-.3.2-.3.2-.4.3-.4.2-.4.2-.4.2-.5.1-.5.1-.5.1-.5.1h-1.4l-.4-.1-.5-.2-.5-.2-.5-.1-.4-.2-.3-.3-.3-.3-.2-.3-.3-.3-.2-.3-.2-.3-.1-.5-.1-.4-.1-.4v-1.7l.1-.6.2-.6.2-.5.3-.5.3-.5.3-.4.4-.4.4-.4.5-.3.5-.3.5-.2.5-.2.5-.2.6-.2.5-.1h5.5v-.1l.1-.3.1-.3V57l-.1-.3-.2-.6-.2-.3-.2-.2-.3-.2-.3-.1-.4-.1h-3.9l-.5.1-.5.1-.5.1-.4.1-.4.1H50l-.3.1-.2.1-.2.1 1.1-3.8.3-.1.3-.1.4-.1.4-.1.4-.1.4-.1.4-.1h5.2l.5.1.5.1.5.1.3.2.5.2.5.3.5.3.4.4.4.4.3.4.2.5.2.5.1.5v.6l-.2.6zM57.5 61l-.1-.2h-3.2l-.2.3-.2.1-.2.1-.2.1-.2.1-.2.2-.2.2-.3.1-.2.2-.2.2-.1.2-.1.2-.1.2v.8l.1.4.2.3.2.2.2.2.3.1h1.4l.4-.1.4-.1.3-.1.3-.2.3-.1.2-.2.2-.1.2-.2.2-.2.1-.2.1-.2.1-.2.1-.2v-.2l.1-.5.1-.5.1-.5.1-.2zm53.7-7.7l.1-.3.2-.3.2-.3.2-.3.1-.2.1-.2.1-.1h-1.6l-.4.1-.4.1-.4.1-.4.1-.3.2-.3.2-.3.2-.2.2-.2.2-.2.3-.2.3-.2.3-.2.3-.2.3.6-2.9h-4.6l-3 17.1h4.6l1.5-9.1.1-.3.1-.3.1-.3.1-.3-.2-.4.2-.3.2-.3.2-.3.2-.2.3-.2.4-.2.4-.2.4-.1.5-.1.5-.1h1.1v-.3l.1-.3.1-.4.1-.4.1-.4.2-.5.2-.4zM98.5 64.2l.5-.3-.6 3.9-.2.1-.3.1-.2.1-.2.1-.2.1-.3.1-.2.1h-4.2l-.8-.1-.8-.1h-1l-.8-.2-.8-.3-.7-.4-.7-.5-.6-.5-.5-.6-.5-.8-.4-.9-.3-1-.2-1.1-.1-1.2.1-1.3.1-.5.1-.6.1-.6.2-.7.2-.7.3-.7.4-.7.4-.7.5-.6.6-.6.7-.5.8-.5.9-.4 1-.3 1.1-.2 1.3-.1h.6l.7.1.7.1.6.2.6.2.6.3.6.4.5.4.5.5.4.6.3.7.2.8.1 1v1.1l.3 1.5-.2 1.3-.1 1H89.2v.8l.1.3.1.3.1.3.2.3.2.3.2.3.2.2.2.2.3.2.3.2.3.2.3.1.3.1.4.1h2.8l.4-.1.4-.1.5-.1.4-.1.5-.2.5-.2.6-.2zm-8.7-6h5.8V57l-.1-.3-.1-.3-.1-.3-.2-.2-.1-.2-.2-.2-.2-.1-.2-.2-.2-.1-.3-.1-.2-.1h-1.2l-.3.1h-.3l-.3.1-.2.1-.2.2-.2.3-.2.2-.2.2-.2.3-.1.3-.2.3-.1.3-.1.3-.1.3v.3zm62.8-2.7h.3l.7-4.1h-.9l-.4.1-.4.1-.4.1-.3.2-.3.2-.3.2-.3.2-.3.2-.2.3-.3.2-.2.3-.2.3-.2.3-.2.3.5-2.9h-4.5l-3 17.1h4.5l1.6-9.1.1-.3.1-.4.1-.3.1-.3.2-.4.2-.3.2-.3.3-.3.3-.3.3-.3.4-.2.4-.2.5-.2.5-.1.6-.1h.5zm-10.3 1.3l-1.7 8.4-.7 3.5v.1h-4.2v-1.7l-.2.2-.3.2-.3.2-.3.2-.4.2-.4.2-.4.2-.5.1-.4.1-.4.1-.5.1h-1.3l-.4-.1-.6-.1-.5-.2-.5-.2-.4-.2-.4-.3-.3-.3-.2-.3-.2-.3-.2-.3-.1-.4-.1-.4-.1-.3-.1-.4V64l.1-.6.1-.6.1-.6.2-.5.2-.5.3-.5.3-.5.4-.4.4-.4.4-.3.5-.3.5-.3.5-.2.5-.2.5-.1.6-.1h5.5V57l-.1-.3-.1-.3-.2-.3-.2-.2-.3-.2-.3-.1-.3-.1h-3.3l-.5.1-.5.1-.5.1-.5.1-.4.1-.4.1-.4.1-.3.1-.2.1-.2.1-.2-.1 1.1-3.8v-.1l.4-.2.4-.1.4-.1.4-.1.4-.1.4-.1.4-.1h4.9l.5.1.5.1.5.1.5.2.5.2.5.3.5.3.4.3.4.4.3.4.3.5.2.5.1.5v.6l-.1.6zm-5.6 4.2l-.1-.2h-3.3l-.2.1-.2.1-.2.1-.2.1-.2.1-.2.1-.2.2-.2.2-.2.2-.1.2-.1.2-.1.3v.8l.1.4.1.3.2.2.2.2.3.1h1.6l.4-.1.4-.1.4-.1.3-.1.3-.2.2-.2.2-.2.2-.2.2-.2.2-.2.1-.2.1-.2.1-.2v-.2l.1-.5.1-.5.1-.5-.4.2zM40.5 47.7l-5.2 12.4-.7-12.4H27l-3.6 21h4.3L30.3 53h.3v.8l.1 1.8.2 2.5.1 2.9.2 2.8.1 2.5.1 1.7v.7h4.9L42.9 53h.2l-2.7 15.7h4.3l3.7-21h-7.9zM172.7 66v.4l-.1.1-.1.1h-.3l.5.8h-.3l-.5-.8h-.4v.8h-.5v-2h1.3l.1.1.1.1.1.1.1.1v.2zm-.3.1v-.2h-1v.6h.9v-.4zm-46-14l.2.1.2.1.2.1.2.1.8-4.4h-.1l-.2-.1-.2-.1-.2-.1-.3-.1-.3-.1-.3-.1-.4-.1-.4-.1-.4-.1-.4-.1-.5-.1-.5-.1h-2.7l-.6.1-.5.1-.5.1-.5.1-.5.1-.5.2-.5.2-.4.2-.4.2-.4.2-.4.3-.4.3-.4.3-.4.3-.3.3-.3.3-.3.4-.3.4-.3.4-.3.4-.2.5-.2.5-.2.5-.2.5-.2.6-.2.6-.2.6-.2.6-.1.6-.1.7-.2 1.3V60l.1 1.1.2 1.1.3 1 .4.9.5.8.5.7.6.6.6.6.7.5.7.4.7.3.7.2.7.2.7.1h3l.6-.1.5-.1.4-.1.4-.1.3-.1.3-.1.2-.1.2-.1.1-.1.1-.1.1-.1.1-.1.7-4.3-.3.3-.3.2-.4.2-.4.2-.4.1-.4.1-.4.1h-2.8l-.2-.1-.6-.1-.5-.2-.5-.2-.4-.3-.4-.3-.3-.4-.3-.4-.2-.4-.2-.5-.1-.5-.1-.5v-1.6l.1-.6.1-.6.3-1 .3-.9.3-.8.3-.7.4-.6.4-.5.4-.4.4-.3.5-.3.4-.2.5-.2.4-.1.4-.1h3.1l.3.1.3.1.3.1.3.1.3.1.3.1.2.1zm43.8-4.3l-3.6 20.9h-4.4l.3-1.8v-.1l-.3.3-.3.3-.3.3-.3.2-.3.2-.3.2-.3.2-.3.1-.3.1-.3.1-.3.1-.3.1h-1.2l-.8-.1-.8-.2-.7-.3-.6-.4-.6-.5-.5-.5-.5-.6-.4-.7-.3-.7-.2-.8-.2-.8-.1-.8-.1-.8V61l.1-.8.1-.8.2-.9.3-.9.3-.8.4-.8.4-.7.5-.6.5-.6.5-.5.6-.5.6-.4.6-.4.6-.3.6-.2.6-.1.6-.1h1.7l.4.1.4.1.4.1.3.1.3.2.3.2.2.2.2.2.2.2.2.2.2.2.1.2.1.2.1.2 1.1-6.3h4.6zM163.7 59v-.5l-.1-.4-.1-.4-.1-.4-.1-.4-.2-.3-.2-.3-.2-.2-.2-.2-.3-.2-.3-.1-.3-.1h-.7l-.4.1-.4.1-.4.2-.3.2-.3.3-.3.3-.3.3-.2.4-.2.4-.2.4-.2.4-.2.4-.1.4-.1.5-.1.5-.1.7v.8l.1.8.2.8.3.7.4.5.5.4.6.1h.4l.4-.1.4-.1.4-.2.3-.2.3-.2.3-.3.3-.3.2-.3.2-.3.2-.4.2-.4.2-.4.1-.4.1-.4.1-.4.1-.5V59z" fill="#fff"/></svg>