<svg version="1.1" id="Layer_1" xmlns="http://www.w3.org/2000/svg" x="0" y="0" viewBox="0 0 287.6 167.4" xml:space="preserve" width="287" height="167"><style>.st1{fill:#e40520}.st2{fill:#0080c3}.st3{fill:#fff}.st4{fill:none;stroke:#fff;stroke-width:.21}</style><path class="st1" d="M196.2 161.6l4-.1 4-.3 3.9-.5 3.8-.7 3.8-.9 3.7-1 3.6-1.3 3.6-1.4 3.4-1.5 3.4-1.8 3.3-1.8 3.1-2.1 3.1-2.2 2.9-2.3 2.9-2.4 2.7-2.6 2.6-2.7 2.4-2.9 2.4-2.9 2.1-3.1 2.1-3.1 1.8-3.3 1.8-3.4 1.5-3.4 1.4-3.6 1.2-3.6 1.1-3.7.9-3.8.7-3.9.4-3.8.3-4 .1-4-.1-4-.3-4-.4-3.9-.7-3.8-.9-3.7-1.1-3.7-1.2-3.6-1.4-3.6-1.5-3.4-1.8-3.4-1.8-3.2-2.1-3.2-2.1-3-2.4-3-2.4-2.8-2.6-2.7-2.7-2.6-2.9-2.4-2.9-2.3-3.1-2.2-3.1-2-3.3-1.9-3.4-1.8-3.4-1.5-3.6-1.4-3.6-1.2-3.7-1.1-3.8-.9-3.8-.6-3.9-.5-4-.3-4-.1-4.1.1-3.9.3-3.9.5-3.9.6-3.8.9-3.6 1.1-3.7 1.2-3.5 1.4-3.5 1.5-3.3 1.8-3.3 1.9-3.2 2-3 2.2-2.9 2.3-2.9 2.4-2.7 2.6-2.6 2.7L136 34l-2.3 3-2.2 3-2 3.2-1.9 3.2-1.7 3.4-1.5 3.4-1.5 3.6-1.2 3.6-1 3.7-.9 3.7-.7 3.8-.4 3.9-.4 4-.1 4 .1 4 .4 4 .4 3.8.7 3.9.9 3.8 1 3.7 1.2 3.6 1.5 3.6 1.5 3.4 1.7 3.4 1.9 3.3 2 3.1 2.2 3.1 2.3 2.9 2.4 2.9 2.6 2.7 2.7 2.6 2.9 2.4 2.9 2.3 3 2.2 3.2 2.1 3.3 1.8 3.3 1.8 3.5 1.5 3.5 1.4 3.7 1.3 3.6 1 3.8.9 3.9.7 3.9.5 3.9.3z"/><path class="st2" d="M92.8 161.6l4-.1 4-.3 3.9-.5 3.8-.7 3.8-.9 3.7-1 3.6-1.3 3.6-1.4 3.4-1.5 3.4-1.8 3.2-1.8 3.2-2.1 3-2.2 3-2.3 2.8-2.4 2.7-2.6 2.6-2.7 2.4-2.9 2.4-2.9 2.1-3.1 2.1-3.1 1.8-3.3 1.8-3.4 1.5-3.4 1.4-3.6 1.2-3.6 1-3.7.9-3.8.7-3.9.5-3.8.3-4 .1-4-.1-4-.3-4-.5-3.9-.7-3.8-.9-3.7-1-3.7-1.2-3.6-1.4-3.6-1.5-3.4-1.8-3.4-1.8-3.2-2.1-3.2-2.1-3-2.4-3-2.4-2.8-2.6-2.7-2.7-2.6-2.8-2.4-3-2.3-3-2.2-3.2-2-3.2-1.9-3.4-1.8-3.4-1.5-3.6-1.4-3.6-1.2-3.7-1.1-3.8-.9-3.8-.6-3.9-.5-4-.3-4-.1-4 .1-4 .3-3.9.5-3.8.6-3.9.9-3.7 1.1-3.6 1.2-3.5 1.4-3.5 1.5-3.4 1.8-3.2 1.9-3.2 2-3.1 2.2-2.9 2.3-2.8 2.4-2.7 2.6-2.6 2.7-2.5 2.8-2.3 3-2.2 3-2 3.2-1.9 3.2-1.7 3.4-1.6 3.4-1.4 3.6-1.2 3.6-1.1 3.7-.8 3.7-.7 3.8-.5 3.9-.3 4-.1 4 .1 4 .3 4 .5 3.8.7 3.9.8 3.8 1.1 3.7 1.2 3.6 1.4 3.6 1.6 3.4 1.7 3.4L26 124l2 3.1 2.2 3.1 2.3 2.9L35 136l2.6 2.7 2.7 2.6 2.8 2.4L46 146l3.1 2.2 3.2 2.1 3.2 1.8 3.4 1.8 3.5 1.5 3.5 1.4 3.6 1.3 3.7 1 3.9.9 3.8.7 3.9.5 4 .3z"/><path class="st1" d="M134.9 35.3h39.5V31h-35.7zm-6.2 9.3h45.7v-4.4h-43zm-4.7 9.3h50.4v-4.3h-48.2zm-3 9.3h53.4v-4.4h-52.1zm-2 9.2h55.4v-4.3h-54.6zm-.4 17.9h55.8V86h-56.2zm1.4 9.8h54.4v-4.4h-55.2zm2.6 7.9h51.8v-4.4h-53.1zm3.9 9.6h47.9v-4.3h-50zm5.6 9.8h42.3V123h-45.2zm7 9.4H174v-4.4h-38.8zm122.3-5.5l.2-.7.4-.6.5-.6.6-.4.6-.4.7-.2.8-.1.7.1.7.2.7.4.6.4.4.6.4.6.2.7h-.8l-.1-.4-.3-.6-.4-.4-.4-.4-.5-.3-.6-.2h-1.3l-.5.2-.6.3-.4.4-.4.4-.3.6-.1.4z"/><path class="st1" d="M263.8 131.3v-.9h1.8l.3.1h.3l.2.1.1.2.1.1.1.2.1.2h-.7v-.1l-.1-.1-.1-.1-.1-.1h-.2l-.2-.1h-.9v.5zm-2.4.7v-.7h.8v.2l-.1.5zm2.4 0v-.7h.7v.6h1.3l.1-.1.1-.1v-.1l.1-.1v-.2h.7l-.1.3v.2l-.1.1-.1.1zm4.4 0l-.1-.5v-.2h.8v.1l.1.6z"/><path class="st1" d="M261.4 132l-.1.1.1.8.2.7.4.6.5.6.6.4.6.4.7.2h1.5l.7-.2.7-.4.6-.4.4-.6.4-.6.2-.7.1-.8v-.1h-.8v.1l-.1.7-.1.6-.3.6-.4.4-.4.4-.5.3-.6.2h-1.3l-.5-.2-.6-.3-.4-.4-.4-.4-.3-.6-.1-.6-.1-.7v-.1z"/><path class="st1" d="M263.8 132v1.6h.7v-1.3h.7l.8 1.3h.6l-.9-1.3h.2l.2-.1h.2l.2-.1v-.1z"/><path class="st3" d="M179.3 76.9h-.5l-.5-.1-.5-.1h-.5l-.4-.1-.5-.1h-.5l-.5-.1-.5-.1h-.6l-.6-.1h-2.3l-1 .1-1 .1-.7.1-.7.1-.7.2-.5.3-.6.2-.4.3-.4.4-.3.4-.2.4-.2.4-.1.4v.5l.1.5.2.5.3.5.4.4.7.7.9.6 1 .4 1.1.4 1.1.4 1.2.4 1.3.4 1.2.5 1.1.6 1 .8.9.9.8 1.1.6 1.4.4 1.7.1 1.9-.1 2.3-.3 1.7-.5 1.6-.5 1.4-.8 1.2-.9 1.1-.9.9-1.1.8-1.1.7-1.2.5-1.2.5-1.3.4-1.2.3-1.3.2-1.2.1-1.2.1h-4.1l-1.4-.1h-2.3l-.9-.1-1-.1-.8-.1-.8-.1-.7-.1-.6-.1-.7-.2-.6-.2-.6-.2-.6-.2-.7-.2 1.6-8.1.4.1.4.1.5.2.6.1.7.2.8.1.8.2.9.1.9.2 1 .1 1 .1 1 .1 1.1.1h2.1l1.1-.1 1.1-.2.8-.2.6-.4.6-.5.3-.5.3-.6.2-.6.2-.5.1-.6-.1-.5-.1-.5-.2-.4-.3-.4-.3-.4-.5-.3-.4-.3-.6-.3-.6-.3-.6-.3-.7-.2-.6-.3-.8-.3-.7-.3-.7-.3-.7-.3-.8-.3-.7-.4-.7-.4-.6-.4-.6-.5-.6-.6-.6-.6-.5-.6-.4-.8-.3-.8-.4-.8-.2-.9-.1-1.1V81l.1-1.2v-.7l.1-.8.1-.7.2-.6.2-.7.1-.6.3-.6.2-.6.3-.5.2-.6.4-.4.3-.5.4-.5.4-.4.5-.4.5-.4.5-.4.5-.3.6-.3.6-.3.6-.3.7-.2.8-.2.7-.3.8-.1.9-.2.9-.1.9-.1 1-.1h1l1-.1h3.7l1.1.1h1.1l.8.1h.9l.7.1h.7l.5.1.6.1h.4l.5.1.3.1h.3l.4.1h.2z"/><path class="st4" d="M179.3 76.9h-.5l-.5-.1-.5-.1h-.5l-.4-.1-.5-.1h-.5l-.5-.1-.5-.1h-.6l-.6-.1h-2.3l-1 .1-1 .1-.7.1-.7.1-.7.2-.5.3-.6.2-.4.3-.4.4-.3.4-.2.4-.2.4-.1.4v.5l.1.5.2.5.3.5.4.4.7.7.9.6 1 .4 1.1.4 1.1.4 1.2.4 1.3.4 1.2.5 1.1.6 1 .8.9.9.8 1.1.6 1.4.4 1.7.1 1.9-.1 2.3-.3 1.7-.5 1.6-.5 1.4-.8 1.2-.9 1.1-.9.9-1.1.8-1.1.7-1.2.5-1.2.5-1.3.4-1.2.3-1.3.2-1.2.1-1.2.1h-4.1l-1.4-.1h-2.3l-.9-.1-1-.1-.8-.1-.8-.1-.7-.1-.6-.1-.7-.2-.6-.2-.6-.2-.6-.2-.7-.2 1.6-8.1.4.1.4.1.5.2.6.1.7.2.8.1.8.2.9.1.9.2 1 .1 1 .1 1 .1 1.1.1h2.1l1.1-.1 1.1-.2.8-.2.6-.4.6-.5.3-.5.3-.6.2-.6.2-.5.1-.6-.1-.5-.1-.5-.2-.4-.3-.4-.3-.4-.5-.3-.4-.3-.6-.3-.6-.3-.6-.3-.7-.2-.6-.3-.8-.3-.7-.3-.7-.3-.7-.3-.8-.3-.7-.4-.7-.4-.6-.4-.6-.5-.6-.6-.6-.6-.5-.6-.4-.8-.3-.8-.4-.8-.2-.9-.1-1.1V81l.1-1.2v-.7l.1-.8.1-.7.2-.6.2-.7.1-.6.3-.6.2-.6.3-.5.2-.6.4-.4.3-.5.4-.5.4-.4.5-.4.5-.4.5-.4.5-.3.6-.3.6-.3.6-.3.7-.2.8-.2.7-.3.8-.1.9-.2.9-.1.9-.1 1-.1h1l1-.1h3.7l1.1.1h1.1l.8.1h.9l.7.1h.7l.5.1.6.1h.4l.5.1.3.1h.3l.4.1h.2l-1.8 8.3"/><path class="st3" d="M187.7 59.8H198l-1.6 8.9h6.4l-1.5 8.2-6.5-.1-3.4 20.4v1.1l.1.4.2.2.2.3.2.2.3.1.3.2.3.1.3.1.4.1h.4l.4.1h1.7l.7-.1.7-.1.5-.1.5-.1.3-.2.2-.1h.1l-1.1 7-.2.2-.3.1-.3.1-.3.1-.2.2-.4.1-.3.1-.3.1-.4.1h-.4l-.4.1-.5.1-.4.1h-.6l-.5.1-.7.1h-2.7l-1.5-.1-1.3-.2-1.1-.2-1-.2-.9-.4-.7-.3-.6-.5-.5-.5-.4-.5-.3-.6-.1-.6-.1-.7-.1-.8.1-.8.1-.9.1-.9z"/><path class="st4" d="M187.7 59.8H198l-1.6 8.9h6.4l-1.5 8.2-6.5-.1-3.4 20.4v1.1l.1.4.2.2.2.3.2.2.3.1.3.2.3.1.3.1.4.1h.4l.4.1h1.7l.7-.1.7-.1.5-.1.5-.1.3-.2.2-.1h.1l-1.1 7-.2.2-.3.1-.3.1-.3.1-.2.2-.4.1-.3.1-.3.1-.4.1h-.4l-.4.1-.5.1-.4.1h-.6l-.5.1-.7.1h-2.7l-1.5-.1-1.3-.2-1.1-.2-1-.2-.9-.4-.7-.3-.6-.5-.5-.5-.4-.5-.3-.6-.1-.6-.1-.7-.1-.8.1-.8.1-.9.1-.9 6.8-40"/><path class="st3" d="M125.1 90.9l-.1.6-.1.6.1.7.2.7.2.7.3.7.3.7.5.6.4.6.6.6.6.5.6.5.7.4.7.3.8.3.8.2.9.1.9.1 1 .1.9.1h3l.9-.1 1-.2 1.1-.2 1-.2 1-.3 1-.4 1.1-.5 1.1-.6 1-.6-1.6 9.1-.6.3-.5.3-.6.2-.5.3-.6.2-.6.1-.6.1-.6.2h-.7l-.7.1-.8.1h-.8l-1 .1h-4.2l-1-.1h-.8l-1-.1-.9-.1-.9-.2-1-.2-.9-.2-.9-.3-.9-.3-.8-.3-.9-.4-.9-.4-.8-.5-.7-.5-.8-.5-.7-.7-.7-.6-.7-.7-.6-.8-.5-.9-.6-.8-.4-1-.4-1-.4-1.1-.3-1.1-.2-1.2-.2-1.2-.1-1.4V90l.1-1.4.1-1.6.1-.5.1-.6.1-.6.1-.7.1-.7.2-.7.2-.8.2-.7.3-.8.3-.8.3-.8.4-.8.4-.8.4-.8.5-.8.5-.7.6-.8.6-.7.7-.7.7-.7.8-.7.8-.6.9-.6 1-.5 1-.4 1.1-.5 1.2-.4 1.2-.3 1.3-.2 1.4-.2 1.4-.1 1.6-.1h.7l.7.1h.7l.8.1.7.1.8.2.7.1.8.3.7.2.8.3.7.3.7.3.6.4.7.5.6.5.6.5.6.6.5.7.5.7.5.7.4.8.3.9.3 1 .3 1 .2 1 .1 1.2.1 1.2v1.2l-.1 1.4-.1 1.4-.3 1.5-.3 1.6-.4 2.3h-26.6l1.6-7.1h15.9l.1-1v-1.7l-.2-.8-.2-.7-.3-.6-.3-.6-.4-.5-.4-.5-.5-.4-.5-.3-.6-.2-.5-.2-.7-.2-.6-.1h-1.4l-.6.1-.7.1-.6.2-.6.3-.6.4-.5.3-.5.5-.5.5-.4.5-.4.6-.3.7-.3.6-.3.7-.2.8-.2.8z"/><path class="st4" d="M125.1 90.9l-.1.6-.1.6.1.7.2.7.2.7.3.7.3.7.5.6.4.6.6.6.6.5.6.5.7.4.7.3.8.3.8.2.9.1.9.1 1 .1.9.1h3l.9-.1 1-.2 1.1-.2 1-.2 1-.3 1-.4 1.1-.5 1.1-.6 1-.6-1.6 9.1-.6.3-.5.3-.6.2-.5.3-.6.2-.6.1-.6.1-.6.2h-.7l-.7.1-.8.1h-.8l-1 .1h-4.2l-1-.1h-.8l-1-.1-.9-.1-.9-.2-1-.2-.9-.2-.9-.3-.9-.3-.8-.3-.9-.4-.9-.4-.8-.5-.7-.5-.8-.5-.7-.7-.7-.6-.7-.7-.6-.8-.5-.9-.6-.8-.4-1-.4-1-.4-1.1-.3-1.1-.2-1.2-.2-1.2-.1-1.4V90l.1-1.4.1-1.6.1-.5.1-.6.1-.6.1-.7.1-.7.2-.7.2-.8.2-.7.3-.8.3-.8.3-.8.4-.8.4-.8.4-.8.5-.8.5-.7.6-.8.6-.7.7-.7.7-.7.8-.7.8-.6.9-.6 1-.5 1-.4 1.1-.5 1.2-.4 1.2-.3 1.3-.2 1.4-.2 1.4-.1 1.6-.1h.7l.7.1h.7l.8.1.7.1.8.2.7.1.8.3.7.2.8.3.7.3.7.3.6.4.7.5.6.5.6.5.6.6.5.7.5.7.5.7.4.8.3.9.3 1 .3 1 .2 1 .1 1.2.1 1.2v1.2l-.1 1.4-.1 1.4-.3 1.5-.3 1.6-.4 2.3h-26.6l1.6-7.1h15.9l.1-1v-1.7l-.2-.8-.2-.7-.3-.6-.3-.6-.4-.5-.4-.5-.5-.4-.5-.3-.6-.2-.5-.2-.7-.2-.6-.1h-1.4l-.6.1-.7.1-.6.2-.6.3-.6.4-.5.3-.5.5-.5.5-.4.5-.4.6-.3.7-.3.6-.3.7-.2.8-.2.8-1.4 7.7"/><path class="st3" d="M110.9 99.8l-1.5 8.2h-9.2l.1-.8.1-.7.1-.7.1-.7.1-.5v-.5l.1-.3.1-.2-.4.6-.7.6-.6.5-.8.5-.9.5-.9.5-1 .4-1 .4-1 .3-1.1.3-1.1.2-1.1.1-1 .1h-2.1l-1-.2-1.3-.3-1.2-.4-1-.5-.9-.5-.9-.6-.7-.7-.6-.7-.5-.7-.4-.8-.4-.8-.2-.8-.3-.9-.1-.8-.1-.8-.1-.9v-.8l.1-1.4.2-1.3.4-1.4.4-1.2.6-1.1.7-1.1.8-1 .8-1 1-.8 1-.7 1.1-.7 1.1-.6 1.2-.5 1.2-.4 1.2-.4 1.3-.2h.5l.3-.1h.5l.5-.1.5-.1h.7l.6-.1h.6l.6-.1.7-.1h1.1l.4-.1h1.8l.4.1h2.9l.2.1h.3l.1-.3.2-.6.1-.7v-.7l-.1-.4v-.5l-.2-.4-.1-.3-.3-.4-.2-.3-.3-.3-.3-.4-.3-.2-.3-.2-.4-.2-.4-.2-.4-.1-.5-.1-.4-.1-.4-.1h-2.2l-1.1.1h-1.2l-1.2.1-1.2.1-1.1.2-1.2.1-1.1.2-1 .1-1 .2-.9.2-.8.2-.7.2-.5.2-.4.2 2.7-8.7.7-.3.9-.4.8-.2.8-.3.9-.1 1-.2.9-.1 1-.1 1.1-.1h1l1.1-.1h3.5l1.2.1h1.3l1 .1 1.1.1 1.2.3 1.1.4 1.2.4 1.1.5 1.1.6 1 .8 1 .8.8.9.8 1 .5 1.1.4 1.2.3 1.3v1.4l-.2 1.5z"/><path class="st4" d="M110.9 99.8l-1.5 8.2h-9.2l.1-.8.1-.7.1-.7.1-.7.1-.5v-.5l.1-.3.1-.2-.4.6-.7.6-.6.5-.8.5-.9.5-.9.5-1 .4-1 .4-1 .3-1.1.3-1.1.2-1.1.1-1 .1h-2.1l-1-.2-1.3-.3-1.2-.4-1-.5-.9-.5-.9-.6-.7-.7-.6-.7-.5-.7-.4-.8-.4-.8-.2-.8-.3-.9-.1-.8-.1-.8-.1-.9v-.8l.1-1.4.2-1.3.4-1.4.4-1.2.6-1.1.7-1.1.8-1 .8-1 1-.8 1-.7 1.1-.7 1.1-.6 1.2-.5 1.2-.4 1.2-.4 1.3-.2h.5l.3-.1h.5l.5-.1.5-.1h.7l.6-.1h.6l.6-.1.7-.1h1.1l.4-.1h1.8l.4.1h2.9l.2.1h.3l.1-.3.2-.6.1-.7v-.7l-.1-.4v-.5l-.2-.4-.1-.3-.3-.4-.2-.3-.3-.3-.3-.4-.3-.2-.3-.2-.4-.2-.4-.2-.4-.1-.5-.1-.4-.1-.4-.1h-2.2l-1.1.1h-1.2l-1.2.1-1.2.1-1.1.2-1.2.1-1.1.2-1 .1-1 .2-.9.2-.8.2-.7.2-.5.2-.4.2 2.7-8.7.7-.3.9-.4.8-.2.8-.3.9-.1 1-.2.9-.1 1-.1 1.1-.1h1l1.1-.1h3.5l1.2.1h1.3l1 .1 1.1.1 1.2.3 1.1.4 1.2.4 1.1.5 1.1.6 1 .8 1 .8.8.9.8 1 .5 1.1.4 1.2.3 1.3v1.4l-.2 1.5-3.8 19.2"/><path class="st2" d="M102 90.2V90l-.2-.2-.2-.1-.4-.1h-2.5l-.6.1-.6.1-.6.1-.6.1-.5.1-.5.1-.4.1-.2.1-.3.1-.4.1-.4.2-.5.2-.4.2-.5.3-.5.3-.5.3-.5.4-.4.4-.4.5-.3.5-.3.5-.2.6-.1.6-.1 1.3.2.9.3.8.5.6.5.3.6.3.7.1.6.1 1.1-.1 1-.1.9-.2.9-.2.7-.2.7-.3.7-.4.5-.4.5-.4.4-.4.4-.4.3-.5.2-.4.2-.4.2-.4.1-.4.1-.6.2-.5.1-.7.1-.6.1-.6.1-.6.1-.5z"/><path class="st3" d="M33.5 108h-10L32 59.8h17.4l1.7 28.7L63 59.8h18L72.6 108h-10l6.3-36.1h-.4L53.6 108H42.4l-.1-1.5-.3-4-.3-5.7-.4-6.6-.3-6.5-.4-5.9-.2-4.2-.1-1.7h-.5.1z"/><path class="st4" d="M33.5 108h-10L32 59.8h17.4l1.7 28.7L63 59.8h18L72.6 108h-10l6.3-36.1h-.4L53.6 108H42.4l-.1-1.5-.3-4-.3-5.7-.4-6.6-.3-6.5-.4-5.9-.2-4.2-.1-1.7h-.5.1L33.5 108"/><path class="st3" d="M200.9 108h10.4l3.6-20.8.2-.8.1-.8.2-.8.3-.8.3-.7.3-.7.5-.7.4-.6.6-.6.7-.5.8-.5.9-.4 1-.3 1.2-.3 1.2-.1 1.5-.1h.7l.1.1h.3l.1-.1.1-.5.1-.6.2-.9.3-.9.2-1.1.4-1 .4-1 .2-.7.4-.7.3-.7.4-.6.3-.5.2-.5.2-.3.1-.1h-.4l-.3-.1h-.2l-.3-.1h-.5l-1.2.1-1 .1-1 .2-.8.2-.8.3-.8.4-.7.4-.6.4-.7.5-.6.5-.5.6-.6.6-.5.7-.5.7-.6.7-.5.7 1.2-6.6-10.4-.1-6.9 39.4z"/><path class="st4" d="M200.9 108h10.4l3.6-20.8.2-.8.1-.8.2-.8.3-.8.3-.7.3-.7.5-.7.4-.6.6-.6.7-.5.8-.5.9-.4 1-.3 1.2-.3 1.2-.1 1.5-.1h.7l.1.1h.3l.1-.1.1-.5.1-.6.2-.9.3-.9.2-1.1.4-1 .4-1 .2-.7.4-.7.3-.7.4-.6.3-.5.2-.5.2-.3.1-.1h-.4l-.3-.1h-.2l-.3-.1h-.5l-1.2.1-1 .1-1 .2-.8.2-.8.3-.8.4-.7.4-.6.4-.7.5-.6.5-.5.6-.6.6-.5.7-.5.7-.6.7-.5.7 1.2-6.6-10.4-.1-6.9 39.4"/><path class="st3" d="M246 68.2h1.2l1.1.1 1.1.1 1.1.1 1 .3 1 .2.9.3 1 .3.9.4.8.4.9.5.8.4.7.6.7.5.7.6.6.7.7.6.5.8.5.7.5.7.5.8.4.9.4.8.3.9.2.9.3 1 .2.9.1 1 .1 1 .1 1.1v2.1l-.1 1.3-.1 1.3-.2 1.2-.3 1.2-.2 1.1-.3 1.1-.4 1-.4 1-.4 1-.5.9-.5.9-.6.8-.6.8-.6.7-.7.7-.7.7-.7.6-.7.6-.8.5-.8.5-.9.5-.8.4-.9.4-.9.3-1 .3-.9.3-1 .2-1 .2-1 .1-1 .1h-1.1l-1 .1-1.1-.1h-1l-1-.1-1-.2-1-.1-1-.3-.9-.2-.9-.3-.9-.3-.8-.4-.8-.4-.8-.5-.8-.5-.7-.5-.7-.6-.7-.6-.6-.6-.6-.7-.6-.8-.5-.7-.5-.8-.4-.9-.4-.8-.4-.9-.3-1-.3-1-.2-1-.2-1.1-.1-1.1-.1-1.1v-2.4l.1-1.2.1-1.2.2-1.1.2-1.1.3-1.1.3-1.1.3-1 .4-.9.4-1 .5-.9.5-.8.5-.9.6-.7.6-.8.7-.7.6-.7.7-.6.8-.6.7-.6.8-.5.9-.4.9-.5.9-.4.9-.4.9-.3 1-.2 1-.3 1-.2 1-.1 1.1-.1 1.1-.1z"/><path class="st4" d="M246 68.2h1.2l1.1.1 1.1.1 1.1.1 1 .3 1 .2.9.3 1 .3.9.4.8.4.9.5.8.4.7.6.7.5.7.6.6.7.7.6.5.8.5.7.5.7.5.8.4.9.4.8.3.9.2.9.3 1 .2.9.1 1 .1 1 .1 1.1v2.1l-.1 1.3-.1 1.3-.2 1.2-.3 1.2-.2 1.1-.3 1.1-.4 1-.4 1-.4 1-.5.9-.5.9-.6.8-.6.8-.6.7-.7.7-.7.7-.7.6-.7.6-.8.5-.8.5-.9.5-.8.4-.9.4-.9.3-1 .3-.9.3-1 .2-1 .2-1 .1-1 .1h-1.1l-1 .1-1.1-.1h-1l-1-.1-1-.2-1-.1-1-.3-.9-.2-.9-.3-.9-.3-.8-.4-.8-.4-.8-.5-.8-.5-.7-.5-.7-.6-.7-.6-.6-.6-.6-.7-.6-.8-.5-.7-.5-.8-.4-.9-.4-.8-.4-.9-.3-1-.3-1-.2-1-.2-1.1-.1-1.1-.1-1.1v-2.4l.1-1.2.1-1.2.2-1.1.2-1.1.3-1.1.3-1.1.3-1 .4-.9.4-1 .5-.9.5-.8.5-.9.6-.7.6-.8.7-.7.6-.7.7-.6.8-.6.7-.6.8-.5.9-.4.9-.5.9-.4.9-.4.9-.3 1-.2 1-.3 1-.2 1-.1 1.1-.1 1.1-.1h1.1"/><path class="st3" d="M261.3 106h3.1v.4h-1.2v2.5h-.7v-2.5h-1.2zm3.5 0h.9l1.1 2.3 1-2.3h.9v2.9h-.7v-2.2l-1 2.2h-.5l-1.1-2.2v2.2h-.6z"/><path class="st1" d="M237.9 87l-.2 1.5-.1 1.3V91l.1 1.1.2 1 .2.9.3.9.3.7.5.6.4.6.6.4.6.4.6.3.7.2.8.1h1.6l.9-.1.8-.2.7-.2.8-.4.7-.5.6-.5.6-.6.5-.8.6-.8.4-.9.5-1 .3-1.1.4-1.2.2-1.3.3-1.4.1-1.1.1-1.1v-1l-.1-1-.1-.9-.2-.8-.3-.8-.4-.8-.4-.6-.4-.6-.6-.5-.6-.4-.6-.4-.7-.2-.8-.1h-.9l-1 .1-1 .2-.9.3-.8.3-.8.6-.7.5-.6.7-.6.7-.6.8-.4.8-.4.8-.3.9-.4.8-.2.9-.2.9z"/></svg>