<svg xmlns="http://www.w3.org/2000/svg" viewBox="0 0 192.8 112.2" width="192" height="112"><path d="M146 39.6c-4.1 0-7.4 1.1-9.8 1.6l-.8 6.2c2.7-1 5.5-1.6 8.4-1.8 3.2-.1 5.1.6 4.5 3.4-9.6 0-16.1 2-17.5 8.2-1.9 10.7 9.8 10.4 14.5 5.7l-.6 2.6h8.6l3.7-17c1.6-7.2-5-9-11-8.9zm.5 17.4c-.5 2.3-2.3 3.3-4.5 3.4-1.9.1-3.6-1.6-2.4-3.6 1-1.7 3.6-2.1 5.2-2.1h2.1c-.1.8-.2 1.5-.4 2.3zm17.9-24.1l-7.1 32.7h8.7l7.2-32.7h-8.8zm-40.1.1h-16l-7.1 32.6h9.3l2.4-10.8h6.6c6.5.2 12.1-4.3 13.3-10.7 1.6-7.7-3.9-11.1-8.5-11.1zm-.3 11.1c-.7 2.5-2.9 4.3-5.5 4.5h-4.3l1.9-8.9h4.6c2.4-.1 3.9 1.9 3.3 4.4z" fill="#fff"/><path d="M62.3 39.6c-4 0-7.3 1.1-9.6 1.6l-.8 6.2c2.6-1.1 5.4-1.7 8.2-1.8 3.2-.1 5.1.6 4.5 3.4-9.5 0-15.9 2-17.2 8.2-1.9 10.7 9.7 10.4 14.2 5.7l-.6 2.6h8.6l3.7-17c1.5-7.2-5.1-9-11-8.9zM63 57c-.5 2.3-2.4 3.3-4.5 3.4-1.9.1-3.5-1.6-2.3-3.6.9-1.7 3.6-2.1 5.1-2.1h2.2c-.3.8-.4 1.6-.5 2.3zm14.1-16.9h8.6L87 55.2 95.4 40h8.9L83.9 76.4h-9.6l6.3-10.7-3.5-25.6zM41 33H25l-7.1 32.6h9.4l2.3-10.8h6.7c6.4.2 12.1-4.4 13.2-10.7C51.1 36.4 45.7 33 41 33zm-.3 11c-.6 2.5-2.8 4.3-5.4 4.5h-4.4l2-8.9h4.6c1.8 0 3.3 1.4 3.4 3.2 0 .4-.1.9-.2 1.2zm134.4-6.9v-3.8h-1.4v-.5h3.5v.5h-1.4v3.8h-.7zm2.6 0v-4.4h.9l1 3.1.2.7.2-.7 1-3h.8v4.4h-.6v-3.7l-1.3 3.7h-.5l-1.3-3.7v3.7h-.4z" fill="#e0e2e2"/></svg>