<svg xmlns="http://www.w3.org/2000/svg" viewBox="0 0 192.8 112.2" width="192" height="112"><path d="M179.5 35.8h-4.1c-.8 0-.9.3-.9.9v28.7c0 .8.3.9.9 1h4c.6 0 .9-.1.9-1V36.7c.1-.8-.1-.9-.8-.9zm-53.2 0h-4.1c-.8 0-.9.3-.9.9v28.7c0 .8.3.9.9 1h4c.6 0 .9-.1.9-1V36.7c.1-.8-.2-.9-.8-.9zm-11 38.2c-2.6-.7-8-2.6-9.4-7.5 7.8-2.9 9.6-10.4 9.6-15.6 0-9.4-5.6-15.9-13.7-15.9-7.5 0-13.9 5.5-13.9 16.2 0 7 3.2 14.3 11.8 15.7 3.6 8.3 14.9 9.7 15.8 9.7 1.2 0 1.5-.8 1.5-1.3 0-.9-.6-1.1-1.7-1.3zm-13.6-10.5c-.6 0-3.6 0-5.8-3.6-1.5-2.7-1.9-6.3-1.9-8.9 0-2.9.4-6.4 1.9-8.8 1.2-2.1 3.4-3.4 5.8-3.4 2.3 0 4.5 1.3 5.7 3.3 1.8 2.8 2 6.7 2 8.8 0 2.5-.2 6.2-1.7 8.8-1.2 2.2-3.4 3.7-6 3.8zM168 35.8h-2.9c-.6 0-.8.2-1 .9l-5 19.8-6.2-19.7c-.3-.8-.3-.9-.6-1h-1.6c-.5 0-.6.2-.8.9l-6.1 19.8-5-19.8c-.2-.9-.4-.9-1.1-.9h-4.1c-.4 0-.8.1-.8.7 0 .2.1.5.1.7l8.1 28.4c.2.7.4.8 1.2.8h1.9c.4 0 .5-.2.7-.8l5.8-18.5 6.2 18.5c.2.7.4.8.8.8h2.1c.6 0 .7-.2.9-.8l8-28.4c.1-.3.1-.5.1-.8.2-.6-.2-.6-.7-.6z" fill="#fff"/><path d="M65.7 67.7c-.7-.3-.8.6-.6 1.1.2.9.6 1.7 1.3 2.4.4.2.8-.3.5-1.5-.1-.6-.5-1.8-1.2-2zM60.2 70H60c-.4-.1-.9 0-1.2.2-.8.7-1 2-.3 2.8.3.4.7.8 1.2.9h.3c.4.1.9 0 1.2-.2.8-.7 1-1.9.3-2.8-.3-.4-.8-.8-1.3-.9zm19.3 19.5c-2-4-5.5-7-9.3-9.3-1.3-.7-2.7-1.3-4.1-1.8-3-1-5.9-1.2-9.2-1.8-2.6-.5-5.1-1.6-7.2-3.2-1.2-.9-2.2-1.9-3-3.2-.2-.2-.9-1.2-.8-1.5-.3 1.7-.1 3.5.5 5.2-9.8-.4-18.4-5.9-22.3-12.5-7.2-12.1-4.7-26.8 5-33.3s24.4-1.9 32.3 9.8c5 7.4 6.2 15.9 4.1 22.9l-.1.2c-2.3-1.8-5.3-2.3-8-1.5 4.2-.4 7.5 2.9 7.5 2.9.5.4 1 .9 1.4 1.4l.3.4c1.1 1.4 1.8 3.1 2.1 4.8C77 58.4 78.4 43.8 71 32.4c-9.5-14.5-29.5-18.2-44.8-8.3S6 54.1 15.4 68.6c7.7 11.9 25.8 15.6 36.2 12.3 9.8-2.4 20.2 1 26.7 8.7.5.6.9 1.3 1.2 2 .1.2.2.3.4.2h.1c.1-.2.4-.5-.5-2.3z" fill="#f59c24"/></svg>