<svg xmlns="http://www.w3.org/2000/svg" viewBox="0 0 192.8 99.6" width="192" height="100"><path d="M70.4 77.5l8.9-52.2h14.2l-8.9 52.2zm65.8-51c-4.1-1.5-8.4-2.2-12.8-2.2-14.1 0-24 7.1-24 17.2-.1 7.5 7.1 11.7 12.5 14.2s7.4 4.2 7.4 6.5c0 3.5-4.4 5.1-8.5 5.1-4.6.1-9.2-.8-13.4-2.7l-1.8-.8-2 11.7c3.3 1.5 9.5 2.7 15.8 2.8 15 0 24.7-7 24.8-17.8.1-5.9-3.7-10.5-12-14.2-5-2.4-8-4-8-6.5 0-2.2 2.6-4.5 8.2-4.5 3.7-.1 7.3.6 10.7 2l1.3.6 1.8-11.4m36.5-1.2h-11c-3.4 0-6 .9-7.4 4.3l-21.1 47.8h14.9s2.4-6.4 3-7.8h18.2c.4 1.8 1.7 7.8 1.7 7.8h13.2l-11.5-52.1m-17.5 33.6c1.2-3 5.7-14.6 5.7-14.6s1.2-3 1.9-5l1 4.5 3.3 15.1h-11.9zM58.5 25.3L44.6 60.9l-1.5-7.2c-2.6-8.4-10.7-17.4-19.7-21.9l12.7 45.7h15l22.4-52.1h-15" fill="#333"/><path d="M31.6 25.3H8.7l-.2 1.1c17.9 4.3 29.7 14.7 34.6 27.3l-5-24c-.9-3.3-3.4-4.3-6.5-4.4" fill="#f7a600"/></svg>