<svg version="1.1" viewBox="0 0 265 64" xmlns="http://www.w3.org/2000/svg" width="265" height="64">
  <g transform="matrix(1.2941 0 0 1.2941 -400.16 -602.13)" style="fill:#fff">
    <path d="m309.51 511.56v3.0011h204.07v-3.0011z" style="color-rendering:auto;color:#000000;dominant-baseline:auto;fill:#fff;font-feature-settings:normal;font-variant-alternates:normal;font-variant-caps:normal;font-variant-ligatures:normal;font-variant-numeric:normal;font-variant-position:normal;image-rendering:auto;isolation:auto;mix-blend-mode:normal;shape-padding:0;shape-rendering:auto;solid-color:#000000;text-decoration-color:#000000;text-decoration-line:none;text-decoration-style:solid;text-indent:0;text-orientation:mixed;text-transform:none;white-space:normal"/>
    <path d="m392.47 475.87-83.052 5.5254 0.19929 2.9952 83.05-5.5254z" style="color-rendering:auto;color:#000000;dominant-baseline:auto;fill:#fff;font-feature-settings:normal;font-variant-alternates:normal;font-variant-caps:normal;font-variant-ligatures:normal;font-variant-numeric:normal;font-variant-position:normal;image-rendering:auto;isolation:auto;mix-blend-mode:normal;shape-padding:0;shape-rendering:auto;solid-color:#000000;text-decoration-color:#000000;text-decoration-line:none;text-decoration-style:solid;text-indent:0;text-orientation:mixed;text-transform:none;white-space:normal"/>
    <path d="m430.2 475.87-0.2032 2.9952 83.484 5.6836 0.20319-2.9932z" style="color-rendering:auto;color:#000000;dominant-baseline:auto;fill:#fff;font-feature-settings:normal;font-variant-alternates:normal;font-variant-caps:normal;font-variant-ligatures:normal;font-variant-numeric:normal;font-variant-position:normal;image-rendering:auto;isolation:auto;mix-blend-mode:normal;shape-padding:0;shape-rendering:auto;solid-color:#000000;text-decoration-color:#000000;text-decoration-line:none;text-decoration-style:solid;text-indent:0;text-orientation:mixed;text-transform:none;white-space:normal"/>
    <path d="m416.72 465.56c-8.9662 0-8.7453 12.032-13.765 12.032-3.1486 0-5.0936-2.3602-5.0936-2.3602s1.9515 6.8579 7.7273 6.8579c8.2902 0 9.162-12.454 14.28-12.454 3.1705 0 4.611 2.4462 4.611 2.4462s-1.5723-6.5218-7.7605-6.5218zm-12.93 0.22469c-5.2602 0-5.8477 6.006-5.8477 6.006s2.7776-3.4192 5.9591-3.4192c1.8432 0 3.2882 0.47379 4.4625 1.2426 0.19493-0.29411 0.4017-0.58014 0.6096-0.86555-1.2279-1.717-2.7616-2.9639-5.1834-2.9639zm20.691 9.4467s-2.1442 3.5188-5.5097 3.5188c-2.0026 0-3.472-0.68018-4.6442-1.7233-0.14243 0.22449-0.28086 0.45016-0.42789 0.67212 1.2021 2.2547 2.5418 4.0346 4.9588 4.0346 5.6224 0 5.623-6.5023 5.623-6.5023z" style="fill:#fff"/>
    <path d="m406.46 493.63-0.0427-0.49084h-0.23474l-0.1494-0.14938 0.064-0.0427v-0.51218l-0.23475-0.27743-1.4085-0.14939-0.0853 0.0427-4.1188 0.064h-0.61889l-1.7072-0.064-0.42682 0.27742-0.3628 0.74694-0.19206 1.7286 0.4695 0.7896 0.36279 0.0427 0.38413-0.32011 0.64022-1.6219 0.34146-0.40549h0.59754l0.40547 0.59755h0.29877l0.27743 0.36279v0.64023l-0.1067 0.36279 0.1067 0.23476-0.0213 1.4085 0.10671 0.96034-0.23475 0.59754v1.0244l0.0427 1.1097 0.23474 0.51218 0.0213 0.76827-0.25609 0.53353v0.53352l-0.93899 0.0213-0.70425 0.40548-0.0427 0.51218 0.27743 0.51218 0.61888 0.23474 0.96033-0.0853 0.42682-0.19206 0.42682 0.36279h0.27742l0.27743-0.17073 0.96033-0.19206 1.1738 0.12804 0.36279-0.46949 0.19206-0.44816-0.44815-0.44816-1.003-0.21341-0.4695 0.064-0.12805-0.12805-0.0427-0.064-0.27744-0.51218-0.19207-0.27743v-0.14938l0.0213-1.3231 0.0853-0.32011 0.12805-0.83229-0.12805-0.27743-0.14938-1.067 0.1067-0.55486-0.0427-1.1311 0.0853-0.25609v-1.0244l0.19207-0.70425 0.2134-0.64022 0.70425-0.21342 0.1067 0.12805 0.27743 0.36279v0.49085l0.19207 0.25609 0.25609 0.53351 0.23475-0.32011 0.70424 0.70425h0.44816l0.14938-0.27743 0.27744-1.3018z" style="dominant-baseline:auto;fill:#fff;font-feature-settings:normal;font-variant-alternates:normal;font-variant-caps:normal;font-variant-ligatures:normal;font-variant-numeric:normal;font-variant-position:normal;paint-order:stroke markers fill;shape-padding:0;text-decoration-color:#000000;text-decoration-line:none;text-decoration-style:solid;text-indent:0;text-orientation:mixed;text-transform:none;white-space:normal"/>
    <path d="m425.11 493.35-0.10671-0.49083-0.40547-0.61889-1.067-0.0853h-1.1524l-0.74692 0.12805-0.66157 0.0427-0.12804 0.10671v0.12805l0.17073 0.14938v1.4725l-0.59754 0.5762 0.0427 0.0427 0.10671 0.98167-0.32011 0.3628-0.25609 0.83229-0.2134 1.0244-0.70425 0.55487v0.17072l-0.0427 0.25609-0.42682 0.55487-0.23474 0.64022-0.17073 0.55487-0.23475 0.38413-0.19207 0.0427-0.36279-0.29877-0.0853-1.5152 0.3628-0.66157-0.27743-0.51218 0.19207-0.76827v-0.81095l0.2134-0.87498-0.12804-0.40547 0.19207-0.27743v-1.1311l0.0853-0.12804 0.19206-0.12805 0.44816-0.10671 0.85363-0.74692v-0.27744l-0.27743-0.27743-1.3658-0.0853-0.44815-0.1067-0.32011 0.1067-0.74693 0.0853-0.42681 0.19207-0.42682-0.10671-0.2134 0.19207v0.32011l0.2134 0.27744 0.53352-0.17073 0.17073 0.17073 0.14938 0.38414 0.23475 0.70425-0.14938 0.76827 0.12804 0.27742 0.0213 0.81096 0.12804 0.64023 0.12805 1.814-0.21341 0.32012-0.064 0.70425 0.064 0.64022-0.14939 0.40547-0.0427 0.98169-0.23475 0.70425-0.32012 0.40547-0.14938 0.34145-0.78961 0.64023v0.19206l0.34146 0.3628 2.0274 0.0427 0.70425 0.14938 0.55486-0.0853 0.98167-0.10671 0.23475-0.14938 0.0427-0.49084-0.59755-0.14939v-0.19206l0.12804-0.12805-0.23474-0.23475-0.0427-0.4695 0.14938-0.27744 0.17073-1.067 0.27742-0.44816 0.0853-0.51218 0.14939-0.19207 0.32011-0.23475 0.064-0.40547 0.2134-0.46951 0.27744-0.78961 0.61887-0.74693 0.0427-0.40547 0.27742-0.29878 0.12805-0.40547 0.42682-0.55487h0.14938l0.0853 0.0427 0.0853 2.5396-0.19207 0.66157-0.44815 0.78961 0.44815 1.6646-0.23475 1.2591-0.32011 0.40547-0.51218-0.0853-0.44815 0.38413-0.0427 0.53352 0.27743 0.34146 0.49084 0.36279 0.66156-0.12805 0.40547 0.12805 1.8566-0.0853 0.51218-0.27743 0.0427-0.14939-0.12805-0.44816-0.36279-0.51218-0.4695-0.064-0.19206-0.23474-0.0853-1.4298-0.0853-0.42681-0.1067-1.6219 0.1067-0.51218-0.19207-0.64023 0.12804-0.70424 0.10671-0.8323 0.44816-0.78961-0.32011-0.44815 0.1067-0.51218-0.1067-0.87498 0.14938-0.23474 0.23475-0.064 0.49084 0.0213 0.23474-0.10671z" style="dominant-baseline:auto;fill:#fff;font-feature-settings:normal;font-variant-alternates:normal;font-variant-caps:normal;font-variant-ligatures:normal;font-variant-numeric:normal;font-variant-position:normal;paint-order:stroke markers fill;shape-padding:0;text-decoration-color:#000000;text-decoration-line:none;text-decoration-style:solid;text-indent:0;text-orientation:mixed;text-transform:none;white-space:normal"/>
    <path d="m442.61 495.32-0.32011-1.3872-0.46949-0.51218v-0.8323l-1.3872-0.19206-0.74693-0.42681-1.5365-0.064-0.42681-0.0853-0.25609 0.17073-1.6859-0.1067h-0.91765l-1.1524-0.1067-0.55486 0.19207-0.5762 0.42681-0.12804 0.4695 0.14939 0.25609 0.32011 0.23474h0.91765l0.10671 0.064 0.44815 0.0853 0.19207-0.1494 0.40547-0.0853 0.23475 0.23476-0.17073 2.8383 0.17073 1.8353-0.3628 0.61888v0.44816l0.0853 1.6219 0.0427 1.4085-0.17073 0.27743-0.42681 0.27742-0.72559 0.17073-0.93899 0.0213-0.12804 0.12805-0.10671 0.14939-0.0427 0.51218 0.42681 0.44816 0.51218 0.064 0.21341 0.17072 0.93899 0.0427 0.40547 0.10671 0.19207-0.10671h0.98168l0.64022 0.10671 0.32011-0.10671 1.5365 0.064 0.83229-0.51218h0.34145l-0.23476-0.78961-0.29876-0.38414-0.61888-0.064-0.27743 0.19207-0.4695-0.12805-0.70425-0.32011-0.14938-0.27744v-1.0244l-0.23475-0.42681 0.064-0.83229 0.17073-0.49084 0.14938-0.19207 0.27744-0.17073 0.89631 0.21341 0.34145-0.19207 0.51218-0.12804 0.46949 0.25609 0.4695-0.34146 0.96033 0.12804 0.81095-0.38413 0.0853-0.27743-0.10671-0.0853v-0.55486l0.14938-0.55487 0.40548-0.66156zm-1.4938 0-0.0427 0.59754-0.27743 0.78962-0.72559 0.40547-0.27742 0.27743-0.81096 0.19206-1.0457-0.0213-0.51218-0.0213-0.064 0.0427h-0.17073l-0.23474-0.27742-0.0427-0.8323-0.23476-0.32011-0.0853-0.27743 0.17073-0.89631-0.0853-1.3445 0.0853-0.21341 0.27743-0.14939 0.46949 0.0853h0.81095l0.5762 0.064 0.38414-0.064h0.27742l0.44816 0.55487 0.66157 0.19207z" style="dominant-baseline:auto;fill:#fff;font-feature-settings:normal;font-variant-alternates:normal;font-variant-caps:normal;font-variant-ligatures:normal;font-variant-numeric:normal;font-variant-position:normal;paint-order:stroke markers fill;shape-padding:0;text-decoration-color:#000000;text-decoration-line:none;text-decoration-style:solid;text-indent:0;text-orientation:mixed;text-transform:none;white-space:normal"/>
    <path d="m460.54 504-0.23475-0.68291-0.27743-0.53352-0.17073-0.0427-0.7896-0.64022-0.34146-0.32012-0.23474-0.55486-0.21342-0.98168-0.34145-0.66156-0.17073-0.68291-0.10669-0.59754-0.12805-1.3445-0.42682-0.57621-0.0427-0.83229 0.19207-0.78962-0.4695-0.72558-0.40547-1.3018-0.53352-0.3628-0.25609-0.34145-0.34145-0.12805-1.1097 1.1524-0.0853 0.91765-0.27743 0.51218-0.32011 1.5792-0.66156 1.8566-0.12805 0.70425-0.27743 0.6829-0.0213 0.51218-0.27743 0.57621-0.17073 1.3872-0.66156 1.0244-0.55486 0.12804-0.74693 0.38414v0.32011l0.19207 0.51218 0.66157 0.27743h0.32011l0.6829 0.17073 0.29877-0.12805h0.76827l0.27742-0.14938h0.74693l0.34145-0.40548 0.3628-0.19207-0.0427-0.14938-1.2591-0.96034-0.12805-0.3628 0.81094-1.3018 0.42682-0.0427 0.46949 0.32011 1.5365-0.1067 0.23475 0.23474v1.5792l-0.23475 0.27743-0.98167 0.14939-0.32011 0.23474v0.17073l0.27742 0.0853 0.96034 0.74694h0.74692l0.78961-0.12805 1.0244 0.27743 0.51218 0.0853 0.40548-0.3628 0.5762-0.27743zm-4.4175-4.8657-0.27743 0.40548-0.32011 0.14938-0.64023-0.1067-0.64022 0.1067-0.19206-0.14938 0.19206-1.1097 0.21342-0.68291v-0.66156l0.23474-0.68291 0.19206-0.29878 0.23476-0.53351h0.17072l0.29877 0.55486 0.12804 0.78961-0.0427 0.72559v0.38413l0.44815 0.68291z" style="dominant-baseline:auto;fill:#fff;font-feature-settings:normal;font-variant-alternates:normal;font-variant-caps:normal;font-variant-ligatures:normal;font-variant-numeric:normal;font-variant-position:normal;paint-order:stroke markers fill;shape-padding:0;text-decoration-color:#000000;text-decoration-line:none;text-decoration-style:solid;text-indent:0;text-orientation:mixed;text-transform:none;white-space:normal"/>
    <path d="m479.06 502.55-0.42682-0.87498-0.32011-0.064-0.23475 0.10671-0.55485 0.12805-0.12805-0.12805-0.0427-0.10671-0.42682-0.2134-0.12805-1.2164 0.27744-0.27743v-0.27743l-0.53353-0.27743-0.40547-0.70425-0.46949-0.40547-0.0853-0.23476 0.23475-0.19206v-0.3628l0.19207-0.55486 0.0853-1.4512 0.19207-0.83229-0.064-1.067 0.1494-0.14938h0.12804l0.0427 0.0213-0.0427 0.49084 0.29876 0.42682 0.32011 0.0427 0.91766-0.72559-0.0853-0.78961-0.14938-0.29877-0.2134-0.0427-0.51218 0.14939-0.29877-0.38413h-0.23476l-0.53351 0.38413-0.74693 0.4695-0.1067 0.76827v2.4115l-0.74693 0.98168-0.53351 0.1067-0.14939-0.14939-0.14939-0.51218v-0.55486l0.064-1.2164-0.14939-0.3628 0.14939-0.64023 0.23475-0.27742h0.17072l0.27743-0.0427 0.61888-0.70425-0.34145-0.38413-0.74693-0.12805-0.83229 0.12805-0.49083-0.23476-0.4695-0.0427-0.32011 0.14938-0.74692 0.55487h-0.14939l-0.17072-0.0427-0.5762-0.38413-0.49084-0.40548-0.4695-0.1067-0.78961 0.34145-0.46949 0.44815-0.0853 0.85365 0.40547 0.55485h0.14938l0.51218 0.0853 0.74693 0.4695 0.2134 0.44815v1.0884l0.27744 0.55486 0.61887 0.55486 0.12805 0.4695-0.17072 0.21341-0.42682 0.10671-0.27743 0.40547-0.66157 0.70425-0.27742 1.5365-0.17073 0.23475v0.27743l-0.1067 0.27743h-0.21341l-0.27743-0.23475-0.66156-0.1067-0.40548 0.38413-0.14938 1.2804 0.12804 0.25609 0.0213 0.55487 0.68291 0.78961h0.38413l0.91765 0.2134 0.27743-0.12804 0.42681-0.59754 0.64023 0.12804 0.32011-0.40547 0.14939 0.17072 0.46949 0.51218 1.4298 0.0427 1.7713-0.2134 0.17073-0.19207 0.0427-0.42682-1.1097-1.1524-0.0427-0.55487 0.27743-0.51218 0.12805-0.70425-0.3628-0.19207-0.0427-0.2134 0.19206-0.19207 0.55487-0.14938 0.27742-0.40548 0.19207-0.0853 0.0853 0.12805 0.46949 0.70425 0.0853 0.40547-0.0853 0.89632 0.0853 0.44815-0.0853 0.42683 0.17073 0.68291 0.34145 0.61887 0.64022 0.68291h0.40547l0.85364-0.0427 0.27742-0.12805 0.83229-1.3658zm-6.5303-8.8564-0.19207 1.7926 0.17072 0.5762-0.27742 1.1097h-0.21341l-0.78961-0.83229-0.29876-0.85363v-0.59755l0.14938-0.36279-0.14938-0.70425 0.064-0.27744 0.27742-0.27743 1.067 0.12805zm-0.34146 5.3779-0.12804 0.12804-0.32011-0.0853 0.17073-0.19206h0.19206l0.0853 0.0427zm0.14939 1.5792-0.14939 0.64022-0.40547 0.46951-0.14938-0.0427-0.27744-0.38413-0.12804-0.12805h-0.27743v-0.27743l0.0427-0.0427v-0.14938l-0.27744-0.12805-0.14938-0.23475 0.3628-1.0244 0.19206-0.14939h0.42681l0.12805 0.14939 0.38413 0.12804 0.12804 0.0427 0.10671 0.1067-0.10671 0.4695zm-0.27743 1.75-0.1067 0.064h-0.12804l-0.0427-0.14939 0.12805-0.27743 0.14938 0.0853zm-0.93899 0.27743-0.12804 0.064-0.27744-0.0213-0.064-0.17073 0.14939-0.3628h0.12805l0.19206 0.40548z" style="dominant-baseline:auto;fill:#fff;font-feature-settings:normal;font-variant-alternates:normal;font-variant-caps:normal;font-variant-ligatures:normal;font-variant-numeric:normal;font-variant-position:normal;paint-order:stroke markers fill;shape-padding:0;text-decoration-color:#000000;text-decoration-line:none;text-decoration-style:solid;text-indent:0;text-orientation:mixed;text-transform:none;white-space:normal"/>
    <path d="m496.93 492.82-0.23474-0.23476-0.4695-0.12804-0.40547 0.25609 0.0427 0.14939 0.36279 0.23474 0.4695 0.0427 0.19207-0.14938zm-0.6829 0.96034v-0.27743l-0.51217-0.12805-0.27744-0.23475-0.0427-0.19207-0.38413-0.55486-0.3628-0.0853-0.83228-0.42682-0.51218 0.38413-0.78961 0.0427-0.19206 0.27742-0.12805 0.51218-0.1067 0.27744-0.49084 0.12805-0.19207 0.14938v0.19207l-0.14938 0.23475-0.21341 0.12805-0.064 0.32011 0.1067 0.66156-0.1067 0.12805v0.46949l-0.59755 1.1097h-0.98167l-0.6829 0.14939-0.14939-0.14939-0.12804-0.59755 0.12804-0.42681v-0.91766l0.10671-0.14938h0.36279l0.12804-0.12805v-0.0427l-0.12804-0.1067h-0.32011l-0.1067-0.12805v-0.5762l0.1067-0.12804 0.12804-0.0427 0.27744 0.17073 0.38413-0.25609 0.0427-0.27744 0.23476-0.29876 0.44815-0.23476v-0.17073l-0.0853-0.27742-0.36279-0.10671-0.51218-0.27743-0.51218-0.0427-0.42682 0.14939-1.5579-0.14939-0.0213 0.0427-0.91765 0.19207-0.27743 0.19207v0.44815l0.46949 0.4695h0.49084l0.38414 0.32011 0.12804 0.51218-0.12804 0.46951 0.14938 1.9634-0.14938 0.40548 0.12804 0.27743-0.12804 1.3872 0.12804 0.93899-0.3628 0.83229 0.10671 0.19207 0.17073 0.55487-0.0853 0.27742-0.0853 0.8323-0.19207 0.3628-0.51217 0.34145-0.83229 0.64022v0.46951l0.32011 0.23474h1.0244l0.19207 0.17073h0.40547l2.0914-0.0427 0.7896-0.40547h0.64022l0.46951-0.38413v-0.27743l-0.12805-0.12805h-0.064l-0.17073-0.0213-0.83229 0.14939-0.85362-0.42682-0.64023-0.51218-0.14939-0.32012 0.10671-0.32011-0.23475-1.067 0.12804-0.70425-0.17072-0.27743v-0.87498l0.17072-0.23474 0.34146-0.21342 0.87496 0.21342 0.27744-0.12805 0.70425-0.0427 0.12804 0.12804 0.32011 0.3628 0.38413 0.23474 0.44816 0.57621 0.27743 0.83229v0.76827l0.14938 0.74693-0.4695 0.51219v0.19206l0.10671 0.12805 0.27743 0.29877-0.10671 0.6829 0.38413 0.0853 1.2804 0.70425 0.53352 0.0427 0.59754-0.44816 0.83229-0.27743 0.23475-0.23475 0.21341-0.61888v-0.91766l-0.87498-0.87497h-0.72558l-0.81095-0.14939-0.44816-0.40548v-0.27742l0.19207-0.38414-0.27743-0.98169-0.29877-0.87496-0.81094-0.64023 0.5762-0.61889v-0.23475l0.53351-0.96034 0.3628-0.66156 0.17072-0.0853 0.5762 0.0853 0.51218-0.21341 0.59754-0.55486z" style="dominant-baseline:auto;fill:#fff;font-feature-settings:normal;font-variant-alternates:normal;font-variant-caps:normal;font-variant-ligatures:normal;font-variant-numeric:normal;font-variant-position:normal;paint-order:stroke markers fill;shape-padding:0;text-decoration-color:#000000;text-decoration-line:none;text-decoration-style:solid;text-indent:0;text-orientation:mixed;text-transform:none;white-space:normal"/>
    <path d="m513.81 504-0.23475-0.68291-0.27743-0.53352-0.17073-0.0427-0.7896-0.64022-0.34146-0.32012-0.23474-0.55486-0.21341-0.98168-0.34145-0.66156-0.17073-0.68291-0.1067-0.59754-0.12804-1.3445-0.42682-0.57621-0.0427-0.83229 0.19207-0.78962-0.46949-0.72558-0.40547-1.3018-0.53353-0.3628-0.25609-0.34145-0.34145-0.12805-1.1097 1.1524-0.0853 0.91765-0.27743 0.51218-0.32011 1.5792-0.66156 1.8566-0.12804 0.70425-0.27744 0.6829-0.0213 0.51218-0.27742 0.57621-0.17073 1.3872-0.66156 1.0244-0.55486 0.12804-0.74693 0.38414v0.32011l0.19206 0.51218 0.66157 0.27743h0.32011l0.6829 0.17073 0.29877-0.12805h0.76827l0.27743-0.14938h0.74693l0.34145-0.40548 0.36279-0.19207-0.0427-0.14938-1.2591-0.96034-0.12805-0.3628 0.81095-1.3018 0.42681-0.0427 0.4695 0.32011 1.5365-0.1067 0.23475 0.23474v1.5792l-0.23475 0.27743-0.98167 0.14939-0.32011 0.23474v0.17073l0.27743 0.0853 0.96033 0.74694h0.74693l0.7896-0.12805 1.0244 0.27743 0.51218 0.0853 0.40548-0.3628 0.5762-0.27743zm-4.4175-4.8657-0.27744 0.40548-0.32011 0.14938-0.64022-0.1067-0.64022 0.1067-0.19207-0.14938 0.19207-1.1097 0.21341-0.68291v-0.66156l0.23474-0.68291 0.19207-0.29878 0.23475-0.53351h0.17073l0.29876 0.55486 0.12805 0.78961-0.0427 0.72559v0.38413l0.44816 0.68291z" style="dominant-baseline:auto;fill:#fff;font-feature-settings:normal;font-variant-alternates:normal;font-variant-caps:normal;font-variant-ligatures:normal;font-variant-numeric:normal;font-variant-position:normal;paint-order:stroke markers fill;shape-padding:0;text-decoration-color:#000000;text-decoration-line:none;text-decoration-style:solid;text-indent:0;text-orientation:mixed;text-transform:none;white-space:normal"/>
    <path d="m319.47 504.67h3.5909l-1.2453-13.071h-3.9606l-1.4276 5.4153-1.4836-5.4153h-4.2331l-1.0465 13.071h3.2729l0.56946-4.8093 0.2006-1.2165 0.17051 0.33881 1.3794 5.6866h2.2613l1.4776-5.7263 0.13075-0.29905 0.10484 1.2165z" style="dominant-baseline:auto;fill:#fff;font-feature-settings:normal;font-variant-alternates:normal;font-variant-caps:normal;font-variant-ligatures:normal;font-variant-numeric:normal;font-variant-position:normal;paint-order:stroke markers fill;shape-padding:0;text-decoration-color:#000000;text-decoration-line:none;text-decoration-style:solid;text-indent:0;text-orientation:mixed;text-transform:none;white-space:normal"/>
    <path d="m339.58 491.6h-3.5762v5.055h-1.903v-5.055h-3.5762v13.071h3.5762v-5.2075h1.903v5.2075h3.5762z" style="dominant-baseline:auto;fill:#fff;font-feature-settings:normal;font-variant-alternates:normal;font-variant-caps:normal;font-variant-ligatures:normal;font-variant-numeric:normal;font-variant-position:normal;paint-order:stroke markers fill;shape-padding:0;text-decoration-color:#000000;text-decoration-line:none;text-decoration-style:solid;text-indent:0;text-orientation:mixed;text-transform:none;white-space:normal"/>
    <path d="m352.85 495.47v5.3344c0 0.29881-0.24274 0.52289-0.52284 0.52289h-0.83885c-0.28009 0-0.52285-0.22408-0.52285-0.52289v-5.3344c0-0.2801 0.24276-0.52289 0.52285-0.52289h0.83885c0.2801 0 0.52284 0.24279 0.52284 0.52289zm3.6267-2.1132c0-0.97104-0.78428-1.7553-1.7553-1.7553h-5.6274c-0.95233 0-1.7553 0.78428-1.7553 1.7553v9.5607c0 0.97104 0.80295 1.7553 1.7553 1.7553h5.6274c0.97099 0 1.7553-0.78428 1.7553-1.7553z" style="dominant-baseline:auto;fill:#fff;font-feature-settings:normal;font-variant-alternates:normal;font-variant-caps:normal;font-variant-ligatures:normal;font-variant-numeric:normal;font-variant-position:normal;paint-order:stroke markers fill;shape-padding:0;text-decoration-color:#000000;text-decoration-line:none;text-decoration-style:solid;text-indent:0;text-orientation:mixed;text-transform:none;white-space:normal"/>
    <path d="m368.24 504.67v-10.176h3.8469l0.50603-2.8958h-8.317v13.071z" style="dominant-baseline:auto;fill:#fff;font-feature-settings:normal;font-variant-alternates:normal;font-variant-caps:normal;font-variant-ligatures:normal;font-variant-numeric:normal;font-variant-position:normal;paint-order:stroke markers fill;shape-padding:0;text-decoration-color:#000000;text-decoration-line:none;text-decoration-style:solid;text-indent:0;text-orientation:mixed;text-transform:none;white-space:normal"/>
    <path d="m385.2 495.47v5.3344c0 0.29881-0.24275 0.52289-0.52285 0.52289h-0.83885c-0.2801 0-0.52286-0.22408-0.52286-0.52289v-5.3344c0-0.2801 0.24276-0.52289 0.52286-0.52289h0.83885c0.2801 0 0.52285 0.24279 0.52285 0.52289zm3.6267-2.1132c0-0.97104-0.78428-1.7553-1.7553-1.7553h-5.6274c-0.95233 0-1.7553 0.78428-1.7553 1.7553v9.5607c0 0.97104 0.80295 1.7553 1.7553 1.7553h5.6274c0.97099 0 1.7553-0.78428 1.7553-1.7553z" style="dominant-baseline:auto;fill:#fff;font-feature-settings:normal;font-variant-alternates:normal;font-variant-caps:normal;font-variant-ligatures:normal;font-variant-numeric:normal;font-variant-position:normal;paint-order:stroke markers fill;shape-padding:0;text-decoration-color:#000000;text-decoration-line:none;text-decoration-style:solid;text-indent:0;text-orientation:mixed;text-transform:none;white-space:normal"/>
  </g>
</svg>
