<svg version="1.1" viewBox="0 0 498 291" xmlns="http://www.w3.org/2000/svg"  width="498" height="291">
  <g transform="translate(0 -831.52)">
    <path d="m0 831.52v6.5722l6.5723-6.5722zm30 0-30 30v25.453l55.453-55.453zm48.879 0-78.879 78.879v25.453l104.33-104.33zm48.881 0-127.76 127.76v25.453l153.21-153.21zm48.881 0-176.64 176.64v25.453l202.09-202.09zm48.881 0-225.52 225.52v25.453l250.97-250.97zm48.881 0-274.4 274.4v16.598h8.8555l291-291zm48.879 0-291 291h25.453l291-291zm48.881 0-291 291h25.453l291-291zm48.881 0-291 291h25.453l291-291zm48.881 0-291 291h25.453l291-291zm28.076 20.803-270.2 270.2h25.453l244.74-244.74zm0 48.881-221.32 221.32h25.453l195.86-195.86zm0 48.881-172.44 172.44h25.453l146.98-146.98zm0 48.881-123.55 123.55h25.453l98.102-98.102zm0 48.881-74.674 74.674h25.453l49.221-49.221zm0 48.879-25.795 25.795h25.453l0.3418-0.3418z" style="color-rendering:auto;color:#000000;dominant-baseline:auto;fill:#ddd;font-feature-settings:normal;font-variant-alternates:normal;font-variant-caps:normal;font-variant-ligatures:normal;font-variant-numeric:normal;font-variant-position:normal;image-rendering:auto;isolation:auto;mix-blend-mode:normal;shape-padding:0;shape-rendering:auto;solid-color:#000000;text-decoration-color:#000000;text-decoration-line:none;text-decoration-style:solid;text-indent:0;text-orientation:mixed;text-transform:none;white-space:normal"/>
  </g>
</svg>
