<?xml version="1.0" encoding="utf-8"?>
<!-- Generator: Adobe Illustrator 20.1.0, SVG Export Plug-In . SVG Version: 6.00 Build 0)  -->
<svg version="1.1" id="Слой_1" xmlns="http://www.w3.org/2000/svg" xmlns:xlink="http://www.w3.org/1999/xlink" x="0px" y="0px"
	 viewBox="0 0 512 512" style="enable-background:new 0 0 512 512;" xml:space="preserve">
<style type="text/css">
	.st0{fill:#0E6897;}
</style>
<g>
	<g>
		<path class="st0" d="M157.1,254.1h187.8c11.3,0,20.5-9.1,20.5-20.4c0-11.3-9.2-20.4-20.5-20.4H157.1c-11.3,0-20.5,9.1-20.5,20.4
			C136.6,245,145.8,254.1,157.1,254.1L157.1,254.1z"/>
		<g>
			<path class="st0" d="M157.1,358.3h187.8c11.3,0,20.5-9.1,20.5-20.4s-9.2-20.4-20.5-20.4H157.1c-11.3,0-20.5,9.1-20.5,20.4
				S145.8,358.3,157.1,358.3L157.1,358.3z"/>
			<path class="st0" d="M429.9,460.1H95.7c-17.4,0-13.7-11.4-13.7-24.8V130c6.2,2.1,12.8,3.3,19.6,3.3h328.3L429.9,460.1
				L429.9,460.1z M101.6,51.9h288.9c-7.6,11.5-7.6,29.3,2.7,40.6H101.6C90.8,92.5,82,83.6,82,72.2C81.9,60.8,90.7,51.9,101.6,51.9z
				 M449.5,87.6c-0.4,0-6.1,0-6.3,0c-9.6-0.4-17.2-8.2-17.2-17.8c0-9.2,7-16.8,15.9-17.7l5.9-0.1c11.3,0,20.5-9.1,20.5-20.4
				s-9.2-20.4-20.5-20.4H101.6C68.2,11,41,38.1,41,71.4v363.9c0,36.2,14.4,65.6,54.7,65.6h354.5c11.2,0,20.4-9.1,20.5-20.3
				l0.3-370.2C471,97.9,461.8,87.6,449.5,87.6L449.5,87.6z"/>
		</g>
	</g>
</g>
</svg>
