<?xml version="1.0" encoding="utf-8"?>
<!-- Generator: Adobe Illustrator 20.1.0, SVG Export Plug-In . SVG Version: 6.00 Build 0)  -->
<svg version="1.1" id="Слой_1" xmlns="http://www.w3.org/2000/svg" xmlns:xlink="http://www.w3.org/1999/xlink" x="0px" y="0px"
	 viewBox="0 4 265 2" width="640" style="enable-background:new 0 0 265 10;" >
<style type="text/css">
	.st0{fill:#D0CFD0;}
</style>
<g>
	<path class="st0" d="M0,5.2c0,0,4.1,0,11.4-0.1C18.6,5.1,29,5,41.4,5c24.8,0,58,0,91.1-0.1C165.6,5,198.8,5,223.6,5
		c12.4,0,22.8,0.1,30,0.1c7.3,0.1,11.4,0.1,11.4,0.1s-4.1,0-11.4,0.1c-7.2,0-17.6,0.1-30,0.1c-24.8,0.1-58,0.1-91.1,0.1
		C99.4,5.4,66.3,5.4,41.4,5.4C29,5.3,18.6,5.3,11.4,5.3C4.1,5.2,0,5.2,0,5.2z"/>
</g>
</svg>
