<?xml version="1.0" encoding="utf-8"?>
<!-- Generator: Adobe Illustrator 20.1.0, SVG Export Plug-In . SVG Version: 6.00 Build 0)  -->
<svg version="1.1" id="Слой_1" xmlns="http://www.w3.org/2000/svg" xmlns:xlink="http://www.w3.org/1999/xlink" x="0px" y="0px"
	 viewBox="0 0 500 489.9" style="enable-background:new 0 0 500 489.9;" xml:space="preserve">
<g transform="translate(0.000000,976.000000) scale(0.100000,-0.100000)">
	<path d="M4834.6,9728.6c-68.4-36.3-114.7-64.1-249.4-148.2l-100.5-62.7H2243.1H0.7L0,7289.6C0,4962.5,0,4870.5,3.6,4867
		c1.4-1.4,1048.1-2.9,2326.4-4.3l2323.6-1.4v2226v2226l16.4,13.5c8.6,7.8,23.5,20.7,33.5,29.2c32.1,28.5,186,156,240.1,198.8
		c29.2,22.8,54.2,46.3,56.3,52c3.6,9.3-93.3,153.2-102.6,153.2C4894.4,9760,4866.7,9745.7,4834.6,9728.6z M3574.8,8746.8
		c-303.5-303.5-457.5-464.6-627.7-657.7c-27.1-31.4-62.7-71.3-78.4-89.1c-54.9-61.3-228.7-267.2-274.3-324.9c-10-12.1-42-52-72-89.1
		c-72.7-90.5-224.5-292.1-300-399.7c-81.2-114.7-214.5-317.8-257.9-391.9c-10.7-19.2-20.7-34.2-22.1-34.2
		c-0.7,0-17.1,36.3-35.6,80.5c-51.3,120.4-168.9,359.8-210.9,430.4c-104,174.6-198.8,284.3-284.3,329.9
		c-44.2,23.5-49.9,24.9-114,24.2c-39.9,0-86.9-5.7-113.3-12.8c-98.3-26.4-240.1-106.9-342.7-193.1
		c-52.7-44.9-149.6-138.2-149.6-144.6c0-2.9,18.5-12.1,42-21.4c85.5-33.5,203.8-126.1,292.9-229.4c20-22.1,121.1-168.2,121.1-173.9
		c0-2.1,14.3-27.8,32.1-57c109-178.8,376.2-793.8,464.6-1067.4c10.7-34.2,22.8-62.7,26.4-62.7c2.9,0,22.8,15.7,44.2,34.9
		c20.7,19.2,75.5,62.7,121.8,97.6c46.3,34.2,95.5,71.3,109,81.2c14.3,10.7,86.2,60.6,160.3,110.4
		c195.9,131.8,180.3,116.9,241.6,239.4c29.9,58.4,61.3,119.7,70.5,136.8c10,16.4,29.9,54.2,45.6,83.4
		c57.7,108.3,216.6,374.1,325.6,546.5c60.6,95.5,298.6,451,351.3,525.9c27.8,39.2,60.6,85.5,72.7,103.3
		c256.5,371.9,622.8,837.9,883.6,1125.1c29.9,32.8,61.3,67.7,69.8,78.4l15.7,18.5l0.7-199.5c0-169.6,0-2138.3,0-3029.7v-280H2327.2
		H471v30.6c0,56.3,0,2763.2,0,3224.3v457.5h1703h1703L3574.8,8746.8z"/>
</g>
</svg>
