<?xml version="1.0" encoding="utf-8"?>
<!-- Generator: Adobe Illustrator 20.1.0, SVG Export Plug-In . SVG Version: 6.00 Build 0)  -->
<svg version="1.1" id="Слой_1" xmlns="http://www.w3.org/2000/svg" xmlns:xlink="http://www.w3.org/1999/xlink" x="0px" y="0px"
	 viewBox="0 0 500.2 499.2" style="enable-background:new 0 0 500.2 499.2;" xml:space="preserve">
<g transform="translate(0.000000,1681.000000) scale(0.100000,-0.100000)">
	<path d="M2287.3,16805.7c-17.8-1.5-43.4-3.9-56.5-5.7c-13.1-1.8-39.9-5.4-59.5-7.7c-160.3-18.7-315-53.2-461.9-102.3
		c-143.4-47.6-205.8-73.5-342.7-141.9c-251.4-125.5-499.1-315.6-699.9-536.3c-23.2-25.3-46.1-50.9-51.5-56.5
		c-42.5-46.7-147.8-182.3-200.5-258.2C200.4,15388,72.2,15048,24,14659.8c-21.7-174.6-22.9-192.5-21.7-354
		c1.2-185.9,9.2-291.5,33.3-436.1c88.6-530.4,339.4-995.9,739.8-1372.8c33.3-31.5,71.7-66.9,85.4-78.8c13.7-11.9,28.6-25,32.7-28.9
		c4.2-3.9,29.2-24.1,55-44.9c26.2-20.5,52.4-41.6,58-46.7c15.2-13.1,98.2-72,149-105.6c115.7-76.7,280.5-163,407.5-213
		c75-29.7,217.7-76.1,284.4-93.1c105-26.2,221-47.3,329-59.5c28.3-3.3,53.2-6.5,55.6-7.4c2.7-0.6,30.6-3.3,62.5-5.9
		c41.9-3.3,100.2-4.5,215.7-4.5c149,0,208.2,2.1,260.6,9.2c12.2,1.5,43.7,5.7,69.9,8.9c99.9,12.5,210.6,33.3,309.4,58
		c59.8,15.2,223.7,68.7,290,94.9c147.5,58,322.4,151.1,452.1,240.6c48.8,33.6,98.5,69,111.5,80c5.1,4.2,29.2,23.5,53.8,43.1
		c180.3,144,360.2,338.5,514.9,556.8c225.5,318,357.2,660.1,408.1,1058.9c24.1,188.9,28.3,421.5,10.7,611.3
		c-21.4,229.6-74.7,454.8-157.4,664.2c-78.2,198.7-184.7,390.9-305.2,550.9c-49.4,66-62.8,82.7-102,128.8
		c-109.2,127.6-231.1,246-359,348.6c-71.7,57.7-90.1,71.7-135.3,103.8c-24.7,17.3-50.9,36-58.3,41.6c-53.2,38.7-180,112.7-260,152
		c-130.9,64-172.2,81.5-284.4,119c-35.4,11.9-65.7,22.3-67.2,23.2c-3.9,2.4-67.8,20.2-112.7,31.5c-85.4,21.4-199,42.5-291.2,53.8
		c-27.7,3.3-65.1,8-83.3,10.4c-17.8,2.4-52.4,5.7-76.4,7.4C2648.1,16809.6,2335.8,16809.3,2287.3,16805.7z M2612.1,16639.1
		c192.5-8.9,402.8-42.5,570.5-91.3c40.5-11.6,149-50,205.8-72.6c46.4-18.4,181.2-83.3,229.9-111c56.8-32.1,151.7-93.4,214.5-138.6
		c58.6-42.5,102.3-75,106.8-80c0.9-0.9,22.9-19,49.1-40.5c86.3-70.5,172.2-152,244.8-231.7c66.6-72.9,77-85.1,147.8-175.5
		c8.9-11.6,33-45.5,67.5-95.2c64.5-93.7,141.6-232.9,192.8-349.5c136.2-310.5,199-629.7,192.5-981.6
		c-4.2-223.1-29.7-409.3-82.7-602.3c-83.3-302.8-220.7-565.2-429.8-819.8c-53.5-65.4-187.4-212.4-203.8-224
		c-2.7-1.8-24.1-21.4-47.6-43.7c-54.4-51.8-131.2-116-190.1-159.7c-25.3-19-52.6-39.3-61-45.5c-31.2-22.9-122.6-80.9-182.9-115.7
		c-53.2-30.6-180.3-91.6-240.9-116c-192.5-76.7-340.9-114.2-575.6-146.1c-127.9-17.3-221.3-23.5-345.6-23.5
		c-152.9,0-280.2,12.2-437.9,41.6c-91.3,17.3-224.3,51.2-268.3,68.7c-8.9,3.3-36,13.4-60.7,22c-132.1,46.1-274.6,115.4-406.9,197.2
		c-75.9,47-182.6,122.3-232.6,163.9c-13.1,11-39.9,33-59.5,49.4c-119,98.2-250.8,232.6-350.1,357.2
		c-267.7,336.1-428.6,729.4-476.5,1165.7c-22.3,200.8-16.1,424.5,17.8,639.5c77,492,285.9,904.6,637.2,1259.1
		c79.4,80.3,122.8,120.5,193.9,179.4c70.2,58.3,67.2,55.9,143.4,110.4c56.8,40.8,104.1,71.1,190.7,122.6
		c43.4,25.9,189.5,97.3,244.5,119.3c47.6,19.3,81.8,31.5,177,64.5c89.5,30.9,259.4,67.2,399.8,85.7c25.9,3.3,48.2,6.5,49.1,7.1
		c2.1,1.5,127.6,10.4,160.9,11.6C2454.5,16642.7,2550.6,16642.1,2612.1,16639.1z"/>
	<path d="M2353.9,16185.5c-80-161.2-145.5-293.9-145.5-294.5s37.2-1.2,83-1.2h82.7l2.1-18.7c2.1-20.5,2.4-1334.7,0.3-1334.7
		c-1.8,0-573.8,330.2-576.5,333.2c-1.5,1.2,14.9,32.7,36.3,69.6c21.4,36.9,39,68.4,39,70.2c0,3.3,1.2,3.3-22.3,4.5
		c-9.8,0.6-28,1.8-40.2,3c-12.2,0.9-30.9,2.4-41.6,3s-32.1,1.8-47.6,2.7s-41,2.4-56.5,3.3c-15.5,0.6-37.5,2.4-49.1,3.3
		c-22.3,2.1-26.8,2.4-87.7,5.7c-22,1.2-44.9,2.7-50.6,3c-34.8,3-63.7,5.1-83.3,5.9c-22.6,0.9-90.7,4.8-110.1,5.9
		c-5.7,0.6-10.4,1.2-10.4,1.5s-12.5,1.2-27.4,1.8c-15.2,0.6-27.7,0.3-27.7-0.6c0-2.1,6.5-14.3,8.6-16.1c0.9-0.9,7.4-10.1,14.3-20.8
		c7.1-10.7,13.7-20.5,14.9-22.3c1.5-1.5,8.3-12.2,15.8-23.8c7.1-11.3,14-21.4,14.9-22.3s6.2-8.9,12.2-17.8c5.9-8.9,36.3-55,67.8-102
		c31.2-47,56.8-86.9,56.8-88.3c0-1.2,1.2-3,2.4-3.6c1.5-0.3,21.4-29.7,44.6-64.8c22.9-35.1,43.1-65.1,44.3-66.9
		c1.2-1.5,8.3-12.2,15.8-23.8c7.4-11.3,14.3-22,15.8-23.8c1.2-1.5,9.2-13.7,17.8-26.5c8.3-13.1,17-24.1,18.4-24.7
		c1.8-0.6,21.1,30,43.1,68.1c21.7,38.1,40.2,69.9,40.8,70.5c0.6,0.9,4.8-0.9,9.5-3.6c4.5-2.7,8.9-4.5,9.5-3.9
		c0.6,0.9,155.9-88,344.8-196.9l343.6-198.4l0.9-152.6l0.6-152.3h125h124.9v78.8c0,50.6,1.2,78.8,3,78.8s3-1.2,3-2.4
		c0-1.5,5.4-5.4,11.9-9.2c6.5-3.6,11.9-5.9,11.9-5.1s28.6-14.9,63.4-35.1l63.4-36.6l60.4,105c33.3,57.4,61.9,106.2,63.7,108
		c2.1,2.1,2.1,4.2,0.6,5.9c-1.8,1.8-64,38.1-138.3,80.9c-74.4,42.8-137.1,79.4-139.2,81.2c-3,3-3.3,146.3-1.8,755.2l2.1,751.7h80
		c59.2,0,79.7,0.9,79.7,3.6c0,1.8-54.4,112.7-120.8,246c-66.3,133.6-130.9,263.8-143.4,289.7c-12.5,25.6-23.8,46.7-25.3,46.7
		C2500.9,16478.8,2434.3,16346.7,2353.9,16185.5z"/>
	<path d="M1524.3,16207.5c-5.7-3.3-39.3-22.6-74.4-42.5c-89.8-50.9-112.7-64.8-113-69c0-1.8,13.7-26.8,30.3-55
		c16.4-28.3,39-66.9,50-85.7c26.5-45.8,33-56.5,34.2-56.5c0.9,0,52.4,29.4,144.3,82.7c28.6,16.7,53.2,30.6,55,31.2
		c1.5,0.6-3.3,11.6-10.7,24.7c-24.1,41.9-101.1,172.2-103.5,174.3C1535.6,16212.9,1530,16211.1,1524.3,16207.5z"/>
	<path d="M3450.4,16185.2c-9.5-16.1-26.2-44.6-37.2-63.4c-11-18.7-28.9-49.4-39.6-67.8c-11-18.4-19.9-35.4-19.9-37.8
		c0-2.1,19-14.9,42.5-28.3c23.2-13.7,46.1-27.4,50.9-30.6c18.1-12.8,103.8-61.3,105.9-60.1c1.2,0.6,9.2,13.7,17.8,28.9
		c8.9,15.2,34.5,59.5,57.1,98.5s41,72.3,41,73.8s-1.2,2.7-2.7,2.7c-1.8,0-19.9,10.1-40.8,22.6c-20.8,12.2-59.5,34.5-85.7,49.4
		c-26.5,14.9-53.5,30-60.1,33.9l-12.5,7.4L3450.4,16185.2z"/>
	<path d="M709,15469.8c-3.6-6.8-39-68.7-85.1-147.8c-13.4-23.5-24.7-44.3-24.7-46.1c0-2.1,10.4-9.5,23.2-16.7
		c69.6-39,95.2-53.8,134.2-76.7c45.5-27.1,42.8-26.5,52.6-8.3c2.7,4.5,27.4,47.9,55,95.8c47,82.1,54.1,96.4,47.6,96.4
		c-2.7,0-147.5,81.5-153.2,86s-40.8,24.1-43.7,24.1C713.8,15476.4,710.8,15473.4,709,15469.8z"/>
	<path d="M4262.4,15463c-11.3-7.1-54.7-32.7-95.8-56.8c-41.3-24.1-75.3-44.6-75.3-45.8s10.4-20.2,23.2-41.9
		c12.8-22,38.4-66,56.8-97.9c18.4-31.8,34.5-58.9,35.7-60.4c1.2-1.2,14.3,5.1,28.9,14s58.3,34.8,97.3,57.1
		c38.7,22.6,70.5,42.8,70.5,44.9c0,2.4-9.2,19.9-20.2,39c-11.3,19-36.9,63.4-56.8,98.2c-20.2,34.5-38.1,63.1-40.2,62.8
		C4284.7,15476.1,4274,15470.1,4262.4,15463z"/>
	<path d="M370.2,14308.8v-114.5h113h113v114.5v114.5h-113h-113V14308.8z"/>
	<path d="M4400.7,14308.8v-114.5h113h113v114.5v114.5h-113h-113V14308.8z"/>
	<path d="M770.3,13445.9c-14.6-9.2-58.6-34.8-97.3-56.8c-39-22.3-70.8-41.6-70.8-43.4c0-2.7,30-55.6,82.1-144
		c13.7-23.2,26.5-45.5,28.6-49.7c1.8-4.2,4.2-7.7,5.4-7.7c0.9,0,10.4,5.4,21.1,11.6c10.4,6.5,54.7,32.4,98.8,57.1
		c43.7,25,79.4,47,79.4,49.1s-8.6,18.1-18.7,36c-10.4,17.5-36.3,61.9-57.1,98.5c-21.1,36.3-39.6,66-41.3,65.7
		C798.5,13462.3,785.2,13454.8,770.3,13445.9z"/>
	<path d="M4193.7,13453.1c-4.5-9.2-26.8-47.6-84.8-148.4c-13.1-22.3-23.5-41.6-23.5-43.1s3.6-5.1,8.3-7.4c4.5-2.7,41.6-23.8,82.4-47
		c41-23.5,82.1-47.3,91.6-52.9c9.5-5.7,17.8-9.8,18.4-9.2c3.3,3.3,112.7,194.8,113.6,199c1.5,5.4,4.5,3.6-92.8,58.9
		c-29.4,16.7-64.3,37.2-77.3,44.9c-13.1,8-25.6,14.6-27.4,14.9C4200.3,13462.6,4196.4,13458.1,4193.7,13453.1z"/>
	<path d="M1433,12691c-11.3-19.6-36.9-64.3-56.8-98.8s-36.3-64.3-36.3-66c0-1.8,9.8-8.9,21.7-15.8c11.6-6.8,25-14.9,29.2-17.8
		c11.6-7.7,145.5-83,147.8-83c1.2,0,15.2,22.3,30.9,50c15.8,27.4,41.3,72,57.1,99.3c15.8,27.1,28.6,50.3,28.6,51.2
		c0,0.6-17,11-37.8,22.6c-21.1,11.9-46.1,26.5-55.9,32.7s-38.1,22.6-62.8,36.6l-44.9,25L1433,12691z"/>
	<path d="M3494.7,12695.7c-69.6-41.3-125.8-74.7-134.2-79.7c-3.9-2.4-6.8-5.9-6.8-7.7s8.6-18.1,19-36.3
		c44.6-77.6,86.9-150.2,91.3-156.5l4.8-7.1l69.6,40.5c61,35.1,124.3,72.6,127,75.3c0.6,0.6-8.6,17.5-20.2,37.8
		c-11.9,19.9-38.1,65.7-58.6,101.4c-20.2,35.4-37.2,64.5-37.5,64.3C3548.8,12727.6,3524.4,12713,3494.7,12695.7z"/>
	<path d="M2387,12298v-114.5h113h113v114.5v114.5h-113h-113V12298z"/>
</g>
</svg>
