<svg xmlns="http://www.w3.org/2000/svg" xmlns:xlink="http://www.w3.org/1999/xlink" width="21" height="21" viewBox="0 0 21 21"><defs><path id="e9qta" d="M1515.57 120.2v5.6c0 .75-.6 1.35-1.35 1.35h-5.71v-6.94zm-9.08 6.95h-5.7c-.75 0-1.35-.6-1.35-1.34v-5.6h7.05zm-4.72-1.91v-2.8a.5.5 0 0 0-1 0v2.8a.5.5 0 0 0 1 0zm14.23-8.95v1.14c0 .74-.6 1.35-1.34 1.35h-6.15V115h-2.02v3.78h-6.15c-.74 0-1.34-.6-1.34-1.35v-1.14c0-.74.6-1.35 1.34-1.35h2.59a3.2 3.2 0 0 1-.88-.54 2.66 2.66 0 0 1 3.77-3.77c.43.44.85 1.52 1.2 2.63.15-.05.31-.08.48-.08.18 0 .34.03.5.08.34-1.1.75-2.17 1.18-2.6a2.66 2.66 0 0 1 3.77 0 2.66 2.66 0 0 1 0 3.77c-.18.17-.47.35-.82.51h2.53c.74 0 1.34.6 1.34 1.35zm-6.87-2.14c.07.12.12.24.16.38 1.34-.39 2.43-.8 2.71-1.06.25-.24.38-.57.38-.93a1.3 1.3 0 0 0-1.31-1.31c-.35 0-.69.13-.93.38a8.94 8.94 0 0 0-1 2.54zm-6.13-.7c.28.26 1.38.67 2.73 1.05.04-.12.09-.24.15-.35a9.05 9.05 0 0 0-1.02-2.57 1.31 1.31 0 0 0-1.86 0 1.32 1.32 0 0 0 0 1.87z"/></defs><g><g transform="translate(-1497 -108)"><use fill="#07485f" xlink:href="#e9qta"/></g></g></svg>