<?xml version="1.0" encoding="utf-8"?>
<!-- Generator: Adobe Illustrator 20.1.0, SVG Export Plug-In . SVG Version: 6.00 Build 0)  -->
<svg version="1.1" id="Слой_1" xmlns="http://www.w3.org/2000/svg" xmlns:xlink="http://www.w3.org/1999/xlink" x="0px" y="0px"
	 viewBox="0 0 500 274.8" style="enable-background:new 0 0 500 274.8;" xml:space="preserve">
<g transform="translate(0.000000,819.000000) scale(0.100000,-0.100000)">
	<path d="M1827.8,8165.2c-19.9-13.2-146.2-93.8-281.4-179.3c-135.2-85.5-254.3-161.1-264.8-168.3c-23.2-14.9-125.8-80-198.1-125.2
		c-51.3-32.5-51.9-32.5-63.4-22.1c-43,39.2-150.1,97.6-221.2,121.9c-104.3,34.8-261.5,46.9-342.1,25.9
		c-138.5-35.3-243.8-131.9-321.1-293.5C85,7417.1,56.3,7317.8,31.4,7161.1c-11.6-74.5-16.6-302.3-8.3-378.5
		c34.2-302.9,144.5-549.5,365.2-814.9c15.4-18.8,27.6-35.9,25.9-37c-2.8-3.3-176.5-37.5-249.9-49.1c-30.3-5-80-11-109.8-13.2
		L0,5864.6l1.1-44.1c0.6-24.3,2.2-44.7,2.8-45.2c4.4-4.4,235,34.8,374.6,62.9l98.2,19.9l34.2-33.1
		c193.6-187.6,452.9-319.4,746.4-379.6l17.1-3.3l7.2,44.7c3.9,24.3,6.1,45.2,5,46.3c-1.1,0.6-23.2,5.5-49.1,11
		c-126.3,25.9-309.5,102.6-424.8,178.2c-83.9,55.2-206.9,156.7-198.1,163.3c1.1,1.1,32.5,11,70.1,22.1
		c113.6,34.8,214.1,81.1,301.8,139c44.7,29.8,133.5,103.7,147.3,123c3.9,5.5,13.8,18.2,22.1,28.1l15.4,17.7l97.6-61.8
		c54.1-34.2,121.9-76.7,150.6-94.9c28.7-17.7,88.3-55.2,132.4-83.9c44.1-28.1,133.5-85.5,199.2-126.3l118.6-75l1565.2,1.1
		l1565.2,1.7v1075.8c0,592,0,1134.8,0,1207.1V8190l-1567.9-0.6H1863.6L1827.8,8165.2z M4922.8,6981.8V5856.3H3406.7H1891.2
		l-27.6,18.2c-15.4,10.5-93.2,60.1-173.8,111.4c-80.5,50.8-158.3,100.4-173.8,110.3c-69,44.7-281.9,179.3-398.9,251.6
		c-70.6,43.6-144,89.4-162.7,101.5l-34.2,22.1v510.3v510.3l49.7,34.2c27.6,18.8,52.4,34.2,55.7,34.8c8.8,0,82.2-78.3,118.6-126.9
		c41.4-55.2,66.8-96,93.8-149.5l22.1-44.7l-35.3-37c-103.7-107.6-121.9-249.4-47.4-365.2c46.3-71.7,119.7-129.6,192-150.6
		c37.5-11,109.2-11,149.5-0.6c86.1,22.6,169.9,91.6,206.9,168.8c56.8,120.3,34.2,249.4-60.7,344.3c-85,85-200.3,114.8-320,82.8
		c-9.4-2.8-14.9,4.4-34.8,44.1c-13.2,25.9-40.8,71.7-60.7,101.5c-37,54.6-130.2,166.1-139.6,166.1c-14.9,0,1.7,13.8,60.1,50.8
		c124.7,80,225.1,144,260.4,167.2c19.9,12.7,99.3,63.4,176.5,113.1c77.2,49.1,164.4,104.8,193.1,123.6
		c28.7,18.8,61.2,39.7,71.7,46.3l19.3,12.1h1516.1h1515.5V6981.8z M644.4,7718.3c46.9-3.3,110.9-16.6,168.8-35.9
		c39.7-13.2,142.9-60.7,142.9-65.7c0-1.7-26.5-20.4-57.9-41.4l-57.9-38.1v-555v-555l92.7-57.9c131.3-81.7,144.5-90.5,144.5-94.9
		c0-8.8-64.5-78.9-106.5-115.3c-101.5-88.3-172.1-121.4-364.1-169.4l-86.6-22.1l-40.3,48c-188.7,222.9-294.1,434.7-341.5,687.4
		c-11.6,60.1-12.7,82.2-12.1,234.5c0,168.3,2.8,206.9,24.3,331c32,185.4,107,326.1,210.2,395c60.7,40.3,153.4,65.7,220.1,59.6
		C591.4,7722.2,620.1,7720,644.4,7718.3z"/>
</g>
</svg>
