<?xml version="1.0" encoding="utf-8"?>
<!-- Generator: Adobe Illustrator 20.1.0, SVG Export Plug-In . SVG Version: 6.00 Build 0)  -->
<svg version="1.1" id="Слой_1" xmlns="http://www.w3.org/2000/svg" xmlns:xlink="http://www.w3.org/1999/xlink" x="0px" y="0px"
	 viewBox="0 0 500 474.5" style="enable-background:new 0 0 500 474.5;" xml:space="preserve">
<g transform="translate(0.000000,1300.000000) scale(0.100000,-0.100000)">
	<path d="M2359.9,12976.3c1.4-13.2,6.8-76.7,11.9-140.5c14.6-186.2,40.6-502.8,50.2-613.7c7.8-90.3,18.3-227.2,18.3-239.1
		c0-5.9,0.9-10,2.3-8.7c1.4,1.4,6.8,42.4,11.9,90.8c5,48.8,10,96.7,11,106.8c1.4,10,6.4,59.3,11.4,109.5
		c13.2,128.2,25.6,250,36,351.3c5,47.9,12.3,119.5,16.4,159.7c4.1,40.2,10,98.6,13.7,130c3.7,31.5,6.8,62.1,6.8,67.5v10h-96.3h-96.3
		L2359.9,12976.3z"/>
	<path d="M961.9,12692c-38.8-31.5-70.3-59.3-69.8-61.6c0.9-2.3,24.2-42.9,52-89.9c27.8-47,66.6-112.2,86.2-145.1
		c19.2-32.4,52.9-89.9,75.3-127.8c21.9-37.4,48.8-82.6,59.8-100.4c10.5-17.3,69.8-118.2,131.9-223.6
		c62.1-105.4,114.5-193.5,116.4-195.7c3.7-3.7-43.3,123.7-111.8,303c-16.4,43.8-41.1,109.5-54.8,146s-40.2,107.2-59.3,157.4
		c-19.2,50.2-46.1,120.9-59.3,157.4c-29.7,78.9-65.7,174.8-79.4,211.3c-5.5,14.1-11.9,26-13.7,26
		C1034,12749,1000.6,12723.5,961.9,12692z"/>
	<path d="M3959.7,12747.7c0-0.9-18.7-50.6-41.5-110.9c-22.8-59.8-60.7-160.2-84-223.1c-50.6-134.1-106.3-282.9-188.4-499.6
		c-32.4-86.7-60.7-161.5-62.5-166.5c-3.7-11,4.1,2.3,79.9,130c31.9,53.8,79.4,134.1,105.4,178s49.7,84,52.5,89
		c2.7,5,19.2,32.9,36,61.6c17.3,28.7,43.8,73.9,59.3,100.4c28.7,48.8,47.9,80.8,138.7,234.1c27.8,47.5,51.1,87.6,52,89.9
		c0.5,2.3-30.6,29.7-69.4,61.1C3976.5,12741.7,3959.7,12753.6,3959.7,12747.7z"/>
	<path d="M71.2,11715.6c-38.3-46.5-70.3-86.2-71.2-88.5c-0.5-1.8,16-19.6,36.5-39.2c85.8-81.2,107.2-101.3,229.5-216.7
		c248.7-234.1,442.6-417.5,463.1-438c21.4-21.4,16-9.1-19.2,42c-23.3,34.7-56.6,84-74.4,109.5c-17.3,26-53.4,78.9-79.9,117.7
		c-26.5,38.8-63.9,93.5-82.6,120.9c-81.7,119.1-175.7,256.4-262.4,384.6c-34.7,50.6-64.3,92.2-66.2,92.2S109.5,11762.1,71.2,11715.6
		z"/>
	<path d="M4823.4,11757.5c-15.5-22.8-38.3-56.1-50.6-73.9c-11.9-17.3-46.5-68-76.2-111.8c-30.1-43.8-69.4-101.3-87.6-127.8
		c-18.3-26.5-50.2-73.5-71.6-104.9c-21.4-31.5-68.9-101.8-106.3-156c-37-54.8-93.1-136.9-124.6-182.5c-47-69.4-53.4-80.8-38.3-67.5
		c20.5,17.8,255.5,239.1,458.1,431.6c23.7,22.4,79.4,74.8,123.2,116.4c131.9,124.1,150.6,141.9,150.6,145.1
		c0,1.4-24.2,31.5-52.9,66.6c-75.7,91.3-89.4,107.2-92.6,107.2C4853.1,11800,4838.9,11780.8,4823.4,11757.5z"/>
	<path d="M2313.4,11302.2c-117.7-9.6-198-48.4-225.9-109.1c-13.7-29.2-13.2-89.4,0.5-120c13.7-30.1,55.7-70.7,94.5-90.8l31.9-16.9
		l-21-0.5c-24.6,0-220.8-24.2-280.2-34.2c-267.4-46.1-460.4-109.5-613.7-202.6c-48.8-29.2-128.7-89.4-170.2-128.2
		c-120.9-112.7-225.9-284.3-284.7-465.4c-15.1-46.1-45.2-164.3-52-200.8l-5-29.7l-48.4-22.8c-115.4-54.8-198-134.6-223.6-216.7
		c-9.1-30.1-10.5-106.8-1.8-135.5c13.2-45.2,53.4-83.5,102.7-99l26-8.2v-67.5v-67.5l-44.3-29.7c-143.7-96.3-221.8-224.5-245.9-404.7
		c-3.2-26.5-6.4-48.8-6.4-50.2c0-1.4-12.3-8.7-27.4-15.5c-65.7-31.5-100.8-106.8-94.5-205.3c2.7-49.3,14.1-80.8,38.3-107.7
		c26-28.7,54.3-42.4,124.6-58.9c376.9-88.5,937.2-141,1660.9-155.6c989.7-20.1,1843.9,32.9,2427,150.6
		c100.4,20.5,112.2,25.1,142.8,54.8c33.8,33.8,44.7,66.6,44.7,134.1c0,103.1-37,171.1-105.4,193.9l-16,5l-5.9,49.3
		c-11.9,95.4-43.8,186.2-90.8,254.6c-41.1,60.7-109.5,123.2-175.7,162l-35.1,20.1v73v73l30.1,16c37,19.6,75.7,53.8,91.3,80.8
		c25.1,42.4,18.3,118.2-17.3,189.8c-33.3,67.1-108.1,131.9-205.3,178c-33.3,16-34.2,16.9-37.4,36c-1.8,11-9.6,45.2-16.9,76.2
		c-53.8,219.9-143.3,389.2-282.4,535.7c-188.9,198.5-470,323.1-878.4,388.3c-74.4,11.9-197.1,27.4-266.9,33.8l-38.8,3.2l29.7,16
		c36.5,19.6,74.8,56.6,88.1,85.3c14.6,32.4,14.6,100.4-0.5,128.7c-32.9,61.1-110.4,94.5-244.6,105.4
		C2417.9,11307.6,2381.8,11307.6,2313.4,11302.2z M2573,11182.2c44.7-8.2,54.3-14.1,54.3-34.2c0-48.4-54.3-78.5-158.8-87.2
		c-71.2-5.9-158.3,0-204.4,14.1c-38.8,11.9-67.5,37.9-73,65.7c-2.7,15.1-1.8,18.7,7.3,26c24.2,19.6,89.4,26.5,230.4,24.2
		C2495.9,11189.5,2551.6,11186.3,2573,11182.2z M2718.1,10860c130-10,176.6-15.5,270.6-32.4c399.7-70.3,661.6-236.4,839.6-533.4
		c33.3-55.2,78-146.9,99-203c5.5-15.1,12.8-33.3,16-41.1c5.9-13.2,44.7-141.9,51.1-167.5c2.7-12.3,1.8-12.8-13.7-12.8
		c-8.7,0-71.2-3.2-138.3-6.8c-215.4-11.9-379.6-20.5-485-25.1c-56.6-2.3-166.1-7.8-244.1-11.4c-146-6.8-489.6-18.3-698.1-22.8
		c-104.5-2.3-342.2,2.3-460.8,9.1c-22.4,1.4-78,4.6-123.2,6.8c-45.2,2.7-98.1,5.9-118.2,7.3l-35.6,2.7l1.8,117.3
		c2.3,103.1,3.7,124.1,14.6,177c41.5,206.7,142.8,387.4,309.4,553.9c50.6,50.2,124.1,113.6,180.7,156.1
		c25.6,18.7,32.4,21.4,52.5,21.9c13.2,0.5,43.3,2.3,67.1,4.1C2369.1,10865,2654.2,10865,2718.1,10860z M2077.5,10832.6
		c-246.4-67.5-431.2-162-600.9-306.6c-193.9-165.2-306.6-365.5-333.1-590.9c-3.7-33.8-6.8-47-11.4-47c-11,0-227.2,27.8-228.6,29.7
		c-2.7,2.7,17.3,69.8,41.1,139.2c78.9,227.7,184.3,397.9,322.1,518.3c150.1,131.4,377.3,212.6,724.1,259.2
		C2146.4,10855.5,2158.7,10855,2077.5,10832.6z M2056.5,10765.6c-91.3-63.9-166.1-125.9-234.5-194.8
		c-112.2-112.7-166.1-198.5-218.6-348.6c-32.9-94.9-64.8-238.2-78-352.7l-3.2-25.1l-43.8,6.4c-24.6,3.2-45.2,7.3-46.1,8.2
		c-0.9,0.9,1.4,31.9,5.9,68.9c26.5,230.4,121.8,421.6,299.3,599.6c67.5,68,116.8,109.1,200.3,168.8c51.1,36,164.3,108.1,171.1,108.6
		C2111.2,10805.3,2087.5,10787.5,2056.5,10765.6z M916.2,9794.1c210.3-50.2,510.1-80.8,935.4-95.8c173.4-5.9,297-6.8,677.6-5
		c256,1.8,527,5,602.3,7.8c157.9,5,475.9,20.5,572.6,27.8c131,9.1,236.4,17.3,297.5,22.8c58.4,5.5,63.4,5.5,81.7-3.2
		c95.8-42.9,150.1-122.3,117.3-170.7C4124.8,9467,3492,9409,2349,9409c-757,0-1223.3,28.7-1483.8,91.3
		c-123.2,29.7-197.1,68-213.1,110.9c-12.3,31.9,0,73.9,28.7,97.2c9.1,7.8,49.7,27.8,90.3,45.2c41.1,17.3,80.8,35.1,88.1,39.7
		C875.6,9803.3,878.8,9803.3,916.2,9794.1z"/>
</g>
</svg>
