<svg xmlns="http://www.w3.org/2000/svg" width="15" height="15" viewBox="0 0 15 15">
  <metadata><?xpacket begin="﻿" id="W5M0MpCehiHzreSzNTczkc9d"?>
<x:xmpmeta xmlns:x="adobe:ns:meta/" x:xmptk="Adobe XMP Core 5.6-c138 79.159824, 2016/09/14-01:09:01        ">
   <rdf:RDF xmlns:rdf="http://www.w3.org/1999/02/22-rdf-syntax-ns#">
      <rdf:Description rdf:about=""/>
   </rdf:RDF>
</x:xmpmeta>
                                                                                                    
                                                                                                    
                                                                                                    
                                                                                                    
                                                                                                    
                                                                                                    
                                                                                                    
                                                                                                    
                                                                                                    
                                                                                                    
                                                                                                    
                                                                                                    
                                                                                                    
                                                                                                    
                                                                                                    
                                                                                                    
                                                                                                    
                                                                                                    
                                                                                                    
                                                                                                    
                           
<?xpacket end="w"?></metadata>
<defs>
    <style>
      .cls-1 {
        fill: #fff;
        fill-rule: evenodd;
      }
    </style>
  </defs>
  <path id="Иконка" class="cls-1" d="M247,474H236a2,2,0,0,1-2-2v-6h4.05a3.573,3.573,0,0,0-.05.5,3.5,3.5,0,0,0,7,0,3.573,3.573,0,0,0-.05-0.5H249v6A2,2,0,0,1,247,474Zm-5.5-11a3.491,3.491,0,0,0-3.15,2H234v-4a2,2,0,0,1,2-2h11a2,2,0,0,1,2,2v4h-4.35A3.491,3.491,0,0,0,241.5,463Zm-4.5-2.5a0.5,0.5,0,0,0-1,0v1a0.5,0.5,0,0,0,1,0v-1Zm2,0a0.5,0.5,0,0,0-1,0v1a0.5,0.5,0,0,0,1,0v-1Zm8,1.5a1,1,0,1,0-1-1A1,1,0,0,0,247,462Z" transform="translate(-234 -459)"/>
</svg>
