<?xml version="1.0" encoding="utf-8"?>
<!-- Generator: Adobe Illustrator 21.0.2, SVG Export Plug-In . SVG Version: 6.00 Build 0)  -->
<svg version="1.1" id="Layer_1" xmlns="http://www.w3.org/2000/svg" xmlns:xlink="http://www.w3.org/1999/xlink" x="0px" y="0px"
	 viewBox="0 0 921 224" style="enable-background:new 0 0 921 224;" xml:space="preserve">
<style type="text/css">
	.st0{fill:#FFFFFF;stroke:#7E8AA2;stroke-miterlimit:10;}
	.st1{fill:#6AC334;}
	.st2{fill:#322932;}
</style>
<g>
	<g>
		<path class="st0" d="M47,87.7v47.2c0,1.3-0.9,2.3-1.9,2.3h-2.4c-0.7,0-1.3-0.4-1.6-1.1l-1.4-2.8c-0.3-0.7-1-1.1-1.6-1.1H24.7
			c-0.7,0-1.3,0.5-1.7,1.2l-1.2,2.6c-0.3,0.7-1,1.2-1.7,1.2h-2.1c-1.1,0-1.9-1-1.9-2.3V87.7c0-1.3-0.9-2.3-1.9-2.3H1.9
			c-1.1,0-1.9,1-1.9,2.3v133.1c0,1.3,0.9,2.3,1.9,2.3h59.3c1.1,0,1.9-1,1.9-2.3V87.7c0-1.3-0.9-2.3-1.9-2.3H48.9
			C47.9,85.4,47,86.4,47,87.7z"/>
		<circle fill="#BD100C" cx="31.3" cy="165.4" r="16.4"/>
		<g>
			<path class="st2" d="M11.2,196.9c-0.9,0-1.5,0.5-1.5,1.8v1.9H7v-1.8c0-2.9,1.4-4.5,4.2-4.5s4.2,1.7,4.2,4.5
				c0,5.7-5.7,7.8-5.7,10.8c0,0.1,0,0.3,0,0.4h5.4v2.6H7v-2.2c0-5.3,5.6-6.2,5.6-11.4C12.7,197.3,12.1,196.9,11.2,196.9z"/>
			<path class="st2" d="M17,198.9c0-2.9,1.5-4.5,4.3-4.5c2.8,0,4.3,1.7,4.3,4.5v9.4c0,2.9-1.5,4.5-4.3,4.5c-2.8,0-4.3-1.7-4.3-4.5
				V198.9z M19.9,208.4c0,1.3,0.6,1.8,1.5,1.8c0.9,0,1.5-0.5,1.5-1.8v-9.8c0-1.3-0.6-1.8-1.5-1.8c-0.9,0-1.5,0.5-1.5,1.8V208.4z"/>
			<path class="st2" d="M32.2,203.7l-4.2,8.9h-0.6l4.4-9.4l-4.1-8.7h0.6l3.9,8.2l3.9-8.2h0.6l-4.1,8.7l4.4,9.4h-0.6L32.2,203.7z"/>
			<path class="st2" d="M38.3,206.7l5.2-12.2h3.1v12.2h1.3v2.6h-1.3v3.3h-2.8v-3.3h-5.5V206.7z M43.8,206.7v-6.8l-2.9,6.8H43.8z"/>
			<path class="st2" d="M48.9,198.9c0-2.9,1.5-4.5,4.3-4.5c2.8,0,4.3,1.7,4.3,4.5v9.4c0,2.9-1.5,4.5-4.3,4.5c-2.8,0-4.3-1.7-4.3-4.5
				V198.9z M51.8,208.4c0,1.3,0.6,1.8,1.5,1.8c0.9,0,1.5-0.5,1.5-1.8v-9.8c0-1.3-0.6-1.8-1.5-1.8c-0.9,0-1.5,0.5-1.5,1.8V208.4z"/>
		</g>
	</g>
	<g>
		<path class="st0" d="M130.5,87.7v47.2c0,1.3-0.9,2.3-1.9,2.3h-2.4c-0.7,0-1.3-0.4-1.6-1.1l-1.4-2.8c-0.3-0.7-1-1.1-1.6-1.1H97
			c-0.7,0-1.3,0.5-1.7,1.2l-1.2,2.6c-0.3,0.7-1,1.2-1.7,1.2h-2.1c-1.1,0-1.9-1-1.9-2.3V87.7c0-1.3-0.9-2.3-1.9-2.3H74.2
			c-1.1,0-1.9,1-1.9,2.3v133.1c0,1.3,0.9,2.3,1.9,2.3h70.5c1.1,0,1.9-1,1.9-2.3V87.7c0-1.3-0.9-2.3-1.9-2.3h-12.3
			C131.4,85.4,130.5,86.4,130.5,87.7z"/>
		<circle fill="#EAB604" cx="109.5" cy="164.5" r="18.9"/>
		<g>
			<path class="st2" d="M88.5,197.8c-0.9,0-1.5,0.5-1.5,1.8v1.9h-2.7v-1.8c0-2.9,1.4-4.5,4.2-4.5c2.8,0,4.2,1.7,4.2,4.5
				c0,5.7-5.7,7.8-5.7,10.8c0,0.1,0,0.3,0,0.4h5.4v2.6h-8.2v-2.2c0-5.3,5.6-6.2,5.6-11.4C89.9,198.2,89.4,197.8,88.5,197.8z"/>
			<path class="st2" d="M97.1,207.6v1.7c0,1.3,0.6,1.8,1.5,1.8c0.9,0,1.5-0.5,1.5-1.8v-4c0-1.3-0.6-1.8-1.5-1.8
				c-0.9,0-1.5,0.5-1.5,1.8v0.5h-2.7l0.5-10.5h7.5v2.6h-4.9l-0.2,4.3c0.5-0.9,1.3-1.3,2.5-1.3c2.1,0,3.2,1.5,3.2,4.1v4
				c0,2.9-1.4,4.5-4.2,4.5c-2.8,0-4.2-1.7-4.2-4.5v-1.5H97.1z"/>
			<path class="st2" d="M109.4,204.6l-4.2,8.9h-0.6l4.4-9.4l-4.1-8.7h0.6l3.9,8.2l3.9-8.2h0.6l-4.1,8.7l4.4,9.4h-0.6L109.4,204.6z"
				/>
			<path class="st2" d="M115.6,207.6l5.2-12.2h3.1v12.2h1.3v2.6h-1.3v3.3H121v-3.3h-5.5V207.6z M121,207.6v-6.8l-2.9,6.8H121z"/>
			<path class="st2" d="M126.2,199.7c0-2.9,1.5-4.5,4.3-4.5c2.8,0,4.3,1.7,4.3,4.5v9.4c0,2.9-1.5,4.5-4.3,4.5
				c-2.8,0-4.3-1.7-4.3-4.5V199.7z M129.1,209.3c0,1.3,0.6,1.8,1.5,1.8c0.9,0,1.5-0.5,1.5-1.8v-9.8c0-1.3-0.6-1.8-1.5-1.8
				c-0.9,0-1.5,0.5-1.5,1.8V209.3z"/>
		</g>
	</g>
	<g>
		<path class="st0" d="M223.8,73v47.2c0,1.3-0.9,2.3-1.9,2.3h-2.4c-0.7,0-1.3-0.4-1.6-1.1l-1.4-2.8c-0.3-0.7-1-1.1-1.6-1.1H180
			c-0.7,0-1.3,0.5-1.7,1.2l-1.2,2.6c-0.3,0.7-1,1.2-1.7,1.2h-2.1c-1.1,0-1.9-1-1.9-2.3V73c0-1.3-0.9-2.3-1.9-2.3h-12.3
			c-1.1,0-1.9,1-1.9,2.3v147.8c0,1.3,0.9,2.3,1.9,2.3H238c1.1,0,1.9-1,1.9-2.3V73c0-1.3-0.9-2.3-1.9-2.3h-12.3
			C224.7,70.8,223.8,71.8,223.8,73z"/>
		<circle fill="#E98CA9" cx="196.3" cy="157.2" r="24.5"/>
		<g>
			<path class="st2" d="M176.7,197.8c-0.9,0-1.5,0.5-1.5,1.8v1.9h-2.7v-1.8c0-2.9,1.4-4.5,4.2-4.5c2.8,0,4.2,1.7,4.2,4.5
				c0,5.7-5.7,7.8-5.7,10.8c0,0.1,0,0.3,0,0.4h5.4v2.6h-8.2v-2.2c0-5.3,5.6-6.2,5.6-11.4C178.1,198.2,177.6,197.8,176.7,197.8z"/>
			<path class="st2" d="M186.8,213.7c-2.9,0-4.4-1.7-4.4-4.5v-1.4c0-1.7,0.5-3.1,1.8-3.8c-1.2-0.6-1.8-1.9-1.8-3.6v-0.6
				c0-2.9,1.6-4.5,4.4-4.5c2.9,0,4.4,1.7,4.4,4.5v0.6c0,1.8-0.6,3-1.8,3.6c1.2,0.7,1.8,2,1.8,3.8v1.4
				C191.3,212,189.7,213.7,186.8,213.7z M185.2,200.8c0,1.4,0.7,1.9,1.6,1.9c0.9,0,1.6-0.5,1.6-1.9v-1c0-1.6-0.7-2.1-1.6-2.1
				c-0.9,0-1.6,0.4-1.6,2.1V200.8z M186.8,211.1c0.9,0,1.6-0.4,1.6-2v-1.7c0-1.4-0.6-2-1.6-2s-1.6,0.6-1.6,2v1.7
				C185.2,210.6,185.9,211.1,186.8,211.1z"/>
			<path class="st2" d="M197.6,204.6l-4.2,8.9h-0.6l4.4-9.4l-4.1-8.7h0.6l3.9,8.2l3.9-8.2h0.6l-4.1,8.7l4.4,9.4h-0.6L197.6,204.6z"
				/>
			<path class="st2" d="M207,207.6v1.7c0,1.3,0.6,1.8,1.5,1.8c0.9,0,1.5-0.5,1.5-1.8v-4c0-1.3-0.6-1.8-1.5-1.8
				c-0.9,0-1.5,0.5-1.5,1.8v0.5h-2.7l0.5-10.5h7.5v2.6h-4.9l-0.2,4.3c0.5-0.9,1.3-1.3,2.5-1.3c2.1,0,3.2,1.5,3.2,4.1v4
				c0,2.9-1.4,4.5-4.2,4.5c-2.8,0-4.2-1.7-4.2-4.5v-1.5H207z"/>
			<path class="st2" d="M214.4,199.7c0-2.9,1.5-4.5,4.3-4.5c2.8,0,4.3,1.7,4.3,4.5v9.4c0,2.9-1.5,4.5-4.3,4.5
				c-2.8,0-4.3-1.7-4.3-4.5V199.7z M217.3,209.3c0,1.3,0.6,1.8,1.5,1.8c0.9,0,1.5-0.5,1.5-1.8v-9.8c0-1.3-0.6-1.8-1.5-1.8
				c-0.9,0-1.5,0.5-1.5,1.8V209.3z"/>
		</g>
	</g>
	<g>
		<path class="st0" d="M316.9,69.5v37.8c0,1.3-0.9,2.3-1.9,2.3h-2.4c-0.7,0-1.3-0.4-1.6-1.1l-1.4-2.8c-0.3-0.7-1-1.1-1.6-1.1h-34.7
			c-0.7,0-1.3,0.5-1.7,1.2l-1.2,2.6c-0.3,0.7-1,1.2-1.7,1.2h-2.1c-1.1,0-1.9-1-1.9-2.3V69.5c0-1.3-0.9-2.3-1.9-2.3h-12.3
			c-1.1,0-1.9,1-1.9,2.3v151.3c0,1.3,0.9,2.3,1.9,2.3H331c1.1,0,1.9-1,1.9-2.3V69.5c0-1.3-0.9-2.3-1.9-2.3h-12.3
			C317.7,67.2,316.9,68.3,316.9,69.5z"/>
		<circle class="st1" cx="290.8" cy="154.6" r="27.1"/>
		<g>
			<path class="st2" d="M271.6,197.7c-0.9,0-1.5,0.5-1.5,1.8v1.9h-2.7v-1.8c0-2.9,1.4-4.5,4.2-4.5s4.2,1.7,4.2,4.5
				c0,5.7-5.7,7.8-5.7,10.8c0,0.1,0,0.3,0,0.4h5.4v2.6h-8.2v-2.2c0-5.3,5.6-6.2,5.6-11.4C273.1,198.2,272.5,197.7,271.6,197.7z"/>
			<path class="st2" d="M286,208.9c0,3-1.4,4.7-4.3,4.7c-2.8,0-4.2-1.7-4.2-4.5v-0.5h2.7v0.6c0,1.3,0.6,1.8,1.5,1.8
				c1,0,1.6-0.5,1.6-2.2v-3.3c-0.5,1-1.4,1.6-2.6,1.6c-2.1,0-3.2-1.5-3.2-4.1v-3.3c0-2.9,1.5-4.5,4.3-4.5c2.8,0,4.3,1.7,4.3,4.5
				V208.9z M283.2,202.8v-3.3c0-1.3-0.6-1.8-1.5-1.8c-0.9,0-1.5,0.5-1.5,1.8v3.3c0,1.3,0.6,1.8,1.5,1.8
				C282.6,204.5,283.2,204,283.2,202.8z"/>
			<path class="st2" d="M292.6,204.5l-4.2,8.9h-0.6l4.4-9.4l-4.1-8.7h0.6l3.9,8.2l3.9-8.2h0.6L293,204l4.4,9.4h-0.6L292.6,204.5z"/>
			<path class="st2" d="M301.9,207.6v1.7c0,1.3,0.6,1.8,1.5,1.8c0.9,0,1.5-0.5,1.5-1.8v-4c0-1.3-0.6-1.8-1.5-1.8
				c-0.9,0-1.5,0.5-1.5,1.8v0.5h-2.7l0.5-10.5h7.5v2.6h-4.9l-0.2,4.3c0.5-0.9,1.3-1.3,2.5-1.3c2.1,0,3.2,1.5,3.2,4.1v4
				c0,2.9-1.4,4.5-4.2,4.5s-4.2-1.7-4.2-4.5v-1.5H301.9z"/>
			<path class="st2" d="M315.1,199.8c0-1.6-0.6-2.1-1.5-2.1c-0.9,0-1.5,0.5-1.5,1.8v1.2h-2.7v-1c0-2.9,1.4-4.5,4.2-4.5
				c2.8,0,4.2,1.7,4.2,4.5v0.5c0,1.9-0.6,3.2-2,3.7c1.4,0.6,2,2,2,3.8v1.4c0,2.9-1.4,4.5-4.2,4.5c-2.8,0-4.2-1.7-4.2-4.5v-1.5h2.7
				v1.7c0,1.3,0.6,1.8,1.5,1.8c0.9,0,1.5-0.4,1.5-2v-1.4c0-1.7-0.6-2.3-1.9-2.3h-1v-2.6h1.1c1.1,0,1.7-0.5,1.7-1.9V199.8z"/>
		</g>
	</g>
	<g>
		<path class="st0" d="M413.6,60.2v40.7c0,1.3-0.9,2.4-2,2.4h-2.5c-0.7,0-1.4-0.4-1.7-1.2l-1.5-2.9c-0.4-0.7-1-1.2-1.7-1.2h-36.6
			c-0.7,0-1.4,0.5-1.8,1.2l-1.3,2.7c-0.4,0.8-1,1.2-1.8,1.2h-2.2c-1.1,0-2-1.1-2-2.4V60.2c0-1.3-0.9-2.4-2-2.4h-12.9
			c-1.1,0-2,1.1-2,2.4v160.5c0,1.3,0.9,2.4,2,2.4h85c1.1,0,2-1.1,2-2.4V60.2c0-1.3-0.9-2.4-2-2.4h-12.9
			C414.5,57.7,413.6,58.8,413.6,60.2z"/>
		<circle fill="#A5A6A6" cx="385.6" cy="149.4" r="27.1"/>
		<g>
			<path class="st2" d="M367.8,199.8c0-1.6-0.6-2.1-1.5-2.1c-0.9,0-1.5,0.5-1.5,1.8v1.2h-2.7v-1c0-2.9,1.4-4.5,4.2-4.5
				c2.8,0,4.2,1.7,4.2,4.5v0.5c0,1.9-0.6,3.2-2,3.7c1.4,0.6,2,2,2,3.8v1.4c0,2.9-1.4,4.5-4.2,4.5c-2.8,0-4.2-1.7-4.2-4.5v-1.5h2.7
				v1.7c0,1.3,0.6,1.8,1.5,1.8c0.9,0,1.5-0.4,1.5-2v-1.4c0-1.7-0.6-2.3-1.9-2.3h-1v-2.6h1.1c1.1,0,1.7-0.5,1.7-1.9V199.8z"/>
			<path class="st2" d="M372.3,199.7c0-2.9,1.5-4.5,4.3-4.5c2.8,0,4.3,1.7,4.3,4.5v9.4c0,2.9-1.5,4.5-4.3,4.5
				c-2.8,0-4.3-1.7-4.3-4.5V199.7z M375.1,209.3c0,1.3,0.6,1.8,1.5,1.8c0.9,0,1.5-0.5,1.5-1.8v-9.8c0-1.3-0.6-1.8-1.5-1.8
				c-0.9,0-1.5,0.5-1.5,1.8V209.3z"/>
			<path class="st2" d="M387.4,204.5l-4.2,8.9h-0.6l4.4-9.4l-4.1-8.7h0.6l3.9,8.2l3.9-8.2h0.6l-4.1,8.7l4.4,9.4h-0.6L387.4,204.5z"
				/>
			<path class="st2" d="M396.8,207.6v1.7c0,1.3,0.6,1.8,1.5,1.8c0.9,0,1.5-0.5,1.5-1.8v-4c0-1.3-0.6-1.8-1.5-1.8
				c-0.9,0-1.5,0.5-1.5,1.8v0.5h-2.7l0.5-10.5h7.5v2.6h-4.9l-0.2,4.3c0.5-0.9,1.3-1.3,2.5-1.3c2.1,0,3.2,1.5,3.2,4.1v4
				c0,2.9-1.4,4.5-4.2,4.5s-4.2-1.7-4.2-4.5v-1.5H396.8z"/>
			<path class="st2" d="M407,207.6v1.7c0,1.3,0.6,1.8,1.5,1.8c0.9,0,1.5-0.5,1.5-1.8v-4c0-1.3-0.6-1.8-1.5-1.8
				c-0.9,0-1.5,0.5-1.5,1.8v0.5h-2.7l0.5-10.5h7.5v2.6h-4.9l-0.2,4.3c0.5-0.9,1.3-1.3,2.5-1.3c2.1,0,3.2,1.5,3.2,4.1v4
				c0,2.9-1.4,4.5-4.2,4.5s-4.2-1.7-4.2-4.5v-1.5H407z"/>
		</g>
	</g>
	<g>
		<path class="st0" d="M512.8,43v45c0,1.4-0.9,2.5-2.1,2.5h-2.6c-0.7,0-1.4-0.4-1.8-1.2l-1.5-3c-0.4-0.7-1-1.2-1.8-1.2h-37.4
			c-0.8,0-1.4,0.5-1.8,1.3l-1.3,2.8c-0.4,0.8-1.1,1.3-1.8,1.3h-2.3c-1.1,0-2.1-1.1-2.1-2.5V43c0-1.4-0.9-2.5-2.1-2.5h-13.2
			c-1.1,0-2.1,1.1-2.1,2.5v177.6c0,1.4,0.9,2.5,2.1,2.5h86.8c1.1,0,2.1-1.1,2.1-2.5V43c0-1.4-0.9-2.5-2.1-2.5h-13.2
			C513.7,40.5,512.8,41.6,512.8,43z"/>
		<circle fill="#E94D00" cx="484.7" cy="141.7" r="29.7"/>
		<g>
			<path class="st2" d="M467.2,198.9c0-1.6-0.6-2.1-1.5-2.1c-0.9,0-1.5,0.5-1.5,1.8v1.2h-2.7v-1c0-2.9,1.4-4.5,4.2-4.5
				c2.8,0,4.2,1.7,4.2,4.5v0.5c0,1.9-0.6,3.2-2,3.7c1.4,0.6,2,2,2,3.8v1.4c0,2.9-1.4,4.5-4.2,4.5c-2.8,0-4.2-1.7-4.2-4.5v-1.5h2.7
				v1.7c0,1.3,0.6,1.8,1.5,1.8c0.9,0,1.5-0.4,1.5-2v-1.4c0-1.7-0.6-2.3-1.9-2.3h-1v-2.6h1.1c1.1,0,1.7-0.5,1.7-1.9V198.9z"/>
			<path class="st2" d="M476.1,196.9c-0.9,0-1.5,0.5-1.5,1.8v1.9h-2.7v-1.8c0-2.9,1.4-4.5,4.2-4.5s4.2,1.7,4.2,4.5
				c0,5.7-5.7,7.8-5.7,10.8c0,0.1,0,0.3,0,0.4h5.4v2.6h-8.2v-2.2c0-5.3,5.6-6.2,5.6-11.4C477.6,197.3,477,196.9,476.1,196.9z"/>
			<path class="st2" d="M486.8,203.7l-4.2,8.9h-0.6l4.4-9.4l-4.1-8.7h0.6l3.9,8.2l3.9-8.2h0.6l-4.1,8.7l4.4,9.4H491L486.8,203.7z"/>
			<path class="st2" d="M493.4,199c0-3,1.4-4.7,4.3-4.7c2.8,0,4.2,1.7,4.2,4.5v0.5h-2.7v-0.6c0-1.3-0.6-1.8-1.5-1.8
				c-1,0-1.6,0.5-1.6,2.2v3.3c0.5-1,1.4-1.6,2.6-1.6c2.1,0,3.2,1.5,3.2,4.1v3.3c0,2.9-1.5,4.5-4.3,4.5c-2.8,0-4.3-1.7-4.3-4.5V199z
				 M496.3,205.2v3.3c0,1.3,0.6,1.8,1.5,1.8c0.9,0,1.5-0.5,1.5-1.8v-3.3c0-1.3-0.6-1.8-1.5-1.8C496.8,203.4,496.3,203.9,496.3,205.2
				z"/>
			<path class="st2" d="M503.6,198.8c0-2.9,1.5-4.5,4.3-4.5c2.8,0,4.3,1.7,4.3,4.5v9.4c0,2.9-1.5,4.5-4.3,4.5
				c-2.8,0-4.3-1.7-4.3-4.5V198.8z M506.5,208.4c0,1.3,0.6,1.8,1.5,1.8c0.9,0,1.5-0.5,1.5-1.8v-9.8c0-1.3-0.6-1.8-1.5-1.8
				c-0.9,0-1.5,0.5-1.5,1.8V208.4z"/>
		</g>
	</g>
	<g>
		<path class="st0" d="M636.4,43v45c0,1.4-0.9,2.5-2.1,2.5h-2.6c-0.7,0-1.4-0.4-1.8-1.2l-1.5-3c-0.4-0.7-1-1.2-1.8-1.2h-61.5
			c-0.8,0-1.4,0.5-1.8,1.3l-1.3,2.8c-0.4,0.8-1.1,1.3-1.8,1.3h-2.3c-1.1,0-2.1-1.1-2.1-2.5V43c0-1.4-0.9-2.5-2.1-2.5h-13.2
			c-1.1,0-2.1,1.1-2.1,2.5v177.6c0,1.4,0.9,2.5,2.1,2.5h110.9c1.1,0,2.1-1.1,2.1-2.5V43c0-1.4-0.9-2.5-2.1-2.5h-13.2
			C637.4,40.5,636.4,41.6,636.4,43z"/>
		<circle class="st1" cx="596.3" cy="140" r="39.2"/>
		<g>
			<path class="st2" d="M576.6,199.8c0-1.6-0.6-2.1-1.5-2.1c-0.9,0-1.5,0.5-1.5,1.8v1.2H571v-1c0-2.9,1.4-4.5,4.2-4.5
				c2.8,0,4.2,1.7,4.2,4.5v0.5c0,1.9-0.6,3.2-2,3.7c1.4,0.6,2,2,2,3.8v1.4c0,2.9-1.4,4.5-4.2,4.5c-2.8,0-4.2-1.7-4.2-4.5v-1.5h2.7
				v1.7c0,1.3,0.6,1.8,1.5,1.8c0.9,0,1.5-0.4,1.5-2v-1.4c0-1.7-0.6-2.3-1.9-2.3h-1v-2.6h1.1c1.1,0,1.7-0.5,1.7-1.9V199.8z"/>
			<path class="st2" d="M585.4,213.6c-2.9,0-4.4-1.7-4.4-4.5v-1.4c0-1.7,0.5-3.1,1.8-3.8c-1.2-0.6-1.8-1.9-1.8-3.6v-0.6
				c0-2.9,1.6-4.5,4.4-4.5c2.9,0,4.4,1.7,4.4,4.5v0.6c0,1.8-0.6,3-1.8,3.6c1.2,0.7,1.8,2,1.8,3.8v1.4
				C589.9,212,588.3,213.6,585.4,213.6z M583.8,200.8c0,1.4,0.7,1.9,1.6,1.9c0.9,0,1.6-0.5,1.6-1.9v-1c0-1.6-0.7-2.1-1.6-2.1
				c-0.9,0-1.6,0.4-1.6,2.1V200.8z M585.4,211c0.9,0,1.6-0.4,1.6-2v-1.7c0-1.4-0.6-2-1.6-2c-1,0-1.6,0.6-1.6,2v1.7
				C583.8,210.6,584.5,211,585.4,211z"/>
			<path class="st2" d="M596.2,204.5l-4.2,8.9h-0.6l4.4-9.4l-4.1-8.7h0.6l3.9,8.2l3.9-8.2h0.6l-4.1,8.7l4.4,9.4h-0.6L596.2,204.5z"
				/>
			<path class="st2" d="M602.8,199.8c0-3,1.4-4.7,4.3-4.7c2.8,0,4.2,1.7,4.2,4.5v0.5h-2.7v-0.6c0-1.3-0.6-1.8-1.5-1.8
				c-1,0-1.6,0.5-1.6,2.2v3.3c0.5-1,1.4-1.6,2.6-1.6c2.1,0,3.2,1.5,3.2,4.1v3.3c0,2.9-1.5,4.5-4.3,4.5c-2.8,0-4.3-1.7-4.3-4.5V199.8
				z M605.7,206v3.3c0,1.3,0.6,1.8,1.5,1.8c0.9,0,1.5-0.5,1.5-1.8V206c0-1.3-0.6-1.8-1.5-1.8C606.3,204.2,605.7,204.7,605.7,206z"/>
			<path class="st2" d="M613,199.7c0-2.9,1.5-4.5,4.3-4.5c2.8,0,4.3,1.7,4.3,4.5v9.4c0,2.9-1.5,4.5-4.3,4.5c-2.8,0-4.3-1.7-4.3-4.5
				V199.7z M615.9,209.3c0,1.3,0.6,1.8,1.5,1.8c0.9,0,1.5-0.5,1.5-1.8v-9.8c0-1.3-0.6-1.8-1.5-1.8c-0.9,0-1.5,0.5-1.5,1.8V209.3z"/>
		</g>
	</g>
	<g>
		<path class="st0" d="M764.5,13.3v44.7c0,1.6-1.1,2.9-2.4,2.9h-3c-0.8,0-1.6-0.5-2.1-1.4l-1.8-3.5c-0.4-0.9-1.2-1.4-2.1-1.4h-59.9
			c-0.9,0-1.7,0.6-2.1,1.5l-1.5,3.3c-0.4,0.9-1.2,1.5-2.1,1.5H685c-1.3,0-2.4-1.3-2.4-2.9V13.3c0-1.6-1.1-2.9-2.4-2.9h-15.4
			c-1.3,0-2.4,1.3-2.4,2.9v207c0,1.6,1.1,2.9,2.4,2.9h117.5c1.3,0,2.4-1.3,2.4-2.9v-207c0-1.6-1.1-2.9-2.4-2.9h-15.4
			C765.5,10.4,764.5,11.7,764.5,13.3z"/>
		<circle fill="#0052BB" cx="724.5" cy="115" r="40.9"/>
		<g>
			<path class="st2" d="M700,206.7l5.2-12.2h3.1v12.2h1.3v2.6h-1.3v3.3h-2.8v-3.3H700V206.7z M705.5,206.7v-6.8l-2.9,6.8H705.5z"/>
			<path class="st2" d="M710.7,198.8c0-2.9,1.5-4.5,4.3-4.5c2.8,0,4.3,1.7,4.3,4.5v9.4c0,2.9-1.5,4.5-4.3,4.5
				c-2.8,0-4.3-1.7-4.3-4.5V198.8z M713.5,208.4c0,1.3,0.6,1.8,1.5,1.8c0.9,0,1.5-0.5,1.5-1.8v-9.8c0-1.3-0.6-1.8-1.5-1.8
				c-0.9,0-1.5,0.5-1.5,1.8V208.4z"/>
			<path class="st2" d="M725.8,203.7l-4.2,8.9h-0.6l4.4-9.4l-4.1-8.7h0.6l3.9,8.2l3.9-8.2h0.6l-4.1,8.7l4.4,9.4H730L725.8,203.7z"/>
			<path class="st2" d="M732.4,199c0-3,1.4-4.7,4.3-4.7c2.8,0,4.2,1.7,4.2,4.5v0.5h-2.7v-0.6c0-1.3-0.6-1.8-1.5-1.8
				c-1,0-1.6,0.5-1.6,2.2v3.3c0.5-1,1.4-1.6,2.6-1.6c2.1,0,3.2,1.5,3.2,4.1v3.3c0,2.9-1.5,4.5-4.3,4.5c-2.8,0-4.3-1.7-4.3-4.5V199z
				 M735.3,205.2v3.3c0,1.3,0.6,1.8,1.5,1.8c0.9,0,1.5-0.5,1.5-1.8v-3.3c0-1.3-0.6-1.8-1.5-1.8C735.8,203.4,735.3,203.9,735.3,205.2
				z"/>
			<path class="st2" d="M746.9,212.8c-2.9,0-4.4-1.7-4.4-4.5v-1.4c0-1.7,0.5-3.1,1.8-3.8c-1.2-0.6-1.8-1.9-1.8-3.6v-0.6
				c0-2.9,1.6-4.5,4.4-4.5c2.9,0,4.4,1.7,4.4,4.5v0.6c0,1.8-0.6,3-1.8,3.6c1.2,0.7,1.8,2,1.8,3.8v1.4
				C751.4,211.1,749.8,212.8,746.9,212.8z M745.3,199.9c0,1.4,0.7,1.9,1.6,1.9c0.9,0,1.6-0.5,1.6-1.9v-1c0-1.6-0.7-2.1-1.6-2.1
				s-1.6,0.4-1.6,2.1V199.9z M746.9,210.2c0.9,0,1.6-0.4,1.6-2v-1.7c0-1.4-0.6-2-1.6-2c-1,0-1.6,0.6-1.6,2v1.7
				C745.3,209.7,746,210.2,746.9,210.2z"/>
		</g>
		<g>
			<path class="st2" d="M706.2,171.4c0-1.6-0.6-2.1-1.5-2.1c-0.9,0-1.5,0.5-1.5,1.8v1.2h-2.7v-1c0-2.9,1.4-4.5,4.2-4.5
				c2.8,0,4.2,1.7,4.2,4.5v0.5c0,1.9-0.6,3.2-2,3.7c1.4,0.6,2,2,2,3.8v1.4c0,2.9-1.4,4.5-4.2,4.5c-2.8,0-4.2-1.7-4.2-4.5v-1.5h2.7
				v1.7c0,1.3,0.6,1.8,1.5,1.8c0.9,0,1.5-0.4,1.5-2v-1.4c0-1.7-0.6-2.3-1.9-2.3h-1v-2.6h1.1c1.1,0,1.7-0.5,1.7-1.9V171.4z"/>
			<path class="st2" d="M715,185.2c-2.9,0-4.4-1.7-4.4-4.5v-1.4c0-1.7,0.5-3.1,1.8-3.8c-1.2-0.6-1.8-1.9-1.8-3.6v-0.6
				c0-2.9,1.6-4.5,4.4-4.5c2.9,0,4.4,1.7,4.4,4.5v0.6c0,1.8-0.6,3-1.8,3.6c1.2,0.7,1.8,2,1.8,3.8v1.4
				C719.4,183.6,717.9,185.2,715,185.2z M713.4,172.4c0,1.4,0.7,1.9,1.6,1.9c0.9,0,1.6-0.5,1.6-1.9v-1c0-1.6-0.7-2.1-1.6-2.1
				c-0.9,0-1.6,0.4-1.6,2.1V172.4z M715,182.6c0.9,0,1.6-0.4,1.6-2v-1.7c0-1.4-0.6-2-1.6-2c-1,0-1.6,0.6-1.6,2v1.7
				C713.4,182.2,714.1,182.6,715,182.6z"/>
			<path class="st2" d="M725.8,176.1l-4.2,8.9h-0.6l4.4-9.4l-4.1-8.7h0.6l3.9,8.2l3.9-8.2h0.6l-4.1,8.7l4.4,9.4H730L725.8,176.1z"/>
			<path class="st2" d="M732.4,171.4c0-3,1.4-4.7,4.3-4.7c2.8,0,4.2,1.7,4.2,4.5v0.5h-2.7v-0.6c0-1.3-0.6-1.8-1.5-1.8
				c-1,0-1.6,0.5-1.6,2.2v3.3c0.5-1,1.4-1.6,2.6-1.6c2.1,0,3.2,1.5,3.2,4.1v3.3c0,2.9-1.5,4.5-4.3,4.5c-2.8,0-4.3-1.7-4.3-4.5V171.4
				z M735.3,177.6v3.3c0,1.3,0.6,1.8,1.5,1.8c0.9,0,1.5-0.5,1.5-1.8v-3.3c0-1.3-0.6-1.8-1.5-1.8
				C735.8,175.8,735.3,176.3,735.3,177.6z"/>
			<path class="st2" d="M746.9,185.2c-2.9,0-4.4-1.7-4.4-4.5v-1.4c0-1.7,0.5-3.1,1.8-3.8c-1.2-0.6-1.8-1.9-1.8-3.6v-0.6
				c0-2.9,1.6-4.5,4.4-4.5c2.9,0,4.4,1.7,4.4,4.5v0.6c0,1.8-0.6,3-1.8,3.6c1.2,0.7,1.8,2,1.8,3.8v1.4
				C751.4,183.6,749.8,185.2,746.9,185.2z M745.3,172.4c0,1.4,0.7,1.9,1.6,1.9c0.9,0,1.6-0.5,1.6-1.9v-1c0-1.6-0.7-2.1-1.6-2.1
				s-1.6,0.4-1.6,2.1V172.4z M746.9,182.6c0.9,0,1.6-0.4,1.6-2v-1.7c0-1.4-0.6-2-1.6-2c-1,0-1.6,0.6-1.6,2v1.7
				C745.3,182.2,746,182.6,746.9,182.6z"/>
		</g>
	</g>
	<g>
		<path class="st0" d="M900,4.8v46.5c0,1.7-1.1,3-2.5,3h-3.1c-0.9,0-1.7-0.5-2.1-1.4l-1.8-3.6c-0.5-0.9-1.3-1.4-2.1-1.4H826
			c-0.9,0-1.7,0.6-2.2,1.5l-1.6,3.4c-0.4,1-1.3,1.5-2.2,1.5h-2.7c-1.4,0-2.5-1.3-2.5-3V4.8c0-1.7-1.1-3-2.5-3h-16
			c-1.4,0-2.5,1.3-2.5,3v215.3c0,1.7,1.1,3,2.5,3h122.2c1.4,0,2.5-1.3,2.5-3V4.8c0-1.7-1.1-3-2.5-3h-16C901.1,1.8,900,3.1,900,4.8z"
			/>
		<circle fill="#01A31D" cx="857.4" cy="114.1"  r="42.6"/>
		<g>
			<path class="st2" d="M831.6,207.6l5.2-12.2h3.1v12.2h1.3v2.6h-1.3v3.3H837v-3.3h-5.5V207.6z M837,207.6v-6.8l-2.9,6.8H837z"/>
			<path class="st2" d="M841.8,207.6l5.2-12.2h3.1v12.2h1.3v2.6h-1.3v3.3h-2.8v-3.3h-5.5V207.6z M847.3,207.6v-6.8l-2.9,6.8H847.3z"
				/>
			<path class="st2" d="M857.4,204.5l-4.2,8.9h-0.6l4.4-9.4l-4.1-8.7h0.6l3.9,8.2l3.9-8.2h0.6l-4.1,8.7l4.4,9.4h-0.6L857.4,204.5z"
				/>
			<path class="st2" d="M872.5,195.3v2.5l-4.2,15.6h-2.8l4.2-15.5H864v-2.6H872.5z"/>
			<path class="st2" d="M874.1,199.7c0-2.9,1.5-4.5,4.3-4.5c2.8,0,4.3,1.7,4.3,4.5v9.4c0,2.9-1.5,4.5-4.3,4.5
				c-2.8,0-4.3-1.7-4.3-4.5V199.7z M877,209.3c0,1.3,0.6,1.8,1.5,1.8c0.9,0,1.5-0.5,1.5-1.8v-9.8c0-1.3-0.6-1.8-1.5-1.8
				c-0.9,0-1.5,0.5-1.5,1.8V209.3z"/>
		</g>
		<g>
			<path class="st2" d="M831.6,180l5.2-12.2h3.1V180h1.3v2.6h-1.3v3.3H837v-3.3h-5.5V180z M837,180v-6.8l-2.9,6.8H837z"/>
			<path class="st2" d="M842.2,172.1c0-2.9,1.5-4.5,4.3-4.5c2.8,0,4.3,1.7,4.3,4.5v9.4c0,2.9-1.5,4.5-4.3,4.5
				c-2.8,0-4.3-1.7-4.3-4.5V172.1z M845.1,181.7c0,1.3,0.6,1.8,1.5,1.8c0.9,0,1.5-0.5,1.5-1.8V172c0-1.3-0.6-1.8-1.5-1.8
				c-0.9,0-1.5,0.5-1.5,1.8V181.7z"/>
			<path class="st2" d="M857.4,177l-4.2,8.9h-0.6l4.4-9.4l-4.1-8.7h0.6l3.9,8.2l3.9-8.2h0.6l-4.1,8.7l4.4,9.4h-0.6L857.4,177z"/>
			<path class="st2" d="M872.5,167.8v2.5l-4.2,15.6h-2.8l4.2-15.5H864v-2.6H872.5z"/>
			<path class="st2" d="M874.1,172.1c0-2.9,1.5-4.5,4.3-4.5c2.8,0,4.3,1.7,4.3,4.5v9.4c0,2.9-1.5,4.5-4.3,4.5
				c-2.8,0-4.3-1.7-4.3-4.5V172.1z M877,181.7c0,1.3,0.6,1.8,1.5,1.8c0.9,0,1.5-0.5,1.5-1.8V172c0-1.3-0.6-1.8-1.5-1.8
				c-0.9,0-1.5,0.5-1.5,1.8V181.7z"/>
		</g>
	</g>
</g>
</svg>
