<?xml version="1.0" encoding="utf-8"?>
<!-- Generator: Adobe Illustrator 21.0.2, SVG Export Plug-In . SVG Version: 6.00 Build 0)  -->
<svg version="1.1" id="Layer_1" xmlns="http://www.w3.org/2000/svg" xmlns:xlink="http://www.w3.org/1999/xlink" x="0px" y="0px"
	 viewBox="0 0 956 241" style="enable-background:new 0 0 956 241;" xml:space="preserve">
<style type="text/css">
	.st0{fill:#FFFFFF;stroke:#7E8AA2;stroke-miterlimit:10;}
	.st1{fill:#FFFFFF;stroke:#7E8AA2;stroke-width:0.866;stroke-miterlimit:10;}
	.st2{fill:#322932;}
	.st3{fill:#6AC334;}
</style>
<g>
	<g>
		<rect  x="0.5" y="104.5" class="st0" width="93" height="136"/>
		<path class="st1"  d="M57,126.5H37c-2.8,0-5-2.2-5-5v0c0-2.8,2.2-5,5-5h20c2.8,0,5,2.2,5,5v0C62,124.3,59.8,126.5,57,126.5z"/>
		<g>
			<path class="st2" d="M22.6,208.6c-1,0-1.7,0.6-1.7,2.1v2.2h-3.1v-2c0-3.4,1.7-5.3,4.9-5.3s4.9,1.9,4.9,5.3
				c0,6.6-6.6,9.1-6.6,12.5c0,0.1,0,0.3,0,0.4h6.2v3h-9.5v-2.6c0-6.2,6.5-7.2,6.5-13.3C24.3,209.1,23.7,208.6,22.6,208.6z"/>
			<path class="st2" d="M29.4,210.9c0-3.4,1.8-5.3,5-5.3c3.2,0,5,1.9,5,5.3v10.9c0,3.4-1.8,5.3-5,5.3c-3.2,0-5-1.9-5-5.3V210.9z
				 M32.7,222c0,1.5,0.7,2.1,1.7,2.1c1,0,1.7-0.6,1.7-2.1v-11.3c0-1.5-0.7-2.1-1.7-2.1c-1.1,0-1.7,0.6-1.7,2.1V222z"/>
			<path class="st2" d="M47,216.5l-4.8,10.3h-0.7l5.1-10.9l-4.8-10.1h0.7l4.5,9.5l4.5-9.5h0.7l-4.8,10.1l5.1,10.9h-0.7L47,216.5z"/>
			<path class="st2" d="M61.2,211c0-1.9-0.7-2.4-1.7-2.4c-1,0-1.7,0.6-1.7,2.1v1.4h-3.1v-1.1c0-3.4,1.7-5.3,4.9-5.3
				c3.2,0,4.9,1.9,4.9,5.3v0.5c0,2.2-0.7,3.7-2.3,4.3c1.6,0.7,2.3,2.3,2.3,4.4v1.6c0,3.4-1.7,5.3-4.9,5.3c-3.2,0-4.9-1.9-4.9-5.3
				V220h3.1v1.9c0,1.5,0.7,2.1,1.7,2.1c1.1,0,1.7-0.5,1.7-2.4V220c0-2-0.7-2.7-2.2-2.7h-1.1v-3h1.3c1.2,0,2-0.5,2-2.2V211z"/>
			<path class="st2" d="M66.5,210.9c0-3.4,1.8-5.3,5-5.3c3.2,0,5,1.9,5,5.3v10.9c0,3.4-1.8,5.3-5,5.3c-3.2,0-5-1.9-5-5.3V210.9z
				 M69.8,222c0,1.5,0.7,2.1,1.7,2.1c1,0,1.7-0.6,1.7-2.1v-11.3c0-1.5-0.7-2.1-1.7-2.1c-1.1,0-1.7,0.6-1.7,2.1V222z"/>
		</g>
		<circle fill="#BD100C" cx="47" cy="167.5" r="24" />
	</g>
	<g>
		<rect x="103.5" y="80.5" class="st0" width="110" height="160"/>
		<path class="st1" d="M171,102h-25c-2.8,0-5-2.2-5-5v0c0-2.8,2.2-5,5-5h25c2.8,0,5,2.2,5,5v0C176,99.8,173.8,102,171,102z"/>
		<g>
			<path class="st2" d="M137.1,210c0-1.9-0.7-2.4-1.7-2.4c-1,0-1.7,0.6-1.7,2.1v1.4h-3.1v-1.1c0-3.4,1.7-5.3,4.9-5.3
				c3.2,0,4.9,1.9,4.9,5.3v0.5c0,2.2-0.7,3.7-2.3,4.3c1.6,0.7,2.3,2.3,2.3,4.4v1.6c0,3.4-1.7,5.3-4.9,5.3c-3.2,0-4.9-1.9-4.9-5.3
				V219h3.1v1.9c0,1.5,0.7,2.1,1.7,2.1c1.1,0,1.7-0.5,1.7-2.4V219c0-2-0.7-2.7-2.2-2.7h-1.1v-3h1.3c1.2,0,2-0.5,2-2.2V210z"/>
			<path class="st2" d="M142.4,209.9c0-3.4,1.8-5.3,5-5.3c3.2,0,5,1.9,5,5.3v10.9c0,3.4-1.8,5.3-5,5.3c-3.2,0-5-1.9-5-5.3V209.9z
				 M145.7,221c0,1.5,0.7,2.1,1.7,2.1c1,0,1.7-0.6,1.7-2.1v-11.3c0-1.5-0.7-2.1-1.7-2.1c-1.1,0-1.7,0.6-1.7,2.1V221z"/>
			<path class="st2" d="M160,215.5l-4.8,10.3h-0.7l5.1-10.9l-4.8-10.1h0.7l4.5,9.5l4.5-9.5h0.7l-4.8,10.1l5.1,10.9h-0.7L160,215.5z"
				/>
			<path class="st2" d="M167.1,219l6-14.2h3.6V219h1.6v3h-1.6v3.8h-3.2V222h-6.4V219z M173.4,219v-7.9l-3.3,7.9H173.4z"/>
			<path class="st2" d="M179.5,209.9c0-3.4,1.8-5.3,5-5.3c3.2,0,5,1.9,5,5.3v10.9c0,3.4-1.8,5.3-5,5.3c-3.2,0-5-1.9-5-5.3V209.9z
				 M182.8,221c0,1.5,0.7,2.1,1.7,2.1c1,0,1.7-0.6,1.7-2.1v-11.3c0-1.5-0.7-2.1-1.7-2.1c-1.1,0-1.7,0.6-1.7,2.1V221z"/>
		</g>
		<circle fill="#E98CA9" cx="158.5" cy="154.5" r="30"/>
	</g>
	<g>
		<rect x="223.5" y="54.5" class="st0" width="130" height="186"/>
		<path class="st1" d="M301,79.5h-25c-2.8,0-5-2.2-5-5v0c0-2.8,2.2-5,5-5h25c2.8,0,5,2.2,5,5v0C306,77.3,303.8,79.5,301,79.5z"/>
		<g>
			<path class="st2" d="M258.5,220.5l6-14.2h3.6v14.2h1.6v3h-1.6v3.8h-3.2v-3.8h-6.4V220.5z M264.9,220.5v-7.9l-3.3,7.9H264.9z"/>
			<path class="st2" d="M270.9,211.4c0-3.4,1.8-5.3,5-5.3c3.2,0,5,1.9,5,5.3v10.9c0,3.4-1.8,5.3-5,5.3c-3.2,0-5-1.9-5-5.3V211.4z
				 M274.2,222.5c0,1.5,0.7,2.1,1.7,2.1c1,0,1.7-0.6,1.7-2.1v-11.3c0-1.5-0.7-2.1-1.7-2.1c-1.1,0-1.7,0.6-1.7,2.1V222.5z"/>
			<path class="st2" d="M288.5,217l-4.8,10.3H283l5.1-10.9l-4.8-10.1h0.7l4.5,9.5l4.5-9.5h0.7l-4.8,10.1l5.1,10.9h-0.7L288.5,217z"
				/>
			<path class="st2" d="M299.3,220.5v1.9c0,1.5,0.7,2,1.7,2c1,0,1.7-0.5,1.7-2v-4.6c0-1.5-0.7-2.1-1.7-2.1c-1.1,0-1.7,0.6-1.7,2.1
				v0.6h-3.1l0.6-12.2h8.7v3h-5.7l-0.3,5c0.6-1,1.6-1.5,2.9-1.5c2.4,0,3.7,1.7,3.7,4.8v4.7c0,3.4-1.7,5.3-4.9,5.3s-4.9-1.9-4.9-5.3
				v-1.7H299.3z"/>
			<path class="st2" d="M308,211.4c0-3.4,1.8-5.3,5-5.3c3.2,0,5,1.9,5,5.3v10.9c0,3.4-1.8,5.3-5,5.3c-3.2,0-5-1.9-5-5.3V211.4z
				 M311.3,222.5c0,1.5,0.7,2.1,1.7,2.1c1,0,1.7-0.6,1.7-2.1v-11.3c0-1.5-0.7-2.1-1.7-2.1c-1.1,0-1.7,0.6-1.7,2.1V222.5z"/>
		</g>
		<circle fill="#E94D00" cx="288.5" cy="145" r="41"/>
	</g>
	<g>
		<rect x="363.5" y="30.5" class="st0" width="146" height="210"/>
		<path class="st1" d="M449,57h-25c-2.8,0-5-2.2-5-5v0c0-2.8,2.2-5,5-5h25c2.8,0,5,2.2,5,5v0C454,54.8,451.8,57,449,57z"/>
		<g>
			<path class="st2" d="M410.3,221v1.9c0,1.5,0.7,2,1.7,2c1,0,1.7-0.5,1.7-2v-4.6c0-1.5-0.7-2.1-1.7-2.1c-1.1,0-1.7,0.6-1.7,2.1v0.6
				h-3.1l0.6-12.2h8.7v3h-5.7l-0.3,5c0.6-1,1.6-1.5,2.9-1.5c2.4,0,3.7,1.7,3.7,4.8v4.7c0,3.4-1.7,5.3-4.9,5.3s-4.9-1.9-4.9-5.3V221
				H410.3z"/>
			<path class="st2" d="M418.9,211.9c0-3.4,1.8-5.3,5-5.3c3.2,0,5,1.9,5,5.3v10.9c0,3.4-1.8,5.3-5,5.3c-3.2,0-5-1.9-5-5.3V211.9z
				 M422.2,223c0,1.5,0.7,2.1,1.7,2.1c1,0,1.7-0.6,1.7-2.1v-11.3c0-1.5-0.7-2.1-1.7-2.1c-1.1,0-1.7,0.6-1.7,2.1V223z"/>
			<path class="st2" d="M436.5,217.5l-4.8,10.3H431l5.1-10.9l-4.8-10.1h0.7l4.5,9.5l4.5-9.5h0.7l-4.8,10.1l5.1,10.9h-0.7
				L436.5,217.5z"/>
			<path class="st2" d="M444.1,212c0-3.5,1.6-5.5,5-5.5c3.2,0,4.9,1.9,4.9,5.3v0.5H451v-0.8c0-1.5-0.7-2.1-1.7-2.1
				c-1.2,0-1.8,0.6-1.8,2.6v3.8c0.6-1.2,1.6-1.9,3.1-1.9c2.4,0,3.7,1.7,3.7,4.8v3.8c0,3.4-1.8,5.3-5,5.3c-3.2,0-5-1.9-5-5.3V212z
				 M447.4,219.2v3.8c0,1.5,0.7,2,1.7,2c1,0,1.7-0.5,1.7-2v-3.8c0-1.5-0.7-2.1-1.7-2.1C448.1,217.1,447.4,217.7,447.4,219.2z"/>
			<path class="st2" d="M456,211.9c0-3.4,1.8-5.3,5-5.3c3.2,0,5,1.9,5,5.3v10.9c0,3.4-1.8,5.3-5,5.3c-3.2,0-5-1.9-5-5.3V211.9z
				 M459.3,223c0,1.5,0.7,2.1,1.7,2.1c1,0,1.7-0.6,1.7-2.1v-11.3c0-1.5-0.7-2.1-1.7-2.1c-1.1,0-1.7,0.6-1.7,2.1V223z"/>
		</g>
		<circle class="st3" cx="436.5" cy="131.5" r="47"/>
	</g>
	<g>
		<rect x="519.5" y="30.5" class="st0" width="200" height="210"/>
		<path class="st1" d="M632,58.5h-25c-2.8,0-5-2.2-5-5v0c0-2.8,2.2-5,5-5h25c2.8,0,5,2.2,5,5v0C637,56.3,634.8,58.5,632,58.5z"/>
		<g>
			<path class="st2" d="M590.1,213.5c0-3.5,1.6-5.5,5-5.5c3.2,0,4.9,1.9,4.9,5.3v0.5h-3.1v-0.8c0-1.5-0.7-2.1-1.7-2.1
				c-1.2,0-1.8,0.6-1.8,2.6v3.8c0.6-1.2,1.6-1.9,3.1-1.9c2.4,0,3.7,1.7,3.7,4.8v3.8c0,3.4-1.8,5.3-5,5.3c-3.2,0-5-1.9-5-5.3V213.5z
				 M593.4,220.7v3.8c0,1.5,0.7,2,1.7,2c1,0,1.7-0.5,1.7-2v-3.8c0-1.5-0.7-2.1-1.7-2.1C594,218.6,593.4,219.2,593.4,220.7z"/>
			<path class="st2" d="M601.9,213.4c0-3.4,1.8-5.3,5-5.3s5,1.9,5,5.3v10.9c0,3.4-1.8,5.3-5,5.3s-5-1.9-5-5.3V213.4z M605.2,224.5
				c0,1.5,0.7,2.1,1.7,2.1s1.7-0.6,1.7-2.1v-11.3c0-1.5-0.7-2.1-1.7-2.1s-1.7,0.6-1.7,2.1V224.5z"/>
			<path class="st2" d="M619.5,219l-4.8,10.3h-0.7l5.1-10.9l-4.8-10.1h0.7l4.5,9.5l4.5-9.5h0.7l-4.8,10.1l5.1,10.9h-0.7L619.5,219z"
				/>
			<path class="st2" d="M630.3,222.5v1.9c0,1.5,0.7,2,1.7,2c1,0,1.7-0.5,1.7-2v-4.6c0-1.5-0.7-2.1-1.7-2.1c-1.1,0-1.7,0.6-1.7,2.1
				v0.6h-3.1l0.6-12.2h8.7v3h-5.7l-0.3,5c0.6-1,1.6-1.5,2.9-1.5c2.4,0,3.7,1.7,3.7,4.8v4.7c0,3.4-1.7,5.3-4.9,5.3
				c-3.2,0-4.9-1.9-4.9-5.3v-1.7H630.3z"/>
			<path class="st2" d="M639,213.4c0-3.4,1.8-5.3,5-5.3s5,1.9,5,5.3v10.9c0,3.4-1.8,5.3-5,5.3s-5-1.9-5-5.3V213.4z M642.3,224.5
				c0,1.5,0.7,2.1,1.7,2.1s1.7-0.6,1.7-2.1v-11.3c0-1.5-0.7-2.1-1.7-2.1s-1.7,0.6-1.7,2.1V224.5z"/>
		</g>
		<circle fill="#0052BB" cx="619.5" cy="133" r="51.5"/>
	</g>
	<g>
		<rect x="729.5" y="0.5" class="st0" width="226" height="240"/>
		<path class="st1" d="M857.5,32.5h-25c-2.8,0-5-2.2-5-5v0c0-2.8,2.2-5,5-5h25c2.8,0,5,2.2,5,5v0C862.5,30.3,860.3,32.5,857.5,32.5z
			"/>
		<g>
			<path class="st2" d="M815.6,213.5c0-3.5,1.6-5.5,5-5.5c3.2,0,4.9,1.9,4.9,5.3v0.5h-3.1v-0.8c0-1.5-0.7-2.1-1.7-2.1
				c-1.2,0-1.8,0.6-1.8,2.6v3.8c0.6-1.2,1.6-1.9,3.1-1.9c2.4,0,3.7,1.7,3.7,4.8v3.8c0,3.4-1.8,5.3-5,5.3c-3.2,0-5-1.9-5-5.3V213.5z
				 M818.9,220.7v3.8c0,1.5,0.7,2,1.7,2c1,0,1.7-0.5,1.7-2v-3.8c0-1.5-0.7-2.1-1.7-2.1C819.5,218.6,818.9,219.2,818.9,220.7z"/>
			<path class="st2" d="M827.4,213.4c0-3.4,1.8-5.3,5-5.3s5,1.9,5,5.3v10.9c0,3.4-1.8,5.3-5,5.3s-5-1.9-5-5.3V213.4z M830.7,224.5
				c0,1.5,0.7,2.1,1.7,2.1s1.7-0.6,1.7-2.1v-11.3c0-1.5-0.7-2.1-1.7-2.1s-1.7,0.6-1.7,2.1V224.5z"/>
			<path class="st2" d="M845,219l-4.8,10.3h-0.7l5.1-10.9l-4.8-10.1h0.7l4.5,9.5l4.5-9.5h0.7l-4.8,10.1l5.1,10.9h-0.7L845,219z"/>
			<path class="st2" d="M855.8,222.5v1.9c0,1.5,0.7,2,1.7,2c1,0,1.7-0.5,1.7-2v-4.6c0-1.5-0.7-2.1-1.7-2.1c-1.1,0-1.7,0.6-1.7,2.1
				v0.6h-3.1l0.6-12.2h8.7v3h-5.7l-0.3,5c0.6-1,1.6-1.5,2.9-1.5c2.4,0,3.7,1.7,3.7,4.8v4.7c0,3.4-1.7,5.3-4.9,5.3
				c-3.2,0-4.9-1.9-4.9-5.3v-1.7H855.8z"/>
			<path class="st2" d="M864.5,213.4c0-3.4,1.8-5.3,5-5.3s5,1.9,5,5.3v10.9c0,3.4-1.8,5.3-5,5.3s-5-1.9-5-5.3V213.4z M867.8,224.5
				c0,1.5,0.7,2.1,1.7,2.1s1.7-0.6,1.7-2.1v-11.3c0-1.5-0.7-2.1-1.7-2.1s-1.7,0.6-1.7,2.1V224.5z"/>
		</g>
		<circle fill="#01A31D" cx="845" cy="122" r="60"/>
	</g>
</g>
</svg>
