<?xml version="1.0" encoding="UTF-8" standalone="no"?>
<!-- Created with Inkscape (http://www.inkscape.org/) -->
<svg xmlns:rdf="http://www.w3.org/1999/02/22-rdf-syntax-ns#" xmlns="http://www.w3.org/2000/svg" version="1.1" xmlns:cc="http://creativecommons.org/ns#" xmlns:dc="http://purl.org/dc/elements/1.1/" viewBox="0 0 32 32">
 <metadata>
  <rdf:RDF>
   <cc:Work rdf:about="">
    <dc:format>image/svg+xml</dc:format>
    <dc:type rdf:resource="http://purl.org/dc/dcmitype/StillImage"/>
    <dc:title/>
   </cc:Work>
  </rdf:RDF>
 </metadata>
 <path d="m30.568,4.7483c0-2.2086-1.7904-3.999-3.999-3.999s-3.999,1.7904-3.999,3.999l-0.0199,1.755c0,3.5478-2.8761,6.4239-6.424,6.4239-3.5478,0-6.4239-2.8761-6.4239-6.4239l-0.009-1.755c0-2.2086-1.7904-3.999-3.999-3.999s-3.999,1.7904-3.999,3.999l0.12344,17.923c0,4.8191,3.8796,8.6987,8.6987,8.6987h11.254c4.8191,0,8.6987-3.8796,8.6987-8.6987z" style="stroke:#d60a52;stroke-width:1;stroke-miterlimit:4;fill:none;"/>
 <path style="stroke:#d60a52;stroke-dasharray:none;stroke-miterlimit:4;stroke-width:1;fill:none;" d="m434.51,47.848a1.9794,1.9794,0,1,1,-3.9588,0,1.9794,1.9794,0,1,1,3.9588,0z" transform="translate(-419.35012,-24.328939)"/>
 <path style="stroke:#d60a52;stroke-dasharray:none;stroke-miterlimit:4;stroke-width:1;fill:none;" d="m434.51,47.848a1.9794,1.9794,0,1,1,-3.9588,0,1.9794,1.9794,0,1,1,3.9588,0z" transform="translate(-413.75126,-24.328939)"/>
 <path style="stroke-linejoin:miter;stroke:#d60a52;stroke-linecap:butt;stroke-width:1px;fill:none;" d="m13.515,21.257s1.2442-1.9794,2.6015-2.7146"/>
 <path style="stroke-linejoin:miter;stroke:#d60a52;stroke-linecap:butt;stroke-width:1px;fill:none;" d="m18.718,21.314s-0.16966-2.6015-5.8251-4.694"/>
 <path style="stroke-linejoin:miter;stroke:#d70b52;stroke-linecap:butt;stroke-width:1px;fill:none;" d="m28.707,3.2664-1.7198-1.237m-1.5709,0.46978-1.1942,1.7909m0.008,1.9697-0.0244,2.5565m-1.1619,1.98-1.7595,2.2145m-2.4664,1.1078-2.693,0.45948m-3.2926-0.77618-2.2377-1.2999m-1.7762-2.298-0.5611-2.7946m-0.1726-2.2189-0.5748-2.2271m-1.4883-0.98658-2.2704,0.99595m-0.55464,1.3296,0.017,2.5449m0.0134,2,0.017,2.5449m0.0134,2,0.017,2.5449m0.0134,2,0.017,2.5449m0.0134,2,0.27754,2.1526m0.57213,1.4452,1.2564,1.6886m1.3462,1.048,1.9277,0.81478m1.6778,0.23145,2.4694,0.008m2,0,2.5449,0m2,0,2.4695-0.006m1.6794-0.22061,1.9339-0.79995m1.3525-1.0395,1.2686-1.6786m0.58696-1.4389,0.29057-2.1488m0.0106-2,0.0134-2.5449m0.0106-2,0.0134-2.5449m0.0106-2,0.0134-2.5449m0.0106-2,0.0134-2.5449"/>
</svg>
