<?xml version="1.0" encoding="UTF-8" standalone="no"?>
<!-- Created with Inkscape (http://www.inkscape.org/) -->
<svg xmlns:rdf="http://www.w3.org/1999/02/22-rdf-syntax-ns#" xmlns="http://www.w3.org/2000/svg" version="1.1" xmlns:cc="http://creativecommons.org/ns#" xmlns:dc="http://purl.org/dc/elements/1.1/" viewBox="0 0 32 32">
 <metadata>
  <rdf:RDF>
   <cc:Work rdf:about="">
    <dc:format>image/svg+xml</dc:format>
    <dc:type rdf:resource="http://purl.org/dc/dcmitype/StillImage"/>
    <dc:title/>
   </cc:Work>
  </rdf:RDF>
 </metadata>
 <path style="stroke-linejoin:miter;stroke:#d70b52;stroke-linecap:butt;stroke-width:1px;fill:none;" d="m16.172,17.664s-3.5532-2.4318-3.5532-4.185c0-0.9897,0.64687-1.5552,1.6966-1.5552,0.93199,0,1.8663,1.329,1.8663,1.329s1.018-1.3007,1.8097-1.3007c1.1876,0,1.6966,0.56554,1.6966,1.8097s-3.516,3.9022-3.516,3.9022z"/>
 <path style="stroke:#d70b52;stroke-dasharray:none;stroke-miterlimit:4;stroke-width:1;fill:none;" d="m30.304,11.044c0,5.0892-4.097,9.1862-9.1862,9.1862h-10.361c-5.0892,0-9.1862-4.097-9.1862-9.1862l0.0104-3.381h28.723z"/>
 <path style="stroke-linejoin:miter;stroke:#d70b52;stroke-linecap:butt;stroke-width:1px;fill:none;" d="m3.5001,5.3723,0,2.2903"/>
 <path d="m8.6188,5.3723,0,2.2903" style="stroke-linejoin:miter;stroke:#d70b52;stroke-linecap:butt;stroke-width:1px;fill:none;"/>
 <path style="stroke-linejoin:miter;stroke:#d70b52;stroke-linecap:butt;stroke-width:1px;fill:none;" d="m13.538,5.3723,0,2.2903"/>
 <path d="m18.536,5.3723,0,2.2903" style="stroke-linejoin:miter;stroke:#d70b52;stroke-linecap:butt;stroke-width:1px;fill:none;"/>
 <path style="stroke-linejoin:miter;stroke:#d70b52;stroke-linecap:butt;stroke-width:1px;fill:none;" d="m23.575,5.3723,0,2.2903"/>
 <path d="m28.534,5.3723,0,2.2903" style="stroke-linejoin:miter;stroke:#d70b52;stroke-linecap:butt;stroke-width:1px;fill:none;"/>
 <rect style="stroke:#d70b52;stroke-dasharray:none;stroke-miterlimit:4;stroke-width:0.9872871;fill:none;" rx="1.4485" ry="1.4485" height="2.897" width="29.308" y="2.5619" x="1.3586"/>
 <path style="stroke-linejoin:miter;stroke:#d70b52;stroke-linecap:butt;stroke-width:1px;fill:none;" d="m28.059,23.154-2.4318-4.1284"/>
 <path style="stroke-linejoin:miter;stroke:#d70b52;stroke-linecap:butt;stroke-width:1px;fill:none;" d="m23.195,20.043,2.6015,5.1464"/>
 <path d="m4.1203,23.154,2.4318-4.1284" style="stroke-linejoin:miter;stroke:#d70b52;stroke-linecap:butt;stroke-width:1px;fill:none;"/>
 <path d="m8.984,20.043-2.6015,5.1464" style="stroke-linejoin:miter;stroke:#d70b52;stroke-linecap:butt;stroke-width:1px;fill:none;"/>
 <path style="stroke-linejoin:miter;baseline-shift:baseline;block-progression:tb;stroke:#d70b52;stroke-linecap:butt;stroke-width:0.98424864;fill:none;color:#000000;stroke-miterlimit:4;direction:ltr;text-indent:0;text-align:start;stroke-dashoffset:0;stroke-dasharray:none;enable-background:accumulate;text-transform:none;" d="M2.1778,22.305a1.4647,1.4884,0,0,0,-0.9763,2.574s5.4084,5.302,14.859,5.302,14.737-5.302,14.737-5.302a1.4647,1.4884,0,1,0,-2.0443,-2.1084s-4.2897,4.4339-12.693,4.4339c-8.403,0-12.815-4.4649-12.815-4.4649a1.4647,1.4884,0,0,0,-1.0672,-0.435z"/>
</svg>
