<?xml version="1.0" encoding="UTF-8" standalone="no"?>
<!-- Created with Inkscape (http://www.inkscape.org/) -->
<svg xmlns:rdf="http://www.w3.org/1999/02/22-rdf-syntax-ns#" xmlns="http://www.w3.org/2000/svg" version="1.1" xmlns:cc="http://creativecommons.org/ns#" xmlns:dc="http://purl.org/dc/elements/1.1/" viewBox="0 0 182 104">
 <metadata>
  <rdf:RDF>
   <cc:Work rdf:about="">
    <dc:format>image/svg+xml</dc:format>
    <dc:type rdf:resource="http://purl.org/dc/dcmitype/StillImage"/>
    <dc:title/>
   </cc:Work>
  </rdf:RDF>
 </metadata>
 <path style="enable-background:accumulate;color:#000000;fill:#d70b52;" d="m34.4,0.5687c-12.545,0-22.719,10.174-22.719,22.719v15.281s0.4783,2.9332-1.2812,5.8125c-6.1895,7.5506-10.25,15.119-10.25,25.312,0,0.32363,0.0228,0.64503,0.0312,0.96875,10.953-0.21497,26.472-2.1622,34.156-17.625,7.8967,15.151,22.279,17.244,34.25,17.5,0.006-0.27967,0.0312-0.56427,0.0312-0.84375,0-10.177-5.0217-18.767-10.312-25.438-1.2797-2.4794-1.1875-5.375-1.1875-5.375v-15.594c0-12.545-10.174-22.719-22.719-22.719zm0,6.7187c9.1877,0,16.625,7.4686,16.625,16.656,0,9.1877-7.4373,16.625-16.625,16.625s-16.656-7.4373-16.656-16.625,7.4686-16.656,16.656-16.656zm0.0625,35.188c1.9435,0,3.5312,1.5877,3.5312,3.5312,0,1.9436-1.5877,3.5312-3.5312,3.5312-1.9436,0-3.5-1.5877-3.5-3.5312,0-1.9436,1.5564-3.5312,3.5-3.5312zm-5.4688,4.2188c0.44713-0.0212,0.71875,0,0.71875,0s0.24879,1.342,0.5625,1.8125c0.56554,0.84831,1.6875,1.4688,1.6875,1.4688-0.42808,1.3329-1.2493,3.7076-4.625,5.4375-3.1545,1.6165-8.2812,0.78125-8.2812,0.78125s0.70354-5.5266,3.5312-7.5625c2.1208-1.527,5.0648-1.8739,6.4062-1.9375zm10.344,0s4.2973-0.0985,7.125,1.9375,3.5,7.5625,3.5,7.5625-5.0955,0.83528-8.25-0.78125c-3.3757-1.7299-4.2282-4.1046-4.6562-5.4375,0,0,1.1532-0.62044,1.7188-1.4688,0.3137-0.47055,0.5625-1.8125,0.5625-1.8125z"/>
 <path style="enable-background:accumulate;color:#000000;fill:#1d71b9;" d="m34.243,58.35c-7.3559,12.631-23.567,15.127-33.844,15.375,1.2048,11.656,7.2172,22.958,11.531,29.719h44.844c4.4092-6.9206,10.5-18.373,11.625-30.063-10.393-0.0251-26.401-1.9381-34.156-15.031zm-12.75,17.25c0.0778-0.0213,0.16055-0.018,0.21875,0h6.875c2.3681,0.0645,3.9836,0.59007,4.8438,1.5938,0.86014,1.0037,1.2686,2.1118,1.2188,3.2812-0.0482,1.3722-0.3741,2.4637-1,3.2812-0.62593,0.81756-1.2491,1.4388-1.875,1.875-0.62593,0.43623-0.98312,0.7718-1.0312,1,0.0578,0.24236,0.46763,0.78563,1.2188,1.625,0.75108,0.83938,1.4989,1.966,2.25,3.4062,0.75108,1.4403,1.161,3.205,1.2188,5.25,0.007,0.13921-0.0378,0.205-0.125,0.25-0.0872,0.0449-0.26531,0.0665-0.53125,0.0625h-2.9375c-0.25785,0.0119-0.52869,0.0206-0.8125,0-0.28384-0.0206-0.44493-0.11642-0.46875-0.3125-0.0164-1.0263-0.2134-2.1733-0.59375-3.4375-0.38038-1.2642-0.82709-2.3747-1.375-3.3125-0.54793-0.93774-1.0747-1.4218-1.5938-1.4688-0.45284,0.0141-1.0214,0.25618-1.6562,0.71875-0.63483,0.46258-0.96842,1.0392-1.0312,1.7812,0.0119,0.68931,0.0956,1.4859,0.25,2.3438,0.15438,0.85783,0.31435,1.5915,0.46875,2.25,0.15438,0.65849,0.23812,1.0337,0.25,1.125-0.0217,0.20637-0.15835,0.33575-0.375,0.34375-0.21667,0.008-0.37959-0.0166-0.53125-0.0312h-3.0312c-0.22229,0.0663-0.43879,0.003-0.65625-0.21875-0.21747-0.22163-0.38601-0.97629-0.53125-2.2812-0.14525-1.305-0.2444-3.5663-0.25-6.75,0.006-3.1751,0.0792-5.6173,0.21875-7.3438,0.13954-1.7264,0.32873-2.9479,0.53125-3.6562,0.20251-0.70834,0.39895-1.1291,0.59375-1.25,0.0974-0.0603,0.1722-0.10369,0.25-0.125zm17.281,0c0.0778-0.0213,0.1293-0.018,0.1875,0h6.75c2.2343,0.0542,3.6909,0.48612,4.375,1.2812,0.6841,0.79518,0.97286,1.6451,0.90625,2.5312-0.0366,0.95125-0.27432,1.7708-0.75,2.4688-0.47571,0.69799-0.96182,1.2803-1.4375,1.75-0.47571,0.46978-0.71342,0.82719-0.75,1.0938,0.0517,0.29612,0.39067,0.73855,1.0625,1.3438,0.6718,0.60523,1.3594,1.4365,2.0312,2.4375s1.042,2.2353,1.0938,3.7188c0.0249,1.3238-0.42095,2.4829-1.3125,3.4688-0.89159,0.98582-2.393,1.4814-4.5,1.5312h-7.8125c-0.22229,0.0663-0.43879,0.003-0.65625-0.21875-0.21747-0.22163-0.41726-0.97629-0.5625-2.2812-0.14525-1.305-0.21315-3.5663-0.21875-6.75,0.006-3.1751,0.0792-5.6173,0.21875-7.3438,0.13954-1.7264,0.29748-2.9479,0.5-3.6562,0.20251-0.70834,0.39895-1.1291,0.59375-1.25,0.0974-0.0603,0.20345-0.10369,0.28125-0.125zm-11.281,3.0625c-1.1776-0.0579-2.0154,0.28124-2.5625,1-0.54709,0.7188-0.83092,2.184-0.8125,4.375-0.0152,0.30497,0.0362,0.6398,0.125,1,0.0888,0.36021,0.31266,0.5306,0.6875,0.5625,0.34633-0.0138,0.94423-0.24229,1.8125-0.6875,0.86825-0.44519,1.6987-1.0078,2.4688-1.7188,0.77003-0.71096,1.1671-1.4701,1.2188-2.2812-0.0347-0.80977-0.34385-1.4049-0.9375-1.75-0.59367-0.34502-1.2634-0.509-2-0.5zm17.219,0c-1.2821-0.0379-2.2344,0.31395-2.8438,1.0625-0.60938,0.74859-0.91115,2.135-0.90625,4.125-0.0173,0.27734,0.002,0.52993,0.0625,0.78125,0.0607,0.25134,0.27833,0.38895,0.625,0.40625,0.16899-0.006,0.38324-0.0743,0.65625-0.1875,0.27299-0.1132,0.52899-0.22603,0.75-0.375l1.9062-1.3438c0.40677-0.29248,0.79045-0.7105,1.1875-1.25,0.39702-0.53948,0.62645-1.1037,0.65625-1.6562-0.0249-0.61098-0.2661-1.029-0.6875-1.25-0.42142-0.22099-0.88735-0.3255-1.4062-0.3125zm0.3125,8.0312c-0.17551,0.009-0.36101,0.0879-0.5625,0.1875-0.20151,0.0997-0.38176,0.19455-0.53125,0.28125l-1.6875,0.90625c-0.35371,0.1755-0.61805,0.35576-0.8125,0.53125-0.19446,0.17551-0.3098,0.46551-0.3125,0.875-0.003,1.9142,0.271,3.1318,0.78125,3.6875,0.51023,0.55575,1.281,0.8117,2.3438,0.75,0.97606,0.0119,1.8452-0.20142,2.5938-0.625,0.74856-0.42357,1.1474-1.1229,1.1875-2.125-0.0807-0.99286-0.50957-1.9869-1.25-2.9375-0.74046-0.9506-1.3183-1.4614-1.75-1.5312z"/>
 <path d="m106.71,22.212c-0.00001,0.94337-0.1172,1.7871-0.35156,2.5312-0.23439,0.74415-0.58302,1.3755-1.0459,1.894-0.4629,0.51855-1.0357,0.91406-1.7183,1.1865-0.68263,0.27246-1.4722,0.40869-2.3687,0.40869-0.88477,0-1.6567-0.11572-2.3159-0.34717-0.65919-0.23144-1.2085-0.58447-1.648-1.0591-0.43946-0.47461-0.76905-1.0781-0.98877-1.8106-0.21973-0.73241-0.32959-1.5996-0.32959-2.6016,0-0.91991,0.11718-1.7476,0.35156-2.4829,0.23437-0.73534,0.58301-1.3608,1.0459-1.8765,0.46289-0.51562,1.0356-0.91112,1.7183-1.1865,0.68261-0.27538,1.4751-0.41307,2.3774-0.41308,0.86132,0.00001,1.6216,0.11427,2.2808,0.34277,0.65917,0.22853,1.21,0.58009,1.6524,1.0547,0.44237,0.47462,0.77635,1.0737,1.002,1.7974,0.22557,0.72364,0.33837,1.5776,0.33838,2.562zm-2.4258,0.12305c-0.00001-0.59765-0.0469-1.1411-0.14063-1.6304-0.0938-0.48925-0.25342-0.9082-0.479-1.2568-0.2256-0.34862-0.52589-0.61815-0.90088-0.80859-0.37501-0.19042-0.84376-0.28564-1.4062-0.28564-0.56837,0-1.043,0.10694-1.4238,0.3208-0.38086,0.21387-0.68848,0.49952-0.92285,0.85693-0.23438,0.35743-0.39991,0.77491-0.49658,1.2524-0.0967,0.47755-0.14502,0.98292-0.14502,1.5161,0,0.6211,0.0469,1.1792,0.14062,1.6743,0.0937,0.49512,0.25195,0.91846,0.47461,1.27,0.22266,0.35157,0.52148,0.61963,0.89649,0.8042,0.37499,0.18457,0.84667,0.27686,1.415,0.27685,0.56835,0.00001,1.043-0.10546,1.4238-0.3164,0.38086-0.21094,0.68847-0.49805,0.92286-0.86133,0.23436-0.36328,0.39989-0.78662,0.49658-1.27,0.0967-0.48339,0.14501-0.99755,0.14502-1.5425z" style="fill:#d70b52;text-align:center;"/>
 <path d="m118.01,27.731c-0.00001,0.0586-0.0176,0.10987-0.0527,0.15381-0.0352,0.0439-0.0967,0.0806-0.18457,0.10987-0.0879,0.0293-0.20655,0.0513-0.35595,0.0659-0.14943,0.0146-0.33546,0.022-0.55811,0.022-0.22266,0-0.4087-0.007-0.55811-0.022-0.14942-0.0146-0.26807-0.0366-0.35595-0.0659-0.0879-0.0293-0.15089-0.0659-0.18897-0.10987-0.0381-0.0439-0.0571-0.0952-0.0571-0.15381v-9.1494h-4.2363v9.1494c-0.00001,0.0586-0.019,0.10987-0.0571,0.15381-0.0381,0.0439-0.10108,0.0806-0.18897,0.10987-0.0879,0.0293-0.20508,0.0513-0.35156,0.0659-0.14649,0.0146-0.33399,0.022-0.5625,0.022-0.22266,0-0.40869-0.007-0.55811-0.022-0.14941-0.0146-0.26806-0.0366-0.35595-0.0659-0.0879-0.0293-0.14942-0.0659-0.18457-0.10987-0.0352-0.0439-0.0527-0.0952-0.0527-0.15381v-10.345c0-0.24608,0.0615-0.42919,0.18457-0.54932,0.12305-0.1201,0.28711-0.18016,0.49219-0.18017h7.5146c0.21093,0.00001,0.37499,0.0601,0.49219,0.18017,0.11717,0.12013,0.17577,0.30324,0.17578,0.54932z" style="fill:#d70b52;text-align:center;"/>
 <path d="m128.57,17.606c0,0.16994-0.007,0.31496-0.022,0.43506-0.0147,0.12013-0.0366,0.21681-0.0659,0.29004-0.0293,0.0733-0.0659,0.12745-0.10986,0.1626-0.0439,0.0352-0.0923,0.0527-0.14502,0.0527h-2.8477v9.167c0,0.0586-0.019,0.11133-0.0571,0.1582-0.0381,0.0469-0.10108,0.085-0.18897,0.11426-0.0879,0.0293-0.20655,0.0527-0.35596,0.0703-0.14942,0.0176-0.33545,0.0264-0.5581,0.0264-0.22266,0-0.4087-0.009-0.55811-0.0264-0.14942-0.0176-0.26807-0.041-0.35595-0.0703-0.0879-0.0293-0.15089-0.0674-0.18897-0.11426-0.0381-0.0469-0.0571-0.0996-0.0571-0.1582v-9.167h-2.8476c-0.0586,0.00001-0.1084-0.0176-0.14942-0.0527-0.041-0.0352-0.0762-0.0893-0.10547-0.1626-0.0293-0.0732-0.0513-0.16991-0.0659-0.29004-0.0146-0.1201-0.022-0.26512-0.022-0.43506,0-0.17577,0.007-0.32518,0.022-0.44824,0.0146-0.12303,0.0366-0.22118,0.0659-0.29443,0.0293-0.0732,0.0645-0.12597,0.10547-0.1582,0.041-0.0322,0.0908-0.0483,0.14942-0.0483h8.0156c0.0527,0.00001,0.10107,0.0161,0.14502,0.0483,0.0439,0.0322,0.0806,0.085,0.10986,0.1582,0.0293,0.0733,0.0513,0.1714,0.0659,0.29443,0.0146,0.12306,0.022,0.27247,0.022,0.44824z" style="fill:#d70b52;text-align:center;"/>
 <path d="m140.66,22.212c-0.00001,0.94337-0.1172,1.7871-0.35156,2.5312-0.23439,0.74415-0.58302,1.3755-1.0459,1.894-0.4629,0.51855-1.0357,0.91406-1.7183,1.1865-0.68262,0.27246-1.4722,0.40869-2.3686,0.40869-0.88477,0-1.6567-0.11572-2.3159-0.34717-0.65918-0.23144-1.2085-0.58447-1.6479-1.0591-0.43946-0.47461-0.76905-1.0781-0.98877-1.8106-0.21973-0.73241-0.32959-1.5996-0.32959-2.6016,0-0.91991,0.11718-1.7476,0.35156-2.4829,0.23437-0.73534,0.583-1.3608,1.0459-1.8765,0.46289-0.51562,1.0356-0.91112,1.7183-1.1865,0.68261-0.27538,1.4751-0.41307,2.3774-0.41308,0.86132,0.00001,1.6216,0.11427,2.2808,0.34277,0.65917,0.22853,1.21,0.58009,1.6524,1.0547,0.44237,0.47462,0.77635,1.0737,1.002,1.7974,0.22557,0.72364,0.33837,1.5776,0.33838,2.562zm-2.4258,0.12305c-0.00001-0.59765-0.0469-1.1411-0.14063-1.6304-0.0938-0.48925-0.25343-0.9082-0.479-1.2568-0.2256-0.34862-0.52589-0.61815-0.90088-0.80859-0.37501-0.19042-0.84376-0.28564-1.4062-0.28564-0.56837,0-1.043,0.10694-1.4238,0.3208-0.38086,0.21387-0.68848,0.49952-0.92285,0.85693-0.23438,0.35743-0.39991,0.77491-0.49658,1.2524-0.0967,0.47755-0.14503,0.98292-0.14502,1.5161-0.00001,0.6211,0.0469,1.1792,0.14062,1.6743,0.0937,0.49512,0.25195,0.91846,0.47461,1.27,0.22265,0.35157,0.52148,0.61963,0.89649,0.8042,0.37499,0.18457,0.84667,0.27686,1.415,0.27685,0.56835,0.00001,1.043-0.10546,1.4238-0.3164,0.38085-0.21094,0.68847-0.49805,0.92285-0.86133,0.23437-0.36328,0.3999-0.78662,0.49659-1.27,0.0967-0.48339,0.14501-0.99755,0.14502-1.5425z" style="fill:#d70b52;text-align:center;"/>
 <path d="m151.33,24.62c-0.00001,0.4043-0.0557,0.77051-0.16699,1.0986-0.11134,0.32813-0.26515,0.61817-0.46143,0.87012-0.19629,0.25195-0.43067,0.46875-0.70312,0.65039-0.27247,0.18164-0.57276,0.33105-0.90088,0.44824-0.32813,0.11719-0.67823,0.20361-1.0503,0.25928-0.37208,0.0557-0.78663,0.0835-1.2436,0.0835h-3.0234c-0.19336,0-0.35596-0.0571-0.48779-0.17138-0.13184-0.11426-0.19776-0.3003-0.19776-0.55811v-9.9141c0-0.2578,0.0659-0.44384,0.19776-0.55811,0.13183-0.11424,0.29443-0.17137,0.48779-0.17138h2.8564c0.69726,0.00001,1.2876,0.0586,1.771,0.17578,0.48339,0.1172,0.89062,0.29444,1.2217,0.53174,0.33105,0.23731,0.58446,0.5376,0.76025,0.90087,0.17578,0.3633,0.26367,0.79103,0.26368,1.2832-0.00001,0.2754-0.0352,0.53467-0.10547,0.77783-0.0703,0.24317-0.17286,0.46436-0.30762,0.66357-0.13477,0.19923-0.3003,0.37501-0.49658,0.52735-0.1963,0.15235-0.42042,0.27539-0.67237,0.36914,0.32226,0.0586,0.61962,0.16114,0.89209,0.30762,0.27246,0.14649,0.50976,0.33545,0.71192,0.56689,0.20214,0.23145,0.36181,0.50245,0.479,0.81299,0.11718,0.31055,0.17577,0.65918,0.17578,1.0459zm-2.9883-4.79c0-0.22851-0.0352-0.43359-0.10547-0.61524-0.0703-0.18163-0.17578-0.33251-0.3164-0.45263-0.14063-0.12011-0.31788-0.2124-0.53174-0.27686-0.21387-0.0644-0.49952-0.0967-0.85694-0.0967h-1.1689v2.9531h1.292c0.33398,0,0.60058-0.0395,0.79981-0.11866,0.19921-0.0791,0.36474-0.18749,0.49658-0.32519,0.13183-0.13769,0.22997-0.29882,0.29443-0.4834,0.0644-0.18456,0.0967-0.37939,0.0967-0.58447zm0.58887,4.8691c-0.00001-0.26367-0.0439-0.49951-0.13184-0.70752-0.0879-0.208-0.2168-0.38232-0.38672-0.52295-0.16992-0.14062-0.38672-0.24902-0.65039-0.3252-0.26367-0.0762-0.60645-0.11425-1.0283-0.11425h-1.3711v3.2344h1.6699c0.32226,0,0.59326-0.0337,0.81299-0.10107,0.21972-0.0674,0.41015-0.16699,0.57129-0.29883,0.16112-0.13183,0.2871-0.2959,0.37793-0.49219,0.0908-0.19628,0.13622-0.42041,0.13623-0.67236z" style="fill:#d70b52;text-align:center;"/>
 <path d="m163,27.169c0.0703,0.21094,0.11425,0.37794,0.13184,0.50098,0.0176,0.12305-0.006,0.21533-0.0703,0.27686-0.0645,0.0615-0.17872,0.0996-0.34277,0.11425-0.16407,0.0146-0.38966,0.022-0.67676,0.022-0.29883,0-0.53174-0.004-0.69873-0.0132-0.167-0.009-0.29444-0.0264-0.38232-0.0527-0.0879-0.0264-0.14942-0.063-0.18457-0.10986-0.0352-0.0469-0.0645-0.1084-0.0879-0.18457l-0.76465-2.2852h-4.2715l-0.72071,2.2236c-0.0234,0.082-0.0542,0.15088-0.0923,0.20655-0.0381,0.0557-0.0996,0.0996-0.18457,0.13183-0.085,0.0322-0.20508,0.0542-0.36036,0.0659-0.15527,0.0117-0.35888,0.0176-0.61083,0.0176-0.26954,0-0.48047-0.009-0.63282-0.0264-0.15234-0.0176-0.25781-0.0601-0.3164-0.12744-0.0586-0.0674-0.0791-0.1626-0.0615-0.28565,0.0176-0.12304,0.0615-0.2871,0.13184-0.49218l3.5068-10.09c0.0352-0.0996,0.0762-0.18016,0.12305-0.2417,0.0469-0.0615,0.12158-0.10838,0.22412-0.14062,0.10254-0.0322,0.24463-0.0527,0.42627-0.0615,0.18164-0.009,0.42187-0.0132,0.72071-0.0132,0.34569,0.00001,0.62108,0.004,0.82617,0.0132,0.20507,0.009,0.36474,0.0293,0.479,0.0615,0.11425,0.0322,0.19628,0.0806,0.24609,0.14502,0.0498,0.0645,0.0923,0.15235,0.12745,0.26367zm-5.2207-8.3408-0.009,0-1.6084,4.834,3.2256,0z" style="fill:#d70b52;text-align:center;"/>
 <path d="m172.93,27.731c-0.00001,0.0586-0.0176,0.10987-0.0527,0.15381-0.0352,0.0439-0.0952,0.0806-0.18017,0.10987-0.085,0.0293-0.20216,0.0513-0.35157,0.0659-0.14942,0.0146-0.33545,0.022-0.5581,0.022-0.22853,0-0.41603-0.007-0.5625-0.022-0.14649-0.0146-0.26515-0.0366-0.35596-0.0659-0.0908-0.0293-0.15382-0.0659-0.18896-0.10987-0.0352-0.0439-0.0527-0.0952-0.0527-0.15381v-4.2539h-0.85254c-0.35157,0-0.61963,0.0352-0.8042,0.10547-0.18457,0.0703-0.34863,0.17871-0.49218,0.32519-0.14356,0.14649-0.27101,0.3296-0.38233,0.54932-0.11133,0.21973-0.21973,0.47901-0.32519,0.77783l-0.86133,2.4609c-0.0293,0.0703-0.0674,0.13037-0.11426,0.18017-0.0469,0.0498-0.11866,0.0908-0.21533,0.12305-0.0967,0.0322-0.22413,0.0542-0.38233,0.0659s-0.36035,0.0176-0.60644,0.0176c-0.26953,0-0.48194-0.009-0.63721-0.0264-0.15527-0.0176-0.27393-0.0425-0.35596-0.0747-0.082-0.0322-0.13476-0.0688-0.1582-0.10986-0.0234-0.041-0.0352-0.085-0.0352-0.13184,0-0.0586,0.0103-0.13037,0.0308-0.21533,0.0205-0.085,0.063-0.2124,0.12744-0.38232l0.85254-2.2324c0.11132-0.29297,0.22558-0.54785,0.34277-0.76465s0.24756-0.41162,0.39111-0.58448c0.14356-0.17284,0.2959-0.31786,0.45703-0.43505s0.33838-0.21094,0.53174-0.28125c-0.36328-0.0996-0.68408-0.22998-0.9624-0.39112-0.27832-0.16112-0.5127-0.35741-0.70312-0.58886-0.19044-0.23144-0.33399-0.49804-0.43067-0.79981-0.0967-0.30175-0.14502-0.64013-0.14502-1.0151,0-0.51561,0.0894-0.9829,0.26807-1.4018,0.17871-0.41894,0.44384-0.77489,0.79541-1.0679,0.35156-0.29296,0.78955-0.52001,1.314-0.68115,0.52441-0.16113,1.2554-0.24169,2.1929-0.2417h2.7861c0.18749,0.00001,0.34716,0.0571,0.479,0.17138,0.13183,0.11427,0.19775,0.30031,0.19776,0.55811zm-2.3027-9.29-1.1865,0c-0.49805,0.00001-0.87012,0.0381-1.1162,0.11425-0.2461,0.0762-0.44678,0.18605-0.60205,0.32959-0.15528,0.14357-0.26807,0.31642-0.33838,0.51856-0.0703,0.20216-0.10548,0.42628-0.10547,0.67236-0.00001,0.24024,0.0381,0.46143,0.11426,0.66358,0.0762,0.20215,0.19335,0.37793,0.35156,0.52734,0.1582,0.14942,0.36035,0.26514,0.60644,0.34717,0.24609,0.082,0.59766,0.12305,1.0547,0.12304h1.2217z" style="fill:#d70b52;text-align:center;"/>
 <path d="m95.757,46.983c-0.00001,0.0644-0.0176,0.11865-0.0527,0.16259-0.0352,0.0439-0.0982,0.0806-0.18897,0.10987-0.0908,0.0293-0.21241,0.0513-0.36474,0.0659-0.15236,0.0146-0.34865,0.022-0.58887,0.022-0.25196,0-0.45558-0.007-0.61084-0.022-0.15528-0.0146-0.27979-0.0381-0.37354-0.0703-0.0937-0.0322-0.16407-0.0762-0.21093-0.13183-0.0469-0.0557-0.082-0.12451-0.10547-0.20655l-0.91407-2.5312c-0.12891-0.36913-0.26367-0.67821-0.40429-0.92724-0.14063-0.24902-0.29591-0.45117-0.46582-0.60645-0.16993-0.15527-0.36329-0.26513-0.58008-0.32959-0.2168-0.0644-0.45997-0.0967-0.72949-0.0967h-0.51856v4.5527c0,0.0644-0.0176,0.11865-0.0527,0.1626-0.0352,0.0439-0.0967,0.082-0.18457,0.11425-0.0879,0.0322-0.20508,0.0557-0.35156,0.0703-0.14649,0.0146-0.33399,0.022-0.5625,0.022-0.22266,0-0.4087-0.007-0.55811-0.022-0.14942-0.0146-0.26807-0.0381-0.35596-0.0703-0.0879-0.0322-0.15088-0.0703-0.18896-0.11425-0.0381-0.0439-0.0571-0.0982-0.0571-0.1626v-10.749c0-0.0644,0.019-0.11864,0.0571-0.16259,0.0381-0.0439,0.10107-0.0806,0.18896-0.10987,0.0879-0.0293,0.20654-0.0512,0.35596-0.0659,0.14941-0.0146,0.33545-0.022,0.55811-0.022,0.22851,0.00001,0.41601,0.007,0.5625,0.022,0.14648,0.0147,0.26366,0.0366,0.35156,0.0659s0.14941,0.0659,0.18457,0.10987c0.0351,0.0439,0.0527,0.0982,0.0527,0.16259v4.2715h0.51856c0.26366,0.00001,0.49511-0.0351,0.69433-0.10547,0.19922-0.0703,0.37939-0.18163,0.54053-0.33398,0.16113-0.15234,0.30761-0.35009,0.43945-0.59327,0.13183-0.24315,0.25927-0.54344,0.38233-0.90088l0.76465-2.2676c0.0293-0.082,0.0644-0.15087,0.10546-0.20655,0.041-0.0557,0.10693-0.0996,0.19776-0.13183,0.0908-0.0322,0.21093-0.0556,0.36035-0.0703,0.14941-0.0146,0.35009-0.022,0.60205-0.022,0.22851,0.00001,0.41747,0.007,0.5669,0.022,0.1494,0.0147,0.26659,0.0352,0.35156,0.0615,0.085,0.0264,0.14208,0.0615,0.17138,0.10547,0.0293,0.0439,0.0439,0.0982,0.044,0.1626-0.00001,0.0762-0.0132,0.16993-0.0396,0.28125-0.0264,0.11133-0.0718,0.25782-0.13623,0.43945l-0.76465,2.0215c-0.14063,0.37501-0.28126,0.69435-0.42187,0.95801-0.14064,0.26368-0.28859,0.4878-0.44385,0.67236-0.15528,0.18458-0.31935,0.33546-0.49219,0.45264-0.17286,0.11719-0.36475,0.21387-0.57568,0.29004v0.009c0.23437,0.0996,0.44677,0.21241,0.6372,0.33838,0.19043,0.12598,0.36914,0.28565,0.53614,0.479,0.16698,0.19337,0.32665,0.43067,0.479,0.71192,0.15234,0.28125,0.30761,0.62695,0.46582,1.0371l0.93164,2.3555c0.0937,0.24024,0.14941,0.40577,0.16699,0.49659,0.0176,0.0908,0.0264,0.16552,0.0264,0.22412z" style="fill:#d70b52;text-align:center;"/>
 <path d="m108.19,41.472c-0.00001,0.94337-0.1172,1.7871-0.35156,2.5312-0.23439,0.74415-0.58302,1.3755-1.0459,1.894-0.4629,0.51855-1.0357,0.91406-1.7183,1.1865-0.68262,0.27246-1.4722,0.40869-2.3686,0.40869-0.88477,0-1.6567-0.11572-2.3159-0.34717-0.65918-0.23144-1.2085-0.58447-1.6479-1.0591-0.43946-0.47461-0.76905-1.0781-0.98877-1.8105-0.21973-0.73242-0.32959-1.5996-0.32959-2.6016,0-0.91991,0.11718-1.7476,0.35156-2.4829,0.23437-0.73534,0.583-1.3608,1.0459-1.8765,0.46289-0.51562,1.0356-0.91112,1.7183-1.1865,0.68261-0.27537,1.4751-0.41307,2.3774-0.41308,0.86132,0.00001,1.6216,0.11427,2.2808,0.34277,0.65917,0.22853,1.21,0.58009,1.6524,1.0547,0.44237,0.47462,0.77635,1.0737,1.002,1.7974,0.22557,0.72364,0.33837,1.5776,0.33838,2.562zm-2.4258,0.12305c-0.00001-0.59765-0.0469-1.1411-0.14063-1.6304-0.0938-0.48925-0.25343-0.90819-0.479-1.2568-0.2256-0.34862-0.52589-0.61815-0.90088-0.80859-0.37501-0.19042-0.84376-0.28563-1.4062-0.28564-0.56837,0.00001-1.043,0.10694-1.4238,0.3208-0.38086,0.21387-0.68848,0.49952-0.92285,0.85693-0.23438,0.35743-0.39991,0.77491-0.49658,1.2524-0.0967,0.47755-0.14503,0.98292-0.14502,1.5161-0.00001,0.62109,0.0469,1.1792,0.14062,1.6743,0.0937,0.49512,0.25195,0.91846,0.47461,1.27,0.22265,0.35157,0.52148,0.61963,0.89649,0.8042,0.37499,0.18457,0.84667,0.27686,1.415,0.27686,0.56835,0,1.043-0.10547,1.4238-0.31641,0.38085-0.21094,0.68847-0.49804,0.92285-0.86133,0.23437-0.36328,0.3999-0.78662,0.49659-1.27,0.0967-0.48339,0.14501-0.99755,0.14502-1.5425z" style="fill:#d70b52;text-align:center;"/>
 <path d="m123.88,46.974c-0.00002,0.0586-0.0161,0.11133-0.0483,0.1582-0.0322,0.0469-0.0908,0.085-0.17578,0.11426-0.085,0.0293-0.19777,0.0527-0.33838,0.0703-0.14064,0.0176-0.31935,0.0264-0.53614,0.0264-0.21095,0-0.38673-0.009-0.52734-0.0264-0.14064-0.0176-0.25196-0.041-0.33398-0.0703-0.082-0.0293-0.14064-0.0674-0.17578-0.11426-0.0352-0.0469-0.0527-0.0996-0.0527-0.1582v-9.2549h-0.0176l-3.2959,9.2461c-0.0234,0.0762-0.0615,0.13916-0.11425,0.18896-0.0528,0.0498-0.12452,0.0894-0.21534,0.11866-0.0908,0.0293-0.20655,0.0483-0.34716,0.0571-0.14064,0.009-0.31056,0.0132-0.50977,0.0132-0.19923,0-0.36915-0.007-0.50976-0.022-0.14064-0.0146-0.25636-0.0381-0.34717-0.0703-0.0908-0.0322-0.16261-0.0718-0.21533-0.11865-0.0527-0.0469-0.0879-0.10254-0.10547-0.16699l-3.1816-9.2461h-0.0176v9.2549c-0.00001,0.0586-0.0161,0.11133-0.0483,0.1582-0.0322,0.0469-0.0923,0.085-0.18018,0.11426-0.0879,0.0293-0.20068,0.0527-0.33838,0.0703-0.13769,0.0176-0.31494,0.0264-0.53173,0.0264-0.21094,0-0.38673-0.009-0.52735-0.0264-0.14063-0.0176-0.25342-0.041-0.33838-0.0703-0.085-0.0293-0.14355-0.0674-0.17578-0.11426-0.0322-0.0469-0.0483-0.0996-0.0483-0.1582v-10.134c0-0.29882,0.0791-0.52733,0.23731-0.68555,0.1582-0.15819,0.36913-0.23729,0.63281-0.2373h1.5117c0.26952,0.00001,0.50097,0.022,0.69433,0.0659s0.36035,0.11719,0.50098,0.21972c0.14062,0.10255,0.25781,0.23732,0.35156,0.4043,0.0937,0.167,0.17578,0.37354,0.2461,0.61963l2.4609,6.7764h0.0352l2.5488-6.7588c0.0762-0.24609,0.15966-0.4541,0.25049-0.62403,0.0908-0.16991,0.19627-0.3076,0.3164-0.41308,0.12011-0.10546,0.2622-0.18017,0.42627-0.22412,0.16405-0.0439,0.35448-0.0659,0.57129-0.0659h1.5557c0.15818,0.00001,0.29441,0.0205,0.40869,0.0615,0.11424,0.041,0.20799,0.10109,0.28125,0.18018,0.0732,0.0791,0.12889,0.17579,0.16699,0.29004,0.0381,0.11426,0.0571,0.24463,0.0571,0.39111z" style="fill:#d70b52;text-align:center;"/>
 <path d="m135.74,46.991c-0.00001,0.0586-0.0176,0.10986-0.0527,0.1538-0.0352,0.0439-0.0967,0.0806-0.18457,0.10987-0.0879,0.0293-0.20655,0.0513-0.35596,0.0659-0.14942,0.0146-0.33545,0.022-0.5581,0.022-0.22267,0-0.4087-0.007-0.55811-0.022-0.14942-0.0146-0.26807-0.0366-0.35595-0.0659-0.0879-0.0293-0.15089-0.0659-0.18897-0.10987-0.0381-0.0439-0.0571-0.0952-0.0571-0.1538v-9.1494h-4.2363v9.1494c0,0.0586-0.019,0.10986-0.0571,0.1538-0.0381,0.0439-0.10108,0.0806-0.18897,0.10987-0.0879,0.0293-0.20508,0.0513-0.35156,0.0659-0.14649,0.0146-0.33399,0.022-0.5625,0.022-0.22266,0-0.40869-0.007-0.55811-0.022-0.14941-0.0146-0.26806-0.0366-0.35595-0.0659-0.0879-0.0293-0.14942-0.0659-0.18457-0.10987-0.0352-0.0439-0.0527-0.0952-0.0527-0.1538v-10.345c0-0.24608,0.0615-0.42919,0.18457-0.54932,0.12305-0.1201,0.28711-0.18016,0.49219-0.18017h7.5146c0.21093,0.00001,0.37499,0.0601,0.49219,0.18017,0.11717,0.12013,0.17577,0.30324,0.17578,0.54932z" style="fill:#d70b52;text-align:center;"/>
 <path d="m148.05,46.429c0.0703,0.21093,0.11424,0.37793,0.13183,0.50097,0.0176,0.12305-0.006,0.21533-0.0703,0.27686-0.0645,0.0615-0.17872,0.0996-0.34277,0.11426-0.16408,0.0146-0.38966,0.022-0.67676,0.022-0.29884,0-0.53175-0.004-0.69873-0.0132-0.167-0.009-0.29444-0.0264-0.38233-0.0527-0.0879-0.0264-0.14942-0.063-0.18457-0.10986-0.0352-0.0469-0.0645-0.1084-0.0879-0.18457l-0.76465-2.2852h-4.2715l-0.7207,2.2236c-0.0234,0.082-0.0542,0.15088-0.0923,0.20655-0.0381,0.0557-0.0996,0.0996-0.18457,0.13183-0.085,0.0322-0.20508,0.0542-0.36035,0.0659-0.15528,0.0117-0.35889,0.0176-0.61084,0.0176-0.26953,0-0.48047-0.009-0.63281-0.0264-0.15235-0.0176-0.25782-0.0601-0.31641-0.12744-0.0586-0.0674-0.0791-0.1626-0.0615-0.28564,0.0176-0.12305,0.0615-0.28711,0.13183-0.49219l3.5068-10.09c0.0351-0.0996,0.0762-0.18016,0.12305-0.2417,0.0469-0.0615,0.12157-0.10838,0.22412-0.14062,0.10253-0.0322,0.24462-0.0527,0.42627-0.0615,0.18163-0.009,0.42187-0.0132,0.7207-0.0132,0.3457,0.00001,0.62109,0.004,0.82617,0.0132,0.20507,0.009,0.36474,0.0293,0.47901,0.0615,0.11425,0.0322,0.19628,0.0806,0.24609,0.14502,0.0498,0.0645,0.0923,0.15235,0.12744,0.26367zm-5.2207-8.3408-0.009,0-1.6084,4.834,3.2256,0z" style="fill:#d70b52;text-align:center;"/>
 <path d="m159.01,46.974c-0.00001,0.0586-0.019,0.11133-0.0571,0.1582-0.0381,0.0469-0.10108,0.085-0.18896,0.11426-0.0879,0.0293-0.20509,0.0527-0.35157,0.0703-0.14649,0.0176-0.33106,0.0264-0.55371,0.0264-0.22852,0-0.41749-0.009-0.56689-0.0264-0.14942-0.0176-0.26661-0.041-0.35156-0.0703-0.085-0.0293-0.1465-0.0674-0.18457-0.11426-0.0381-0.0469-0.0571-0.0996-0.0571-0.1582v-4.5967h-4.2539v4.5967c0,0.0586-0.0176,0.11133-0.0527,0.1582-0.0352,0.0469-0.0967,0.085-0.18457,0.11426-0.0879,0.0293-0.20508,0.0527-0.35157,0.0703-0.14648,0.0176-0.33398,0.0264-0.5625,0.0264-0.22265,0-0.40869-0.009-0.5581-0.0264-0.14942-0.0176-0.26807-0.041-0.35596-0.0703-0.0879-0.0293-0.15088-0.0674-0.18896-0.11426-0.0381-0.0469-0.0571-0.0996-0.0571-0.1582v-10.74c0-0.0586,0.019-0.11131,0.0571-0.1582,0.0381-0.0469,0.10107-0.0849,0.18896-0.11426,0.0879-0.0293,0.20654-0.0527,0.35596-0.0703,0.14941-0.0176,0.33545-0.0264,0.5581-0.0264,0.22852,0.00001,0.41602,0.009,0.5625,0.0264,0.14649,0.0176,0.26367,0.041,0.35157,0.0703s0.14941,0.0674,0.18457,0.11426c0.0352,0.0469,0.0527,0.0996,0.0527,0.1582v4.1748h4.2539v-4.1748c-0.00001-0.0586,0.019-0.11131,0.0571-0.1582,0.0381-0.0469,0.0996-0.0849,0.18457-0.11426,0.0849-0.0293,0.20214-0.0527,0.35156-0.0703,0.1494-0.0176,0.33837-0.0264,0.56689-0.0264,0.22265,0.00001,0.40722,0.009,0.55371,0.0264,0.14648,0.0176,0.26367,0.041,0.35157,0.0703s0.15087,0.0674,0.18896,0.11426c0.0381,0.0469,0.0571,0.0996,0.0571,0.1582z" style="fill:#d70b52;text-align:center;"/>
 <path d="m171.24,46.991c-0.00001,0.0586-0.019,0.10986-0.0571,0.1538-0.0381,0.0439-0.10108,0.0806-0.18896,0.10987-0.0879,0.0293-0.20656,0.0513-0.35596,0.0659-0.14943,0.0146-0.33546,0.022-0.55811,0.022-0.22266,0-0.4087-0.007-0.5581-0.022-0.14943-0.0146-0.26661-0.0366-0.35157-0.0659-0.085-0.0293-0.14502-0.0659-0.18017-0.10987-0.0352-0.0439-0.0527-0.0952-0.0527-0.1538v-5.9941c0-0.22851,0.003-0.45263,0.009-0.67237,0.006-0.21972,0.0146-0.41454,0.0264-0.58447h-0.0176c-0.0469,0.082-0.10254,0.17725-0.16699,0.28564-0.0645,0.10841-0.13331,0.22267-0.20654,0.34278-0.0733,0.12012-0.15089,0.24317-0.23291,0.36914-0.082,0.12598-0.16407,0.24756-0.2461,0.36474l-3.9551,5.8975c-0.0469,0.0645-0.0952,0.12012-0.14502,0.167-0.0498,0.0469-0.11426,0.0835-0.19336,0.10986-0.0791,0.0264-0.17579,0.0439-0.29004,0.0527-0.11426,0.009-0.26221,0.0132-0.44385,0.0132-0.22852,0-0.41309-0.007-0.55371-0.022-0.14063-0.0146-0.25049-0.0366-0.32959-0.0659s-0.1333-0.0674-0.1626-0.11426c-0.0293-0.0469-0.0439-0.10254-0.0439-0.16699v-10.758c0-0.0586,0.019-0.10986,0.0571-0.15381,0.0381-0.0439,0.10253-0.0806,0.19335-0.10987,0.0908-0.0293,0.20948-0.0512,0.35596-0.0659,0.14648-0.0146,0.33105-0.022,0.55371-0.022,0.22852,0.00001,0.41602,0.007,0.5625,0.022,0.14648,0.0147,0.26367,0.0366,0.35157,0.0659s0.14941,0.0659,0.18457,0.10987c0.0352,0.0439,0.0527,0.0952,0.0527,0.15381v6.0293c0,0.18751-0.003,0.38673-0.009,0.59766-0.006,0.21094-0.0147,0.41602-0.0264,0.61523h0.0176c0.0996-0.17577,0.22558-0.38671,0.37793-0.63281,0.15234-0.24609,0.31054-0.48632,0.47461-0.7207l3.9551-5.8975c0.041-0.0586,0.085-0.10986,0.13183-0.15381,0.0469-0.0439,0.10986-0.0806,0.18897-0.10987,0.0791-0.0293,0.17724-0.0498,0.29443-0.0615,0.11718-0.0117,0.2666-0.0176,0.44825-0.0176,0.22264,0.00001,0.40282,0.007,0.54052,0.022,0.13769,0.0147,0.24755,0.0366,0.32959,0.0659,0.082,0.0293,0.13915,0.0659,0.17139,0.10987,0.0322,0.0439,0.0483,0.0982,0.0483,0.16259z" style="fill:#d70b52;text-align:center;"/>
 <path d="m182.08,46.991c-0.00001,0.0586-0.0176,0.10986-0.0527,0.1538-0.0352,0.0439-0.0952,0.0806-0.18017,0.10987-0.085,0.0293-0.20216,0.0513-0.35157,0.0659-0.14942,0.0146-0.33545,0.022-0.5581,0.022-0.22852,0-0.41602-0.007-0.5625-0.022-0.14649-0.0146-0.26515-0.0366-0.35596-0.0659-0.0908-0.0293-0.15381-0.0659-0.18896-0.10987-0.0352-0.0439-0.0527-0.0952-0.0527-0.1538v-4.2539h-0.85254c-0.35156,0-0.61963,0.0352-0.8042,0.10547-0.18457,0.0703-0.34863,0.17871-0.49218,0.32519-0.14356,0.14649-0.271,0.3296-0.38233,0.54932-0.11133,0.21973-0.21973,0.47901-0.32519,0.77783l-0.86133,2.4609c-0.0293,0.0703-0.0674,0.13037-0.11426,0.18018-0.0469,0.0498-0.11865,0.0908-0.21533,0.12304-0.0967,0.0322-0.22412,0.0542-0.38233,0.0659-0.1582,0.0117-0.36035,0.0176-0.60644,0.0176-0.26953,0-0.48194-0.009-0.63721-0.0264-0.15527-0.0176-0.27392-0.0425-0.35595-0.0747-0.082-0.0322-0.13477-0.0688-0.15821-0.10986-0.0234-0.041-0.0351-0.085-0.0351-0.13184,0-0.0586,0.0102-0.13037,0.0308-0.21533,0.0205-0.085,0.063-0.2124,0.12744-0.38232l0.85254-2.2324c0.11132-0.29297,0.22558-0.54785,0.34277-0.76465,0.11719-0.21679,0.24756-0.41162,0.39111-0.58447,0.14356-0.17285,0.2959-0.31787,0.45704-0.43506,0.16113-0.11719,0.33837-0.21094,0.53173-0.28125-0.36328-0.0996-0.68408-0.22998-0.9624-0.39112-0.27832-0.16112-0.51269-0.35741-0.70312-0.58886-0.19043-0.23144-0.33399-0.49804-0.43067-0.79981-0.0967-0.30175-0.14502-0.64013-0.14502-1.0151,0-0.51562,0.0894-0.98291,0.26807-1.4019,0.17871-0.41894,0.44385-0.77489,0.79541-1.0679,0.35156-0.29296,0.78955-0.52001,1.314-0.68115,0.52442-0.16113,1.2554-0.24169,2.1929-0.2417h2.7861c0.18749,0.00001,0.34716,0.0571,0.479,0.17138,0.13183,0.11427,0.19775,0.30031,0.19776,0.55811zm-2.3027-9.29-1.1865,0c-0.49805,0.00001-0.87012,0.0381-1.1162,0.11425-0.2461,0.0762-0.44678,0.18605-0.60205,0.32959-0.15528,0.14357-0.26807,0.31642-0.33838,0.51856-0.0703,0.20216-0.10547,0.42628-0.10547,0.67236,0,0.24024,0.0381,0.46144,0.11426,0.66358,0.0762,0.20215,0.19335,0.37793,0.35156,0.52734,0.1582,0.14942,0.36035,0.26514,0.60645,0.34717,0.24608,0.082,0.59765,0.12305,1.0547,0.12305h1.2217z" style="fill:#d70b52;text-align:center;"/>
 <path d="m109.36,69.354c-0.00002,0.0586-0.0147,0.10839-0.0439,0.14941-0.0293,0.041-0.082,0.0747-0.1582,0.10108-0.0762,0.0264-0.17872,0.0469-0.30762,0.0615-0.12892,0.0146-0.29591,0.022-0.50098,0.022-0.19922,0-0.36182-0.007-0.48779-0.022-0.12599-0.0146-0.22852-0.0352-0.30762-0.0615-0.0791-0.0264-0.13477-0.0601-0.16699-0.10108-0.0322-0.041-0.0484-0.0908-0.0483-0.14941v-2.6807h-7.5674v2.6807c0,0.0586-0.0161,0.10839-0.0483,0.14941-0.0322,0.041-0.0879,0.0747-0.16699,0.10108-0.0791,0.0264-0.18311,0.0469-0.31201,0.0615-0.12891,0.0146-0.29297,0.022-0.49219,0.022s-0.36328-0.007-0.49219-0.022c-0.12891-0.0146-0.23291-0.0352-0.31201-0.0615-0.0791-0.0264-0.1333-0.0601-0.1626-0.10108-0.0293-0.041-0.0439-0.0908-0.0439-0.14941v-4.0869c-0.0117-0.16992,0.019-0.2915,0.0923-0.36474,0.0732-0.0732,0.18311-0.10986,0.32959-0.10987h0.52734c0.14063-0.19921,0.27393-0.40429,0.39991-0.61523,0.12597-0.21094,0.24755-0.46142,0.36474-0.75147,0.11719-0.29003,0.23291-0.63573,0.34717-1.0371s0.22705-0.89209,0.33838-1.4722c0.11133-0.58007,0.22412-1.2671,0.33838-2.061,0.11425-0.79393,0.23291-1.727,0.35596-2.7993,0.0352-0.26367,0.10253-0.45556,0.20214-0.57569,0.0996-0.1201,0.25195-0.18016,0.45704-0.18017h5.8096c0.20506,0.00001,0.3662,0.0601,0.48339,0.18017,0.11718,0.12013,0.17578,0.30324,0.17579,0.54932v8.7627h0.96679c0.15819,0.00001,0.26952,0.0425,0.33399,0.12745,0.0644,0.085,0.0967,0.20361,0.0967,0.35595zm-3.7002-12.19-2.6543,0c-0.10547,0.89063-0.20947,1.6743-0.31201,2.3511-0.10254,0.67677-0.20508,1.27-0.30761,1.7798-0.10255,0.50977-0.20655,0.94922-0.31202,1.3184-0.10547,0.36914-0.2124,0.68848-0.3208,0.958-0.1084,0.26954-0.22119,0.50098-0.33838,0.69434s-0.2373,0.36914-0.36035,0.52734h4.6055z" style="fill:#1d71b9;text-align:center;"/>
 <path d="m118.24,65.768c-0.00001,0.16992-0.007,0.31201-0.022,0.42627-0.0147,0.11426-0.0366,0.20654-0.0659,0.27685-0.0293,0.0703-0.0659,0.12159-0.10986,0.15381-0.0439,0.0322-0.0923,0.0483-0.14502,0.0483h-5.7129c-0.19336,0-0.35596-0.0571-0.48779-0.17138-0.13184-0.11426-0.19776-0.3003-0.19776-0.55811v-9.9141c0-0.2578,0.0659-0.44384,0.19776-0.55811,0.13183-0.11424,0.29443-0.17137,0.48779-0.17138h5.6777c0.0527,0.00001,0.0996,0.0147,0.14063,0.0439,0.041,0.0293,0.0762,0.0806,0.10547,0.15381,0.0293,0.0733,0.0513,0.167,0.0659,0.28125,0.0146,0.11427,0.022,0.25929,0.022,0.43506-0.00001,0.16407-0.007,0.30323-0.022,0.41748-0.0147,0.11427-0.0366,0.20655-0.0659,0.27685s-0.0645,0.1216-0.10547,0.15381c-0.041,0.0322-0.0879,0.0484-0.14063,0.0483h-4.0605v2.7774h3.4365c0.0527,0,0.10107,0.0161,0.14502,0.0483,0.0439,0.0322,0.0806,0.082,0.10986,0.14941,0.0293,0.0674,0.0513,0.15821,0.0659,0.27246,0.0146,0.11427,0.022,0.25343,0.022,0.41748,0,0.16993-0.007,0.31055-0.022,0.42188-0.0147,0.11133-0.0366,0.20069-0.0659,0.26806-0.0293,0.0674-0.0659,0.11573-0.10986,0.14502-0.044,0.0293-0.0923,0.0439-0.14502,0.0439h-3.4365v3.208h4.0957c0.0527,0,0.10107,0.0161,0.14502,0.0483,0.0439,0.0322,0.0806,0.0835,0.10986,0.1538,0.0293,0.0703,0.0513,0.1626,0.0659,0.27686s0.022,0.25635,0.022,0.42627z" style="fill:#1d71b9;text-align:center;"/>
 <path d="m128.36,56.249c-0.00001,0.16993-0.007,0.31495-0.022,0.43505-0.0147,0.12013-0.0366,0.21681-0.0659,0.29004-0.0293,0.0733-0.0659,0.12745-0.10987,0.1626-0.0439,0.0352-0.0923,0.0527-0.14502,0.0527h-2.8476v9.167c-0.00001,0.0586-0.019,0.11133-0.0571,0.1582-0.0381,0.0469-0.10108,0.085-0.18897,0.11426-0.0879,0.0293-0.20654,0.0527-0.35595,0.0703-0.14942,0.0176-0.33546,0.0264-0.55811,0.0264-0.22266,0-0.40869-0.009-0.5581-0.0264-0.14942-0.0176-0.26807-0.041-0.35596-0.0703-0.0879-0.0293-0.15088-0.0674-0.18897-0.11426-0.0381-0.0469-0.0571-0.0996-0.0571-0.1582v-9.167h-2.8476c-0.0586,0.00001-0.1084-0.0176-0.14942-0.0527-0.041-0.0351-0.0762-0.0893-0.10546-0.1626-0.0293-0.0732-0.0513-0.16991-0.0659-0.29004-0.0147-0.1201-0.022-0.26512-0.022-0.43505,0-0.17578,0.007-0.32519,0.022-0.44825,0.0146-0.12303,0.0366-0.22118,0.0659-0.29443,0.0293-0.0732,0.0645-0.12597,0.10546-0.1582,0.041-0.0322,0.0908-0.0483,0.14942-0.0483h8.0156c0.0527,0.00001,0.10107,0.0161,0.14502,0.0483,0.0439,0.0322,0.0806,0.085,0.10987,0.1582,0.0293,0.0733,0.0513,0.1714,0.0659,0.29443,0.0146,0.12306,0.022,0.27247,0.022,0.44825z" style="fill:#1d71b9;text-align:center;"/>
 <path d="m138.09,64.95c-0.00001,0.14648-0.004,0.27099-0.0132,0.37353-0.009,0.10254-0.022,0.19043-0.0396,0.26367-0.0176,0.0733-0.041,0.13624-0.0703,0.18897-0.0293,0.0527-0.0762,0.11279-0.14063,0.18017-0.0645,0.0674-0.18897,0.15381-0.37353,0.25928-0.18458,0.10547-0.41017,0.20655-0.67676,0.30322-0.26661,0.0967-0.5713,0.17725-0.91407,0.2417-0.34277,0.0645-0.71338,0.0967-1.1118,0.0967-0.7793,0-1.4824-0.12011-2.1094-0.36035-0.62695-0.24023-1.1602-0.59912-1.5996-1.0767-0.43945-0.47754-0.77636-1.0737-1.0107-1.7886-0.23437-0.71484-0.35156-1.5469-0.35156-2.4961,0-0.96679,0.1289-1.8252,0.38672-2.5752,0.25781-0.74999,0.61816-1.3799,1.081-1.8896,0.46289-0.50975,1.0181-0.89647,1.6655-1.1602,0.64746-0.26366,1.3608-0.39549,2.1401-0.3955,0.3164,0.00001,0.62108,0.0264,0.91406,0.0791,0.29296,0.0527,0.56396,0.12159,0.81299,0.20654,0.24901,0.085,0.47313,0.18312,0.67236,0.29443,0.19921,0.11134,0.33837,0.20656,0.41748,0.28565,0.0791,0.0791,0.13329,0.14503,0.1626,0.19775,0.0293,0.0528,0.0527,0.12013,0.0703,0.20215,0.0176,0.082,0.0308,0.17872,0.0395,0.29004,0.009,0.11134,0.0132,0.24903,0.0132,0.41309-0.00001,0.17579-0.006,0.3252-0.0176,0.44824-0.0117,0.12305-0.0322,0.22266-0.0615,0.29883-0.0293,0.0762-0.0645,0.13184-0.10546,0.16699-0.041,0.0352-0.0879,0.0527-0.14063,0.0527-0.0879,0.00001-0.19923-0.0513-0.33398-0.15381-0.13478-0.10253-0.30909-0.21678-0.52295-0.34277-0.21388-0.12597-0.46876-0.24022-0.76465-0.34277-0.29591-0.10253-0.64893-0.1538-1.0591-0.15381-0.45118,0.00001-0.85401,0.0923-1.2085,0.27685-0.3545,0.18458-0.65625,0.44826-0.90527,0.79102-0.24903,0.34278-0.43799,0.75733-0.5669,1.2436-0.12891,0.48634-0.19336,1.0342-0.19336,1.6436,0,0.66797,0.0688,1.2466,0.20655,1.7358,0.13769,0.48926,0.33398,0.89209,0.58886,1.2085s0.5625,0.55225,0.92285,0.70752c0.36035,0.15528,0.76611,0.23291,1.2173,0.23291,0.41015,0,0.76464-0.0483,1.0635-0.14502,0.29882-0.0967,0.55516-0.20361,0.76904-0.3208,0.21386-0.11718,0.38964-0.22265,0.52734-0.3164,0.13769-0.0937,0.24462-0.14063,0.3208-0.14063,0.0586,0,0.10546,0.0117,0.14063,0.0352,0.0352,0.0234,0.0644,0.0703,0.0879,0.14062,0.0234,0.0703,0.041,0.16846,0.0527,0.29444,0.0117,0.12597,0.0176,0.29443,0.0176,0.50537z" style="fill:#1d71b9;text-align:center;"/>
 <path d="m148.67,66.365c-0.00001,0.0644-0.0176,0.11865-0.0527,0.16259-0.0352,0.0439-0.0982,0.0806-0.18896,0.10987-0.0908,0.0293-0.21241,0.0513-0.36475,0.0659-0.15235,0.0146-0.34864,0.022-0.58887,0.022-0.25196,0-0.45557-0.007-0.61084-0.022-0.15528-0.0146-0.27979-0.0381-0.37353-0.0703-0.0938-0.0322-0.16407-0.0762-0.21094-0.13183-0.0469-0.0557-0.082-0.12451-0.10547-0.20655l-0.91406-2.5312c-0.12891-0.36913-0.26368-0.67822-0.4043-0.92724-0.14063-0.24902-0.2959-0.45117-0.46582-0.60645-0.16992-0.15527-0.36328-0.26513-0.58007-0.32959-0.21681-0.0644-0.45997-0.0967-0.7295-0.0967h-0.51855v4.5527c0,0.0644-0.0176,0.11865-0.0527,0.16259-0.0352,0.044-0.0967,0.082-0.18457,0.11426-0.0879,0.0322-0.20508,0.0557-0.35156,0.0703-0.14649,0.0146-0.33399,0.022-0.5625,0.022-0.22266,0-0.40869-0.007-0.5581-0.022-0.14942-0.0146-0.26807-0.0381-0.35596-0.0703-0.0879-0.0322-0.15088-0.0703-0.18897-0.11426-0.0381-0.0439-0.0571-0.0981-0.0571-0.16259v-10.749c-0.00001-0.0644,0.019-0.11864,0.0571-0.16259,0.0381-0.0439,0.10108-0.0806,0.18897-0.10987,0.0879-0.0293,0.20654-0.0513,0.35596-0.0659,0.14941-0.0146,0.33544-0.022,0.5581-0.022,0.22851,0.00001,0.41601,0.007,0.5625,0.022,0.14648,0.0147,0.26367,0.0366,0.35156,0.0659,0.0879,0.0293,0.14941,0.0659,0.18457,0.10987,0.0352,0.0439,0.0527,0.0982,0.0527,0.16259v4.2715h0.51855c0.26367,0,0.49512-0.0351,0.69434-0.10547,0.19921-0.0703,0.37939-0.18163,0.54053-0.33399,0.16112-0.15233,0.30761-0.35009,0.43945-0.59326,0.13183-0.24315,0.25927-0.54345,0.38232-0.90088l0.76465-2.2676c0.0293-0.082,0.0645-0.15087,0.10547-0.20655,0.041-0.0557,0.10693-0.0996,0.19775-0.13183,0.0908-0.0322,0.21094-0.0557,0.36036-0.0703,0.1494-0.0146,0.35009-0.022,0.60205-0.022,0.2285,0.00001,0.41747,0.007,0.56689,0.022,0.14941,0.0147,0.26659,0.0352,0.35156,0.0615,0.085,0.0264,0.14208,0.0615,0.17139,0.10547,0.0293,0.0439,0.0439,0.0982,0.044,0.16259-0.00001,0.0762-0.0132,0.16994-0.0396,0.28125-0.0264,0.11134-0.0718,0.25783-0.13623,0.43946l-0.76465,2.0215c-0.14064,0.37501-0.28126,0.69435-0.42188,0.95801-0.14063,0.26368-0.28858,0.4878-0.44385,0.67236-0.15528,0.18458-0.31934,0.33546-0.49218,0.45264-0.17286,0.11719-0.36476,0.21387-0.57569,0.29004v0.009c0.23437,0.0996,0.44677,0.21241,0.63721,0.33838,0.19042,0.12598,0.36913,0.28565,0.53613,0.479,0.16699,0.19337,0.32666,0.43067,0.47901,0.71191,0.15233,0.28126,0.30761,0.62696,0.46582,1.0371l0.93164,2.3555c0.0937,0.24024,0.1494,0.40577,0.16699,0.49659,0.0176,0.0908,0.0264,0.16552,0.0264,0.22412z" style="fill:#1d71b9;text-align:center;"/>
 <path d="m160.13,66.374c-0.00001,0.0586-0.0191,0.10986-0.0571,0.1538-0.0381,0.0439-0.10109,0.0806-0.18897,0.10987-0.0879,0.0293-0.20655,0.0513-0.35595,0.0659-0.14943,0.0146-0.33546,0.022-0.55811,0.022-0.22266,0-0.4087-0.007-0.5581-0.022-0.14943-0.0146-0.26661-0.0366-0.35157-0.0659-0.085-0.0293-0.14502-0.0659-0.18017-0.10987-0.0352-0.0439-0.0527-0.0952-0.0527-0.1538v-5.9942c0-0.2285,0.003-0.45263,0.009-0.67236,0.006-0.21972,0.0146-0.41454,0.0264-0.58447h-0.0176c-0.0469,0.082-0.10255,0.17725-0.16699,0.28564-0.0645,0.10841-0.13331,0.22267-0.20654,0.34278-0.0733,0.12012-0.15089,0.24317-0.23291,0.36914-0.082,0.12598-0.16407,0.24756-0.2461,0.36474l-3.9551,5.8975c-0.0469,0.0645-0.0952,0.12012-0.14502,0.167-0.0498,0.0469-0.11426,0.0835-0.19335,0.10986-0.0791,0.0264-0.17579,0.0439-0.29004,0.0527-0.11426,0.009-0.26221,0.0132-0.44385,0.0132-0.22852,0-0.41309-0.007-0.55371-0.022-0.14063-0.0146-0.25049-0.0366-0.32959-0.0659s-0.1333-0.0674-0.1626-0.11426c-0.0293-0.0469-0.0439-0.10254-0.0439-0.16699v-10.758c-0.00001-0.0586,0.019-0.10985,0.0571-0.1538,0.0381-0.0439,0.10254-0.0806,0.19336-0.10987,0.0908-0.0293,0.20947-0.0513,0.35596-0.0659,0.14648-0.0146,0.33105-0.022,0.55371-0.022,0.22851,0.00001,0.41601,0.007,0.5625,0.022,0.14648,0.0147,0.26367,0.0366,0.35156,0.0659,0.0879,0.0293,0.14941,0.0659,0.18457,0.10987,0.0352,0.0439,0.0527,0.0952,0.0527,0.1538v6.0293c0,0.18751-0.003,0.38672-0.009,0.59766s-0.0147,0.41602-0.0264,0.61523h0.0176c0.0996-0.17578,0.22558-0.38671,0.37793-0.63281,0.15234-0.24609,0.31054-0.48632,0.47461-0.7207l3.9551-5.8975c0.041-0.0586,0.0849-0.10986,0.13183-0.15381,0.0469-0.0439,0.10986-0.0806,0.18897-0.10987,0.0791-0.0293,0.17724-0.0498,0.29443-0.0615,0.11718-0.0117,0.26659-0.0176,0.44824-0.0176,0.22265,0.00001,0.40283,0.007,0.54053,0.022,0.13769,0.0147,0.24755,0.0366,0.32959,0.0659,0.082,0.0293,0.13915,0.0659,0.17139,0.10987,0.0322,0.0439,0.0483,0.0982,0.0483,0.16259z" style="fill:#1d71b9;text-align:center;"/>
 <path d="m171.22,65.803c0.10546,0.20507,0.17431,0.36914,0.20654,0.49218,0.0322,0.12305,0.0132,0.2168-0.0571,0.28125-0.0703,0.0645-0.19776,0.10547-0.38232,0.12305-0.18458,0.0176-0.44093,0.0264-0.76904,0.0264-0.2754,0-0.4922-0.006-0.6504-0.0176-0.15821-0.0117-0.28272-0.0308-0.37353-0.0571-0.0908-0.0264-0.15675-0.063-0.19775-0.10986-0.041-0.0469-0.0762-0.10547-0.10547-0.17578l-2.1358-4.1045-2.127,4.1045c-0.0352,0.0703-0.0732,0.1289-0.11426,0.17578-0.041,0.0469-0.10693,0.0835-0.19775,0.10986-0.0908,0.0264-0.2168,0.0454-0.37793,0.0571s-0.37354,0.0176-0.63721,0.0176c-0.30469,0-0.54053-0.009-0.70752-0.0264-0.16699-0.0176-0.27978-0.0586-0.33838-0.12305-0.0586-0.0644-0.0703-0.1582-0.0351-0.28125,0.0351-0.12304,0.1084-0.28711,0.21972-0.49218l2.7246-4.9658-2.5312-4.667c-0.10547-0.21092-0.17724-0.37938-0.21533-0.50537-0.0381-0.12596-0.0234-0.21971,0.0439-0.28125,0.0674-0.0615,0.19189-0.0996,0.37353-0.11426,0.18164-0.0146,0.43945-0.022,0.77344-0.022,0.27539,0.00001,0.49365,0.006,0.65479,0.0176,0.16113,0.0117,0.28857,0.0308,0.38232,0.0571,0.0937,0.0264,0.15966,0.063,0.19775,0.10986,0.0381,0.0469,0.0747,0.10548,0.10987,0.17578l1.9951,3.7617,1.9424-3.7617c0.0352-0.0703,0.0718-0.12889,0.10986-0.17578,0.0381-0.0469,0.0996-0.0835,0.18457-0.10986,0.0849-0.0264,0.20214-0.0454,0.35156-0.0571,0.14941-0.0117,0.35595-0.0176,0.61963-0.0176,0.29296,0.00001,0.52441,0.007,0.69434,0.022,0.16991,0.0147,0.2871,0.0542,0.35156,0.11866,0.0644,0.0645,0.0806,0.15821,0.0483,0.28125-0.0322,0.12305-0.0981,0.29005-0.19775,0.50097l-2.5312,4.6406z" style="fill:#1d71b9;text-align:center;"/>
 <path d="m105.05,75.509c-0.00001,0.16993-0.007,0.31495-0.022,0.43505-0.0146,0.12013-0.0366,0.21681-0.0659,0.29004-0.0293,0.0733-0.0659,0.12745-0.10987,0.1626-0.044,0.0352-0.0923,0.0528-0.14502,0.0527h-2.8476v9.167c-0.00001,0.0586-0.019,0.11133-0.0571,0.1582-0.0381,0.0469-0.10108,0.085-0.18897,0.11426-0.0879,0.0293-0.20655,0.0527-0.35595,0.0703-0.14942,0.0176-0.33546,0.0264-0.55811,0.0264-0.22266,0-0.4087-0.009-0.55811-0.0264-0.14941-0.0176-0.26807-0.041-0.35595-0.0703-0.0879-0.0293-0.15088-0.0674-0.18897-0.11426-0.0381-0.0469-0.0571-0.0996-0.0571-0.1582v-9.167h-2.8476c-0.0586,0.00001-0.1084-0.0176-0.14942-0.0527-0.041-0.0351-0.0762-0.0893-0.10547-0.1626-0.0293-0.0732-0.0513-0.16991-0.0659-0.29004-0.0146-0.1201-0.022-0.26512-0.022-0.43505,0-0.17577,0.007-0.32519,0.022-0.44825,0.0147-0.12303,0.0366-0.22118,0.0659-0.29443,0.0293-0.0732,0.0645-0.12596,0.10547-0.1582,0.041-0.0322,0.0908-0.0483,0.14942-0.0483h8.0156c0.0527,0.00001,0.10107,0.0161,0.14502,0.0483,0.0439,0.0322,0.0806,0.085,0.10987,0.1582,0.0293,0.0733,0.0513,0.1714,0.0659,0.29443,0.0146,0.12306,0.022,0.27248,0.022,0.44825z" style="fill:#1d71b9;text-align:center;"/>
 <path d="m117.14,80.115c-0.00001,0.94337-0.1172,1.7871-0.35156,2.5312-0.23439,0.74415-0.58302,1.3755-1.0459,1.894-0.4629,0.51855-1.0356,0.91406-1.7183,1.1865-0.68263,0.27246-1.4722,0.40869-2.3687,0.40869-0.88477,0-1.6567-0.11572-2.3159-0.34717-0.65919-0.23144-1.2085-0.58447-1.648-1.0591-0.43946-0.47461-0.76905-1.0781-0.98877-1.8105-0.21973-0.73242-0.32959-1.5996-0.32959-2.6016,0-0.91991,0.11718-1.7476,0.35156-2.4829,0.23437-0.73534,0.58301-1.3608,1.0459-1.8765,0.46289-0.51562,1.0356-0.91112,1.7183-1.1865,0.68261-0.27537,1.4751-0.41307,2.3774-0.41308,0.86132,0.00001,1.6216,0.11427,2.2808,0.34277,0.65917,0.22853,1.21,0.58009,1.6524,1.0547,0.44237,0.47462,0.77635,1.0737,1.002,1.7974,0.22558,0.72364,0.33837,1.5776,0.33838,2.562zm-2.4258,0.12305c-0.00001-0.59765-0.0469-1.1411-0.14063-1.6304-0.0938-0.48925-0.25342-0.90819-0.479-1.2568-0.22559-0.34862-0.52589-0.61815-0.90088-0.80859-0.37501-0.19042-0.84376-0.28563-1.4062-0.28564-0.56836,0.00001-1.043,0.10694-1.4238,0.3208-0.38086,0.21387-0.68848,0.49952-0.92285,0.85693-0.23438,0.35743-0.3999,0.77491-0.49658,1.2524-0.0967,0.47755-0.14502,0.98292-0.14502,1.5161,0,0.62109,0.0469,1.1792,0.14062,1.6743,0.0937,0.49512,0.25195,0.91846,0.47461,1.27,0.22266,0.35157,0.52148,0.61963,0.89649,0.8042,0.37499,0.18457,0.84667,0.27686,1.415,0.27686,0.56835,0,1.043-0.10547,1.4238-0.31641,0.38085-0.21094,0.68846-0.49804,0.92285-0.86133,0.23436-0.36328,0.39989-0.78662,0.49658-1.27,0.0967-0.48339,0.14501-0.99755,0.14502-1.5425z" style="fill:#1d71b9;text-align:center;"/>
 <path d="m127.81,82.523c0,0.4043-0.0557,0.77051-0.16699,1.0986-0.11133,0.32813-0.26514,0.61817-0.46142,0.87012-0.1963,0.25195-0.43068,0.46875-0.70313,0.65039-0.27247,0.18164-0.57276,0.33105-0.90088,0.44824-0.32813,0.11719-0.67823,0.20361-1.0503,0.25928-0.37208,0.0557-0.78663,0.0835-1.2436,0.0835h-3.0234c-0.19336,0-0.35596-0.0571-0.48779-0.17138-0.13184-0.11426-0.19776-0.30029-0.19776-0.55811v-9.9141c0-0.2578,0.0659-0.44384,0.19776-0.55811,0.13183-0.11424,0.29443-0.17137,0.48779-0.17138h2.8564c0.69726,0.00001,1.2876,0.0586,1.771,0.17578,0.48339,0.1172,0.89062,0.29444,1.2217,0.53174,0.33105,0.23731,0.58447,0.5376,0.76026,0.90088,0.17577,0.36329,0.26366,0.79102,0.26367,1.2832-0.00001,0.2754-0.0352,0.53467-0.10547,0.77783-0.0703,0.24317-0.17286,0.46436-0.30762,0.66358-0.13477,0.19922-0.3003,0.375-0.49658,0.52734-0.1963,0.15235-0.42042,0.2754-0.67236,0.36914,0.32225,0.0586,0.61962,0.16114,0.89209,0.30762,0.27245,0.14649,0.50975,0.33545,0.71191,0.56689,0.20214,0.23145,0.36181,0.50245,0.479,0.81299,0.11718,0.31055,0.17578,0.65918,0.17578,1.0459zm-2.9883-4.79c0-0.22851-0.0352-0.43359-0.10547-0.61524-0.0703-0.18163-0.17578-0.33251-0.3164-0.45263-0.14063-0.12011-0.31788-0.2124-0.53174-0.27686-0.21387-0.0644-0.49952-0.0967-0.85693-0.0967h-1.169v2.9531h1.292c0.33398,0,0.60058-0.0396,0.79981-0.11865,0.19921-0.0791,0.36474-0.1875,0.49658-0.3252,0.13183-0.13769,0.22997-0.29882,0.29443-0.4834,0.0644-0.18456,0.0967-0.37938,0.0967-0.58447zm0.58887,4.8691c-0.00001-0.26367-0.0439-0.49951-0.13184-0.70752-0.0879-0.208-0.2168-0.38232-0.38671-0.52295-0.16993-0.14062-0.38673-0.24902-0.65039-0.32519-0.26368-0.0762-0.60646-0.11426-1.0283-0.11426h-1.3711v3.2344h1.6699c0.32226,0,0.59326-0.0337,0.81299-0.10107,0.21972-0.0674,0.41015-0.16699,0.57129-0.29883,0.16113-0.13183,0.2871-0.2959,0.37793-0.49219,0.0908-0.19628,0.13622-0.4204,0.13623-0.67236z" style="fill:#1d71b9;text-align:center;"/>
 <path d="m139.48,85.072c0.0703,0.21093,0.11425,0.37793,0.13184,0.50097,0.0176,0.12305-0.006,0.21533-0.0703,0.27686-0.0645,0.0615-0.17872,0.0996-0.34278,0.11426-0.16407,0.0146-0.38966,0.022-0.67675,0.022-0.29884,0-0.53175-0.004-0.69874-0.0132-0.167-0.009-0.29444-0.0264-0.38232-0.0527-0.0879-0.0264-0.14942-0.063-0.18457-0.10986-0.0352-0.0469-0.0645-0.1084-0.0879-0.18457l-0.76465-2.2852h-4.2715l-0.72071,2.2236c-0.0234,0.082-0.0542,0.15088-0.0923,0.20655-0.0381,0.0557-0.0996,0.0996-0.18457,0.13183-0.085,0.0322-0.20508,0.0542-0.36035,0.0659-0.15528,0.0117-0.35889,0.0176-0.61084,0.0176-0.26954,0-0.48047-0.009-0.63282-0.0264-0.15234-0.0176-0.25781-0.0601-0.3164-0.12744-0.0586-0.0674-0.0791-0.1626-0.0615-0.28564,0.0176-0.12305,0.0615-0.28711,0.13184-0.49219l3.5068-10.09c0.0352-0.0996,0.0762-0.18016,0.12304-0.24169,0.0469-0.0615,0.12158-0.10839,0.22412-0.14063,0.10254-0.0322,0.24463-0.0527,0.42627-0.0615,0.18164-0.009,0.42187-0.0132,0.72071-0.0132,0.34569,0.00001,0.62109,0.004,0.82617,0.0132,0.20507,0.009,0.36474,0.0293,0.479,0.0615,0.11425,0.0322,0.19629,0.0806,0.2461,0.14502,0.0498,0.0645,0.0923,0.15235,0.12744,0.26367zm-5.2207-8.3408-0.009,0-1.6084,4.834,3.2256,0z" style="fill:#1d71b9;text-align:center;"/>
 <path d="m149.35,78.014c-0.00001,0.63868-0.0996,1.2041-0.29882,1.6963-0.19923,0.49219-0.48927,0.90674-0.87012,1.2436-0.38087,0.33692-0.84815,0.59327-1.4019,0.76904-0.55371,0.17579-1.2056,0.26368-1.9556,0.26368h-0.94922v3.6299c-0.00001,0.0586-0.019,0.11133-0.0571,0.1582-0.0381,0.0469-0.10108,0.085-0.18897,0.11426-0.0879,0.0293-0.20508,0.0527-0.35156,0.0703-0.14649,0.0176-0.33399,0.0264-0.5625,0.0264-0.22266,0-0.40869-0.009-0.5581-0.0264-0.14942-0.0176-0.26807-0.041-0.35596-0.0703-0.0879-0.0293-0.14942-0.0674-0.18457-0.11426-0.0352-0.0469-0.0527-0.0996-0.0527-0.1582v-10.23c0-0.27538,0.0718-0.48192,0.21534-0.61963,0.14355-0.13768,0.33251-0.20653,0.56689-0.20654h2.6807c0.26952,0.00001,0.52587,0.0103,0.76904,0.0308,0.24316,0.0205,0.53466,0.0645,0.87451,0.13184,0.33984,0.0674,0.68407,0.1919,1.0327,0.37353,0.34863,0.18165,0.64599,0.41163,0.89209,0.68994,0.24609,0.27833,0.43359,0.60353,0.5625,0.97559,0.1289,0.37208,0.19335,0.78956,0.19336,1.2524zm-2.417,0.16699c0-0.39843-0.0703-0.72655-0.21094-0.98437-0.14063-0.25781-0.31348-0.44824-0.51855-0.57129-0.20508-0.12304-0.42042-0.20068-0.646-0.23291-0.22559-0.0322-0.4585-0.0483-0.69873-0.0483h-0.98437v3.8584h1.0371c0.36913,0,0.67821-0.0498,0.92724-0.14942,0.24902-0.0996,0.45263-0.23876,0.61084-0.41748,0.1582-0.1787,0.27832-0.39257,0.36035-0.6416,0.082-0.24902,0.12305-0.52001,0.12305-0.81299z" style="fill:#1d71b9;text-align:center;"/>
 <path d="m161.89,80.115c-0.00001,0.94337-0.1172,1.7871-0.35156,2.5312-0.23439,0.74415-0.58302,1.3755-1.0459,1.894-0.4629,0.51855-1.0356,0.91406-1.7183,1.1865-0.68263,0.27246-1.4722,0.40869-2.3687,0.40869-0.88477,0-1.6567-0.11572-2.3159-0.34717-0.65919-0.23144-1.2085-0.58447-1.648-1.0591-0.43946-0.47461-0.76905-1.0781-0.98877-1.8105-0.21973-0.73242-0.32959-1.5996-0.32959-2.6016,0-0.91991,0.11718-1.7476,0.35156-2.4829,0.23437-0.73534,0.58301-1.3608,1.0459-1.8765,0.46289-0.51562,1.0356-0.91112,1.7183-1.1865,0.68261-0.27537,1.4751-0.41307,2.3774-0.41308,0.86132,0.00001,1.6216,0.11427,2.2808,0.34277,0.65917,0.22853,1.21,0.58009,1.6524,1.0547,0.44237,0.47462,0.77635,1.0737,1.002,1.7974,0.22558,0.72364,0.33837,1.5776,0.33838,2.562zm-2.4258,0.12305c-0.00001-0.59765-0.0469-1.1411-0.14063-1.6304-0.0938-0.48925-0.25342-0.90819-0.479-1.2568-0.22559-0.34862-0.52589-0.61815-0.90088-0.80859-0.37501-0.19042-0.84376-0.28563-1.4062-0.28564-0.56836,0.00001-1.043,0.10694-1.4238,0.3208-0.38086,0.21387-0.68848,0.49952-0.92285,0.85693-0.23438,0.35743-0.3999,0.77491-0.49658,1.2524-0.0967,0.47755-0.14502,0.98292-0.14502,1.5161,0,0.62109,0.0469,1.1792,0.14062,1.6743,0.0937,0.49512,0.25195,0.91846,0.47461,1.27,0.22266,0.35157,0.52148,0.61963,0.89649,0.8042,0.37499,0.18457,0.84667,0.27686,1.415,0.27686,0.56835,0,1.043-0.10547,1.4238-0.31641,0.38085-0.21094,0.68846-0.49804,0.92285-0.86133,0.23436-0.36328,0.39989-0.78662,0.49658-1.27,0.0967-0.48339,0.14501-0.99755,0.14502-1.5425z" style="fill:#1d71b9;text-align:center;"/>
 <path d="m172.56,82.523c0,0.4043-0.0557,0.77051-0.16699,1.0986-0.11133,0.32813-0.26514,0.61817-0.46142,0.87012-0.1963,0.25195-0.43068,0.46875-0.70313,0.65039-0.27247,0.18164-0.57276,0.33105-0.90088,0.44824-0.32813,0.11719-0.67823,0.20361-1.0503,0.25928-0.37208,0.0557-0.78663,0.0835-1.2436,0.0835h-3.0234c-0.19336,0-0.35596-0.0571-0.48779-0.17138-0.13184-0.11426-0.19776-0.30029-0.19776-0.55811v-9.9141c0-0.2578,0.0659-0.44384,0.19776-0.55811,0.13183-0.11424,0.29443-0.17137,0.48779-0.17138h2.8564c0.69726,0.00001,1.2876,0.0586,1.771,0.17578,0.48339,0.1172,0.89062,0.29444,1.2217,0.53174,0.33105,0.23731,0.58447,0.5376,0.76026,0.90088,0.17577,0.36329,0.26366,0.79102,0.26367,1.2832-0.00001,0.2754-0.0352,0.53467-0.10547,0.77783-0.0703,0.24317-0.17286,0.46436-0.30762,0.66358-0.13477,0.19922-0.3003,0.375-0.49658,0.52734-0.1963,0.15235-0.42042,0.2754-0.67236,0.36914,0.32225,0.0586,0.61962,0.16114,0.89209,0.30762,0.27245,0.14649,0.50975,0.33545,0.71191,0.56689,0.20214,0.23145,0.36181,0.50245,0.479,0.81299,0.11718,0.31055,0.17578,0.65918,0.17578,1.0459zm-2.9883-4.79c0-0.22851-0.0352-0.43359-0.10547-0.61524-0.0703-0.18163-0.17578-0.33251-0.3164-0.45263-0.14063-0.12011-0.31788-0.2124-0.53174-0.27686-0.21387-0.0644-0.49952-0.0967-0.85693-0.0967h-1.169v2.9531h1.292c0.33398,0,0.60058-0.0396,0.79981-0.11865,0.19921-0.0791,0.36474-0.1875,0.49658-0.3252,0.13183-0.13769,0.22997-0.29882,0.29443-0.4834,0.0644-0.18456,0.0967-0.37938,0.0967-0.58447zm0.58887,4.8691c-0.00001-0.26367-0.0439-0.49951-0.13184-0.70752-0.0879-0.208-0.2168-0.38232-0.38671-0.52295-0.16993-0.14062-0.38673-0.24902-0.65039-0.32519-0.26368-0.0762-0.60646-0.11426-1.0283-0.11426h-1.3711v3.2344h1.6699c0.32226,0,0.59326-0.0337,0.81299-0.10107,0.21972-0.0674,0.41015-0.16699,0.57129-0.29883,0.16113-0.13183,0.2871-0.2959,0.37793-0.49219,0.0908-0.19628,0.13622-0.4204,0.13623-0.67236z" style="fill:#1d71b9;text-align:center;"/>
</svg>
