<?xml version="1.0" encoding="UTF-8" standalone="no"?>
<!-- Created with Inkscape (http://www.inkscape.org/) -->
<svg xmlns:rdf="http://www.w3.org/1999/02/22-rdf-syntax-ns#" xmlns="http://www.w3.org/2000/svg" version="1.1" xmlns:cc="http://creativecommons.org/ns#" xmlns:dc="http://purl.org/dc/elements/1.1/" viewBox="0 0 60 64">
 <metadata>
  <rdf:RDF>
   <cc:Work rdf:about="">
    <dc:format>image/svg+xml</dc:format>
    <dc:type rdf:resource="http://purl.org/dc/dcmitype/StillImage"/>
    <dc:title/>
   </cc:Work>
  </rdf:RDF>
 </metadata>
 <path style="stroke:#eec130;stroke-dasharray:none;stroke-miterlimit:4;stroke-width:2;fill:none;" d="m30.333,10.358c-9.4726,0-17.014,7.6618-17.014,17.134,0,5.1658,2.891,10.141,7.2097,14.45,2.579,2.5731,4.0607,4.7873,3.9216,8.9712,1.8536,0,10.849-0.0905,12.036-0.0905,0-3.0709,1.2375-6.7132,2.9563-8.4584,4.6946-4.7666,8.0544-8.8491,8.0544-14.872,0-9.4726-7.692-17.134-17.165-17.134z"/>
 <path style="stroke-linejoin:miter;stroke:#eec130;stroke-linecap:butt;stroke-miterlimit:4;stroke-dasharray:none;stroke-width:2;fill:none;" d="m24.212,54.927,12.501,0"/>
 <path style="stroke-linejoin:miter;stroke:#eec130;stroke-linecap:butt;stroke-miterlimit:4;stroke-dasharray:none;stroke-width:2;fill:none;" d="m25.412,58.968,9.9121,0"/>
 <path style="stroke-linejoin:miter;stroke:#eec130;stroke-linecap:butt;stroke-miterlimit:4;stroke-dasharray:none;stroke-width:2;fill:none;" d="m26.548,62.882,7.7024,0"/>
 <path style="stroke-linejoin:miter;stroke:#eec130;stroke-linecap:butt;stroke-miterlimit:4;stroke-dasharray:none;stroke-width:2;fill:none;" d="M49.718,16.853,53.948,13.443"/>
 <path style="stroke-linejoin:miter;stroke:#eec130;stroke-linecap:butt;stroke-miterlimit:4;stroke-dasharray:none;stroke-width:2;fill:none;" d="m41.195,8.0138,3.0936-4.1037"/>
 <path style="stroke-linejoin:miter;stroke:#eec130;stroke-linecap:butt;stroke-miterlimit:4;stroke-dasharray:none;stroke-width:2;fill:none;" d="m30.399,5.5305,0-5.4716"/>
 <path style="stroke-linejoin:miter;stroke:#eec130;stroke-linecap:butt;stroke-miterlimit:4;stroke-dasharray:none;stroke-width:2;fill:none;" d="M19.603,8.0769,16.194,3.5944"/>
 <path style="stroke-linejoin:miter;stroke:#eec130;stroke-linecap:butt;stroke-miterlimit:4;stroke-dasharray:none;stroke-width:2;fill:none;" d="M11.08,16.537,6.6607,13.254"/>
 <path style="stroke-linejoin:miter;stroke:#eec130;stroke-linecap:butt;stroke-miterlimit:4;stroke-dasharray:none;stroke-width:2;fill:none;" d="M19.288,32.384c-0.884-1.263-1.263-3.915-0.884-5.619"/>
 <path style="stroke-linejoin:miter;stroke:#eec130;stroke-linecap:butt;stroke-miterlimit:4;stroke-dasharray:none;stroke-width:2;fill:none;" d="m19.052,23.046c2.0808-5.6229,6.8607-8.1036,11.915-8.2141"/>
 <path style="stroke-linejoin:miter;stroke:#eec130;stroke-linecap:butt;stroke-miterlimit:4;stroke-dasharray:none;stroke-width:2;fill:none;" d="m28.392,46.463c0-8.3979-0.15996-15.276-4.6388-20.795,3.2792,2.6393,4.9587,2.5593,6.6383,0.15996,1.8395,2.3994,3.999,2.3994,6.8782-0.07998-2.7193,3.759-4.9587,8.5578-4.9587,20.875"/>
</svg>
