<?xml version="1.0" encoding="UTF-8" standalone="no"?>
<!-- Created with Inkscape (http://www.inkscape.org/) -->
<svg xmlns:rdf="http://www.w3.org/1999/02/22-rdf-syntax-ns#" xmlns="http://www.w3.org/2000/svg" version="1.1" xmlns:cc="http://creativecommons.org/ns#" xmlns:dc="http://purl.org/dc/elements/1.1/" viewBox="0 0 217 41">
 <metadata>
  <rdf:RDF>
   <cc:Work rdf:about="">
    <dc:format>image/svg+xml</dc:format>
    <dc:type rdf:resource="http://purl.org/dc/dcmitype/StillImage"/>
    <dc:title/>
   </cc:Work>
  </rdf:RDF>
 </metadata>
 <path style="fill:#eec130;" d="m9.9355,18.793c-0.67759-0.058-1.0967-0.4122-1.2572-1.0633-0.16059-0.6511-0.22717-1.2523-0.19974-1.8036-0.0333-3.9607,0.44452-6.5907,1.4335-7.89,0.98893-1.2993,2.5477-1.8966,4.6764-1.7919,1.3316-0.017,2.534,0.2869,3.6072,0.9106,1.0731,0.6238,1.641,1.6675,1.7037,3.1314-0.0934,1.4662-0.83614,2.842-2.2281,4.1272s-2.8728,2.3303-4.4423,3.135c-1.5696,0.8048-2.6674,1.2197-3.2934,1.2446zm-5.8279-18.095c-0.2104-0.065-0.49166,0.012-0.84378,0.2306-0.35213,0.2186-0.71124,0.9681-1.0773,2.2486-0.36608,1.2805-0.67525,3.4812-0.9275,6.6019-0.25226,3.1209-0.38371,7.5511-0.39435,13.291,0.0102,5.7551,0.1465,9.8121,0.40906,12.171,0.26256,2.359,0.59039,3.7388,0.98351,4.1394,0.39311,0.4007,0.79057,0.5411,1.1924,0.4213h5.4519c0.27415,0.026,0.60707,0.032,0.99874,0.018,0.39165-0.015,0.60706-0.2086,0.64624-0.5816-0.0215-0.1651-0.17176-0.8428-0.45084-2.0332-0.27911-1.1904-0.55821-2.5609-0.83729-4.1116-0.27911-1.5507-0.42939-2.949-0.45085-4.1951,0.11357-1.3414,0.74415-2.4303,1.8917-3.2665,1.1476-0.8361,2.1306-1.267,2.9492-1.2924,0.93823,0.085,1.9026,0.9751,2.8931,2.6702,0.99045,1.6952,1.8295,3.6854,2.5171,5.9707,0.68757,2.2853,1.0462,4.3555,1.0758,6.2109,0.0431,0.3544,0.32114,0.5502,0.83424,0.5875,0.51305,0.037,1.0026,0.045,1.4687,0.024h5.3109c0.48073,0.01,0.79994-0.03,0.95761-0.1117,0.15761-0.081,0.23007-0.2477,0.21737-0.4993-0.10447-3.6967-0.83557-6.8469-2.1933-9.4504-1.3578-2.6035-2.7156-4.6639-4.0733-6.1813-1.3578-1.5173-2.0889-2.495-2.1933-2.9331,0.087-0.4125,0.69627-1.0131,1.8278-1.8016,1.1314-0.7886,2.2629-1.9218,3.3944-3.3997,1.1314-1.4778,1.7407-3.457,1.8278-5.9376,0.0901-2.1139-0.64235-4.0781-2.1972-5.8925-1.5549-1.8143-4.4728-2.7798-8.7536-2.8963z"/>
 <path style="fill:#eec130;" d="m52.426,0.69846c-0.2595-0.021-0.61003-0.014-1.0516,0.024-0.44162,0.037-0.68641,0.2331-0.73437,0.5875,0.0959,0.329,0.47977,1.7977,1.1515,4.4062,0.67167,2.6085,1.0555,6.9206,1.1515,12.936-0.0482,4.2207-0.51585,7.2942-1.403,9.2206-0.8872,1.9264-1.9049,3.1374-3.0532,3.6329s-2.1382,0.7073-2.9697,0.6354c-1.4893,0.085-2.9404-0.9077-4.3533-2.9786s-2.1708-5.731-2.2736-10.98c0.0979-5.3648,0.48956-9.393,1.175-12.085,0.6854-2.6916,1.0771-4.2876,1.175-4.788-0.0137-0.2928-0.1273-0.471-0.34074-0.5347-0.21347-0.064-0.44455-0.089-0.69324-0.076h-6.5329c-0.36718-0.1507-0.84305,1.1261-1.4276,3.8305-0.58455,2.7045-0.90767,7.7412-0.96936,15.11,0.0411,7.0176,1.3101,12.252,3.807,15.704,2.4968,3.4515,5.9748,5.1728,10.434,5.164,4.9956-0.059,8.6342-2.0209,10.916-5.8866,2.2814-3.8657,3.4055-9.2824,3.3722-16.25-0.0169-5.5447-0.18687-9.5785-0.51004-12.101-0.32322-2.5228-0.69863-4.1057-1.1262-4.7486-0.42767-0.6429-0.80656-0.9168-1.1367-0.8217z"/>
 <path style="fill:#eec130;" d="m84.331,10.568c0.73238-0.1507,1.5235-0.9184,2.3735-2.3029,0.84988-1.3845,1.312-2.4812,1.3865-3.29-0.0598-0.8038-1.1505-1.8045-3.2723-3.0021-2.1218-1.1974-4.9164-1.8574-8.3835-1.9798-3.1545,0.059-5.624,0.6882-7.4085,1.8887s-3.039,2.6204-3.7634,4.2595c-0.72443,1.6392-1.0737,3.1461-1.0479,4.5206-0.0496,1.3448,0.17494,2.7234,0.67366,4.136,0.49871,1.4126,1.5692,2.7808,3.2116,4.1046s4.1542,2.5249,7.5356,3.6033c1.4824,0.3927,2.9825,1.0174,4.5002,1.8741,1.5177,0.8568,2.3362,2.1277,2.4557,3.8128-0.0549,1.4609-0.72068,2.5693-1.9975,3.3252s-2.8356,1.1359-4.6764,1.1398c-3.2911-0.1178-5.6022-0.9423-6.9333-2.4736-1.3311-1.5312-2.1452-3.0625-2.4422-4.5938-0.29709-1.5312-0.54021-2.3557-0.72936-2.4735-0.32509,0.015-0.86166,0.5728-1.6097,1.6743-0.74808,1.1016-1.1672,2.6585-1.2572,4.6706,0.14296,3.7296,1.549,6.5045,4.2182,8.3248,2.6692,1.8202,5.7437,2.7269,9.2236,2.7201,3.2926-0.049,5.9558-0.6975,7.9899-1.9444,2.034-1.247,3.5171-2.7968,4.4493-4.6495,0.93213-1.8527,1.3917-3.7123,1.3787-5.579,0.12139-2.2687-0.62668-4.4992-2.2442-6.6915-1.6176-2.1923-4.8331-4.1291-9.6466-5.8103-1.4325-0.4122-2.962-1.033-4.5883-1.8624-1.6264-0.8293-2.5096-2.0728-2.6496-3.7305,0.0764-1.3552,0.67561-2.3461,1.7977-2.9728,1.1221-0.6266,2.3088-0.936,3.5602-0.9282,1.6145,0.052,2.934,0.4178,3.9584,1.0967s1.8425,1.3577,2.4544,2.0366c0.61184,0.6789,1.1062,1.0445,1.4831,1.0966z"/>
 <path style="fill:#eec130;" d="m110.86,39.802c3.8089-0.09,6.5192-1.0262,8.1309-2.8082,1.6117-1.7821,2.395-3.8697,2.35-6.2627-0.0935-2.6816-0.74738-4.9271-1.9618-6.7366-1.2145-1.8095-2.4289-3.2612-3.6433-4.3553-1.2145-1.094-1.8684-1.9086-1.9618-2.4439,0.0661-0.4819,0.52915-1.1474,1.3891-1.9966,0.85989-0.8492,1.7198-1.9047,2.5797-3.1664,0.85989-1.2617,1.3229-2.7523,1.3891-4.4719,0.12041-1.6019-0.43771-3.1215-1.6744-4.559-1.2367-1.4373-3.8745-2.205-7.9135-2.3029h-12.173c-0.2104-0.065-0.49167,0.012-0.84379,0.2306-0.35213,0.2186-0.71123,0.9681-1.0773,2.2486-0.36609,1.2805-0.67526,3.4812-0.92751,6.6019-0.25225,3.1209-0.3837,7.5511-0.39435,13.291,0.0102,5.7551,0.14651,9.8121,0.40907,12.171,0.26255,2.359,0.59039,3.7388,0.9835,4.1394,0.39311,0.4007,0.79058,0.5411,1.1924,0.4213zm-4.5119-18.236c0.27023-0.1566,0.58748-0.3251,0.95174-0.5052,0.36423-0.1802,0.70498-0.2781,1.0222-0.2938,0.78037,0.1263,1.8398,1.0487,3.1783,2.7671s2.0807,3.475,2.2266,5.2698c-0.0725,1.8115-0.78531,3.1-2.1385,3.8657s-2.912,1.1378-4.6764,1.1162c-1.9211,0.1117-3.3428-0.3348-4.2652-1.3394-0.92237-1.0046-1.3806-3.2371-1.3747-6.6974,0.005-0.7403,0.18309-1.269,0.53462-1.5863,0.3515-0.3172,0.84695-0.6345,1.4864-0.9517zm-1.598-4.8409c-0.3995,0.2693-0.846,0.5062-1.3395,0.7108-0.4935,0.2047-0.893,0.3124-1.1985,0.3232-0.62667-0.031-0.99483-0.2742-1.1045-0.7285-0.10968-0.4543-0.14884-0.9322-0.1175-1.4335-0.009-3.5974,0.53755-6.0727,1.6391-7.4259,1.1015-1.3532,2.8111-1.9955,5.1288-1.927,0.93802-0.024,1.7879,0.1645,2.5497,0.564,0.76176,0.3995,1.1652,1.1515,1.2102,2.256-0.0539,0.9987-0.43966,1.9857-1.1574,2.9609-0.71774,0.9753-1.4443,1.7273-2.1796,2.256z"/>
 <path style="fill:#eec130;" d="m150.72,39.802c0.48621,0.093,0.9916,0.048,1.5162-0.1358,0.5245-0.1836,0.97071-1.0645,1.3386-2.6424,0.36784-1.578,0.5599-4.4119,0.57618-8.5017-0.14016-7.2176-1.2072-12.914-3.2012-17.089-1.994-4.1748-4.0742-7.1381-6.2405-8.8899-2.1663-1.7517-3.5781-2.6017-4.2352-2.5501-0.58432,0-1.7099,0.5883-3.3766,1.7757-1.6668,1.1875-3.4709,2.9926-5.4123,5.4152-1.9414,2.4227-3.6163,5.485-5.0245,9.1869-1.4083,3.702-2.1461,8.0656-2.2134,13.091-0.0225,3.1039,0.18702,5.591,0.62862,7.4612,0.44159,1.8701,1.2504,2.8297,2.4263,2.8787h6.7209c0.3045,0,0.5297-0.016,0.67561-0.059,0.14588-0.043,0.21834-0.1332,0.21737-0.2703-0.1273-0.4269-0.63646-1.453-1.5275-3.0784s-1.4002-3.4036-1.5275-5.3345c0.0577-1.7621,0.69947-3.0839,1.9252-3.9653s2.6891-1.4651,4.3901-1.7512c1.701-0.286,3.2931-0.4172,4.7765-0.3934,1.0976-0.011,2.0513,0.2105,2.8611,0.6639,0.80973,0.4533,1.2347,1.2034,1.2749,2.2501-0.15082,2.7357-0.75398,5.1366-1.8095,7.2026-1.0556,2.0661-1.6587,3.4564-1.8095,4.1712,0.048,0.332,0.29275,0.5141,0.73437,0.5464,0.44158,0.032,0.79211,0.038,1.0516,0.018zm-10.05-31.772c0.62722,0.058,1.3467,0.6214,2.1585,1.692,0.81174,1.0705,1.5243,2.303,2.1376,3.6972,0.61329,1.3944,0.9359,2.6059,0.96783,3.6347,0.003,0.6404-0.19095,1.0633-0.58161,1.2689-0.39071,0.2057-0.99582,0.2997-1.8154,0.282-2.1542,0.051-4.1556,0.2546-6.0042,0.611-1.8486,0.3565-3.0276,0.5601-3.5367,0.611-0.28397,0-0.5033-0.08-0.65799-0.235-0.15472-0.1547-0.23305-0.374-0.235-0.658,0.0464-1.2147,0.51234-2.6653,1.3978-4.3518,0.88543-1.6864,1.9119-3.1823,3.0793-4.4875s2.1974-1.9934,3.0898-2.0645z"/>
 <path style="fill:#eec130;" d="m174.75,39.802c3.8089-0.09,6.5192-1.0262,8.1309-2.8082,1.6116-1.7821,2.395-3.8697,2.35-6.2627-0.0934-2.6816-0.74737-4.9271-1.9618-6.7366-1.2145-1.8095-2.4289-3.2612-3.6433-4.3553-1.2145-1.094-1.8684-1.9086-1.9618-2.4439,0.0661-0.4819,0.52916-1.1474,1.3891-1.9966,0.85989-0.8492,1.7198-1.9047,2.5798-3.1664,0.85989-1.2617,1.3229-2.7523,1.3891-4.4719,0.12041-1.6019-0.43771-3.1215-1.6744-4.559-1.2367-1.4373-3.8745-2.205-7.9135-2.3029h-12.173c-0.2104-0.065-0.49166,0.012-0.84378,0.2306-0.35213,0.2186-0.71124,0.9681-1.0773,2.2486-0.36608,1.2805-0.67525,3.4812-0.9275,6.6019-0.25226,3.1209-0.38371,7.5511-0.39435,13.291,0.0102,5.7551,0.1465,9.8121,0.40906,12.171,0.26256,2.359,0.59039,3.7388,0.98351,4.1394,0.39311,0.4007,0.79057,0.5411,1.1924,0.4213zm-4.5119-18.236c0.27023-0.1566,0.58748-0.3251,0.95174-0.5052,0.36423-0.1802,0.70497-0.2781,1.0222-0.2938,0.78037,0.1263,1.8398,1.0487,3.1783,2.7671s2.0807,3.475,2.2266,5.2698c-0.0725,1.8115-0.7853,3.1-2.1385,3.8657s-2.912,1.1378-4.6764,1.1162c-1.9211,0.1117-3.3428-0.3348-4.2652-1.3394-0.92237-1.0046-1.3806-3.2371-1.3747-6.6974,0.005-0.7403,0.1831-1.269,0.53462-1.5863,0.35151-0.3172,0.84696-0.6345,1.4864-0.9517zm-1.598-4.8409c-0.39951,0.2693-0.846,0.5062-1.3395,0.7108-0.49351,0.2047-0.893,0.3124-1.1985,0.3232-0.62667-0.031-0.99483-0.2742-1.1045-0.7285s-0.14884-0.9322-0.11749-1.4335c-0.009-3.5974,0.53754-6.0727,1.6391-7.4259,1.1015-1.3532,2.8111-1.9955,5.1288-1.927,0.93801-0.024,1.7879,0.1645,2.5497,0.564,0.76176,0.3995,1.1652,1.1515,1.2102,2.256-0.0539,0.9987-0.43966,1.9857-1.1574,2.9609-0.71774,0.9753-1.4443,1.7273-2.1796,2.256z"/>
 <path style="fill:#eec130;" d="m210.52,0.69846c-0.36623-0.028-0.76181-0.019-1.1867,0.029-0.42497,0.048-0.65605,0.3045-0.69324,0.7696,0.0176,0.2311,0.0881,0.7324,0.2115,1.504,0.12335,0.7716,0.19385,1.5549,0.2115,2.3499-0.0578,1.9215-0.53762,3.8752-1.4396,5.861-0.902,1.9859-1.8797,3.6611-2.9331,5.0255s-1.8362,2.0752-2.3482,2.1324c-0.51817-0.033-1.247-0.6403-2.1864-1.8208-0.93942-1.1805-1.8005-2.7344-2.5832-4.6617-0.78276-1.9272-1.1982-4.0277-1.2464-6.3014,0.0176-0.4787,0.0881-1.1426,0.2115-1.9916,0.12336-0.8489,0.19386-1.407,0.2115-1.6743-0.0558-0.6266-0.39069-0.9948-1.0046-1.1045-0.61394-0.1096-1.1721-0.1488-1.6744-0.1175h-3.76c-1.0408-0.071-1.7674,0.083-2.1796,0.4641-0.41222,0.3809-0.61001,1.4169-0.59336,3.1078,0.13229,4.1558,1.0584,7.7352,2.7782,10.738,1.7198,3.0034,3.4397,5.4062,5.1595,7.2084s2.6459,2.9795,2.7782,3.5319c-0.13122,0.8186-0.65605,2.2011-1.5745,4.1477-0.91846,1.9465-1.4433,4.3396-1.5745,7.1791-0.0186,0.5249,0.0656,1.0967,0.25262,1.7155,0.18701,0.6188,0.58846,0.9557,1.2044,1.0105h5.4519c0.3985,0.024,0.84695,0,1.3454-0.076,0.49837-0.075,0.77058-0.3476,0.81661-0.8166-0.0118-0.4925-0.0588-0.988-0.141-1.4864-0.0823-0.4984-0.12926-1.0056-0.14099-1.5216,0.0646-3.6516,0.71084-6.7499,1.9387-9.2948,1.2278-2.545,2.6496-4.9045,4.2652-7.0786s3.0373-4.5306,4.2652-7.0697c1.2278-2.5391,1.8741-5.6285,1.9387-9.2685,0.0235-0.9056-0.11753-1.5499-0.423-1.9328-0.30552-0.3828-0.91652-0.5689-1.833-0.5581z"/>
</svg>
