<?xml version="1.0" encoding="UTF-8" standalone="no"?>
<!-- Created with Inkscape (http://www.inkscape.org/) -->
<svg xmlns:rdf="http://www.w3.org/1999/02/22-rdf-syntax-ns#" xmlns="http://www.w3.org/2000/svg" version="1.1" xmlns:cc="http://creativecommons.org/ns#" xmlns:dc="http://purl.org/dc/elements/1.1/" viewBox="0 0 32 32">
 <metadata>
  <rdf:RDF>
   <cc:Work rdf:about="">
    <dc:format>image/svg+xml</dc:format>
    <dc:type rdf:resource="http://purl.org/dc/dcmitype/StillImage"/>
    <dc:title/>
   </cc:Work>
  </rdf:RDF>
 </metadata>
 <path style="stroke:#d60a52;stroke-width:1;stroke-miterlimit:4;stroke-opacity:0.95294118;fill:none;" d="m2.431,20.368,25.417,0c3.2392,3.7191,3.5128,7.9122,3.5128,7.9122h-5.8391m-5.7185,0-8.8378,0m-5.9985,0-2.5364,0,0-21.186"/>
 <path style="stroke-linejoin:miter;stroke-opacity:0.99607843;stroke:#d60a52;stroke-linecap:butt;stroke-width:1px;fill:none;" d="m14.485,7.0142,0,13.317"/>
 <path style="stroke-opacity:0.99607843;stroke:#d60a52;stroke-dasharray:none;stroke-miterlimit:4;stroke-width:1;fill:none;" d="m340.35,48.498a3.759,3.759,0,1,1,-7.5181,0,3.759,3.759,0,1,1,7.5181,0z" transform="translate(-328.50752,-22.329172)"/>
 <path style="stroke-opacity:0.99607843;stroke:#d60a52;stroke-dasharray:none;stroke-miterlimit:4;stroke-width:1;fill:none;" d="m340.35,48.498a3.759,3.759,0,1,1,-7.5181,0,3.759,3.759,0,1,1,7.5181,0z" transform="translate(-313.95124,-22.329172)"/>
 <rect style="stroke-opacity:0.99607843;stroke:#d60a52;stroke-dasharray:none;stroke-miterlimit:4;stroke-width:1;fill:none;" rx="1.0797" ry="1.0797" height="4.7188" width="5.8785" y="9.4135" x="5.5672"/>
 <rect style="stroke-opacity:0.99607843;stroke:#d60a52;stroke-dasharray:none;stroke-miterlimit:4;stroke-width:1;fill:none;" rx="1.0797" ry="1.0797" height="3.959" width="7.918" y="3.3751" x="18.524"/>
 <path style="stroke:#d60a52;stroke-width:1;stroke-miterlimit:4;stroke-opacity:0.99607843;fill:none;" d="m16.302,3.3574,0,1.0351c0,1.8756-0.92368,2.5194-2.5194,2.5194h-10.713c-1.6757,0-2.5194-0.76372-2.5194-2.5194v-1.0351z"/>
 <path style="stroke-linejoin:miter;stroke:#d60a52;stroke-linecap:butt;stroke-width:1px;fill:none;" d="m20.363,7.3341,0,3.999"/>
 <path d="m24.482,7.3341,0,3.999" style="stroke-linejoin:miter;stroke:#d60a52;stroke-linecap:butt;stroke-width:1px;fill:none;"/>
 <path style="stroke-linejoin:miter;stroke:#d60a52;stroke-linecap:butt;stroke-width:1px;fill:none;" d="m14.565,11.373,10.997,0s2.9192,1.0797,2.9192,4.4389c0,3.3591-2.8393,4.5188-2.8393,4.5188"/>
</svg>
