<?xml version="1.0" encoding="utf-8"?>
<!-- Generator: Adobe Illustrator 19.0.1, SVG Export Plug-In . SVG Version: 6.00 Build 0)  -->
<svg version="1.1" id="Layer_1" xmlns="http://www.w3.org/2000/svg" xmlns:xlink="http://www.w3.org/1999/xlink" x="0px" y="0px"
	 viewBox="-452 453.3 512 512" style="enable-background:new -452 453.3 512 512;" xml:space="preserve">
<style type="text/css">
	.st0{fill:#4C56B5;}
</style>
<g>
	<g>
		<g>
			<path class="st0" d="M34.5,873.4L-71.1,767.8l42.7-15.5c3.6-1.3,5.8-5.1,5.1-8.9l-11.4-64.9l32.9-57.1c1.9-3.4,1.2-7.6-1.8-10.1
				L-54,569l-11.4-64.9c-0.7-3.8-4-6.6-7.9-6.6h-65.9l-50.5-42.3c-3-2.5-7.3-2.5-10.3,0l-50.5,42.3h-65.9c-3.9,0-7.2,2.8-7.9,6.6
				l-11.4,64.9l-50.5,42.3c-3,2.5-3.7,6.8-1.8,10.1l32.9,57.1l-11.4,64.9c-0.7,3.8,1.5,7.6,5.1,8.9l40.9,14.9l-106.2,106.2
				c-2.2,2.2-2.9,5.5-1.9,8.4c1.1,2.9,3.7,5,6.8,5.2l65.5,5.5l5.5,65.5c0.3,3.1,2.3,5.8,5.2,6.8c0.9,0.3,1.8,0.5,2.7,0.5
				c2.1,0,4.1-0.8,5.6-2.3L-196,822L-55.1,963c1.5,1.5,3.6,2.3,5.6,2.3c0.9,0,1.9-0.2,2.7-0.5c2.9-1.1,5-3.7,5.2-6.8l5.5-65.5
				l65.5-5.5c3.1-0.3,5.8-2.3,6.8-5.2C37.4,878.9,36.7,875.6,34.5,873.4z M-336.1,939.5l-4.6-55.1c-0.3-3.9-3.4-7-7.3-7.3l-55.1-4.6
				l99.3-99.3l4.5,1.6l32.9,57.1c1.5,2.5,4.1,4,6.9,4c0.9,0,1.8-0.2,2.7-0.5l38.9-14.2L-336.1,939.5z M-188.3,798.2l-3.8-1.4
				c-1.8-0.6-3.7-0.6-5.5,0l-5.6,2l-52.7,19.2l-31-53.8c-0.9-1.6-2.4-2.9-4.2-3.5l-12-4.4l-46.4-16.9l10.8-61.1
				c0.3-1.9,0-3.8-0.9-5.4l-31-53.8l47.6-39.9c1.4-1.2,2.4-2.9,2.7-4.7l10.8-61.1h62.1c1.9,0,3.7-0.7,5.1-1.9l47.6-39.9l47.6,39.9
				c1.4,1.2,3.3,1.9,5.1,1.9H-80l10.8,61.1c0.3,1.8,1.3,3.5,2.7,4.7l47.6,39.9L-50,673c-0.9,1.6-1.3,3.5-0.9,5.4l10.8,61.1
				l-48.2,17.5l-10.2,3.7c-1.8,0.6-3.2,1.9-4.2,3.5l-31,53.8L-188.3,798.2C-188.2,798.2-188.3,798.2-188.3,798.2z M-44.1,877.1
				c-3.9,0.3-7,3.4-7.3,7.3l-4.6,55.1l-119.7-119.7l42.8,15.6c0.9,0.3,1.8,0.5,2.7,0.5c2.8,0,5.5-1.5,6.9-4l32.9-57.1l2.6-1
				L11,872.5L-44.1,877.1z"/>
			<path class="st0" d="M-49.4,967.8c-2.8,0-5.4-1.1-7.4-3.1L-196,825.6l-139.2,139.2c-2,2-4.6,3.1-7.4,3.1c-1.2,0-2.4-0.2-3.6-0.6
				c-3.8-1.4-6.5-4.9-6.8-9l-5.3-63.4l-63.4-5.3c-4.1-0.3-7.6-3-9-6.8c-1.4-3.8-0.4-8.1,2.4-11l103.5-103.5l-37.2-13.5
				c-4.8-1.7-7.6-6.7-6.7-11.7l11.3-64l-32.5-56.3c-2.5-4.4-1.6-10,2.3-13.3l49.8-41.8l11.3-64c0.9-5,5.2-8.7,10.3-8.7h65l49.8-41.8
				c3.9-3.3,9.6-3.3,13.5,0l49.8,41.8h65c5.1,0,9.4,3.6,10.3,8.7l11.3,64l49.8,41.8c3.9,3.3,4.9,8.9,2.3,13.3L-32.1,679l11.3,64
				c0.9,5-1.9,9.9-6.7,11.7l-39,14.2L36.3,871.6c2.9,2.9,3.8,7.2,2.4,11c-1.4,3.8-4.9,6.5-9,6.8l-63.4,5.3l-5.3,63.4
				c-0.3,4.1-3,7.6-6.8,9C-47,967.6-48.2,967.8-49.4,967.8z M-196,818.5l142.7,142.7c1.5,1.5,3.8,2,5.8,1.3c2-0.7,3.4-2.6,3.6-4.7
				l5.6-67.6l67.6-5.6c2.1-0.2,4-1.6,4.7-3.6c0.7-2,0.2-4.3-1.3-5.8L-75.6,766.8l46.4-16.9c2.5-0.9,4-3.5,3.5-6.1l-11.6-65.8
				l33.4-57.8c1.3-2.3,0.8-5.2-1.2-6.9l-51.2-42.9l-11.6-65.8c-0.5-2.6-2.7-4.5-5.4-4.5h-66.8l-51.2-42.9c-2-1.7-5-1.7-7.1,0
				l-51.2,42.9h-66.8c-2.7,0-4.9,1.9-5.4,4.5l-11.6,65.8l-51.2,42.9c-2,1.7-2.6,4.6-1.2,6.9l33.4,57.8l-11.6,65.8
				c-0.5,2.6,1,5.2,3.5,6.1l44.6,16.2l-109,109c-1.5,1.5-2,3.8-1.3,5.8c0.7,2,2.6,3.4,4.7,3.6l67.6,5.6l5.6,67.6
				c0.2,2.1,1.6,4,3.6,4.7c2,0.7,4.3,0.2,5.8-1.3L-196,818.5z M-53.9,945.1l-131.5-131.5L-132,833c0.6,0.2,1.2,0.3,1.9,0.3
				c2,0,3.8-1.1,4.8-2.7l33.4-57.8l5-1.8L16.6,874.6l-60.5,5c-2.7,0.2-4.8,2.3-5,5L-53.9,945.1z M-165.9,826L-58,933.9l4.1-49.7
				c0.4-5.1,4.5-9.2,9.6-9.6h0l49.7-4.1l-93.7-93.7l-0.3,0.1l-32.5,56.3c-1.9,3.2-5.3,5.2-9.1,5.2c-1.2,0-2.4-0.2-3.6-0.6
				L-165.9,826z M-338.1,945.1l-5-60.5c-0.2-2.7-2.3-4.8-5-5l-60.5-5l104.3-104.3l6.8,2.5l33.4,57.8c1,1.7,2.8,2.7,4.8,2.7
				c0.6,0,1.3-0.1,1.9-0.3l49.5-18L-338.1,945.1z M-397.5,870.5l49.7,4.1c5.1,0.4,9.1,4.5,9.6,9.6l4.1,49.7l106.5-106.5l-28.3,10.3
				c-1.2,0.4-2.4,0.6-3.6,0.6c-3.7,0-7.2-2-9.1-5.2l-32.5-56.3l-2.1-0.8L-397.5,870.5z M-132.6,821.1l-60.3-22
				c-1.2-0.4-2.5-0.4-3.7,0l-60.3,22l-32.1-55.6c-0.6-1.1-1.7-2-2.9-2.4l-60.3-22l11.1-63.2c0.2-1.3,0-2.6-0.7-3.7l-32.1-55.6
				l49.2-41.3c1-0.8,1.7-2,1.9-3.2l11.1-63.2h64.2c1.3,0,2.5-0.5,3.5-1.3l49.2-41.3l49.2,41.3c1,0.8,2.2,1.3,3.5,1.3h64.2l11.1,63.2
				c0.2,1.3,0.9,2.4,1.9,3.2l49.2,41.3l-32.1,55.6c-0.6,1.1-0.9,2.4-0.7,3.7l11.1,63.2l-60.3,22c-1.2,0.4-2.2,1.3-2.9,2.4
				L-132.6,821.1z M-187.3,795.9l52.5,19.1l30-52c1.2-2.1,3.2-3.8,5.5-4.6l56.4-20.5l-10.4-59.1c-0.4-2.4,0-4.9,1.2-7.1l30-51.9
				l-46-38.6c-1.9-1.6-3.2-3.8-3.6-6.2L-82.1,516h-60c-2.5,0-4.9-0.9-6.7-2.5l-46-38.6l-46,38.6c-1.9,1.6-4.3,2.5-6.7,2.5h-60
				l-10.4,59.1c-0.4,2.4-1.7,4.6-3.6,6.2l-46,38.6l30,52c1.2,2.1,1.7,4.6,1.2,7.1l-10.4,59.1l56.4,20.5c2.3,0.8,4.3,2.5,5.5,4.6
				l30,52l56.4-20.5c2.3-0.8,4.9-0.8,7.2,0L-187.3,795.9z"/>
		</g>
	</g>
</g>
<g>
	<g>
		<g>
			<path class="st0" d="M-196,521.8c-70.1,0-127.2,57.1-127.2,127.2s57.1,127.2,127.2,127.2c70.1,0,127.2-57.1,127.2-127.2
				S-125.9,521.8-196,521.8z M-196,760.3c-61.3,0-111.2-49.9-111.2-111.2s49.9-111.2,111.2-111.2c61.3,0,111.2,49.9,111.2,111.2
				S-134.7,760.3-196,760.3z"/>
			<path class="st0" d="M-196,778.7c-71.5,0-129.7-58.2-129.7-129.7c0-71.5,58.2-129.7,129.7-129.7c71.5,0,129.7,58.2,129.7,129.7
				C-66.3,720.6-124.5,778.7-196,778.7z M-196,524.3c-68.8,0-124.7,55.9-124.7,124.7c0,68.8,55.9,124.7,124.7,124.7
				c68.8,0,124.7-55.9,124.7-124.7C-71.3,580.3-127.2,524.3-196,524.3z M-196,762.8c-62.7,0-113.7-51-113.7-113.7
				c0-62.7,51-113.7,113.7-113.7s113.7,51,113.7,113.7C-82.3,711.8-133.3,762.8-196,762.8z M-196,540.3
				c-60,0-108.7,48.8-108.7,108.7S-256,757.8-196,757.8c60,0,108.7-48.8,108.7-108.7C-87.3,589.1-136,540.3-196,540.3z"/>
		</g>
	</g>
</g>
<g>
	<g>
		<g>
			<path class="st0" d="M-104.1,623.6c-1.1-3.3-4.1-5.5-7.6-5.5h-58.9l-18.2-56c-1.1-3.3-4.1-5.5-7.6-5.5c-3.5,0-6.5,2.2-7.6,5.5
				l-18.2,56h-58.9c-3.5,0-6.5,2.2-7.6,5.5c-1.1,3.3,0.1,6.9,2.9,8.9l47.7,34.6l-18.2,56c-1.1,3.3,0.1,6.9,2.9,8.9
				c1.4,1,3,1.5,4.7,1.5s3.3-0.5,4.7-1.5l47.7-34.6l47.7,34.6c2.8,2,6.6,2,9.4,0c2.8-2,4-5.6,2.9-8.9l-18.2-56l47.7-34.6
				C-104.2,630.5-103,626.9-104.1,623.6z M-168.8,657.7c-2.8,2-4,5.6-2.9,8.9l12.4,38.2l-32.5-23.6c-2.8-2-6.6-2-9.4,0l-32.5,23.6
				l12.4-38.2c1.1-3.3-0.1-6.9-2.9-8.9l-32.5-23.6h40.2c3.5,0,6.5-2.2,7.6-5.5l12.4-38.2l12.4,38.2c1.1,3.3,4.1,5.5,7.6,5.5h40.2
				L-168.8,657.7z"/>
			<path class="st0" d="M-144.1,736.2c-2.2,0-4.3-0.7-6.2-2l-46.2-33.6l-46.2,33.6c-1.8,1.3-3.9,2-6.2,2c-2.2,0-4.4-0.7-6.2-2
				c-3.7-2.7-5.2-7.4-3.8-11.7l17.6-54.3l-46.2-33.6c-3.7-2.7-5.2-7.4-3.8-11.7c1.4-4.3,5.4-7.2,10-7.2h57.1l17.6-54.3
				c1.4-4.3,5.4-7.2,10-7.2c4.6,0,8.6,2.9,10,7.2l17.6,54.3h57.1c4.6,0,8.6,2.9,10,7.2v0c1.4,4.3-0.1,9-3.8,11.7l-46.2,33.6
				l17.6,54.3c1.4,4.3-0.1,9-3.8,11.7C-139.8,735.5-141.9,736.2-144.1,736.2z M-196.4,694.4l49.1,35.7c1.9,1.4,4.5,1.4,6.4,0
				s2.7-3.9,2-6.1l-18.8-57.8l49.1-35.7c1.9-1.4,2.7-3.9,2-6.1s-2.8-3.8-5.2-3.8h-60.7l-18.8-57.8c-0.7-2.3-2.8-3.8-5.2-3.8
				c-2.4,0-4.5,1.5-5.2,3.8l-18.8,57.8h-60.7c-2.4,0-4.5,1.5-5.2,3.8c-0.7,2.3,0.1,4.7,2,6.1l49.1,35.7L-254,724
				c-0.7,2.3,0.1,4.7,2,6.1c1.9,1.4,4.6,1.4,6.4,0L-196.4,694.4z M-238.4,711.3l14.8-45.5c0.7-2.3-0.1-4.7-2-6.1l-38.7-28.1h47.8
				c2.4,0,4.5-1.5,5.2-3.8l14.8-45.5l14.8,45.5c0.7,2.3,2.8,3.8,5.2,3.8h47.8l-38.7,28.1c-1.9,1.4-2.7,3.9-2,6.1l14.8,45.5
				l-38.7-28.1c-1.9-1.4-4.5-1.4-6.4,0L-238.4,711.3z M-248.9,636.6l26.3,19.1c3.7,2.7,5.2,7.4,3.8,11.7l-10,30.9l26.3-19.1
				c3.7-2.7,8.6-2.7,12.3,0l26.3,19.1l-10-30.9c-1.4-4.3,0.1-9,3.8-11.7l26.3-19.1h-32.5c-4.6,0-8.6-2.9-10-7.2l-10-30.9l-10,30.9
				c-1.4,4.3-5.4,7.2-10,7.2H-248.9z"/>
		</g>
	</g>
</g>
</svg>
