<svg id="SvgjsSvg1000" xmlns="http://www.w3.org/2000/svg" version="1.1" xmlns:xlink="http://www.w3.org/1999/xlink" xmlns:svgjs="http://svgjs.com/svgjs" width="45" height="45" viewBox="-3 -3 51 51"><title>Ellipse 1</title><desc>Created with Avocode.</desc><defs id="SvgjsDefs1001"><clipPath id="SvgjsClipPath1009"><path id="SvgjsPath1008" d="M514.5 1244C526.926 1244 537 1254.07 537 1266.5C537 1278.93 526.926 1289 514.5 1289C502.074 1289 492 1278.93 492 1266.5C492 1254.07 502.074 1244 514.5 1244Z " fill="#ffffff"></path></clipPath></defs><path id="SvgjsPath1007" d="M514.5 1244C526.926 1244 537 1254.07 537 1266.5C537 1278.93 526.926 1289 514.5 1289C502.074 1289 492 1278.93 492 1266.5C492 1254.07 502.074 1244 514.5 1244Z " fill-opacity="0" fill="#ffffff" stroke-dasharray="0" stroke-linejoin="miter" stroke-linecap="butt" stroke-opacity="1" stroke="#ffffff" stroke-miterlimit="50" stroke-width="2" clip-path="url(&quot;#SvgjsClipPath1009&quot;)" transform="matrix(1,0,0,1,-492,-1244)"></path><path id="SvgjsPath1010" d="M524.335 1277.54C523.552 1278.21 522.375 1278.12 521.712 1277.33L515.701 1270.25C515.275 1269.75 515.163 1269.09 515.3430000000001 1268.51C514.1160000000001 1269.27 512.681 1269.62 511.2120000000001 1269.51C509.40800000000013 1269.36 507.7720000000001 1268.52 506.6050000000001 1267.15C505.4380000000001 1265.77 504.8780000000001 1264.0300000000002 505.0270000000001 1262.22C505.1770000000001 1260.42 506.0200000000001 1258.78 507.3990000000001 1257.6100000000001C510.24900000000014 1255.2 514.5300000000001 1255.5400000000002 516.9420000000001 1258.38C519.1300000000001 1260.96 519.0380000000001 1264.72 516.8700000000001 1267.2C517.4790000000002 1267.1200000000001 518.1150000000001 1267.3400000000001 518.5430000000001 1267.8400000000001L524.5550000000001 1274.92C525.219 1275.7 525.1210000000001 1276.88 524.335 1277.54ZM516.476 1263.14C516.581 1261.89 516.191 1260.67 515.377 1259.71C513.6959999999999 1257.73 510.71099999999996 1257.49 508.722 1259.17C506.73499999999996 1260.8600000000001 506.486 1263.8400000000001 508.168 1265.8200000000002C509.849 1267.8000000000002 512.8340000000001 1268.0400000000002 514.822 1266.3600000000001C515.784 1265.5400000000002 516.372 1264.4 516.476 1263.14Z " fill="#ffffff" fill-opacity="1" transform="matrix(1,0,0,1,-492,-1244)"></path></svg>
