<?xml version="1.0" encoding="utf-8"?>
<!-- Generator: Adobe Illustrator 19.0.1, SVG Export Plug-In . SVG Version: 6.00 Build 0)  -->
<svg version="1.1" id="Слой_1" xmlns="http://www.w3.org/2000/svg" xmlns:xlink="http://www.w3.org/1999/xlink" x="0px" y="0px"
	 viewBox="88 349.6 637.1 150.3" style="enable-background:new 61 315.6 717.1 211.3;" xml:space="preserve">
<style type="text/css">
	.st0{enable-background:new    ;}
	.st1{fill:#53483E;}
	.st2{fill:#5A5CA5;}
	.st3{fill:#D50A55;}
	.st4{font-family:'Dosis-Regular';}
	.st5{font-size:110px;}
	.st6{fill:none;stroke:#FFFFFF;stroke-width:2;stroke-linecap:round;stroke-linejoin:round;stroke-miterlimit:10;}
	.st7{fill:#FFFFFF;}
	.st8{fill:none;stroke:#FFFFFF;stroke-width:0.5;stroke-miterlimit:10;}
	.st9{fill:none;stroke:#FFFFFF;stroke-width:0.25;stroke-miterlimit:10;}
</style>
<g class="st0">
	<path class="st1" d="M237,439.7v-74.9c0-0.9,0.3-1.6,1-2c0.7-0.4,1.5-0.6,2.6-0.6c1,0,1.9,0.2,2.6,0.7c0.7,0.4,1.1,1.1,1.1,2v74.9
		c0,0.9-0.4,1.6-1.1,2.1c-0.7,0.5-1.6,0.8-2.6,0.8c-1,0-1.9-0.3-2.6-0.8C237.4,441.3,237,440.6,237,439.7z"/>
	<path class="st1" d="M260.5,439.7v-46.6c0-0.8,0.3-1.4,1-1.9c0.7-0.5,1.5-0.7,2.6-0.7c0.9,0,1.7,0.3,2.3,0.8c0.7,0.5,1,1.1,1,1.9
		v5.2c1.3-2.4,3.2-4.4,5.7-6c2.5-1.6,5.5-2.4,9-2.4c5.3,0,9.9,2,13.8,6c3.9,4,5.9,8.9,5.9,14.5v29.3c0,0.9-0.4,1.6-1.1,2.1
		c-0.7,0.5-1.6,0.8-2.6,0.8c-0.9,0-1.7-0.3-2.5-0.8c-0.7-0.5-1.1-1.2-1.1-2.1v-29.2c0-3.6-1.4-6.8-4.1-9.6c-2.7-2.9-5.9-4.3-9.6-4.3
		c-3.5,0-6.5,1.3-9.1,3.8s-3.9,5.9-3.9,10.1v29.2c0,0.8-0.4,1.4-1.1,2c-0.7,0.6-1.6,0.9-2.6,0.9c-1,0-1.9-0.3-2.6-0.9
		C260.9,441.1,260.5,440.5,260.5,439.7z"/>
	<path class="st1" d="M315.8,426.4v-58c0-0.8,0.4-1.4,1.1-1.9c0.7-0.5,1.6-0.8,2.4-0.8c0.9,0,1.8,0.3,2.6,0.8
		c0.8,0.5,1.1,1.2,1.1,1.9v22.1h14.1c0.7,0,1.3,0.3,1.8,0.9c0.5,0.6,0.7,1.3,0.7,2.1c0,0.8-0.2,1.5-0.7,2.1
		c-0.5,0.6-1.1,0.9-1.8,0.9h-14.1v29.9c0,3.6,0.8,6.1,2.3,7.5c1.5,1.4,4.2,2.1,7.9,2.1h3c1,0,1.7,0.3,2.3,1c0.6,0.6,0.9,1.4,0.9,2.3
		c0,0.9-0.3,1.7-0.9,2.3c-0.6,0.6-1.4,1-2.4,1h-3.1c-5.8,0-10.1-1.3-13-3.9C317.3,436,315.8,432,315.8,426.4z"/>
	<path class="st1" d="M347.7,422.4v-12.3c0-5.5,2.1-10.3,6.2-14.3c4.1-4,9.1-6,14.9-6c5.6,0,10.4,1.9,14.5,5.7
		c4.1,3.8,6.1,8.6,6.1,14.3c0,1.6-0.2,3-0.6,4.2c-0.4,1.1-0.8,2-1.4,2.6c-0.5,0.6-1.3,1.1-2.2,1.4c-0.9,0.3-1.8,0.5-2.5,0.6
		c-0.7,0.1-1.7,0.1-2.9,0.1h-24.8v4c0,4.3,1.6,7.8,4.7,10.4s7.1,3.9,12,3.9c2,0,3.8-0.2,5.4-0.7c1.6-0.5,2.8-1,3.6-1.5
		c0.8-0.5,1.6-1,2.3-1.5s1.4-0.7,1.9-0.7c0.8,0,1.5,0.4,2.2,1.1c0.6,0.8,0.9,1.5,0.9,2.2c0,1.6-1.6,3.2-4.7,4.8s-7.1,2.5-11.8,2.5
		c-7,0-12.7-1.9-17.1-5.8C349.9,433.7,347.7,428.7,347.7,422.4z M354.9,413.4h22c2.2,0,3.7-0.2,4.4-0.7c0.7-0.5,1.1-1.5,1.1-3
		c0-3.7-1.3-6.9-3.9-9.7c-2.6-2.8-5.9-4.2-9.8-4.2c-3.8,0-7,1.3-9.7,3.9c-2.7,2.6-4,5.8-4,9.5V413.4z"/>
	<path class="st1" d="M401,439.7v-46.6c0-0.8,0.3-1.4,1-1.9c0.7-0.5,1.5-0.8,2.6-0.8c1,0,1.8,0.3,2.5,0.8s1,1.1,1,1.9v5.5
		c1.3-2.5,3.3-4.5,5.8-6.2c2.6-1.7,5.5-2.6,8.8-2.6h3.8c0.8,0,1.5,0.3,2,1c0.6,0.7,0.8,1.4,0.8,2.3c0,0.9-0.3,1.7-0.8,2.4
		c-0.6,0.7-1.2,1-2,1h-3.8c-3.8,0-7.2,1.5-10.1,4.4c-2.9,3-4.4,6.8-4.4,11.6v27.1c0,0.8-0.4,1.4-1.1,2c-0.7,0.6-1.6,0.9-2.6,0.9
		c-1,0-1.8-0.3-2.5-0.9C401.4,441.1,401,440.5,401,439.7z"/>
	<path class="st1" d="M438.4,373.8c-1-0.9-1.5-2-1.5-3.2c0-1.2,0.5-2.3,1.5-3.2c1-0.9,2.1-1.3,3.5-1.3c1.3,0,2.4,0.4,3.4,1.3
		c0.9,0.9,1.4,2,1.4,3.2c0,1.2-0.5,2.3-1.4,3.2c-0.9,0.9-2.1,1.4-3.4,1.4C440.5,375.2,439.3,374.7,438.4,373.8z M438.2,439.7v-46.6
		c0-0.8,0.3-1.4,1-1.9c0.7-0.5,1.5-0.8,2.6-0.8c1,0,1.9,0.3,2.6,0.8c0.7,0.5,1.1,1.1,1.1,1.9v46.6c0,0.8-0.4,1.4-1.1,2
		c-0.7,0.6-1.6,0.9-2.6,0.9c-1,0-1.8-0.3-2.5-0.9C438.6,441.1,438.2,440.5,438.2,439.7z"/>
</g>
<g class="st0">
	<path class="st2" d="M466.7,453.4c0-2.9,0.9-5.4,2.6-7.4c1.8-2,4-3.5,6.7-4.6c-1.9-0.7-3.4-1.6-4.5-2.8c-1-1.2-1.6-2.8-1.6-4.9
		c0-1.9,0.5-3.4,1.4-4.6c0.9-1.2,2.3-2.3,4.1-3.2c-4-3.3-6.1-8-6.1-13.9V408c0-5.3,1.7-9.7,5.2-13.1c3.5-3.4,8.1-5,13.8-5
		c5.1,0,9.4,1.5,12.8,4.6c1.1-2.1,2.3-3.8,3.7-5c1.4-1.2,2.8-1.8,4.1-1.8c1,0,1.8,0.3,2.4,0.9c0.6,0.6,0.9,1.2,0.9,2
		c0,0.7-0.2,1.2-0.5,1.6c-0.4,0.4-0.8,0.7-1.3,0.8c-2.5,0.4-4.5,1.9-6.1,4.6c2,2.7,3,6.1,3,10.4v4.2c0,5.3-1.8,9.6-5.3,13.1
		c-3.6,3.5-8.1,5.2-13.7,5.2c-3.1,0-5.9-0.6-8.5-1.8c-2.3,1.2-3.4,2.6-3.4,4.3c0,1.4,0.6,2.5,1.9,3.2c1.2,0.8,2.9,1.3,4.9,1.6
		c2,0.3,4.2,0.5,6.7,0.9c2.4,0.3,4.8,0.7,7.3,1.2s4.6,1.2,6.7,2c2,0.9,3.6,2.2,4.9,4c1.2,1.8,1.9,4.1,1.9,6.7c0,5.1-2,8.9-5.9,11.6
		c-3.9,2.7-9.1,4-15.6,4c-6.6,0-12-1.3-16.1-4C468.8,461.5,466.7,457.9,466.7,453.4z M473.6,452.8c0,3,1.4,5.4,4.1,7.3
		c2.8,1.8,6.5,2.8,11.2,2.8c4.5,0,8.1-0.9,10.7-2.7s3.9-4.3,3.9-7.4c0-1.5-0.4-2.7-1.1-3.8c-0.7-1.1-1.5-1.9-2.5-2.5
		s-2.3-1.1-3.9-1.5c-1.6-0.4-3-0.7-4.2-0.8c-1.2-0.1-2.7-0.3-4.6-0.5c-1.9-0.2-3.1-0.4-3.8-0.4C476.9,445.1,473.6,448.4,473.6,452.8
		z M476.4,412.1c0,3.8,1.1,6.9,3.3,9.3c2.2,2.4,5.1,3.7,8.9,3.7c3.6,0,6.5-1.2,8.6-3.6c2.1-2.4,3.2-5.5,3.2-9.3v-4.2
		c0-3.7-1.1-6.8-3.2-9.2c-2.1-2.4-5.1-3.6-8.8-3.6c-3.7,0-6.6,1.2-8.8,3.6c-2.2,2.4-3.2,5.4-3.2,9.2V412.1z"/>
	<path class="st2" d="M521.6,439.7v-46.6c0-0.8,0.3-1.4,1-1.9c0.7-0.5,1.5-0.8,2.6-0.8c1,0,1.8,0.3,2.5,0.8c0.7,0.5,1,1.1,1,1.9v5.5
		c1.3-2.5,3.3-4.5,5.8-6.2c2.6-1.7,5.5-2.6,8.8-2.6h3.8c0.8,0,1.5,0.3,2,1c0.6,0.7,0.8,1.4,0.8,2.3c0,0.9-0.3,1.7-0.8,2.4
		c-0.6,0.7-1.2,1-2,1h-3.8c-3.8,0-7.2,1.5-10.1,4.4s-4.4,6.8-4.4,11.6v27.1c0,0.8-0.4,1.4-1.1,2c-0.7,0.6-1.6,0.9-2.6,0.9
		c-1,0-1.8-0.3-2.5-0.9C521.9,441.1,521.6,440.5,521.6,439.7z"/>
	<path class="st2" d="M556.8,422.4v-12c0-5.5,2-10.4,6.1-14.4c4.1-4.1,9-6.1,14.7-6.1c5.7,0,10.6,2,14.8,6.1c4.2,4,6.3,8.9,6.3,14.5
		v12c0,5.5-2.1,10.3-6.3,14.6c-4.2,4.2-9.1,6.3-14.7,6.3c-5.6,0-10.4-2.1-14.6-6.3C558.9,432.8,556.8,427.9,556.8,422.4z
		 M564.1,422.4c0,3.7,1.3,7,4,9.9c2.7,2.9,5.9,4.3,9.6,4.3c3.8,0,7-1.4,9.8-4.3c2.7-2.9,4.1-6.2,4.1-9.9v-11.9
		c0-3.6-1.4-6.8-4.1-9.6c-2.7-2.8-6-4.2-9.7-4.2c-3.8,0-7,1.4-9.6,4.2c-2.7,2.8-4,6-4,9.6V422.4z"/>
	<path class="st2" d="M610.8,422.6v-29.4c0-0.7,0.4-1.4,1.1-1.9c0.7-0.6,1.6-0.8,2.6-0.8c0.9,0,1.8,0.3,2.5,0.9
		c0.7,0.6,1.1,1.2,1.1,1.9v29.3c0,3.6,1.3,6.9,4,9.8c2.7,2.9,5.9,4.3,9.7,4.3c3.7,0,6.9-1.4,9.6-4.3s4.1-6.1,4.1-9.8v-29.4
		c0-0.7,0.4-1.3,1.1-1.8c0.7-0.5,1.6-0.8,2.6-0.8c1,0,1.9,0.3,2.6,0.8c0.7,0.5,1,1.1,1,1.9v29.5c0,5.5-2.1,10.3-6.2,14.5
		c-4.2,4.1-9.1,6.2-14.7,6.2c-3.8,0-7.3-1-10.5-2.9c-3.2-1.9-5.8-4.5-7.7-7.7C611.8,429.6,610.8,426.2,610.8,422.6z"/>
	<path class="st2" d="M666.9,465.3v-72.2c0-0.8,0.3-1.4,1-1.9c0.7-0.5,1.5-0.8,2.6-0.8c1,0,1.8,0.3,2.5,0.8c0.7,0.5,1,1.1,1,1.9v5.2
		c1.3-2.4,3.3-4.4,5.8-6c2.5-1.6,5.5-2.4,8.9-2.4c5.5,0,10.1,2,14,6c3.9,4,5.9,8.9,5.9,14.5v12c0,5.5-2,10.3-5.9,14.6
		c-3.9,4.2-8.5,6.3-13.6,6.3c-3.2,0-6.2-0.8-8.9-2.5s-4.7-3.7-6-6.1v30.5c0,0.7-0.4,1.4-1.1,1.9c-0.7,0.6-1.6,0.8-2.6,0.8
		c-1,0-1.8-0.3-2.5-0.9C667.2,466.7,666.9,466,666.9,465.3z M674.1,425.8c0,0.9,0.3,1.9,1,3.1c0.7,1.2,1.6,2.4,2.8,3.5
		c1.1,1.2,2.6,2.1,4.3,3s3.5,1.2,5.4,1.2c3.6,0,6.7-1.5,9.5-4.4c2.8-2.9,4.1-6.2,4.1-9.8v-11.9c0-3.6-1.4-6.8-4.1-9.6
		c-2.8-2.8-6-4.3-9.7-4.3c-3.5,0-6.6,1.3-9.3,3.8s-4,5.9-4,10.1V425.8z"/>
</g>
<text transform="matrix(1 0 0 1 722.9559 442.5753)" class="st3 st4 st5"> </text>
<path class="st2" d="M213.5,491.6H93.8c-0.3,0-0.6-0.3-0.6-0.6V361.2c0-0.3,0.3-0.6,0.6-0.6h119.7c0.3,0,0.6,0.3,0.6,0.6V491
	C214,491.3,213.8,491.6,213.5,491.6z"/>
<polygon class="st6" points="153.8,378.8 116.1,442.7 137.7,473.4 169.3,473.4 191.2,442.6 "/>
<polygon class="st7" points="153.6,383.6 118.8,442.5 139.2,471.3 153.6,471.3 "/>
<polygon class="st2" points="153.6,396.1 138.8,442 153.6,471.3 "/>
<polygon class="st7" points="153.7,396.1 168.5,442 153.7,471.3 "/>
<polygon class="st2" points="123.2,442.1 141.6,469.4 148.7,469.4 135.2,442.1 "/>
<polygon class="st7" points="184.9,442.1 166.6,469.4 159.5,469.4 172.9,442.1 "/>
<path class="st8" d="M210,487.8H97.3c-0.3,0-0.6-0.3-0.6-0.6V365c0-0.3,0.3-0.6,0.6-0.6H210c0.3,0,0.6,0.3,0.6,0.6v122.2
	C210.5,487.6,210.3,487.8,210,487.8z"/>
<line class="st9" x1="96.7" y1="442.1" x2="210.5" y2="442.1"/>
<line class="st9" x1="153.7" y1="487.8" x2="153.7" y2="364.4"/>
<g class="st0">
	<path d="M235.7,490.9v-10h1v8c0,0.1,0,0.2,0,0.3s0,0.2,0,0.3c0-0.1,0.1-0.2,0.1-0.2s0.1-0.1,0.1-0.2c0,0,0.1-0.1,0.3-0.4
		s0.4-0.5,0.7-0.9s0.6-0.8,1-1.3s0.7-1,1.1-1.5c0.9-1.2,1.9-2.5,3-3.9c0-0.1,0.1-0.1,0.2-0.2s0.1-0.1,0.2-0.1h0.5v10h-1v-8
		c0-0.2,0-0.4,0-0.6c0,0.1-0.1,0.2-0.1,0.2s-0.1,0.1-0.1,0.2c0,0-0.1,0.1-0.3,0.4s-0.4,0.5-0.7,0.9s-0.6,0.8-1,1.3s-0.7,1-1.1,1.5
		c-0.9,1.2-1.8,2.5-2.9,3.9c0,0.1-0.1,0.1-0.2,0.2s-0.1,0.1-0.2,0.1H235.7z"/>
	<path d="M251.2,489.6l0.2-0.3c0.1-0.1,0.1-0.1,0.2-0.1c0.1,0,0.2,0.1,0.3,0.2c0.1,0.1,0.3,0.2,0.5,0.4c0.2,0.1,0.5,0.3,0.8,0.4
		c0.3,0.1,0.7,0.2,1.2,0.2c0.4,0,0.8-0.1,1.2-0.2c0.4-0.1,0.7-0.3,0.9-0.5c0.3-0.2,0.4-0.4,0.6-0.7s0.2-0.6,0.2-0.9
		c0-0.3-0.1-0.6-0.2-0.8s-0.3-0.5-0.6-0.7c-0.3-0.2-0.6-0.3-1-0.4c-0.4-0.1-0.8-0.2-1.3-0.2h-1.1v-0.7h1.1c0.4,0,0.8,0,1.2-0.1
		s0.6-0.2,0.9-0.4s0.4-0.4,0.6-0.6s0.2-0.5,0.2-0.8c0-0.2-0.1-0.5-0.2-0.7s-0.3-0.4-0.5-0.6s-0.5-0.3-0.8-0.4s-0.7-0.2-1.2-0.2
		c-0.4,0-0.8,0-1.1,0.1s-0.6,0.2-0.8,0.3s-0.4,0.2-0.5,0.3s-0.2,0.1-0.3,0.1c-0.1,0-0.1,0-0.1,0s-0.1-0.1-0.1-0.1l-0.2-0.4
		c0.4-0.3,0.8-0.6,1.3-0.8s1.1-0.3,1.9-0.3c0.6,0,1.1,0.1,1.5,0.2s0.8,0.3,1.1,0.6s0.5,0.5,0.7,0.8s0.2,0.6,0.2,0.9
		c0,0.2,0,0.4-0.1,0.7s-0.2,0.4-0.4,0.7s-0.4,0.4-0.7,0.6s-0.6,0.3-1,0.4c0.8,0.2,1.4,0.5,1.8,0.9s0.6,1,0.6,1.6
		c0,0.4-0.1,0.8-0.3,1.2s-0.5,0.7-0.8,0.9c-0.3,0.3-0.7,0.5-1.2,0.6c-0.5,0.1-0.9,0.2-1.5,0.2c-0.4,0-0.7,0-1.1-0.1
		c-0.3-0.1-0.7-0.2-1-0.3c-0.3-0.1-0.6-0.3-0.8-0.5S251.3,489.8,251.2,489.6z"/>
	<path d="M264.5,490.2h0.4c0.2,0,0.5,0,0.7-0.1s0.5-0.3,0.7-0.5c0.2-0.3,0.4-0.6,0.6-1c0.2-0.4,0.4-1,0.5-1.7
		c0.2-0.7,0.3-1.5,0.4-2.5s0.2-2.1,0.3-3.4h5.8v9.2h1.8v4c0,0.2-0.1,0.3-0.3,0.3h-0.6v-3.6h-9.5v3.3c0,0.1,0,0.1-0.1,0.2
		c0,0.1-0.1,0.1-0.2,0.1h-0.6V490.2z M266.7,490.2h6.3v-8.5h-4c-0.1,1.3-0.2,2.5-0.3,3.4c-0.1,1-0.3,1.8-0.5,2.5s-0.4,1.2-0.7,1.6
		C267.2,489.6,266.9,490,266.7,490.2z"/>
	<path d="M282,485.7c0-0.7,0.1-1.4,0.3-2c0.2-0.6,0.5-1.1,0.9-1.6c0.4-0.4,0.9-0.8,1.4-1c0.6-0.2,1.2-0.4,1.9-0.4
		c0.6,0,1.1,0.1,1.6,0.3c0.5,0.2,0.9,0.5,1.2,0.8c0.4,0.4,0.6,0.8,0.8,1.4c0.2,0.5,0.3,1.2,0.3,1.9c0,0.1,0,0.3-0.1,0.3
		s-0.1,0.1-0.2,0.1H283v0.2c0,0.8,0.1,1.4,0.3,2s0.4,1,0.7,1.4c0.3,0.4,0.7,0.7,1.2,0.9c0.5,0.2,1,0.3,1.5,0.3
		c0.5,0,0.9-0.1,1.3-0.2c0.4-0.1,0.7-0.2,0.9-0.4c0.3-0.1,0.4-0.3,0.6-0.4c0.1-0.1,0.3-0.2,0.3-0.2c0.1,0,0.2,0,0.2,0.1l0.3,0.3
		c-0.2,0.2-0.4,0.4-0.6,0.6c-0.3,0.2-0.6,0.3-0.9,0.4c-0.3,0.1-0.7,0.2-1,0.3c-0.4,0.1-0.7,0.1-1.1,0.1c-0.7,0-1.3-0.1-1.9-0.4
		c-0.6-0.2-1-0.6-1.4-1c-0.4-0.5-0.7-1-0.9-1.7C282.1,487.3,282,486.6,282,485.7z M283,484.9h6.6c0-0.5-0.1-1-0.2-1.4
		c-0.1-0.4-0.4-0.8-0.6-1.1c-0.3-0.3-0.6-0.5-1-0.7c-0.4-0.2-0.8-0.2-1.2-0.2c-0.5,0-1,0.1-1.4,0.2c-0.4,0.2-0.8,0.4-1.1,0.7
		c-0.3,0.3-0.5,0.7-0.7,1.1S283.1,484.4,283,484.9z"/>
	<path d="M296.4,490.9v-0.6h0.4c0.2,0,0.5,0,0.7-0.1s0.5-0.3,0.7-0.5c0.2-0.3,0.5-0.6,0.7-1s0.4-1,0.6-1.7s0.3-1.5,0.5-2.5
		c0.1-1,0.2-2.1,0.3-3.4h5.8v10h-1v-9.2h-4c-0.1,1.3-0.2,2.5-0.3,3.4c-0.1,1-0.3,1.8-0.5,2.5c-0.2,0.7-0.4,1.3-0.7,1.7
		c-0.3,0.4-0.5,0.8-0.8,1c-0.3,0.3-0.6,0.4-0.9,0.5c-0.3,0.1-0.6,0.1-0.9,0.1c-0.2,0-0.3,0-0.4,0S296.4,490.9,296.4,490.9z"/>
	<path d="M314.5,490.9v-10h1v8c0,0.1,0,0.2,0,0.3s0,0.2,0,0.3c0-0.1,0.1-0.2,0.1-0.2s0.1-0.1,0.1-0.2c0,0,0.1-0.1,0.3-0.4
		s0.4-0.5,0.7-0.9s0.6-0.8,1-1.3s0.7-1,1.1-1.5c0.9-1.2,1.9-2.5,3-3.9c0-0.1,0.1-0.1,0.2-0.2s0.1-0.1,0.2-0.1h0.5v10h-1v-8
		c0-0.2,0-0.4,0-0.6c0,0.1-0.1,0.2-0.1,0.2s-0.1,0.1-0.1,0.2c0,0-0.1,0.1-0.3,0.4s-0.4,0.5-0.7,0.9s-0.6,0.8-1,1.3s-0.7,1-1.1,1.5
		c-0.9,1.2-1.8,2.5-2.9,3.9c0,0.1-0.1,0.1-0.2,0.2s-0.1,0.1-0.2,0.1H314.5z"/>
	<path d="M329.5,490.9l3.4-4.1c0.2-0.3,0.4-0.5,0.7-0.6c-0.5,0-1-0.1-1.4-0.3c-0.4-0.2-0.7-0.3-0.9-0.6c-0.2-0.2-0.4-0.5-0.5-0.8
		c-0.1-0.3-0.2-0.6-0.2-0.9c0-0.3,0.1-0.6,0.2-1c0.1-0.3,0.3-0.6,0.6-0.9c0.3-0.3,0.6-0.5,1.1-0.6c0.4-0.2,1-0.2,1.6-0.2h3.1v10h-1
		v-4.5h-1.3c-0.1,0-0.3,0-0.4,0c-0.1,0-0.2,0.1-0.3,0.1c-0.1,0-0.2,0.1-0.2,0.2c-0.1,0.1-0.1,0.2-0.2,0.3l-2.9,3.6
		c-0.1,0.1-0.1,0.2-0.2,0.3c-0.1,0.1-0.2,0.1-0.4,0.1H329.5z M331.5,483.7c0,0.3,0.1,0.6,0.2,0.9c0.1,0.3,0.3,0.5,0.6,0.6
		c0.2,0.2,0.5,0.3,0.9,0.4s0.7,0.1,1.2,0.1h1.8v-4.2H334c-0.5,0-0.9,0.1-1.2,0.2c-0.3,0.1-0.6,0.3-0.8,0.5c-0.2,0.2-0.3,0.4-0.4,0.7
		C331.5,483.2,331.5,483.5,331.5,483.7z"/>
	<path d="M355.7,490.9v-10h1v8c0,0.1,0,0.2,0,0.3s0,0.2,0,0.3c0-0.1,0.1-0.2,0.1-0.2s0.1-0.1,0.1-0.2c0,0,0.1-0.1,0.3-0.4
		s0.4-0.5,0.7-0.9s0.6-0.8,1-1.3s0.7-1,1.1-1.5c0.9-1.2,1.9-2.5,3-3.9c0-0.1,0.1-0.1,0.2-0.2s0.1-0.1,0.2-0.1h0.5v10h-1v-8
		c0-0.2,0-0.4,0-0.6c0,0.1-0.1,0.2-0.1,0.2s-0.1,0.1-0.1,0.2c0,0-0.1,0.1-0.3,0.4s-0.4,0.5-0.7,0.9s-0.6,0.8-1,1.3s-0.7,1-1.1,1.5
		c-0.9,1.2-1.8,2.5-2.9,3.9c0,0.1-0.1,0.1-0.2,0.2s-0.1,0.1-0.2,0.1H355.7z"/>
	<path d="M371.2,489.6l0.2-0.3c0.1-0.1,0.1-0.1,0.2-0.1c0.1,0,0.2,0.1,0.3,0.2c0.1,0.1,0.3,0.2,0.5,0.4c0.2,0.1,0.5,0.3,0.8,0.4
		c0.3,0.1,0.7,0.2,1.2,0.2c0.4,0,0.8-0.1,1.2-0.2c0.4-0.1,0.7-0.3,0.9-0.5c0.3-0.2,0.4-0.4,0.6-0.7s0.2-0.6,0.2-0.9
		c0-0.3-0.1-0.6-0.2-0.8s-0.3-0.5-0.6-0.7c-0.3-0.2-0.6-0.3-1-0.4c-0.4-0.1-0.8-0.2-1.3-0.2h-1.1v-0.7h1.1c0.4,0,0.8,0,1.2-0.1
		s0.6-0.2,0.9-0.4s0.4-0.4,0.6-0.6s0.2-0.5,0.2-0.8c0-0.2-0.1-0.5-0.2-0.7s-0.3-0.4-0.5-0.6s-0.5-0.3-0.8-0.4s-0.7-0.2-1.2-0.2
		c-0.4,0-0.8,0-1.1,0.1s-0.6,0.2-0.8,0.3s-0.4,0.2-0.5,0.3s-0.2,0.1-0.3,0.1c-0.1,0-0.1,0-0.1,0s-0.1-0.1-0.1-0.1l-0.2-0.4
		c0.4-0.3,0.8-0.6,1.3-0.8s1.1-0.3,1.9-0.3c0.6,0,1.1,0.1,1.5,0.2s0.8,0.3,1.1,0.6s0.5,0.5,0.7,0.8s0.2,0.6,0.2,0.9
		c0,0.2,0,0.4-0.1,0.7s-0.2,0.4-0.4,0.7s-0.4,0.4-0.7,0.6s-0.6,0.3-1,0.4c0.8,0.2,1.4,0.5,1.8,0.9s0.6,1,0.6,1.6
		c0,0.4-0.1,0.8-0.3,1.2s-0.5,0.7-0.8,0.9c-0.3,0.3-0.7,0.5-1.2,0.6c-0.5,0.1-0.9,0.2-1.5,0.2c-0.4,0-0.7,0-1.1-0.1
		c-0.3-0.1-0.7-0.2-1-0.3c-0.3-0.1-0.6-0.3-0.8-0.5S371.3,489.8,371.2,489.6z"/>
	<path d="M396.4,490.9v-10h1v8c0,0.1,0,0.2,0,0.3s0,0.2,0,0.3c0-0.1,0.1-0.2,0.1-0.2s0.1-0.1,0.1-0.2c0,0,0.1-0.1,0.3-0.4
		s0.4-0.5,0.7-0.9s0.6-0.8,1-1.3s0.7-1,1.1-1.5c0.9-1.2,1.9-2.5,3-3.9c0-0.1,0.1-0.1,0.2-0.2s0.1-0.1,0.2-0.1h0.5v10h-1v-8
		c0-0.2,0-0.4,0-0.6c0,0.1-0.1,0.2-0.1,0.2s-0.1,0.1-0.1,0.2c0,0-0.1,0.1-0.3,0.4s-0.4,0.5-0.7,0.9s-0.6,0.8-1,1.3s-0.7,1-1.1,1.5
		c-0.9,1.2-1.8,2.5-2.9,3.9c0,0.1-0.1,0.1-0.2,0.2s-0.1,0.1-0.2,0.1H396.4z"/>
	<path d="M412.1,485.9c0-0.8,0.1-1.5,0.3-2.1c0.2-0.6,0.5-1.2,0.9-1.6c0.4-0.5,0.9-0.8,1.4-1.1c0.6-0.3,1.2-0.4,1.9-0.4
		c0.6,0,1.2,0.1,1.7,0.3s0.9,0.5,1.3,0.8l-0.3,0.3c0,0-0.1,0.1-0.1,0.1s-0.1,0-0.1,0c-0.1,0-0.2,0-0.3-0.1s-0.3-0.2-0.5-0.3
		s-0.4-0.2-0.7-0.3s-0.6-0.1-1.1-0.1c-0.6,0-1.1,0.1-1.5,0.3c-0.4,0.2-0.8,0.5-1.1,0.9c-0.3,0.4-0.5,0.8-0.7,1.4s-0.2,1.1-0.2,1.8
		c0,0.7,0.1,1.3,0.2,1.9c0.2,0.5,0.4,1,0.7,1.4c0.3,0.4,0.7,0.7,1.1,0.8c0.4,0.2,0.9,0.3,1.4,0.3c0.5,0,0.9-0.1,1.2-0.2
		c0.3-0.1,0.6-0.2,0.8-0.4c0.2-0.1,0.4-0.3,0.5-0.4c0.1-0.1,0.2-0.2,0.3-0.2s0.1,0,0.2,0.1l0.3,0.3c-0.2,0.2-0.4,0.4-0.6,0.6
		c-0.2,0.2-0.5,0.3-0.8,0.5c-0.3,0.1-0.6,0.2-1,0.3c-0.3,0.1-0.7,0.1-1.1,0.1c-0.6,0-1.2-0.1-1.7-0.3c-0.5-0.2-1-0.6-1.3-1
		c-0.4-0.4-0.7-1-0.9-1.6C412.2,487.4,412.1,486.7,412.1,485.9z"/>
	<path d="M427.1,490.9v-10h1v4.6h1.2c0.3,0,0.5-0.1,0.8-0.2c0.3-0.1,0.5-0.3,0.6-0.6l2.7-3.5c0.1-0.1,0.1-0.1,0.2-0.2
		c0.1-0.1,0.2-0.1,0.3-0.1h0.7l-2.9,3.9c-0.2,0.2-0.3,0.4-0.5,0.5c-0.2,0.1-0.4,0.3-0.7,0.3c0.3,0.1,0.6,0.2,0.8,0.3
		c0.2,0.2,0.4,0.4,0.6,0.7l3,4.1h-0.7c-0.2,0-0.3,0-0.4-0.1s-0.2-0.1-0.3-0.3L431,487c-0.2-0.3-0.4-0.5-0.7-0.6
		c-0.3-0.1-0.6-0.2-0.9-0.2h-1.3v4.7H427.1z"/>
	<path d="M440.6,480.9h0.8c0.1,0,0.2,0,0.2,0.1c0.1,0,0.1,0.1,0.1,0.2l3.3,7.7c0,0.1,0.1,0.2,0.1,0.3s0.1,0.2,0.1,0.3
		c0-0.1,0.1-0.2,0.1-0.3s0.1-0.2,0.1-0.3l3.3-7.7c0-0.1,0.1-0.1,0.1-0.2s0.1-0.1,0.2-0.1h0.7l-5.7,13.2c0,0.1-0.1,0.2-0.2,0.2
		c-0.1,0.1-0.2,0.1-0.3,0.1h-0.7l1.7-3.9L440.6,480.9z"/>
	<path d="M456.1,485.9c0-0.8,0.1-1.5,0.3-2.1c0.2-0.6,0.5-1.2,0.9-1.6s0.9-0.8,1.4-1.1c0.6-0.3,1.2-0.4,1.9-0.4
		c0.6,0,1.2,0.1,1.7,0.3c0.5,0.2,0.9,0.5,1.3,0.8l-0.3,0.3c0,0-0.1,0.1-0.1,0.1s-0.1,0-0.1,0c-0.1,0-0.2,0-0.3-0.1
		c-0.1-0.1-0.3-0.2-0.5-0.3c-0.2-0.1-0.4-0.2-0.7-0.3c-0.3-0.1-0.6-0.1-1.1-0.1c-0.6,0-1.1,0.1-1.5,0.3c-0.4,0.2-0.8,0.5-1.1,0.9
		c-0.3,0.4-0.5,0.8-0.7,1.4s-0.2,1.1-0.2,1.8c0,0.7,0.1,1.3,0.2,1.9c0.2,0.5,0.4,1,0.7,1.4c0.3,0.4,0.7,0.7,1.1,0.8
		c0.4,0.2,0.9,0.3,1.4,0.3c0.5,0,0.9-0.1,1.2-0.2c0.3-0.1,0.6-0.2,0.8-0.4c0.2-0.1,0.4-0.3,0.5-0.4c0.1-0.1,0.2-0.2,0.3-0.2
		s0.1,0,0.2,0.1l0.3,0.3c-0.2,0.2-0.3,0.4-0.6,0.6c-0.2,0.2-0.5,0.3-0.8,0.5c-0.3,0.1-0.6,0.2-1,0.3c-0.3,0.1-0.7,0.1-1.1,0.1
		c-0.6,0-1.2-0.1-1.7-0.3c-0.5-0.2-1-0.6-1.3-1c-0.4-0.4-0.7-1-0.9-1.6C456.2,487.4,456.1,486.7,456.1,485.9z"/>
	<path d="M470.3,485.9c0-0.8,0.1-1.5,0.3-2.1c0.2-0.6,0.5-1.2,0.9-1.6s0.9-0.8,1.4-1.1c0.6-0.3,1.2-0.4,1.9-0.4
		c0.6,0,1.2,0.1,1.7,0.3c0.5,0.2,0.9,0.5,1.3,0.8l-0.3,0.3c0,0-0.1,0.1-0.1,0.1s-0.1,0-0.1,0c-0.1,0-0.2,0-0.3-0.1
		c-0.1-0.1-0.3-0.2-0.5-0.3c-0.2-0.1-0.4-0.2-0.7-0.3c-0.3-0.1-0.6-0.1-1.1-0.1c-0.6,0-1.1,0.1-1.5,0.3c-0.4,0.2-0.8,0.5-1.1,0.9
		c-0.3,0.4-0.5,0.8-0.7,1.4s-0.2,1.1-0.2,1.8c0,0.7,0.1,1.3,0.2,1.9c0.2,0.5,0.4,1,0.7,1.4c0.3,0.4,0.7,0.7,1.1,0.8
		c0.4,0.2,0.9,0.3,1.4,0.3c0.5,0,0.9-0.1,1.2-0.2c0.3-0.1,0.6-0.2,0.8-0.4c0.2-0.1,0.4-0.3,0.5-0.4c0.1-0.1,0.2-0.2,0.3-0.2
		s0.1,0,0.2,0.1l0.3,0.3c-0.2,0.2-0.3,0.4-0.6,0.6c-0.2,0.2-0.5,0.3-0.8,0.5c-0.3,0.1-0.6,0.2-1,0.3c-0.3,0.1-0.7,0.1-1.1,0.1
		c-0.6,0-1.2-0.1-1.7-0.3c-0.5-0.2-1-0.6-1.3-1c-0.4-0.4-0.7-1-0.9-1.6C470.4,487.4,470.3,486.7,470.3,485.9z"/>
	<path d="M484,481.7v-0.7h9.3v0.7h-4.2v9.2h-1v-9.2H484z"/>
	<path d="M500.2,490.9v-10h3.3c0.6,0,1.1,0.1,1.5,0.2s0.8,0.3,1,0.5c0.3,0.2,0.5,0.5,0.6,0.7c0.1,0.3,0.2,0.6,0.2,0.9
		c0,0.2,0,0.5-0.1,0.7c-0.1,0.2-0.2,0.5-0.3,0.7s-0.4,0.4-0.6,0.6s-0.6,0.3-1,0.4c0.9,0.1,1.6,0.4,2,0.8c0.4,0.4,0.6,1,0.6,1.6
		c0,0.4-0.1,0.8-0.3,1.2c-0.2,0.3-0.4,0.6-0.7,0.9c-0.3,0.2-0.7,0.4-1.1,0.5c-0.4,0.1-0.9,0.2-1.5,0.2H500.2z M501.1,485.4h2.4
		c0.4,0,0.7,0,1-0.1c0.3-0.1,0.6-0.2,0.8-0.4c0.2-0.2,0.4-0.4,0.5-0.6c0.1-0.3,0.2-0.5,0.2-0.8c0-0.2,0-0.4-0.1-0.7
		s-0.2-0.4-0.4-0.6s-0.5-0.3-0.8-0.4c-0.3-0.1-0.7-0.1-1.2-0.1h-2.4V485.4z M501.1,490.2h2.6c0.4,0,0.8,0,1.1-0.1s0.6-0.2,0.9-0.4
		c0.2-0.2,0.4-0.4,0.5-0.7c0.1-0.3,0.2-0.6,0.2-0.9c0-0.3-0.1-0.6-0.2-0.8c-0.1-0.2-0.3-0.5-0.5-0.6s-0.5-0.3-0.8-0.4
		s-0.8-0.1-1.2-0.1h-2.6V490.2z"/>
	<path d="M514.4,485.7c0-0.7,0.1-1.4,0.3-2c0.2-0.6,0.5-1.1,0.9-1.6c0.4-0.4,0.9-0.8,1.4-1s1.2-0.4,1.9-0.4c0.6,0,1.1,0.1,1.6,0.3
		s0.9,0.5,1.2,0.8c0.4,0.4,0.6,0.8,0.8,1.4c0.2,0.5,0.3,1.2,0.3,1.9c0,0.1,0,0.3-0.1,0.3c0,0.1-0.1,0.1-0.2,0.1h-7.2v0.2
		c0,0.8,0.1,1.4,0.3,2c0.2,0.6,0.4,1,0.7,1.4c0.3,0.4,0.7,0.7,1.2,0.9c0.5,0.2,1,0.3,1.5,0.3c0.5,0,0.9-0.1,1.3-0.2s0.7-0.2,0.9-0.4
		c0.3-0.1,0.4-0.3,0.6-0.4c0.1-0.1,0.3-0.2,0.3-0.2c0.1,0,0.2,0,0.2,0.1l0.3,0.3c-0.2,0.2-0.4,0.4-0.6,0.6c-0.3,0.2-0.6,0.3-0.9,0.4
		c-0.3,0.1-0.7,0.2-1,0.3c-0.4,0.1-0.7,0.1-1.1,0.1c-0.7,0-1.3-0.1-1.9-0.4s-1-0.6-1.4-1c-0.4-0.5-0.7-1-0.9-1.7
		C514.5,487.3,514.4,486.6,514.4,485.7z M515.4,484.9h6.6c0-0.5-0.1-1-0.2-1.4c-0.2-0.4-0.4-0.8-0.6-1.1c-0.3-0.3-0.6-0.5-1-0.7
		c-0.4-0.2-0.8-0.2-1.2-0.2c-0.5,0-1,0.1-1.4,0.2c-0.4,0.2-0.8,0.4-1.1,0.7c-0.3,0.3-0.5,0.7-0.7,1.1
		C515.6,483.9,515.5,484.4,515.4,484.9z"/>
	<path d="M530.5,490.9v-10h1v4.2h5.9v-4.2h1v10h-1v-5h-5.9v5H530.5z"/>
	<path d="M546.6,490.9v-10h1v4.2h5.9v-4.2h1v10h-1v-5h-5.9v5H546.6z"/>
	<path d="M562.1,485.9c0-0.8,0.1-1.5,0.3-2.1s0.5-1.2,0.9-1.6c0.4-0.4,0.9-0.8,1.4-1c0.6-0.2,1.2-0.4,1.9-0.4c0.7,0,1.4,0.1,1.9,0.4
		c0.6,0.2,1,0.6,1.4,1c0.4,0.4,0.7,1,0.9,1.6s0.3,1.3,0.3,2.1c0,0.8-0.1,1.5-0.3,2.1s-0.5,1.2-0.9,1.6c-0.4,0.4-0.9,0.8-1.4,1
		c-0.6,0.2-1.2,0.4-1.9,0.4c-0.7,0-1.3-0.1-1.9-0.4c-0.6-0.2-1-0.6-1.4-1c-0.4-0.5-0.7-1-0.9-1.6S562.1,486.7,562.1,485.9z
		 M563,485.9c0,0.7,0.1,1.3,0.2,1.8c0.2,0.5,0.4,1,0.7,1.4c0.3,0.4,0.7,0.7,1.1,0.9c0.4,0.2,1,0.3,1.6,0.3s1.1-0.1,1.6-0.3
		c0.4-0.2,0.8-0.5,1.1-0.9c0.3-0.4,0.5-0.8,0.7-1.4c0.1-0.5,0.2-1.1,0.2-1.8c0-0.7-0.1-1.3-0.2-1.8c-0.1-0.5-0.4-1-0.7-1.4
		s-0.7-0.7-1.1-0.9c-0.4-0.2-1-0.3-1.6-0.3c-0.6,0-1.1,0.1-1.6,0.3c-0.4,0.2-0.8,0.5-1.1,0.9s-0.5,0.8-0.7,1.4
		C563.1,484.6,563,485.2,563,485.9z"/>
	<path d="M578.8,490.9v-10h6.1v0.7h-5.1v9.2H578.8z"/>
	<path d="M590.6,485.9c0-0.8,0.1-1.5,0.3-2.1s0.5-1.2,0.9-1.6c0.4-0.4,0.9-0.8,1.4-1c0.6-0.2,1.2-0.4,1.9-0.4c0.7,0,1.4,0.1,1.9,0.4
		c0.6,0.2,1,0.6,1.4,1c0.4,0.4,0.7,1,0.9,1.6s0.3,1.3,0.3,2.1c0,0.8-0.1,1.5-0.3,2.1s-0.5,1.2-0.9,1.6c-0.4,0.4-0.9,0.8-1.4,1
		c-0.6,0.2-1.2,0.4-1.9,0.4c-0.7,0-1.3-0.1-1.9-0.4c-0.6-0.2-1-0.6-1.4-1c-0.4-0.5-0.7-1-0.9-1.6S590.6,486.7,590.6,485.9z
		 M591.6,485.9c0,0.7,0.1,1.3,0.2,1.8c0.2,0.5,0.4,1,0.7,1.4c0.3,0.4,0.7,0.7,1.1,0.9c0.4,0.2,1,0.3,1.6,0.3s1.1-0.1,1.6-0.3
		c0.4-0.2,0.8-0.5,1.1-0.9c0.3-0.4,0.5-0.8,0.7-1.4c0.1-0.5,0.2-1.1,0.2-1.8c0-0.7-0.1-1.3-0.2-1.8c-0.1-0.5-0.4-1-0.7-1.4
		s-0.7-0.7-1.1-0.9c-0.4-0.2-1-0.3-1.6-0.3c-0.6,0-1.1,0.1-1.6,0.3c-0.4,0.2-0.8,0.5-1.1,0.9s-0.5,0.8-0.7,1.4
		C591.6,484.6,591.6,485.2,591.6,485.9z"/>
	<path d="M617.8,490.9v-10h1v4.6h1.2c0.3,0,0.5-0.1,0.8-0.2s0.5-0.3,0.6-0.6l2.7-3.5c0.1-0.1,0.1-0.1,0.2-0.2s0.2-0.1,0.3-0.1h0.7
		l-2.9,3.9c-0.2,0.2-0.3,0.4-0.5,0.5s-0.4,0.3-0.7,0.3c0.3,0.1,0.6,0.2,0.8,0.3c0.2,0.2,0.4,0.4,0.6,0.7l3,4.1h-0.7
		c-0.2,0-0.3,0-0.4-0.1s-0.2-0.1-0.3-0.3l-2.5-3.5c-0.2-0.3-0.4-0.5-0.7-0.6s-0.6-0.2-0.9-0.2h-1.3v4.7H617.8z"/>
	<path d="M631.7,488.5c0-0.4,0.1-0.8,0.4-1.2c0.2-0.4,0.6-0.7,1.1-0.9c0.5-0.3,1.2-0.5,2-0.6c0.8-0.2,1.8-0.3,2.9-0.3v-1
		c0-0.9-0.2-1.6-0.6-2.1c-0.4-0.5-1-0.7-1.8-0.7c-0.5,0-0.9,0.1-1.2,0.2c-0.3,0.1-0.6,0.3-0.9,0.4s-0.4,0.3-0.6,0.4
		c-0.1,0.1-0.3,0.2-0.4,0.2c-0.1,0-0.1,0-0.2-0.1c0,0-0.1-0.1-0.1-0.1l-0.2-0.3c0.5-0.5,1.1-0.9,1.6-1.2c0.6-0.3,1.2-0.4,2-0.4
		c0.5,0,1,0.1,1.4,0.3s0.7,0.4,1,0.7s0.5,0.7,0.6,1.1c0.1,0.4,0.2,1,0.2,1.5v6.5h-0.4c-0.2,0-0.3-0.1-0.4-0.3l-0.2-1.3
		c-0.3,0.3-0.5,0.5-0.8,0.7c-0.3,0.2-0.6,0.4-0.8,0.5s-0.6,0.3-0.9,0.3c-0.3,0.1-0.7,0.1-1.1,0.1c-0.3,0-0.7,0-1-0.1
		c-0.3-0.1-0.6-0.3-0.8-0.5s-0.4-0.5-0.6-0.8C631.8,489.3,631.7,488.9,631.7,488.5z M632.6,488.5c0,0.3,0.1,0.6,0.2,0.9
		c0.1,0.2,0.3,0.4,0.4,0.6s0.4,0.3,0.6,0.3s0.5,0.1,0.8,0.1c0.4,0,0.7,0,1.1-0.1s0.6-0.2,0.9-0.4c0.3-0.2,0.5-0.3,0.8-0.5
		c0.2-0.2,0.5-0.4,0.7-0.7v-2.6c-0.9,0-1.8,0.1-2.5,0.2c-0.7,0.1-1.3,0.3-1.7,0.5s-0.8,0.4-1,0.7S632.6,488.1,632.6,488.5z"/>
	<path d="M647.2,490.9v-10h0.7c0.1,0,0.1,0,0.2,0c0.1,0,0.1,0.1,0.2,0.2l4,6.5c0.1,0.2,0.2,0.3,0.2,0.5c0.1-0.2,0.1-0.4,0.2-0.5
		l3.9-6.5c0-0.1,0.1-0.2,0.2-0.2c0.1,0,0.1,0,0.2,0h0.7v10h-0.9v-8c0-0.1,0-0.2,0-0.4s0-0.3,0-0.4l-4.1,6.9c0,0.1-0.1,0.1-0.1,0.1
		s-0.1,0.1-0.2,0.1h-0.1c-0.1,0-0.1,0-0.2-0.1s-0.1-0.1-0.1-0.1l-4.2-6.9c0,0.1,0,0.2,0,0.4s0,0.3,0,0.4v8H647.2z"/>
	<path d="M666,490.9v-10h1v4.2h5.9v-4.2h1v10h-1v-5H667v5H666z"/>
	<path d="M680.8,490.9l3.4-4.1c0.2-0.3,0.4-0.5,0.7-0.6c-0.5,0-1-0.1-1.4-0.3c-0.4-0.2-0.7-0.3-0.9-0.6c-0.2-0.2-0.4-0.5-0.5-0.8
		c-0.1-0.3-0.2-0.6-0.2-0.9c0-0.3,0.1-0.6,0.2-1s0.3-0.6,0.6-0.9c0.3-0.3,0.6-0.5,1.1-0.6c0.4-0.2,1-0.2,1.6-0.2h3.1v10h-1v-4.5
		h-1.3c-0.1,0-0.3,0-0.4,0c-0.1,0-0.2,0.1-0.3,0.1s-0.2,0.1-0.2,0.2c-0.1,0.1-0.1,0.2-0.2,0.3l-2.9,3.6c-0.1,0.1-0.1,0.2-0.2,0.3
		c-0.1,0.1-0.2,0.1-0.4,0.1H680.8z M682.8,483.7c0,0.3,0.1,0.6,0.2,0.9c0.1,0.3,0.3,0.5,0.6,0.6c0.2,0.2,0.5,0.3,0.9,0.4
		c0.4,0.1,0.7,0.1,1.2,0.1h1.8v-4.2h-2.1c-0.5,0-0.9,0.1-1.2,0.2c-0.3,0.1-0.6,0.3-0.8,0.5c-0.2,0.2-0.3,0.4-0.4,0.7
		C682.9,483.2,682.8,483.5,682.8,483.7z"/>
</g>
</svg>
