<?xml version="1.0" encoding="utf-8"?>
<!-- Generator: Adobe Illustrator 19.0.1, SVG Export Plug-In . SVG Version: 6.00 Build 0)  -->
<svg version="1.1" id="Capa_1" xmlns="http://www.w3.org/2000/svg" xmlns:xlink="http://www.w3.org/1999/xlink" x="0px" y="0px"
	 viewBox="-452 453.3 512 512" style="enable-background:new -452 453.3 512 512;" xml:space="preserve">
<style type="text/css">
	.st0{fill:#4C56B5;}
</style>
<g>
	<g>
		<path class="st0" d="M-182.9,613.2c-4.5,4.5-4.5,11.9,0,16.4s11.9,4.5,16.4,0l9.6-9.6c3.4-3.4,4.4-8.7,2.3-13.1
			c-6.4-13.7-9.6-27.9-9.6-42.2c0-29.1,12.6-56.4,34-75.3l0,75.8c0,3.8,1.9,7.4,5,9.5l55,38.1c4,2.7,9.2,2.7,13.2,0l55-38
			c3.1-2.2,5-5.7,5-9.5l0-75.8c21.3,18.9,34,46.2,34,75.3c0,26.9-10.5,52.1-29.5,71.1c-19,19-44.2,29.4-71,29.4c0,0-0.1,0-0.1,0
			c-9.2,0-27.4-4.5-33.6-6.2c-4-1.1-8.3,0-11.3,3l-35.2,35.2c-4.5,4.5-4.5,11.9,0,16.4c2.3,2.3,5.2,3.4,8.2,3.4s5.9-1.1,8.2-3.4
			l30.5-30.5c8.5,2.1,23.1,5.3,33.1,5.3c0,0,0.1,0,0.1,0c33,0,64.1-12.9,87.4-36.2C47.1,628.8,60,597.8,60,564.7
			c0-44.5-24.2-85.8-63-107.7c-3.6-2-8-2-11.5,0.1c-3.6,2.1-5.7,5.9-5.7,10l0,92.2l-43.4,30l-43.4-30l0-92.2c0-4.1-2.2-7.9-5.7-10
			c-3.6-2.1-7.9-2.1-11.5-0.1c-38.9,22-63,63.3-63,107.8c0,15,2.9,29.9,8.6,44.4L-182.9,613.2z"/>
		<path class="st0" d="M-135.6,719.5c-3.8,0-7.3-1.5-10-4.1c-5.5-5.5-5.5-14.4,0-19.9l35.2-35.2c3.6-3.6,8.8-5,13.7-3.6
			c6.1,1.7,23.9,6.1,32.9,6.1c26.2,0,50.8-10.2,69.3-28.7c18.5-18.5,28.7-43.2,28.7-69.3c0-26.1-10.5-51.1-29-69.5l0,70
			c0,4.6-2.3,9-6.1,11.6l-55,38c-4.8,3.3-11.2,3.3-16,0l-55-38.1c-3.8-2.6-6.1-7-6.1-11.6l0-70.1c-18.5,18.4-29,43.4-29,69.5
			c0,13.9,3.2,27.7,9.4,41.1c2.5,5.3,1.4,11.7-2.8,15.9l-9.6,9.6c-2.7,2.7-6.2,4.1-10,4.1s-7.3-1.5-10-4.1c-5.5-5.5-5.5-14.4,0-19.9
			l0,0l2.9-2.9c-5.4-14.3-8.1-29-8.1-43.8c0-45.4,24.6-87.6,64.3-110c4.3-2.5,9.7-2.4,14,0.1c4.3,2.5,7,7.2,7,12.2l0,90.9l40.9,28.3
			l40.9-28.3l0-90.8c0-5,2.7-9.6,7-12.2c4.3-2.5,9.7-2.6,14-0.1c39.7,22.4,64.3,64.5,64.3,109.9c0,33.7-13.1,65.4-37,89.3
			c-23.8,23.8-55.5,37-89.2,37c-9.9,0-24.1-3-32.5-5.1l-29.5,29.5C-128.3,718-131.9,719.5-135.6,719.5z M-100.4,661.1
			c-2.4,0-4.7,0.9-6.4,2.7L-142,699c-3.5,3.5-3.5,9.3,0,12.8c1.7,1.7,4,2.7,6.4,2.7s4.7-0.9,6.4-2.7l31.5-31.5l1.4,0.3
			c7.9,2,22.7,5.2,32.5,5.3c32.5,0,62.9-12.6,85.7-35.5c22.9-22.9,35.5-53.3,35.5-85.7c0-43.6-23.7-84.1-61.8-105.6
			c-2.8-1.6-6.3-1.6-9,0.1c-2.8,1.6-4.5,4.6-4.5,7.8l0,93.5l-45.9,31.8l-45.9-31.8l0-93.5c0-3.2-1.7-6.2-4.5-7.8
			c-2.8-1.6-6.2-1.6-9-0.1c-38.1,21.5-61.7,62-61.7,105.6c0,14.7,2.8,29.3,8.4,43.5l0.6,1.5l-5.2,5.2c-3.5,3.5-3.5,9.3,0,12.8
			c1.7,1.7,4,2.7,6.4,2.7c2.4,0,4.7-0.9,6.4-2.7l9.6-9.6c2.7-2.7,3.4-6.8,1.8-10.3c-6.5-14-9.9-28.6-9.9-43.2
			c0-29.4,12.7-57.6,34.8-77.2l4.2-3.7l0,81.4c0,3,1.5,5.8,3.9,7.5l55,38.1c3.1,2.1,7.2,2.1,10.3,0l55-38c2.5-1.7,3.9-4.5,3.9-7.5
			l0-81.4l4.2,3.7c22.1,19.6,34.8,47.7,34.8,77.1c0,27.5-10.7,53.4-30.2,72.9c-19.4,19.5-45.3,30.2-72.8,30.2
			c-9.6,0-28-4.5-34.3-6.3C-98.8,661.2-99.6,661.1-100.4,661.1z"/>
	</g>
	<g>
		<path class="st0" d="M-213.6,767l-160.7,160.7c-6,6-14.1,9.4-22.6,9.4c0,0,0,0,0,0c-8.5,0-16.6-3.3-22.6-9.4
			c-6-6-9.4-14.1-9.3-22.6c0-8.5,3.3-16.5,9.4-22.6l138.2-138.2c4.5-4.5,4.5-11.9,0-16.4c-4.5-4.5-11.9-4.5-16.4,0l-138.2,138.2
			c-10.4,10.4-16.2,24.2-16.2,38.9c0,14.7,5.7,28.6,16.1,39c10.4,10.4,24.3,16.2,39,16.2c0,0,0,0,0,0c14.7,0,28.6-5.8,39-16.2
			l160.7-160.7c4.5-4.5,4.5-11.9,0-16.4C-201.7,762.5-209.1,762.5-213.6,767z"/>
		<path class="st0" d="M-396.9,962.7c-15.4,0-29.9-6-40.8-16.9c-10.9-10.9-16.9-25.4-16.9-40.8c0-15.4,6-29.8,16.9-40.7l138.2-138.2
			c5.5-5.5,14.4-5.5,19.9,0c5.5,5.5,5.5,14.4,0,19.9l-138.2,138.2c-5.6,5.6-8.6,12.9-8.6,20.8c0,7.9,3,15.3,8.6,20.9
			c5.6,5.6,13,8.6,20.8,8.6c7.9,0,15.3-3.1,20.9-8.6l160.7-160.7c5.5-5.5,14.4-5.5,19.9,0c5.5,5.5,5.5,14.4,0,19.9l-160.7,160.7
			C-367,956.7-381.5,962.7-396.9,962.7z M-289.4,727c-2.3,0-4.7,0.9-6.4,2.7l-138.2,138.2c-9.9,9.9-15.4,23.1-15.4,37.2
			c0,14.1,5.5,27.3,15.4,37.3c9.9,9.9,23.2,15.4,37.2,15.4c14.1,0,27.3-5.5,37.2-15.4L-199,781.6c3.5-3.5,3.5-9.3,0-12.8
			c-3.5-3.5-9.3-3.5-12.8,0l-160.7,160.7c-6.5,6.5-15.2,10.1-24.4,10.1c-9.2,0-17.9-3.6-24.4-10.1c-6.5-6.5-10.1-15.2-10.1-24.4
			c0-9.2,3.6-17.8,10.1-24.3L-283,742.5c3.5-3.5,3.5-9.3,0-12.8C-284.8,727.9-287.1,727-289.4,727z"/>
	</g>
	<g>
		<path class="st0" d="M-397.1,891c-3.8,0-7.4,1.5-10,4.2c-5.6,5.5-5.6,14.6-0.1,20.2c0,0,0,0,0,0c2.8,2.8,6.4,4.2,10.1,4.2
			c3.7,0,7.3-1.4,10.1-4.2c5.5-5.6,5.5-14.6,0-20.1C-389.6,892.5-393.2,891-397.1,891C-397,891-397,891-397.1,891z"/>
		<path class="st0" d="M-397.1,922c-4.5,0-8.7-1.7-11.8-4.9l-0.1-0.1c-6.5-6.6-6.5-17.2,0.1-23.7c3.1-3.1,7.3-4.9,11.8-4.9h0
			c4.5,0,8.7,1.7,11.9,4.9c6.5,6.5,6.5,17.1,0,23.7C-388.3,920.3-392.6,922-397.1,922z M-397.1,891l0,2.5c-3.1,0-6.1,1.2-8.3,3.4
			c-4.6,4.6-4.6,12-0.1,16.6l0.1,0.1c2.2,2.2,5.1,3.4,8.3,3.4c3.2,0,6.1-1.2,8.3-3.5c4.6-4.6,4.6-12,0-16.6
			c-2.2-2.2-5.2-3.5-8.3-3.5L-397.1,891z"/>
	</g>
	<g>
		<path class="st0" d="M-18.3,832.3c-1.2-1.2-2.6-2.1-4.2-2.7l-33.2-12l-120-120l19.4-19.4c4.5-4.5,4.5-11.9,0-16.4
			c-3.4-3.4-8.5-4.3-12.7-2.5l-181.5-181.5c-11-11-25.6-17.1-41.2-17.1c0,0,0,0-0.1,0c-15.6,0-30.2,6.1-41.2,17.1
			c-11,11-17.1,25.7-17.1,41.3c0,15.6,6.1,30.2,17.1,41.2l181.5,181.5c-1.8,4.2-0.9,9.3,2.5,12.7c4.5,4.5,11.9,4.5,16.4,0l19.4-19.4
			l120,120l12,33.2c0.6,1.6,1.5,3,2.7,4.2l67.3,67.3c2.3,2.3,5.2,3.4,8.2,3.4s5.9-1.1,8.2-3.4L49,916c2.2-2.2,3.4-5.1,3.4-8.2
			s-1.2-6-3.4-8.2L-18.3,832.3z M-200.4,689.4C-200.4,689.4-200.4,689.4-200.4,689.4l-35.4,35.4l-180.9-180.9
			c-6.6-6.6-10.3-15.5-10.3-24.8c0-9.4,3.7-18.2,10.3-24.9c6.6-6.6,15.4-10.3,24.8-10.3c0,0,0,0,0,0c9.4,0,18.2,3.7,24.8,10.3
			l180.9,180.9L-200.4,689.4C-200.3,689.3-200.3,689.3-200.4,689.4z M-3,935.2l-57.3-57.3l-12-33.2c-0.6-1.6-1.5-3-2.7-4.2
			l-121.8-121.8l4.7-4.7l121.8,121.8c1.2,1.2,2.6,2.1,4.2,2.7l33.2,12l57.3,57.3L-3,935.2z"/>
		<path class="st0" d="M-3,965.7c-3.8,0-7.3-1.5-10-4.1l-67.3-67.3c-1.4-1.4-2.6-3.2-3.3-5.2l-11.9-32.7l-117.8-117.8l-17.6,17.6
			c-5.5,5.5-14.4,5.5-19.9,0c-3.7-3.7-5-8.9-3.6-13.8L-434.8,562c-11.5-11.5-17.8-26.7-17.8-43c0-16.2,6.3-31.5,17.8-43
			c11.5-11.5,26.7-17.8,43-17.8c16.3,0,31.6,6.4,43,17.8l180.4,180.4c4.9-1.4,10.1-0.1,13.8,3.6c5.5,5.5,5.5,14.4,0,19.9l-17.6,17.6
			l117.8,117.8l32.7,11.9c1.9,0.7,3.7,1.8,5.2,3.3l67.3,67.3c2.7,2.7,4.1,6.2,4.1,10c0,3.8-1.5,7.3-4.1,10L7,961.6
			C4.3,964.2,0.8,965.7-3,965.7z M-213.3,731.5l122.2,122.2l12.2,33.7c0.4,1.2,1.2,2.4,2.1,3.3L-9.4,958c1.7,1.7,4,2.7,6.4,2.7
			s4.7-0.9,6.4-2.7l43.8-43.8c1.7-1.7,2.7-4,2.7-6.4c0-2.4-0.9-4.7-2.7-6.4l-67.3-67.3c-0.9-0.9-2.1-1.7-3.3-2.1l-33.7-12.2
			l-0.4-0.4l-121.8-121.8l21.2-21.2c3.5-3.5,3.5-9.3,0-12.8c-2.6-2.6-6.5-3.4-10-1.9l-1.5,0.7l-182.7-182.7
			c-10.5-10.5-24.5-16.4-39.4-16.4c-15,0-29,5.8-39.5,16.3c-10.6,10.6-16.4,24.6-16.3,39.5c0,14.9,5.8,28.9,16.4,39.4l182.7,182.7
			l-0.7,1.5c-1.4,3.4-0.7,7.3,1.9,10c3.5,3.5,9.3,3.5,12.8,0L-213.3,731.5z M-3,938.8l-59.5-59.5l-12.2-33.7
			c-0.5-1.2-1.2-2.4-2.1-3.3l-123.6-123.6l8.2-8.2L-68.6,834c0.9,0.9,2.1,1.7,3.3,2.1l33.7,12.2l0.4,0.4L28,907.8L-3,938.8z
			 M-58.2,876.5L-3,931.7l23.9-23.9l-55.2-55.2L-67,840.8c-1.9-0.7-3.7-1.8-5.2-3.3l-120-120l-1.2,1.2l120,120
			c1.4,1.4,2.6,3.2,3.3,5.2L-58.2,876.5z M-235.7,728.3l-182.7-182.7c-7.1-7.1-11-16.6-11-26.6c0-10.1,3.9-19.5,11-26.6
			c7.1-7.1,16.6-11,26.6-11c10.1,0,19.5,3.9,26.6,11l182.7,182.7L-235.7,728.3z M-391.8,486.4c-8.8,0-16.9,3.4-23.1,9.5
			c-6.2,6.2-9.6,14.4-9.6,23.1c0,8.7,3.4,16.9,9.6,23.1l179.1,179.1l33.6-33.6l0,0l12.5-12.5L-368.7,496
			C-374.9,489.8-383.1,486.4-391.8,486.4z"/>
	</g>
	<g>
		<path class="st0" d="M-383.7,510.7c-4.5-4.5-11.9-4.5-16.4,0c-4.5,4.5-4.5,11.9,0,16.4l159.8,159.8c2.3,2.3,5.2,3.4,8.2,3.4
			s5.9-1.1,8.2-3.4c4.5-4.5,4.5-11.9,0-16.4L-383.7,510.7z"/>
		<path class="st0" d="M-232.1,692.8c-3.8,0-7.3-1.5-10-4.1l-159.8-159.8c-5.5-5.5-5.5-14.4,0-19.9c5.5-5.5,14.4-5.5,19.9,0v0
			l159.8,159.8c5.5,5.5,5.5,14.4,0,19.9C-224.8,691.4-228.3,692.8-232.1,692.8z M-391.9,509.9c-2.3,0-4.7,0.9-6.4,2.7
			c-3.5,3.5-3.5,9.3,0,12.8l159.8,159.8c1.7,1.7,4,2.7,6.4,2.7c2.4,0,4.7-0.9,6.4-2.7c3.5-3.5,3.5-9.3,0-12.8l-159.8-159.8
			C-387.2,510.7-389.5,509.9-391.9,509.9z"/>
	</g>
</g>
</svg>
