<svg id="Слой_1" data-name="Слой 1" xmlns="http://www.w3.org/2000/svg" viewBox="0 0 300 300"><defs><style>.cls-1{fill:#444;}</style></defs><title>ico1</title><path class="cls-1" d="M74.8,180.14a2.9,2.9,0,0,0,3.15-.63l47.14-47.14,47.13,47.14a2.89,2.89,0,0,0,4.94-2V139.86a2.89,2.89,0,1,0-5.79,0v30.62l-44.22-44.24a3,3,0,0,0-4.11,0L78.8,170.48V137H93.27a2.89,2.89,0,0,0,2.89-2.89v-2.89h5.79v2.89a2.89,2.89,0,1,0,5.79,0v-5.79a2.89,2.89,0,0,0-2.89-2.89H93.27a2.89,2.89,0,0,0-2.89,2.89v2.89H75.91A2.89,2.89,0,0,0,73,134.07v43.39A2.9,2.9,0,0,0,74.8,180.14Z"/><path class="cls-1" d="M142.73,110.91c-.18,2.69-.29,5.57-.29,8.7,0,14.49,4.32,23.14,11.57,23.14,9.14,0,11.57-10.91,11.57-17.36a2.89,2.89,0,1,0-5.79,0c0,.12-.25,11.57-5.79,11.57-3.35,0-5.79-7.3-5.79-17.36,0-33.73,11.84-37.57,12.21-37.68a2.89,2.89,0,0,0-1.21-5.66A12.09,12.09,0,0,0,154,79.1a5.81,5.81,0,0,1,.18-1.49,5.79,5.79,0,1,1,8.48,6.51,2.89,2.89,0,0,0,2.89,5,11.61,11.61,0,1,0-16-4.68c-2.48,4-4.8,10.05-6.09,19a28.49,28.49,0,1,1,12.91,8.89,2.89,2.89,0,1,0-1.83,5.49,34.72,34.72,0,1,0-23.7-32.93A35,35,0,0,0,142.73,110.91Z"/><path class="cls-1" d="M234.17,134.92l-30-30A2.89,2.89,0,1,0,200,109l29.2,29.2v10.37H218.86l-1.2-1.2v-7.48a2.89,2.89,0,0,0-2.89-2.89h-2.89v-2.89a2.89,2.89,0,0,0-2.89-2.89H201.5l-1.2-1.2V122.5a2.89,2.89,0,0,0-2.89-2.89h-7.48l-.28-.28a2.89,2.89,0,0,0-4.09,4.09l1.13,1.13a2.89,2.89,0,0,0,2,.85h5.79v5.78a2.89,2.89,0,0,0,.84,2l2.89,2.9a2.89,2.89,0,0,0,2,.85h5.79v2.89a2.89,2.89,0,0,0,2.89,2.89h2.89v5.79a2.89,2.89,0,0,0,.85,2l2.89,2.89a2.89,2.89,0,0,0,2,.85h14.46a2.89,2.89,0,0,0,2.89-2.89V137A2.89,2.89,0,0,0,234.17,134.92Z"/><path class="cls-1" d="M133.77,177.47a2.89,2.89,0,0,0-2.89,2.89V203.5a2.89,2.89,0,0,0,2.89,2.89h17.36A2.89,2.89,0,0,0,154,203.5V180.36a2.89,2.89,0,0,0-2.89-2.89Zm14.46,23.14H136.66V183.25h11.57Z"/><path class="cls-1" d="M232.13,218H200.3V206.1a14.49,14.49,0,0,0,11.57-14.17c0-.38-.16-37.61-14.46-37.61s-14.46,37.23-14.46,37.61a14.49,14.49,0,0,0,11.57,14.17V218H171.37V184.7a2.89,2.89,0,1,0-5.79,0V218h-40.5V180.36a2.89,2.89,0,0,0-2.89-2.89H99.05a2.89,2.89,0,0,0-2.89,2.89V218H84.59V184.7a2.89,2.89,0,0,0-5.79,0V218H64.34a2.89,2.89,0,0,0,0,5.79H232.13a2.89,2.89,0,0,0,0-5.79ZM119.3,197.72h-2.89a2.89,2.89,0,1,0,0,5.79h2.89V218H101.94V183.25H119.3Zm69.43-5.79c0-14.41,3.87-31.82,8.68-31.82s8.68,17.41,8.68,31.82a8.68,8.68,0,0,1-17.36,0Z"/><path class="cls-1" d="M149.87,6.25A143.87,143.87,0,0,1,251.61,251.86,143.87,143.87,0,0,1,48.14,48.39,142.93,142.93,0,0,1,149.87,6.25m0-6A149.87,149.87,0,1,0,299.75,150.13,149.87,149.87,0,0,0,149.87.25Z"/></svg>