<svg id="Слой_1" data-name="Слой 1" xmlns="http://www.w3.org/2000/svg" viewBox="0 0 300 300"><defs><style>.cls-1{fill:#444;}</style></defs><title>ico2</title><path class="cls-1" d="M190.27,222.72c-7.44-13.05-3.52-25.38,3.39-32.54,8.43-8.74,19.43-10.06,33.54-3.76v-2.64q0-42.06,0-84.13c0-4-.81-4.83-4.79-4.83H202.18a10.48,10.48,0,0,0-1.86,0c-2,.36-3,2.24-2.86,4.76s1.86,1.37,2.95,1.45c2.12.15,4.26,0,6.39.06a3,3,0,0,1,3.23,3.15,3,3,0,0,1-3.2,3.2c-2.48.09-5,.14-7.45,0-1.87-.11-2,.86-1.91,2.27s-.29,2.8,1.9,2.57a15.31,15.31,0,0,1,2.92,0,3,3,0,0,1,3,3.15,3,3,0,0,1-2.7,3.15,5.87,5.87,0,0,1-2.12,0c-2.55-.44-3.17.73-3,3.07.11,1.46.66,1.83,1.95,1.74a19.28,19.28,0,0,1,2.93,0,3,3,0,0,1,2.94,3.16,3,3,0,0,1-2.71,3.13,7.08,7.08,0,0,1-2.39,0c-2.33-.37-2.77.7-2.73,2.82,0,1.94.46,2.84,2.52,2.53a10.87,10.87,0,0,1,2.13,0,3,3,0,0,1,3.18,3.2,3,3,0,0,1-3,3.15,8.41,8.41,0,0,1-2.13,0c-2-.27-2.75.38-2.73,2.57s.56,3,2.82,2.81c2-.19,4.08,0,6.12,0,2.23,0,3.72,1,3.68,3.24s-1.59,3.2-3.79,3.17-4.45.14-6.65,0-2.13,1.08-2.12,2.61-.15,3.12,2.24,2.76a16.93,16.93,0,0,1,2.39,0,2.88,2.88,0,0,1,3.14,2.92,3,3,0,0,1-2.5,3.29,7.33,7.33,0,0,1-2.64.16c-2.08-.26-2.73.48-2.69,2.61,0,1.9.6,2.58,2.42,2.29a4,4,0,0,1,1.06,0,3,3,0,0,1,3,3.13,2.83,2.83,0,0,1-2.86,3.19c-3.18.1-6.36-.06-9.55-.12-.76-2.69-.32-5.43-.32-8.14q-.07-33.81,0-67.62a23.22,23.22,0,0,1,.33-4.23,9.19,9.19,0,0,1,9.17-7.69c7.72,0,15.44,0,23.16,0,5.87,0,9.84,4,9.84,9.86q0,45.92,0,91.85a8.54,8.54,0,0,0,1.25,4.73,26.18,26.18,0,0,1-36.18,35.88,8.4,8.4,0,0,0-4.71-1.31q-39,.06-78,0a21.37,21.37,0,0,1-4.23-.34,9.1,9.1,0,0,1-7.56-9q-.13-11.85,0-23.69a9.32,9.32,0,0,1,9.73-9.45c21.39,0,42.77,0,64.16-.06,2,0,2.63.55,2.46,2.52s0,3.9,0,5.85c0,2.94-1,4.35-3,4.38s-3.33-1.42-3.32-4.22c0-1.56-.33-2.06-2-2.16-2.45-.14-3.27.63-3,3.06a39,39,0,0,1,0,5.85c-.09,2.14-1.07,3.59-3.45,3.48s-3-1.53-2.94-3.6c0-2.4,0-4.79,0-7.19s-1.78-1.39-2.85-1.48-2.66-.64-2.49,1.55a12.92,12.92,0,0,1-.15,3.44,2.92,2.92,0,0,1-3.51,2.48,2.77,2.77,0,0,1-2.71-3,7.66,7.66,0,0,1,0-1.59c.49-2.59-.79-3-3.07-3-1.92,0-2.48.62-2.29,2.43a8.63,8.63,0,0,1-.21,2.89,2.87,2.87,0,0,1-3.4,2.28,2.76,2.76,0,0,1-2.75-3c0-.62,0-1.24,0-1.86,0-2.49-1.64-3.52-4.08-2.68-.88.3-.65.92-.69,1.49a28.07,28.07,0,0,1-.24,3.7,2.85,2.85,0,0,1-3.36,2.33,2.76,2.76,0,0,1-2.8-2.92c0-.62,0-1.24,0-1.86,0-2.58-1.48-3.53-4-2.73-1.05.33-.73,1.09-.74,1.71,0,2.31,0,4.62,0,6.92-.05,2.1-.86,3.67-3.26,3.67s-3.19-1.48-3.13-3.67a54.66,54.66,0,0,0,0-5.85c-.08-1,1-2.7-1.26-2.79s-4.19-.11-5,2.46a5.66,5.66,0,0,0-.11,1.59c0,7.1,0,14.2,0,21.3,0,3,1.11,4.35,4.07,4.35q37.67,0,75.34,0C190,223,190.05,222.91,190.27,222.72Zm2.38-14.36a20.1,20.1,0,0,0,19.7,20c10.79.16,20-9,19.94-20a19.82,19.82,0,0,0-39.64,0Z"/><path class="cls-1" d="M64.88,147q0-34.87,0-69.75c0-8.66,6.9-15.76,16.16-16.65A17,17,0,0,1,98.88,74.09c.79,4.21.79,4.21,5.05,4.21H208a13.47,13.47,0,0,1,2.65.08,3,3,0,0,1,2.67,3.4,2.94,2.94,0,0,1-2.92,2.89c-.79.08-1.6,0-2.39,0q-52.84,0-105.68-.05c-2.35,0-3.08.48-3.07,3q.13,63.22.05,126.45a15.1,15.1,0,0,1-.21,3.17,2.87,2.87,0,0,1-3.3,2.44,2.8,2.8,0,0,1-2.88-2.87c-.18-3.7-1.27-7-4.36-9.28a10.79,10.79,0,0,0-12-.67,11.73,11.73,0,0,0-5.15,12c.84,4.73,3.65,7.76,8.22,8.58,5.19.93,10.44.28,15.67.41,4,.1,5.37.81,5.45,3.12s-1.41,3.29-5.49,3.3-8.34.07-12.51,0c-11-.1-17.9-7.09-17.9-18.09Q64.88,181.58,64.88,147Zm28.06,55.37v-3.18q0-59.47,0-118.93c0-.89,0-1.78,0-2.66-.62-7.13-6.24-11.66-12.9-10.44-5.4,1-8.72,5.63-8.72,12.27q0,60.26,0,120.53v2.38C80.55,197.78,83.9,197.78,92.94,202.34Z"/><path class="cls-1" d="M175.27,165c3.49-1.11,5.46-.32,5.7,2.18a3.37,3.37,0,0,1-1.28,3c-1.75,1.5-3.47,3-5.22,4.54a3.4,3.4,0,0,1-4.81.08c-1.81-1.43-3.63-2.85-5.5-4.2s-2.64-2.79-1.45-4.75c1.3-2.14,3.16-1.9,5-.67a4.33,4.33,0,0,0,.83.3V104.07c-.74.14-1.45.33-2.17.39a3.1,3.1,0,0,1-2.6-5.14c2.06-2,4.16-3.87,6.37-5.63,1.34-1.07,2.85-.68,4.17.32,1.91,1.44,3.81,2.9,5.72,4.34,1.72,1.29,2.5,2.91,1.16,4.79s-3.12,1.73-4.9.5c-.28-.19-.59-.33-1.09-.61Z"/><path class="cls-1" d="M197.31,208.55a15,15,0,0,1,15-15.3,15.26,15.26,0,1,1-15,15.3Zm6.39-.24a8.76,8.76,0,0,0,8.54,9,8.85,8.85,0,1,0,.37-17.69A8.79,8.79,0,0,0,203.7,208.31Z"/><path class="cls-1" d="M150,6.13A143.87,143.87,0,0,1,251.73,251.73,143.87,143.87,0,0,1,48.27,48.27,142.93,142.93,0,0,1,150,6.13m0-6A149.87,149.87,0,1,0,299.87,150,149.87,149.87,0,0,0,150,.13Z"/></svg>