<svg id="Слой_1" data-name="Слой 1" xmlns="http://www.w3.org/2000/svg" viewBox="0 0 300 300"><defs><style>.cls-1{fill:#444;}</style></defs><title>ico3</title><path class="cls-1" d="M148.74,74.31h0M152.53,53h-1.71c-4.71,4.37-9.35,8.83-13.61,13.62-5.2,5.85-8.37,12.7-8.62,20.65-.24,7.41,2.44,13.92,6.73,19.79,3.48,4.76,8,8.52,12.13,12.71a4.62,4.62,0,0,1,1.5,3.55q-.08,26.73,0,53.47a11.78,11.78,0,0,0,.16,2.2,2.58,2.58,0,0,0,2.76,2.27h0a2.58,2.58,0,0,0,2.77-2.24,11.4,11.4,0,0,0,.16-2.2q0-23.91,0-47.83c0-2.56-.63-5.4.28-7.6s3.38-3.74,5.17-5.56c3.51-3.57,7.26-6.91,9.86-11.28C174,98,176.15,91,174.71,83.27A34.85,34.85,0,0,0,165,65c-3.31-3.38-6.69-6.68-10-10A11.79,11.79,0,0,0,152.53,53Zm-3.85,59.64c-6.62-5.94-12.6-12.21-14.05-21.45-1-6.17.94-11.65,4.07-16.85,2.53-4.21,6.29-7.31,9.65-10.79,1.1-1.14,2.22-3,3.43-3.11h.08c1.35,0,2.34,2,3.48,3.12,2.32,2.27,4.74,4.47,6.81,6.95,10,11.95,9.34,24.46-.84,36-1.92,2.16-4.05,4.14-6.22,6.33a3.57,3.57,0,0,1-.3-2.08q0-17.93,0-35.87c0-2.89-1-4.34-2.92-4.34h0c-2,0-2.93,1.45-2.93,4.36q0,17.93,0,35.87a3.39,3.39,0,0,1-.22,1.91Z"/><path class="cls-1" d="M210.42,146.57c-3.32,0-6.17,1.6-8.69,4.12-6.12,6.13-12.1,12.38-18.39,18.33-5.77,5.45-8.27,12-8.2,19.83.06,6.6,0,13.21.05,19.81,0,1.45-.32,2-1.67,2h-.71c-2.63,0-3.49,1.11-3.5,4s.08,5.7,0,8.54c-.07,1.9.22,3.59,1.7,4.9H173a3.79,3.79,0,0,0,2.15-4c-.12-2.1,0-4.21,0-6.31,0-1,.13-1.38,1.25-1.38h0q9.71,0,19.41,0l19,0h0c1,0,1.27.26,1.23,1.23-.07,2,.06,4,0,6-.1,1.81.25,3.35,1.8,4.46h1.71c1.92-.73,2.42-2.23,2.37-4.13-.07-2.9,0-5.81,0-8.71,0-3.87-.74-4.63-4.54-4.63H202q-9.73,0-19.46,0h0c-1.15,0-1.51-.29-1.5-1.5.06-7.06,0-14.12,0-21.18a18.89,18.89,0,0,1,5.92-14.2c6.29-6.11,12.42-12.38,18.62-18.58a11.22,11.22,0,0,1,2.35-2,5.67,5.67,0,0,1,2.79-.76,5.13,5.13,0,0,1,4.09,2.06,5.28,5.28,0,0,1-.56,7c-2.25,2.42-4.63,4.71-7,7-2.57,2.58-5.18,5.12-7.71,7.75a2.89,2.89,0,0,0-.08,4.26,2.74,2.74,0,0,0,1.92.8,3.39,3.39,0,0,0,2.22-.92c.77-.68,1.47-1.43,2.19-2.16,4.38-4.48,9.1-8.63,13.17-13.4A11,11,0,0,0,213.29,147a11.33,11.33,0,0,0-2.88-.38Z"/><path class="cls-1" d="M93.29,146.56a11.38,11.38,0,0,0-2.66.32,10.91,10.91,0,0,0-5.8,18c4.82,5.38,10.09,10.35,15.21,15.45a3.17,3.17,0,0,0,2.23,1,2.82,2.82,0,0,0,2-.88,3,3,0,0,0-.2-4.27c-1.12-1.21-2.33-2.34-3.49-3.51-3.7-3.71-7.45-7.37-11.07-11.16-2.46-2.58-2.2-6.09.4-8.09a4.87,4.87,0,0,1,3-1.05,6.73,6.73,0,0,1,4.65,2.21q10.18,10.12,20.28,20.3a15.74,15.74,0,0,1,4.61,10.37c.46,7.85.05,15.71.23,23.56,0,1.43-.38,1.76-1.75,1.76h0q-9.35,0-18.69,0H86.09c-3.37,0-4.28.89-4.28,4.2,0,2.79.08,5.58,0,8.37-.07,1.9.22,3.59,1.7,4.9h2.05a3.79,3.79,0,0,0,2.15-4c-.12-2.1,0-4.21,0-6.31,0-1,.13-1.38,1.25-1.38h0q9.7,0,19.4,0l19,0h0c1,0,1.27.26,1.23,1.23-.07,2,.06,4,0,6-.1,1.81.25,3.35,1.8,4.46H132c1.92-.73,2.42-2.23,2.37-4.13-.07-3,0-5.92,0-8.88,0-3.53-.73-4.43-4.07-4.43h-.38c-1.14,0-1.42-.37-1.41-1.52q.08-10.5,0-21c0-6.28-1.56-12.13-6-16.75-6.89-7.12-14-14.07-21-21a11.59,11.59,0,0,0-8.23-3.72Z"/><path class="cls-1" d="M227.44,105.61a13.33,13.33,0,0,0-1.57.09c-4.91.58-9.56,5.2-9.7,10.21-.22,8.14-.12,16.29-.1,24.43a2.81,2.81,0,0,0,2.64,2.85H219a2.92,2.92,0,0,0,2.79-2.45,9.31,9.31,0,0,0,.12-1.87c0-7.12,0-14.24,0-21.36,0-3.58,2.4-6.08,5.73-6.11h.06c3.37,0,5.83,2.53,5.84,6.15q0,21.62,0,43.23a18.12,18.12,0,0,1-5.68,13.42c-8.21,8.06-16.3,16.25-24.43,24.38-.36.36-.75.71-1.07,1.1a2.9,2.9,0,0,0,0,4.15,2.72,2.72,0,0,0,1.92.81,3.45,3.45,0,0,0,2.22-.91c.39-.33.74-.71,1.1-1.07q12.5-12.51,25-25a23.68,23.68,0,0,0,5.22-8.1c.63-1.56.54-3.33,1.54-4.76V115.25a5.43,5.43,0,0,1-.72-2,11.58,11.58,0,0,0-11.18-7.63Z"/><path class="cls-1" d="M76,105.59a11.7,11.7,0,0,0-9,4.27c-1.26,1.51-1.76,3.37-2.66,5v49.9c.59.47.54,1.18.69,1.81a20.9,20.9,0,0,0,5.36,10.3q13.12,13.23,26.33,26.36a4.07,4.07,0,0,0,2.76,1.42,2.66,2.66,0,0,0,1.88-.84c1.34-1.31,1.18-2.95-.45-4.65-.28-.29-.56-.57-.84-.85-8-8-16-16.09-24.08-24a18.57,18.57,0,0,1-5.81-13.89q0-21.28,0-42.55c0-3.89,2.37-6.49,5.84-6.49h.06c3.44,0,5.73,2.58,5.73,6.45,0,7,0,14,0,21a10.93,10.93,0,0,0,0,1.54,3,3,0,0,0,2.9,2.77h.05a2.87,2.87,0,0,0,2.82-3c0-7.92.08-15.84-.07-23.75a11.23,11.23,0,0,0-7.94-10.25,11.87,11.87,0,0,0-3.62-.57Z"/><path class="cls-1" d="M117.42,123c-2.3,0-4.6.12-6.89.16a2.54,2.54,0,0,0-2.4,2.84c0,4-.36,8,.3,11.94,1.56,9.38,6.54,15.91,15.8,18.87a30.82,30.82,0,0,0,9.53,1.24c2.3,0,4.6-.12,6.9-.16,1.55,0,2.35-1.29,2.39-2.84,0-1.82,0-3.64,0-5.47h0c0-.91,0-1.82,0-2.73-.17-11.26-6.22-19.59-16.44-22.7a31.22,31.22,0,0,0-9.22-1.15Zm16.83,29.21c-4.11,0-8.16-.37-11.91-2.48-4.79-2.69-7.09-7-8.07-12.21a52.22,52.22,0,0,1-.37-7.65c0-.82.28-1,.89-1H115c.38,0,.77,0,1.15,0h2.34a19.65,19.65,0,0,1,12.25,3.71c4.2,3.17,5.87,7.68,6.39,12.7.2,2,.08,4,.1,6,0,.45.09.91-.64.92l-2.34,0Z"/><path class="cls-1" d="M186.11,123a33.08,33.08,0,0,0-6,.46c-8.28,1.52-14.42,5.83-17.65,13.84-2.4,6-1.92,12.18-1.7,18.37.05,1.49,1.24,2.26,2.72,2.31.67,0,1.35,0,2,0l3.1,0h2.59a25.85,25.85,0,0,0,4.9-.36c8.35-1.6,14.5-5.94,17.71-14,2.33-5.85,1.83-12,1.7-18a2.47,2.47,0,0,0-2.61-2.45c-2.26,0-4.52-.13-6.77-.13Zm-18.82,29.2c-.72,0-.88-.32-.85-1,0-1,0-2,0-3.07,0-4.84.91-9.37,4.08-13.22s7.71-5.45,12.59-6a22.44,22.44,0,0,1,2.29-.1c1.08,0,2.16,0,3.24,0h.44c.36,0,.67.08.68.71.1,5,0,10-2.69,14.54-2.59,4.38-6.58,6.57-11.39,7.62a24.94,24.94,0,0,1-5.35.42H169l-1.65,0Z"/><path class="cls-1" d="M150,6.13A143.87,143.87,0,0,1,251.73,251.73,143.87,143.87,0,1,1,48.27,48.27,142.93,142.93,0,0,1,150,6.13m0-6A149.87,149.87,0,1,0,299.87,150,149.87,149.87,0,0,0,150,.13Z"/></svg>