<svg id="Слой_1" data-name="Слой 1" xmlns="http://www.w3.org/2000/svg" viewBox="0 0 300 300"><defs><style>.cls-1{fill:#3c3c3c;}.cls-2{fill:#444;}</style></defs><title>ico4</title><path class="cls-1" d="M144.72,212.1c-3.58,0-7.16-.07-10.74,0-1.89.05-4.52-.07-4.61,2.4-.1,2.81,2.71,2.22,4.48,2.3,7,.29,14,.42,21,.62a26.73,26.73,0,0,1,3.57.21,2.93,2.93,0,0,1,2.72,2.56c.18,1.63-1,2.32-2.35,2.8a15.39,15.39,0,0,1-5.29.72c-6.56,0-13.13-.21-19.69,0-4.88.14-5.36,1.31-2.77,5.43,1.11,1.77,1.68,3.79.24,5.36-1.62,1.76-3.87,1.37-5.74.1a9,9,0,0,1-4.12-9.27c1.1-6.38-.33-12.68-.1-19,.13-3.64-.16-7.11,2.49-10.07,2.5-2.79,1.83-5.43-.72-7.8a40.79,40.79,0,0,0-3.36-2.94C101.16,171.71,92.14,152.93,92,130.15c-.14-18.45,7.1-33.78,20.58-46.85,18.77-18.2,50.93-18.69,70.12-4.43,14.63,10.87,23.8,25.34,25.52,44.23,1.85,20.39-4.5,37.75-17.24,53.25-3.36,4.09-7.81,6.89-11.71,10.34-4.5,4-4.76,5.61-1.54,10.66,1.47,2.3,1.49,4.72,1.59,7.28.3,7.11-.93,14.19-.11,21.34.67,5.92-2.87,9.45-9,9.6-4.43.11-7.43,1.59-9.26,6.07-2.49,6.09-8.29,7.69-15.89,5.11-5.29-1.79-7.93-7-6.76-12.91.67-3.43,2.65-5.15,6.1-5.28a103.93,103.93,0,0,1,16.07.35,22.06,22.06,0,0,0,8.42-.52c2.84-.76,3.54-2.44,1.29-4.41-2.54-2.23-2.43-4.15-.22-6.37,1.78-1.79,1.9-3.61,0-5.44-2.21-2.16-2.47-4.24,0-6.44s1.14-4.35-.24-6.35c-3.24-4.68-3.33-7.91-.08-12.48,2.1-3,5-5.11,7.86-7.25,19.06-14,28.35-40.65,22.69-63.69-3.51-14.28-11.79-24.72-23.89-32.66-14.7-9.64-30.52-10.54-45.85-3.6-16.66,7.54-27.71,20.87-30.81,39.55-3,17.94.76,34.23,12.08,48.8A56.28,56.28,0,0,0,124,180.22a20.38,20.38,0,0,1,7.38,8.24c1.79,4,4.77,5.28,9,5.06,5.21-.28,10.44-.21,15.66-.22,2.28,0,5,.13,5.08,3.07s-2.6,3.31-4.94,3.32c-6.12,0-12.23,0-18.35,0-1.19,0-2.39-.05-3.58,0-2.4.17-4.73,1.48-4.91,3.6-.22,2.67,2.9,2.31,4.5,2.34,5.8.12,11.61-.3,17.41-.35a44.44,44.44,0,0,1,6.65.65c1.76.25,3.29,1.19,3.26,3.1s-1.89,2.82-3.47,2.89c-4.31.21-8.64.07-13,.07Zm5.61,23.49c-1.36.69-4,.43-4,2.61,0,2.78,2.77,2.56,4.79,2.69,1.7.11,3.71-.18,3.72-2.25C154.87,236.06,152.42,236.1,150.33,235.59Z"/><path class="cls-1" d="M150.66,94.93a11.79,11.79,0,0,1,2.49,1.94c3.32,3.37,6.7,6.67,10,10a34.85,34.85,0,0,1,9.69,18.25c1.44,7.72-.68,14.72-4.62,21.32-2.61,4.37-6.35,7.71-9.86,11.28-1.79,1.82-4.26,3.37-5.17,5.56s-.28,5-.28,7.6c0,15.94,0-3.11,0,12.83a11.4,11.4,0,0,1-.16,2.2,2.82,2.82,0,0,1-5.53,0,11.78,11.78,0,0,1-.16-2.2c0-17.82,0-.64,0-18.47a4.62,4.62,0,0,0-1.5-3.55c-4.09-4.19-8.65-8-12.13-12.71-4.29-5.88-7-12.38-6.73-19.79.25-8,3.43-14.8,8.62-20.65,4.26-4.8,8.9-9.25,13.61-13.62Zm2.56,59.79c2.17-2.19,4.3-4.17,6.22-6.33,10.19-11.49,10.83-24,.84-36-2.07-2.48-4.49-4.68-6.81-6.95-1.16-1.14-2.18-3.21-3.56-3.12-1.2.07-2.32,2-3.43,3.11-3.35,3.47-7.11,6.57-9.65,10.79-3.13,5.2-5,10.68-4.07,16.85,1.45,9.24,7.43,15.51,14.05,21.45a3.39,3.39,0,0,0,.22-1.91q0-17.93,0-35.87c0-2.91,1-4.35,2.93-4.36s2.94,1.44,2.94,4.34q0,17.93,0,35.87A3.57,3.57,0,0,0,153.22,154.72Z"/><path class="cls-1" d="M216.22,73.87a6.27,6.27,0,0,1-.89,2.24c-2.74,2.87-5.51,5.74-8.47,8.38-1.3,1.17-3.06,2-4.8.4s-1.13-3.27-.14-4.81a25.39,25.39,0,0,1,9.82-8.8C213.9,70.15,215.81,70.74,216.22,73.87Z"/><path class="cls-1" d="M95.29,85.05a7.2,7.2,0,0,1-2.2-1.14c-2.76-2.64-5.45-5.35-8-8.16-.87-.95-1.69-2.26-.65-3.61a3.09,3.09,0,0,1,4-1c4.33,2.1,8.17,4.94,10.52,9.21C100.59,83.4,99.13,85.43,95.29,85.05Z"/><path class="cls-1" d="M74.84,96.69a25.59,25.59,0,0,1,10.35,4.22c1.4.94,2.57,2.26,1.79,4.1-.7,1.65-2.34,1.68-3.83,1.42a47.06,47.06,0,0,1-10.92-3.52c-1.78-.79-2.9-2.26-2.43-4.23C70.34,96.4,72.33,96.57,74.84,96.69Z"/><path class="cls-1" d="M227.61,96.54c1.4,0,2.81,0,3.36,1.6a2.92,2.92,0,0,1-1.46,3.82A45.21,45.21,0,0,1,217,106.5c-1.27.23-2.85.38-3.46-1.26a3,3,0,0,1,1.27-3.91C218.81,99.12,222.85,96.84,227.61,96.54Z"/><path class="cls-1" d="M73.68,131.41a65.12,65.12,0,0,1-6.66-.06,2.89,2.89,0,0,1-2.81-2.93c0-1.64,1.27-2.31,2.61-2.6a39.87,39.87,0,0,1,13.71-.23,2.9,2.9,0,0,1-.19,5.8c-2.2.21-4.44.05-6.66.05Z"/><path class="cls-1" d="M226.57,131.56c-1.93,0-3.87.09-5.8,0-1.77-.1-3.23-.91-3.43-2.86-.22-2.13,1.35-2.88,3.06-3.1a39.14,39.14,0,0,1,12-.15c1.81.33,3.59,1,3.41,3.35s-2,2.74-3.86,2.8-3.57,0-5.36,0Z"/><path class="cls-2" d="M150,6.13A143.87,143.87,0,0,1,251.73,251.73,143.87,143.87,0,1,1,48.27,48.27,142.93,142.93,0,0,1,150,6.13m0-6A149.87,149.87,0,1,0,299.87,150,149.87,149.87,0,0,0,150,.13Z"/></svg>