<svg id="Слой_1" data-name="Слой 1" xmlns="http://www.w3.org/2000/svg" viewBox="0 0 300 300"><defs><style>.cls-1{fill:#3c3c3c;}</style></defs><title>ico5</title><path class="cls-1" d="M136.37,99.35h57.8a2.89,2.89,0,0,0,0-5.78h-57.8a2.89,2.89,0,0,0,0,5.78Z"/><path class="cls-1" d="M173.94,136.92a2.89,2.89,0,0,0,2.89,2.89h28.9a2.89,2.89,0,0,0,0-5.78h-28.9A2.89,2.89,0,0,0,173.94,136.92Z"/><path class="cls-1" d="M176.83,122.47h17.34a2.89,2.89,0,0,0,0-5.78H176.83a2.89,2.89,0,0,0,0,5.78Z"/><path class="cls-1" d="M199.95,151.37H176.83a2.89,2.89,0,1,0,0,5.78h23.12a2.89,2.89,0,1,0,0-5.78Z"/><path class="cls-1" d="M153.71,226.51h-28.9a2.89,2.89,0,0,0,0,5.78h28.9a2.89,2.89,0,0,0,0-5.78Z"/><path class="cls-1" d="M176.83,226.51H171a2.89,2.89,0,1,0,0,5.78h5.78a2.89,2.89,0,0,0,0-5.78Z"/><path class="cls-1" d="M126.85,136.07l.85-.85v19a2.89,2.89,0,0,0,2.89,2.89h28.9a2.89,2.89,0,0,0,2.89-2.89v-19l.85.85a2.89,2.89,0,1,0,4.09-4.09l-20.23-20.23a2.89,2.89,0,0,0-4.09,0L122.76,132a2.89,2.89,0,0,0,4.09,4.09ZM145,117.89,157,129.81a2.85,2.85,0,0,0-.36,1.33v20.23h-8.67V142.7a2.89,2.89,0,0,0-5.78,0v8.67h-8.67V131.14a2.85,2.85,0,0,0-.36-1.33Z"/><path class="cls-1" d="M234.63,226.51H188.39a2.89,2.89,0,0,0,0,5.78h46.24a2.89,2.89,0,0,0,0-5.78Z"/><path class="cls-1" d="M119,93.57A14.47,14.47,0,0,0,104.58,108v57.8A14.47,14.47,0,0,0,119,180.27h92.48A14.47,14.47,0,0,0,226,165.82V108a14.47,14.47,0,0,0-14.45-14.45h-2.89V82h26a2.89,2.89,0,1,0,0-5.78H93V67.56a8.67,8.67,0,1,0-17.34,0v159H67a2.89,2.89,0,0,0,0,5.78h40.46a2.89,2.89,0,1,0,0-5.78H93V90.68a2.89,2.89,0,1,0-5.78,0V226.51H81.46v-159a2.89,2.89,0,1,1,5.78,0V79.12A2.89,2.89,0,0,0,90.13,82h31.79V93.57Zm5.78,5.78a2.89,2.89,0,0,0,2.89-2.89V82h75.14V96.46a2.89,2.89,0,0,0,2.89,2.89h5.78a8.68,8.68,0,0,1,8.67,8.67v57.8a8.68,8.68,0,0,1-8.67,8.67H119a8.68,8.68,0,0,1-8.67-8.67V108A8.68,8.68,0,0,1,119,99.35Z"/><path class="cls-1" d="M150,6.13A143.87,143.87,0,0,1,251.73,251.73,143.87,143.87,0,1,1,48.27,48.27,142.93,142.93,0,0,1,150,6.13m0-6A149.87,149.87,0,1,0,299.87,150,149.87,149.87,0,0,0,150,.13Z"/></svg>