<svg id="Слой_1" data-name="Слой 1" xmlns="http://www.w3.org/2000/svg" viewBox="0 0 300 300"><defs><style>.cls-1{fill:#3c3c3c}</style></defs><title>ico5</title><path class="cls-1" d="M136.37 99.35h57.8a2.89 2.89 0 0 0 0-5.78h-57.8a2.89 2.89 0 0 0 0 5.78zm37.57 37.57a2.89 2.89 0 0 0 2.89 2.89h28.9a2.89 2.89 0 0 0 0-5.78h-28.9a2.89 2.89 0 0 0-2.89 2.89zm2.89-14.45h17.34a2.89 2.89 0 0 0 0-5.78h-17.34a2.89 2.89 0 0 0 0 5.78zm23.12 28.9h-23.12a2.89 2.89 0 1 0 0 5.78h23.12a2.89 2.89 0 1 0 0-5.78zm-46.24 75.14h-28.9a2.89 2.89 0 0 0 0 5.78h28.9a2.89 2.89 0 0 0 0-5.78zm23.12 0H171a2.89 2.89 0 1 0 0 5.78h5.78a2.89 2.89 0 0 0 0-5.78zm-49.98-90.44l.85-.85v19a2.89 2.89 0 0 0 2.89 2.89h28.9a2.89 2.89 0 0 0 2.89-2.89v-19l.85.85a2.89 2.89 0 1 0 4.09-4.09l-20.23-20.23a2.89 2.89 0 0 0-4.09 0L122.76 132a2.89 2.89 0 0 0 4.09 4.09zM145 117.89l12 11.92a2.85 2.85 0 0 0-.36 1.33v20.23h-8.67v-8.67a2.89 2.89 0 0 0-5.78 0v8.67h-8.67v-20.23a2.85 2.85 0 0 0-.36-1.33zm89.63 108.62h-46.24a2.89 2.89 0 0 0 0 5.78h46.24a2.89 2.89 0 0 0 0-5.78z"/><path class="cls-1" d="M119 93.57A14.47 14.47 0 0 0 104.58 108v57.8A14.47 14.47 0 0 0 119 180.27h92.48A14.47 14.47 0 0 0 226 165.82V108a14.47 14.47 0 0 0-14.45-14.45h-2.89V82h26a2.89 2.89 0 1 0 0-5.78H93v-8.66a8.67 8.67 0 1 0-17.34 0v159H67a2.89 2.89 0 0 0 0 5.78h40.46a2.89 2.89 0 1 0 0-5.78H93V90.68a2.89 2.89 0 1 0-5.78 0v135.83h-5.76v-159a2.89 2.89 0 1 1 5.78 0v11.61A2.89 2.89 0 0 0 90.13 82h31.79v11.57zm5.78 5.78a2.89 2.89 0 0 0 2.89-2.89V82h75.14v14.46a2.89 2.89 0 0 0 2.89 2.89h5.78a8.68 8.68 0 0 1 8.67 8.67v57.8a8.68 8.68 0 0 1-8.67 8.67H119a8.68 8.68 0 0 1-8.67-8.67V108a8.68 8.68 0 0 1 8.67-8.65z"/><path class="cls-1" d="M150 6.13a143.87 143.87 0 0 1 101.73 245.6A143.87 143.87 0 1 1 48.27 48.27 142.93 142.93 0 0 1 150 6.13m0-6A149.87 149.87 0 1 0 299.87 150 149.87 149.87 0 0 0 150 .13z"/></svg>