<svg xmlns="http://www.w3.org/2000/svg" width="33.12" height="27.469" viewBox="0 0 33.12 27.469">
  <metadata><?xpacket begin="﻿" id="W5M0MpCehiHzreSzNTczkc9d"?>
<x:xmpmeta xmlns:x="adobe:ns:meta/" x:xmptk="Adobe XMP Core 5.6-c138 79.159824, 2016/09/14-01:09:01        ">
   <rdf:RDF xmlns:rdf="http://www.w3.org/1999/02/22-rdf-syntax-ns#">
      <rdf:Description rdf:about=""/>
   </rdf:RDF>
</x:xmpmeta>
                                                                                                    
                                                                                                    
                                                                                                    
                                                                                                    
                                                                                                    
                                                                                                    
                                                                                                    
                                                                                                    
                                                                                                    
                                                                                                    
                                                                                                    
                                                                                                    
                                                                                                    
                                                                                                    
                                                                                                    
                                                                                                    
                                                                                                    
                                                                                                    
                                                                                                    
                                                                                                    
                           
<?xpacket end="w"?></metadata>
<defs>
    <style>
      .cls-1 {
        fill: #00395e;
        fill-rule: evenodd;
      }
    </style>
  </defs>
  <path id="Пиктограмма_-_Корзина_-_Маленькая" data-name="Пиктограмма - Корзина - Маленькая" class="cls-1" d="M1719.07,861.347a1.465,1.465,0,0,0-1.56-1.56h-14.04l-6.87-8.765s-0.37.286-.82,0.638-0.3,1.3.34,2.119l4.62,6.008h-12.87a1.831,1.831,0,0,0-1.95,1.56v1.559h33.15v-1.559Zm-7.02,17.16a4.005,4.005,0,0,0,3.9-3.9l1.95-10.139h-26.91a4.008,4.008,0,0,0-3.9,3.9l1.95,10.14h23.01Zm-2.98-9.912a1.8,1.8,0,0,1,1.69-1.881h1.68v6.891a1.786,1.786,0,0,1-1.68,1.878h-1.69V868.6Zm-5.87,0a1.8,1.8,0,0,1,1.69-1.881h1.68v6.891a1.786,1.786,0,0,1-1.68,1.878h-1.69V868.6Zm-5.87,0a1.8,1.8,0,0,1,1.69-1.881h1.68v6.891a1.793,1.793,0,0,1-1.68,1.878h-1.69V868.6Zm-5.87,0a1.788,1.788,0,0,1,1.68-1.881h1.69v6.891a1.794,1.794,0,0,1-1.69,1.878h-1.68V868.6Z" transform="translate(-1685.94 -851.031)"/>
</svg>
