<svg xmlns="http://www.w3.org/2000/svg" width="13" height="13" viewBox="0 0 13 13">
  <metadata><?xpacket begin="﻿" id="W5M0MpCehiHzreSzNTczkc9d"?>
<x:xmpmeta xmlns:x="adobe:ns:meta/" x:xmptk="Adobe XMP Core 5.6-c138 79.159824, 2016/09/14-01:09:01        ">
   <rdf:RDF xmlns:rdf="http://www.w3.org/1999/02/22-rdf-syntax-ns#">
      <rdf:Description rdf:about=""/>
   </rdf:RDF>
</x:xmpmeta>
                                                                                                    
                                                                                                    
                                                                                                    
                                                                                                    
                                                                                                    
                                                                                                    
                                                                                                    
                                                                                                    
                                                                                                    
                                                                                                    
                                                                                                    
                                                                                                    
                                                                                                    
                                                                                                    
                                                                                                    
                                                                                                    
                                                                                                    
                                                                                                    
                                                                                                    
                                                                                                    
                           
<?xpacket end="w"?></metadata>
<defs>
    <style>
      .cls-1 {
        fill: #fff;
        fill-rule: evenodd;
      }
    </style>
  </defs>
  <path id="Settings_2" data-name="Settings 2" class="cls-1" d="M1448,475h6a0.625,0.625,0,1,1,0,1h-6v-1Zm-6,1v-1a1,1,0,0,1,1-1h3a1,1,0,0,1,1,1v1a1,1,0,0,1-1,1h-3A1,1,0,0,1,1442,476Zm6,4h6a0.625,0.625,0,1,1,0,1h-6v-1Zm-6,1v-1a1,1,0,0,1,1-1h3a1,1,0,0,1,1,1v1a1,1,0,0,1-1,1h-3A1,1,0,0,1,1442,481Zm6,4h6a0.625,0.625,0,1,1,0,1h-6v-1Zm-6,1v-1a1,1,0,0,1,1-1h3a1,1,0,0,1,1,1v1a1,1,0,0,1-1,1h-3A1,1,0,0,1,1442,486Z" transform="translate(-1442 -474)"/>
</svg>
