<?xml version="1.0" encoding="UTF-8"?>
<svg width="62px" height="62px" viewBox="0 0 62 62" version="1.1" xmlns="http://www.w3.org/2000/svg" xmlns:xlink="http://www.w3.org/1999/xlink">
    <!-- Generator: Sketch 48.2 (47327) - http://www.bohemiancoding.com/sketch -->
    <title>chairs</title>
    <desc>Created with Sketch.</desc>
    <defs></defs>
    <g id="icons" stroke="none" stroke-width="1" fill="none" fill-rule="evenodd">
        <g id="chairs" transform="translate(1.000000, 1.000000)">
            <circle id="Oval-6" stroke="#64D2CA" fill="#FFFFFF" cx="30" cy="30" r="30"></circle>
            <path d="M25.4000145,30.120569 L18.9039037,30.120569 L18.9039037,18.9878163 C18.9039037,17.3403288 17.5545664,16 15.8959803,16 C15.4019364,16 15,16.3995877 15,16.8906664 L15,32.4092151 C15,32.956213 15.2795134,33.439499 15.7040052,33.7255888 L15.7040052,35.0654847 C15.7040052,35.4910478 16.0060015,35.8473432 16.4080104,35.93501 L16.4080104,43.4588466 C16.4080104,43.7577076 16.6514786,44 16.9519518,44 C17.2524251,44 17.4958932,43.7577076 17.4958932,43.4588466 L17.4958932,39.4512807 L24.1520679,39.4512807 L24.1520679,43.4588466 C24.1520679,43.7577076 24.3955361,44 24.6960093,44 C24.9964825,44 25.2399507,43.7577076 25.2399507,43.4588466 L25.2399507,35.9351544 C25.6419596,35.8474875 25.9439559,35.4911199 25.9439559,35.065629 L25.9439559,33.9042416 C26.5591899,33.6825852 27,33.0961192 27,32.4092872 L27,31.7102613 C27,30.8335927 26.2822875,30.120569 25.4000145,30.120569 Z M24.1520679,38.3691903 L17.4958932,38.3691903 L17.4958932,35.9562954 L24.1520679,35.9562954 L24.1520679,38.3691903 Z M24.8560731,34.8739164 L16.791888,34.8739164 L16.791888,33.9989795 L24.8560731,33.9989795 L24.8560731,34.8739164 Z M25.9121172,32.4092151 C25.9121172,32.6889553 25.6824289,32.9166005 25.4000145,32.9166005 L16.5999855,32.9166005 C16.3175711,32.9166005 16.0878828,32.6889553 16.0878828,32.4092151 L16.0878828,17.0916869 C17.0568237,17.1875792 17.8160209,18.0012575 17.8160209,18.9877442 L17.8160209,30.6616503 C17.8160209,30.9605113 18.0594891,31.2028037 18.3599623,31.2028037 L25.4000145,31.2028037 C25.6824289,31.2028037 25.9121172,31.4304489 25.9121172,31.7101891 L25.9121172,32.4092151 Z" id="Shape" fill="#64D2CA" fill-rule="nonzero"></path>
            <path d="M43.1040923,16 C41.4455061,16 40.0960963,17.3403219 40.0960963,18.9878009 L40.0960963,30.1204962 L33.5999855,30.1204962 C32.7177851,30.1204962 32,30.8336606 32,31.7101803 L32,32.4092027 C32,33.0961032 32.4408101,33.682494 33.0560441,33.9041493 L33.0560441,35.0655308 C33.0560441,35.4910916 33.3580404,35.8473852 33.7600493,35.9350516 L33.7600493,43.4588494 C33.7600493,43.7577088 34.0035175,44 34.3039907,44 C34.6044639,44 34.8479321,43.7577088 34.8479321,43.4588494 L34.8479321,39.4513042 L41.5041068,39.4513042 L41.5041068,43.4588494 C41.5041068,43.7577088 41.7475749,44 42.0480482,44 C42.3485214,44 42.5919896,43.7577088 42.5919896,43.4588494 L42.5919896,35.9350516 C42.9939985,35.8473852 43.2959948,35.4910195 43.2959948,35.0655308 L43.2959948,33.7256418 C43.7204866,33.4394813 44,32.9561977 44,32.4092748 L44,16.8906618 C44.0000725,16.3995856 43.5981361,16 43.1040923,16 Z M41.5041793,38.369075 L34.8480046,38.369075 L34.8480046,35.9561926 L41.5041793,35.9561926 L41.5041793,38.369075 Z M42.2081845,34.8738191 L34.1439994,34.8738191 L34.1439994,33.9988868 L42.2081845,33.9988868 L42.2081845,34.8738191 Z M42.9121897,32.4092748 C42.9121897,32.6890136 42.6825014,32.9166576 42.400087,32.9166576 L33.600058,32.9166576 C33.3176436,32.9166576 33.0879553,32.6890136 33.0879553,32.4092748 L33.0879553,31.7101803 C33.0879553,31.4304415 33.3176436,31.2027975 33.600058,31.2027975 L40.6401102,31.2027975 C40.9405835,31.2027975 41.1840516,30.9605063 41.1840516,30.6616469 L41.1840516,18.9878009 C41.1840516,18.0013915 41.9432488,17.1876453 42.9121897,17.0917534 L42.9121897,32.4092748 Z" id="Shape" fill="#64D2CA" fill-rule="nonzero" transform="translate(38.000000, 30.000000) scale(-1, 1) translate(-38.000000, -30.000000) "></path>
        </g>
    </g>
</svg>