<?xml version="1.0" encoding="UTF-8"?>
<svg width="62px" height="62px" viewBox="0 0 62 62" version="1.1" xmlns="http://www.w3.org/2000/svg" xmlns:xlink="http://www.w3.org/1999/xlink">
    <!-- Generator: Sketch 48.2 (47327) - http://www.bohemiancoding.com/sketch -->
    <title>event</title>
    <desc>Created with Sketch.</desc>
    <defs></defs>
    <g id="icons" stroke="none" stroke-width="1" fill="none" fill-rule="evenodd">
        <g id="event" transform="translate(1.000000, 1.000000)">
            <circle id="Oval" stroke="#64D2CA" fill="#FFFFFF" cx="30" cy="30" r="30"></circle>
            <g id="002-event" transform="translate(15.000000, 14.000000)"></g>
            <path d="M45.2499785,33.6087031 L45.2499785,19.4999785 C45.2499785,17.983332 44.015959,16.749957 42.499957,16.749957 L38.374957,16.749957 L38.374957,14.687457 C38.3750215,14.3075059 38.0675156,14 37.6875,14 C37.3074844,14 36.9999785,14.3075059 36.9999785,14.6875215 L36.9999785,16.7500215 L24.6249785,16.7500215 L24.6249785,14.6875215 C24.6249785,14.3075059 24.3175371,14 23.9375215,14 C23.5575059,14 23.25,14.3075059 23.25,14.6875215 L23.25,16.7500215 L17.7500215,16.7500215 C16.2340195,16.7500215 15,17.983332 15,19.4999785 L15,41.499957 C15,43.0166035 16.2340195,44.2499785 17.7500215,44.2499785 L34.6085742,44.2499785 C35.9970234,45.9285312 38.0945859,47 40.4375215,47 C44.6068008,47 48,43.6075098 48,39.4375215 C48,37.0943926 46.9284023,34.9968945 45.2499785,33.6087031 Z M16.3749785,19.4999785 C16.3749785,18.7420098 16.9913437,18.125 17.7500215,18.125 L23.25,18.125 L23.25,19.4999785 C22.4913223,19.4999785 21.8750215,20.1169883 21.8750215,20.874957 C21.8750215,21.6329258 22.4913867,22.2499355 23.25,22.2499355 C24.0086133,22.2499355 24.6249785,21.6329258 24.6249785,20.874957 L24.6249785,18.125 L36.9999785,18.125 L36.9999785,19.4999785 C36.2413008,19.4999785 35.625,20.1169883 35.625,20.874957 C35.625,21.6329258 36.2413652,22.2499355 36.9999785,22.2499355 C37.7586562,22.2499355 38.374957,21.6329258 38.374957,20.874957 L38.374957,18.125 L42.499957,18.125 C43.2586992,18.125 43.875,18.7420098 43.875,19.4999785 L43.875,23.6249785 L16.3749785,23.6249785 L16.3749785,19.4999785 Z M17.7500215,42.875 C16.9913437,42.875 16.375043,42.2579902 16.375043,41.5000215 L16.375043,25.0000215 L43.875,25.0000215 L43.875,32.7099687 C42.8422676,32.1799707 41.6757949,31.875043 40.4375215,31.875043 C36.2681777,31.875043 32.875043,35.2675332 32.875043,39.4375215 C32.875043,40.6757949 33.1800996,41.8422676 33.7099687,42.875 L17.7500215,42.875 Z M40.4375215,45.6250215 C37.025502,45.6250215 34.2500215,42.8494766 34.2500215,39.4375215 C34.2500215,36.0255664 37.0255664,33.2500215 40.4375215,33.2500215 C43.8494766,33.2500215 46.6250215,36.0255664 46.6250215,39.4375215 C46.6250215,42.8494766 43.8494766,45.6250215 40.4375215,45.6250215 Z" id="Shape" fill="#64D2CA" fill-rule="nonzero"></path>
            <path d="M41.1999606,39.7897455 L41.1999606,35.7272913 C41.1999606,35.3252936 40.9315965,35 40.5999522,35 C40.2683079,35 40,35.3252936 40,35.7272913 L40,40.0909029 C40,40.2840609 40.0632802,40.4687644 40.1757782,40.6051272 L41.9757473,42.786933 C42.092914,42.9289549 42.2464739,43 42.3999775,43 C42.5534811,43 42.7069847,42.9289549 42.8242077,42.786933 C43.0585974,42.502821 43.0585974,42.0425963 42.8242077,41.7585525 L41.1999606,39.7897455 Z" id="Shape" fill="#64D2CA" fill-rule="nonzero"></path>
        </g>
    </g>
</svg>