<?xml version="1.0" encoding="UTF-8"?>
<svg width="62px" height="62px" viewBox="0 0 62 62" version="1.1" xmlns="http://www.w3.org/2000/svg" xmlns:xlink="http://www.w3.org/1999/xlink">
    <!-- Generator: Sketch 48.2 (47327) - http://www.bohemiancoding.com/sketch -->
    <title>hourglass</title>
    <desc>Created with Sketch.</desc>
    <defs></defs>
    <g id="icons" stroke="none" stroke-width="1" fill="none" fill-rule="evenodd">
        <g id="hourglass" transform="translate(1.000000, 1.000000)">
            <g id="time" fill="#FFFFFF" stroke="#64D2CA">
                <circle id="Oval-2" cx="30" cy="30" r="30"></circle>
            </g>
            <g transform="translate(21.000000, 16.000000)" fill="#64D2CA" fill-rule="nonzero" id="XMLID_1208_">
                <path d="M2.34640393,25.5267902 L10.8647368,25.5267902 C11.2004004,25.5267902 11.472456,25.25506 11.472456,24.9197979 C11.472456,24.5845359 11.2004004,24.3128057 10.8647368,24.3128057 L2.95412316,24.3128057 L2.95412316,19.7099158 C2.95412316,17.1718788 5.02144891,15.107026 7.56252557,15.107026 L9.43747443,15.107026 C11.9786186,15.107026 14.0460119,17.1718788 14.0460119,19.7099158 L14.0460119,20.5095944 C14.0460119,20.8448565 14.3180675,21.1165867 14.6537311,21.1165867 C14.9893947,21.1165867 15.2614503,20.8448565 15.2614503,20.5095944 L15.2614503,19.7099833 C15.2614503,17.4308622 13.9422945,15.453686 12.0265609,14.5001012 C13.9422945,13.5465163 15.2614503,11.5693401 15.2614503,9.29021905 C15.2614503,9.29021905 15.2615179,7.65127247 15.2614503,7.64547233 L15.2614503,4.60754345 C16.2615536,4.33932031 17,3.42593183 17,2.34352972 C17,1.05131061 15.9474303,0 14.6537311,0 L2.34640393,0 C1.0525697,0 0,1.05137806 0,2.34366461 C0,3.42613416 0.738513908,4.33952264 1.7386847,4.60754345 L1.7386847,9.29015161 C1.7386847,11.5692727 3.05784057,13.5464489 4.97350662,14.5000337 C3.05784057,15.4536186 1.7386847,17.4307947 1.7386847,19.7099158 L1.7386847,24.392524 C0.738513908,24.6605448 0,25.5739333 0,26.6564028 C0,27.9486894 1.0525697,29 2.34640393,29 L10.8647368,29 C11.2004004,29 11.472456,28.7282698 11.472456,28.3930077 C11.472456,28.0577457 11.2004004,27.7860155 10.8647368,27.7860155 L2.34640393,27.7860155 C1.72281648,27.7860155 1.21543845,27.2792444 1.21543845,26.6563354 C1.21543845,26.0334939 1.72281648,25.5267902 2.34640393,25.5267902 Z M14,7.78241647 C11.2614008,8.07274749 5.74429124,8.07235976 3,7.78226138 L3,5 L14,5 L14,7.78241647 Z M1,1.99991045 C1,1.4485507 1.48755799,1 2.08678584,1 L13.9133439,1 C14.5125069,1 15,1.44861041 15,2.00002985 C15,2.55138959 14.5125069,3 13.9133439,3 L2.08678584,3 C1.48755799,3 1,2.55132989 1,1.99991045 Z M3,9.03921497 L3,8 C5.83723861,8.26807196 11.1679847,8.26836271 14,8.00014538 L14,9.03921497 C14,11.7745957 11.9497337,14 9.42964113,14 L7.57022494,14 C5.05019937,14 3,11.7745957 3,9.03921497 Z M9,16.5502474 C9,16.7986607 8.77616667,17 8.5,17 C8.22383333,17 8,16.7986607 8,16.5502474 L8,16.4497526 C8,16.2013393 8.22383333,16 8.5,16 C8.77616667,16 9,16.2013393 9,16.4497526 L9,16.5502474 Z M8,12.3481501 C8,11.9881116 8.28379648,11.6963002 8.63394598,11.6963002 C9.49653514,11.6963002 10.3150298,11.1798177 10.8233841,10.3148853 C11.0044813,10.0067052 11.3941468,9.90784125 11.6938623,10.094053 C11.9935075,10.2802648 12.0895855,10.6810077 11.9085587,10.9891154 C11.1685324,12.2482722 9.94438276,13 8.63394598,13 C8.28379648,13 8,12.7081885 8,12.3481501 Z M9,19.4497302 L9,19.5502698 C9,19.7986708 8.77616667,20 8.5,20 C8.22383333,20 8,19.7986708 8,19.5502698 L8,19.4497302 C8,19.2013292 8.22383333,19 8.5,19 C8.77616667,19 9,19.2013792 9,19.4497302 Z M15,26.5 C15,26.7761667 14.7983483,27 14.5495495,27 L14.4504505,27 C14.2016517,27 14,26.7761667 14,26.5 C14,26.2238333 14.2016517,26 14.4504505,26 L14.5495495,26 C14.7983483,26 15,26.2238889 15,26.5 Z M17,24.5 C17,24.7761667 16.7983483,25 16.5495495,25 L16.4504505,25 C16.2016517,25 16,24.7761667 16,24.5 C16,24.2238333 16.2016517,24 16.4504505,24 L16.5495495,24 C16.7982983,24 17,24.2238333 17,24.5 Z M18.7398139,22 L13.2600539,22 C12.5652325,22 12,22.5652465 12,23.260019 L12,28.7400471 C12,29.4347535 12.5652325,30 13.2600539,30 L18.7398139,30 C19.4347014,30 20,29.4347535 20,28.7400471 L20,23.260019 C20,22.5652465 19.4347014,22 18.7398139,22 Z M19,28.9254544 C19,28.965198 18.965058,29 18.9251747,29 L13.0746841,29 C13.034942,29 13,28.965198 13,28.9254544 L13,23.0746162 C13,23.0348726 13.0348714,23 13.0746841,23 L18.9251747,23 C18.9649874,23 19,23.0348726 19,23.0746162 L19,28.9254544 Z M17,26.5 C17,26.7761667 16.7983584,27 16.5495721,27 L16.4504279,27 C16.2016416,27 16,26.7761667 16,26.5 C16,26.2238333 16.2016416,26 16.4504279,26 L16.5495721,26 C16.7983084,26 17,26.2238889 17,26.5 Z M11,17.4497302 L11,17.5502698 C11,17.7986708 10.7761667,18 10.5,18 C10.2238333,18 10,17.7986708 10,17.5502698 L10,17.4497302 C10,17.2013292 10.2238333,17 10.5,17 C10.7761667,17 11,17.2013792 11,17.4497302 Z M15,24.5 C15,24.7761667 14.7983685,25 14.5495946,25 L14.4504054,25 C14.2016315,25 14,24.7761667 14,24.5 C14,24.2238333 14.2016315,24 14.4504054,24 L14.5495946,24 C14.7983685,24 15,24.2238333 15,24.5 Z M5.5,17 C5.77616667,17 6,17.2013292 6,17.4497302 L6,17.5502698 C6,17.7986708 5.77616667,18 5.5,18 C5.22383333,18 5,17.7986708 5,17.5502698 L5,17.4497302 C5,17.2013792 5.22383333,17 5.5,17 Z"></path>
            </g>
        </g>
    </g>
</svg>