<?xml version="1.0" encoding="UTF-8"?>
<svg width="62px" height="62px" viewBox="0 0 62 62" version="1.1" xmlns="http://www.w3.org/2000/svg" xmlns:xlink="http://www.w3.org/1999/xlink">
    <!-- Generator: Sketch 49.1 (51147) - http://www.bohemiancoding.com/sketch -->
    <title>humidity</title>
    <desc>Created with Sketch.</desc>
    <defs></defs>
    <g id="icons" stroke="none" stroke-width="1" fill="none" fill-rule="evenodd">
        <g id="text" transform="translate(-388.000000, -525.000000)">
            <g id="humidity" transform="translate(389.000000, 526.000000)">
                <circle id="Oval-2" stroke="#64D2CA" fill="#FFFFFF" cx="30" cy="30" r="30"></circle>
                <g id="icon" transform="translate(17.000000, 13.000000)" fill="#64D2CA" fill-rule="nonzero">
                    <path d="M19.0168333,7.49275 C17.2445,5.27425 15.4115,2.9835 13.9338333,0.52275 C13.7388333,0.19975 13.3835,0 13,0 C12.6165,0 12.2611667,0.19975 12.0683333,0.52275 C10.5906667,2.981375 8.75766667,5.27425 6.98533333,7.490625 C3.393,11.982875 0,16.2265 0,21.25 C0,28.281625 5.8305,34 13,34 C20.1695,34 26,28.281625 26,21.25 C26,16.228625 22.6091667,11.985 19.0168333,7.49275 Z M13,31.875 C7.0265,31.875 2.16666667,27.108625 2.16666667,21.25 C2.16666667,16.959625 5.33433333,12.998625 8.6905,8.80175 C10.1551667,6.97 11.6588333,5.089375 13,3.074875 C14.3411667,5.089375 15.8448333,6.972125 17.3095,8.803875 C20.6656667,12.998625 23.8333333,16.96175 23.8333333,21.25 C23.8333333,27.108625 18.9735,31.875 13,31.875 Z" id="Shape"></path>
                    <path d="M9,13 C7.346,13 6,14.346 6,16 C6,17.654 7.346,19 9,19 C10.654,19 12,17.654 12,16 C12,14.346 10.654,13 9,13 Z M9,17 C8.448,17 8,16.552 8,16 C8,15.448 8.448,15 9,15 C9.552,15 10,15.448 10,16 C10,16.552 9.552,17 9,17 Z" id="Shape"></path>
                    <path d="M16,24 C14.346,24 13,25.346 13,27 C13,28.654 14.346,30 16,30 C17.654,30 19,28.654 19,27 C19,25.346 17.654,24 16,24 Z M16,28 C15.45,28 15,27.55 15,27 C15,26.45 15.45,26 16,26 C16.55,26 17,26.45 17,27 C17,27.55 16.55,28 16,28 Z" id="Shape"></path>
                    <path d="M18.6830986,15.3169146 C18.2605634,14.8943618 17.5736728,14.8943618 17.1511376,15.3169146 L6.31690141,26.1516023 C5.8943662,26.5741551 5.8943662,27.2610743 6.31690141,27.6836271 C6.52925244,27.8938201 6.80660888,28 7.08396533,28 C7.36132178,28 7.63867822,27.8938201 7.84886241,27.6836271 L18.6830986,16.8489395 C19.1056338,16.4263866 19.1056338,15.7394674 18.6830986,15.3169146 Z" id="Shape"></path>
                </g>
            </g>
        </g>
    </g>
</svg>