<?xml version="1.0" encoding="UTF-8"?>
<svg width="80px" height="80px" viewBox="0 0 80 80" version="1.1" xmlns="http://www.w3.org/2000/svg" xmlns:xlink="http://www.w3.org/1999/xlink">
    <!-- Generator: Sketch 49.3 (51167) - http://www.bohemiancoding.com/sketch -->
    <title>icon-1</title>
    <desc>Created with Sketch.</desc>
    <defs></defs>
    <g id="icons" stroke="none" stroke-width="1" fill="none" fill-rule="evenodd">
        <g id="text" transform="translate(-699.000000, -520.000000)">
            <g id="icon-1" transform="translate(699.000000, 520.000000)">
                <circle id="background" fill="#B8F9F5" cx="40" cy="40" r="40"></circle>
                <g id="icon" transform="translate(16.000000, 16.000000)" fill="#07485F" fill-rule="nonzero">
                    <path d="M1.80943968,17.0787492 L1.98087714,17.1924992 C2.33360363,17.4266007 2.72106448,17.6037257 3.1289394,17.7173741 C2.68704105,18.2830771 2.44400204,18.9787801 2.43750204,19.6966237 L2.43750204,20.3124986 C2.43750204,22.1074123 3.89258768,23.5624979 5.68750136,23.5624979 L6.30337623,23.5624979 C7.02121983,23.5559979 7.71692281,23.3129589 8.28262582,22.8710606 C8.39637579,23.2791386 8.57350075,23.6668026 8.80750071,24.0199353 L8.92125068,24.1905603 C9.67372709,25.3221695 10.9430549,26.0015209 12.3020625,25.9999974 L13.6979372,25.9999974 C15.0569447,26.0015209 16.3262726,25.3221695 17.078749,24.1905603 L17.1924989,24.0199353 C17.4264989,23.6668026 17.6036239,23.2791386 17.7173738,22.8710606 C18.2830768,23.3129589 18.9787798,23.5559979 19.6966234,23.5624979 L20.3124983,23.5624979 C22.107412,23.5624979 23.5624976,22.1074123 23.5624976,20.3124986 L23.5624976,19.6966237 C23.5559976,18.9787801 23.3129586,18.2830771 22.8710602,17.7173741 C23.2791383,17.6036241 23.6668023,17.4264991 24.019935,17.1924992 L24.19056,17.0787492 C25.3221691,16.3262728 26.0015205,15.0569449 25.9999971,13.6979374 L25.9999971,12.3020626 C26.0016221,10.9430551 25.3221691,9.67372722 24.19056,8.9212508 L24.019935,8.80750082 C23.6668023,8.57350087 23.2791383,8.39637591 22.8710602,8.28262593 C23.3129586,7.71692291 23.5559976,7.02121993 23.5624976,6.30337632 L23.5624976,5.68750144 C23.5624976,3.89258773 22.107412,2.43750208 20.3124983,2.43750208 L19.6966234,2.43750208 C18.9787798,2.44400208 18.2830768,2.68704109 17.7173738,3.12893944 C17.6037254,2.72106452 17.4266005,2.33360366 17.1924989,1.98087717 L17.078749,1.8094397 C16.3262726,0.677830548 15.0569447,-0.0015208804 13.6979372,2.55680416e-06 L12.3020625,2.55680416e-06 C10.9430549,-0.0015208804 9.67372709,0.677830548 8.92125068,1.8094397 L8.80750071,1.98087717 C8.57339919,2.33360366 8.39627423,2.72106452 8.28262582,3.12893944 C7.71692281,2.68704109 7.02121983,2.44400208 6.30337623,2.43750208 L5.68750136,2.43750208 C3.89258768,2.43750208 2.43750204,3.89258773 2.43750204,5.68750144 L2.43750204,6.30337632 C2.44400204,7.02121993 2.68704105,7.71692291 3.1289394,8.28262593 C2.72106448,8.39627434 2.33360363,8.57339931 1.98087714,8.80750082 L1.80943968,8.9212508 C0.677830539,9.67372722 -0.00152088038,10.9430551 2.55680412e-06,12.3020626 L2.55680412e-06,13.6979374 C-0.00152088038,15.0569449 0.677830539,16.3262728 1.80943968,17.0787492 Z M8.70431323,18.3096865 C8.32528206,18.941202 8.12500085,19.663819 8.12500085,20.4002485 L8.12500085,20.7886235 L7.45225099,21.4613733 C7.14685262,21.7650452 6.7341027,21.9360764 6.30337623,21.9374982 L5.68750136,21.9374982 C4.78999374,21.9374982 4.0625017,21.2100062 4.0625017,20.3124986 L4.0625017,19.6966237 C4.06392358,19.2659988 4.23495479,18.8531473 4.5386266,18.5477489 L5.21137646,17.874999 L5.59975138,17.874999 C6.33628247,17.874999 7.05889951,17.6747178 7.69031344,17.2956867 L10.2253129,15.774687 L8.70431323,18.3096865 Z M16.2499991,21.7660608 C16.2517257,22.2470607 16.1102492,22.7177012 15.8437492,23.1180605 L15.7291868,23.289498 C15.2773353,23.9694588 14.5142964,24.3772321 13.6979372,24.3749978 L12.3020625,24.3749978 C11.4857033,24.3772321 10.7226644,23.9694588 10.2708129,23.289498 L10.1562504,23.1180605 C9.88975048,22.7177012 9.74827395,22.2470607 9.75000051,21.7660608 L9.75000051,20.4002485 C9.75000051,19.9582486 9.87025048,19.5246784 10.0977504,19.1457488 L11.948625,16.0582494 C12.029875,16.0850619 12.10625,16.1110619 12.1875,16.1321869 L12.1875,17.874999 L13.8124997,17.874999 L13.8124997,16.1346244 C13.8937496,16.1134994 13.9749996,16.0874994 14.0513746,16.0606869 L15.9022492,19.1481863 C16.1293429,19.526405 16.2494913,19.9590611 16.2499991,20.4002485 L16.2499991,21.7660608 Z M11.3750002,13 C11.3750002,12.1024924 12.1024922,11.3750003 12.9999998,11.3750003 C13.8975074,11.3750003 14.6249995,12.1024924 14.6249995,13 C14.6249995,13.8975076 13.8975074,14.6249997 12.9999998,14.6249997 C12.1024922,14.6249997 11.3750002,13.8975076 11.3750002,13 Z M21.9374979,20.3124986 C21.9374979,21.2100062 21.2100059,21.9374982 20.3124983,21.9374982 L19.6966234,21.9374982 C19.2658969,21.9360764 18.853147,21.7650452 18.5477487,21.4613733 L17.8749988,20.7886235 L17.8749988,20.4002485 C17.8749988,19.6637174 17.6747176,18.9411004 17.2956864,18.3096865 L15.7746867,15.774687 L18.3096862,17.2956867 C18.9411001,17.6747178 19.6637172,17.874999 20.4002483,17.874999 L20.7886232,17.874999 L21.461373,18.5477489 C21.7650449,18.8531473 21.9360761,19.2659988 21.9374979,19.6966237 L21.9374979,20.3124986 Z M23.1180602,10.1562506 L23.2894977,10.274063 C23.9684428,10.7253051 24.3761146,11.4868206 24.3749974,12.3020626 L24.3749974,13.6979374 C24.3772318,14.5142966 23.9694585,15.2773355 23.2894977,15.729187 L23.1180602,15.8437494 C22.7177009,16.1102494 22.2470604,16.2517259 21.7660605,16.2499994 L20.4002483,16.2499994 C19.9582484,16.2499994 19.5246781,16.1297494 19.1457485,15.9022494 L16.0582492,14.0513748 C16.0850617,13.9701248 16.1110617,13.8937498 16.1321867,13.8124998 L17.8749988,13.8124998 L17.8749988,12.1875002 L16.1346242,12.1875002 C16.1134992,12.1062502 16.0874992,12.0250002 16.0606867,11.9486252 L19.148186,10.0977506 C19.5264047,9.87065687 19.9591624,9.75050845 20.4002483,9.75000064 L21.7660605,9.75000064 C22.2470604,9.74827408 22.7177009,9.88975061 23.1180602,10.1562506 Z M17.2956864,7.69031354 C17.6747176,7.05889961 17.8749988,6.33628256 17.8749988,5.59975146 L17.8749988,5.21137653 L18.5477487,4.53862666 C18.853147,4.23495485 19.2658969,4.06392363 19.6966234,4.06250176 L20.3124983,4.06250176 C21.2100059,4.06250176 21.9374979,4.7899938 21.9374979,5.68750144 L21.9374979,6.30337632 C21.9360761,6.73400123 21.7650449,7.14685271 21.461373,7.45225109 L20.7886232,8.12500096 L20.4002483,8.12500096 C19.6637172,8.12500096 18.9411001,8.32528217 18.3096862,8.70431334 L15.7746867,10.225313 L17.2956864,7.69031354 Z M9.75000051,4.23393922 C9.74827395,3.75293932 9.88975048,3.28229879 10.1562504,2.88193949 L10.2708129,2.71050202 C10.7226644,2.03054122 11.4857033,1.62276786 12.3020625,1.62500224 L13.6979372,1.62500224 C14.5142964,1.62276786 15.2773353,2.03054122 15.7291868,2.71050202 L15.8437492,2.88193949 C16.1102492,3.28229879 16.2517257,3.75293932 16.2499991,4.23393922 L16.2499991,5.59975146 C16.2499991,6.04175137 16.1297492,6.4753216 15.9022492,6.85425121 L14.0513746,9.9417506 C13.9701246,9.91493811 13.8937496,9.88893811 13.8124997,9.86781312 L13.8124997,8.12500096 L12.1875,8.12500096 L12.1875,9.86537562 C12.10625,9.88650061 12.025,9.91250061 11.948625,9.9393131 L10.0977504,6.85181371 C9.87065673,6.47359503 9.75050832,6.04093887 9.75000051,5.59975146 L9.75000051,4.23393922 Z M4.0625017,5.68750144 C4.0625017,4.7899938 4.78999374,4.06250176 5.68750136,4.06250176 L6.30337623,4.06250176 C6.73400114,4.06392363 7.14685262,4.23495485 7.45225099,4.53862666 L8.12500085,5.21137653 L8.12500085,5.59975146 C8.12500085,6.33628256 8.32528206,7.05889961 8.70431323,7.69031354 L10.2253129,10.225313 L7.69031344,8.70431334 C7.05889951,8.32528217 6.33628247,8.12500096 5.59975138,8.12500096 L5.21137646,8.12500096 L4.5386266,7.45225109 C4.23495479,7.14685271 4.06392358,6.73410279 4.0625017,6.30337632 L4.0625017,5.68750144 Z M1.62500222,12.3020626 C1.62276784,11.4857034 2.03054119,10.7226645 2.71050199,10.270813 L2.88193945,10.1562506 C3.28229874,9.88975061 3.75293927,9.74827408 4.23393917,9.75000064 L5.59975138,9.75000064 C6.04175129,9.75000064 6.47532151,9.87025062 6.85425112,10.0977506 L9.94175047,11.9486252 C9.91493797,12.0298752 9.88893798,12.1062502 9.86781298,12.1875002 L8.12500085,12.1875002 L8.12500085,13.8124998 L9.86537548,13.8124998 C9.88650048,13.8937498 9.91250047,13.9749998 9.93931297,14.0513748 L6.85181362,15.9022494 C6.47359495,16.1293431 6.04083722,16.2494915 5.59975138,16.2499994 L4.23393917,16.2499994 C3.75293927,16.2517259 3.28229874,16.1102494 2.88193945,15.8437494 L2.71050199,15.729187 C2.03054119,15.2773355 1.62276784,14.5142966 1.62500222,13.6979374 L1.62500222,12.3020626 Z" id="Shape"></path>
                    <path d="M45.6777045,27.0000041 L2.32158859,27.0000041 C1.04180896,26.9976603 0.00242350151,28.0007852 4.07540083e-06,29.2404412 C-0.00183468844,30.1942535 0.61869972,31.0451283 1.54737224,31.3620032 L1.54737224,38.2500019 C1.55375952,43.6321884 6.05621474,47.9938125 11.6121849,48 L36.3871082,48 C41.9430783,47.9938125 46.4455336,43.6321884 46.4519208,38.2500019 L46.4519208,31.3620032 C47.6590209,30.9501596 48.2929106,29.6683161 47.867769,28.4989726 C47.5405658,27.5993477 46.6623141,26.9982228 45.6777045,27.0000041 Z M44.9034881,38.2500019 C44.8979718,42.8040948 41.0882467,46.4946565 36.3871082,46.5000003 L11.6121849,46.5000003 C6.91104637,46.4946565 3.10132124,42.8040948 3.09580495,38.2500019 L3.09580495,31.5000032 L41.8066227,31.5000032 L41.8066227,37.500002 C41.8027516,40.8121889 39.0320248,43.4962509 35.6128919,43.5000009 L28.6449447,43.5000009 L28.6449447,45.0000006 L35.6128919,45.0000006 C39.8868565,44.9954068 43.3504101,41.6402825 43.3550554,37.500002 L43.3550554,31.5000032 L44.9034881,31.5000032 L44.9034881,38.2500019 Z M45.6777045,30.0000035 L2.32158859,30.0000035 C1.89402761,30.0000035 1.54737224,29.6641911 1.54737224,29.2500037 C1.54737224,28.8358162 1.89402761,28.5000038 2.32158859,28.5000038 L45.6777045,28.5000038 C46.1052655,28.5000038 46.4519208,28.8358162 46.4519208,29.2500037 C46.4519208,29.6641911 46.1052655,30.0000035 45.6777045,30.0000035 Z" id="Shape"></path>
                    <path d="M47.9999913,3.04877292 L47.9999913,2.19231204 C47.9999913,0.981519714 47.0184776,6.05339753e-06 45.8076853,6.05339753e-06 L44.9512244,6.05339753e-06 C44.3695326,-0.00136413785 43.8114994,0.229924144 43.4012641,0.642351708 L42.8846107,1.15900515 L41.9397268,0.214121272 C41.6543616,-0.0711525452 41.191785,-0.0711525452 40.9064199,0.214121272 L37.9833452,3.13719592 C37.6980714,3.42256109 37.6980714,3.88513765 37.9833452,4.17050281 L38.9282291,5.11538669 L29.6423517,14.4012641 C29.2299241,14.8114994 28.9986359,15.3695326 29.0000061,15.9512244 L29.0000061,16.8076853 C29.0000061,18.0184776 29.9815197,18.9999913 31.192312,18.9999913 L32.0487729,18.9999913 C32.6305561,19.0016355 33.1886807,18.7703472 33.5987333,18.3576456 L42.8846107,9.07176824 L43.8294945,10.0166521 C44.1148597,10.3019259 44.5774363,10.3019259 44.8628014,10.0166521 L47.7858761,7.09357747 C48.0711499,6.8082123 48.0711499,6.34563574 47.7858761,6.06027058 L46.8409922,5.11538669 L47.3576456,4.59873325 C47.7703472,4.18868068 48.0016355,3.63055612 47.9999913,3.04877292 Z M32.5654264,17.3243387 C32.4284072,17.4613579 32.2426093,17.538454 32.0487729,17.538454 L31.192312,17.538454 C30.788745,17.538454 30.4615434,17.2112523 30.4615434,16.8076853 L30.4615434,15.9512244 C30.4615434,15.757388 30.5386395,15.5715901 30.6756586,15.434571 L39.961536,6.14869358 L41.8513038,8.03846135 L32.5654264,17.3243387 Z M44.346148,8.46669178 L39.5333056,3.65384937 L41.4230733,1.76408161 L42.3679572,2.70896549 L45.2910319,5.63204014 L46.2359157,6.57692402 L44.346148,8.46669178 Z M46.538454,3.04877292 C46.538454,3.2426093 46.4613579,3.42840724 46.3243387,3.56542636 L45.8076853,4.08207981 L43.9179175,2.19231204 L44.434571,1.6756586 C44.5715901,1.53863947 44.757388,1.46154338 44.9512244,1.46154338 L45.8076853,1.46154338 C46.2112523,1.46154338 46.538454,1.78874505 46.538454,2.19231204 L46.538454,3.04877292 Z" id="Shape"></path>
                    <path d="M22,21.5 C22,22.8807292 23.1192708,24 24.5,24 C25.8807292,24 27,22.8807292 27,21.5 C27,20.1192708 25.8807292,19 24.5,19 C23.1192708,19 22,20.1192708 22,21.5 Z M24.5,20.6666667 C24.9602083,20.6666667 25.3333333,21.0397917 25.3333333,21.5 C25.3333333,21.9602083 24.9602083,22.3333333 24.5,22.3333333 C24.0397917,22.3333333 23.6666667,21.9602083 23.6666667,21.5 C23.6666667,21.0397917 24.0397917,20.6666667 24.5,20.6666667 Z" id="Shape"></path>
                </g>
            </g>
        </g>
    </g>
</svg>