<?xml version="1.0" encoding="UTF-8"?>
<svg width="80px" height="80px" viewBox="0 0 80 80" version="1.1" xmlns="http://www.w3.org/2000/svg" xmlns:xlink="http://www.w3.org/1999/xlink">
    <!-- Generator: Sketch 49.3 (51167) - http://www.bohemiancoding.com/sketch -->
    <title>icon-2</title>
    <desc>Created with Sketch.</desc>
    <defs></defs>
    <g id="icons" stroke="none" stroke-width="1" fill="none" fill-rule="evenodd">
        <g id="text" transform="translate(-800.000000, -520.000000)">
            <g id="icon-2" transform="translate(800.000000, 520.000000)">
                <circle id="background" fill="#B8F9F5" cx="40" cy="40" r="40"></circle>
                <g id="icon" transform="translate(18.000000, 19.000000)" fill="#07485F" fill-rule="nonzero">
                    <path d="M42.5634084,16.9922636 C40.5914065,16.2206384 38.3539748,17.1715203 37.5776369,19.1125074 L35.345215,24.2274395 L23.4368263,24.2274395 C23.1878322,24.2274395 22.9497365,24.3257162 22.7740431,24.5004304 L20.8990724,26.3640191 C20.7159962,26.5459839 20.6244142,26.7844688 20.6244142,27.0228662 C20.6244142,27.2612637 20.7159962,27.4996612 20.8990724,27.6817134 C21.0821486,27.8636782 21.3220021,27.9547043 21.5618556,27.9547043 C21.8017091,27.9547043 22.0415626,27.8636782 22.2246388,27.6817134 L23.8249513,26.0911156 L24.3742677,26.0911156 L24.3742677,29.8183804 L20.6244142,29.8183804 L20.6244142,27.0229536 L20.6244142,18.6366734 L27.1866798,18.6366734 C27.2379201,18.6366734 27.2892482,18.6321308 27.3404884,18.6239192 L38.5901369,16.7602432 C38.9545315,16.7001415 39.2511623,16.4317805 39.3426565,16.0759751 C39.4360842,15.7201697 39.3115432,15.3434859 39.0222073,15.1132127 C39.0222073,15.1132127 20.2563282,0.191486732 20.2453419,0.183362523 C20.1208009,0.0923364398 19.98167,0.0359037623 19.8370021,0.0123173491 C19.7381251,-0.00410578304 19.6355568,-0.00410578304 19.5366798,0.0123173491 C19.3920118,0.0359911194 19.252881,0.0924237969 19.12834,0.183362523 C19.1174415,0.191486732 0.351562502,15.1132127 0.351562502,15.1132127 C0.0622265629,15.3433986 -0.0622265629,15.7201697 0.0311132814,16.0759751 C0.122695313,16.4317805 0.419326174,16.7002288 0.783632817,16.7602432 L12.0332813,18.6238319 C12.0850489,18.6324802 12.1356739,18.6237445 12.1870899,18.6234824 L12.1870899,18.636586 L18.7493556,18.636586 L18.7493556,29.818293 L3.79933596,29.818293 C1.70463868,29.818293 0,31.4899582 0,33.5455578 C0,35.0230282 0.887607427,36.2908416 2.16070314,36.8934307 L0.186767579,39.5095134 C-0.122695313,39.9207906 -0.0384082033,40.5050348 0.375380862,40.8134926 C0.543867191,40.9391121 0.741621098,41 0.937529302,41 C1.22132813,41 1.50328126,40.8716724 1.68820313,40.6268979 L4.21910159,37.2727352 L18.7494435,37.2727352 L18.7494435,40.068162 C18.7494435,40.5832193 19.1687696,41 19.6868849,41 C20.205088,41 20.6243263,40.5832193 20.6243263,40.068162 L20.6243263,37.2727352 L35.1546682,37.2727352 L37.6855666,40.6268979 C37.8704885,40.8716724 38.1524416,41 38.4362405,41 C38.6321487,41 38.8299026,40.9390248 38.9983889,40.8134926 C39.412178,40.5050348 39.4964651,39.9207906 39.1870022,39.5095134 L37.3391897,37.0605449 C38.4147073,36.6972267 39.2976565,35.8814863 39.6832326,34.8058585 L44.7807131,21.7441396 C45.4655569,19.8313689 44.4969143,17.7466794 42.5634084,16.9922636 Z M26.2500294,26.0911156 L34.532842,26.0911156 L32.9059865,29.8183804 L26.2501173,29.8183804 L26.2501173,26.0911156 L26.2500294,26.0911156 Z M36.2127834,15.265214 L27.7496193,16.6674699 L22.1081837,4.04978715 L36.2127834,15.265214 Z M11.6253809,16.6674699 L3.16221681,15.265214 L17.2668165,4.04978715 L11.6253809,16.6674699 Z M13.6303419,16.7729973 L19.6875001,3.2262719 L25.7446584,16.7729973 L13.6303419,16.7729973 Z M43.0261526,21.0953385 L37.9284963,34.1560965 C37.6592873,34.9050088 36.9287404,35.4091465 36.110215,35.4091465 L3.79942385,35.4091465 C2.73744142,35.4091465 1.87497071,34.5728771 1.87497071,33.5455578 C1.87497071,32.5182385 2.73744142,31.6819691 3.79942385,31.6819691 L33.521133,31.6819691 C33.8946682,31.6819691 34.2333986,31.4617419 34.381758,31.1213987 L39.3054787,19.8414149 C39.3091701,19.8304953 39.3127737,19.8204492 39.3183108,19.8104905 C39.7101272,18.8168037 40.8527053,18.3308362 41.892803,18.7321547 C42.8668069,19.1116338 43.359346,20.1607924 43.0261526,21.0953385 Z" id="Shape"></path>
                </g>
            </g>
        </g>
    </g>
</svg>