<?xml version="1.0" encoding="UTF-8"?>
<svg width="80px" height="80px" viewBox="0 0 80 80" version="1.1" xmlns="http://www.w3.org/2000/svg" xmlns:xlink="http://www.w3.org/1999/xlink">
    <!-- Generator: Sketch 49.3 (51167) - http://www.bohemiancoding.com/sketch -->
    <title>icon-4</title>
    <desc>Created with Sketch.</desc>
    <defs></defs>
    <g id="icons" stroke="none" stroke-width="1" fill="none" fill-rule="evenodd">
        <g id="text" transform="translate(-1008.000000, -520.000000)">
            <g id="icon-4" transform="translate(1008.000000, 520.000000)">
                <circle id="background" fill="#B8F9F5" cx="40" cy="40" r="40"></circle>
                <g id="icon" transform="translate(16.000000, 16.000000)" fill="#07485F" fill-rule="nonzero">
                    <path d="M47.296875,31.4214077 L46.243125,31.4214077 C45.4906875,29.3811087 43.5094687,27.9975383 41.2463438,27.9975383 C40.1037187,27.9975383 39.0328125,28.3503829 38.1554062,28.9620715 C37.369125,28.4757476 36.440625,28.1981218 35.4549375,28.1981218 C34.5426563,28.1981218 33.679125,28.4359956 32.932125,28.8570387 C32.073,28.2456236 31.0320937,27.8737236 29.9161875,27.8235777 C30.201375,27.1732312 30.3915937,26.4752006 30.4710937,25.745806 C31.8316875,25.6965718 32.923125,24.6052152 32.923125,23.2699672 C32.923125,22.4018964 32.46075,21.6383115 31.764,21.1957513 C31.7668125,21.1634756 31.7691562,21.1310175 31.7691562,21.0980124 L31.7691562,19.2643144 C31.7691562,16.3691648 30.2675625,13.8068016 27.9767812,12.2592086 C28.258875,11.9243253 28.4284687,11.4968089 28.4284687,11.0311816 L28.4284687,9.94137491 C28.4284687,8.87089716 27.5329687,8 26.4323437,8 L19.363875,8 C18.26325,8 17.36775,8.87089716 17.36775,9.94137491 L17.36775,11.0311816 C17.36775,11.4967177 17.5374375,11.9243253 17.8194375,12.2592086 C15.5285625,13.8068016 14.0269687,16.3691648 14.0269687,19.2643144 L14.0269687,21.0980124 C14.0269687,21.1310175 14.0292187,21.1634756 14.0320312,21.1957513 C13.3352812,21.6384026 12.8729062,22.4019876 12.8729062,23.2699672 C12.8729062,24.6053063 13.9644375,25.6965718 15.325125,25.745806 C15.409125,26.5180525 15.6192187,27.254194 15.9328125,27.936725 C15.5581875,27.8592268 15.1711875,27.8172867 14.7754687,27.8172867 C13.9182187,27.8172867 13.1000625,28.0079322 12.3670312,28.3512947 C11.2636875,27.5446754 9.89925,27.0754012 8.43825,27.0754012 C5.601375,27.0754012 3.12234375,28.8370715 2.22909375,31.4213166 L0.703125,31.4213166 C0.3148125,31.4213166 0,31.7273888 0,32.105124 C0,32.4828592 0.3148125,32.7889314 0.703125,32.7889314 L16.1130937,32.7889314 C15.3709687,33.7224654 14.983125,34.8865791 14.983125,36.2240153 L14.983125,40.9371809 C12.74325,40.4655361 12.048,39.92469 11.971875,39.7573851 C11.9629687,39.3872174 11.651625,39.0898979 11.2689375,39.0898979 C10.880625,39.0898979 10.5658125,39.3959701 10.5658125,39.7737053 C10.5658125,40.8505653 11.8594687,41.6568198 14.5208437,42.2386944 C16.7663437,42.7296681 19.7414062,43 22.8980625,43 C28.2795938,43 32.944875,42.2035011 34.5068438,41.0178702 C34.8130313,40.785558 34.8675,40.3558534 34.6285312,40.0581692 C34.3896563,39.7603939 33.9477187,39.7076039 33.6417187,39.9398249 C33.1785937,40.291302 32.2006875,40.6444201 30.8130937,40.936725 L30.8130937,36.2240153 C30.8130937,34.8865791 30.42525,33.7225565 29.6830312,32.7889314 L47.296875,32.7889314 C47.6852812,32.7889314 48,32.4828592 48,32.105124 C48,31.7274799 47.6852812,31.4214077 47.296875,31.4214077 Z M30.5134687,22.2541028 L30.5805937,22.2541028 C30.6511875,22.2541028 30.7199062,22.2469912 30.7872187,22.2354121 C31.2135,22.3966995 31.5169688,22.7990518 31.5169688,23.2699672 C31.5169688,23.8367068 31.0779375,24.3048869 30.5134687,24.3716265 L30.5134687,22.2541028 Z M15.2828437,24.3716265 C14.718375,24.3048869 14.27925,23.8367068 14.27925,23.2699672 C14.27925,22.7990518 14.5827188,22.3966995 15.0090937,22.2354121 C15.0763125,22.2469912 15.145125,22.2541028 15.2157187,22.2541028 L15.2828437,22.2541028 L15.2828437,24.3716265 Z M19.363875,9.36752371 L26.4323438,9.36752371 C26.70825,9.36752371 26.9398125,9.55297228 27.0040313,9.80224289 L22.4783437,9.80224289 C22.0900312,9.80224289 21.7752187,10.1083151 21.7752187,10.4860503 C21.7752187,10.8637856 22.0900312,11.1698578 22.4783437,11.1698578 L27.0040313,11.1698578 C26.94,11.4191284 26.7084375,11.6046681 26.4323438,11.6046681 L19.363875,11.6046681 C19.0386562,11.6046681 18.774,11.3473742 18.774,11.0310904 L18.774,9.94128373 C18.774,9.62490883 19.0386562,9.36752371 19.363875,9.36752371 Z M15.4332187,20.886488 L15.4332187,19.2642232 L15.4333125,19.2642232 C15.4333125,16.5544311 17.0019375,14.1922867 19.3104375,12.9697301 C19.3283437,12.970186 19.3457812,12.972283 19.363875,12.972283 L26.4323437,12.972283 C26.4503437,12.972283 26.4677812,12.970186 26.4856875,12.9697301 C28.7941875,14.1922867 30.3629062,16.5544311 30.3629062,19.2642232 L30.3629062,20.886488 L27.4950937,20.886488 L26.2566562,18.8007841 C26.1310312,18.5892597 25.899,18.4588804 25.64775,18.4588804 C25.3965,18.4588804 25.1644687,18.5892597 25.0388437,18.8007841 L23.8005,20.886488 L15.4332187,20.886488 Z M29.1072187,22.2541028 L29.1072187,24.9741065 C29.1072187,28.2678702 26.3219062,30.9475748 22.89825,30.9475748 C19.4745,30.9475748 16.6890938,28.2678702 16.6890938,24.9741065 L16.6890938,22.2541028 L23.9262187,22.2541028 C24.3495937,22.2541028 24.7440937,22.0325492 24.9556875,21.6759664 L25.6478437,20.5102115 L26.3398125,21.6756018 C26.5514062,22.0323669 26.9459062,22.2541028 27.369375,22.2541028 L29.1072187,22.2541028 Z M9.541875,31.4214077 L3.73621875,31.4214077 C4.55146875,29.6314734 6.37453125,28.4431072 8.43834375,28.4431072 C9.4063125,28.4431072 10.3208437,28.7054158 11.10375,29.1677608 C10.4083125,29.7652261 9.86428125,30.5341904 9.541875,31.4214077 Z M11.065125,31.4214077 C11.7561562,30.0707513 13.1761875,29.1849927 14.7755625,29.1849927 C16.2557813,29.1849927 17.5820625,29.9441101 18.3193125,31.1280999 C18.117375,31.2181802 17.9226563,31.3157367 17.7362813,31.4214077 L11.065125,31.4214077 Z M28.690875,41.2893873 L28.690875,38.0609956 C28.690875,37.6832604 28.3761563,37.3771882 27.98775,37.3771882 C27.5993438,37.3771882 27.284625,37.6832604 27.284625,38.0609956 L27.284625,41.4431984 C25.9704375,41.5625456 24.4978125,41.6324763 22.8980625,41.6324763 C21.3722813,41.6324763 19.8861562,41.5663749 18.5115937,41.441922 L18.5115937,38.0609956 C18.5115937,37.6832604 18.1967812,37.3771882 17.8084687,37.3771882 C17.4201562,37.3771882 17.1053437,37.6832604 17.1053437,38.0609956 L17.1053437,41.2887491 C16.8619687,41.2573851 16.62225,41.2246535 16.389375,41.1893691 L16.389375,36.2240153 C16.389375,34.7727024 16.9412812,33.6428702 18.0298125,32.8657914 C18.6675937,32.4104668 19.4713125,32.0883479 20.4029062,31.9082786 C20.4752812,31.9326222 20.5474688,31.9573304 20.6207813,31.9794858 L20.6207813,32.8560357 C20.6207813,33.233771 20.9355938,33.5398432 21.3239063,33.5398432 C21.7122188,33.5398432 22.0270313,33.233771 22.0270313,32.8560357 L22.0270313,32.2654996 C22.3131563,32.2971371 22.6034063,32.3150073 22.8981563,32.3150073 C23.1928125,32.3150073 23.4829688,32.2971371 23.769,32.2655908 L23.769,32.8560357 C23.769,33.233771 24.0838125,33.5398432 24.472125,33.5398432 C24.8605313,33.5398432 25.17525,33.233771 25.17525,32.8560357 L25.17525,31.979577 C25.2486563,31.9573304 25.3208438,31.932531 25.3932188,31.9082786 C26.3247188,32.0883479 27.1285313,32.4104668 27.7663125,32.8657914 C28.85475,33.642779 29.40675,34.7727024 29.40675,36.2240153 L29.40675,41.1889132 L29.4068438,41.1889132 C29.1756563,41.2241977 28.9369688,41.2576586 28.690875,41.2893873 Z M28.0599375,31.4213166 C27.7943437,31.2707877 27.5121563,31.1360321 27.2151562,31.0170496 C27.9477188,30.529267 28.586625,29.921043 29.1029063,29.222283 C29.2845938,29.1984865 29.469,29.1849015 29.6565,29.1849015 C31.255875,29.1849015 32.6758125,30.0706601 33.3668438,31.4213166 L28.0599375,31.4213166 Z M36.2495625,31.4214077 L34.8901875,31.4214077 C34.6812187,30.8464624 34.3794375,30.3212071 34.0034062,29.8599562 C34.4505937,29.6701313 34.942125,29.5657367 35.4549375,29.5657367 C36.0404063,29.5657367 36.5978438,29.7019511 37.093125,29.946116 C36.7365938,30.3822939 36.4497188,30.8785558 36.2495625,31.4214077 Z M37.778625,31.4214077 C38.43825,30.1775164 39.7600313,29.3651532 41.2463438,29.3651532 C42.7326563,29.3651532 44.0543438,30.1774252 44.7139688,31.4214077 L37.778625,31.4214077 Z" id="Shape"></path>
                    <path d="M31.9875214,46.437925 C31.914587,46.0557381 31.5411555,45.8038571 31.153537,45.8764266 C28.6336835,46.3444202 25.7571563,46.5917949 22.8351164,46.5917949 C18.3362282,46.5917949 14.1165091,46.0227861 10.9532907,44.9897268 C8.11980047,44.0642544 6.42821849,42.8360179 6.42821849,41.7041026 C6.42821849,41.3151563 6.10848798,41 5.71410925,41 C5.31973051,41 5,41.3151563 5,41.7041026 C5,43.5520432 6.90333918,45.1503561 10.5041636,46.3263951 C13.8084899,47.4056435 18.1876935,48 22.8351164,48 C25.844468,48 28.812306,47.7441761 31.4180431,47.2602229 C31.8055664,47.1882167 32.060551,46.8201119 31.9875214,46.437925 Z" id="Shape"></path>
                    <path d="M34.8901989,37.0271085 C34.5220739,36.9236406 34.1363574,37.125434 34.0283086,37.4778632 C33.9202599,37.8302924 34.1309874,38.1997446 34.4990198,38.3032124 C37.6522475,39.1896494 39.6111058,40.4599904 39.6111058,41.618618 C39.6111058,42.6792747 37.9863006,43.83276 35.2648976,44.7042132 C34.9012167,44.820803 34.7049328,45.1975254 34.8265918,45.5457875 C34.9239005,45.8240957 35.1946242,46 35.4850689,46 C35.5580273,46 35.6323745,45.9889173 35.7054254,45.9655107 C40.0814466,44.5641281 41,42.8281373 41,41.618618 C41,39.7651508 38.8301364,38.1346671 34.8901989,37.0271085 Z" id="Shape"></path>
                    <path d="M24.3001903,27 C23.9136155,27 23.6003807,27.2952766 23.6003807,27.6596886 C23.6003807,28.2226229 23.1067816,28.6806227 22.5000933,28.6806227 C21.8933117,28.6806227 21.3996193,28.2226229 21.3996193,27.6596886 C21.3996193,27.2952766 21.0862912,27 20.6998097,27 C20.3133281,27 20,27.2952766 20,27.6596886 C20,28.9501275 21.1215616,30 22.5000933,30 C23.8785317,30 25,28.9500396 25,27.6596886 C25,27.2953646 24.6867652,27 24.3001903,27 Z" id="Shape"></path>
                    <path d="M22.3572204,24.902548 L22.3572204,24.5491287 C22.3572204,24.24579 22.053384,24 21.6786102,24 C21.3038364,24 21,24.24579 21,24.5491287 L21,25.2312198 C21,25.6551472 21.4261672,26 21.9500543,26 L22.3213898,26 C22.6961636,26 23,25.75421 23,25.4508713 C23,25.1573437 22.7153456,24.9176307 22.3572204,24.902548 Z" id="Shape"></path>
                    <path d="M20.8217455,24.2248721 C20.5840864,23.9251791 20.1987525,23.9251791 19.9611745,24.2248721 C19.7068817,24.5457523 19.2931487,24.5457523 19.0387748,24.2248721 C18.8011157,23.9249744 18.4157817,23.9250768 18.1782038,24.2249744 C17.9405447,24.5247697 17.9406258,25.0108495 18.1782849,25.3105425 C18.5426847,25.7702149 19.0214108,26 19.5000558,26 C19.9787007,26 20.4574268,25.7701126 20.8218267,25.3105425 C21.0594046,25.0107472 21.0594046,24.5247697 20.8217455,24.2248721 Z" id="Shape"></path>
                    <path d="M26.8217789,24.2249975 C26.5842724,23.9251715 26.1989228,23.9250691 25.9611729,24.2248951 C25.7069509,24.5456035 25.2930389,24.5456035 25.0388169,24.2248951 C24.8009859,23.9248644 24.4156363,23.9251715 24.178211,24.2249975 C23.9405422,24.5249258 23.9406234,25.0110554 24.1782921,25.3106766 C24.5427067,25.7702938 25.0213711,26 25.5000355,26 C25.9786999,26 26.4573643,25.7702938 26.8217789,25.3106766 C27.0593665,25.0110554 27.0594476,24.5249258 26.8217789,24.2249975 Z" id="Shape"></path>
                    <path d="M20.708,40.2933333 C20.5213333,40.1066667 20.264,40 20,40 C19.7373333,40 19.4786667,40.1066667 19.2933333,40.2933333 C19.1066667,40.4798667 19,40.7373333 19,41 C19,41.2626667 19.1066667,41.5213333 19.2933333,41.7066667 C19.48,41.8933333 19.7373333,42 20,42 C20.264,42 20.5213333,41.8933333 20.708,41.7066667 C20.8933333,41.5213333 21,41.2641333 21,41 C21,40.7373333 20.8933333,40.48 20.708,40.2933333 Z" id="Shape"></path>
                    <path d="M26.7066667,40.2933333 C26.5213333,40.1066667 26.2625333,40 26,40 C25.7361333,40 25.4786667,40.1066667 25.2933333,40.2933333 C25.1066667,40.4798667 25,40.7373333 25,41 C25,41.264 25.1066667,41.5213333 25.2933333,41.7066667 C25.4786667,41.8933333 25.736,42 26,42 C26.2626667,42 26.5213333,41.8933333 26.7066667,41.7066667 C26.8933333,41.5213333 27,41.2641333 27,41 C27,40.7373333 26.8933333,40.48 26.7066667,40.2933333 Z" id="Shape"></path>
                    <path d="M10.6364746,15 L6.69673926,15 C6.31195339,15 6,15.3273926 6,15.7312222 C6,16.1351494 6.31195339,16.4624444 6.69673926,16.4624444 L10.6364746,16.4624444 C11.1713846,16.4624444 11.6065215,16.9279892 11.6065215,17.5000975 C11.6065215,18.0721083 11.1712917,18.5375556 10.6364746,18.5375556 L9.8342026,18.5375556 C9.44941673,18.5375556 9.13746334,18.8648506 9.13746334,19.2687778 C9.13746334,19.6727049 9.44941673,20 9.8342026,20 L10.6364746,20 C11.9397486,20 13,18.8785976 13,17.5000975 C13,16.1214999 11.9396557,15 10.6364746,15 Z" id="Shape"></path>
                    <path d="M8.44451068,22.2572817 L5.5277695,22.2572817 C4.95568803,22.2572817 4.49031297,21.8287653 4.49031297,21.3019405 C4.49031297,20.7752055 4.95568803,20.3466891 5.5277695,20.3466891 L6.52975658,20.3466891 C6.94128167,20.3466891 7.27491307,20.0453001 7.27491307,19.6733445 C7.27491307,19.301389 6.94128167,19 6.52975658,19 L5.5277695,19 C4.13392946,19 3,20.0326412 3,21.3019405 C3,22.5713296 4.13392946,23.6039708 5.5277695,23.6039708 L8.44451068,23.6039708 C8.47044213,23.6039708 8.50968703,23.6372789 8.50968703,23.6874655 L8.50968703,25.3266555 C8.50968703,25.698611 8.84331843,26 9.25484352,26 C9.6663686,26 10,25.698611 10,25.3266555 L10,23.6874655 C10,22.8989342 9.30223547,22.2572817 8.44451068,22.2572817 Z" id="Shape"></path>
                    <path d="M40.8182676,17.3148182 L37.1815609,17.3148182 C36.6878799,17.3148182 36.2862977,16.8787685 36.2862977,16.3426823 C36.2862977,15.806596 36.6879656,15.3703636 37.1815609,15.3703636 L40.1860094,15.3703636 C40.541199,15.3703636 40.8291582,15.0636762 40.8291582,14.6851818 C40.8291582,14.3066874 40.541199,14 40.1860094,14 L37.1815609,14 C35.9786153,14 35,15.0508862 35,16.3426823 C35,17.634387 35.9786153,18.6851818 37.1815609,18.6851818 L40.8182676,18.6851818 C41.3120344,18.6851818 41.7137023,19.1214142 41.7137023,19.6575005 C41.7137023,20.1934953 41.3119486,20.6296364 40.8182676,20.6296364 L39.9407553,20.6296364 C39.5854798,20.6296364 39.2976064,20.9363238 39.2976064,21.3148182 C39.2976064,21.6933126 39.5854798,22 39.9407553,22 L40.8182676,22 C42.0212989,22 43,20.9492052 43,19.6575005 C43,18.3657044 42.0212989,17.3148182 40.8182676,17.3148182 Z" id="Shape"></path>
                    <path d="M39.4445107,24.5383769 L36.5278689,24.5383769 C35.955688,24.5383769 35.490313,24.0728805 35.490313,23.5005921 C35.490313,22.9284013 35.9557874,22.4629049 36.5278689,22.4629049 L37.5297566,22.4629049 C37.941381,22.4629049 38.2749131,22.1355068 38.2749131,21.7314525 C38.2749131,21.3273981 37.941381,21 37.5297566,21 L36.5278689,21 C35.1340288,21 34,22.1217555 34,23.5005921 C34,24.8795263 35.1340288,26.0012818 36.5278689,26.0012818 L39.4445107,26.0012818 C39.4705415,26.0012818 39.509687,26.0374643 39.509687,26.0919819 L39.509687,27.2685475 C39.509687,27.6726019 39.8433184,28 40.2548435,28 C40.666468,28 41,27.6726019 41,27.2685475 L41,26.0919819 C41,25.2354023 40.3022355,24.5383769 39.4445107,24.5383769 Z" id="Shape"></path>
                    <path d="M13.0000424,0 C11.8972169,0 11,0.897196262 11,2.00004238 C11,3.10288851 11.8972169,4 13.0000424,4 C14.1028679,4 15,3.10280374 15,1.99995762 C15,0.897111493 14.1028679,0 13.0000424,0 Z M13.0000424,2.72854812 C12.5984908,2.72854812 12.2718062,2.4017632 12.2718062,2.00004238 C12.2718062,1.59832157 12.5984908,1.27153665 13.0000424,1.27153665 C13.401594,1.27153665 13.7281938,1.59832157 13.7281938,2.00004238 C13.7281938,2.4017632 13.4015092,2.72854812 13.0000424,2.72854812 Z" id="Shape"></path>
                    <path d="M42.9999576,2 C41.8971321,2 41,2.89717725 41,4 C41.0000848,5.10282275 41.8972169,6 42.9999576,6 C44.1027831,6 45,5.10282275 45,4 C45,2.89717725 44.1027831,2 42.9999576,2 Z M42.9999576,4.72857506 C42.5984908,4.72857506 42.2718062,4.40179707 42.2718062,4.00008477 C42.271891,3.59837247 42.5984908,3.27159447 42.9999576,3.27159447 C43.4015092,3.27159447 43.7281938,3.59837247 43.7281938,4.00008477 C43.7281938,4.4017123 43.4015092,4.72857506 42.9999576,4.72857506 Z" id="Shape"></path>
                    <path d="M31.9999576,5 C30.8971321,5 30,5.89726202 30,7.00008477 C30,8.10282275 30.8971321,9 31.9999576,9 C33.1027831,9 34,8.10282275 34,7.00008477 C34,5.89726202 33.1027831,5 31.9999576,5 Z M31.9999576,7.72857506 C31.5984908,7.72857506 31.2718062,7.40188183 31.2718062,7.00016953 C31.2718062,6.59837247 31.5984908,6.27159447 31.9999576,6.27159447 C32.4015092,6.27159447 32.7281938,6.59837247 32.7281938,7.00016953 C32.7281938,7.40179707 32.4015092,7.72857506 31.9999576,7.72857506 Z" id="Shape"></path>
                    <path d="M4.00008479,6 C2.89723588,6 2,6.89726202 2,8.00008477 C1.99991521,9.10282275 2.89715109,10 4.00008479,10 C5.10284891,10 6,9.10282275 6,8.00008477 C6,6.89726202 5.10284891,6 4.00008479,6 Z M4.00008479,8.72857506 C3.59852467,8.72857506 3.27183314,8.40188183 3.27183314,8.00016953 C3.27174835,7.59837247 3.59843988,7.27159447 4.00008479,7.27159447 C4.40156012,7.27159447 4.72816686,7.59837247 4.72816686,8.00016953 C4.72816686,8.40179707 4.40156012,8.72857506 4.00008479,8.72857506 Z" id="Shape"></path>
                </g>
            </g>
        </g>
    </g>
</svg>