<?xml version="1.0" encoding="UTF-8"?>
<svg width="80px" height="80px" viewBox="0 0 80 80" version="1.1" xmlns="http://www.w3.org/2000/svg" xmlns:xlink="http://www.w3.org/1999/xlink">
    <!-- Generator: Sketch 49.3 (51167) - http://www.bohemiancoding.com/sketch -->
    <title>icon-3</title>
    <desc>Created with Sketch.</desc>
    <defs></defs>
    <g id="icons" stroke="none" stroke-width="1" fill="none" fill-rule="evenodd">
        <g id="text" transform="translate(-904.000000, -520.000000)">
            <g id="icon-3" transform="translate(904.000000, 520.000000)">
                <circle id="background" fill="#B8F9F5" cx="40" cy="40" r="40"></circle>
                <g id="icon" transform="translate(14.000000, 19.000000)" fill="#07485F" fill-rule="nonzero">
                    <path d="M51.205467,26 C49.3089948,26 48.3324423,26.7408194 47.4708274,27.3945372 C46.6850714,27.990693 46.0644078,28.4615073 44.7163975,28.4615073 C43.3683872,28.4615073 42.7476191,27.9905918 41.9619676,27.3945372 C41.1003527,26.7409206 40.1238002,26 38.227328,26 C37.1366737,26 36.2281433,26.2466363 35.3682003,26.7764289 C34.9979964,27.0044512 34.8887011,27.4799191 35.1242189,27.8383409 C35.3597367,28.1967628 35.8506252,28.3024785 36.2210381,28.0744562 C36.6514276,27.8094082 37.2263251,27.5384927 38.227328,27.5384927 C39.5753384,27.5384927 40.1961065,28.0094082 40.9817579,28.6054628 C41.8433728,29.2590794 42.8198208,30 44.7163975,30 C46.6128697,30 47.5894222,29.2591806 48.4510371,28.6054628 C49.236793,28.009307 49.8574567,27.5384927 51.205467,27.5384927 C51.64432,27.5384927 52,27.1940314 52,26.7692463 C52,26.3444613 51.64432,26 51.205467,26 Z" id="Shape"></path>
                    <path d="M5.5546591,28.3786688 C5.13945083,28.1643491 4.78865386,27.8623989 4.41726973,27.5428779 C3.57696728,26.8196749 2.62465847,26 0.774973906,26 C0.346924142,26 0,26.381075 0,26.8510114 C0,27.3209479 0.346924142,27.7020229 0.774973906,27.7020229 C2.08959626,27.7020229 2.69487901,28.2229932 3.46108809,28.882404 C3.88404202,29.2462438 4.32116237,29.6225064 4.89495288,29.9188607 C5.00145574,29.9739235 5.11366593,30 5.22424545,30 C5.51511546,30 5.79406122,29.8191433 5.92604323,29.5109258 C6.10837205,29.085532 5.94194222,28.5786632 5.5546591,28.3786688 Z" id="Shape"></path>
                    <path d="M39.2127463,0 C33.8155769,0 29.4246817,4.26996138 29.4246817,9.51837549 L29.4246817,16.7890501 L12.6242194,16.7890501 L12.6242194,9.51837549 C12.6242194,6.74980575 14.9406368,4.49737327 17.7880646,4.49737327 C20.6347828,4.49737327 22.9506934,6.74980575 22.9506934,9.51837549 L22.9506934,9.74322444 C22.9506934,10.9830973 23.987983,11.9919111 25.2628538,11.9919111 C26.5377247,11.9919111 27.5750142,10.9830973 27.5750142,9.74322444 L27.5750142,9.51837549 C27.5750142,4.26986281 23.1845245,1.4008311e-15 17.7880646,1.4008311e-15 C12.3908952,1.4008311e-15 8,4.26986281 8,9.51837549 L8,33.243439 C8,33.6573543 8.34512126,33.9930012 8.77072013,33.9930012 C9.19642036,33.9930012 9.54144026,33.6573543 9.54144026,33.243439 L9.54144026,9.51837549 C9.54144026,5.09660903 13.2408766,1.49912442 17.7880646,1.49912442 C22.3346444,1.49912442 26.033574,5.09660903 26.033574,9.51837549 L26.033574,9.74322444 C26.033574,10.1564497 25.6878446,10.4927866 25.2628538,10.4927866 C24.8378631,10.4927866 24.4921337,10.1564497 24.4921337,9.74322444 L24.4921337,9.51837549 C24.4921337,5.9231581 21.4845616,2.99824885 17.7880646,2.99824885 C14.0907567,2.99824885 11.0828805,5.92325668 11.0828805,9.51837549 L11.0828805,31.4004859 C11.0828805,31.8144012 11.4279004,32.1500481 11.8536007,32.1500481 C12.2793009,32.1500481 12.6243208,31.8144012 12.6243208,31.4004859 L12.6243208,30.2805785 L29.4247831,30.2805785 L29.4247831,33.2504378 C29.4247831,33.6643531 29.769803,34 30.1955032,34 C30.6212034,34 30.9662233,33.6643531 30.9662233,33.2504378 L30.9662233,9.51837549 C30.9662233,5.09660903 34.6656597,1.49912442 39.2128476,1.49912442 C43.7594275,1.49912442 47.4584584,5.09660903 47.4584584,9.51837549 L47.4584584,9.74322444 C47.4584584,10.1564497 47.112729,10.4927866 46.6877383,10.4927866 C46.2627475,10.4927866 45.9170181,10.1564497 45.9170181,9.74322444 L45.9170181,9.51837549 C45.9170181,5.9231581 42.909446,2.99824885 39.2128476,2.99824885 C35.5155398,2.99824885 32.5076636,5.92325668 32.5076636,9.51837549 L32.5076636,12.2532327 C32.5076636,12.6671479 32.8526835,13.0027949 33.2783837,13.0027949 C33.704084,13.0027949 34.0491039,12.6671479 34.0491039,12.2532327 L34.0491039,9.51837549 C34.0491039,6.74980575 36.3655212,4.49737327 39.212949,4.49737327 C42.0596673,4.49737327 44.3756792,6.74980575 44.3756792,9.51837549 L44.3756792,9.74322444 C44.3756792,10.9830973 45.4129688,11.9919111 46.6878396,11.9919111 C47.9627104,11.9919111 49,10.9830973 49,9.74322444 L49,9.51837549 C48.9997973,4.26996138 44.6093076,0 39.2127463,0 Z M12.6243208,18.2882731 L29.4246817,18.2882731 L29.4246817,19.9372311 L12.6243208,19.9372311 L12.6243208,18.2882731 Z M29.4247831,25.6333716 L18.7382883,25.6333716 C18.3125881,25.6333716 17.9675682,25.9690185 17.9675682,26.3829338 C17.9675682,26.7968491 18.3125881,27.132496 18.7382883,27.132496 L29.4245804,27.132496 L29.4245804,28.781454 L12.6242194,28.781454 L12.6243208,27.132496 L16.1692888,27.132496 C16.594989,27.132496 16.9400089,26.7968491 16.9400089,26.3829338 C16.9400089,25.9690185 16.594989,25.6333716 16.1692888,25.6333716 L12.6242194,25.6333716 L12.6242194,21.4361584 L29.4247831,21.4361584 L29.4247831,25.6333716 Z" id="Shape"></path>
                    <path d="M34,15 C33.4476591,15 33,15.3318374 33,15.7410548 L33,34.2589452 C33,34.6681626 33.4476591,35 34,35 C34.5523409,35 35,34.6681626 35,34.2589452 L35,15.7410548 C35,15.3318374 34.5522094,15 34,15 Z" id="Shape"></path>
                    <path d="M51.2277187,33 C49.3843594,33 48.4351562,33.7408194 47.5976719,34.3945372 C46.8339219,34.990693 46.2306406,35.4615073 44.9203828,35.4615073 C43.610125,35.4615073 43.0067422,34.9905918 42.2430937,34.3945372 C41.4056094,33.7409206 40.4564062,33 38.6130469,33 C36.7697891,33 35.8205859,33.7409206 34.9831016,34.3945372 C34.2193516,34.990693 33.6161719,35.4615073 32.3060156,35.4615073 C30.9958594,35.4615073 30.3925781,34.9905918 29.6289297,34.3945372 C28.7915469,33.7409206 27.8423437,33 25.9990859,33 C24.1559297,33 23.2068281,33.7409206 22.3694453,34.3945372 C21.6056953,34.990693 21.0026172,35.4615073 19.6925625,35.4615073 C18.3824063,35.4615073 17.7792266,34.9905918 17.0155781,34.3945372 C16.1781953,33.7409206 15.2290938,33 13.3857344,33 C11.5424766,33 10.5932734,33.7409206 9.75589062,34.3945372 C8.99214062,34.990693 8.3890625,35.4615073 7.07890625,35.4615073 C5.76875,35.4615073 5.16557031,34.9905918 4.40192187,34.3945372 C3.56453906,33.7409206 2.61553906,33 0.77228125,33 C0.34571875,33 0,33.3444613 0,33.7692463 C0,34.1940314 0.34571875,34.5384927 0.77228125,34.5384927 C2.08233594,34.5384927 2.68551562,35.0094082 3.44916406,35.6054628 C4.28654687,36.2590794 5.23554687,37 7.07890625,37 C8.9220625,37 9.87126562,36.2591806 10.7086484,35.6054628 C11.4723984,35.009307 12.0755781,34.5384927 13.3857344,34.5384927 C14.6958906,34.5384927 15.2991719,35.0094082 16.0628203,35.6054628 C16.9002031,36.2590794 17.8494063,37 19.6925625,37 C21.5357187,37 22.4848203,36.2590794 23.3222031,35.6054628 C24.0859531,35.009307 24.6890312,34.5384927 25.9990859,34.5384927 C27.3092422,34.5384927 27.9125234,35.0094082 28.6761719,35.6054628 C29.5135547,36.2590794 30.4626562,37 32.3060156,37 C34.1492734,37 35.098375,36.2591806 35.9358594,35.6054628 C36.6996094,35.009307 37.3027891,34.5384927 38.6130469,34.5384927 C39.9233047,34.5384927 40.5266875,35.0094082 41.2903359,35.6054628 C42.1278203,36.2590794 43.0770234,37 44.9203828,37 C46.7637422,37 47.7129453,36.2591806 48.5504297,35.6054628 C49.3141797,35.009307 49.9174609,34.5384927 51.2277187,34.5384927 C51.6542812,34.5384927 52,34.1940314 52,33.7692463 C52,33.3443601 51.6542812,33 51.2277187,33 Z" id="Shape"></path>
                    <path d="M51.2352981,38 C49.4100298,38 48.4701423,38.7408194 47.6408771,39.3945372 C46.8846227,39.990693 46.2872622,40.4615073 44.9898635,40.4615073 C43.6924648,40.4615073 43.0950037,39.9905918 42.3388498,39.3945372 C41.5095847,38.7409206 40.5696972,38 38.7444289,38 C36.9192612,38 35.9793737,38.7409206 35.1501086,39.3945372 C34.3938541,39.990693 33.7965942,40.4615073 32.499296,40.4615073 C31.2019979,40.4615073 30.6046374,39.9905918 29.8484835,39.3945372 C29.0193189,38.7409206 28.0794315,38 26.2542637,38 C24.4291966,38 23.4894097,38.7409206 22.6602451,39.3945372 C21.9039907,39.990693 21.3068313,40.4615073 20.0096337,40.4615073 C18.7123355,40.4615073 18.1150756,39.9905918 17.3589217,39.3945372 C16.5297571,38.7409206 15.5899702,38 13.7647019,38 C13.3423258,38 13,38.3444613 13,38.7692463 C13,39.1940314 13.3423258,39.5384927 13.7647019,39.5384927 C15.0620001,39.5384927 15.6593606,40.0094082 16.4155145,40.6054628 C17.244679,41.2590794 18.1845665,42 20.0096337,42 C21.8347009,42 22.7744878,41.2590794 23.6036523,40.6054628 C24.3599068,40.009307 24.9570662,39.5384927 26.2542637,39.5384927 C27.5515619,39.5384927 28.1489224,40.0094082 28.9050762,40.6054628 C29.7342408,41.2590794 30.6740277,42 32.499296,42 C34.3244638,42 35.2642507,41.2591806 36.0935158,40.6054628 C36.8497702,40.009307 37.4470302,39.5384927 38.7444289,39.5384927 C40.0418276,39.5384927 40.6392887,40.0094082 41.3954426,40.6054628 C42.2247077,41.2590794 43.1645952,42 44.9898635,42 C46.8151318,42 47.7550193,41.2591806 48.5842844,40.6054628 C49.3405388,40.009307 49.9378994,39.5384927 51.2352981,39.5384927 C51.6576742,39.5384927 52,39.1940314 52,38.7692463 C52,38.3444613 51.6576742,38 51.2352981,38 Z" id="Shape"></path>
                    <path d="M10.835492,39.5257461 C10.5726528,39.1914011 10.0875831,39.1327264 9.75174991,39.3947395 C8.98840969,39.9908953 8.38557498,40.4616085 7.07604906,40.4616085 C5.76642162,40.4616085 5.16348538,39.990693 4.40014517,39.3946383 C3.56310034,38.7410218 2.61448338,38 0.771969542,38 C0.345579211,38 0,38.3444613 0,38.7692463 C0,39.1940314 0.345579211,39.5384927 0.771969542,39.5384927 C2.08149546,39.5384927 2.6844317,40.0094082 3.44777191,40.6054628 C4.28481674,41.2590794 5.2334337,42 7.07604906,42 C8.91846137,42 9.86717986,41.2591806 10.7042247,40.605564 C11.0397533,40.343652 11.0986357,39.8601922 10.835492,39.5257461 Z" id="Shape"></path>
                </g>
            </g>
        </g>
    </g>
</svg>