<?xml version="1.0" encoding="UTF-8"?>
<svg width="60px" height="60px" viewBox="0 0 60 60" version="1.1" xmlns="http://www.w3.org/2000/svg" xmlns:xlink="http://www.w3.org/1999/xlink">
    <!-- Generator: Sketch 48.2 (47327) - http://www.bohemiancoding.com/sketch -->
    <title>list</title>
    <desc>Created with Sketch.</desc>
    <defs>
        <rect id="path-1" x="0" y="0" width="60" height="60" rx="30"></rect>
    </defs>
    <g id="icons" stroke="none" stroke-width="1" fill="none" fill-rule="evenodd">
        <g id="list">
            <g id="Rectangle">
                <use fill="#F9F9F9" fill-rule="evenodd" xlink:href="#path-1"></use>
                <rect stroke="#64D2CA" stroke-width="1" x="0.5" y="0.5" width="59" height="59" rx="29.5"></rect>
            </g>
            <g transform="translate(13.636364, 16.363636)" fill="#64D2CA" fill-rule="nonzero" id="Shape">
                <path d="M3.42494715,6.78229665 C5.31614187,6.78229665 6.84989429,5.25869067 6.84989429,3.39436268 C6.84989429,1.53003469 5.31614187,0 3.42494715,0 C1.53375242,0 0,1.52360598 0,3.38793397 C0,5.25226196 1.54025137,6.78229665 3.42494715,6.78229665 Z M3.42494715,1.57503572 C4.43878349,1.57503572 5.25765131,2.3914828 5.25765131,3.38793397 C5.25765131,4.38438513 4.43228454,5.20083222 3.42494715,5.20083222 C2.41760975,5.20083222 1.59224298,4.38438513 1.59224298,3.38793397 C1.59224298,2.3914828 2.41760975,1.57503572 3.42494715,1.57503572 Z"></path>
                <path d="M3.42494715,18.0861244 C5.31614187,18.0861244 6.84989429,16.5610729 6.84989429,14.6949761 C6.84989429,12.8288793 5.31614187,11.3038278 3.42494715,11.3038278 C1.53375242,11.3038278 0,12.8224445 0,14.6949761 C0,16.5675077 1.54025137,18.0861244 3.42494715,18.0861244 Z M3.42494715,12.8803578 C4.43878349,12.8803578 5.25765131,13.6975795 5.25765131,14.6949761 C5.25765131,15.6923726 4.43228454,16.5095943 3.42494715,16.5095943 C2.41760975,16.5095943 1.59224298,15.6988075 1.59224298,14.6949761 C1.59224298,13.6911447 2.41760975,12.8803578 3.42494715,12.8803578 Z"></path>
                <path d="M3.42494715,28.6363636 C5.31614187,28.6363636 6.84989429,27.1113121 6.84989429,25.2452153 C6.84989429,23.3726837 5.30964292,21.854067 3.42494715,21.854067 C1.54025137,21.854067 0,23.3791185 0,25.2452153 C0,27.1113121 1.54025137,28.6363636 3.42494715,28.6363636 Z M3.42494715,23.4241622 C4.43878349,23.4241622 5.25765131,24.2413839 5.25765131,25.2387805 C5.25765131,26.2426119 4.43228454,27.0533988 3.42494715,27.0533988 C2.41760975,27.0533988 1.59224298,26.2361771 1.59224298,25.2387805 C1.59224298,24.2413839 2.41760975,23.4241622 3.42494715,23.4241622 Z"></path>
                <path d="M12.220301,3.76794258 L31.9234622,3.76794258 C32.3678452,3.76794258 32.7272727,3.43097211 32.7272727,3.01435407 C32.7272727,2.59773603 32.3678452,2.26076555 31.9234622,2.26076555 L12.220301,2.26076555 C11.775918,2.26076555 11.4164905,2.59773603 11.4164905,3.01435407 C11.4164905,3.43097211 11.775918,3.76794258 12.220301,3.76794258 Z"></path>
                <path d="M12.220301,15.0717703 L31.9234622,15.0717703 C32.3678452,15.0717703 32.7272727,14.7347999 32.7272727,14.3181818 C32.7272727,13.9015638 32.3678452,13.5645933 31.9234622,13.5645933 L12.220301,13.5645933 C11.775918,13.5645933 11.4164905,13.9015638 11.4164905,14.3181818 C11.4164905,14.7347999 11.775918,15.0717703 12.220301,15.0717703 Z"></path>
                <path d="M12.220301,25.6220096 L31.9234622,25.6220096 C32.3678452,25.6220096 32.7272727,25.2850391 32.7272727,24.8684211 C32.7272727,24.451803 32.3678452,24.1148325 31.9234622,24.1148325 L12.220301,24.1148325 C11.775918,24.1148325 11.4164905,24.451803 11.4164905,24.8684211 C11.4164905,25.2850391 11.775918,25.6220096 12.220301,25.6220096 Z"></path>
            </g>
        </g>
    </g>
</svg>