<?xml version="1.0" encoding="UTF-8"?>
<svg width="62px" height="62px" viewBox="0 0 62 62" version="1.1" xmlns="http://www.w3.org/2000/svg" xmlns:xlink="http://www.w3.org/1999/xlink">
    <!-- Generator: Sketch 48.2 (47327) - http://www.bohemiancoding.com/sketch -->
    <title>measure</title>
    <desc>Created with Sketch.</desc>
    <defs></defs>
    <g id="icons" stroke="none" stroke-width="1" fill="none" fill-rule="evenodd">
        <g id="measure" transform="translate(1.000000, 1.000000)">
            <circle id="Oval-4" stroke="#64D2CA" fill="#FFFFFF" cx="30" cy="30" r="30"></circle>
            <path d="M45.4500849,32 L13.5499796,32 C13.2458247,32 13,32.2554032 13,32.5714094 L13,39.4285906 C13,39.7445968 13.2458247,40 13.5499796,40 L45.4500204,40 C45.7541753,40 46,39.7445968 46,39.4285906 L46,32.5714094 C46.0000644,32.2554702 45.7542397,32 45.4500849,32 Z M44.9000408,38.8571811 L14.1000236,38.8571811 L14.1000236,33.1428858 L15.7500269,33.1428858 L15.7494468,34.2857717 C15.7494468,34.6011752 15.9952715,34.8571811 16.2994264,34.8571811 C16.6030012,34.8571811 16.849406,34.6017779 16.849406,34.2857717 L16.849986,33.1428858 L19.0499688,33.1428858 L19.0499688,35.4285906 C19.0499688,35.7445968 19.2957935,36 19.5999484,36 C19.9041033,36 20.149928,35.7445968 20.149928,35.4285906 L20.149928,33.1428858 L22.3499108,33.1428858 L22.3499108,34.2857717 C22.3499108,34.6017779 22.5957355,34.8571811 22.8998904,34.8571811 C23.2040453,34.8571811 23.44987,34.6017779 23.44987,34.2857717 L23.44987,33.1428858 L25.6498528,33.1428858 L25.6498528,35.4285906 C25.6498528,35.7445968 25.8956775,36 26.1998324,36 C26.5039873,36 26.749812,35.7445968 26.749812,35.4285906 L26.749812,33.1428858 L28.9497948,33.1428858 L28.9497948,34.2857717 C28.9497948,34.6017779 29.1956195,34.8571811 29.4997744,34.8571811 C29.8039293,34.8571811 30.049754,34.6017779 30.049754,34.2857717 L30.049754,33.1428858 L32.2497368,33.1428858 L32.2497368,35.4285906 C32.2497368,35.7445968 32.4955615,36 32.7997164,36 C33.1038713,36 33.349696,35.7445968 33.349696,35.4285906 L33.349696,33.1428858 L35.5496788,33.1428858 L35.5496788,34.2857717 C35.5496788,34.6017779 35.7955035,34.8571811 36.0996584,34.8571811 C36.4038133,34.8571811 36.649638,34.6017779 36.649638,34.2857717 L36.649638,33.1428858 L38.8496208,33.1428858 L38.8496208,35.4285906 C38.8496208,35.7445968 39.0954455,36 39.3996004,36 C39.7037553,36 39.94958,35.7445968 39.94958,35.4285906 L39.94958,33.1428858 L42.1506585,33.1428858 L42.1500784,34.2857717 C42.1500784,34.6011752 42.3959031,34.8571811 42.700058,34.8571811 C43.0036328,34.8571811 43.2500376,34.6017779 43.2500376,34.2857717 L43.2506177,33.1428858 L44.8995252,33.1428858 L44.8995252,38.8571811 L44.9000408,38.8571811 Z" id="Shape" fill="#64D2CA" fill-rule="nonzero"></path>
            <path d="M13.5,20 C13.2234853,20 13,20.2587629 13,20.5789259 L13,30.4210741 C13,30.7412371 13.2234853,31 13.5,31 C13.7765147,31 14,30.7412371 14,30.4210741 L14,25.789463 L14,20.5789259 C14.0000586,20.2587629 13.7765147,20 13.5,20 Z" id="Shape" fill="#64D2CA" fill-rule="nonzero"></path>
            <path d="M45.5,20 C45.2234853,20 45,20.2587629 45,20.5789259 L45,25.789463 L45,30.4210741 C45,30.7412371 45.2234853,31 45.5,31 C45.7765147,31 46,30.7412371 46,30.4210741 L46,20.5789259 C46,20.2587629 45.7765147,20 45.5,20 Z" id="Shape" fill="#64D2CA" fill-rule="nonzero"></path>
            <path d="M43.8800743,25.6339649 L41.2907244,22.2055798 C41.1507348,22.0204336 40.920948,21.9536069 40.7163227,22.0341605 C40.511632,22.1164552 40.3750408,22.3312649 40.3750408,22.5718545 L40.3750408,25.4288645 L18.6249592,25.4288645 L18.6249592,22.5713189 C18.6249592,22.3307293 18.4883027,22.1159195 18.2836773,22.0342275 C18.0789867,21.9525355 17.849788,22.0199649 17.7092756,22.2056468 L15.1199257,25.6345676 C15.0401931,25.7402984 15,25.8705369 15,26.0002397 C15,26.1299424 15.0401277,26.2602479 15.1199257,26.3665144 L17.7092756,29.7948995 C17.8096603,29.9274816 17.9563161,30 18.1068931,30 C18.166039,30 18.2257078,29.9885497 18.2831545,29.9657161 C18.4878452,29.8834215 18.6244363,29.6686118 18.6244363,29.4286248 L18.6244363,26.5716149 L40.3744527,26.5716149 L40.3744527,29.4286248 C40.3744527,29.6692144 40.5111092,29.8840242 40.7157345,29.9657161 C40.7731812,29.9885497 40.8328499,30 40.8919959,30 C41.0425729,30 41.1892287,29.9274147 41.2902015,29.7948995 L43.8795514,26.3665144 C43.9598723,26.2602479 44,26.1305451 44,26.0002397 C44,25.8699343 43.9598069,25.7402984 43.8800743,25.6339649 Z M17.5893499,27.8504293 L16.1917414,26.0002397 L17.5893499,24.15005 L17.5893499,27.8504293 Z M41.4105847,27.8504293 L41.4105847,24.15005 L42.8081932,26.0002397 L41.4105847,27.8504293 Z" id="Shape" fill="#64D2CA" fill-rule="nonzero"></path>
        </g>
    </g>
</svg>