<?xml version="1.0" encoding="UTF-8"?>
<svg width="62px" height="62px" viewBox="0 0 62 62" version="1.1" xmlns="http://www.w3.org/2000/svg" xmlns:xlink="http://www.w3.org/1999/xlink">
    <!-- Generator: Sketch 48.2 (47327) - http://www.bohemiancoding.com/sketch -->
    <title>people</title>
    <desc>Created with Sketch.</desc>
    <defs></defs>
    <g id="icons" stroke="none" stroke-width="1" fill="none" fill-rule="evenodd">
        <g id="people" transform="translate(1.000000, 1.000000)">
            <circle id="Oval-3" stroke="#64D2CA" fill="#FFFFFF" cx="30" cy="30" r="30"></circle>
            <g id="004-people" transform="translate(11.000000, 13.000000)" fill="#64D2CA" fill-rule="nonzero">
                <path d="M23.4775582,25 L21.5224418,25 C21.2339146,25 21,25.2238667 21,25.5 C21,25.7762 21.2339146,26 21.5224418,26 L23.4775582,26 C23.7660854,26 24,25.7762 24,25.5 C24,25.2238667 23.7660854,25 23.4775582,25 Z" id="Shape"></path>
                <path d="M36.6018596,18.9277953 L33.5170733,17.7319031 L31.9442787,16.1511208 C31.8432929,16.0496222 31.713152,15.9946596 31.5802164,15.9860812 L31.5802164,14.7282422 C32.3214835,13.9338655 32.8491473,12.9279131 33.0620709,11.7946509 C33.1942512,11.8006482 33.3277156,11.7899442 33.4593672,11.7629184 C34.2130971,11.6078236 34.7601725,10.9049247 34.7601725,10.0917211 L34.7601725,9.67654081 C34.7601725,9.20609429 34.5703616,8.77428861 34.2612862,8.46554147 C34.7615321,5.73107582 34.3495072,3.50266091 33.0644124,2.01115489 C31.8213888,0.568538268 29.8187438,-0.120999532 27.2732531,0.0173938851 C24.9215011,0.145159174 23.4033158,1.23272039 22.9223305,1.63059198 C22.6590273,1.66202087 22.2105207,1.75494108 21.7565757,2.02869131 C21.1273974,2.4081155 20.3774441,3.20514923 20.3774441,4.84742284 C20.3774441,6.28009457 20.6052475,7.47621453 20.7702085,8.15482054 C20.2173171,8.42553416 19.8474389,9.01220686 19.8474389,9.68291769 L19.8474389,10.0916451 C19.8474389,10.9048488 20.3945143,11.6077477 21.1482442,11.7628425 C21.2798958,11.7899442 21.4134356,11.8005723 21.5455404,11.794575 C21.758464,12.9278372 22.2862033,13.9337896 23.027395,14.7281662 L23.027395,15.9860053 C22.8944594,15.9945837 22.7642429,16.0495463 22.6633327,16.1510449 L21.090538,17.7318272 L18.0057517,18.9277194 C17.7388986,19.0311159 17.4839794,19.1652581 17.2481697,19.3262743 C16.9893984,19.5030049 16.9221753,19.8570734 17.0979373,20.1171589 C17.2075337,20.2793137 17.3857128,20.3666162 17.5669886,20.3666162 C17.676585,20.3666162 17.7873143,20.3346559 17.8848256,20.2681542 C18.0492579,20.1558756 18.2271349,20.0623481 18.4134713,19.9900768 L21.2763458,18.8801965 L23.4652517,22.1803064 C23.7365612,22.5894134 24.1714722,22.8518523 24.6582734,22.9002862 C24.7124296,22.9056761 24.7665857,22.9083332 24.8203642,22.9083332 C25.1021727,22.9083332 25.3755971,22.8338604 25.6176003,22.6962261 L25.1478693,33.4054321 C25.134047,33.7195692 25.3762769,33.9855002 25.6889022,33.9993168 C25.6973617,33.9996963 25.7058213,33.9998482 25.7142808,33.9998482 C26.0156519,33.9998482 26.2664168,33.7610949 26.2797859,33.4555362 L26.7157544,23.5151234 L27.8917815,23.5151234 L28.3277499,33.4555362 C28.341119,33.7611708 28.5918839,33.9998482 28.893255,33.9998482 C28.9017146,33.9998482 28.9101741,33.9996963 28.9186336,33.9993168 C29.2311834,33.9855002 29.4734133,33.7195692 29.4596665,33.4054321 L28.9899355,22.6962261 C29.2319387,22.8338604 29.5052876,22.9083332 29.7871716,22.9083332 C29.8409501,22.9083332 29.8951062,22.9056761 29.9492624,22.9002862 C30.4360636,22.8518523 30.8708991,22.5894134 31.1422841,22.1803064 L33.33119,18.8801965 L36.1940645,19.9900768 C36.5955905,20.145703 36.9412231,20.3940216 37.2129859,20.7038316 L35.2543758,22.6723887 C34.5467202,23.3836383 34.1570526,24.329238 34.1570526,25.3349627 L34.1570526,33.4305601 C34.1570526,33.7450008 34.4106878,33.9999241 34.7235397,33.9999241 C35.0363916,33.9999241 35.2900267,33.7450008 35.2900267,33.4305601 L35.2900267,25.3349627 C35.2900267,24.6334303 35.561865,23.9737271 36.055464,23.4776213 L37.7744123,21.7499431 C37.8434482,22.0044867 37.8757002,22.2720878 37.8648236,22.5456862 L37.4260605,33.4074818 C37.4133712,33.7216949 37.6565074,33.9867148 37.9690572,33.9995445 C37.9769125,33.9998482 37.9846923,34 37.992472,34 C38.294674,34 38.545741,33.760032 38.5580527,33.4537901 L38.9969668,22.5916909 C39.0612442,20.9804666 38.098745,19.5080912 36.6018596,18.9277953 Z M22.6544955,11.5598452 C22.5545671,11.0131798 22.0509224,10.6158396 21.5073214,10.6563024 C21.4643439,10.659415 21.4200824,10.6563784 21.3755188,10.6472685 C21.1502835,10.6009603 20.9804129,10.3620551 20.9804129,10.0917211 L20.9804129,9.68284177 C20.9804129,9.41873278 21.1560239,9.18081453 21.3801262,9.14126271 C21.5692573,9.10786002 21.7503821,9.17762609 21.8649636,9.32786228 C21.9689706,9.46413007 22.1077222,9.56160519 22.2661119,9.6095836 C22.498145,9.68003291 22.7539706,9.63865913 22.9506549,9.49912698 C23.3048981,9.24777174 23.6174479,8.94069474 23.8796181,8.58632256 C24.0663322,8.33398043 24.0140644,7.9773308 23.7630728,7.78974433 C23.5119302,7.60208194 23.1571583,7.65453935 22.9704442,7.90688149 C22.839699,8.08361208 22.6919591,8.24402091 22.5293396,8.38598234 C22.3497254,8.23157082 22.1398986,8.11997547 21.915041,8.05628261 C21.7694916,7.49587657 21.5104182,6.29527762 21.5104182,4.84727101 C21.5104182,3.97523306 21.7778756,3.36252145 22.3053128,3.02621709 C22.7168846,2.76377823 23.1524753,2.75330193 23.1521732,2.75322602 C23.2969673,2.75322602 23.4379093,2.69591004 23.5430493,2.59592971 C23.5568715,2.5828723 24.9494478,1.28396315 27.3342827,1.1543759 C29.5172971,1.03594818 31.2025583,1.58982551 32.2078085,2.75649037 C33.2209894,3.93241688 33.5583891,5.73775636 33.192363,7.99737241 C33.04062,7.99198243 32.874526,8.00352154 32.7091873,8.03123059 L32.1769916,6.7465935 C32.0683771,6.48453422 31.7839251,6.34302828 31.5106518,6.41461632 C31.4580062,6.42843288 26.2266117,7.76135204 24.0330983,5.01656192 C23.8372449,4.77143172 23.4807357,4.73225948 23.2366931,4.92918352 C22.9928015,5.12610756 22.9538272,5.48442732 23.1498317,5.72963343 C25.389797,8.5325746 29.8343788,7.92282368 31.3138919,7.62546382 L31.7254636,8.61881427 C31.9024342,9.0458373 32.3551706,9.2790488 32.8014114,9.17329892 C32.9845755,9.12995134 33.1595822,9.12896444 33.2252947,9.14202186 C33.4543821,9.18787464 33.6271229,9.41751814 33.6271229,9.67638898 L33.6271229,10.0916451 C33.6271229,10.3620551 33.4572523,10.6008843 33.232017,10.6471926 C33.1875289,10.6563784 33.1430408,10.659415 33.1002144,10.6562265 C32.556689,10.616447 32.0530442,11.013028 31.9530404,11.5598452 C31.5409399,13.8148304 29.5856532,15.4515622 27.3037679,15.4515622 C25.0218826,15.4515622 23.0665959,13.8148304 22.6544955,11.5598452 Z M25.1675075,21.6243793 C25.0238464,21.76877 24.856846,21.7758302 24.7699847,21.7671758 C24.6831989,21.7585974 24.5207304,21.718666 24.4080372,21.5487678 L22.202892,18.2242892 L23.0897086,17.3329687 L26.4750351,20.3102112 L25.1675075,21.6243793 Z M26.7656808,22.3764712 L26.7999721,21.5939373 L27.3036924,21.0876588 L27.8074127,21.5939373 L27.841704,22.3764712 L26.7656808,22.3764712 Z M27.3037679,19.5258553 L24.1603691,16.7614032 L24.1603691,15.6717163 C25.0743015,16.2558838 26.155612,16.5902903 27.3037679,16.5902903 C28.4519238,16.5902903 29.5333098,16.2558838 30.4472423,15.6717163 L30.4472423,16.7614032 L27.3037679,19.5258553 Z M30.1996497,21.5487678 C30.086881,21.7187419 29.9244125,21.7585974 29.8377022,21.7671758 C29.7507653,21.7758302 29.583765,21.76877 29.4401038,21.6243034 L28.1325762,20.3101353 L31.5179028,17.3328928 L32.4047194,18.2242132 L30.1996497,21.5487678 Z" id="Shape"></path>
                <path d="M17.7759188,21.9116712 L15.0388816,20.6981772 L13.5427113,19.1784438 C13.4424883,19.0765665 13.3136409,19.021908 13.1824765,19.0134056 L13.1824765,18.1176899 C14.4611606,17.2641826 15.3968743,15.9067546 15.6975433,14.2892434 C15.8447762,14.2959238 15.9934291,14.281576 16.1399146,14.2464276 C16.8571705,14.0740256 17.3777173,13.3758395 17.3777173,12.5863282 L17.3777173,12.1712275 C17.3777173,11.5944288 17.0959569,11.0755528 16.6594151,10.7711355 C16.7878141,10.2544611 16.8532842,9.72586811 16.8532842,9.19378305 C16.8532842,6.83496624 15.5979929,4.75733692 13.7058633,3.56441573 C13.6856842,1.59572378 12.0313694,0 9.99977959,0 C7.9681898,0 6.31387497,1.59572378 6.29369584,3.56441573 C4.40164099,4.75733692 3.14634974,6.83504215 3.14634974,9.19378305 C3.14634974,9.7242739 3.21137138,10.2513486 3.33902305,10.7665806 C2.90270545,11.0694797 2.62191662,11.5907849 2.62191662,12.1774525 L2.62191662,12.5863282 C2.62191662,13.3758395 3.14246339,14.0740256 3.85971929,14.2464276 C4.00620482,14.2816519 4.15478299,14.2959238 4.30209063,14.2892434 C4.60275964,15.9067546 5.53854802,17.2641826 6.81723212,18.1176899 L6.81723212,19.0134056 C6.68606778,19.021908 6.55722031,19.0765665 6.45699731,19.1784438 L4.96082706,20.6981772 L2.22386463,21.9116712 C0.831280573,22.5291601 -0.0610853193,23.9800389 0.00326367847,25.5220911 L0.334276119,33.4546299 C0.347056233,33.7605655 0.59525951,33.9999241 0.893910608,33.9999241 C0.901907522,33.9999241 0.909979173,33.9997723 0.918050824,33.9993927 C1.22738939,33.9861076 1.46744627,33.7206345 1.45436721,33.4064242 L1.12328003,25.4738095 C1.10197984,24.9626768 1.23277049,24.4667271 1.4786569,24.0398596 L2.94986482,25.833113 C3.41480689,26.3998151 3.67078286,27.1181186 3.67078286,27.8557043 L3.67078286,33.430565 C3.67078286,33.745003 3.92175143,33.9999241 4.2313142,33.9999241 C4.54087698,33.9999241 4.79184554,33.745003 4.79184554,33.430565 L4.79184554,27.8557043 C4.79184554,26.8522658 4.443494,25.8750938 3.81106517,25.1041816 L2.24703326,23.1977395 C2.3799913,23.1046683 2.52131993,23.0222251 2.67236444,22.9552685 L5.05768687,21.897627 L6.74331672,24.6767827 C6.90975716,24.9512137 7.18494067,25.1372803 7.4983898,25.1873839 C7.55474188,25.1964177 7.61124344,25.2008208 7.66752079,25.2008208 C7.92379572,25.2008208 8.17341901,25.1085846 8.37132394,24.9370177 L9.43947246,24.0112398 L9.43947246,33.4304891 C9.43947246,33.7449271 9.69044102,33.9998482 10.0000038,33.9998482 C10.3095666,33.9998482 10.5605351,33.7449271 10.5605351,33.4304891 L10.5605351,24.0113916 L11.6286089,24.9371695 C11.8265139,25.1087364 12.0761371,25.2009726 12.3324121,25.2009726 C12.3886147,25.2009726 12.445191,25.1964936 12.5015431,25.1875357 C12.8149922,25.1374321 13.0901757,24.9513656 13.2566161,24.6769345 L14.942246,21.8977029 L17.3275684,22.9553444 C17.4785382,23.022301 17.6199416,23.1047442 17.7528996,23.1978154 L16.1888677,25.1042575 C15.5564389,25.8750938 15.2080873,26.8523417 15.2080873,27.8557802 L15.2080873,33.4306409 C15.2080873,33.745079 15.4590559,34 15.7686187,34 C16.0781814,34 16.32915,33.745079 16.32915,33.4306409 L16.32915,27.8557802 C16.32915,27.1181945 16.5852007,26.399891 17.050068,25.8331889 L18.521276,24.0399355 C18.7671624,24.466803 18.897953,24.9627528 18.8766528,25.4738854 L18.5456404,33.4065001 C18.5325613,33.7206345 18.7726182,33.9861076 19.0819568,33.9994686 C19.0900284,33.9998482 19.0980253,34 19.106097,34 C19.4047481,34 19.6529514,33.7607173 19.6657315,33.4547058 L19.9967439,25.522167 C20.0610182,23.9801149 19.1685775,22.5291601 17.7759188,21.9116712 Z M9.99992906,1.13871821 C11.1924408,1.13871821 12.1985572,1.91145238 12.4960872,2.95846581 C11.722255,2.66179176 10.8802622,2.4986514 9.99992906,2.4986514 C9.11959591,2.4986514 8.2776031,2.66179176 7.5037709,2.95846581 C7.80130094,1.91145238 8.80734258,1.13871821 9.99992906,1.13871821 Z M5.39946151,14.0545915 C5.30065852,13.507779 4.80148668,13.1105941 4.26442292,13.1509806 C4.21681513,13.1543968 4.16763784,13.1502974 4.11801214,13.1383029 C3.90426285,13.0869088 3.74305404,12.8495999 3.74305404,12.5863282 L3.74305404,12.1774525 C3.74305404,11.9133458 3.91681875,11.6754296 4.13856495,11.6358781 C4.32570768,11.6024757 4.5048535,11.6723171 4.61815556,11.8224002 C4.72106912,11.9587427 4.85836193,12.056217 5.01523597,12.1043468 C5.24475486,12.1747955 5.49804029,12.133422 5.6925073,11.9938152 C6.03771987,11.7463338 6.34294787,11.4446494 6.59974596,11.0972644 C6.78561815,10.8458354 6.73561875,10.4888852 6.48808811,10.3001617 C6.24048274,10.1113622 5.88914169,10.162149 5.7032695,10.413578 C5.57614099,10.5855244 5.43301866,10.7418325 5.27562146,10.8806802 C5.03578878,10.6723707 4.74169667,10.5419495 4.4297423,10.502398 C4.32234449,10.0735567 4.26741242,9.63499839 4.26741242,9.19385896 C4.26741242,6.13009967 6.83898073,3.63744552 9.99992906,3.63744552 C13.1608027,3.63744552 15.732371,6.13002376 15.732371,9.19385896 C15.732371,9.63416333 15.6777378,10.0718107 15.5707137,10.4998928 C15.4231819,10.5118114 15.2732584,10.5363318 15.1344709,10.5729226 L14.7131008,10.2209828 C14.5013694,10.0441019 14.2348554,9.95558552 13.9651278,9.97190715 C13.1412214,10.0213275 8.92169098,10.1345161 6.75684421,7.50286242 C6.55834137,7.26160599 6.20490768,7.22941823 5.96731713,7.43104726 C5.72972658,7.6326763 5.69811261,7.99175211 5.89661544,8.23300854 C6.96431554,9.53091955 8.53029063,10.4085676 10.5509687,10.8415842 C12.09811,11.173103 13.4734297,11.1409153 14.0122871,11.1097144 L14.6696783,11.6588043 C14.8506178,11.8099502 15.1043517,11.8312822 15.306965,11.711489 C15.4020312,11.6588802 15.720413,11.6086248 15.85935,11.6367891 C16.0860289,11.6825656 16.2568788,11.912283 16.2568788,12.1712275 L16.2568788,12.5863282 C16.2568788,12.8496758 16.09567,13.0869847 15.8819207,13.1383029 C15.8323698,13.1502215 15.7831177,13.1545486 15.7355099,13.1509047 C15.1987451,13.1112773 14.6992743,13.507779 14.6003966,14.0545156 C14.1926287,16.3095572 12.2578988,17.9462748 10.0000038,17.9462748 C7.74203409,17.9462748 5.80722938,16.3095572 5.39946151,14.0545915 Z M7.67566718,24.0431239 L5.98973838,21.2634369 L6.85340507,20.3861684 L9.17460272,22.7439224 L7.67566718,24.0431239 Z M9.99992906,21.9717955 L7.93836953,19.8777686 L7.93836953,18.6998785 C8.58193425,18.9487264 9.2773668,19.084993 9.99992906,19.084993 C10.7224913,19.084993 11.4179239,18.9487264 12.0614886,18.6999545 L12.0614886,19.8777686 L9.99992906,21.9717955 Z M12.3241909,24.0431239 L10.8252554,22.7439224 L13.1464531,20.3861684 L14.0101197,21.2634369 L12.3241909,24.0431239 Z" id="Shape"></path>
                <path d="M8.37586685,28 L6.62413315,28 C6.27944521,28 6,28.2238667 6,28.5 C6,28.7761333 6.27944521,29 6.62413315,29 L8.37586685,29 C8.72055479,29 9,28.7761333 9,28.5 C9,28.2238667 8.72055479,28 8.37586685,28 Z" id="Shape"></path>
            </g>
        </g>
    </g>
</svg>