<?xml version="1.0" encoding="UTF-8"?>
<svg width="62px" height="62px" viewBox="0 0 62 62" version="1.1" xmlns="http://www.w3.org/2000/svg" xmlns:xlink="http://www.w3.org/1999/xlink">
    <!-- Generator: Sketch 49.1 (51147) - http://www.bohemiancoding.com/sketch -->
    <title>practice</title>
    <desc>Created with Sketch.</desc>
    <defs></defs>
    <g id="icons" stroke="none" stroke-width="1" fill="none" fill-rule="evenodd">
        <g id="text" transform="translate(-148.000000, -525.000000)">
            <g id="practice" transform="translate(149.000000, 526.000000)">
                <circle id="Oval-2" stroke="#64D2CA" fill="#FFFFFF" cx="30" cy="30" r="30"></circle>
                <path d="M47.9281539,45.1156 L43.7281179,37.3156 C43.623717,37.1212 43.4209152,37 43.2001133,37 L39.1680787,37 L41.2680967,34.375 C41.3538975,34.2682 41.4000979,34.1362 41.4000979,34 L41.4000979,32.2 C41.4000979,32.1754 41.3910978,32.1532 41.3880978,32.1292 L46.5631422,28.6792 C47.47335,28.0726 47.9065537,26.9518 47.6413515,25.891 C47.4223496,25.0126 46.6369428,24.4 45.7321351,24.4 C45.0727294,24.4 44.4607242,24.7276 44.094721,25.276 L43.3615147,26.3758 L39.7662838,28.9438 L35.9058507,22.8778 C35.8734504,22.8268 35.8338501,22.7818 35.7888497,22.744 C35.7834497,22.7392 35.7756496,22.7368 35.7696495,22.732 C35.7222491,22.6948 35.6700487,22.666 35.6136482,22.6444 C35.6046481,22.6408 35.5980481,22.6336 35.589048,22.6306 L33.150627,21.8182 C33.150627,21.8182 33.150027,21.8182 33.150027,21.8176 L32.3010198,21.535 L32.1186182,20.8 L33.6000309,20.8 C35.585448,20.8 37.2000618,19.1854 37.2000618,17.2 C37.2000618,13.2298 33.9702341,10 30,10 C26.0297659,10 22.7999382,13.2298 22.7999382,17.2 C22.7999382,19.1854 24.414552,20.8 26.3999691,20.8 L27.8813818,20.8 L27.6977802,21.535 L26.8487729,21.8176 C26.8487729,21.8176 26.8481729,21.8176 26.8481729,21.8182 L24.409752,22.6306 C24.4019519,22.6336 24.3959519,22.6396 24.3881518,22.6426 C24.3275513,22.6654 24.2711508,22.6954 24.2207504,22.7362 C24.2177504,22.7386 24.2135503,22.7398 24.2111503,22.7422 C24.1661499,22.7806 24.1259496,22.825 24.0935493,22.8772 L20.2595164,28.9018 L17.2504905,26.3944 L16.5052841,25.276 C16.139281,24.7276 15.5272757,24.4 14.8678701,24.4 L14.6452682,24.4 C13.8952617,24.4 13.2202559,24.817 12.8860531,25.486 L12.8506528,25.5568 C12.2668478,26.725 12.646051,28.1524 13.7326603,28.876 L18.6119022,32.1292 C18.6089022,32.1532 18.5999021,32.1754 18.5999021,32.2 L18.5999021,34 C18.5999021,34.1362 18.6461025,34.2682 18.7313033,34.375 L20.8319213,37 L16.7998867,37 C16.5790848,37 16.376283,37.1212 16.2718821,37.3156 L12.0718461,45.1156 C11.9716452,45.3016 11.9764453,45.5266 12.0850462,45.7078 C12.1930471,45.889 12.3886488,46 12.5998506,46 L47.4001494,46 C47.6113512,46 47.8069529,45.889 47.9149538,45.7078 C48.0235547,45.5266 48.0283548,45.3016 47.9281539,45.1156 Z M40.2000876,33.7894 L38.0220689,36.5122 L36.8208586,37.0528 L36.639657,37.1344 L33.5538305,38.5228 L31.6698143,37.6858 L31.0416089,37.4068 L36.2484536,32.2 L37.3500631,32.2 L38.3262715,32.2 L40.2000876,32.6686 L40.2000876,33.7894 Z M33.025226,31.7722 L33.1536271,32.2 L26.8463729,32.2 L26.974774,31.7722 C26.9915742,31.7164 26.9999742,31.6582 26.9999742,31.6 L26.9999742,31 L33.0000258,31 L33.0000258,31.6 C33.0000258,31.6582 33.0084258,31.7164 33.025226,31.7722 Z M26.9999742,33.4 L33.0000258,33.4 L33.0000258,33.7516 L30,36.7516 L26.9999742,33.7516 L26.9999742,33.4 Z M35.6436485,24.7 L39.0936781,30.1222 C39.1824788,30.2614 39.3240801,30.3574 39.4854814,30.3886 C39.6480828,30.421 39.8148843,30.3832 39.9486854,30.2884 L44.1487215,27.2884 C44.208122,27.2458 44.2591224,27.1936 44.2993228,27.133 L45.0931296,25.942 C45.2359308,25.7278 45.4753329,25.6 45.7321351,25.6 C46.0849381,25.6 46.3915407,25.8388 46.4767415,26.1814 C46.6195427,26.752 46.3867407,27.3544 45.8971365,27.6808 L40.251088,31.4446 L38.5452734,31.018 C38.497873,31.006 38.4492725,31 38.4000721,31 L37.6944661,31 L35.1564443,26.6488 L35.6436485,24.7 Z M36.3054541,31 L36.0000515,31 C35.8410501,31 35.6880488,31.063 35.5758479,31.1758 L34.4400381,32.3116 L34.2000361,31.5124 L34.2000361,30.4744 L34.7394407,28.3162 L36.3054541,31 Z M26.3999691,19.6006 L26.3999691,19.6 C25.0763577,19.6 23.9999485,18.5236 23.9999485,17.2 C23.9999485,13.8916 26.6915716,11.2 30,11.2 C33.3084284,11.2 36.0000515,13.8916 36.0000515,17.2 C36.0000515,18.5236 34.9236423,19.6 33.6000309,19.6 L32.7732238,19.6 C32.793624,19.5796 32.8110241,19.5562 32.8308243,19.5358 C32.906425,19.4566 32.9796256,19.3756 33.0498262,19.2904 C33.0780264,19.2562 33.1056267,19.2214 33.1326269,19.186 C33.2022275,19.0966 33.2688281,19.0048 33.3324286,18.91 C33.3552288,18.8764 33.377429,18.8428 33.3990292,18.808 C33.4632297,18.7066 33.5238303,18.6016 33.5814307,18.4942 C33.5982309,18.463 33.615631,18.4318 33.6318312,18.4 C33.6900317,18.286 33.7428321,18.1684 33.7926326,18.049 C33.8046327,18.0202 33.8172328,17.992 33.8286329,17.9632 C33.8778333,17.839 33.9210337,17.7118 33.960634,17.5822 C33.9690341,17.554 33.9792342,17.527 33.9876342,17.4988 C34.0254346,17.3686 34.0566348,17.2354 34.0842351,17.1004 C34.0902351,17.071 34.0980352,17.0428 34.1040352,17.0128 C34.1292355,16.879 34.1478356,16.7428 34.1628357,16.6048 C34.1664358,16.573 34.1724358,16.5424 34.1754358,16.5106 C34.191036,16.3426 34.2000361,16.1722 34.2000361,16 C34.2000361,15.2986 34.0668349,14.617 33.8046327,13.9738 C33.7128319,13.7476 33.49263,13.6 33.2490279,13.6 L26.7509721,13.6 C26.50737,13.6 26.2877681,13.7476 26.1953673,13.9738 C25.9331651,14.617 25.7999639,15.2986 25.7999639,16 C25.7999639,16.1728 25.808964,16.3426 25.8245642,16.5106 C25.8275642,16.5412 25.8335642,16.5712 25.8365643,16.6018 C25.8521644,16.7404 25.8701645,16.8778 25.8959648,17.0128 C25.9013648,17.0422 25.9097649,17.071 25.9157649,17.1004 C25.9433652,17.2354 25.9751654,17.3686 26.0123658,17.4988 C26.0207658,17.527 26.0303659,17.554 26.039366,17.5822 C26.0789663,17.7118 26.1221667,17.839 26.1713671,17.9632 C26.1827672,17.992 26.1953673,18.0202 26.2073674,18.049 C26.2571679,18.169 26.3105683,18.2866 26.3681688,18.4006 C26.384369,18.4324 26.4011691,18.463 26.4179692,18.4942 C26.4755697,18.6016 26.5361703,18.7066 26.6009708,18.8086 C26.622571,18.8428 26.6453712,18.877 26.6675714,18.9106 C26.7311719,19.0054 26.7977725,19.0972 26.8673731,19.1866 C26.8949733,19.222 26.9219736,19.2568 26.9501738,19.291 C27.0203744,19.3762 27.093575,19.4572 27.1691757,19.5364 C27.1889759,19.5574 27.206376,19.5802 27.2267762,19.6006 L26.3999691,19.6006 Z M27.5723792,18.1036 C27.5657791,18.0952 27.559779,18.0862 27.553779,18.0772 C27.4703783,17.9368 27.3959776,17.7886 27.3305771,17.635 C27.323977,17.6194 27.317977,17.6032 27.3113769,17.5876 C27.2489764,17.437 27.1949759,17.2816 27.1505755,17.1208 C27.1487755,17.1148 27.1469755,17.1094 27.1451755,17.1034 C27.1019751,16.9438 27.0707749,16.7794 27.0461746,16.6126 C27.0413746,16.579 27.0371746,16.5448 27.0329745,16.5106 C27.0137744,16.3426 26.9999742,16.1728 26.9999742,16 C26.9999742,15.589 27.0587747,15.187 27.1745757,14.8 L32.8254243,14.8 C32.9412253,15.187 33.0000258,15.589 33.0000258,16 C33.0000258,16.1728 32.9862256,16.3426 32.9664255,16.51 C32.9622254,16.5442 32.9580254,16.5784 32.9532254,16.612 C32.9292251,16.7788 32.8974249,16.9438 32.8542245,17.1028 C32.8524245,17.1088 32.8506245,17.1142 32.8488245,17.1202 C32.8044241,17.281 32.7504236,17.4364 32.6880231,17.587 C32.681423,17.6026 32.675423,17.6188 32.6688229,17.6344 C32.6028223,17.788 32.5284217,17.9362 32.445621,18.0766 C32.440221,18.0856 32.4342209,18.0946 32.4288209,18.1036 C32.2548194,18.3916 32.0454176,18.6502 31.8060155,18.8668 C31.8018155,18.8704 31.7976154,18.8746 31.7934154,18.8782 C31.5570134,19.09 31.2912111,19.2598 31.0038086,19.3834 C30.8472073,19.4506 30.6888059,19.5046 30.5292045,19.5394 C30.5232045,19.5406 30.5172044,19.5418 30.5106044,19.543 C30.1722015,19.615 29.8283985,19.615 29.4899956,19.543 C29.4839956,19.5418 29.4779955,19.5412 29.4719955,19.5394 C29.3123941,19.504 29.1533927,19.4506 28.9973914,19.3834 C28.7093889,19.2598 28.4435866,19.09 28.2077846,18.8782 C28.2035846,18.8746 28.1993845,18.8704 28.1951845,18.8668 C27.9557824,18.6496 27.7463807,18.3916 27.5723792,18.1036 Z M28.3895862,22.5694 C28.5839878,22.5046 28.7321891,22.3444 28.7819895,22.1458 L29.1437926,20.6992 C29.420395,20.7646 29.7065975,20.8 30,20.8 C30.2934025,20.8 30.579605,20.7646 30.8562074,20.6992 L31.2180105,22.1458 C31.2678109,22.345 31.4160122,22.5046 31.6104138,22.5694 L32.2200191,22.7728 C31.9302166,23.389 31.3098112,23.8 30.6000052,23.8 L29.3999948,23.8 C28.6901888,23.8 28.0697834,23.389 27.7799809,22.7728 L28.3895862,22.5694 Z M26.6465712,23.1508 C27.1001751,24.2506 28.1645842,25 29.3999948,25 L30.6000052,25 C31.8354158,25 32.8998249,24.2506 33.3546288,23.1508 L34.6836402,23.5936 L33.9336338,26.5942 L33.9336338,26.5948 L33.1314269,29.8 L26.8685731,29.8 L26.0675662,26.5948 L26.0675662,26.5942 L25.3175598,23.5936 L26.6465712,23.1508 Z M25.7999639,30.4744 L25.7999639,31.5124 L25.5599619,32.3122 L24.4241521,31.1758 C24.3119512,31.063 24.1589499,31 23.9999485,31 L23.6945459,31 L25.2605593,28.3156 L25.7999639,30.4744 Z M14.3980661,27.8776 C13.813661,27.4882 13.6102593,26.7214 13.923462,26.095 L13.9588623,26.0242 C14.0890634,25.7626 14.3524657,25.6 14.6452682,25.6 L14.8678701,25.6 C15.1252723,25.6 15.3640743,25.7278 15.5068756,25.942 L16.3006824,27.133 C16.3324827,27.181 16.371483,27.2242 16.4158834,27.2608 L20.0159143,30.2608 C20.1485154,30.3718 20.3201169,30.4186 20.4923184,30.3928 C20.6627198,30.3664 20.8133211,30.2674 20.9057219,30.1222 L24.3557515,24.7 L24.8429557,26.6488 L22.3055339,31 L21.5999279,31 C21.5507275,31 21.502127,31.006 21.4541266,31.018 L19.748312,31.4446 L14.3980661,27.8776 Z M19.7999124,33.7894 L19.7999124,32.6686 L21.6737285,32.2 L22.6499369,32.2 L23.7515464,32.2 L25.4219607,33.8704 L25.9757655,34.4242 L29.5757964,38.0242 C29.5817964,38.0302 29.5895965,38.0326 29.5955965,38.038 C29.6429969,38.0818 29.6951974,38.1214 29.7557979,38.1484 L33.3096284,39.7282 C33.3102284,39.7282 33.3108284,39.7288 33.3108284,39.7294 L34.4676384,40.243 L33.4080293,41.656 L30.2460021,40.2328 L26.7323719,38.6518 L26.2199675,38.4214 L23.1791414,37.0528 L21.9779311,36.5122 L19.7999124,33.7894 Z M28.5377874,40.78 L26.5919707,41.656 L25.5317616,40.243 L26.4431695,39.838 L28.5377874,40.78 Z M13.6042592,44.8 L17.1580897,38.2 L22.8041382,38.2 L24.9743569,39.1768 L24.3557515,39.4516 C24.2501506,39.499 24.17155,39.5806 24.1091494,39.6748 L21.9839312,40.8892 C21.6563284,41.0764 21.4397265,41.398 21.3899261,41.7718 C21.3401257,42.1456 21.4643267,42.5128 21.730729,42.7792 L22.0577318,43.1062 C22.5191358,43.5676 23.132341,43.81 23.7545464,43.81 C24.1187495,43.81 24.4865527,43.7266 24.8285556,43.5562 L26.1071666,42.9166 C26.1089666,42.9172 26.1101666,42.9178 26.1119666,42.919 C26.1329668,42.9304 26.153967,42.9382 26.1755672,42.9472 C26.2343677,42.9712 26.2949682,42.985 26.3579687,42.9898 C26.3729689,42.9916 26.385569,43 26.3999691,43 C26.4065691,43 26.4137692,42.9958 26.4203693,42.9958 C26.4965699,42.9934 26.5727706,42.9802 26.6459712,42.9472 L30,41.4382 L33.3540288,42.9478 C33.4266294,42.9808 33.5034301,42.9934 33.5796307,42.9964 C33.5862308,42.9958 33.5928308,43 33.6000309,43 C33.614431,43 33.6270311,42.9916 33.6414313,42.9904 C33.7050318,42.9856 33.7656323,42.9718 33.8244328,42.9478 C33.846033,42.9388 33.8670332,42.931 33.8874334,42.9196 C33.8892334,42.919 33.8910334,42.9184 33.8922334,42.9172 L35.1708444,43.5562 C35.5128473,43.7272 35.8800505,43.81 36.2448536,43.81 C36.867059,43.81 37.4802642,43.5676 37.9416682,43.1062 L38.268671,42.7792 C38.5350733,42.5128 38.6592743,42.1456 38.6094739,41.7718 C38.5596735,41.398 38.3430716,41.0764 38.0154688,40.8892 L35.8902506,39.6748 C35.8704504,39.6448 35.8530503,39.616 35.82845,39.5902 C35.7750496,39.5344 35.7156491,39.484 35.6436485,39.4516 L35.0250431,39.1768 L37.1958618,38.2 L42.8419103,38.2 L46.3957408,44.8 L13.6042592,44.8 Z M25.3253599,41.9668 L24.292151,42.4834 C23.829547,42.7144 23.2721422,42.6238 22.9067391,42.2584 L22.5797363,41.9314 L24.4829526,40.8436 L25.3253599,41.9668 Z M34.6746401,41.9662 L35.5170474,40.8436 L37.4202637,41.9308 L37.0932609,42.2578 C36.7278578,42.6238 36.170453,42.7144 35.707849,42.4828 L34.6746401,41.9662 Z" id="Shape" fill="#64D2CA" fill-rule="nonzero"></path>
            </g>
        </g>
    </g>
</svg>