<?xml version="1.0" encoding="UTF-8"?>
<svg width="62px" height="62px" viewBox="0 0 62 62" version="1.1" xmlns="http://www.w3.org/2000/svg" xmlns:xlink="http://www.w3.org/1999/xlink">
    <!-- Generator: Sketch 48.2 (47327) - http://www.bohemiancoding.com/sketch -->
    <title>stuff</title>
    <desc>Created with Sketch.</desc>
    <defs></defs>
    <g id="icons" stroke="none" stroke-width="1" fill="none" fill-rule="evenodd">
        <g id="stuff" transform="translate(1.000000, 1.000000)">
            <circle id="Oval-2" stroke="#64D2CA" fill="#FFFFFF" cx="30" cy="30" r="30"></circle>
            <g transform="translate(14.000000, 11.000000)" fill="#64D2CA" fill-rule="nonzero" id="Shape">
                <path d="M32.9428114,21.4599581 L29.7993608,9.12662475 C29.738933,8.87998266 29.6784344,8.63326829 29.6180066,8.3866262 C29.3762245,7.33827082 29.1343715,6.22827299 28.5298809,5.24163234 C26.732915,2.166736 23.2126585,0.170474276 19.5150856,0.0114902119 C19.361147,0.000433592903 19.2096878,0 19.0389598,0 L14.0214678,0 C13.8402552,0 13.6804367,0.000289061935 13.5035455,0.013585911 C9.8212035,0.185794559 6.31809059,2.17837075 4.47011883,5.24170461 C3.86562818,6.22834526 3.62377525,7.33834309 3.38199316,8.38669846 C3.32156535,8.63334056 3.26106669,8.88005492 3.20063888,9.12669702 L0.0571883348,21.4599581 C-0.184593756,22.4465987 0.359469079,23.4949541 1.32666828,23.7415962 L3.6842739,24.3582376 C4.65147311,24.6048797 5.67917096,24.0498808 5.92095306,23.0632401 L8.45991295,13.6282585 C8.52034077,13.5049014 8.64126723,13.5666161 8.64126723,13.6282585 L8.64126723,18.4999639 C7.97634877,18.4999639 7.43228594,19.0549628 7.43228594,19.7333189 L7.43228594,20.9666739 C7.43228594,21.64503 7.97634877,22.2000289 8.64133807,22.2000289 L8.64133807,35.1500036 C8.64133807,36.198359 9.427183,37 10.4548809,37 L22.5451897,37 C23.5728876,37 24.3587325,36.198359 24.3587325,35.1500036 L24.3587325,22.1999566 C25.0237218,22.1999566 25.5677846,21.6449577 25.5677846,20.9666016 L25.5677846,19.7332466 C25.5677846,19.0548905 25.0237218,18.4998916 24.3587325,18.4998916 L24.3587325,13.6282585 C24.3587325,13.5666161 24.5400868,13.5666161 24.5400868,13.6282585 L27.0790467,23.0632401 C27.3208287,23.8648811 28.0462459,24.41988 28.8321616,24.41988 C29.0135159,24.41988 29.1344424,24.3582376 29.3157967,24.3582376 L31.6734023,23.7415962 C32.6405306,23.4333117 33.1845935,22.4465987 32.9428114,21.4599581 Z M18.9399921,1 C18.9600418,1 18.9799503,1.00083265 19,1.00097143 L16.469996,10 L14,1 L18.9399921,1 Z M18,20 L18,22 L18,24 L17,24 L17,20 L18,20 Z M16,24.199993 L16,26 L15,26 L15,21.800007 L15,20 L15.4000117,20 L15.5000293,20 L16,20 L16,24.199993 Z M8.52374346,12.0185984 C7.90295314,12.0185984 7.40627722,12.4548607 7.22003285,13.0158006 L4.61261163,22.5517794 C4.55055442,22.863437 4.17806568,23.050417 3.86763414,22.9880416 L1.44645729,22.3647994 C1.13602575,22.3024971 0.949781378,21.9285371 1.01191134,21.6168795 L4.24012288,9.15152348 C4.30218009,8.90224119 4.36431005,8.65288586 4.42636726,8.40360358 C4.67466884,7.40640139 4.86091321,6.47150152 5.35758912,5.59890395 C6.89352318,3.12068889 9.73826048,1.37344868 12.8208959,1 L16,12.8208594 L14.893301,18.3759176 L14.1731319,18.3759176 L9.82745407,18.3759176 L9.82745407,13.3274583 C9.82745407,12.6418407 9.26872095,12.0185984 8.52374346,12.0185984 Z M9,20 L9.62498169,20 L14,20 L14,21 L9.62498169,21 L9,21 L9,20 Z M23,35.3636601 C23,35.745479 22.763659,36 22.4091129,36 L10.5908871,36 C10.236341,36 10,35.745479 10,35.3636601 L10,22 L13.5454608,22 L13.5454608,25.8181886 C13.5454608,26.5182147 14.07728,27.090943 14.7273042,27.090943 L15.9091476,27.090943 C16.5591718,27.090943 17.0909909,26.5182147 17.0909909,25.8181886 L17.0909909,24.5454342 L18.2726958,24.5454342 C18.92272,24.5454342 19.4545392,23.9727059 19.4545392,23.2726798 L19.4545392,22 L23,22 L23,35.3636601 Z M25,21 L24.3750183,21 L20,21 L20,20 L24.3750183,20 L25,20 L25,21 Z M31.5571161,22.368263 L29.1551861,22.9881309 C28.8472223,23.0500959 28.4776946,22.8641282 28.4161307,22.5542306 L25.8294368,13.069881 C25.6446729,12.4500131 25.1519453,12.0780778 24.5360898,12.0780778 C23.8585983,12.0780778 23.2427429,12.6979457 23.2427429,13.3798513 L23.2427429,18.2769749 L18.9316105,18.2769749 L16.4680444,18.2769749 L16,18.2769749 L17.083972,12.8219483 L20.2711484,1 C23.3549725,1.38326768 26.1526292,3.13012856 27.6155114,5.69321302 C28.108239,6.49904858 28.3545668,7.49092442 28.6008945,8.48272762 C28.6624584,8.73066026 28.7240945,8.97866554 28.7856584,9.22659818 L31.9882077,21.6243924 C32.0497716,21.9343627 31.8650078,22.306298 31.5571161,22.368263 Z"></path>
            </g>
        </g>
    </g>
</svg>