<?xml version="1.0" encoding="UTF-8"?>
<svg width="63px" height="63px" viewBox="0 0 63 63" version="1.1" xmlns="http://www.w3.org/2000/svg" xmlns:xlink="http://www.w3.org/1999/xlink">
    <!-- Generator: Sketch 48.2 (47327) - http://www.bohemiancoding.com/sketch -->
    <title>table</title>
    <desc>Created with Sketch.</desc>
    <defs></defs>
    <g id="icons" stroke="none" stroke-width="1" fill="none" fill-rule="evenodd">
        <g id="table" transform="translate(1.000000, 1.000000)">
            <circle id="Oval-5" stroke="#64D2CA" fill="#FFFFFF" cx="30.5" cy="30.5" r="30.5"></circle>
            <path d="M33.1025039,39.946414 L31.7555318,39.946414 L31.7555318,27.7544394 L36.3950515,27.7544394 C36.8393892,27.7544394 37.2008865,27.3868382 37.2008865,26.9350697 L37.2008865,25.5679489 L40.194165,25.5679489 C40.6385027,25.5679489 41,25.2003477 41,24.7485792 L41,22.8193697 C41,22.3675348 40.6385027,22 40.194165,22 L19.805835,22 C19.3614973,22 19,22.3676012 19,22.8193697 L19,24.7485792 C19,25.2004141 19.3614973,25.5679489 19.805835,25.5679489 L22.7991135,25.5679489 L22.7991135,26.9350697 C22.7991135,27.3868382 23.1606108,27.7544394 23.6049485,27.7544394 L28.2444682,27.7544394 L28.2444682,39.9464804 L26.8974961,39.9464804 C25.6850908,39.9464804 24.6987028,40.9487214 24.6987028,42.1806303 C24.6987028,42.6324652 25.0602001,43 25.5045378,43 L30.8865555,43 C31.1567979,43 31.3757705,42.7771028 31.3757705,42.5021652 C31.3757705,42.2272276 31.1567979,42.0043304 30.8865555,42.0043304 L25.6895264,42.0043304 C25.7741279,41.4046717 26.2835639,40.94215 26.8975613,40.94215 L33.1026996,40.94215 C33.7166318,40.94215 34.226133,41.4046717 34.3107346,42.0043304 L32.7861448,42.0043304 C32.5159025,42.0043304 32.2969298,42.2272276 32.2969298,42.5021652 C32.2969298,42.7771028 32.5159025,43 32.7861448,43 L34.4957231,43 C34.9400608,43 35.3015581,42.6323988 35.3015581,42.1806303 C35.3012972,40.9486551 34.3149092,39.946414 33.1025039,39.946414 Z M30.7771018,39.946414 L29.222833,39.946414 L29.222833,27.7544394 L30.7771018,27.7544394 L30.7771018,39.946414 Z M28.7336832,26.7587698 L23.7776088,26.7587698 L23.7776088,25.5680153 L25.1029249,25.5680153 C25.3731673,25.5680153 25.5921399,25.3451181 25.5921399,25.0701805 C25.5921399,24.7952429 25.3731673,24.5723457 25.1029249,24.5723457 L19.9783648,24.5723457 L19.9783648,22.9956696 L40.0213742,22.9956696 L40.0213742,24.5723457 L27.0025795,24.5723457 C26.7323371,24.5723457 26.5133645,24.7952429 26.5133645,25.0701805 C26.5133645,25.3451181 26.7323371,25.5680153 27.0025795,25.5680153 L36.2224565,25.5680153 L36.2224565,26.7587698 L31.266382,26.7587698 L28.7336832,26.7587698 Z" id="Shape" fill="#64D2CA" fill-rule="nonzero"></path>
            <path d="M22.6666788,30.6076509 L17.2532531,30.6076509 L17.2532531,20.6676931 C17.2532531,19.1967222 16.1288053,18 14.7466502,18 C14.334947,18 14,18.3567747 14,18.7952378 L14,32.6510849 C14,33.1394759 14.2329278,33.5709813 14.586671,33.8264186 L14.586671,35.0227542 C14.586671,35.4027212 14.8383346,35.7208421 15.173342,35.7991161 L15.173342,42.5168273 C15.173342,42.7836675 15.3762322,43 15.6266265,43 C15.8770209,43 16.079911,42.7836675 16.079911,42.5168273 L16.079911,38.9386435 L21.6267232,38.9386435 L21.6267232,42.5168273 C21.6267232,42.7836675 21.8296134,43 22.0800077,43 C22.3304021,43 22.5332922,42.7836675 22.5332922,42.5168273 L22.5332922,35.799245 C22.8682997,35.720971 23.1199633,35.4027857 23.1199633,35.0228831 L23.1199633,33.98593 C23.6326582,33.7880225 24,33.2643921 24,32.6511493 L24,32.027019 C24,31.2442792 23.4019062,30.6076509 22.6666788,30.6076509 Z M21.6267232,37.9724914 L16.079911,37.9724914 L16.079911,35.8181209 L21.6267232,35.8181209 L21.6267232,37.9724914 Z M22.2133943,34.8517111 L15.49324,34.8517111 L15.49324,34.0705174 L22.2133943,34.0705174 L22.2133943,34.8517111 Z M23.093431,32.6510849 C23.093431,32.900853 22.9020241,33.1041076 22.6666788,33.1041076 L15.3333212,33.1041076 C15.0979759,33.1041076 14.906569,32.900853 14.906569,32.6510849 L14.906569,18.9747204 C15.7140198,19.0603386 16.3466841,19.7868371 16.3466841,20.6676287 L16.3466841,31.0907592 C16.3466841,31.3575993 16.5495742,31.5739319 16.7999686,31.5739319 L22.6666788,31.5739319 C22.9020241,31.5739319 23.093431,31.7771865 23.093431,32.0269546 L23.093431,32.6510849 Z" id="Shape" fill="#64D2CA" fill-rule="nonzero"></path>
            <path d="M46.2534102,18 C44.8712551,18 43.7467469,19.196716 43.7467469,20.6676794 L43.7467469,30.6075859 L38.3333212,30.6075859 C37.5981542,30.6075859 37,31.2443398 37,32.0269467 L37,32.6510738 C37,33.2643779 37.3673418,33.7879411 37.8800367,33.9858476 L37.8800367,35.0227953 C37.8800367,35.4027604 38.1317003,35.7208797 38.4667078,35.7991532 L38.4667078,42.5168298 C38.4667078,42.7836686 38.6695979,43 38.9199923,43 C39.1703866,43 39.3732768,42.7836686 39.3732768,42.5168298 L39.3732768,38.9386644 L44.920089,38.9386644 L44.920089,42.5168298 C44.920089,42.7836686 45.1229791,43 45.3733735,43 C45.6237678,43 45.826658,42.7836686 45.826658,42.5168298 L45.826658,35.7991532 C46.1616654,35.7208797 46.413329,35.402696 46.413329,35.0227953 L46.413329,33.8264659 C46.7670722,33.5709655 47,33.1394623 47,32.6511382 L47,18.7952338 C47.0000604,18.3567729 46.6651134,18 46.2534102,18 Z M44.9201494,37.9723884 L39.3733372,37.9723884 L39.3733372,35.8180291 L44.9201494,35.8180291 L44.9201494,37.9723884 Z M45.5068204,34.8516242 L38.7866662,34.8516242 L38.7866662,34.0704346 L45.5068204,34.0704346 L45.5068204,34.8516242 Z M46.0934914,32.6511382 C46.0934914,32.900905 45.9020845,33.1041586 45.6667392,33.1041586 L38.3333817,33.1041586 C38.0980364,33.1041586 37.9066294,32.900905 37.9066294,32.6511382 L37.9066294,32.0269467 C37.9066294,31.7771799 38.0980364,31.5739263 38.3333817,31.5739263 L44.2000919,31.5739263 C44.4504862,31.5739263 44.6533764,31.3575949 44.6533764,31.0907561 L44.6533764,20.6676794 C44.6533764,19.7869567 45.2860407,19.0603976 46.0934914,18.9747798 L46.0934914,32.6511382 Z" id="Shape" fill="#64D2CA" fill-rule="nonzero"></path>
        </g>
    </g>
</svg>