<?xml version="1.0" encoding="UTF-8"?>
<svg width="62px" height="62px" viewBox="0 0 62 62" version="1.1" xmlns="http://www.w3.org/2000/svg" xmlns:xlink="http://www.w3.org/1999/xlink">
    <!-- Generator: Sketch 49.1 (51147) - http://www.bohemiancoding.com/sketch -->
    <title>therm</title>
    <desc>Created with Sketch.</desc>
    <defs></defs>
    <g id="icons" stroke="none" stroke-width="1" fill="none" fill-rule="evenodd">
        <g id="text" transform="translate(-287.000000, -525.000000)">
            <g id="therm" transform="translate(288.000000, 526.000000)">
                <circle id="Oval-2" stroke="#64D2CA" fill="#FFFFFF" cx="30" cy="30" r="30"></circle>
                <g id="icon" transform="translate(14.000000, 15.000000)" fill="#64D2CA" fill-rule="nonzero">
                    <polygon id="Shape" points="8.00001187 18 5.99998813 18 5.99998813 20 4 20 4 21.9999288 5.99998813 21.9999288 5.99998813 24 8.00001187 24 8.00001187 21.9999288 10 21.9999288 10 20 8.00001187 20"></polygon>
                    <polygon id="Shape" points="3.66664491 14 7.33332245 14 7.33332245 9.99997626 11 9.99997626 11 5.99995252 7.33332245 5.99995252 7.33332245 2 3.66664491 2 3.66664491 5.99995252 0 5.99995252 0 9.99997626 3.66664491 9.99997626"></polygon>
                    <path d="M23.9999695,5.00001892 C23.9999695,2.23827767 21.7616544,0 19.0000178,0 C16.2382388,0 13.9999593,2.23827767 13.9999593,5.00001892 L13.9999593,20.1132714 C12.7655941,21.3749821 12,23.0957426 12,25.0000234 C12,28.867159 15.1347307,32 19.0000534,32 C22.8671565,32 26,28.8671946 26,25.0000234 C26,23.0957426 25.2343703,21.3749464 24.0000051,20.1132714 L23.9999695,5.00001892 Z M19.0000178,30.0000067 C18.7929253,30.0000067 18.5898565,29.976577 18.3944788,29.9414326 C15.9219029,29.6366693 13.9999593,27.5547079 13.9999593,25.0000234 C13.9999593,23.3710586 14.7929355,21.9375069 15.9999542,21.0234664 L15.9999542,5.00001892 C15.9999542,3.34374329 17.3436696,2.00006454 18.9999822,2.00006454 C20.6562235,2.00006454 21.9999746,3.3437789 21.9999746,5.00001892 L21.9999746,21.0234664 C23.2089161,21.9375069 23.9999339,23.3710586 23.9999339,25.0000234 C23.9999695,27.7617646 21.7616188,30.0000067 19.0000178,30.0000067 Z" id="Shape"></path>
                    <path d="M20.0000475,22.183638 L20.0000475,8 L18.0000593,8 L18.0000593,22.1836024 C16.8378386,22.5957225 16,23.6952434 16,25.0000053 C16,26.6563192 17.3437109,28 19.0000178,28 C20.6562535,28 22,26.6563192 22,25.0000053 C22.0000356,23.695279 21.1620545,22.5977165 20.0000475,22.183638 Z" id="Shape"></path>
                    <polygon id="Shape" points="30 5.99998813 30 4 28.0000356 4 28.0000356 5.99998813 26 5.99998813 26 8.00001187 28.0000356 8.00001187 28.0000356 10 30 10 30 8.00001187 32 8.00001187 32 5.99998813"></polygon>
                </g>
            </g>
        </g>
    </g>
</svg>