<?xml version="1.0" encoding="UTF-8"?>
<svg width="62px" height="62px" viewBox="0 0 62 62" version="1.1" xmlns="http://www.w3.org/2000/svg" xmlns:xlink="http://www.w3.org/1999/xlink">
    <!-- Generator: Sketch 49.1 (51147) - http://www.bohemiancoding.com/sketch -->
    <title>timer</title>
    <desc>Created with Sketch.</desc>
    <defs></defs>
    <g id="icons" stroke="none" stroke-width="1" fill="none" fill-rule="evenodd">
        <g id="text" transform="translate(-489.000000, -525.000000)">
            <g id="timer" transform="translate(490.000000, 526.000000)">
                <circle id="Oval-2" stroke="#64D2CA" fill="#FFFFFF" cx="30" cy="30" r="30"></circle>
                <g id="icon" transform="translate(14.000000, 13.000000)" fill="#64D2CA" fill-rule="nonzero">
                    <path d="M21.147555,31.041726 C20.8415799,31.1131135 20.5296224,31.1765109 20.2199782,31.2299022 C19.410532,31.3708103 18.8753946,32.0996198 19.0251118,32.8580745 C19.0990532,33.231216 19.3254237,33.5420055 19.6327548,33.7448923 C19.9494981,33.9536036 20.3526259,34.047841 20.763411,33.9763042 C21.1321605,33.9122347 21.5037815,33.8368895 21.868463,33.7516875 C22.6677791,33.5654528 23.154739,32.8073715 22.9553287,32.0594457 C22.756397,31.3108478 21.9473497,30.8553419 21.147555,31.041726 Z" id="Shape"></path>
                    <path d="M30.3887225,12.9670759 C30.4825475,13.2850722 30.6616744,13.5446725 30.8879286,13.7240488 C31.2234066,13.9897706 31.6623785,14.0791769 32.0812962,13.9234006 C32.7836226,13.6611423 33.1641509,12.809447 32.9318088,12.020014 C32.8259513,11.6601337 32.708491,11.2991258 32.5833672,10.9476223 C32.3086248,10.1751845 31.5295195,9.79911445 30.8423053,10.1080896 C30.1558074,10.4169036 29.8212606,11.2933265 30.0962178,12.0660059 C30.2013591,12.3614492 30.2998395,12.6647056 30.3887225,12.9670759 Z" id="Shape"></path>
                    <path d="M25.6076455,29.2102189 C25.3355733,29.3578329 25.0547592,29.5007027 24.7718833,29.6345584 C24.0338494,29.9844131 23.7810755,30.7596917 24.2066264,31.3659394 C24.3221684,31.5308361 24.4760595,31.6656406 24.6532899,31.7686587 C25.1290657,32.0437575 25.7752268,32.0849648 26.3131858,31.8302662 C26.649503,31.6708593 26.9839233,31.5012862 27.3079523,31.3252066 C28.0183584,30.9394989 28.2138974,30.1531052 27.7443069,29.5690199 C27.2747989,28.9847313 26.318299,28.82424 25.6076455,29.2102189 Z" id="Shape"></path>
                    <path d="M33.985801,16.4247723 C33.9532977,15.6062677 33.2589895,14.9691948 32.4344287,15.0011516 C31.610906,15.0334255 30.9688267,15.7230723 31.0011702,16.5412597 C31.0135486,16.8540867 31.016743,17.1715923 31.0094757,17.4841021 C30.9978959,17.9973922 31.2507346,18.4549364 31.6436489,18.7299387 C31.8777203,18.8936079 32.1617845,18.99265 32.4698069,18.9996282 C33.2941282,19.0177872 33.9772559,18.3685819 33.995544,17.5496808 C34.0037696,17.1762708 34.0006551,16.7979444 33.985801,16.4247723 Z" id="Shape"></path>
                    <path d="M30.5077251,25.3148866 C29.9626359,24.7930879 29.1914634,24.934755 28.7832227,25.6289742 C28.6268808,25.8948311 28.4622411,26.157411 28.29365,26.4102439 C27.8530741,27.0706848 27.9153079,28.0626906 28.4329352,28.6252418 C28.4624386,28.6571715 28.4922714,28.6864964 28.5232236,28.7140568 C29.0378216,29.1769536 29.7530166,29.0705773 30.1690941,28.4476117 C30.3704156,28.14596 30.5666661,27.8322925 30.7534993,27.5147599 C31.1618058,26.8205407 31.0512996,25.8359292 30.5077251,25.3148866 Z" id="Shape"></path>
                    <path d="M32.0564851,21.0692896 C31.3472004,20.820736 30.5918535,21.2620191 30.3696037,22.0547361 C30.2845328,22.3575854 30.1902493,22.6618825 30.0884808,22.9599055 C29.8650076,23.6159583 30.0791245,24.3378093 30.569974,24.7246359 C30.660011,24.795341 30.7591886,24.8552673 30.8669307,24.9007952 C31.5613892,25.1969682 32.3390474,24.8075675 32.6037607,24.031099 C32.7246018,23.6767694 32.8367343,23.3147178 32.938143,22.954677 C33.1601768,22.1617992 32.7656259,21.3178431 32.0564851,21.0692896 Z" id="Shape"></path>
                    <path d="M14.6625323,31.2678658 C13.4243543,31.0468557 12.2366068,30.6705055 11.110324,30.1455883 C11.0969943,30.1386679 11.0850717,30.1307905 11.0710755,30.1244591 C10.805667,30.0002606 10.5407028,29.8672275 10.2838846,29.7282312 C10.2829959,29.7272005 10.2813667,29.7265379 10.2799597,29.725949 C9.80875597,29.4679812 9.34888244,29.1825529 8.90211641,28.8698848 C2.3874635,24.3075956 0.821079446,15.3267253 5.41048402,8.85021819 C6.40843181,7.44243872 7.6160997,6.26796398 8.96247018,5.33710091 C8.97905822,5.32561605 8.99564625,5.3142048 9.01208617,5.30264632 C13.7564852,2.05272387 20.1986395,1.83370159 25.2364393,5.17329434 L24.1544405,6.72750585 C23.8536344,7.16010245 24.0386946,7.47534728 24.5652905,7.42822988 L29.2652573,7.00991574 C29.7925197,6.96279835 30.1078404,6.50936702 29.9660275,6.00314949 L28.7039302,1.4823825 C28.5626357,0.975576004 28.2008833,0.914912356 27.8997809,1.34743533 L26.8152644,2.90532789 C23.118207,0.438069576 18.6839449,-0.502732322 14.2827108,0.256005009 C13.8394253,0.332276295 13.4023603,0.425627638 12.9712937,0.534292134 C12.9679613,0.534881102 12.9652953,0.535249207 12.9626294,0.535838174 C12.9459673,0.539887325 12.9290831,0.545261653 12.9128653,0.54975253 C9.11761271,1.51867762 5.8063011,3.71928092 3.4434694,6.85906645 C3.42354895,6.88255153 3.40303607,6.90552126 3.38422643,6.93106772 C3.30565544,7.03627204 3.22767689,7.14390584 3.15132751,7.25153964 C3.02647296,7.4279354 2.9033957,7.60874841 2.7856503,7.78956142 C2.77091361,7.81135321 2.75965745,7.83351312 2.7467721,7.85552577 C0.796937936,10.8593334 -0.143544171,14.3320328 0.0177448079,17.8674573 C0.0181150765,17.8790894 0.0174485931,17.8907951 0.0177448079,17.9027217 C0.0333701406,18.2480775 0.0609181204,18.5982186 0.0983152436,18.9429118 C0.100314694,18.9651454 0.105276292,18.9862009 0.109053031,19.0084345 C0.147709068,19.3550418 0.196214247,19.702459 0.257012342,20.0498026 C0.874916492,23.593767 2.55652812,26.782805 5.07635369,29.2641985 C5.08220393,29.2700145 5.08827633,29.2763459 5.09420063,29.2823829 C5.09627413,29.2846651 5.0985698,29.285843 5.10056925,29.287978 C5.77756826,29.951818 6.51395834,30.5658166 7.30685141,31.120992 C9.38183634,32.5745637 11.6923861,33.5353905 14.1737778,33.9780732 C14.9266819,34.1125786 15.6458915,33.6143121 15.7809655,32.8661762 C15.9159654,32.117525 15.4152142,31.4019295 14.6625323,31.2678658 Z" id="Shape"></path>
                    <path d="M16.1356351,6 C15.5082111,6 15,6.51097183 15,7.1403414 L15,18.5013252 L25.3435296,23.8726339 C25.5100074,23.9592278 25.6882639,24 25.8636695,24 C26.2744998,24 26.6713006,23.7752628 26.8730396,23.3831409 C27.1607558,22.8234836 26.9430368,22.1359326 26.3859101,21.8469094 L17.2699947,17.1126575 L17.2699947,7.1403414 C17.2699197,6.51097183 16.7623088,6 16.1356351,6 Z" id="Shape"></path>
                </g>
            </g>
        </g>
    </g>
</svg>