<?xml version="1.0" encoding="UTF-8" standalone="no"?>
<svg
   xmlns:dc="http://purl.org/dc/elements/1.1/"
   xmlns:cc="http://creativecommons.org/ns#"
   xmlns:rdf="http://www.w3.org/1999/02/22-rdf-syntax-ns#"
   xmlns:svg="http://www.w3.org/2000/svg"
   xmlns="http://www.w3.org/2000/svg"
   xmlns:sodipodi="http://sodipodi.sourceforge.net/DTD/sodipodi-0.dtd"
   xmlns:inkscape="http://www.inkscape.org/namespaces/inkscape"
   id="SvgjsSvg1000"
   version="1.1"
   width="16"
   height="16"
   viewBox="0 0 16 16"
   inkscape:version="0.91 r13725"
   sodipodi:docname="check.svg">
  <metadata
     id="metadata13">
    <rdf:RDF>
      <cc:Work
         rdf:about="">
        <dc:format>image/svg+xml</dc:format>
        <dc:type
           rdf:resource="http://purl.org/dc/dcmitype/StillImage" />
        <dc:title>Прямоугольник 8 копия 5</dc:title>
      </cc:Work>
    </rdf:RDF>
  </metadata>
  <sodipodi:namedview
     pagecolor="#ffffff"
     bordercolor="#666666"
     borderopacity="1"
     objecttolerance="10"
     gridtolerance="10"
     guidetolerance="10"
     inkscape:pageopacity="0"
     inkscape:pageshadow="2"
     inkscape:window-width="1920"
     inkscape:window-height="1018"
     id="namedview11"
     showgrid="false"
     inkscape:zoom="29.5"
     inkscape:cx="20.20339"
     inkscape:cy="8"
     inkscape:window-x="-8"
     inkscape:window-y="-8"
     inkscape:window-maximized="1"
     inkscape:current-layer="SvgjsSvg1000" />
  <title
     id="title3">Прямоугольник 8 копия 5</title>
  <desc
     id="desc5">Created with Avocode.</desc>
  <defs
     id="SvgjsDefs1001">
    <clipPath
       id="SvgjsClipPath1009">
      <path
         id="SvgjsPath1008"
         d="M1302 481V465H1318V481Z "
         fill="#ffffff" />
    </clipPath>
  </defs>
  <path
     id="SvgjsPath1007"
     d="M1302 481V465H1318V481Z "
     fill-opacity="0"
     fill="#ffffff"
     stroke-dasharray="0"
     stroke-linejoin="miter"
     stroke-linecap="butt"
     stroke-opacity="1"
     stroke="#d1d1d1"
     stroke-miterlimit="50"
     stroke-width="4"
     clip-path="url(&quot;#SvgjsClipPath1009&quot;)"
     transform="matrix(1,0,0,1,-1302,-465)" />
  <path fill="#7c7c7c"
     d="m 12.134483,3.9502117 c -0.202933,0 -0.375449,0.078221 -0.517503,0.2348026 L 6.6247594,9.6961753 4.387457,7.2216314 C 4.2454034,7.0650484 4.0728871,6.9868289 3.8699544,6.9868289 c -0.2029335,0 -0.37545,0.078219 -0.5175031,0.2348025 L 2.3175584,8.3624 C 2.1755053,8.518983 2.1045088,8.7091766 2.1045088,8.9328655 c 0,0.2236901 0.070997,0.4138812 0.2130496,0.5704642 l 2.7548055,3.0364573 1.0350053,1.140929 c 0.1420534,0.156583 0.3144569,0.234803 0.5173902,0.234803 0.2029331,0 0.3754495,-0.07822 0.5175028,-0.234803 L 8.1772677,12.539787 13.686879,6.4667133 c 0.142053,-0.1565824 0.213049,-0.3467753 0.213049,-0.5704653 0,-0.2236895 -0.071,-0.4138824 -0.213049,-0.5704647 L 12.651873,4.1850143 C 12.50982,4.028432 12.337416,3.9502117 12.134483,3.9502117 Z"
     id="path4"
     inkscape:connector-curvature="0" />
</svg>
