<?xml version="1.0" encoding="UTF-8" standalone="no"?>
<svg
   xmlns:dc="http://purl.org/dc/elements/1.1/"
   xmlns:cc="http://creativecommons.org/ns#"
   xmlns:rdf="http://www.w3.org/1999/02/22-rdf-syntax-ns#"
   xmlns:svg="http://www.w3.org/2000/svg"
   xmlns="http://www.w3.org/2000/svg"
   xmlns:sodipodi="http://sodipodi.sourceforge.net/DTD/sodipodi-0.dtd"
   xmlns:inkscape="http://www.inkscape.org/namespaces/inkscape"
   id="SvgjsSvg1281"
   version="1.1"
   width="35"
   height="37"
   viewBox="0 0 35 37"
   inkscape:version="0.91 r13725"
   sodipodi:docname="pin-copy-7.svg">
  <metadata
     id="metadata19">
    <rdf:RDF>
      <cc:Work
         rdf:about="">
        <dc:format>image/svg+xml</dc:format>
        <dc:type
           rdf:resource="http://purl.org/dc/dcmitype/StillImage" />
        <dc:title>pin copy 7</dc:title>
      </cc:Work>
    </rdf:RDF>
  </metadata>
  <sodipodi:namedview
     pagecolor="#ffffff"
     bordercolor="#666666"
     borderopacity="1"
     objecttolerance="10"
     gridtolerance="10"
     guidetolerance="10"
     inkscape:pageopacity="0"
     inkscape:pageshadow="2"
     inkscape:window-width="1920"
     inkscape:window-height="1018"
     id="namedview17"
     showgrid="false"
     inkscape:zoom="22.627417"
     inkscape:cx="2"
     inkscape:cy="18.709386"
     inkscape:window-x="-8"
     inkscape:window-y="-8"
     inkscape:window-maximized="1"
     inkscape:current-layer="SvgjsSvg1281" />
  <title
     id="title3">pin copy 7</title>
  <desc
     id="desc5">Created with Avocode.</desc>
  <defs
     id="SvgjsDefs1282">
    <linearGradient
       id="SvgjsLinearGradient1286"
       gradientUnits="userSpaceOnUse"
       x1="253"
       y1="247.4285"
       x2="255"
       y2="247.4285">
      <stop
         id="SvgjsStop1287"
         stop-opacity="1"
         stop-color="#ebebeb"
         offset="0" />
      <stop
         id="SvgjsStop1288"
         stop-opacity="1"
         stop-color="#a5a5a5"
         offset="1" />
    </linearGradient>
    <clipPath
       id="SvgjsClipPath1291">
      <path
         id="SvgjsPath1290"
         d="M252 266V229H256V266ZM253 231V264C253 264.552 253.448 264.857 254 264.857C254.552 264.857 255 264.552 255 264V231C255 230.448 254.552 230 254 230C253.448 230 253 230.448 253 231Z "
         fill="#ffffff" />
    </clipPath>
    <linearGradient
       gradientTransform="translate(-252.17281,-229.04556)"
       id="SvgjsLinearGradient1268"
       gradientUnits="userSpaceOnUse"
       x1="269.30008"
       y1="251.37"
       x2="269.30008"
       y2="230.71001">
      <stop
         id="SvgjsStop1269"
         stop-opacity="1"
         stop-color="#b6d27b"
         offset="0" />
      <stop
         id="SvgjsStop1270"
         stop-opacity="1"
         stop-color="#d2f076"
         offset="1" />
    </linearGradient>
    <mask
       id="SvgjsMask1275">
      <path
         style="fill:#ffffff"
         inkscape:connector-curvature="0"
         id="SvgjsPath1271"
         d="m 252.09,251.37 c 2.121,-0.572 31.411,-8.816 33.204,-9.33 1.608,-0.461 1.635,-1.56 0,-2.021 -2.49,-0.701 -31.67,-8.903 -33.13,-9.309 z" />
    </mask>
    <filter
       id="SvgjsFilter1273"
       width="2"
       height="2"
       x="-0.5"
       y="-0.5">
      <feGaussianBlur
         id="SvgjsFeGaussianBlur1274"
         stdDeviation="1.5 "
         result="SvgjsFeGaussianBlur1274Out"
         in="SourceGraphic" />
    </filter>
    <mask
       id="mask3369">
      <path
         style="fill:#ffffff"
         inkscape:connector-curvature="0"
         id="path3371"
         d="m 252.09,251.37 c 2.121,-0.572 31.411,-8.816 33.204,-9.33 1.608,-0.461 1.635,-1.56 0,-2.021 -2.49,-0.701 -31.67,-8.903 -33.13,-9.309 z" />
    </mask>
    <filter
       id="filter3373"
       width="2"
       height="2"
       x="-0.5"
       y="-0.5">
      <feGaussianBlur
         id="feGaussianBlur3375"
         stdDeviation="1.5 "
         result="SvgjsFeGaussianBlur1274Out"
         in="SourceGraphic" />
    </filter>
    <clipPath
       id="SvgjsClipPath1280">
      <path
         style="fill:#ffffff"
         inkscape:connector-curvature="0"
         id="SvgjsPath1279"
         d="m 252.09,251.37 c 2.121,-0.572 31.411,-8.816 33.204,-9.33 1.608,-0.461 1.635,-1.56 0,-2.021 -2.49,-0.701 -31.67,-8.903 -33.13,-9.309 z" />
    </clipPath>
  </defs>
  <path
     id="SvgjsPath1283"
     d="M254 230C254.552 230 255 230.448 255 231V264C255 264.552 254.552 264.857 254 264.857C253.448 264.857 253 264.552 253 264V231C253 230.448 253.448 230 254 230Z "
     fill="#b7b7b7"
     fill-opacity="1"
     transform="matrix(1,0,0,1,-252,-229)" />
  <path
     id="SvgjsPath1284"
     d="M254 230C254.552 230 255 230.448 255 231V264C255 264.552 254.552 264.857 254 264.857C253.448 264.857 253 264.552 253 264V231C253 230.448 253.448 230 254 230Z "
     fill="#b7b7b7"
     fill-opacity="1"
     transform="matrix(1,0,0,1,-252,-229)" />
  <path
     id="SvgjsPath1285"
     d="M254 230C254.552 230 255 230.448 255 231V264C255 264.552 254.552 264.857 254 264.857C253.448 264.857 253 264.552 253 264V231C253 230.448 253.448 230 254 230Z "
     fill="url(#SvgjsLinearGradient1286)"
     transform="matrix(1,0,0,1,-252,-229)" />
  <path
     id="SvgjsPath1289"
     d="M254 230C254.552 230 255 230.448 255 231V264C255 264.552 254.552 264.857 254 264.857C253.448 264.857 253 264.552 253 264V231C253 230.448 253.448 230 254 230Z "
     fill-opacity="0"
     fill="#ffffff"
     stroke-dasharray="0"
     stroke-linejoin="round"
     stroke-linecap="round"
     stroke-opacity="1"
     stroke="#9e9e9e"
     stroke-miterlimit="50"
     stroke-width="2"
     clip-path="url(&quot;#SvgjsClipPath1291&quot;)"
     transform="matrix(1,0,0,1,-252,-229)" />
  <path
     inkscape:connector-curvature="0"
     style="fill:#404040;fill-opacity:1"
     id="SvgjsPath1264"
     d="m -0.08281849,22.324449 c 2.12099999,-0.572 31.41099949,-8.816 33.20399949,-9.33 1.608,-0.461 1.635,-1.56 0,-2.021 -2.49,-0.701 -31.6699995,-8.9029999 -33.12999949,-9.3089999 z" />
  <path
     inkscape:connector-curvature="0"
     style="fill:#404040;fill-opacity:1"
     id="SvgjsPath1265"
     d="m -0.08281849,22.324449 c 2.12099999,-0.572 31.41099949,-8.816 33.20399949,-9.33 1.608,-0.461 1.635,-1.56 0,-2.021 -2.49,-0.701 -31.6699995,-8.9029999 -33.12999949,-9.3089999 z" />
  <path
     inkscape:connector-curvature="0"
     style="fill:#404040;fill-opacity:1"
     id="SvgjsPath1266"
     d="m -0.08281849,22.324449 c 2.12099999,-0.572 31.41099949,-8.816 33.20399949,-9.33 1.608,-0.461 1.635,-1.56 0,-2.021 -2.49,-0.701 -31.6699995,-8.9029999 -33.12999949,-9.3089999 z" />
  <path
     inkscape:connector-curvature="0"
     style="fill:url(#SvgjsLinearGradient1268)"
     id="SvgjsPath1267"
     d="m -0.08281849,22.324449 c 2.12099999,-0.572 31.41099949,-8.816 33.20399949,-9.33 1.608,-0.461 1.635,-1.56 0,-2.021 -2.49,-0.701 -31.6699995,-8.9029999 -33.12999949,-9.3089999 z" />
  <path
     inkscape:connector-curvature="0"
     style="fill:#ffffff;fill-opacity:0.7;stroke:#ffffff;stroke-width:0;stroke-opacity:0.7;filter:url(#SvgjsFilter1273)"
     id="SvgjsPath1272"
     d="m 249,255 0,-28 41,0 0,28 z m 3.09,-3.63 c 2.121,-0.572 31.411,-8.816 33.204,-9.33 1.608,-0.461 1.635,-1.56 0,-2.021 -2.49,-0.701 -31.67,-8.903 -33.13,-9.309 z"
     mask="url(#SvgjsMask1275)"
     transform="translate(-252.17281,-229.04556)" />
  <path
     inkscape:connector-curvature="0"
     style="fill:#ffffff;fill-opacity:0.7;stroke:#ffffff;stroke-width:0;stroke-opacity:0.7;filter:url(#SvgjsFilter1273)"
     id="SvgjsPath1277"
     d="m 249,255 0,-28 41,0 0,28 z m 3.09,-3.63 c 2.121,-0.572 31.411,-8.816 33.204,-9.33 1.608,-0.461 1.635,-1.56 0,-2.021 -2.49,-0.701 -31.67,-8.903 -33.13,-9.309 z"
     mask="url(#SvgjsMask1275)"
     transform="translate(-252.17281,-229.04556)" />
  <path
     inkscape:connector-curvature="0"
     style="fill:#ffffff;fill-opacity:0;stroke:#90b865;stroke-width:2;stroke-linecap:round;stroke-linejoin:round;stroke-miterlimit:50;stroke-dasharray:none;stroke-opacity:1"
     id="SvgjsPath1278"
     d="m 252.09,251.37 c 2.121,-0.572 31.411,-8.816 33.204,-9.33 1.608,-0.461 1.635,-1.56 0,-2.021 -2.49,-0.701 -31.67,-8.903 -33.13,-9.309 z"
     stroke-miterlimit="50"
     clip-path="url(#SvgjsClipPath1280)"
     transform="translate(-252.14156,-229.04556)" />
</svg>
