<?xml version="1.0" encoding="utf-8"?>
<!-- Generator: Adobe Illustrator 19.0.1, SVG Export Plug-In . SVG Version: 6.00 Build 0)  -->
<svg version="1.1" id="Слой_1" xmlns="http://www.w3.org/2000/svg" xmlns:xlink="http://www.w3.org/1999/xlink" x="0px" y="0px"
	 viewBox="220 350 159.3 041.9"  xml:space="preserve" width="165">
<style type="text/css">
	.st0{fill:#FFFFFF;}
	.st1{fill:#FFFFFF;stroke:#CECECE;stroke-width:0.25;stroke-miterlimit:10;}
	.st2{font-family:'DINPro-Bold';}
	.st3{font-size:22px;}
</style>
<g>

		<image style="overflow:visible;opacity:0.4;" width="54" height="53" xlink:href="D824A82.png"  transform="matrix(1 0 0 1 212.4961 344.3861)">
	</image>
	<g>
		<g>
			<g>
				<g>
					<path class="st0" d="M241.6,353.6l-13,13l4.6,4.6l2.3-2.2c0.4-3.2,2.6-5.3,5.7-5.7l7.1-7.2C246.3,354.9,244.1,354,241.6,353.6z
						"/>
				</g>
			</g>
			<g>
				<g>
					<path class="st0" d="M250,357.5l-6,6c3.1,0.7,5,3.2,5,6.8c0,1.3-0.8,3.2-1.7,5l5.4,5.4c2.1-2.9,3.4-6.4,3.4-10.2
						C256.1,365.3,253.8,360.6,250,357.5z"/>
				</g>
			</g>
			<g>
				<g>
					<path class="st0" d="M242.2,365.5c-3,0-4.7,1.8-4.7,4.9c0,1.3,1.6,4.9,4.7,9.1c2.8-3.9,4.7-7.6,4.7-9.1
						C246.9,367.2,245.2,365.5,242.2,365.5z M242,372.6c-1.2,0-2.2-1-2.2-2.2c0-1.2,1-2.2,2.2-2.2c1.2,0,2.2,1,2.2,2.2
						C244.3,371.6,243.3,372.6,242,372.6z"/>
				</g>
			</g>
			<g>
				<g>
					<path class="st0" d="M246.2,377.3c-1.4,2.3-2.9,4.2-3.2,4.6l-0.8,1.1l-0.8-1.1c-0.5-0.7-4.7-6.2-5.7-10l-9.8,9.7
						c3.1,3.7,7.9,6.1,13.1,6.1c4.9,0,9.3-2,12.4-5.3L246.2,377.3z"/>
				</g>
			</g>
			<g>
				<g>
					<path class="st0" d="M223.1,364.2c-0.8,2-1.2,4.1-1.2,6.4c0,3.4,1,6.6,2.7,9.3l7.1-7.1L223.1,364.2z"/>
				</g>
			</g>
			<g>
				<g>
					<path class="st0" d="M224.1,362.1l3,3l11.7-11.7C232.5,353.5,227,357,224.1,362.1z"/>
				</g>
			</g>
		</g>
	</g>
</g>
<g>

		<image style="overflow:visible;opacity:0.4;" width="123" height="44" xlink:href="D824A86.png"  transform="matrix(1 0 0 1 261.4961 349.3861)">
	</image>
	<g>
		<text transform="matrix(1 0 0 1 271 377.7232)" class="st1 st2 st3">MAXREST</text>
	</g>
</g>
</svg>
