<?xml version="1.0" encoding="UTF-8" standalone="no"?>
<svg
   xmlns:dc="http://purl.org/dc/elements/1.1/"
   xmlns:cc="http://creativecommons.org/ns#"
   xmlns:rdf="http://www.w3.org/1999/02/22-rdf-syntax-ns#"
   xmlns:svg="http://www.w3.org/2000/svg"
   xmlns="http://www.w3.org/2000/svg"
   xmlns:sodipodi="http://sodipodi.sourceforge.net/DTD/sodipodi-0.dtd"
   xmlns:inkscape="http://www.inkscape.org/namespaces/inkscape"
   id="SvgjsSvg1102"
   version="1.1"
   width="32"
   height="42"
   viewBox="-1 -1 34 42"
   inkscape:version="0.91 r13725"
   sodipodi:docname="marker.svg">
  <metadata
     id="metadata33">
    <rdf:RDF>
      <cc:Work
         rdf:about="">
        <dc:format>image/svg+xml</dc:format>
        <dc:type
           rdf:resource="http://purl.org/dc/dcmitype/StillImage" />
        <dc:title>marker copy</dc:title>
      </cc:Work>
    </rdf:RDF>
  </metadata>
  <sodipodi:namedview
     pagecolor="#ffffff"
     bordercolor="#666666"
     borderopacity="1"
     objecttolerance="10"
     gridtolerance="10"
     guidetolerance="10"
     inkscape:pageopacity="0"
     inkscape:pageshadow="2"
     inkscape:window-width="1920"
     inkscape:window-height="1018"
     id="namedview31"
     showgrid="false"
     inkscape:zoom="11.238095"
     inkscape:cx="16"
     inkscape:cy="24.915254"
     inkscape:window-x="-8"
     inkscape:window-y="-8"
     inkscape:window-maximized="1"
     inkscape:current-layer="SvgjsSvg1102" />
  <title
     id="title3">marker copy</title>
  <desc
     id="desc5">Created with Avocode.</desc>
  <defs
     id="SvgjsDefs1103">
    <filter
       id="SvgjsFilter1105"
       width="200%"
       height="200%"
       x="-50%"
       y="-50%">
      <feMorphology
         id="SvgjsFeMorphology1106"
         operator="dilate"
         radius="0"
         result="SvgjsFeMorphology1106Out"
         in="SourceGraphic" />
      <feOffset
         id="SvgjsFeOffset1107"
         dx="0"
         dy="1"
         result="SvgjsFeOffset1107Out"
         in="SvgjsFeMorphology1106Out" />
      <feGaussianBlur
         id="SvgjsFeGaussianBlur1108"
         stdDeviation="0 "
         result="SvgjsFeGaussianBlur1108Out"
         in="SvgjsFeOffset1107Out" />
      <feComposite
         id="SvgjsFeComposite1109"
         in="SvgjsFeGaussianBlur1108Out"
         in2="SourceAlpha"
         operator="out"
         result="SvgjsFeComposite1109Out" />
    </filter>
    <linearGradient
       id="SvgjsLinearGradient1115"
       gradientUnits="userSpaceOnUse"
       x1="266"
       y1="161.011"
       x2="266"
       y2="121.006">
      <stop
         id="SvgjsStop1116"
         stop-opacity="1"
         stop-color="#f6727e"
         offset="0" />
      <stop
         id="SvgjsStop1117"
         stop-opacity="1"
         stop-color="#ed5f6c"
         offset="1" />
    </linearGradient>
    <filter
       id="SvgjsFilter1120"
       width="200%"
       height="200%"
       x="-50%"
       y="-50%">
      <feGaussianBlur
         id="SvgjsFeGaussianBlur1121"
         stdDeviation="1.5 "
         result="SvgjsFeGaussianBlur1121Out"
         in="SourceGraphic" />
    </filter>
    <mask
       id="SvgjsMask1122">
      <path
         id="SvgjsPath1118"
         d="M250 136.867C250 128.106 257.163 121.00599999999999 266 121.00599999999999C274.836 121.00599999999999 282 128.106 282 136.867C282 145.62599999999998 266 161.011 266 161.011C266 161.011 250 145.626 250 136.867ZM255.733 136.068C255.733 141.68900000000002 260.33 146.246 266 146.246C271.67 146.246 276.267 141.68900000000002 276.267 136.068C276.267 130.447 271.67 125.89000000000001 266 125.89000000000001C260.33 125.89000000000001 255.733 130.447 255.733 136.068Z "
         fill="#ffffff" />
    </mask>
    <clipPath
       id="SvgjsClipPath1127">
      <path
         id="SvgjsPath1126"
         d="M250 136.867C250 128.106 257.163 121.00599999999999 266 121.00599999999999C274.836 121.00599999999999 282 128.106 282 136.867C282 145.62599999999998 266 161.011 266 161.011C266 161.011 250 145.626 250 136.867ZM255.733 136.068C255.733 141.68900000000002 260.33 146.246 266 146.246C271.67 146.246 276.267 141.68900000000002 276.267 136.068C276.267 130.447 271.67 125.89000000000001 266 125.89000000000001C260.33 125.89000000000001 255.733 130.447 255.733 136.068Z "
         fill="#ffffff" />
    </clipPath>
    <mask
       id="SvgjsMask1101">
      <path
         style="fill:#ffffff"
         inkscape:connector-curvature="0"
         id="SvgjsPath1097"
         d="m 265.733,123.776 c 6.701,0 12.134,5.385 12.134,12.028 0,6.643 -5.433,12.028 -12.134,12.028 -6.701,0 -12.133,-5.385 -12.133,-12.028 0,-6.643 5.432,-12.028 12.133,-12.028 z" />
    </mask>
    <filter
       id="SvgjsFilter1099"
       width="2"
       height="2"
       x="-0.5"
       y="-0.5">
      <feGaussianBlur
         id="SvgjsFeGaussianBlur1100"
         stdDeviation="2 "
         result="SvgjsFeGaussianBlur1100Out"
         in="SourceGraphic" />
    </filter>
    <filter
       id="SvgjsFilter1086"
       width="2"
       height="2"
       x="-0.5"
       y="-0.5">
      <feMorphology
         id="SvgjsFeMorphology1087"
         operator="dilate"
         radius="0"
         result="SvgjsFeMorphology1087Out"
         in="SourceGraphic" />
      <feOffset
         id="SvgjsFeOffset1088"
         dx="0"
         dy="1"
         result="SvgjsFeOffset1088Out"
         in="SvgjsFeMorphology1087Out" />
      <feGaussianBlur
         id="SvgjsFeGaussianBlur1089"
         stdDeviation="1 "
         result="SvgjsFeGaussianBlur1089Out"
         in="SvgjsFeOffset1088Out" />
      <feComposite
         id="SvgjsFeComposite1090"
         in="SvgjsFeGaussianBlur1089Out"
         in2="SourceAlpha"
         operator="out"
         result="SvgjsFeComposite1090Out" />
    </filter>
  </defs>
  <path
     id="SvgjsPath1104"
     d="M250 136.867C250 128.106 257.163 121.00599999999999 266 121.00599999999999C274.836 121.00599999999999 282 128.106 282 136.867C282 145.62599999999998 266 161.011 266 161.011C266 161.011 250 145.626 250 136.867ZM255.733 136.068C255.733 141.68900000000002 260.33 146.246 266 146.246C271.67 146.246 276.267 141.68900000000002 276.267 136.068C276.267 130.447 271.67 125.89000000000001 266 125.89000000000001C260.33 125.89000000000001 255.733 130.447 255.733 136.068Z "
     fill="#000000"
     fill-opacity="0.2"
     filter="url(#SvgjsFilter1105)"
     transform="matrix(1,0,0,1,-250,-121)" />
  <path
     id="SvgjsPath1110"
     d="M250 136.867C250 128.106 257.163 121.00599999999999 266 121.00599999999999C274.836 121.00599999999999 282 128.106 282 136.867C282 145.62599999999998 266 161.011 266 161.011C266 161.011 250 145.626 250 136.867ZM255.733 136.068C255.733 141.68900000000002 260.33 146.246 266 146.246C271.67 146.246 276.267 141.68900000000002 276.267 136.068C276.267 130.447 271.67 125.89000000000001 266 125.89000000000001C260.33 125.89000000000001 255.733 130.447 255.733 136.068Z "
     fill="#ececec"
     fill-opacity="0"
     transform="matrix(1,0,0,1,-250,-121)" />
  <path
     id="SvgjsPath1111"
     d="M250 136.867C250 128.106 257.163 121.00599999999999 266 121.00599999999999C274.836 121.00599999999999 282 128.106 282 136.867C282 145.62599999999998 266 161.011 266 161.011C266 161.011 250 145.626 250 136.867ZM255.733 136.068C255.733 141.68900000000002 260.33 146.246 266 146.246C271.67 146.246 276.267 141.68900000000002 276.267 136.068C276.267 130.447 271.67 125.89000000000001 266 125.89000000000001C260.33 125.89000000000001 255.733 130.447 255.733 136.068Z "
     fill="#ececec"
     fill-opacity="0"
     transform="matrix(1,0,0,1,-250,-121)" />
  <path
     id="SvgjsPath1112"
     d="M250 136.867C250 128.106 257.163 121.00599999999999 266 121.00599999999999C274.836 121.00599999999999 282 128.106 282 136.867C282 145.62599999999998 266 161.011 266 161.011C266 161.011 250 145.626 250 136.867ZM255.733 136.068C255.733 141.68900000000002 260.33 146.246 266 146.246C271.67 146.246 276.267 141.68900000000002 276.267 136.068C276.267 130.447 271.67 125.89000000000001 266 125.89000000000001C260.33 125.89000000000001 255.733 130.447 255.733 136.068Z "
     fill="#ececec"
     fill-opacity="0"
     transform="matrix(1,0,0,1,-250,-121)" />
  <path
     id="SvgjsPath1113"
     d="M250 136.867C250 128.106 257.163 121.00599999999999 266 121.00599999999999C274.836 121.00599999999999 282 128.106 282 136.867C282 145.62599999999998 266 161.011 266 161.011C266 161.011 250 145.626 250 136.867ZM255.733 136.068C255.733 141.68900000000002 260.33 146.246 266 146.246C271.67 146.246 276.267 141.68900000000002 276.267 136.068C276.267 130.447 271.67 125.89000000000001 266 125.89000000000001C260.33 125.89000000000001 255.733 130.447 255.733 136.068Z "
     fill="#ececec"
     fill-opacity="0"
     transform="matrix(1,0,0,1,-250,-121)" />
  <path
     id="SvgjsPath1114"
     d="M250 136.867C250 128.106 257.163 121.00599999999999 266 121.00599999999999C274.836 121.00599999999999 282 128.106 282 136.867C282 145.62599999999998 266 161.011 266 161.011C266 161.011 250 145.626 250 136.867ZM255.733 136.068C255.733 141.68900000000002 260.33 146.246 266 146.246C271.67 146.246 276.267 141.68900000000002 276.267 136.068C276.267 130.447 271.67 125.89000000000001 266 125.89000000000001C260.33 125.89000000000001 255.733 130.447 255.733 136.068Z "
     fill="url(#SvgjsLinearGradient1115)"
     transform="matrix(1,0,0,1,-250,-121)" />

  <path
     id="SvgjsPath1125"
     d="M250 136.867C250 128.106 257.163 121.00599999999999 266 121.00599999999999C274.836 121.00599999999999 282 128.106 282 136.867C282 145.62599999999998 266 161.011 266 161.011C266 161.011 250 145.626 250 136.867ZM255.733 136.068C255.733 141.68900000000002 260.33 146.246 266 146.246C271.67 146.246 276.267 141.68900000000002 276.267 136.068C276.267 130.447 271.67 125.89000000000001 266 125.89000000000001C260.33 125.89000000000001 255.733 130.447 255.733 136.068Z "
     fill-opacity="0"
     fill="#ffffff"
     stroke-dasharray="0"
     stroke-linejoin="round"
     stroke-linecap="round"
     stroke-opacity="1"
     stroke="#cf7b82"
     stroke-miterlimit="50"
     stroke-width="2"
     clip-path="url(&quot;#SvgjsClipPath1127&quot;)"
     transform="matrix(1,0,0,1,-250,-121)" />
  <path
     inkscape:connector-curvature="0"
     style="fill:#a84c54;fill-opacity:1"
     id="SvgjsPath1096"
     d="M 16.153415,4.4979462 C 22.320697,4.5575743 27.27018,9.2711617 27.207522,15.026259 27.144861,20.78136 22.093797,25.398252 15.926515,25.338622 9.7592354,25.278994 4.810672,20.565419 4.8733295,14.810321 4.9359869,9.0552209 9.9861335,4.4383173 16.153415,4.4979462 Z" />
  <path
     inkscape:connector-curvature="0"
     style="fill:#5d7a3e;fill-opacity:0.2;stroke:#5d7a3e;stroke-width:0;stroke-opacity:0.2;filter:url(#SvgjsFilter1099)"
     id="SvgjsPath1098"
     d="m 249,155 0,-39 33,0 0,39 z m 4.6,-16.196 c 0,6.643 5.432,12.028 12.133,12.028 6.701,0 12.134,-5.385 12.134,-12.028 0,-6.643 -5.433,-12.028 -12.134,-12.028 -6.701,0 -12.133,5.385 -12.133,12.028 z"
     mask="url(#SvgjsMask1101)"
     transform="matrix(0.86411312,0,0,0.86860212,-213.56082,-103.63627)" />
  <path
     inkscape:connector-curvature="0"
     style="fill:#536f37;fill-opacity:0.45;filter:url(#SvgjsFilter1086)"
     id="SvgjsPath1085"
     d="m 16.044732,8.1871872 1.944,3.4949998 3.955,0.753 -2.753,2.914 0.5,3.961 -3.646,-1.695 -3.646,1.695 0.5,-3.961 -2.753,-2.914 3.954,-0.753 1.945,-3.4949998" />
  <path
     inkscape:connector-curvature="0"
     style="fill:#ffffff;fill-opacity:1"
     id="SvgjsPath1091"
     d="m 16.044732,8.1871872 1.944,3.4949998 3.955,0.753 -2.753,2.914 0.5,3.961 -3.646,-1.695 -3.646,1.695 0.5,-3.961 -2.753,-2.914 3.954,-0.753 1.945,-3.4949998" />
  <path
     inkscape:connector-curvature="0"
     style="fill:#ffffff;fill-opacity:1"
     id="SvgjsPath1092"
     d="m 16.044732,8.1871872 1.944,3.4949998 3.955,0.753 -2.753,2.914 0.5,3.961 -3.646,-1.695 -3.646,1.695 0.5,-3.961 -2.753,-2.914 3.954,-0.753 1.945,-3.4949998" />
  <path
     inkscape:connector-curvature="0"
     style="fill:#ffffff;fill-opacity:0;stroke:#dedede;stroke-width:1;stroke-linecap:round;stroke-linejoin:round;stroke-miterlimit:50;stroke-dasharray:none;stroke-opacity:1"
     id="SvgjsPath1093"
     d="m 16.044732,8.1871872 1.944,3.4949998 3.955,0.753 -2.753,2.914 0.5,3.961 -3.646,-1.695 -3.646,1.695 0.5,-3.961 -2.753,-2.914 3.954,-0.753 1.945,-3.4949998"
     stroke-miterlimit="50" />
</svg>
