<?xml version="1.0" encoding="utf-8"?>
<!-- Generator: Adobe Illustrator 18.1.1, SVG Export Plug-In . SVG Version: 6.00 Build 0)  -->
<svg version="1.1" id="Layer_1" xmlns="http://www.w3.org/2000/svg" xmlns:xlink="http://www.w3.org/1999/xlink" x="0px" y="0px"
	 viewBox="0 0 448.3 184.7" enable-background="new 0 0 448.3 184.7" xml:space="preserve">
<path fill="#FFFFFF" d="M53.6,102.5h-15c-0.8,0-1.2,0.1-1.1-0.9v-1c0-6.5-1-9.6-10.4-9.6c-8.4,0-9.8,2.9-9.8,9.4v59.1
	c0,6.5,1.4,9.4,9.8,9.4c8.7,0,10.4-3.4,10.4-9.7v-1.2c0-0.3,0.1-0.8,0.6-0.7H54c0.5,0,0.7,0.2,0.7,0.7v1.2
	c0,17.6-8.5,25.4-27.6,25.4C8.3,184.7,0,177.1,0,160.3V99.7c0-17.1,8.1-24.4,27.1-24.4c19.4,0,27.6,7.6,27.6,25.3v1
	C54.8,102.2,54.6,102.5,53.6,102.5"/>
<path fill="#FFFFFF" d="M151.4,75.9h-15.6c-0.5,0-0.9,0.4-0.9,0.9v105.6c0,0.5,0.4,0.9,0.9,0.9h44.7c0.5,0,0.9-0.4,0.9-0.9V168
	c0-0.5-0.4-0.9-0.9-0.9h-27.4c-0.5,0-0.9-0.4-0.9-0.9V76.8C152.3,76.3,151.9,75.9,151.4,75.9"/>
<path fill="#FFFFFF" d="M278.8,100.1c0-6.4,1.5-9.4,9.8-9.4c8.9,0,10.4,2.9,10.4,9.4v59.1c0,6.1-1.7,9.4-10.4,9.4
	c-8.4,0-9.8-2.9-9.8-9.4V100.1z M288.6,75c-19,0-27.1,7.3-27.1,24.4v60.4c0,16.9,8.3,24.4,27.1,24.4c18.9,0,27-6.9,27-23.6l0.7-61.3
	C316.2,82.5,307.7,75,288.6,75"/>
<path fill="#FFFFFF" d="M431.9,76.9V129L414,76.7c-0.1-0.4-0.5-0.7-1-0.7h-15.3c-0.5,0-0.9,0.4-0.9,0.9l0,105.6
	c0,0.5,0.4,0.9,0.9,0.9h15.4c0.5,0,1-0.4,1-1l0-51.5l17.5,51.8c0.1,0.4,0.5,0.7,1,0.7h14.9c0.5,0,0.9-0.4,0.9-0.9l0-105.6
	c0-0.5-0.4-0.9-0.9-0.9h-14.7C432.2,76,431.9,76.4,431.9,76.9"/>
<path fill="#FFFFFF" d="M122.8,182.3L99.9,76.2c-0.1-0.8-0.5-0.8-0.8-0.8H85.1c-0.4,0-0.8,0.3-0.9,0.7L62.5,181.3l-0.2,0.8
	c-0.4,0.8,0.1,1.1,0.7,1.1h14.6c0.4,0,0.8-0.3,0.9-0.7l5.3-23.8l0.5-2.2c1.6-2.7,4.5-4.1,8.6-4.1c4.3,0,7,1.4,8.3,4.3l0.4,2
	l5.1,23.9c0.1,0.4,0.4,0.7,0.9,0.7H122C122.5,183.4,122.9,182.8,122.8,182.3z M88.2,136.3l3.8-25.6c0.1-0.7,1.1-0.7,1.2,0l3.8,25.6
	c0.1,0.4-0.2,0.7-0.6,0.6c-1.2-0.1-2.4-0.1-3.6-0.1c-1.4,0-2.7,0.1-4,0.2C88.5,137,88.2,136.7,88.2,136.3z"/>
<path fill="#FFFFFF" d="M230,112.8c-5.4-1.2-12.2-1.3-17.7-0.1c-0.4,0.1-0.7-0.2-0.7-0.6V76.9c0-0.5-0.4-0.9-0.9-0.9h-15.6
	c-0.5,0-0.9,0.4-0.9,0.9v105.5c0,0.5,0.4,0.9,0.9,0.9h15.6c0.5,0,0.9-0.4,0.9-0.9l0-46.4c0.4-5.8,3.3-8.4,9.2-8.4c6,0,9.5,3,9.9,8.5
	v45.9l0.1,1.3h16.4c0.5,0,0.9-0.4,0.9-0.9V76.9c0-0.5-0.4-0.9-0.9-0.9h-15.6c-0.5,0-0.9,0.4-0.9,0.9l0,35.4
	C230.7,112.6,230.3,112.9,230,112.8z"/>
<path fill="#FFFFFF" d="M366.2,158.5c0,6.5-3.4,9.9-10,9.9c-6.4,0-9.3-3-9.3-9.9V76.8c0-0.5-0.4-0.8-0.8-0.8h-15.6
	c-0.5,0-0.8,0.4-0.8,0.8v82.4c0,16,9.4,24.8,26.5,24.8c17.5,0,27.2-8.8,27.2-24.8V76.8c0-0.5-0.4-0.8-0.8-0.8H367
	c-0.5,0-0.8,0.4-0.8,0.8V158.5z"/>
<g>
	<path fill="#FFFFFF" d="M413.3,42.1c1.8,0.5,2.7-2,1.1-2.9C362.1,13.1,298.5,0,221.8,0c-75,0-138.3,13.4-189.2,39.2
		c-1.6,0.8-0.7,3.3,1.1,2.8C89.9,27.4,153,19.9,222.5,19.9C292.7,19.9,356.3,27.2,413.3,42.1z"/>
</g>
</svg>
