<?xml version="1.0" encoding="utf-8"?>
<!-- Generator: Adobe Illustrator 19.0.1, SVG Export Plug-In . SVG Version: 6.00 Build 0)  -->
<svg version="1.1" id="Слой_1" xmlns="http://www.w3.org/2000/svg" xmlns:xlink="http://www.w3.org/1999/xlink" x="0px" y="0px"
	 viewBox="17 20 60.1 44.1" style="enable-background:new 0 0 80.1 84.1;" xml:space="preserve" height="39px">
<style type="text/css">
	.st0{fill:#09AF54;}
</style>
<g>
	<g>
		<ellipse class="st0" cx="29.1" cy="47.9" rx="9.4" ry="8.8"/>
		<path class="st0" d="M19.8,49c0,0-2.8-11.3,14.9-21.7c4.1,0,3.1,0,3.1,0l0,0c0,0-6.4,3.6-7.9,12.5S22.8,50,22.8,50L19.8,49z"/>
	</g>
	<g>
		<ellipse class="st0" cx="51.1" cy="47.9" rx="9.4" ry="8.8"/>
		<path class="st0" d="M41.8,49c0,0-2.8-11.3,14.9-21.7c4.1,0,3.1,0,3.1,0l0,0c0,0-6.4,3.6-7.9,12.5C50.4,48.8,44.8,50,44.8,50
			L41.8,49z"/>
	</g>
</g>
</svg>
