<?xml version="1.0" encoding="iso-8859-1"?>
<!-- Generator: Adobe Illustrator 19.0.0, SVG Export Plug-In . SVG Version: 6.00 Build 0)  -->
<svg xmlns="http://www.w3.org/2000/svg" xmlns:xlink="http://www.w3.org/1999/xlink" version="1.1" id="Layer_1" x="0px" y="0px" viewBox="0 0 488.3 488.3" style="enable-background:new 0 0 488.3 488.3;" xml:space="preserve" width="107px" height="107px">
<g>
	<g>
		<path d="M432.55,86.7h-97c-3.3,0-6,2.7-6,6s2.7,6,6,6h97c13.2,0,23.9,10.7,23.9,23.9v249.3c0,13.2-10.7,23.9-23.9,23.9H55.75    c-13.2,0-23.9-10.7-23.9-23.9V122.7c0-13.2,10.7-23.9,23.9-23.9h98.5c3.3,0,6-2.7,6-6c0-3.3-2.7-6-6-6h-98.5    c-19.8,0-35.9,16.1-35.9,35.9V372c0,19.8,16.1,35.9,35.9,35.9h182.4v68.4h-87.4c-3.3,0-6,2.7-6,6s2.7,6,6,6h186.8c3.3,0,6-2.7,6-6    s-2.7-6-6-6h-87.4v-68.4h182.4c19.8,0,35.9-16.1,35.9-35.9V122.7C468.55,102.9,452.35,86.7,432.55,86.7z" fill="#09af54"/>
	</g>
</g>
<g>
	<g>
		<path d="M296.95,17.7c0-9.8-7.9-17.7-17.7-17.7h-69.8c-9.8,0-17.7,7.9-17.7,17.7v41.4c0,0.6,0.1,1.2,0.3,1.8    c-0.2,0.6-0.3,1.2-0.3,1.8v195.9h-0.2c0,0.2,0,0.3,0,0.5v0.1c0,0.3,0.1,0.5,0.1,0.7c0,0.1,0,0.1,0,0.2c0.1,0.2,0.1,0.4,0.2,0.6    c0,0,0,0.1,0.1,0.1c0.1,0.2,0.2,0.5,0.3,0.7c0,0,0,0.1,0.1,0.1c0.1,0.2,0.2,0.4,0.4,0.6c0,0,0,0.1,0.1,0.1l46.6,61.1    c1.1,1.5,2.9,2.4,4.8,2.4c1.9,0,3.6-0.9,4.8-2.4l46.6-61.1c0,0,0-0.1,0.1-0.1c0.1-0.2,0.3-0.4,0.4-0.6c0,0,0-0.1,0.1-0.1    c0.1-0.2,0.2-0.4,0.3-0.7c0,0,0-0.1,0.1-0.1c0.1-0.2,0.1-0.4,0.2-0.6c0-0.1,0-0.1,0-0.2c0.1-0.2,0.1-0.5,0.1-0.7v-0.1    c0-0.2,0-0.3,0-0.5V62.3c0-0.6-0.1-1.1-0.2-1.6c0.1-0.5,0.2-1,0.2-1.6V17.7z M244.15,309.8l-34.5-45.2h69L244.15,309.8z     M284.75,62.3v190.3h-81.2v-190c0-0.6-0.1-1.2-0.3-1.8c0.2-0.6,0.3-1.2,0.3-1.8V17.7c0-3.1,2.6-5.7,5.7-5.7h69.8    c3.1,0,5.7,2.6,5.7,5.7v41.4c0,0.6,0.1,1.1,0.2,1.6C284.85,61.2,284.75,61.7,284.75,62.3z" fill="#09af54"/>
	</g>
</g>
<g>
	<g>
		<path d="M244.15,33.2c-3.3,0-6,2.7-6,6v187.3c0,3.4,2.7,6,6,6s6-2.7,6-6V39.2C250.15,35.9,247.45,33.2,244.15,33.2z" fill="#09af54"/>
	</g>
</g>
<g>
</g>
<g>
</g>
<g>
</g>
<g>
</g>
<g>
</g>
<g>
</g>
<g>
</g>
<g>
</g>
<g>
</g>
<g>
</g>
<g>
</g>
<g>
</g>
<g>
</g>
<g>
</g>
<g>
</g>
</svg>
