<?xml version="1.0" encoding="utf-8"?>
<!-- Generator: Adobe Illustrator 19.0.1, SVG Export Plug-In . SVG Version: 6.00 Build 0)  -->
<svg version="1.1" id="Слой_1" xmlns="http://www.w3.org/2000/svg" xmlns:xlink="http://www.w3.org/1999/xlink" x="0px" y="0px"
	 viewBox="154 -74.5 412 412" style="enable-background:new 114 -114.5 512 512;" xml:space="preserve" width="107px">
<style type="text/css">
	.st0{fill:#09AF54;}
	.st1{fill:#FFFFFF;}
</style>
<path class="st0" d="M226.4,331.7h292.8c4.5,0,8.2-3.7,8.2-8.2V30.8c0-0.3,0-0.5,0-0.8c0-0.2-0.1-0.4-0.1-0.6c0-0.1,0-0.1,0-0.2
	c0-0.2-0.1-0.5-0.2-0.7c0,0,0,0,0-0.1c-0.1-0.2-0.2-0.5-0.2-0.7c0,0,0,0,0-0.1c-0.1-0.2-0.2-0.4-0.3-0.6c0,0,0-0.1,0-0.1
	c-0.1-0.2-0.2-0.4-0.3-0.5c0-0.1-0.1-0.1-0.1-0.2c-0.1-0.2-0.2-0.3-0.3-0.5c0-0.1-0.1-0.1-0.1-0.2c-0.1-0.2-0.3-0.3-0.4-0.5
	c0,0-0.1-0.1-0.1-0.1l-87.1-87.1c0,0-0.1-0.1-0.1-0.1c-0.1-0.1-0.3-0.3-0.5-0.4c-0.1,0-0.1-0.1-0.2-0.1c-0.2-0.1-0.3-0.2-0.5-0.3
	c0,0-0.1-0.1-0.2-0.1c-0.2-0.1-0.4-0.2-0.5-0.3c0,0-0.1,0-0.1,0c-0.2-0.1-0.4-0.2-0.6-0.3c0,0,0,0-0.1,0c-0.2-0.1-0.5-0.2-0.7-0.2
	c0,0,0,0-0.1,0c-0.2-0.1-0.5-0.1-0.7-0.2c-0.1,0-0.1,0-0.2,0c-0.2,0-0.4-0.1-0.6-0.1c-0.3,0-0.5,0-0.8,0H226.4
	c-4.5,0-8.2,3.7-8.2,8.2v379.9C218.3,328.1,221.9,331.7,226.4,331.7z M440.3-36.6l59.3,59.3h-59.3C440.3,22.6,440.3-36.6,440.3-36.6
	z M234.6-48.2h189.3v79c0,4.5,3.7,8.2,8.2,8.2h79v276.4H234.6V-48.2L234.6-48.2z"/>
<path class="st1" d="M519.2,335.2H226.4c-6.4,0-11.7-5.2-11.7-11.7V-56.4c0-6.4,5.2-11.7,11.7-11.7h205.7c0.4,0,0.8,0,1.2,0.1
	c0.2,0,0.5,0.1,0.8,0.1c0.1,0,0.2,0,0.3,0.1c0.3,0.1,0.6,0.1,0.9,0.2l0.2,0.1c0.3,0.1,0.6,0.2,0.8,0.3l0.2,0.1
	c0.3,0.1,0.6,0.3,0.8,0.4c0.1,0,0.1,0.1,0.2,0.1c0.3,0.2,0.5,0.3,0.8,0.5c0,0,0.1,0.1,0.2,0.1c0.3,0.2,0.5,0.3,0.7,0.5
	c0.1,0,0.2,0.1,0.3,0.2c0.2,0.2,0.4,0.3,0.6,0.5c0.1,0.1,0.2,0.2,0.2,0.2l87.2,87.2l0.1,0.2c0.2,0.2,0.3,0.4,0.5,0.6
	c0.1,0.1,0.1,0.2,0.2,0.3c0.2,0.2,0.3,0.4,0.5,0.7c0,0.1,0.1,0.2,0.2,0.3c0.1,0.2,0.3,0.4,0.4,0.7l0.1,0.2c0.1,0.3,0.3,0.5,0.4,0.8
	l0.1,0.2c0.1,0.3,0.2,0.6,0.3,0.9l0.1,0.2c0.1,0.3,0.2,0.6,0.2,0.9c0,0.1,0,0.2,0.1,0.3c0,0.2,0.1,0.5,0.1,0.8
	c0,0.4,0.1,0.8,0.1,1.2v292.8C530.9,330,525.7,335.2,519.2,335.2z M226.4-61c-2.6,0-4.7,2.1-4.7,4.7v379.9c0,2.6,2.1,4.7,4.7,4.7
	h292.8c2.6,0,4.7-2.1,4.7-4.7V30.8c0-0.2,0-0.3,0-0.5c0-0.1,0-0.2-0.1-0.3l0-0.2c0-0.1,0-0.2-0.1-0.3l-0.1-0.2
	c0-0.1-0.1-0.2-0.1-0.3l0-0.1c0-0.1-0.1-0.2-0.1-0.3l-0.1-0.1c-0.1-0.1-0.1-0.2-0.2-0.3l-0.1-0.1c-0.1-0.1-0.1-0.1-0.2-0.2
	c0,0-0.1-0.1-0.1-0.2c-0.1-0.1-0.1-0.2-0.2-0.2l-0.1-0.1l-87.2-87.1c-0.1-0.1-0.2-0.2-0.2-0.2L435-60c-0.1-0.1-0.2-0.1-0.2-0.2
	c-0.1,0-0.1-0.1-0.2-0.1c-0.1,0-0.1-0.1-0.2-0.1c0,0-0.1,0-0.1-0.1c-0.1,0-0.2-0.1-0.3-0.1l-0.1,0c-0.1,0-0.2-0.1-0.3-0.1l-0.1,0
	c-0.1,0-0.2-0.1-0.3-0.1l-0.2,0c-0.1,0-0.2,0-0.3-0.1c-0.2,0-0.3,0-0.5,0H226.4z M514.6,318.9H231.1V-51.7h196.3v82.5
	c0,2.6,2.1,4.7,4.7,4.7h82.5V318.9z M238.1,311.9h269.5V42.4h-75.5c-6.4,0-11.7-5.2-11.7-11.7v-75.5H238.1V311.9z M508,26.1h-71.2
	v-71.2L508,26.1z M443.8,19.1h47.3l-47.3-47.3V19.1z"/>
<g>
	<path class="st0" d="M460.7,81.2H285c-4.5,0-8.2,3.7-8.2,8.2s3.7,8.2,8.2,8.2h175.7c4.5,0,8.2-3.7,8.2-8.2S465.2,81.2,460.7,81.2z"
		/>
	<path class="st1" d="M460.7,101H285c-6.4,0-11.7-5.2-11.7-11.7c0-6.4,5.2-11.7,11.7-11.7h175.7c6.4,0,11.7,5.2,11.7,11.7
		C472.4,95.8,467.1,101,460.7,101z M285,84.7c-2.6,0-4.7,2.1-4.7,4.7s2.1,4.7,4.7,4.7h175.7c2.6,0,4.7-2.1,4.7-4.7s-2.1-4.7-4.7-4.7
		H285z"/>
</g>
<g>
	<path class="st0" d="M460.7,139.7H285c-4.5,0-8.2,3.7-8.2,8.2s3.7,8.2,8.2,8.2h175.7c4.5,0,8.2-3.7,8.2-8.2
		S465.2,139.7,460.7,139.7z"/>
	<path class="st1" d="M460.7,159.6H285c-6.4,0-11.7-5.2-11.7-11.7c0-6.4,5.2-11.7,11.7-11.7h175.7c6.4,0,11.7,5.2,11.7,11.7
		C472.4,154.3,467.1,159.6,460.7,159.6z M285,143.2c-2.6,0-4.7,2.1-4.7,4.7s2.1,4.7,4.7,4.7h175.7c2.6,0,4.7-2.1,4.7-4.7
		s-2.1-4.7-4.7-4.7H285z"/>
</g>
<g>
	<path class="st0" d="M460.7,198.3H285c-4.5,0-8.2,3.7-8.2,8.2c0,4.5,3.7,8.2,8.2,8.2h175.7c4.5,0,8.2-3.7,8.2-8.2
		C468.9,201.9,465.2,198.3,460.7,198.3z"/>
	<path class="st1" d="M460.7,218.1H285c-6.4,0-11.7-5.2-11.7-11.7s5.2-11.7,11.7-11.7h175.7c6.4,0,11.7,5.2,11.7,11.7
		S467.1,218.1,460.7,218.1z M285,201.8c-2.6,0-4.7,2.1-4.7,4.7s2.1,4.7,4.7,4.7h175.7c2.6,0,4.7-2.1,4.7-4.7s-2.1-4.7-4.7-4.7H285z"
		/>
</g>
<g>
	<path class="st0" d="M372.8,256.8H285c-4.5,0-8.2,3.7-8.2,8.2c0,4.5,3.7,8.2,8.2,8.2h87.9c4.5,0,8.2-3.7,8.2-8.2
		C381,260.5,377.4,256.8,372.8,256.8z"/>
	<path class="st1" d="M372.8,276.7H285c-6.4,0-11.7-5.2-11.7-11.7c0-6.4,5.2-11.7,11.7-11.7h87.9c6.4,0,11.7,5.2,11.7,11.7
		C384.5,271.4,379.3,276.7,372.8,276.7z M285,260.3c-2.6,0-4.7,2.1-4.7,4.7s2.1,4.7,4.7,4.7h87.9c2.6,0,4.7-2.1,4.7-4.7
		s-2.1-4.7-4.7-4.7H285z"/>
</g>
</svg>
