<?xml version="1.0" encoding="iso-8859-1"?>
<!-- Generator: Adobe Illustrator 19.0.0, SVG Export Plug-In . SVG Version: 6.00 Build 0)  -->
<svg xmlns="http://www.w3.org/2000/svg" xmlns:xlink="http://www.w3.org/1999/xlink" version="1.1" id="Layer_1" x="0px" y="0px" viewBox="0 0 418.763 418.763" style="enable-background:new 0 0 418.763 418.763;" xml:space="preserve" width="107px" height="107px">
<g>
	<g>
		<path d="M339.181,32.463h-65.5l22.2-22.2c2.3-2.3,2.3-6.1,0-8.5c-2.3-2.4-6.1-2.3-8.5,0l-32.4,32.4c-1.1,1.1-1.8,2.7-1.8,4.2    c0,1.6,0.6,3.1,1.8,4.2l32.4,32.4c1.2,1.2,2.7,1.8,4.2,1.8s3.1-0.6,4.2-1.8c2.3-2.3,2.3-6.1,0-8.5l-22.2-22.2h65.5    c37,0,67.2,30.1,67.2,67.2v38.3c0,3.3,2.7,6,6,6s6-2.7,6-6v-38.1h0.1C418.381,67.963,382.881,32.463,339.181,32.463z" fill="#09af54"/>
	</g>
</g>
<g>
	<g>
		<path d="M415.681,408.463c-1-1.2-2.6-1.8-4.2-1.8c-1.6,0-3.1,0.6-4.2,1.8c-1.1,1.1-1.8,2.7-1.8,4.3s0.6,3.1,1.8,4.2    c1.2,1.1,2.7,1.8,4.2,1.8s3.1-0.6,4.2-1.8c1.1-1.2,1.8-2.7,1.8-4.2S416.881,409.663,415.681,408.463z" fill="#09af54"/>
	</g>
</g>
<g>
	<g>
		<path d="M247.681,406.663c-3.3,0-6,2.7-6,6s2.7,6,6,6s6-2.7,6-6S250.981,406.663,247.681,406.663z" fill="#09af54"/>
	</g>
</g>
<g>
	<g>
		<path d="M271.081,406.663c-3.3,0-6,2.7-6,6s2.7,6,6,6s6-2.7,6-6S274.381,406.663,271.081,406.663z" fill="#09af54"/>
	</g>
</g>
<g>
	<g>
		<path d="M317.881,406.663c-3.3,0-6,2.7-6,6s2.7,6,6,6s6-2.7,6-6S321.181,406.663,317.881,406.663z" fill="#09af54"/>
	</g>
</g>
<g>
	<g>
		<path d="M364.681,406.663c-3.3,0-6,2.7-6,6s2.7,6,6,6s6-2.7,6-6S367.981,406.663,364.681,406.663z" fill="#09af54"/>
	</g>
</g>
<g>
	<g>
		<path d="M388.081,406.663c-3.3,0-6,2.7-6,6s2.7,6,6,6s6-2.7,6-6S391.381,406.663,388.081,406.663z" fill="#09af54"/>
	</g>
</g>
<g>
	<g>
		<path d="M294.481,406.663c-3.3,0-6,2.7-6,6s2.7,6,6,6s6-2.7,6-6S297.781,406.663,294.481,406.663z" fill="#09af54"/>
	</g>
</g>
<g>
	<g>
		<path d="M341.281,406.663c-3.3,0-6,2.7-6,6s2.7,6,6,6s6-2.7,6-6S344.581,406.663,341.281,406.663z" fill="#09af54"/>
	</g>
</g>
<g>
	<g>
		<path d="M228.481,408.363c-1.1-1.1-2.7-1.8-4.3-1.8s-3,0.7-4.2,1.8c-1.1,1.1-1.8,2.7-1.8,4.3s0.6,3.1,1.8,4.2    c1.2,1.1,2.7,1.8,4.2,1.8c1.6,0,3.1-0.6,4.3-1.8c1.1-1.1,1.8-2.7,1.8-4.2S229.681,409.563,228.481,408.363z" fill="#09af54"/>
	</g>
</g>
<g>
	<g>
		<path d="M224.281,313.063c-3.3,0-6,2.7-6,6s2.7,6,6,6s6-2.7,6-6C230.281,315.663,227.581,313.063,224.281,313.063z" fill="#09af54"/>
	</g>
</g>
<g>
	<g>
		<path d="M224.281,289.663c-3.3,0-6,2.7-6,6s2.7,6,6,6s6-2.7,6-6C230.281,292.263,227.581,289.663,224.281,289.663z" fill="#09af54"/>
	</g>
</g>
<g>
	<g>
		<path d="M224.281,336.463c-3.3,0-6,2.7-6,6s2.7,6,6,6s6-2.7,6-6S227.581,336.463,224.281,336.463z" fill="#09af54"/>
	</g>
</g>
<g>
	<g>
		<path d="M224.281,242.763c-3.3,0-6,2.7-6,6s2.7,6,6,6s6-2.7,6-6S227.581,242.763,224.281,242.763z" fill="#09af54"/>
	</g>
</g>
<g>
	<g>
		<path d="M224.281,266.163c-3.3,0-6,2.7-6,6s2.7,6,6,6s6-2.7,6-6S227.581,266.163,224.281,266.163z" fill="#09af54"/>
	</g>
</g>
<g>
	<g>
		<path d="M224.281,383.263c-3.3,0-6,2.7-6,6s2.7,6,6,6s6-2.7,6-6S227.581,383.263,224.281,383.263z" fill="#09af54"/>
	</g>
</g>
<g>
	<g>
		<path d="M224.281,359.863c-3.3,0-6,2.7-6,6s2.7,6,6,6s6-2.7,6-6S227.581,359.863,224.281,359.863z" fill="#09af54"/>
	</g>
</g>
<g>
	<g>
		<path d="M228.481,221.163c-1.1-1.1-2.7-1.8-4.3-1.8s-3.1,0.6-4.2,1.8c-1.1,1.2-1.8,2.7-1.8,4.2c0,1.6,0.6,3.1,1.8,4.2    c1.2,1.1,2.7,1.8,4.2,1.8s3.1-0.6,4.3-1.8c1.1-1.1,1.8-2.7,1.8-4.2S229.581,222.263,228.481,221.163z" fill="#09af54"/>
	</g>
</g>
<g>
	<g>
		<path d="M341.281,219.363c-3.3,0-6,2.7-6,6s2.7,6,6,6s6-2.7,6-6S344.581,219.363,341.281,219.363z" fill="#09af54"/>
	</g>
</g>
<g>
	<g>
		<path d="M317.881,219.363c-3.3,0-6,2.7-6,6s2.7,6,6,6s6-2.7,6-6S321.181,219.363,317.881,219.363z" fill="#09af54"/>
	</g>
</g>
<g>
	<g>
		<path d="M364.681,219.363c-3.3,0-6,2.7-6,6s2.7,6,6,6s6-2.7,6-6S367.981,219.363,364.681,219.363z" fill="#09af54"/>
	</g>
</g>
<g>
	<g>
		<path d="M294.481,219.363c-3.3,0-6,2.7-6,6s2.7,6,6,6s6-2.7,6-6S297.781,219.363,294.481,219.363z" fill="#09af54"/>
	</g>
</g>
<g>
	<g>
		<path d="M247.681,219.363c-3.3,0-6,2.7-6,6s2.7,6,6,6s6-2.7,6-6S250.981,219.363,247.681,219.363z" fill="#09af54"/>
	</g>
</g>
<g>
	<g>
		<path d="M388.081,219.363c-3.3,0-6,2.7-6,6s2.7,6,6,6s6-2.7,6-6S391.381,219.363,388.081,219.363z" fill="#09af54"/>
	</g>
</g>
<g>
	<g>
		<path d="M271.081,219.363c-3.3,0-6,2.7-6,6s2.7,6,6,6s6-2.7,6-6S274.381,219.363,271.081,219.363z" fill="#09af54"/>
	</g>
</g>
<g>
	<g>
		<path d="M415.781,221.163c-1.1-1.1-2.7-1.8-4.2-1.8s-3.1,0.6-4.2,1.8c-1.1,1.1-1.8,2.7-1.8,4.2c0,1.6,0.6,3.1,1.8,4.2    c1.1,1.1,2.7,1.8,4.2,1.8s3.1-0.6,4.2-1.8c1.1-1.1,1.8-2.7,1.8-4.2C417.481,223.863,416.881,222.263,415.781,221.163z" fill="#09af54"/>
	</g>
</g>
<g>
	<g>
		<path d="M411.481,266.163c-3.3,0-6,2.7-6,6s2.7,6,6,6s6-2.7,6-6S414.881,266.163,411.481,266.163z" fill="#09af54"/>
	</g>
</g>
<g>
	<g>
		<path d="M411.481,383.263c-3.3,0-6,2.7-6,6s2.7,6,6,6s6-2.7,6-6S414.881,383.263,411.481,383.263z" fill="#09af54"/>
	</g>
</g>
<g>
	<g>
		<path d="M411.481,336.463c-3.3,0-6,2.7-6,6s2.7,6,6,6s6-2.7,6-6S414.881,336.463,411.481,336.463z" fill="#09af54"/>
	</g>
</g>
<g>
	<g>
		<path d="M411.481,313.063c-3.3,0-6,2.7-6,6s2.7,6,6,6s6-2.7,6-6C417.481,315.663,414.881,313.063,411.481,313.063z" fill="#09af54"/>
	</g>
</g>
<g>
	<g>
		<path d="M411.481,242.763c-3.3,0-6,2.7-6,6s2.7,6,6,6s6-2.7,6-6S414.881,242.763,411.481,242.763z" fill="#09af54"/>
	</g>
</g>
<g>
	<g>
		<path d="M411.481,289.663c-3.3,0-6,2.7-6,6s2.7,6,6,6s6-2.7,6-6C417.481,292.263,414.881,289.663,411.481,289.663z" fill="#09af54"/>
	</g>
</g>
<g>
	<g>
		<path d="M411.481,359.863c-3.3,0-6,2.7-6,6s2.7,6,6,6s6-2.7,6-6S414.881,359.863,411.481,359.863z" fill="#09af54"/>
	</g>
</g>
<g>
	<g>
		<path d="M163.681,376.063l-32.3-32.4c-2.3-2.3-6.1-2.3-8.5,0c-2.3,2.3-2.3,6.1,0,8.5l22.2,22.2h-65.5c-37,0-67.2-30.1-67.2-67.2    v-38.3c0-3.3-2.7-6-6-6s-6,2.7-6,6v38.3c0,43.7,35.5,79.2,79.2,79.2h65.5l-22.2,22.2c-2.3,2.2-2.3,6,0,8.3    c1.2,1.2,2.7,1.8,4.2,1.8s3.1-0.6,4.2-1.8l32.4-32.4c1.1-1.1,1.8-2.7,1.8-4.2C165.481,378.663,164.881,377.163,163.681,376.063z" fill="#09af54"/>
	</g>
</g>
<g>
	<g>
		<path d="M194.481,0.063H7.281c-3.3,0-6,2.7-6,6v187.3c0,3.3,2.7,6,6,6h187.3c3.2,0,5.9-2.7,5.9-6V6.063    C200.481,2.763,197.781,0.063,194.481,0.063z M188.581,187.363h-0.1h-175.2v-175.3h175.3V187.363z" fill="#09af54"/>
	</g>
</g>
<g>
</g>
<g>
</g>
<g>
</g>
<g>
</g>
<g>
</g>
<g>
</g>
<g>
</g>
<g>
</g>
<g>
</g>
<g>
</g>
<g>
</g>
<g>
</g>
<g>
</g>
<g>
</g>
<g>
</g>
</svg>
