<?xml version="1.0" encoding="utf-8"?>
<!-- Generator: Adobe Illustrator 20.1.0, SVG Export Plug-In . SVG Version: 6.00 Build 0)  -->
<svg version="1.1" id="Слой_1" xmlns="http://www.w3.org/2000/svg" xmlns:xlink="http://www.w3.org/1999/xlink" x="0px" y="0px"
	 viewBox="0 0 400 400" style="enable-background:new 0 0 400 400;" xml:space="preserve">
<style type="text/css">
	.st0{display:none;fill:#FFFFFF;}
	.st1{opacity:0.25;}
	.st2{fill:#D8D8D8;stroke:#000000;stroke-width:8;stroke-miterlimit:10;}
	.st3{fill:#838383;}
	.st4{fill:#FFFFFF;}
	.st5{fill:#CBCBCB;}
	.st6{fill:#C0C0C0;}
	.st7{display:none;opacity:0.25;}
	.st8{display:inline;}
	.st9{font-family:'Montserrat-SemiBold';}
	.st10{font-size:26px;}
</style>
<rect class="st0" width="400" height="400"/>
<g>
	<g class="st1">
		
			<ellipse transform="matrix(0.9999 -1.578126e-02 1.578126e-02 0.9999 -2.4457 3.1072)" class="st2" cx="195.7" cy="156.5" rx="62.5" ry="62.5"/>
		<path class="st3" d="M266.8,191.8c-29.1,30-77,30.8-107,1.7s-30.8-77-1.7-107L266.8,191.8z"/>
		<path class="st4" d="M261.8,187c-26.4,27.3-69.9,28-97.2,1.6s-27.9-70-1.5-97.2L261.8,187z"/>
		<path class="st5" d="M257,182.3c-23.8,24.6-63.1,25.2-87.7,1.4s-25.2-63.1-1.4-87.7L257,182.3z"/>
		<path class="st6" d="M257,182.3c-23.8,24.6-63.1,25.2-87.7,1.4s-25.2-63.1-1.4-87.7l-1.4,1.4c0,0.8,17.2,18.4,16.1,19.1
			c-1.2,0.7-19.5-9.2-20.2-8.7c-0.8,0.6,6.5,5.9,6.7,7.4c0.3,2-9.7-4.3-10.3-2.4c-0.4,1.5,14.3,9.4,14,10.7
			c-0.5,2.5-15-1.5-15.5,1.5c-0.2,1.4,17.5,6.7,17.8,7.9c0.5,1.9-17.8,1.6-17.7,2.3c0.2,1.7,37.7,2.8,38.2,5.1
			c0.5,2.2-36.2,10.8-36.1,12.5c0.1,1.9,13.6-2,14.8,0.1c1,1.7-12.2,9.1-10.8,10.9c1,1.3,8.3-3.5,8.6-2.1c0.3,1.4-3.5,5.2-3.1,5.9
			c0.7,1.5,25.6-15.2,26.5-13.8c3.6,5.4,5.2-2,5.2,0.3c0,5.3-17.6,26-16.7,26.8c0.6,0.6,8.3-7.9,10.5-8.5c1.2-0.3-5.3,15.9-4.1,16.6
			c1.3,0.8,5.5-5.7,6.4-5.1c1.6,1.1,1.7,8.5,3.5,9.1c3,0.9,9.7-38.7,12-37.6c2,1.1,3.9,42.1,6.2,42c1.9,0,0.8-14,2.1-13.5
			c1.5,0.6,4.9,13.2,6.5,12.7c1.8-0.6-2.9-20.7-1.7-20.4c1.5,0.4,9.2,16.4,10.8,15.9c1.8-0.5-1.6-8.6-0.5-9.5c1.8-1.5,5.5,7.3,7,6.8
			c2-0.7-17.4-28.6-15.8-28.5c1.7,0.1,27.1,23,28.8,23L257,182.3z"/>
		
			<rect x="144.3" y="138.1" transform="matrix(0.7182 0.6959 -0.6959 0.7182 157.8261 -106.128)" class="st4" width="131.3" height="7.3"/>
		
			<rect x="185.6" y="133.2" transform="matrix(0.7182 0.6959 -0.6959 0.7182 167.0843 -85.1926)" class="st4" width="6.3" height="61"/>
		<polygon class="st4" points="214.4,146.1 207.8,146.7 207.3,206 213.9,205.5 		"/>
		<polygon class="st4" points="205.5,137.5 205.1,144.1 145.8,146.4 146.2,139.8 		"/>
	</g>
	<g class="st1">
		<path d="M91.7,263.7H95v12.9l9.8-12.9h3.1v18.2h-3.3V269l-9.8,12.9h-3.1V263.7z"/>
		<path d="M125.2,274.1c0.6,0.8,0.9,1.7,0.9,2.7c0,1.1-0.4,2-1.1,2.8c-0.7,0.8-1.7,1.4-2.8,1.9c-1.2,0.4-2.5,0.6-3.9,0.6
			c-1.2,0-2.4-0.2-3.7-0.5s-2.4-0.8-3.4-1.5l1.1-2.5c0.8,0.5,1.7,0.9,2.7,1.2c1,0.3,1.9,0.4,2.9,0.4c1.4,0,2.5-0.3,3.4-0.8
			c0.9-0.5,1.4-1.3,1.4-2.2c0-0.8-0.3-1.4-1-1.8c-0.7-0.4-1.6-0.6-2.7-0.6h-4.2v-2.7h4c1,0,1.8-0.2,2.4-0.6c0.6-0.4,0.9-1,0.9-1.7
			c0-0.8-0.4-1.5-1.2-2c-0.8-0.5-1.8-0.7-3-0.7c-0.8,0-1.7,0.1-2.5,0.4c-0.9,0.2-1.7,0.6-2.4,1l-1.1-2.7c0.9-0.5,1.9-0.9,3-1.1
			c1-0.3,2.1-0.4,3.1-0.4c1.4,0,2.6,0.2,3.7,0.6c1.1,0.4,2,1,2.7,1.8c0.7,0.8,1,1.7,1,2.7c0,0.9-0.2,1.7-0.7,2.4
			c-0.5,0.7-1.2,1.2-2,1.6C123.7,272.8,124.6,273.4,125.2,274.1z"/>
		<path d="M133.3,281c-1.5-0.8-2.7-1.9-3.5-3.4c-0.8-1.4-1.3-3-1.3-4.8s0.4-3.4,1.3-4.8s2-2.5,3.5-3.4c1.5-0.8,3.2-1.2,5-1.2
			c1.9,0,3.5,0.4,5,1.2c1.5,0.8,2.7,1.9,3.5,3.3c0.8,1.4,1.3,3,1.3,4.8c0,1.8-0.4,3.4-1.3,4.8c-0.8,1.4-2,2.5-3.5,3.3
			c-1.5,0.8-3.2,1.2-5,1.2C136.5,282.2,134.8,281.8,133.3,281z M141.6,278.4c1-0.5,1.7-1.3,2.3-2.3c0.6-1,0.8-2.1,0.8-3.3
			c0-1.2-0.3-2.3-0.8-3.3c-0.6-1-1.3-1.7-2.3-2.3c-1-0.5-2.1-0.8-3.3-0.8c-1.2,0-2.3,0.3-3.3,0.8c-1,0.5-1.7,1.3-2.3,2.3
			c-0.6,1-0.8,2.1-0.8,3.3c0,1.2,0.3,2.3,0.8,3.3c0.6,1,1.3,1.7,2.3,2.3s2.1,0.8,3.3,0.8C139.6,279.2,140.7,279,141.6,278.4z"/>
		<path d="M151.9,263.7h14.2v2.8h-10.8v4.5h5.4c2.2,0,3.8,0.5,5,1.4c1.1,0.9,1.7,2.2,1.7,3.9c0,1.8-0.6,3.2-1.9,4.2
			c-1.2,1-3,1.5-5.3,1.5h-8.2V263.7z M159.9,279.3c1.3,0,2.3-0.3,3-0.8c0.7-0.5,1-1.2,1-2.2c0-1.9-1.3-2.8-4-2.8h-4.7v5.7H159.9z"/>
		<path d="M182.6,264.5c1.2,0.5,2.1,1.3,2.7,2.2c0.6,1,0.9,2.1,0.9,3.5c0,1.3-0.3,2.5-0.9,3.4c-0.6,1-1.5,1.7-2.7,2.2
			c-1.2,0.5-2.5,0.8-4.1,0.8h-4.1v5.3H171v-18.2h7.5C180.1,263.7,181.4,264,182.6,264.5z M181.7,272.9c0.8-0.6,1.1-1.5,1.1-2.7
			c0-1.2-0.4-2.1-1.1-2.7s-1.9-0.9-3.4-0.9h-4v7.2h4C179.8,273.8,180.9,273.5,181.7,272.9z"/>
		<path d="M200.6,277.7h-9.1l-1.8,4.2h-3.5l8.2-18.2h3.3l8.2,18.2h-3.5L200.6,277.7z M199.5,275.1l-3.4-8l-3.4,8H199.5z"/>
		<path d="M223.7,274.3h-3.1v7.7h-3.3v-7.7h-3.1l-4.6,7.7h-3.9l5.7-9.5l-5.3-8.7h3.6l4.4,7.6h3.2v-7.6h3.3v7.6h3.1l4.5-7.6h3.6
			l-5.3,8.7l5.7,9.5h-3.9L223.7,274.3z"/>
		<path d="M248.2,279.1v2.8h-13.7v-18.2h13.3v2.8H238v4.7h8.8v2.8H238v5H248.2z"/>
		<path d="M268.2,263.7v18.2h-3.4v-7.8h-9.4v7.8H252v-18.2h3.4v7.5h9.4v-7.5H268.2z"/>
		<path d="M273.3,263.7h3.3v12.9l9.8-12.9h3.1v18.2h-3.3V269l-9.8,12.9h-3.1V263.7z"/>
		<path d="M308.3,279.1v2.8h-13.7v-18.2h13.3v2.8H298v4.7h8.8v2.8H298v5H308.3z"/>
		<path d="M107.7,312.2c-1.5-0.8-2.7-1.9-3.5-3.4c-0.8-1.4-1.3-3-1.3-4.8s0.4-3.4,1.3-4.8s2-2.5,3.5-3.4c1.5-0.8,3.2-1.2,5-1.2
			c1.9,0,3.5,0.4,5,1.2c1.5,0.8,2.7,1.9,3.5,3.3c0.8,1.4,1.3,3,1.3,4.8c0,1.8-0.4,3.4-1.3,4.8c-0.8,1.4-2,2.5-3.5,3.3
			c-1.5,0.8-3.2,1.2-5,1.2C110.9,313.4,109.2,313,107.7,312.2z M116,309.6c1-0.5,1.7-1.3,2.3-2.3c0.6-1,0.8-2.1,0.8-3.3
			c0-1.2-0.3-2.3-0.8-3.3c-0.6-1-1.3-1.7-2.3-2.3c-1-0.5-2.1-0.8-3.3-0.8c-1.2,0-2.3,0.3-3.3,0.8c-1,0.5-1.7,1.3-2.3,2.3
			c-0.6,1-0.8,2.1-0.8,3.3c0,1.2,0.3,2.3,0.8,3.3c0.6,1,1.3,1.7,2.3,2.3s2.1,0.8,3.3,0.8C113.9,310.4,115,310.2,116,309.6z"/>
		<path d="M139.2,297.8h-6v15.3h-3.4v-15.3h-6v-2.9h15.4V297.8z"/>
		<path d="M145.2,312.2c-1.5-0.8-2.6-1.9-3.5-3.3c-0.8-1.4-1.3-3-1.3-4.8c0-1.8,0.4-3.4,1.3-4.8c0.8-1.4,2-2.5,3.5-3.3
			c1.5-0.8,3.1-1.2,5-1.2c1.5,0,2.9,0.3,4.1,0.8c1.2,0.5,2.3,1.3,3.1,2.3l-2.2,2.1c-1.3-1.4-2.9-2.1-4.9-2.1c-1.2,0-2.4,0.3-3.4,0.8
			c-1,0.5-1.8,1.3-2.3,2.3c-0.6,1-0.8,2.1-0.8,3.3c0,1.2,0.3,2.3,0.8,3.3c0.6,1,1.3,1.7,2.3,2.3c1,0.5,2.1,0.8,3.4,0.8
			c1.9,0,3.5-0.7,4.9-2.2l2.2,2.1c-0.8,1-1.9,1.7-3.1,2.3c-1.2,0.5-2.6,0.8-4.1,0.8C148.4,313.4,146.7,313,145.2,312.2z"/>
		<path d="M175.8,294.9l-7.9,14.7c-0.7,1.3-1.5,2.3-2.5,2.9s-2,1-3.1,1c-0.9,0-1.8-0.2-2.7-0.6l0.8-2.7c0.7,0.2,1.3,0.3,1.8,0.3
			c1.1,0,2-0.6,2.7-1.7l0.3-0.4l-7.3-13.6h3.6l5.4,10.7l5.5-10.7H175.8z"/>
		<path d="M191.5,297.8h-6v15.3h-3.4v-15.3h-6v-2.9h15.4V297.8z"/>
		<path d="M197.6,312.2c-1.5-0.8-2.6-1.9-3.5-3.3c-0.8-1.4-1.3-3-1.3-4.8c0-1.8,0.4-3.4,1.3-4.8c0.8-1.4,2-2.5,3.5-3.3
			c1.5-0.8,3.1-1.2,5-1.2c1.5,0,2.9,0.3,4.1,0.8c1.2,0.5,2.3,1.3,3.1,2.3l-2.2,2.1c-1.3-1.4-2.9-2.1-4.9-2.1c-1.2,0-2.4,0.3-3.4,0.8
			c-1,0.5-1.8,1.3-2.3,2.3s-0.8,2.1-0.8,3.3c0,1.2,0.3,2.3,0.8,3.3s1.3,1.7,2.3,2.3s2.1,0.8,3.4,0.8c1.9,0,3.5-0.7,4.9-2.2l2.2,2.1
			c-0.8,1-1.9,1.7-3.1,2.3s-2.6,0.8-4.1,0.8C200.7,313.4,199,313,197.6,312.2z"/>
		<path d="M225.9,297.8h-6v15.3h-3.4v-15.3h-6v-2.9h15.4V297.8z"/>
		<path d="M243.5,305.3c0.6,0.8,0.9,1.7,0.9,2.8c0,1.6-0.6,2.8-1.8,3.7c-1.2,0.9-2.9,1.3-5.1,1.3h-8.6v-18.2h8.1
			c2,0,3.6,0.4,4.8,1.2c1.1,0.8,1.7,2,1.7,3.5c0,1-0.2,1.8-0.7,2.5c-0.5,0.7-1.1,1.2-2,1.6C242,304,242.9,304.5,243.5,305.3z
			 M232.2,302.7h4.5c1.1,0,1.9-0.2,2.5-0.7c0.6-0.4,0.9-1.1,0.9-1.9c0-0.8-0.3-1.5-0.9-1.9s-1.4-0.7-2.5-0.7h-4.5V302.7z M241,307.8
			c0-1.8-1.2-2.7-3.6-2.7h-5.2v5.4h5.2C239.8,310.5,241,309.6,241,307.8z"/>
		<path d="M263.6,294.9l-7.9,14.7c-0.7,1.3-1.5,2.3-2.5,2.9s-2,1-3.1,1c-0.9,0-1.8-0.2-2.7-0.6l0.8-2.7c0.7,0.2,1.3,0.3,1.8,0.3
			c1.1,0,2-0.6,2.7-1.7l0.3-0.4l-7.3-13.6h3.6l5.4,10.7l5.5-10.7H263.6z"/>
		<path d="M279.6,310.3v2.8h-13.7v-18.2h13.3v2.8h-9.9v4.7h8.8v2.8h-8.8v5H279.6z"/>
		<path d="M296.6,297.8h-6v15.3h-3.4v-15.3h-6v-2.9h15.4V297.8z"/>
	</g>
</g>
<text transform="matrix(1 0 0 1 88.4741 301.163)" class="st7"><tspan x="0" y="0" class="st8 st9 st10">изображение</tspan><tspan x="12.8" y="31.2" class="st8 st9 st10">отсутствует</tspan></text>
</svg>
