<svg xmlns="http://www.w3.org/2000/svg" viewBox="0 0 512 512" height="98"><g fill="#FFF"><path d="M51.2 76.8h93.867c5.12 0 8.533-3.413 8.533-8.533s-3.413-8.533-8.533-8.533H51.2c-5.12 0-8.533 3.413-8.533 8.533S46.08 76.8 51.2 76.8zm128 0H256c5.12 0 8.533-3.413 8.533-8.533s-3.413-8.533-8.533-8.533h-76.8c-5.12 0-8.533 3.413-8.533 8.533S174.08 76.8 179.2 76.8zm-68.267 25.6c0-5.12-3.413-8.533-8.533-8.533H51.2c-5.12 0-8.533 3.413-8.533 8.533 0 5.12 3.413 8.533 8.533 8.533h51.2c5.12 0 8.533-3.413 8.533-8.533zm25.6-8.533c-5.12 0-8.533 3.413-8.533 8.533 0 5.12 3.413 8.533 8.533 8.533h76.8c5.12 0 8.533-3.413 8.533-8.533 0-5.12-3.413-8.533-8.533-8.533h-76.8zm119.467 0h-8.533c-5.12 0-8.533 3.413-8.533 8.533 0 5.12 3.413 8.533 8.533 8.533H256c5.12 0 8.533-3.413 8.533-8.533 0-5.12-3.413-8.533-8.533-8.533z"/><path d="M473.6 17.067H38.4c-21.333 0-38.4 17.067-38.4 38.4v298.667c0 21.333 17.067 38.4 38.4 38.4h163.84l-12.8 51.2h-1.707c-23.893 0-42.667 18.773-42.667 42.667 0 5.12 3.413 8.533 8.533 8.533h204.8c5.12 0 8.533-3.413 8.533-8.533 0-23.893-18.773-42.667-42.667-42.667h-1.707l-12.8-51.2H473.6c21.333 0 38.4-17.067 38.4-38.4V55.467c0-21.334-17.067-38.4-38.4-38.4zm-456.533 38.4c0-11.947 9.387-21.333 21.333-21.333h435.2c11.947 0 21.333 9.387 21.333 21.333V307.2H17.067V55.467zm331.946 422.4H163.84c3.413-10.24 12.8-17.067 23.893-17.067H325.12c11.093 0 20.48 6.827 23.893 17.067zm-44.373-34.134h-97.28l12.8-51.2h71.68l12.8 51.2zm190.293-89.6c0 11.947-9.387 21.333-21.333 21.333H38.4c-11.947 0-21.333-9.387-21.333-21.333v-29.867h477.867v29.867z"/><path d="M426.667 196.267c-4.07 0-7.979.724-11.607 2.047l-41.64-41.64a33.835 33.835 0 0 0 2.047-11.607c0-18.773-15.36-34.133-34.133-34.133-18.773 0-34.133 15.36-34.133 34.133 0 4.07.724 7.979 2.047 11.607l-61.459 61.46a33.842 33.842 0 0 0-17.387-4.8c-4.07 0-7.979.724-11.607 2.047l-16.04-16.04a33.835 33.835 0 0 0 2.047-11.607c0-18.773-15.36-34.133-34.133-34.133-18.773 0-34.133 15.36-34.133 34.133 0 4.07.724 7.979 2.047 11.607l-16.04 16.04a33.835 33.835 0 0 0-11.607-2.047c-18.773 0-34.133 15.36-34.133 34.133 0 18.773 15.36 34.133 34.133 34.133s34.133-15.36 34.133-34.133c0-8.523-3.173-16.336-8.386-22.333l11.653-11.653c5.998 5.214 13.811 8.386 22.333 8.386s16.336-3.173 22.333-8.386l11.653 11.653c-5.214 5.998-8.386 13.811-8.386 22.333 0 18.773 15.36 34.133 34.133 34.133 18.773 0 34.133-15.36 34.133-34.133a33.842 33.842 0 0 0-4.8-17.387L319 170.814c5.998 5.214 13.811 8.386 22.333 8.386s16.336-3.173 22.333-8.386l37.253 37.253c-5.214 5.998-8.387 13.811-8.387 22.334 0 18.773 15.36 34.133 34.133 34.133S460.8 249.173 460.8 230.4s-15.36-34.133-34.133-34.133zm-315.734 68.266c-9.387 0-17.067-7.68-17.067-17.067s7.68-17.067 17.067-17.067S128 238.08 128 247.467s-7.68 17.066-17.067 17.066zm59.734-59.733c-5.204 0-9.876-2.366-13.013-6.069-.347-1.504-1.124-2.948-2.347-4.171-.139-.139-.286-.264-.431-.392a16.897 16.897 0 0 1-1.276-6.435c0-9.387 7.68-17.067 17.067-17.067s17.067 7.68 17.067 17.067a16.9 16.9 0 0 1-1.276 6.435c-.145.128-.291.253-.431.392-1.223 1.223-2 2.667-2.347 4.171-3.137 3.703-7.81 6.069-13.013 6.069zm59.733 59.733c-9.387 0-17.067-7.68-17.067-17.067s7.68-17.067 17.067-17.067c4.249 0 8.139 1.585 11.135 4.178.247.324.512.642.812.942.342.342.685.64 1.034.913 2.541 2.982 4.086 6.833 4.086 11.034 0 9.387-7.68 17.067-17.067 17.067zm110.933-102.4c-9.387 0-17.067-7.68-17.067-17.067S331.947 128 341.333 128s17.067 7.68 17.067 17.067a16.9 16.9 0 0 1-1.276 6.435c-.145.128-.291.253-.431.392-1.223 1.223-2 2.667-2.347 4.171-3.136 3.702-7.809 6.068-13.013 6.068zm85.334 85.334c-9.387 0-17.067-7.68-17.067-17.067s7.68-17.067 17.067-17.067 17.067 7.68 17.067 17.067c-.001 9.387-7.681 17.067-17.067 17.067z"/></g></svg>