<svg xmlns="http://www.w3.org/2000/svg" viewBox="0 0 512 512" width="182"><path d="M168.015 117.138c-32.074 0-56.601 13.585-56.601 50.941v53.583c0 37.357 24.527 50.941 56.601 50.941 31.697 0 56.601-13.584 56.601-50.941v-53.583c0-37.357-24.904-50.941-56.601-50.941zm18.868 104.524c0 12.453-7.169 18.112-18.867 18.112s-18.49-5.661-18.49-18.112v-53.583c0-12.453 6.792-18.112 18.49-18.112s18.867 5.661 18.867 18.112v53.583zm132.446-119.995c-6.792 0-12.829 3.019-15.848 9.433L171.035 383.164c-1.133 2.264-1.887 4.906-1.887 7.17 0 9.433 8.301 19.999 21.132 19.999 7.17 0 14.339-3.773 16.979-9.434l132.824-272.063c1.131-2.264 1.509-4.906 1.509-7.17 0-12.074-11.698-19.999-22.263-19.999zm21.885 136.976c-32.073 0-56.6 13.584-56.6 50.941v53.583c0 37.357 24.527 50.941 56.6 50.941 31.697 0 56.601-13.584 56.601-50.941v-53.583c.001-37.357-24.903-50.941-56.601-50.941zm18.868 104.523c0 12.453-7.17 18.112-18.868 18.112s-18.489-5.661-18.489-18.112v-53.583c0-12.453 6.792-18.112 18.489-18.112 11.698 0 18.868 5.661 18.868 18.112v53.583z" fill="#FFF"/><path d="M256 0C114.509 0 0 114.497 0 256c0 141.49 114.497 256 256 256 141.489 0 256-114.497 256-256C512 114.512 397.503 0 256 0zm0 478.657c-122.773 0-222.657-99.883-222.657-222.657S133.227 33.343 256 33.343 478.657 133.227 478.657 256 378.773 478.657 256 478.657z" fill="#FFF"/></svg>