<svg id="Слой_1" xmlns="http://www.w3.org/2000/svg" viewBox="20 32 110 88" height="79"><style>.st0{fill:#fff}</style><path class="st0" d="M32.5 114.7c0 .2.1.3.2.5.1.1.3.2.5.2s.4-.1.5-.2c.1-.1.2-.3.2-.5v-1.1c0-.3.1-.5.3-.7.2-.2.4-.3.7-.3.3 0 .5.1.7.3.2.2.3.4.3.7v1.1c0 .4-.1.7-.2 1.1s-.3.6-.6.9c-.2.2-.5.4-.9.6-.3.1-.7.2-1.1.2-.4 0-.7-.1-1-.2-.3-.1-.6-.3-.9-.6s-.4-.5-.6-.9c-.1-.3-.2-.7-.2-1.1V102c0-.4.1-.7.2-1 .1-.3.3-.6.6-.9s.5-.4.9-.6c.3-.1.7-.2 1-.2.4 0 .7.1 1.1.2.3.1.6.3.9.6.2.2.4.5.6.9s.2.7.2 1v1.2c0 .3-.1.5-.3.7-.2.2-.4.3-.7.3-.3 0-.5-.1-.7-.3-.2-.2-.3-.4-.3-.7V102c0-.2-.1-.3-.2-.5-.1-.1-.3-.2-.5-.2s-.3.1-.5.2c-.1.1-.2.3-.2.5v12.7zm9.8-11.3c.3 0 .5.1.7.3.2.2.3.4.3.7 0 .3-.1.5-.3.7s-.4.3-.7.3h-1.4v10.9c0 .3-.1.5-.3.7-.2.2-.4.3-.7.3-.3 0-.5-.1-.7-.3-.2-.2-.3-.4-.3-.7v-10.9h-1.3c-.3 0-.5-.1-.7-.3-.2-.2-.3-.4-.3-.7 0-.3.1-.5.3-.7.2-.2.4-.3.7-.3h4.7zm1.8 1c0-.3.1-.5.3-.7.2-.2.4-.3.7-.3.3 0 .5.1.7.3.2.2.3.4.3.7v.2s0-.1.1-.3c.1-.2.2-.4.4-.6s.5-.3.9-.3c.7 0 1.2.3 1.5.8.3.5.5 1.2.5 1.9v8.7c0 .4 0 .7-.1 1.1s-.2.6-.4.9l-.6.6c-.3.1-.6.2-.9.2-.4 0-.7-.1-.9-.3s-.3-.4-.4-.6c-.1-.2-.1-.3-.1-.3v4.3c0 .3-.1.5-.3.7-.2.2-.4.3-.7.3-.3 0-.5-.1-.7-.3-.2-.2-.3-.4-.3-.7v-16.3zm2.1 10.3c0 .2.1.3.2.5.1.1.3.2.5.2s.4-.1.5-.2c.1-.1.2-.3.2-.5V106c0-.2-.1-.3-.2-.5-.1-.1-.3-.2-.5-.2s-.3.1-.5.2c-.1.1-.2.3-.2.5v8.7zm4.9-8.7c0-.4.1-.7.2-1 .1-.3.3-.6.6-.9.2-.2.5-.4.9-.6.3-.1.7-.2 1-.2.4 0 .7.1 1.1.2.3.1.6.3.9.6.2.2.4.5.6.9s.2.7.2 1v8.7c0 .4-.1.7-.2 1.1s-.3.6-.6.9c-.2.2-.5.4-.9.6-.3.1-.7.2-1.1.2-.4 0-.7-.1-1-.2-.3-.1-.6-.3-.9-.6s-.4-.5-.6-.9c-.1-.3-.2-.7-.2-1.1V106zm2 8.7c0 .2.1.3.2.5.1.1.3.2.5.2s.4-.1.5-.2c.1-.1.2-.3.2-.5V106c0-.2-.1-.3-.2-.5-.1-.1-.3-.2-.5-.2s-.3.1-.5.2c-.1.1-.2.3-.2.5v8.7zm7-3.2l.3-1 2.1-6.4c.1-.2.2-.4.4-.5.2-.1.4-.2.6-.2.3 0 .5.1.7.3.2.2.3.4.3.7v12c0 .3-.1.5-.3.7-.2.2-.4.3-.7.3-.3 0-.5-.1-.7-.3-.2-.2-.3-.4-.3-.7v-8.1l-.3.9-2.2 6.4v.8c0 .3-.1.5-.3.7-.2.2-.4.3-.7.3-.3 0-.5-.1-.7-.3-.2-.2-.3-.4-.3-.7v-12c0-.3.1-.5.3-.7.2-.2.4-.3.7-.3.3 0 .5.1.7.3.2.2.3.4.3.7v7.1zm2.2-11.5c.1-.1.3-.2.5-.2s.3.1.5.2c.1.1.2.3.2.5 0 .3-.1.6-.2.8-.1.3-.3.5-.4.7-.2.2-.4.3-.7.5-.3.1-.5.2-.8.2s-.6-.1-.8-.2c-.3-.1-.5-.3-.7-.5-.2-.2-.3-.4-.5-.7s-.2-.5-.2-.8c0-.2.1-.3.2-.5.1-.1.3-.2.5-.2s.3.1.5.2c.1.1.2.3.2.5s.1.4.2.5c.2.2.3.2.5.2s.4-.1.5-.2c.1-.2.2-.3.2-.5.1-.2.2-.4.3-.5zm9.2 14.7c0 .4-.1.7-.2 1.1s-.3.6-.6.9c-.2.2-.5.4-.9.6-.3.1-.7.2-1.1.2-.4 0-.7-.1-1-.2-.3-.1-.6-.3-.9-.6s-.4-.5-.6-.9c-.1-.3-.2-.7-.2-1.1v-1.1c0-.3.1-.5.3-.7.2-.2.4-.3.7-.3.3 0 .5.1.7.3.2.2.3.4.3.7v1.1c0 .2.1.3.2.5.1.1.3.2.5.2s.4-.1.5-.2c.1-.1.2-.3.2-.5v-5.6H68c-.3 0-.5-.1-.7-.3-.2-.2-.3-.4-.3-.7 0-.3.1-.5.3-.7.2-.2.4-.3.7-.3h1.5V102c0-.2-.1-.3-.2-.5-.1-.1-.3-.2-.5-.2s-.3.1-.5.2c-.1.1-.2.3-.2.5v1.2c0 .3-.1.5-.3.7-.2.2-.4.3-.7.3-.3 0-.5-.1-.7-.3-.2-.2-.3-.4-.3-.7V102c0-.4.1-.7.2-1 .1-.3.3-.6.6-.9s.5-.4.9-.6c.3-.1.7-.2 1-.2.4 0 .7.1 1.1.2.3.1.6.3.9.6.2.2.4.5.6.9s.2.7.2 1v12.7zm7 1.7c0 .3-.1.5-.3.7-.2.2-.4.3-.7.3-.3 0-.5-.1-.7-.3-.2-.2-.3-.4-.3-.7v-4.6c0-.2-.1-.3-.2-.5-.1-.1-.3-.2-.5-.2h-.7v5.3c0 .3-.1.5-.3.7-.2.2-.4.3-.7.3-.3 0-.5-.1-.7-.3-.2-.2-.3-.4-.3-.7v-12c0-.3.1-.5.3-.7.2-.2.4-.3.7-.3.3 0 .5.1.7.3.2.2.3.4.3.7v4.8h.7c.2 0 .4-.1.5-.2.1-.1.2-.3.2-.5v-4.1c0-.3.1-.5.3-.7.2-.2.4-.3.7-.3.3 0 .5.1.7.3.2.2.3.4.3.7v3.8c0 .4-.1.8-.3 1.1-.2.4-.4.6-.7.8.3.2.5.5.7.9s.3.7.3 1.1v4.3zm1.6-10.4c0-.4.1-.7.2-1s.3-.6.6-.9c.2-.2.5-.4.9-.6.3-.1.7-.2 1-.2.4 0 .7.1 1.1.2s.6.3.9.6c.2.2.4.5.6.9s.2.7.2 1v8.7c0 .4-.1.7-.2 1.1s-.3.6-.6.9c-.2.2-.5.4-.9.6s-.7.2-1.1.2c-.4 0-.7-.1-1-.2-.3-.1-.6-.3-.9-.6-.2-.2-.4-.5-.6-.9s-.2-.7-.2-1.1V106zm2 8.7c0 .2.1.3.2.5.1.1.3.2.5.2s.4-.1.5-.2c.1-.1.2-.3.2-.5V106c0-.2-.1-.3-.2-.5-.1-.1-.3-.2-.5-.2s-.3.1-.5.2c-.1.1-.2.3-.2.5v8.7zm7 1.7c0 .3-.1.5-.3.7-.2.2-.4.3-.7.3-.3 0-.5-.1-.7-.3-.2-.2-.3-.4-.3-.7v-16c0-.3.1-.5.3-.7.2-.2.4-.3.7-.3h2.6c.3 0 .5.1.7.3.2.2.3.4.3.7 0 .3-.1.5-.3.7-.2.2-.4.3-.7.3h-1.6v15zm3.5-4.7c0-.4.1-.7.2-1.1s.3-.6.6-.9c.2-.2.5-.4.9-.6.3-.1.7-.2 1-.2h.7v-3c0-.2-.1-.3-.2-.5-.1-.1-.3-.2-.5-.2s-.3.1-.5.2c-.1.1-.2.3-.2.5v1.1c0 .3-.1.5-.3.7-.2.2-.4.3-.7.3-.3 0-.5-.1-.7-.3-.2-.2-.3-.4-.3-.7v-1c0-.4.1-.7.2-1s.3-.6.6-.9c.2-.2.5-.4.9-.6.3-.1.7-.2 1-.2.4 0 .7.1 1.1.2s.6.3.9.6c.2.2.4.5.6.9s.2.7.2 1v10.4c0 .3-.1.5-.3.7-.2.2-.4.3-.7.3-.3 0-.5-.1-.7-.3-.2-.2-.3-.4-.3-.7v-.2s0 .1-.1.3-.2.4-.4.6c-.2.2-.5.3-.9.3-.3 0-.7-.1-.9-.2s-.5-.3-.6-.6c-.2-.2-.3-.5-.4-.9s-.1-.7-.1-1.1v-2.9zm3.4-.7h-.7c-.2 0-.3.1-.5.2-.1.1-.2.3-.2.5v3c0 .2.1.3.2.5.1.1.3.2.5.2s.4-.1.5-.2c.1-.1.2-.3.2-.5V111zm3.6-6.6c0-.3.1-.5.3-.7.2-.2.4-.3.7-.3.3 0 .5.1.7.3.2.2.3.4.3.7v.2s0-.1.1-.3.2-.4.4-.6.5-.3.9-.3c.7 0 1.2.3 1.5.8.3.5.5 1.2.5 1.9v8.7c0 .4 0 .7-.1 1.1-.1.3-.2.6-.4.9l-.6.6c-.2.2-.6.2-.9.2-.4 0-.7-.1-.9-.3s-.3-.4-.4-.6-.1-.3-.1-.3v4.3c0 .3-.1.5-.3.7-.2.2-.4.3-.7.3-.3 0-.5-.1-.7-.3-.2-.2-.3-.4-.3-.7v-16.3zm2 10.3c0 .2.1.3.2.5.1.1.3.2.5.2s.4-.1.5-.2c.1-.1.2-.3.2-.5V106c0-.2-.1-.3-.2-.5-.1-.1-.3-.2-.5-.2s-.3.1-.5.2c-.1.1-.2.3-.2.5v8.7zm5-3c0-.4.1-.7.2-1.1s.3-.6.6-.9c.2-.2.5-.4.9-.6.3-.1.7-.2 1-.2h.7v-3c0-.2-.1-.3-.2-.5-.1-.1-.3-.2-.5-.2s-.3.1-.5.2c-.1.1-.2.3-.2.5v1.1c0 .3-.1.5-.3.7-.2.2-.4.3-.7.3-.3 0-.5-.1-.7-.3-.2-.2-.3-.4-.3-.7v-1c0-.4.1-.7.2-1s.3-.6.6-.9c.2-.2.5-.4.9-.6.3-.1.7-.2 1-.2.4 0 .7.1 1.1.2s.6.3.9.6c.2.2.4.5.6.9s.2.7.2 1v10.4c0 .3-.1.5-.3.7-.2.2-.4.3-.7.3-.3 0-.5-.1-.7-.3-.2-.2-.3-.4-.3-.7v-.2s0 .1-.1.3-.2.4-.4.6c-.2.2-.5.3-.9.3-.3 0-.7-.1-.9-.2s-.5-.3-.6-.6c-.2-.2-.3-.5-.4-.9s-.1-.7-.1-1.1v-2.9zm3.3-.7h-.7c-.2 0-.3.1-.5.2-.1.1-.2.3-.2.5v3c0 .2.1.3.2.5.1.1.3.2.5.2s.4-.1.5-.2c.1-.1.2-.3.2-.5V111zm9.1 5.4c0 .3-.1.5-.3.7-.2.2-.4.3-.7.3-.3 0-.5-.1-.7-.3-.2-.2-.3-.4-.3-.7v-5.3h-1.3v5.3c0 .3-.1.5-.3.7-.2.2-.4.3-.7.3-.3 0-.5-.1-.7-.3-.2-.2-.3-.4-.3-.7v-12c0-.3.1-.5.3-.7.2-.2.4-.3.7-.3.3 0 .5.1.7.3.2.2.3.4.3.7v4.8h1.3v-4.8c0-.3.1-.5.3-.7.2-.2.4-.3.7-.3.3 0 .5.1.7.3.2.2.3.4.3.7v12zm6.6-13c.3 0 .5.1.7.3.2.2.3.4.3.7 0 .3-.1.5-.3.7-.2.2-.4.3-.7.3h-1.4v10.9c0 .3-.1.5-.3.7-.2.2-.4.3-.7.3-.3 0-.5-.1-.7-.3-.2-.2-.3-.4-.3-.7v-10.9h-1.3c-.3 0-.5-.1-.7-.3-.2-.2-.3-.4-.3-.7 0-.3.1-.5.3-.7.2-.2.4-.3.7-.3h4.7z"/><path d="M38.1 58.6l32.3-24.7"/><path class="st0" d="M69.7 34.4s2.2-1.9 4.5 0C77 36.7 118 68.1 118 68.1s1.6 1.1 1.6 2.5-1.2 2-2 2H99.1S98 72.8 98 74v19.3s.3 2.4-2.4 2.4-2.7-2.7-2.7-2.7V69.8s-.1-1.7 1.7-1.7h12.9s1-.1 1-1c0-1.3-35.5-30.5-35.5-30.5s-1.2-.9-2.4 0c-1.6 1.1-31.9 22-31.9 22l31-24.2z"/><path class="st0" d="M64.5 66.1s-13.6 3.4-13.6 14.7 11.6 14.8 14.3 14.8c2.2 0 4.3-3 1.8-4.9s-9.2-2.9-9.2-10.2 9.6-10.2 9.6-10.2 3-.7 1-3.3c-1.2-1.6-3.9-.9-3.9-.9zm11 0s13.6 3.4 13.6 14.7-11.7 14.8-14.3 14.8c-2.2 0-4.3-3-1.8-4.9s9.2-2.9 9.2-10.2-9.6-10.2-9.6-10.2-3-.7-1-3.3c1.2-1.6 3.9-.9 3.9-.9z"/><path class="st0" d="M81.7 77.8s.2 1-.5 1h-8s-2 .4-2 2c0 1.5 1.4 2 2 2h8s.5-.2.5.6 1.6-1.1 1.6-1.1-.4-4.5-1.6-4.5zM69.1 47.1V51h-4.7s1.5-2.9 4.7-3.9zm4.3 0V51h4.7s-1.5-2.9-4.7-3.9zm5 7.4h-5v5.6s3.8-1.8 5-5.6zm-13.8.2h4.5V60s-3.4-1.6-4.5-5.3z"/></svg>