<svg xmlns="http://www.w3.org/2000/svg" viewBox="0 0 488.3 488.3" width="107" height="107"><path d="M432.55 86.7h-97c-3.3 0-6 2.7-6 6s2.7 6 6 6h97c13.2 0 23.9 10.7 23.9 23.9v249.3c0 13.2-10.7 23.9-23.9 23.9H55.75c-13.2 0-23.9-10.7-23.9-23.9V122.7c0-13.2 10.7-23.9 23.9-23.9h98.5c3.3 0 6-2.7 6-6s-2.7-6-6-6h-98.5c-19.8 0-35.9 16.1-35.9 35.9V372c0 19.8 16.1 35.9 35.9 35.9h182.4v68.4h-87.4c-3.3 0-6 2.7-6 6s2.7 6 6 6h186.8c3.3 0 6-2.7 6-6s-2.7-6-6-6h-87.4v-68.4h182.4c19.8 0 35.9-16.1 35.9-35.9V122.7c.1-19.8-16.1-36-35.9-36z" fill="#09af54"/><path d="M296.95 17.7c0-9.8-7.9-17.7-17.7-17.7h-69.8c-9.8 0-17.7 7.9-17.7 17.7v41.4c0 .6.1 1.2.3 1.8-.2.6-.3 1.2-.3 1.8v195.9h-.2v.6c0 .3.1.5.1.7v.2c.1.2.1.4.2.6 0 0 0 .1.1.1.1.2.2.5.3.7 0 0 0 .1.1.1.1.2.2.4.4.6 0 0 0 .1.1.1l46.6 61.1c1.1 1.5 2.9 2.4 4.8 2.4s3.6-.9 4.8-2.4l46.6-61.1s0-.1.1-.1c.1-.2.3-.4.4-.6 0 0 0-.1.1-.1.1-.2.2-.4.3-.7 0 0 0-.1.1-.1.1-.2.1-.4.2-.6v-.2c.1-.2.1-.5.1-.7V62.3c0-.6-.1-1.1-.2-1.6.1-.5.2-1 .2-1.6V17.7zm-52.8 292.1l-34.5-45.2h69l-34.5 45.2zm40.6-247.5v190.3h-81.2v-190c0-.6-.1-1.2-.3-1.8.2-.6.3-1.2.3-1.8V17.7c0-3.1 2.6-5.7 5.7-5.7h69.8c3.1 0 5.7 2.6 5.7 5.7v41.4c0 .6.1 1.1.2 1.6-.1.5-.2 1-.2 1.6z" fill="#09af54"/><path d="M244.15 33.2c-3.3 0-6 2.7-6 6v187.3c0 3.4 2.7 6 6 6s6-2.7 6-6V39.2c0-3.3-2.7-6-6-6z" fill="#09af54"/></svg>