<svg id="Слой_1" xmlns="http://www.w3.org/2000/svg" viewBox="154 -74.5 412 412" width="107"><style>.st0{fill:#09af54}.st1{fill:#fff}</style><path class="st0" d="M226.4 331.7h292.8c4.5 0 8.2-3.7 8.2-8.2V30c0-.2-.1-.4-.1-.6v-.2c0-.2-.1-.5-.2-.7v-.1c-.1-.2-.2-.5-.2-.7v-.1l-.3-.6v-.1c-.1-.2-.2-.4-.3-.5 0-.1-.1-.1-.1-.2-.1-.2-.2-.3-.3-.5 0-.1-.1-.1-.1-.2-.1-.2-.3-.3-.4-.5l-.1-.1-87.1-87.1-.1-.1c-.1-.1-.3-.3-.5-.4-.1 0-.1-.1-.2-.1-.2-.1-.3-.2-.5-.3 0 0-.1-.1-.2-.1-.2-.1-.4-.2-.5-.3h-.1l-.6-.3h-.1c-.2-.1-.5-.2-.7-.2h-.1c-.2-.1-.5-.1-.7-.2h-.2c-.2 0-.4-.1-.6-.1H226.4c-4.5 0-8.2 3.7-8.2 8.2v379.9c.1 4.3 3.7 7.9 8.2 7.9zM440.3-36.6l59.3 59.3h-59.3v-59.3zM234.6-48.2h189.3v79c0 4.5 3.7 8.2 8.2 8.2h79v276.4H234.6V-48.2z"/><path class="st1" d="M519.2 335.2H226.4c-6.4 0-11.7-5.2-11.7-11.7V-56.4c0-6.4 5.2-11.7 11.7-11.7h205.7c.4 0 .8 0 1.2.1.2 0 .5.1.8.1.1 0 .2 0 .3.1.3.1.6.1.9.2l.2.1c.3.1.6.2.8.3l.2.1c.3.1.6.3.8.4.1 0 .1.1.2.1.3.2.5.3.8.5 0 0 .1.1.2.1.3.2.5.3.7.5.1 0 .2.1.3.2.2.2.4.3.6.5l.2.2 87.2 87.2.1.2c.2.2.3.4.5.6.1.1.1.2.2.3.2.2.3.4.5.7 0 .1.1.2.2.3.1.2.3.4.4.7l.1.2c.1.3.3.5.4.8l.1.2.3.9.1.2c.1.3.2.6.2.9 0 .1 0 .2.1.3 0 .2.1.5.1.8 0 .4.1.8.1 1.2v292.8c0 6.3-5.2 11.5-11.7 11.5zM226.4-61c-2.6 0-4.7 2.1-4.7 4.7v379.9c0 2.6 2.1 4.7 4.7 4.7h292.8c2.6 0 4.7-2.1 4.7-4.7V30.3c0-.1 0-.2-.1-.3v-.2c0-.1 0-.2-.1-.3l-.1-.2c0-.1-.1-.2-.1-.3v-.1c0-.1-.1-.2-.1-.3l-.1-.1c-.1-.1-.1-.2-.2-.3l-.1-.1-.2-.2s-.1-.1-.1-.2c-.1-.1-.1-.2-.2-.2l-.1-.1-87.2-87.1-.2-.2v-.1c-.1-.1-.2-.1-.2-.2-.1 0-.1-.1-.2-.1s-.1-.1-.2-.1c0 0-.1 0-.1-.1-.1 0-.2-.1-.3-.1h-.1c-.1 0-.2-.1-.3-.1h-.1c-.1 0-.2-.1-.3-.1h-.2c-.1 0-.2 0-.3-.1H226.4zm288.2 379.9H231.1V-51.7h196.3v82.5c0 2.6 2.1 4.7 4.7 4.7h82.5v283.4zm-276.5-7h269.5V42.4h-75.5c-6.4 0-11.7-5.2-11.7-11.7v-75.5H238.1v356.7zM508 26.1h-71.2v-71.2L508 26.1zm-64.2-7h47.3l-47.3-47.3v47.3z"/><path class="st0" d="M460.7 81.2H285c-4.5 0-8.2 3.7-8.2 8.2s3.7 8.2 8.2 8.2h175.7c4.5 0 8.2-3.7 8.2-8.2s-3.7-8.2-8.2-8.2z"/><path class="st1" d="M460.7 101H285c-6.4 0-11.7-5.2-11.7-11.7 0-6.4 5.2-11.7 11.7-11.7h175.7c6.4 0 11.7 5.2 11.7 11.7 0 6.5-5.3 11.7-11.7 11.7zM285 84.7c-2.6 0-4.7 2.1-4.7 4.7s2.1 4.7 4.7 4.7h175.7c2.6 0 4.7-2.1 4.7-4.7s-2.1-4.7-4.7-4.7H285z"/><path class="st0" d="M460.7 139.7H285c-4.5 0-8.2 3.7-8.2 8.2s3.7 8.2 8.2 8.2h175.7c4.5 0 8.2-3.7 8.2-8.2s-3.7-8.2-8.2-8.2z"/><path class="st1" d="M460.7 159.6H285c-6.4 0-11.7-5.2-11.7-11.7 0-6.4 5.2-11.7 11.7-11.7h175.7c6.4 0 11.7 5.2 11.7 11.7 0 6.4-5.3 11.7-11.7 11.7zM285 143.2c-2.6 0-4.7 2.1-4.7 4.7s2.1 4.7 4.7 4.7h175.7c2.6 0 4.7-2.1 4.7-4.7s-2.1-4.7-4.7-4.7H285z"/><path class="st0" d="M460.7 198.3H285c-4.5 0-8.2 3.7-8.2 8.2 0 4.5 3.7 8.2 8.2 8.2h175.7c4.5 0 8.2-3.7 8.2-8.2 0-4.6-3.7-8.2-8.2-8.2z"/><path class="st1" d="M460.7 218.1H285c-6.4 0-11.7-5.2-11.7-11.7s5.2-11.7 11.7-11.7h175.7c6.4 0 11.7 5.2 11.7 11.7s-5.3 11.7-11.7 11.7zM285 201.8c-2.6 0-4.7 2.1-4.7 4.7s2.1 4.7 4.7 4.7h175.7c2.6 0 4.7-2.1 4.7-4.7s-2.1-4.7-4.7-4.7H285z"/><path class="st0" d="M372.8 256.8H285c-4.5 0-8.2 3.7-8.2 8.2 0 4.5 3.7 8.2 8.2 8.2h87.9c4.5 0 8.2-3.7 8.2-8.2-.1-4.5-3.7-8.2-8.3-8.2z"/><path class="st1" d="M372.8 276.7H285c-6.4 0-11.7-5.2-11.7-11.7 0-6.4 5.2-11.7 11.7-11.7h87.9c6.4 0 11.7 5.2 11.7 11.7-.1 6.4-5.3 11.7-11.8 11.7zM285 260.3c-2.6 0-4.7 2.1-4.7 4.7s2.1 4.7 4.7 4.7h87.9c2.6 0 4.7-2.1 4.7-4.7s-2.1-4.7-4.7-4.7H285z"/></svg>