<svg xmlns="http://www.w3.org/2000/svg" viewBox="0 0 418.763 418.763" width="107" height="107"><path d="M339.181 32.463h-65.5l22.2-22.2c2.3-2.3 2.3-6.1 0-8.5-2.3-2.4-6.1-2.3-8.5 0l-32.4 32.4c-1.1 1.1-1.8 2.7-1.8 4.2 0 1.6.6 3.1 1.8 4.2l32.4 32.4c1.2 1.2 2.7 1.8 4.2 1.8s3.1-.6 4.2-1.8c2.3-2.3 2.3-6.1 0-8.5l-22.2-22.2h65.5c37 0 67.2 30.1 67.2 67.2v38.3c0 3.3 2.7 6 6 6s6-2.7 6-6v-38.1h.1c0-43.7-35.5-79.2-79.2-79.2zm76.5 376c-1-1.2-2.6-1.8-4.2-1.8s-3.1.6-4.2 1.8c-1.1 1.1-1.8 2.7-1.8 4.3s.6 3.1 1.8 4.2c1.2 1.1 2.7 1.8 4.2 1.8s3.1-.6 4.2-1.8c1.1-1.2 1.8-2.7 1.8-4.2s-.6-3.1-1.8-4.3zm-168-1.8c-3.3 0-6 2.7-6 6s2.7 6 6 6 6-2.7 6-6-2.7-6-6-6zm23.4 0c-3.3 0-6 2.7-6 6s2.7 6 6 6 6-2.7 6-6-2.7-6-6-6zm46.8 0c-3.3 0-6 2.7-6 6s2.7 6 6 6 6-2.7 6-6-2.7-6-6-6zm46.8 0c-3.3 0-6 2.7-6 6s2.7 6 6 6 6-2.7 6-6-2.7-6-6-6zm23.4 0c-3.3 0-6 2.7-6 6s2.7 6 6 6 6-2.7 6-6-2.7-6-6-6zm-93.6 0c-3.3 0-6 2.7-6 6s2.7 6 6 6 6-2.7 6-6-2.7-6-6-6zm46.8 0c-3.3 0-6 2.7-6 6s2.7 6 6 6 6-2.7 6-6-2.7-6-6-6zm-112.8 1.7c-1.1-1.1-2.7-1.8-4.3-1.8s-3 .7-4.2 1.8c-1.1 1.1-1.8 2.7-1.8 4.3s.6 3.1 1.8 4.2c1.2 1.1 2.7 1.8 4.2 1.8 1.6 0 3.1-.6 4.3-1.8 1.1-1.1 1.8-2.7 1.8-4.2s-.6-3.1-1.8-4.3zm-4.2-95.3c-3.3 0-6 2.7-6 6s2.7 6 6 6 6-2.7 6-6c0-3.4-2.7-6-6-6zm0-23.4c-3.3 0-6 2.7-6 6s2.7 6 6 6 6-2.7 6-6c0-3.4-2.7-6-6-6zm0 46.8c-3.3 0-6 2.7-6 6s2.7 6 6 6 6-2.7 6-6-2.7-6-6-6zm0-93.7c-3.3 0-6 2.7-6 6s2.7 6 6 6 6-2.7 6-6-2.7-6-6-6zm0 23.4c-3.3 0-6 2.7-6 6s2.7 6 6 6 6-2.7 6-6-2.7-6-6-6zm0 117.1c-3.3 0-6 2.7-6 6s2.7 6 6 6 6-2.7 6-6-2.7-6-6-6zm0-23.4c-3.3 0-6 2.7-6 6s2.7 6 6 6 6-2.7 6-6-2.7-6-6-6zm4.2-138.7c-1.1-1.1-2.7-1.8-4.3-1.8s-3.1.6-4.2 1.8c-1.1 1.2-1.8 2.7-1.8 4.2 0 1.6.6 3.1 1.8 4.2 1.2 1.1 2.7 1.8 4.2 1.8s3.1-.6 4.3-1.8c1.1-1.1 1.8-2.7 1.8-4.2s-.7-3.1-1.8-4.2zm112.8-1.8c-3.3 0-6 2.7-6 6s2.7 6 6 6 6-2.7 6-6-2.7-6-6-6zm-23.4 0c-3.3 0-6 2.7-6 6s2.7 6 6 6 6-2.7 6-6-2.7-6-6-6zm46.8 0c-3.3 0-6 2.7-6 6s2.7 6 6 6 6-2.7 6-6-2.7-6-6-6zm-70.2 0c-3.3 0-6 2.7-6 6s2.7 6 6 6 6-2.7 6-6-2.7-6-6-6zm-46.8 0c-3.3 0-6 2.7-6 6s2.7 6 6 6 6-2.7 6-6-2.7-6-6-6zm140.4 0c-3.3 0-6 2.7-6 6s2.7 6 6 6 6-2.7 6-6-2.7-6-6-6zm-117 0c-3.3 0-6 2.7-6 6s2.7 6 6 6 6-2.7 6-6-2.7-6-6-6zm144.7 1.8c-1.1-1.1-2.7-1.8-4.2-1.8s-3.1.6-4.2 1.8c-1.1 1.1-1.8 2.7-1.8 4.2 0 1.6.6 3.1 1.8 4.2 1.1 1.1 2.7 1.8 4.2 1.8s3.1-.6 4.2-1.8c1.1-1.1 1.8-2.7 1.8-4.2-.1-1.5-.7-3.1-1.8-4.2zm-4.3 45c-3.3 0-6 2.7-6 6s2.7 6 6 6 6-2.7 6-6-2.6-6-6-6zm0 117.1c-3.3 0-6 2.7-6 6s2.7 6 6 6 6-2.7 6-6-2.6-6-6-6zm0-46.8c-3.3 0-6 2.7-6 6s2.7 6 6 6 6-2.7 6-6-2.6-6-6-6zm0-23.4c-3.3 0-6 2.7-6 6s2.7 6 6 6 6-2.7 6-6c0-3.4-2.6-6-6-6zm0-70.3c-3.3 0-6 2.7-6 6s2.7 6 6 6 6-2.7 6-6-2.6-6-6-6zm0 46.9c-3.3 0-6 2.7-6 6s2.7 6 6 6 6-2.7 6-6c0-3.4-2.6-6-6-6zm0 70.2c-3.3 0-6 2.7-6 6s2.7 6 6 6 6-2.7 6-6-2.6-6-6-6zm-247.8 16.2l-32.3-32.4c-2.3-2.3-6.1-2.3-8.5 0-2.3 2.3-2.3 6.1 0 8.5l22.2 22.2h-65.5c-37 0-67.2-30.1-67.2-67.2v-38.3c0-3.3-2.7-6-6-6s-6 2.7-6 6v38.3c0 43.7 35.5 79.2 79.2 79.2h65.5l-22.2 22.2c-2.3 2.2-2.3 6 0 8.3 1.2 1.2 2.7 1.8 4.2 1.8s3.1-.6 4.2-1.8l32.4-32.4c1.1-1.1 1.8-2.7 1.8-4.2 0-1.6-.6-3.1-1.8-4.2zm30.8-376H7.281c-3.3 0-6 2.7-6 6v187.3c0 3.3 2.7 6 6 6h187.3c3.2 0 5.9-2.7 5.9-6V6.063c0-3.3-2.7-6-6-6zm-5.9 187.3h-175.3v-175.3h175.3v175.3z" fill="#09af54"/></svg>