<?xml version="1.0" encoding="utf-8"?>
<!-- Generator: Adobe Illustrator 19.0.0, SVG Export Plug-In . SVG Version: 6.00 Build 0)  -->
<svg version="1.1" id="Слой_1" xmlns="http://www.w3.org/2000/svg" xmlns:xlink="http://www.w3.org/1999/xlink" x="0px" y="0px" width="26" height="59"
	 viewBox="0 0 23.6 57.9" style="enable-background:new 0 0 23.6 57.9;" xml:space="preserve">
<style type="text/css">
	.st0{fill:#7FACDD;}
</style>
<g id="XMLID_3_">
	<path id="XMLID_10_" class="st0" d="M16.3,55.6C-0.4,47.1-3.2,23,14.8,9c1.4-1.1,0.1-3.4-1.4-2.4c-20.2,13.7-16,42,2.4,51.2
		C17.2,58.3,17.7,56.5,16.3,55.6z"/>
	<path id="XMLID_4_" class="st0" d="M9.7,1.9c2.7,0.1,4.8,0.6,6.6,0.9c1.5,0.3,3.1,0.6,4.6,1c-1.2,3.6-2.1,7.5-3.6,11
		c-0.5,0.7,0.7,1.5,1.2,0.9c2.2-3.6,3.5-8,5.1-12.1c0.2-0.6-0.1-1.5-0.8-1.7C20.5,1.3,12-0.1,9.6,0C8.5,0.4,8.8,1.6,9.7,1.9z"/>
</g>
</svg>
