<svg xmlns="http://www.w3.org/2000/svg" xmlns:xlink="http://www.w3.org/1999/xlink" width="200" height="68" viewBox="0 0 200 68"><defs><path id="w8kya" d="M1024 649h101c10.2 0 19.125 5.454 24.02 13.604v-.591s8.362 9.912 25.98 9.987c.014 0 .1 22 0 22-14.757-.064-23.366 6.65-25.47 8.513C1144.76 711.15 1135.564 717 1125 717h-101c-10.565 0-19.764-5.852-24.531-14.49-3.218-2.794-11.445-8.566-24.438-8.51-.1 0-.013-22 0-22 17.341-.074 25.715-10.647 25.973-10.98 5.059-7.265 13.472-12.02 22.996-12.02z"/><linearGradient id="w8kyb" x1="974.98" x2="1174.98" y1="683" y2="683" gradientUnits="userSpaceOnUse"><stop offset="0" stop-color="#ff9a4b"/><stop offset="1" stop-color="#c3e141"/></linearGradient></defs><g><g transform="translate(-975 -649)"><use fill="#f3f7ec" xlink:href="#w8kya"/><use fill="url(#w8kyb)" xlink:href="#w8kya"/></g></g></svg>