<svg xmlns="http://www.w3.org/2000/svg" xmlns:xlink="http://www.w3.org/1999/xlink" width="200" height="68" viewBox="0 0 200 68"><defs><path id="cpe6a" d="M694 570h101c10.2 0 19.125 5.453 24.02 13.603v-.59s8.362 9.912 25.98 9.987c.013 0 .1 22 0 22-14.756-.064-23.366 6.649-25.47 8.513C814.76 632.15 805.564 638 795 638H694c-10.565 0-19.763-5.851-24.531-14.49-3.217-2.793-11.445-8.566-24.438-8.51-.1 0-.014-22 0-22 17.385-.074 25.757-10.701 25.975-10.982C676.064 574.754 684.477 570 694 570z"/><linearGradient id="cpe6b" x1="644.98" x2="844.98" y1="604" y2="604" gradientUnits="userSpaceOnUse"><stop offset="0" stop-color="#58c35b"/><stop offset="1" stop-color="#a8e65a"/></linearGradient></defs><g><g transform="translate(-645 -570)"><use fill="#f3f7ec" xlink:href="#cpe6a"/><use fill="url(#cpe6b)" xlink:href="#cpe6a"/></g></g></svg>