<svg xmlns="http://www.w3.org/2000/svg" xmlns:xlink="http://www.w3.org/1999/xlink" width="200" height="68" viewBox="0 0 200 68"><defs><path id="s869a" d="M1144 570h101c10.2 0 19.125 5.454 24.02 13.604v-.591s8.362 9.912 25.98 9.987c.014 0 .1 22 0 22-14.757-.064-23.366 6.65-25.47 8.513C1264.76 632.15 1255.563 638 1245 638h-101c-10.565 0-19.764-5.851-24.531-14.49-3.218-2.793-11.445-8.566-24.438-8.51-.1 0-.013-22 0-22 17.334-.074 25.707-10.638 25.973-10.979C1126.062 574.755 1134.476 570 1144 570z"/><linearGradient id="s869b" x1="1094.98" x2="1294.98" y1="604" y2="604" gradientUnits="userSpaceOnUse"><stop offset="0" stop-color="#fe8e60"/><stop offset="1" stop-color="#fe4a77"/></linearGradient></defs><g><g transform="translate(-1095 -570)"><use fill="#f3f7ec" xlink:href="#s869a"/><use fill="url(#s869b)" xlink:href="#s869a"/></g></g></svg>