<svg xmlns="http://www.w3.org/2000/svg" xmlns:xlink="http://www.w3.org/1999/xlink" width="200" height="68" viewBox="0 0 200 68"><defs><path id="x5pba" d="M1474 190h101c10.2 0 19.125 5.453 24.02 13.603v-.59s8.362 9.912 25.98 9.987c.013 0 .1 22 0 22-14.756-.064-23.366 6.649-25.47 8.513C1594.76 252.15 1585.564 258 1575 258h-101c-10.565 0-19.763-5.851-24.531-14.49-3.217-2.793-11.445-8.566-24.438-8.51-.1 0-.014-22 0-22 17.389-.074 25.76-10.705 25.975-10.982C1456.065 194.754 1464.477 190 1474 190z"/><linearGradient id="x5pbb" x1="1424.98" x2="1624.98" y1="224" y2="224" gradientUnits="userSpaceOnUse"><stop offset="0" stop-color="#95015b"/><stop offset="1" stop-color="#5e37cc"/></linearGradient></defs><g><g transform="translate(-1425 -190)"><use fill="#f3f7ec" xlink:href="#x5pba"/><use fill="url(#x5pbb)" xlink:href="#x5pba"/></g></g></svg>