<?xml version="1.0"?>
<svg xmlns="http://www.w3.org/2000/svg" viewBox="0 -10 512.00002 512" width="512px" height="512px"><g><path d="m471.3125 372.660156c-1.203125-3.703125-4.40625-6.398437-8.257812-6.960937l-30.628907-4.449219-13.699219-27.757812c-1.722656-3.492188-5.277343-5.699219-9.171874-5.699219-3.894532 0-7.449219 2.207031-9.171876 5.699219l-13.699218 27.757812-30.628906 4.449219c-3.855469.5625-7.054688 3.257812-8.257813 6.960937s-.199219 7.769532 2.585937 10.484375l22.164063 21.605469-5.230469 30.507812c-.65625 3.835938.921875 7.714844 4.070313 10.003907 3.148437 2.285156 7.324219 2.585937 10.769531.777343l27.398438-14.402343 27.398437 14.402343c1.496094.785157 3.128906 1.175782 4.757813 1.175782 2.117187 0 4.230468-.660156 6.011718-1.953125 3.148438-2.289063 4.726563-6.167969 4.070313-10.003907l-5.234375-30.507812 22.164062-21.605469c2.789063-2.714843 3.789063-6.78125 2.589844-10.484375zm-42.882812 21.195313c-2.410157 2.351562-3.511719 5.734375-2.941407 9.054687l2.640625 15.382813-13.816406-7.265625c-1.488281-.78125-3.125-1.171875-4.757812-1.171875-1.636719 0-3.269532.390625-4.757813 1.171875l-13.816406 7.265625 2.640625-15.382813c.566406-3.316406-.535156-6.703125-2.941406-9.054687l-11.175782-10.890625 15.441406-2.246094c3.332032-.484375 6.210938-2.574219 7.703126-5.59375l6.90625-13.996094 6.90625 13.996094c1.488281 3.019531 4.367187 5.109375 7.699218 5.59375l15.445313 2.246094zm0 0" data-original="#000000" class="active-path" data-old_color="#ff5c80" fill="#ff5c80"/><path d="m195.34375 71.933594h202.503906c5.648438 0 10.226563-4.582032 10.226563-10.226563 0-5.648437-4.578125-10.230469-10.226563-10.230469h-202.503906c-5.648438 0-10.230469 4.582032-10.230469 10.230469 0 5.644531 4.582031 10.226563 10.230469 10.226563zm0 0" data-original="#000000" class="active-path" data-old_color="#ff5c80" fill="#ff5c80"/><path d="m52.261719 65.621094c.257812.613281.574219 1.207031.941406 1.757812.367187.5625.796875 1.085938 1.269531 1.554688.46875.46875.992188.898437 1.554688 1.277344.550781.371093 1.144531.6875 1.769531.941406.613281.257812 1.257813.449218 1.910156.582031.65625.132813 1.332031.195313 1.996094.195313s1.339844-.0625 1.992187-.195313c.65625-.128906 1.300782-.324219 1.914063-.582031.625-.253906 1.21875-.570313 1.769531-.941406.5625-.378907 1.085938-.808594 1.554688-1.277344s.898437-.992188 1.269531-1.554688c.378906-.550781.683594-1.144531.941406-1.757812.253907-.625.457031-1.257813.582031-1.914063.132813-.664062.203126-1.339843.203126-2.003906s-.070313-1.339844-.203126-1.996094c-.125-.652343-.328124-1.296875-.582031-1.910156-.257812-.625-.5625-1.21875-.941406-1.769531-.371094-.5625-.800781-1.085938-1.269531-1.554688-.46875-.472656-.992188-.902344-1.554688-1.269531-.550781-.367187-1.144531-.683594-1.757812-.941406-.625-.253907-1.269532-.449219-1.914063-.582031-1.320312-.265626-2.679687-.265626-4 0-.652343.132812-1.296875.328124-1.910156.582031-.625.257812-1.21875.574219-1.769531.941406-.5625.367187-1.085938.796875-1.554688 1.269531-.472656.46875-.902344.992188-1.269531 1.554688-.367187.550781-.683594 1.144531-.941406 1.769531-.253907.613281-.460938 1.257813-.582031 1.910156-.132813.65625-.203126 1.332031-.203126 1.996094s.070313 1.339844.203126 2.003906c.121093.65625.328124 1.289063.582031 1.914063zm0 0" data-original="#000000" class="active-path" data-old_color="#ff5c80" fill="#ff5c80"/><path d="m93.171875 65.621094c.257813.613281.574219 1.207031.941406 1.757812.367188.5625.796875 1.085938 1.269531 1.554688.46875.46875.992188.898437 1.554688 1.277344.550781.371093 1.144531.6875 1.769531.941406.613281.257812 1.257813.449218 1.910157.582031.65625.132813 1.332031.195313 1.996093.195313.664063 0 1.339844-.0625 1.992188-.195313.65625-.128906 1.300781-.324219 1.914062-.582031.625-.253906 1.21875-.570313 1.769531-.941406.5625-.378907 1.085938-.808594 1.554688-1.277344s.898438-.992188 1.269531-1.554688c.375-.550781.683594-1.144531.941407-1.757812.253906-.625.457031-1.257813.582031-1.914063.132812-.664062.203125-1.339843.203125-2.003906s-.070313-1.339844-.203125-1.996094c-.125-.652343-.328125-1.296875-.582031-1.910156-.257813-.625-.566407-1.21875-.941407-1.769531-.371093-.5625-.800781-1.085938-1.269531-1.554688-2.371094-2.375-5.902344-3.457031-9.226562-2.792968-.652344.132812-1.296876.328124-1.910157.582031-.625.257812-1.21875.574219-1.769531.941406-.5625.367187-1.085938.796875-1.554688 1.269531-.472656.46875-.902343.992188-1.269531 1.554688-.367187.550781-.683593 1.144531-.941406 1.769531-.253906.613281-.460937 1.257813-.582031 1.910156-.132813.65625-.203125 1.332031-.203125 1.996094s.070312 1.339844.203125 2.003906c.121094.65625.328125 1.289063.582031 1.914063zm0 0" data-original="#000000" class="active-path" data-old_color="#ff5c80" fill="#ff5c80"/><path d="m134.082031 65.621094c.257813.613281.574219 1.207031.941407 1.757812.367187.5625.796874 1.085938 1.269531 1.554688.46875.46875.992187.898437 1.554687 1.277344.550782.371093 1.144532.6875 1.769532.941406.613281.257812 1.257812.449218 1.910156.582031.65625.132813 1.332031.195313 1.996094.195313.664062 0 1.339843-.0625 1.992187-.195313.65625-.128906 1.300781-.324219 1.914063-.582031.625-.253906 1.21875-.570313 1.769531-.941406.5625-.378907 1.085937-.808594 1.554687-1.277344s.898438-.992188 1.269532-1.554688c.375-.550781.683593-1.144531.9375-1.757812.257812-.625.460937-1.257813.585937-1.914063.132813-.664062.203125-1.339843.203125-2.003906s-.070312-1.339844-.203125-1.996094c-.125-.652343-.328125-1.296875-.585937-1.910156-.253907-.625-.5625-1.21875-.9375-1.769531-.371094-.5625-.800782-1.085938-1.269532-1.554688-2.371094-2.375-5.902344-3.46875-9.226562-2.792968-.652344.132812-1.296875.328124-1.910156.582031-.625.257812-1.21875.574219-1.769532.941406-.5625.367187-1.085937.796875-1.554687 1.269531-.472657.46875-.902344.992188-1.269531 1.554688-.367188.550781-.683594 1.144531-.941407 1.769531-.253906.613281-.460937 1.257813-.582031 1.910156-.132812.65625-.203125 1.332031-.203125 1.996094s.070313 1.339844.203125 2.003906c.121094.65625.328125 1.289063.582031 1.914063zm0 0" data-original="#000000" class="active-path" data-old_color="#ff5c80" fill="#ff5c80"/><path d="m255.34375 306.824219h-88.464844c-5.648437 0-10.226562 4.582031-10.226562 10.230469 0 5.644531 4.578125 10.226562 10.226562 10.226562h88.464844c5.648438 0 10.226562-4.582031 10.226562-10.226562 0-5.648438-4.578124-10.230469-10.226562-10.230469zm0 0" data-original="#000000" class="active-path" data-old_color="#ff5c80" fill="#ff5c80"/><path d="m50.792969 327.28125h34.265625c5.648437 0 10.230468-4.582031 10.230468-10.226562 0-5.648438-4.582031-10.230469-10.230468-10.230469h-34.265625c-5.648438 0-10.226563 4.582031-10.226563 10.230469 0 5.644531 4.578125 10.226562 10.226563 10.226562zm0 0" data-original="#000000" class="active-path" data-old_color="#ff5c80" fill="#ff5c80"/><path d="m255.34375 347.734375h-204.550781c-5.648438 0-10.226563 4.582031-10.226563 10.230469 0 5.644531 4.578125 10.226562 10.226563 10.226562h204.550781c5.648438 0 10.226562-4.582031 10.226562-10.226562 0-5.648438-4.578124-10.230469-10.226562-10.230469zm0 0" data-original="#000000" class="active-path" data-old_color="#ff5c80" fill="#ff5c80"/><path d="m265.53125 152.609375c-.011719-.136719-.023438-.273437-.039062-.40625-.023438-.191406-.050782-.382813-.085938-.574219-.027344-.148437-.054688-.296875-.085938-.445312-.039062-.167969-.082031-.332032-.128906-.5-.046875-.164063-.09375-.328125-.148437-.492188-.046875-.144531-.101563-.285156-.152344-.425781-.070313-.183594-.144531-.359375-.222656-.535156-.054688-.125-.117188-.25-.175781-.371094-.09375-.183594-.191407-.367187-.292969-.546875-.03125-.050781-.054688-.109375-.085938-.160156-.039062-.066406-.085937-.128906-.128906-.191406-.105469-.167969-.210937-.328126-.324219-.484376-.09375-.128906-.1875-.257812-.285156-.382812-.101562-.128906-.203125-.253906-.308594-.375-.121094-.140625-.242187-.273438-.371094-.40625-.09375-.101562-.195312-.195312-.296874-.292969-.140626-.136719-.285157-.269531-.433594-.394531-.101563-.085938-.203125-.167969-.308594-.25-.152344-.121094-.308594-.238281-.46875-.347656-.117188-.082032-.238281-.160156-.359375-.238282-.148437-.09375-.300781-.1875-.453125-.277343-.144531-.082031-.292969-.15625-.4375-.230469-.140625-.070312-.28125-.140625-.425781-.203125-.167969-.074219-.335938-.140625-.503907-.207031-.136718-.050782-.269531-.101563-.40625-.148438-.175781-.058594-.355468-.113281-.535156-.160156-.144531-.042969-.285156-.078125-.429687-.113281-.171875-.039063-.339844-.070313-.515625-.101563-.164063-.03125-.332032-.054687-.503906-.078125-.148438-.015625-.300782-.03125-.453126-.042969-.199218-.019531-.398437-.027343-.601562-.03125-.074219 0-.144531-.011718-.21875-.011718h-204.550781c-.085938 0-.167969.011718-.253907.011718-.179687.003907-.355468.015626-.535156.027344-.175781.015625-.347656.03125-.519531.054688-.144531.019531-.289063.039062-.433594.066406-.195312.03125-.390625.070312-.582031.113281-.121094.027344-.238281.0625-.355469.09375-.207031.054688-.40625.113281-.605469.183594-.113281.035156-.222656.078125-.335937.121094-.191406.074219-.382813.148437-.570313.234375-.125.054687-.242187.113281-.359374.171875-.171876.082031-.335938.167969-.5.261719-.136719.078124-.269532.160156-.402344.242187-.136719.089844-.277344.175781-.410156.269531-.144532.105469-.285157.210938-.425782.320313-.117187.089843-.230468.183593-.34375.277343-.140625.121094-.273437.246094-.410156.371094-.105469.105469-.214844.207032-.316406.316406-.121094.125-.238282.253907-.351563.386719-.113281.128907-.222656.257813-.328125.394531-.09375.117188-.183594.238282-.273437.363282-.117188.164062-.230469.332031-.335938.5-.039062.0625-.082031.121094-.121093.183594-.03125.050781-.054688.105468-.085938.15625-.105469.183593-.203125.371093-.296875.5625-.058594.117187-.117187.234374-.171875.355468-.082031.179688-.152344.363282-.222656.546875-.054688.136719-.109375.277344-.152344.417969-.054688.164062-.105469.328125-.148438.5-.046874.164062-.09375.328125-.128906.496094-.03125.144531-.058594.296875-.085937.445312-.035157.191406-.066407.378906-.089844.570313-.015625.136719-.023437.273437-.035156.40625-.015625.207031-.027344.414062-.03125.621093 0 .0625-.011719.121094-.011719.183594v122.730469c0 .0625.011719.121094.011719.183594.003906.207031.015625.410156.03125.617187.011719.136719.019531.273438.035156.40625.023437.191406.054687.382813.089844.574219.027343.148437.054687.296875.085937.445313.035156.167968.082032.332031.128906.496093.042969.167969.09375.335938.148438.5.046875.140625.097656.277344.152344.417969.070312.183594.140625.367188.222656.546875.054688.117187.113281.238281.171875.355469.09375.191406.191406.375.296875.5625.03125.050781.054688.105468.085938.15625.027343.046875.0625.085937.09375.132812.179687.292969.375.574219.582031.84375.054687.066406.101562.136719.15625.203125.242187.300781.503906.585938.78125.859375.097656.09375.195312.175782.292969.265625.199218.179688.402343.351563.613281.515625.117187.085938.230469.175782.34375.257813.253906.175781.511719.34375.78125.5.066406.039062.132812.085937.199219.121093.347656.191407.703124.359376 1.074218.507813.074219.03125.152344.054687.230469.085937.296875.109376.597656.207032.90625.292969.105469.03125.214844.058594.324219.085938.285156.066406.574218.121093.867187.164062.113281.019531.226563.039063.339844.050781.351563.042969.710937.066407 1.074219.070313.039062 0 .078125.007813.117187.007813.011719 0 .019531-.003907.03125-.003907h204.46875c.011719 0 .019531.003907.03125.003907.039063 0 .078125-.007813.117188-.007813.363281-.003906.722656-.027344 1.074219-.070313.113281-.011718.222656-.03125.335937-.050781.296875-.042969.585937-.097656.875-.167969.105469-.023437.214844-.050781.320313-.082031.308593-.085937.613281-.183593.910156-.296875.074218-.027344.152344-.054687.226562-.082031.371094-.152344.730469-.320313 1.078125-.511719.0625-.035156.125-.078125.191407-.113281.269531-.160156.53125-.328125.789062-.507813.113281-.082031.226562-.167968.339844-.253906.214844-.164062.417968-.339844.617187-.519531.097657-.089844.195313-.171875.289063-.265625.277344-.269531.539062-.554688.785156-.855469.054688-.066406.101562-.140625.15625-.210937.207031-.269532.398438-.546875.578125-.832032.03125-.050781.066406-.09375.097656-.140624.03125-.054688.054688-.109376.085938-.164063.101562-.179687.199219-.359375.292969-.546875.058593-.121094.121093-.242188.175781-.367188.078125-.175781.152343-.355468.222656-.535156.050781-.140625.105469-.285156.152344-.425781.054687-.164063.101562-.328125.148437-.496094s.089844-.332031.128906-.5c.03125-.148437.058594-.296875.085938-.445312.03125-.191407.0625-.378907.085938-.570313.015624-.136718.027343-.273437.039062-.410156.015625-.207031.027344-.410156.03125-.617188 0-.0625.007812-.121093.007812-.183593v-122.730469c0-.0625-.007812-.121094-.007812-.183594-.003906-.199218-.015625-.40625-.03125-.613281zm-204.507812 18.867187 72.167968 43.300782-72.167968 43.300781zm26.695312-7.835937h130.699219l-65.347657 39.210937zm65.351562 63.066406 65.347657 39.207031h-130.699219zm19.878907-11.929687 72.167969-43.300782v86.601563zm0 0" data-original="#000000" class="active-path" data-old_color="#ff5c80" fill="#ff5c80"/><path d="m450.347656 294.648438v-263.453126c0-17.199218-13.992187-31.195312-31.191406-31.195312h-387.960938c-17.203124 0-31.195312 13.996094-31.195312 31.195312v346.710938c0 17.199219 13.992188 31.195312 31.195312 31.195312h277.789063c9.5 46.777344 50.945313 82.09375 100.484375 82.09375 56.535156 0 102.53125-45.992187 102.53125-102.527343 0-42.015625-25.402344-78.199219-61.652344-94.019531zm-419.152344-274.195313h387.960938c5.921875 0 10.738281 4.820313 10.738281 10.742187v71.078126h-409.441406v-71.078126c0-5.921874 4.820313-10.742187 10.742187-10.742187zm-10.742187 357.453125v-255.175781h409.441406v165.449219c-6.605469-1.339844-13.433593-2.042969-20.425781-2.042969-.464844 0-.925781.011719-1.390625.015625v-132.738282c0-5.648437-4.578125-10.230468-10.226563-10.230468h-101.253906c-5.644531 0-10.226562 4.582031-10.226562 10.230468v203.863282c0 5.648437 4.582031 10.226562 10.226562 10.226562h12.542969c-1.441406 6.828125-2.199219 13.898438-2.203125 21.140625h-275.742188c-5.921874 0-10.742187-4.816406-10.742187-10.738281zm295.320313-30.855469h-8.949219v-183.410156h80.800781v124.84375c-32.164062 7.007813-58.738281 29.152344-71.851562 58.566406zm93.695312 123.691407c-45.257812 0-82.074219-36.820313-82.074219-82.074219 0-45.257813 36.816407-82.078125 82.074219-82.078125s82.078125 36.820312 82.078125 82.078125c0 45.253906-36.820313 82.074219-82.078125 82.074219zm0 0" data-original="#000000" class="active-path" data-old_color="#ff5c80" fill="#ff5c80"/><path d="m121.71875 326.503906c.613281.253906 1.257812.449219 1.910156.582032.667969.132812 1.332032.203124 1.996094.203124.675781 0 1.339844-.070312 2.003906-.203124.65625-.132813 1.300782-.328126 1.914063-.582032.613281-.257812 1.207031-.574218 1.757812-.941406.5625-.367188 1.085938-.796875 1.554688-1.269531 1.914062-1.910157 3.007812-4.539063 3.007812-7.230469 0-.664062-.074219-1.339844-.207031-2.003906-.132812-.644532-.324219-1.289063-.582031-1.914063-.253907-.613281-.570313-1.207031-.941407-1.757812-.378906-.5625-.796874-1.085938-1.277343-1.554688-1.902344-1.914062-4.53125-2.996093-7.230469-2.996093-2.691406 0-5.320312 1.082031-7.230469 2.996093-.472656.46875-.902343.992188-1.269531 1.554688-.367188.550781-.683594 1.144531-.941406 1.757812-.253906.625-.449219 1.269531-.582032 1.914063-.132812.664062-.203124 1.339844-.203124 2.003906 0 2.691406 1.09375 5.328125 2.996093 7.230469.46875.472656 1 .902343 1.554688 1.269531.5625.367188 1.15625.683594 1.769531.941406zm0 0" data-original="#000000" class="active-path" data-old_color="#ff5c80" fill="#ff5c80"/></g> </svg>
