<svg id="Layer_1" data-name="Layer 1" xmlns="http://www.w3.org/2000/svg" viewBox="0 0 192.76 112.17"><defs><style>.cls-1,.cls-4{fill:#fff}.cls-1{fill-rule:evenodd}.cls-2{fill:#fab41e}.cls-3{fill:#e40520}.cls-5{fill:none;stroke:#fff;stroke-width:.21px}</style></defs><title>mc</title><path class="cls-1" d="M0 0h192.76v112.17H0V0z"/><path class="cls-2" d="M129.63 104.17l2.44-.06 2.41-.18 2.36-.3 2.35-.41 2.28-.53 2.26-.64 2.2-.75 2.16-.85 2.1-.96 2.05-1.03 1.98-1.15 1.93-1.23 1.85-1.33 1.79-1.41 1.73-1.48 1.64-1.58 1.58-1.65 1.49-1.72 1.4-1.79 1.33-1.85 1.23-1.94 1.15-1.97 1.04-2.05.96-2.11.84-2.15.75-2.21.64-2.25.53-2.28.41-2.35.31-2.36.17-2.42.07-2.44-.07-2.43-.17-2.39-.31-2.37-.41-2.31-.53-2.29-.64-2.23-.75-2.21-.84-2.14-.96-2.09-1.04-2.04-1.15-1.97-1.23-1.93-1.33-1.85-1.4-1.77-1.49-1.73-1.58-1.64-1.64-1.57-1.73-1.48-1.79-1.41-1.85-1.32-1.93-1.23-1.98-1.14-2.05-1.04-2.1-.95-2.16-.85-2.2-.75-2.26-.64-2.28-.53-2.35-.41-2.36-.31-2.41-.17-2.44-.07-2.43.07-2.41.17-2.37.31-2.33.41-2.28.53-2.25.64-2.19.75-2.16.85-2.09.95-2.03 1.04-1.98 1.14-1.92 1.23-1.85 1.32-1.79 1.41-1.71 1.48-1.64 1.57-1.57 1.64-1.48 1.73-1.41 1.77-1.31 1.85-1.23 1.93-1.13 1.97-1.05 2.04-.95 2.09-.84 2.14-.74 2.21-.64 2.23-.52 2.29-.42 2.31-.3 2.37-.18 2.39-.06 2.43.06 2.44.18 2.42.3 2.36.42 2.35.52 2.28.64 2.25.74 2.21.84 2.15.95 2.11 1.05 2.05 1.13 1.97 1.23 1.94 1.31 1.85 1.41 1.79 1.48 1.72 1.57 1.65 1.64 1.58 1.71 1.48 1.79 1.41 1.85 1.33 1.92 1.23 1.98 1.15 2.03 1.03 2.09.96 2.16.85 2.19.75 2.25.64 2.28.53 2.33.41 2.37.3 2.41.18 2.43.06z"/><path class="cls-3" d="M66.28 104.17l2.43-.06 2.42-.18 2.36-.3 2.33-.41 2.28-.53 2.26-.64 2.18-.75 2.16-.85 2.09-.96 2.03-1.03 1.98-1.15 1.92-1.23 1.85-1.33 1.79-1.41 1.71-1.48 1.64-1.58 1.57-1.65 1.48-1.72 1.41-1.79 1.31-1.85 1.23-1.94 1.13-1.97 1.05-2.05.95-2.11.84-2.15.74-2.21.64-2.25.52-2.28.42-2.35.3-2.36.18-2.42.06-2.44-.06-2.43-.18-2.39-.3-2.37-.42-2.31-.52-2.29-.64-2.23-.74-2.21-.84-2.14-.95-2.09-1.05-2.04-1.13-1.97-1.23-1.93-1.31-1.85-1.41-1.77-1.48-1.73-1.57-1.64-1.64-1.57-1.71-1.48-1.79-1.41-1.85-1.32-1.92-1.23-1.98-1.14-2.03-1.04-2.09-.95-2.16-.85-2.18-.75-2.26-.64-2.28-.53-2.33-.41-2.36-.31-2.42-.17-2.43-.07-2.44.07-2.41.17-2.36.31-2.35.41-2.28.53-2.26.64-2.2.75-2.16.85-2.1.95-2.05 1.04-1.98 1.14-1.93 1.23-1.85 1.32-1.79 1.41-1.73 1.48-1.64 1.57-1.58 1.64-1.49 1.73-1.41 1.77-1.32 1.85-1.23 1.93-1.15 1.97-1.04 2.04-.96 2.09-.84 2.14-.75 2.21-.64 2.23-.53 2.29-.41 2.31-.31 2.37-.17 2.39-.07 2.43.07 2.44.17 2.42.31 2.36.41 2.35.53 2.28.64 2.25.75 2.21.84 2.15.96 2.11 1.04 2.05 1.15 1.97 1.23 1.94 1.32 1.85 1.41 1.79 1.49 1.72 1.58 1.65 1.64 1.58 1.73 1.48 1.79 1.41 1.85 1.33 1.93 1.23 1.98 1.15 2.05 1.03 2.1.96 2.16.85 2.2.75 2.26.64 2.28.53 2.35.41 2.36.3 2.41.18 2.44.06z"/><path class="cls-2" d="M92.41 27.64h25.16v-2.57H94.58l-2.17 2.57zm-3.77 5.72h28.93v-2.57H90.16l-1.52 2.57zm-2.81 5.7h31.74v-2.57H86.95l-1.12 2.57zm-1.93 5.72h33.67v-2.57H84.7l-.8 2.57zm1.12 27.63h32.63v-2.57H84.22l.8 2.57zm2.41 5.72h30.22v-2.58H86.23l1.2 2.58zm3.39 5.7h26.83v-2.58H89.2l1.62 2.58zm4.66 5.71h22.17v-2.58H93.23l2.25 2.58zM82.77 50.48h34.8v-2.57H83.26l-.49 2.57zm21.21 16.23h13.27v-2.57h-12.8l-.47 2.57zm1.05-5.7h12.22v-2.59h-11.74l-.48 2.59zm-23.14-2.59h3.45v2.59h-3.29l-.16-2.59z"/><path class="cls-4" d="M75.45 55.3l-.22-.01-.23-.03-.2-.04-.21-.03-.19-.03-.21-.03-.21-.04-.22-.03-.22-.03-.26-.01-.29-.02-.3-.02h-.34l-.36.02-.42.03-.46.03-.32.05-.3.05-.28.1-.24.09-.22.11-.21.13-.16.16-.14.14-.1.18-.08.17-.03.2v.19l.05.21.06.2.13.21.16.21.32.3.38.24.45.21.48.17.51.17.53.17.53.19.51.21.48.27.44.34.4.4.34.49.25.61.16.72.07.86-.07 1-.11.76-.19.65-.26.61-.32.53-.36.46-.42.4-.44.35-.5.3-.51.24-.53.21-.54.16-.56.13-.54.09-.53.05-.53.03-.49.02h-.69l-.64-.02h-.56l-.52-.01-.48-.02-.43-.03-.39-.03-.36-.05-.34-.03-.3-.07-.31-.04-.27-.08-.27-.07-.26-.1-.25-.09-.27-.1.72-3.53.14.04.18.04.22.07.27.06.29.07.32.06.35.08.38.06.4.07.42.06.43.05.45.05.46.01.46.02h.46l.47-.02.46-.09.37-.13.29-.18.22-.22.16-.22.13-.26.08-.25.06-.24.03-.47-.14-.4-.27-.32-.4-.27-.48-.24-.56-.24-.62-.22-.63-.26-.63-.28-.61-.34-.56-.41-.51-.5-.4-.61-.29-.72-.14-.86.01-1.02.08-.62.11-.59.17-.55.19-.51.25-.48.29-.41.33-.4.4-.35.47-.31.51-.25.57-.24.64-.18.72-.14.78-.11.87-.06.94-.02h.59l.54.02.5.01.44.02.4.03.37.03.32.03.29.03.27.04.22.04.21.04.19.03.16.03.15.02.14.03.13.01-.82 3.61z"/><path class="cls-5" d="M75.45 55.3l-.22-.01-.23-.03-.2-.04-.21-.03-.19-.03-.21-.03-.21-.04-.22-.03-.22-.03-.26-.01-.29-.02-.3-.02h-.34l-.36.02-.42.03-.46.03-.32.05-.3.05-.28.1-.24.09-.22.11-.21.13-.16.16-.14.14-.1.18-.08.17-.03.2v.19l.05.21.06.2.13.21.16.21.32.3.38.24.45.21.48.17.51.17.53.17.53.19.51.21.48.27.44.34.4.4.34.49.25.61.16.72.07.86-.07 1-.11.76-.19.65-.26.61-.32.53-.36.46-.42.4-.44.35-.5.3-.51.24-.53.21-.54.16-.56.13-.54.09-.53.05-.53.03-.49.02h-.69l-.64-.02h-.56l-.52-.01-.48-.02-.43-.03-.39-.03-.36-.05-.34-.03-.3-.07-.31-.04-.27-.08-.27-.07-.26-.1-.25-.09-.27-.1.72-3.53.14.04.18.04.22.07.27.06.29.07.32.06.35.08.38.06.4.07.42.06.43.05.45.05.46.01.46.02h.46l.47-.02.46-.09.37-.13.29-.18.22-.22.16-.22.13-.26.08-.25.06-.24.03-.47-.14-.4-.27-.32-.4-.27-.48-.24-.56-.24-.62-.22-.63-.26-.63-.28-.61-.34-.56-.41-.51-.5-.4-.61-.29-.72-.14-.86.01-1.02.08-.62.11-.59.17-.55.19-.51.25-.48.29-.41.33-.4.4-.35.47-.31.51-.25.57-.24.64-.18.72-.14.78-.11.87-.06.94-.02h.59l.54.02.5.01.44.02.4.03.37.03.32.03.29.03.27.04.22.04.21.04.19.03.16.03.15.02.14.03.13.01-.82 3.61"/><path class="cls-4" d="M79.24 47.75h4.42l-.65 3.86h2.66l-.57 3.61-2.81-.08-1.54 8.92-.01.31.08.28.16.2.21.18.28.11.32.1.35.06.39.03.35-.01.32-.04.29-.04.25-.07.21-.06.14-.05.1-.03.03-.02-.56 2.97-.11.08-.11.07-.11.06-.12.06-.11.05-.13.05-.14.05-.14.05-.16.05-.16.03-.19.03-.2.03-.2.03-.24.04-.26.03-.27.03H79.8l-.64-.05-.56-.06-.51-.1-.43-.11-.37-.15-.3-.15-.28-.2-.2-.2-.16-.23-.12-.27-.07-.27-.05-.3-.02-.34v-.35l.05-.37.05-.4 3.05-17.42z"/><path class="cls-5" d="M79.24 47.75h4.42l-.65 3.86h2.66l-.57 3.61-2.81-.08-1.54 8.92-.01.31.08.28.16.2.21.18.28.11.32.1.35.06.39.03.35-.01.32-.04.29-.04.25-.07.21-.06.14-.05.1-.03.03-.02-.56 2.97-.11.08-.11.07-.11.06-.12.06-.11.05-.13.05-.14.05-.14.05-.16.05-.16.03-.19.03-.2.03-.2.03-.24.04-.26.03-.27.03H79.8l-.64-.05-.56-.06-.51-.1-.43-.11-.37-.15-.3-.15-.28-.2-.2-.2-.16-.23-.12-.27-.07-.27-.05-.3-.02-.34v-.35l.05-.37.05-.4 3.05-17.42"/><path class="cls-4" d="M89.2 61.24l-.04.28-.02.28.03.31.06.3.12.3.12.29.18.3.19.28.23.27.24.24.25.24.29.19.29.17.31.15.32.11.32.06.42.07.4.05.41.04.42.03.41.02h.43l.42-.02.43-.03.43-.06.43-.08.45-.1.43-.14.45-.18.46-.19.45-.25.46-.27-.64 3.92-.25.13-.26.13-.25.09-.24.1-.24.08-.26.08-.25.07-.27.04-.29.05-.32.03-.34.04-.36.03-.42.01h-.43l-.5.02h-.52l-.79-.02-.79-.08-.8-.11-.8-.19-.78-.24-.75-.3-.72-.4-.67-.47-.63-.54-.54-.65-.46-.74-.39-.84-.27-.95-.17-1.07-.05-1.18.08-1.31.06-.51.1-.59.13-.62.17-.67.24-.69.29-.69.37-.7.44-.67.52-.64.62-.61.7-.54.8-.48.93-.4 1.03-.29 1.15-.19 1.3-.06.62.02.66.06.65.11.65.16.64.24.63.29.57.38.53.45.48.54.4.64.32.73.22.85.13.96.01 1.09-.11 1.21-.24 1.34-.08.97H87.91l.73-3.14h7l.03-.4-.01-.38-.04-.36-.06-.31-.11-.31-.11-.27-.16-.24-.16-.22-.19-.2-.21-.15-.24-.15-.24-.13-.26-.09-.25-.07-.27-.04-.29-.04-.3.02-.29.05-.27.06-.28.1-.27.12-.24.15-.24.17-.2.2-.21.22-.19.24-.18.26-.14.27-.15.28-.11.32-.09.32-.07.34-.64 3.3z"/><path class="cls-5" d="M89.2 61.24l-.04.28-.02.28.03.31.06.3.12.3.12.29.18.3.19.28.23.27.24.24.25.24.29.19.29.17.31.15.32.11.32.06.42.07.4.05.41.04.42.03.41.02h.43l.42-.02.43-.03.43-.06.43-.08.45-.1.43-.14.45-.18.46-.19.45-.25.46-.27-.64 3.92-.25.13-.26.13-.25.09-.24.1-.24.08-.26.08-.25.07-.27.04-.29.05-.32.03-.34.04-.36.03-.42.01h-.43l-.5.02h-.52l-.79-.02-.79-.08-.8-.11-.8-.19-.78-.24-.75-.3-.72-.4-.67-.47-.63-.54-.54-.65-.46-.74-.39-.84-.27-.95-.17-1.07-.05-1.18.08-1.31.06-.51.1-.59.13-.62.17-.67.24-.69.29-.69.37-.7.44-.67.52-.64.62-.61.7-.54.8-.48.93-.4 1.03-.29 1.15-.19 1.3-.06.62.02.66.06.65.11.65.16.64.24.63.29.57.38.53.45.48.54.4.64.32.73.22.85.13.96.01 1.09-.11 1.21-.24 1.34-.08.97H87.91l.73-3.14h7l.03-.4-.01-.38-.04-.36-.06-.31-.11-.31-.11-.27-.16-.24-.16-.22-.19-.2-.21-.15-.24-.15-.24-.13-.26-.09-.25-.07-.27-.04-.29-.04-.3.02-.29.05-.27.06-.28.1-.27.12-.24.15-.24.17-.2.2-.21.22-.19.24-.18.26-.14.27-.15.28-.11.32-.09.32-.07.34-.64 3.3"/><path class="cls-4" d="M127.29 52.57l-.21-.11-.2-.09-.23-.12-.23-.11-.25-.09-.27-.1-.27-.1-.29-.09-.3-.08-.3-.07-.34-.06-.33-.05-.37-.03-.37-.03h-1.18l-.42.03-.43.05-.44.08-.45.13-.45.17-.44.23-.45.28-.43.35-.42.42-.4.51-.38.59-.35.7-.34.8-.3.9-.26 1.02-.09.57-.07.56-.03.56.02.55.05.54.11.51.14.48.18.48.24.43.28.41.34.37.38.34.43.28.5.24.54.21.61.14.21.05.24.05.28.03.32.03.35.04h.77l.4-.04.42-.04.41-.08.4-.11.4-.13.4-.18.37-.21.33-.25.32-.29-.72 4.26-.09.08-.1.1-.13.11-.14.1-.18.13-.22.11-.26.11-.28.09-.37.12-.42.08-.47.06-.56.07-.63.03-.72.01-.81-.01-.9-.05-.73-.08-.73-.16-.74-.24-.73-.32-.71-.38-.67-.48-.64-.56-.59-.64-.52-.72-.45-.8-.38-.89-.29-.98-.19-1.07-.07-1.13.03-1.25.18-1.32.13-.66.14-.63.16-.63.16-.59.18-.56.21-.56.2-.52.23-.5.24-.49.23-.47.28-.44.28-.42.29-.4.32-.38.32-.35.34-.34.36-.32.37-.3.38-.27.4-.26.43-.24.44-.21.44-.19.47-.17.49-.16.5-.13.51-.11.54-.1.54-.08.58-.06.57-.03.61-.02.51.02.5.03.47.05.48.06.45.06.43.1.42.08.38.09.37.1.32.1.3.09.26.1.22.08.19.06.15.07.09.03-.8 4.42z"/><path class="cls-5" d="M127.29 52.57l-.21-.11-.2-.09-.23-.12-.23-.11-.25-.09-.27-.1-.27-.1-.29-.09-.3-.08-.3-.07-.34-.06-.33-.05-.37-.03-.37-.03h-1.18l-.42.03-.43.05-.44.08-.45.13-.45.17-.44.23-.45.28-.43.35-.42.42-.4.51-.38.59-.35.7-.34.8-.3.9-.26 1.02-.09.57-.07.56-.03.56.02.55.05.54.11.51.14.48.18.48.24.43.28.41.34.37.38.34.43.28.5.24.54.21.61.14.21.05.24.05.28.03.32.03.35.04h.77l.4-.04.42-.04.41-.08.4-.11.4-.13.4-.18.37-.21.33-.25.32-.29-.72 4.26-.09.08-.1.1-.13.11-.14.1-.18.13-.22.11-.26.11-.28.09-.37.12-.42.08-.47.06-.56.07-.63.03-.72.01-.81-.01-.9-.05-.73-.08-.73-.16-.74-.24-.73-.32-.71-.38-.67-.48-.64-.56-.59-.64-.52-.72-.45-.8-.38-.89-.29-.98-.19-1.07-.07-1.13.03-1.25.18-1.32.13-.66.14-.63.16-.63.16-.59.18-.56.21-.56.2-.52.23-.5.24-.49.23-.47.28-.44.28-.42.29-.4.32-.38.32-.35.34-.34.36-.32.37-.3.38-.27.4-.26.43-.24.44-.21.44-.19.47-.17.49-.16.5-.13.51-.11.54-.1.54-.08.58-.06.57-.03.61-.02.51.02.5.03.47.05.48.06.45.06.43.1.42.08.38.09.37.1.32.1.3.09.26.1.22.08.19.06.15.07.09.03-.8 4.42"/><path class="cls-4" d="M166.61 68.72h-4.42l.32-1.78v-.15l-.26.32-.27.28-.27.26-.29.22-.29.21-.28.17-.29.15-.3.14-.31.12-.3.07-.3.08-.32.05-.32.05-.31.03-.32.02h-.32l-.83-.07-.76-.17-.7-.27-.64-.37-.58-.46-.51-.55-.45-.59-.38-.67-.32-.72-.25-.75-.18-.78-.13-.82-.05-.81.02-.83.08-.81.14-.82.24-.94.29-.9.34-.81.4-.77.41-.71.48-.64.49-.58.53-.53.56-.46.59-.4.61-.35.6-.27.64-.23.64-.14.64-.09.66-.04.46.02.45.05.41.08.38.11.37.13.32.14.32.18.29.17.25.19.24.21.21.21.19.21.16.2.15.21.12.19.1.19 1.12-6.27h4.34l-3.61 20.89z"/><path class="cls-5" d="M166.61 68.72h-4.42l.32-1.78v-.15l-.26.32-.27.28-.27.26-.29.22-.29.21-.28.17-.29.15-.3.14-.31.12-.3.07-.3.08-.32.05-.32.05-.31.03-.32.02h-.32l-.83-.07-.76-.17-.7-.27-.64-.37-.58-.46-.51-.55-.45-.59-.38-.67-.32-.72-.25-.75-.18-.78-.13-.82-.05-.81.02-.83.08-.81.14-.82.24-.94.29-.9.34-.81.4-.77.41-.71.48-.64.49-.58.53-.53.56-.46.59-.4.61-.35.6-.27.64-.23.64-.14.64-.09.66-.04.46.02.45.05.41.08.38.11.37.13.32.14.32.18.29.17.25.19.24.21.21.21.19.21.16.2.15.21.12.19.1.19 1.12-6.27h4.34l-3.61 20.89"/><path class="cls-2" d="M159.38 64.85l.44-.03.42-.09.38-.12.37-.17.34-.19.32-.24.3-.27.27-.29.24-.32.22-.35.21-.37.18-.38.16-.4.12-.42.12-.43.08-.43.08-.45.04-.46v-.43l-.01-.45-.05-.41-.06-.4-.12-.39-.12-.36-.16-.32-.19-.31-.21-.25-.24-.23-.27-.19-.29-.12-.3-.09-.34-.03-.43.03-.4.07-.37.13-.36.16-.32.2-.32.26-.27.27-.28.3-.24.36-.22.36-.21.39-.17.41-.16.43-.13.43-.13.47-.09.46-.08.7.03.77.11.78.21.75.32.66.41.52.53.36.64.12z"/><path class="cls-4" d="M61.3 65.17l-.64 3.55h-4.02l.11-.66.08-.59.07-.44.06-.24-.23.25-.25.26-.3.24-.34.22-.38.22-.4.19-.42.2-.43.16-.46.14-.47.11-.46.1-.48.06-.46.03-.46.02-.45-.05-.43-.06-.56-.15-.51-.15-.45-.21-.4-.24-.35-.26-.32-.29-.25-.3-.23-.32-.19-.33-.16-.35-.13-.36-.09-.35-.07-.37-.05-.36-.03-.35v-.35l.05-.63.1-.59.16-.56.2-.54.26-.51.29-.47.33-.44.39-.4.39-.37.45-.33.47-.31.47-.25.52-.23.52-.17.55-.15.55-.09h.04l.08-.02.11-.01.17-.02.2-.03.22-.02.24-.03.27-.03.27-.03.27-.04.29-.01.26-.03.25-.02.24-.01.23-.02h.54l.38.02.35.01h.35l.29.02.23.01.15.02h.05l.04-.11.09-.29.08-.34.03-.3-.06-.35-.14-.32-.2-.29-.25-.24-.31-.21-.33-.14-.39-.1-.41-.03-.45-.01-.48-.02h-.49l-.51.02-.53.03-.51.05-.51.05-.5.06-.48.06-.46.08-.41.08-.39.08-.35.1-.29.09-.22.12-.17.09 1.13-3.85.35-.14.35-.13.39-.11.38-.08.38-.08.42-.06.41-.07.43-.03.45-.03.46-.02.48-.01h1.53l.56.01.56.02.45.03.48.08.49.11.52.15.49.19.48.22.48.27.45.31.4.35.35.38.32.43.24.48.16.51.09.54v.61l-.09.64-1.62 8.43z"/><path class="cls-5" d="M61.3 65.17l-.64 3.55h-4.02l.11-.66.08-.59.07-.44.06-.24-.23.25-.25.26-.3.24-.34.22-.38.22-.4.19-.42.2-.43.16-.46.14-.47.11-.46.1-.48.06-.46.03-.46.02-.45-.05-.43-.06-.56-.15-.51-.15-.45-.21-.4-.24-.35-.26-.32-.29-.25-.3-.23-.32-.19-.33-.16-.35-.13-.36-.09-.35-.07-.37-.05-.36-.03-.35v-.35l.05-.63.1-.59.16-.56.2-.54.26-.51.29-.47.33-.44.39-.4.39-.37.45-.33.47-.31.47-.25.52-.23.52-.17.55-.15.55-.09h.04l.08-.02.11-.01.17-.02.2-.03.22-.02.24-.03.27-.03.27-.03.27-.04.29-.01.26-.03.25-.02.24-.01.23-.02h.54l.38.02.35.01h.35l.29.02.23.01.15.02h.05l.04-.11.09-.29.08-.34.03-.3-.06-.35-.14-.32-.2-.29-.25-.24-.31-.21-.33-.14-.39-.1-.41-.03-.45-.01-.48-.02h-.49l-.51.02-.53.03-.51.05-.51.05-.5.06-.48.06-.46.08-.41.08-.39.08-.35.1-.29.09-.22.12-.17.09 1.13-3.85.35-.14.35-.13.39-.11.38-.08.38-.08.42-.06.41-.07.43-.03.45-.03.46-.02.48-.01h1.53l.56.01.56.02.45.03.48.08.49.11.52.15.49.19.48.22.48.27.45.31.4.35.35.38.32.43.24.48.16.51.09.54v.61l-.09.64-1.62 8.43"/><path class="cls-3" d="M57.45 61.01l-.01-.09-.07-.08-.09-.04-.16-.03-.18-.04-.21-.01h-.47l-.26.01-.27.04-.26.03-.25.03-.24.03-.22.05-.2.05-.17.05-.11.03-.13.04-.18.07-.17.08-.21.09-.21.12-.22.11-.21.12-.22.17-.21.15-.19.2-.18.19-.16.21-.11.22-.1.25-.04.26-.02.54.08.44.16.31.21.24.24.16.27.1.25.05.26.01.48-.01.43-.05.42-.06.36-.1.32-.11.31-.15.27-.14.24-.18.2-.15.2-.2.16-.17.12-.19.11-.2.1-.19.08-.17.05-.18.13-.46.11-.53.09-.51.08-.41z"/><path class="cls-4" d="M27.7 68.72h-4.34l3.62-20.97h7.56l.72 12.44 5.22-12.44h7.89l-3.71 20.97h-4.34l2.74-15.67h-.17l-6.5 15.67h-4.9l-.04-.66-.11-1.74-.14-2.47-.16-2.84-.16-2.86-.15-2.51-.11-1.82-.03-.77h-.24L27.7 68.72z"/><path class="cls-5" d="M27.7 68.72h-4.34l3.62-20.97h7.56l.72 12.44 5.22-12.44h7.89l-3.71 20.97h-4.34l2.74-15.67h-.17l-6.5 15.67h-4.9l-.04-.66-.11-1.74-.14-2.47-.16-2.84-.16-2.86-.15-2.51-.11-1.82-.03-.77h-.24L27.7 68.72"/><path class="cls-4" d="M140.56 65.17l-.65 3.55h-4.01l.03-.66.02-.57v-.43l.03-.19-.21.24-.24.23-.28.23-.32.22-.34.21-.38.19-.4.19-.4.16-.43.13-.45.13-.45.08-.44.06-.47.03-.44.02-.44-.05-.43-.06-.57-.15-.51-.15-.45-.21-.41-.24-.36-.26-.3-.29-.26-.3-.22-.32-.19-.33-.14-.35-.13-.36-.08-.35-.07-.37-.04-.36-.04-.35v-.35l.04-.63.09-.59.15-.56.2-.54.24-.51.31-.47.33-.44.37-.4.42-.37.43-.33.46-.31.5-.25.49-.23.53-.17.52-.15.55-.09h.03l.08-.02.11-.01.16-.02.21-.03.22-.02.24-.03.26-.03.27-.03.29-.04.27-.01.27-.03.25-.02.23-.01.22-.02h.56l.38.02.37.01h.35l.3.02.26.01.14.02h.07l.03-.11.05-.29.05-.34.03-.3-.07-.35-.12-.32-.21-.29-.24-.24-.29-.21-.33-.14-.35-.1-.39-.03-.45-.01-.47-.02h-.5l-.51.02-.53.03-.51.05-.51.05-.5.06-.47.06-.47.08-.41.08-.39.08-.35.1-.28.09-.23.12-.17.09 1.11-3.85.36-.14.36-.13.37-.11.38-.08.4-.08.4-.06.42-.07.43-.03.45-.03.46-.02.46-.01h1.5l.55.01.54.02.45.03.48.08.49.11.51.15.5.19.49.22.48.27.45.31.4.35.36.38.32.43.24.48.18.51.11.54v.61l-.08.64-1.68 8.43z"/><path class="cls-4" d="M139.91 68.83l.09-.1.66-3.54-.19-.03-.66 3.54.1-.09v.22l.08-.02.01-.08-.09.1z"/><path class="cls-4" d="M135.81 68.72l.09.11h4.01v-.22h-4.01l.1.11h-.19l-.02.11h.11l-.09-.11z"/><path class="cls-4" d="M136.06 66.93l-.14-.13-.07.26-.01.43v.57l-.03.66h.19l.03-.66.03-.57-.02-.43v-.13l-.14-.13.16.13z"/><path class="cls-4" d="M129.85 68.97l.44.07.44.05.44-.02.47-.03.46-.07.45-.08.44-.12.45-.13.4-.16.42-.19.38-.19.33-.23.34-.22.29-.23.25-.25.21-.24-.16-.13-.21.24-.22.23-.29.22-.3.22-.34.19-.38.2-.38.19-.4.16-.42.13-.45.12-.44.08-.43.07-.47.03-.44.01-.44-.04-.41-.07-.03.19z"/><path class="cls-4" d="M125.98 64.14l.02.35.03.35.05.38.06.37.08.35.13.37.14.36.21.34.23.33.25.31.32.3.37.26.41.25.47.21.52.16.58.14.03-.19-.57-.14-.5-.16-.43-.21-.42-.22-.33-.26-.29-.27-.26-.3-.22-.31-.17-.33-.15-.34-.12-.33-.09-.35-.06-.37-.05-.35-.03-.35.02-.35h-.23zm5.74-6.14l-.56.1-.54.14-.53.18-.51.22-.5.26-.48.32-.43.33-.41.39-.39.39-.33.45-.32.48-.24.53-.21.54-.14.58-.1.6-.05.63h.23l.01-.63.1-.57.14-.55.21-.54.24-.49.29-.45.33-.45.35-.4.42-.35.43-.33.45-.29.49-.26.48-.22.53-.18.51-.14.53-.1V58z"/><path class="cls-4" d="M135.01 57.67h-.18l-.22.03-.23.02-.25.01-.27.03-.27.02-.29.03-.27.03-.26.03-.24.04-.22.01-.21.03-.16.02-.13.02-.06.01h-.03v.19h.03l.09-.01.1-.02.16-.01.21-.04.22-.01.24-.03.26-.04.27-.03.29-.03.27-.02.27-.03.25-.01.23-.02h.4v-.22zm2.15.17l.1-.08h-.07l-.14-.01-.26-.02-.3-.03h-.72l-.38-.03h-.38v.22h.76l.37.03h.65l.26.02.14.01h.07l.09-.08-.09.08.08.02.01-.1-.19-.03z"/><path class="cls-4" d="M137.32 56.82h-.01l-.02.3-.05.32-.05.29-.03.11.19.03.04-.11.04-.28.05-.36.05-.3h-.21z"/><path class="cls-4" d="M135.42 55.24v.02l.37.01.34.1.31.14.28.19.22.23.19.27.13.28.06.34h.19l-.06-.37-.13-.35-.22-.3-.26-.26-.3-.22-.35-.15-.37-.09-.4-.05v.21zm-6.85.77l.16.09.16-.08.21-.11.27-.1.35-.09.38-.08.42-.08.46-.08.46-.07.5-.06.51-.05.51-.04.53-.04h1.48l.45.02v-.19l-.45-.02-.47-.03h-.5l-.51.03-.53.03-.51.05-.51.05-.5.06-.49.07-.46.08-.42.08-.38.08-.35.09-.31.1-.24.11-.19.11.16.1-.19-.03z"/><path class="cls-4" d="M129.75 52.08l-.06.08-1.12 3.85.19.03 1.12-3.85-.06.08-.07-.19-.05.01-.01.07.06-.08z"/><path class="cls-4" d="M136.86 51.34l-.54-.03-.55-.01h-1.5l-.46.03-.46.01-.45.03-.43.04-.43.06-.4.06-.4.08-.39.08-.38.12-.37.12-.35.15.07.19.35-.14.36-.13.36-.12.38-.07.4-.08.4-.07.4-.06.43-.03.45-.04.46-.01h1.96l.55.01h.54v-.19z"/><path class="cls-4" d="M142.34 56.76l.08-.66v-.61l-.11-.55-.18-.53-.26-.5-.31-.44-.39-.4-.4-.35-.46-.31-.48-.28-.51-.23-.5-.19-.52-.14-.5-.12-.49-.08-.45-.03v.19l.45.04.46.08.49.11.5.14.49.19.48.23.48.25.43.31.4.35.36.36.31.42.23.46.17.5.11.52v.61l-.07.63.19.03z"/><path class="cls-4" d="M140.66 65.19l1.68-8.43-.19-.03-1.68 8.43.19.03z"/><path class="cls-2" d="M136.7 61.01l-.03-.1-.07-.08-.11-.05-.16-.05-.17-.01-.21-.02h-.24l-.24.02-.25.03-.26.03-.26.03-.24.03-.24.05-.2.03-.21.05-.16.04-.11.01-.13.05-.16.05-.18.06-.2.1-.19.09-.23.11-.21.15-.2.14-.21.18-.18.17-.17.21-.15.22-.11.24-.09.26-.05.27-.02.54.08.44.13.31.19.24.24.16.27.1.27.05.27.01.48-.01.45-.05.42-.08.36-.11.36-.13.3-.14.29-.16.25-.19.23-.18.19-.21.17-.19.15-.21.11-.19.08-.19.06-.19.05-.18.06-.45.08-.46.07-.45.03-.39z"/><path class="cls-4" d="M169.6 66.53l.03-.37.13-.43.22-.38.27-.34.34-.27.38-.19.42-.13.45-.05.44.05.42.13.38.19.34.27.27.34.22.38.13.43.03.37h-.48l-.01-.29-.1-.35-.16-.32-.21-.27-.25-.22-.31-.16-.35-.11-.36-.04-.37.04-.35.11-.31.16-.25.22-.21.27-.16.32-.1.35-.03.29h-.46z"/><path class="cls-4" d="M171.04 66.53v-.96h.87l.2.02.17.03.13.05.11.06.08.1.06.09.04.11.01.12-.01.14-.04.11-.04.1-.03.03h-.68l.07-.02.11-.01.1-.03.08-.03.06-.05.03-.05.03-.08v-.11l-.01-.08-.03-.07-.05-.03-.05-.03-.08-.02-.08-.01h-.65v.62h-.4z"/><path class="cls-4" d="M169.6 66.53l-.02.1.05.46.13.43.22.38.27.32.34.28.38.2.42.13.45.05.44-.05.42-.13.38-.2.34-.28.27-.32.22-.38.13-.43.05-.46-.02-.1h-.48l.02.1-.03.38-.1.35-.16.3-.21.28-.25.22-.31.17-.35.12-.36.03-.37-.03-.35-.12-.31-.17-.25-.22-.21-.28-.16-.3-.1-.35-.03-.38v-.1h-.46z"/><path class="cls-4" d="M171.04 66.53v.97h.4v-.79h.4l.47.79h.32l-.48-.79h.12l.11-.04.09-.03.08-.06.04-.05h-.68l-.07.02h-.4v-.02h-.4z"/><path class="cls-5" d="M169.58 66.63l.05-.47.13-.43.22-.38.27-.34.34-.27.38-.19.42-.13.45-.05.44.05.42.13.38.19.34.27.27.34.22.38.13.43.05.47-.05.46-.13.43-.22.38-.27.32-.34.28-.38.2-.42.13-.44.05-.45-.05-.42-.13-.38-.2-.34-.28-.27-.32-.22-.38-.13-.43-.05-.46"/><path class="cls-5" d="M171.44 67.5h-.4v-1.93h.87l.2.02.17.03.13.05.11.06.08.1.06.09.04.11.01.12-.01.14-.04.11-.04.1-.07.08-.08.06-.09.03-.11.04h-.12l.48.79h-.32l-.47-.79h-.4v.79"/><path class="cls-5" d="M171.84 66.55l.14-.04.11-.01.1-.03.08-.03.06-.05.03-.05.03-.08v-.11l-.01-.08-.03-.07-.05-.03-.05-.03-.08-.02-.08-.01h-.65v.64h.4"/><path class="cls-5" d="M171.84 68.48l.36-.03.35-.12.31-.17.25-.22.21-.28.16-.3.1-.35.03-.38-.03-.39-.1-.35-.16-.32-.21-.27-.25-.22-.31-.16-.35-.11-.36-.04-.37.04-.35.11-.31.16-.25.22-.21.27-.16.32-.1.35-.03.39.03.38.1.35.16.3.21.28.25.22.31.17.35.12.37.03"/><path class="cls-4" d="M141.76 68.72h4.51l1.61-9.09.06-.35.1-.35.09-.35.13-.35.16-.36.19-.33.21-.32.26-.3.28-.27.32-.26.37-.24.42-.19.46-.16.51-.13.56-.09.62-.04h.4l.72-4.1-.45.03-.43.05-.4.08-.38.11-.35.13-.34.16-.32.17-.3.2-.29.22-.27.22-.25.26-.26.25-.24.27-.24.31-.24.29-.22.32.48-2.9h-4.49l-2.99 17.11z"/><path class="cls-5" d="M141.76 68.72h4.51l1.61-9.09.06-.35.1-.35.09-.35.13-.35.16-.36.19-.33.21-.32.26-.3.28-.27.32-.26.37-.24.42-.19.46-.16.51-.13.56-.09.62-.04h.4l.72-4.1-.45.03-.43.05-.4.08-.38.11-.35.13-.34.16-.32.17-.3.2-.29.22-.27.22-.25.26-.26.25-.24.27-.24.31-.24.29-.22.32.48-2.9h-4.49l-2.99 17.11"/><path class="cls-4" d="M99.47 68.72h4.59l1.53-9.09.06-.35.08-.34.08-.33.11-.32.13-.32.16-.3.19-.29.23-.27.25-.24.29-.24.35-.19.39-.18.44-.14.5-.13.54-.08.62-.05h.05l.07.02.07.01h.08l.08.02.07.02.05.01h.01l.02-.06.05-.19.06-.29.08-.35.11-.42.11-.44.15-.45.14-.45.13-.3.16-.31.16-.3.16-.27.14-.24.11-.19.08-.11.04-.05h-.02l-.06-.02-.08-.01-.12-.02h-.11l-.13-.02-.11-.01h-.11l-.5.03-.44.05-.42.08-.38.09-.37.13-.33.16-.31.16-.28.19-.28.21-.25.24-.24.24-.24.27-.24.27-.22.31-.24.32-.24.32.57-2.9h-4.58l-2.99 17.11z"/><path class="cls-5" d="M99.47 68.72h4.59l1.53-9.09.06-.35.08-.34.08-.33.11-.32.13-.32.16-.3.19-.29.23-.27.25-.24.29-.24.35-.19.39-.18.44-.14.5-.13.54-.08.62-.05h.05l.07.02.07.01h.08l.08.02.07.02.05.01h.01l.02-.06.05-.19.06-.29.08-.35.11-.42.11-.44.15-.45.14-.45.13-.3.16-.31.16-.3.16-.27.14-.24.11-.19.08-.11.04-.05h-.02l-.06-.02-.08-.01-.12-.02h-.11l-.13-.02-.11-.01h-.11l-.5.03-.44.05-.42.08-.38.09-.37.13-.33.16-.31.16-.28.19-.28.21-.25.24-.24.24-.24.27-.24.27-.22.31-.24.32-.24.32.57-2.9h-4.58l-2.99 17.11"/><path class="cls-2" d="M169.63 85.52v-.06l.13-.42.22-.37.27-.32.34-.25.38-.19.42-.11.45-.05.44.05.42.11.38.19.34.25.27.32.22.37.13.42v.06h-.46l-.1-.34-.16-.3-.21-.27-.25-.22-.31-.18-.35-.11-.36-.03-.37.03-.35.11-.31.18-.25.22-.21.27-.16.3-.1.34h-.46z"/><path class="cls-2" d="M171.04 85.52v-.56h1.07l.17.03.13.03.11.07.08.08.06.09.04.12.01.14h-.32v-.08l-.01-.08-.03-.06-.05-.04-.05-.03-.08-.01-.08-.02h-.65v.32h-.4zm-1.46.35l.05-.35h.46v.01l-.03.34h-.48zm1.46 0v-.35h.4v.32h.4l.14-.03.11-.02.1-.03.08-.03.06-.05.03-.05.03-.08v-.03h.32l-.01.11-.04.1-.04.08-.07.06h-1.51zm2.57 0l-.03-.34v-.01h.46l.05.35h-.48zm-4.03 0v.05l.05.46.13.43.22.39.27.33.34.27.38.2.42.12.45.05.44-.05.42-.12.38-.2.34-.27.27-.33.22-.39.13-.43.05-.46v-.05h-.48v.05l-.03.38-.1.35-.16.31-.21.27-.25.22-.31.18-.35.11-.36.03-.37-.03-.35-.11-.31-.18-.25-.22-.21-.27-.16-.31-.1-.35-.03-.38v-.05h-.48z"/><path class="cls-2" d="M171.04 85.87v.93h.4V86h.4l.47.8h.32l-.48-.8h.12l.11-.03.09-.03.08-.07h-1.51z"/></svg>