<?xml version="1.0" encoding="UTF-8"?>
<svg  viewBox="0 0 54 52" version="1.1" xmlns="http://www.w3.org/2000/svg" xmlns:xlink="http://www.w3.org/1999/xlink">
    <!-- Generator: Sketch 52.3 (67297) - http://www.bohemiancoding.com/sketch -->
    <title>noun_advertising_664874</title>
    <desc>Created with Sketch.</desc>
    <g id="Page-1" stroke="none" stroke-width="1" fill="none" fill-rule="evenodd">
        <g id="medical-land" transform="translate(-940.000000, -1167.000000)">
            <g id="noun_advertising_664874" transform="translate(940.000000, 1167.000000)">
                <circle id="Oval" fill="#FAE210" cx="34.5" cy="22.5" r="17.5"></circle>
                <g id="Group" fill="#3E4955" fill-rule="nonzero">
                    <path d="M43.94,0.26 C43.8533333,0.26 43.8533333,0.26 43.7666667,0.26 C43.68,0.26 43.5933333,0.26 43.5066667,0.26 L43.42,0.26 C40.4733333,0.26 37.8733333,2.34 35.1866667,4.50666667 C33.3666667,5.98 31.5466667,7.54 29.4666667,8.32 C27.9933333,8.84 26.6066667,8.92666667 25.3066667,8.92666667 C24.8733333,8.92666667 24.3533333,8.92666667 23.92,8.92666667 C23.4866667,8.92666667 22.9666667,8.92666667 22.5333333,8.92666667 L22.1,8.92666667 C19.5,8.92666667 11.44,9.01333333 9.18666667,9.1 C8.66666667,9.1 8.14666667,9.27333333 7.62666667,9.62 C6.32666667,10.4 5.54666667,11.7 5.46,13.6066667 L5.46,13.9533333 L5.2,14.04 C3.38,14.6466667 2.42666667,15.5133333 1.64666667,17.5933333 C1.21333333,18.8066667 0.866666667,20.1933333 0.78,21.4933333 C0.78,21.58 0.78,21.6666667 0.78,21.7533333 L0.78,21.9266667 L0.78,22.1 C0.78,22.1866667 0.78,22.2733333 0.78,22.2733333 C0.953333333,23.66 1.21333333,25.0466667 1.73333333,26.26 C2.6,28.34 3.46666667,29.2066667 5.28666667,29.8133333 L5.54666667,29.9 L5.54666667,30.16 C5.72,31.98 6.41333333,33.3666667 7.71333333,34.1466667 C8.23333333,34.4933333 8.75333333,34.6666667 9.27333333,34.6666667 C11.5266667,34.7533333 19.5866667,34.84 22.1866667,34.84 L22.62,34.84 C23.0533333,34.84 23.4866667,34.84 23.92,34.84 L24.0066667,34.84 C24.44,34.84 24.96,34.84 25.3933333,34.84 C26.6066667,34.84 28.08,34.9266667 29.5533333,35.4466667 C31.5466667,36.2266667 33.4533333,37.7 35.2733333,39.26 C37.96,41.4266667 40.4733333,43.5066667 43.5066667,43.5066667 L43.5933333,43.5066667 C43.68,43.5066667 43.7666667,43.5066667 43.8533333,43.5066667 C43.94,43.5066667 43.94,43.5066667 44.0266667,43.5066667 C49.2266667,43.5066667 53.2133333,34.2333333 53.2133333,22.0133333 C53.2133333,9.79333333 49.14,0.26 43.94,0.26 Z M36.92,21.7533333 C36.92,10.4866667 40.56,2.6 43.8533333,2.34 C44.72,2.42666667 45.5866667,2.94666667 46.3666667,3.81333333 C49.14,6.84666667 50.96,13.8666667 50.7866667,21.6666667 C50.96,29.4666667 49.14,36.4866667 46.3666667,39.52 C45.5866667,40.3866667 44.72,40.9066667 43.8533333,40.9933333 C40.56,40.9066667 36.92,33.02 36.92,21.7533333 Z M30.2466667,33.28 C28.5133333,32.5866667 26.78,32.5 25.3933333,32.5 C24.8733333,32.5 24.44,32.5 23.92,32.5 L23.8333333,32.5 C23.4,32.5 23.0533333,32.5 22.62,32.5 L22.1866667,32.5 C19.5866667,32.5 11.6133333,32.4133333 9.36,32.3266667 C9.18666667,32.3266667 9.01333333,32.24 8.75333333,32.1533333 C8.32,31.8933333 7.71333333,31.3733333 7.54,29.8133333 L7.36666667,28.08 L5.80666667,27.56 C4.68,27.2133333 4.16,26.78 3.55333333,25.22 C3.12,24.18 2.86,23.0533333 2.77333333,21.84 L2.77333333,21.7533333 C2.77333333,21.7533333 2.77333333,21.7533333 2.77333333,21.6666667 C2.77333333,21.6666667 2.77333333,21.6666667 2.77333333,21.58 L2.77333333,21.4933333 C2.86,20.28 3.12,19.0666667 3.55333333,18.1133333 C4.16,16.5533333 4.68,16.12 5.80666667,15.7733333 L7.36666667,15.2533333 L7.54,13.52 C7.62666667,11.96 8.23333333,11.44 8.75333333,11.18 C8.92666667,11.0933333 9.18666667,11.0066667 9.36,11.0066667 C11.6133333,10.92 19.5866667,10.8333333 22.1866667,10.8333333 L22.62,10.8333333 C23.0533333,10.8333333 23.4866667,10.8333333 24.0066667,10.8333333 C24.44,10.8333333 24.96,10.8333333 25.48,10.8333333 C26.8666667,10.8333333 28.6,10.7466667 30.3333333,10.0533333 C32.6733333,9.18666667 34.7533333,7.45333333 36.5733333,5.89333333 C37.18,5.46 37.7,4.94 38.3066667,4.50666667 C36.2266667,8.40666667 34.9266667,14.4733333 34.9266667,21.4933333 C34.9266667,28.5133333 36.2266667,34.58 38.3066667,38.48 C37.7866667,38.0466667 37.18,37.6133333 36.5733333,37.0933333 C34.6666667,35.88 32.5866667,34.1466667 30.2466667,33.28 Z" id="Shape"></path>
                    <path d="M14.7333333,37.18 C13.9533333,37.18 13.1733333,37.18 12.3066667,37.18 L10.66,37.18 L11.7866667,49.0533333 C11.96,50.5266667 13,51.5666667 14.3866667,51.6533333 L14.56,51.6533333 C15.6,51.6533333 16.5533333,51.74 17.5933333,51.74 L17.68,51.74 C18.2,51.74 18.6333333,51.5666667 19.0666667,51.1333333 C19.4133333,50.7 19.6733333,50.18 19.5866667,49.5733333 L19.5866667,49.2266667 C19.5866667,49.0533333 19.5866667,48.88 19.5866667,48.7933333 L19.3266667,46.28 C19.3266667,45.9333333 19.24,45.76 19.24,45.0666667 C20.6266667,42.8133333 20.7133333,38.6533333 20.8,38.22 L20.8,37.18 L19.24,37.18 C17.42,37.0933333 16.0333333,37.18 14.7333333,37.18 Z M17.16,44.2 L16.9,44.5466667 L16.9866667,44.98 C17.0733333,45.9333333 17.0733333,46.1933333 17.16,46.54 L17.42,49.0533333 C17.42,49.14 17.42,49.3133333 17.42,49.4866667 L17.42,49.66 C16.4666667,49.66 15.5133333,49.5733333 14.56,49.5733333 L14.3866667,49.5733333 C14.1266667,49.5733333 13.8666667,49.2266667 13.8666667,48.88 L13,39.3466667 C13.6066667,39.3466667 14.2133333,39.3466667 14.82,39.3466667 C15.9466667,39.3466667 17.16,39.3466667 18.5466667,39.3466667 C18.3733333,40.82 17.94,43.16 17.16,44.2 Z" id="Shape"></path>
                </g>
            </g>
        </g>
    </g>
</svg>
