<?xml version="1.0" encoding="UTF-8"?>
<svg viewBox="0 0 53 63" version="1.1" xmlns="http://www.w3.org/2000/svg" xmlns:xlink="http://www.w3.org/1999/xlink">
    <!-- Generator: Sketch 52.3 (67297) - http://www.bohemiancoding.com/sketch -->
    <title>noun_sign post_664842</title>
    <desc>Created with Sketch.</desc>
    <g id="Page-1" stroke="none" stroke-width="1" fill="none" fill-rule="evenodd">
        <g id="medical-land" transform="translate(-106.000000, -1164.000000)">
            <g id="noun_sign-post_664842" transform="translate(106.000000, 1164.000000)">
                <circle id="Oval" fill="#FAE210" cx="26.5" cy="29.5" r="17.5"></circle>
                <g id="Group" fill="#3E4955">
                    <path d="M8.73870968,47.9612903 C8.73870968,47.9612903 8.73870968,47.9612903 8.73870968,47.9612903 C13.616129,47.9612903 18.3919355,47.9612903 23.1677419,47.9612903 C23.1677419,47.9612903 23.1677419,47.9612903 23.1677419,47.9612903 C28.0451613,47.9612903 33.0241935,47.9612903 37.9016129,47.9612903 C38.7145161,47.9612903 39.0193548,47.7580645 39.0193548,46.8435484 C39.0193548,42.7790323 39.0193548,38.7145161 39.0193548,34.65 C39.0193548,33.7354839 38.7145161,33.4306452 37.8,33.4306452 C35.9709677,33.5322581 34.2435484,33.5322581 32.4145161,33.5322581 C24.3870968,33.5322581 16.3596774,33.5322581 8.33225806,33.5322581 C7.72258065,33.5322581 7.11290323,33.8370968 6.60483871,34.2435484 C4.57258065,36.1741935 2.74354839,38.1048387 0.711290323,40.0354839 C0.101612903,40.5435484 0.101612903,40.95 0.711290323,41.5596774 C2.64193548,43.3887097 4.47096774,45.2177419 6.3,47.1483871 C7.21451613,47.7580645 7.92580645,47.9612903 8.73870968,47.9612903 M8.73870968,45.6241935 C8.43387097,45.6241935 8.43387097,45.6241935 8.33225806,45.4209677 C6.80806452,43.8967742 5.28387097,42.2709677 3.65806452,40.7467742 C4.16612903,40.2387097 4.67419355,39.7306452 5.18225806,39.2225806 C6.3,38.1048387 7.41774194,36.9870968 8.43387097,35.9709677 C8.43387097,35.9709677 8.53548387,35.9709677 8.53548387,35.8693548 C14.2258065,35.8693548 19.916129,35.8693548 25.6064516,35.8693548 L33.1258065,35.8693548 C34.1419355,35.8693548 35.3612903,35.8693548 36.6822581,35.8693548 C36.6822581,39.1209677 36.6822581,42.3725806 36.6822581,45.5225806 C34.65,45.5225806 32.516129,45.5225806 30.483871,45.5225806 L21.033871,45.5225806 L15.75,45.5225806 C13.5145161,45.6241935 11.0758065,45.6241935 8.73870968,45.6241935" id="Shape" fill-rule="nonzero"></path>
                    <path d="M51.8225806,16.4612903 C49.8919355,14.5306452 47.9612903,12.6 46.0306452,10.7709677 C45.6241935,10.3645161 45.0145161,10.1612903 44.5064516,10.1612903 C34.65,10.1612903 24.8951613,10.1612903 15.1403226,10.1612903 C14.733871,10.1612903 14.3274194,10.1612903 13.9209677,10.2629032 L13.9209677,24.3870968 C14.3274194,24.3870968 14.6322581,24.3870968 14.9370968,24.4887097 C24.7935484,24.4887097 34.65,24.4887097 44.5064516,24.4887097 C45.0145161,24.4887097 45.7258065,24.183871 46.0306452,23.7774194 C47.9612903,21.9483871 49.8919355,19.916129 51.8225806,18.0870968 C52.3306452,17.3758065 52.4322581,17.0709677 51.8225806,16.4612903 Z M47.5548387,18.7983871 C46.5387097,19.8145161 45.4209677,20.9322581 44.4048387,21.9483871 C44.4048387,21.9483871 44.4048387,21.9483871 44.3032258,21.9483871 C38.2064516,21.9483871 32.2112903,21.9483871 26.1145161,21.9483871 L16.2580645,21.9483871 L16.2580645,12.3967742 L24.9967742,12.3967742 C31.5,12.3967742 37.9016129,12.3967742 44.4048387,12.3967742 C45.4209677,13.4129032 46.4370968,14.4290323 47.5548387,15.4451613 C48.0629032,15.9532258 48.6725806,16.5629032 49.1806452,17.0709677 C48.6725806,17.6806452 48.1645161,18.2903226 47.5548387,18.7983871 Z" id="Shape" fill-rule="nonzero"></path>
                    <path d="M21.3387097,7.31612903 L21.3387097,6.09677419 C21.3387097,5.58870968 21.3387097,5.18225806 21.3387097,4.77580645 L21.3387097,4.26774194 C21.3387097,3.35322581 21.6435484,2.43870968 22.3548387,1.72741935 C23.066129,1.01612903 23.8790323,0.711290323 24.8951613,0.711290323 L28.4516129,0.711290323 C29.366129,0.711290323 30.2806452,1.11774194 30.9919355,1.72741935 C31.6016129,2.33709677 32.0080645,3.2516129 32.0080645,4.26774194 L32.0080645,4.77580645 C32.0080645,5.48709677 32.0080645,6.3 32.0080645,7.21451613 L29.4677419,7.21451613 C29.4677419,6.1983871 29.4677419,5.38548387 29.4677419,4.67419355 L29.4677419,4.16612903 C29.4677419,4.06451613 29.4677419,3.75967742 29.1629032,3.45483871 C28.9596774,3.2516129 28.6548387,3.15 28.35,3.15 L24.7935484,3.15 C24.4887097,3.15 24.183871,3.2516129 23.9806452,3.45483871 C23.7774194,3.65806452 23.6758065,3.96290323 23.6758065,4.26774194 L23.6758065,4.77580645 C23.6758065,5.18225806 23.6758065,5.58870968 23.6758065,6.09677419 L23.6758065,7.31612903 L21.3387097,7.31612903 Z" id="Path"></path>
                    <path d="M29.7725806,30.8903226 C29.6709677,29.6709677 29.6709677,28.35 29.6709677,27.1306452 L32.0080645,27.0290323 C32.0080645,28.2483871 32.1096774,29.4677419 32.1096774,30.7887097 L29.7725806,30.8903226 Z" id="Path"></path>
                    <path d="M23.3709677,30.8903226 L21.033871,30.7887097 C21.1354839,29.5693548 21.1354839,28.35 21.1354839,27.1306452 L23.4725806,27.2322581 C23.4725806,28.35 23.3709677,29.5693548 23.3709677,30.8903226 Z" id="Path"></path>
                    <path d="M32.4145161,62.2887097 L20.6274194,62.2887097 C19.5096774,62.2887097 18.4935484,61.7806452 17.7822581,60.866129 C17.0709677,59.9516129 16.8677419,58.833871 17.2741935,57.716129 C17.7822581,55.8870968 18.3919355,53.2451613 18.4935484,52.7370968 L18.4935484,52.533871 C18.6967742,51.9241935 18.7983871,51.2129032 18.9,50.4 L21.2370968,50.9080645 C21.033871,51.7209677 20.9322581,52.4322581 20.7290323,53.1435484 C20.6274194,54.0580645 20.0177419,56.8016129 19.5096774,58.4274194 C19.4080645,58.7322581 19.5096774,59.1387097 19.7129032,59.4435484 C19.916129,59.7483871 20.2209677,59.85 20.6274194,59.85 L32.4145161,59.85 C32.8209677,59.85 33.1258065,59.6467742 33.3290323,59.4435484 C33.5322581,59.1387097 33.633871,58.833871 33.5322581,58.4274194 C33.0241935,56.5983871 32.4145161,53.7532258 32.3129032,53.0419355 C32.1096774,52.4322581 32.0080645,51.7209677 31.8048387,50.9080645 L34.1419355,50.5016129 C34.2435484,51.2129032 34.4467742,51.9241935 34.5483871,52.533871 L34.5483871,52.7370968 C34.5483871,52.8387097 35.1580645,55.7854839 35.7677419,57.8177419 C36.0725806,58.9354839 35.8693548,60.0532258 35.2596774,60.9677419 C34.65,61.7806452 33.5322581,62.2887097 32.4145161,62.2887097 Z" id="Path"></path>
                </g>
            </g>
        </g>
    </g>
</svg>
