<?xml version="1.0" encoding="UTF-8"?>
<svg  viewBox="0 0 48 40" version="1.1" xmlns="http://www.w3.org/2000/svg" xmlns:xlink="http://www.w3.org/1999/xlink">
    <!-- Generator: Sketch 52.3 (67297) - http://www.bohemiancoding.com/sketch -->
    <title>Group 14</title>
    <desc>Created with Sketch.</desc>
    <g id="Page-1" stroke="none" stroke-width="1" fill="none" fill-rule="evenodd">
        <g id="medical-land" transform="translate(-109.000000, -931.000000)">
            <g id="Group-14" transform="translate(109.000000, 931.000000)">
                <circle id="Oval-Copy-2" fill="#FAE210" cx="22.4910873" cy="17.5" r="17.5"></circle>
                <g id="noun_envelope_664884" transform="translate(0.000000, 3.565062)" fill="#3E4955">
                    <g id="Group">
                        <path d="M42.7707219,8.83838384 C42.5467914,8.39275104 41.9496435,8.24420677 41.5017825,8.46702317 C41.427139,8.54129531 41.3524955,8.54129531 41.277852,8.68983957 L29.48418,19.2364825 C28.8870321,19.7563874 28.3645276,20.2020202 27.8420232,20.7219251 C26.7223708,21.6874629 25.3787879,22.1330957 24.1098485,22.1330957 L23.9605615,22.1330957 L23.8112745,22.1330957 C22.4676916,22.1330957 21.1241087,21.6131907 20.0044563,20.7219251 C19.4819519,20.2762923 18.8848039,19.7563874 18.3622995,19.2364825 L6.56862745,8.68983957 C6.49398396,8.61556744 6.34469697,8.54129531 6.27005348,8.46702317 C5.82219251,8.24420677 5.29968806,8.39275104 5.00111408,8.83838384 C4.7771836,9.28401664 4.85182709,9.80392157 5.29968806,10.1010101 L14.1822638,18.0481283 L6.49398396,25.6981581 C6.34469697,25.8467023 6.19540998,26.0695187 6.19540998,26.3666072 C6.19540998,26.5894236 6.27005348,26.81224 6.49398396,27.0350564 C6.86720143,27.4064171 7.46434938,27.4064171 7.83756684,27.0350564 L15.6004902,19.3107546 L17.0187166,20.5733809 C17.6158645,21.1675579 18.2130125,21.6131907 18.8101604,22.1330957 C20.3030303,23.3214498 22.0198307,23.989899 23.8112745,23.989899 C23.8112745,23.989899 23.8112745,23.989899 23.8112745,23.989899 L23.885918,23.989899 L24.035205,23.989899 C25.8266488,23.989899 27.5434492,23.3214498 29.0363191,22.1330957 C29.633467,21.6131907 30.230615,21.0932858 30.8277629,20.5733809 L32.2459893,19.3107546 L40.0089127,27.0350564 C40.1581996,27.1836007 40.3821301,27.332145 40.6807041,27.332145 C40.9046346,27.332145 41.1285651,27.2578728 41.3524955,27.0350564 C41.5017825,26.8865122 41.6510695,26.6636958 41.6510695,26.3666072 C41.6510695,26.1437908 41.576426,25.9209745 41.3524955,25.6981581 L33.5895722,18.0481283 L42.472148,10.026738 C42.8453654,9.80392157 42.9946524,9.2097445 42.7707219,8.83838384 Z" id="Path"></path>
                        <path d="M37.7696078,35.6506239 L10.0022282,35.6506239 C4.85182709,35.6506239 0.671791444,31.4171123 0.671791444,26.2923351 L0.671791444,9.35828877 C0.671791444,4.23351159 4.85182709,0 10.0022282,0 L37.7696078,0 C42.9200089,0 47.1746881,4.15923945 47.1746881,9.35828877 L47.1746881,26.2923351 C47.1000446,31.4171123 42.9200089,35.6506239 37.7696078,35.6506239 Z M10.0022282,1.85680333 C5.82219251,1.85680333 2.46323529,5.19904932 2.46323529,9.35828877 L2.46323529,26.2923351 C2.46323529,30.4515746 5.82219251,33.7938206 10.0022282,33.7938206 L37.7696078,33.7938206 C41.9496435,33.7938206 45.3086007,30.4515746 45.3086007,26.2923351 L45.3086007,9.35828877 C45.3086007,5.19904932 41.9496435,1.85680333 37.7696078,1.85680333 L10.0022282,1.85680333 Z" id="Shape" fill-rule="nonzero"></path>
                    </g>
                </g>
            </g>
        </g>
    </g>
</svg>
