<?xml version="1.0" encoding="UTF-8"?>
<svg  viewBox="0 0 47 53" version="1.1" xmlns="http://www.w3.org/2000/svg" xmlns:xlink="http://www.w3.org/1999/xlink">
    <!-- Generator: Sketch 52.3 (67297) - http://www.bohemiancoding.com/sketch -->
    <title>Group 15</title>
    <desc>Created with Sketch.</desc>
    <g id="Page-1" stroke="none" stroke-width="1" fill="none" fill-rule="evenodd">
        <g id="medical-land" transform="translate(-509.000000, -932.000000)">
            <g id="Group-15" transform="translate(509.000000, 932.000000)">
                <circle id="Oval" fill="#FAE210" cx="18.4464286" cy="22.2321429" r="17.5"></circle>
                <g id="Group" fill="#3E4955">
                    <path d="M46.4764031,44.5370968 L46.1383929,43.5967742 C45.8003827,42.5709677 45.4623724,41.3741935 44.9553571,40.2629032 C44.786352,39.9209677 44.6173469,39.6645161 44.4483418,39.3225806 C44.1948342,38.8951613 43.9413265,38.4677419 43.856824,38.0403226 C43.6033163,36.9290323 43.4343112,35.8177419 43.2653061,34.7064516 C43.0117985,33.0822581 42.7582908,31.3725806 42.2512755,29.833871 C41.7442602,27.9532258 40.9837372,26.2435484 40.1387117,24.3629032 C39.4626913,22.7387097 38.026148,21.883871 36.1670918,21.883871 C35.6600765,21.883871 35.1530612,21.9693548 34.6460459,22.0548387 L34.0545281,22.1403226 C33.125,22.3112903 32.1954719,22.4822581 31.2659439,22.6532258 L30.8434311,22.7387097 C29.4913903,22.9951613 28.1393495,23.2516129 26.7873087,23.5080645 C26.3647959,23.5935484 25.9422832,23.5935484 25.5197704,22.7387097 L22.3086735,15.4725806 C21.7171556,14.1903226 20.8721301,13.3354839 19.6890944,12.9080645 C19.2665816,12.7370968 18.8440689,12.6516129 18.4215561,12.6516129 C17.323023,12.7370968 16.3089923,13.3354839 15.8864796,14.3612903 C15.2104592,15.3016129 15.1259566,16.4983871 15.5484694,17.7806452 L17.6610332,23.3370968 C18.1680485,24.7903226 18.5905612,26.1580645 19.0975765,27.6112903 C18.9285714,27.5258065 18.8440689,27.4403226 18.6750638,27.3548387 C17.6610332,26.7564516 16.5625,26.8419355 15.5484694,27.5258065 C14.5344388,28.2096774 14.111926,29.3209677 14.4499362,30.4322581 C14.7034439,31.4580645 15.1259566,32.3129032 15.5484694,33.0822581 C15.6329719,33.2532258 15.7174745,33.3387097 15.801977,33.5096774 L15.8864796,33.5951613 C16.3089923,34.1935484 16.7315051,34.7919355 17.1540179,35.3903226 C17.4920281,35.8177419 17.7455357,36.2451613 18.0835459,36.6725806 L18.252551,36.9290323 C18.4215561,37.1854839 18.5905612,37.3564516 18.6750638,37.6129032 C20.7876276,41.0322581 23.4917092,43.4258065 26.7873087,44.8790323 C26.7873087,44.8790323 26.7873087,44.8790323 26.7873087,44.9645161 C27.0408163,45.3064516 27.2098214,45.9903226 27.3788265,46.3322581 C27.4633291,46.5032258 27.4633291,46.6741935 27.5478316,46.7596774 L28.1393495,48.2129032 L28.8153699,50.0935484 C29.3223852,51.5467742 30.4209184,52.316129 32.0264668,52.2306452 C33.0404974,52.1451613 34.0545281,51.8032258 34.9840561,51.4612903 C35.1530612,51.3758065 35.4065689,51.2903226 35.575574,51.2903226 L44.5328444,48.2983871 C46.307398,47.8709677 47.0679209,46.3322581 46.4764031,44.5370968 Z M43.856824,46.4177419 L34.8995536,49.4096774 C34.6460459,49.4951613 34.4770408,49.5806452 34.2235332,49.666129 C33.4630102,49.9225806 32.6179847,50.2645161 31.9419643,50.2645161 C31.3504464,50.2645161 31.0969388,50.0935484 30.9279337,49.5806452 L30.0829082,47.2725806 L29.8294005,46.8451613 L29.5758929,46.1612903 C29.5758929,46.0758065 29.4913903,45.9903226 29.4913903,45.8193548 C29.3223852,45.3064516 29.0688776,44.5370968 28.6463648,43.9387097 C28.3928571,43.5967742 28.1393495,43.2548387 27.8013393,43.1693548 C24.84375,41.8016129 22.4776786,39.6645161 20.5341199,36.6725806 C20.3651148,36.416129 20.1961097,36.1596774 20.0271046,35.9887097 L19.8580995,35.7322581 C19.5200893,35.3048387 19.2665816,34.8774194 18.9285714,34.45 C18.5060587,33.8516129 18.0835459,33.2532258 17.6610332,32.6548387 L17.5765306,32.483871 C17.4920281,32.3983871 17.4075255,32.2274194 17.323023,32.1419355 C16.9850128,31.6290323 16.7315051,30.9451613 16.4779974,30.0903226 C16.3934949,29.9193548 16.3934949,29.7483871 16.7315051,29.5774194 C17.0695153,29.3209677 17.323023,29.3209677 17.6610332,29.4919355 C17.9145408,29.6629032 18.1680485,29.833871 18.4215561,30.0903226 C18.8440689,30.5177419 19.2665816,31.0306452 19.6045918,31.5435484 C19.6890944,31.6290323 19.6890944,31.7145161 19.7735969,31.8854839 C19.8580995,32.0564516 20.0271046,32.3129032 20.1961097,32.5693548 C20.3651148,32.7403226 20.7876276,33.2532258 21.463648,33.1677419 C21.463648,33.1677419 21.463648,33.1677419 21.463648,33.1677419 L22.0551658,33.0822581 L22.3086735,32.6548387 C22.5621811,32.3129032 22.5621811,31.8 22.393176,31.2016129 L21.2101403,27.6967742 C20.703125,26.0725806 20.1961097,24.533871 19.6045918,22.9096774 L17.6610332,17.0967742 C17.4920281,16.6693548 17.4075255,16.0709677 17.7455357,15.6435484 L17.9145408,15.3870968 C18.0835459,15.0451613 18.5905612,14.7887097 19.013074,14.9596774 C19.6890944,15.216129 20.1116071,15.7290323 20.4496173,16.4129032 L23.7452168,23.7645161 C24.4212372,25.2177419 25.6887755,25.9016129 27.294324,25.6451613 C28.6463648,25.3887097 29.9984056,25.1322581 31.3504464,24.8758065 C32.4489796,24.7048387 33.4630102,24.4483871 34.5615434,24.2774194 L35.1530612,24.1919355 C35.575574,24.1064516 35.9135842,24.1064516 36.3360969,24.1064516 C37.265625,24.1064516 37.9416454,24.533871 38.3641582,25.3032258 C39.2091837,27.0983871 39.8852041,28.8080645 40.3922194,30.4322581 C40.8147321,31.8854839 41.0682398,33.5096774 41.3217474,35.0483871 C41.4907526,36.2451613 41.7442602,37.4419355 41.9977679,38.5532258 C42.166773,39.2370968 42.5047832,39.8354839 42.8427934,40.5193548 C43.0117985,40.7758065 43.096301,40.9467742 43.1808036,41.2032258 C43.6033163,42.1435484 43.9413265,43.2548387 44.2793367,44.2806452 L44.6173469,45.2209677 C44.6173469,45.9048387 44.5328444,46.1612903 43.856824,46.4177419 Z" id="Shape" fill-rule="nonzero"></path>
                    <path d="M27.8858418,11.0274194 C28.3928571,11.3693548 28.984375,11.1983871 29.3223852,10.7709677 C29.6603954,10.2580645 29.4913903,9.65967742 29.0688776,9.31774194 C26.1957908,7.3516129 22.7311862,6.41129032 19.3510842,6.75322581 C12.9288903,7.3516129 7.68973214,12.0532258 6.42219388,18.4645161 C6.33769133,19.0629032 6.67570153,19.5758065 7.18271684,19.7467742 C7.26721939,19.7467742 7.35172194,19.7467742 7.43622449,19.7467742 C7.9432398,19.7467742 8.36575255,19.4048387 8.4502551,18.8919355 C9.63329082,13.4209677 14.111926,9.40322581 19.6045918,8.80483871 C22.4776786,8.5483871 25.4352679,9.31774194 27.8858418,11.0274194 Z" id="Path"></path>
                    <path d="M19.013074,2.73548387 C23.0691964,2.30806452 27.0408163,3.2483871 30.5054209,5.3 C31.0124362,5.55645161 31.6039541,5.47096774 31.9419643,4.95806452 C32.1954719,4.44516129 32.1109694,3.84677419 31.6039541,3.50483871 C27.7168367,1.19677419 23.3227041,0.170967742 18.9285714,0.598387097 C10.2248087,1.45322581 2.95758929,7.69354839 0.676020408,16.1564516 C0.507015306,16.7548387 0.84502551,17.2677419 1.43654337,17.4387097 C1.52104592,17.4387097 1.60554847,17.4387097 1.69005102,17.4387097 C2.11256378,17.4387097 2.53507653,17.0967742 2.70408163,16.6693548 C4.73214286,9.06129032 11.2388393,3.50483871 19.013074,2.73548387 Z" id="Path"></path>
                </g>
            </g>
        </g>
    </g>
</svg>
