<?xml version="1.0" encoding="UTF-8"?>
<svg width="88px" height="184px" viewBox="0 0 88 184" version="1.1" xmlns="http://www.w3.org/2000/svg" xmlns:xlink="http://www.w3.org/1999/xlink">
    <!-- Generator: Sketch 52.3 (67297) - http://www.bohemiancoding.com/sketch -->
    <title>dot</title>
    <desc>Created with Sketch.</desc>
    <g id="Page-1" stroke="none" stroke-width="1" fill="none" fill-rule="evenodd">
        <g id="medical-land" transform="translate(-1282.000000, -205.000000)" fill="#807F82" fill-rule="nonzero">
            <g id="dot" transform="translate(1282.000000, 205.000000)">
                <path d="M86,184 C84.89543,184 84,183.104569 84,182 C84,180.895431 84.89543,180 86,180 C87.10457,180 88,180.895431 88,182 C88,183.104569 87.10457,184 86,184 Z M74,184 C72.89543,184 72,183.104569 72,182 C72,180.895431 72.89543,180 74,180 C75.10457,180 76,180.895431 76,182 C76,183.104569 75.10457,184 74,184 Z M62,184 C60.89543,184 60,183.104569 60,182 C60,180.895431 60.89543,180 62,180 C63.10457,180 64,180.895431 64,182 C64,183.104569 63.10457,184 62,184 Z M50,184 C48.89543,184 48,183.104569 48,182 C48,180.895431 48.89543,180 50,180 C51.10457,180 52,180.895431 52,182 C52,183.104569 51.10457,184 50,184 Z M38,184 C36.89543,184 36,183.104569 36,182 C36,180.895431 36.89543,180 38,180 C39.10457,180 40,180.895431 40,182 C40,183.104569 39.10457,184 38,184 Z M26,184 C24.89543,184 24,183.104569 24,182 C24,180.895431 24.89543,180 26,180 C27.10457,180 28,180.895431 28,182 C28,183.104569 27.10457,184 26,184 Z M14,184 C12.89543,184 12,183.104569 12,182 C12,180.895431 12.89543,180 14,180 C15.10457,180 16,180.895431 16,182 C16,183.104569 15.10457,184 14,184 Z M2,184 C0.89543,184 0,183.104569 0,182 C0,180.895431 0.89543,180 2,180 C3.10457,180 4,180.895431 4,182 C4,183.104569 3.10457,184 2,184 Z M86,172 C84.89543,172 84,171.104569 84,170 C84,168.895431 84.89543,168 86,168 C87.10457,168 88,168.895431 88,170 C88,171.104569 87.10457,172 86,172 Z M74,172 C72.89543,172 72,171.104569 72,170 C72,168.895431 72.89543,168 74,168 C75.10457,168 76,168.895431 76,170 C76,171.104569 75.10457,172 74,172 Z M62,172 C60.89543,172 60,171.104569 60,170 C60,168.895431 60.89543,168 62,168 C63.10457,168 64,168.895431 64,170 C64,171.104569 63.10457,172 62,172 Z M50,172 C48.89543,172 48,171.104569 48,170 C48,168.895431 48.89543,168 50,168 C51.10457,168 52,168.895431 52,170 C52,171.104569 51.10457,172 50,172 Z M38,172 C36.89543,172 36,171.104569 36,170 C36,168.895431 36.89543,168 38,168 C39.10457,168 40,168.895431 40,170 C40,171.104569 39.10457,172 38,172 Z M26,172 C24.89543,172 24,171.104569 24,170 C24,168.895431 24.89543,168 26,168 C27.10457,168 28,168.895431 28,170 C28,171.104569 27.10457,172 26,172 Z M14,172 C12.89543,172 12,171.104569 12,170 C12,168.895431 12.89543,168 14,168 C15.10457,168 16,168.895431 16,170 C16,171.104569 15.10457,172 14,172 Z M2,172 C0.89543,172 0,171.104569 0,170 C0,168.895431 0.89543,168 2,168 C3.10457,168 4,168.895431 4,170 C4,171.104569 3.10457,172 2,172 Z M86,160 C84.89543,160 84,159.104569 84,158 C84,156.895431 84.89543,156 86,156 C87.10457,156 88,156.895431 88,158 C88,159.104569 87.10457,160 86,160 Z M74,160 C72.89543,160 72,159.104569 72,158 C72,156.895431 72.89543,156 74,156 C75.10457,156 76,156.895431 76,158 C76,159.104569 75.10457,160 74,160 Z M62,160 C60.89543,160 60,159.104569 60,158 C60,156.895431 60.89543,156 62,156 C63.10457,156 64,156.895431 64,158 C64,159.104569 63.10457,160 62,160 Z M50,160 C48.89543,160 48,159.104569 48,158 C48,156.895431 48.89543,156 50,156 C51.10457,156 52,156.895431 52,158 C52,159.104569 51.10457,160 50,160 Z M38,160 C36.89543,160 36,159.104569 36,158 C36,156.895431 36.89543,156 38,156 C39.10457,156 40,156.895431 40,158 C40,159.104569 39.10457,160 38,160 Z M26,160 C24.89543,160 24,159.104569 24,158 C24,156.895431 24.89543,156 26,156 C27.10457,156 28,156.895431 28,158 C28,159.104569 27.10457,160 26,160 Z M14,160 C12.89543,160 12,159.104569 12,158 C12,156.895431 12.89543,156 14,156 C15.10457,156 16,156.895431 16,158 C16,159.104569 15.10457,160 14,160 Z M2,160 C0.89543,160 0,159.104569 0,158 C0,156.895431 0.89543,156 2,156 C3.10457,156 4,156.895431 4,158 C4,159.104569 3.10457,160 2,160 Z M86,148 C84.89543,148 84,147.104569 84,146 C84,144.895431 84.89543,144 86,144 C87.10457,144 88,144.895431 88,146 C88,147.104569 87.10457,148 86,148 Z M74,148 C72.89543,148 72,147.104569 72,146 C72,144.895431 72.89543,144 74,144 C75.10457,144 76,144.895431 76,146 C76,147.104569 75.10457,148 74,148 Z M62,148 C60.89543,148 60,147.104569 60,146 C60,144.895431 60.89543,144 62,144 C63.10457,144 64,144.895431 64,146 C64,147.104569 63.10457,148 62,148 Z M50,148 C48.89543,148 48,147.104569 48,146 C48,144.895431 48.89543,144 50,144 C51.10457,144 52,144.895431 52,146 C52,147.104569 51.10457,148 50,148 Z M38,148 C36.89543,148 36,147.104569 36,146 C36,144.895431 36.89543,144 38,144 C39.10457,144 40,144.895431 40,146 C40,147.104569 39.10457,148 38,148 Z M26,148 C24.89543,148 24,147.104569 24,146 C24,144.895431 24.89543,144 26,144 C27.10457,144 28,144.895431 28,146 C28,147.104569 27.10457,148 26,148 Z M14,148 C12.89543,148 12,147.104569 12,146 C12,144.895431 12.89543,144 14,144 C15.10457,144 16,144.895431 16,146 C16,147.104569 15.10457,148 14,148 Z M2,148 C0.89543,148 0,147.104569 0,146 C0,144.895431 0.89543,144 2,144 C3.10457,144 4,144.895431 4,146 C4,147.104569 3.10457,148 2,148 Z M86,136 C84.89543,136 84,135.104569 84,134 C84,132.895431 84.89543,132 86,132 C87.10457,132 88,132.895431 88,134 C88,135.104569 87.10457,136 86,136 Z M74,136 C72.89543,136 72,135.104569 72,134 C72,132.895431 72.89543,132 74,132 C75.10457,132 76,132.895431 76,134 C76,135.104569 75.10457,136 74,136 Z M62,136 C60.89543,136 60,135.104569 60,134 C60,132.895431 60.89543,132 62,132 C63.10457,132 64,132.895431 64,134 C64,135.104569 63.10457,136 62,136 Z M50,136 C48.89543,136 48,135.104569 48,134 C48,132.895431 48.89543,132 50,132 C51.10457,132 52,132.895431 52,134 C52,135.104569 51.10457,136 50,136 Z M38,136 C36.89543,136 36,135.104569 36,134 C36,132.895431 36.89543,132 38,132 C39.10457,132 40,132.895431 40,134 C40,135.104569 39.10457,136 38,136 Z M26,136 C24.89543,136 24,135.104569 24,134 C24,132.895431 24.89543,132 26,132 C27.10457,132 28,132.895431 28,134 C28,135.104569 27.10457,136 26,136 Z M14,136 C12.89543,136 12,135.104569 12,134 C12,132.895431 12.89543,132 14,132 C15.10457,132 16,132.895431 16,134 C16,135.104569 15.10457,136 14,136 Z M2,136 C0.89543,136 0,135.104569 0,134 C0,132.895431 0.89543,132 2,132 C3.10457,132 4,132.895431 4,134 C4,135.104569 3.10457,136 2,136 Z M86,124 C84.89543,124 84,123.104569 84,122 C84,120.895431 84.89543,120 86,120 C87.10457,120 88,120.895431 88,122 C88,123.104569 87.10457,124 86,124 Z M74,124 C72.89543,124 72,123.104569 72,122 C72,120.895431 72.89543,120 74,120 C75.10457,120 76,120.895431 76,122 C76,123.104569 75.10457,124 74,124 Z M62,124 C60.89543,124 60,123.104569 60,122 C60,120.895431 60.89543,120 62,120 C63.10457,120 64,120.895431 64,122 C64,123.104569 63.10457,124 62,124 Z M50,124 C48.89543,124 48,123.104569 48,122 C48,120.895431 48.89543,120 50,120 C51.10457,120 52,120.895431 52,122 C52,123.104569 51.10457,124 50,124 Z M38,124 C36.89543,124 36,123.104569 36,122 C36,120.895431 36.89543,120 38,120 C39.10457,120 40,120.895431 40,122 C40,123.104569 39.10457,124 38,124 Z M26,124 C24.89543,124 24,123.104569 24,122 C24,120.895431 24.89543,120 26,120 C27.10457,120 28,120.895431 28,122 C28,123.104569 27.10457,124 26,124 Z M14,124 C12.89543,124 12,123.104569 12,122 C12,120.895431 12.89543,120 14,120 C15.10457,120 16,120.895431 16,122 C16,123.104569 15.10457,124 14,124 Z M2,124 C0.89543,124 0,123.104569 0,122 C0,120.895431 0.89543,120 2,120 C3.10457,120 4,120.895431 4,122 C4,123.104569 3.10457,124 2,124 Z M86,112 C84.89543,112 84,111.104569 84,110 C84,108.895431 84.89543,108 86,108 C87.10457,108 88,108.895431 88,110 C88,111.104569 87.10457,112 86,112 Z M74,112 C72.89543,112 72,111.104569 72,110 C72,108.895431 72.89543,108 74,108 C75.10457,108 76,108.895431 76,110 C76,111.104569 75.10457,112 74,112 Z M62,112 C60.89543,112 60,111.104569 60,110 C60,108.895431 60.89543,108 62,108 C63.10457,108 64,108.895431 64,110 C64,111.104569 63.10457,112 62,112 Z M50,112 C48.89543,112 48,111.104569 48,110 C48,108.895431 48.89543,108 50,108 C51.10457,108 52,108.895431 52,110 C52,111.104569 51.10457,112 50,112 Z M38,112 C36.89543,112 36,111.104569 36,110 C36,108.895431 36.89543,108 38,108 C39.10457,108 40,108.895431 40,110 C40,111.104569 39.10457,112 38,112 Z M26,112 C24.89543,112 24,111.104569 24,110 C24,108.895431 24.89543,108 26,108 C27.10457,108 28,108.895431 28,110 C28,111.104569 27.10457,112 26,112 Z M14,112 C12.89543,112 12,111.104569 12,110 C12,108.895431 12.89543,108 14,108 C15.10457,108 16,108.895431 16,110 C16,111.104569 15.10457,112 14,112 Z M2,112 C0.89543,112 0,111.104569 0,110 C0,108.895431 0.89543,108 2,108 C3.10457,108 4,108.895431 4,110 C4,111.104569 3.10457,112 2,112 Z M86,100 C84.89543,100 84,99.10457 84,98 C84,96.89543 84.89543,96 86,96 C87.10457,96 88,96.89543 88,98 C88,99.10457 87.10457,100 86,100 Z M74,100 C72.89543,100 72,99.10457 72,98 C72,96.89543 72.89543,96 74,96 C75.10457,96 76,96.89543 76,98 C76,99.10457 75.10457,100 74,100 Z M62,100 C60.89543,100 60,99.10457 60,98 C60,96.89543 60.89543,96 62,96 C63.10457,96 64,96.89543 64,98 C64,99.10457 63.10457,100 62,100 Z M50,100 C48.89543,100 48,99.10457 48,98 C48,96.89543 48.89543,96 50,96 C51.10457,96 52,96.89543 52,98 C52,99.10457 51.10457,100 50,100 Z M38,100 C36.89543,100 36,99.10457 36,98 C36,96.89543 36.89543,96 38,96 C39.10457,96 40,96.89543 40,98 C40,99.10457 39.10457,100 38,100 Z M26,100 C24.89543,100 24,99.10457 24,98 C24,96.89543 24.89543,96 26,96 C27.10457,96 28,96.89543 28,98 C28,99.10457 27.10457,100 26,100 Z M14,100 C12.89543,100 12,99.10457 12,98 C12,96.89543 12.89543,96 14,96 C15.10457,96 16,96.89543 16,98 C16,99.10457 15.10457,100 14,100 Z M2,100 C0.89543,100 0,99.10457 0,98 C0,96.89543 0.89543,96 2,96 C3.10457,96 4,96.89543 4,98 C4,99.10457 3.10457,100 2,100 Z M86,88 C84.89543,88 84,87.10457 84,86 C84,84.89543 84.89543,84 86,84 C87.10457,84 88,84.89543 88,86 C88,87.10457 87.10457,88 86,88 Z M74,88 C72.89543,88 72,87.10457 72,86 C72,84.89543 72.89543,84 74,84 C75.10457,84 76,84.89543 76,86 C76,87.10457 75.10457,88 74,88 Z M62,88 C60.89543,88 60,87.10457 60,86 C60,84.89543 60.89543,84 62,84 C63.10457,84 64,84.89543 64,86 C64,87.10457 63.10457,88 62,88 Z M50,88 C48.89543,88 48,87.10457 48,86 C48,84.89543 48.89543,84 50,84 C51.10457,84 52,84.89543 52,86 C52,87.10457 51.10457,88 50,88 Z M38,88 C36.89543,88 36,87.10457 36,86 C36,84.89543 36.89543,84 38,84 C39.10457,84 40,84.89543 40,86 C40,87.10457 39.10457,88 38,88 Z M26,88 C24.89543,88 24,87.10457 24,86 C24,84.89543 24.89543,84 26,84 C27.10457,84 28,84.89543 28,86 C28,87.10457 27.10457,88 26,88 Z M14,88 C12.89543,88 12,87.10457 12,86 C12,84.89543 12.89543,84 14,84 C15.10457,84 16,84.89543 16,86 C16,87.10457 15.10457,88 14,88 Z M2,88 C0.89543,88 0,87.10457 0,86 C0,84.89543 0.89543,84 2,84 C3.10457,84 4,84.89543 4,86 C4,87.10457 3.10457,88 2,88 Z M86,76 C84.89543,76 84,75.10457 84,74 C84,72.89543 84.89543,72 86,72 C87.10457,72 88,72.89543 88,74 C88,75.10457 87.10457,76 86,76 Z M74,76 C72.89543,76 72,75.10457 72,74 C72,72.89543 72.89543,72 74,72 C75.10457,72 76,72.89543 76,74 C76,75.10457 75.10457,76 74,76 Z M62,76 C60.89543,76 60,75.10457 60,74 C60,72.89543 60.89543,72 62,72 C63.10457,72 64,72.89543 64,74 C64,75.10457 63.10457,76 62,76 Z M50,76 C48.89543,76 48,75.10457 48,74 C48,72.89543 48.89543,72 50,72 C51.10457,72 52,72.89543 52,74 C52,75.10457 51.10457,76 50,76 Z M38,76 C36.89543,76 36,75.10457 36,74 C36,72.89543 36.89543,72 38,72 C39.10457,72 40,72.89543 40,74 C40,75.10457 39.10457,76 38,76 Z M26,76 C24.89543,76 24,75.10457 24,74 C24,72.89543 24.89543,72 26,72 C27.10457,72 28,72.89543 28,74 C28,75.10457 27.10457,76 26,76 Z M14,76 C12.89543,76 12,75.10457 12,74 C12,72.89543 12.89543,72 14,72 C15.10457,72 16,72.89543 16,74 C16,75.10457 15.10457,76 14,76 Z M2,76 C0.89543,76 0,75.10457 0,74 C0,72.89543 0.89543,72 2,72 C3.10457,72 4,72.89543 4,74 C4,75.10457 3.10457,76 2,76 Z M86,64 C84.89543,64 84,63.104569 84,62 C84,60.895431 84.89543,60 86,60 C87.10457,60 88,60.895431 88,62 C88,63.104569 87.10457,64 86,64 Z M74,64 C72.89543,64 72,63.104569 72,62 C72,60.895431 72.89543,60 74,60 C75.10457,60 76,60.895431 76,62 C76,63.104569 75.10457,64 74,64 Z M62,64 C60.89543,64 60,63.104569 60,62 C60,60.895431 60.89543,60 62,60 C63.10457,60 64,60.895431 64,62 C64,63.104569 63.10457,64 62,64 Z M50,64 C48.89543,64 48,63.104569 48,62 C48,60.895431 48.89543,60 50,60 C51.10457,60 52,60.895431 52,62 C52,63.104569 51.10457,64 50,64 Z M38,64 C36.89543,64 36,63.104569 36,62 C36,60.895431 36.89543,60 38,60 C39.10457,60 40,60.895431 40,62 C40,63.104569 39.10457,64 38,64 Z M26,64 C24.89543,64 24,63.104569 24,62 C24,60.895431 24.89543,60 26,60 C27.10457,60 28,60.895431 28,62 C28,63.104569 27.10457,64 26,64 Z M14,64 C12.89543,64 12,63.104569 12,62 C12,60.895431 12.89543,60 14,60 C15.10457,60 16,60.895431 16,62 C16,63.104569 15.10457,64 14,64 Z M2,64 C0.89543,64 0,63.104569 0,62 C0,60.895431 0.89543,60 2,60 C3.10457,60 4,60.895431 4,62 C4,63.104569 3.10457,64 2,64 Z M86,52 C84.89543,52 84,51.104569 84,50 C84,48.895431 84.89543,48 86,48 C87.10457,48 88,48.895431 88,50 C88,51.104569 87.10457,52 86,52 Z M74,52 C72.89543,52 72,51.104569 72,50 C72,48.895431 72.89543,48 74,48 C75.10457,48 76,48.895431 76,50 C76,51.104569 75.10457,52 74,52 Z M62,52 C60.89543,52 60,51.104569 60,50 C60,48.895431 60.89543,48 62,48 C63.10457,48 64,48.895431 64,50 C64,51.104569 63.10457,52 62,52 Z M50,52 C48.89543,52 48,51.104569 48,50 C48,48.895431 48.89543,48 50,48 C51.10457,48 52,48.895431 52,50 C52,51.104569 51.10457,52 50,52 Z M38,52 C36.89543,52 36,51.104569 36,50 C36,48.895431 36.89543,48 38,48 C39.10457,48 40,48.895431 40,50 C40,51.104569 39.10457,52 38,52 Z M26,52 C24.89543,52 24,51.104569 24,50 C24,48.895431 24.89543,48 26,48 C27.10457,48 28,48.895431 28,50 C28,51.104569 27.10457,52 26,52 Z M14,52 C12.89543,52 12,51.104569 12,50 C12,48.895431 12.89543,48 14,48 C15.10457,48 16,48.895431 16,50 C16,51.104569 15.10457,52 14,52 Z M2,52 C0.89543,52 0,51.104569 0,50 C0,48.895431 0.89543,48 2,48 C3.10457,48 4,48.895431 4,50 C4,51.104569 3.10457,52 2,52 Z M86,40 C84.89543,40 84,39.104569 84,38 C84,36.895431 84.89543,36 86,36 C87.10457,36 88,36.895431 88,38 C88,39.104569 87.10457,40 86,40 Z M74,40 C72.89543,40 72,39.104569 72,38 C72,36.895431 72.89543,36 74,36 C75.10457,36 76,36.895431 76,38 C76,39.104569 75.10457,40 74,40 Z M62,40 C60.89543,40 60,39.104569 60,38 C60,36.895431 60.89543,36 62,36 C63.10457,36 64,36.895431 64,38 C64,39.104569 63.10457,40 62,40 Z M50,40 C48.89543,40 48,39.104569 48,38 C48,36.895431 48.89543,36 50,36 C51.10457,36 52,36.895431 52,38 C52,39.104569 51.10457,40 50,40 Z M38,40 C36.89543,40 36,39.104569 36,38 C36,36.895431 36.89543,36 38,36 C39.10457,36 40,36.895431 40,38 C40,39.104569 39.10457,40 38,40 Z M26,40 C24.89543,40 24,39.104569 24,38 C24,36.895431 24.89543,36 26,36 C27.10457,36 28,36.895431 28,38 C28,39.104569 27.10457,40 26,40 Z M14,40 C12.89543,40 12,39.104569 12,38 C12,36.895431 12.89543,36 14,36 C15.10457,36 16,36.895431 16,38 C16,39.104569 15.10457,40 14,40 Z M2,40 C0.89543,40 0,39.104569 0,38 C0,36.895431 0.89543,36 2,36 C3.10457,36 4,36.895431 4,38 C4,39.104569 3.10457,40 2,40 Z M86,28 C84.89543,28 84,27.104569 84,26 C84,24.895431 84.89543,24 86,24 C87.10457,24 88,24.895431 88,26 C88,27.104569 87.10457,28 86,28 Z M74,28 C72.89543,28 72,27.104569 72,26 C72,24.895431 72.89543,24 74,24 C75.10457,24 76,24.895431 76,26 C76,27.104569 75.10457,28 74,28 Z M62,28 C60.89543,28 60,27.104569 60,26 C60,24.895431 60.89543,24 62,24 C63.10457,24 64,24.895431 64,26 C64,27.104569 63.10457,28 62,28 Z M50,28 C48.89543,28 48,27.104569 48,26 C48,24.895431 48.89543,24 50,24 C51.10457,24 52,24.895431 52,26 C52,27.104569 51.10457,28 50,28 Z M38,28 C36.89543,28 36,27.104569 36,26 C36,24.895431 36.89543,24 38,24 C39.10457,24 40,24.895431 40,26 C40,27.104569 39.10457,28 38,28 Z M26,28 C24.89543,28 24,27.104569 24,26 C24,24.895431 24.89543,24 26,24 C27.10457,24 28,24.895431 28,26 C28,27.104569 27.10457,28 26,28 Z M14,28 C12.89543,28 12,27.104569 12,26 C12,24.895431 12.89543,24 14,24 C15.10457,24 16,24.895431 16,26 C16,27.104569 15.10457,28 14,28 Z M2,28 C0.89543,28 0,27.104569 0,26 C0,24.895431 0.89543,24 2,24 C3.10457,24 4,24.895431 4,26 C4,27.104569 3.10457,28 2,28 Z M86,16 C84.89543,16 84,15.104569 84,14 C84,12.895431 84.89543,12 86,12 C87.10457,12 88,12.895431 88,14 C88,15.104569 87.10457,16 86,16 Z M74,16 C72.89543,16 72,15.104569 72,14 C72,12.895431 72.89543,12 74,12 C75.10457,12 76,12.895431 76,14 C76,15.104569 75.10457,16 74,16 Z M62,16 C60.89543,16 60,15.104569 60,14 C60,12.895431 60.89543,12 62,12 C63.10457,12 64,12.895431 64,14 C64,15.104569 63.10457,16 62,16 Z M50,16 C48.89543,16 48,15.104569 48,14 C48,12.895431 48.89543,12 50,12 C51.10457,12 52,12.895431 52,14 C52,15.104569 51.10457,16 50,16 Z M38,16 C36.89543,16 36,15.104569 36,14 C36,12.895431 36.89543,12 38,12 C39.10457,12 40,12.895431 40,14 C40,15.104569 39.10457,16 38,16 Z M26,16 C24.89543,16 24,15.104569 24,14 C24,12.895431 24.89543,12 26,12 C27.10457,12 28,12.895431 28,14 C28,15.104569 27.10457,16 26,16 Z M14,16 C12.89543,16 12,15.104569 12,14 C12,12.895431 12.89543,12 14,12 C15.10457,12 16,12.895431 16,14 C16,15.104569 15.10457,16 14,16 Z M2,16 C0.89543,16 0,15.104569 0,14 C0,12.895431 0.89543,12 2,12 C3.10457,12 4,12.895431 4,14 C4,15.104569 3.10457,16 2,16 Z M86,4 C84.89543,4 84,3.104569 84,2 C84,0.895431 84.89543,0 86,0 C87.10457,0 88,0.895431 88,2 C88,3.104569 87.10457,4 86,4 Z M74,4 C72.89543,4 72,3.104569 72,2 C72,0.895431 72.89543,0 74,0 C75.10457,0 76,0.895431 76,2 C76,3.104569 75.10457,4 74,4 Z M62,4 C60.89543,4 60,3.104569 60,2 C60,0.895431 60.89543,0 62,0 C63.10457,0 64,0.895431 64,2 C64,3.104569 63.10457,4 62,4 Z M50,4 C48.89543,4 48,3.104569 48,2 C48,0.895431 48.89543,0 50,0 C51.10457,0 52,0.895431 52,2 C52,3.104569 51.10457,4 50,4 Z M38,4 C36.89543,4 36,3.104569 36,2 C36,0.895431 36.89543,0 38,0 C39.10457,0 40,0.895431 40,2 C40,3.104569 39.10457,4 38,4 Z M26,4 C24.89543,4 24,3.104569 24,2 C24,0.895431 24.89543,0 26,0 C27.10457,0 28,0.895431 28,2 C28,3.104569 27.10457,4 26,4 Z M14,4 C12.89543,4 12,3.104569 12,2 C12,0.895431 12.89543,0 14,0 C15.10457,0 16,0.895431 16,2 C16,3.104569 15.10457,4 14,4 Z M2,4 C0.89543,4 0,3.104569 0,2 C0,0.895431 0.89543,0 2,0 C3.10457,0 4,0.895431 4,2 C4,3.104569 3.10457,4 2,4 Z" id="dot-grid"></path>
            </g>
        </g>
    </g>
</svg>