<?xml version="1.0" encoding="UTF-8"?>
<svg width="14px" height="14px" viewBox="0 0 14 14" version="1.1" xmlns="http://www.w3.org/2000/svg" xmlns:xlink="http://www.w3.org/1999/xlink">
    <!-- Generator: Sketch 52.3 (67297) - http://www.bohemiancoding.com/sketch -->
    <title>Linkedin</title>
    <desc>Created with Sketch.</desc>
    <g id="Page-1" stroke="none" stroke-width="1" fill="none" fill-rule="evenodd">
        <g id="medical-land" transform="translate(-1292.000000, -432.000000)" fill="#05746F" fill-rule="nonzero">
            <g id="Linkedin" transform="translate(1292.000000, 432.000000)">
                <path d="M4.538924,6.8593153 C4.538924,5.7223537 4.501902,4.7722354 4.46488,3.9519798 L6.890924,3.9519798 L7.020284,5.2196876 L7.0756,5.2196876 C7.442773,4.6229374 8.343502,3.7474681 9.850524,3.7474681 C11.688133,3.7474681 13.066667,4.9961824 13.066667,7.6800126 L13.066667,13.0666667 L10.273013,13.0666667 L10.273013,8.0157123 C10.273013,6.8416469 9.867947,6.0399432 8.857458,6.0399432 C8.086089,6.0399432 7.627013,6.5801546 7.42448,7.1022559 C7.350871,7.2886575 7.332578,7.5492664 7.332578,7.8103171 L7.332578,13.0666667 L4.538924,13.0666667 L4.538924,6.8593153 Z M0.074044,13.0657832 L2.867698,13.0657832 L2.867698,3.9519798 L0.074044,3.9519798 L0.074044,13.0657832 Z M2.958729,1.4170058 C2.958729,2.1992743 2.388587,2.8331283 1.451707,2.8331283 C0.569707,2.8331283 0,2.1992743 0,1.4170058 C0,0.6157438 0.588436,0 1.488729,0 C2.388587,0 2.940436,0.6157438 2.958729,1.4170058 Z" id="Fill-14"></path>
            </g>
        </g>
    </g>
</svg>