<?xml version="1.0" encoding="UTF-8" standalone="no"?><!DOCTYPE svg PUBLIC "-//W3C//DTD SVG 1.1//EN" "http://www.w3.org/Graphics/SVG/1.1/DTD/svg11.dtd"><svg width="159" height="82" viewBox="0 0 166 80" version="1.1" xmlns="http://www.w3.org/2000/svg" xmlns:xlink="http://www.w3.org/1999/xlink" xml:space="preserve" xmlns:serif="http://www.serif.com/" style="fill-rule:evenodd;clip-rule:evenodd;stroke-linejoin:round;stroke-miterlimit:1.41421;"><g id="Group-2"><g id="Group"><path id="Path" d="M13.234,36.043l0.213,1.489c1.276,-1.192 2.553,-1.745 3.83,-1.745c1.361,0 2.212,0.553 2.595,1.617c1.192,-1.106 2.426,-1.617 3.66,-1.617c0.894,0 1.617,0.256 2.085,0.724c0.468,0.468 0.723,1.191 0.723,2.085l0,7.574l-3.021,0l0,-6.638c0,-0.426 -0.085,-0.723 -0.213,-0.936c-0.17,-0.17 -0.425,-0.256 -0.851,-0.256c-0.34,0 -0.638,0.043 -0.936,0.171c-0.298,0.127 -0.723,0.34 -1.319,0.723l0,6.894l-2.894,0l0,-6.639c0,-0.425 -0.085,-0.723 -0.255,-0.936c-0.17,-0.17 -0.425,-0.255 -0.808,-0.255c-0.511,0 -1.277,0.298 -2.213,0.893l0,6.937l-3.021,0l0,-10.085l2.425,0Z" style="fill:#00a79d;"/><path id="Shape" d="M35.149,42.085l-3.617,0c0.085,0.724 0.298,1.234 0.681,1.489c0.34,0.256 0.936,0.383 1.744,0.383c1.064,0 2.341,-0.085 3.745,-0.212l0.298,1.872c-1.064,0.511 -2.511,0.766 -4.383,0.766c-1.872,0 -3.234,-0.426 -4.043,-1.234c-0.808,-0.809 -1.191,-2.17 -1.191,-4.043c0,-1.957 0.383,-3.361 1.191,-4.127c0.766,-0.809 2.086,-1.192 3.958,-1.192c1.659,0 2.894,0.298 3.617,0.851c0.766,0.596 1.149,1.447 1.149,2.639c0,0.936 -0.255,1.659 -0.724,2.127c-0.553,0.468 -1.361,0.681 -2.425,0.681Zm-3.702,-1.83l2.851,0c0.383,0 0.596,-0.085 0.766,-0.255c0.127,-0.17 0.213,-0.426 0.213,-0.766c0,-0.468 -0.128,-0.808 -0.383,-0.979c-0.256,-0.17 -0.681,-0.255 -1.362,-0.255c-0.766,0 -1.319,0.17 -1.575,0.468c-0.297,0.255 -0.468,0.894 -0.51,1.787Z" style="fill:#00a79d;fill-rule:nonzero;"/><path id="Shape1" serif:id="Shape" d="M49.83,31.83l0,14.298l-2.383,0l-0.256,-1.49c-0.978,1.149 -2.255,1.702 -3.829,1.702c-1.234,0 -2.171,-0.468 -2.724,-1.361c-0.553,-0.894 -0.851,-2.256 -0.851,-4c0,-1.915 0.298,-3.277 0.936,-4.085c0.639,-0.766 1.617,-1.149 2.937,-1.149c1.276,0 2.383,0.298 3.276,0.893c-0.085,-0.766 -0.085,-1.447 -0.085,-2.085l0,-2.723l2.979,0Zm-3.021,11.234l0,-4.638c-0.894,-0.256 -1.618,-0.383 -2.128,-0.383c-0.681,0 -1.149,0.17 -1.404,0.553c-0.256,0.383 -0.383,1.191 -0.383,2.383c0,1.149 0.127,1.915 0.383,2.298c0.255,0.383 0.68,0.595 1.319,0.595c0.425,0 0.766,-0.042 1.064,-0.17c0.255,-0.128 0.68,-0.34 1.149,-0.638Z" style="fill:#00a79d;fill-rule:nonzero;"/><path id="Shape2" serif:id="Shape" d="M53.191,31.574l1.362,0c0.596,0 0.894,0.298 0.894,0.894l0,1.106c0,0.596 -0.298,0.894 -0.894,0.894l-1.362,0c-0.595,0 -0.893,-0.298 -0.893,-0.894l0,-1.106c0.042,-0.596 0.34,-0.894 0.893,-0.894Zm2.213,14.554l-3.021,0l0,-10.085l3.021,0l0,10.085Z" style="fill:#00a79d;fill-rule:nonzero;"/><path id="Path1" serif:id="Path" d="M66.213,43.702l0.255,1.958c-1.021,0.468 -2.34,0.68 -3.915,0.68c-1.872,0 -3.149,-0.383 -3.915,-1.191c-0.766,-0.809 -1.149,-2.17 -1.149,-4.085c0,-1.958 0.383,-3.319 1.149,-4.128c0.766,-0.808 2.085,-1.191 3.958,-1.191c1.532,0 2.766,0.212 3.702,0.638l-0.341,1.872c-1.489,-0.042 -2.425,-0.042 -2.893,-0.042c-0.936,0 -1.575,0.213 -1.915,0.596c-0.34,0.382 -0.511,1.148 -0.511,2.255c0,1.106 0.171,1.872 0.511,2.255c0.34,0.383 0.979,0.596 1.915,0.596c1.234,0 2.255,-0.085 3.149,-0.213Z" style="fill:#00a79d;"/><path id="Shape3" serif:id="Shape" d="M68.553,38.298l-0.298,-2.043c1.83,-0.34 3.575,-0.51 5.234,-0.51c1.362,0 2.383,0.255 3.022,0.808c0.638,0.553 0.978,1.49 0.978,2.851l0,6.639l-2.383,0l-0.297,-1.532c-1.022,1.191 -2.256,1.787 -3.703,1.787c-0.978,0 -1.744,-0.255 -2.383,-0.766c-0.595,-0.511 -0.936,-1.234 -0.936,-2.128l0,-1.021c0,-0.809 0.256,-1.447 0.809,-1.872c0.553,-0.468 1.319,-0.681 2.255,-0.681l3.575,0l0,-0.468c0,-0.511 -0.128,-0.851 -0.341,-1.022c-0.213,-0.17 -0.638,-0.255 -1.276,-0.255c-1.107,0.043 -2.511,0.085 -4.256,0.213Zm2.213,4.383l0,0.383c0,0.681 0.383,1.021 1.191,1.021c0.809,0 1.66,-0.34 2.511,-0.979l0,-1.404l-2.723,0c-0.639,0 -0.979,0.341 -0.979,0.979Z" style="fill:#00a79d;fill-rule:nonzero;"/><path id="Path2" serif:id="Path" d="M82.894,31.83l0,11.021c0,0.681 0.383,1.021 1.149,1.021l0.808,0l0.34,2.085c-0.51,0.256 -1.319,0.426 -2.425,0.426c-0.894,0 -1.617,-0.255 -2.128,-0.723c-0.51,-0.469 -0.766,-1.149 -0.766,-2.043l0,-11.745l3.022,0l0,-0.042Z" style="fill:#00a79d;"/><path id="Path3" serif:id="Path" d="M98.809,43.702l0.255,1.958c-1.021,0.468 -2.341,0.68 -3.915,0.68c-1.872,0 -3.149,-0.383 -3.915,-1.191c-0.766,-0.809 -1.149,-2.17 -1.149,-4.085c0,-1.958 0.383,-3.319 1.149,-4.128c0.766,-0.808 2.085,-1.191 3.957,-1.191c1.532,0 2.766,0.212 3.703,0.638l-0.341,1.872c-1.489,-0.042 -2.425,-0.042 -2.893,-0.042c-0.937,0 -1.575,0.213 -1.915,0.596c-0.341,0.382 -0.511,1.148 -0.511,2.255c0,1.106 0.17,1.872 0.511,2.255c0.34,0.383 0.978,0.596 1.915,0.596c1.276,0 2.297,-0.085 3.149,-0.213Z" style="fill:#808285;"/><path id="Shape4" serif:id="Shape" d="M105.532,35.745c1.872,0 3.191,0.425 4,1.234c0.766,0.808 1.191,2.17 1.191,4.127c0,1.915 -0.383,3.32 -1.191,4.085c-0.766,0.809 -2.128,1.192 -4,1.192c-1.872,0 -3.234,-0.383 -4,-1.192c-0.766,-0.808 -1.192,-2.17 -1.192,-4.085c0,-1.957 0.383,-3.319 1.192,-4.127c0.766,-0.809 2.128,-1.234 4,-1.234Zm0,2.298c-0.809,0 -1.362,0.212 -1.617,0.595c-0.255,0.426 -0.426,1.234 -0.426,2.468c0,1.192 0.128,2 0.426,2.426c0.255,0.425 0.808,0.596 1.617,0.596c0.766,0 1.319,-0.213 1.574,-0.596c0.298,-0.426 0.426,-1.192 0.426,-2.426c0,-1.191 -0.128,-2.042 -0.426,-2.425c-0.255,-0.468 -0.766,-0.638 -1.574,-0.638Z" style="fill:#808285;fill-rule:nonzero;"/><path id="Path4" serif:id="Path" d="M115.234,36.043l0.213,1.489c1.447,-1.192 2.893,-1.787 4.298,-1.787c0.893,0 1.617,0.255 2.085,0.723c0.468,0.468 0.723,1.192 0.723,2.085l0,7.575l-2.979,0l0,-6.639c0,-0.468 -0.085,-0.766 -0.212,-0.936c-0.128,-0.17 -0.383,-0.255 -0.766,-0.255c-0.639,0 -1.575,0.298 -2.809,0.936l0,6.894l-3.021,0l0,-10.085l2.468,0Z" style="fill:#808285;"/><path id="Path5" serif:id="Path" d="M133.277,43.702l0.255,1.958c-1.021,0.468 -2.341,0.68 -3.915,0.68c-1.872,0 -3.149,-0.383 -3.915,-1.191c-0.766,-0.809 -1.149,-2.17 -1.149,-4.085c0,-1.958 0.383,-3.319 1.149,-4.128c0.766,-0.808 2.085,-1.191 3.958,-1.191c1.531,0 2.766,0.212 3.702,0.638l-0.341,1.872c-1.489,-0.042 -2.425,-0.042 -2.893,-0.042c-0.937,0 -1.575,0.213 -1.915,0.596c-0.341,0.382 -0.511,1.148 -0.511,2.255c0,1.106 0.17,1.872 0.511,2.255c0.34,0.383 0.978,0.596 1.915,0.596c1.234,0 2.255,-0.085 3.149,-0.213Z" style="fill:#808285;"/><path id="Shape5" serif:id="Shape" d="M141.617,42.085l-3.617,0c0.085,0.724 0.298,1.234 0.681,1.489c0.34,0.256 0.936,0.383 1.745,0.383c1.063,0 2.34,-0.085 3.744,-0.212l0.298,1.872c-1.064,0.511 -2.511,0.766 -4.383,0.766c-1.872,0 -3.234,-0.426 -4.042,-1.234c-0.809,-0.809 -1.192,-2.17 -1.192,-4.043c0,-1.957 0.383,-3.361 1.192,-4.127c0.808,-0.766 2.085,-1.192 3.957,-1.192c1.66,0 2.894,0.298 3.617,0.851c0.766,0.596 1.149,1.447 1.149,2.639c0,0.936 -0.255,1.659 -0.723,2.127c-0.554,0.468 -1.32,0.681 -2.426,0.681Zm-3.702,-1.83l2.851,0c0.383,0 0.596,-0.085 0.766,-0.255c0.128,-0.17 0.213,-0.426 0.213,-0.766c0,-0.468 -0.128,-0.808 -0.383,-0.979c-0.256,-0.17 -0.681,-0.255 -1.362,-0.255c-0.766,0 -1.319,0.17 -1.574,0.468c-0.298,0.255 -0.469,0.894 -0.511,1.787Z" style="fill:#808285;fill-rule:nonzero;"/><path id="Shape6" serif:id="Shape" d="M149.106,36.043l0.213,1.489c0.426,-0.511 1.021,-0.936 1.745,-1.234c0.723,-0.341 1.489,-0.511 2.255,-0.511c2.298,0 3.49,1.787 3.49,5.404c0,1.915 -0.298,3.277 -0.937,4.043c-0.638,0.766 -1.574,1.149 -2.893,1.149c-1.362,0 -2.468,-0.34 -3.362,-0.979c0.085,0.681 0.085,1.405 0.043,2.17l0,2.426l-3.022,0l0,-13.957l2.468,0Zm0.554,3.063l0,4.596c1.063,0.255 1.829,0.426 2.297,0.426c0.681,0 1.107,-0.171 1.362,-0.554c0.255,-0.383 0.383,-1.191 0.383,-2.383c0,-1.191 -0.128,-2 -0.34,-2.382c-0.213,-0.426 -0.639,-0.639 -1.234,-0.639c-0.681,-0.042 -1.49,0.298 -2.468,0.936Z" style="fill:#808285;fill-rule:nonzero;"/><path id="Path6" serif:id="Path" d="M162.851,38.043l0,4.766c0,0.382 0.085,0.638 0.255,0.808c0.171,0.17 0.468,0.213 0.851,0.213l1.277,0l0.34,2.085c-0.765,0.255 -1.702,0.425 -2.851,0.425c-0.893,0 -1.617,-0.255 -2.127,-0.766c-0.511,-0.51 -0.766,-1.234 -0.766,-2.127l0,-5.404l-1.787,0l0,-1.915l1.787,-0.085l0,-2.809l3.021,0l0,2.809l2.809,0l0,2.042l-2.809,0l0,-0.042Z" style="fill:#808285;"/></g><path id="Path7" serif:id="Path" d="M58.511,79.872l-29.873,0c-0.255,0 -0.425,-0.17 -0.425,-0.425l0,-23.575l-27.66,0c-0.255,0 -0.425,-0.17 -0.425,-0.425l0,-29.277c0,-0.255 0.17,-0.425 0.425,-0.425l27.66,0l0,-25.064c0,-0.255 0.17,-0.426 0.425,-0.426l29.873,0c0.255,0 0.425,0.171 0.425,0.426l0,25.064l27.66,0c0.255,0 0.425,0.17 0.425,0.425c0,0.256 -0.17,0.426 -0.425,0.426l-28.085,0c-0.256,0 -0.426,-0.17 -0.426,-0.426l0,-25.064l-29.021,0l0,25.064c0,0.256 -0.17,0.426 -0.426,0.426l-27.659,0l0,28.425l27.659,0c0.256,0 0.426,0.17 0.426,0.426l0,23.574l29.021,0l0,-24c0,-0.255 0.17,-0.425 0.426,-0.425l28.085,0c0.255,0 0.425,0.17 0.425,0.425c0,0.256 -0.17,0.426 -0.425,0.426l-27.66,0l0,24c0,0.255 -0.17,0.425 -0.425,0.425Z" style="fill:#00a79d;"/></g></svg>
