<?xml version="1.0" encoding="UTF-8"?>
<svg width="15px" height="13px" viewBox="0 0 15 13" version="1.1" xmlns="http://www.w3.org/2000/svg" xmlns:xlink="http://www.w3.org/1999/xlink">
    <!-- Generator: Sketch 52.3 (67297) - http://www.bohemiancoding.com/sketch -->
    <title>Twitter</title>
    <desc>Created with Sketch.</desc>
    <g id="Page-1" stroke="none" stroke-width="1" fill="none" fill-rule="evenodd">
        <g id="medical-land" transform="translate(-1291.000000, -399.000000)" fill="#05746F">
            <g id="Twitter" transform="translate(1291.000000, 399.000000)">
                <path d="M15,1.53914481 C14.4482812,1.80008459 13.8553125,1.97654387 13.2323437,2.05602552 C13.8679687,1.64961928 14.3559375,1.00676763 14.585625,0.240444455 C13.99125,0.616357773 13.3321875,0.889294782 12.6314063,1.03676075 C12.0703125,0.398907955 11.2701563,0 10.3851562,0 C8.68546869,0 7.3078125,1.46966087 7.3078125,3.28174269 C7.3078125,3.53918323 7.33453131,3.78962551 7.3875,4.03006996 C4.82953119,3.8926017 2.5621875,2.58640318 1.044375,0.6008613 C0.779531192,1.08574948 0.627656192,1.64961928 0.627656192,2.25098049 C0.627656192,3.38971774 1.1709375,4.39398605 1.99640631,4.98235022 C1.49203131,4.96535414 1.01765631,4.81788816 0.6028125,4.57194495 C0.602343692,4.58544178 0.602343692,4.59943865 0.602343692,4.61293548 C0.602343692,6.20306854 1.663125,7.52976238 3.07125,7.83119279 C2.81296881,7.90617549 2.54109381,7.94616633 2.2603125,7.94616633 C2.06203131,7.94616633 1.869375,7.925671 1.68140631,7.8876798 C2.0728125,9.19137889 3.20953119,10.14016 4.55625,10.1666539 C3.50296881,11.0469507 2.1759375,11.5713297 0.7340625,11.5713297 C0.485625,11.5713297 0.2409375,11.5563331 0,11.5253403 C1.36171869,12.4566254 2.979375,13 4.71703119,13 C10.378125,13 13.4732812,7.99915409 13.4732812,3.66265475 C13.4732812,3.52018763 13.4704687,3.37872033 13.464375,3.23775282 C14.0657813,2.77535948 14.5875,2.19699303 15,1.53914481" id="Fill-4"></path>
            </g>
        </g>
    </g>
</svg>