<?xml version="1.0" encoding="UTF-8"?>
<svg width="16px" height="11px" viewBox="0 0 16 11" version="1.1" xmlns="http://www.w3.org/2000/svg" xmlns:xlink="http://www.w3.org/1999/xlink">
    <!-- Generator: Sketch 52.3 (67297) - http://www.bohemiancoding.com/sketch -->
    <title>youtube-logo</title>
    <desc>Created with Sketch.</desc>
    <g id="Page-1" stroke="none" stroke-width="1" fill="none" fill-rule="evenodd">
        <g id="medical-land" transform="translate(-1290.000000, -468.000000)" fill="#05746F" fill-rule="nonzero">
            <g id="youtube-logo" transform="translate(1290.000000, 468.000000)">
                <path d="M15.9910247,4.21094267 C15.9852079,3.90160624 15.9597518,3.51048844 15.9152506,3.03795047 C15.8704992,2.56514161 15.8064836,2.14259953 15.7232353,1.77029416 C15.6279782,1.35211657 15.4211084,0.99973731 15.1027196,0.713276782 C14.7843307,0.426756054 14.4137475,0.260664934 13.9910012,0.214762621 C12.6694734,0.0716377069 10.6724834,0 7.99996873,0 C5.32742277,0 3.3304015,0.0716377069 2.00896749,0.214762621 C1.58628373,0.260634834 1.21717035,0.426756054 0.901783725,0.713276782 C0.586272003,0.999647011 0.380903238,1.35202627 0.285646156,1.77029416 C0.196456005,2.14271993 0.129407028,2.56523191 0.0847806796,3.03795047 C0.0402168772,3.51048844 0.0148858737,3.90145574 0.00897530618,4.21094267 C0.00293964732,4.52030921 0,4.94995485 0,5.5 C0,6.04998495 0.00293964732,6.47975099 0.00900657902,6.78905733 C0.0149171465,7.09860446 0.04024815,7.48951156 0.0848119525,7.96201943 C0.129438301,8.43479819 0.193453812,8.85734027 0.276795941,9.22970584 C0.372053023,9.64800383 0.578860339,10.0003229 0.897311708,10.286663 C1.21582562,10.5731235 1.58644009,10.7392448 2.00899876,10.785117 C3.33043278,10.9283924 5.32732895,11 8,11 C10.6727649,11 12.6695047,10.9283924 13.9910325,10.785117 C14.4137788,10.7392749 14.7827358,10.5731235 15.0982475,10.286663 C15.4137593,10.0002928 15.6190029,9.64779313 15.71426,9.22970584 C15.8035127,8.85734027 15.8704992,8.43479819 15.9152506,7.96201943 C15.9597518,7.48954166 15.9850203,7.09842386 15.9910247,6.78905733 C15.9969978,6.47975099 16,6.04998495 16,5.5 C16,4.94995485 15.9970291,4.52030921 15.9910247,4.21094267 Z M11.1607463,5.9640799 L6.58937583,8.71397455 C6.50600243,8.77125462 6.40470969,8.7998796 6.28571652,8.7998796 C6.1964951,8.7998796 6.10424021,8.77688329 6.0090144,8.73107128 C5.81262094,8.6280695 5.71445548,8.46757696 5.71445548,8.24992475 L5.71445548,2.75010535 C5.71445548,2.53251334 5.81265221,2.3720208 6.0090144,2.26892872 C6.21144352,2.16565604 6.40483478,2.17143522 6.58937583,2.28611575 L11.1607776,5.0360405 C11.339283,5.1332631 11.4285357,5.28803667 11.4285357,5.5000301 C11.4285357,5.71193323 11.3392517,5.866767 11.1607463,5.9640799 Z" id="Shape"></path>
            </g>
        </g>
    </g>
</svg>