<svg xmlns="http://www.w3.org/2000/svg" width="157px" viewBox="0 0 110.6 31.89"><defs><style>.cls-1{fill:#019f4b;}</style></defs><title>project</title><g id="Layer_2" data-name="Layer 2"><g id="icons"><path class="cls-1" d="M50.3,18.07v5.61H48.56V8.85h4.08A5.38,5.38,0,0,1,56.32,10a4.14,4.14,0,0,1,1.31,3.27,4.49,4.49,0,0,1-1.45,3.45,5.55,5.55,0,0,1-3.92,1.34Zm0-7.65V16.5h1.82a4.07,4.07,0,0,0,2.75-.82,2.91,2.91,0,0,0,.95-2.32q0-2.94-3.48-2.94Z"/><path class="cls-1" d="M65.72,14.81a2.07,2.07,0,0,0-1.28-.34,2.17,2.17,0,0,0-1.82,1,4.73,4.73,0,0,0-.73,2.79v5.4H60.2V13.09h1.7v2.18h0A3.7,3.7,0,0,1,63,13.53a2.52,2.52,0,0,1,1.67-.63,2.77,2.77,0,0,1,1,.15Z"/><path class="cls-1" d="M71.71,23.93A4.91,4.91,0,0,1,68,22.44a5.5,5.5,0,0,1-1.4-3.94A5.73,5.73,0,0,1,68,14.34,5.24,5.24,0,0,1,72,12.84a4.75,4.75,0,0,1,3.7,1.46,5.78,5.78,0,0,1,1.33,4,5.69,5.69,0,0,1-1.43,4.06A5,5,0,0,1,71.71,23.93Zm.12-9.66a3.23,3.23,0,0,0-2.59,1.11,4.57,4.57,0,0,0-1,3.07,4.32,4.32,0,0,0,1,3,3.27,3.27,0,0,0,2.58,1.09,3.1,3.1,0,0,0,2.53-1.07,4.63,4.63,0,0,0,.88-3,4.71,4.71,0,0,0-.88-3.06A3.09,3.09,0,0,0,71.83,14.27Z"/><path class="cls-1" d="M81.39,23.24a6.64,6.64,0,0,1-1,4,3.52,3.52,0,0,1-3,1.41,3.19,3.19,0,0,1-1.41-.33V26.75a2.81,2.81,0,0,0,1.45.47q2.32,0,2.32-3.7V13.09h1.7ZM80.56,10.4a1.07,1.07,0,0,1-.78-.31,1,1,0,0,1-.32-.79,1.09,1.09,0,0,1,1.1-1.11,1.09,1.09,0,0,1,.79.32,1.1,1.1,0,0,1,0,1.57A1.08,1.08,0,0,1,80.56,10.4Z"/><path class="cls-1" d="M93.34,18.81H85.86a4,4,0,0,0,1,2.73,3.28,3.28,0,0,0,2.5,1,5.2,5.2,0,0,0,3.29-1.18v1.59a6.14,6.14,0,0,1-3.69,1,4.48,4.48,0,0,1-3.53-1.44,5.91,5.91,0,0,1-1.28-4.06,5.79,5.79,0,0,1,1.4-4A4.5,4.5,0,0,1,89,12.84a4,4,0,0,1,3.22,1.34,5.61,5.61,0,0,1,1.14,3.73ZM91.6,17.37a3.45,3.45,0,0,0-.71-2.29A2.41,2.41,0,0,0,89,14.27a2.74,2.74,0,0,0-2,.86,3.89,3.89,0,0,0-1,2.24Z"/><path class="cls-1" d="M103.12,23.19a5.51,5.51,0,0,1-2.9.73,4.8,4.8,0,0,1-3.66-1.47,5.35,5.35,0,0,1-1.39-3.82,5.87,5.87,0,0,1,1.5-4.2,5.24,5.24,0,0,1,4-1.59,5.58,5.58,0,0,1,2.46.52v1.74a4.32,4.32,0,0,0-2.52-.83A3.41,3.41,0,0,0,98,15.43a4.41,4.41,0,0,0-1,3.06,4.21,4.21,0,0,0,1,2.94,3.37,3.37,0,0,0,2.62,1.08,4.25,4.25,0,0,0,2.61-.92Z"/><path class="cls-1" d="M110.6,23.58a3.27,3.27,0,0,1-1.58.33q-2.78,0-2.78-3.1V14.54h-1.82V13.09h1.82V10.5l1.7-.55v3.13h2.67v1.45h-2.67v6a2.48,2.48,0,0,0,.36,1.52,1.45,1.45,0,0,0,1.2.46,1.78,1.78,0,0,0,1.11-.35Z"/><path class="cls-1" d="M0,3.1,19.49,0V31.89L0,28.8ZM8.85,17.68l1,0a4,4,0,0,0,3.07-1.5,4.08,4.08,0,0,0-.29-4.69c-1.4-1.34-3.86-.64-5.79-.54V21.15l1,.05,1,.06Zm0-5,.81,0c.41.12.92.07,1.22.36.69.67.38,2.5-.51,2.81a2.57,2.57,0,0,1-.72.1H8.85ZM33.67,3.54V28.35H20.38V22.11l3.1,3.1,4.39-4.39-4.39-4.38-3.1,3.1V9.75h7.09v5.32H24.81l3.55,3.54,3.54-3.54H29.24V8H20.38V3.54Z"/></g></g></svg>
