<svg xmlns="http://www.w3.org/2000/svg" viewBox="0 0 79.76 35.14"><defs><style>.cls-1{fill:#fff;}</style></defs><title>skype</title><g id="Layer_2" data-name="Layer 2"><g id="icons"><g id="g2993"><g id="g2995"><g id="g2997"><path id="path3003" class="cls-1" d="M62.5,15.5h7.33a3.57,3.57,0,0,0-3.52-3.32c-2.09,0-3.35,1.29-3.81,3.32M51.27,21.71c2.66,0,3.32-2.7,3.32-4.64,0-2.46-1.09-4.52-3.32-4.55-2.44,0-3.35,2.17-3.35,4.55,0,2.15.8,4.64,3.35,4.64M79.76,11A4.38,4.38,0,0,0,72.2,8,11.46,11.46,0,0,0,59.08,8a4.69,4.69,0,0,0-5.69-.54,10,10,0,0,0-17-.78,8.31,8.31,0,0,0-10.2-1.36,5.39,5.39,0,0,0-10.78,0V5.6a12,12,0,0,0-1.77-.14A11.68,11.68,0,0,0,8.75,6.53a5.93,5.93,0,0,0-6.81,9.61c0,.36,0,.72,0,1.08a11.77,11.77,0,0,0,18.55,9.61,9.47,9.47,0,0,0,7.65,3.9h.23a6.6,6.6,0,0,0,12.49-.1,6,6,0,0,0,11.1-1.52,9.62,9.62,0,0,0,1.26.09,9.07,9.07,0,0,0,6.07-2.33,11.46,11.46,0,0,0,17.89-9.49,11.22,11.22,0,0,0-.23-2.28A4.38,4.38,0,0,0,79.76,11m-6,5.11c0,1.43-.43,1.8-1.84,1.8H62.5a3.61,3.61,0,0,0,3.86,3.81c3.15,0,3.15-2.06,4.84-2.06a1.73,1.73,0,0,1,1.72,1.63c0,2.52-4,3.69-6.56,3.69-4.75,0-7.1-2.62-7.81-5.55C57.92,22.5,55.91,25,52.33,25a4.47,4.47,0,0,1-4.12-2.12h-.06v5.58a2.09,2.09,0,1,1-4.18,0V12.86l-4.7,13.32c-1,2.86-2.15,4.35-4.78,4.35-1.86,0-2.64-.91-2.64-1.92s.8-1.69,1.92-1.69h.43c.54,0,1.14,0,1.46-1.31L31.31,13.2c-.15-.45-.27-.79-.36-1.07a4.58,4.58,0,0,1-.34.38l-3.09,3.24,4.35,5.84a2.28,2.28,0,0,1,.43,1.34,2,2,0,0,1-2,2,2.15,2.15,0,0,1-1.89-1l-4-5.59L23,19.7v3.18A1.91,1.91,0,0,1,20.94,25a1.91,1.91,0,0,1-2.09-2.09V21.34C18.1,23.81,15.31,25,12.61,25c-3.78,0-6.93-1.69-6.93-3.75a1.6,1.6,0,0,1,1.69-1.74c1.81,0,2,2.58,5.07,2.58,1.49,0,2.43-.66,2.43-1.52,0-1.06-.92-1.23-2.4-1.61L10,18.33c-2.43-.6-4.32-1.61-4.32-4.42,0-3.4,3.38-4.67,6.27-4.67,3.18,0,6.39,1.27,6.39,3.18a1.74,1.74,0,0,1-1.75,1.83c-1.63,0-1.69-1.92-4.32-1.92-1.46,0-2.41.4-2.41,1.29s.95,1.2,2.24,1.49l1.74.4c2,.45,4.34,1.25,5,3.24V5.7a1.91,1.91,0,0,1,2.09-2.09A1.91,1.91,0,0,1,23,5.7v9.51l4.64-5.15a2.24,2.24,0,0,1,1.6-.8A2.11,2.11,0,0,1,31,10.33a2,2,0,0,1,1.8-1.08A2.09,2.09,0,0,1,35,10.83l2.7,9.77h.06l2.55-9.48c.29-1.06.86-1.87,2-1.87a2,2,0,0,1,1.86,1,1.63,1.63,0,0,1,1.71-1,1.74,1.74,0,0,1,1.89,2v.66h.06a4.38,4.38,0,0,1,4.4-2.63c3,0,5.65,1.87,6.37,5.79.81-3.54,3.53-5.79,7.64-5.79,4.81,0,7.56,3.41,7.56,6.85m1.3-6.55h.82s0,0,.63,1.81l.58-1.81h.81v2.63h-.54s0,0,0-1.87l-.65,1.87h-.45s0,0-.65-1.85v1.85h-.55V9.55ZM72.62,10V9.55h2.16V10H74v2.15h-.58V10Z"/></g></g></g></g></g></svg>