<svg xmlns="http://www.w3.org/2000/svg" viewBox="0 0 114.22 24.97"><defs><style>.cls-1{fill:#fff;}</style></defs><title>exchange</title><g id="Layer_2" data-name="Layer 2"><g id="icons"><path class="cls-1" d="M14.46,24.88,0,22.3V2.58L14.46,0Zm-8-12H9.2v-2l-.51,0-2,0c-.21,0-.32,0-.31-.3,0-.51,0-1,0-1.53a1.15,1.15,0,0,1,.06-.57H9.79V6.3l-5.56.38V17.07l5.46.62v-2.2l-3.26-.27Z"/><path class="cls-1" d="M15.8,20V18.18c.68.07,1-.43,1.36-.87a18.61,18.61,0,0,0,2.41-3.62c-.06-.12-.13-.21-.23-.23l-1.71,1.67q-.63.62-1.25,1.26a.53.53,0,0,1-.56.17V12.93l1.17.64c.27.14.28.14.48-.15L16,11.95a.52.52,0,0,1-.21-.39c0-1,0-2,0-3.1.3,0,.59-.12.85.1s.41.38.63.59a4.76,4.76,0,0,0,.56-.74c.09-.13,0-.22-.07-.31L16.6,7c-.23-.21-.53-.06-.79-.16V5.08c.12-.11.26-.07.38-.07h8.35c.94,0,1.34.41,1.34,1.34q0,6.09,0,12.18c0,1.08-.37,1.45-1.45,1.45H15.8Zm6.66-3.38H21.21a4.27,4.27,0,0,1-1.7-.71l-.5.65c-.14.16-.09.29.06.42.35.32.7.64,1,1a.73.73,0,0,0,.54.23h2.84c.44,0,.54-.12.54-.55,0-.86,0-1.73,0-2.59a1,1,0,0,0-.38-.87,21.53,21.53,0,0,0-3.82-2.68c-.23-.12-.4-.14-.53.21a3.31,3.31,0,0,1,.31.24l2.6,2.57c.11.11.24.2.25.37C22.46,15.41,22.45,16,22.45,16.6Zm-.68-5.16.66.48c.16.12.27.08.39-.06l1-1.11a.57.57,0,0,0,.14-.42q0-1.49,0-3c0-.31-.13-.46-.45-.46H20.7a.69.69,0,0,0-.53.24,19.61,19.61,0,0,0-2.85,4c-.12.23-.07.37.11.43.88-.85,1.76-1.65,2.57-2.51a1.76,1.76,0,0,1,1.51-.62c.95.05.92,0,1,1,0,.75,0,1.47-.67,1.95C21.79,11.36,21.79,11.38,21.78,11.44Z"/><path class="cls-1" d="M101.16,10.66V9.33h1.68c.09.12,0,.26,0,.4q0,4.6,0,9.2a8.83,8.83,0,0,1-.37,2.8,4.26,4.26,0,0,1-3.12,3,8.31,8.31,0,0,1-5.29-.33.41.41,0,0,1-.31-.47c0-.44,0-.89,0-1.39a11.75,11.75,0,0,0,1.85.76,5.82,5.82,0,0,0,2.84.1,3.08,3.08,0,0,0,2.43-2.23,9.51,9.51,0,0,0,.23-3,4.66,4.66,0,0,1-1.39,1.45,4.26,4.26,0,0,1-6.15-1.91,7,7,0,0,1,.56-6.78,4.5,4.5,0,0,1,5.75-1.4A4.87,4.87,0,0,1,101.16,10.66Zm0,3.75c0-.33,0-.66,0-1a3,3,0,0,0-2.07-2.77,2.93,2.93,0,0,0-3.45,1.14,5.43,5.43,0,0,0-.22,5.48,2.55,2.55,0,0,0,1.36,1.24A3.16,3.16,0,0,0,101.08,16,9.1,9.1,0,0,0,101.15,14.41Z"/><path class="cls-1" d="M34.09,18.34h6.08v1.59H32.32V5.06h7.53V6.62H34.1v4.95h5.32v1.59H34.09Z"/><path class="cls-1" d="M69.59,19.94H67.87c0-.15,0-.28,0-.41q0-2.89,0-5.79A5.23,5.23,0,0,0,67.6,12a2.37,2.37,0,0,0-3.41-1.21,3.21,3.21,0,0,0-1.72,3.08c0,1.88,0,3.76,0,5.65v.42H60.75V4.21h1.71V11l.54-.67a4.1,4.1,0,0,1,4.93-.86,3.26,3.26,0,0,1,1.52,2.33,7.34,7.34,0,0,1,.15,1.55c0,2,0,4.1,0,6.14Z"/><path class="cls-1" d="M106.74,15c0,2.25,1.22,3.77,3.61,3.7a5.12,5.12,0,0,0,2.88-1c.06,0,.12-.12.25-.1,0,.48,0,1,0,1.44,0,.14-.12.19-.22.26a5.41,5.41,0,0,1-2.43.81,6.11,6.11,0,0,1-3.07-.31,4.23,4.23,0,0,1-2.5-2.91,7,7,0,0,1,.59-5.65,4.69,4.69,0,0,1,6.58-1.51,4.51,4.51,0,0,1,1.73,3.14,14.82,14.82,0,0,1,.07,2.13Zm5.7-1.49a2.63,2.63,0,0,0-.07-.9,2.5,2.5,0,0,0-1.43-1.94,3.11,3.11,0,0,0-4.14,2.84C107.09,13.6,112.08,13.6,112.44,13.55Z"/><path class="cls-1" d="M72.43,10a6.94,6.94,0,0,1,2.69-.92,5.23,5.23,0,0,1,2,0A3.11,3.11,0,0,1,79.7,12a10.66,10.66,0,0,1,.07,1.27q0,3.16,0,6.32v.37H78.06V18.38c-.17.05-.2.18-.25.27a3.83,3.83,0,0,1-5.84.42,3.3,3.3,0,0,1-.55-2.73,3.23,3.23,0,0,1,3-2.61c1.14-.21,2.29-.34,3.44-.51l.16,0c.14-1.55-.62-2.69-2.08-2.69a5.53,5.53,0,0,0-3.38,1.17c-.12-.1-.08-.24-.08-.36C72.44,10.88,72.44,10.45,72.43,10ZM78,14.58c-.54.07-1,.13-1.55.21a11.19,11.19,0,0,0-2.32.47,1.62,1.62,0,0,0-1.05,1.61,1.62,1.62,0,0,0,.9,1.61,2.77,2.77,0,0,0,3.24-.65A4.11,4.11,0,0,0,78,14.58Z"/><path class="cls-1" d="M84.09,9.39v1.55l.07,0,.25-.35a4,4,0,0,1,5.13-1.12,3.54,3.54,0,0,1,1.58,2.57,5.6,5.6,0,0,1,.1,1.09q0,3.23,0,6.46c0,.09,0,.18,0,.3H89.55a.86.86,0,0,1,0-.44c0-2.07,0-4.14,0-6.21a3.16,3.16,0,0,0-.66-2,2.53,2.53,0,0,0-3.12-.42,3.24,3.24,0,0,0-1.59,2.94c0,1.92,0,3.83,0,5.75a.74.74,0,0,1,0,.4H82.44c-.08-.07-.05-.17-.05-.26q0-5.06,0-10.12c0-.06,0-.12,0-.18Z"/><path class="cls-1" d="M41.13,9.3h1.8c.19,0,.22.16.28.28l2.21,3.92.16.26,1.14-1.91,1.4-2.34c.06-.1.11-.2.26-.2h1.66c0,.18-.08.27-.15.37-1,1.56-2.06,3.12-3.11,4.66a.54.54,0,0,0,0,.73c1.06,1.54,2.09,3.1,3.12,4.65,0,.06.06.12.12.24H48.23c-.2,0-.24-.17-.32-.3l-2.38-3.94a3.19,3.19,0,0,0-.47.69q-1,1.64-2,3.3a.4.4,0,0,1-.38.25c-.56,0-1.11,0-1.68,0,0-.17.11-.26.18-.37,1.06-1.54,2.12-3.08,3.2-4.6a.4.4,0,0,0,0-.53q-1.54-2.38-3.06-4.78A.61.61,0,0,1,41.13,9.3Z"/><path class="cls-1" d="M58.74,17.86c0,.52,0,1,0,1.48,0,.17-.14.21-.24.27a5.69,5.69,0,0,1-2.81.61A5,5,0,0,1,50.76,15a6.31,6.31,0,0,1,.88-3.6A5.31,5.31,0,0,1,57,9.06a5.4,5.4,0,0,1,1.51.37.38.38,0,0,1,.29.42c0,.47,0,.94,0,1.46a9.41,9.41,0,0,0-1.17-.57,3.7,3.7,0,0,0-5,3.24,4.79,4.79,0,0,0,.67,3.34,3.5,3.5,0,0,0,3.71,1.34,3.72,3.72,0,0,0,.94-.31Z"/><path class="cls-1" d="M72.43,10c0,.43,0,.87,0,1.3,0,.12,0,.26.08.36l-.07.12A5.44,5.44,0,0,1,72.43,10Z"/><path class="cls-1" d="M84.09,9.39H82.4c0-.13.12-.08.19-.08h1.3C84,9.3,84.07,9.26,84.09,9.39Z"/></g></g></svg>