<svg xmlns="http://www.w3.org/2000/svg" viewBox="0 0 88.47 28.3"><defs><style>.cls-1{fill:#fff;}</style></defs><title>office_365</title><g id="Layer_2" data-name="Layer 2"><g id="icons"><path class="cls-1" d="M39.68,23.06a7.39,7.39,0,0,1-5.74-2.36,8.75,8.75,0,0,1-2.16-6.14A9.28,9.28,0,0,1,34,8.07a7.67,7.67,0,0,1,6-2.42A7.23,7.23,0,0,1,45.58,8a8.79,8.79,0,0,1,2.13,6.14,9.31,9.31,0,0,1-2.18,6.52A7.53,7.53,0,0,1,39.68,23.06Zm.14-15.62a5.43,5.43,0,0,0-4.31,1.91,7.41,7.41,0,0,0-1.66,5,7.46,7.46,0,0,0,1.61,5,5.27,5.27,0,0,0,4.21,1.9,5.53,5.53,0,0,0,4.37-1.81,7.4,7.4,0,0,0,1.6-5.06A7.73,7.73,0,0,0,44.1,9.26,5.32,5.32,0,0,0,39.82,7.44Z"/><path class="cls-1" d="M61.38,6.34a2.57,2.57,0,0,1,1.28.32V4.92a3.77,3.77,0,0,0-1.4-.21,3.69,3.69,0,0,0-2.73,1.1,4.05,4.05,0,0,0-1.09,3v2H52.62V8.89q0-2.55,2-2.55a2.56,2.56,0,0,1,1.28.32V4.92a3.77,3.77,0,0,0-1.4-.21,3.69,3.69,0,0,0-2.73,1.1,4.05,4.05,0,0,0-1.09,3v2H48.65v1.64h2.06V22.78h1.91V12.39h4.82V22.78h1.91V12.39h2.82V10.75H59.36V8.89Q59.36,6.34,61.38,6.34Z"/><path class="cls-1" d="M65,7.69a1.22,1.22,0,0,1-.88-.35,1.19,1.19,0,0,1-.36-.89A1.23,1.23,0,0,1,65,5.19a1.24,1.24,0,0,1,.9.36,1.26,1.26,0,0,1,0,1.78A1.23,1.23,0,0,1,65,7.69Zm.94,15.08H64v-12H65.9Z"/><path class="cls-1" d="M76.68,22.23a6.26,6.26,0,0,1-3.29.83,5.45,5.45,0,0,1-4.15-1.67A6.07,6.07,0,0,1,67.66,17a6.67,6.67,0,0,1,1.7-4.78,6,6,0,0,1,4.55-1.8,6.33,6.33,0,0,1,2.8.59v2a4.9,4.9,0,0,0-2.87-.94,3.87,3.87,0,0,0-3,1.32,5,5,0,0,0-1.18,3.47,4.78,4.78,0,0,0,1.11,3.34,3.83,3.83,0,0,0,3,1.22,4.83,4.83,0,0,0,3-1Z"/><path class="cls-1" d="M88.47,17.25H80a4.5,4.5,0,0,0,1.08,3.1,3.73,3.73,0,0,0,2.84,1.09,5.91,5.91,0,0,0,3.74-1.34v1.81a7,7,0,0,1-4.19,1.15,5.08,5.08,0,0,1-4-1.64A6.71,6.71,0,0,1,78,16.81a6.58,6.58,0,0,1,1.59-4.58,5.11,5.11,0,0,1,4-1.77A4.52,4.52,0,0,1,87.18,12a6.37,6.37,0,0,1,1.29,4.24Zm-2-1.63a3.92,3.92,0,0,0-.8-2.6,2.74,2.74,0,0,0-2.2-.93,3.11,3.11,0,0,0-2.31,1A4.42,4.42,0,0,0,80,15.61Z"/><polygon class="cls-1" points="15.22 0 0 5.88 0 22.85 0.01 22.85 5.45 20.58 5.45 7.21 15.32 4.93 15.32 24.85 0.03 22.86 15.22 28.3 23.66 25.57 23.66 2.84 15.22 0"/></g></g></svg>