<svg xmlns="http://www.w3.org/2000/svg" viewBox="0 0 200.44 27.91"><defs><style>.cls-1{fill:#fff;}</style></defs><title>azure</title><g id="Layer_2" data-name="Layer 2"><g id="icons"><g id="Livello_1"><g id="g3000"><path id="path13" class="cls-1" d="M0,3.84,11.45,2.27v11H0ZM11.45,14.73V25.64L0,24.07V14.73H11.45ZM12.71,2.09,27.94,0V13.31H12.71ZM27.94,14.73V27.91L12.71,25.82V14.73Z"/><g id="flowRoot2989"><path id="path3031" class="cls-1" d="M53.8,22.21H51.15V12q0-1.26.16-3.08h0a10.72,10.72,0,0,1-.44,1.49L46,22.21H44.19L39.38,10.48A10.86,10.86,0,0,1,39,8.9h0Q39,9.85,39,12V22.21H36.53V6.4h3.76l4.23,10.53a15.4,15.4,0,0,1,.63,1.81h.06q.41-1.25.67-1.85L50.18,6.4H53.8Z"/><path id="path3033" class="cls-1" d="M58.76,8.55a1.58,1.58,0,0,1-1.09-.41,1.33,1.33,0,0,1-.45-1,1.37,1.37,0,0,1,.45-1,1.56,1.56,0,0,1,1.09-.42,1.61,1.61,0,0,1,1.12.42,1.36,1.36,0,0,1,.46,1,1.34,1.34,0,0,1-.46,1A1.59,1.59,0,0,1,58.76,8.55Zm1.29,13.66h-2.6V10.92h2.6Z"/><path id="path3035" class="cls-1" d="M71.68,21.69a6.5,6.5,0,0,1-3.26.78,5.58,5.58,0,0,1-4.13-1.57,5.51,5.51,0,0,1-1.57-4.07,6.07,6.07,0,0,1,1.69-4.48,6.09,6.09,0,0,1,4.51-1.69,6.67,6.67,0,0,1,2.77.54v2.38a4.24,4.24,0,0,0-2.56-.88,3.58,3.58,0,0,0-2.7,1.1,4,4,0,0,0-1.05,2.87,3.79,3.79,0,0,0,1,2.77,3.56,3.56,0,0,0,2.66,1,4.2,4.2,0,0,0,2.65-1Z"/><path id="path3037" class="cls-1" d="M80.92,13.35A2.18,2.18,0,0,0,79.57,13a2.33,2.33,0,0,0-1.93,1,4.53,4.53,0,0,0-.77,2.79v5.4h-2.6V10.92h2.6v2.33h0a3.92,3.92,0,0,1,1.17-1.86,2.67,2.67,0,0,1,1.77-.67,2.24,2.24,0,0,1,1.08.21Z"/><path id="path3039" class="cls-1" d="M87.87,22.47a5.75,5.75,0,0,1-4.24-1.58A5.66,5.66,0,0,1,82,16.69a5.89,5.89,0,0,1,1.65-4.44,6.14,6.14,0,0,1,4.46-1.6,5.56,5.56,0,0,1,4.19,1.55,5.94,5.94,0,0,1,1.5,4.31,5.86,5.86,0,0,1-1.62,4.33,5.87,5.87,0,0,1-4.35,1.63ZM88,12.69a3,3,0,0,0-2.41,1,4.33,4.33,0,0,0-.89,2.89,4.08,4.08,0,0,0,.9,2.79,3,3,0,0,0,2.4,1,2.88,2.88,0,0,0,2.36-1,4.39,4.39,0,0,0,.82-2.86,4.45,4.45,0,0,0-.82-2.88,2.87,2.87,0,0,0-2.36-1Z"/><path id="path3041" class="cls-1" d="M95.79,21.85V19.48A5.25,5.25,0,0,0,99,20.57q2.35,0,2.35-1.37a1.07,1.07,0,0,0-.2-.66,1.89,1.89,0,0,0-.54-.48,4.45,4.45,0,0,0-.81-.37l-1-.37a11,11,0,0,1-1.27-.58,3.83,3.83,0,0,1-.94-.7,2.62,2.62,0,0,1-.57-.89A3.21,3.21,0,0,1,95.8,14a2.64,2.64,0,0,1,.39-1.44,3.37,3.37,0,0,1,1.05-1,5.09,5.09,0,0,1,1.5-.64,7,7,0,0,1,1.74-.21,8,8,0,0,1,2.85.47v2.24a4.86,4.86,0,0,0-2.78-.82,3.75,3.75,0,0,0-.89.1,2.32,2.32,0,0,0-.68.28,1.37,1.37,0,0,0-.44.42,1,1,0,0,0-.16.55,1.15,1.15,0,0,0,.16.62A1.41,1.41,0,0,0,99,15a4,4,0,0,0,.74.35l1,.35a14.56,14.56,0,0,1,1.33.61,4.49,4.49,0,0,1,1,.7,2.73,2.73,0,0,1,.64.9,3,3,0,0,1,.22,1.22,2.74,2.74,0,0,1-.4,1.5,3.33,3.33,0,0,1-1.08,1.06,5.06,5.06,0,0,1-1.55.62,8.17,8.17,0,0,1-1.86.2A7.9,7.9,0,0,1,95.79,21.85Z"/><path id="path3043" class="cls-1" d="M111.5,22.47a5.74,5.74,0,0,1-4.24-1.58,5.66,5.66,0,0,1-1.59-4.19,5.89,5.89,0,0,1,1.65-4.44,6.14,6.14,0,0,1,4.46-1.6A5.56,5.56,0,0,1,116,12.21a5.94,5.94,0,0,1,1.5,4.31,5.86,5.86,0,0,1-1.62,4.33,5.87,5.87,0,0,1-4.36,1.63Zm.12-9.78a3,3,0,0,0-2.41,1,4.33,4.33,0,0,0-.89,2.89,4.08,4.08,0,0,0,.9,2.79,3,3,0,0,0,2.4,1,2.88,2.88,0,0,0,2.36-1,4.39,4.39,0,0,0,.82-2.86A4.45,4.45,0,0,0,114,13.7,2.87,2.87,0,0,0,111.63,12.69Z"/><path id="path3045" class="cls-1" d="M126.63,7.58a2.4,2.4,0,0,0-1.2-.3q-1.9,0-1.89,2.11v1.53h2.67v2h-2.66v9.28h-2.6V12.92h-2v-2h2V9.09a3.53,3.53,0,0,1,1.19-2.82,4.37,4.37,0,0,1,3-1,4.47,4.47,0,0,1,1.52.21Z"/><path id="path3047" class="cls-1" d="M134.13,22.08a4.58,4.58,0,0,1-2,.37q-3.34,0-3.34-3.15V12.92h-1.92v-2h1.92V8.31l2.6-.73v3.34h2.75v2h-2.75v5.64a2.19,2.19,0,0,0,.37,1.43,1.55,1.55,0,0,0,1.23.43,1.8,1.8,0,0,0,1.14-.37v2Z"/><path id="path3049" class="cls-1" d="M156.19,22.21h-2.93l-1.45-4h-6.32l-1.39,4h-2.92l6-15.81h3ZM151.11,16l-2.23-6.31a7.28,7.28,0,0,1-.21-1h0a6.35,6.35,0,0,1-.22,1L146.19,16Z"/><path id="path3051" class="cls-1" d="M166.59,12l-6.2,8.22h6.18v2h-9.82v-1l6.33-8.33h-5.73v-2h9.24Z"/><path id="path3053" class="cls-1" d="M178.8,22.21h-2.6V20.42h0a3.75,3.75,0,0,1-3.52,2.05q-4.07,0-4.07-4.81V10.92h2.6V17.4q0,3,2.39,3a2.43,2.43,0,0,0,1.9-.84,3.17,3.17,0,0,0,.75-2.19V10.92h2.6Z"/><path id="path3055" class="cls-1" d="M188.85,13.35A2.18,2.18,0,0,0,187.5,13a2.33,2.33,0,0,0-1.93,1,4.53,4.53,0,0,0-.77,2.79v5.4h-2.6V10.92h2.6v2.33h0A3.92,3.92,0,0,1,186,11.39a2.67,2.67,0,0,1,1.77-.67,2.23,2.23,0,0,1,1.08.21Z"/><path id="path3057" class="cls-1" d="M200.43,17.26h-7.82a3.22,3.22,0,0,0,1,2.41,3.69,3.69,0,0,0,2.57.85,5.74,5.74,0,0,0,3.37-1.08V21.5a7.81,7.81,0,0,1-4.15,1,5.18,5.18,0,0,1-4-1.54A6.08,6.08,0,0,1,190,16.61a6,6,0,0,1,1.59-4.29,5.23,5.23,0,0,1,3.94-1.66,4.56,4.56,0,0,1,3.64,1.49,6.11,6.11,0,0,1,1.29,4.13Zm-2.51-1.81a3.28,3.28,0,0,0-.66-2.14,2.23,2.23,0,0,0-1.79-.77,2.55,2.55,0,0,0-1.9.8,3.65,3.65,0,0,0-1,2.11h5.31Z"/></g></g></g></g></g></svg>