<svg xmlns="http://www.w3.org/2000/svg" viewBox="0 0 82.59 32.77"><defs><style>.cls-1{fill:#fff;}</style></defs><title>Lync</title><g id="Layer_2" data-name="Layer 2"><g id="icons"><path class="cls-1" d="M54.76,24.22H47.34V9.94H49V22.71h5.74Z"/><path class="cls-1" d="M63.5,14,58.81,25.86Q57.55,29,55.28,29a3.74,3.74,0,0,1-1.07-.13V27.43a3,3,0,0,0,1,.18A2,2,0,0,0,57,26.14l.82-1.93L53.87,14h1.81l2.76,7.85q0,.15.21.78h.06q0-.24.2-.76L61.81,14Z"/><path class="cls-1" d="M73.16,24.22H71.52V18.41q0-3.25-2.37-3.25a2.57,2.57,0,0,0-2,.92,3.42,3.42,0,0,0-.8,2.33v5.82H64.69V14h1.63v1.69h0a3.68,3.68,0,0,1,3.35-1.93,3.12,3.12,0,0,1,2.56,1.08A4.81,4.81,0,0,1,73.16,18Z"/><path class="cls-1" d="M82.57,23.76a5.31,5.31,0,0,1-2.79.71A4.62,4.62,0,0,1,76.25,23a5.14,5.14,0,0,1-1.34-3.68,5.66,5.66,0,0,1,1.44-4,5.05,5.05,0,0,1,3.86-1.53,5.37,5.37,0,0,1,2.37.5V16a4.15,4.15,0,0,0-2.43-.8,3.28,3.28,0,0,0-2.57,1.12,4.25,4.25,0,0,0-1,2.94,4,4,0,0,0,.94,2.83,3.24,3.24,0,0,0,2.53,1,4.09,4.09,0,0,0,2.51-.89Z"/><path class="cls-1" d="M0,3.55V29.22l19.58,3.55V0Zm14.06,19.8-8.16-.47V8.82l2.86-.24V20.31l5.3.24Z"/><path class="cls-1" d="M35.84,16.13a7,7,0,0,0-6.64-7.07H28.06l3.45,4.47,0,.06a3.9,3.9,0,0,1-3,6.44H24.13l1.81,2.34.64.82h0l2.22,2.88A1.72,1.72,0,1,0,31.52,24l-.77-1A7.2,7.2,0,0,0,35.84,16.13Z"/><path class="cls-1" d="M21.93,18.73l0-.06a3.92,3.92,0,0,1-.47-.69v4.49a6,6,0,0,0,2.84.74h1.13Z"/><path class="cls-1" d="M24.85,12.23h4.46L27.5,9.89l-.64-.82h0L24.64,6.18a1.72,1.72,0,1,0-2.72,2.1l.77,1a6.41,6.41,0,0,0-1.28.52v4.49A3.9,3.9,0,0,1,24.85,12.23Z"/></g></g></svg>