<?xml version="1.0" encoding="utf-8"?>
<!-- Generator: Adobe Illustrator 20.0.0, SVG Export Plug-In . SVG Version: 6.00 Build 0)  -->
<svg version="1.1" id="Layer_1" xmlns="http://www.w3.org/2000/svg" xmlns:xlink="http://www.w3.org/1999/xlink" x="0px" y="0px"
	 viewBox="0 0 131.3 37.7" style="enable-background:new 0 0 131.3 37.7;" xml:space="preserve">
<style type="text/css">
	.st0{fill:#FFFFFF;}
</style>
<g>
	<g>
		<g>
			<g>
				<g>
					<g>
						<path class="st0" d="M26.8,32.6C16.1,33.6,5,32,3.4,23.7C2.7,19.5,4.5,15.2,7,12.5V11C2.5,15,0.1,19.9,1.5,25.8
							c1.8,7.5,11.3,11.8,25.9,10.4c5.8-0.6,13.3-2.4,18.6-5.3v-4.1C41.2,29.6,33.4,32,26.8,32.6z M54.9,10.9
							c-2.5-12.4-26.6-13.2-42-3.7v1c15.5-8,37.4-7.9,39.4,3.5c0.7,3.8-1.5,7.7-5.2,10v3C51.6,23,56.3,17.6,54.9,10.9z"/>
						<path class="st0" d="M45.1,9.1h-2.8v12.5c0,1.5,0.7,2.7,2.8,2.9V9.1z"/>
						<path class="st0" d="M11.8,13.7H9l0,8.2c0,1.5,0.7,2.7,2.8,2.9V13.7z"/>
						<rect x="9" y="9.5" class="st0" width="2.8" height="2.7"/>
						<path class="st0" d="M28.6,24.6c-2.3,0-3.2-1.6-3.2-3.1V10.7h2.8v3h2.1v2.2h-2.1v5.4c0,0.6,0.3,1,1,1h1.1v2.3H28.6"/>
						<path class="st0" d="M33.7,20c0,1.4,0.9,2.5,2.5,2.5c1.2,0,1.8-0.3,2.6-1l1.7,1.6c-1.1,1.1-2.3,1.7-4.3,1.7
							c-2.7,0-5.2-1.5-5.2-5.7c0-3.6,2.2-5.7,5.1-5.7c3,0,4.7,2.4,4.7,5.5v1H33.7 M35.9,15.8c-1,0-1.7,0.5-2,1.2
							c-0.2,0.4-0.2,0.7-0.3,1.2H38C37.9,16.9,37.4,15.8,35.9,15.8z"/>
						<path class="st0" d="M19.3,15.9c0.8,0,1.2,0.4,1.2,1.1v7.7h2.8V17c0-1.6-0.8-3.3-3.3-3.3l-5.7,0v11H17v-8.7H19.3z"/>
						<g>
							<path class="st0" d="M48.2,11.4c-0.6,0-1.1-0.5-1.1-1.1c0-0.6,0.5-1.1,1.1-1.1c0.6,0,1.1,0.5,1.1,1.1
								C49.3,10.9,48.8,11.4,48.2,11.4z M48.2,9.3c-0.5,0-0.9,0.4-0.9,0.9c0,0.5,0.4,0.9,0.9,0.9c0.5,0,0.9-0.4,0.9-0.9
								C49.1,9.7,48.7,9.3,48.2,9.3z M48.7,10.9h-0.2c0,0,0,0,0,0l-0.3-0.5c0,0,0,0,0,0c0,0,0,0-0.1,0c0,0,0,0,0,0v0.5
								c0,0,0,0.1,0,0.1h-0.2c0,0,0,0,0-0.1V9.7c0-0.1,0-0.1,0.1-0.1c0.1,0,0.2,0,0.3,0c0.3,0,0.5,0.1,0.5,0.4v0
								c0,0.2-0.1,0.3-0.2,0.4L48.7,10.9C48.7,10.8,48.7,10.9,48.7,10.9C48.7,10.9,48.7,10.9,48.7,10.9z M48.4,9.9
								c0-0.1-0.1-0.2-0.3-0.2c0,0-0.1,0-0.1,0c0,0,0,0,0,0v0.4c0,0,0.2,0,0.2,0C48.3,10.2,48.4,10.1,48.4,9.9L48.4,9.9z"/>
						</g>
					</g>
				</g>
				<g>
					<path class="st0" d="M63.2,14.2c-0.9,0-1.6,0.2-2.1,0.5c-0.5,0.4-0.7,0.9-0.7,1.5c0,0.4,0.1,0.8,0.4,1.1
						c0.3,0.3,0.7,0.6,1.4,0.8l2.2,0.6c0.8,0.2,1.4,0.6,1.8,1c0.4,0.4,0.6,1,0.6,1.7c0,0.5-0.1,0.9-0.3,1.3c-0.2,0.4-0.4,0.7-0.8,1
						c-0.3,0.3-0.7,0.5-1.2,0.6c-0.5,0.1-1,0.2-1.6,0.2c-0.8,0-1.5-0.1-2.2-0.4c-0.7-0.2-1.2-0.6-1.6-1l0.5-0.7
						c0.4,0.4,0.9,0.7,1.5,0.9c0.5,0.2,1.1,0.3,1.8,0.3c0.9,0,1.6-0.2,2.1-0.6c0.5-0.4,0.8-0.9,0.8-1.6c0-0.5-0.1-0.9-0.4-1.3
						C65,20,64.6,19.7,64,19.6L61.8,19c-0.8-0.2-1.3-0.5-1.8-1c-0.4-0.5-0.6-1-0.6-1.8c0-0.4,0.1-0.8,0.3-1.2
						c0.2-0.4,0.4-0.7,0.7-0.9c0.3-0.3,0.7-0.5,1.2-0.6c0.5-0.1,1-0.2,1.6-0.2c0.6,0,1.2,0.1,1.8,0.2c0.6,0.2,1.1,0.4,1.5,0.7
						L66,14.9c-0.4-0.2-0.8-0.4-1.3-0.6C64.3,14.2,63.8,14.2,63.2,14.2z"/>
					<path class="st0" d="M69.2,20.6c0,1,0.3,1.8,0.8,2.3c0.5,0.6,1.2,0.8,2.2,0.8c0.4,0,0.8,0,1.1-0.1c0.4-0.1,0.7-0.3,1-0.5
						l0.4,0.7c-0.3,0.2-0.6,0.4-1,0.6c-0.4,0.2-0.9,0.3-1.5,0.3c-0.6,0-1.2-0.1-1.7-0.3c-0.5-0.2-0.9-0.5-1.2-0.8
						c-0.3-0.4-0.6-0.8-0.7-1.3c-0.2-0.5-0.3-1.1-0.3-1.7c0-0.6,0.1-1.2,0.3-1.7c0.2-0.5,0.4-0.9,0.7-1.3c0.3-0.4,0.7-0.6,1.1-0.8
						c0.4-0.2,1-0.3,1.5-0.3c0.5,0,1,0.1,1.4,0.3c0.4,0.2,0.7,0.4,1,0.7c0.3,0.3,0.4,0.7,0.6,1.1c0.1,0.4,0.2,0.8,0.2,1.3
						c0,0.3,0,0.6-0.1,0.9H69.2z M71.9,17.2c-0.8,0-1.4,0.2-1.9,0.7c-0.5,0.5-0.8,1.1-0.8,1.9h4.9v-0.3c0-0.8-0.2-1.3-0.5-1.8
						C73.2,17.4,72.6,17.2,71.9,17.2z"/>
					<path class="st0" d="M80.2,24.6c-0.5,0-1-0.1-1.4-0.2c-0.5-0.1-0.9-0.4-1.2-0.7c-0.4-0.3-0.6-0.7-0.8-1.3
						c-0.2-0.5-0.3-1.1-0.3-1.9c0-0.6,0.1-1.2,0.3-1.7c0.2-0.5,0.4-1,0.8-1.3c0.3-0.4,0.7-0.6,1.2-0.8c0.5-0.2,1-0.3,1.6-0.3
						c0.4,0,0.9,0.1,1.3,0.2c0.4,0.1,0.7,0.3,1,0.5l-0.4,0.7c-0.2-0.1-0.4-0.3-0.7-0.4c-0.3-0.1-0.7-0.2-1.1-0.2
						c-1,0-1.7,0.3-2.2,0.9c-0.5,0.6-0.8,1.4-0.8,2.5c0,0.6,0.1,1.1,0.2,1.5c0.1,0.4,0.3,0.7,0.6,1c0.3,0.3,0.6,0.5,0.9,0.6
						c0.4,0.1,0.7,0.2,1.2,0.2c0.4,0,0.8,0,1.1-0.1c0.3-0.1,0.6-0.2,0.8-0.4l0.4,0.7c-0.3,0.2-0.6,0.4-1,0.5
						C81.1,24.5,80.7,24.6,80.2,24.6z"/>
					<path class="st0" d="M89.7,23.1c-0.2,0.5-0.6,0.8-1,1.1c-0.4,0.3-1,0.4-1.7,0.4c-0.9,0-1.6-0.3-2.1-0.8
						c-0.5-0.5-0.7-1.3-0.7-2.4v-4.9h0.9v4.7c0,0.8,0.2,1.5,0.5,1.9c0.3,0.4,0.8,0.6,1.5,0.6c0.8,0,1.4-0.3,1.9-0.8
						c0.4-0.6,0.7-1.4,0.7-2.5v-3.9h0.9v7.8h-0.5c-0.3,0-0.4-0.1-0.4-0.4V23.1z"/>
					<path class="st0" d="M92.8,16.6h0.5c0.3,0,0.4,0.1,0.4,0.4v1c0.2-0.5,0.6-0.9,1-1.2c0.5-0.3,1-0.4,1.6-0.4c0.1,0,0.3,0,0.4,0
						c0.1,0,0.2,0,0.3,0v0.8h-0.5c-0.9,0-1.6,0.3-2.1,0.9c-0.5,0.6-0.7,1.5-0.7,2.6v3.6h-0.9V16.6z"/>
					<path class="st0" d="M98.5,13.5h1.1v1.2h-1.1V13.5z M99.5,16.6v7.8h-0.9v-7.8H99.5z"/>
					<path class="st0" d="M103.4,17.3v4.7c0,0.6,0.1,1,0.4,1.2c0.2,0.2,0.7,0.3,1.3,0.3h0.4v0.8c-0.2,0-0.4,0-0.7,0
						c-0.8,0-1.4-0.2-1.8-0.6c-0.4-0.4-0.5-1-0.5-1.8v-4.7h-1.4v-0.8h1.4v-2h0.9v2h2.1v0.8H103.4z"/>
					<path class="st0" d="M107.6,27c0.2,0,0.4,0,0.6-0.1c0.2,0,0.3-0.1,0.4-0.2c0.1-0.1,0.2-0.2,0.3-0.4c0.1-0.2,0.2-0.4,0.3-0.6
						l0.5-1.2l-3.3-7.9h1l2.7,6.8l2.7-6.8h1l-3.7,9.1c-0.2,0.4-0.3,0.7-0.4,1c-0.1,0.3-0.3,0.5-0.5,0.7c-0.2,0.2-0.4,0.3-0.6,0.4
						c-0.2,0.1-0.5,0.1-0.8,0.1c-0.1,0-0.2,0-0.3,0c-0.1,0-0.2,0-0.3,0V27H107.6z"/>
				</g>
			</g>
		</g>
		<g>
			<path class="st0" d="M124.1,15.5c-2.6,0-4.3-0.2-4.5-0.2c0,0.3,0,0.6,0,0.9c0,6,3.9,7.9,4.6,8.2c0.6-0.3,4.6-2.2,4.6-8.2
				c0-0.3,0-0.6,0-0.9C128.4,15.3,126.6,15.5,124.1,15.5z M123.4,21.2l-0.7-3l-0.5,3H121l0.9-5.3h1.4l1.7,5.3H123.4z M125.9,21.2
				l-0.4-3l-0.5,2.3l-0.7-2.3l0.8-2.3h1.4l0.8,5.3H125.9z"/>
			<path class="st0" d="M130.2,14c-0.5-0.1-3.3-0.8-6.2-0.8c-2.8,0-5.6,0.6-6.2,0.8c0,0.2-0.1,0.7-0.1,1.2c0,2.7,0.7,8.2,6.2,10.8
				c5.5-2.6,6.2-8.2,6.2-10.8C130.3,14.6,130.3,14.2,130.2,14z M124.1,24.9c-0.8-0.4-5.1-2.5-5.1-9.1c0-0.3,0-0.7,0-1
				c0.1,0,2.2,0.3,5.1,0.3c2.9,0,4.9-0.2,5.1-0.3c0,0.4,0,0.7,0,1C129.2,22.4,124.9,24.5,124.1,24.9z"/>
		</g>
	</g>
</g>
</svg>
