<?xml version="1.0" encoding="utf-8"?>
<!-- Generator: Adobe Illustrator 20.0.0, SVG Export Plug-In . SVG Version: 6.00 Build 0)  -->
<svg version="1.1" id="Layer_1" xmlns="http://www.w3.org/2000/svg" xmlns:xlink="http://www.w3.org/1999/xlink" x="0px" y="0px"
	 viewBox="0 0 374 120.6" style="enable-background:new 0 0 374 120.6;" xml:space="preserve">
<style type="text/css">
	.st0{fill:#FFFFFF;}
</style>
<title>Artboard 1</title>
<polygon class="st0" points="80.3,62 72,53.5 72,77.4 80.3,77.4 "/>
<path class="st0" d="M46.4,36.3h20.7l-8.4-8.4h-11c7.7-0.7,13.4-7.5,12.6-15.2C59.7,5.5,53.7,0,46.4,0v27.9L23.1,4.8
	c-1.3,0.7-2.4,1.3-3.5,2c-1.3,0.9-2.4,1.8-3.7,2.6l22,22v48.2l16.9,16.9V84.5l-8.6-8.6L46.4,36.3z"/>
<polygon class="st0" points="54.8,36.3 54.8,77.4 63.4,77.4 63.4,44.9 "/>
<polygon class="st0" points="84,53.5 75.5,44.9 63.4,44.9 72,53.5 "/>
<path class="st0" d="M29.3,71.5V35L9.7,15.4c-1.9,2.2-3.5,4.7-4.8,7.3l15.8,15.8v12.1L1.5,31.5C0.7,34.9,0.2,38.4,0,42
	C0.2,42,28.4,70.6,29.3,71.5"/>
<polygon class="st0" points="0.5,54.1 0.5,66.2 54.8,120.6 54.8,108.7 "/>
<path class="st0" d="M97.5,66.9h-8.6v10.8h-8.6c0,7.8,6.3,14.1,14.1,14.1s14.1-6.3,14.1-14.1L97.5,66.9z"/>
<polygon class="st0" points="167.2,77.7 160.4,89.8 120.6,89.8 146.3,40.3 123.4,40.3 129.8,28.2 169.6,28.2 143.9,77.7 "/>
<polygon class="st0" points="189.9,52.8 210.1,52.8 210.1,64.9 189.9,64.9 189.9,77.7 210.1,77.7 210.1,89.8 174.7,89.8 174.7,28.2 
	210.1,28.2 210.1,40.3 189.9,40.3 "/>
<path class="st0" d="M231.9,79.2h5.5c6.4,0,9-2.2,9-7c0.2-2.6-1.1-5-3.3-6.4c-1.8-0.9-3.1-1.1-7.7-1.1h-3.5L231.9,79.2z M231.9,53.7
	h3.7c6.8,0,9.7-2.2,9.7-7.3s-2.9-7-9.9-7h-3.5V53.7z M238.1,28.2c7.9,0,12.3,0.9,15.8,2.9c4.2,2.6,6.8,7.9,6.8,13.9
	c0.2,4-1.3,7.9-4.2,10.8c-1.7,1.8-3.9,3-6.4,3.5c3.7,0.9,5.5,1.8,7.5,3.5c2.9,2.6,4.2,6.2,4.2,10.8c0,5.7-2.4,10.8-6.4,13.4
	c-3.1,2-6.8,2.9-13,2.9h-25.3V27.9L238.1,28.2z"/>
<path class="st0" d="M287.8,57.4c6.2,0,9.9-3.1,9.9-8.6c0-5.1-3.5-8.6-8.8-8.6h-5.7v17.2H287.8z M282.9,89.8h-15V27.9h20
	c8.1,0,14.1,1.5,18.3,4.6c4.2,3.3,6.6,8.8,6.6,15.6c0,9.5-4,15.6-11.9,18.7l13.6,22.7h-18l-13.4-24L282.9,89.8z"/>
<path class="st0" d="M337.9,65.8l6.2-20l6.2,20H337.9z M354,28.2h-19.1L314.4,90h15.8l3.7-12.1h20l3.7,12.1H374L354,28.2z"/>
</svg>
