<?xml version="1.0" encoding="utf-8"?>
<!-- Generator: Adobe Illustrator 20.0.0, SVG Export Plug-In . SVG Version: 6.00 Build 0)  -->
<svg version="1.1" id="Layer_1" xmlns="http://www.w3.org/2000/svg" xmlns:xlink="http://www.w3.org/1999/xlink" x="0px" y="0px"
	 viewBox="0 0 373.4 62.4" style="enable-background:new 0 0 373.4 62.4;" xml:space="preserve">
<style type="text/css">
	.st0{fill:#FFFFFF;}
</style>
<title>Artboard 2</title>
<path class="st0" d="M128.9,24.4v-5.9H120c-11,0-14.1-0.7-14.1,10.7V62h6.7V24.4H128.9z"/>
<path class="st0" d="M139.7,18.4v6.3c16.1,0,18.9,0.7,18.9,9.1h-12.1c-9.2,0-14.5,1.7-14.5,14.3c0,2.1,0.2,4.1,0.7,6.1l0,0
	c1.8,6.4,6.8,7.6,13.4,7.6c4.7,0,10.1-0.2,12.2-5.4v5.5h6.8V33C165.3,18.1,154.7,18.4,139.7,18.4z M155.8,54.1
	c-2,1.5-5.1,1.6-8.1,1.6c-3.4,0-5.7-0.1-7.1-1.6l0,0c-1.1-1.2-1.7-3.3-1.7-7c0-6.9,2.5-7.5,8.8-7.4c4.7,0,10.6,0,10.6,0v8
	C158.3,51,157.3,53,155.8,54.1L155.8,54.1L155.8,54.1z"/>
<path class="st0" d="M202.2,2.6v15.8h-13c-14.4,0-15.8,9-15.8,21.8c0,5.5,0.3,10.3,1.7,14l0,0c1.9,4.9,5.9,7.8,14.1,7.8
	c11.7,0,13-6.1,13-6.1v6.1h6.7V2.6H202.2z M198.6,54.2c-1.6,1.1-3.9,1.5-7,1.5s-5.7-0.3-7.4-1.5l0,0c-2.5-1.8-3.4-5.7-3.4-13.8
	c0-13.8,2-15.4,10.8-15.4c6,0,10.6-0.1,10.6,0c0,2.5,0,11.5,0,15.4C202.2,48.1,201.5,52.2,198.6,54.2L198.6,54.2L198.6,54.2z"/>
<polygon class="st0" points="269.1,18.4 262.7,18.4 255.6,48.9 245.4,18.4 239.9,18.4 229.9,48.9 222.3,18.4 215.4,18.4 226.1,61.9 
	232.3,61.9 242.4,29.1 252.6,61.9 258.8,61.9 "/>
<path class="st0" d="M278.5,18.4v6.3c16.1,0,18.9,0.7,18.9,9.1h-12c-9.2,0-14.5,1.7-14.5,14.3c0,2.1,0.2,4.1,0.7,6.1l0,0
	c1.8,6.4,6.8,7.6,13.4,7.6c4.7,0,10.1-0.2,12.2-5.4v5.5h6.8V33C304.1,18.1,293.5,18.4,278.5,18.4z M294.6,54.1
	c-2,1.5-5.1,1.6-8.1,1.6c-3.4,0-5.7-0.1-7.1-1.6l0,0c-1.1-1.2-1.7-3.3-1.7-7c0-6.9,2.5-7.5,8.8-7.4c4.7,0,10.6,0,10.6,0v8
	C297.1,51,296.1,53,294.6,54.1L294.6,54.1L294.6,54.1z"/>
<path class="st0" d="M334.2,24.4v-5.9h-8.9c-11,0-14.1-0.7-14.1,10.7V62h6.7V24.4H334.2z"/>
<path class="st0" d="M355.8,17.7c-17.6,0-23.3,23.5-14.8,36.5l0,0c3.3,5,8.8,8.5,16.5,8.2c5.2-0.1,10.3-1.4,15.1-3.6v-7
	c-1.7,1-3.5,1.8-5.3,2.4l0,0c-5,1.6-11.9,2.7-16.9,0l0,0c-3.7-2-6.3-6-6.3-13.3h29.2C373.2,40.9,376.6,17.7,355.8,17.7z M344.1,34.6
	c0.5-3.7,3-11,12.1-11s10.4,7.1,10.6,11H344.1z"/>
<path class="st0" d="M32.3,44.4c4.9,1,8.1,5.8,7.1,10.7s-5.8,8.1-10.7,7.1s-8.1-5.8-7.1-10.7c0.7-3.6,3.5-6.4,7.1-7.1H32.3z
	 M54.4,44.4c4.9,1,8.1,5.8,7.1,10.7s-5.8,8.1-10.7,7.1c-4.9-1-8.1-5.8-7.1-10.7c0.7-3.6,3.5-6.4,7.1-7.1H54.4z M30.6,46.8
	c3.6,0,6.5,2.9,6.5,6.5c0,3.6-2.9,6.5-6.5,6.5c-3.6,0-6.5-2.9-6.5-6.5l0,0C24.1,49.7,27,46.8,30.6,46.8z"/>
<path class="st0" d="M28.8,44.4c0.6-0.1,1.2-0.2,1.8-0.2c0.6,0,1.2,0.1,1.8,0.2L28.8,44.4z M50.8,44.4c0.6-0.1,1.2-0.2,1.8-0.2
	c0.6,0,1.2,0.1,1.8,0.2L50.8,44.4z M43.5,9.1c0-5,4.1-9.1,9.1-9.1s9.1,4.1,9.1,9.1s-4.1,9.1-9.1,9.1l0,0
	C47.6,18.2,43.5,14.1,43.5,9.1z M9.1,2.6c3.6,0,6.5,2.9,6.5,6.5c0,3.6-2.9,6.5-6.5,6.5c-3.6,0-6.5-2.9-6.5-6.5l0,0
	C2.6,5.5,5.5,2.6,9.1,2.6z M0,9.1C0,4.1,4.1,0,9.1,0s9.1,4.1,9.1,9.1c0,5-4.1,9.1-9.1,9.1c0,0,0,0,0,0C4.1,18.2,0,14.1,0,9.1z
	 M30.6,2.6c3.6,0,6.5,2.9,6.5,6.5c0,3.6-2.9,6.5-6.5,6.5c-3.6,0-6.5-2.9-6.5-6.5l0,0C24.2,5.5,27.1,2.6,30.6,2.6z M21.6,9.1
	c0-5,4.1-9.1,9.1-9.1s9.1,4.1,9.1,9.1c0,5-4.1,9.1-9.1,9.1c0,0,0,0,0,0C25.6,18.2,21.6,14.1,21.6,9.1z M74.6,24.7
	c3.6,0,6.5,2.9,6.5,6.5c0,3.6-2.9,6.5-6.5,6.5c-3.6,0-6.5-2.9-6.5-6.5c0,0,0,0,0,0C68.1,27.6,71,24.7,74.6,24.7z M65.5,31.2
	c0-5,4.1-9.1,9.1-9.1s9.1,4.1,9.1,9.1s-4.1,9.1-9.1,9.1l0,0C69.5,40.3,65.5,36.2,65.5,31.2z M43.5,31.2c0-5,4.1-9.1,9.1-9.1
	s9.1,4.1,9.1,9.1s-4.1,9.1-9.1,9.1l0,0C47.5,40.3,43.5,36.2,43.5,31.2z M65.5,9.1c0-5,4.1-9.1,9.1-9.1s9.1,4.1,9.1,9.1
	s-4.1,9.1-9.1,9.1l0,0C69.5,18.2,65.5,14.1,65.5,9.1z"/>
</svg>
