<?xml version="1.0" encoding="utf-8"?>
<!-- Generator: Adobe Illustrator 20.0.0, SVG Export Plug-In . SVG Version: 6.00 Build 0)  -->
<svg version="1.1" id="Layer_1" xmlns="http://www.w3.org/2000/svg" xmlns:xlink="http://www.w3.org/1999/xlink" x="0px" y="0px"
	 viewBox="0 0 187 34.5" style="enable-background:new 0 0 187 34.5;" xml:space="preserve">
<style type="text/css">
	.st0{fill:#FFFFFF;}
</style>
<title>Artboard 1</title>
<path class="st0" d="M170.3,0.8l-1.7,8.4l0,0c-1.4-0.4-2.9-0.6-4.3-0.5c-1,0-1.9,0.1-2.9,0.2c-2.2,0.5-4.2,1.5-6,2.9
	c-0.3,0.3-0.6,0.5-0.9,0.8l0,0l0.7-3.7l0,0c-0.2,0-1.2-0.2-1.7-0.3h-1.3c-2.3,0.2-4.3,1.4-5.6,3.2l0,0l0.6-2.7h-5.6l-4.4,21.2
	l-0.7,3.1h6l2.9-14.3l0,0c0.3-1.1,0.8-2.2,1.6-3.1c0.6-0.7,1.4-1.3,2.3-1.7c0.8-0.3,1.7-0.5,2.5-0.5h0.3c0.3,0,0.7,0,1,0
	c-0.4,0.5-0.7,0.9-1,1.4c-1.2,2-2.1,4.2-2.7,6.5c-0.6,2.1-0.6,4.4,0,6.5c0.4,1.7,1.3,3.2,2.7,4.2c1.2,1,2.7,1.5,4.3,1.4
	c1.6,0,3.1-0.4,4.5-1.1c0.1-0.1,0.2-0.2,0.4-0.2c1.4-0.8,2.7-1.8,3.7-3.1l0,0l-1.2,3.9h5.7l6.8-32.7H170.3z M165.9,22.4
	c-0.3,1.4-0.9,2.7-1.7,3.9c-0.6,1-1.5,1.8-2.5,2.4c-0.1,0.1-0.2,0.1-0.3,0.2c-0.7,0.4-1.5,0.6-2.3,0.6c-0.8,0-1.6-0.3-2.2-0.8
	c-0.7-0.6-1.2-1.5-1.4-2.4c-0.2-1.2-0.3-2.4-0.1-3.6c0-0.6,0.1-0.7,0.1-0.7c0.3-1.6,1-3.1,1.9-4.3c0.8-1.2,1.9-2.1,3.2-2.8
	c0.3-0.1,0.6-0.2,0.8-0.4c1-0.4,2-0.5,3-0.6c1,0,2.1,0.2,3.1,0.4l0,0L165.9,22.4L165.9,22.4z"/>
<path class="st0" d="M137.7,15.1c0.2-1.3,0-2.6-0.6-3.8c-0.3-0.6-0.7-1.1-1.1-1.5c-1.3-1.2-6.9-1.7-14.7-0.9l0,0l-1.7,5.2l0,0
	c3.5-1.4,6.4-1.1,8.8-1.1c0.3,0,0.6,0,0.9,0.1c0.3,0,0.5,0.1,0.8,0.1c0.5,0.2,0.9,0.5,1.2,1c0.3,0.5,0.4,1.1,0.2,1.6
	c-0.2,1.3-1.5,2.3-3.9,2.9c-2.8,0.7-4.8,1.2-6.1,1.6c-1.3,0.4-2.5,1-3.6,1.9c-0.6,0.4-1.2,1-1.7,1.5c-0.5,0.6-0.9,1.2-1.2,1.9
	c-0.2,0.6-0.4,1-0.5,1.5c-0.4,1.8-0.1,3.6,0.9,5.1c0.2,0.3,0.5,0.6,0.7,0.9c1.3,1,2.8,1.4,4.4,1.4c1.6-0.1,3.3-0.4,4.8-0.9l0,0
	l1.5-4.2l0,0c-1.2,0.6-2.5,0.9-3.9,0.9c-0.8,0-1.5-0.2-2.1-0.7c-0.6-0.6-0.8-1.4-0.6-2.2c0.3-1.1,1-2.1,2-2.7
	c1.3-0.8,2.7-1.4,4.2-1.8c1.4-0.4,2.8-0.9,4-1.7l0,0l-2.6,12.4h5.7l3.3-15.7L137.7,15.1L137.7,15.1z"/>
<path class="st0" d="M73.3,8.8l-1.7,5.2l0,0c3.5-1.4,6.4-1.1,8.8-1.1c0.3,0,0.6,0,0.9,0.1c0.3,0,0.5,0.1,0.8,0.1
	c0.5,0.2,0.9,0.5,1.2,1c0.3,0.5,0.4,1.1,0.2,1.6C83.3,17,82,18,79.6,18.5c-2.8,0.7-4.8,1.2-6.1,1.6c-1.3,0.4-2.5,1-3.6,1.9
	c-1.2,0.9-2.1,2-2.7,3.4c-0.1,0-0.1,0.1-0.1,0.1c-0.2,0.6-0.4,1-0.5,1.5c-0.3,1.6-0.1,3.2,0.6,4.6c0.1,0.2,0.2,0.4,0.3,0.6
	c1.1,1.5,2.7,2.2,5.1,2.2c1.6-0.1,3.3-0.4,4.8-0.9l0,0l1.5-4.2l0,0c-1.2,0.6-2.5,0.9-3.9,0.9c-0.8,0-1.5-0.2-2.1-0.7
	c-0.6-0.6-0.8-1.4-0.6-2.2c0.3-1.1,1-2.1,2-2.7c1.3-0.8,2.7-1.4,4.2-1.8c1.4-0.4,2.8-0.9,4-1.7l0,0l-2.5,12.4h5.7L89.6,15l0,0
	c0.3-1.9-0.3-3.9-1.7-5.3C86.7,8.5,81.1,8,73.3,8.8L73.3,8.8z"/>
<path class="st0" d="M99.7,27.4c-1.4-1.1-2.4-2.6-2.9-4.3c-0.5-1.8-0.5-3.7-0.1-5.6l0,0l0.1-0.2l0,0c0.4-2,1.2-4,2.4-5.7
	c1.2-1.8,2.7-3.3,4.6-4.3c1.8-1.1,3.9-1.7,6.1-1.6c2.2,0,4.3,0.5,6.3,1.4c0.2,0.1,0.3,0.1,0.5,0.2l0,0l1.3-5.5l0,0
	c-0.6-0.2-1.2-0.5-1.9-0.7c-1.7-0.7-3.5-1-5.3-1.1c-2.7,0-5.3,0.5-7.8,1.5c-2.7,1.1-5.2,2.7-7.2,4.8c-2.1,2.2-3.7,4.8-4.6,7.8
	c-0.1,0.3-0.2,0.7-0.3,1.2c-0.1,0.4-0.2,0.7-0.2,1.1c-0.7,2.9-0.8,6-0.2,8.9c0.5,2.5,2,4.8,4.1,6.3c2.6,1.6,5.6,2.4,8.6,2.3
	c2.6,0,5.3-0.3,7.8-0.9l0,0l1.9-5.8l0,0c-2.5,1-5.1,1.6-7.7,1.7C103.3,29.2,101.3,28.6,99.7,27.4L99.7,27.4z"/>
<path class="st0" d="M61.4,29c-1.6,0-2.4-1.2-2.2-3.5l0,0l2.3-11.3h5.4l0.3-1.4l0.7-3.6h-5.4l1.2-5.8l-6.4,2l-0.8,3.8h-3l-1.1,5h3
	L52.8,27l0,0c-0.9,4.7,0.5,7.1,4.5,7.1c1.9-0.1,3.8-0.4,5.6-0.9l0,0l1.6-5l0,0c-0.1,0-0.6,0.2-1.4,0.4C62.6,28.8,62,28.9,61.4,29
	L61.4,29z"/>
<path class="st0" d="M34.8,8.8l-1.6,5.2l0,0c3.5-1.4,6.4-1.1,8.8-1.1c0.3,0,0.6,0,0.9,0.1c0.3,0,0.5,0.1,0.8,0.1
	c0.5,0.1,1,0.5,1.2,1c0.3,0.5,0.4,1.1,0.2,1.6c-0.2,1.3-1.6,2.3-3.9,2.9c-2.8,0.7-4.8,1.2-6.1,1.6c-1.3,0.4-2.5,1-3.6,1.9
	c-0.7,0.5-1.3,1.1-1.8,1.8c-0.4,0.5-0.8,1.1-1.1,1.7c-0.2,0.6-0.4,1-0.5,1.5c-0.4,1.8-0.1,3.6,0.9,5.1c0.2,0.3,0.4,0.5,0.6,0.7
	c1.2,1.1,2.8,1.7,4.5,1.6c1.6-0.1,3.3-0.4,4.8-0.9l0,0l1.5-4.2l0,0c-1.2,0.6-2.5,0.9-3.9,0.9c-0.8,0-1.5-0.2-2.1-0.7
	c-0.6-0.6-0.8-1.4-0.6-2.2c0.3-1.1,1-2.1,2-2.7c1.3-0.8,2.8-1.4,4.2-1.8c1.4-0.4,2.8-0.9,4-1.7l0,0l-2.5,12.4h5.7l3.8-18.5l0,0
	c0.3-1.9-0.3-3.9-1.7-5.3C48.2,8.6,42.6,8.1,34.8,8.8L34.8,8.8z"/>
<path class="st0" d="M29.7,20.7c0.4-1.2,0.8-2.4,1.1-3.7l0,0l0.1-0.4l0,0c0.6-2.5,0.6-5.1,0.2-7.7c-0.3-1.3-0.7-2.6-1.4-3.7
	c-0.5-0.8-1.1-1.5-1.8-2.2c-1.8-1.5-4.1-2.3-6.5-2.2H6.8L0,33.6h14c2.1,0,4.1-0.6,6-1.5c1.9-0.9,3.6-2.2,5-3.7
	c1.5-1.6,2.7-3.3,3.7-5.3c0.4-0.8,0.8-1.5,1.1-2.4L29.7,20.7z M24.6,16.6c-0.3,1.5-0.8,2.9-1.5,4.3c-0.5,1-1,1.9-1.6,2.7l0,0
	c-0.2,0.3-0.5,0.7-0.8,1c-0.4,0.6-0.9,1.1-1.5,1.5h0.5h-0.5c-0.5,0.4-1,0.8-1.6,1.1c-1.1,0.6-2.3,1-3.5,1c-0.1,0.1-0.2,0.1-0.3,0.1
	C10,28.6,6.3,28.5,2.6,28c2.5-0.8,6.9-1.2,11.1-1.5c2-0.1,3.8-0.2,5.4-0.3l0,0c-1.7,0-3.6,0-5.5-0.1c-3.5-0.1-6.9-0.5-10.2-1.3
	c3.4-0.6,6.8-0.9,10.2-1c2.7-0.1,5.3-0.2,7.7-0.1l0,0c-2.7-0.1-5.2-0.2-7.7-0.4c-3.1-0.2-6.1-0.8-9.1-1.7c3-0.5,6.1-0.8,9.1-0.8
	c3.1-0.1,6.4,0,9.4,0.2c-3.5-0.3-6.5-0.4-9.4-0.8c-2.9-0.3-5.8-0.8-8.7-1.6c3.2-0.4,6-0.7,8.7-0.8c3.3-0.1,6.6-0.1,10.6,0.1
	c-4.2-0.4-7.4-0.6-10.6-1c-2.5-0.4-5-0.9-7.5-1.6c2.6-0.4,5.1-0.6,7.6-0.7c3.5-0.1,7-0.1,11.1,0.1c-3.8-0.2-7.4-0.6-11.1-1.2
	c-2.3-0.3-4.6-0.8-6.9-1.4c2.3-0.3,4.6-0.5,6.9-0.6c3.6-0.1,7,0,10.6,0.1c-3.5-0.2-7.1-0.5-10.6-1.1c-2.1-0.4-4.2-0.7-6.1-1.2
	c2-0.2,4.1-0.2,6.1-0.3c3.4-0.1,6.7-0.1,9.6-0.3c-3-0.2-6.4-0.6-9.6-1.1C11.9,7.1,10,6.8,8.3,6.5c-0.1-0.2,1.4-0.4,5.5-0.4
	c1.2,0,2.7,0,4.5,0.1c1.6-0.1,3.2,0.5,4.4,1.5c1.1,1,1.8,2.3,2,3.8C24.9,13.1,24.9,14.9,24.6,16.6L24.6,16.6z"/>
<path class="st0" d="M186.5,2c-0.4-0.6-0.9-1.1-1.5-1.5c-0.6-0.3-1.3-0.5-2-0.5c-0.7,0-1.3,0.2-1.9,0.5c-0.6,0.3-1.2,0.9-1.5,1.5
	c-0.4,0.6-0.6,1.3-0.6,2c0,0.7,0.2,1.4,0.5,2c0.3,0.6,0.9,1.2,1.5,1.5c0.6,0.4,1.3,0.6,2,0.6c0.7,0,1.4-0.2,2-0.6
	c0.6-0.3,1.1-0.8,1.4-1.5c0.4-0.6,0.6-1.3,0.6-2C187,3.3,186.8,2.6,186.5,2L186.5,2z M186,5.6c-0.3,0.5-0.7,1-1.2,1.2
	c-0.5,0.3-1.1,0.4-1.7,0.4c-0.6,0-1.1-0.1-1.6-0.4c-0.6-0.3-1-0.7-1.3-1.2c-0.3-0.5-0.4-1.1-0.4-1.7c0-0.6,0.1-1.2,0.4-1.7
	c0.3-0.5,0.7-0.9,1.2-1.2c0.5-0.3,1-0.4,1.6-0.4c0.6,0,1.2,0.1,1.7,0.4c0.5,0.3,0.9,0.7,1.2,1.2c0.3,0.5,0.4,1.1,0.4,1.7
	C186.4,4.6,186.2,5.1,186,5.6L186,5.6z"/>
<path class="st0" d="M183.8,4.5c-0.1-0.1-0.2-0.2-0.4-0.2c0.3,0,0.6-0.1,0.9-0.4c0.2-0.2,0.4-0.5,0.4-0.9c0-0.2-0.1-0.4-0.2-0.6
	c-0.1-0.2-0.3-0.3-0.5-0.4c-0.3-0.1-0.6-0.1-0.9-0.1h-1.7v4.3h0.7V4.4h0.4c0.2,0,0.4,0,0.6,0.1l0,0l0.1,0.1l0,0
	c0.3,0.3,0.5,0.6,0.7,0.9l0,0l0.4,0.7h0.8l-0.5-0.9l0,0C184.2,5,184,4.8,183.8,4.5L183.8,4.5z M182.9,3.8H182V2.5h1.1
	c0.1,0,0.3,0,0.4,0.1c0.1,0,0.2,0.1,0.3,0.2c0.1,0.1,0.1,0.2,0.1,0.3c0,0.2-0.1,0.4-0.2,0.5c-0.2,0.1-0.4,0.2-0.6,0.2L182.9,3.8z"/>
</svg>
