<?xml version="1.0" encoding="utf-8"?>
<!-- Generator: Adobe Illustrator 20.0.0, SVG Export Plug-In . SVG Version: 6.00 Build 0)  -->
<svg version="1.1" xmlns="http://www.w3.org/2000/svg" xmlns:xlink="http://www.w3.org/1999/xlink" x="0px" y="0px"
	 viewBox="0 0 232.8 70.8" style="enable-background:new 0 0 232.8 70.8;" xml:space="preserve">
<style type="text/css">
	.st0{fill:#FFFFFF;}
</style>
<g id="Layer_1">
	<title>Artboard 1</title>
	<path class="st0" d="M174,34.4c0,2.7,0,5.3,0,7.9c0,3.2,0,6.3,0,9.5c0,0.7-0.2,1.1-1,1c-2.5-0.1-5,0-7.4,0c-0.8,0-1-0.2-1-1
		c0-16.9,0-33.8,0-50.8c0-0.8,0.3-1,1-1c2.4,0,4.8,0.1,7.2,0c1,0,1.2,0.3,1.2,1.3c0,9.4,0,18.8,0,28.2c0,0.5-0.3,1.1,0.3,1.4
		s1-0.4,1.3-0.8c3.7-4.3,7.3-8.7,11-13c0.3-0.6,1-0.8,1.6-0.4c0,0,0.1,0,0.1,0.1c1.6,0.8,3.3,1.5,4.9,2.2c1,0.4,1.2,0.6,0.4,1.5
		c-3.5,3.7-6.9,7.6-10.4,11.3c-0.6,0.7-0.6,1.1,0,1.8c4.2,5.4,8.5,10.7,12.7,16.1c0.6,0.7,0.7,1-0.3,1.4c-2.2,0.7-4.5,1.5-6.7,2.4
		c-0.5,0.3-1.3,0.1-1.6-0.4c0,0,0-0.1-0.1-0.1c-4-5.8-8.1-11.6-12.2-17.4c-0.2-0.3-0.5-0.7-0.8-1L174,34.4z"/>
	<path class="st0" d="M109,48.2c-1,0.9-1.8,1.7-2.7,2.4c-4.8,3.6-10,4-15.4,1.8c-3.8-1.6-5.4-5-5.8-9c-0.3-3.6-0.3-7.2-0.2-10.8
		c0-4.9,0-9.8,0-14.8c0-0.9,0.3-1.1,1.2-1.1c2.4,0.1,4.7,0.1,7.1,0c0.9,0,1.1,0.3,1.1,1.1c0,7,0,14.1,0,21.1c0,0.5,0,1,0.1,1.4
		c0.5,4.4,2.7,6.6,6.7,6.6c4.4,0,7.4-2.6,7.9-7c0.2-1.8,0.2-3.5,0.2-5.3c0-5.6,0-11.2,0-16.8c0-1,0.3-1.3,1.3-1.2
		c2.4,0.1,4.7,0,7.1,0c0.8,0,1,0.2,1,1c0,11.3,0,22.7,0,34.1c0,0.7-0.2,1-0.9,1c-2.5,0-5,0-7.6,0c-0.7,0-0.9-0.2-0.9-0.9
		C109.1,50.8,109,49.6,109,48.2z"/>
	<path class="st0" d="M134.4,21.4c0.3-0.3,0.5-0.7,0.8-1c4-4.1,8.9-5.1,14.3-4c4.9,1,7.9,4.7,8.5,9.9c0.3,3.1,0.2,6.2,0.2,9.4
		c0,5.4,0,10.7,0,16.1c0,0.9-0.2,1.1-1.1,1.1c-2.4-0.1-4.8-0.1-7.2,0c-0.9,0-1.1-0.2-1.1-1.1c0-6.9,0-13.8,0-20.8
		c0.1-1.7-0.2-3.4-0.9-5s-2.2-2.8-4-3.1c-5.8-1.2-9.9,2.3-9.9,8.8c-0.1,6.7-0.1,13.4,0,20c0,1-0.2,1.3-1.2,1.3
		c-2.4-0.1-4.7-0.1-7.1,0c-0.8,0-1.1-0.1-1.1-1c0-11.3,0-22.6,0-33.8c0-0.7,0.1-1.1,1-1c2.5,0.1,5,0.1,7.4,0c0.8,0,1,0.3,1,1
		c-0.1,1.1,0,2.2,0,3.3L134.4,21.4z"/>
	<path class="st0" d="M14.1,16c3.2,0,6.3,0.9,9,2.4c0.7,0.4,0.8,0.7,0.4,1.3c-0.6,0.9-1.2,1.9-1.7,2.9c-0.4,0.7-0.7,0.9-1.4,0.4
		c-1.6-1.1-3.6-1.6-5.6-1.5c-1.6,0-3,0.9-3.6,2.4c-0.5,1.4-0.1,3,1.1,3.9c2.1,2.1,4.6,3.8,7,5.7c1.1,0.9,2.1,1.9,3.1,2.8
		c3.8,3.8,3.3,11.5-2.1,15s-14.8,3-19.8-1.4c-0.4-0.3-0.5-0.5-0.2-1C1,47.6,1.8,46.3,2.5,45c0.3-0.6,0.6-0.5,1-0.1
		c1,0.8,2,1.5,3.2,2.2c1.4,0.8,3,1.1,4.6,0.9c2.4-0.2,4.2-2.2,4.1-4.7c-0.1-0.9-0.4-1.7-0.9-2.3c-0.7-0.9-1.6-1.7-2.5-2.4
		c-2.5-2.1-5.4-3.8-7.6-6.2C0.9,28.6,1,22.7,4.7,19.2c0.7-0.6,1.4-1.2,2.2-1.6C9.1,16.5,11.6,15.9,14.1,16z"/>
	<path class="st0" d="M69.5,26.3c0-8.3,0-16.6,0-24.9c0-1,0.2-1.4,1.3-1.4c2.3,0.1,4.7,0.1,7.1,0c0.8,0,1,0.2,1,1
		c0,16.9,0,33.8,0,50.7c0,0.8-0.3,1-1,1c-2.4,0-4.7-0.1-7.1,0c-1,0-1.3-0.2-1.3-1.2C69.5,43.1,69.5,34.7,69.5,26.3z"/>
	<path class="st0" d="M204.4,48.6c-0.7-2.5,0.7-3.6,2.8-4.6c5.9-2.9,11.8-5.9,17.7-8.9c0.3-0.2,0.8-0.2,0.8-0.6s-0.5-0.5-0.8-0.6
		c-6.5-3.2-13-6.5-19.5-9.7c-0.7-0.2-1.1-0.9-1-1.6c0-1.4,0-2.8,0-4.2c0-1,0.2-1.2,1.2-0.7c4.8,2.5,9.5,4.9,14.3,7.3
		c3.9,2,7.7,4,11.6,6c0.8,0.3,1.3,1.1,1.2,2c-0.1,1.5,0.5,3.2-0.3,4.5s-2.5,1.5-3.8,2.1l-22.8,11.5c-1.3,0.7-1.4,0.7-1.4-0.8
		C204.4,49.8,204.4,49.1,204.4,48.6z"/>
	<g>
		<path class="st0" d="M206.1,8H206c-1.7,0.1-3,1.6-2.9,3.3c0,0.1,0,0.1,0,0.2c0.1,1.7,1.5,3,3.2,2.9c0.1,0,0.1,0,0.1,0.1
			c1.7-0.1,3-1.6,2.9-3.3c0-0.1,0-0.1,0-0.1C209.3,9.4,207.9,8,206.1,8z M207.7,13.1c-0.6,0.8-1.8,1-2.6,0.3c-1.1-0.7-1.6-2-1.1-3.2
			c0.3-1,1.3-1.7,2.3-1.7c1.1,0,2.1,0.8,2.3,1.9C208.8,11.4,208.8,12.5,207.7,13.1z"/>
		<path class="st0" d="M207.4,10.5c0.2-0.5-0.2-1.1-0.8-1.1c-0.6,0-1.3-0.3-1.5,0.4c-0.2,1-0.2,2.1,0,3.2c0.4-0.1,0.4-0.1,0.5-0.5
			c0.1-0.4,0-0.8,0.5-0.9c0.5-0.1,0.6,0.3,0.7,0.7c0,0.5,0.4,0.8,0.9,0.8c-0.1-0.1-0.3-0.1-0.4-0.2c0-0.1-0.1-0.3-0.1-0.4
			c0.1,0.2,0.3,0.5,0.5,0.6C207.5,12.3,207.1,11.5,207.4,10.5z M205.5,11.2c0-0.1-0.1-0.2-0.1-0.3c0-0.4-0.2-0.8,0.2-1
			c0.4-0.3,0.8-0.3,1.2-0.1c0.3,0.2,0.3,0.6,0.2,0.9c-0.1,0.4-0.2,0.8-0.1,1.2C206.7,11.4,206.3,11.1,205.5,11.2z"/>
		<path class="st0" d="M206.1,10c-0.3,0-0.3,0.3-0.3,0.5s0.1,0.4,0.4,0.4c0.1,0,0.1,0,0.1,0c0.3-0.1,0.4-0.3,0.4-0.6
			S206.4,9.9,206.1,10z"/>
	</g>
	<path class="st0" d="M64.8,27.8c-1.5-5.8-5.2-9.9-11.1-11.3c-5.9-1.4-11.1,0.1-15.1,4.9c-0.1,0.1-0.2,0.2-0.6,0.5
		c0-1.5-0.1-2.7,0-3.7c0.1-1.1-0.3-1.2-1.2-1.2c-2.2,0.1-4.5,0.1-6.7,0c-1-0.1-1.2,0.3-1.2,1.2c0,9.6,0,19.3,0,29
		c0,7.4,0,14.9,0,22.4c0,1,0.3,1.2,1.3,1.2c2.2-0.1,4.4-0.1,6.6,0c1,0.1,1.3-0.2,1.3-1.2c0-6.6,0-13.3,0-19.9c0-0.4-0.1-0.9,0.2-1.3
		l0.5,0.6c1.8,1.9,3.8,3.7,6.5,4.3c6.3,1.4,11.8-0.4,15.8-5.5C65.8,41.8,66.7,35,64.8,27.8z M53.8,43.1c-1.9,4-5.3,5.6-9.3,4.5
		c-2.1-0.6-3.9-2.1-4.9-4.1c-1.2-2.6-1.8-5.5-1.7-8.4c-0.1-3.1,0.6-6.2,2-8.9c1.7-3.1,4.2-4.7,7.8-4.4c3.3,0.2,5.3,2.3,6.6,5.1
		c0.5,1.2,0.9,2.5,1.1,3.8C56.1,34.9,55.6,39.2,53.8,43.1z"/>
</g>
<g id="Layer_2">
</g>
</svg>
