<svg xmlns="http://www.w3.org/2000/svg" viewBox="0 0 193.45 32.32"><defs><style>.cls-1,.cls-2{fill:#fff;}.cls-1{fill-rule:evenodd;}</style></defs><title>Check_point</title><g id="Layer_2" data-name="Layer 2"><g id="icons"><path class="cls-1" d="M59.9,6.64C59.33,3.75,57,2.29,54.18,2.29c-4.86,0-6.92,4-6.92,8.26,0,4.66,2.06,8.55,6.95,8.55,3.57,0,5.63-2.52,5.89-5.89h2.71c-.51,5.09-3.69,8.18-8.83,8.18-6.35,0-9.43-4.69-9.43-10.63S47.92,0,54.21,0c4.26,0,7.77,2.29,8.4,6.63Zm131.34-3.3h.24c.28,0,.51-.1.51-.36s-.13-.37-.51-.37l-.24,0Zm0,1.17h-.34V2.4a3.69,3.69,0,0,1,.6-.05,1.1,1.1,0,0,1,.65.16.51.51,0,0,1,.19.44.53.53,0,0,1-.41.51v0c.18,0,.31.2.35.51a1.78,1.78,0,0,0,.13.52h-.35a1.58,1.58,0,0,1-.14-.54.39.39,0,0,0-.45-.37h-.23Zm.35-2.69a1.55,1.55,0,0,0-1.51,1.59,1.52,1.52,0,1,0,3,0,1.55,1.55,0,0,0-1.51-1.6Zm0-.29a1.86,1.86,0,0,1,1.85,1.89,1.87,1.87,0,1,1-3.73,0,1.87,1.87,0,0,1,1.87-1.89Zm-3.83,4.6h2.94V8.27h-2.94v9.17c0,1.11.32,1.31,1.83,1.31h1.11V20.9h-1.86c-2.52,0-3.52-.51-3.52-3.23V8.27h-2.52V6.12h2.52V1.7h2.43Zm-18.55,0h2.29V8.47h.06a5.14,5.14,0,0,1,4.8-2.69c3.89,0,5.09,2.23,5.09,5.4V20.9H179v-10a2.78,2.78,0,0,0-3-3c-2.94,0-4.37,2-4.37,4.63V20.9h-2.43Zm-5.49,0h2.43V20.9h-2.43Zm2.43-2.66h-2.43v-3h2.43ZM154.27,19.1c2.54,0,4.6-2,4.6-5.57s-2.06-5.6-4.6-5.6-4.6,2-4.6,5.6S151.73,19.1,154.27,19.1Zm0-13.32c4.69,0,7.17,3.4,7.17,7.74s-2.49,7.72-7.17,7.72-7.18-3.4-7.18-7.72S149.58,5.78,154.27,5.78Zm-20.08,4.49h5.32C142.57,10.3,144,9,144,6.53s-1.4-3.74-4.46-3.74h-5.32ZM131.48.49h8.95c4.06,0,6.26,2.26,6.26,6s-2.2,6.06-6.26,6h-6.23V20.9h-2.71Zm-21.61,0h2.43V12.58L119,6.12h3.26l-5.86,5.37,6.29,9.4h-3.09l-5.06-7.72-2.29,2.12v5.6h-2.43Zm-4.74,10.37a3.44,3.44,0,0,0-3.66-2.94c-3.52,0-4.6,2.77-4.6,5.77,0,2.72,1.23,5.4,4.32,5.4a3.82,3.82,0,0,0,4.06-3.6h2.49c-.54,3.6-2.8,5.75-6.52,5.75-4.52,0-6.92-3.14-6.92-7.55s2.29-7.91,7-7.91c3.34,0,6,1.57,6.37,5.08ZM90.06,12.09A4.25,4.25,0,0,0,85.8,7.93a4.21,4.21,0,0,0-4.23,4.17Zm2.34,4.12a6,6,0,0,1-6.32,5c-4.72,0-6.95-3.26-7.09-7.78s2.92-7.68,6.95-7.68c5.23,0,6.83,4.88,6.69,8.46H81.57c-.09,2.57,1.37,4.86,4.6,4.86A3.56,3.56,0,0,0,90,16.21ZM65.07.49H67.5V8.3h.06c.8-1.77,2.89-2.52,4.66-2.52,3.89,0,5.09,2.23,5.09,5.4V20.9H74.88v-10a2.78,2.78,0,0,0-3-3c-2.94,0-4.37,2-4.37,4.63V20.9H65.07Z"/><path class="cls-1" d="M49.4,27.62a1.4,1.4,0,0,0-1.59-1.31c-.72,0-1.44.26-1.44,1.1s1,.91,2.06,1.14,2.05.59,2.05,1.85S49.14,32.32,48,32.32c-1.44,0-2.66-.7-2.66-2.27h.81c0,1.08.9,1.55,1.87,1.55.77,0,1.63-.24,1.63-1.17s-1-1-2.05-1.26-2.06-.52-2.06-1.7,1.16-1.88,2.33-1.88a2.07,2.07,0,0,1,2.37,2Zm142.42,4.54h1v-1h-1Zm-5.15-.72h1.42c.58,0,2.16-.16,2.16-2.53,0-1.53-.57-2.46-2.14-2.46h-1.44Zm-.85-5.71H188a2.73,2.73,0,0,1,3.08,3.06c0,2.15-.94,3.36-3.08,3.36h-2.2Zm-4,.72h-2.14v-.72h5.14v.72h-2.14v5.7h-.85Zm-6.09-.72h.85v5.71h3.4v.72h-4.26Zm-5,1.88a1.4,1.4,0,0,0-1.59-1.31c-.72,0-1.44.26-1.44,1.1s1,.91,2.06,1.14,2.05.59,2.05,1.85-1.34,1.92-2.51,1.92c-1.44,0-2.65-.7-2.65-2.27h.81c0,1.08.9,1.55,1.87,1.55.77,0,1.63-.24,1.63-1.17s-1-1-2.05-1.26-2.06-.52-2.06-1.7,1.16-1.88,2.33-1.88a2.07,2.07,0,0,1,2.37,2Zm-9.56-1.88h4.43v.72H162v2h3.34v.72H162v2.22h3.61v.72H161.1Zm-2.64,0h.85v6.42h-.85Zm-2.4,5.62a2.51,2.51,0,0,1-2.06,1,3.08,3.08,0,0,1-3.06-3.24c0-1.87,1-3.49,3.06-3.49a2.49,2.49,0,0,1,2.76,2.13h-.85A1.74,1.74,0,0,0,154,26.3c-1.56,0-2.21,1.35-2.21,2.73A2.31,2.31,0,0,0,154,31.6a1.93,1.93,0,0,0,2.06-2.1H154v-.72h2.82v3.38h-.54Zm-9.27.23c1.57,0,2.22-1.35,2.22-2.64s-.66-2.65-2.22-2.65-2.22,1.35-2.22,2.65S145.23,31.6,146.79,31.6Zm0-6A3.08,3.08,0,0,1,149.87,29a3.09,3.09,0,1,1-6.15,0A3.08,3.08,0,0,1,146.79,25.59Zm-7.9.15h.85v5.71h3.4v.72h-4.26Zm-4.38,5.86c1.57,0,2.22-1.35,2.22-2.64s-.66-2.65-2.22-2.65-2.22,1.35-2.22,2.65S132.94,31.6,134.51,31.6Zm0-6A3.08,3.08,0,0,1,137.59,29a3.09,3.09,0,1,1-6.15,0A3.09,3.09,0,0,1,134.51,25.59Zm-9.57.15h.91l3.38,5.21h0V25.74h.81v6.42h-.94L125.77,27h0v5.16h-.81Zm-6.83,0H119V28.5h3.38V25.74h.86v6.42h-.86V29.22H119v2.94h-.85Zm-2.32,1.93A1.69,1.69,0,0,0,114,26.3c-1.53,0-2.18,1.26-2.18,2.6s.65,2.69,2.19,2.69a1.82,1.82,0,0,0,1.85-1.85h.85a2.61,2.61,0,0,1-2.78,2.57c-2,0-3-1.48-3-3.35s1.06-3.38,3-3.38a2.46,2.46,0,0,1,2.64,2.09Zm-10.36-1.93h4.44v.72h-3.58v2h3.34v.72h-3.34v2.22h3.61v.72h-4.46Zm-4,.72H99.25v-.72h5.14v.72h-2.14v5.7h-.85Zm-10.14-.72h4.44v.72H92.1v2h3.34v.72H92.1v2.22h3.61v.72H91.25Zm-3.87,3c.8,0,1.48-.21,1.48-1.14a1,1,0,0,0-1.14-1.1H85.6V28.7Zm-2.64-3h3c1.2,0,2,.66,2,1.68A1.54,1.54,0,0,1,88.6,29v0c.75.14.9.69,1,1.32a3.27,3.27,0,0,0,.38,1.77H89c-.24-.26-.11-1-.23-1.58s-.24-1.16-1.07-1.16H85.6v2.75h-.85Zm-5.07,3.77h2.18l-1.07-3h0Zm.64-3.77h.94l2.51,6.42h-.94l-.7-1.93H79.41l-.72,1.93h-.88Zm-4.07,6.42h-.89l-1.47-5.4h0l-1.49,5.4h-.89l-1.65-6.42h.87L72,31.08h0l1.44-5.35h.93l1.42,5.35h0l1.31-5.35H78Zm-10.16-5.7H63.94v-.72h5.14v.72H66.94v5.7h-.85Zm-7-.72h4.22v.72H59.89v2h3v.72h-3v2.94H59ZM54.57,31.6c1.57,0,2.22-1.35,2.22-2.64s-.66-2.65-2.22-2.65S52.35,27.65,52.35,29,53,31.6,54.57,31.6Zm0-6A3.08,3.08,0,0,1,57.65,29a3.09,3.09,0,1,1-6.15,0A3.08,3.08,0,0,1,54.57,25.59Z"/><path class="cls-1" d="M0,0V32.32H36.81V0ZM7.12,8.42a7.35,7.35,0,0,1,.28-1.9,10.79,10.79,0,0,1,.79-2A7.24,7.24,0,0,1,8.93,3c.42-.55.53-.79.74-1A.94.94,0,0,1,9.87,2c.52-.17,1-.22,1.26-.31.06,0,.33,0,.4,0l2,.05c.58,0,1.26.07,2,.08l2.12,0c.67,0,1.37,0,2.06,0s1.27.06,1.88.06,1.31,0,1.91,0,1.3,0,1.84-.05a16.26,16.26,0,0,0,1.81-.09,8.18,8.18,0,0,1,1.57-.2,1.36,1.36,0,0,1,.26.12,6.28,6.28,0,0,1,.87.54,25.26,25.26,0,0,0,0,2.89c.07.62.17,1.33.27,2.05s.13,1.23.23,1.89.34,1.62.42,2.15c.15,1,.19.45.33,1.26a21.52,21.52,0,0,1,.19,2.14,15.44,15.44,0,0,1-.16,2.83,2,2,0,0,1-.64,1.36,11.22,11.22,0,0,1-1.72.37c-.79.13-.72,0-1.2.13a15.16,15.16,0,0,1-2.34.27c-.78.07-.18.14-1.1.26-.07,0-.16.07-.26.09-.76.1-2.25.25-3,.33s-1.36.1-2.1.14-1.34,0-2,0a16.78,16.78,0,0,1-2.1-.08,16.74,16.74,0,0,1-2.12-.42c-.8-.1-1.4-.24-2.07-.39A10.37,10.37,0,0,0,9,19.22a2.29,2.29,0,0,1-.18-.32,12,12,0,0,1-.73-2,26.4,26.4,0,0,1-.55-2.7,3.81,3.81,0,0,0-.28-1,6,6,0,0,1-.16-1.7C7.12,10.8,7.09,9.12,7.12,8.42Zm26.41,19.9a7.94,7.94,0,0,1-2.22.33c-.47,0-1.16.06-2,.1-.6,0-1.23-.08-2,0s-1.26,0-1.93.07S24,28.9,23.3,29s-1,0-1.71,0-1.23-.16-1.93-.1-1.74.07-2.37.14-1.4.33-2,.4-1.2,0-1.84.11-1.42.3-2,.4-1.28.21-1.87.31-1.23.18-1.77.3-.93.28-1.32.4a15.11,15.11,0,0,1-2.23.53c-1.21.17-1.76-.08-2.09-.57a4.36,4.36,0,0,1-.48-1.74,10,10,0,0,0-.19-1.08c-.19-1-.35-1.63.25-2.26a5.1,5.1,0,0,1,1.51-1,9.83,9.83,0,0,1,1.86-1c.52-.21,1.15-.43,1.91-.68.58-.19,1.26-.32,2-.52s1.27-.33,2-.49,1.3-.34,2-.48,1.31-.24,2-.35,1.4-.19,2.15-.29,1.36-.15,2.08-.23,1.29-.19,2-.25,1.58,0,2.29,0,1-.17,1.69-.2,1.3,0,2-.07l2,0c.58,0,1.16,0,1.76,0a5.08,5.08,0,0,1,2.41.37c.73.47.65.75.68,1.67a6.12,6.12,0,0,0,.11,1.57c.18,1.11.2,2.08.28,3C34.43,27.37,34.09,27.81,33.53,28.32Z"/><polygon class="cls-1" points="19.76 9.2 15.47 8.55 18.91 10.48 19.82 9.96 19.74 9.74 20 9.65 20.06 9.83 23.04 8.13 19.82 9.19 19.76 9.2"/><rect class="cls-2" x="14.21" y="6.26" width="1.11" height="1.1"/><polygon class="cls-1" points="19.18 10.63 20.26 11.24 19.91 10.22 19.18 10.63"/><rect class="cls-2" x="17.29" y="12.51" width="1.11" height="1.1"/><rect class="cls-2" x="20.33" y="12.87" width="1.11" height="1.1"/><path class="cls-1" d="M28.59,14c0-.4,0-.87,0-1.38s0-.94-.05-1.44,0-1,0-1.44-.08-1-.08-1.44,0-1,0-1.41c0-.63.15-1.14.11-1.45a6,6,0,0,0-.16-1.34,1.28,1.28,0,0,0-1.06-.75,3,3,0,0,0-1.43.07,6.39,6.39,0,0,1-1.31.21c-.41,0-.86.12-1.36.12s-.93.11-1.43.09l-1.42,0-1.43-.1c-.49,0-1-.28-1.44-.33S15.62,3,15.18,2.95a7.09,7.09,0,0,1-1-.16,3.67,3.67,0,0,0-.84-.08,6.88,6.88,0,0,0-1.29-.15c-.57,0-.81,0-1.09.6a2.46,2.46,0,0,0-.42,1.11c-.07.36,0,.81-.09,1.3s-.17.81-.22,1.27,0,.84-.08,1.28S10.06,9,10,9.42s-.16.88-.19,1.32-.05.89-.07,1.33,0,.92,0,1.35.06.91.07,1.32,0,1,0,1.35A4.74,4.74,0,0,0,10,17.5a2,2,0,0,0,1,.68,8.45,8.45,0,0,0,1.32.23c.42.08.85.22,1.29.26s.92.09,1.35.11.89,0,1.29,0a3.33,3.33,0,0,0,1.33-.08c.18-.06-.16-.16.18-.17s.83-.06,1.24-.09.88,0,1.3,0,.9-.07,1.32-.14.9-.12,1.31-.2.92-.15,1.32-.24l1.31-.3c.67-.17,1.13-.31,1.3-.33a2.37,2.37,0,0,0,1.26-.53c.66-.52.43-.64.5-1.33A6,6,0,0,0,28.59,14ZM13,14.43l-.56,1.1-.12.24-.12-.06L11,15.09,10.86,15l.06-.12.62-1.22.06-.12.12.06.47.24.16-.3.24.13-.16.29.52.26.12.06Zm5.65-2.05v1.51H17V12.24h.68V12H18v.26h.7Zm3,.36v1.51H20.06V12.6h.63v-.26H21v.26h.75Zm2.55-2.23,0-.26,2.61-.49L25,7.58l-.67,2.16-.26-.08.65-2.1-.41.14-4.19,2.38.57,1.65L24,10.09l.12.24L20.7,12l-.14.07L20.51,12l-.09-.25-2.32-.18,0-.27,1.91.15-1.13-.63-.9.51h0l-5.28,1.78-.28.1.12-.28,1.84-4.29.25.11-1.72,4,5-1.68.75-.42-4-2.22-.07,0V7.63h-.67V6h1.65V7.63h-.7v.55l4.89.74,4.46-1.47.67-.38,0-.1h0V6.52h-.68V4.88h1.65V6.52h-.7v.67l-.07,0,0,0v0l2,2.49.14.18-.22,0Zm3.63.8v1.51H26.24V11.18h.63v-.46h.27v.45h.75Z"/><rect class="cls-2" x="26.51" y="11.45" width="1.11" height="1.1"/><polygon class="cls-1" points="25.66 6.25 25.66 5.15 24.55 5.15 24.55 6.25 25.02 6.25 25.1 6.25 25.1 6.25 25.66 6.25"/><rect class="cls-2" x="11.41" y="14.11" width="1.1" height="1.11" transform="translate(-6.53 18.68) rotate(-63.03)"/><circle class="cls-2" cx="25.04" cy="7.54" r="0.64"/><circle class="cls-2" cx="17.87" cy="11.38" r="0.68"/><circle class="cls-2" cx="19.85" cy="9.24" r="0.64"/><circle class="cls-2" cx="12.74" cy="13.14" r="0.64"/><circle class="cls-2" cx="24.21" cy="10.24" r="0.64"/><circle class="cls-2" cx="14.72" cy="8.5" r="0.64"/><circle class="cls-2" cx="26.93" cy="10.18" r="0.64"/><circle class="cls-2" cx="20.85" cy="11.78" r="0.64"/><path class="cls-1" d="M6.8,25.28a.64.64,0,0,0-.58.71.59.59,0,0,0,.58.65A.62.62,0,0,0,7.43,26,.68.68,0,0,0,6.8,25.28Z"/><path class="cls-1" d="M10.56,27.29a.58.58,0,0,0-.62.57c0,.85.45.62.62.65a.63.63,0,0,0,.64-.65A.6.6,0,0,0,10.56,27.29Z"/><path class="cls-1" d="M8.44,27.67a.58.58,0,0,0-.58.62.63.63,0,0,0,.58.67.68.68,0,0,0,.65-.67A.64.64,0,0,0,8.44,27.67Z"/><path class="cls-1" d="M16.69,25c-.35,0-.77.14-.62.59s.27.65.62.65a.68.68,0,0,0,.65-.67A.61.61,0,0,0,16.69,25Z"/><path class="cls-1" d="M13.12,25.88a.52.52,0,0,0-.53.56.55.55,0,0,0,.53.59.58.58,0,0,0,.58-.59A.56.56,0,0,0,13.12,25.88Z"/><path class="cls-1" d="M11.43,25.29a.63.63,0,0,0-.62.64c0,.35,0,.5.62.64.34.08.61-.29.61-.64A.62.62,0,0,0,11.43,25.29Z"/><path class="cls-1" d="M15.11,23.27a.63.63,0,0,0-.66.6c0,.35.37.44.72.44s.62-.09.62-.44A.65.65,0,0,0,15.11,23.27Z"/><path class="cls-1" d="M16.95,22.17a.62.62,0,0,0-.65.59.66.66,0,0,0,1.31,0A.63.63,0,0,0,16.95,22.17Z"/><path class="cls-1" d="M6.27,28a.46.46,0,0,0-.42.51.42.42,0,0,0,.42.47.45.45,0,0,0,.45-.47A.49.49,0,0,0,6.27,28Z"/><path class="cls-1" d="M11.68,23.09a.42.42,0,0,0-.42.45.45.45,0,0,0,.42.48.49.49,0,0,0,.47-.48A.46.46,0,0,0,11.68,23.09Z"/><path class="cls-1" d="M9.51,25.43a.46.46,0,0,0-.47.44c0,.25.27.32.52.32s.45-.06.45-.32A.47.47,0,0,0,9.51,25.43Z"/><path class="cls-1" d="M15.09,26.41a.45.45,0,0,0-.47.43.48.48,0,0,0,.95,0A.45.45,0,0,0,15.09,26.41Z"/><path class="cls-1" d="M24.06,25.72a.84.84,0,0,0-.81.9.86.86,0,0,0,.83.9.91.91,0,0,0,.89-.9A.92.92,0,0,0,24.06,25.72Z"/><path class="cls-1" d="M24,23.59a.91.91,0,0,0-.92-.86.84.84,0,0,0-.85.86.88.88,0,0,0,.85.91A1,1,0,0,0,24,23.59Z"/><path class="cls-1" d="M28.21,23.08a.76.76,0,0,0-.8.81.78.78,0,0,0,.8.84.83.83,0,0,0,.86-.84A.81.81,0,0,0,28.21,23.08Z"/><path class="cls-1" d="M26.37,24.71a.88.88,0,0,0-1,.79,1,1,0,0,0,1,.94.93.93,0,0,0,.87-.94A.81.81,0,0,0,26.37,24.71Z"/></g></g></svg>