<?xml version="1.0" encoding="utf-8"?>
<!-- Generator: Adobe Illustrator 20.0.0, SVG Export Plug-In . SVG Version: 6.00 Build 0)  -->
<svg version="1.1" id="Layer_1" xmlns="http://www.w3.org/2000/svg" xmlns:xlink="http://www.w3.org/1999/xlink" x="0px" y="0px"
	 viewBox="0 0 66.4 66.4" style="enable-background:new 0 0 66.4 66.4;" xml:space="preserve">
<style type="text/css">
	.st0{fill:#FFFFFF;}
</style>
<title>Artboard 1</title>
<path class="st0" d="M33.2,0c18.3,0,33.2,14.8,33.2,33.2c0,18.3-14.8,33.2-33.2,33.2C14.9,66.4,0,51.5,0,33.2c0,0,0,0,0,0
	C0,14.9,14.9,0,33.2,0 M33.2,3.6C16.8,3.6,3.6,16.8,3.6,33.2s13.2,29.6,29.6,29.6c16.3,0,29.6-13.2,29.6-29.6
	c0-7.8-3.1-15.4-8.7-20.9C48.5,6.7,41,3.6,33.2,3.6"/>
<path class="st0" d="M53.5,35.9h5V40h-9.9V25.8h5L53.5,35.9z M37.2,35.1l-8.2,6.4l-7.5-5.9c-1.1,2.7-3.8,4.4-6.7,4.4H8.4V25.8h6.4
	c2.9,0,5.6,1.7,6.7,4.4l7.5-5.9l2.8,2.2l-6.9,5.4l1.3,1l6.9-5.4l2.8,2.2L29,35.1l1.3,1l6.9-5.4v-5h5v10.1h5v4.2h-9.9L37.2,35.1z
	 M17.4,32.9c0.1-1.6-1.1-2.9-2.7-3c-0.1,0-0.3,0-0.4,0h-1.1V36h1.1c1.6,0.2,3-1,3.1-2.6C17.4,33.3,17.4,33.1,17.4,32.9"/>
</svg>
