<?xml version="1.0" encoding="utf-8"?>
<!-- Generator: Adobe Illustrator 20.0.0, SVG Export Plug-In . SVG Version: 6.00 Build 0)  -->
<svg version="1.1" id="Layer_1" xmlns="http://www.w3.org/2000/svg" xmlns:xlink="http://www.w3.org/1999/xlink" x="0px" y="0px"
	 viewBox="0 0 692.9 238.3" style="enable-background:new 0 0 692.9 238.3;" xml:space="preserve">
<style type="text/css">
	.st0{fill:#FFFFFF;}
</style>
<title>Artboard 1</title>
<polyline class="st0" points="189.1,43.5 303.3,43.5 303.3,84.4 241.3,84.4 241.3,99.3 280.4,99.3 280.2,136.3 241.3,136.3 
	241.3,186.4 189.1,186.4 "/>
<polyline class="st0" points="372.3,43.6 372.3,152.4 428.7,152.4 428.7,186.2 321.8,186.2 321.8,43.6 "/>
<rect x="451.8" y="43.6" class="st0" width="50.5" height="142.6"/>
<path class="st0" d="M577.8,72.1h9.5c10.7,0,18.5,1.6,23.2,4.8c2.3,1.5,4.2,3.5,5.5,5.9c1.3,2.1,2,4.5,2.1,6.9
	c-0.1,2.5-0.8,4.9-2.2,7c-1.4,2.3-3.2,4.4-5.5,5.9c-4.7,3.2-12.4,4.8-23.2,4.8l-9.5,0 M643.8,124.1c4.1-1.5,7.9-3.6,11.4-6.2
	c4.7-3.5,8.6-8.1,11.2-13.4c5.3-10.1,5.5-22,0.6-32.3c-2.4-5.1-5.8-9.6-9.9-13.4c-6-5.4-13.1-9.4-20.9-11.6
	c-8.1-2.4-18.2-3.6-30.2-3.6h-78.7v142.6h50.5v-54.5l48.6,54.5h63L628.2,128C633.5,127.2,638.7,125.9,643.8,124.1L643.8,124.1z"/>
<polyline class="st0" points="122.1,119.2 80.4,160.9 38.7,119.2 80.4,77.5 122.1,119.2 160.9,80.4 80.4,0 0,80.4 38.7,119.2 
	0,157.9 80.4,238.3 160.9,157.9 "/>
<path class="st0" d="M692.9,55.3c0,6.4-5.1,11.6-11.5,11.6c-6.4,0-11.6-5.1-11.6-11.5c0-6.4,5.1-11.6,11.5-11.6c0,0,0,0,0.1,0
	C687.8,43.8,692.9,48.9,692.9,55.3C692.9,55.3,692.9,55.3,692.9,55.3 M671.6,55.3c0,5.4,4.4,9.8,9.8,9.8c5.4,0,9.8-4.4,9.8-9.8
	c0-5.4-4.4-9.8-9.8-9.8C676,45.4,671.6,49.8,671.6,55.3C671.6,55.2,671.6,55.3,671.6,55.3L671.6,55.3z M679.2,62h-2.2V48.7h5.3
	c2.5,0,3.7,1.7,3.7,3.3c-0.1,1.6-1.3,2.9-2.9,3.1v0.1c1.7,0.2,2.2,0.7,2.3,3.4c0.1,1.2,0.2,2.3,0.5,3.5h-2.1
	c-0.5-0.9-0.4-2.6-0.5-4.4c-0.1-0.9-1-1.6-1.9-1.5c0,0-0.1,0-0.1,0h-2.1V62z M679.2,54.3h2.8c1,0,1.9-0.8,1.9-1.9c0-0.1,0-0.2,0-0.3
	c0.1-1-0.7-1.9-1.7-2c-0.1,0-0.2,0-0.2,0h-2.8V54.3z"/>
</svg>
