<?xml version="1.0" encoding="utf-8"?>
<!-- Generator: Adobe Illustrator 20.0.0, SVG Export Plug-In . SVG Version: 6.00 Build 0)  -->
<svg version="1.1" id="Layer_1" xmlns="http://www.w3.org/2000/svg" xmlns:xlink="http://www.w3.org/1999/xlink" x="0px" y="0px"
	 viewBox="0 0 75.7 13.4" style="enable-background:new 0 0 75.7 13.4;" xml:space="preserve">
<style type="text/css">
	.st0{fill:#FFFFFF;}
</style>
<title>Artboard 2</title>
<path class="st0" d="M11.3,11.4L11,12.3c-1.2,0.7-2.6,1-4,1c-0.8,0-1.7-0.1-2.5-0.3c-0.7-0.2-1.4-0.5-2-1c-0.5-0.4-1-0.9-1.4-1.5
	C0.7,9.9,0.5,9.3,0.3,8.7C0.1,8,0,7.3,0,6.6c-0.1-1.8,0.6-3.5,1.9-4.7c1.4-1.3,3.3-2,5.2-1.9c0.5,0,1,0,1.4,0.1
	c0.5,0.1,1.1,0.2,1.6,0.4c0.6,0.2,0.6,0.2,0.7,0.2c-0.1,0.3,0.3,2.3,0.3,2.9l-0.8-0.1L10,2.6C9.9,2,9.6,1.6,9,1.4
	C8.4,0.9,7.7,0.7,6.9,0.7C6.2,0.7,5.5,0.8,4.9,1C4.3,1.2,3.8,1.6,3.4,2C2.9,2.5,2.5,3.1,2.3,3.7C2,4.5,1.9,5.4,1.9,6.3
	c-0.1,1.6,0.5,3.2,1.6,4.4c1.1,1.1,2.6,1.7,4.2,1.7c0.7,0,1.5-0.1,2.2-0.3c0.5-0.2,0.9-0.4,1.4-0.7L11.3,11.4z"/>
<path class="st0" d="M17.2,12.6v0.6c-1.2,0-5,0-5,0v-0.6c0.4,0,0.8,0,1.2-0.1c0.1,0,0.2-0.1,0.3-0.2c0.1-0.3,0.1-0.6,0.1-0.9
	c0-0.1,0-1,0-2.5V4.7c0-0.8,0-1.6,0-2.4c0-0.3,0-0.7-0.1-1c-0.1-0.1-0.2-0.2-0.3-0.2C13,1,12.6,1,12.2,1V0.4c1.1,0,3.9,0,5,0V1
	c-0.4,0-0.8,0-1.2,0.1c-0.1,0-0.2,0.1-0.3,0.2c-0.1,0.3-0.1,0.6-0.1,0.9c0,0.1,0,1,0,2.5v4.1c0,0.8,0,1.6,0,2.4c0,0.3,0,0.7,0.1,1
	c0.1,0.1,0.2,0.2,0.3,0.2C16.4,12.5,16.8,12.6,17.2,12.6z"/>
<path class="st0" d="M18.7,3.4h-0.6c0-1.4,0-2.4-0.1-3c0.7,0,10.3,0,10.9,0c-0.1,0.7-0.1,1.7-0.2,3h-0.6L28,2.5
	c0-0.5-0.1-0.8-0.1-0.9c0-0.1,0-0.1-0.1-0.2c0,0-0.1-0.1-0.1-0.1c-0.1,0-0.4,0-0.9-0.1c-0.5,0-0.9,0-1.2,0h-1.1
	c-0.1,0.8-0.1,1.5-0.1,2.3v5.2c0,0.8,0,1.6,0,2.4c0,0.3,0,0.7,0.1,1c0.1,0.1,0.2,0.2,0.3,0.2c0.4,0.1,0.9,0.1,1.3,0v0.6
	c-1.1,0-1.9,0-2.5,0h-2.9v-0.6c0.4,0,0.9,0,1.3-0.1c0.1,0,0.2-0.1,0.3-0.2c0.1-0.3,0.2-0.6,0.1-0.9c0-0.1,0-1,0-2.5V3.6
	c0-0.2,0-0.5,0-0.8V1.3h-1.4c-0.6,0-1.3,0-1.9,0.1c-0.1,0-0.2,0-0.3,0.1c-0.1,0.3-0.2,0.7-0.2,1L18.7,3.4z"/>
<path class="st0" d="M35.1,12.6v0.6c-1.3,0-5.3,0-5.3,0v-0.6c0.4,0,0.9,0,1.3-0.1c0.1,0,0.2-0.1,0.3-0.2c0.1-0.3,0.2-0.6,0.1-0.9
	c0-0.1,0-1,0-2.5V4.7c0-0.8,0-1.6,0-2.4c0-0.3,0-0.7-0.1-1c-0.1-0.1-0.2-0.2-0.3-0.2C30.7,1,30.2,1,29.8,1V0.4c1.1,0,4.1,0,5.3,0V1
	c-0.4,0-0.9,0-1.3,0.1c-0.1,0-0.2,0.1-0.3,0.2c-0.1,0.3-0.1,0.6-0.1,0.9c0,0.1,0,1,0,2.5v4.1c0,0.8,0,1.6,0,2.4c0,0.3,0,0.7,0.1,1
	c0.1,0.1,0.2,0.2,0.3,0.2C34.2,12.6,34.7,12.6,35.1,12.6z"/>
<path class="st0" d="M35.3,13.2v-0.5l2-2.7l4.8-6.6c0.7-0.9,1.2-1.6,1.5-2.1h-2.9c-1.1,0-2.1,0.1-3.2,0.2c-0.1,0-0.3,0.1-0.4,0.2
	C37,1.8,37,2,37,2.1l-0.1,1.3h-0.5c0-0.5,0-0.9,0-1.3c0-0.7,0-1.2,0-1.7c0.2,0,8.9,0,9.6,0V1c-0.6,0.7-1,1.3-1.3,1.7l-7,9.6l1.8,0
	h1.7c1.1,0,2.1,0,3-0.1c0.3,0,0.6-0.1,0.9-0.2c0.1-0.2,0.2-0.5,0.3-0.8l0.2-1.3h0.8c0,0.5,0,3.2,0,3.2
	C45.6,13.1,35.5,13.2,35.3,13.2z"/>
<path class="st0" d="M47,13.2v-0.6c0.5,0,0.9,0,1.3-0.1c0.1,0,0.2-0.1,0.2-0.2c0.1-0.3,0.1-0.6,0.1-0.9c0-0.8,0-1.5,0-2V4.7
	c0-0.8,0-1.6,0-2.4c0-0.3,0-0.7-0.1-1c-0.1-0.1-0.2-0.2-0.4-0.2C47.7,1,47.2,1,46.8,1V0.4c0,0,9.9,0,10.5,0.1
	c-0.1,0.3,0.1,1.6,0,2.8h-1c0-0.6,0-1.1-0.1-1.7c-0.4-0.1-0.8-0.2-1.2-0.3c-0.7-0.1-1.5-0.1-2.2-0.1h-1l-1.2,0.1c0,0.7,0,1.3,0,1.9
	v3.1c0.8,0,1.5,0.1,2.1,0.1c0.7,0,1.3,0,2-0.1c0.1,0,0.3,0,0.4-0.1c0.1-0.2,0.1-0.5,0.1-0.7l0.1-0.6h0.6v4.1h-0.8V8.1
	c0-0.3,0-0.6-0.1-0.8c-0.1-0.1-0.3-0.2-0.4-0.2C53.8,7,53.1,6.9,52.4,7c-0.4,0-1,0-1.9,0.1c0,0.6,0,1.5,0,2.7s0,1.9,0,2.5
	c0.9,0.1,2,0.1,3.1,0.1c0.6,0,1.2,0,1.8-0.1c0.3,0,0.7-0.1,1-0.2c0.1-0.2,0.2-0.5,0.2-0.8c0.1-0.5,0.2-0.9,0.3-1.2h0.7
	c0,1.5,0.1,2.2,0.1,3C57.1,13.1,48.6,13.1,47,13.2z"/>
<path class="st0" d="M58.2,13.2v-0.6c0.4,0,0.8,0,1.1-0.1c0.1,0,0.1-0.1,0.2-0.2c0.1-0.3,0.1-0.6,0.1-0.9c0-0.8,0-1.5,0-2V2
	c0-0.1,0-0.3,0-0.4c-0.1-0.1-0.2-0.3-0.3-0.4c-0.1-0.1-0.2-0.2-0.4-0.2c-0.3,0-0.6,0-0.9,0V0.5c1,0,2.6,0,3.1,0l1,1.5l1.7,2.3
	l2.5,3.3c0.8,1,1.4,1.9,1.9,2.5c0.3,0.4,0.6,0.7,0.8,0.9V4.3c0-0.6,0-1.3,0-2.1c0-0.3,0-0.6-0.1-0.9c0-0.1-0.1-0.1-0.2-0.2
	C68.3,1,67.9,1,67.6,1V0.4c0.6,0,3.2,0,3.7,0V1c-0.4,0-0.8,0-1.1,0.1C70,1.2,70,1.2,70,1.3c-0.1,0.3-0.1,0.6-0.1,0.9
	c0,0.8,0,1.5,0,2v4.3c0,0.9,0,2.5,0,4.9l-1.1-0.1c0,0,0-0.3,0-0.3s-0.1-0.2-0.3-0.4c-0.5-0.6-0.8-1-1-1.3l-1.1-1.5l-5.9-7.7v7
	c0,0.6,0,1.3,0,2.1c0,0.3,0,0.6,0.1,0.9c0,0.1,0.1,0.1,0.2,0.2c0.4,0.1,0.8,0.2,1.1,0.1v0.6C61.4,13.1,58.9,13.1,58.2,13.2z"/>
<path class="st0" d="M74.9,1.6l0.4-1.2h0.4V2h-0.3V0.7l0,0L75,2h-0.2l-0.5-1.3l0,0V2H74V0.4h0.4L74.9,1.6z M73.7,0.6h-0.5V2H73V0.6
	h-0.5V0.4h1.2V0.6z"/>
</svg>
