<?xml version="1.0" encoding="utf-8"?>
<!-- Generator: Adobe Illustrator 20.0.0, SVG Export Plug-In . SVG Version: 6.00 Build 0)  -->
<svg version="1.1" id="Layer_1" xmlns="http://www.w3.org/2000/svg" xmlns:xlink="http://www.w3.org/1999/xlink" x="0px" y="0px"
	 viewBox="0 0 281.2 27" style="enable-background:new 0 0 281.2 27;" xml:space="preserve">
<style type="text/css">
	.st0{fill:#FFFFFF;}
</style>
<g>
	<circle class="st0" cx="117.3" cy="15.1" r="3.3"/>
	<path class="st0" d="M131.1,0v23h10.6v3.6h-14.4V0H131.1z M147.6,6.3v11.5c0,1.9,0,3.9,1.8,5.1c0.5,0.3,1.5,0.8,2.9,0.8
		c1.6,0,2.4-0.4,2.9-0.8c1.7-1.4,1.6-3.9,1.6-5.8V6.3h3.8V17c0,2.5,0,3.4-0.4,4.7c-0.3,1-0.9,2.9-3.2,4.2c-1.9,1.1-4,1.1-4.8,1.1
		c-1.3,0-2.3-0.2-2.7-0.3c-2.2-0.5-4.3-2.1-5.1-4.2c-0.6-1.5-0.6-3.3-0.6-5V6.3H147.6z M178.9,10.4L178.9,10.4
		c-0.5-0.3-0.5-0.3-0.8-0.5c-1.3-0.8-2.8-0.8-3.3-0.8c-0.5,0-1.6,0-2.9,0.6c-1.5,0.7-3.8,2.5-3.8,6.5c0,0.6,0,1.7,0.5,3
		c1,2.7,3.4,4.4,6.3,4.4c2.1,0,3.5-0.8,4.1-1.2l0,3.2c-0.3,0.2-0.8,0.5-1.1,0.6c-0.5,0.3-1.9,0.7-3.7,0.7c-6.1,0-10.1-4.8-10.1-10.7
		c0-0.7,0-2.4,0.8-4.3c0.8-2,3.2-6.2,9.2-6.2c1.1,0,2.7,0.1,4.8,1.1V10.4z M185.6,17.7c0.1,0.9,0.3,1.5,0.4,1.8c0.6,1.8,2,3.3,3.7,4
		c0.7,0.3,1.7,0.5,3.5,0.5c1,0,2.6-0.1,4.8-0.9l0,3.1c-0.9,0.3-2.7,0.8-5.3,0.8c-0.8,0-3.3,0-5.6-1.1c-2.1-1.1-5.4-3.8-5.3-9.6
		c0-0.8,0-2.7,0.8-4.6c0.7-1.6,2.8-5.8,8.2-5.8c5.1,0,8.4,3.8,8.4,8.8c0,0.8,0,1.4-0.4,2.9H185.6z M195.4,15.1
		c0-0.5,0.1-2.2-0.7-3.7c-0.4-0.8-1.6-2.6-4.1-2.5c-1.1,0-2.1,0.3-2.9,1c-2,1.7-2.1,4.6-2.2,5.2H195.4z M207,6.3v4
		c0.2-0.5,0.5-1.1,0.8-1.6c1.9-2.6,4.3-2.9,5.5-2.9c0.7,0,2.7,0.1,4.3,1.3c2.5,1.9,2.6,4.8,2.6,7.6v11.8h-3.8V15.2
		c0-1.8,0-3.5-1.4-4.8c-0.4-0.4-1.3-1-2.8-1c-0.5,0-1.8,0.1-2.9,1.1c-2.1,1.7-2.1,4.6-2.1,7v9.1h-3.8V6.3H207z M235.1,9.5h-5.7V20
		c0,0.2,0,1.1,0.1,1.8c0.6,2,2.8,1.9,3.3,1.9c0.7,0,1.4,0,2.7-0.4l0,3.2c-1.2,0.2-2.2,0.4-3.5,0.4c-0.5,0-2.3,0-3.8-0.8
		c-2.6-1.4-2.7-4.1-2.7-6.6v-17l3.8-3v6.8h5.7V9.5z M28,0v26.6h-3.8V0H28z M47,10.4L47,10.4c-0.5-0.3-0.5-0.3-0.8-0.5
		c-1.3-0.8-2.8-0.8-3.3-0.8c-0.5,0-1.6,0-2.9,0.6c-1.5,0.7-3.8,2.5-3.8,6.5c0,0.6,0,1.7,0.5,3c1,2.7,3.4,4.4,6.3,4.4
		c2.1,0,3.5-0.8,4.1-1.2l0,3.2c-0.3,0.2-0.8,0.5-1.1,0.6c-0.5,0.3-1.9,0.7-3.7,0.7c-6.1,0-10.1-4.8-10.1-10.7c0-0.7,0-2.4,0.8-4.3
		c0.8-2,3.2-6.2,9.2-6.2C43.2,5.9,44.8,6,47,7V10.4z M51.4,7.7c0.4-0.2,0.9-0.4,1.3-0.6c1-0.4,3.1-1.1,5.9-1.1
		c2.9,0,4.5,0.8,5.5,1.6C64.4,7.7,65,8.2,65.4,9c0.4,0.8,0.6,1.7,0.6,3.7l0,13.5c-3.1,0.7-6.2,0.8-7.2,0.8c-1.7,0-3-0.2-3.6-0.3
		c-1.2-0.2-5.3-1.1-5.3-5.6c0-1,0.2-2.9,2.1-4.6c2.9-2.5,6.9-2.7,10.4-2.7v-0.9c0-1.2,0-1.6-0.3-2.1c-0.4-1-1.6-1.9-3.9-1.9
		c-1.8,0-3.9,0.5-5.5,1.3c-0.4,0.2-0.8,0.4-1.2,0.6L51.4,7.7z M62.3,16.4c-2.3,0-5.4,0.1-7.3,1.6c-0.9,0.7-1.3,1.6-1.3,2.8
		c0,0.7,0.2,1.4,0.6,1.9c0.8,1,2.2,1.4,4.8,1.4c0.6,0,1.9,0,3.3-0.3V16.4z M80.3,9.5h-5.7V20c0,0.2,0,1.1,0.1,1.8
		c0.6,2,2.8,1.9,3.3,1.9c0.7,0,1.3,0,2.7-0.4l0,3.2c-1.2,0.2-2.2,0.4-3.5,0.4c-0.5,0-2.3,0-3.8-0.8c-2.6-1.4-2.7-4.1-2.7-6.6v-17
		l3.8-3v6.8h5.7V9.5z M86,17.7c0.1,0.9,0.3,1.5,0.4,1.8c0.6,1.8,2,3.3,3.7,4c0.7,0.3,1.7,0.5,3.5,0.5c1,0,2.6-0.1,4.8-0.9l0,3.1
		C97.4,26.5,95.6,27,93,27c-0.8,0-3.3,0-5.6-1.1c-2.1-1.1-5.3-3.8-5.3-9.6c0-0.8,0-2.7,0.8-4.6c0.7-1.6,2.8-5.8,8.2-5.8
		c5.1,0,8.4,3.8,8.4,8.8c0,0.8,0,1.4-0.4,2.9H86z M95.8,15.1c0-0.5,0.1-2.2-0.7-3.7c-0.4-0.8-1.6-2.6-4.1-2.5c-1.1,0-2.1,0.3-2.9,1
		c-2,1.7-2.2,4.6-2.2,5.2H95.8z M107.4,0v26.6h-3.8V0H107.4z M17.3,26.6l-1.6-5.2H5.7l-1.6,5.2H0L8.2,0h5l8.1,26.6H17.3z M10.7,3.7
		L6.8,17.8h7.9L10.7,3.7z"/>
	<g>
		<path class="st0" d="M256.9,27l-7-11.1V27h-5.3V0.3h6.7c3.4,0,6.6,0.3,8.8,3.2c1,1.4,1.5,3.1,1.5,4.8c0,2.6-1.2,5.2-3.5,6.5
			c-0.9,0.5-2,0.7-3.1,0.9c1.7,1.7,2.6,3.1,3.9,4.9c1.6,2.1,3,4.3,4.5,6.4H256.9z M251.3,4.8h-1.4v8.1h1c2.9,0,5.3-0.7,5.3-4.1
			C256.3,5.6,254.1,4.8,251.3,4.8z"/>
		<path class="st0" d="M275.2,5.1V27h-5.3V5.1h-6V0.3h17.3v4.8H275.2z"/>
	</g>
</g>
</svg>
