<?xml version="1.0" encoding="utf-8"?>
<!-- Generator: Adobe Illustrator 20.0.0, SVG Export Plug-In . SVG Version: 6.00 Build 0)  -->
<svg version="1.1" id="Calque_1" xmlns="http://www.w3.org/2000/svg" xmlns:xlink="http://www.w3.org/1999/xlink" x="0px" y="0px"
	 viewBox="0 0 319.3 65.2" style="enable-background:new 0 0 319.3 65.2;" xml:space="preserve">
<style type="text/css">
	.st0{fill:#FFFFFF;}
</style>
<title>Artboard 2</title>
<path class="st0" d="M0,32.6C0,14.6,14.6,0,32.6,0s32.6,14.6,32.6,32.6S50.6,65.2,32.6,65.2S0,50.6,0,32.6L0,32.6 M32.6,39.1
	l-9.4-31L11.3,47.9h2.4c0,0,0.7-2,1.2-3.9c2.7-8.9,5.7-12.4,10.8-10.5c1.3,0.5,3.1,3.2,4.1,4.9c1.2,1.8,2.1,3.8,2.7,5.9
	c0.6-2.1,1.5-4.1,2.7-5.9c1-1.7,2.9-4.4,4.1-4.9c5.1-1.9,8.1,1.6,10.8,10.5c0.6,1.9,1.2,3.9,1.2,3.9h2.4L41.9,8.1L32.6,39.1z"/>
<path class="st0" d="M86.9,42.3l6.1,0.1l3.1-11.1l2.8,11h4.2l9-10.4l-2.8,10.4h8l5.3-19.8H112l-7,8.3l-2.6-8.3l-10-0.1L86.9,42.3
	 M156.4,22.6l-1.5,6.1h8.3l-3.3,13.7h7.8l3.5-13.8h8.4l1.4-6.1L156.4,22.6z M233.5,22.4h-18.7l-1.6,5.9l7.3,0.5l0.4-1.6h8.2
	c0.8,0,1.4,0.6,1.4,1.4c0,0.1,0,0.1,0,0.2c-0.1,1.2-1,2.1-2.1,2.3H220l0.5-2.2l-7.4-0.7l-0.4,1.2l-3.5,13h7.3l1.6-6.2h5.9
	c0,0,2.1-0.2,2.3,1.4c0.1,1,0,2-0.1,2.9c0,0.9,0.5,1.6,1.3,1.9h8c-0.7-0.4-0.7-1.7-0.7-2.2c0.4-1.2,0.5-2.5,0.4-3.7
	c-0.2-1.8-2.1-2.2-2.3-2.4c0,0-0.3-0.2,0-0.4c2.9-0.6,5-2.9,5.4-5.8C238.5,27.8,239.1,23,233.5,22.4z M274.7,22.4l-4.9,20.1h19.9
	l1.4-5.3h-12.4l3.4-14.7L274.7,22.4z M307.4,29.8l0.5-0.9l-4.4-3.2l-11.1,16.7l6.6-0.1l2.2-3.2l0,0h9.5v0.1l0.8,3.3h7.8l-4.5-20
	l-9.2,0.1l-2.1,3.3l4.4,3.2l0.3-0.6l1.3,5.9h-0.1h-5h-0.1L307.4,29.8z M256.5,26.9v-5.2c5.7,0,12.1,2,13.3,7.6s-4.3,12.1-12.4,13.7
	c-8.7,1.7-16.5-1.4-17.6-7.2c-1.3-6.9,6.1-12.4,12-13.5c1.5-0.3,3.1-0.4,4.6-0.5L256.5,26.9c-1.3,0-2.6,0.3-3.9,0.8
	c-2.9,1.4-4.5,4.4-4.1,7.5c0.6,3.5,5.7,4,9,2.3c-0.7,0.4,5.2-2,4-7.7C261.1,28.2,258.9,27.1,256.5,26.9z M196.7,26.9v-0.7v-4.5
	c5.8,0,12.1,2,13.3,7.6s-4.2,12.1-12.4,13.7c-8.7,1.7-16.5-1.4-17.6-7.2c-1.3-6.9,6.1-12.4,12-13.5c1.5-0.3,3.1-0.4,4.6-0.5
	L196.7,26.9L196.7,26.9c-1.4,0-2.7,0.2-3.9,0.7c-2.8,1.4-4.5,4.4-4.1,7.5c0.6,3.5,5.7,4,9.1,2.3c-0.7,0.4,5.2-2,4-7.7
	C201.4,28.2,199.1,27.1,196.7,26.9L196.7,26.9z M139.7,26.9v-5.2c5.7,0,12.1,2,13.3,7.6s-4.2,12.1-12.3,13.7
	c-8.7,1.7-16.5-1.4-17.6-7.2c-1.3-6.9,6.1-12.4,12-13.5c1.5-0.3,3.1-0.4,4.6-0.5L139.7,26.9c-1.3,0-2.6,0.3-3.8,0.8
	c-2.9,1.4-4.5,4.4-4.1,7.5c0.6,3.5,5.7,4,9.1,2.3c-0.7,0.4,5.1-2,4-7.7C144.4,28.2,142.1,27.1,139.7,26.9L139.7,26.9z"/>
</svg>
