<?xml version="1.0" encoding="utf-8"?>
<!-- Generator: Adobe Illustrator 20.0.0, SVG Export Plug-In . SVG Version: 6.00 Build 0)  -->
<svg version="1.1" id="Layer_1" xmlns="http://www.w3.org/2000/svg" xmlns:xlink="http://www.w3.org/1999/xlink" x="0px" y="0px"
	 viewBox="0 0 175.7 41.3" style="enable-background:new 0 0 175.7 41.3;" xml:space="preserve">
<style type="text/css">
	.st0{fill:#FFFFFF;}
</style>
<title>Artboard 1</title>
<polygon class="st0" points="41.5,4.2 64.4,4.2 64.4,10.4 57.1,10.4 57.1,36.7 48.8,36.7 48.8,10.4 41.5,10.4 41.5,4.2 "/>
<path class="st0" d="M61,13.8h7.3v3.5h0.1c0.9-2.9,4.1-4,7.1-4v7.4c-1-0.4-2-0.5-3-0.6c-2.5,0-3.3,0.6-4,1.8v14.8h-7.4L61,13.8
	L61,13.8z"/>
<polygon class="st0" points="77.4,13.8 84.8,13.8 84.8,36.7 77.4,36.7 77.4,13.8 "/>
<path class="st0" d="M87.4,13.8h7.3v3h0.1c1.4-2.2,3.9-3.6,6.5-3.6c2.2,0,4.5,1.4,4.6,3.6h0.1c1.4-2.2,3.9-3.5,6.5-3.5
	c3,0,5.2,1.6,5.2,4.8v18.6h-7.4V20.4c0-1.1-0.3-2-1.7-2c-0.8,0-1.5,0.4-1.9,1l-0.5,0.6v16.7h-7.4V20.4c0-1.1-0.5-2-1.8-2
	c-0.8,0-1.5,0.4-1.9,1L94.7,20v16.7h-7.3L87.4,13.8L87.4,13.8z"/>
<path class="st0" d="M120.2,4.2h7.4V15h0.1c1.2-1.1,2.8-1.7,4.5-1.8c5,0,7.9,5,7.9,11.7c0,5.3-2.2,12-8.4,12
	c-2.6,0.1-4.9-1.3-6.2-3.6l-1.4,3.4h-3.9L120.2,4.2L120.2,4.2z M127.6,29.3c-0.1,1.9,1,3,2.5,3c2,0,2.4-2.1,2.4-6.3v-1.7
	c0-4.5,0-7-2.4-7c-0.8,0.1-1.5,0.4-2,1l-0.5,0.3L127.6,29.3L127.6,29.3z"/>
<polygon class="st0" points="142,4.2 149.4,4.2 149.4,36.7 142,36.7 142,4.2 "/>
<path class="st0" d="M158.7,26.2c0,2,0.3,5.5,3.4,5.5c1.8-0.1,3.3-1.4,3.7-3.1l4.9,1.8c-1.4,3.9-5.1,6.4-9.2,6.3
	c-7.1,0-10.2-5.7-10.2-12.1s3.4-11.9,10.2-11.9c7.1,0,9.5,6.1,9.5,12v1.6H158.7z M164.2,21.8c0-2.1-0.2-4.6-2.8-4.6
	c-2,0-2.7,2.5-2.7,4.6H164.2z"/>
<polygon class="st0" points="77.4,4 84.8,4 84.8,10.7 77.4,10.7 77.4,4 "/>
<path class="st0" d="M26.7,28.6c-0.1,0.5-0.3,0.9-0.4,1.4c-0.1,0.1-0.1,0.3-0.1,0.5c-0.3,0.3-0.6,0.6-0.7,0.6
	c-1.5,1.3-3.2,2.3-5.1,2.9c-1.5,0.4-3,0.6-4.5,0.6l-3.1,1.7c2.7,0.7,5.6,0.5,8.2-0.3c2.2-0.6,4.2-1.7,5.8-3.3c1.6-1.3,3-2.9,3.8-4.8
	c0.2-0.5,0.4-1,0.7-1.6L26.7,28.6L26.7,28.6z"/>
<path class="st0" d="M15.5,6.3h0.9l-1,0.3l2.8,1.6c2.3-0.1,4.5,0.8,6,2.5c-0.3,0-0.7,0.1-1.1,0.1l4.8,2.6v-0.1
	c0.2,0.1,0.4,0.2,0.4,0.5l3.3,1.7c-0.1-0.1-0.1-0.2-0.1-0.3c0-0.1-0.1-0.1-0.1-0.2s-0.1-0.2-0.1-0.3c-1-2.6-2.7-4.9-4.9-6.6
	c0-0.1-0.1-0.1-0.2-0.2c-2.4-2-5.4-3.1-8.5-3.4h-0.3c-1-0.1-2.1-0.1-3.1,0c0,0.1-0.1,0.1-0.2,0.1c-0.4,0-0.8,0.1-1.1,0.2
	c-0.2,0-0.6,0.1-0.8,0.1l2.9,1.7C15.1,6.3,15.3,6.3,15.5,6.3z"/>
<path class="st0" d="M3.1,25.6c-0.4-1-0.7-2-0.8-3C2.1,21.8,2,20.9,2.1,20c0-0.5,0.1-1,0.1-1.5c0.2-1.2,0.5-2.4,1-3.6v-4.3
	c-0.5,0.7-1,1.5-1.4,2.4c-0.9,1.6-1.4,3.4-1.7,5.2C0,18.8,0,19.4,0,20c0,0.9,0,1.9,0.1,2.8c0.2,1.4,0.6,2.7,1.2,4
	c0.4,1,0.9,1.9,1.5,2.7c0,0.1,0.1,0.1,0.1,0.2s0.1,0.2,0.2,0.3v-4.7C3.2,25.5,3.1,25.5,3.1,25.6L3.1,25.6z"/>
<path class="st0" d="M27.1,18.1c-0.1,0.3-0.4,0.6-0.7,0.9c0.8,1.3,1.4,2.8,1.8,4.3c0.2-0.2,0.4-0.4,0.4-0.7c1.4-2.2,1.6-4.8,0.7-7.2
	c-0.1-0.1-0.1-0.1-0.1-0.2l-0.3-0.7c0-0.1-0.1-0.2-0.2-0.3c0-0.2-0.2-0.4-0.3-0.5l-0.4-0.3C28.3,15,28,16.7,27.1,18.1L27.1,18.1z"/>
<path class="st0" d="M14.4,6.4h-0.1c-0.7,0.1-1.3,0.2-2,0.5C12.9,7,13.4,7.2,14,7.4c0.4-0.3,0.9-0.6,1.5-0.8l-0.6-0.2H14.4z"/>
<path class="st0" d="M31.3,26.2l10.1-5.5l-9.8-5.3C32.7,18.9,32.6,22.7,31.3,26.2L31.3,26.2z"/>
<path class="st0" d="M17.6,8.2L17.6,8.2c-0.4,0.1-0.8,0.2-1.2,0.3c1.5,0.8,2.9,1.8,4.1,2.9c0.9-0.3,1.8-0.5,2.6-0.7l-4.8-2.6
	L17.6,8.2z"/>
<path class="st0" d="M22.3,28.9c-5.7,0.6-11.3-1.7-14.9-6.2c-1.2,1.3-2.1,2.8-2.6,4.5c-0.1,0.5-0.1,1,0,1.5C5,29,5.2,29.2,5.4,29.5
	c1.8,2.1,4.2,3.6,6.9,4.4c1.2,0.3,2.4,0.5,3.6,0.6l10.8-5.8c0-0.5,0.1-0.9,0.1-1.4C25.4,28.1,23.9,28.6,22.3,28.9L22.3,28.9z"/>
<path class="st0" d="M7.6,19.2c1.4-1.2,2.9-2.4,4.4-3.5l-0.3-0.7l0,0c-0.7-1.9-0.5-4,0.6-5.7c0-0.1,0.1-0.2,0.1-0.3
	c-1-0.3-2.1-0.4-3.1-0.2C8.5,9.3,8,9.9,7.7,10.6c-0.8,1.2-1.2,2.7-1.2,4.1c0,1.1,0.2,2.1,0.6,3.1C7.2,18.3,7.4,18.7,7.6,19.2
	L7.6,19.2z"/>
<path class="st0" d="M13.6,14.3c0,0.1,0,0.2,0.1,0.3c1.4-0.9,2.9-1.7,4.4-2.4c-1.2-1-2.5-1.8-3.8-2.5L14,10.5
	C13.2,11.6,13,13,13.6,14.3L13.6,14.3z"/>
<path class="st0" d="M21.7,19.1c0.7-0.1,1.4-0.2,2-0.6c-1.1-1.7-2.4-3.3-3.8-4.7c-0.3,0.1-0.5,0.2-0.8,0.3c-1.5,0.6-3,1.4-4.4,2.2
	C16.5,18.4,19.1,19.5,21.7,19.1L21.7,19.1z"/>
<path class="st0" d="M7.9,6.5c1.2-0.8,2.6-1.4,4-1.8L3.1,0v10.7C4.4,9,6,7.5,7.9,6.5L7.9,6.5z"/>
<path class="st0" d="M25.3,17c0.7-1.2,0.9-2.6,0.3-3.9c0-0.1-0.1-0.2-0.1-0.3c-1.1,0-2.3,0.1-3.4,0.5c1.2,1.2,2.2,2.5,3.1,3.9V17
	L25.3,17z"/>
<path class="st0" d="M21.9,26.7c1.6-0.2,3.2-0.8,4.6-1.7c-0.4-1.7-1-3.3-1.8-4.7c-0.8,0.5-1.7,0.8-2.7,0.9c-3.4,0.4-6.8-1-9-3.7
	c-1.5,1.1-2.9,2.3-4.3,3.6C11.9,25.2,16.9,27.3,21.9,26.7L21.9,26.7z"/>
<path class="st0" d="M6.1,20.9c-0.4-0.7-0.8-1.5-1-2.2c-0.8-2-0.9-4.3-0.4-6.4c-0.4,0.5-0.7,1.1-1,1.7l0,0c-0.1,0.3-0.3,0.7-0.4,1
	v10.4C3.9,23.7,4.9,22.2,6.1,20.9L6.1,20.9z"/>
<path class="st0" d="M29.5,25.2l-0.7,0.7v0.8C29,26.2,29.3,25.7,29.5,25.2L29.5,25.2z"/>
<path class="st0" d="M3.9,30.9c-0.2-0.2-0.4-0.6-0.7-0.8v11.2l9.5-5.2c-0.4,0-0.8-0.1-1.1-0.2C8.6,35,5.9,33.3,3.9,30.9L3.9,30.9z"
	/>
<polygon class="st0" points="171.9,36.6 171.9,34.4 171.1,34.4 171.1,34 172.9,34 172.9,34.4 172.3,34.4 172.3,36.6 171.9,36.6 "/>
<polygon class="st0" points="173.6,36.6 173.3,36.6 173.3,34 173.7,34 174.5,36 175.3,34 175.7,34 175.7,36.6 175.4,36.6 
	175.4,34.4 175.4,34.4 174.6,36.6 174.4,36.6 173.6,34.4 173.6,34.4 173.6,36.6 "/>
</svg>
