<?xml version="1.0" encoding="utf-8"?>
<!-- Generator: Adobe Illustrator 20.0.0, SVG Export Plug-In . SVG Version: 6.00 Build 0)  -->
<svg version="1.1" id="Layer_1" xmlns="http://www.w3.org/2000/svg" xmlns:xlink="http://www.w3.org/1999/xlink" x="0px" y="0px"
	 viewBox="0 0 120.1 22.6" style="enable-background:new 0 0 120.1 22.6;" xml:space="preserve">
<style type="text/css">
	.st0{fill:#FFFFFF;}
	.st1{fill:none;}
</style>
<title>Artboard 2</title>
<polygon class="st0" points="0.1,0.2 5.5,0.2 5.5,7.4 9.7,7.4 9.7,0.1 15.1,0.1 15.1,17.7 9.7,17.7 9.7,9.6 5.5,9.6 5.5,17.6 
	0.1,17.6 "/>
<polygon class="st0" points="0.1,0.2 5.5,0.2 5.5,7.4 9.7,7.4 9.7,0.1 15.1,0.1 15.1,17.7 9.7,17.7 9.7,9.6 5.5,9.6 5.5,17.6 
	0.1,17.6 "/>
<path class="st0" d="M30.1,7.8c-0.7-1.4-1.9-2.4-3.4-2.9c-1-0.4-2-0.5-3.1-0.5c-0.4,0-0.9,0.1-1.5,0.3c-1.8,0.3-3.3,1.2-4.4,2.6
	c-1.2,1.8-1.5,4-0.9,6.1c0.4,1.4,1.2,2.6,2.4,3.5c1.3,0.9,2.9,1.4,4.5,1.3c1.3,0,2.6-0.3,3.8-0.8c1.4-0.8,2.5-2,3-3.5
	C31.2,11.9,31.1,9.7,30.1,7.8z M25.7,13.7c0,1-0.4,1.9-1,2.6c-0.6,0.5-1.4,0.4-1.9-0.2c-0.1-0.1-0.1-0.2-0.2-0.3
	C22.1,15,21.9,14.3,22,12c0.1-2.3-0.1-3.8,0.3-4.7c0.4-0.9,0.9-1.3,1.3-1.4c0.8-0.1,1.4,0.4,1.8,1.5c0.2,0.7,0.3,1.4,0.3,2.1
	C25.7,11.2,25.7,13.3,25.7,13.7z"/>
<path class="st1" d="M25.4,7.4c0.2,0.7,0.3,1.4,0.3,2.1c0,1.7,0,3.8,0,4.2c0,1-0.4,1.9-1,2.6c-0.6,0.5-1.4,0.4-1.9-0.2
	c-0.1-0.1-0.1-0.2-0.2-0.3C22.1,15,21.9,14.3,22,12s-0.1-3.8,0.3-4.7s0.9-1.3,1.3-1.4C24.4,5.8,25,6.3,25.4,7.4L25.4,7.4z M23.6,4.4
	c1.1,0,2.1,0.1,3.1,0.5c1.5,0.5,2.7,1.5,3.4,2.9c1,1.9,1.1,4.1,0.4,6.1c-0.5,1.5-1.6,2.7-3,3.5c-1.2,0.5-2.5,0.8-3.8,0.8
	c-1.6,0.1-3.2-0.4-4.5-1.3c-1.2-0.9-2-2.1-2.4-3.5c-0.6-2.1-0.3-4.3,0.9-6.1c1.1-1.4,2.6-2.3,4.4-2.6C22.7,4.5,23.2,4.4,23.6,4.4
	L23.6,4.4z"/>
<path class="st0" d="M37.5,8.4v9.1h-5V4.9h5v1.7c0.4-0.6,1-1.1,1.7-1.5c1.4-0.7,3.1-0.8,4.6-0.2c1.2,0.5,2.1,1.7,2.1,3v9.7h-5V8.7
	c0-0.5-0.1-1-0.4-1.3C40,7,39.3,6.9,38.7,7.2C38,7.6,37.3,8.4,37.5,8.4L37.5,8.4z"/>
<path class="st0" d="M37.5,8.4v9.1h-5V4.9h5v1.7c0.4-0.6,1-1.1,1.7-1.5c1.4-0.7,3.1-0.8,4.6-0.2c1.2,0.5,2.1,1.7,2.1,3v9.7h-5V8.7
	c0-0.5-0.1-1-0.4-1.3C40,7,39.3,6.9,38.7,7.2C38,7.6,37.3,8.4,37.5,8.4L37.5,8.4z"/>
<path class="st0" d="M61.7,12c0.1-1.5-0.2-2.9-0.8-4.2c-1.1-2.1-2.9-3.2-6-3.4c-2.7-0.2-5.3,1.2-6.7,3.5c-0.8,1.8-0.9,3.8-0.4,5.5
	c0.4,1.2,1.1,2.2,2.1,3c1.8,1.4,4.1,1.9,6.3,1.5c1.5-0.2,3-0.8,4.2-1.9c0.5-0.5,0.9-1.3,0.9-2.1h-2.1c-0.1,0,0,2-2.7,2.4
	c-2.5,0.4-3.3-0.6-3.5-0.9c-0.1-0.3-0.2-0.5-0.3-0.8V12H61.7z M52.8,7.8c0.1-0.7,0.5-1.3,1-1.7c0.6-0.4,1.4-0.4,2,0.1
	c0.3,0.3,0.6,0.8,0.7,1.2c0.1,0.6,0.2,1.1,0.2,1.7c0,0.7,0,1.1,0,1.1l-4,0.1C52.7,9.5,52.7,8.7,52.8,7.8z"/>
<path class="st1" d="M48.2,7.9c1.4-2.3,4-3.7,6.7-3.5c3.1,0.2,4.9,1.3,6,3.4c0.6,1.3,0.9,2.7,0.8,4.2h-9v2.6
	c0.1,0.3,0.2,0.5,0.3,0.8c0.2,0.3,1,1.3,3.5,0.9c2.7-0.4,2.6-2.4,2.7-2.4h2.1c0,0.8-0.4,1.6-0.9,2.1c-1.2,1.1-2.7,1.7-4.2,1.9
	c-2.2,0.4-4.5-0.1-6.3-1.5c-1-0.8-1.7-1.8-2.1-3C47.3,11.7,47.4,9.7,48.2,7.9L48.2,7.9z M52.7,10.3c0-0.8,0-1.6,0.1-2.5
	c0.1-0.7,0.5-1.3,1-1.7c0.6-0.4,1.4-0.4,2,0.1c0.3,0.3,0.6,0.8,0.7,1.2c0.1,0.6,0.2,1.1,0.2,1.7c0,0.7,0,1.1,0,1.1L52.7,10.3
	L52.7,10.3z"/>
<path class="st0" d="M107.4,12c0.1-1.5-0.2-2.9-0.8-4.2c-1.1-2.1-2.9-3.2-6-3.4c-2.7-0.2-5.3,1.2-6.7,3.5c-0.9,1.8-1,3.8-0.4,5.5
	c0.4,1.2,1.1,2.2,2.1,3c1.8,1.4,4.1,1.9,6.3,1.5c1.5-0.2,3-0.8,4.2-1.9c0.5-0.5,0.9-1.3,0.9-2.1h-2.1c-0.1,0,0,2-2.7,2.4
	c-2.5,0.4-3.3-0.6-3.5-0.9s-0.3-0.5-0.3-0.8V12H107.4z M98.3,10.3c0-0.8,0-1.6,0.1-2.5c0.1-0.7,0.5-1.3,1-1.7c0.6-0.4,1.4-0.4,2,0.1
	c0.3,0.3,0.6,0.8,0.7,1.2c0.1,0.6,0.2,1.1,0.2,1.7c0,0.7,0,1.1,0,1.1L98.3,10.3z"/>
<path class="st1" d="M93.9,7.9c1.4-2.3,4-3.7,6.7-3.5c3.1,0.2,4.9,1.3,6,3.4c0.6,1.3,0.9,2.7,0.8,4.2h-9v2.6c0,0.3,0.1,0.5,0.3,0.8
	c0.2,0.3,1,1.3,3.5,0.9c2.7-0.4,2.6-2.4,2.7-2.4h2.1c0,0.8-0.4,1.6-0.9,2.1c-1.2,1.1-2.7,1.7-4.2,1.9c-2.2,0.4-4.5-0.1-6.3-1.5
	c-1-0.8-1.7-1.8-2.1-3C92.9,11.7,93,9.7,93.9,7.9L93.9,7.9z M98.3,10.3c0-0.8,0-1.6,0.1-2.5c0.1-0.7,0.5-1.3,1-1.7
	c0.6-0.4,1.4-0.4,2,0.1c0.3,0.3,0.6,0.8,0.7,1.2c0.1,0.6,0.2,1.1,0.2,1.7c0,0.7,0,1.1,0,1.1L98.3,10.3L98.3,10.3z"/>
<path class="st0" d="M61.3,4.9h5.5l2.3,6l2.5-6h6.9l2.2,7.1l2-7.1h4.4l2.2,7l1.9-7h2.3L90,17.6h-4.1l-2.3-7.4l-2,7.4h-4.2l-4-12.3
	l-5.3,13c-0.4,1.1-0.9,2.1-1.7,3c-0.9,1-2.3,1.4-3.7,1.1c-1.7-0.3-2.4-1.2-2.5-2.2c-0.2-1.1,0.5-2.1,1.6-2.4
	c0.8-0.3,1.8,0.1,2.3,0.8c0.3,0.5,0.3,1.1,0.2,1.6c-0.1,0.2-0.2,0.4-0.4,0.6c0.5,0.1,1-0.1,1.3-0.5c0.5-0.6,0.9-1.2,1.1-2
	c0.1-0.2,0.1-0.3,0.1-0.5L61.3,4.9L61.3,4.9z"/>
<path class="st0" d="M61.3,4.9h5.5l2.3,6l2.5-6h6.9l2.2,7.1l2-7.1h4.4l2.2,7l1.9-7h2.3L90,17.6h-4.1l-2.3-7.4l-2,7.4h-4.2l-4-12.3
	l-5.3,13c-0.4,1.1-0.9,2.1-1.7,3c-0.9,1-2.3,1.4-3.7,1.1c-1.7-0.3-2.4-1.2-2.5-2.2c-0.2-1.1,0.5-2.1,1.6-2.4
	c0.8-0.3,1.8,0.1,2.3,0.8c0.3,0.5,0.3,1.1,0.2,1.6c-0.1,0.2-0.2,0.4-0.4,0.6c0.5,0.1,1-0.1,1.3-0.5c0.5-0.6,0.9-1.2,1.1-2
	c0.1-0.2,0.1-0.3,0.1-0.5L61.3,4.9L61.3,4.9z"/>
<polygon class="st0" points="108.9,0.1 113.7,0.1 113.7,17.6 108.9,17.6 "/>
<polygon class="st0" points="108.9,0.1 113.7,0.1 113.7,17.6 108.9,17.6 "/>
<polygon class="st0" points="115.2,0.1 120,0.1 120,17.6 115.2,17.6 "/>
<polygon class="st0" points="115.2,0.1 120,0.1 120,17.6 115.2,17.6 "/>
</svg>
