<svg xmlns="http://www.w3.org/2000/svg" viewBox="0 0 150.35 35.52"><defs><style>.cls-1{fill:#fff;}</style></defs><title>McAfree</title><g id="Layer_2" data-name="Layer 2"><g id="icons"><path class="cls-1" d="M80.53,25.1a7.48,7.48,0,0,1-3.17.67,4,4,0,0,1-4.26-4,3.83,3.83,0,0,1,4-4.16,6.41,6.41,0,0,1,3.35.8V14.28a9.92,9.92,0,0,0-4.08-.77c-5.18,0-9,3-9,8.21s3.86,8.18,9,8.18a14.74,14.74,0,0,0,4.19-.62Z"/><path class="cls-1" d="M118.72,23.29c.33,1.78,1.53,2.86,4.15,2.86a12,12,0,0,0,4.73-1v3.75a15.33,15.33,0,0,1-5.68,1c-5.11,0-8.83-3-8.83-8.21s3.12-8.18,7.93-8.18c5.74,0,7.71,4.12,7.71,8.79v1Zm4.89-3.07c0-1.81-.75-3.16-2.59-3.16-1.66,0-2.31,1.35-2.41,3.16Z"/><path class="cls-1" d="M135.86,23.29c.33,1.78,1.53,2.86,4.15,2.86a12,12,0,0,0,4.73-1v3.75a15.33,15.33,0,0,1-5.68,1c-5.11,0-8.83-3-8.83-8.21s3.12-8.18,7.93-8.18c5.74,0,7.71,4.12,7.71,8.79v1Zm4.88-3.07c0-1.81-.75-3.16-2.59-3.16-1.66,0-2.31,1.35-2.41,3.16Z"/><polygon class="cls-1" points="66.54 29.55 63.48 6.73 56.41 6.73 53.03 22.09 49.91 6.73 42.81 6.73 39.49 29.55 45.02 29.55 46.84 15.26 49.95 29.55 55.92 29.55 59.31 15.26 61.05 29.55 66.54 29.55"/><path class="cls-1" d="M109.59,12.83c0-1.67.45-2.72,2-2.92a5.88,5.88,0,0,1,1.76.08V6a13.28,13.28,0,0,0-2.52-.26c-4.47,0-6.75,2-6.75,7.09v1.05h-2.7V18h2.7V29.55h5.51V18h3.34V13.89h-3.34Z"/><path class="cls-1" d="M102.67,29.55H96.57l-1.16-4.84h-6.7l-1.24,4.84H81.63L88.36,6.73H96ZM89.83,20.33h4.53l-2.19-9.15Z"/><path class="cls-1" d="M148.11,13.51a2.24,2.24,0,1,1-2.24,2.24A2.24,2.24,0,0,1,148.11,13.51Zm0,4.18a1.93,1.93,0,1,0-1.9-1.93A1.88,1.88,0,0,0,148.11,17.69Zm-.86-3.25h1c.6,0,.9.24.9.74a.67.67,0,0,1-.68.72l.75,1.17h-.45l-.72-1.17h-.37v1.17h-.43Zm.43,1.13h.51c.33,0,.54-.07.54-.41s-.21-.38-.54-.38h-.51Z"/><path class="cls-1" d="M17.16,35.52c15.42-7,17.16-22.05,17.16-29A28.25,28.25,0,0,0,34,2.26L32.62,3.5c.06.58.14,1.64.13,3,0,6.69-1.74,20.72-15.6,27.26Z"/><path class="cls-1" d="M17.16,1.55a72,72,0,0,0-15.47,2L.28,2.26A73.21,73.21,0,0,1,17.16,0,73.21,73.21,0,0,1,34,2.26L32.62,3.5A72,72,0,0,0,17.16,1.55Z"/><path class="cls-1" d="M17.16,33.8C3.3,27.27,1.56,13.23,1.55,6.54c0-1.4.08-2.46.13-3L.28,2.26A28.22,28.22,0,0,0,0,6.54c0,6.92,1.73,22,17.16,29Z"/><path class="cls-1" d="M29.89,5.33A115.4,115.4,0,0,1,17.16,6,115.4,115.4,0,0,1,4.42,5.33q-.09,1.35-.08,2.62c0,16.66,10.75,22,12.81,22.9C19.22,30,30,24.61,30,7.95,30,7.1,29.95,6.23,29.89,5.33ZM15.37,21.51,13.73,14l-1.15,7.49H9.32L11.46,8.1h3.45l4.25,13.41Zm6.37,0L20.66,14l-1.16,5.69L17.66,14l2-5.87H23l2,13.41Z"/></g></g></svg>