<?xml version="1.0" encoding="utf-8"?>
<!-- Generator: Adobe Illustrator 20.0.0, SVG Export Plug-In . SVG Version: 6.00 Build 0)  -->
<svg version="1.1" id="Layer_1" xmlns="http://www.w3.org/2000/svg" xmlns:xlink="http://www.w3.org/1999/xlink" x="0px" y="0px"
	 viewBox="0 0 194 67.5" style="enable-background:new 0 0 194 67.5;" xml:space="preserve">
<style type="text/css">
	.st0{fill:#FFFFFF;}
</style>
<g>
	<g>
		<g>
			<path class="st0" d="M59.9,39.1V26.8h1.7v12.3H59.9z M67.4,27c0.5,0,0.9,0.1,1.3,0.3v1.5c-0.4-0.2-0.8-0.3-1.1-0.3
				c-0.6,0-0.9,0.3-1.2,0.7c0,0-0.1,0.1-2.7,3.4l5,6.4l-1.5,0.6l-5.5-7l3.5-4.4C65.9,27.2,66.7,27,67.4,27z"/>
			<path class="st0" d="M76.8,36.8c0,0,0,2.5-3.7,2.5c-3.7,0-3.7-2.1-3.7-2.5v-5.2c0-0.4,0.2-2.5,3.7-2.5c3.7,0,3.7,2.1,3.7,2.5
				V36.8z M75.3,32c0-0.3-0.1-1.5-2.1-1.5c-2,0-2.1,1.1-2.1,1.5v4.5c0,0.4,0.2,1.4,2.1,1.4c2,0,2.1-1,2.1-1.4V32z"/>
			<path class="st0" d="M77.6,37.7h0.7l0.5-1.2v-7.1h7.3v8.3h1.2v3.7h-0.7l-1-2.3h-6.4l-1,2.3h-0.7V37.7z M79.9,37.7h4.7v-7h-4.2
				v5.9L79.9,37.7z"/>
			<path class="st0" d="M91.9,37.2v-8.1c0-2.5,2.7-2.5,2.7-2.5c1,0,4.4,0.6,4.4,0.6l-0.2,1.4c-1.6-0.4-4.1-0.6-4.1-0.6
				c-1.4,0-1.4,1.6-1.4,1.6v2c0.8-0.3,2-0.7,3.2-0.7c0.5,0,2.4,0.2,2.4,2.5v3.2c0,2.7-2.5,2.7-2.5,2.7c-1.5,0-2.8-1.2-3.1-1.4
				c0,0-0.5,1.2-0.5,1.2l-1.5-0.4L91.9,37.2z M93.4,36.6c1.7,1.4,2.7,1.4,2.7,1.4c1,0,1.4-0.7,1.4-1.4v-3.3c0-0.5-0.5-1-1.5-1
				c-0.4,0-1.3,0.1-2.6,0.7V36.6z"/>
			<path class="st0" d="M102.6,36.7c0,0.6,0.4,1.2,1.4,1.2c0.4,0,2.3-0.2,3.7-0.9l0.6,1.2c0,0-2.1,1.1-4.8,1.1
				c-0.6,0-2.5-0.1-2.5-2.5v-5c0-0.4,0.2-2.5,3.7-2.5c3.4,0,3.5,1.8,3.5,2.4v3.2h-5.6V36.7z M102.6,33.5h4.1V32
				c0-0.4-0.1-1.4-1.9-1.4c-2,0-2.1,1.1-2.1,1.5V33.5z"/>
			<path class="st0" d="M124.9,36.8c0,0,0,2.5-3.7,2.5s-3.7-2.1-3.7-2.5v-5.2c0-0.4,0.2-2.5,3.7-2.5c3.7,0,3.7,2.1,3.7,2.5V36.8z
				 M123.4,32c0-0.3-0.1-1.5-2.1-1.5s-2.1,1.1-2.1,1.5v4.5c0,0.4,0.2,1.4,2.1,1.4s2.1-1,2.1-1.4V32z"/>
			<path class="st0" d="M125.7,29.4h9.5v1.3h-1.2V39h-1.6v-8.3h-4.1V39h-1.5v-8.3h-1.2V29.4z"/>
			<path class="st0" d="M144.1,38.7l-1.2,0.6l-1.1-1.5c-1.2,1.4-3.5,1.5-3.5,1.5c-0.5,0-2.4-0.1-2.4-2.5v-1.2c0,0,0-1.8,2.6-2.3
				l3.1-0.5v-0.9c0,0,0-1.4-1.4-1.4c-0.4,0-1.7,0.1-3.2,1l-0.6-1.1c0,0,1.9-1.2,4.2-1.2c0.5,0,2.4,0.1,2.4,2.5v5.3L144.1,38.7z
				 M141.6,34.1l-3.1,0.5c0,0-1.1,0.3-1.1,1v1.2c0,0,0,1.1,1.4,1.1c1.4,0,2.8-1.3,2.8-1.3L141.6,34.1z"/>
			<path class="st0" d="M145.1,31.7c0-2.4,1.9-2.5,2.5-2.5c2.6,0,4.2,0.9,4.2,0.9l-0.6,1.2c-1.4-0.7-2.8-0.8-3.2-0.8
				c-1,0-1.4,0.6-1.4,1.2v4.9c0,0.6,0.4,1.2,1.4,1.2c0.4,0,1.8-0.1,3.2-0.8l0.6,1.2c0,0-1.6,0.9-4.2,0.9c-0.6,0-2.5-0.1-2.5-2.5
				V31.7z"/>
			<path class="st0" d="M154.6,29.4v3.7h4.1v-3.7h1.6V39h-1.6v-4.6h-4.1V39h-1.6v-9.7H154.6z"/>
			<path class="st0" d="M169.3,36.8c0,0,0,2.5-3.7,2.5c-3.7,0-3.7-2.1-3.7-2.5v-5.2c0-0.4,0.2-2.5,3.7-2.5c3.7,0,3.7,2.1,3.7,2.5
				V36.8z M167.8,32c0-0.3-0.1-1.5-2.1-1.5c-2,0-2.1,1.1-2.1,1.5v4.5c0,0.4,0.2,1.4,2.1,1.4c2,0,2.1-1,2.1-1.4V32z"/>
			<path class="st0" d="M171,31.7c0-2.4,1.9-2.5,2.5-2.5c2.6,0,4.2,0.9,4.2,0.9l-0.6,1.2c-1.4-0.7-2.8-0.8-3.2-0.8
				c-1,0-1.4,0.6-1.4,1.2v4.9c0,0.6,0.4,1.2,1.4,1.2c0.4,0,1.8-0.1,3.2-0.8l0.6,1.2c0,0-1.6,0.9-4.2,0.9c-0.6,0-2.5-0.1-2.5-2.5
				V31.7z"/>
			<path class="st0" d="M116.4,32.2v-0.5c0-2.5-3.1-2.4-3.1-2.4c-1.3,0-2.8,0.7-3.5,1.1c0,0,0.3,0.5,0.5,1c0.7-0.3,1.8-0.7,2.7-0.7
				c2.1,0,1.9,1,1.9,1.2c0,0.2,0,0.3,0,0.3c0,1-1.9,1-1.9,1h-1.5v1.3h1.5c0,0,1.9-0.1,1.9,1v1.3c0,0,0.2,1.4-1.9,1.1
				c-0.4-0.1-2.2-0.5-2.9-0.9c-0.2,0.8-0.3,1.1-0.4,1.1c0.7,0.4,2.9,1.1,3.7,1.1c0.5,0,3-0.1,3-2.5v-1.3c0,0,0-1.5-1.4-1.6
				C116.3,33.7,116.4,32.2,116.4,32.2z"/>
			<path class="st0" d="M192.5,32.4l-4.1,6.3V39h-1.6v-9.7h1.6v6.8l4.1-6.4v-0.4h1.6V39h-1.6V32.4z"/>
			<path class="st0" d="M181.2,39v-8.4h-2.7v-1.4h6.8v1.4h-2.6V39H181.2z"/>
		</g>
		<g>
			<path class="st0" d="M46.1,27.4c0-1.5-1.2-2.6-2.7-3.5c-2.7-1.5-7.3-2.7-13-3.5v-6.9c0-0.2-0.1-0.5-0.3-0.6
				c-0.2-0.2-0.4-0.3-0.6-0.3c-6.4,0-12.4-0.5-17.1-1.4v-10c0-0.3-0.1-0.5-0.3-0.7c-0.2-0.2-0.5-0.2-0.7-0.2C8,1.2,5.3,2,3.4,2.9
				C1.5,3.9,0.1,5,0,6.7c0,0,0,0,0,0c0,0,0,0,0,0v33.8l0,0h0C0,42,1.2,43.1,2.7,44c2.7,1.5,7.3,2.7,13,3.5v6.9
				c0,0.2,0.1,0.5,0.3,0.6c0.2,0.2,0.4,0.3,0.6,0.3c6.4,0,12.4,0.5,17.1,1.4v10c0,0.3,0.1,0.5,0.3,0.7c0.2,0.1,0.4,0.2,0.6,0.2
				c0.1,0,0.1,0,0.2,0c3.3-0.6,6-1.4,7.9-2.4c1.9-1,3.3-2.1,3.4-3.7c0,0,0,0,0-0.1V27.4z M35.5,33.5c3-0.6,5.4-1.4,7.2-2.3
				c0.6-0.3,1.1-0.6,1.6-0.9v28.1v2.8v0.1h0c0.1,0.4-0.6,1.4-2.4,2.2c-1.5,0.8-3.7,1.5-6.4,2L35.5,33.5z M17.5,21.5
				c7.5,0.1,14.2,0.8,19.1,2c2.5,0.6,4.6,1.3,5.9,2.1c1.4,0.8,1.8,1.5,1.8,1.9v0.1c-0.1,0.5-0.7,1.3-2.4,2.1
				c-1.7,0.9-4.3,1.6-7.5,2.3c-0.4,0.1-0.7,0.4-0.7,0.9l0,22c-4.6-0.8-10.2-1.3-16.2-1.4V21.5z M3.6,42.4c-1.4-0.8-1.8-1.5-1.8-1.9
				h0V9.6c0.3,0.2,0.6,0.4,0.9,0.6c4.5,2.6,14.3,4.2,25.9,4.3v5.8c-3.7-0.4-7.7-0.6-12-0.6c-0.2,0-0.5,0.1-0.6,0.3
				c-0.2,0.2-0.3,0.4-0.3,0.6v25.1c-2.3-0.3-4.4-0.7-6.2-1.1C6.9,43.9,4.9,43.2,3.6,42.4z M10.6,11c-0.4-0.1-0.8-0.2-1.1-0.3
				c-2.5-0.6-4.6-1.3-5.9-2.1C2.2,7.9,1.7,7.1,1.8,6.7c0,0,0,0,0,0c0-0.4,0.6-1.4,2.4-2.2c1.5-0.8,3.7-1.5,6.4-2L10.6,11z"/>
		</g>
	</g>
</g>
</svg>
