<svg id="Layer_1" data-name="Layer 1" xmlns="http://www.w3.org/2000/svg" viewBox="0 0 841.89 595.28"><defs><style>.cls-1{fill:#fff;}</style></defs><title>Artboard 1</title><path class="cls-1" d="M484.08,395.57V302A126.35,126.35,0,0,0,357.73,175.64h-.33v43.57h.33A82.78,82.78,0,0,1,440.51,302v93.58a82.77,82.77,0,0,1-82.78,82.78H330.87v-.18h-145c-35.59-1-78.79-24.19-82.78-82.78V80.07H59.55V395.39c0,69.78,61.94,126.54,126.35,126.35H329.44v.18h28.29A126.35,126.35,0,0,0,484.08,395.57"/><path class="cls-1" d="M226.48,218.85H333.61V175.29H226.48c-48.46,0-95.64,32.75-95.64,82v112.1c0,47,21.32,84.23,96,82H350.53c31-3,49.5-19.7,58.17-43.56H226.14c-38.52,1.2-51.74-19-51.74-38.42V257.27c0-17.26,18.93-38.42,52.07-38.42"/><path class="cls-1" d="M144.43,116.58h7.48c7.58,0,15.64,3.55,15.64,13.43,0,8.49-6.53,12.81-14.11,12.81h-9Zm9.6,33.3c13.9,0,23.48-8.66,23.48-20.47,0-11.51-9-17.26-17.85-17.56v-.2c5.18-1,13.72-6.47,13.72-18,0-9.18-7.48-14.44-17.45-14.44h-20.8v70.64Zm-9.6-63.58h7.86c7.68,0,11.79,3.53,11.79,9.8,0,7.56-7,13.42-15.05,13.42h-4.6Zm48.42,13.13h-8.43v50.45H193V122.74c0-11.19,3.63-15.84,8.05-15.84,2.21,0,4.32,1,6.42,2.12l3.93-5.85c-2.7-3.34-5.86-5-8-5s-5.16,1.52-7.18,3.63l-3.45,3.85ZM213,149.88h8.63V99.44H213Zm4.3-61c4.23,0,5.49-3.43,5.49-6.16a5.47,5.47,0,0,0-10.94,0c0,2.73,1.23,6.16,5.45,6.16M269,125.26c1-13.21-3.93-27-18.5-27-10.84,0-22.74,8-22.74,25.44,0,17.76,9.89,27.45,24.85,27.45,5,0,10.94-2.12,15.92-5.85l-2.49-5a23.2,23.2,0,0,1-13.15,4.35c-9.49,0-16.3-9.28-16.2-19.39Zm-31.73-6.05c.28-6.46,3.93-14.54,13.13-14.54,7.58,0,10.74,6.67,10.74,14.54Zm46.7,30.68V104.67h11.49V99.44H283.95V90.35c0-8.18,4.88-8.58,6.32-8.58a15.68,15.68,0,0,1,4.68.71l1.92-4.66a12.74,12.74,0,0,0-7.57-2.11c-5.35,0-14,4-14,17.56v6.16h-7.69v5.24h7.69v45.21Zm70-64.68A31.66,31.66,0,0,0,333.22,78c-24.07,0-37.3,18.57-37.3,36.33,0,19.47,12.18,36.73,36.15,36.73a38.25,38.25,0,0,0,21.09-6.46l-3.65-5.85a28.9,28.9,0,0,1-17,5.25c-14.69,0-26.39-12-26.39-29.87,0-16.56,9.79-29.07,26.39-29.07a29.93,29.93,0,0,1,17.54,6.16Zm30.68,56.12c0,3.23.2,6.46,1.34,8.56h9.4c-1.62-3.63-2.12-8.46-2.12-12.31v-22.2c0-14.74-10.53-17.16-17.72-17.16a21.24,21.24,0,0,0-16.41,6.86l3.36,4.55c3.45-3,7-5.45,12.55-5.45,4.7,0,9.21,3.93,9.59,10.1L373,118.1c-10,3.13-17.08,8.68-17.08,17.46,0,9.48,5.56,15.54,13.62,15.54,4.41,0,8.63-3.13,12-6.66Zm0-21c1.15,15.74-6.72,23.72-12.85,23.72-3.47,0-6.91-3.33-6.91-8.58,0-6.36,3.93-10.2,11.51-12.61Zm26.28-20.89h-8.55v50.45H411v-30c0-9.7,4.7-14.64,12-14.64,7,0,10.84,5,10.84,14.54v30.06h8.63V119.51c0-10.19,5-14.22,12.27-14.22,8.82,0,10.55,7.26,10.55,14.54v30.06h8.62v-33.7c-.28-10.69-5.65-18-16.3-18-5.38,0-11.89,3-16.5,7.48-3-4.15-7.65-7.48-15.23-7.48a19.76,19.76,0,0,0-15,7.48Z"/><path class="cls-1" d="M567.64,409.59A16.8,16.8,0,0,0,557,406c-12.32,0-26,9.33-26,26.71,0,15.12,10.14,21.64,19.94,21.64a29.26,29.26,0,0,0,11.86-2.79l-1.65-3.88a24.8,24.8,0,0,1-9.58,2c-7.74,0-14.35-6-14.35-17.25,0-12.43,8.25-21.78,19-21.78,4.46,0,6.6,1.34,8.64,2.26Zm16.65,9.77c-10.74,0-17.14,10.4-17.14,20.31,0,6.56,3.75,14.69,12.87,14.69,9.41,0,16.06-9.87,16.06-20.44,0-8.81-5.38-14.55-11.78-14.55m-.52,4c6.6,0,6.86,8.3,6.86,10.69,0,8.43-4.25,16.31-10.47,16.31-6.67,0-7.57-7.88-7.57-10.69,0-8,4.07-16.31,11.18-16.31m26.36-3.21h-5l-6,33.42h5.07l2.11-12.16c2.22-12.91,9.52-17.65,12.7-17.65,4,0,4,3.21,2.72,10.62l-3.35,19.19h5.07l2.09-12.16c2.23-12.91,9.54-17.65,12.71-17.65,4,0,4,3.21,2.72,10.62l-3.35,19.19h5.07l3.35-19.25c2-11.62.14-15-6.46-15-4.83,0-10.16,5.14-11.87,8.68l-.15-.13c.4-5-1-8.55-6.26-8.55-5.59,0-10.42,4.73-12.72,8.68l-.11-.13Zm46.58,26.46c1.79-15.37,8.38-22.71,13.21-22.71s5.83,4.68,5.83,7.88c0,11.64-7.1,18.58-11.17,18.58-3.11,0-6-.54-7.87-3.75m4.65-26.46h-5.15l-8.88,50.11h5.13l3.39-19.37a10.83,10.83,0,0,0,8,3.46c11,0,17.38-13.35,17.38-22.18,0-6.69-2.46-12.81-9.14-12.81-5,0-9.39,3.86-11.92,8.13l-.14-.12Zm46.9,10.15c-1,12.18-7.74,19.52-12.89,19.52-3.35,0-5.33-2.93-5.33-8,0-11.51,5.65-18.45,12.13-18.45,3.54,0,6.47,3.88,6.09,6.94m7-10.15H710.1l-.64,3.75h-.12a8.18,8.18,0,0,0-7.06-4.53c-9.78,0-17.71,10.55-17.71,22.71,0,7.21,4,12.28,8.89,12.28,5.44,0,10.34-5.07,11.74-7.19l.13.13-1.15,6.27h5.16Zm13.53,0h-5l-5.95,33.42H723l2.22-12.83c1.51-9,8.38-17,13.58-17,3,0,4.45,1.67,4.45,4.15a27.16,27.16,0,0,1-.64,5.27l-4,20.39h5.13l4-21.13a28.42,28.42,0,0,0,.83-6.29,6.73,6.73,0,0,0-6.85-6.79c-7.67,0-11.68,5.07-14.34,8.93l-.13-.13Zm25.15.27,5.79,31.81L751.38,468l4.19,2.26c8.13-16.29,17.52-32.6,26.91-48.89l-4.13-1.89c-4.89,8.76-9.77,17.58-14.72,27.13h-.14c-1.18-9.55-2.65-18.37-4-27.13Z"/><path class="cls-1" d="M558,348.46c-2-1.86-4.38-3.73-9.77-3.73-7,0-12.57,5.07-12.57,11.09,0,5.09,2.6,8.68,5.32,12,2.55,3.08,7.12,7.89,7.12,13.11a7.72,7.72,0,0,1-8,7.95c-3.81,0-6.6-2.07-8.88-3.95l-2.29,3.75c1.77,2.27,6.09,4.4,10.79,4.4,12.19,0,14.22-9.35,14.22-12.81,0-5.35-3.25-9.83-7.09-14.18-4.15-4.62-5.35-7-5.35-10a7,7,0,0,1,7-7.16c3.44,0,5.33,1.67,6.85,2.48Zm3.24,10.71L567,391l-8.37,15.77,4.2,2.27c8.12-16.31,17.51-32.6,26.91-48.91l-4.14-1.87c-4.88,8.75-9.76,17.58-14.71,27.13h-.13c-1.21-9.55-2.67-18.38-4.06-27.13Zm38.28-.27h-4.94l-6,33.4h5.07l2.23-12.83c1.53-8.95,8.37-17,13.58-17,3.05,0,4.44,1.67,4.44,4.15a27.2,27.2,0,0,1-.64,5.29l-4,20.37h5.14l4-21.11a29.43,29.43,0,0,0,.83-6.29,6.73,6.73,0,0,0-6.86-6.81c-7.68,0-11.67,5.07-14.36,8.95l-.11-.13Zm41.14-.8c-10.74,0-17.14,10.42-17.14,20.32,0,6.54,3.75,14.69,12.9,14.69,9.4,0,16.06-9.88,16.06-20.44,0-8.83-5.39-14.57-11.81-14.57m-.51,4c6.62,0,6.87,8.3,6.87,10.7,0,8.41-4.26,16.31-10.49,16.31-6.66,0-7.54-7.89-7.54-10.69,0-8,4.06-16.32,11.16-16.32m21.27,23.27c1.79-15.37,8.39-22.73,13.21-22.73s5.83,4.68,5.83,7.89c0,11.63-7.11,18.58-11.16,18.58-3.12,0-6-.54-7.88-3.75M666,358.89H660.9L652,409h5.13l3.35-19.37a10.93,10.93,0,0,0,8,3.46c11,0,17.38-13.36,17.38-22.18,0-6.69-2.46-12.83-9.13-12.83-5,0-9.4,3.88-11.93,8.15l-.13-.13Zm44.31,2a12.92,12.92,0,0,0-7.86-2.81c-6.74,0-10,4.4-10,8.28,0,4.28,3.18,7.16,5.27,9.63,3.31,3.88,4.65,4.93,4.65,8.28,0,3.08-2.94,4.82-5.6,4.82a10.73,10.73,0,0,1-7-2.94L687.57,390a14.89,14.89,0,0,0,8.83,3.06c7.18,0,11.41-4.67,11.41-9.48,0-3.88-2.39-6.89-5.12-10.15s-4.78-4.88-4.78-7.76c0-2.27,2.36-3.88,4.27-3.88a9.47,9.47,0,0,1,5.76,2.41Zm8.71-2-6,33.4h5.15l6-33.4Zm3.74-7c2.54,0,4.06-2.74,4.06-4.73a2.75,2.75,0,0,0-2.72-2.88,4.35,4.35,0,0,0-4,4.48c0,.87.14,3.13,2.67,3.13m25.27,9a12.91,12.91,0,0,0-7.86-2.81c-6.74,0-10,4.4-10,8.28,0,4.28,3.17,7.16,5.26,9.63,3.3,3.88,4.63,4.93,4.63,8.28,0,3.08-2.92,4.82-5.58,4.82a10.61,10.61,0,0,1-7-2.94L725.29,390a14.88,14.88,0,0,0,8.81,3.06c7.18,0,11.42-4.67,11.42-9.48,0-3.88-2.41-6.89-5.14-10.15s-4.77-4.88-4.77-7.76c0-2.27,2.35-3.88,4.27-3.88a9.49,9.49,0,0,1,5.75,2.41Z"/><path class="cls-1" d="M544,331l23.44-45.83L563,283.61c-6.36,12.76-15.94,32.33-19.3,39.82h-.12c-.58-7.49-3-27.06-4.69-39.82l-5.66.67L539.91,331Zm25.3-33.4-6,33.4h5.15l6-33.4Zm3.75-7c2.53,0,4-2.73,4-4.74a2.74,2.74,0,0,0-2.73-2.86,4.31,4.31,0,0,0-4,4.47c0,.87.12,3.14,2.66,3.14m27.87,17.12c-1,12.16-7.74,19.52-12.9,19.52-3.36,0-5.32-2.94-5.32-8,0-11.49,5.64-18.45,12.11-18.45,3.56,0,6.49,3.88,6.1,7m9.77-25.87H605.5l-3.43,19.45h-.13a8.16,8.16,0,0,0-7-4.53c-9.79,0-17.72,10.53-17.72,22.71,0,7.23,4,12.29,8.9,12.29,5.46,0,10.34-5.07,11.74-7.21l.13.13L596.79,331h5.14Zm20.77,43.25c-1.65.94-5.21,2.68-8.44,2.68-6.42,0-6.93-6.42-6.67-11,10.42.67,21.2-4.4,21.2-12.43,0-5.48-4-7.61-7.49-7.61-11.23,0-19.16,12.54-19.16,22.58,0,7.36,3.18,12.43,9.9,12.43a24.45,24.45,0,0,0,12.44-3.34ZM617.05,313c1.32-6.67,6.85-12.16,11.17-12.16,2.29,0,4,1.87,3.81,4.68-.33,4-6.16,8.3-15,7.48m39.61-16.15c-10.72,0-17.13,10.42-17.13,20.3,0,6.56,3.73,14.7,12.87,14.7,9.41,0,16.07-9.88,16.07-20.46,0-8.82-5.39-14.55-11.81-14.55m-.5,4c6.6,0,6.86,8.28,6.86,10.69,0,8.43-4.27,16.33-10.47,16.33-6.67,0-7.57-7.9-7.57-10.7,0-8,4.07-16.31,11.18-16.31"/><path class="cls-1" d="M544,269.77l7.57-42.41h12.8l.78-4.35H534l-.76,4.35H546l-7.56,42.41Zm32-49.1H571l-8.77,49.1h5.08l2.22-12.82c1.52-9,8.38-17,13.6-17,3,0,4.44,1.67,4.44,4.15a25.93,25.93,0,0,1-.65,5.29l-4,20.36H588l4-21.1a29,29,0,0,0,.84-6.29,6.75,6.75,0,0,0-6.86-6.81c-7.69,0-11.68,5.07-14.33,8.95l-.14-.13Zm41.7,43.24c-1.66.94-5.21,2.68-8.45,2.68-6.41,0-6.92-6.42-6.67-11,10.42.67,21.21-4.41,21.21-12.43,0-5.47-4-7.61-7.49-7.61-11.22,0-19.16,12.56-19.16,22.58,0,7.36,3.17,12.43,9.89,12.43a24.5,24.5,0,0,0,12.44-3.33Zm-14.35-12.16c1.31-6.69,6.86-12.16,11.17-12.16,2.28,0,4,1.86,3.81,4.67-.32,4-6.16,8.3-15,7.49"/></svg>