<?xml version="1.0" encoding="utf-8"?>
<!-- Generator: Adobe Illustrator 20.0.0, SVG Export Plug-In . SVG Version: 6.00 Build 0)  -->
<svg version="1.1" id="Layer_1" xmlns="http://www.w3.org/2000/svg" xmlns:xlink="http://www.w3.org/1999/xlink" x="0px" y="0px"
	 viewBox="0 0 187.1 43.2" style="enable-background:new 0 0 187.1 43.2;" xml:space="preserve">
<style type="text/css">
	.st0{fill:#FFFFFF;}
</style>
<title>Artboard 1</title>
<path class="st0" d="M43.7,23.3l11-8.4l-1.5,8.6h4.3l-1,5.6h-4.4l-1,5.9c-0.3,1.5,0.1,1.9,1.3,1.9c0.8,0,1.6-0.1,2.4-0.2l-1,5.6
	c-2.1,0.5-4.3,0.8-6.5,0.8c-3.7,0-6.9-1.1-6.2-5.4L43.7,23.3L43.7,23.3z"/>
<path class="st0" d="M79.4,36.5c-1.5,4.3-5.4,6.7-12.8,6.7c-5.8,0-10.6-2.5-9.1-10.2c1.2-6.6,6.5-10,13.6-10
	c7.5,0,10.4,3.7,9.2,10.5L80,34.8H66.3l-0.1,0.6c-0.4,2.2,0.2,3.2,2.1,3.2c1.2,0,2.3-0.8,2.7-2H79.4z M72.1,30.7v-0.3
	c0.3-1.8-0.5-2.8-2-2.8c-1.6,0-3,1.2-3.1,2.8v0.3H72.1z"/>
<path class="st0" d="M84.5,23.5h9.3l-0.1,2.1c1.7-1.7,3.1-2.3,4.3-2.3c0.8,0,1.7,0.1,2.4,0.5l-1.3,6.9c-1.3-0.4-2.6-0.5-3.9-0.5
	c-1.4-0.1-2.7,1-2.9,2.4l-1.8,10H81L84.5,23.5L84.5,23.5z"/>
<path class="st0" d="M102.9,23.5h9.3l-0.3,2.9h0.1c1.6-2.2,4.1-3.5,6.9-3.5c3,0,5,1.1,5.9,3.5c1.6-2.2,4.1-3.5,6.9-3.5
	c4,0,6.5,1.9,5.6,7l-2.3,12.7h-9.6l2.2-12c0.2-1.3-0.4-2.1-1.3-2.1s-1.9,0.6-2.1,2.1l-2.2,11.9h-9.6l2.2-12c0.2-1.3-0.4-2.1-1.3-2.1
	s-1.9,0.6-2.1,2.1l-2.2,11.9h-9.5L102.9,23.5L102.9,23.5z"/>
<path class="st0" d="M160.9,36.5c-1.5,4.3-5.4,6.7-12.8,6.7c-5.8,0-10.6-2.5-9.1-10.2c1.2-6.6,6.5-10,13.6-10
	c7.5,0,10.4,3.7,9.2,10.5l-0.2,1.3h-13.7l-0.1,0.6c-0.4,2.2,0.2,3.2,2.1,3.2c1.2,0,2.3-0.8,2.7-2H160.9z M153.6,30.7v-0.3
	c0.3-1.8-0.5-2.8-2-2.8c-1.6,0-3,1.2-3.1,2.8v0.3H153.6z"/>
<path class="st0" d="M178.2,31.4c0.4-2.4,0.3-3.7-1.4-3.7s-2.5,0.8-3.4,5.7c-0.8,4.5-0.1,5.1,1.3,5.1s2.2-1.1,2.8-3.6h8.9
	c-1.1,5.3-5.1,8.3-12.9,8.3c-6.2,0-11-2.5-9.5-10.2c1.2-6.6,6.5-10,13.5-10c7.7,0,10.3,3.2,9.6,8.4L178.2,31.4z"/>
<path class="st0" d="M27.1,26.4c-0.5-0.2,1.6-5,0.6-4.7L17,29.8l-2.4,12.8h9.6l2.2-11.9c0.1-1.2,1.1-2.1,2.3-2.1
	c1.1,0,1.6,0.8,1.3,2.2l-2.2,11.9h9.6l2.3-12.7c0.9-5.1-1.6-7-5.6-7C34,22.9,29.2,23.4,27.1,26.4L27.1,26.4z"/>
<polygon class="st0" points="16.7,30 22.3,0 5.7,12.7 0,42.9 16.7,30 16.7,30 "/>
</svg>
