<?xml version="1.0" encoding="utf-8"?>
<!-- Generator: Adobe Illustrator 20.0.0, SVG Export Plug-In . SVG Version: 6.00 Build 0)  -->
<svg version="1.1" id="Layer_1" xmlns="http://www.w3.org/2000/svg" xmlns:xlink="http://www.w3.org/1999/xlink" x="0px" y="0px"
	 viewBox="0 0 187.1 121.5" style="enable-background:new 0 0 187.1 121.5;" xml:space="preserve">
<style type="text/css">
	.st0{fill:none;}
	.st1{fill:#FFFFFF;}
</style>
<title>Artboard 1</title>
<polygon class="st0" points="0.5,0 0.5,84.2 119.2,84.2 129,63 138.9,84.4 168.6,84.4 168.6,0 "/>
<path class="st1" d="M9.5,105.3c-1.1-0.5-2.3-0.8-3.5-0.8c-1.5,0-3.2,0.5-3.2,2.5c0,3.6,8,2.7,8,8.8c0,4-3.1,5.5-6.8,5.5
	c-1.3-0.1-2.6-0.3-3.8-0.8l0.3-2.5c1.2,0.5,2.5,0.8,3.8,0.9c1.5,0,3.6-0.9,3.6-3c0-4.1-8-3-8-8.8c0-3.3,2.6-5,5.9-5
	c1.4,0,2.7,0.2,4,0.7L9.5,105.3L9.5,105.3z"/>
<polygon class="st1" points="21.9,102.6 32.3,102.6 32.3,104.9 24.6,104.9 24.6,110.3 31.6,110.3 31.6,112.7 24.6,112.7 24.6,118.8 
	32.3,118.8 32.3,121.1 21.9,121.1 "/>
<path class="st1" d="M55.5,105.6c-1.2-0.7-2.5-1-3.8-1c-4,0.1-7.2,3.4-7.1,7.4c0.1,3.8,3.1,6.9,6.9,7c1.4,0,2.8-0.3,4-0.9l0.1,2.6
	c-1.4,0.5-2.8,0.7-4.2,0.7c-5.9,0-9.8-3.8-9.8-9.7c0-5.7,4.1-9.5,9.8-9.5c1.4,0,2.9,0.2,4.2,0.8L55.5,105.6L55.5,105.6z"/>
<path class="st1" d="M82,113.4c0,5.2-2.6,8-7.2,8s-7.2-2.8-7.2-8v-10.9h2.6V113c0,3.6,1.1,6,4.5,6s4.5-2.4,4.5-6v-10.5H82V113.4
	L82,113.4z"/>
<path class="st1" d="M98.1,104.9h2.5c2.4,0,3.7,1.1,3.7,2.7s-1.5,2.9-4,2.9h-2.2V104.9L98.1,104.9z M95.4,121.1H98v-8.2h1.6
	c1.4,0,2.3,0,3.1,1.8l2.8,6.4h3l-3.5-7.4c-0.6-1.1-1-1.5-1.8-1.9l0,0c2.2-0.3,3.8-2.1,3.8-4.2c0-4.4-3.5-5-7.2-5h-4.5L95.4,121.1
	L95.4,121.1z"/>
<polygon class="st1" points="120.5,102.6 123.2,102.6 123.2,121.1 120.5,121.1 "/>
<polygon class="st1" points="138.2,104.9 132.5,104.9 132.5,102.6 146.6,102.6 146.6,104.9 140.9,104.9 140.9,121.1 138.2,121.1 "/>
<polygon class="st1" points="160.6,113.3 153.3,102.6 156.4,102.6 161.9,110.9 167.3,102.6 170.4,102.6 163.2,113.3 163.2,121.1 
	160.6,121.1 "/>
<polygon class="st1" points="153.5,63 133.1,16.4 133.2,16.4 133.1,16.4 133.1,16.4 133.1,16.4 124.9,16.4 105,63 113.8,63 
	129,26.5 144.8,63 "/>
<path class="st1" d="M47,43.1c6.4-2.4,9.5-7.7,9.4-13.1c-0.1-8.2-6.5-13.9-15.6-13.9H21.2v46.8h7.1v-40h12.1c4,0,8.4,2.1,8.5,7.1
	c0.1,4.5-3.3,7.3-9,7.5h-0.1h-4.3L49.8,63h8.4L47,43.1z"/>
<path class="st1" d="M66.1,28.2c0,9.3,9.2,12,16.5,14c7.5,2.1,10.1,4.5,10.1,8.1c0,6-6.1,7-9.9,7c-4.9,0-9.6-1.4-13.7-4l-3.6,6
	c5.2,3.2,11.2,4.9,17.3,4.8c10.8,0,18-5.6,18-14.3c0-9.7-8.8-12.4-16.1-14.5s-10.4-3.9-10.4-7.5c0-5.5,6.7-6,9.1-6
	c4,0.1,7.9,1,11.4,2.7l3-5.9c-4.6-2.2-9.6-3.3-14.7-3.3C72.6,15.3,66.1,20.1,66.1,28.2L66.1,28.2z"/>
<polygon class="st1" points="173.2,94.4 179.2,94.4 179.2,95.3 176.7,95.3 176.7,101.8 175.7,101.8 175.7,95.3 173.2,95.3 "/>
<path class="st1" d="M186.2,101.8v-4.4c0-0.2,0-1.1,0-1.8l0,0l-2.1,6.2h-1l-2.1-6.2l0,0c0,0.7,0,1.6,0,1.8v4.4h-1v-7.4h1.4l2.1,6.2
	l0,0l2.1-6.2h1.4v7.4H186.2z"/>
</svg>
