<?xml version="1.0" encoding="utf-8"?>
<!-- Generator: Adobe Illustrator 20.0.0, SVG Export Plug-In . SVG Version: 6.00 Build 0)  -->
<svg version="1.1" id="Ebene_1" xmlns="http://www.w3.org/2000/svg" xmlns:xlink="http://www.w3.org/1999/xlink" x="0px" y="0px"
	 viewBox="0 0 568 152.1" style="enable-background:new 0 0 568 152.1;" xml:space="preserve">
<style type="text/css">
	.st0{fill:#FFFFFF;}
</style>
<title>Artboard 2</title>
<path class="st0" d="M14.5,21.8h51.4c2.2,0,2.8,1.3,0.8,3.4s-63,70.2-63,70.2L0,113.9h103.8l3.6-21.8H58.3c-2.3,0-3.3-1.2-0.7-3.9
	s60-67.4,60-67.4L121.9,0H17.7L14.5,21.8z"/>
<path class="st0" d="M301.5,23.5c-1.1,1.1-2,1.3-2.8-0.4L288,0h-43.7l25.8,55.5L213,114h37.7l28.4-29.1c2.4-2.4,3.5-2.4,4.6,0.1
	l13.5,29H341l-29.1-62.6l50.2-51.4h-37.8L301.5,23.5z"/>
<path class="st0" d="M493.6,0h39.9l-18.2,88.6c-0.7,3.5,0.3,3.5,2.3,3.5H568l-4.5,21.8h-93.3L493.6,0z"/>
<path class="st0" d="M377.4,0l-23.3,113.9h97.2l4.5-21.8h-56c-2,0-2.1,0-1.6-2.4l3.8-18.6c0.5-2.6,0.6-3,4.6-3h48.3l4.6-22.5h-49.4
	c-2.2,0-2.7-0.5-2.3-2.8l3.8-18.7c0.5-2.4,2.6-2.4,4.3-2.4h50.8L471.2,0L377.4,0z"/>
<path class="st0" d="M122.9,36.9h37.6c0,0,8.6,45.6,9.2,49.4c0.8,4.4,1.5,3.4,3.5,0.1s30.5-49.5,30.5-49.5h31.4
	c0,0-31.9,51.5-52.6,85.1c-17.2,27.9-32.2,30.2-52.5,30.2c-14.4,0-23.6-2.3-23.6-2.3l2.7-21.8c5.8,1,11.7,1.5,17.6,1.7
	c8.1,0,13-2.5,13-10.8c0-3.7-1.8-9.3-3.6-18.9S122.9,36.9,122.9,36.9z"/>
</svg>
