<?xml version="1.0" encoding="utf-8"?>
<!-- Generator: Adobe Illustrator 20.0.0, SVG Export Plug-In . SVG Version: 6.00 Build 0)  -->
<svg version="1.1" id="Layer_1" xmlns="http://www.w3.org/2000/svg" xmlns:xlink="http://www.w3.org/1999/xlink" x="0px" y="0px"
	 viewBox="0 0 235.9 33.2" style="enable-background:new 0 0 235.9 33.2;" xml:space="preserve">
<style type="text/css">
	.st0{fill:#FFFFFF;}
</style>
<title>Artboard 1</title>
<path class="st0" d="M0.1,0.2C2.9,0,5.7,0,8.5,0.2c-0.1,8.8-0.1,17.5,0,26.3c8.1,0.1,16.2,0.1,24.4,0c0.1,2.2,0.1,4.4,0,6.6
	C21.9,33,11,33.1,0,33C0.1,22.1,0.1,11.1,0.1,0.2L0.1,0.2z M37.8,0.2c2.8-0.1,5.7-0.1,8.5,0c0.1,11,0,21.9,0,32.9
	c-2.9,0-5.7,0.1-8.6,0C37.9,22.1,37.9,11.2,37.8,0.2L37.8,0.2z M53,0.1c2.8-0.1,5.6-0.1,8.3,0c0.8-0.1,1.4,0.6,2,1.1
	c6.6,6.1,13,12.4,19.6,18.5c0.3-6.5,0.1-13,0.1-19.5c2.6-0.1,5.1-0.1,7.7,0c0,11-0.1,21.9,0,32.9c-2.2-0.2-5,0.9-6.6-1.1
	c-7.9-7.3-15.5-14.8-23.4-22c-0.1,7.7,0,15.4,0,23.1c-2.5,0.1-5.1,0-7.6,0C52.9,22.1,52.9,11.1,53,0.1L53,0.1z M108.8,1
	c0.6-0.6,1.4-1,2.2-0.9c3.3,0,6.5-0.1,9.8,0.1c-5.7,5.6-11.8,10.8-17.5,16.4c5.6,5.6,11.8,10.8,17.5,16.4c-3.4,0.1-6.8,0.1-10.2,0.1
	c-1,0.1-1.7-0.7-2.4-1.3c-5.2-4.9-10.5-9.7-15.8-14.5c-0.3-0.2-0.4-0.6-0.3-0.9c0.1-0.1,0.2-0.2,0.3-0.3C97.9,11,103.3,6,108.8,1
	L108.8,1z M123.2,2.3c1.5-1.9,4.2-2.2,6.5-2.2c8.5,0.1,17-0.1,25.5,0.1c0.1,2.2,0.1,4.5-0.1,6.7c-8.5-0.1-17-0.1-25.5,0
	c-0.1,2-0.1,4,0,6c6.1,0,12.3,0,18.4,0c2.3,0,4.8,0.1,6.6,1.6s2.5,4.2,2.5,6.6c0,2.8,0.3,5.7-0.8,8.3c-1.1,2.3-3.4,3.8-6,3.7
	c-9.1,0-18.3,0-27.4,0c-0.1-2.2-0.1-4.4,0-6.6c8.6,0.1,17.2,0.1,25.9,0c0.1-2.2,0.1-4.5,0-6.8h-19.1c-2.3,0-4.8-0.4-6.4-2.2
	c-1.9-2-1.9-5-1.9-7.5S121.3,4.3,123.2,2.3L123.2,2.3z M157.6,0.2c3.2-0.2,6.5-0.2,9.7,0.1c3.3,4.8,6.1,9.9,9.4,14.7
	c3.2-4.9,6.2-9.9,9.4-14.8c3,0,6-0.2,9.1,0.1c-4.6,7.5-9.8,14.7-14.4,22.2c-0.4,3.5,0,7.1-0.2,10.6c-2.8,0.1-5.6,0-8.4,0
	c-0.6-4.3,1.4-9.4-1.8-13.1C166.1,13.3,161.7,6.8,157.6,0.2L157.6,0.2z M196.1,5.2c0.6-3.2,3.7-5.2,6.8-5.2c8.9,0,17.8-0.1,26.6,0
	c0.1,2.2,0.1,4.5,0,6.7c-8.5,0-17-0.1-25.4,0c-0.1,2-0.1,4,0,6c6.2,0,12.5,0,18.7,0c2.2,0,4.5,0.2,6.2,1.6c1.9,1.6,2.5,4.2,2.5,6.6
	c-0.1,2.6,0.3,5.3-0.6,7.8c-1,2.6-3.5,4.3-6.2,4.2c-9.6,0-19.2,0-28.8,0c0-2.2-0.1-4.4,0.1-6.6c9.1,0,18.2,0.1,27.3,0
	c0.1-2.2,0.1-4.5,0-6.8c-6.8,0-13.5,0.1-20.3-0.1c-3.2,0.1-6-2-6.8-5.1C195.6,11.4,195.6,8.2,196.1,5.2L196.1,5.2z"/>
<polygon class="st0" points="231.3,3.4 231.3,1 230.4,1 230.4,0.5 232.7,0.5 232.7,1 231.9,1 231.9,3.4 231.3,3.4 "/>
<polygon class="st0" points="233.1,3.4 233.1,0.5 234,0.5 234.5,2.5 235,0.5 235.9,0.5 235.9,3.4 235.4,3.4 235.4,1.1 234.8,3.4 
	234.2,3.4 233.7,1.1 233.7,3.4 233.1,3.4 "/>
</svg>
