<?xml version="1.0" encoding="utf-8"?>
<!-- Generator: Adobe Illustrator 20.0.0, SVG Export Plug-In . SVG Version: 6.00 Build 0)  -->
<svg version="1.1" id="Layer_1" xmlns="http://www.w3.org/2000/svg" xmlns:xlink="http://www.w3.org/1999/xlink" x="0px" y="0px"
	 viewBox="0 0 360 360" style="enable-background:new 0 0 360 360;" xml:space="preserve">
<style type="text/css">
	.st0{fill:none;}
	.st1{fill:#FFFFFF;}
</style>
<g>
	<g>
		<path class="st0" d="M170.4,270.2c5.6,0,9-4.6,9-12.2c0-7.3-3.2-11.5-8.9-11.5c-4.4,0-9,3.1-9,11.9
			C161.4,265.8,164.8,270.2,170.4,270.2z"/>
		<path class="st0" d="M182.3,300.8c-4,0-6.7,2.4-7.5,6.8h14.8C189,303.2,186.5,300.8,182.3,300.8z"/>
		<path class="st0" d="M77,317.2c0,3.1,2.7,3.7,5,3.7c3.5,0,7.4-2.6,7.4-6.3v-3.1l-6.4,1.1C78,313.6,77,315.1,77,317.2z"/>
		<path class="st0" d="M254.5,270.3c5.9,0,9.4-4.5,9.4-12c0-7.5-3.5-12-9.4-12c-5.9,0-9.4,4.5-9.4,12
			C245,265.7,248.7,270.3,254.5,270.3z"/>
		<path class="st0" d="M53.5,291.2h-6.8v15.1h6.5c6.2,0,9.1-2.4,9.1-7.4C62.4,293.9,59.3,291.2,53.5,291.2z"/>
		<path class="st0" d="M52.2,236.6h-7.6v32.7h7.7c9.2,0,14.9-6.3,14.9-16.3C67.3,242.7,61.6,236.6,52.2,236.6z"/>
		<path class="st1" d="M71.2,253c0-12.2-7.3-19.8-19.1-19.8H40.7v39.7H52C63.7,272.8,71.2,265,71.2,253z M52.3,269.3h-7.7v-32.7h7.6
			c9.4,0,15,6.1,15,16.4C67.3,263,61.5,269.3,52.3,269.3z"/>
		<rect x="75.9" y="233.1" class="st1" width="4.4" height="4.9"/>
		<rect x="76.2" y="243.9" class="st1" width="3.8" height="28.9"/>
		<path class="st1" d="M107.3,264.8c0-4.8-3.1-7.4-10.9-8.8c-6.2-1.2-7.4-2.8-7.4-5.3c0-2.7,2.5-4.3,6.6-4.3c4.1,0,7.1,2,7.6,5
			l0.1,0.4h4l-0.1-0.5c-0.8-4.9-5.3-8.1-11.4-8.1c-7.8,0-10.6,4.1-10.6,7.9c0,4.4,3.2,7.2,9.5,8.3c6.6,1.2,8.8,2.6,8.8,5.7
			c0,2.6-2.3,5.4-7.5,5.4c-4.4,0-7.4-2.1-7.8-5.5l0-0.4h-3.9l0.1,0.5c0.7,5.3,5.2,8.6,11.7,8.6C103.4,273.6,107.3,269.2,107.3,264.8
			z"/>
		<path class="st1" d="M114.1,266.7c0,4.4,2.5,6.9,6.9,6.9c1.2,0,2.4-0.2,3.7-0.6l0.3-0.1v-3.3l-0.6,0.1c-1.3,0.3-2.2,0.4-3.3,0.4
			c-2.1,0-3.2-1.2-3.2-3.5v-19.4h6.5v-3.4H118v-6.7h-3.7l-0.2,6.7h-4v3.4h4V266.7z"/>
		<path class="st1" d="M143.8,247.4v-3.8l-0.3-0.1c-0.6-0.2-1.8-0.5-3.1-0.5c-3.3,0-5.9,1.6-7.5,4.8l-0.3-4h-3.3v28.9h3.8v-15.7
			c0-6,2.9-10.3,7.1-10.3c1.1,0,2.1,0.2,2.9,0.5L143.8,247.4z"/>
		<rect x="147.7" y="243.9" class="st1" width="3.8" height="28.9"/>
		<rect x="147.4" y="233.1" class="st1" width="4.4" height="4.9"/>
		<path class="st1" d="M161.4,268.7c2.1,3.1,5.4,4.9,9.4,4.9c7.6,0,12.5-6.1,12.5-15.6c0-9.4-4.6-14.9-12.2-14.9
			c-3.9,0-7.3,1.7-9.4,4.8v-14.8h-3.8v39.7h3.2L161.4,268.7z M170.4,246.5c5.7,0,8.9,4.2,8.9,11.5c0,7.7-3.3,12.2-9,12.2
			c-5.6,0-9-4.4-9-11.9C161.4,249.6,166.1,246.5,170.4,246.5z"/>
		<path class="st1" d="M205.4,269.3l0.3,3.5h3.2v-28.9h-3.8v17.6c0,5-3.3,8.7-7.9,8.7c-4.4,0-6.9-2.5-6.9-6.9v-19.4h-3.8v19.4
			c0,6.4,3.8,10.3,10,10.3C200.2,273.6,203.4,272,205.4,269.3z"/>
		<path class="st1" d="M224.5,270.2c-2.1,0-3.2-1.2-3.2-3.5v-19.4h6.5v-3.4h-6.5v-6.7h-3.6l-0.2,6.7h-4v3.4h4v19.3
			c0,4.4,2.5,6.9,6.9,6.9c1.2,0,2.4-0.2,3.7-0.6l0.3-0.1v-3.3l-0.6,0.1C226.4,270.2,225.5,270.2,224.5,270.2z"/>
		<rect x="232.3" y="233.1" class="st1" width="4.4" height="4.9"/>
		<rect x="232.6" y="243.9" class="st1" width="3.8" height="28.9"/>
		<path class="st1" d="M254.5,243.1c-8.2,0-13.4,5.8-13.4,15.3c0,9.3,5.3,15.3,13.4,15.3c8.2,0,13.3-5.8,13.3-15.3
			C267.8,248.9,262.7,243.1,254.5,243.1z M254.5,246.4c5.9,0,9.4,4.5,9.4,12c0,7.5-3.5,12-9.4,12c-5.8,0-9.4-4.6-9.4-12
			C245,250.9,248.6,246.4,254.5,246.4z"/>
		<path class="st1" d="M285,243.1c-3.7,0-6.9,1.7-9,4.6l-0.3-3.8h-3.3v28.9h3.8V255c0-5.2,4.2-8.5,8-8.5c4.4,0,7,2.5,7,6.9v19.4h3.8
			v-19.5C295.1,247,291.3,243.1,285,243.1z"/>
		<path class="st1" d="M53.4,285.8H40.4v39.7h6.4v-13.8h6.4c10.2,0,15.8-4.5,15.8-12.8C69,290.4,63.5,285.8,53.4,285.8z M53.3,306.2
			h-6.5v-15.1h6.8c5.7,0,8.9,2.7,8.9,7.7C62.4,303.9,59.5,306.2,53.3,306.2z"/>
		<path class="st1" d="M83.5,295.7c-7.1,0-11.9,3.5-12.5,9l-0.1,0.5h6.4l0.1-0.4c0.4-2.7,2.3-4.1,5.8-4.1c3.9,0,6,1.7,6,4.9v1
			l-7.8,1.3c-7.6,1.3-11,4.3-11,9.8c0,5.1,4.1,8.5,10.1,8.5c4.6,0,7.4-2,9.1-4l0.5,3.2h5.1v-19.6C95.4,299.6,90.9,295.7,83.5,295.7z
			 M89.3,311.6v3.1c0,3.7-3.9,6.3-7.4,6.3c-2.3,0-5-0.7-5-3.7c0-2.1,1-3.6,6-4.4L89.3,311.6z"/>
		<path class="st1" d="M113.2,295.7c-2.9,0-5.2,1.4-6.9,4l-0.5-3.2h-5.1v28.9h6.1v-14.5c0-5.9,2.3-9.2,6.2-9.2
			c1.2,0,2.2,0.2,3.2,0.5l0.6,0.1v-6.1l-0.3-0.1C115.3,295.9,114.3,295.7,113.2,295.7z"/>
		<path class="st1" d="M132.9,320.8c-1.7,0-2.5-0.9-2.5-2.7v-16.3h6v-5.3h-6v-6.7h-5.7l-0.3,6.7h-4.2v5.3h4.1V318
			c0,5.1,3,8.2,7.9,8.2c1.3,0,2.5-0.2,3.9-0.6l0.3-0.1v-5.4l-0.6,0.1C134.4,320.8,133.8,320.8,132.9,320.8z"/>
		<path class="st1" d="M154.2,295.7c-3.2,0-6.2,1.3-8.2,3.7l-0.5-2.9h-5.1v28.9h6.1v-17.7c0-4.4,3.3-6.6,6.5-6.6
			c3.7,0,5.5,1.9,5.5,5.7v18.7h6.1v-18.7C164.6,299.8,160.7,295.7,154.2,295.7z"/>
		<path class="st1" d="M182.1,295.7c-8.6,0-13.9,5.8-13.9,15.3c0,9.6,5.3,15.3,14.2,15.3c6.4,0,11.4-3.5,13-9.2l0.2-0.6H189
			l-0.1,0.3c-0.8,2.5-3.3,4.2-6.3,4.2c-4.7,0-7.6-3-8.1-8.4h21.3v-0.5C195.7,301.6,190.9,295.7,182.1,295.7z M174.7,307.6
			c0.9-4.4,3.5-6.8,7.5-6.8c4.2,0,6.8,2.4,7.3,6.8H174.7z"/>
		<path class="st1" d="M213,295.7c-2.9,0-5.2,1.4-6.9,4l-0.5-3.2h-5.1v28.9h6.1v-14.5c0-5.9,2.3-9.2,6.2-9.2c1.2,0,2.3,0.2,3.2,0.5
			l0.6,0.1v-6.1l-0.3-0.1C215.1,295.9,214.1,295.7,213,295.7z"/>
	</g>
	<g>
		<path class="st1" d="M205.7,58c0-2-1.6-3.6-3.6-3.6c-2,0-3.6,1.6-3.6,3.6v7.5c0,2,1.6,3.6,3.6,3.6c2,0,3.6-1.6,3.6-3.6V58z
			 M185.9,48.1c0-2-1.6-3.6-3.6-3.6c-2,0-3.6,1.6-3.6,3.6v17.4c0,2,1.6,3.6,3.6,3.6c2,0,3.6-1.6,3.6-3.6V48.1z M166.2,34.6
			c0-2-1.6-3.6-3.6-3.6c-2,0-3.6,1.6-3.6,3.6v38.1c0,2,1.6,3.6,3.6,3.6c2,0,3.6-1.6,3.6-3.6V34.6z M146.4,48.1c0-2-1.6-3.6-3.6-3.6
			c-2,0-3.6,1.6-3.6,3.6v17.4c0,2,1.6,3.6,3.6,3.6c2,0,3.6-1.6,3.6-3.6V48.1z M126.6,58c0-2-1.6-3.6-3.6-3.6c-2,0-3.6,1.6-3.6,3.6
			v7.5c0,2,1.6,3.6,3.6,3.6c2,0,3.6-1.6,3.6-3.6V58z M106.9,48.1c0-2-1.6-3.6-3.6-3.6c-2,0-3.6,1.6-3.6,3.6v17.4
			c0,2,1.6,3.6,3.6,3.6c2,0,3.6-1.6,3.6-3.6V48.1z M87.1,34.6c0-2-1.6-3.6-3.6-3.6c-2,0-3.6,1.6-3.6,3.6v38.1c0,2,1.6,3.6,3.6,3.6
			c2,0,3.6-1.6,3.6-3.6V34.6z M67.3,48.1c0-2-1.6-3.6-3.6-3.6c-2,0-3.6,1.6-3.6,3.6v17.4c0,2,1.6,3.6,3.6,3.6c2,0,3.6-1.6,3.6-3.6
			V48.1z M47.6,65.5c0,2-1.6,3.6-3.6,3.6c-2,0-3.6-1.6-3.6-3.6V58c0-2,1.6-3.6,3.6-3.6c2,0,3.6,1.6,3.6,3.6V65.5z"/>
		<path class="st1" d="M121.8,89.3c-0.2-0.1-3.5-0.9-7.1-0.9c-6.7,0-10.7,3.6-10.7,9c0,4.8,3.4,7.1,7.4,8.4c0.5,0.1,1.1,0.3,1.6,0.5
			c1.8,0.6,3.2,1.4,3.2,2.9c0,1.6-1.7,2.7-5.3,2.7c-3.1,0-6.2-0.9-6.8-1.1v6.6c0.3,0.1,3.9,0.8,7.8,0.8c5.6,0,11.9-2.4,11.9-9.6
			c0-3.5-2.1-6.7-6.8-8.2l-2-0.6c-1.2-0.4-3.3-1-3.3-2.8c0-1.4,1.6-2.4,4.5-2.4c2.5,0,5.6,0.9,5.7,0.9V89.3z M183.1,103.2
			c0,4.2-3.2,7.5-7.5,7.5c-4.3,0-7.5-3.4-7.5-7.5c0-4.2,3.2-7.6,7.5-7.6C179.9,95.7,183.1,99,183.1,103.2 M175.6,88.3
			c-8.8,0-15.2,6.7-15.2,14.9c0,8.2,6.3,14.9,15.2,14.9c8.8,0,15.2-6.7,15.2-14.9C190.8,95,184.4,88.3,175.6,88.3 M77.2,89.4
			c-0.7-0.2-3.2-1-6.6-1c-8.8,0-15.3,6.3-15.3,14.9c0,9.2,7.1,14.9,15.3,14.9c3.2,0,5.7-0.8,6.6-1v-7.7c-0.3,0.2-2.7,1.5-6.1,1.5
			c-4.8,0-7.9-3.4-7.9-7.7c0-4.4,3.2-7.7,7.9-7.7c3.5,0,5.8,1.4,6.1,1.5V89.4z M152.8,89.4c-0.7-0.2-3.2-1-6.6-1
			c-8.8,0-15.3,6.3-15.3,14.9c0,9.2,7.2,14.9,15.3,14.9c3.2,0,5.7-0.8,6.6-1v-7.7c-0.3,0.2-2.7,1.5-6.1,1.5c-4.8,0-7.9-3.4-7.9-7.7
			c0-4.4,3.2-7.7,7.9-7.7c3.5,0,5.8,1.4,6.1,1.5V89.4z M94.4,117.6h-7.3V88.9h7.3V117.6z"/>
	</g>
</g>
</svg>
