<?xml version="1.0" encoding="utf-8"?>
<!-- Generator: Adobe Illustrator 20.0.0, SVG Export Plug-In . SVG Version: 6.00 Build 0)  -->
<svg version="1.1" id="Layer_1" xmlns="http://www.w3.org/2000/svg" xmlns:xlink="http://www.w3.org/1999/xlink" x="0px" y="0px"
	 viewBox="0 0 155 75.4" style="enable-background:new 0 0 155 75.4;" xml:space="preserve">
<style type="text/css">
	.st0{fill:#FFFFFF;}
</style>
<title>Artboard 2</title>
<path class="st0" d="M63.9,10.1c-1.4-1.1-3.1-1.7-4.8-1.6c-4.3,0-7.8,3.5-7.8,7.8c0,4.3,3.5,7.8,7.8,7.8c2.3,0,4.5-1,6-2.7v-4.3
	c-0.9,1.5-2.2,2.8-3.7,3.7c-0.7,0.3-1.5,0.5-2.3,0.5c-2.7,0.1-4.9-2.1-5-4.8c0,0,0-0.1,0-0.1c0-2.7,2.2-4.9,4.9-4.9c0,0,0,0,0.1,0
	c1.3,0,2.6,0.6,3.5,1.5c0.9,0.9,2.4,2.8,3.1,3.5c3.6,4,9.9,4.4,13.9,0.7S84,7.3,80.3,3.3s-9.9-4.4-13.9-0.7C66,3,65.5,3.4,65.2,3.9
	v5.9c1.4-3.7,3.8-6.7,7.7-6.7c3.7,0,6.7,3,6.8,6.7s-3,6.7-6.7,6.8c-1.6,0-3.2-0.6-4.4-1.6C67.1,13.8,65.5,11.4,63.9,10.1"/>
<path class="st0" d="M0,26.4h21.5v6c-0.6-1.3-1.9-2.2-3.4-2.4h-10v10.3h10.8v5.5c0,0-0.3-1.8-3-1.8H8.1v14.1c0,2.1,2.3,3.3,2.3,3.3
	H0.1c1.3-0.7,2.1-1.9,2.2-3.3V30.1C2.2,28.5,1.3,27.2,0,26.4"/>
<path class="st0" d="M54.2,26.4h11c0,0-2.5,1.2-2.5,3.1v33c0,11.2-11.2,13-11.8,13c1-0.6,5.6-4.6,5.6-13v-33
	C56.6,27.7,54.2,26.4,54.2,26.4"/>
<path class="st0" d="M66.7,26.4h11c0,0-2.4,1.2-2.4,3.1v28.8c0,2.1,2.4,3.3,2.4,3.3h-11c0,0,2.4-1.3,2.4-3.3V29.5
	C69.1,27.6,66.7,26.4,66.7,26.4"/>
<path class="st0" d="M79.8,26.4H104l-2.1,6.4c0,0-0.6-2.7-2.9-2.7h-5v28.2c0,1.8,2.4,3.3,2.4,3.3H85.6c0,0,2.3-1.4,2.3-3.3V30.1
	h-6.1c-1.7,0-4.2,3.2-4.2,3.2L79.8,26.4"/>
<path class="st0" d="M144.4,26.4H155c0,0-2.3,1.2-2.3,3.1v21.3c0,8.7-7.2,11.3-12.2,11.3s-12.7-2.7-12.7-11.3V29.5
	c0-1.9-2.3-3.1-2.3-3.1h10.9c0,0-2.4,1.2-2.4,3.1v21.3c0,4.5,3,7.5,6.5,7.5s6.2-3.1,6.2-7.5V29.5C146.8,27.6,144.4,26.4,144.4,26.4"
	/>
<path class="st0" d="M41.5,26.4h10.8c0,0-2.3,1.2-2.3,3.1v21.2c0,8.7-7.5,11.4-12.6,11.4s-12.7-2.8-12.7-11.4V29.5
	c0-1.9-2.2-3.1-2.2-3.1h10.9c0,0-2.5,1.2-2.5,3.1v21.2c0,4.5,3,7.6,6.5,7.6s6.4-3.2,6.4-7.6V29.5C43.8,27.6,41.5,26.4,41.5,26.4"/>
<path class="st0" d="M122.3,32c0,0-1.5-2.7-5.9-2.7s-6.8,2.3-6.8,5.3c0,3.4,2.6,4.7,6.5,6.6c3.8,1.8,9.4,4.3,9.4,10.6
	c0,5.7-5,10.4-14,10.4c-2.2-0.1-4.4-0.4-6.6-0.9l-2.1-6.8c2.3,2.3,5.5,3.7,8.7,3.8c3.6,0,7.9-2.2,7.9-5.8c0-6.9-16-5.7-16-17.2
	c0-4,2.8-9.7,12.3-9.7c2.2,0.1,4.4,0.4,6.6,0.9L122.3,32"/>
</svg>
