<svg xmlns="http://www.w3.org/2000/svg" width="16.97" height="12.094" viewBox="0 0 16.97 12.094">
  <metadata><?xpacket begin="﻿" id="W5M0MpCehiHzreSzNTczkc9d"?>
<x:xmpmeta xmlns:x="adobe:ns:meta/" x:xmptk="Adobe XMP Core 5.6-c138 79.159824, 2016/09/14-01:09:01        ">
   <rdf:RDF xmlns:rdf="http://www.w3.org/1999/02/22-rdf-syntax-ns#">
      <rdf:Description rdf:about=""/>
   </rdf:RDF>
</x:xmpmeta>
                                                                                                    
                                                                                                    
                                                                                                    
                                                                                                    
                                                                                                    
                                                                                                    
                                                                                                    
                                                                                                    
                                                                                                    
                                                                                                    
                                                                                                    
                                                                                                    
                                                                                                    
                                                                                                    
                                                                                                    
                                                                                                    
                                                                                                    
                                                                                                    
                                                                                                    
                                                                                                    
                           
<?xpacket end="w"?></metadata>
<defs>
    <style>
      .cls-1 {
        fill: #fff;
        fill-rule: evenodd;
      }
    </style>
  </defs>
  <path id="Film_Camera" data-name="Film Camera" class="cls-1" d="M1281.06,479.263V485a1.164,1.164,0,0,0,1.04,1.015l9.98,0a0.922,0.922,0,0,0,.93-0.877v-1.7l0.95,0.012,3,2.618v-9.161l-3.04,2.391-0.93.015V478.68a0.881,0.881,0,0,0-.88-0.965l-0.13-.5a2.824,2.824,0,0,0-2.97-3.256,2.794,2.794,0,0,0-3.03,2.916,2.688,2.688,0,0,0-3.03-2.891,2.825,2.825,0,0,0-2.95,3.166A2.69,2.69,0,0,0,1281.06,479.263Zm3.43-.261a2.516,2.516,0,1,1-2.53,2.527A2.507,2.507,0,0,1,1284.49,479Zm5,0a2.516,2.516,0,1,1-2.53,2.527A2.507,2.507,0,0,1,1289.49,479Zm-4.99,2a0.5,0.5,0,1,1-.5.5A0.5,0.5,0,0,1,1284.5,481Zm5,0a0.5,0.5,0,1,1-.5.5A0.5,0.5,0,0,1,1289.5,481Z" transform="translate(-1280 -473.969)"/>
</svg>
