<svg xmlns="http://www.w3.org/2000/svg" width="16.85" height="11.968" viewBox="0 0 16.85 11.968">
  <metadata><?xpacket begin="﻿" id="W5M0MpCehiHzreSzNTczkc9d"?>
<x:xmpmeta xmlns:x="adobe:ns:meta/" x:xmptk="Adobe XMP Core 5.6-c138 79.159824, 2016/09/14-01:09:01        ">
   <rdf:RDF xmlns:rdf="http://www.w3.org/1999/02/22-rdf-syntax-ns#">
      <rdf:Description rdf:about=""/>
   </rdf:RDF>
</x:xmpmeta>
                                                                                                    
                                                                                                    
                                                                                                    
                                                                                                    
                                                                                                    
                                                                                                    
                                                                                                    
                                                                                                    
                                                                                                    
                                                                                                    
                                                                                                    
                                                                                                    
                                                                                                    
                                                                                                    
                                                                                                    
                                                                                                    
                                                                                                    
                                                                                                    
                                                                                                    
                                                                                                    
                           
<?xpacket end="w"?></metadata>
<defs>
    <style>
      .cls-1 {
        fill: #fff;
        fill-rule: evenodd;
      }
    </style>
  </defs>
  <path id="Camera" class="cls-1" d="M1368.99,475.053a1,1,0,0,0-.99-0.993h-0.85a1.06,1.06,0,0,0-1.07.993l-1.04-.045a1.884,1.884,0,0,0-1.96,2.169v6.616a1.969,1.969,0,0,0,2.06,2.231h12.89a2.187,2.187,0,0,0,1.9-2.314v-6.554a2.173,2.173,0,0,0-1.98-2.148Zm-0.55.658a0.686,0.686,0,0,1,0,1.371A0.69,0.69,0,0,1,1368.44,475.711Zm4.58,1.252a4.031,4.031,0,1,1-4.03,4.03A4.027,4.027,0,0,1,1373.02,476.963Zm0.02,1.113a2.918,2.918,0,1,1-2.92,2.918A2.92,2.92,0,0,1,1373.04,478.076ZM1365,476v9a1.946,1.946,0,0,1-1-1.5v-6C1364,476.671,1364.17,476,1365,476Zm13,0a1,1,0,1,1-1,1A1,1,0,0,1,1378,476Z" transform="translate(-1363.09 -474.063)"/>
</svg>
