<?xml version="1.0" encoding="UTF-8"?>
<!DOCTYPE svg PUBLIC "-//W3C//DTD SVG 1.0//EN" "http://www.w3.org/TR/2001/REC-SVG-20010904/DTD/svg10.dtd">
<!-- Creator: CorelDRAW X7 -->
<svg xmlns="http://www.w3.org/2000/svg" xml:space="preserve" width="297mm" height="210mm" version="1.0" style="shape-rendering:geometricPrecision; text-rendering:geometricPrecision; image-rendering:optimizeQuality; fill-rule:evenodd; clip-rule:evenodd"
viewBox="0 0 29700 21000"
 xmlns:xlink="http://www.w3.org/1999/xlink">
 <defs>
  <style type="text/css">
   <![CDATA[
    .fil9 {fill:#FEFEFE}
    .fil0 {fill:#FEFEFE}
    .fil10 {fill:#EBECEC}
    .fil1 {fill:#002E54}
    .fil6 {fill:#9D231F}
    .fil5 {fill:red}
    .fil4 {fill:#FF0009}
    .fil8 {fill:#FEFEFE;fill-rule:nonzero}
    .fil2 {fill:#FEFEFE;fill-rule:nonzero}
    .fil3 {fill:#EBECEC;fill-rule:nonzero}
    .fil7 {fill:#002E54;fill-rule:nonzero}
   ]]>
  </style>
 </defs>
 <g id="Слой_x0020_1">
  <metadata id="CorelCorpID_0Corel-Layer"/>
  <g id="_2886137668928">
   <path class="fil0" d="M27556 13974l-421 1051 233 2684 755 381 -7044 0c-45,165 -91,330 -136,495 -95,351 -191,702 -286,1053l-78 287 -298 0c-1950,0 -3900,0 -5850,0 -1949,0 -3898,0 -5847,0l-297 0 -78 -286c-97,-351 -193,-702 -288,-1054 -45,-165 -91,-330 -136,-495l-6706 0 1088 -380 -1492 -6380 2297 -284 3164 507 -5625 -4306 3995 656 2008 1675 420 -1305 2216 2627 941 -841 2016 2451 2429 389 3278 -471 2014 -2448 941 840 2216 -2626 420 1304 2009 -1675 3994 -656 -5780 4425 2116 -304 2630 50 -523 2401 -100 19c-140,26 -143,87 -195,216z"/>
   <path class="fil1" d="M27845 11932l-264 1305c-499,-8 -552,1455 -920,1580l287 2870 -6164 10c-73,262 -145,524 -216,786 -96,351 -191,702 -287,1053 -1950,0 -3901,0 -5850,0 -1948,0 -3899,0 -5847,0 -97,-351 -192,-702 -288,-1053 -71,-259 -142,-517 -212,-775l-5460 0 -1357 -5930 3431 531 157 657 9939 1368c2012,-294 4046,-626 6106,-882l3425 -426 125 -701 3395 -393z"/>
   <path class="fil2" d="M24592 12656c-61,357 -123,714 -185,1071 -62,356 -126,713 -188,1070 -62,356 -123,713 -185,1070 -62,356 -121,712 -185,1068l93 0c54,-305 105,-611 158,-916 63,-361 124,-721 187,-1082 63,-360 127,-721 190,-1081 63,-361 126,-721 187,-1082l6 -35 35 -4c178,-24 355,-48 533,-72l17 -96c-223,30 -440,60 -663,89zm748 2519c23,255 47,512 68,770 27,328 51,659 73,990l70 0c-19,-275 -40,-550 -62,-825 -26,-313 -55,-626 -83,-939l-66 4zm1712 -2804l20 -97c-32,4 -67,9 -99,13 -172,24 -428,62 -656,251 -228,190 -319,467 -392,713 -41,136 -86,273 -125,408 -91,316 -150,475 -255,599 -83,99 -172,145 -268,153l-160 13 -20 109c101,-8 202,-17 303,-25 99,-8 176,-63 238,-137 128,-151 195,-402 249,-589 40,-138 84,-275 125,-412 84,-279 180,-551 412,-744 191,-158 394,-219 628,-255zm-5284 1278c-38,274 -71,548 -106,822 -36,274 -71,548 -107,822 -35,274 -71,547 -106,821 -35,274 -71,548 -106,821l58 0 86 -664c36,-277 72,-554 108,-830 36,-277 71,-554 107,-831 36,-277 69,-555 108,-831l5 -36 36 -5c155,-21 310,-42 465,-63 4,-34 9,-69 13,-103 -185,26 -376,52 -561,77zm1200 1667l-2 13c-27,178 -54,357 -81,535 -28,179 -55,358 -82,537 -27,178 -55,356 -82,534l78 0 57 -376c28,-180 55,-361 83,-542 27,-180 55,-360 82,-541 17,-107 34,-213 51,-320l-104 160zm837 -1842l17 -103c-188,25 -376,50 -567,76 -19,133 -38,266 -60,398 -199,308 -394,613 -585,913 -121,189 -242,377 -362,564 -12,90 -24,180 -36,270 152,-237 304,-474 455,-711 196,-305 391,-610 587,-915 21,-130 40,-261 59,-392l5 -36 36 -4c150,-20 301,-40 451,-60zm-5350 3461l18 0c12,-164 24,-328 37,-492 16,-220 31,-441 48,-661 16,-220 30,-441 48,-661 18,-220 33,-440 48,-661l3 -39 38 -5c168,-23 335,-46 503,-69 -13,-33 -26,-65 -39,-98 -174,24 -344,48 -513,71 -15,218 -30,436 -48,654 -17,218 -31,436 -47,654 -17,218 -32,436 -48,654 -16,218 -33,436 -48,653zm1932 -1340c-18,146 -34,293 -50,441 -16,150 -31,300 -47,449 -17,150 -30,301 -48,450l44 0c10,-96 19,-192 30,-288 16,-151 31,-303 48,-454 16,-152 33,-304 51,-456 10,-85 19,-170 28,-256l-56 114zm665 -1502l12 -105c-171,24 -342,47 -510,70 -71,140 -144,278 -212,416 -67,138 -137,274 -206,411 -67,134 -134,271 -201,404 -59,119 -120,237 -179,355l39 107c55,-110 112,-219 167,-329 68,-136 135,-273 203,-409 70,-138 140,-276 209,-414 69,-142 142,-281 213,-422l11 -22 25 -4c143,-19 286,-38 429,-58zm-4856 567l-3 104 26 -4c159,-22 183,-25 343,-48l139 -122c-171,23 -336,47 -505,70zm1267 1095l-3 47c-6,126 -14,252 -20,378 -6,126 -14,252 -20,378 -6,126 -13,252 -20,377l4 0c4,-70 7,-141 11,-212 6,-127 14,-254 20,-382 7,-127 14,-254 21,-381 3,-71 6,-141 10,-211l-3 6zm569 -1247l6 -104c-171,24 -337,47 -507,70 -3,94 -11,188 -13,281 -148,221 -300,439 -445,653 -111,165 -224,329 -335,490 -2,45 -4,90 -5,135 113,-165 227,-330 339,-496 147,-217 296,-431 442,-648 3,-90 10,-180 13,-271l1 -40 40 -6c154,-21 309,-43 464,-64zm-4449 230l99 114 662 93 491 645 586 -714 594 -83 105 -118 -696 97 -605 738 -510 -669 -726 -103zm886 1234l-620 963 58 0 596 -925 -34 -38zm1326 963l35 0 -650 -949 -19 22 634 927zm-2217 -177l-3 -120c-310,-7 -620,-13 -928,-19 1,40 3,81 4,121 309,6 618,12 927,18l0 0zm-146 -976l-3 -110c-273,-22 -551,-44 -822,-67l5 111c273,23 547,44 820,66zm95 -952l-2 -96c-498,-69 -995,-137 -1495,-206l5 100c477,66 955,132 1433,198l-4 -5 63 9zm-3580 -587c2,33 5,67 8,101 582,79 1164,158 1746,238l17 2 -5 -100c-588,-81 -1178,-161 -1766,-241zm-1111 -192c-171,-24 -344,-47 -515,-70l12 101c153,21 307,42 460,63l37 5 4 37c12,111 23,222 34,332 29,4 58,8 87,11 284,34 533,90 759,279 225,187 310,400 334,685 11,131 22,263 34,394 -1,-28 -2,-55 -5,-80 -14,-155 -27,-311 -40,-465 -17,-201 -63,-437 -314,-645 -237,-198 -508,-239 -726,-265 -40,-5 -81,-11 -123,-16 -13,-121 -26,-243 -38,-366zm-592 290l-1 0c-219,-26 -490,-54 -689,113 -40,34 -72,72 -98,112l5 -4c208,-175 480,-154 732,-125 21,3 42,6 62,8 -3,-35 -7,-69 -11,-104zm884 2594l17 0c-7,-56 -13,-112 -19,-168l-17 0c7,56 13,112 19,168zm378 -826c-94,77 -208,77 -301,73 -47,-2 -95,-4 -143,-5 -23,-232 -48,-464 -73,-695l-53 -491 -17 -1c23,214 47,429 70,643 24,220 48,441 70,661 34,1 68,3 103,4 104,4 205,1 285,-75 39,-37 54,-74 59,-114zm-1051 45l-24 -1c-95,-3 -218,-12 -336,-119 -118,-106 -120,-205 -134,-312 -26,-208 -51,-416 -77,-624 -3,-20 -6,-41 -8,-63 -25,62 -14,138 -5,208 28,211 52,422 79,632 16,122 19,196 119,286 95,85 188,103 310,108 30,1 60,2 90,3l-14 -118zm-1128 781l42 0c-22,-149 -43,-299 -64,-448 -342,-7 -690,-13 -1032,-20 -26,-177 -57,-353 -85,-529 -17,-106 -34,-212 -51,-318l-56 -4c26,159 51,317 76,476 27,165 55,329 81,494 334,7 668,13 1002,20l41 0 5 41 41 288zm-348 -1472l42 3c-18,-143 -40,-285 -61,-428 -310,-24 -620,-49 -930,-73 -26,-169 -54,-339 -83,-509 -16,-103 -33,-206 -48,-308l-56 -7c24,151 46,302 71,452 27,160 53,319 78,478 301,23 602,47 902,71l38 3 6 38c14,93 28,187 41,280zm-80 -1396l42 5c-21,-149 -42,-299 -64,-449 -545,-73 -1095,-147 -1640,-219l17 99c520,70 1040,139 1559,209l36 4 5 36 45 315zm-4667 -1690l20 93c176,24 352,47 528,70l34 5 7 33c67,324 132,648 197,973 63,312 126,624 190,935 256,21 512,41 768,61l-21 -107c-227,-17 -453,-35 -678,-53 -66,-320 -130,-641 -195,-961 -64,-320 -129,-642 -195,-962 -221,-29 -441,-58 -655,-87zm1476 4558l89 0c-66,-328 -131,-657 -198,-985 -54,-260 -107,-520 -160,-780l-90 -6c63,313 127,625 191,937 57,278 112,556 168,834zm1430 0l70 0c-63,-355 -128,-710 -192,-1065 -65,-356 -129,-712 -196,-1068 -66,-355 -129,-711 -195,-1066 -66,-356 -129,-712 -192,-1068 -220,-29 -438,-58 -658,-87l18 93c183,24 367,49 550,73l35 5 6 34c63,360 127,720 194,1079 67,359 130,718 197,1077 67,360 132,720 197,1079 56,305 111,610 166,914z"/>
   <path class="fil3" d="M24800 12861c-61,363 -125,727 -188,1091 -63,364 -129,728 -192,1091 -63,364 -125,728 -189,1092 -63,363 -123,726 -188,1089 208,0 410,0 621,0 62,-328 119,-657 179,-985 60,-328 120,-658 182,-987 172,-10 344,-22 520,-32 29,329 60,661 88,994 27,335 52,673 74,1010 225,0 449,0 677,0 -17,-201 -33,-403 -49,-604 -16,-199 -31,-400 -46,-599 -14,-198 -35,-395 -52,-592 -16,-197 -39,-392 -48,-587 71,-51 121,-105 178,-202 93,-156 137,-324 192,-504 46,-150 87,-300 134,-450 93,-302 148,-435 234,-507 57,-48 136,-87 195,-94 26,-3 52,-7 81,-10 42,-201 84,-402 127,-604 -33,4 -69,9 -101,14 -176,24 -437,62 -670,256 -232,193 -324,476 -400,726 -41,139 -87,279 -126,416 -94,323 -153,485 -261,612 -84,100 -175,148 -273,155 -120,10 -243,20 -367,30 55,-319 114,-636 172,-954 59,-319 117,-637 173,-956 -228,31 -449,61 -677,91zm-2879 1012c-39,279 -72,559 -109,838 -36,280 -72,559 -108,838 -36,280 -72,559 -108,838 -36,279 -72,558 -109,837 178,0 356,0 534,0 19,-130 36,-260 53,-391 188,-290 376,-584 566,-881 193,-300 389,-604 589,-912 -28,182 -58,364 -86,546 -28,182 -56,365 -83,546 -28,183 -56,365 -84,547 -27,182 -55,364 -83,545 178,0 353,0 531,0 50,-302 97,-605 147,-907 50,-303 97,-606 147,-909 50,-304 101,-607 150,-909 49,-303 97,-607 147,-910 -191,27 -383,52 -578,78 -19,136 -38,271 -61,406 -202,314 -401,625 -597,931 -193,302 -386,603 -575,898 22,-175 45,-352 70,-527 25,-175 50,-350 75,-526 25,-176 48,-352 72,-527 23,-175 50,-352 72,-527 -189,26 -383,52 -572,78zm-3378 3351c159,0 326,0 490,0 12,-142 23,-285 35,-428 13,-142 26,-285 36,-428 11,-143 25,-286 36,-428 12,-144 23,-286 36,-429 5,-1 13,-1 23,-2 72,199 141,401 210,604 69,205 136,412 205,621 87,-2 172,-4 262,-6 107,-218 217,-439 325,-660 109,-224 223,-450 336,-677 7,-1 18,-2 28,-3 -18,154 -34,307 -51,460 -18,153 -35,306 -52,459 -16,153 -32,306 -48,459 -17,152 -31,306 -49,458 159,0 323,0 487,0 28,-250 57,-500 87,-751 29,-250 58,-501 87,-751 29,-251 60,-501 90,-751 29,-251 59,-502 87,-752 -174,24 -349,47 -520,71 -72,143 -146,284 -216,425 -69,140 -140,279 -210,419 -68,136 -137,275 -205,412 -68,136 -138,270 -205,405 -7,0 -15,0 -23,1 -46,-126 -92,-251 -138,-377 -46,-124 -92,-247 -138,-370 -47,-122 -96,-242 -144,-363 -47,-119 -97,-239 -143,-357 -177,24 -351,49 -523,72 -16,223 -31,446 -49,667 -18,222 -32,445 -49,667 -16,223 -32,445 -48,667 -17,222 -34,444 -49,666zm-2303 -2320c-6,194 -11,388 -16,581 -5,193 -13,387 -18,580 -5,193 -10,387 -15,580 -5,193 -10,387 -18,579 164,0 325,0 489,0 3,-90 8,-181 11,-273 141,-202 289,-409 433,-619 145,-212 294,-429 443,-649 -8,129 -14,257 -21,386 -6,128 -14,257 -20,385 -6,129 -14,257 -21,385 -6,129 -12,257 -20,385 164,0 325,0 489,0 13,-214 28,-429 41,-644 13,-215 25,-430 39,-646 14,-215 27,-430 41,-645 14,-215 28,-431 41,-646 -174,24 -344,48 -518,72 -2,95 -10,191 -13,286 -151,226 -306,447 -453,666 -145,214 -292,427 -436,636 3,-123 8,-246 13,-368 5,-122 12,-245 15,-367 4,-123 8,-245 13,-368 5,-122 10,-245 16,-368 -175,25 -344,49 -515,72zm-2665 80l986 1129 -715 1111c177,0 357,0 536,0 72,-126 149,-252 223,-378l230 -387 482 765 549 0 -761 -1112 1057 -1192 -709 98 -618 753 -520 -683 -740 -104zm-1463 2240c486,0 976,0 1463,0 -3,-101 -5,-202 -8,-303 -328,-7 -656,-13 -981,-20 -3,-121 -8,-243 -13,-364 -5,-122 -10,-243 -16,-365 287,18 580,37 869,55 -2,-97 -5,-194 -8,-291 -289,-24 -584,-47 -871,-70 -5,-118 -10,-234 -15,-351 -5,-117 -10,-235 -13,-352 331,40 669,81 1002,121 0,-101 -3,-203 -5,-305 -508,-69 -1015,-139 -1525,-210 10,205 21,410 31,615 10,204 19,409 28,614 9,204 21,409 31,613 10,205 20,409 31,613zm-2245 -2745c10,124 23,248 33,372 213,25 426,51 638,76 13,192 30,383 44,575 14,191 29,382 43,574 15,192 27,383 41,574 15,192 31,383 44,574 164,0 323,0 489,0 -12,-185 -24,-372 -35,-558 -12,-186 -26,-373 -39,-560 -13,-186 -23,-372 -36,-558 -13,-187 -25,-373 -38,-560 212,25 425,51 635,76 -7,-113 -13,-226 -18,-339 -599,-83 -1201,-164 -1801,-246zm-1133 -196c-174,-24 -351,-48 -525,-72 16,128 31,256 44,383 -41,-5 -80,-10 -123,-15 -223,-26 -500,-56 -702,115 -213,179 -197,452 -167,685 24,179 50,359 74,539 24,174 80,438 300,640 254,234 569,258 710,260 56,1 113,2 169,4 13,134 31,269 46,402 162,0 326,0 490,0 -16,-130 -29,-261 -44,-392 59,0 113,2 169,3 144,3 456,-11 661,-209 177,-170 178,-398 164,-551 -14,-158 -27,-317 -41,-475 -17,-204 -64,-445 -320,-658 -242,-201 -518,-243 -741,-270 -41,-5 -82,-11 -125,-15 -13,-124 -26,-249 -39,-374zm80 751c18,1 33,3 54,6 138,14 278,26 405,114 155,108 162,243 171,340 19,196 38,392 57,588 9,101 30,194 -67,285 -98,94 -223,93 -323,89 -49,-2 -97,-4 -146,-5 -23,-237 -49,-473 -74,-709 -26,-236 -51,-472 -77,-708zm-515 -54c28,242 56,484 84,726 29,242 57,484 85,726 -49,-2 -97,-4 -146,-6 -97,-3 -222,-12 -343,-121 -120,-108 -122,-209 -136,-318 -27,-212 -52,-424 -80,-637 -13,-104 -38,-253 95,-339 108,-69 251,-51 392,-36 13,1 31,3 49,5zm-2619 2244c518,0 1038,0 1558,0 -21,-152 -43,-304 -65,-457 -349,-7 -703,-14 -1051,-21 -28,-179 -59,-359 -88,-539 -28,-179 -57,-358 -87,-539 313,19 627,39 937,58 -19,-146 -41,-290 -62,-436 -316,-25 -632,-50 -948,-75 -28,-173 -56,-346 -85,-519 -28,-173 -54,-346 -82,-519 365,42 731,85 1096,128 -22,-153 -44,-306 -66,-459 -556,-74 -1117,-149 -1672,-223 51,300 102,601 152,901 50,300 102,600 155,900 54,300 101,601 153,901 52,300 103,600 155,899zm-3680 -4648c84,387 164,776 248,1163 83,387 163,775 247,1162 83,388 169,775 250,1162 82,387 164,774 248,1161 196,0 401,0 603,0 -67,-335 -133,-670 -202,-1005 -69,-335 -138,-671 -205,-1007 285,18 574,35 860,53 61,327 128,653 190,981 60,326 122,653 183,978 205,0 411,0 613,0 -64,-362 -130,-724 -196,-1086 -66,-363 -132,-726 -199,-1089 -67,-362 -132,-725 -199,-1087 -68,-363 -132,-726 -196,-1089 -225,-29 -446,-60 -671,-89 61,318 123,637 183,956 59,317 122,636 183,954 -292,-22 -585,-45 -873,-68 -68,-326 -134,-654 -200,-980 -65,-327 -131,-654 -199,-981 -224,-30 -449,-60 -668,-89z"/>
   <path class="fil2" d="M24800 12861c-61,363 -125,727 -188,1091 -63,364 -129,728 -192,1091 -21,120 -41,239 -62,359l648 -51 19 -99c172,-10 344,-22 520,-32l8 89 669 -52c-13,-139 -26,-277 -33,-415 71,-51 121,-105 178,-202 93,-156 137,-324 192,-504 46,-150 87,-300 134,-450 93,-302 148,-435 234,-507 57,-48 136,-87 195,-94 26,-3 52,-7 81,-10 42,-201 84,-402 127,-604 -33,4 -69,9 -101,14 -176,24 -437,62 -670,256 -232,193 -324,476 -400,726 -41,139 -87,279 -126,416 -94,323 -153,485 -261,612 -84,100 -175,148 -273,155 -120,10 -243,20 -367,30 55,-319 114,-636 172,-954 59,-319 117,-637 173,-956 -228,31 -449,61 -677,91zm-1089 2591l-554 43c24,-152 49,-304 72,-455 -103,159 -205,316 -306,473l-495 39c117,-182 234,-365 351,-548 196,-306 395,-617 597,-931 23,-135 42,-270 61,-406 195,-26 387,-51 578,-78 -50,303 -98,607 -147,910 -49,302 -100,605 -150,909l-7 44zm-1464 114l-551 43 8 -60c36,-279 72,-558 108,-838 37,-279 70,-559 109,-838 189,-26 383,-52 572,-78 -22,175 -49,352 -72,527 -24,175 -47,351 -72,527 -25,176 -50,351 -75,526 -9,64 -18,127 -27,191zm-1214 94l-503 40c12,-104 23,-208 35,-312 -10,1 -21,2 -28,3 -54,107 -107,214 -160,321l-426 33c34,-66 68,-133 101,-199 68,-137 137,-276 205,-412 70,-140 141,-279 210,-419 70,-141 144,-282 216,-425 171,-24 346,-47 520,-71 -28,250 -58,501 -87,752 -27,229 -56,460 -83,689zm-1279 100l-454 35c-33,-96 -67,-191 -101,-286 -10,1 -18,1 -23,2 -9,99 -17,197 -25,296l-507 39c15,-207 28,-415 45,-622 18,-221 33,-444 49,-667 172,-23 346,-48 523,-72 46,118 96,238 143,357 48,121 97,241 144,363 46,123 92,246 138,370 23,62 45,123 68,185zm-1716 134l-503 39c4,-84 9,-167 14,-250 -60,88 -119,176 -178,262l-451 36c72,-104 143,-209 214,-314 147,-219 302,-440 453,-666 3,-95 11,-191 13,-286 174,-24 344,-48 518,-72 -13,215 -27,431 -41,646 -13,201 -26,403 -39,605zm-1330 103l-501 39c5,-184 12,-368 17,-551 5,-193 10,-387 16,-581 171,-23 340,-47 515,-72 -6,123 -11,246 -16,368 -5,123 -9,245 -13,368 -3,122 -10,245 -15,367l-3 62zm-1597 124l-255 20 -300 -19 5 -9 -986 -1129 740 104 520 683 618 -753 709 -98 -1057 1192 6 9zm-1690 -74l-1373 -90c-8,-191 -16,-382 -26,-573 -10,-205 -21,-410 -31,-615 510,71 1017,141 1525,210 2,102 5,204 5,305 -333,-40 -671,-81 -1002,-121 3,117 8,235 13,352 5,117 10,233 15,351 287,23 582,46 871,70l3 111zm-2310 -151l-502 -33c-9,-120 -18,-241 -27,-361 -14,-192 -31,-383 -44,-575 -212,-25 -425,-51 -638,-76 -10,-124 -23,-248 -33,-372 600,82 1202,163 1801,246 5,113 11,226 18,339 -210,-25 -423,-51 -635,-76 13,187 25,373 38,560 8,116 15,232 22,348zm-1133 -74l-505 -33 -29 -295c-9,-97 -16,-232 -171,-340 -127,-88 -267,-100 -405,-114 -21,-3 -36,-5 -54,-6 26,236 51,472 77,708l1 9 -507 -33 -2 -12c-28,-242 -56,-484 -84,-726 -18,-2 -36,-4 -49,-5 -141,-15 -284,-33 -392,36 -133,86 -108,235 -95,339 15,110 28,220 42,330l-507 -33c-13,-90 -25,-179 -37,-268 -30,-233 -46,-506 167,-685 202,-171 479,-141 702,-115 43,5 82,10 123,15 -13,-127 -28,-255 -44,-383 174,24 351,48 525,72 13,125 26,250 39,374 43,4 84,10 125,15 223,27 499,69 741,270 256,213 303,454 320,658l19 222zm-3108 -203l-1480 -97c-6,-33 -12,-65 -18,-98 -53,-300 -105,-600 -155,-900 -50,-300 -101,-601 -152,-901 555,74 1116,149 1672,223 22,153 44,306 66,459 -365,-43 -731,-86 -1096,-128 28,173 54,346 82,519 29,173 57,346 85,519 316,25 632,50 948,75 16,110 33,219 48,329zm-2151 -141l-637 -42c-11,-57 -22,-114 -33,-171 -286,-18 -575,-35 -860,-53l33 168 -632 -41c-32,-146 -64,-292 -95,-438 -84,-387 -164,-775 -247,-1162 -84,-387 -164,-776 -248,-1163 219,29 444,59 668,89 68,327 134,654 199,981 66,326 132,654 200,980 288,23 581,46 873,68 -61,-318 -124,-637 -183,-954 -60,-319 -122,-638 -183,-956 225,29 446,60 671,89 64,363 128,726 196,1089 67,362 132,725 199,1087 27,143 53,286 79,429z"/>
   <polygon class="fil4" points="7167,9437 6791,10605 4270,8502 2262,8054 7112,11691 7426,10810 9487,12849 9850,11952 11500,13018 9830,11149 9379,12028 "/>
   <path class="fil0" d="M10573 18946c-64,0 -129,0 -193,0 -10,-68 -19,-136 -28,-204 -10,-67 -20,-135 -29,-203 -123,0 -244,0 -366,0 8,68 20,136 30,203 10,68 21,136 31,204 -65,0 -130,0 -193,0 -25,-157 -50,-315 -74,-472 -25,-157 -51,-315 -76,-472 65,0 131,0 199,0 9,62 19,124 28,185 9,62 19,124 29,185 122,0 246,0 369,0 -9,-61 -18,-123 -26,-185 -9,-61 -18,-123 -27,-185 67,0 133,0 199,0 22,157 44,315 65,472 20,157 41,315 62,472zm111 -944c60,0 120,0 181,0 9,76 18,152 27,228 9,76 19,152 28,228 4,41 8,81 11,122 4,46 8,93 12,139 1,0 2,0 4,0 55,-120 113,-239 171,-359 57,-119 117,-238 177,-358 79,0 159,0 239,0 16,157 32,315 47,472 15,157 30,315 46,472 -58,0 -115,0 -172,0 -8,-76 -17,-151 -24,-227 -8,-75 -15,-151 -23,-226 -3,-31 -7,-68 -10,-113 -2,-45 -4,-98 -7,-157 -2,0 -4,0 -6,0 -60,120 -120,240 -178,361 -57,120 -114,241 -170,362 -78,0 -156,0 -234,0 -19,-157 -39,-315 -58,-472 -20,-157 -40,-315 -61,-472zm1343 453c-59,-75 -118,-151 -177,-226 -59,-75 -118,-151 -177,-227 68,0 136,0 205,0 57,76 115,153 171,229 57,76 113,152 170,228 -6,-76 -13,-152 -19,-228 -5,-76 -11,-153 -17,-229 61,0 124,0 186,0 6,76 11,153 17,229 5,76 11,152 16,228 45,-76 90,-152 135,-228 45,-76 91,-153 138,-229 68,0 137,0 206,0 -49,76 -99,151 -146,227 -47,75 -95,151 -142,226 60,82 120,163 180,246 59,81 119,163 178,245 -70,0 -139,0 -208,0 -56,-80 -112,-160 -169,-239 -57,-80 -114,-160 -172,-239 6,79 12,159 18,239 6,79 11,159 17,239 -61,0 -121,0 -181,0 -6,-80 -12,-159 -19,-239 -6,-80 -11,-160 -18,-239 -45,79 -92,159 -136,239 -44,79 -88,159 -132,239 -70,0 -139,0 -208,0 47,-82 93,-164 139,-245 47,-82 97,-164 145,-246zm1788 491c-65,0 -130,0 -194,0 -2,-68 -4,-136 -6,-204 -2,-67 -5,-135 -7,-203 -123,0 -245,0 -367,0 3,68 6,136 9,203 3,68 6,136 9,204 -65,0 -130,0 -193,0 -9,-157 -16,-315 -24,-472 -7,-157 -16,-315 -24,-472 66,0 133,0 200,0 3,62 5,124 8,185 2,62 6,124 9,185 121,0 244,0 368,0 -2,-61 -4,-123 -6,-185 -2,-61 -3,-123 -5,-185 66,0 132,0 200,0 3,157 7,315 11,472 4,157 8,315 12,472zm757 0c-176,0 -352,0 -527,0 -3,-157 -5,-315 -8,-472 -3,-157 -5,-315 -7,-472 180,0 362,0 542,0 0,55 0,109 0,164 -114,0 -227,0 -341,0 1,69 2,138 3,208 104,0 209,0 315,0 0,54 0,109 0,163 -106,0 -210,0 -315,0 1,41 2,82 2,122 1,41 1,81 1,122 112,0 223,0 335,0 0,55 0,110 0,165zm936 0c-75,0 -147,0 -220,0 -54,-80 -108,-160 -162,-239 -54,-80 -108,-160 -163,-239 -1,79 -2,159 -4,239 -1,79 -2,159 -3,239 -65,0 -129,0 -194,0 2,-157 3,-315 4,-472 1,-157 2,-315 3,-472 66,0 133,0 200,0 -1,76 -2,153 -3,229 -1,76 -2,152 -3,228 57,-76 114,-152 171,-228 57,-76 115,-153 174,-229 70,0 141,0 212,0 -59,76 -120,151 -178,227 -58,75 -117,151 -175,226 57,82 114,164 171,246 56,81 113,163 170,245zm675 0c-20,-75 -37,-150 -55,-225 -112,0 -224,0 -337,0 -25,75 -50,150 -75,225 -70,0 -139,0 -208,0 59,-158 119,-316 179,-474 61,-158 122,-316 185,-474 81,0 162,0 244,0 47,158 93,316 139,474 46,158 91,316 136,474 -70,0 -140,0 -208,0zm-93 -393c-26,-101 -47,-181 -61,-239 -15,-57 -23,-93 -27,-106 -7,-27 -12,-48 -14,-63 -9,27 -27,75 -49,143 -23,68 -53,157 -90,265 80,0 160,0 241,0zm804 393c-27,-123 -54,-247 -82,-370 -28,-124 -58,-247 -86,-371 -2,0 -4,0 -5,0 -2,76 -3,139 -5,189 -1,50 -4,88 -6,113 -5,73 -10,146 -15,219 -5,74 -10,147 -16,220 -57,0 -115,0 -172,0 10,-157 20,-315 30,-472 10,-157 21,-315 32,-472 91,0 181,0 272,0 28,120 55,241 82,361 27,120 55,241 82,361 1,0 2,0 4,0 48,-120 97,-241 146,-361 49,-120 99,-241 150,-361 90,0 181,0 272,0 -16,157 -32,315 -47,472 -15,157 -30,315 -46,472 -60,0 -121,0 -180,0 6,-75 13,-149 20,-223 7,-75 14,-149 21,-224 1,-21 4,-45 7,-73 4,-27 13,-101 30,-219 -2,0 -4,0 -6,0 -53,123 -106,246 -155,369 -50,124 -101,247 -151,370 -59,0 -118,0 -176,0zm1302 -791c-74,0 -136,29 -183,85 -47,57 -78,136 -89,237 -11,105 -1,184 31,237 32,52 88,79 165,79 65,0 145,-17 241,-50 -7,56 -14,112 -21,168 -80,32 -165,48 -258,48 -133,0 -230,-41 -292,-125 -30,-41 -52,-92 -63,-152 -11,-60 -13,-129 -5,-207 5,-48 15,-94 28,-137 14,-43 31,-83 53,-120 44,-74 101,-131 172,-170 71,-39 153,-59 243,-59 91,0 179,22 266,66 -28,55 -57,109 -85,163 -33,-17 -66,-31 -100,-44 -34,-12 -69,-19 -103,-19zm1080 791c-74,0 -148,0 -220,0 -44,-80 -88,-160 -132,-239 -44,-80 -89,-160 -133,-239 -11,79 -23,159 -34,239 -11,79 -22,159 -33,239 -65,0 -130,0 -194,0 21,-157 42,-315 62,-472 21,-157 43,-315 65,-472 66,0 132,0 200,0 -11,76 -22,153 -32,229 -11,76 -22,152 -34,228 67,-76 135,-152 201,-228 66,-76 135,-153 203,-229 70,0 142,0 213,0 -69,76 -140,152 -208,227 -68,75 -136,151 -204,226 47,82 95,164 142,246 46,81 91,163 138,245zm-10567 -572c125,0 251,0 377,0 6,27 13,54 21,82 8,27 15,55 24,82 -125,0 -249,0 -373,0 -9,-27 -16,-55 -25,-82 -8,-28 -17,-55 -24,-82zm10962 0c126,0 252,0 378,0 -9,27 -17,54 -26,82 -8,27 -16,55 -24,82 -126,0 -250,0 -375,0 8,-27 15,-55 23,-82 7,-28 15,-55 24,-82z"/>
   <polygon class="fil5" points="22752,9357 23128,10525 25649,8423 27657,7975 22807,11612 22494,10731 20475,12727 23440,12325 23525,11887 25888,11541 27826,11562 24141,12057 24006,12686 14781,14012 5370,12643 5206,12041 1446,11459 2945,11324 5920,11763 6093,12220 14772,13501 20418,12735 20069,11872 18148,13043 20089,11069 20540,11949 "/>
   <path class="fil6" d="M19646 12840l-3690 500c-173,196 -350,389 -528,579l3846 -553c126,-174 250,-349 372,-526zm-5940 504l-3723 -550c133,195 269,389 408,579l3855 561c-183,-194 -362,-391 -540,-590z"/>
   <path class="fil0" d="M10504 3875c-5,-304 -5,-612 38,-913 33,-230 89,-455 144,-680l0 -1 75 -305 418 -1735 1130 1416c165,207 441,419 660,570 168,116 346,223 534,305 181,-18 363,-31 545,-41 104,-6 208,-10 312,-13l0 -8 956 0 0 8c104,3 208,7 312,13 182,10 364,23 546,41 187,-82 365,-189 533,-305 219,-151 495,-363 660,-570l1131 -1416 417 1734 75 306 0 1c55,225 111,450 144,680 43,301 43,609 38,913 398,425 761,876 1076,1367 356,553 645,1144 922,1740l727 1563 -902 -215c3,84 2,168 -1,252l-66 1543 -254 -173c-2,128 -12,255 -30,382l-172 1175 -947 -475c-468,813 -1004,1580 -1614,2293 -948,1110 -1955,2055 -3085,3044 -1037,-908 -2121,-1944 -3061,-3044 -610,-713 -1146,-1480 -1614,-2293l-947 475 -172 -1175c-18,-126 -28,-254 -30,-382l-254 173 -66 -1543c-3,-84 -4,-168 -1,-252l-902 215 727 -1563c277,-596 566,-1187 922,-1740 315,-491 678,-942 1076,-1367zm4334 10103c613,-528 1193,-1093 1719,-1708 687,-803 1264,-1680 1752,-2617l272 -524 253 27c-50,-224 -118,-447 -204,-659l-564 -1397 921 164 -470 -1245 210 50c-311,-475 -677,-902 -1076,-1305l-288 -291 57 -383c2,-104 5,-208 6,-312 -266,160 -549,298 -843,395l-189 62 -202 -23c-220,-25 -441,-42 -662,-54 -159,-9 -318,-14 -476,-17l-431 0c-159,3 -318,8 -477,17 -221,12 -442,29 -662,54l-202 23 -188 -62c-295,-97 -577,-235 -844,-394 1,103 4,207 6,311l57 383 -288 291c-399,403 -765,830 -1076,1305l211 -50 -471 1245 921 -164 -564 1397c-86,212 -154,435 -204,659l253 -27 272 524c488,937 1065,1814 1752,2617 526,615 1106,1180 1719,1708z"/>
   <path class="fil0" d="M10504 3875c-5,-304 -5,-612 38,-913 33,-230 89,-455 144,-680l0 -1 75 -305 418 -1735 1130 1416c165,207 441,419 660,570 168,116 346,223 533,305 182,-18 364,-31 546,-41 104,-6 208,-10 312,-13l0 -8 956 0 0 8c104,3 208,7 312,13 182,10 364,23 546,41 187,-82 365,-189 533,-305 219,-151 495,-363 660,-570l1131 -1416 417 1734 75 306 0 1c55,225 111,450 144,680 43,301 43,609 38,913 398,425 761,876 1076,1367 356,553 645,1144 922,1740l727 1563 -902 -215c3,84 2,168 -1,252l-66 1543 -254 -173c-2,128 -12,255 -30,382l-172 1175 -947 -475c-468,813 -1004,1580 -1614,2293 -948,1110 -1955,2055 -3085,3044 -1037,-908 -2121,-1944 -3061,-3044 -610,-713 -1146,-1480 -1614,-2293l-947 475 -172 -1175c-18,-126 -28,-254 -30,-382l-254 173 -66 -1543c-3,-84 -4,-168 -1,-252l-902 215 727 -1563c277,-596 566,-1187 922,-1740 315,-491 678,-942 1076,-1367z"/>
   <polygon class="fil7" points="16300,11664 16777,9940 17287,9589 16650,8278 17691,9839 17111,10185 "/>
   <path class="fil7" d="M17051 7139c56,94 213,227 270,321 57,-118 114,-236 171,-353 38,107 75,214 113,321 236,-637 338,-1266 305,-2025 178,1016 310,1914 -185,2940 -84,-254 -169,-508 -253,-762 -56,138 -112,275 -168,412 -45,-153 -174,-274 -219,-427 -96,173 -183,361 -362,503 145,-439 259,-694 328,-930z"/>
   <path class="fil7" d="M10338 10540c-80,23 -155,55 -244,99l-510 256 -76 -521c-46,-309 -29,-675 32,-1045 13,-80 29,-160 46,-241l-395 269 -29 -686c-10,-243 11,-495 51,-728 7,-42 14,-85 23,-126l-605 144 310 -668c302,-650 565,-1177 891,-1684 307,-478 665,-930 1156,-1438 -18,-916 8,-1023 179,-1722l0 -2 61 -250 189 -786 521 653c118,148 401,416 763,665 227,158 481,303 735,399 208,-23 425,-40 641,-51 246,-14 505,-20 764,-19l0 -2 0 0 0 2c259,-1 518,5 764,19 216,11 432,28 641,51 254,-96 508,-241 735,-399 361,-249 644,-517 763,-665l521 -653 189 786 23 95 -275 753 430 -94c3,15 6,30 8,45l-203 386 242 -117c22,220 23,472 15,906 491,508 849,960 1155,1438 327,507 589,1034 891,1684l311 668 -605 -144c8,41 16,84 23,126 39,233 61,485 51,728l-30 685 -394 -268c17,81 32,161 45,241 61,370 78,736 33,1045l-76 521 -510 -256c-89,-44 -164,-76 -245,-99 -7,-2 -15,-4 -22,-6 -530,979 -1111,1821 -1770,2592 -819,958 -1745,1776 -2732,2551 -922,-794 -1841,-1559 -2688,-2551 -659,-771 -1240,-1613 -1770,-2592 -8,2 -15,4 -23,6z"/>
   <path class="fil8" d="M9901 10327c231,-115 388,-162 686,-194 1099,2112 2417,3573 4225,5038l2 -1289 1173 -915 -1166 410 -92 -29 -13 4 0 -8 -1215 -379 -236 -1314 -480 -1916 -108 -114 817 -1893c-604,-483 -412,-891 -1348,-1448 1143,174 1430,787 1947,831l132 -8 -55 109 -1037 2353 371 429c294,135 704,215 1014,241 81,4 162,6 242,6l-18 -101 -1053 -858 119 -269c1153,155 896,157 2045,0l120 269 -1051 856 -18 100c468,-15 905,-97 1199,-243l460 -422c-109,-212 -216,-441 -320,-674 -302,-165 -740,-203 -1268,-118 288,-220 804,-289 1109,-243l-42 -97c-223,-111 -542,-147 -770,-117 183,-133 441,-134 660,-137l-32 -75c-203,-95 -571,-141 -509,-130 161,-65 298,-91 416,-86 -119,-275 -233,-534 -342,-755 -216,-435 -402,-727 -597,-722 -159,5 -333,149 -531,444 -597,-436 -1026,-1001 -1331,-1660 338,476 666,914 1302,1283l554 -490c-3,5 500,431 565,454 610,-323 990,-804 1457,-1277 -88,216 -735,994 -1031,1417 -39,56 -35,250 222,107 1193,-665 1766,-2414 1843,-2675l-1 -1c-203,-173 -648,-332 -860,-435l809 -1099c-338,329 -948,801 -1567,1006 -446,-51 -966,-80 -1458,-79l0 0c-493,-1 -1012,28 -1458,79 -775,-256 -1536,-931 -1767,-1221 -225,937 -253,924 -230,1995l5 32c-1056,1070 -1490,1856 -2083,3131l476 -114c-123,326 -246,865 -225,1342 154,-105 469,-316 674,-353 -254,628 -415,1455 -332,2022zm2863 1245l-261 -1632 -510 -351 636 -1311 -1040 1561 579 346 596 1387z"/>
   <path class="fil4" d="M13632 7553c-273,-60 -545,-385 -638,-800 141,127 296,274 459,366 -6,12 -9,25 -9,39 0,54 48,98 107,98 44,0 82,-24 99,-59 57,12 115,16 173,7 -66,100 -123,238 -191,349z"/>
   <path class="fil4" d="M16019 7530c273,-60 591,-377 684,-792 -145,131 -314,289 -491,387 8,14 12,30 12,46 0,54 -48,98 -107,98 -46,0 -86,-27 -101,-65 -58,13 -116,17 -173,8 72,102 117,207 176,318z"/>
   <path class="fil1" d="M12764 11572l-261 -1632 -510 -351 636 -1311 -1040 1561 579 346 596 1387zm-662 -7818l-401 -983 1010 910 -1177 483 568 -410zm505 3385c-56,94 -214,227 -270,321 -57,-118 -114,-236 -171,-353 -38,107 -76,214 -113,321 -237,-637 -338,-1266 -305,-2025 -179,1016 -311,1914 185,2940 84,-254 168,-508 253,-762 56,138 112,275 168,412 45,-153 174,-274 219,-427 96,173 183,361 362,503 -145,-439 -259,-694 -328,-930z"/>
   <path class="fil9" d="M13833 12072l0 569c325,93 649,186 973,279 1,1 1,1 1,1 0,0 0,0 0,-1 324,-93 649,-186 973,-279 0,-190 0,-379 0,-569 -70,158 -140,316 -210,474 -6,-38 -11,-77 -16,-115 -517,93 -1015,90 -1494,0 -6,38 -11,77 -16,115l-211 -474z"/>
   <path class="fil9" d="M13999 10851l-82 -193 -80 1091c-123,-404 -247,-1023 -370,-1427 391,132 852,201 1313,204 462,-3 922,-72 1314,-204 -124,404 -247,1023 -371,1427l-80 -1091 -82 193c-743,59 -937,59 -1562,0z"/>
   <path class="fil10" d="M17051 7139c56,94 213,227 270,321 57,-118 114,-236 171,-353 38,107 75,214 113,321 236,-637 338,-1266 305,-2025 178,1016 310,1914 -185,2940 -84,-254 -169,-508 -253,-762 -56,138 -112,275 -168,412 -45,-153 -174,-274 -219,-427 -96,173 -183,361 -362,503 145,-439 259,-694 328,-930zm-751 4525l477 -1724 510 -351 -637 -1311 1041 1561 -580 346 -811 1479z"/>
  </g>
 </g>
</svg>
