<?xml version="1.0" encoding="iso-8859-1"?>
<!-- Generator: Adobe Illustrator 20.1.0, SVG Export Plug-In . SVG Version: 6.00 Build 0)  -->
<svg version="1.0" id="&#x421;&#x43B;&#x43E;&#x439;_1"
	 xmlns="http://www.w3.org/2000/svg" xmlns:xlink="http://www.w3.org/1999/xlink" x="0px" y="0px" viewBox="0 0 18 13"
	 style="enable-background:new 0 0 18 13;" xml:space="preserve">
<g>
	<path style="fill:#FFFFFF;" d="M9,1.188c-3.406,0-6.494,1.863-8.773,4.89c-0.186,0.248-0.186,0.594,0,0.842
		C2.506,9.949,5.594,11.813,9,11.813s6.494-1.863,8.773-4.89c0.186-0.248,0.186-0.594,0-0.842C15.494,3.051,12.406,1.188,9,1.188z
		 M9.244,10.241C6.984,10.383,5.117,8.52,5.259,6.256c0.117-1.867,1.63-3.38,3.497-3.497c2.261-0.142,4.127,1.721,3.985,3.985
		C12.621,8.607,11.107,10.121,9.244,10.241z M9.131,8.513C7.913,8.589,6.907,7.587,6.987,6.369c0.062-1.006,0.879-1.819,1.885-1.885
		c1.218-0.077,2.224,0.926,2.144,2.144C10.951,7.638,10.134,8.451,9.131,8.513z"/>
</g>
<g>
</g>
<g>
</g>
<g>
</g>
<g>
</g>
<g>
</g>
<g>
</g>
</svg>
