<svg xmlns="http://www.w3.org/2000/svg" width="55" height="46.16" viewBox="0 0 55 46.16">
  <metadata><?xpacket begin="﻿" id="W5M0MpCehiHzreSzNTczkc9d"?>
<x:xmpmeta xmlns:x="adobe:ns:meta/" x:xmptk="Adobe XMP Core 5.6-c138 79.159824, 2016/09/14-01:09:01        ">
   <rdf:RDF xmlns:rdf="http://www.w3.org/1999/02/22-rdf-syntax-ns#">
      <rdf:Description rdf:about=""/>
   </rdf:RDF>
</x:xmpmeta>
                                                                                                    
                                                                                                    
                                                                                                    
                                                                                                    
                                                                                                    
                                                                                                    
                                                                                                    
                                                                                                    
                                                                                                    
                                                                                                    
                                                                                                    
                                                                                                    
                                                                                                    
                                                                                                    
                                                                                                    
                                                                                                    
                                                                                                    
                                                                                                    
                                                                                                    
                                                                                                    
                           
<?xpacket end="w"?></metadata>
<defs>
    <style>
      .cls-1 {
        fill: #fff;
        fill-rule: evenodd;
      }
    </style>
  </defs>
  <path id="Пиктограмма_-_Корзина_-_Большая" data-name="Пиктограмма - Корзина - Большая" class="cls-1" d="M380,1870a3.032,3.032,0,0,0-3-3H355l-12.334-15.14s-0.608.48-1.361,1.06A3.309,3.309,0,0,0,341,1857l8,10H328a2.973,2.973,0,0,0-3,3v2h55v-2Zm-12,28a7.372,7.372,0,0,0,6.925-6.83L378,1874H333c-3.458,0-6,3.54-6,7l3,17h38Zm-4-17c0-1.73.637-3,3-3h3v12a3.021,3.021,0,0,1-3,3h-3v-12Zm-10,0a2.73,2.73,0,0,1,3-3h3v12a3.021,3.021,0,0,1-3,3h-3v-12Zm-10,0a2.822,2.822,0,0,1,3-3h3v12a3.022,3.022,0,0,1-3,3h-3v-12Zm-10,0a3.021,3.021,0,0,1,3-3h3v12a3.022,3.022,0,0,1-3,3h-3v-12Z" transform="translate(-325 -1851.84)"/>
</svg>
