<svg id="SvgjsSvg1000" xmlns="http://www.w3.org/2000/svg" version="1.1" xmlns:xlink="http://www.w3.org/1999/xlink" xmlns:svgjs="http://svgjs.com/svgjs" width="240" height="558" viewBox="0 0 240 558"><title>Rectangle 31</title><desc>Created with Avocode.</desc><defs id="SvgjsDefs1001"><clipPath id="SvgjsClipPath1012"><path id="SvgjsPath1011" d="M1291 372.999L1531 372.999L1531 884.999L1411.5 930L1291 884.999Z " fill="#ffffff"></path></clipPath></defs><path id="SvgjsPath1007" d="M1291 372.999L1531 372.999L1531 884.999L1411.5 930L1291 884.999Z " fill="#f2f2f2" fill-opacity="1" transform="matrix(1,0,0,1,-1291,-372)"></path><path id="SvgjsPath1008" d="M1291 372.999L1531 372.999L1531 884.999L1411.5 930L1291 884.999Z " fill="#f2f2f2" fill-opacity="1" transform="matrix(1,0,0,1,-1291,-372)"></path><path id="SvgjsPath1009" d="M1291 372.999L1531 372.999L1531 884.999L1411.5 930L1291 884.999Z " fill="#ffffff" fill-opacity="1" transform="matrix(1,0,0,1,-1291,-372)"></path><path id="SvgjsPath1010" d="M1291 372.999L1531 372.999L1531 884.999L1411.5 930L1291 884.999Z " fill-opacity="0" fill="#ffffff" stroke-dasharray="0" stroke-linejoin="round" stroke-linecap="round" stroke-opacity="1" stroke="#dedede" stroke-miterlimit="50" stroke-width="3" clip-path="url(&quot;#SvgjsClipPath1012&quot;)" transform="matrix(1,0,0,1,-1291,-372)"></path></svg>
