<?xml version="1.0" encoding="utf-8"?>
<!-- Generator: Adobe Illustrator 19.0.1, SVG Export Plug-In . SVG Version: 6.00 Build 0)  -->
<svg version="1.1" id="Слой_1" xmlns="http://www.w3.org/2000/svg" xmlns:xlink="http://www.w3.org/1999/xlink" x="0px" y="0px"
	 viewBox="-284 407.1 26.9 27.8" style="enable-background:new -284 407.1 26.9 27.8;" xml:space="preserve">
<style type="text/css">
	.st0{fill:#FFFFFF;}
	.st1{fill:none;}
</style>
<g>
	<path class="st0" d="M-270.4,421.2c2.9,0,5.3-2.8,5.3-6.3c0-4.8-2.4-6.3-5.3-6.3s-5.3,1.5-5.3,6.3
		C-275.7,418.4-273.4,421.2-270.4,421.2z"/>
	<path class="st0" d="M-262.3,425.2c0.5,0,1,0.1,1.5,0.3l-0.5-1.1c-0.1-0.3-0.3-0.5-0.6-0.6l-4.2-2.2c-0.1,0-0.2,0-0.3,0
		c-1.2,0.9-2.6,1.4-4,1.4s-2.8-0.5-4-1.4c-0.1-0.1-0.2-0.1-0.3,0l-4.2,2.2c-0.3,0.1-0.5,0.4-0.6,0.6l-2.7,6.1
		c-0.2,0.4-0.1,0.9,0.1,1.3c0.2,0.3,0.7,0.5,1.1,0.5h15c-0.6-0.7-0.9-1.7-0.9-2.7C-266.9,427.2-264.8,425.2-262.3,425.2z"/>
	<path class="st1" d="M-261.6,427.6c-0.7,0-1.3,0.6-1.3,1.3c0,0.2,0,0.3,0.1,0.5l-1.6,1.6v0.8h0.8v-0.5h0.5v-0.5h0.5l0.6-0.7
		c0.1,0,0.3,0.1,0.5,0.1c0.7,0,1.3-0.6,1.3-1.3S-260.8,427.6-261.6,427.6z M-261.2,429c-0.3,0-0.5-0.2-0.5-0.5
		c0-0.3,0.2-0.5,0.5-0.5c0.3,0,0.5,0.2,0.5,0.5C-260.7,428.8-260.9,429-261.2,429z"/>
	<path class="st0" d="M-261.2,428.1c-0.3,0-0.5,0.2-0.5,0.5c0,0.3,0.2,0.5,0.5,0.5c0.3,0,0.5-0.2,0.5-0.5
		C-260.7,428.3-260.9,428.1-261.2,428.1z"/>
	<path class="st0" d="M-262.3,426.1c-2,0-3.6,1.6-3.6,3.6s1.6,3.6,3.6,3.6s3.6-1.6,3.6-3.6C-258.8,427.7-260.4,426.1-262.3,426.1z
		 M-261.6,430.2c-0.2,0-0.3,0-0.5-0.1l-0.7,0.7h-0.5v0.5h-0.5v0.5h-0.8V431l1.6-1.6c0-0.2-0.1-0.3-0.1-0.5c0-0.7,0.6-1.3,1.3-1.3
		c0.7,0,1.3,0.6,1.3,1.3S-260.8,430.2-261.6,430.2z"/>
</g>
</svg>
