<?xml version="1.0" encoding="utf-8"?>
<!-- Generator: Adobe Illustrator 19.0.1, SVG Export Plug-In . SVG Version: 6.00 Build 0)  -->
<svg version="1.1" id="Слой_1" xmlns="http://www.w3.org/2000/svg" xmlns:xlink="http://www.w3.org/1999/xlink" x="0px" y="0px"
	 viewBox="-284 407.1 26.9 27.8" style="enable-background:new -284 407.1 26.9 27.8;" xml:space="preserve">
<style type="text/css">
	.st0{fill:#D9DADA;}
</style>
<path class="st0" d="M-258.5,409.6c-0.4-0.4-1-0.7-1.6-0.7s-1.2,0.2-1.6,0.7l-10.1,10.1l3.2,3.2l10.1-10.1
	C-257.6,411.9-257.6,410.5-258.5,409.6z M-259.4,411.4l-8.7,8.7c-0.1,0.1-0.3,0.2-0.4,0.2s-0.3-0.1-0.4-0.2c-0.2-0.2-0.2-0.6,0-0.9
	l8.7-8.7c0.2-0.2,0.6-0.2,0.9,0C-259.1,410.8-259.1,411.2-259.4,411.4z M-258.8,428.4l-6.7-6.7l-2.2,2.2l0.3,0.3
	c0.2,0.2,0.2,0.6,0,0.9c-0.1,0.1-0.3,0.2-0.4,0.2c-0.2,0-0.3-0.1-0.4-0.2l-0.8-0.8c0,0,0,0,0,0l-1.6-1.6l0,0l-0.9-0.9l0,0l-1.6-1.6
	l0,0l-0.8-0.8c-0.2-0.2-0.2-0.6,0-0.9c0.2-0.2,0.6-0.2,0.9,0l0.3,0.3l2.2-2.2l-1.9-1.9c0.3-1.8-0.2-3.6-1.5-4.9
	c-1-1-2.4-1.6-3.9-1.6c-0.5,0-1,0.1-1.5,0.2c-0.2,0.1-0.4,0.2-0.4,0.5c-0.1,0.2,0,0.4,0.2,0.6l2.1,2.1c0.4,0.4,0.4,1.2,0,1.6
	l-0.8,0.8c-0.2,0.2-0.5,0.3-0.8,0.3c-0.3,0-0.6-0.1-0.8-0.3l-2.1-2.1c-0.2-0.2-0.4-0.2-0.6-0.2c-0.2,0.1-0.4,0.2-0.5,0.4
	c-0.6,2.1,0.1,4.3,1.7,5.7c1,0.8,2.2,1.3,3.5,1.3c0.4,0,0.7,0,1-0.1l4,4l-6.5,6.5l-0.3-0.3c-0.1-0.1-0.3-0.2-0.5-0.2
	c-0.2,0-0.4,0.1-0.5,0.3l-1.8,2.7c-0.2,0.3-0.1,0.6,0.1,0.8l0.7,0.7c0.1,0.1,0.3,0.2,0.4,0.2c0.1,0,0.2,0,0.4-0.1l2.7-1.8
	c0.2-0.1,0.3-0.3,0.3-0.5c0-0.2,0-0.4-0.2-0.5l-0.3-0.3l6.5-6.5l8.8,8.8c0.6,0.6,1.4,0.9,2.2,0.9c0.8,0,1.6-0.3,2.2-0.9
	C-257.6,431.6-257.6,429.6-258.8,428.4z M-260,431.5c-0.3,0.3-0.7,0.5-1.1,0.5c-0.4,0-0.8-0.2-1.1-0.5c-0.6-0.6-0.6-1.6,0-2.3
	c0.3-0.3,0.7-0.5,1.1-0.5c0.4,0,0.8,0.2,1.1,0.5C-259.4,429.9-259.4,430.9-260,431.5z"/>
</svg>
