<?xml version="1.0" encoding="utf-8"?>
<!-- Generator: Adobe Illustrator 19.0.1, SVG Export Plug-In . SVG Version: 6.00 Build 0)  -->
<svg version="1.1" id="Слой_1" xmlns="http://www.w3.org/2000/svg" xmlns:xlink="http://www.w3.org/1999/xlink" x="0px" y="0px"
	 viewBox="-284 407.1 26.9 27.8" style="enable-background:new -284 407.1 26.9 27.8;" xml:space="preserve">
<style type="text/css">
	.st0{fill:#B2B3B3;}
	.st1{fill:#538D31;}
</style>
<path class="st0" d="M-273.4,424.5l-0.4,2.2c-0.1,0.3,0.1,0.6,0.3,0.8c0.3,0.2,0.6,0.2,0.9,0.1l2-1l2,1c0.1,0.1,0.2,0.1,0.4,0.1
	c0.2,0,0.3-0.1,0.5-0.2c0.3-0.2,0.4-0.5,0.3-0.8l-0.4-2.2l1.6-1.6c0.2-0.2,0.3-0.5,0.2-0.8c-0.1-0.3-0.4-0.5-0.7-0.6l-2.2-0.3l-1-2
	c-0.1-0.3-0.4-0.5-0.7-0.5c-0.3,0-0.6,0.2-0.7,0.5l-1,2l-2.2,0.3c-0.3,0-0.6,0.3-0.7,0.6c-0.1,0.3,0,0.6,0.2,0.8L-273.4,424.5z"/>
<path class="st1" d="M-260.9,411.3h-2.6v-1.4c0-0.7-0.5-1.2-1.2-1.2h-0.2c-0.7,0-1.2,0.5-1.2,1.2v1.4h-9.1v-1.4
	c0-0.7-0.5-1.2-1.2-1.2h-0.2c-0.7,0-1.2,0.5-1.2,1.2v1.4h-2.5c-1.3,0-2.4,1.1-2.4,2.4v17c0,1.3,1.1,2.4,2.4,2.4h19.3
	c1.3,0,2.4-1.1,2.4-2.4v-17C-258.5,412.4-259.6,411.3-260.9,411.3z M-261.2,430.5h-18.6v-13.3h18.6V430.5z"/>
</svg>
