<?xml version="1.0" encoding="utf-8"?>
<!-- Generator: Adobe Illustrator 19.0.1, SVG Export Plug-In . SVG Version: 6.00 Build 0)  -->
<svg version="1.1" id="Слой_1" xmlns="http://www.w3.org/2000/svg" xmlns:xlink="http://www.w3.org/1999/xlink" x="0px" y="0px"
	 viewBox="-284 407.1 26.9 27.8" style="enable-background:new -284 407.1 26.9 27.8;" xml:space="preserve">
<style type="text/css">
	.st0{fill:#D9DADA;}
</style>
<g>
	<g>
		<path class="st0" d="M-262.4,430.8c0,0.4-0.3,0.7-0.7,0.7h-16.2c-0.4,0-0.7-0.3-0.7-0.7v-0.3h15c0.8,0,1.4-0.6,1.4-1.4v-18.7
			c0-0.8-0.6-1.4-1.4-1.4h-15c-0.8,0-1.4,0.6-1.4,1.4v18.7c0,0,0,0,0,0v1.7c0,1.2,0.9,2.1,2.1,2.1h16.2c1.2,0,2.1-0.9,2.1-2.1v-2.9
			h-1.4V430.8L-262.4,430.8z M-277.4,416.4c0-0.4,0.2-0.7,0.5-1c0.3-0.3,0.6-0.6,0.9-0.9c0.4-0.4,0.9-0.4,1.3,0
			c0.2,0.2,0.5,0.5,0.7,0.7c0.2,0.2,0.5,0.5,0.7,0.7c0.4,0.4,0.4,0.9,0,1.3c-0.3,0.3-0.6,0.6-0.9,0.9c-0.1,0.1-0.1,0.1,0,0.2
			c0.2,0.5,0.5,0.9,0.8,1.3c0.6,0.8,1.3,1.5,2.2,2c0.2,0.1,0.4,0.2,0.6,0.3c0.1,0.1,0.2,0,0.2,0c0.3-0.3,0.6-0.6,0.9-0.9
			c0.4-0.4,0.9-0.4,1.3,0c0.5,0.5,0.9,0.9,1.4,1.4c0.4,0.4,0.4,0.9,0,1.3c-0.3,0.3-0.6,0.5-0.8,0.8c-0.4,0.4-0.8,0.5-1.4,0.5
			c-0.8,0-1.5-0.3-2.2-0.6c-1.5-0.7-2.8-1.8-3.9-3c-0.8-1-1.5-2-1.9-3.2C-277.3,417.6-277.5,417-277.4,416.4z"/>
		<path class="st0" d="M-260.5,416.9h-1.9v4.1h1.9c0.5,0,0.8-0.4,0.8-0.8v-2.4C-259.7,417.3-260.1,416.9-260.5,416.9z"/>
		<path class="st0" d="M-260.5,422.4h-1.9v4.1h1.9c0.5,0,0.8-0.4,0.8-0.8v-2.4C-259.7,422.8-260.1,422.4-260.5,422.4z"/>
		<path class="st0" d="M-260.5,411.5h-1.9v4.1h1.9c0.5,0,0.8-0.4,0.8-0.8v-2.4C-259.7,411.9-260.1,411.5-260.5,411.5z"/>
	</g>
</g>
</svg>
