<?xml version="1.0" encoding="utf-8"?>
<!-- Generator: Adobe Illustrator 19.0.1, SVG Export Plug-In . SVG Version: 6.00 Build 0)  -->
<svg version="1.1" id="Слой_1" xmlns="http://www.w3.org/2000/svg" xmlns:xlink="http://www.w3.org/1999/xlink" x="0px" y="0px"
	 viewBox="-284 407.1 26.9 27.8" style="enable-background:new -284 407.1 26.9 27.8;" xml:space="preserve">
<style type="text/css">
	.st0{fill:#538D31;}
</style>
<g>
	<path class="st0" d="M-257.9,413c0-2.5-2.1-4.6-4.6-4.6h-16c-1.2,0-2.4,0.5-3.3,1.4c-0.9,0.9-1.3,2-1.3,3.3l0,12.2
		c0,2.5,2.1,4.5,4.6,4.5h4.6l2.2,3.1c0.3,0.4,0.8,0.7,1.3,0.7s1-0.3,1.3-0.7l2.2-3.1h4.6c1.2,0,2.4-0.4,3.3-1.3
		c0.9-0.9,1.3-2,1.3-3.2L-257.9,413z M-270.9,426.4c-1,0-1.6-0.7-1.6-1.6c0-1,0.7-1.6,1.6-1.6c1,0,1.6,0.7,1.6,1.6
		C-269.3,425.6-269.9,426.4-270.9,426.4z M-268.6,418.6c-0.7,0.8-0.9,1.6-0.9,2.5c0,0.7-0.5,1.2-1.2,1.2h-0.5
		c-0.7,0-1.2-0.5-1.2-1.2l0-0.1c-0.1-1,0.3-2.1,1.2-3.1c0.6-0.8,1.1-1.4,1.1-2.1c0-0.7-0.5-1.2-1.4-1.2c-0.3,0-0.6,0.1-1,0.1
		c-0.6,0.2-1.2-0.2-1.4-0.8c-0.2-0.6,0.1-1.2,0.7-1.4c0.6-0.2,1.4-0.4,2.3-0.4c2.6,0,3.9,1.4,3.9,3.1
		C-266.9,416.8-267.8,417.8-268.6,418.6z"/>
</g>
</svg>
