<?xml version="1.0" encoding="utf-8"?>
<!-- Generator: Adobe Illustrator 19.0.1, SVG Export Plug-In . SVG Version: 6.00 Build 0)  -->
<svg version="1.1" id="Слой_1" xmlns="http://www.w3.org/2000/svg" xmlns:xlink="http://www.w3.org/1999/xlink" x="0px" y="0px"
	 viewBox="-284 407.1 26.9 27.8" style="enable-background:new -284 407.1 26.9 27.8;" xml:space="preserve">
<style type="text/css">
	.st0{fill:#538D31;}
	.st1{fill:#B2B3B3;}
</style>
<path class="st0" d="M-265.5,421.7l-2.2,2.2l0.3,0.3c0.2,0.2,0.2,0.6,0,0.9c-0.1,0.1-0.3,0.2-0.4,0.2c-0.2,0-0.3-0.1-0.4-0.2
	l-0.8-0.8l-1.6-1.6l-0.9-0.9l-1.6-1.6l-0.8-0.8c-0.2-0.2-0.2-0.6,0-0.9c0.2-0.2,0.6-0.2,0.9,0l0.3,0.3l2.2-2.2l-1.9-1.9
	c0.3-1.8-0.2-3.6-1.5-4.9c-1-1-2.4-1.6-3.9-1.6c-0.5,0-1,0.1-1.5,0.2c-0.2,0.1-0.4,0.2-0.4,0.5c-0.1,0.2,0,0.4,0.2,0.6l2.1,2.1
	c0.4,0.4,0.4,1.2,0,1.6l-0.8,0.8c-0.2,0.2-0.5,0.3-0.8,0.3s-0.6-0.1-0.8-0.3l-2.1-2.1c-0.2-0.2-0.4-0.2-0.6-0.2
	c-0.2,0.1-0.4,0.2-0.5,0.4c-0.6,2.1,0.1,4.3,1.7,5.7c1,0.8,2.2,1.3,3.5,1.3c0.4,0,0.7,0,1-0.1l4,4l-6.5,6.5l-0.3-0.3
	c-0.1-0.1-0.3-0.2-0.5-0.2s-0.4,0.1-0.5,0.3l-1.8,2.7c-0.2,0.3-0.1,0.6,0.1,0.8l0.7,0.7c0.1,0.1,0.3,0.2,0.4,0.2
	c0.1,0,0.2,0,0.4-0.1l2.7-1.8c0.2-0.1,0.3-0.3,0.3-0.5s0-0.4-0.2-0.5l-0.3-0.3l6.5-6.5l8.8,8.8c0.6,0.6,1.4,0.9,2.2,0.9
	s1.6-0.3,2.2-0.9c1-1.2,1-3.2-0.2-4.4L-265.5,421.7z M-260,431.5c-0.3,0.3-0.7,0.5-1.1,0.5c-0.4,0-0.8-0.2-1.1-0.5
	c-0.6-0.6-0.6-1.6,0-2.3c0.3-0.3,0.7-0.5,1.1-0.5c0.4,0,0.8,0.2,1.1,0.5C-259.4,429.9-259.4,430.9-260,431.5z"/>
<path class="st1" d="M-268.6,422.9l10.1-10.1c0.9-0.9,0.9-2.3,0-3.2c-0.4-0.4-1-0.7-1.6-0.7c-0.6,0-1.2,0.2-1.6,0.7l-10.1,10.1
	L-268.6,422.9z M-260.2,410.5c0.2-0.2,0.6-0.2,0.9,0c0.2,0.3,0.2,0.7-0.1,0.9l-8.7,8.7c-0.1,0.1-0.3,0.2-0.4,0.2
	c-0.1,0-0.3-0.1-0.4-0.2c-0.2-0.2-0.2-0.6,0-0.9L-260.2,410.5z"/>
</svg>
