<svg id="Слой_1" data-name="Слой 1" xmlns="http://www.w3.org/2000/svg" viewBox="0 0 18.24 23.07"><defs><style>.cls-1,.cls-2{fill:#fff;}.cls-1{fill-rule:evenodd;}</style></defs><title>zakazy</title><path class="cls-1" d="M-10.52-7.26h-2.28V-8.4A.57.57,0,0,0-13.37-9h-2.28a.57.57,0,0,0-.57.57v1.14h-2.28a.57.57,0,0,0-.57.57v2.28a.57.57,0,0,0,.57.57h8a.57.57,0,0,0,.57-.57V-6.69a.57.57,0,0,0-.57-.57ZM-11.08-5h-6.84V-6.12h2.85V-7.83h1.14v1.71h2.85Zm0,0" transform="translate(23.62 8.97)"/><path class="cls-2" d="M-19.06,3h6.84a.57.57,0,0,0,.57-.57.57.57,0,0,0-.57-.57h-6.84a.57.57,0,0,0-.57.57.57.57,0,0,0,.57.57Zm0-2.85h9.12a.57.57,0,0,0,.57-.57A.57.57,0,0,0-9.95-1h-9.12a.57.57,0,0,0-.57.57.57.57,0,0,0,.57.57Zm0,8.55h6.84a.57.57,0,0,0,.57-.57.57.57,0,0,0-.57-.57h-6.84a.57.57,0,0,0-.57.57.57.57,0,0,0,.57.57Zm0-2.85h9.12a.57.57,0,0,0,.57-.57.57.57,0,0,0-.57-.57h-9.12a.57.57,0,0,0-.57.57.57.57,0,0,0,.57.57ZM-6-6.12H-8.23a.57.57,0,0,0-.57.57A.57.57,0,0,0-8.23-5h1.71V13h-16V-5h1.71a.57.57,0,0,0,.57-.57.57.57,0,0,0-.57-.57h-2.28a.57.57,0,0,0-.57.57V13.53a.57.57,0,0,0,.57.57H-6a.57.57,0,0,0,.57-.57V-5.55A.57.57,0,0,0-6-6.12Zm0,0" transform="translate(23.62 8.97)"/></svg>