<svg xmlns="http://www.w3.org/2000/svg" xmlns:xlink="http://www.w3.org/1999/xlink" width="19" height="28" viewBox="0 0 19 28"><defs><path id="9vwta" d="M94.9 252.87a.4.4 0 0 1-.3.13H80.4a.4.4 0 0 1-.4-.43c0-.02.22-2.35.9-5.37 1.11-4.97 2.61-8.02 3.7-9.74v-1.5l-1.25-5.4a.39.39 0 0 1 0-.16l.42-2.09a.4.4 0 0 1 .38-.31h1.26c.22 0 .4.18.4.4v2a3.93 3.93 0 0 1 1.69 1.38h.02c.5-.72 1.1-1.14 1.68-1.39v-2c0-.21.17-.39.4-.39h1.25a.4.4 0 0 1 .38.31l.42 2.1v.16l-1.25 5.38v1.51c1.09 1.72 2.59 4.77 3.7 9.74.68 3.02.9 5.35.9 5.37a.4.4 0 0 1-.1.3zm-4.92-24.09v1.37c.3-.06.58-.09.8-.09l-.26-1.28zm-5.76 1.28c.22 0 .5.03.8.09v-1.37h-.54zm1.08 5.46h4.4l1.08-4.68a3.2 3.2 0 0 0-2.62 1.38.8.8 0 0 1-.66.34.8.8 0 0 1-.66-.34 3.23 3.23 0 0 0-2.62-1.38zm.08.78v.89h4.24v-.9zm-4.55 15.92h13.34c-.22-1.85-1.26-9.26-4.38-14.25h-.58l.77 4.98a.4.4 0 1 1-.78.11l-.78-5.1h-.53v7.97a.4.4 0 0 1-.78 0v-7.96h-.53l-.78 5.1a.4.4 0 0 1-.78-.12l.77-4.98h-.58c-3.13 4.99-4.16 12.4-4.38 14.25z"/></defs><g><g opacity=".5" transform="translate(-78 -226)"><use fill="#153f93" xlink:href="#9vwta"/></g></g></svg>