<svg xmlns="http://www.w3.org/2000/svg" xmlns:xlink="http://www.w3.org/1999/xlink" width="25" height="20" viewBox="0 0 25 20"><defs><path id="7yhga" d="M84.04 326.95c0 .21-.18.38-.4.38H77.4a.4.4 0 0 1-.28-.12.37.37 0 0 1-.1-.28l.8-14.57c.01-.2.18-.36.4-.36h11.01c.21 0 .38.16.4.36l.41 7.51c.01.2-.15.39-.37.4a.39.39 0 0 1-.41-.36l-.4-7.15H78.57l-.77 13.81h5.85c.21 0 .39.17.39.38zm-2.92-13.16v1.78a2.4 2.4 0 0 0 2.43 2.35 2.4 2.4 0 0 0 2.43-2.35v-1.78c0-.21.17-.38.39-.38s.39.17.39.38v1.78a3.17 3.17 0 0 1-3.21 3.1 3.17 3.17 0 0 1-3.21-3.1v-1.78c0-.21.18-.38.4-.38.2 0 .38.17.38.38zM98 321.11v7.51c0 .21-.18.38-.4.38H84.93a.39.39 0 0 1-.39-.38v-7.51c0-.21.18-.38.4-.38h6.4l.24-4.2c.01-.2.18-.36.39-.36h.51v-.38c0-.75.63-1.36 1.4-1.36.78 0 1.4.6 1.4 1.36v.38h.63c.2 0 .38.16.4.36l.22 4.2h1.09c.21 0 .39.17.39.38zm-4.75-5.32v.38h1.24v-.38c0-.33-.28-.6-.62-.6a.61.61 0 0 0-.62.6zm-1.13 4.94h3.62l-.21-3.8h-3.2zm-6.8.76v1.13h11.9v-1.13zm11.9 6.75v-4.86h-11.9v4.86z"/></defs><g><g opacity=".5" transform="translate(-75 -310)"><use fill="#153f93" xlink:href="#7yhga"/></g></g></svg>