<svg xmlns="http://www.w3.org/2000/svg" xmlns:xlink="http://www.w3.org/1999/xlink" width="24" height="23" viewBox="0 0 24 23"><defs><path id="m60na" d="M96.62 570.16a.33.33 0 0 1-.14.14l-1.33.66a.34.34 0 0 1-.15.04H80a.33.33 0 0 1-.18-.05l-2.66-1.67A.33.33 0 0 1 77 569v-2.33a1 1 0 0 1 1.45-.9 1 1 0 0 1 .55.9v1.14l.77.47a7.02 7.02 0 0 1 .25-4.06 7.3 7.3 0 0 1 4.31-4.13v-3.62l-.13-.14h-.77l-.91.61a.33.33 0 0 1-.42-.04l-.67-.66a.33.33 0 0 1-.03-.43l1.66-2.34a.33.33 0 0 1 .27-.14h1.34c.12 0 .24.07.3.19l.57 1.15h3.59l.57-1.15a.33.33 0 0 1 .3-.19h1c.11 0 .21.06.28.15l1.33 2c.07.11.07.26 0 .37l-.67 1c-.1.15-.3.2-.46.1l-.92-.62h-.42l-.47.47v4.2h.2l.9-.9c.07-.08.17-.1.27-.1.1.02.2.07.24.16l1 1.67c.04.05.05.11.05.17v.26l.54-.23.26.61-.8.34v.69l-.01.1c-.05.15-.14.38-.27.61l1.04.3-.18.64-1.3-.37a2.55 2.55 0 0 1-.95.58l.14.14H94.38c.25.03 1.54.26 2.24 1.5a3.23 3.23 0 0 1 0 3zm-8.95-2.5v-2.04a2.62 2.62 0 0 1-1.1-.52l-1.45.55-.24-.63 1.2-.45a2.87 2.87 0 0 1-.41-.9v-.69l-.8-.34.26-.61.54.23V562c0-.06.01-.12.04-.17l1-1.67a.33.33 0 0 1 .53-.06l.9.9H89v-4.33c0-.1.03-.18.1-.24l.66-.67c.07-.06.15-.1.24-.1h.67c.06 0 .13.03.18.06l.72.48.36-.53-1.1-1.67h-.62l-.58 1.15a.33.33 0 0 1-.3.18h-4a.33.33 0 0 1-.3-.18l-.57-1.15h-.95l-1.4 1.96.27.28.77-.52a.34.34 0 0 1 .18-.05h1c.1 0 .18.03.24.1l.33.33c.06.06.1.15.1.23v4c0 .15-.1.28-.23.32-.47.15-2.84 1-3.96 3.43a6.46 6.46 0 0 0-.16 4.8.33.33 0 0 1-.49.4l-1.66-1a.33.33 0 0 1-.17-.28v-1.33a.33.33 0 0 0-.18-.3.33.33 0 0 0-.35.03.33.33 0 0 0-.13.27v2.15l2.43 1.51h6.23c0-.36-.3-.66-.66-.66h-1a.33.33 0 0 1-.34-.34V569a2.34 2.34 0 0 0-2.33-2.33h-.33V566H82a3 3 0 0 1 3 3h.67c.73 0 1.33.6 1.33 1.33h.67v-2h-1.98v-.67zm8.37-.16a2.5 2.5 0 0 0-1.73-1.17h-3.64a.33.33 0 0 1-.24-.1l-.67-.66a.33.33 0 0 1 .2-.57c.32-.03.6-.12.85-.28l-.24-.07.19-.64.62.18c.15-.21.24-.42.29-.57v-.35l-.87.37-.27-.61 1.14-.49v-.45l-.74-1.22-.7.7a.33.33 0 0 1-.23.1h-2a.33.33 0 0 1-.24-.1l-.7-.7-.73 1.22v.45l1.13.49-.26.6-.87-.36v.35c.06.18.18.45.4.7l.82-.3.23.63-.43.16c.2.1.44.17.68.2.17 0 .3.15.3.32v5h1V568H90v2.33h1.2l-.18-.56a.33.33 0 0 1-.02-.1v-1c0-.07.02-.13.06-.19l.48-.72a.95.95 0 0 1 1.64.95l-.1.22.06.07h1.53v.67H93a.33.33 0 0 1-.24-.1l-.33-.33a.33.33 0 0 1-.06-.39l.22-.44a.28.28 0 0 0-.02-.27.29.29 0 0 0-.48 0l-.42.63v.84l.24.72h3.01l1.16-.58c.14-.3.51-1.29-.04-2.25zm-2.35-3.27l-.48-.46c2.6-2.82 3.67-5.86 2.85-8.15-.54-1.5-2.28-3.79-4.87-3.94-1.67-.1-3.03 1.3-3.68 1.96l-.29.28c-.08.08-.2.1-.3.08l-.03-.01a.33.33 0 0 1-.15-.07 6.3 6.3 0 0 1-.3-.3c-.63-.66-1.96-2.04-3.63-1.95-2.59.15-4.33 2.44-4.87 3.94-.73 2.01.01 4.63 2.02 7.18l-.52.42c-2.16-2.74-2.93-5.6-2.13-7.82.6-1.67 2.55-4.21 5.46-4.38 1.96-.12 3.45 1.41 4.16 2.15l.06.06.04-.04c.72-.74 2.22-2.29 4.2-2.17 2.91.17 4.86 2.72 5.46 4.39.9 2.52-.21 5.82-3 8.83zm-8.02-7.56h.66v.66h-.66zm2 0h.66v.66h-.66zM86.33 558h1.34v.67h-1.34zm1.34 4.33h.66v.67h-.66zm2 0h.66v.67h-.66zm-1 1h.66v.67h-.66z"/></defs><g><g opacity=".5" transform="translate(-75 -549)"><use fill="#153f93" xlink:href="#m60na"/></g></g></svg>