<svg xmlns="http://www.w3.org/2000/svg" xmlns:xlink="http://www.w3.org/1999/xlink" width="26" height="21" viewBox="0 0 26 21"><defs><path id="nvdka" d="M96.55 519.38c-.01 0-1.67-.6-3.26-.66l.51 7.45c.62-.2 1.23-.41 1.83-.65.28-.11.56-.17.82-.17.7 0 1.24.4 1.36 1 .1.5-.15 1.23-1.17 1.63A29.3 29.3 0 0 1 85.91 530c-3.01 0-5.98-.45-8.83-1.35-.85-.26-1.15-.93-1.07-1.47.1-.64.69-1.1 1.43-1.1.2 0 .42.04.65.1.37.12.74.23 1.12.33l.76-5.1-.4.05c-.61.05-1.51-.1-2.34-1.03a.43.43 0 0 1 .35-.72c.87.06 1.34-.4 1.93-.98.75-.73 1.68-1.64 3.59-1.52.68.04 1.2.26 1.7.46.89.37 1.73.72 3.63.22.18-.05.33-.12.44-.21.34-.29.39-.79.44-1.6.11-1.65.26-3.9 4.94-4.08a.43.43 0 0 1 .45.46l-.1 1.22c1.02.77 2.64 2.65 3.33 3.74.1.14.1.32 0 .47l-.87 1.32a.43.43 0 0 1-.5.17zm-11.98-.87c.08.73.49 1.35 1.15 1.74.78.46 1.75.5 2.36.08.48-.33.72-.9.7-1.65l-.14.04c-2.1.55-3.16.16-4.07-.21zm2.35 9.69a27.67 27.67 0 0 1-6.24-.48h-.01a27.24 27.24 0 0 1-2.84-.71 1.37 1.37 0 0 0-.4-.07c-.35 0-.54.19-.57.37-.03.22.15.42.48.52a28.6 28.6 0 0 0 18.99-.65c.49-.19.67-.47.63-.67-.03-.18-.23-.3-.5-.3-.16 0-.33.04-.51.1a27.28 27.28 0 0 1-9.03 1.89zm-1.01-.84a26.86 26.86 0 0 0 5.92-.66l-1.13-2.12-.33-.6a5.22 5.22 0 0 1-3.56.35 5.34 5.34 0 0 1-1.77-.9c-.72 1.4-1.8 1.63-2.71 1.5l-.95 2.04c1.5.26 3 .39 4.53.39zm10.61-8.9l.54-.8c-.82-1.2-2.38-2.91-3.13-3.42a.43.43 0 0 1-.2-.38l.07-.98c-3.43.25-3.53 1.71-3.63 3.26-.05.71-.1 1.5-.57 2.03.22 1.72-.54 2.53-1.03 2.86-.43.3-.97.45-1.53.45-.59 0-1.2-.16-1.75-.49a3.19 3.19 0 0 1-1.6-2.81c-.2-.06-.41-.1-.65-.12-1.52-.1-2.2.57-2.92 1.28-.44.43-.9.87-1.52 1.1a1.94 1.94 0 0 0 1.67-.03.43.43 0 0 1 .65.42l-.88 5.88.47.1 1.18-2.55c.08-.19.3-.29.5-.24 1.1.28 1.8-.16 2.28-1.42a.43.43 0 0 1 .67-.19l.08.06c.74.6 2.24 1.82 4.75.75l-.1-.19a.43.43 0 0 1 .76-.4l.3.58 1.77 3.27.26-.07-.56-8.09a.43.43 0 0 1 .42-.45c1.46-.06 3.04.38 3.7.6zm-2.36-2.85c0 .25-.2.46-.46.46-.27.01-.49-.18-.5-.42-.01-.25.2-.46.46-.47.26 0 .48.19.5.43zm-4.3 6.51a.43.43 0 0 1-.58-.17v-.01a.43.43 0 0 1 .17-.58c.21-.11.47-.04.58.17v.01c.12.21.04.47-.17.58z"/></defs><g><g opacity=".5" transform="translate(-74 -510)"><use fill="#153f93" xlink:href="#nvdka"/></g></g></svg>