<svg xmlns="http://www.w3.org/2000/svg" xmlns:xlink="http://www.w3.org/1999/xlink" width="23" height="23" viewBox="0 0 23 23"><defs><path id="wnpya" d="M87 471a10 10 0 1 1-.01 20.01A10 10 0 0 1 87 471zm.25.74a7.3 7.3 0 0 1 1.47 2.85c.52 1.64.84 3.73.87 6l.8-.01a8.34 8.34 0 0 1 3.25-6.04 9.23 9.23 0 0 0-6.4-2.8zm-6.4 2.33c3.66 1.01 6.23 3.53 6.46 6.5l1.54.01c-.03-2.2-.34-4.22-.83-5.77-.53-1.68-1.3-2.77-1.98-3.01v-.01a9.22 9.22 0 0 0-5.18 2.28zm-.61.6a9.22 9.22 0 0 0-2.4 5.01c2.46.46 5.52.76 8.72.86-.25-2.65-2.7-5-6.32-5.87zm10.9 5.9c1.73-.05 3.45-.14 5.1-.3a9.22 9.22 0 0 0-2.1-5.18 7.6 7.6 0 0 0-3 5.47zm-13.38-.15l-.02.58c0 2.45.95 4.67 2.5 6.33 3.7-.89 6.17-3.32 6.34-6.04-3.23-.1-6.3-.4-8.82-.87zm18.5.6c-1.66.15-3.39.25-5.13.29a7.59 7.59 0 0 0 3 5.59 9.22 9.22 0 0 0 2.13-5.88zm-8.94.29c-.17 3.01-2.76 5.6-6.46 6.62a9.22 9.22 0 0 0 5.17 2.28c.64-.23 1.4-1.23 1.92-2.83.54-1.59.87-3.72.9-6.05l-1.53-.02zm3.07.01h-.8c-.02 2.4-.37 4.6-.93 6.3a7.08 7.08 0 0 1-1.41 2.64 9.23 9.23 0 0 0 6.4-2.8 8.33 8.33 0 0 1-3.26-6.14z"/></defs><g><g opacity=".5" transform="translate(-75 -469)"><use fill="#153f93" xlink:href="#wnpya"/></g></g></svg>