<svg xmlns="http://www.w3.org/2000/svg" xmlns:xlink="http://www.w3.org/1999/xlink" width="23" height="20" viewBox="0 0 23 20"><defs><path id="trina" d="M78.43 273.66a5.43 5.43 0 0 1 1.48-1.5l.27-.16.23.23c3.72 3.88 5.3 7.08 6.35 9.2.94 1.9 1.36 2.67 2.28 2.67.43 0 .67-.24.9-.48.18-.19.38-.4.68-.4 2.55 0 4.4.64 5.49 1.9.85.98.89 1.98.89 2.03v.05l-.39 1.8H85.26l-.37-1.71a15.76 15.76 0 0 0-3.19-5.35c-.41-.44-.82-.82-1.22-1.13V289h-2.04l-.05-.36c-.06-.36-1.39-8.68-1.39-9.97a8.6 8.6 0 0 1 1.43-5.01zm17.52 14.47l.11-.53H85.81l.11.53zm-15.47-8.4c.58.4 1.2.94 1.82 1.6a16.48 16.48 0 0 1 3.27 5.4h10.5c-.09-.3-.27-.68-.62-1.07-.91-1.02-2.56-1.56-4.78-1.57l-.15.15c-.26.28-.7.74-1.48.74-1.46 0-2.08-1.25-3.02-3.14-1-2.03-2.5-5.07-5.95-8.73-.24.2-.62.56-1 1.1a7.57 7.57 0 0 0-1.23 4.12c.5.16 1.48.55 2.64 1.4zm-.83 8.4v-.53h-.58l.08.53zm-.72-1.4h.72v-6.54a9.79 9.79 0 0 0-1.78-.92c.15 1.47.65 4.84 1.06 7.45z"/></defs><g><g opacity=".5" transform="translate(-75 -270)"><use fill="#153f93" xlink:href="#trina"/></g></g></svg>