<svg xmlns="http://www.w3.org/2000/svg" xmlns:xlink="http://www.w3.org/1999/xlink" width="23" height="23" viewBox="0 0 23 23"><defs><path id="q8uka" d="M96.67 597H95v.33h1.67c.2 0 .33.14.33.34s-.13.33-.33.33H95v.33h1.67c.2 0 .33.14.33.34s-.13.33-.33.33H95v.33h1.33c.2 0 .34.14.34.34s-.14.33-.34.33H95v.33h1c.2 0 .33.14.33.34s-.13.33-.33.33h-1v.33h.67c.2 0 .33.14.33.34s-.13.33-.33.33H95v1.33h.4c.5 0 .93.44.93.94v.73H97v6h-4.67v-6H93v-.73c0-.5.43-.94.93-.94h.4V602h-.66c-.2 0-.34-.13-.34-.33s.14-.34.34-.34h.66V601h-1c-.2 0-.33-.13-.33-.33s.13-.34.33-.34h1V600H93c-.2 0-.33-.13-.33-.33s.13-.34.33-.34h1.33V599h-1.66c-.2 0-.34-.13-.34-.33s.14-.34.34-.34h1.66V598h-1.66c-.2 0-.34-.13-.34-.33s.14-.34.34-.34h1.66V597h-1.66c-.2 0-.34-.13-.34-.33s.14-.34.34-.34h1.66V596h-1.66c-.2 0-.34-.13-.34-.33s.14-.34.34-.34h1.66V595H93c-.2 0-.33-.13-.33-.33s.13-.34.33-.34h1.33V594h-1c-.2 0-.33-.13-.33-.33s.13-.34.33-.34h1V593h-.66c-.2 0-.34-.13-.34-.33s.14-.34.34-.34h.66V592H94c-.2 0-.33-.13-.33-.33s.13-.34.33-.34h.33c0-.2.14-.33.34-.33s.33.13.33.33h.33c.2 0 .34.14.34.34s-.14.33-.34.33H95v.33h.67c.2 0 .33.14.33.34s-.13.33-.33.33H95v.33h1c.2 0 .33.14.33.34s-.13.33-.33.33h-1v.33h1.33c.2 0 .34.14.34.34s-.14.33-.34.33H95v.33h1.67c.2 0 .33.14.33.34s-.13.33-.33.33H95v.33h1.67c.2 0 .33.14.33.34s-.13.33-.33.33zm-.34 8.67H93v4.66h3.33zM95.4 604h-1.47a.29.29 0 0 0-.26.27v.73h2v-.73a.29.29 0 0 0-.27-.27zm-5.73-2h.66v9h-4.66v-9h.66v-4.14c-.07-.22-.05-.5.04-.8.13-.4.4-.8.76-1.16.37-.37.77-.63 1.17-.77.47-.16.87-.1 1.13.17.22.22.3.52.24.87zm-2.73-4.41a.3.3 0 0 1 .03.08l.03.03c.13.13.77 0 1.37-.6.33-.33.56-.7.63-1.03a.3.3 0 0 1 .05-.11c0-.1-.02-.16-.05-.2a.18.18 0 0 0-.17-.1c-.06 0-.16 0-.3.07-.3.1-.63.34-.93.6-.3.27-.5.64-.6.94a.75.75 0 0 0-.06.32zm.06.83V602h2v-4.58l-.17.18c-.36.37-.76.63-1.16.77a2.56 2.56 0 0 1-.67.05zm2.67 5.91h-3.34v6h3.34zm0-.66v-1h-3.34v1zM80 592v1h3.33c.2 0 .34.13.34.33s-.14.34-.34.34H80v1h3.33c.2 0 .34.13.34.33s-.14.33-.34.33H80v1h3.33c.2 0 .34.14.34.34s-.14.33-.34.33H80v1h3.33c.2 0 .34.13.34.33s-.14.34-.34.34H80v1h3.33c.2 0 .34.13.34.33s-.14.33-.34.33H80v1h3.33c.2 0 .34.14.34.34s-.14.33-.34.33H80v1h3.33c.2 0 .34.13.34.33s-.14.34-.34.34H80v1h3.33c.2 0 .34.13.34.33s-.14.33-.34.33H80v1h3.33c.2 0 .34.14.34.34s-.14.33-.34.33H80v1h3.33c.2 0 .34.13.34.33s-.14.34-.34.34H80v1h3.33c.2 0 .34.13.34.33s-.14.33-.34.33H78.6c-.9 0-1.6-.73-1.6-1.6v-15.76c0-.9.73-1.6 1.6-1.6h.9c.05-.02.1-.04.17-.04h3.66c.2 0 .34.14.34.34s-.14.33-.34.33zm-1.4 17.67h.73V592h-.73c-.5 0-.93.43-.93.97v15.76c0 .54.43.94.93.94z"/></defs><g><g opacity=".5" transform="translate(-75 -589)"><use fill="#153f93" xlink:href="#q8uka"/></g></g></svg>