<svg xmlns="http://www.w3.org/2000/svg" xmlns:xlink="http://www.w3.org/1999/xlink" width="21" height="27" viewBox="0 0 21 27"><defs><path id="lrb2a" d="M96 389.42v23.16c0 .23-.2.42-.44.42a.43.43 0 0 1-.44-.42v-.66h-.91v.66c0 .23-.2.42-.44.42a.43.43 0 0 1-.44-.42v-.66h-.91v.66c0 .23-.2.42-.44.42a.43.43 0 0 1-.44-.42v-.66h-.91v.66c0 .23-.2.42-.44.42a.43.43 0 0 1-.44-.42v-.66h-.92v.66c0 .23-.2.42-.43.42a.43.43 0 0 1-.44-.42v-.66h-.92v.66c0 .23-.2.42-.44.42a.43.43 0 0 1-.43-.42v-.66h-.92v.66c0 .23-.2.42-.44.42a.43.43 0 0 1-.44-.42v-.66h-.91v.66c0 .23-.2.42-.44.42a.43.43 0 0 1-.44-.42v-.66h-.91v.66c0 .23-.2.42-.44.42a.43.43 0 0 1-.44-.42v-.66h-.91v.66c0 .23-.2.42-.44.42a.43.43 0 0 1-.44-.42v-7.2c0-.23.2-.42.44-.42s.44.2.44.43v2.9l1.57.88 1.8-1c.13-.08.3-.08.44 0l1.8 1 1.79-1c.14-.08.3-.08.44 0l1.8 1 .5-.28a.45.45 0 0 1 .6.15c.12.2.05.46-.16.58l-.73.4a.45.45 0 0 1-.43 0l-1.8-1-1.8 1a.45.45 0 0 1-.44 0l-1.8-1-1.79 1a.45.45 0 0 1-.44 0l-1.35-.76v1.8h15.24v-1.8l-1.35.76a.45.45 0 0 1-.44 0l-2.02-1.13a.41.41 0 0 1-.16-.57c.12-.2.4-.28.6-.16l1.8 1 1.57-.88v-14.56l-1.57-.89-1.8 1a.45.45 0 0 1-.44 0l-1.8-1-1.79 1a.45.45 0 0 1-.44 0l-1.8-1-.72.4a.45.45 0 0 1-.6-.15.42.42 0 0 1 .16-.57l.95-.53c.13-.08.3-.08.43 0l1.8 1 1.8-1c.13-.08.3-.08.44 0l1.8 1 1.79-1c.13-.08.3-.08.44 0l1.35.76v-1.81H79.88v1.8l1.35-.75c.14-.08.3-.08.44 0l2.02 1.13c.2.11.28.37.16.57a.45.45 0 0 1-.6.15l-1.8-1-1.57.89v10.17c0 .24-.2.42-.44.42a.43.43 0 0 1-.44-.42v-14.47c0-.23.2-.42.44-.42s.44.19.44.42v.66h.91v-.66c0-.23.2-.42.44-.42s.44.19.44.42v.66h.91v-.66c0-.23.2-.42.44-.42s.44.19.44.42v.66h.91v-.66c0-.23.2-.42.44-.42s.44.19.44.42v.66h.92v-.66c0-.23.2-.42.43-.42.25 0 .44.19.44.42v.66h.92v-.66c0-.23.2-.42.44-.42s.43.19.43.42v.66h.92v-.66c0-.23.2-.42.44-.42s.44.19.44.42v.66h.91v-.66c0-.23.2-.42.44-.42s.44.19.44.42v.66h.91v-.66c0-.23.2-.42.44-.42s.44.19.44.42v.66h.91v-.66c0-.23.2-.42.44-.42s.44.19.44.42zm-4.86 11.83l-3.29 4.38a.44.44 0 0 1-.35.17.44.44 0 0 1-.36-.17l-3.28-4.38a.41.41 0 0 1 0-.5l3.28-4.38a.44.44 0 0 1 .36-.17c.14 0 .27.06.35.17l1.16 1.54c.14.2.1.46-.1.6-.2.13-.47.09-.61-.1l-.8-1.07-2.74 3.66 2.74 3.66 2.74-3.66-.93-1.24a.41.41 0 0 1 .1-.6c.2-.13.47-.09.6.1l1.13 1.5c.1.14.1.34 0 .49zm1.6-3.75c0 .24-.19.43-.43.43h-.4v.38c0 .23-.19.42-.43.42a.43.43 0 0 1-.44-.42v-.38h-.4a.43.43 0 0 1-.43-.43c0-.23.2-.42.44-.42h.39v-.38c0-.23.2-.42.44-.42s.44.19.44.42v.38h.39c.24 0 .44.19.44.42zm0 7.4c0 .23-.19.42-.43.42h-.4v.38c0 .24-.19.43-.43.43a.43.43 0 0 1-.44-.43v-.38h-.4a.43.43 0 0 1-.43-.42c0-.23.2-.42.44-.42h.39v-.38c0-.24.2-.43.44-.43s.44.2.44.43v.38h.39c.24 0 .44.19.44.42zm-3.97-3.9c0 .23-.2.42-.44.42h-.4v.38c0 .24-.19.43-.43.43a.43.43 0 0 1-.44-.43v-.38h-.4a.43.43 0 0 1-.43-.42c0-.23.2-.42.44-.42h.4v-.38c0-.24.19-.43.43-.43s.44.2.44.43v.38h.4c.23 0 .43.19.43.42zm-4.26-3.5c0 .24-.2.43-.44.43h-.4v.38c0 .23-.19.42-.43.42a.43.43 0 0 1-.44-.42v-.38h-.4a.43.43 0 0 1-.43-.43c0-.23.2-.42.44-.42h.4v-.38c0-.23.19-.42.43-.42s.44.19.44.42v.38h.4c.24 0 .43.19.43.42zm0 7.4c0 .23-.2.42-.44.42h-.4v.38c0 .24-.19.43-.43.43a.43.43 0 0 1-.44-.43v-.38h-.4a.43.43 0 0 1-.43-.42c0-.23.2-.42.44-.42h.4v-.38c0-.24.19-.43.43-.43s.44.2.44.43v.38h.4c.24 0 .43.19.43.42z"/></defs><g><g opacity=".5" transform="translate(-77 -387)"><use fill="#153f93" xlink:href="#lrb2a"/></g></g></svg>