<svg xmlns="http://www.w3.org/2000/svg" xmlns:xlink="http://www.w3.org/1999/xlink" width="26" height="23" viewBox="0 0 26 23"><defs><path id="700qa" d="M84.4 645.52a1.78 1.78 0 1 1-3.16-.92 1.77 1.77 0 0 1 2.5-.28c.38.3.61.72.66 1.2zm-.8.1a.96.96 0 0 0-.97-.87.97.97 0 0 0-.6 1.72c.17.14.38.22.6.22a.97.97 0 0 0 .97-1.08zm5.68-6.53a1.79 1.79 0 1 1 3.21-1.55 1.79 1.79 0 0 1-3.21 1.55zm.73-.36a.98.98 0 0 0 1.3.46.96.96 0 0 0 .44-1.3.98.98 0 0 0-1.3-.45.96.96 0 0 0-.44 1.3zm-4.66-2.32c-.25-.4-.33-.89-.23-1.35a1.77 1.77 0 0 1 3.25-.55 1.79 1.79 0 0 1-1.9 2.7c-.47-.11-.87-.4-1.12-.8zm.68-.44a.96.96 0 0 0 .83.46c.45 0 .85-.32.95-.76a.96.96 0 0 0-.73-1.16.96.96 0 0 0-1.16.73c-.06.25-.02.51.11.73zm-3.9 2.65a1.79 1.79 0 1 1 1.4-2.91 1.79 1.79 0 0 1-.3 2.52c-.3.25-.7.39-1.1.39zm0-.82c.22 0 .43-.08.6-.22a.97.97 0 0 0 .16-1.36.97.97 0 1 0-.76 1.58zm17.13-1.67c-.49.73-1.22 1.69-2.18 2.85-.55.68-1.16 1.4-1.8 2.13a9.94 9.94 0 0 1-9.95 9.89 9.7 9.7 0 0 1-4.66-1.36c-1.72-1.02-2.67-2.39-2.67-3.85 0-1.76.99-2.5 1.77-3.1.65-.47 1.16-.86 1.16-1.7 0-.83-.51-1.2-1.16-1.7-.79-.59-1.77-1.32-1.77-3.09 0-1.46.95-2.83 2.67-3.85a9.7 9.7 0 0 1 4.65-1.35c2.17 0 4.23.69 5.97 2a10.1 10.1 0 0 1 3.35 4.46l.23-.2c3.74-3.21 4.35-3.21 4.58-3.21.2 0 .33.08.4.16.35.36.07.95-.59 1.92zm-4.85 5.98a97.55 97.55 0 0 1-3.04 3.28 4.25 4.25 0 0 1-1.63 2.65c-.65.46-1.46.69-2.4.69a7.36 7.36 0 0 1-2.57-.5.41.41 0 0 1 .12-.79c.76-.06.89-.54 1.09-1.54.23-1.17.55-2.76 2.91-3.07 1.42-1.44 3.33-3.23 5.1-4.8a9.27 9.27 0 0 0-3.19-4.38 9.06 9.06 0 0 0-5.48-1.83c-1.31 0-2.98.49-4.24 1.24-.85.5-2.27 1.58-2.27 3.14 0 1.35.7 1.88 1.45 2.44.7.52 1.48 1.1 1.48 2.36 0 1.25-.79 1.84-1.48 2.36-.74.56-1.45 1.08-1.44 2.43 0 2.55 3.88 4.39 6.5 4.39 2.45 0 4.75-.96 6.48-2.69a9.11 9.11 0 0 0 2.6-5.38zm-5.48 1.55c-1.72.24-1.93 1.3-2.16 2.4-.11.59-.25 1.26-.68 1.7.36.09.8.15 1.24.15 1.71 0 2.8-.88 3.22-2.6zm10.01-8.53a31.3 31.3 0 0 0-3.62 2.83l-.6.52c-1.74 1.53-3.6 3.28-5.06 4.74l1.1 1.12.24.25c1.6-1.65 3.55-3.83 5.16-5.77a31.63 31.63 0 0 0 2.78-3.7z"/></defs><g><g opacity=".5" transform="translate(-76 -629)"><use fill="#153f93" xlink:href="#700qa"/></g></g></svg>