<svg xmlns="http://www.w3.org/2000/svg" xmlns:xlink="http://www.w3.org/1999/xlink" width="23" height="22" viewBox="0 0 23 22"><defs><path id="33i5a" d="M91.67 443.8c0 .44-.05.88-.12 1.3H94c1.17 0 2.15-.85 2.31-1.96h-4.67c.02.21.03.43.03.65zm5 1.3c.18 0 .33.15.33.33 0 .93-.44 1.75-1.12 2.3h.79c.18 0 .33.14.33.32a2.98 2.98 0 0 1-3 2.95h-9.67a7.28 7.28 0 0 1-7.33-7.2c0-3.31 2.28-6.1 5.37-6.95-.45-.53-.7-1.2-.7-1.9 0-.09.03-.17.1-.23.06-.06.14-.1.23-.1h.78a2.93 2.93 0 0 1-1.11-2.3c0-.17.15-.32.33-.32h14.67c.18 0 .33.15.33.33 0 .92-.44 1.75-1.12 2.29h.79c.18 0 .33.15.33.33 0 .92-.44 1.75-1.12 2.3h.79c.18 0 .33.14.33.32 0 .92-.44 1.75-1.12 2.3h.79c.18 0 .33.14.33.32 0 .92-.44 1.75-1.12 2.3h.79c.18 0 .33.14.33.32 0 .93-.44 1.75-1.12 2.3zm-12.34-8.51a7.4 7.4 0 0 1 3.06.65H94c1.17 0 2.15-.85 2.31-1.96H82.36c.08.53.35 1.03.76 1.39l-.01.02c.4-.07.8-.1 1.22-.1zm6.67 7.2c0-3.61-3-6.55-6.67-6.55a6.62 6.62 0 0 0-6.66 6.55c0 3.62 2.99 6.55 6.66 6.55A6.62 6.62 0 0 0 91 443.8zm-6.67-4.26v.66a3.64 3.64 0 0 0-3.66 3.6H80a4.3 4.3 0 0 1 4.33-4.26zM88 443.8h.67a4.3 4.3 0 0 1-4.34 4.26v-.65a3.64 3.64 0 0 0 3.67-3.6zm6 6.55c1.17 0 2.15-.85 2.31-1.96h-6.32c-.7.83-1.6 1.5-2.6 1.96zm2.31-4.58h-4.92c-.2.7-.51 1.36-.91 1.96H94c1.17 0 2.15-.85 2.31-1.96zm0-5.24h-5.45c.32.6.55 1.27.69 1.96H94c1.17 0 2.15-.85 2.31-1.96zm0-2.62h-7.76c.76.52 1.42 1.2 1.93 1.96H94c1.17 0 2.15-.85 2.31-1.96zm0-5.25H82.36a2.32 2.32 0 0 0 2.3 1.97H94c1.17 0 2.15-.86 2.31-1.97z"/></defs><g><g opacity=".5" transform="translate(-75 -430)"><use fill="#153f93" xlink:href="#33i5a"/></g></g></svg>