<svg xmlns="http://www.w3.org/2000/svg" xmlns:xlink="http://www.w3.org/1999/xlink" width="23" height="23" viewBox="0 0 23 23"><defs><path id="w1lca" d="M97 356.58v2.56c0 .6-.48 1.08-1.07 1.08h-.49v9.7c0 .6-.47 1.08-1.06 1.08H79.62c-.59 0-1.06-.48-1.06-1.08v-9.7h-.5c-.58 0-1.06-.48-1.06-1.08v-2.56c0-.6.48-1.07 1.07-1.07h2.77a2.79 2.79 0 0 1-.73-1.89v-.14c.03-.9.52-1.7 1.3-2.14.8-.45 1.74-.45 2.53 0l1.27.72c.79.45 1.4 1.13 1.79 1.93.38-.8 1-1.48 1.8-1.93l1.25-.72c.8-.45 1.75-.45 2.54 0a2.54 2.54 0 0 1 1.3 2.28c0 .73-.28 1.39-.73 1.89h2.77c.6 0 1.07.48 1.07 1.07zm-9.53-1.07h3.66c1.03 0 1.87-.85 1.87-1.89v-.11a1.67 1.67 0 0 0-2.5-1.39l-1.27.72a3.56 3.56 0 0 0-1.76 2.67zM81 353.62c0 1.04.84 1.89 1.87 1.89h3.66a3.56 3.56 0 0 0-1.76-2.67l-1.26-.72a1.67 1.67 0 0 0-2.5 1.39l-.01.11zm4 7.97v-1.37h-5.56v9.7c0 .1.08.18.18.18H85v-7.61h-1.83a.45.45 0 0 1-.44-.45c0-.25.2-.45.44-.45zm0-5.19h-6.93c-.1 0-.18.08-.18.18v2.56c0 .1.08.18.18.18H85zm3.11 0H85.9v13.7h2.22zm6.45 13.52v-9.7H89v1.37h1.7c.24 0 .44.2.44.45 0 .24-.2.45-.45.45H89v7.61h5.38c.1 0 .18-.08.18-.18zm1.55-10.78v-2.56c0-.1-.08-.18-.18-.18H89v2.92h6.93c.1 0 .18-.08.18-.18zm-3.75 2.9c0-.25.2-.45.44-.45h.05c.24 0 .44.2.44.45 0 .24-.2.45-.44.45h-.05a.45.45 0 0 1-.44-.45zm-11.79 0c0-.25.2-.45.44-.45h.05c.24 0 .44.2.44.45 0 .24-.2.45-.44.45H81a.45.45 0 0 1-.44-.45z"/></defs><g><g opacity=".5" transform="translate(-75 -349)"><use fill="#153f93" xlink:href="#w1lca"/></g></g></svg>