<svg id="Слой_1" data-name="Слой 1" xmlns="http://www.w3.org/2000/svg" viewBox="0 0 17.33 23.18"><defs><style>.cls-1{fill:none;stroke:#fff;stroke-miterlimit:10;}</style></defs><title>Location</title><path class="cls-1" d="M100-33a3.8,3.8,0,0,1-3.79-3.79A3.8,3.8,0,0,1,100-40.59a3.8,3.8,0,0,1,3.79,3.79A3.8,3.8,0,0,1,100-33Z" transform="translate(-91.33 45.46)"/><path class="cls-1" d="M100-22.78a.33.33,0,0,1-.26-.12c-.32-.39-7.91-9.49-7.91-13.89A8.18,8.18,0,0,1,100-45a8.18,8.18,0,0,1,8.17,8.17c0,4.4-7.59,13.5-7.91,13.89A.34.34,0,0,1,100-22.78Z" transform="translate(-91.33 45.46)"/></svg>