<svg xmlns="http://www.w3.org/2000/svg" viewBox="0 0 17.52 16.8"><defs><style>.cls-1{fill:#fff;}</style></defs><title>Ресурс 1</title><g id="Слой_2" data-name="Слой 2"><g id="Слой_1-2" data-name="Слой 1"><path class="cls-1" d="M4.09,10.18H8.18V7.3H4.09Zm.58-.58V8.74H7.59V9.6ZM7.59,7.88v.29H4.67V7.88Z"/><path class="cls-1" d="M4.09,11.33v3.45H8.18V11.33Zm1.75.58v.86H4.67v-.86ZM4.67,13.35H5.84v.86H4.67Zm1.75.86v-.86H7.59v.86Zm1.17-1.44H6.42v-.86H7.59Z"/><path class="cls-1" d="M9.34,10.18h4.09V7.3H9.34Zm.58-.58V9.32h2.92V9.6Zm2.92-1.73v.86H9.93V7.88Z"/><path class="cls-1" d="M17.23,13.63a.29.29,0,0,0-.29.29v.29h-.29v-.29a.29.29,0,0,0-.58,0v.29h-.29V8.39a1.16,1.16,0,0,0,1.33-.27A1.14,1.14,0,0,0,17,6.44L9.55.73,8.76,0,8,.71.56,6.44A1.14,1.14,0,0,0,.42,8.13a1.17,1.17,0,0,0,1.33.27v5.82H1.46v-.29a.29.29,0,0,0-.58,0v.29H.58v-.29a.29.29,0,0,0-.29-.29.29.29,0,0,0-.29.29v2.59a.29.29,0,0,0,.29.29.29.29,0,0,0,.29-.29v-.29H.88v.29a.29.29,0,0,0,.58,0v-.29h.29v.58h14v-.58h.29v.29a.29.29,0,0,0,.58,0v-.29h.29v.29a.29.29,0,0,0,.58,0V13.92A.29.29,0,0,0,17.23,13.63ZM.85,7.74a.57.57,0,0,1,.07-.84L8.36,1.15l.4-.36.42.38L16.6,6.89a.57.57,0,0,1,.07.84.59.59,0,0,1-.78.06l-.12-.09h0l-7-5.33L1.87,7.63h0l-.23.18A.59.59,0,0,1,.85,7.74ZM.58,15.65v-.86H.88v.86Zm.88,0v-.86h.29v.86Zm8.47.58V11.91h2.92v4.32Zm5.26,0H13.43V11.33H9.34v4.89h-7V8L8.76,3.11,15.18,8Zm.58-.58v-.86h.29v.86Zm.88,0v-.86h.29v.86Z"/></g></g></svg>