<svg id="Слой_1" data-name="Слой 1" xmlns="http://www.w3.org/2000/svg" viewBox="0 0 21.07 21.07"><defs><style>.cls-1{fill:#fff;}</style></defs><title>planet</title><path class="cls-1" d="M495.09-57.78a10.45,10.45,0,0,0-7.45-3.09,10.45,10.45,0,0,0-7.45,3.09,10.48,10.48,0,0,0-3.09,7.45,10.45,10.45,0,0,0,3.09,7.45,10.48,10.48,0,0,0,7.45,3.09,10.45,10.45,0,0,0,7.45-3.09,10.48,10.48,0,0,0,3.09-7.45,10.45,10.45,0,0,0-3.09-7.45Zm2.13,7h-4.08a18.28,18.28,0,0,0-.67-4.58,10.44,10.44,0,0,0,2.17-1.5,9.57,9.57,0,0,1,2.58,6.07Zm-9.11.95h4.08a17.3,17.3,0,0,1-.6,4.21,10.63,10.63,0,0,0-3.48-.76ZM494-57.54a9.58,9.58,0,0,1-1.79,1.24,11,11,0,0,0-.55-1.29,7.58,7.58,0,0,0-1.38-2,9.55,9.55,0,0,1,3.73,2Zm-5.85-2.24a4.46,4.46,0,0,1,2.66,2.61,10.73,10.73,0,0,1,.54,1.28,9.65,9.65,0,0,1-3.2.72ZM491.6-55a17.3,17.3,0,0,1,.59,4.18h-4.08v-3.42A10.65,10.65,0,0,0,491.6-55Zm-4.43,4.18h-4.08a17.3,17.3,0,0,1,.59-4.18,10.44,10.44,0,0,0,3.49.76v3.43Zm0-9v4.6a9.63,9.63,0,0,1-3.2-.72,10.74,10.74,0,0,1,.54-1.28,4.46,4.46,0,0,1,2.66-2.61Zm-2.12.21a7.66,7.66,0,0,0-1.38,2,12.63,12.63,0,0,0-.55,1.29,9.73,9.73,0,0,1-1.79-1.24,9.55,9.55,0,0,1,3.73-2Zm-4.41,2.68a10.62,10.62,0,0,0,2.17,1.5,18.13,18.13,0,0,0-.67,4.58h-4.08a9.57,9.57,0,0,1,2.58-6.07Zm-2.58,7h4.08a18.27,18.27,0,0,0,.67,4.6,10.35,10.35,0,0,0-2.16,1.49,9.55,9.55,0,0,1-2.6-6.09Zm3.28,6.75a9.62,9.62,0,0,1,1.78-1.23,11.65,11.65,0,0,0,.55,1.26,7.68,7.68,0,0,0,1.38,2,9.59,9.59,0,0,1-3.71-2Zm5.83,2.22a4.46,4.46,0,0,1-2.66-2.61,11,11,0,0,1-.53-1.25,9.49,9.49,0,0,1,3.19-.71Zm-3.48-4.76a17.29,17.29,0,0,1-.6-4.21h4.08v3.45a10.42,10.42,0,0,0-3.48.76Zm4.43,4.76v-4.57a9.59,9.59,0,0,1,3.19.71,11.05,11.05,0,0,1-.53,1.25,4.46,4.46,0,0,1-2.66,2.61Zm2.12-.21a7.6,7.6,0,0,0,1.38-2,11.59,11.59,0,0,0,.55-1.26A9.61,9.61,0,0,1,494-43.11a9.49,9.49,0,0,1-3.71,2Zm4.39-2.67a10.51,10.51,0,0,0-2.16-1.49,18.29,18.29,0,0,0,.67-4.6h4.08a9.6,9.6,0,0,1-2.6,6.09Zm0,0" transform="translate(-477.11 60.87)"/></svg>