<svg xmlns="http://www.w3.org/2000/svg" viewBox="0 0 12.48 18"><defs><style>.cls-1{fill:#fff;}</style></defs><title>Ресурс 1</title><g id="Слой_2" data-name="Слой 2"><g id="Слой_1-2" data-name="Слой 1"><path class="cls-1" d="M6.3,3.94a2.3,2.3,0,1,0,2.28,2.3A2.29,2.29,0,0,0,6.3,3.94Zm0,3.94A1.64,1.64,0,1,1,7.93,6.25,1.64,1.64,0,0,1,6.3,7.89Z"/><path class="cls-1" d="M10.65,1.85a6.2,6.2,0,0,0-8.83,0,7.24,7.24,0,0,0-.59,8.86l5,7.29,5-7.28A7.24,7.24,0,0,0,10.65,1.85Zm.05,8.49L6.24,16.84,1.77,10.32a6.54,6.54,0,0,1,.52-8,5.55,5.55,0,0,1,7.9,0A6.54,6.54,0,0,1,10.71,10.33Z"/></g></g></svg>