<?xml version="1.0" encoding="UTF-8"?>
<svg width="243px" height="64px" viewBox="0 0 243 64" version="1.1" xmlns="http://www.w3.org/2000/svg" xmlns:xlink="http://www.w3.org/1999/xlink">
    <!-- Generator: Sketch 40.3 (33839) - http://www.bohemiancoding.com/sketch -->
    <title>logo</title>
    <desc>Created with Sketch.</desc>
    <defs></defs>
    <g id="Page-1" stroke="none" stroke-width="1" fill="none" fill-rule="evenodd">
        <g id="logo" transform="translate(-1.000000, 0.000000)">
            <g id="Page-1">
                <g id="Logo">
                    <g id="Group">
                        <path d="M164,51.3 L164.2,48.1 L164.5,41.8 L164.6,37.4 L164.6,34.2 L167.3,34.2 C167.9,34.2 168.8,34.2 169.9,34.1 C171,34 172,34 172.7,34 C173.537504,33.9954731 174.373868,34.0623823 175.2,34.2 C175.734971,34.3495846 176.241724,34.5860691 176.7,34.9 C177.114966,35.2149573 177.485043,35.5850337 177.8,36 C178.100064,36.4171232 178.304886,36.8950411 178.4,37.4 C178.515771,37.9260408 178.582722,38.4616477 178.6,39 C178.583473,40.0822249 178.309228,41.1449236 177.8,42.1 C177.264386,43.0173301 176.462139,43.7498165 175.5,44.2 C174.470342,44.6895625 173.339738,44.9293874 172.2,44.9 C171.8,44.9 171.2,44.8 170.6,44.8 C170.5,44.4 170.4,43.8 170.2,43.1 C170,42.4 169.9,41.8 169.8,41.4 C170.161138,41.4785793 170.530612,41.5121678 170.9,41.5 C171.586546,41.5485279 172.265836,41.3340152 172.8,40.9 C173.20203,40.5066167 173.419826,39.9621259 173.4,39.4 C173.416231,39.1294501 173.382328,38.8582301 173.3,38.6 C173.225072,38.3939969 173.084531,38.2183205 172.9,38.1 C172.674838,37.9819178 172.440792,37.8816124 172.2,37.8 C172,37.8 171.7,37.7 171.4,37.7 L170.5,37.7 L169.4,37.8 C169.3,39.4 169.2,41.2 169.1,43.2 C169,46.8 168.9,48.9 168.9,49.7 L168.9,51.3 L164,51.3 L164,51.3 Z M144.7,34.3 L150.2,34.3 L149.8,39.6 C149.7,40.6 149.7,41.5 149.6,42.4 C149.5,43.3 149.5,43.9 149.5,44.2 C149.476758,44.735368 149.510278,45.2716922 149.6,45.8 C149.705265,46.1915875 149.874184,46.5632084 150.1,46.9 C150.371747,47.2108503 150.714912,47.4510656 151.1,47.6 C151.524437,47.7153242 151.960526,47.7824148 152.4,47.8 C152.774861,47.7911883 153.146028,47.7237034 153.5,47.6 C153.763481,47.5281922 154.004367,47.3905431 154.2,47.2 C154.412734,47.0868363 154.586836,46.912734 154.7,46.7 C154.908926,46.425505 155.077314,46.1224061 155.2,45.8 C155.322185,45.3720871 155.422317,44.9381825 155.5,44.5 C155.6,44 155.7,42.7 155.8,40.8 C155.9,39.2 156,37.6 156.1,36.3 C156.2,35 156.2,34.3 156.2,34.3 L161.7,34.3 L161.1,43.2 L161.1,43.6 C161.145641,44.8408348 161.044947,46.0827264 160.8,47.3 C160.602964,47.9771702 160.299145,48.6185656 159.9,49.2 C159.407146,49.7901482 158.793308,50.2675778 158.1,50.6 C157.244046,51.0187785 156.336031,51.3214503 155.4,51.5 C154.378629,51.6988394 153.340546,51.799299 152.3,51.8 C151.397003,51.7831093 150.49563,51.7163409 149.6,51.6 C148.841617,51.5068962 148.100644,51.3048126 147.4,51 C146.8,50.7 146.2,50.4 145.7,50.1 C145.295832,49.8459519 144.954048,49.5041676 144.7,49.1 C144.460118,48.7212158 144.259098,48.3191764 144.1,47.9 C143.978311,47.3411685 143.911328,46.7718151 143.9,46.2 L143.9,45.3 C143.9,44.9 144,44.3 144,43.6 L144.2,41.6 C144.2,41.1 144.3,40.3 144.3,39.3 L144.7,34.3 L144.7,34.3 Z M131.9,37.7 C130.983055,37.6700047 130.07794,37.9136894 129.3,38.4 C128.505016,38.8612922 127.875292,39.5609853 127.5,40.4 C127.092459,41.2409916 126.887,42.1655548 126.9,43.1 C126.884507,43.9389529 127.091529,44.7670382 127.5,45.5 C127.906712,46.206762 128.493238,46.7932882 129.2,47.2 C129.973151,47.5976129 130.830606,47.8034022 131.7,47.8 C132.585551,47.8298129 133.45869,47.5853338 134.2,47.1 C134.994984,46.6387078 135.624708,45.9390147 136,45.1 C136.39831,44.2913718 136.603689,43.4013971 136.6,42.5 C136.603402,41.6306058 136.397613,40.7731505 136,40 C135.634387,39.2696361 135.082462,38.6487209 134.4,38.2 C133.6043,37.8817025 132.756915,37.7122254 131.9,37.7 L131.9,37.7 Z M132.1,33.9 C133.414734,33.9185194 134.723114,34.0862605 136,34.4 C138.313234,35.0438618 140.241533,36.6447138 141.3,38.8 C141.800027,39.8971042 142.0396,41.0949705 142,42.3 C141.995799,43.6403127 141.723807,44.9662734 141.2,46.2 C140.736858,47.3725523 139.97912,48.4058315 139,49.2 C137.992735,50.0127124 136.838382,50.6238404 135.6,51 C132.925189,51.7999027 130.074811,51.7999027 127.4,51 C126.161618,50.6238404 125.007265,50.0127124 124,49.2 C123.098533,48.4589442 122.408631,47.4930813 122,46.4 C121.582455,45.3160078 121.378707,44.1614342 121.4,43 C121.354153,41.307244 121.80617,39.6382601 122.7,38.2 C123.594986,36.7571038 124.925844,35.6363818 126.5,35 C128.274113,34.2618384 130.178487,33.8877649 132.1,33.9 L132.1,33.9 Z M103.8,51.3 C104,49.8 104.1,48.5 104.2,47.3 C104.3,46.1 104.4,44.8 104.4,43.2 C104.4,41.6 104.5,40 104.6,38.3 L104.6,34.2 L107.1,34.2 C107.901255,34.212639 108.702574,34.1792507 109.5,34.1 C110.5,34.1 111.4,34 112.3,34 C113.267771,33.9797771 114.23592,34.0131615 115.2,34.1 C115.778936,34.1744007 116.34863,34.3084464 116.9,34.5 C117.363392,34.6725962 117.800828,34.9081389 118.2,35.2 C118.524511,35.4744449 118.825555,35.7754893 119.1,36.1 C119.325816,36.4367916 119.494735,36.8084125 119.6,37.2 C119.722557,37.65696 119.789706,38.1270024 119.8,38.6 C119.789003,39.1388262 119.721975,39.6750461 119.6,40.2 C119.448544,40.7033029 119.211769,41.1768536 118.9,41.6 C118.585043,42.0149663 118.214966,42.3850427 117.8,42.7 C117.3,43 116.7,43.3 115.9,43.7 L116.6,45.3 C116.8,45.7 117,46.2 117.2,46.7 L118.9,50.4 C119,50.6 119.1,50.9 119.3,51.3 L113.5,51.3 C113.4,50.9 113.1,50.1 112.8,48.9 C112.717068,48.5169192 112.582505,48.1468725 112.4,47.8 C112.2,47.2 111.9,46.4 111.5,45.3 L110.2,41.8 C110.628566,41.8793037 111.064347,41.9128254 111.5,41.9 C112.080386,41.9065133 112.6569,41.8047754 113.2,41.6 C113.66449,41.4447952 114.05589,41.1245587 114.3,40.7 C114.56505,40.3566639 114.706038,39.9336987 114.7,39.5 C114.725513,39.1718126 114.617323,38.8472421 114.4,38.6 C114.187884,38.2921477 113.865754,38.0773948 113.5,38 C112.877339,37.8552264 112.239158,37.7880494 111.6,37.8 L109.6,37.8 C109.5,39.5 109.4,41.6 109.3,44.1 C109.2,46.6 109.2,49 109.1,51.3 L103.8,51.3 L103.8,51.3 Z M93.9,41.4 L101.4,41.4 C101.3,42.5 101.2,44.2 101.1,46.3 C101,48.4 100.9,50 100.9,51 C99.9,51.2 99.1,51.3 98.5,51.4 C97.9,51.5 97.1,51.5 96.2,51.6 C95.402574,51.6792507 94.6012547,51.712639 93.8,51.7 C92.6930158,51.7039438 91.5881257,51.6034992 90.5,51.4 C89.4963762,51.2355036 88.5204135,50.9326186 87.6,50.5 C86.7474281,50.107186 85.9951829,49.5259056 85.4,48.8 C84.7920166,48.0697901 84.3486096,47.2170843 84.1,46.3 C83.7882049,45.3296664 83.6197615,44.3190059 83.6,43.3 C83.5673207,41.6402819 84.0190743,40.0070189 84.9,38.6 C85.7618255,37.1550258 87.008176,35.977917 88.5,35.2 C90.4033863,34.2946951 92.4928942,33.8493902 94.6,33.9 C96.6525942,33.9132168 98.6977684,34.1479089 100.7,34.6 C100.7,35.8 100.8,37.2 100.9,38.7 C100.3,38.5 99.8,38.3 99.4,38.2 C99,38.1 98.6,38 98.1,37.9 C97.6403113,37.7912938 97.1717388,37.7243549 96.7,37.7 C96.3,37.7 95.9,37.6 95.5,37.6 C94.6164815,37.5782698 93.7361306,37.7137084 92.9,38 C92.1372605,38.2785474 91.4272163,38.684287 90.8,39.2 C90.1997801,39.741986 89.7516378,40.4314357 89.5,41.2 C89.2217432,41.9689966 89.0861884,42.7823253 89.1,43.6 C89.1006205,44.3935635 89.2711067,45.1778002 89.6,45.9 C89.9198942,46.5876571 90.4931556,47.1250898 91.2,47.4 C91.9418402,47.7755926 92.7698899,47.948103 93.6,47.9 C94.4088852,47.8927815 95.2142268,47.7921138 96,47.6 L96.1,44.9 L93.8,44.9 L93.9,43.4 L93.9,41.4 L93.9,41.4 Z M163.4,29.3 C163.6,27.1 163.8,25.3 163.9,23.9 C164,22.5 164.1,20.5 164.2,18.1 C164.3,15.7 164.3,14.1 164.3,13.3 L164.3,12.2 L178.2,12.2 L178.2,12.6 C178.197414,12.9688144 178.163964,13.3367654 178.1,13.7 L178,15.1 L178,16 C176.4,15.9 175,15.9 173.9,15.9 L171.5,15.9 C170.831958,15.8945093 170.164162,15.927899 169.5,16 L169.3,18.9 L172.7,18.9 C173.2,18.9 174.4,18.9 176.4,18.8 C176.3,19.9 176.2,21.1 176.2,22.6 L172.9,22.6 C171.8,22.6 170.5,22.6 169,22.7 L168.9,25.7 L172.9,25.7 L175.5,25.6 C176.134769,25.6049373 176.769257,25.5715432 177.4,25.5 C177.3,26.7 177.2,28 177.1,29.3 L163.4,29.3 L163.4,29.3 Z M161,25.2 C160.9,25.7 160.8,26.4 160.6,27.3 C160.538026,27.9718185 160.437865,28.6395651 160.3,29.3 C158.71386,29.5662053 157.108324,29.7 155.5,29.7 C154.217296,29.6945535 152.940454,29.526548 151.7,29.2 C150.520779,28.8768562 149.427881,28.2962546 148.5,27.5 C147.576221,26.7988364 146.852198,25.867949 146.4,24.8 C145.982024,23.6813526 145.778476,22.4939902 145.8,21.3 C145.79471,19.8940469 146.066556,18.5008344 146.6,17.2 C147.170951,16.0365005 147.990209,15.012428 149,14.2 C150.03688,13.3979217 151.228538,12.8191164 152.5,12.5 C153.776886,12.1862605 155.085266,12.0185194 156.4,12 C157.943836,12.0491747 159.481652,12.2163286 161,12.5 L161,13.6 C160.98348,14.1020795 161.016979,14.6045566 161.1,15.1 L161.2,16.5 C160.2,16.3 159.4,16.1 158.8,16 C158.237074,15.9197075 157.668457,15.8862595 157.1,15.9 C156.056121,15.8682665 155.022037,16.1095528 154.1,16.6 C153.21986,17.0474987 152.489875,17.7427229 152,18.6 C151.480257,19.4783536 151.204106,20.4794016 151.2,21.5 C151.158798,22.3416789 151.367561,23.1767314 151.8,23.9 C152.221386,24.6055822 152.84988,25.1642435 153.6,25.5 C154.43265,25.9310056 155.363173,26.1377886 156.3,26.1 C156.93494,26.114034 157.570041,26.0806076 158.2,26 C159.095518,25.6153535 160.036445,25.3465169 161,25.2 L161,25.2 Z M125.2,29.3 L125.5,26.7 L126,17.8 L126.1,14.2 L126.1,12.2 L132.5,12.2 L137.9,21.9 L138.6,23.3 C138.7,21.9 138.8,19.9 138.9,17.4 C139,14.9 139,13.1 139,12.2 L144,12.2 L143.7,15.9 L143.1,26.3 L143,29.3 L136.7,29.3 C136.3,28.5 135.9,27.9 135.7,27.5 L133.6,23.9 C132.9,22.7 132.3,21.6 131.7,20.5 C131.3,19.8 130.9,19.1 130.5,18.3 L130.2,24.2 L130.1,29.2 L127.7,29.2 C126.870906,29.3028964 126.034664,29.3363461 125.2,29.3 L125.2,29.3 Z M108.2,29.3 C108.4,27.1 108.6,25.3 108.7,23.9 C108.8,22.5 108.9,20.5 109,18.1 C109.1,15.7 109.1,14.1 109.1,13.3 L109.1,12.2 L123,12.2 L123,12.6 C122.997414,12.9688144 122.963964,13.3367654 122.9,13.7 L122.8,15.1 L122.8,16 C121.2,15.9 119.8,15.9 118.7,15.9 L116.3,15.9 C115.631958,15.8945093 114.964162,15.927899 114.3,16 L114.1,18.9 L117.5,18.9 C118,18.9 119.2,18.9 121.2,18.8 C121.1,19.9 121,21.1 121,22.6 L117.7,22.6 C116.6,22.6 115.3,22.6 113.8,22.7 L113.7,25.7 L117.7,25.7 L120.3,25.6 C120.934769,25.6049373 121.569257,25.5715432 122.2,25.5 C122.1,26.7 122,28 121.9,29.3 L108.2,29.3 L108.2,29.3 Z M93.9,25.6 C94.4,25.6 94.8,25.7 95.3,25.7 C96.0704113,25.687413 96.8389795,25.620581 97.6,25.5 C98.2925278,25.3705748 98.924247,25.0196198 99.4,24.5 C99.9366984,23.9816567 100.317718,23.3235318 100.5,22.6 C100.730523,21.8192633 100.864851,21.0132991 100.9,20.2 C100.908906,19.3409723 100.738616,18.4895233 100.4,17.7 C100.125779,17.0740289 99.6259711,16.5742207 99,16.3 C98.2402698,15.9878455 97.419903,15.8511177 96.6,15.9 C95.8985744,15.8879128 95.1971031,15.9213162 94.5,16 L93.9,25.6 L93.9,25.6 Z M88.5,29.3 C88.7,27.4 88.8,25.9 88.9,24.7 C89,23 89.1,20.8 89.2,18.1 C89.3,16 89.3,14.5 89.3,13.7 L89.3,12.2 L91.8,12.2 C92.5,12.2 93.4,12.2 94.5,12.1 C95.6,12 96.7,12 97.6,12 C98.5698891,12.0061906 99.5384434,12.0729874 100.5,12.2 C101.339346,12.3295977 102.150765,12.6000706 102.9,13 C103.589156,13.4236904 104.198434,13.9652713 104.7,14.6 C105.224801,15.3176115 105.598975,16.1339913 105.8,17 C106.086414,17.9049836 106.221562,18.8510199 106.2,19.8 C106.204637,20.7085671 106.103965,21.6146109 105.9,22.5 C105.709101,23.3232934 105.441257,24.1268258 105.1,24.9 C104.749034,25.5553868 104.311808,26.1607764 103.8,26.7 C103.312403,27.186772 102.776278,27.6223739 102.2,28 C101.773377,28.2828689 101.299059,28.4861483 100.8,28.6 C100.3,28.7 99.7,28.9 98.9,29 C97.8691768,29.0883796 96.8343761,29.1217603 95.8,29.1 L90.7,29.1 C89.9844743,29.2973998 89.2393925,29.3651345 88.5,29.3 L88.5,29.3 Z M79.7,29.3 C80.2,22.6 80.4,17.4 80.4,13.8 L80.4,12.2 L86,12.2 C85.9,14.1 85.7,15.9 85.6,17.5 C85.5,19.8 85.4,22 85.4,24.1 C85.4,26.2 85.3,27.9 85.3,29.3 L79.7,29.3 L79.7,29.3 Z M61.9,29.3 C62.1,27.6 62.2,26.2 62.3,25.2 C62.4,23.7 62.5,21.6 62.6,18.9 C62.7,16.2 62.7,14.5 62.7,13.5 L62.7,12.1 L76,12.1 C75.9,14 75.8,15.3 75.8,15.9 L67.9,15.9 L67.8,18.8 L74.3,18.8 C74.2,20.4 74.2,21.6 74.2,22.5 C72.9,22.5 71.9,22.4 71.2,22.4 C70.1,22.4 68.9,22.4 67.6,22.5 L67.5,27 L67.5,29.3 L61.9,29.3 L61.9,29.3 Z M40.9,29.3 L41.2,26.7 L41.7,17.8 L41.8,14.2 L41.8,12.2 L48.2,12.2 L53.6,21.9 L54.3,23.3 C54.4,21.9 54.5,19.9 54.6,17.4 C54.7,14.9 54.7,13.1 54.7,12.2 L59.7,12.2 L59.4,15.9 L58.8,26.3 L58.7,29.3 L52.4,29.3 C52,28.5 51.6,27.9 51.4,27.5 L49.3,23.9 C48.6,22.7 48,21.6 47.4,20.5 C47,19.8 46.6,19.1 46.2,18.3 L45.9,24.2 L45.8,29.2 L43.4,29.2 C42.5709057,29.3028964 41.734664,29.3363461 40.9,29.3 L40.9,29.3 Z M28.7,15.7 C27.7830545,15.6700047 26.87794,15.9136894 26.1,16.4 C25.3050161,16.8612922 24.6752923,17.5609853 24.3,18.4 C23.8924587,19.2409916 23.6870002,20.1655548 23.7,21.1 C23.6845072,21.9389529 23.8915285,22.7670382 24.3,23.5 C24.7067118,24.206762 25.293238,24.7932882 26,25.2 C26.7731505,25.5976129 27.6306058,25.8034022 28.5,25.8 C29.3855507,25.8298129 30.2586904,25.5853338 31,25.1 C31.7949839,24.6387078 32.4247077,23.9390147 32.8,23.1 C33.1983099,22.2913718 33.4036887,21.4013971 33.4,20.5 C33.4034022,19.6306058 33.1976129,18.7731505 32.8,18 C32.4343865,17.2696361 31.8824619,16.6487209 31.2,16.2 C30.4104767,15.861384 29.5590277,15.6910942 28.7,15.7 L28.7,15.7 Z M29,11.9 C30.3147342,11.9185194 31.6231145,12.0862605 32.9,12.4 C35.2132342,13.0438618 37.1415332,14.6447138 38.2,16.8 C38.7000267,17.8971042 38.9395999,19.0949705 38.9,20.3 C38.8957994,21.6403127 38.6238075,22.9662734 38.1,24.2 C37.636858,25.3725523 36.8791199,26.4058315 35.9,27.2 C34.8927346,28.0127124 33.7383816,28.6238404 32.5,29 C29.825189,29.7999027 26.974811,29.7999027 24.3,29 C23.0616184,28.6238404 21.9072654,28.0127124 20.9,27.2 C19.9985332,26.4589442 19.3086311,25.4930813 18.9,24.4 C18.4824553,23.3160078 18.278707,22.1614342 18.3,21 C18.2541531,19.307244 18.7061696,17.6382601 19.6,16.2 C20.4949863,14.7571038 21.8258436,13.6363818 23.4,13 C25.1713389,12.2527194 27.0776063,11.878274 29,11.9 L29,11.9 Z M16.2,25.2 C16.1,25.7 16,26.4 15.8,27.3 C15.7380265,27.9718185 15.6378645,28.6395651 15.5,29.3 C13.9138601,29.5662053 12.3083237,29.7 10.7,29.7 C9.41729571,29.6945535 8.1404541,29.526548 6.9,29.2 C5.72077853,28.8768562 4.62788133,28.2962546 3.7,27.5 C2.77622115,26.7988364 2.05219766,25.867949 1.6,24.8 C1.18202393,23.6813526 0.978476093,22.4939902 1,21.3 C0.994710073,19.8940469 1.2665564,18.5008344 1.8,17.2 C2.37095135,16.0365005 3.19020934,15.012428 4.2,14.2 C5.23688025,13.3979217 6.42853823,12.8191164 7.7,12.5 C8.9768855,12.1862605 10.2852658,12.0185194 11.6,12 C13.1438363,12.0491747 14.6816524,12.2163286 16.2,12.5 L16.2,13.6 C16.1834802,14.1020795 16.2169786,14.6045566 16.3,15.1 L16.4,16.5 C15.4,16.3 14.6,16.1 14,16 C13.4370743,15.9197075 12.8684571,15.8862595 12.3,15.9 C11.256121,15.8682665 10.2220369,16.1095528 9.3,16.6 C8.41986012,17.0474987 7.6898747,17.7427229 7.2,18.6 C6.68025682,19.4783536 6.40410565,20.4794016 6.4,21.5 C6.3587978,22.3416789 6.56756092,23.1767314 7,23.9 C7.42138606,24.6055822 8.04988002,25.1642435 8.8,25.5 C9.63265009,25.9310056 10.5631734,26.1377886 11.5,26.1 C12.13494,26.114034 12.7700412,26.0806076 13.4,26 C14.3001465,25.6285052 15.2394632,25.360129 16.2,25.2 L16.2,25.2 Z" id="Shape" fill="#FFFFFF"></path>
                        <g id="Shape-2" transform="translate(190.000000, 0.000000)">
                            <polygon id="Shape" fill="#40ADA5" points="24 35.2 24 29.7 28.5 27.2 28.5 13.2 28.5 13.2 28.5 13.2 39 13.2 34.8 2.8 2.6 14.5 2.6 48.7 24 48.7"></polygon>
                            <polygon id="Shape" fill="#ED4035" points="51.2 48.8 51.2 14.6 29.8 14.6 29.8 28 29.8 28 29.8 33.7 25.4 36 25.4 50.1 25.4 50.1 24.8 50.1 14.9 50.1 19 60.5"></polygon>
                            <path d="M41,12.4 L36.1,0 L0.5,12.9 L0.5,50.9 L12.9,50.9 L17.8,63.3 L53.4,50.4 L53.4,12.5 L41,12.4 L41,12.4 Z M52.6,49.7 L18.2,62.2 L13.4,50 L1.3,50 L1.3,13.5 L35.7,1 L40.5,13.2 L52.7,13.2 L52.7,49.7 L52.6,49.7 Z" id="Shape" fill="#FFFFFF"></path>
                            <polygon id="Shape" fill="#FFFFFF" points="28.5 28.7 28.5 32.8 25.4 34.4 25.4 30.5"></polygon>
                        </g>
                    </g>
                </g>
            </g>
        </g>
    </g>
</svg>