<svg id="Слой_1" data-name="Слой 1" xmlns="http://www.w3.org/2000/svg" viewBox="0 0 242.4 63.3"><defs><style>.cls-1{fill:#fff;}</style></defs><title>Logo_white</title><g id="Page-1"><g id="Logo"><g id="Group"><path id="Shape" class="cls-1" d="M163.9,51.4l.2-3.2.3-6.3.1-4.4V34.3h2.7c.6,0,1.5,0,2.6-.1s2.1-.1,2.8-.1a14.73,14.73,0,0,1,2.5.2,5.07,5.07,0,0,1,1.5.7,5.73,5.73,0,0,1,1.1,1.1,3.51,3.51,0,0,1,.6,1.4,8.75,8.75,0,0,1,.2,1.6,6.81,6.81,0,0,1-.8,3.1,5.23,5.23,0,0,1-2.3,2.1,7.25,7.25,0,0,1-3.3.7c-.4,0-1-.1-1.6-.1-.1-.4-.2-1-.4-1.7s-.3-1.3-.4-1.7a4.48,4.48,0,0,0,1.1.1,2.71,2.71,0,0,0,1.9-.6,2,2,0,0,0,.6-1.5,2.2,2.2,0,0,0-.1-.8,1,1,0,0,0-.4-.5,4.88,4.88,0,0,0-.7-.3c-.2,0-.5-.1-.8-.1h-.9l-1.1.1q-.15,2.4-.3,5.4c-.1,3.6-.2,5.7-.2,6.5v1.6h-4.9Zm-19.3-17h5.5l-.4,5.3c-.1,1-.1,1.9-.2,2.8s-.1,1.5-.1,1.8a7.59,7.59,0,0,0,.1,1.6A3.7,3.7,0,0,0,150,47a2.55,2.55,0,0,0,1,.7,5.85,5.85,0,0,0,1.3.2,3.59,3.59,0,0,0,1.1-.2,1.61,1.61,0,0,0,.7-.4,1.21,1.21,0,0,0,.5-.5,3.6,3.6,0,0,0,.5-.9,13,13,0,0,0,.3-1.3c.1-.5.2-1.8.3-3.7.1-1.6.2-3.2.3-4.5s.1-2,.1-2h5.5l-.6,8.9v.4a15.81,15.81,0,0,1-.3,3.7,6.63,6.63,0,0,1-.9,1.9,5.37,5.37,0,0,1-1.8,1.4,10.71,10.71,0,0,1-2.7.9,16.28,16.28,0,0,1-3.1.3,24.52,24.52,0,0,1-2.7-.2,7.94,7.94,0,0,1-2.2-.6c-.6-.3-1.2-.6-1.7-.9a3.18,3.18,0,0,1-1-1A6.66,6.66,0,0,1,144,48a8.81,8.81,0,0,1-.2-1.7v-.9c0-.4.1-1,.1-1.7l.2-2c0-.5.1-1.3.1-2.3l.4-5Zm-12.8,3.4a4.62,4.62,0,0,0-2.6.7,4.38,4.38,0,0,0-1.8,2,6,6,0,0,0-.6,2.7,4.75,4.75,0,0,0,.6,2.4,4.62,4.62,0,0,0,1.7,1.7,5.42,5.42,0,0,0,2.5.6,4.3,4.3,0,0,0,2.5-.7,4.38,4.38,0,0,0,1.8-2,5.83,5.83,0,0,0,.6-2.6,5.42,5.42,0,0,0-.6-2.5,4.64,4.64,0,0,0-1.6-1.8,7,7,0,0,0-2.5-.5ZM132,34a17.37,17.37,0,0,1,3.9.5,8.42,8.42,0,0,1,5.3,4.4,7.82,7.82,0,0,1,.7,3.5,10.06,10.06,0,0,1-.8,3.9,7.33,7.33,0,0,1-2.2,3,10.08,10.08,0,0,1-3.4,1.8,14.31,14.31,0,0,1-8.2,0,10.08,10.08,0,0,1-3.4-1.8,6.63,6.63,0,0,1-2-2.8,9,9,0,0,1-.6-3.4,8.65,8.65,0,0,1,1.3-4.8,8,8,0,0,1,3.8-3.2A14.34,14.34,0,0,1,132,34ZM103.7,51.4c.2-1.5.3-2.8.4-4s.2-2.5.2-4.1.1-3.2.2-4.9V34.3H107a20.93,20.93,0,0,0,2.4-.1c1,0,1.9-.1,2.8-.1a26.22,26.22,0,0,1,2.9.1,8.47,8.47,0,0,1,1.7.4,5.39,5.39,0,0,1,1.3.7,7.64,7.64,0,0,1,.9.9,3.7,3.7,0,0,1,.5,1.1,5.9,5.9,0,0,1,.2,1.4,7.77,7.77,0,0,1-.2,1.6,4.59,4.59,0,0,1-.7,1.4,5.73,5.73,0,0,1-1.1,1.1c-.5.3-1.1.6-1.9,1l.7,1.6c.2.4.4.9.6,1.4l1.7,3.7c.1.2.2.5.4.9h-5.8c-.1-.4-.4-1.2-.7-2.4a4.33,4.33,0,0,0-.4-1.1c-.2-.6-.5-1.4-.9-2.5l-1.3-3.5a6.15,6.15,0,0,0,1.3.1,4.67,4.67,0,0,0,1.7-.3,2,2,0,0,0,1.1-.9,1.92,1.92,0,0,0,.4-1.2,1.22,1.22,0,0,0-.3-.9,1.46,1.46,0,0,0-.9-.6,7.75,7.75,0,0,0-1.9-.2h-2q-.15,2.55-.3,6.3c-.1,2.5-.1,4.9-.2,7.2h-5.3Zm-9.9-9.9h7.5c-.1,1.1-.2,2.8-.3,4.9s-.2,3.7-.2,4.7c-1,.2-1.8.3-2.4.4s-1.4.1-2.3.2a20.93,20.93,0,0,1-2.4.1,17.61,17.61,0,0,1-3.3-.3,11,11,0,0,1-2.9-.9,6.2,6.2,0,0,1-2.2-1.7A6.61,6.61,0,0,1,84,46.4a10.47,10.47,0,0,1-.5-3,8.54,8.54,0,0,1,1.3-4.7,9.08,9.08,0,0,1,3.6-3.4A13.45,13.45,0,0,1,94.5,34a28.53,28.53,0,0,1,6.1.7c0,1.2.1,2.6.2,4.1-.6-.2-1.1-.4-1.5-.5s-.8-.2-1.3-.3a7.84,7.84,0,0,0-1.4-.2c-.4,0-.8-.1-1.2-.1a7.46,7.46,0,0,0-2.6.4,7.19,7.19,0,0,0-2.1,1.2,4.64,4.64,0,0,0-1.3,2,6.72,6.72,0,0,0-.4,2.4,5.56,5.56,0,0,0,.5,2.3,2.94,2.94,0,0,0,1.6,1.5,4.71,4.71,0,0,0,2.4.5,10.5,10.5,0,0,0,2.4-.3L96,45H93.7l.1-1.5v-2Zm69.5-12.1c.2-2.2.4-4,.5-5.4s.2-3.4.3-5.8.1-4,.1-4.8V12.3h13.9v.4a6.61,6.61,0,0,1-.1,1.1l-.1,1.4v.9c-1.6-.1-3-.1-4.1-.1h-2.4a17.22,17.22,0,0,0-2,.1l-.2,2.9h3.4c.5,0,1.7,0,3.7-.1-.1,1.1-.2,2.3-.2,3.8h-3.3c-1.1,0-2.4,0-3.9.1l-.1,3h4l2.6-.1a15.77,15.77,0,0,0,1.9-.1c-.1,1.2-.2,2.5-.3,3.8H163.3Zm-2.4-4.1c-.1.5-.2,1.2-.4,2.1a17.78,17.78,0,0,1-.3,2,29,29,0,0,1-4.8.4,15.18,15.18,0,0,1-3.8-.5,8.27,8.27,0,0,1-3.2-1.7,6.64,6.64,0,0,1-2.1-2.7,9.51,9.51,0,0,1-.6-3.5,10.7,10.7,0,0,1,.8-4.1,8.86,8.86,0,0,1,2.4-3,9.5,9.5,0,0,1,3.5-1.7,17.37,17.37,0,0,1,3.9-.5,30.3,30.3,0,0,1,4.6.5v1.1a7.57,7.57,0,0,0,.1,1.5l.1,1.4c-1-.2-1.8-.4-2.4-.5A10.28,10.28,0,0,0,157,16a6,6,0,0,0-3,.7,5.06,5.06,0,0,0-2.1,2,5.74,5.74,0,0,0-.8,2.9,4.27,4.27,0,0,0,.6,2.4,4,4,0,0,0,1.8,1.6,5.4,5.4,0,0,0,2.7.6,12.75,12.75,0,0,0,1.9-.1,11.46,11.46,0,0,1,2.8-.8Zm-35.8,4.1.3-2.6.5-8.9.1-3.6v-2h6.4l5.4,9.7.7,1.4c.1-1.4.2-3.4.3-5.9s.1-4.3.1-5.2h5l-.3,3.7L143,26.4l-.1,3h-6.3c-.4-.8-.8-1.4-1-1.8L133.5,24c-.7-1.2-1.3-2.3-1.9-3.4-.4-.7-.8-1.4-1.2-2.2l-.3,5.9-.1,5h-2.4a15,15,0,0,1-2.5.1Zm-17,0c.2-2.2.4-4,.5-5.4s.2-3.4.3-5.8.1-4,.1-4.8V12.3h13.9v.4a6.61,6.61,0,0,1-.1,1.1l-.1,1.4v.9c-1.6-.1-3-.1-4.1-.1h-2.4a17.22,17.22,0,0,0-2,.1L114,19h3.4c.5,0,1.7,0,3.7-.1-.1,1.1-.2,2.3-.2,3.8h-3.3c-1.1,0-2.4,0-3.9.1l-.1,3h4l2.6-.1a15.77,15.77,0,0,0,1.9-.1c-.1,1.2-.2,2.5-.3,3.8H108.1ZM93.8,25.7c.5,0,.9.1,1.4.1a16.41,16.41,0,0,0,2.3-.2,3.25,3.25,0,0,0,1.8-1,4,4,0,0,0,1.1-1.9,10,10,0,0,0,.4-2.4,6.18,6.18,0,0,0-.5-2.5,2.72,2.72,0,0,0-1.4-1.4,5.46,5.46,0,0,0-2.4-.4,16.23,16.23,0,0,0-2.1.1l-.6,9.6Zm-5.4,3.7c.2-1.9.3-3.4.4-4.6q.15-2.55.3-6.6c.1-2.1.1-3.6.1-4.4V12.3h2.5c.7,0,1.6,0,2.7-.1s2.2-.1,3.1-.1a23.28,23.28,0,0,1,2.9.2,7.54,7.54,0,0,1,2.4.8,6.9,6.9,0,0,1,1.8,1.6,6.59,6.59,0,0,1,1.1,2.4,8.63,8.63,0,0,1,.4,2.8,11.76,11.76,0,0,1-.3,2.7A13.49,13.49,0,0,1,105,25a8.32,8.32,0,0,1-1.3,1.8,10.1,10.1,0,0,1-1.6,1.3,4.24,4.24,0,0,1-1.4.6c-.5.1-1.1.3-1.9.4a29.12,29.12,0,0,1-3.1.1H90.6a6.22,6.22,0,0,1-2.2.2Zm-8.8,0c.5-6.7.7-11.9.7-15.5V12.3h5.6c-.1,1.9-.3,3.7-.4,5.3-.1,2.3-.2,4.5-.2,6.6s-.1,3.8-.1,5.2H79.6Zm-17.8,0c.2-1.7.3-3.1.4-4.1q.15-2.25.3-6.3c.1-2.7.1-4.4.1-5.4V12.2H75.9c-.1,1.9-.2,3.2-.2,3.8H67.8l-.1,2.9h6.5c-.1,1.6-.1,2.8-.1,3.7-1.3,0-2.3-.1-3-.1-1.1,0-2.3,0-3.6.1l-.1,4.5v2.3H61.8Zm-21,0,.3-2.6.5-8.9.1-3.6v-2h6.4L53.5,22l.7,1.4c.1-1.4.2-3.4.3-5.9s.1-4.3.1-5.2h5L59.3,16l-.6,10.4-.1,3H52.3c-.4-.8-.8-1.4-1-1.8L49.2,24c-.7-1.2-1.3-2.3-1.9-3.4-.4-.7-.8-1.4-1.2-2.2l-.3,5.9-.1,5H43.3a15,15,0,0,1-2.5.1ZM28.6,15.8a4.62,4.62,0,0,0-2.6.7,4.38,4.38,0,0,0-1.8,2,6,6,0,0,0-.6,2.7,4.75,4.75,0,0,0,.6,2.4,4.62,4.62,0,0,0,1.7,1.7,5.42,5.42,0,0,0,2.5.6,4.3,4.3,0,0,0,2.5-.7,4.38,4.38,0,0,0,1.8-2,5.83,5.83,0,0,0,.6-2.6,5.42,5.42,0,0,0-.6-2.5,4.64,4.64,0,0,0-1.6-1.8,6.18,6.18,0,0,0-2.5-.5Zm.3-3.8a17.37,17.37,0,0,1,3.9.5,8.42,8.42,0,0,1,5.3,4.4,7.82,7.82,0,0,1,.7,3.5,10.06,10.06,0,0,1-.8,3.9,7.33,7.33,0,0,1-2.2,3,10.08,10.08,0,0,1-3.4,1.8,14.31,14.31,0,0,1-8.2,0,10.08,10.08,0,0,1-3.4-1.8,6.63,6.63,0,0,1-2-2.8,9,9,0,0,1-.6-3.4,8.65,8.65,0,0,1,1.3-4.8,8,8,0,0,1,3.8-3.2A14,14,0,0,1,28.9,12ZM16.1,25.3c-.1.5-.2,1.2-.4,2.1a17.78,17.78,0,0,1-.3,2,29,29,0,0,1-4.8.4,15.18,15.18,0,0,1-3.8-.5,8.27,8.27,0,0,1-3.2-1.7,6.64,6.64,0,0,1-2.1-2.7,9.51,9.51,0,0,1-.6-3.5,10.7,10.7,0,0,1,.8-4.1,8.86,8.86,0,0,1,2.4-3,9.5,9.5,0,0,1,3.5-1.7,17.37,17.37,0,0,1,3.9-.5,30.3,30.3,0,0,1,4.6.5v1.1a7.57,7.57,0,0,0,.1,1.5l.1,1.4c-1-.2-1.8-.4-2.4-.5a10.28,10.28,0,0,0-1.7-.1,6,6,0,0,0-3,.7,5.06,5.06,0,0,0-2.1,2,5.74,5.74,0,0,0-.8,2.9A4.27,4.27,0,0,0,6.9,24a4,4,0,0,0,1.8,1.6,5.4,5.4,0,0,0,2.7.6,12.75,12.75,0,0,0,1.9-.1,12.9,12.9,0,0,1,2.8-.8Z" transform="translate(-0.9 -0.1)"/><g id="Shape-2" data-name="Shape"><polygon class="cls-1" points="213 35.2 213 29.7 217.5 27.2 217.5 13.2 217.5 13.2 217.5 13.2 228 13.2 223.8 2.8 191.6 14.5 191.6 48.7 213 48.7 213 35.2"/><polygon class="cls-1" points="240.2 48.8 240.2 14.6 218.8 14.6 218.8 28 218.8 28 218.8 33.7 214.4 36 214.4 50.1 214.4 50.1 213.8 50.1 203.9 50.1 208 60.5 240.2 48.8"/><path class="cls-1" d="M230.9,12.5,226,.1,190.4,13V51h12.4l4.9,12.4,35.6-12.9V12.6l-12.4-.1Zm11.6,37.3L208.1,62.3l-4.8-12.2H191.2V13.6L225.6,1.1l4.8,12.2h12.2V49.8Z" transform="translate(-0.9 -0.1)"/><polygon class="cls-1" points="217.5 28.7 217.5 32.8 214.4 34.4 214.4 30.5 217.5 28.7"/></g></g></g></g></svg>