<svg xmlns="http://www.w3.org/2000/svg" viewBox="0 0 15.36 15.6"><defs><style>.cls-1{fill:#fff;}</style></defs><title>Ресурс 1</title><g id="Слой_2" data-name="Слой 2"><g id="Слой_1-2" data-name="Слой 1"><path class="cls-1" d="M14.31,1H12.94a.25.25,0,1,0,0,.5h.47a1,1,0,0,0-.15.53V13.79a.25.25,0,0,0,.51,0V2a.54.54,0,0,1,1.08,0V13.79a1.34,1.34,0,0,1-2.67,0V.25A.25.25,0,0,0,11.92,0H.25A.25.25,0,0,0,0,.25V13.79A1.83,1.83,0,0,0,1.85,15.6H13.51a1.83,1.83,0,0,0,1.85-1.81V2A1,1,0,0,0,14.31,1ZM1.85,15.1A1.33,1.33,0,0,1,.51,13.79V.5H11.67V13.79a1.79,1.79,0,0,0,.58,1.31Z"/><path class="cls-1" d="M10.57,1.33h-9a.25.25,0,0,0-.25.25V4.07a.25.25,0,0,0,.25.25h9a.25.25,0,0,0,.25-.25V1.58A.25.25,0,0,0,10.57,1.33Zm-.25,2.49H1.86v-2h8.45Z"/><path class="cls-1" d="M10.57,4.81h-9a.25.25,0,1,0,0,.5h9a.25.25,0,1,0,0-.5Z"/><path class="cls-1" d="M10.57,6.8h-4a.25.25,0,1,0,0,.5h4a.25.25,0,1,0,0-.5Z"/><path class="cls-1" d="M5.58,6.8h-4a.25.25,0,1,0,0,.5h4a.25.25,0,1,0,0-.5Z"/><path class="cls-1" d="M10.57,7.8h-4a.25.25,0,1,0,0,.5h4a.25.25,0,1,0,0-.5Z"/><path class="cls-1" d="M5.58,7.8h-4a.25.25,0,1,0,0,.5h4a.25.25,0,1,0,0-.5Z"/><path class="cls-1" d="M10.57,8.8h-4a.25.25,0,1,0,0,.5h4a.25.25,0,1,0,0-.5Z"/><path class="cls-1" d="M10.57,9.79h-4a.25.25,0,1,0,0,.5h4a.25.25,0,1,0,0-.5Z"/><path class="cls-1" d="M6.6,11.29H9.21a.25.25,0,1,0,0-.5H6.6a.25.25,0,1,0,0,.5Z"/><path class="cls-1" d="M9.21,13.77H6.6a.25.25,0,1,0,0,.5H9.21a.25.25,0,1,0,0-.5Z"/><path class="cls-1" d="M10.57,12.78h-4a.25.25,0,1,0,0,.5h4a.25.25,0,1,0,0-.5Z"/><path class="cls-1" d="M5.58,8.8h-4A.25.25,0,0,0,1.35,9v5a.25.25,0,0,0,.25.25h4A.25.25,0,0,0,5.83,14V9A.25.25,0,0,0,5.58,8.8Zm-.25,5H1.86V9.29H5.33Z"/></g></g></svg>