<?xml version="1.0" encoding="utf-8"?>
<!-- Generator: Adobe Illustrator 19.0.1, SVG Export Plug-In . SVG Version: 6.00 Build 0)  -->
<svg version="1.1" id="Слой_1" xmlns="http://www.w3.org/2000/svg" xmlns:xlink="http://www.w3.org/1999/xlink" x="0px" y="0px"
	 viewBox="0 0 26.9 27.8" style="enable-background:new 0 0 26.9 27.8;" xml:space="preserve">
<style type="text/css">
	.st0{fill:#D9DADA;}
	.st1{fill:none;}
</style>
<g>
	<path class="st0" d="M13.6,14.1c2.9,0,5.3-2.8,5.3-6.3c0-4.8-2.4-6.3-5.3-6.3c-2.9,0-5.3,1.5-5.3,6.3C8.3,11.3,10.6,14.1,13.6,14.1
		z"/>
	<path class="st0" d="M21.7,18.1c0.5,0,1,0.1,1.5,0.3l-0.5-1.1c-0.1-0.3-0.3-0.5-0.6-0.6l-4.2-2.2c-0.1,0-0.2,0-0.3,0
		c-1.2,0.9-2.6,1.4-4,1.4c-1.4,0-2.8-0.5-4-1.4c-0.1-0.1-0.2-0.1-0.3,0l-4.2,2.2c-0.3,0.1-0.5,0.4-0.6,0.6l-2.7,6.1
		c-0.2,0.4-0.1,0.9,0.1,1.3C2.1,25,2.6,25.2,3,25.2h15c-0.6-0.7-0.9-1.7-0.9-2.7C17.1,20.1,19.2,18.1,21.7,18.1z"/>
	<path class="st1" d="M22.4,20.5c-0.7,0-1.3,0.6-1.3,1.3c0,0.2,0,0.3,0.1,0.5l-1.6,1.6v0.8h0.8v-0.5h0.5v-0.5h0.5L22,23
		c0.1,0,0.3,0.1,0.5,0.1c0.7,0,1.3-0.6,1.3-1.3S23.2,20.5,22.4,20.5z M22.8,21.9c-0.3,0-0.5-0.2-0.5-0.5s0.2-0.5,0.5-0.5
		s0.5,0.2,0.5,0.5S23.1,21.9,22.8,21.9z"/>
	<path class="st0" d="M22.8,21c-0.3,0-0.5,0.2-0.5,0.5s0.2,0.5,0.5,0.5s0.5-0.2,0.5-0.5S23.1,21,22.8,21z"/>
	<path class="st0" d="M21.7,19c-2,0-3.6,1.6-3.6,3.6c0,2,1.6,3.6,3.6,3.6c2,0,3.6-1.6,3.6-3.6C25.2,20.6,23.6,19,21.7,19z
		 M22.4,23.1c-0.2,0-0.3,0-0.5-0.1l-0.7,0.7h-0.5v0.5h-0.5v0.5h-0.8v-0.8l1.6-1.6c0-0.2-0.1-0.3-0.1-0.5c0-0.7,0.6-1.3,1.3-1.3
		s1.3,0.6,1.3,1.3S23.2,23.1,22.4,23.1z"/>
</g>
</svg>
