<svg xmlns="http://www.w3.org/2000/svg" viewBox="0 0 16.8 16.8"><defs><style>.cls-1{fill:#fff;}</style></defs><title>Ресурс 1</title><g id="Слой_2" data-name="Слой 2"><g id="Слой_1-2" data-name="Слой 1"><path class="cls-1" d="M16.8,8.36a2,2,0,0,0-.33-1.12,1.35,1.35,0,0,1-.2-1,2,2,0,0,0-.86-2,1.39,1.39,0,0,1-.56-.84,2,2,0,0,0-1.55-1.52,1.39,1.39,0,0,1-.84-.55,2,2,0,0,0-2-.82,1.35,1.35,0,0,1-1-.19,2,2,0,0,0-2.2,0,1.35,1.35,0,0,1-1,.2,2,2,0,0,0-2,.86,1.39,1.39,0,0,1-.84.56A2,2,0,0,0,1.88,3.49a1.39,1.39,0,0,1-.55.84,2,2,0,0,0-.82,2,1.35,1.35,0,0,1-.19,1,2,2,0,0,0,0,2.2,1.35,1.35,0,0,1,.2,1,2,2,0,0,0,.86,2,1.39,1.39,0,0,1,.56.84,2,2,0,0,0,1.55,1.52,1.39,1.39,0,0,1,.84.55,2,2,0,0,0,2,.82,1.35,1.35,0,0,1,1,.19,2,2,0,0,0,2.2,0,1.35,1.35,0,0,1,1-.2,2,2,0,0,0,2-.86,1.39,1.39,0,0,1,.84-.56,2,2,0,0,0,1.52-1.55,1.39,1.39,0,0,1,.55-.84,2,2,0,0,0,.82-2,1.35,1.35,0,0,1,.19-1A2,2,0,0,0,16.8,8.36Zm-.88.73a2,2,0,0,0-.28,1.46,1.37,1.37,0,0,1-.55,1.37,2.06,2.06,0,0,0-.82,1.25,1.37,1.37,0,0,1-1,1A2.06,2.06,0,0,0,12,15a1.37,1.37,0,0,1-1.36.58,2,2,0,0,0-1.45.3,1.37,1.37,0,0,1-1.48,0,2,2,0,0,0-1.09-.32,2,2,0,0,0-.37,0,1.37,1.37,0,0,1-1.37-.55,2.06,2.06,0,0,0-1.25-.82,1.37,1.37,0,0,1-1-1A2.06,2.06,0,0,0,1.76,12a1.37,1.37,0,0,1-.58-1.36,2,2,0,0,0-.3-1.45,1.37,1.37,0,0,1,0-1.48,2,2,0,0,0,.28-1.46,1.37,1.37,0,0,1,.55-1.37,2.06,2.06,0,0,0,.82-1.25,1.37,1.37,0,0,1,1-1A2.06,2.06,0,0,0,4.8,1.76a1.37,1.37,0,0,1,1.36-.58A2,2,0,0,0,7.61.89a1.37,1.37,0,0,1,1.48,0,2,2,0,0,0,1.46.28,1.37,1.37,0,0,1,1.37.55,2.06,2.06,0,0,0,1.25.82,1.37,1.37,0,0,1,1,1A2.06,2.06,0,0,0,15,4.8a1.37,1.37,0,0,1,.58,1.36,2,2,0,0,0,.3,1.45,1.37,1.37,0,0,1,0,1.48Z"/><path class="cls-1" d="M7.4,7.42V5.86c0-.89-.59-1.22-1.34-1.22S4.72,5,4.72,5.86V7.42c0,.89.58,1.22,1.34,1.22S7.4,8.31,7.4,7.42Zm-.62,0a.62.62,0,0,1-.72.67.62.62,0,0,1-.72-.67V5.86a.62.62,0,0,1,.72-.67.62.62,0,0,1,.72.67Z"/><path class="cls-1" d="M10.57,8.25c-.76,0-1.34.33-1.34,1.22V11c0,.89.58,1.22,1.34,1.22s1.34-.33,1.34-1.22V9.47C11.91,8.58,11.32,8.25,10.57,8.25ZM11.28,11a.62.62,0,0,1-.72.67A.62.62,0,0,1,9.85,11V9.47a.62.62,0,0,1,.72-.67.62.62,0,0,1,.72.67Z"/><path class="cls-1" d="M10.61,4.58a.36.36,0,0,0-.35-.34.29.29,0,0,0-.26.16L6.11,12.08a.32.32,0,0,0,0,.13.32.32,0,0,0,.33.31.3.3,0,0,0,.29-.17l3.88-7.64A.37.37,0,0,0,10.61,4.58Z"/></g></g></svg>