<?xml version="1.0" encoding="utf-8"?>
<!-- Generator: Adobe Illustrator 21.0.2, SVG Export Plug-In . SVG Version: 6.00 Build 0)  -->
<svg version="1.1" id="Layer_1" xmlns="http://www.w3.org/2000/svg" xmlns:xlink="http://www.w3.org/1999/xlink" x="0px" y="0px"
	 viewBox="0 0 70 70" style="enable-background:new 0 0 70 70;" xml:space="preserve">
<style type="text/css">
	.st0{fill:#FFFFFF;}
</style>
<g>
	<path class="st0" d="M34.7,70.2c-19.3,0-35-15.7-35-35c0-19.3,15.7-35,35-35c19.3,0,35,15.7,35,35C69.7,54.5,54,70.2,34.7,70.2
		L34.7,70.2z M34.7,2.3C16.6,2.3,1.8,17.1,1.8,35.2c0,18.1,14.7,32.9,32.9,32.9c18.1,0,32.9-14.8,32.9-32.9
		C67.6,17.1,52.8,2.3,34.7,2.3L34.7,2.3z M34.7,2.3"/>
	<path class="st0" d="M34.7,70.2c-7.3,0-14.3-2.2-20.3-6.5c-0.3-0.2-0.5-0.6-0.4-1c0.1-0.4,0.3-0.7,0.7-0.9
		c8.8-3.3,10.2-5.9,10.2-11c0-1.3-0.3-1.8-0.8-2.6c-0.7-1-1.7-2.5-2.4-6.2c-0.1-0.5-0.2-0.6-0.7-0.8c-1.3-0.6-2.5-1.5-2.8-5.6
		c0-2,0.7-3.1,1.2-3.6c-0.1-0.7-0.3-1.9-0.5-3.2c-1-5.9-1-13.1,7.3-16.5c7.2-2.9,13-1.3,14.8,0.6c1.3,0,4.6,0.4,6.9,3.1
		c3.5,4.1,2.4,13.5,2,16c0.6,0.6,1.2,1.6,1.2,3.6c-0.3,4.1-1.5,5-2.8,5.7c-0.5,0.2-0.6,0.3-0.7,0.8c-0.7,3.7-1.7,5.2-2.4,6.2
		c-0.5,0.8-0.8,1.2-0.8,2.6c0,5.1,1.4,7.7,10.2,11c0.4,0.1,0.6,0.5,0.7,0.9c0.1,0.4-0.1,0.8-0.4,1C49,68,42,70.2,34.7,70.2
		L34.7,70.2z M17.3,63.1c5.2,3.3,11.2,5,17.4,5c6.2,0,12.1-1.7,17.4-5c-7.4-3-9.7-6.1-9.7-12.2c0-2,0.6-2.9,1.2-3.8
		c0.6-0.9,1.4-2.1,2-5.4c0.3-1.6,1.2-2,1.8-2.3c0.7-0.3,1.3-0.6,1.6-3.8c0-1.6-0.7-2.1-0.8-2.1c-0.4-0.2-0.6-0.7-0.6-1.1
		c0.5-2.8,1.4-11.6-1.5-14.9c-1.9-2.2-5-2.3-5.6-2.3c-0.1,0-0.2,0-0.3,0c-0.3-0.1-0.7-0.3-0.9-0.6c-0.6-1-5.6-3-12.5-0.2
		c-6.9,2.8-6.9,8.7-6,14.2c0.3,2,0.6,3.8,0.6,3.8c0.1,0.5-0.2,1-0.6,1.2c0,0-0.7,0.4-0.7,2.1c0.2,3.1,0.9,3.4,1.6,3.7
		c0.6,0.3,1.5,0.7,1.8,2.3c0.6,3.3,1.4,4.5,2.1,5.4c0.6,0.9,1.2,1.8,1.2,3.8C27,57,24.7,60.1,17.3,63.1L17.3,63.1z M17.3,63.1"/>
</g>
</svg>
