<?xml version="1.0" encoding="utf-8"?>
<!-- Generator: Adobe Illustrator 20.1.0, SVG Export Plug-In . SVG Version: 6.00 Build 0)  -->
<svg version="1.1" id="Слой_1" xmlns="http://www.w3.org/2000/svg" xmlns:xlink="http://www.w3.org/1999/xlink" x="0px" y="0px"
	 viewBox="0 0 32 32.1" style="enable-background:new 0 0 32 32.1;" xml:space="preserve">
<style type="text/css">
	.st0{display:none;}
	.st1{display:inline;}
	.st2{fill:#FFFFFF;}
</style>
<g class="st0">
	<rect x="-135" y="-31" class="st1" width="461.5" height="244"/>
</g>
<g>
	<g>
		<path class="st2" d="M16.2,2.5l2.1,2.7l0.7,1l1.1-0.5L23,4.3l0.3,3.4L23.4,9l1.3,0.1L28,9.4l-1.5,2.5L25.8,13l1,0.8l2.8,2.3
			l-2.5,2.2L26.3,19l0.5,1l1.1,2.6l-3.3,0.1h-1.4l-0.1,1.4l-0.3,3.4l-2.7-1.3L19,25.6l-0.7,1.1l-1.8,2.8l-2.1-2.8l-0.7-1l-1.1,0.5
			l-3.1,1.5l-0.2-3.2l-0.1-1.3l-1.3-0.1l-3.4-0.4l1.3-2.9l0.5-1.1l-1-0.7l-2.7-2l2.5-1.5l1.1-0.7l-0.5-1.2L4.3,9.2L7.9,9l1.4-0.1
			l0.1-1.4l0.2-3.4l2.9,1.5l1.2,0.6l0.8-1.1L16.2,2.5 M16.2,0l-3.1,4.4l-5-2.6L7.8,7.5L2.2,7.8l2.1,5.4L0,15.8l4.4,3.3l-2.2,4.7
			l5.5,0.6L8,30l5.1-2.4l3.4,4.5l3-4.5l4.7,2.3l0.4-5.6l5.5-0.1l-2-4.6l3.9-3.3l-4.2-3.4L30.5,8l-5.7-0.4L24.3,2l-4.8,2.3L16.2,0
			L16.2,0z"/>
	</g>
	<path class="st2" d="M15.6,12.8c0,2.3-1.4,3.5-2.9,3.5c-1.6,0-2.8-1.2-2.9-3.4c0-2.1,1.2-3.5,2.9-3.5C14.6,9.5,15.6,10.8,15.6,12.8
		z M11.4,12.9c0,1.3,0.4,2.2,1.3,2.2s1.3-0.9,1.3-2.3c0-1.2-0.3-2.2-1.3-2.2C11.9,10.7,11.4,11.7,11.4,12.9z M12.7,21l6.5-11.5h1.2
		L13.9,21H12.7L12.7,21z M23.3,17.5c0,2.3-1.4,3.5-2.9,3.5s-2.8-1.2-2.8-3.4c0-2.1,1.2-3.5,2.9-3.5C22.2,14.1,23.3,15.4,23.3,17.5z
		 M19.1,17.6c0,1.3,0.5,2.2,1.3,2.2c0.9,0,1.3-0.9,1.3-2.3c0-1.3-0.3-2.2-1.3-2.2C19.6,15.3,19.1,16.3,19.1,17.6z"/>
</g>
<g class="st0">
	<g class="st1">
		<path d="M12.7,11c-0.9,0-1.3,1-1.3,2.3s0.4,2.2,1.3,2.2s1.3-0.9,1.3-2.3C14,12,13.6,11,12.7,11z"/>
		<path d="M20.4,15.7c-0.9,0-1.3,1-1.3,2.3s0.5,2.2,1.3,2.2c0.9,0,1.3-0.9,1.3-2.3C21.7,16.6,21.4,15.7,20.4,15.7z"/>
		<path d="M32,16.1l-4.2-3.4L30.5,8l-5.7-0.4L24.3,2l-4.8,2.3L16.2,0l-3.1,4.4l-5-2.6L7.8,7.5L2.2,7.8l2.1,5.4L0,15.8l4.4,3.3
			l-2.2,4.7l5.5,0.6L8,30l5.1-2.4l3.4,4.5l3-4.5l4.7,2.3l0.4-5.6l5.5-0.1l-2-4.6L32,16.1z M9.8,13.4c0-2.1,1.2-3.5,2.9-3.5
			c1.8,0,2.8,1.3,2.8,3.3c0,2.4-1.4,3.5-2.9,3.5S9.9,15.5,9.8,13.4z M13.9,21.4h-1.2l6.5-11.5h1.2L13.9,21.4z M20.4,21.3
			c-1.5,0-2.8-1.2-2.8-3.4c0-2.1,1.2-3.5,2.9-3.5c1.8,0,2.8,1.3,2.8,3.3C23.3,20.1,21.9,21.3,20.4,21.3z"/>
	</g>
</g>
</svg>
