<svg id="SvgjsSvg1021" xmlns="http://www.w3.org/2000/svg" version="1.1" xmlns:xlink="http://www.w3.org/1999/xlink" xmlns:svgjs="http://svgjs.com/svgjs" width="13" height="15" viewBox="-1 0 14 15"><title>Shape 6</title><desc>Created with Avocode.</desc><defs id="SvgjsDefs1022"><clipPath id="SvgjsClipPath1026"><path id="SvgjsPath1025" d="M135 405V390H148V405ZM136 393.999V401.09900000000005C136 402.20300000000003 136.895 403.09800000000007 138 403.09800000000007H145C146.104 403.09800000000007 147 402.2030000000001 147 401.09900000000005V393.999C147 392.894 146.104 391.99800000000005 145 391.99800000000005H138C136.895 391.99800000000005 136 392.89400000000006 136 393.999Z " fill="#ffffff"></path></clipPath></defs><path id="SvgjsPath1023" d="M138 391.998H145C146.104 391.998 147 392.894 147 393.99899999999997V401.099C147 402.203 146.104 403.098 145 403.098H138C136.895 403.098 136 402.20300000000003 136 401.099V393.99899999999997C136 392.89399999999995 136.895 391.998 138 391.998Z " fill="#ffffff" fill-opacity="1" transform="matrix(1,0,0,1,-135,-390)"></path><path id="SvgjsPath1024" d="M138 391.998H145C146.104 391.998 147 392.894 147 393.99899999999997V401.099C147 402.203 146.104 403.098 145 403.098H138C136.895 403.098 136 402.20300000000003 136 401.099V393.99899999999997C136 392.89399999999995 136.895 391.998 138 391.998Z " fill-opacity="0" fill="#ffffff" stroke-dasharray="0" stroke-linejoin="round" stroke-linecap="round" stroke-opacity="1" stroke="#e3e5e6" stroke-miterlimit="50" stroke-width="2" clip-path="url(&quot;#SvgjsClipPath1026&quot;)" transform="matrix(1,0,0,1,-135,-390)"></path><path id="SvgjsPath1027" d="M135.992 397.71L137.71099999999998 395.991L142.00699999999998 400.288L140.289 402.007ZM145.84 394.205L147.254 395.62L141.08599999999998 401.788L139.672 400.374Z " fill="#ed1c24" fill-opacity="1" transform="matrix(1,0,0,1,-135,-390)"></path></svg>
