<svg id="SvgjsSvg1015" xmlns="http://www.w3.org/2000/svg" version="1.1" xmlns:xlink="http://www.w3.org/1999/xlink" xmlns:svgjs="http://svgjs.com/svgjs" width="13" height="15" viewBox="-1 0 14 15"><title>Shape 6 copy</title><desc>Created with Avocode.</desc><defs id="SvgjsDefs1016"><clipPath id="SvgjsClipPath1020"><path id="SvgjsPath1019" d="M135 438V423H148V438ZM136 426.998V434.099C136 435.203 136.895 436.099 138 436.099H145C146.104 436.099 147 435.203 147 434.099V426.998C147 425.894 146.104 424.998 145 424.998H138C136.895 424.998 136 425.894 136 426.998Z " fill="#ffffff"></path></clipPath></defs><path id="SvgjsPath1017" d="M138 424.998H145C146.104 424.998 147 425.894 147 426.998V434.099C147 435.203 146.104 436.099 145 436.099H138C136.895 436.099 136 435.203 136 434.099V426.998C136 425.894 136.895 424.998 138 424.998Z " fill="#ffffff" fill-opacity="1" transform="matrix(1,0,0,1,-135,-423)"></path><path id="SvgjsPath1018" d="M138 424.998H145C146.104 424.998 147 425.894 147 426.998V434.099C147 435.203 146.104 436.099 145 436.099H138C136.895 436.099 136 435.203 136 434.099V426.998C136 425.894 136.895 424.998 138 424.998Z " fill-opacity="0" fill="#ffffff" stroke-dasharray="0" stroke-linejoin="round" stroke-linecap="round" stroke-opacity="1" stroke="#e3e5e6" stroke-miterlimit="50" stroke-width="2" clip-path="url(&quot;#SvgjsClipPath1020&quot;)" transform="matrix(1,0,0,1,-135,-423)"></path></svg>
