<?xml version="1.0" encoding="utf-8"?>
<!-- Generator: Adobe Illustrator 20.1.0, SVG Export Plug-In . SVG Version: 6.00 Build 0)  -->
<svg version="1.1"
	 id="Слой_1" xmlns:cc="http://creativecommons.org/ns#" xmlns:dc="http://purl.org/dc/elements/1.1/" xmlns:inkscape="http://www.inkscape.org/namespaces/inkscape" xmlns:rdf="http://www.w3.org/1999/02/22-rdf-syntax-ns#" xmlns:sodipodi="http://sodipodi.sourceforge.net/DTD/sodipodi-0.dtd" xmlns:svg="http://www.w3.org/2000/svg"
	 xmlns="http://www.w3.org/2000/svg" xmlns:xlink="http://www.w3.org/1999/xlink" x="0px" y="0px" viewBox="0 0 32 26"
	 style="enable-background:new 0 0 32 26;" xml:space="preserve">
<style type="text/css">
	.st0{fill:#FFFFFF;}
</style>
<g transform="translate(0,-1020.3622)">
	<path class="st0" d="M21.5,1020.4C21.5,1020.4,21.4,1020.4,21.5,1020.4l-15.5,0v26h5.3h7.2h3.1H26v-21.4c0-0.1,0-0.1,0-0.2v-0.1
		l-0.1-0.1c0,0,0,0,0,0c0,0-0.1-0.1-0.1-0.1c0,0,0,0,0,0l-3.9-3.9c0,0-0.1-0.1-0.1-0.1c0,0,0,0,0,0l-0.1-0.1L21.5,1020.4
		C21.5,1020.4,21.5,1020.4,21.5,1020.4z M7,1021.4h14v4h4v20h-3.5h-3.1h-7.2H7V1021.4z M22,1022.1l2.3,2.3H22V1022.1z M12,1023.4v1
		h7v-1H12z M9,1026.4v1h14v-1H9z M9,1028.4v1h14v-1H9z M9,1030.4v1h14v-1H9z M9,1032.4v1h14v-1H9z M9,1034.4v1h14v-1H9z M9,1036.4v1
		h10v-1H9z M16,1040.4c-0.8,0-1.5,0.7-1.5,1.5c0,0.8,0.7,1.5,1.5,1.5c0.8,0,1.5-0.7,1.5-1.5C17.5,1041,16.8,1040.4,16,1040.4z
		 M9,1041.4v1h4v-1H9z M16,1041.4c0.3,0,0.5,0.2,0.5,0.5c0,0.3-0.2,0.5-0.5,0.5c-0.3,0-0.5-0.2-0.5-0.5
		C15.5,1041.6,15.7,1041.4,16,1041.4z M19,1041.4v1h4v-1H19z"/>
</g>
</svg>
