<?xml version="1.0" encoding="utf-8"?>
<!-- Generator: Adobe Illustrator 20.1.0, SVG Export Plug-In . SVG Version: 6.00 Build 0)  -->
<svg version="1.1" id="Слой_1" xmlns="http://www.w3.org/2000/svg" xmlns:xlink="http://www.w3.org/1999/xlink" x="0px" y="0px"
	 viewBox="0 0 67 69.5" style="enable-background:new 0 0 67 69.5;" xml:space="preserve" width="17" height="19">
<style type="text/css">
	.st0{fill:#353434;}
</style>
<title>Artboard</title>
<desc>Created with Sketch.</desc>
<g>
	<g>
		<path class="st0" d="M10.4,56H2.5C1.1,56,0,57.1,0,58.5S1.1,61,2.5,61h8.2 M27.7,61h36.8l0,0c1.4,0,2.5-1.1,2.5-2.5
			S65.9,56,64.5,56H27.6"/>
		<path class="st0" d="M19,47c-6.2,0-11.2,5-11.2,11.2s5,11.2,11.2,11.2s11.2-5,11.2-11.2S25.2,47,19,47z M19,64.5
			c-3.4,0-6.2-2.8-6.2-6.2S15.5,52,19,52s6.2,2.8,6.2,6.2S22.4,64.5,19,64.5z"/>
		<path class="st0" d="M10.4,9H2.5C1.1,9,0,10.1,0,11.5S1.1,14,2.5,14h8.2 M27.7,14h36.8l0,0c1.4,0,2.5-1.1,2.5-2.5S65.9,9,64.5,9
			H27.6"/>
		<path class="st0" d="M19,0C12.8,0,7.8,5,7.8,11.2s5,11.2,11.2,11.2s11.2-5,11.2-11.2S25.2,0,19,0z M19,17.5
			c-3.4,0-6.2-2.8-6.2-6.2S15.5,5,19,5s6.2,2.8,6.2,6.2S22.4,17.5,19,17.5z"/>
		<path class="st0" d="M56.6,37h7.9c1.4,0,2.5-1.1,2.5-2.5S65.9,32,64.5,32h-8.2 M39.3,32H2.5l0,0C1.1,32,0,33.1,0,34.5
			S1.1,37,2.5,37h36.9"/>
		<path class="st0" d="M48,45.9c6.2,0,11.2-5,11.2-11.2s-5-11.2-11.2-11.2s-11.2,5-11.2,11.2S41.8,45.9,48,45.9z M48,28.5
			c3.4,0,6.2,2.8,6.2,6.2s-2.8,6.2-6.2,6.2s-6.2-2.8-6.2-6.2S44.6,28.5,48,28.5z"/>
	</g>
</g>
</svg>
