<?xml version="1.0" encoding="utf-8"?>
<!-- Generator: Adobe Illustrator 20.1.0, SVG Export Plug-In . SVG Version: 6.00 Build 0)  -->
<svg version="1.1" id="Layer_1" xmlns="http://www.w3.org/2000/svg" xmlns:xlink="http://www.w3.org/1999/xlink" x="0px" y="0px"
	 viewBox="0 0 265.5 50.2" style="enable-background:new 0 0 265.5 50.2;" xml:space="preserve">
<style type="text/css">
	.st0{fill-rule:evenodd;clip-rule:evenodd;fill:#FFFFFF;}
</style>
<path class="st0" d="M69.5,26.6c-0.2,0.8-0.1,1-0.1,1.1c0.2,0.4,1,0.4,1.4,0.4h6.3c0.7,0,1.4,0,2.2-0.5c0.8-0.6,1-1.7,1.1-2.2
	c0.2-0.7,0.3-1.5-0.2-2.1c-0.4-0.5-1.2-0.5-1.9-0.5h-7.9L69.5,26.6L69.5,26.6z M85.7,14.6H73.6c-0.4,0-0.8,0-1.1,0.2
	c-0.4,0.2-0.5,0.7-0.5,1l-0.9,4h9.8c1,0,2.6,0.2,3.3,1.4c0.6,0.9,0.5,2.4,0.1,4.2c-0.6,2.5-1.4,3.7-2.1,4.3
	c-0.5,0.5-1.8,1.3-3.8,1.3H67.3c-1.1,0-1.6-0.4-1.9-0.8c-0.4-0.5-0.3-1.2-0.2-1.8l3.1-13.8c0.1-0.7,0.4-1.5,1.2-2.1
	c0.4-0.3,1.2-0.7,2.3-0.7h14.6L85.7,14.6z"/>
<path class="st0" d="M98.5,30.9l2.5-10.3c0-0.2,0.1-0.4-0.1-0.4c-0.1,0-0.2,0.1-0.5,0.4l-9,9.3C90.6,30.7,90,31,88.9,31
	c-2,0-2-1.3-1.8-2.1l2.9-12.6h3.5l-2.5,10.3c-0.1,0.2-0.1,0.4,0.1,0.4c0.2,0,0.3-0.2,0.5-0.4l9.1-9.5c0.8-0.8,1.6-1,2.3-1
	c0.5,0,2.3,0.1,1.8,2.2L102,30.9H98.5z"/>
<path class="st0" d="M106.1,28.4h7.9c0.6,0,1.2,0,1.7-0.4c0.3-0.2,0.7-0.7,0.9-1.6c0.1-0.5,0.2-1.1-0.3-1.4c-0.4-0.3-1-0.4-1.4-0.4
	h-7.4l0.6-2.5h7.6c0.5,0,1,0,1.5-0.4c0.3-0.2,0.6-0.6,0.8-1.3c0.2-0.7,0-1.1-0.2-1.3c-0.4-0.4-1.1-0.4-1.4-0.4h-7.6l0.6-2.5h8.9
	c1.1,0,2.3,0.1,3,0.9c0.7,0.8,0.6,1.9,0.4,2.8c-0.3,1.3-0.8,2-1.3,2.4c-0.4,0.4-1.1,0.8-2,0.8l0,0.1c0.8,0.1,1.3,0.5,1.6,0.8
	c0.3,0.4,0.5,1.2,0.2,2.5c-0.4,1.7-1.2,2.7-1.9,3.2c-1.1,0.8-2.3,0.8-3.3,0.8h-9.2L106.1,28.4z"/>
<polygon class="st0" points="133.2,30.9 134.7,24.6 127.2,24.6 125.8,30.9 122.3,30.9 125.6,16.4 129.1,16.4 127.7,22.2 135.2,22.2 
	136.5,16.4 140,16.4 136.7,30.9 "/>
<path class="st0" d="M152.5,22.2c0.7,0,0.9-0.5,1-0.8c0.2-0.9-0.1-1.6-0.6-1.9c-0.7-0.6-1.8-0.7-2.8-0.7c-0.9,0-2.3,0-3.5,1
	c-0.9,0.7-1,1.5-1.3,2.5H152.5L152.5,22.2z M145.7,30.9c-1.6,0-3.5-0.1-4.4-1.8c-0.7-1.4-0.4-3.4,0.1-5.3c0.6-2.7,1.2-4.7,3.2-6.1
	c2-1.4,4.7-1.4,6.2-1.4c1.8,0,3.7,0.1,5,0.9c1.6,1.1,1.6,2.9,1.1,4.7c-0.2,0.7-0.4,1.6-1.2,2.2c-0.6,0.4-1.2,0.5-1.8,0.5h-9.1
	c-0.1,0.6-0.3,1.6-0.2,2c0.1,1.6,1.5,1.7,2.8,1.7h7.6l-0.6,2.5H145.7z"/>
<path class="st0" d="M163.7,30.9c-1.2,0-3.2-0.2-4.3-1.8c-1-1.4-0.7-3.2-0.2-5.3c0.4-1.7,1-4.2,3.1-5.9c0.8-0.6,2.3-1.6,5.1-1.6h6.7
	l-0.6,2.5H168c-2.3,0-3.7,1.1-4.4,2.3c-0.4,0.8-0.8,2.3-0.9,2.7c-0.2,0.8-0.4,2.2-0.2,3c0.5,1.4,2.1,1.5,3.6,1.5h5.6l-0.6,2.5H163.7
	z"/>
<polygon class="st0" points="176.4,22.1 186.9,22.1 186.3,24.9 175.7,24.9 "/>
<path class="st0" d="M200.4,29.8c-0.4,0.6-1,1.2-2.3,1.2c-1.2,0-1.6-0.6-1.7-1.2l-1.9-9.4c0-0.1,0-0.3-0.2-0.3
	c-0.2,0-0.2,0.2-0.2,0.2l-2.2,10.5h-3.5l2.8-12.6c0.3-1.4,1.7-2.1,3.2-2.1c1.3,0,2.1,0.4,2.3,1.6l1.9,9.2c0,0.1,0.2,0.6,0.3,0.6
	c0.1,0,0.5-0.4,0.6-0.6l6-9.2c0.8-1.2,1.7-1.6,3-1.6c1.4,0,2.5,0.7,2.2,2.1l-2.9,12.6h-3.5l2.5-10.5c0-0.2-0.1-0.3-0.1-0.3
	c-0.1,0-0.3,0.2-0.3,0.3L200.4,29.8z"/>
<path class="st0" d="M216.4,27.4c0.8,1.1,2.2,1.2,3.5,1.2c1.3,0,2.7-0.1,4-1.2c1.3-1.1,1.6-2.5,1.9-3.7c0.2-1.1,0.7-2.7-0.1-3.8
	c-0.8-1-2.2-1.1-3.5-1.1c-1.1,0-2.8,0.1-4,1.1c-1.2,1-1.6,2.9-1.8,3.8C216,24.9,215.7,26.3,216.4,27.4L216.4,27.4z M228.7,17.8
	c1.4,1.6,1,4.3,0.7,5.8c-0.7,3.1-2,4.9-3.3,5.9c-2,1.4-4.9,1.6-6.7,1.6c-1.9,0-4.6-0.1-6-1.6c-1.5-1.6-1-4.3-0.7-5.8
	c0.4-1.6,1.2-4.4,3.4-5.9c2-1.5,4.8-1.5,6.7-1.5C224.6,16.2,227.3,16.3,228.7,17.8z"/>
<path class="st0" d="M234.7,28.4h8.1l-1.7-9c0-0.1,0-0.4-0.2-0.4c-0.1,0-0.3,0.2-0.4,0.4L234.7,28.4L234.7,28.4z M238.6,17.6
	c0.5-0.8,1.3-1.4,2.9-1.4c1.7,0,2,0.7,2.2,1.4l2.5,10.8h1.4l-0.6,2.5h-17.6l0.6-2.5h1.4L238.6,17.6z"/>
<path class="st0" d="M255.4,24.3c-0.2,0-0.9,0-1.4,0.5c-0.1,0.1-0.5,0.5-0.7,1.6c-0.1,0.4-0.2,1.2,0.1,1.6c0.2,0.2,0.6,0.4,1,0.4
	h4.8c0.2,0,0.5,0,0.8-0.2c0.3-0.2,0.3-0.4,0.4-0.6l0.8-3.3H255.4L255.4,24.3z M262,16.4c1.3,0,2.4,0.4,3,1.1
	c0.5,0.6,0.7,1.8,0.4,3.4l-1.7,7.5c-0.1,0.5-0.4,1.3-1,1.9c-0.7,0.5-1.5,0.6-2.3,0.6h-7.5c-0.9,0-1.9,0-2.7-0.7
	c-1-1-0.7-2.9-0.5-3.9c0.3-1.3,0.7-2.6,2.1-3.5c1.2-0.8,2.2-0.8,3.1-0.8h6.8l0.2-1c0.1-0.4,0.2-0.9-0.1-1.4c-0.3-0.5-1-0.6-1.5-0.6
	h-7.7l0.6-2.5H262z"/>
<polygon class="st0" points="66.5,46.8 68.8,36.8 63.9,36.8 64.1,36 74.7,36 74.6,36.8 69.7,36.8 67.4,46.8 "/>
<path class="st0" d="M73.4,45.4c0.5,0.7,1.6,0.8,2.5,0.8c0.9,0,2-0.1,2.9-0.8c0.9-0.7,1.2-2,1.3-2.6c0.2-0.7,0.5-2-0.1-2.7
	c-0.5-0.7-1.7-0.8-2.6-0.8c-0.8,0-2.1,0.1-2.9,0.8c-0.9,0.7-1.2,2-1.3,2.7C73.2,43.4,72.9,44.6,73.4,45.4L73.4,45.4z M74.2,39.4
	c1-0.8,2.3-0.9,3.5-0.9c1.1,0,2.4,0.1,3.1,0.9c0.8,0.9,0.6,2.3,0.4,3.2c-0.4,1.8-1.2,2.8-1.8,3.3c-1.2,0.9-2.7,0.9-3.5,0.9
	c-0.8,0-2.3,0-3-0.9c-0.4-0.5-0.8-1.5-0.4-3.3C72.6,41.8,73.1,40.3,74.2,39.4z"/>
<path class="st0" d="M86,46.1c0.8,0,1.7-0.3,2.3-0.9c0.5-0.6,0.8-1.4,1.1-2.4c0.3-1.1,0.3-1.7,0.2-2.2c-0.2-0.9-1.1-1.2-1.9-1.2
	h-2.5c-0.1,0-0.2,0.1-0.3,0.1c-0.1,0.1-0.2,0.2-0.2,0.3l-1.4,6.3H86L86,46.1z M82.4,49.4h-0.9l2.2-9.8c0.1-0.4,0.4-0.7,0.6-0.8
	c0.4-0.2,0.8-0.2,1-0.2h2.2c0.6,0,1.7,0.1,2.4,0.9c0.7,0.9,0.5,2,0.2,3c-0.2,1-0.5,2.1-1.4,3c-0.9,1-2,1.2-3.4,1.2H83L82.4,49.4z"/>
<path class="st0" d="M91.3,46.8l1.6-7c0.1-0.2,0.1-0.6,0.3-0.8c0.3-0.3,0.7-0.4,1-0.4h5.6l-0.2,0.7h-5.3c-0.2,0-0.3,0.1-0.4,0.1
	c-0.1,0.1-0.2,0.4-0.2,0.5l-1.6,6.8H91.3z"/>
<path class="st0" d="M100.9,45.4c0.5,0.7,1.6,0.8,2.5,0.8c0.9,0,2-0.1,2.9-0.8c0.9-0.7,1.2-2,1.3-2.6c0.2-0.7,0.5-2-0.1-2.7
	c-0.5-0.7-1.7-0.8-2.6-0.8c-0.8,0-2.1,0.1-2.9,0.8c-0.9,0.7-1.2,2-1.3,2.7C100.6,43.4,100.3,44.6,100.9,45.4L100.9,45.4z
	 M101.7,39.4c1-0.8,2.3-0.9,3.5-0.9c1.1,0,2.4,0.1,3.1,0.9c0.8,0.9,0.6,2.3,0.4,3.2c-0.4,1.8-1.2,2.8-1.8,3.3
	c-1.2,0.9-2.7,0.9-3.5,0.9c-0.8,0-2.3,0-3-0.9c-0.4-0.5-0.8-1.5-0.4-3.3C100.1,41.8,100.5,40.3,101.7,39.4z"/>
<path class="st0" d="M115.4,42.2c0.4,0,0.7,0,1-0.3c0.4-0.3,0.5-0.7,0.6-1.1c0.1-0.3,0.2-0.8-0.1-1.1c-0.2-0.3-0.6-0.3-0.9-0.3h-3.5
	c-0.1,0-0.2,0-0.3,0.1c-0.1,0-0.1,0.2-0.1,0.2l-0.6,2.5H115.4L115.4,42.2z M110.8,45.6c0,0.1-0.1,0.3,0,0.4c0.1,0.1,0.2,0.1,0.4,0.1
	h3.1c0.5,0,0.9,0,1.2-0.4c0.4-0.4,0.5-0.8,0.6-1.3c0.1-0.4,0.2-0.8,0-1.2c-0.2-0.3-0.5-0.4-0.9-0.4h-3.9L110.8,45.6L110.8,45.6z
	 M111.3,39.6c0.1-0.3,0.2-0.5,0.4-0.7c0.2-0.2,0.5-0.3,0.8-0.3h3.8c0.4,0,1.1,0,1.5,0.6c0.3,0.4,0.2,1.1,0.1,1.6
	c-0.1,0.4-0.2,0.9-0.6,1.2c-0.2,0.2-0.5,0.4-1,0.5l0,0c0.4,0.1,0.7,0.3,0.8,0.5c0.2,0.4,0.1,0.8,0,1.2c-0.2,0.7-0.4,1.4-1,2
	c-0.5,0.4-1,0.5-1.4,0.5h-4.1c-0.3,0-0.6-0.1-0.7-0.3c-0.2-0.2-0.1-0.5-0.1-0.7L111.3,39.6z"/>
<path class="st0" d="M121.4,42.6c-0.5,0-0.9,0.2-1.1,0.4c-0.3,0.3-0.4,0.7-0.6,1.3c-0.1,0.5-0.2,1.1,0,1.4c0.1,0.2,0.4,0.4,0.8,0.4
	h3.6c0.1,0,0.3,0,0.4-0.1c0.1-0.1,0.2-0.2,0.2-0.3l0.7-3.1H121.4L121.4,42.6z M125.1,38.6c0.6,0,1.1,0.2,1.4,0.6
	c0.4,0.5,0.3,1.1,0.2,1.6l-1.1,4.9c0,0.2-0.2,0.6-0.5,0.8c-0.3,0.2-0.7,0.2-1,0.2h-3.4c-0.5,0-1.1,0-1.5-0.4
	c-0.6-0.6-0.4-1.7-0.3-2.2c0.1-0.7,0.4-1.4,1.2-1.9c0.6-0.4,1.2-0.4,1.7-0.4h3.8l0.3-1.2c0.1-0.3,0-0.7-0.1-1
	c-0.1-0.2-0.4-0.4-0.8-0.4h-4.3l0.2-0.7H125.1z"/>
<path class="st0" d="M131.3,43.9c0.1-0.1,0.2-0.1,0.2-0.2c0-0.1-0.1-0.1-0.1-0.1h-0.9c-0.6,0-1.2-0.1-1.5-0.7
	c-0.3-0.6-0.2-1.3,0-1.8c0.1-0.6,0.4-1.4,1-1.9c0.4-0.3,1-0.5,1.6-0.5h3.7c0.3,0,0.7,0,1,0.2c0.2,0.3,0.1,0.7,0.1,1l-1.6,6.9h-0.9
	l1.6-6.8c0-0.1,0.1-0.3,0-0.5c-0.1-0.1-0.3-0.1-0.5-0.1h-3.5c-0.3,0-0.6,0.1-0.9,0.4c-0.3,0.3-0.4,0.8-0.5,1.2
	c-0.2,0.7-0.2,1.1-0.1,1.3c0.2,0.4,0.5,0.5,0.9,0.5h1.6c0.3,0,0.7,0,0.6,0.5c0,0.2-0.1,0.4-0.3,0.5l-4,2.9h-1.2L131.3,43.9z"/>
<path class="st0" d="M147,46.8l-3-3.2c-0.4-0.4-0.4-0.7-0.3-1c0.1-0.4,0.6-0.8,0.9-1.1l4-2.9h1.2l-4.7,3.4c-0.1,0.1-0.4,0.3-0.5,0.5
	c0,0.1,0.1,0.4,0.2,0.4l3.5,3.8H147L147,46.8z M141.5,46.8h0.9l1.8-8.2h-0.9L141.5,46.8z"/>
<path class="st0" d="M151.2,45.4c0.5,0.7,1.6,0.8,2.5,0.8c0.9,0,2-0.1,2.9-0.8c0.9-0.7,1.2-2,1.3-2.6c0.2-0.7,0.5-2-0.1-2.7
	c-0.5-0.7-1.7-0.8-2.6-0.8c-0.8,0-2.1,0.1-2.9,0.8c-0.9,0.7-1.2,2-1.3,2.7C151,43.4,150.7,44.6,151.2,45.4L151.2,45.4z M152,39.4
	c1-0.8,2.3-0.9,3.5-0.9c1.1,0,2.4,0.1,3.1,0.9c0.8,0.9,0.6,2.3,0.4,3.2c-0.4,1.8-1.2,2.8-1.8,3.3c-1.2,0.9-2.7,0.9-3.5,0.9
	c-0.8,0-2.3,0-3-0.9c-0.4-0.5-0.8-1.5-0.4-3.3C150.4,41.8,150.9,40.3,152,39.4z"/>
<path class="st0" d="M165.7,46.3c-0.3,0.4-0.7,0.6-0.9,0.6c-0.3,0-0.6-0.2-0.7-0.6l-1.5-6.6c0,0,0-0.1-0.1-0.1
	c-0.1,0-0.1,0.1-0.1,0.1l-1.6,7.2H160l1.7-7.4c0.1-0.5,0.5-0.8,1-0.8c0.5,0,0.6,0.2,0.7,0.6l1.5,6.6c0,0.2,0.1,0.3,0.1,0.3
	c0,0,0.1-0.1,0.2-0.3l4.4-6.6c0.3-0.4,0.5-0.6,1-0.6c0.5,0,0.8,0.3,0.6,0.8l-1.7,7.4h-0.9l1.6-7.2c0,0,0-0.1,0-0.1
	c0,0-0.1,0.1-0.1,0.1L165.7,46.3z"/>
<path class="st0" d="M179.6,38.6c0.5,0,0.7,0.2,0.8,0.4c0.1,0.2,0.1,0.6,0,0.8l-1.6,7H178l1.6-7c0-0.1,0.1-0.3,0-0.4
	c0,0-0.2-0.1-0.3-0.1h-4.5c-0.1,0-0.2,0-0.3,0.1c-0.1,0.1-0.1,0.2-0.2,0.4l-1.6,7h-0.9l1.6-7c0.1-0.3,0.2-0.6,0.4-0.8
	c0.1-0.1,0.4-0.4,1-0.4H179.6z"/>
<path class="st0" d="M184,42.6c-0.5,0-0.9,0.2-1.1,0.4c-0.3,0.3-0.4,0.7-0.6,1.3c-0.1,0.5-0.2,1.1,0,1.4c0.1,0.2,0.4,0.4,0.8,0.4
	h3.6c0.1,0,0.3,0,0.4-0.1c0.1-0.1,0.2-0.2,0.2-0.3l0.7-3.1H184L184,42.6z M187.7,38.6c0.6,0,1.1,0.2,1.4,0.6
	c0.4,0.5,0.3,1.1,0.2,1.6l-1.1,4.9c0,0.2-0.2,0.6-0.5,0.8c-0.3,0.2-0.7,0.2-1,0.2h-3.4c-0.5,0-1.1,0-1.5-0.4
	c-0.6-0.6-0.4-1.7-0.3-2.2c0.2-0.7,0.4-1.4,1.2-1.9c0.6-0.4,1.2-0.4,1.7-0.4h3.8l0.3-1.2c0.1-0.3,0-0.7-0.1-1
	c-0.1-0.2-0.4-0.4-0.8-0.4h-4.3l0.2-0.7H187.7z"/>
<polygon class="st0" points="196.4,46.8 197.3,43 192,43 191.1,46.8 190.2,46.8 192.1,38.6 193,38.6 192.1,42.2 197.4,42.2 
	198.2,38.6 199.1,38.6 197.3,46.8 "/>
<path class="st0" d="M206.1,46.8l1.6-7.1c0-0.1,0.1-0.2,0-0.2c0,0-0.1,0-0.2,0.2l-6,6.6c-0.4,0.4-0.6,0.6-1.1,0.6
	c-0.5,0-0.7-0.3-0.6-0.8l1.7-7.4h0.9l-1.6,7.1c0,0.1,0,0.2,0.1,0.2c0.1,0,0.1-0.1,0.2-0.2L207,39c0.3-0.3,0.6-0.5,1-0.5
	c0.7,0,0.6,0.7,0.6,0.9l-1.7,7.3H206.1z"/>
<path class="st0" d="M212.9,43.9c0.1-0.1,0.2-0.1,0.2-0.2c0-0.1-0.1-0.1-0.1-0.1h-0.9c-0.6,0-1.2-0.1-1.5-0.7
	c-0.3-0.6-0.2-1.3,0-1.8c0.1-0.6,0.4-1.4,1-1.9c0.4-0.3,1-0.5,1.6-0.5h3.7c0.3,0,0.7,0,1,0.2c0.2,0.3,0.1,0.7,0.1,1l-1.6,6.9h-0.9
	l1.6-6.8c0-0.1,0.1-0.3,0-0.5c-0.1-0.1-0.3-0.1-0.5-0.1h-3.5c-0.3,0-0.6,0.1-0.9,0.4c-0.3,0.3-0.4,0.8-0.5,1.2
	c-0.2,0.7-0.2,1.1-0.1,1.3c0.2,0.4,0.5,0.5,0.9,0.5h1.6c0.3,0,0.7,0,0.6,0.5c0,0.2-0.1,0.4-0.3,0.5l-4,2.9h-1.2L212.9,43.9z"/>
<path class="st0" d="M24,28.5c0,0,2.1-0.3,3.5-0.9c1.4-0.7,3-2.4,3-2.4l1.8-1.7c0,0,0.8-0.9,2-1.6c0.1,0,0.2-0.1,0.2-0.1l-2.2,4
	c-0.8,0.6-1.5,1.3-1.5,1.3l-1.3,1.3c0,0-1.3,1.4-2.5,2c-1.2,0.6-2.7,0.9-2.7,0.9l-8.1,1.4l1.4-2.5c0,0,0.1-0.2,0.2-0.4L24,28.5
	L24,28.5z M53.6,5.3C47-3.2,30.2-1.2,16.2,9.7c-5.3,4.2-9.5,9-12.3,13.9l2.9-0.5l0,0l1.7-0.3l0.8-0.1l6.5-1.1l-1.6,2.8h0L13,26.5h0
	l-4.8,8.7l0,0L5.7,40L19,37.8c0,0,2.1-0.3,3.5-0.9c1.4-0.7,3-2.4,3-2.4l1.8-1.7c0,0,0.8-0.9,2-1.6c1.1-0.7,2.9-1,2.9-1l4.2-0.7
	l0.5-0.9l3.7-6.7c0,0,0.5-0.8,0.9-1.8l3-5.6l-3.6,0.6c0,0-1.9,0.3-2.8,0.8c-0.9,0.5-2.2,1.8-2.2,1.8l-1.3,1.3c0,0-1.3,1.4-2.5,2
	c-1.2,0.6-2.7,0.9-2.7,0.9l-8,1.4l1.4-2.4c0,0,0.1-0.2,0.3-0.5l6.1-1.1c0,0,2.2-0.3,3.5-0.9c1.4-0.7,3-2.4,3-2.4l1.8-1.7
	c0,0,0.8-0.9,2-1.6c1.1-0.7,2.9-1,2.9-1l4.3-0.7l3-5.6l-3.7,0.6c0,0-1.9,0.3-2.8,0.8c-0.9,0.5-2.2,1.8-2.2,1.8l-1.3,1.3
	c0,0-1.3,1.4-2.5,2c-1.2,0.6-2.7,0.9-2.7,0.9L14.8,16c1.2-1.1,2.4-2.2,3.7-3.2c13.2-10.3,27.9-13.4,32.9-7c5,6.4-1.6,19.9-14.8,30.2
	C23.5,46.3,8.8,49.4,3.8,43c-2.9-3.7-1.9-9.8,2.1-16.3L2,27.3C-0.8,34-0.8,40.5,2.7,44.9c6.6,8.5,23.4,6.5,37.4-4.5
	C54.2,29.5,60.2,13.8,53.6,5.3z"/>
</svg>
