<?xml version="1.0" encoding="utf-8"?>
<!-- Generator: Adobe Illustrator 20.1.0, SVG Export Plug-In . SVG Version: 6.00 Build 0)  -->
<svg version="1.1"
	 id="Слой_1" xmlns:cc="http://creativecommons.org/ns#" xmlns:dc="http://purl.org/dc/elements/1.1/" xmlns:inkscape="http://www.inkscape.org/namespaces/inkscape" xmlns:rdf="http://www.w3.org/1999/02/22-rdf-syntax-ns#" xmlns:sodipodi="http://sodipodi.sourceforge.net/DTD/sodipodi-0.dtd" xmlns:svg="http://www.w3.org/2000/svg"
	 xmlns="http://www.w3.org/2000/svg" xmlns:xlink="http://www.w3.org/1999/xlink" x="0px" y="0px" viewBox="0 0 100 76"
	 style="enable-background:new 0 0 100 76;" xml:space="preserve">
<style type="text/css">
	.st0{fill:#FFFFFF;}
</style>
<g transform="translate(0,-952.36218)">
	<path class="st0" d="M35.2,952.4C25.1,962.5,14.7,972.9,6,981.5c0,16.3,0,32.9,0,46.8c30.9,0,61.3,0,88,0c0-26.7,0-52.9,0-76
		C73.4,952.4,52.9,952.4,35.2,952.4z M38,956.4h52v68H10v-38c9.3,0,18.7,0,28,0C38,976.4,38,966.4,38,956.4z M50,960.3v4h34v-4H50z
		 M50,968.3v4h34v-4H50z M50,976.3v4h34v-4H50z M50,984.3v4h34v-4H50z M12,992.3v4h34v-4H12z M53,992.3c-1.1,0-2,1-2,2v23.9
		c0,1.1,0.9,2,2,2H81c1,0,2-1,2-2v-23.9c0-1.1-0.9-2-2-2H53z M55,996.3h24v20H55V996.3z M12,1000.3v4h34v-4H12z M12,1008.3v4h34v-4
		L12,1008.3z M12,1016.3v4h34v-4H12z"/>
</g>
</svg>
