<?xml version="1.0" encoding="utf-8"?>
<!-- Generator: Adobe Illustrator 20.1.0, SVG Export Plug-In . SVG Version: 6.00 Build 0)  -->
<svg version="1.1" id="Слой_1" xmlns="http://www.w3.org/2000/svg" xmlns:xlink="http://www.w3.org/1999/xlink" x="0px" y="0px"
	 viewBox="0 0 100 86.3" style="enable-background:new 0 0 100 86.3;" xml:space="preserve">
<style type="text/css">
	.st0{fill:#FFFFFF;}
</style>
<g>
	<path class="st0" d="M50,0L10.7,24.3V62L50,86.3L89.3,62V24.3L50,0z M84.1,25.3L71.6,33L37.4,12L50,4.2L84.1,25.3z M50,46.4
		L15.9,25.3l14.8-9.2l34.1,21.1L50,46.4z M14.3,28.5l33.9,21V81L14.3,60C14.3,60,14.3,28.5,14.3,28.5z M51.8,81V49.5l14.3-8.8v9.6
		l7.1-5.4v-8.7l12.5-7.7V60L51.8,81z"/>
</g>
</svg>
