<svg id="SvgjsSvg1082" xmlns="http://www.w3.org/2000/svg" version="1.1" xmlns:xlink="http://www.w3.org/1999/xlink" xmlns:svgjs="http://svgjs.com/svgjs" width="38" height="38" viewBox="0 0 38 38"><title>Эллипс 5 копия 9</title><desc>Created with Avocode.</desc><defs id="SvgjsDefs1083"><clipPath id="SvgjsClipPath1087"><path id="SvgjsPath1086" d="M346 726C356.493 726 365 734.507 365 745C365 755.493 356.493 764 346 764C335.507 764 327 755.493 327 745C327 734.507 335.507 726 346 726Z " fill="#ffffff"></path></clipPath></defs><path id="SvgjsPath1084" d="M346 726C356.493 726 365 734.507 365 745C365 755.493 356.493 764 346 764C335.507 764 327 755.493 327 745C327 734.507 335.507 726 346 726Z " fill="#fd3b82" fill-opacity="1" transform="matrix(1,0,0,1,-327,-726)"></path><path id="SvgjsPath1085" d="M346 726C356.493 726 365 734.507 365 745C365 755.493 356.493 764 346 764C335.507 764 327 755.493 327 745C327 734.507 335.507 726 346 726Z " fill-opacity="0" fill="#ffffff" stroke-dasharray="0" stroke-linejoin="miter" stroke-linecap="butt" stroke-opacity="1" stroke="#e8e8e8" stroke-miterlimit="50" stroke-width="0" clip-path="url(&quot;#SvgjsClipPath1087&quot;)" transform="matrix(1,0,0,1,-327,-726)"></path></svg>
