<svg id="SvgjsSvg1028" xmlns="http://www.w3.org/2000/svg" version="1.1" xmlns:xlink="http://www.w3.org/1999/xlink" xmlns:svgjs="http://svgjs.com/svgjs" width="38" height="38" viewBox="0 0 38 38"><title>Эллипс 5</title><desc>Created with Avocode.</desc><defs id="SvgjsDefs1029"><clipPath id="SvgjsClipPath1033"><path id="SvgjsPath1032" d="M154 678C164.493 678 173 686.506 173 697C173 707.493 164.493 716 154 716C143.507 716 135 707.493 135 697C135 686.506 143.507 678 154 678Z " fill="#ffffff"></path></clipPath></defs><path id="SvgjsPath1030" d="M154 678C164.493 678 173 686.506 173 697C173 707.493 164.493 716 154 716C143.507 716 135 707.493 135 697C135 686.506 143.507 678 154 678Z " fill="#d9ba8c" fill-opacity="1" transform="matrix(1,0,0,1,-135,-678)"></path><path id="SvgjsPath1031" d="M154 678C164.493 678 173 686.506 173 697C173 707.493 164.493 716 154 716C143.507 716 135 707.493 135 697C135 686.506 143.507 678 154 678Z " fill-opacity="0" fill="#ffffff" stroke-dasharray="0" stroke-linejoin="miter" stroke-linecap="butt" stroke-opacity="1" stroke="#e8e8e8" stroke-miterlimit="50" stroke-width="0" clip-path="url(&quot;#SvgjsClipPath1033&quot;)" transform="matrix(1,0,0,1,-135,-678)"></path></svg>
