<svg id="SvgjsSvg1034" xmlns="http://www.w3.org/2000/svg" version="1.1" xmlns:xlink="http://www.w3.org/1999/xlink" xmlns:svgjs="http://svgjs.com/svgjs" width="38" height="38" viewBox="0 0 38 38"><title>Эллипс 5 копия</title><desc>Created with Avocode.</desc><defs id="SvgjsDefs1035"><clipPath id="SvgjsClipPath1039"><path id="SvgjsPath1038" d="M202 678C212.493 678 221 686.506 221 697C221 707.493 212.493 716 202 716C191.507 716 183 707.493 183 697C183 686.506 191.507 678 202 678Z " fill="#ffffff"></path></clipPath></defs><path id="SvgjsPath1036" d="M202 678C212.493 678 221 686.506 221 697C221 707.493 212.493 716 202 716C191.507 716 183 707.493 183 697C183 686.506 191.507 678 202 678Z " fill="#781331" fill-opacity="1" transform="matrix(1,0,0,1,-183,-678)"></path><path id="SvgjsPath1037" d="M202 678C212.493 678 221 686.506 221 697C221 707.493 212.493 716 202 716C191.507 716 183 707.493 183 697C183 686.506 191.507 678 202 678Z " fill-opacity="0" fill="#ffffff" stroke-dasharray="0" stroke-linejoin="miter" stroke-linecap="butt" stroke-opacity="1" stroke="#e8e8e8" stroke-miterlimit="50" stroke-width="0" clip-path="url(&quot;#SvgjsClipPath1039&quot;)" transform="matrix(1,0,0,1,-183,-678)"></path></svg>
