<svg id="SvgjsSvg1040" xmlns="http://www.w3.org/2000/svg" version="1.1" xmlns:xlink="http://www.w3.org/1999/xlink" xmlns:svgjs="http://svgjs.com/svgjs" width="38" height="38" viewBox="0 0 38 38"><title>Эллипс 5 копия 2</title><desc>Created with Avocode.</desc><defs id="SvgjsDefs1041"><clipPath id="SvgjsClipPath1045"><path id="SvgjsPath1044" d="M250 678C260.493 678 269 686.506 269 697C269 707.493 260.493 716 250 716C239.507 716 231 707.493 231 697C231 686.506 239.507 678 250 678Z " fill="#ffffff"></path></clipPath></defs><path id="SvgjsPath1042" d="M250 678C260.493 678 269 686.506 269 697C269 707.493 260.493 716 250 716C239.507 716 231 707.493 231 697C231 686.506 239.507 678 250 678Z " fill="#9ea0a0" fill-opacity="1" transform="matrix(1,0,0,1,-231,-678)"></path><path id="SvgjsPath1043" d="M250 678C260.493 678 269 686.506 269 697C269 707.493 260.493 716 250 716C239.507 716 231 707.493 231 697C231 686.506 239.507 678 250 678Z " fill-opacity="0" fill="#ffffff" stroke-dasharray="0" stroke-linejoin="miter" stroke-linecap="butt" stroke-opacity="1" stroke="#e8e8e8" stroke-miterlimit="50" stroke-width="0" clip-path="url(&quot;#SvgjsClipPath1045&quot;)" transform="matrix(1,0,0,1,-231,-678)"></path></svg>
