<svg id="SvgjsSvg1046" xmlns="http://www.w3.org/2000/svg" version="1.1" xmlns:xlink="http://www.w3.org/1999/xlink" xmlns:svgjs="http://svgjs.com/svgjs" width="38" height="38" viewBox="0 0 38 38"><title>Эллипс 5 копия 3</title><desc>Created with Avocode.</desc><defs id="SvgjsDefs1047"><clipPath id="SvgjsClipPath1051"><path id="SvgjsPath1050" d="M298 678C308.493 678 317 686.506 317 697C317 707.493 308.493 716 298 716C287.507 716 279 707.493 279 697C279 686.506 287.507 678 298 678Z " fill="#ffffff"></path></clipPath></defs><path id="SvgjsPath1048" d="M298 678C308.493 678 317 686.506 317 697C317 707.493 308.493 716 298 716C287.507 716 279 707.493 279 697C279 686.506 287.507 678 298 678Z " fill="#000000" fill-opacity="1" transform="matrix(1,0,0,1,-279,-678)"></path><path id="SvgjsPath1049" d="M298 678C308.493 678 317 686.506 317 697C317 707.493 308.493 716 298 716C287.507 716 279 707.493 279 697C279 686.506 287.507 678 298 678Z " fill-opacity="0" fill="#ffffff" stroke-dasharray="0" stroke-linejoin="miter" stroke-linecap="butt" stroke-opacity="1" stroke="#e8e8e8" stroke-miterlimit="50" stroke-width="0" clip-path="url(&quot;#SvgjsClipPath1051&quot;)" transform="matrix(1,0,0,1,-279,-678)"></path></svg>
