<svg id="SvgjsSvg1052" xmlns="http://www.w3.org/2000/svg" version="1.1" xmlns:xlink="http://www.w3.org/1999/xlink" xmlns:svgjs="http://svgjs.com/svgjs" width="38" height="38" viewBox="0 0 38 38"><title>Эллипс 5 копия 4</title><desc>Created with Avocode.</desc><defs id="SvgjsDefs1053"><clipPath id="SvgjsClipPath1057"><path id="SvgjsPath1056" d="M346 678C356.493 678 365 686.506 365 697C365 707.493 356.493 716 346 716C335.507 716 327 707.493 327 697C327 686.506 335.507 678 346 678Z " fill="#ffffff"></path></clipPath></defs><path id="SvgjsPath1054" d="M346 678C356.493 678 365 686.506 365 697C365 707.493 356.493 716 346 716C335.507 716 327 707.493 327 697C327 686.506 335.507 678 346 678Z " fill="#1d35e2" fill-opacity="1" transform="matrix(1,0,0,1,-327,-678)"></path><path id="SvgjsPath1055" d="M346 678C356.493 678 365 686.506 365 697C365 707.493 356.493 716 346 716C335.507 716 327 707.493 327 697C327 686.506 335.507 678 346 678Z " fill-opacity="0" fill="#ffffff" stroke-dasharray="0" stroke-linejoin="miter" stroke-linecap="butt" stroke-opacity="1" stroke="#e8e8e8" stroke-miterlimit="50" stroke-width="0" clip-path="url(&quot;#SvgjsClipPath1057&quot;)" transform="matrix(1,0,0,1,-327,-678)"></path></svg>
