<svg id="SvgjsSvg1058" xmlns="http://www.w3.org/2000/svg" version="1.1" xmlns:xlink="http://www.w3.org/1999/xlink" xmlns:svgjs="http://svgjs.com/svgjs" width="38" height="38" viewBox="0 0 38 38"><title>Эллипс 5 копия 5</title><desc>Created with Avocode.</desc><defs id="SvgjsDefs1059"><clipPath id="SvgjsClipPath1063"><path id="SvgjsPath1062" d="M154 726C164.493 726 173 734.507 173 745C173 755.493 164.493 764 154 764C143.507 764 135 755.493 135 745C135 734.507 143.507 726 154 726Z " fill="#ffffff"></path></clipPath></defs><path id="SvgjsPath1060" d="M154 726C164.493 726 173 734.507 173 745C173 755.493 164.493 764 154 764C143.507 764 135 755.493 135 745C135 734.507 143.507 726 154 726Z " fill="#550e9c" fill-opacity="1" transform="matrix(1,0,0,1,-135,-726)"></path><path id="SvgjsPath1061" d="M154 726C164.493 726 173 734.507 173 745C173 755.493 164.493 764 154 764C143.507 764 135 755.493 135 745C135 734.507 143.507 726 154 726Z " fill-opacity="0" fill="#ffffff" stroke-dasharray="0" stroke-linejoin="miter" stroke-linecap="butt" stroke-opacity="1" stroke="#e8e8e8" stroke-miterlimit="50" stroke-width="0" clip-path="url(&quot;#SvgjsClipPath1063&quot;)" transform="matrix(1,0,0,1,-135,-726)"></path></svg>
