<svg id="SvgjsSvg1064" xmlns="http://www.w3.org/2000/svg" version="1.1" xmlns:xlink="http://www.w3.org/1999/xlink" xmlns:svgjs="http://svgjs.com/svgjs" width="38" height="38" viewBox="0 0 38 38"><title>Эллипс 5 копия 6</title><desc>Created with Avocode.</desc><defs id="SvgjsDefs1065"><clipPath id="SvgjsClipPath1069"><path id="SvgjsPath1068" d="M202 726C212.493 726 221 734.507 221 745C221 755.493 212.493 764 202 764C191.507 764 183 755.493 183 745C183 734.507 191.507 726 202 726Z " fill="#ffffff"></path></clipPath></defs><path id="SvgjsPath1066" d="M202 726C212.493 726 221 734.507 221 745C221 755.493 212.493 764 202 764C191.507 764 183 755.493 183 745C183 734.507 191.507 726 202 726Z " fill="#ddd1c1" fill-opacity="1" transform="matrix(1,0,0,1,-183,-726)"></path><path id="SvgjsPath1067" d="M202 726C212.493 726 221 734.507 221 745C221 755.493 212.493 764 202 764C191.507 764 183 755.493 183 745C183 734.507 191.507 726 202 726Z " fill-opacity="0" fill="#ffffff" stroke-dasharray="0" stroke-linejoin="miter" stroke-linecap="butt" stroke-opacity="1" stroke="#e8e8e8" stroke-miterlimit="50" stroke-width="0" clip-path="url(&quot;#SvgjsClipPath1069&quot;)" transform="matrix(1,0,0,1,-183,-726)"></path></svg>
