<svg id="SvgjsSvg1070" xmlns="http://www.w3.org/2000/svg" version="1.1" xmlns:xlink="http://www.w3.org/1999/xlink" xmlns:svgjs="http://svgjs.com/svgjs" width="38" height="38" viewBox="0 0 38 38"><title>Эллипс 5 копия 7</title><desc>Created with Avocode.</desc><defs id="SvgjsDefs1071"><clipPath id="SvgjsClipPath1075"><path id="SvgjsPath1074" d="M250 726C260.493 726 269 734.507 269 745C269 755.493 260.493 764 250 764C239.507 764 231 755.493 231 745C231 734.507 239.507 726 250 726Z " fill="#ffffff"></path></clipPath></defs><path id="SvgjsPath1072" d="M250 726C260.493 726 269 734.507 269 745C269 755.493 260.493 764 250 764C239.507 764 231 755.493 231 745C231 734.507 239.507 726 250 726Z " fill="#00b200" fill-opacity="1" transform="matrix(1,0,0,1,-231,-726)"></path><path id="SvgjsPath1073" d="M250 726C260.493 726 269 734.507 269 745C269 755.493 260.493 764 250 764C239.507 764 231 755.493 231 745C231 734.507 239.507 726 250 726Z " fill-opacity="0" fill="#ffffff" stroke-dasharray="0" stroke-linejoin="miter" stroke-linecap="butt" stroke-opacity="1" stroke="#e8e8e8" stroke-miterlimit="50" stroke-width="0" clip-path="url(&quot;#SvgjsClipPath1075&quot;)" transform="matrix(1,0,0,1,-231,-726)"></path></svg>
