<svg id="SvgjsSvg1076" xmlns="http://www.w3.org/2000/svg" version="1.1" xmlns:xlink="http://www.w3.org/1999/xlink" xmlns:svgjs="http://svgjs.com/svgjs" width="38" height="38" viewBox="0 0 38 38"><title>Эллипс 5 копия 8</title><desc>Created with Avocode.</desc><defs id="SvgjsDefs1077"><clipPath id="SvgjsClipPath1081"><path id="SvgjsPath1080" d="M298 726C308.493 726 317 734.507 317 745C317 755.493 308.493 764 298 764C287.507 764 279 755.493 279 745C279 734.507 287.507 726 298 726Z " fill="#ffffff"></path></clipPath></defs><path id="SvgjsPath1078" d="M298 726C308.493 726 317 734.507 317 745C317 755.493 308.493 764 298 764C287.507 764 279 755.493 279 745C279 734.507 287.507 726 298 726Z " fill="#663300" fill-opacity="1" transform="matrix(1,0,0,1,-279,-726)"></path><path id="SvgjsPath1079" d="M298 726C308.493 726 317 734.507 317 745C317 755.493 308.493 764 298 764C287.507 764 279 755.493 279 745C279 734.507 287.507 726 298 726Z " fill-opacity="0" fill="#ffffff" stroke-dasharray="0" stroke-linejoin="miter" stroke-linecap="butt" stroke-opacity="1" stroke="#e8e8e8" stroke-miterlimit="50" stroke-width="0" clip-path="url(&quot;#SvgjsClipPath1081&quot;)" transform="matrix(1,0,0,1,-279,-726)"></path></svg>
