<svg id="SvgjsSvg1000" xmlns="http://www.w3.org/2000/svg" version="1.1" xmlns:xlink="http://www.w3.org/1999/xlink" xmlns:svgjs="http://svgjs.com/svgjs" width="23" height="23" viewBox="-2 -2 23 23"><title>Эллипс 1</title><desc>Created with Avocode.</desc><defs id="SvgjsDefs1001"><clipPath id="SvgjsClipPath1010"><path id="SvgjsPath1009" d="M451 290C456.523 290 461 294.477 461 300C461 305.523 456.523 310 451 310C445.477 310 441 305.523 441 300C441 294.477 445.477 290 451 290Z " fill="#ffffff"></path></clipPath></defs><path id="SvgjsPath1007" d="M451 290C456.523 290 461 294.477 461 300C461 305.523 456.523 310 451 310C445.477 310 441 305.523 441 300C441 294.477 445.477 290 451 290Z " fill="#ffffff" fill-opacity="1" transform="matrix(1,0,0,1,-441,-290)"></path><path id="SvgjsPath1008" d="M451 290C456.523 290 461 294.477 461 300C461 305.523 456.523 310 451 310C445.477 310 441 305.523 441 300C441 294.477 445.477 290 451 290Z " fill-opacity="0" fill="#ffffff" stroke-dasharray="0" stroke-linejoin="round" stroke-linecap="butt" stroke-opacity="1" stroke="#e8e8e8" stroke-miterlimit="50" stroke-width="2" clip-path="url(&quot;#SvgjsClipPath1010&quot;)" transform="matrix(1,0,0,1,-441,-290)"></path><path id="SvgjsPath1011" d="M451 296C453.209 296 455 297.791 455 300C455 302.209 453.209 304 451 304C448.791 304 447 302.209 447 300C447 297.791 448.791 296 451 296Z " fill="#2f95cd" fill-opacity="1" transform="matrix(1,0,0,1,-441,-290)"></path></svg>
