<svg id="SvgjsSvg1012" xmlns="http://www.w3.org/2000/svg" version="1.1" xmlns:xlink="http://www.w3.org/1999/xlink" xmlns:svgjs="http://svgjs.com/svgjs" width="23" height="23" viewBox="-2 -2 23 23"><title>Эллипс 1 копия</title><desc>Created with Avocode.</desc><defs id="SvgjsDefs1013"><clipPath id="SvgjsClipPath1017"><path id="SvgjsPath1016" d="M642 290C647.523 290 652 294.477 652 300C652 305.523 647.523 310 642 310C636.477 310 632 305.523 632 300C632 294.477 636.477 290 642 290Z " fill="#ffffff"></path></clipPath></defs><path id="SvgjsPath1014" d="M642 290C647.523 290 652 294.477 652 300C652 305.523 647.523 310 642 310C636.477 310 632 305.523 632 300C632 294.477 636.477 290 642 290Z " fill="#ffffff" fill-opacity="1" transform="matrix(1,0,0,1,-632,-290)"></path><path id="SvgjsPath1015" d="M642 290C647.523 290 652 294.477 652 300C652 305.523 647.523 310 642 310C636.477 310 632 305.523 632 300C632 294.477 636.477 290 642 290Z " fill-opacity="0" fill="#ffffff" stroke-dasharray="0" stroke-linejoin="round" stroke-linecap="butt" stroke-opacity="1" stroke="#e8e8e8" stroke-miterlimit="50" stroke-width="2" clip-path="url(&quot;#SvgjsClipPath1017&quot;)" transform="matrix(1,0,0,1,-632,-290)"></path></svg>
