<svg id="SvgjsSvg1000" xmlns="http://www.w3.org/2000/svg" version="1.1" xmlns:xlink="http://www.w3.org/1999/xlink" xmlns:svgjs="http://svgjs.com/svgjs" width="26" height="26" viewBox="0 0 26 26"><title>Эллипс 3 копия</title><desc>Created with Avocode.</desc><defs id="SvgjsDefs1001"><filter id="SvgjsFilter1008" width="200%" height="200%" x="-50%" y="-50%"><feMorphology id="SvgjsFeMorphology1009" operator="dilate" radius="0" result="SvgjsFeMorphology1009Out" in="SourceGraphic"></feMorphology><feOffset id="SvgjsFeOffset1010" dx="0" dy="2" result="SvgjsFeOffset1010Out" in="SvgjsFeMorphology1009Out"></feOffset><feGaussianBlur id="SvgjsFeGaussianBlur1011" stdDeviation="2 " result="SvgjsFeGaussianBlur1011Out" in="SvgjsFeOffset1010Out"></feGaussianBlur><feComposite id="SvgjsFeComposite1012" in="SvgjsFeGaussianBlur1011Out" in2="SourceAlpha" operator="out" result="SvgjsFeComposite1012Out"></feComposite></filter></defs><path id="SvgjsPath1007" d="M332 288C336.97 288 341 292.029 341 297C341 301.97 336.97 306 332 306C327.029 306 323 301.97 323 297C323 292.029 327.029 288 332 288Z " fill="#000000" fill-opacity="0.3" filter="url(#SvgjsFilter1008)" transform="matrix(1,0,0,1,-319,-286)"></path><path id="SvgjsPath1013" d="M332 288C336.97 288 341 292.029 341 297C341 301.97 336.97 306 332 306C327.029 306 323 301.97 323 297C323 292.029 327.029 288 332 288Z " fill="#ffffff" fill-opacity="1" transform="matrix(1,0,0,1,-319,-286)"></path><path id="SvgjsPath1014" d="M332 293C334.209 293 336 294.791 336 297C336 299.209 334.209 301 332 301C329.791 301 328 299.209 328 297C328 294.791 329.791 293 332 293Z " fill="#ed1c24" fill-opacity="1" transform="matrix(1,0,0,1,-319,-286)"></path></svg>