<svg width="80" height="80" viewBox="0 0 80 80" fill="none" xmlns="http://www.w3.org/2000/svg">
<path d="M53.9083 10C47.4073 21.4672 44.3889 33.861 44.9694 46.9498C45.0855 49.3822 45.4338 51.8147 45.6659 54.2471C45.8981 57.6062 44.0407 59.4595 40.9063 59.6911C37.6558 59.9228 35.4501 58.0695 35.4501 54.8263C35.334 37.4517 40.4419 21.9305 53.9083 10Z" fill="#006245"/>
<path d="M32.4318 44.5175H29.2974V49.4981H32.4318V44.5175Z" fill="#006245"/>
<path d="M40.558 64.7877V70.0001H12V44.5175H21.4033V49.4981H17.224V64.7877H40.558Z" fill="#006245"/>
<path d="M33.3605 28.6487C29.2974 35.8301 27.44 43.5908 27.7882 51.8147C27.9043 53.3205 28.1365 54.8263 28.2526 56.4479C28.3687 58.5329 27.2078 59.6912 25.2343 59.9228C23.2608 60.0386 21.7516 58.8803 21.7516 56.9112C21.7516 45.7915 24.886 36.1776 33.3605 28.6487Z" fill="#006245"/>
<path d="M51.8187 44.5173H48.6843V49.498H51.8187V44.5173Z" fill="#006245"/>
<path d="M40.558 64.7876V70H68.9999V44.5173H59.7128V49.498H63.7759V64.7876H40.558Z" fill="#006245"/>
<path d="M64.0081 28.6487C59.945 35.8301 58.0876 43.5908 58.4358 51.8147C58.5519 53.3205 58.7841 54.8263 58.9002 56.4479C59.0163 58.5329 57.8554 59.6912 55.8819 59.9228C53.9083 60.0386 52.3992 58.8803 52.3992 56.9112C52.3992 45.7915 55.5336 36.1776 64.0081 28.6487Z" fill="#006245"/>
</svg>
