<svg  viewBox="0 0 62 62" fill="none" xmlns="http://www.w3.org/2000/svg">
<path d="M80.192 22.672C81.12 22.544 81.7813 21.888 82.176 20.704C82.5707 19.52 82.768 17.744 82.768 15.376V12.704H89.36V24H87.776V14.08H84.272V15.392C84.272 18.2507 83.9627 20.4 83.344 21.84C82.736 23.28 81.6853 24.0427 80.192 24.128V22.672ZM92.3318 24V12.704H98.9078V14.08H93.9158V17.616H97.9638V18.992H93.9158V22.624H99.1798V24H92.3318ZM101.363 24V12.704H102.947V17.456H104.627L107.491 12.704H109.235L105.939 18.064V18.096L109.443 24H107.635L104.627 18.832H102.947V24H101.363ZM109.943 24L113.991 12.704H115.671L119.719 24H118.087L116.951 20.752H112.695L111.559 24H109.943ZM113.111 19.44H116.535L115.287 15.872L114.839 14.256H114.807C114.647 14.9387 114.503 15.4773 114.375 15.872L113.111 19.44ZM121.441 24V12.704H125.585C126.63 12.704 127.478 13.0293 128.129 13.68C128.79 14.32 129.121 15.1733 129.121 16.24C129.121 17.3067 128.79 18.1707 128.129 18.832C127.468 19.4933 126.62 19.824 125.585 19.824H123.025V24H121.441ZM123.025 18.448H125.329C126.001 18.448 126.534 18.2507 126.929 17.856C127.324 17.4613 127.521 16.9227 127.521 16.24C127.521 15.568 127.324 15.04 126.929 14.656C126.545 14.272 126.017 14.08 125.345 14.08H123.025V18.448ZM130.409 18.288C130.409 16.6347 130.948 15.2587 132.025 14.16C133.113 13.0613 134.489 12.512 136.153 12.512C137.871 12.512 139.247 13.008 140.281 14L139.481 15.184C139.065 14.8107 138.559 14.512 137.961 14.288C137.375 14.064 136.793 13.952 136.217 13.952C134.937 13.952 133.919 14.3627 133.161 15.184C132.415 16.0053 132.041 17.0347 132.041 18.272C132.041 19.52 132.425 20.576 133.193 21.44C133.961 22.304 134.98 22.736 136.249 22.736C136.879 22.736 137.497 22.608 138.105 22.352C138.724 22.0853 139.263 21.7227 139.721 21.264L140.569 22.4C139.375 23.5947 137.919 24.192 136.201 24.192C134.484 24.192 133.087 23.632 132.009 22.512C130.943 21.3813 130.409 19.9733 130.409 18.288ZM145.206 24V14.08H141.318V12.704H150.662V14.08H146.774V24H145.206ZM152.41 24V12.704H156.362C157.343 12.704 158.133 12.96 158.73 13.472C159.338 13.984 159.642 14.688 159.642 15.584C159.642 16.128 159.514 16.6133 159.258 17.04C159.013 17.4667 158.671 17.792 158.234 18.016V18.048C158.821 18.2187 159.279 18.5547 159.61 19.056C159.941 19.5573 160.106 20.1333 160.106 20.784C160.106 21.808 159.759 22.6027 159.066 23.168C158.373 23.7227 157.503 24 156.458 24H152.41ZM153.994 17.456H156.362C156.863 17.456 157.263 17.296 157.562 16.976C157.871 16.656 158.026 16.2453 158.026 15.744C158.026 15.2427 157.877 14.8427 157.578 14.544C157.279 14.2347 156.869 14.08 156.346 14.08H153.994V17.456ZM153.994 22.624H156.538C157.135 22.624 157.605 22.448 157.946 22.096C158.298 21.744 158.474 21.2747 158.474 20.688C158.474 20.112 158.298 19.648 157.946 19.296C157.594 18.944 157.125 18.768 156.538 18.768H153.994V22.624ZM162.394 24V12.704H168.97V14.08H163.978V17.616H168.026V18.992H163.978V22.624H169.242V24H162.394ZM171.426 24V12.704H173.01V17.664H178.882V12.704H180.45V24H178.882V19.04H173.01V24H171.426ZM183.426 24V12.704H185.01V17.664H190.882V12.704H192.45V24H190.882V19.04H185.01V24H183.426ZM204.37 24V12.704H205.938V24H204.37ZM195.426 24V12.704H197.01V16.96H199.33C200.343 16.96 201.17 17.28 201.81 17.92C202.45 18.5493 202.77 19.4133 202.77 20.512C202.77 21.5573 202.455 22.4 201.826 23.04C201.207 23.68 200.402 24 199.41 24H195.426ZM197.01 22.624H199.154C199.783 22.624 200.274 22.4373 200.626 22.064C200.988 21.6907 201.17 21.1733 201.17 20.512C201.17 19.8507 200.983 19.3227 200.61 18.928C200.247 18.5333 199.751 18.336 199.122 18.336H197.01V22.624ZM208.926 24V12.704H215.502V14.08H210.51V17.616H214.558V18.992H210.51V22.624H215.774V24H208.926ZM224.597 24V14.08H220.709V12.704H230.053V14.08H226.165V24H224.597ZM231.801 24V12.704H235.945C236.99 12.704 237.838 13.0293 238.489 13.68C239.15 14.32 239.481 15.1733 239.481 16.24C239.481 17.3067 239.15 18.1707 238.489 18.832C237.827 19.4933 236.979 19.824 235.945 19.824H233.385V24H231.801ZM233.385 18.448H235.689C236.361 18.448 236.894 18.2507 237.289 17.856C237.683 17.4613 237.881 16.9227 237.881 16.24C237.881 15.568 237.683 15.04 237.289 14.656C236.905 14.272 236.377 14.08 235.705 14.08H233.385V18.448ZM239.615 24L243.663 12.704H245.343L249.391 24H247.759L246.623 20.752H242.367L241.231 24H239.615ZM242.783 19.44H246.207L244.959 15.872L244.511 14.256H244.479C244.319 14.9387 244.175 15.4773 244.047 15.872L242.783 19.44ZM251.113 24V12.704H255.065C256.046 12.704 256.836 12.96 257.433 13.472C258.041 13.984 258.345 14.688 258.345 15.584C258.345 16.128 258.217 16.6133 257.961 17.04C257.716 17.4667 257.374 17.792 256.937 18.016V18.048C257.524 18.2187 257.982 18.5547 258.313 19.056C258.644 19.5573 258.809 20.1333 258.809 20.784C258.809 21.808 258.462 22.6027 257.769 23.168C257.076 23.7227 256.206 24 255.161 24H251.113ZM252.697 17.456H255.065C255.566 17.456 255.966 17.296 256.265 16.976C256.574 16.656 256.729 16.2453 256.729 15.744C256.729 15.2427 256.58 14.8427 256.281 14.544C255.982 14.2347 255.572 14.08 255.049 14.08H252.697V17.456ZM252.697 22.624H255.241C255.838 22.624 256.308 22.448 256.649 22.096C257.001 21.744 257.177 21.2747 257.177 20.688C257.177 20.112 257.001 19.648 256.649 19.296C256.297 18.944 255.828 18.768 255.241 18.768H252.697V22.624ZM270.041 24V12.704H271.609V24H270.041ZM261.097 24V12.704H262.681V16.96H265.001C266.015 16.96 266.841 17.28 267.481 17.92C268.121 18.5493 268.441 19.4133 268.441 20.512C268.441 21.5573 268.127 22.4 267.497 23.04C266.879 23.68 266.073 24 265.081 24H261.097ZM262.681 22.624H264.825C265.455 22.624 265.945 22.4373 266.297 22.064C266.66 21.6907 266.841 21.1733 266.841 20.512C266.841 19.8507 266.655 19.3227 266.281 18.928C265.919 18.5333 265.423 18.336 264.793 18.336H262.681V22.624ZM278.597 24V12.704H280.181V20.032L280.085 21.68H280.117C280.491 20.976 280.811 20.4213 281.077 20.016L286.085 12.704H287.637V24H286.069V16.672L286.165 15.024H286.133C285.771 15.7067 285.456 16.256 285.189 16.672L280.149 24H278.597ZM293.941 18.288C293.941 16.6347 294.479 15.2587 295.557 14.16C296.645 13.0613 298.021 12.512 299.685 12.512C301.402 12.512 302.778 13.008 303.813 14L303.013 15.184C302.597 14.8107 302.09 14.512 301.493 14.288C300.906 14.064 300.325 13.952 299.749 13.952C298.469 13.952 297.45 14.3627 296.693 15.184C295.946 16.0053 295.573 17.0347 295.573 18.272C295.573 19.52 295.957 20.576 296.725 21.44C297.493 22.304 298.511 22.736 299.781 22.736C300.41 22.736 301.029 22.608 301.637 22.352C302.255 22.0853 302.794 21.7227 303.253 21.264L304.101 22.4C302.906 23.5947 301.45 24.192 299.733 24.192C298.015 24.192 296.618 23.632 295.541 22.512C294.474 21.3813 293.941 19.9733 293.941 18.288ZM306.097 24V12.704H312.769V14.08H307.681V17.232H310.161C311.175 17.232 312.001 17.536 312.641 18.144C313.281 18.7413 313.601 19.5733 313.601 20.64C313.601 21.6427 313.287 22.4533 312.657 23.072C312.039 23.6907 311.233 24 310.241 24H306.097ZM307.681 22.624H309.985C310.615 22.624 311.105 22.448 311.457 22.096C311.82 21.744 312.001 21.2587 312.001 20.64C312.001 20.0213 311.815 19.5307 311.441 19.168C311.079 18.7947 310.583 18.608 309.953 18.608H307.681V22.624ZM315.081 18.272C315.081 16.6507 315.641 15.2853 316.761 14.176C317.881 13.0667 319.257 12.512 320.889 12.512C322.521 12.512 323.892 13.0667 325.001 14.176C326.121 15.2853 326.681 16.6507 326.681 18.272C326.681 19.936 326.121 21.3387 325.001 22.48C323.892 23.6213 322.521 24.192 320.889 24.192C319.257 24.192 317.881 23.6213 316.761 22.48C315.641 21.3387 315.081 19.936 315.081 18.272ZM316.713 18.272C316.713 19.5307 317.118 20.592 317.929 21.456C318.74 22.3093 319.726 22.736 320.889 22.736C322.052 22.736 323.033 22.3093 323.833 21.456C324.644 20.592 325.049 19.5307 325.049 18.272C325.049 17.056 324.644 16.032 323.833 15.2C323.033 14.368 322.052 13.952 320.889 13.952C319.726 13.952 318.74 14.368 317.929 15.2C317.118 16.032 316.713 17.056 316.713 18.272ZM328.957 24V12.704H333.101C334.146 12.704 334.994 13.0293 335.645 13.68C336.306 14.32 336.637 15.1733 336.637 16.24C336.637 17.3067 336.306 18.1707 335.645 18.832C334.983 19.4933 334.135 19.824 333.101 19.824H330.541V24H328.957ZM330.541 18.448H332.845C333.517 18.448 334.05 18.2507 334.445 17.856C334.839 17.4613 335.037 16.9227 335.037 16.24C335.037 15.568 334.839 15.04 334.445 14.656C334.061 14.272 333.533 14.08 332.861 14.08H330.541V18.448ZM347.557 24V12.704H349.125V24H347.557ZM338.613 24V12.704H340.197V16.96H342.517C343.53 16.96 344.357 17.28 344.997 17.92C345.637 18.5493 345.957 19.4133 345.957 20.512C345.957 21.5573 345.642 22.4 345.013 23.04C344.394 23.68 343.589 24 342.597 24H338.613ZM340.197 22.624H342.341C342.97 22.624 343.461 22.4373 343.813 22.064C344.176 21.6907 344.357 21.1733 344.357 20.512C344.357 19.8507 344.17 19.3227 343.797 18.928C343.434 18.5333 342.938 18.336 342.309 18.336H340.197V22.624ZM80.24 46L84.288 34.704H85.968L90.016 46H88.384L87.248 42.752H82.992L81.856 46H80.24ZM83.408 41.44H86.832L85.584 37.872L85.136 36.256H85.104C84.944 36.9387 84.8 37.4773 84.672 37.872L83.408 41.44ZM90.7528 40.272C90.7528 38.6507 91.3128 37.2853 92.4328 36.176C93.5528 35.0667 94.9288 34.512 96.5608 34.512C98.1928 34.512 99.5634 35.0667 100.673 36.176C101.793 37.2853 102.353 38.6507 102.353 40.272C102.353 41.936 101.793 43.3387 100.673 44.48C99.5634 45.6213 98.1928 46.192 96.5608 46.192C94.9288 46.192 93.5528 45.6213 92.4328 44.48C91.3128 43.3387 90.7528 41.936 90.7528 40.272ZM92.3848 40.272C92.3848 41.5307 92.7901 42.592 93.6008 43.456C94.4114 44.3093 95.3981 44.736 96.5608 44.736C97.7234 44.736 98.7048 44.3093 99.5048 43.456C100.315 42.592 100.721 41.5307 100.721 40.272C100.721 39.056 100.315 38.032 99.5048 37.2C98.7048 36.368 97.7234 35.952 96.5608 35.952C95.3981 35.952 94.4114 36.368 93.6008 37.2C92.7901 38.032 92.3848 39.056 92.3848 40.272ZM111.093 41.488L113.717 38.192H115.269L112.645 41.488L115.269 44.768H113.717L111.093 41.488ZM110.485 44.768L107.861 41.488L110.485 38.192H112.037L109.413 41.488L112.037 44.768H110.485ZM117.597 46V34.704H119.181V39.456H120.861L123.725 34.704H125.469L122.173 40.064V40.096L125.677 46H123.869L120.861 40.832H119.181V46H117.597ZM127.426 46V34.704H131.57C132.615 34.704 133.463 35.0293 134.114 35.68C134.775 36.32 135.106 37.1733 135.106 38.24C135.106 39.3067 134.775 40.1707 134.114 40.832C133.452 41.4933 132.604 41.824 131.57 41.824H129.01V46H127.426ZM129.01 40.448H131.314C131.986 40.448 132.519 40.2507 132.914 39.856C133.308 39.4613 133.506 38.9227 133.506 38.24C133.506 37.568 133.308 37.04 132.914 36.656C132.53 36.272 132.002 36.08 131.33 36.08H129.01V40.448ZM135.24 46L139.288 34.704H140.968L145.016 46H143.384L142.248 42.752H137.992L136.856 46H135.24ZM138.408 41.44H141.832L140.584 37.872L140.136 36.256H140.104C139.944 36.9387 139.8 37.4773 139.672 37.872L138.408 41.44ZM145.769 40.288C145.769 38.6347 146.307 37.2587 147.385 36.16C148.473 35.0613 149.849 34.512 151.513 34.512C153.23 34.512 154.606 35.008 155.641 36L154.841 37.184C154.425 36.8107 153.918 36.512 153.321 36.288C152.734 36.064 152.153 35.952 151.577 35.952C150.297 35.952 149.278 36.3627 148.521 37.184C147.774 38.0053 147.401 39.0347 147.401 40.272C147.401 41.52 147.785 42.576 148.553 43.44C149.321 44.304 150.339 44.736 151.609 44.736C152.238 44.736 152.857 44.608 153.465 44.352C154.083 44.0853 154.622 43.7227 155.081 43.264L155.929 44.4C154.734 45.5947 153.278 46.192 151.561 46.192C149.843 46.192 148.446 45.632 147.369 44.512C146.302 43.3813 145.769 41.9733 145.769 40.288ZM157.926 46V34.704H159.51V39.664H165.382V34.704H166.95V46H165.382V41.04H159.51V46H157.926ZM169.222 40.272C169.222 38.6507 169.782 37.2853 170.902 36.176C172.022 35.0667 173.398 34.512 175.03 34.512C176.662 34.512 178.032 35.0667 179.142 36.176C180.262 37.2853 180.822 38.6507 180.822 40.272C180.822 41.936 180.262 43.3387 179.142 44.48C178.032 45.6213 176.662 46.192 175.03 46.192C173.398 46.192 172.022 45.6213 170.902 44.48C169.782 43.3387 169.222 41.936 169.222 40.272ZM170.854 40.272C170.854 41.5307 171.259 42.592 172.07 43.456C172.88 44.3093 173.867 44.736 175.03 44.736C176.192 44.736 177.174 44.3093 177.974 43.456C178.784 42.592 179.19 41.5307 179.19 40.272C179.19 39.056 178.784 38.032 177.974 37.2C177.174 36.368 176.192 35.952 175.03 35.952C173.867 35.952 172.88 36.368 172.07 37.2C171.259 38.032 170.854 39.056 170.854 40.272ZM183.097 46V34.704H189.321V36.08H184.681V46H183.097ZM189.831 40.272C189.831 38.6507 190.391 37.2853 191.511 36.176C192.631 35.0667 194.007 34.512 195.639 34.512C197.271 34.512 198.642 35.0667 199.751 36.176C200.871 37.2853 201.431 38.6507 201.431 40.272C201.431 41.936 200.871 43.3387 199.751 44.48C198.642 45.6213 197.271 46.192 195.639 46.192C194.007 46.192 192.631 45.6213 191.511 44.48C190.391 43.3387 189.831 41.936 189.831 40.272ZM191.463 40.272C191.463 41.5307 191.868 42.592 192.679 43.456C193.49 44.3093 194.476 44.736 195.639 44.736C196.802 44.736 197.783 44.3093 198.583 43.456C199.394 42.592 199.799 41.5307 199.799 40.272C199.799 39.056 199.394 38.032 198.583 37.2C197.783 36.368 196.802 35.952 195.639 35.952C194.476 35.952 193.49 36.368 192.679 37.2C191.868 38.032 191.463 39.056 191.463 40.272ZM203.707 46V34.704H207.851C208.896 34.704 209.744 35.0293 210.395 35.68C211.056 36.32 211.387 37.1733 211.387 38.24C211.387 39.3067 211.056 40.1707 210.395 40.832C209.733 41.4933 208.885 41.824 207.851 41.824H205.291V46H203.707ZM205.291 40.448H207.595C208.267 40.448 208.8 40.2507 209.195 39.856C209.589 39.4613 209.787 38.9227 209.787 38.24C209.787 37.568 209.589 37.04 209.195 36.656C208.811 36.272 208.283 36.08 207.611 36.08H205.291V40.448ZM212.675 40.288C212.675 38.6347 213.214 37.2587 214.291 36.16C215.379 35.0613 216.755 34.512 218.419 34.512C220.136 34.512 221.512 35.008 222.547 36L221.747 37.184C221.331 36.8107 220.824 36.512 220.227 36.288C219.64 36.064 219.059 35.952 218.483 35.952C217.203 35.952 216.184 36.3627 215.427 37.184C214.68 38.0053 214.307 39.0347 214.307 40.272C214.307 41.52 214.691 42.576 215.459 43.44C216.227 44.304 217.246 44.736 218.515 44.736C219.144 44.736 219.763 44.608 220.371 44.352C220.99 44.0853 221.528 43.7227 221.987 43.264L222.835 44.4C221.64 45.5947 220.184 46.192 218.467 46.192C216.75 46.192 215.352 45.632 214.275 44.512C213.208 43.3813 212.675 41.9733 212.675 40.288ZM224.832 46V34.704H226.416V39.456H228.096L230.96 34.704H232.704L229.408 40.064V40.096L232.912 46H231.104L228.096 40.832H226.416V46H224.832ZM233.364 44.672C234.292 44.544 234.953 43.888 235.348 42.704C235.743 41.52 235.94 39.744 235.94 37.376V34.704H242.532V46H240.948V36.08H237.444V37.392C237.444 40.2507 237.135 42.4 236.516 43.84C235.908 45.28 234.857 46.0427 233.364 46.128V44.672ZM245.504 46V34.704H252.08V36.08H247.088V39.616H251.136V40.992H247.088V44.624H252.352V46H245.504ZM254.535 46V34.704H256.119V39.456H257.799L260.663 34.704H262.407L259.111 40.064V40.096L262.615 46H260.807L257.799 40.832H256.119V46H254.535ZM263.394 40.288C263.394 38.6347 263.932 37.2587 265.01 36.16C266.098 35.0613 267.474 34.512 269.138 34.512C270.855 34.512 272.231 35.008 273.266 36L272.466 37.184C272.05 36.8107 271.543 36.512 270.946 36.288C270.359 36.064 269.778 35.952 269.202 35.952C267.922 35.952 266.903 36.3627 266.146 37.184C265.399 38.0053 265.026 39.0347 265.026 40.272C265.026 41.52 265.41 42.576 266.178 43.44C266.946 44.304 267.964 44.736 269.234 44.736C269.863 44.736 270.482 44.608 271.09 44.352C271.708 44.0853 272.247 43.7227 272.706 43.264L273.554 44.4C272.359 45.5947 270.903 46.192 269.186 46.192C267.468 46.192 266.071 45.632 264.994 44.512C263.927 43.3813 263.394 41.9733 263.394 40.288ZM275.551 46V34.704H279.695C280.74 34.704 281.588 35.0293 282.239 35.68C282.9 36.32 283.231 37.1733 283.231 38.24C283.231 39.3067 282.9 40.1707 282.239 40.832C281.577 41.4933 280.729 41.824 279.695 41.824H277.135V46H275.551ZM277.135 40.448H279.439C280.111 40.448 280.644 40.2507 281.039 39.856C281.433 39.4613 281.631 38.9227 281.631 38.24C281.631 37.568 281.433 37.04 281.039 36.656C280.655 36.272 280.127 36.08 279.455 36.08H277.135V40.448ZM285.207 46V34.704H291.783V36.08H286.791V39.616H290.839V40.992H286.791V44.624H292.055V46H285.207ZM295.646 44.624H300.782V36.08H297.246V37.12C297.246 40.4907 296.713 42.992 295.646 44.624ZM292.846 44.624H293.982C294.686 43.632 295.155 42.5013 295.39 41.232C295.635 39.9627 295.758 38.56 295.758 37.024V34.704H302.366V44.624H303.614V48.24H302.19V46H294.318V48.24H292.846V44.624ZM304.909 40.288C304.909 38.6347 305.448 37.2587 306.525 36.16C307.613 35.0613 308.989 34.512 310.653 34.512C312.371 34.512 313.747 35.008 314.781 36L313.981 37.184C313.565 36.8107 313.059 36.512 312.461 36.288C311.875 36.064 311.293 35.952 310.717 35.952C309.437 35.952 308.419 36.3627 307.661 37.184C306.915 38.0053 306.541 39.0347 306.541 40.272C306.541 41.52 306.925 42.576 307.693 43.44C308.461 44.304 309.48 44.736 310.749 44.736C311.379 44.736 311.997 44.608 312.605 44.352C313.224 44.0853 313.763 43.7227 314.221 43.264L315.069 44.4C313.875 45.5947 312.419 46.192 310.701 46.192C308.984 46.192 307.587 45.632 306.509 44.512C305.443 43.3813 304.909 41.9733 304.909 40.288ZM319.706 46V36.08H315.818V34.704H325.162V36.08H321.274V46H319.706ZM326.91 46V34.704H330.862C331.843 34.704 332.633 34.96 333.23 35.472C333.838 35.984 334.142 36.688 334.142 37.584C334.142 38.128 334.014 38.6133 333.758 39.04C333.513 39.4667 333.171 39.792 332.734 40.016V40.048C333.321 40.2187 333.779 40.5547 334.11 41.056C334.441 41.5573 334.606 42.1333 334.606 42.784C334.606 43.808 334.259 44.6027 333.566 45.168C332.873 45.7227 332.003 46 330.958 46H326.91ZM328.494 39.456H330.862C331.363 39.456 331.763 39.296 332.062 38.976C332.371 38.656 332.526 38.2453 332.526 37.744C332.526 37.2427 332.377 36.8427 332.078 36.544C331.779 36.2347 331.369 36.08 330.846 36.08H328.494V39.456ZM328.494 44.624H331.038C331.635 44.624 332.105 44.448 332.446 44.096C332.798 43.744 332.974 43.2747 332.974 42.688C332.974 42.112 332.798 41.648 332.446 41.296C332.094 40.944 331.625 40.768 331.038 40.768H328.494V44.624ZM335.506 46L339.554 34.704H341.234L345.282 46H343.65L342.514 42.752H338.258L337.122 46H335.506ZM338.674 41.44H342.098L340.85 37.872L340.402 36.256H340.37C340.21 36.9387 340.066 37.4773 339.938 37.872L338.674 41.44ZM349.58 44.768L352.204 41.488L349.58 38.192H351.132L353.756 41.488L351.132 44.768H349.58ZM346.364 44.768L348.988 41.488L346.364 38.192H347.916L350.54 41.488L347.916 44.768H346.364Z" fill="white"/>
<g clip-path="url(#clip0)">
<path d="M29.0443 0.0163791C12.5137 0.538964 -0.510611 14.4137 0.015388 30.9557C0.265044 38.9623 3.63109 46.3947 9.47303 51.8771C15.315 57.3613 22.9484 60.2419 30.9563 59.9845C47.4878 59.4637 60.5147 45.5777 59.9853 29.047C59.7356 21.0369 56.3756 13.6019 50.5319 8.12118C44.69 2.63705 37.0583 -0.245344 29.0443 0.0163791ZM9.7709 51.5612C4.00988 46.1519 0.70065 38.8323 0.448411 30.9402C-0.0698392 14.6462 12.7676 0.966847 29.065 0.445123C36.9567 0.195453 44.4722 3.03566 50.2315 8.43714C55.9951 13.8429 59.3 21.1686 59.5514 29.0573C60.0739 45.3539 47.2365 59.0306 30.94 59.5506C23.0457 59.8029 15.5293 56.9644 9.7709 51.5612Z" fill="white"/>
<path d="M29.0868 1.21992C21.4043 1.46184 14.2676 4.68603 9.00505 10.2993C3.74076 15.9091 0.978189 23.2288 1.22354 30.9108C1.72974 46.7812 15.0476 59.2811 30.9119 58.7757C46.7814 58.2704 59.284 44.9518 58.7718 29.0848C58.2707 13.2179 44.9503 0.713695 29.0868 1.21992ZM2.07667 30.8885C1.84079 23.4285 4.51813 16.3284 9.63177 10.8839C14.7299 5.44021 21.6505 2.31158 29.1144 2.07224C44.5087 1.5841 57.4314 13.712 57.9229 29.1124C58.4128 44.5041 46.2855 57.4318 30.8869 57.9226C15.4918 58.4202 2.56824 46.2802 2.07667 30.8885Z" fill="white"/>
<path d="M29.3846 10.6969C18.7475 11.0404 10.3677 19.9726 10.7 30.6111C11.0469 41.2496 19.9829 49.6334 30.6173 49.2933C41.2613 48.9549 49.6385 40.0211 49.2985 29.3834C48.9601 18.7397 40.0268 10.3654 29.3846 10.6969ZM11.5548 30.581C11.2346 20.4134 19.246 11.8729 29.4138 11.5483C39.5843 11.2298 48.1208 19.2434 48.4453 29.4101C48.5994 34.3372 46.8286 39.0327 43.4626 42.6254C40.0853 46.2215 35.5149 48.2894 30.5881 48.4427C20.4211 48.7621 11.8828 40.7546 11.5548 30.581Z" fill="white"/>
<path d="M43.1593 39.1776L44.4317 39.021L44.0882 38.0524L44.3946 37.6839L43.8368 36.885L44.2974 36.6258L43.5398 35.6418L44.0994 35.4739L43.5691 34.613L43.8704 34.3452L43.0215 33.4611L43.3977 33.1451L42.5868 32.2437L42.8519 31.988L42.0238 31.1452L42.3871 30.9885L41.2042 30.1456L41.7078 29.8615L40.7531 29.3346L40.8599 28.8714L39.7192 28.6502L39.8337 28.1388L39.0494 28.1741C39.0494 28.1741 37.0221 26.856 32.3974 30.8137L34.3206 32.1051L38.5062 30.4538L39.0486 30.2274L39.2784 30.7784L34.9955 32.5554L36.7836 33.746L40.2254 32.3212L40.4535 32.8653L37.3509 34.1601L39.0296 35.2914L41.2989 34.2195L41.3514 34.3048L41.3566 34.3013L41.3747 34.3513L41.5365 34.6371L41.509 34.6474L41.6054 34.8446L39.6787 35.7313L41.8654 37.2121L41.9644 37.281H41.9627L41.9893 37.2922L41.7182 37.7235L41.6794 37.7046L41.6372 37.7717L39.3447 36.2341L39.2543 38.34H39.1803L39.0555 38.3374L38.6629 38.3159L38.7731 35.8458L37.0074 34.6638L36.9876 38.0214L36.3971 38.018L36.4168 34.2669L34.6348 33.0693L34.6107 37.7235H34.5617V37.7588L34.0718 37.7795V37.7235H34.0167L34.0322 34.7086L34.0107 32.6458L31.0544 30.6484L31.5245 30.267C32.2691 29.5748 36.1018 25.9959 36.199 24.8492C36.2705 24.0743 36.1896 24.0468 36.1224 24.1381L36.5081 23.3744L36.2584 23.098L36.5804 21.879L36.113 21.8368L36.0837 20.5428L35.7462 20.7167L35.426 19.3125L35.0326 19.4098L34.615 18.2097L34.3981 18.4464L34.0322 17.4142L33.6379 17.4082L33.136 16.3664L32.759 16.3182L32.2993 15.3919L31.9988 15.688L31.4427 14.7548L31.1422 15.0518L30.3881 13.8189L30.209 14.1693L29.3714 13.2034L28.7541 14.0256L28.2789 13.9808L27.9174 14.883L27.4525 14.6368L27.0444 15.8146L26.6019 15.4401L26.1732 16.3535L25.7832 16.258L25.5155 17.4512L25.048 17.31L24.7364 18.4921L24.3852 18.4051L24.139 19.5596L23.8075 19.3418L23.7576 20.7942L23.2462 20.5385L23.3366 21.619L22.8984 21.7946L23.3469 22.8587L22.8425 23.0464L23.3142 23.6818C23.3142 23.6818 23.3228 26.1027 29.1889 27.7712L29.2328 27.7815V25.3864L25.011 22.5737L25.3364 22.0856L29.2328 24.6753V22.5238L26.0906 20.4404L26.4134 19.9427L29.2328 21.8187V19.6896L27.1064 18.3931L27.4155 17.8851L29.2328 18.9931V16.227H29.8285V18.9837L31.6286 17.886L31.936 18.3939L29.8285 19.6758V21.8006L32.6255 19.9427L32.9561 20.4404L29.8285 22.5126V24.6606L33.7085 22.0865L34.0313 22.5746L29.8285 25.37V28.936L29.2328 28.7699C28.2144 28.4065 23.3409 26.7174 22.2829 27.1625C21.5718 27.4595 21.5787 27.5422 21.6932 27.5646L20.8383 27.5706L20.7083 27.9244L19.4807 28.1999L19.6667 28.6407L18.5295 29.2718L18.8385 29.4879L17.7504 30.4254L18.0198 30.7259L17.1512 31.66L17.4645 31.7409L16.7259 32.5433L16.9007 32.8946L16.2111 33.8227L16.348 34.1791L15.7462 35.0185L16.1405 35.1468L15.5784 36.0749L15.9726 36.1971L15.2366 37.442L15.6395 37.4343L15.1694 38.6292L16.1758 38.7911L16.36 39.2302L17.3242 39.1312L17.3346 39.6624L18.557 39.4704L18.4391 40.0386L19.4489 39.9895L19.5384 40.3778L20.7256 40.0575L20.8194 40.5396L21.9954 40.259L22.0901 40.6145L23.229 40.296L23.1972 40.6877L24.5066 40.0584L24.5083 40.6352L25.4234 40.0506L25.7781 40.3537L26.5176 39.4661L26.911 39.8122L27.2545 39.1053C27.2545 39.1053 29.3912 37.9646 28.1421 32.0052L26.0837 33.0771L25.4509 38.0868L25.4406 38.1411L24.8526 38.0748L25.3631 33.4507L23.4571 34.4477L23.4253 34.7086L23.0456 38.1652L22.4559 38.0989L22.8218 34.7533L21.026 35.6737L20.8779 38.1841H20.7583V38.1927L20.6378 38.1841L20.3993 38.1893V38.1712L20.1729 38.154L20.3141 36.0404L17.8528 37.3146L17.6074 36.866L17.6307 36.8514L17.5859 36.7705L20.0394 35.5041L18.2402 34.4064L18.5449 33.8984L20.6532 35.1915L22.5463 34.2144L19.6099 32.5778L19.9 32.0603L23.1309 33.87L23.1782 33.8881L25.0816 32.9023L21.0148 30.6407L21.0389 30.5942L21.0148 30.5761L21.23 30.1336L21.2731 30.1628L21.3006 30.1181L23.3676 31.2666L25.7721 32.5485L28.9444 30.8998L29.0451 31.5231C29.2552 32.799 30.0868 37.5823 30.9571 38.2771C31.5606 38.7541 31.6312 38.7145 31.5942 38.5982L32.0066 39.3395L32.375 39.2913L33.217 40.2357L33.5045 39.8664L34.6038 40.5534L34.646 40.1832L35.9916 40.6894L36.1319 40.3115L37.3664 40.624L37.2915 40.3115L38.3469 40.5775L38.5734 40.2461L39.7183 40.4114L39.9568 40.1212L40.9873 40.2461L40.9132 39.8406L41.9962 39.8896L41.9119 39.4755L43.3556 39.5289L43.1593 39.1776Z" fill="white"/>
<path d="M10.6936 43.4452L13.03 43.1025L13.6386 43.9359L11.2351 44.1873L9.78361 46.8192L9.17669 45.9935L10.2571 44.2114L9.66051 44.2011L8.48799 45.0534L7.95166 44.3199L11.8334 41.4736L12.3766 42.2054L10.6936 43.4452Z" fill="white"/>
<path d="M14.462 44.7596L15.3324 45.6283L12.6912 49.7926L11.9862 49.0962L12.7196 48.0467L11.9784 47.3166L10.8928 48.0097L10.2007 47.314L14.462 44.7596ZM13.1354 47.4612L14.456 45.6154L12.5638 46.893L13.1354 47.4612Z" fill="white"/>
<path d="M16.6854 46.7891L15.8968 47.8472C15.6308 48.2113 15.6567 48.5583 16.0251 48.8321C16.131 48.9139 16.3281 49.0335 16.4211 49.0697L17.6109 47.4735L18.3366 48.0202L15.4664 51.8892L14.7295 51.3374L15.9984 49.6439C15.7514 49.5329 15.5766 49.4141 15.3364 49.2367C14.7097 48.7709 14.6219 48.0305 15.0928 47.3917L15.9528 46.2476L16.6854 46.7891Z" fill="white"/>
<path d="M20.9939 49.4578L20.6521 50.106L19.1817 49.3286L18.66 50.3153L19.9935 51.0281L19.65 51.6755L18.3165 50.9618L17.6123 52.2773L19.075 53.059L18.7315 53.7065L16.457 52.4943L18.7263 48.2499L20.9939 49.4578Z" fill="white"/>
<path d="M22.6397 51.7516L22.6741 51.6535C22.8807 51.0827 22.8067 50.8356 22.4451 50.7056C22.0758 50.5739 21.8494 50.7082 21.6436 51.2858L20.9928 53.0688C20.7836 53.6551 20.8654 53.9065 21.2278 54.0417C21.5722 54.1639 21.8158 54.0279 22.0216 53.4408L22.1163 53.198L22.9711 53.5114L22.8979 53.7059C22.6035 54.5255 22.0534 55.1222 20.9799 54.7322C19.8513 54.3206 19.8349 53.5114 20.1345 52.7098L20.7294 51.0586C21.1142 49.9988 21.7685 49.6794 22.7025 50.016C23.5841 50.3371 23.8793 51.0035 23.5754 51.8386L23.4962 52.0676L22.6397 51.7516Z" fill="white"/>
<path d="M25.2153 55.7668L24.3243 55.5817L25.1352 51.5792L24.0229 51.3605L24.1676 50.6373L27.2848 51.2675L27.1402 51.9864L26.0305 51.7557L25.2153 55.7668Z" fill="white"/>
<path d="M27.4611 51.278L29.1441 51.364C29.9912 51.4097 30.302 51.9822 30.2744 52.5986C30.2494 53.0575 29.9757 53.556 29.5728 53.6197C30.0377 53.8375 30.2606 54.1862 30.2253 54.8172C30.184 55.6455 29.7966 56.2197 29.0589 56.1844L27.2148 56.0871L27.4611 51.278ZM28.1653 55.4474L28.755 55.4776C29.0907 55.4965 29.2663 55.2968 29.299 54.7596C29.3145 54.2852 29.1656 54.008 28.8256 53.989L28.2358 53.9658L28.1653 55.4474ZM28.2763 53.2762L28.755 53.302C29.1553 53.3201 29.3326 53.0894 29.3576 52.6761C29.3739 52.2637 29.2491 52.058 28.8359 52.0339L28.3392 52.0054L28.2763 53.2762Z" fill="white"/>
<path d="M32.1831 51.1705C33.1102 51.068 33.7697 51.4227 33.9005 52.6444L34.0891 54.3818C34.2225 55.6051 33.6466 56.0632 32.7203 56.1579C31.8155 56.2551 31.1164 55.9194 30.9856 54.7141L30.7945 52.9759C30.6722 51.7637 31.2774 51.2643 32.1831 51.1705ZM31.7173 52.7675L31.9326 54.7244C31.9808 55.222 32.2149 55.4726 32.6445 55.4269C33.0328 55.3899 33.2273 55.0963 33.1714 54.5927L32.9673 52.6487C32.9088 52.1356 32.6591 51.8532 32.2649 51.8971C31.8336 51.947 31.6614 52.2527 31.7173 52.7675Z" fill="white"/>
<path d="M37.918 51.5155L37.8895 51.4122C37.689 50.844 37.4798 50.6993 37.1122 50.8216C36.742 50.943 36.6525 51.1995 36.8548 51.7729L37.472 53.5705C37.6735 54.1594 37.893 54.304 38.2606 54.1827C38.6067 54.063 38.7065 53.8021 38.5068 53.2124L38.4216 52.9696L39.2842 52.6709L39.3513 52.8628C39.6371 53.6902 39.5846 54.5003 38.5034 54.8723C37.3679 55.2605 36.8548 54.6432 36.5767 53.8383L36.0016 52.1801C35.634 51.11 35.9474 50.4453 36.8797 50.1234C37.7664 49.816 38.4224 50.1535 38.7065 50.9929L38.7857 51.2202L37.918 51.5155Z" fill="white"/>
<path d="M41.5075 48.083L43.9542 52.1311L43.225 52.5745L41.5471 49.7937L40.6131 50.3533L40.2773 49.7937L40.3677 49.7377C40.9764 49.3701 41.1167 48.8544 40.9764 48.4067L41.5075 48.083Z" fill="white"/>
<path d="M45.1511 46.672L46.7032 48.5789C47.169 49.1566 47.1914 49.8824 46.5509 50.3998C45.9465 50.8931 45.2673 50.8931 44.8248 50.3559L45.4963 49.8161C45.6616 50.0296 45.8656 50.0365 46.086 49.8609C46.3047 49.6801 46.3201 49.4614 46.0154 49.0912L45.6624 48.6521C45.6598 48.9026 45.4971 49.222 45.294 49.3873C44.8609 49.736 44.2997 49.7136 43.864 49.1687L43.1538 48.2905C42.6485 47.6706 42.8697 47.043 43.4465 46.5678C43.9544 46.1588 44.6431 46.0409 45.1511 46.672ZM43.8503 47.7938L44.4512 48.5359C44.6354 48.7623 44.9135 48.7494 45.0762 48.6177C45.2527 48.4782 45.325 48.2363 45.1166 47.9728L44.52 47.2367C44.3151 46.9948 44.1111 46.9509 43.8976 47.1265C43.6867 47.2961 43.6419 47.5372 43.8503 47.7938Z" fill="white"/>
<path d="M46.7911 46.215L46.9633 46.0273C47.3696 45.5899 47.0407 45.2344 46.8109 45.0269C46.5853 44.8177 46.3753 44.7746 46.1618 45.0071C45.9646 45.2232 45.9939 45.4832 46.2625 45.7346L46.3847 45.8387L45.8372 46.4293L45.6866 46.3002C45.1588 45.8078 45.0986 45.1035 45.6358 44.5232C46.1816 43.9369 46.8281 43.8784 47.3748 44.3838C47.8388 44.8194 47.8921 45.1956 47.7174 45.6183C48.1349 45.3291 48.6067 45.4289 49.1077 45.8921C49.8722 46.5912 49.8463 47.2343 49.2411 47.8964C48.6428 48.5378 47.9696 48.4078 47.441 47.9188L47.2439 47.7328L47.7871 47.1396L47.9119 47.249C48.2029 47.521 48.5068 47.6355 48.7341 47.3893C49.0225 47.0707 48.8167 46.8202 48.493 46.5163C48.048 46.1082 47.794 46.0781 47.5237 46.3725L47.268 46.654L46.7911 46.215Z" fill="white"/>
<path d="M47.8718 43.7508C47.1943 43.2876 47.2046 42.6445 47.598 42.0711C47.9949 41.496 48.5898 41.2532 49.269 41.7181C49.7933 42.0763 49.9112 42.4413 49.8733 42.7745C50.2754 42.5351 50.6748 42.5808 51.2103 42.9381C52.06 43.5243 52.1874 44.1038 51.67 44.8674C51.1586 45.6104 50.5646 45.7034 49.7063 45.1197C49.1734 44.7563 49.0641 44.3198 49.096 43.9126C48.7989 44.0659 48.4004 44.1175 47.8718 43.7508ZM48.4778 43.1765C48.8179 43.4055 49.0693 43.4185 49.2277 43.1834C49.3895 42.9501 49.2862 42.7245 48.9513 42.493C48.5768 42.2373 48.3633 42.2252 48.1886 42.474C48.0285 42.7073 48.1077 42.9157 48.4778 43.1765ZM50.0567 44.3198L50.265 44.4602C50.6266 44.7098 50.9064 44.7073 51.0794 44.4567C51.2499 44.2053 51.15 43.9385 50.7824 43.6879L50.5681 43.5398C50.2297 43.3048 49.9577 43.3108 49.7855 43.5631C49.6082 43.83 49.7115 44.0857 50.0567 44.3198Z" fill="white"/>
<path d="M5.84388 33.2922L3.58665 32.4192L3.45752 31.3637L5.73713 32.3529L8.36024 30.7386L8.48679 31.7787L6.62212 32.8195L7.14984 33.1363L8.62023 32.9616L8.73472 33.8948L3.83028 34.4734L3.71837 33.5479L5.84388 33.2922Z" fill="white"/>
<path d="M8.42149 29.456L8.36898 30.3944L3.44043 30.1404L3.52996 28.3729C3.56698 27.5679 4.2488 27.103 5.03995 27.1452C5.85262 27.1909 6.49484 27.7324 6.4561 28.5365L6.41391 29.3587L8.42149 29.456ZM5.68217 29.3148L5.70455 28.8473C5.72951 28.3746 5.47383 28.1275 4.99863 28.1034C4.54236 28.0793 4.26774 28.298 4.25052 28.7698L4.21781 29.2416L5.68217 29.3148Z" fill="white"/>
<path d="M3.91211 25.2107L4.16693 23.9787L9.22633 23.9047L9.0223 24.8965L7.7129 24.8663L7.4994 25.902L8.70636 26.4556L8.4963 27.4328L3.91211 25.2107ZM6.97771 24.8259L4.65161 24.7337L6.81156 25.6429L6.97771 24.8259Z" fill="white"/>
<path d="M6.9335 20.5994L6.83192 20.5547C6.24566 20.3351 5.99342 20.4066 5.84879 20.7802C5.71019 21.1478 5.84448 21.382 6.4273 21.6093L8.25581 22.3058C8.85326 22.5391 9.11669 22.4539 9.25357 22.0854C9.39045 21.7358 9.24841 21.4784 8.65354 21.2546L8.40216 21.1599L8.73618 20.2792L8.93849 20.3575C9.77441 20.6769 10.377 21.2503 9.95778 22.348C9.517 23.4999 8.68884 23.4999 7.87014 23.1865L6.1897 22.5382C5.10843 22.1259 4.7856 21.4466 5.15234 20.4944C5.49325 19.5964 6.18712 19.302 7.03422 19.6309L7.26838 19.7187L6.9335 20.5994Z" fill="white"/>
<path d="M8.43857 18.1252L9.06357 17.0533L7.42273 16.0908L7.90138 15.2806L12.167 17.7825L11.6875 18.5944L9.72214 17.4364L9.09026 18.5065L11.0643 19.6662L10.5891 20.4738L6.3208 17.9702L6.79687 17.1583L8.43857 18.1252Z" fill="white"/>
<path d="M9.61971 12.9424C10.2249 12.2072 10.9644 12.0031 11.9303 12.8081L13.3 13.9592C14.2668 14.7676 14.1643 15.52 13.5565 16.2441C12.9539 16.9612 12.2049 17.2074 11.2502 16.4119L9.87797 15.2617C8.92412 14.4602 9.01107 13.6595 9.61971 12.9424ZM10.4109 14.4533L11.9527 15.7473C12.3444 16.0788 12.6922 16.1011 12.9797 15.7576C13.2363 15.452 13.1743 15.105 12.7783 14.7684L11.2373 13.477C10.831 13.1413 10.4479 13.1129 10.1948 13.4202C9.90983 13.7637 10.0002 14.1133 10.4109 14.4533Z" fill="white"/>
<path d="M13.5501 9.17834L14.0469 9.75259L12.8038 10.8374L15.5715 13.9884L14.8638 14.61L11.5977 10.8959L13.5501 9.17834Z" fill="white"/>
<path d="M15.6873 7.59179C16.4948 7.08557 17.2575 7.10881 17.9394 8.16603L18.9053 9.67697C19.5854 10.7445 19.26 11.4281 18.4576 11.9343C17.6682 12.4449 16.877 12.45 16.2064 11.3988L15.2371 9.88273C14.5716 8.84014 14.8979 8.09544 15.6873 7.59179ZM15.9886 9.28094L17.0759 10.9839C17.3574 11.4143 17.6811 11.5443 18.0547 11.2981C18.3939 11.0855 18.4421 10.7351 18.1572 10.2968L17.0759 8.60511C16.797 8.16001 16.4311 8.01193 16.0893 8.22888C15.7166 8.47339 15.7071 8.84014 15.9886 9.28094Z" fill="white"/>
<path d="M21.0133 10.4087L20.1542 10.7721L18.2163 6.22031L19.852 5.52554C20.5889 5.21302 21.3034 5.61852 21.6125 6.34945C21.9336 7.09846 21.7261 7.91979 20.9858 8.22887L20.2247 8.54999L21.0133 10.4087ZM19.9415 7.87588L20.378 7.69337C20.8162 7.50482 20.9195 7.1682 20.7378 6.73085C20.5562 6.30555 20.2402 6.15574 19.8064 6.33998L19.3716 6.52508L19.9415 7.87588Z" fill="white"/>
<path d="M24.658 5.70187L24.639 5.59683C24.4901 4.98815 24.2818 4.81941 23.8987 4.90895C23.5113 5.00537 23.3976 5.25074 23.5414 5.86028L23.9968 7.75346C24.1509 8.37764 24.3584 8.54896 24.7484 8.45082C25.1142 8.36558 25.2416 8.11075 25.091 7.49002L25.029 7.2326L25.939 7.00704L25.9897 7.21796C26.2007 8.09009 26.069 8.90797 24.93 9.17744C23.7282 9.47102 23.2625 8.78486 23.0636 7.94028L22.6401 6.18657C22.368 5.06564 22.7451 4.41563 23.7334 4.1763C24.6657 3.9559 25.301 4.35795 25.512 5.23868L25.5696 5.48061L24.658 5.70187Z" fill="white"/>
<path d="M27.5455 5.78203L28.5089 3.56169L29.5686 3.47473L28.4873 5.70368L29.9913 8.39409L28.9514 8.48019L27.9734 6.57667L27.6497 7.09064L27.7625 8.57144L26.8284 8.64807L26.4419 3.72354L27.3794 3.64864L27.5455 5.78203Z" fill="white"/>
<path d="M34.0897 3.78472L33.6317 8.70924L32.6985 8.61626L33.0851 4.44763L32.0899 4.35465L31.9177 6.24612C31.7645 7.89136 31.4201 8.59215 30.6333 8.51811C30.4181 8.49487 30.2502 8.47421 30.0771 8.40705L30.1391 7.71659C30.2028 7.74672 30.3277 7.77083 30.4353 7.77944C30.7263 7.80785 30.8519 7.66579 31.0258 5.87764L31.2411 3.51697L34.0897 3.78472Z" fill="white"/>
<path d="M37.9602 4.71873L37.7734 5.44191L36.1205 5.01747L35.8312 6.12893L37.3317 6.51807L37.1484 7.2447L35.6479 6.85384L35.263 8.33722L36.9116 8.76769L36.7188 9.4969L34.1646 8.83656L35.4051 4.05237L37.9602 4.71873Z" fill="white"/>
<path d="M39.0891 7.41863L40.977 5.89823L41.9567 6.31578L39.9543 7.78969L40.0404 10.8839L39.0805 10.4655L39.1003 8.32519L38.57 8.62566L37.9803 9.99368L37.1177 9.62434L39.0745 5.07776L39.9396 5.45054L39.0891 7.41863Z" fill="white"/>
<path d="M43.754 9.2807L43.8099 9.1903C44.1422 8.66427 44.1224 8.3948 43.7867 8.18904C43.4501 7.97552 43.1944 8.06248 42.8672 8.59109L41.8187 10.2372C41.4761 10.7796 41.5002 11.0465 41.8333 11.26C42.1544 11.4666 42.4282 11.3771 42.7657 10.8373L42.9129 10.6126L43.7066 11.1188L43.5878 11.2927C43.1066 12.0486 42.4282 12.529 41.4356 11.9048C40.4 11.2428 40.5627 10.4343 41.0336 9.6948L41.9935 8.17009C42.6141 7.19294 43.3407 7.01214 44.1999 7.55883C45.01 8.07453 45.1606 8.80804 44.6777 9.57599L44.5442 9.7852L43.754 9.2807Z" fill="white"/>
<path d="M43.8519 13.5114L43.1528 12.8898L46.4268 9.19385L47.7499 10.3699C48.3508 10.8968 48.2983 11.7207 47.7749 12.3121C47.2265 12.9191 46.4009 13.0766 45.8009 12.5523L45.1871 12.0074L43.8519 13.5114ZM45.6718 11.4598L46.0256 11.7741C46.3794 12.0883 46.7272 12.0418 47.0406 11.6888C47.3522 11.3358 47.3522 10.9897 46.9949 10.6729L46.6428 10.3647L45.6718 11.4598Z" fill="white"/>
<path d="M51.2553 14.1657L50.6742 14.6461L49.5886 13.3357L48.6959 14.0718L49.6928 15.2659L49.1143 15.7472L48.1234 14.5565L46.944 15.532L48.0296 16.8423L47.4519 17.3218L45.7715 15.2943L49.5705 12.139L51.2553 14.1657Z" fill="white"/>
<path d="M53.7147 18.1322L50.0973 20.2354L50.2471 20.4945L48.7345 21.3701L48.286 20.5901L49.1434 20.089L48.1121 18.3259L47.2555 18.8192L46.8062 18.0366L48.311 17.1584L48.4582 17.415C49.2579 17.3367 49.8012 17.1584 50.984 16.4792L52.3089 15.7069L53.7147 18.1322ZM52.123 16.8829L51.1502 17.4494C50.1688 18.0176 49.6032 18.1588 48.9265 18.2208L49.6221 19.4235L52.5947 17.7051L52.123 16.8829Z" fill="white"/>
<path d="M53.5495 22.001L53.6529 21.964C54.2374 21.7488 54.3855 21.5318 54.246 21.153C54.1091 20.7854 53.8448 20.6959 53.2655 20.9068L51.4352 21.5818C50.8292 21.7987 50.6854 22.0286 50.8223 22.3979C50.9514 22.7518 51.2157 22.8534 51.8218 22.6364L52.0688 22.5426L52.3908 23.4242L52.1919 23.4948C51.3466 23.8064 50.521 23.7642 50.1189 22.6648C49.6928 21.5086 50.3238 20.9628 51.1434 20.6666L52.8342 20.0467C53.9171 19.6481 54.6102 19.9512 54.9562 20.9059C55.2894 21.8091 54.9562 22.4849 54.1005 22.7957L53.8672 22.8826L53.5495 22.001Z" fill="white"/>
<path d="M51.2169 26.3506L51.043 25.4285L55.1623 24.6321L54.9316 23.4897L55.6831 23.3502L56.2969 26.558L55.5592 26.6984L55.3336 25.5576L51.2169 26.3506Z" fill="white"/>
<path d="M56.4052 27.61L56.4698 29.343C56.5008 30.2152 55.9412 30.5819 55.3102 30.6034C54.8333 30.6267 54.3064 30.3899 54.204 29.9853C54.0223 30.4769 53.684 30.7369 53.0383 30.7601C52.1843 30.7903 51.5619 30.445 51.5318 29.6822L51.4595 27.7925L56.4052 27.61ZM52.2033 28.7051L52.2274 29.3112C52.2368 29.6607 52.459 29.8252 53.0108 29.8045C53.4989 29.7804 53.7606 29.603 53.7529 29.2526L53.7313 28.6491L52.2033 28.7051ZM54.4381 28.6242L54.4562 29.114C54.4708 29.5273 54.7231 29.6909 55.1475 29.6719C55.565 29.6599 55.7733 29.5058 55.7501 29.0813L55.7372 28.5751L54.4381 28.6242Z" fill="white"/>
<path d="M56.3434 32.7876L56.1868 34.0368L51.1377 34.5043L51.2634 33.5022L52.5711 33.4316L52.7002 32.3752L51.4622 31.9181L51.5888 30.9237L56.3434 32.7876ZM53.3174 33.4049L55.647 33.318L53.4156 32.5793L53.3174 33.4049Z" fill="white"/>
<path d="M49.4697 37.4133C49.4697 37.4133 50.05 39.3599 51.0434 39.5475C51.9999 39.7301 53.0811 38.7624 53.0811 38.7624L52.3924 38.5101C52.3924 38.5101 52.6507 36.8786 51.6142 36.7926C50.5897 36.6987 49.4697 37.4133 49.4697 37.4133Z" fill="white"/>
<path d="M53.4158 42.4293C53.4158 42.4293 54.7898 40.9305 54.4385 39.9809C54.101 39.0657 52.7279 38.6387 52.7279 38.6387L52.8536 39.3593C52.8536 39.3593 51.3256 39.9766 51.7818 40.9201C52.2278 41.8387 53.4158 42.4293 53.4158 42.4293Z" fill="white"/>
<path d="M55.8197 36.6429C55.8197 36.6429 53.8603 36.1195 53.1767 36.8668C52.5233 37.5839 52.7713 39.0096 52.7713 39.0096L53.3541 38.5637C53.3541 38.5637 54.6118 39.633 55.2308 38.791C55.8343 37.9671 55.8197 36.6429 55.8197 36.6429Z" fill="white"/>
<path d="M4.43125 36.6585C4.43125 36.6585 6.39492 36.1428 7.07157 36.8952C7.7267 37.615 7.45725 39.039 7.45725 39.039L6.88821 38.5835C6.88821 38.5835 5.63046 39.6528 5.00976 38.8125C4.40973 37.9843 4.43125 36.6585 4.43125 36.6585Z" fill="white"/>
<path d="M10.7696 37.4288C10.7696 37.4288 10.1988 39.3754 9.20453 39.5639C8.25584 39.7594 7.17285 38.7986 7.17285 38.7986L7.84864 38.5343C7.84864 38.5343 7.58694 36.9114 8.62774 36.8124C9.641 36.7237 10.7696 37.4288 10.7696 37.4288Z" fill="white"/>
<path d="M7.06506 42.4792C7.06506 42.4792 5.60329 41.081 5.88652 40.1047C6.15683 39.1749 7.511 38.6541 7.511 38.6541L7.43438 39.379C7.43438 39.379 8.99344 39.899 8.60002 40.8684C8.20918 41.8094 7.06506 42.4792 7.06506 42.4792Z" fill="white"/>
</g>
<defs>
<clipPath id="clip0">
<rect width="60" height="60" fill="white"/>
</clipPath>
</defs>
</svg>
