<svg width="480" height="81" viewBox="0 0 480 81" fill="none" xmlns="http://www.w3.org/2000/svg">
<path d="M108.81 30.6076C110.069 30.4348 110.966 29.5492 111.502 27.9508C112.037 26.3524 112.305 23.9548 112.305 20.758V17.1508H121.249V32.4004H119.1V19.0084H114.346V20.7796C114.346 24.6388 113.926 27.5404 113.086 29.4844C112.261 31.4284 110.836 32.458 108.81 32.5732V30.6076Z" fill="#006245"/>
<path d="M125.282 32.4004V17.1508H134.204V19.0084H127.431V23.782H132.924V25.6396H127.431V30.5428H134.573V32.4004H125.282Z" fill="#006245"/>
<path d="M137.536 32.4004V17.1508H139.685V23.566H141.965L145.851 17.1508H148.217L143.745 24.3868V24.43L148.499 32.4004H146.046L141.965 25.4236H139.685V32.4004H137.536Z" fill="#006245"/>
<path d="M149.178 32.4004L154.671 17.1508H156.95L162.443 32.4004H160.228L158.687 28.0156H152.912L151.371 32.4004H149.178ZM153.477 26.2444H158.122L156.429 21.4276L155.821 19.246H155.778C155.561 20.1676 155.365 20.8948 155.192 21.4276L153.477 26.2444Z" fill="#006245"/>
<path d="M164.779 32.4004V17.1508H170.402C171.82 17.1508 172.971 17.59 173.854 18.4684C174.751 19.3324 175.2 20.4844 175.2 21.9244C175.2 23.3644 174.751 24.5308 173.854 25.4236C172.957 26.3164 171.806 26.7628 170.402 26.7628H166.929V32.4004H164.779ZM166.929 24.9052H170.055C170.967 24.9052 171.69 24.6388 172.226 24.106C172.761 23.5732 173.029 22.846 173.029 21.9244C173.029 21.0172 172.761 20.3044 172.226 19.786C171.705 19.2676 170.988 19.0084 170.076 19.0084H166.929V24.9052Z" fill="#006245"/>
<path d="M176.948 24.6892C176.948 22.4572 177.679 20.5996 179.141 19.1164C180.617 17.6332 182.484 16.8916 184.742 16.8916C187.072 16.8916 188.939 17.5612 190.343 18.9004L189.257 20.4988C188.693 19.9948 188.006 19.5916 187.195 19.2892C186.399 18.9868 185.61 18.8356 184.829 18.8356C183.092 18.8356 181.71 19.39 180.682 20.4988C179.669 21.6076 179.162 22.9972 179.162 24.6676C179.162 26.3524 179.683 27.778 180.725 28.9444C181.768 30.1108 183.15 30.694 184.872 30.694C185.726 30.694 186.565 30.5212 187.39 30.1756C188.23 29.8156 188.961 29.326 189.583 28.7068L190.734 30.2404C189.113 31.8532 187.137 32.6596 184.807 32.6596C182.477 32.6596 180.581 31.9036 179.119 30.3916C177.672 28.8652 176.948 26.9644 176.948 24.6892Z" fill="#006245"/>
<path d="M197.025 32.4004V19.0084H191.75V17.1508H204.428V19.0084H199.153V32.4004H197.025Z" fill="#006245"/>
<path d="M206.8 32.4004V17.1508H212.162C213.494 17.1508 214.565 17.4964 215.375 18.1876C216.2 18.8788 216.613 19.8292 216.613 21.0388C216.613 21.7732 216.439 22.4284 216.092 23.0044C215.759 23.5804 215.296 24.0196 214.702 24.322V24.3652C215.498 24.5956 216.121 25.0492 216.569 25.726C217.018 26.4028 217.242 27.1804 217.242 28.0588C217.242 29.4412 216.772 30.514 215.831 31.2772C214.89 32.026 213.711 32.4004 212.292 32.4004H206.8ZM208.949 23.566H212.162C212.842 23.566 213.385 23.35 213.79 22.918C214.21 22.486 214.42 21.9316 214.42 21.2548C214.42 20.578 214.217 20.038 213.812 19.6348C213.407 19.2172 212.85 19.0084 212.14 19.0084H208.949V23.566ZM208.949 30.5428H212.401C213.211 30.5428 213.848 30.3052 214.311 29.83C214.789 29.3548 215.028 28.7212 215.028 27.9292C215.028 27.1516 214.789 26.5252 214.311 26.05C213.834 25.5748 213.197 25.3372 212.401 25.3372H208.949V30.5428Z" fill="#006245"/>
<path d="M220.347 32.4004V17.1508H229.27V19.0084H222.497V23.782H227.989V25.6396H222.497V30.5428H229.639V32.4004H220.347Z" fill="#006245"/>
<path d="M232.601 32.4004V17.1508H234.751V23.8468H242.718V17.1508H244.846V32.4004H242.718V25.7044H234.751V32.4004H232.601Z" fill="#006245"/>
<path d="M248.884 32.4004V17.1508H251.033V23.8468H259.001V17.1508H261.128V32.4004H259.001V25.7044H251.033V32.4004H248.884Z" fill="#006245"/>
<path d="M277.302 32.4004V17.1508H279.43V32.4004H277.302ZM265.166 32.4004V17.1508H267.316V22.8964H270.464C271.838 22.8964 272.96 23.3284 273.829 24.1924C274.697 25.042 275.131 26.2084 275.131 27.6916C275.131 29.1028 274.704 30.2404 273.85 31.1044C273.011 31.9684 271.918 32.4004 270.572 32.4004H265.166ZM267.316 30.5428H270.225C271.079 30.5428 271.744 30.2908 272.222 29.7868C272.714 29.2828 272.96 28.5844 272.96 27.6916C272.96 26.7988 272.707 26.086 272.2 25.5532C271.708 25.0204 271.035 24.754 270.181 24.754H267.316V30.5428Z" fill="#006245"/>
<path d="M283.484 32.4004V17.1508H292.407V19.0084H285.633V23.782H291.126V25.6396H285.633V30.5428H292.776V32.4004H283.484Z" fill="#006245"/>
<path d="M304.748 32.4004V19.0084H299.472V17.1508H312.151V19.0084H306.875V32.4004H304.748Z" fill="#006245"/>
<path d="M314.522 32.4004V17.1508H320.145C321.564 17.1508 322.714 17.59 323.597 18.4684C324.494 19.3324 324.943 20.4844 324.943 21.9244C324.943 23.3644 324.494 24.5308 323.597 25.4236C322.7 26.3164 321.549 26.7628 320.145 26.7628H316.672V32.4004H314.522ZM316.672 24.9052H319.798C320.71 24.9052 321.433 24.6388 321.969 24.106C322.504 23.5732 322.772 22.846 322.772 21.9244C322.772 21.0172 322.504 20.3044 321.969 19.786C321.448 19.2676 320.731 19.0084 319.82 19.0084H316.672V24.9052Z" fill="#006245"/>
<path d="M325.126 32.4004L330.618 17.1508H332.898L338.39 32.4004H336.176L334.635 28.0156H328.86L327.318 32.4004H325.126ZM329.424 26.2444H334.07L332.377 21.4276L331.769 19.246H331.725C331.508 20.1676 331.313 20.8948 331.139 21.4276L329.424 26.2444Z" fill="#006245"/>
<path d="M340.727 32.4004V17.1508H346.089C347.421 17.1508 348.492 17.4964 349.302 18.1876C350.127 18.8788 350.54 19.8292 350.54 21.0388C350.54 21.7732 350.366 22.4284 350.019 23.0044C349.686 23.5804 349.223 24.0196 348.629 24.322V24.3652C349.425 24.5956 350.048 25.0492 350.496 25.726C350.945 26.4028 351.169 27.1804 351.169 28.0588C351.169 29.4412 350.699 30.514 349.758 31.2772C348.818 32.026 347.638 32.4004 346.22 32.4004H340.727ZM342.876 23.566H346.089C346.77 23.566 347.312 23.35 347.718 22.918C348.137 22.486 348.347 21.9316 348.347 21.2548C348.347 20.578 348.145 20.038 347.739 19.6348C347.334 19.2172 346.777 19.0084 346.068 19.0084H342.876V23.566ZM342.876 30.5428H346.328C347.139 30.5428 347.775 30.3052 348.239 29.83C348.716 29.3548 348.955 28.7212 348.955 27.9292C348.955 27.1516 348.716 26.5252 348.239 26.05C347.761 25.5748 347.124 25.3372 346.328 25.3372H342.876V30.5428Z" fill="#006245"/>
<path d="M366.41 32.4004V17.1508H368.538V32.4004H366.41ZM354.274 32.4004V17.1508H356.424V22.8964H359.572C360.947 22.8964 362.068 23.3284 362.937 24.1924C363.805 25.042 364.239 26.2084 364.239 27.6916C364.239 29.1028 363.812 30.2404 362.958 31.1044C362.119 31.9684 361.026 32.4004 359.68 32.4004H354.274ZM356.424 30.5428H359.333C360.187 30.5428 360.853 30.2908 361.33 29.7868C361.822 29.2828 362.068 28.5844 362.068 27.6916C362.068 26.7988 361.815 26.086 361.308 25.5532C360.816 25.0204 360.143 24.754 359.289 24.754H356.424V30.5428Z" fill="#006245"/>
<path d="M378.02 32.4004V17.1508H380.169V27.0436L380.039 29.2684H380.082C380.589 28.318 381.023 27.5692 381.385 27.022L388.18 17.1508H390.286V32.4004H388.158V22.5076L388.288 20.2828H388.245C387.753 21.2044 387.326 21.946 386.964 22.5076L380.125 32.4004H378.02Z" fill="#006245"/>
<path d="M398.838 24.6892C398.838 22.4572 399.569 20.5996 401.031 19.1164C402.507 17.6332 404.374 16.8916 406.632 16.8916C408.962 16.8916 410.83 17.5612 412.233 18.9004L411.148 20.4988C410.583 19.9948 409.896 19.5916 409.086 19.2892C408.289 18.9868 407.501 18.8356 406.719 18.8356C404.982 18.8356 403.6 19.39 402.573 20.4988C401.559 21.6076 401.053 22.9972 401.053 24.6676C401.053 26.3524 401.574 27.778 402.616 28.9444C403.658 30.1108 405.04 30.694 406.763 30.694C407.616 30.694 408.456 30.5212 409.281 30.1756C410.12 29.8156 410.851 29.326 411.474 28.7068L412.624 30.2404C411.003 31.8532 409.028 32.6596 406.697 32.6596C404.367 32.6596 402.471 31.9036 401.009 30.3916C399.562 28.8652 398.838 26.9644 398.838 24.6892Z" fill="#006245"/>
<path d="M415.334 32.4004V17.1508H424.387V19.0084H417.483V23.2636H420.848C422.223 23.2636 423.344 23.674 424.213 24.4948C425.081 25.3012 425.516 26.4244 425.516 27.8644C425.516 29.218 425.089 30.3124 424.235 31.1476C423.395 31.9828 422.302 32.4004 420.956 32.4004H415.334ZM417.483 30.5428H420.609C421.463 30.5428 422.129 30.3052 422.606 29.83C423.098 29.3548 423.344 28.6996 423.344 27.8644C423.344 27.0292 423.091 26.3668 422.585 25.8772C422.093 25.3732 421.42 25.1212 420.566 25.1212H417.483V30.5428Z" fill="#006245"/>
<path d="M427.523 24.6676C427.523 22.4788 428.283 20.6356 429.803 19.138C431.322 17.6404 433.189 16.8916 435.404 16.8916C437.618 16.8916 439.478 17.6404 440.983 19.138C442.503 20.6356 443.263 22.4788 443.263 24.6676C443.263 26.914 442.503 28.8076 440.983 30.3484C439.478 31.8892 437.618 32.6596 435.404 32.6596C433.189 32.6596 431.322 31.8892 429.803 30.3484C428.283 28.8076 427.523 26.914 427.523 24.6676ZM429.737 24.6676C429.737 26.3668 430.287 27.7996 431.387 28.966C432.487 30.118 433.826 30.694 435.404 30.694C436.981 30.694 438.313 30.118 439.398 28.966C440.498 27.7996 441.048 26.3668 441.048 24.6676C441.048 23.026 440.498 21.6436 439.398 20.5204C438.313 19.3972 436.981 18.8356 435.404 18.8356C433.826 18.8356 432.487 19.3972 431.387 20.5204C430.287 21.6436 429.737 23.026 429.737 24.6676Z" fill="#006245"/>
<path d="M446.351 32.4004V17.1508H451.974C453.392 17.1508 454.543 17.59 455.425 18.4684C456.323 19.3324 456.771 20.4844 456.771 21.9244C456.771 23.3644 456.323 24.5308 455.425 25.4236C454.528 26.3164 453.378 26.7628 451.974 26.7628H448.5V32.4004H446.351ZM448.5 24.9052H451.626C452.538 24.9052 453.262 24.6388 453.797 24.106C454.333 23.5732 454.6 22.846 454.6 21.9244C454.6 21.0172 454.333 20.3044 453.797 19.786C453.276 19.2676 452.56 19.0084 451.648 19.0084H448.5V24.9052Z" fill="#006245"/>
<path d="M471.589 32.4004V17.1508H473.716V32.4004H471.589ZM459.453 32.4004V17.1508H461.602V22.8964H464.75C466.125 22.8964 467.247 23.3284 468.115 24.1924C468.984 25.042 469.418 26.2084 469.418 27.6916C469.418 29.1028 468.991 30.2404 468.137 31.1044C467.298 31.9684 466.205 32.4004 464.859 32.4004H459.453ZM461.602 30.5428H464.511C465.365 30.5428 466.031 30.2908 466.509 29.7868C467.001 29.2828 467.247 28.5844 467.247 27.6916C467.247 26.7988 466.994 26.086 466.487 25.5532C465.995 25.0204 465.322 24.754 464.468 24.754H461.602V30.5428Z" fill="#006245"/>
<path d="M108.875 62.1004L114.367 46.8508H116.647L122.139 62.1004H119.925L118.384 57.7156H112.609L111.067 62.1004H108.875ZM113.173 55.9444H117.819L116.126 51.1276L115.518 48.946H115.475C115.257 49.8676 115.062 50.5948 114.888 51.1276L113.173 55.9444Z" fill="#006245"/>
<path d="M123.139 54.3676C123.139 52.1788 123.899 50.3356 125.419 48.838C126.938 47.3404 128.805 46.5916 131.02 46.5916C133.234 46.5916 135.094 47.3404 136.599 48.838C138.119 50.3356 138.879 52.1788 138.879 54.3676C138.879 56.614 138.119 58.5076 136.599 60.0484C135.094 61.5892 133.234 62.3596 131.02 62.3596C128.805 62.3596 126.938 61.5892 125.419 60.0484C123.899 58.5076 123.139 56.614 123.139 54.3676ZM125.354 54.3676C125.354 56.0668 125.904 57.4996 127.003 58.666C128.103 59.818 129.442 60.394 131.02 60.394C132.597 60.394 133.929 59.818 135.014 58.666C136.114 57.4996 136.664 56.0668 136.664 54.3676C136.664 52.726 136.114 51.3436 135.014 50.2204C133.929 49.0972 132.597 48.5356 131.02 48.5356C129.442 48.5356 128.103 49.0972 127.003 50.2204C125.904 51.3436 125.354 52.726 125.354 54.3676Z" fill="#006245"/>
<path d="M150.738 56.0092L154.298 51.5596H156.404L152.844 56.0092L156.404 60.4372H154.298L150.738 56.0092ZM149.913 60.4372L146.352 56.0092L149.913 51.5596H152.019L148.458 56.0092L152.019 60.4372H149.913Z" fill="#006245"/>
<path d="M159.564 62.1004V46.8508H161.713V53.266H163.993L167.879 46.8508H170.245L165.773 54.0868V54.13L170.527 62.1004H168.074L163.993 55.1236H161.713V62.1004H159.564Z" fill="#006245"/>
<path d="M172.899 62.1004V46.8508H178.522C179.94 46.8508 181.091 47.29 181.974 48.1684C182.871 49.0324 183.32 50.1844 183.32 51.6244C183.32 53.0644 182.871 54.2308 181.974 55.1236C181.077 56.0164 179.926 56.4628 178.522 56.4628H175.049V62.1004H172.899ZM175.049 54.6052H178.175C179.087 54.6052 179.81 54.3388 180.346 53.806C180.881 53.2732 181.149 52.546 181.149 51.6244C181.149 50.7172 180.881 50.0044 180.346 49.486C179.825 48.9676 179.108 48.7084 178.196 48.7084H175.049V54.6052Z" fill="#006245"/>
<path d="M183.502 62.1004L188.995 46.8508H191.275L196.767 62.1004H194.553L193.011 57.7156H187.237L185.695 62.1004H183.502ZM187.801 55.9444H192.447L190.754 51.1276L190.146 48.946H190.102C189.885 49.8676 189.69 50.5948 189.516 51.1276L187.801 55.9444Z" fill="#006245"/>
<path d="M197.789 54.3892C197.789 52.1572 198.52 50.2996 199.981 48.8164C201.458 47.3332 203.325 46.5916 205.582 46.5916C207.913 46.5916 209.78 47.2612 211.184 48.6004L210.098 50.1988C209.534 49.6948 208.846 49.2916 208.036 48.9892C207.24 48.6868 206.451 48.5356 205.669 48.5356C203.933 48.5356 202.55 49.09 201.523 50.1988C200.51 51.3076 200.003 52.6972 200.003 54.3676C200.003 56.0524 200.524 57.478 201.566 58.6444C202.608 59.8108 203.99 60.394 205.713 60.394C206.567 60.394 207.406 60.2212 208.231 59.8756C209.071 59.5156 209.801 59.026 210.424 58.4068L211.574 59.9404C209.953 61.5532 207.978 62.3596 205.648 62.3596C203.317 62.3596 201.421 61.6036 199.96 60.0916C198.512 58.5652 197.789 56.6644 197.789 54.3892Z" fill="#006245"/>
<path d="M214.284 62.1004V46.8508H216.433V53.5468H224.401V46.8508H226.528V62.1004H224.401V55.4044H216.433V62.1004H214.284Z" fill="#006245"/>
<path d="M229.611 54.3676C229.611 52.1788 230.371 50.3356 231.89 48.838C233.41 47.3404 235.277 46.5916 237.492 46.5916C239.706 46.5916 241.566 47.3404 243.071 48.838C244.591 50.3356 245.351 52.1788 245.351 54.3676C245.351 56.614 244.591 58.5076 243.071 60.0484C241.566 61.5892 239.706 62.3596 237.492 62.3596C235.277 62.3596 233.41 61.5892 231.89 60.0484C230.371 58.5076 229.611 56.614 229.611 54.3676ZM231.825 54.3676C231.825 56.0668 232.375 57.4996 233.475 58.666C234.575 59.818 235.914 60.394 237.492 60.394C239.069 60.394 240.401 59.818 241.486 58.666C242.586 57.4996 243.136 56.0668 243.136 54.3676C243.136 52.726 242.586 51.3436 241.486 50.2204C240.401 49.0972 239.069 48.5356 237.492 48.5356C235.914 48.5356 234.575 49.0972 233.475 50.2204C232.375 51.3436 231.825 52.726 231.825 54.3676Z" fill="#006245"/>
<path d="M248.439 62.1004V46.8508H256.884V48.7084H250.588V62.1004H248.439Z" fill="#006245"/>
<path d="M257.575 54.3676C257.575 52.1788 258.335 50.3356 259.855 48.838C261.374 47.3404 263.241 46.5916 265.456 46.5916C267.67 46.5916 269.53 47.3404 271.035 48.838C272.555 50.3356 273.315 52.1788 273.315 54.3676C273.315 56.614 272.555 58.5076 271.035 60.0484C269.53 61.5892 267.67 62.3596 265.456 62.3596C263.241 62.3596 261.374 61.5892 259.855 60.0484C258.335 58.5076 257.575 56.614 257.575 54.3676ZM259.79 54.3676C259.79 56.0668 260.34 57.4996 261.44 58.666C262.539 59.818 263.878 60.394 265.456 60.394C267.033 60.394 268.365 59.818 269.45 58.666C270.55 57.4996 271.1 56.0668 271.1 54.3676C271.1 52.726 270.55 51.3436 269.45 50.2204C268.365 49.0972 267.033 48.5356 265.456 48.5356C263.878 48.5356 262.539 49.0972 261.44 50.2204C260.34 51.3436 259.79 52.726 259.79 54.3676Z" fill="#006245"/>
<path d="M276.403 62.1004V46.8508H282.026C283.444 46.8508 284.595 47.29 285.478 48.1684C286.375 49.0324 286.824 50.1844 286.824 51.6244C286.824 53.0644 286.375 54.2308 285.478 55.1236C284.58 56.0164 283.43 56.4628 282.026 56.4628H278.552V62.1004H276.403ZM278.552 54.6052H281.678C282.59 54.6052 283.314 54.3388 283.849 53.806C284.385 53.2732 284.653 52.546 284.653 51.6244C284.653 50.7172 284.385 50.0044 283.849 49.486C283.328 48.9676 282.612 48.7084 281.7 48.7084H278.552V54.6052Z" fill="#006245"/>
<path d="M288.572 54.3892C288.572 52.1572 289.303 50.2996 290.764 48.8164C292.241 47.3332 294.108 46.5916 296.365 46.5916C298.696 46.5916 300.563 47.2612 301.967 48.6004L300.881 50.1988C300.317 49.6948 299.629 49.2916 298.819 48.9892C298.023 48.6868 297.234 48.5356 296.452 48.5356C294.716 48.5356 293.333 49.09 292.306 50.1988C291.293 51.3076 290.786 52.6972 290.786 54.3676C290.786 56.0524 291.307 57.478 292.349 58.6444C293.391 59.8108 294.773 60.394 296.496 60.394C297.35 60.394 298.189 60.2212 299.014 59.8756C299.854 59.5156 300.584 59.026 301.207 58.4068L302.357 59.9404C300.736 61.5532 298.761 62.3596 296.431 62.3596C294.1 62.3596 292.204 61.6036 290.743 60.0916C289.295 58.5652 288.572 56.6644 288.572 54.3892Z" fill="#006245"/>
<path d="M305.067 62.1004V46.8508H307.216V53.266H309.496L313.382 46.8508H315.748L311.276 54.0868V54.13L316.03 62.1004H313.577L309.496 55.1236H307.216V62.1004H305.067Z" fill="#006245"/>
<path d="M316.644 60.3076C317.903 60.1348 318.8 59.2492 319.336 57.6508C319.871 56.0524 320.139 53.6548 320.139 50.458V46.8508H329.083V62.1004H326.934V48.7084H322.18V50.4796C322.18 54.3388 321.76 57.2404 320.921 59.1844C320.096 61.1284 318.67 62.158 316.644 62.2732V60.3076Z" fill="#006245"/>
<path d="M333.116 62.1004V46.8508H342.039V48.7084H335.265V53.482H340.758V55.3396H335.265V60.2428H342.408V62.1004H333.116Z" fill="#006245"/>
<path d="M345.37 62.1004V46.8508H347.519V53.266H349.799L353.685 46.8508H356.051L351.579 54.0868V54.13L356.333 62.1004H353.88L349.799 55.1236H347.519V62.1004H345.37Z" fill="#006245"/>
<path d="M357.39 54.3892C357.39 52.1572 358.121 50.2996 359.583 48.8164C361.059 47.3332 362.926 46.5916 365.184 46.5916C367.514 46.5916 369.381 47.2612 370.785 48.6004L369.7 50.1988C369.135 49.6948 368.448 49.2916 367.637 48.9892C366.841 48.6868 366.053 48.5356 365.271 48.5356C363.534 48.5356 362.152 49.09 361.124 50.1988C360.111 51.3076 359.605 52.6972 359.605 54.3676C359.605 56.0524 360.126 57.478 361.168 58.6444C362.21 59.8108 363.592 60.394 365.314 60.394C366.168 60.394 367.008 60.2212 367.833 59.8756C368.672 59.5156 369.403 59.026 370.025 58.4068L371.176 59.9404C369.555 61.5532 367.579 62.3596 365.249 62.3596C362.919 62.3596 361.023 61.6036 359.561 60.0916C358.114 58.5652 357.39 56.6644 357.39 54.3892Z" fill="#006245"/>
<path d="M373.885 62.1004V46.8508H379.508C380.927 46.8508 382.077 47.29 382.96 48.1684C383.858 49.0324 384.306 50.1844 384.306 51.6244C384.306 53.0644 383.858 54.2308 382.96 55.1236C382.063 56.0164 380.912 56.4628 379.508 56.4628H376.035V62.1004H373.885ZM376.035 54.6052H379.161C380.073 54.6052 380.796 54.3388 381.332 53.806C381.867 53.2732 382.135 52.546 382.135 51.6244C382.135 50.7172 381.867 50.0044 381.332 49.486C380.811 48.9676 380.094 48.7084 379.183 48.7084H376.035V54.6052Z" fill="#006245"/>
<path d="M386.988 62.1004V46.8508H395.91V48.7084H389.137V53.482H394.63V55.3396H389.137V60.2428H396.28V62.1004H386.988Z" fill="#006245"/>
<path d="M401.152 60.2428H408.121V48.7084H403.323V50.1124C403.323 54.6628 402.6 58.0396 401.152 60.2428ZM397.353 60.2428H398.895C399.85 58.9036 400.487 57.3772 400.805 55.6636C401.138 53.95 401.304 52.0564 401.304 49.9828V46.8508H410.271V60.2428H411.964V65.1244H410.032V62.1004H399.35V65.1244H397.353V60.2428Z" fill="#006245"/>
<path d="M413.722 54.3892C413.722 52.1572 414.452 50.2996 415.914 48.8164C417.391 47.3332 419.258 46.5916 421.515 46.5916C423.846 46.5916 425.713 47.2612 427.117 48.6004L426.031 50.1988C425.467 49.6948 424.779 49.2916 423.969 48.9892C423.173 48.6868 422.384 48.5356 421.602 48.5356C419.865 48.5356 418.483 49.09 417.456 50.1988C416.443 51.3076 415.936 52.6972 415.936 54.3676C415.936 56.0524 416.457 57.478 417.499 58.6444C418.541 59.8108 419.923 60.394 421.646 60.394C422.5 60.394 423.339 60.2212 424.164 59.8756C425.003 59.5156 425.734 59.026 426.357 58.4068L427.507 59.9404C425.886 61.5532 423.911 62.3596 421.581 62.3596C419.25 62.3596 417.354 61.6036 415.893 60.0916C414.445 58.5652 413.722 56.6644 413.722 54.3892Z" fill="#006245"/>
<path d="M433.799 62.1004V48.7084H428.523V46.8508H441.202V48.7084H435.926V62.1004H433.799Z" fill="#006245"/>
<path d="M443.573 62.1004V46.8508H448.936C450.267 46.8508 451.338 47.1964 452.149 47.8876C452.974 48.5788 453.386 49.5292 453.386 50.7388C453.386 51.4732 453.213 52.1284 452.865 52.7044C452.532 53.2804 452.069 53.7196 451.476 54.022V54.0652C452.272 54.2956 452.894 54.7492 453.343 55.426C453.792 56.1028 454.016 56.8804 454.016 57.7588C454.016 59.1412 453.545 60.214 452.605 60.9772C451.664 61.726 450.484 62.1004 449.066 62.1004H443.573ZM445.723 53.266H448.936C449.616 53.266 450.159 53.05 450.564 52.618C450.984 52.186 451.194 51.6316 451.194 50.9548C451.194 50.278 450.991 49.738 450.586 49.3348C450.18 48.9172 449.623 48.7084 448.914 48.7084H445.723V53.266ZM445.723 60.2428H449.175C449.985 60.2428 450.622 60.0052 451.085 59.53C451.563 59.0548 451.801 58.4212 451.801 57.6292C451.801 56.8516 451.563 56.2252 451.085 55.75C450.607 55.2748 449.971 55.0372 449.175 55.0372H445.723V60.2428Z" fill="#006245"/>
<path d="M455.237 62.1004L460.729 46.8508H463.009L468.501 62.1004H466.287L464.746 57.7156H458.971L457.429 62.1004H455.237ZM459.535 55.9444H464.181L462.488 51.1276L461.88 48.946H461.837C461.619 49.8676 461.424 50.5948 461.25 51.1276L459.535 55.9444Z" fill="#006245"/>
<path d="M474.333 60.4372L477.894 56.0092L474.333 51.5596H476.439L480 56.0092L476.439 60.4372H474.333ZM469.97 60.4372L473.53 56.0092L469.97 51.5596H472.075L475.636 56.0092L472.075 60.4372H469.97Z" fill="#006245"/>
<g clip-path="url(#clip0)">
<path d="M39.4093 0.0221118C16.9794 0.727602 -0.692832 19.4585 0.0208795 41.7901C0.359629 52.5991 4.92691 62.6329 12.8537 70.0341C20.7804 77.4377 31.138 81.3266 42.0037 80.9791C64.4348 80.2759 82.1105 61.5299 81.3921 39.2134C81.0534 28.3998 76.4943 18.3625 68.5652 10.9636C60.6384 3.56002 50.2832 -0.331214 39.4093 0.0221118ZM13.2578 69.6076C5.44088 62.3051 0.95069 52.4236 0.608435 41.7692C-0.0947627 19.7723 17.324 1.30524 39.4374 0.600916C50.1454 0.263861 60.3429 4.09815 68.1575 11.3901C75.978 18.688 80.4623 28.5776 80.8034 39.2274C81.5124 61.2277 64.0937 79.6913 41.9815 80.3933C31.27 80.7339 21.0713 76.9019 13.2578 69.6076Z" fill="#006245"/>
<path d="M39.4674 1.64699C29.0432 1.97359 19.3597 6.32624 12.219 13.9042C5.07609 21.4774 1.32764 31.3589 1.66055 41.7297C2.34739 63.1548 20.418 80.0296 41.9438 79.3473C63.4766 78.6651 80.441 60.685 79.7459 39.2646C79.0661 17.8442 60.992 0.963586 39.4674 1.64699ZM2.81814 41.6995C2.49808 31.6286 6.13088 22.0434 13.0694 14.6933C19.9869 7.34438 29.3773 3.12073 39.5048 2.79763C60.3928 2.13863 77.9272 18.5113 78.5942 39.3018C79.2588 60.0806 62.8038 77.5331 41.9099 78.1955C21.0207 78.8673 3.48513 62.4783 2.81814 41.6995Z" fill="#006245"/>
<path d="M39.8708 14.4411C25.4378 14.9048 14.0674 26.9632 14.5183 41.3252C14.9891 55.6872 27.114 67.0053 41.5436 66.5462C55.986 66.0894 67.3528 54.0287 66.8914 39.6678C66.4324 25.2989 54.3109 13.9936 39.8708 14.4411ZM15.6783 41.2845C15.2437 27.5583 26.1141 16.0287 39.9106 15.5905C53.7105 15.1605 65.2934 25.9788 65.7338 39.7039C65.9429 46.3555 63.5401 52.6944 58.9728 57.5445C54.3904 62.3993 48.1889 65.191 41.5039 65.3979C27.7086 65.8291 16.1233 55.0189 15.6783 41.2845Z" fill="#006245"/>
<path d="M58.5611 52.89L60.2875 52.6785L59.8214 51.3709L60.2373 50.8735L59.4804 49.7949L60.1053 49.4451L59.0774 48.1166L59.8366 47.89L59.1171 46.7277L59.5259 46.3662L58.3742 45.1726L58.8846 44.7461L57.7843 43.5292L58.144 43.184L57.0203 42.0461L57.5133 41.8346L55.9083 40.6967L56.5916 40.3132L55.2962 39.6019L55.4411 38.9766L53.8933 38.6779L54.0487 37.9875L52.9845 38.0352C52.9845 38.0352 50.2337 36.2558 43.9586 41.5987L46.5681 43.342L52.2475 41.1128L52.9834 40.8072L53.2952 41.551L47.4839 43.9499L49.9101 45.5573L54.5802 43.6338L54.8897 44.3683L50.6799 46.1164L52.9577 47.6436L56.0368 46.1966L56.108 46.3116L56.1151 46.307L56.1396 46.3744L56.3592 46.7602L56.3218 46.7742L56.4526 47.0403L53.8384 48.2375L56.8054 50.2366L56.9397 50.3295H56.9374L56.9736 50.3446L56.6057 50.9269L56.5531 50.9014L56.4959 50.992L53.3852 48.9162L53.2625 51.7591H53.1621L52.9927 51.7556L52.4601 51.7266L52.6096 48.3921L50.2138 46.7963L50.1869 51.3291L49.3856 51.3244L49.4125 46.2605L46.9945 44.6438L46.9618 50.9269H46.8952V50.9746L46.2306 51.0025V50.9269H46.1558L46.1768 46.8567L46.1476 44.0719L42.1364 41.3755L42.7741 40.8606C43.7846 39.9262 48.985 35.0947 49.1169 33.5466C49.2139 32.5005 49.1041 32.4633 49.013 32.5865L49.5363 31.5556L49.1975 31.1825L49.6344 29.5368L49.0001 29.4798L48.9604 27.7329L48.5025 27.9677L48.068 26.0721L47.5342 26.2034L46.9676 24.5832L46.6733 24.9028L46.1768 23.5093L45.6418 23.5012L44.9608 22.0948L44.4492 22.0298L43.8254 20.7792L43.4178 21.179L42.6632 19.9191L42.2555 20.3201L41.2323 18.6557L40.9893 19.1288L39.8527 17.8247L39.0152 18.9347L38.3704 18.8742L37.8798 20.0923L37.249 19.7599L36.6953 21.3498L36.0949 20.8442L35.5132 22.0774L34.9841 21.9484L34.6208 23.5593L33.9865 23.3687L33.5637 24.9644L33.0871 24.8471L32.753 26.4056L32.3033 26.1116L32.2355 28.0723L31.5417 27.7271L31.6643 29.1858L31.0697 29.4229L31.6783 30.8594L30.9938 31.1128L31.6339 31.9705C31.6339 31.9705 31.6456 35.2388 39.6051 37.4912L39.6647 37.5052V34.2718L33.9363 30.4747L34.3778 29.8157L39.6647 33.3118V30.4073L35.4011 27.5946L35.8391 26.9228L39.6647 29.4554V26.5811L36.7794 24.8308L37.1988 24.1451L39.6647 25.6409V21.9066H40.473V25.6281L42.9155 24.1462L43.3325 24.832L40.473 26.5626V29.431L44.2681 26.9228L44.7167 27.5946L40.473 30.3922V33.292L45.7376 29.8169L46.1757 30.4759L40.473 34.2497V39.0638L39.6647 38.8395C38.2828 38.349 31.6702 36.0686 30.2346 36.6695C29.2697 37.0705 29.279 37.1821 29.4344 37.2123L28.2745 37.2204L28.0981 37.6981L26.4324 38.0701L26.6847 38.6651L25.1416 39.5171L25.561 39.8088L24.0845 41.0745L24.4501 41.4801L23.2715 42.7412L23.6967 42.8504L22.6944 43.9336L22.9316 44.4078L21.9959 45.6607L22.1817 46.1419L21.3651 47.2751L21.9001 47.4483L21.1374 48.7012L21.6724 48.8662L20.6736 50.5469L21.2203 50.5364L20.5825 52.1496L21.948 52.3681L22.198 52.9609L23.5063 52.8272L23.5203 53.5443L25.179 53.2851L25.019 54.0522L26.3892 53.986L26.5106 54.5102L28.1215 54.0778L28.2488 54.7287L29.8444 54.3498L29.9729 54.8298L31.5183 54.3998L31.4751 54.9286L33.2518 54.079L33.2541 54.8577L34.4958 54.0685L34.9771 54.4776L35.9805 53.2793L36.5143 53.7466L36.9804 52.7924C36.9804 52.7924 39.8796 51.2524 38.1847 43.2072L35.3917 44.6542L34.5332 51.4174L34.5192 51.4906L33.7213 51.4011L34.414 45.1587L31.8278 46.5045L31.7846 46.8567L31.2695 51.5232L30.4693 51.4337L30.9658 46.9171L28.5291 48.1596L28.3282 51.5487H28.1658V51.5604L28.0023 51.5487L27.6787 51.5557V51.5313L27.3715 51.5081L27.5631 48.6547L24.2235 50.3749L23.8906 49.7693L23.9221 49.7496L23.8614 49.6403L27.1905 47.9306L24.7491 46.4488L25.1627 45.763L28.0233 47.5087L30.592 46.1896L26.6076 43.9801L27.0012 43.2816L31.3851 45.7247L31.4494 45.7491L34.0321 44.4183L28.5139 41.365L28.5466 41.3023L28.5139 41.2779L28.806 40.6805L28.8644 40.72L28.9018 40.6596L31.7064 42.21L34.9689 43.9406L39.2733 41.7149L39.41 42.5564C39.695 44.2788 40.8234 50.7363 42.0044 51.6743C42.8232 52.3182 42.919 52.2647 42.8688 52.1078L43.4283 53.1085L43.9282 53.0434L45.0706 54.3184L45.4608 53.8198L46.9524 54.7473L47.0097 54.2475L48.8354 54.9309L49.0258 54.4207L50.7009 54.8426L50.5993 54.4207L52.0314 54.7798L52.3386 54.3323L53.8922 54.5555L54.2157 54.1638L55.6139 54.3323L55.5135 53.7849L56.983 53.8512L56.8685 53.2921L58.8274 53.3642L58.5611 52.89Z" fill="#006245"/>
<path d="M14.51 58.6508L17.6802 58.1882L18.506 59.3133L15.2447 59.6527L13.2753 63.2057L12.4518 62.0911L13.9177 59.6852L13.1082 59.6713L11.5173 60.8219L10.7896 59.8317L16.0565 55.9893L16.7936 56.9772L14.51 58.6508Z" fill="#006245"/>
<path d="M19.6234 60.4253L20.8044 61.598L17.2206 67.2198L16.264 66.2796L17.2592 64.8628L16.2534 63.8772L14.7805 64.8128L13.8413 63.8737L19.6234 60.4253ZM17.8234 64.0724L19.6152 61.5806L17.0478 63.3054L17.8234 64.0724Z" fill="#006245"/>
<path d="M22.6403 63.1651L21.5703 64.5936C21.2093 65.0852 21.2444 65.5536 21.7443 65.9232C21.888 66.0336 22.1555 66.1951 22.2817 66.244L23.896 64.0891L24.8807 64.8272L20.9862 70.0503L19.9863 69.3053L21.7081 67.0192C21.3729 66.8692 21.1357 66.7089 20.8098 66.4694C19.9595 65.8407 19.8403 64.8411 20.4793 63.9787L21.6462 62.4341L22.6403 63.1651Z" fill="#006245"/>
<path d="M28.4865 66.7679L28.0227 67.643L26.0276 66.5935L25.3197 67.9255L27.1291 68.8878L26.6631 69.7618L24.8537 68.7983L23.8982 70.5742L25.8828 71.6296L25.4167 72.5036L22.3306 70.8671L25.4097 65.1372L28.4865 66.7679Z" fill="#006245"/>
<path d="M30.7194 69.8643L30.7662 69.7318C31.0465 68.9612 30.946 68.6276 30.4554 68.4521C29.9543 68.2743 29.6471 68.4556 29.3679 69.2355L28.4849 71.6425C28.201 72.434 28.312 72.7734 28.8038 72.9559C29.271 73.1209 29.6016 72.9373 29.8807 72.1446L30.0092 71.8169L31.1692 72.2399L31.0699 72.5026C30.6704 73.6091 29.924 74.4145 28.4673 73.888C26.936 73.3324 26.9138 72.2399 27.3203 71.1579L28.1274 68.9286C28.6496 67.4979 29.5373 67.0667 30.8047 67.5212C32.0008 67.9547 32.4015 68.8543 31.9892 69.9817L31.8817 70.2908L30.7194 69.8643Z" fill="#006245"/>
<path d="M34.214 75.2851L33.005 75.0352L34.1054 69.6319L32.5962 69.3366L32.7924 68.3604L37.0221 69.2111L36.8259 70.1816L35.3202 69.8701L34.214 75.2851Z" fill="#006245"/>
<path d="M37.2613 69.2251L39.545 69.3413C40.6944 69.4029 41.1161 70.1758 41.0787 71.008C41.0448 71.6275 40.6734 72.3004 40.1267 72.3864C40.7575 72.6805 41.06 73.1512 41.0121 74.0031C40.956 75.1212 40.4304 75.8965 39.4293 75.8488L36.9272 75.7175L37.2613 69.2251ZM38.2168 74.8539L39.017 74.8946C39.4725 74.9202 39.7108 74.6505 39.7552 73.9253C39.7763 73.2849 39.5742 72.9106 39.1128 72.885L38.3126 72.8537L38.2168 74.8539ZM38.3675 71.9227L39.017 71.9576C39.5602 71.982 39.8008 71.6705 39.8347 71.1126C39.8569 70.5559 39.6875 70.2781 39.1268 70.2456L38.4528 70.2072L38.3675 71.9227Z" fill="#006245"/>
<path d="M43.6686 69.0801C44.9266 68.9418 45.8214 69.4207 45.999 71.0699L46.2548 73.4154C46.4358 75.0669 45.6544 75.6852 44.3975 75.8131C43.1698 75.9444 42.2213 75.4911 42.0438 73.864L41.7844 71.5174C41.6186 69.8809 42.4398 69.2068 43.6686 69.0801ZM43.0367 71.2361L43.3287 73.8779C43.3941 74.5497 43.7118 74.8879 44.2947 74.8263C44.8215 74.7764 45.0855 74.38 45.0096 73.7001L44.7327 71.0757C44.6533 70.383 44.3146 70.0018 43.7796 70.0611C43.1943 70.1285 42.9607 70.5411 43.0367 71.2361Z" fill="#006245"/>
<path d="M51.4503 69.546L51.4118 69.4066C51.1396 68.6395 50.8557 68.4442 50.357 68.6093C49.8547 68.7731 49.7332 69.1195 50.0077 69.8936L50.8452 72.3203C51.1186 73.1153 51.4164 73.3106 51.9152 73.1467C52.3848 72.9852 52.5203 72.633 52.2493 71.8369L52.1336 71.5091L53.3041 71.1058L53.3952 71.365C53.783 72.4819 53.7118 73.5756 52.2446 74.0777C50.7039 74.6019 50.0077 73.7685 49.6304 72.6818L48.8501 70.4433C48.3513 68.9986 48.7765 68.1014 50.0416 67.6667C51.2447 67.2517 52.1348 67.7073 52.5203 68.8406L52.6278 69.1474L51.4503 69.546Z" fill="#006245"/>
<path d="M56.3206 64.9121L59.6403 70.377L58.651 70.9756L56.3743 67.2215L55.1069 67.977L54.6514 67.2215L54.774 67.146C55.5999 66.6497 55.7903 65.9535 55.5999 65.3491L56.3206 64.9121Z" fill="#006245"/>
<path d="M61.2647 63.007L63.3708 65.5814C64.0027 66.3613 64.0331 67.3411 63.164 68.0396C62.344 68.7055 61.4224 68.7055 60.822 67.9803L61.7331 67.2516C61.9573 67.5398 62.2342 67.5491 62.5332 67.312C62.8299 67.0679 62.8509 66.7727 62.4374 66.2729L61.9585 65.6802C61.955 66.0184 61.7342 66.4496 61.4586 66.6728C60.871 67.1435 60.1094 67.1133 59.5183 66.3775L58.5547 65.192C57.869 64.3552 58.1692 63.5079 58.9518 62.8664C59.641 62.3143 60.5755 62.1551 61.2647 63.007ZM59.4997 64.5214L60.315 65.5233C60.565 65.829 60.9423 65.8115 61.163 65.6337C61.4025 65.4454 61.5006 65.1188 61.2179 64.7632L60.4084 63.7694C60.1304 63.4428 59.8536 63.3836 59.5639 63.6207C59.2777 63.8496 59.217 64.1751 59.4997 64.5214Z" fill="#006245"/>
<path d="M63.4895 62.3898L63.7232 62.1364C64.2745 61.546 63.8283 61.066 63.5164 60.7858C63.2104 60.5034 62.9254 60.4453 62.6357 60.7591C62.3682 61.0508 62.4079 61.4018 62.7723 61.7412L62.9382 61.8819L62.1953 62.6792L61.9909 62.5048C61.2748 61.84 61.1931 60.8893 61.922 60.1059C62.6625 59.3144 63.5398 59.2354 64.2815 59.9176C64.9111 60.5057 64.9836 61.0137 64.7464 61.5843C65.313 61.1938 65.9531 61.3286 66.6329 61.9539C67.6702 62.8977 67.6351 63.7659 66.814 64.6597C66.0021 65.5255 65.0887 65.35 64.3715 64.6899L64.104 64.4388L64.841 63.638L65.0104 63.7856C65.4052 64.1529 65.8176 64.3075 66.126 63.9751C66.5173 63.545 66.2381 63.2068 65.7989 62.7966C65.195 62.2456 64.8504 62.205 64.4836 62.6025L64.1367 62.9825L63.4895 62.3898Z" fill="#006245"/>
<path d="M64.9558 59.0634C64.0365 58.4381 64.0505 57.5699 64.5843 56.7958C65.1228 56.0194 65.93 55.6917 66.8516 56.3193C67.563 56.8028 67.723 57.2956 67.6716 57.7454C68.2171 57.4223 68.7591 57.4839 69.4857 57.9662C70.6386 58.7577 70.8115 59.5399 70.1095 60.5708C69.4156 61.5739 68.6096 61.6994 67.445 60.9114C66.722 60.4209 66.5736 59.8316 66.6168 59.2819C66.2138 59.4888 65.673 59.5585 64.9558 59.0634ZM65.7781 58.2882C66.2395 58.5973 66.5806 58.6148 66.7956 58.2975C67.0152 57.9825 66.875 57.678 66.4206 57.3653C65.9125 57.0201 65.6228 57.0039 65.3857 57.3398C65.1684 57.6547 65.2758 57.936 65.7781 58.2882ZM67.9204 59.8316L68.2031 60.0211C68.6937 60.3581 69.0734 60.3547 69.3081 60.0164C69.5394 59.6771 69.4039 59.3168 68.9051 58.9785L68.6143 58.7786C68.1552 58.4613 67.7861 58.4695 67.5525 58.81C67.3119 59.1703 67.452 59.5155 67.9204 59.8316Z" fill="#006245"/>
<path d="M7.92939 44.9443L4.86662 43.7658L4.69141 42.3409L7.78454 43.6763L11.3438 41.4971L11.5155 42.9011L8.98535 44.3063L9.7014 44.734L11.6965 44.498L11.8519 45.7579L5.19719 46.539L5.04534 45.2895L7.92939 44.9443Z" fill="#006245"/>
<path d="M11.4271 39.7656L11.3558 41.0325L4.66846 40.6896L4.78994 38.3035C4.84017 37.2168 5.76531 36.5892 6.83879 36.6461C7.94148 36.7077 8.81289 37.4388 8.76032 38.5244L8.70309 39.6343L11.4271 39.7656ZM7.7102 39.575L7.74057 38.9439C7.77444 38.3058 7.42752 37.9723 6.78272 37.9397C6.16363 37.9072 5.791 38.2024 5.76764 38.8393L5.72325 39.4762L7.7102 39.575Z" fill="#006245"/>
<path d="M5.30859 34.0346L5.65435 32.3714L12.5193 32.2715L12.2425 33.6104L10.4658 33.5697L10.1761 34.9679L11.8138 35.7153L11.5287 37.0344L5.30859 34.0346ZM9.46821 33.5151L6.31199 33.3907L9.24277 34.6181L9.46821 33.5151Z" fill="#006245"/>
<path d="M9.408 27.8089L9.27016 27.7485C8.47469 27.4521 8.13243 27.5486 7.93619 28.053C7.74813 28.5493 7.93035 28.8654 8.72116 29.1722L11.2022 30.1125C12.0129 30.4275 12.3703 30.3124 12.556 29.815C12.7418 29.3431 12.549 28.9956 11.7419 28.6934L11.4008 28.5655L11.854 27.3766L12.1285 27.4823C13.2627 27.9135 14.0804 28.6876 13.5115 30.1695C12.9135 31.7246 11.7898 31.7246 10.6789 31.3015L8.39876 30.4263C6.93162 29.8696 6.49358 28.9526 6.9912 27.6671C7.45376 26.4549 8.39526 26.0574 9.54467 26.5014L9.86239 26.6199L9.408 27.8089Z" fill="#006245"/>
<path d="M11.4507 24.469L12.2987 23.022L10.0723 21.7226L10.7218 20.6289L16.5097 24.0064L15.8591 25.1024L13.1923 23.5392L12.3349 24.9839L15.0134 26.5494L14.3686 27.6396L8.57715 24.2598L9.22311 23.1638L11.4507 24.469Z" fill="#006245"/>
<path d="M13.0529 17.4725C13.8741 16.4799 14.8775 16.2044 16.1881 17.2911L18.0465 18.8451C19.3583 19.9364 19.2193 20.9523 18.3946 21.9297C17.577 22.8979 16.5607 23.2303 15.2653 22.1564L13.4033 20.6036C12.1091 19.5215 12.227 18.4406 13.0529 17.4725ZM14.1264 19.5122L16.2185 21.2591C16.7499 21.7066 17.2219 21.7368 17.612 21.273C17.9601 20.8604 17.876 20.392 17.3387 19.9376L15.2478 18.1942C14.6964 17.7409 14.1766 17.7026 13.8332 18.1175C13.4465 18.5813 13.5692 19.0531 14.1264 19.5122Z" fill="#006245"/>
<path d="M18.3861 12.3906L19.0601 13.1658L17.3733 14.6303L21.1288 18.8842L20.1686 19.7233L15.7368 14.7093L18.3861 12.3906Z" fill="#006245"/>
<path d="M21.2858 10.2488C22.3815 9.56543 23.4165 9.59681 24.3416 11.0241L25.6522 13.0638C26.575 14.505 26.1335 15.4279 25.0448 16.1113C23.9736 16.8005 22.9002 16.8074 21.9902 15.3883L20.6749 13.3416C19.772 11.9341 20.2147 10.9288 21.2858 10.2488ZM21.6947 12.5292L23.17 14.8281C23.552 15.4093 23.9912 15.5848 24.4981 15.2524C24.9584 14.9653 25.0238 14.4922 24.6371 13.9006L23.17 11.6168C22.7915 11.0159 22.2951 10.816 21.8313 11.1089C21.3256 11.439 21.3127 11.9341 21.6947 12.5292Z" fill="#006245"/>
<path d="M28.5129 14.052L27.3472 14.5425L24.7178 8.3976L26.9372 7.45966C27.9371 7.03776 28.9066 7.58518 29.3259 8.57194C29.7616 9.5831 29.4801 10.6919 28.4756 11.1091L27.443 11.5427L28.5129 14.052ZM27.0587 10.6326L27.6509 10.3862C28.2454 10.1317 28.3856 9.67725 28.1392 9.08682C27.8927 8.51266 27.464 8.31043 26.8753 8.55915L26.2854 8.80904L27.0587 10.6326Z" fill="#006245"/>
<path d="M33.458 7.69775L33.4324 7.55595C33.2303 6.73424 32.9476 6.50644 32.4278 6.62731C31.9021 6.75748 31.7479 7.08873 31.943 7.9116L32.5609 10.4674C32.77 11.31 33.0515 11.5413 33.5807 11.4088C34.0771 11.2938 34.25 10.9497 34.0456 10.1118L33.9615 9.76424L35.1962 9.45973L35.2651 9.74448C35.5513 10.9218 35.3726 12.026 33.8272 12.3898C32.1965 12.7861 31.5646 11.8598 31.2947 10.7196L30.72 8.3521C30.3509 6.83884 30.8625 5.96134 32.2035 5.63823C33.4686 5.34069 34.3306 5.88347 34.6168 7.07246L34.6951 7.39905L33.458 7.69775Z" fill="#006245"/>
<path d="M37.3759 7.80577L38.683 4.80831L40.121 4.69092L38.6538 7.7L40.6945 11.3321L39.2834 11.4483L37.9565 8.87853L37.5173 9.5724L37.6703 11.5715L36.4029 11.6749L35.8784 5.02681L37.1505 4.92569L37.3759 7.80577Z" fill="#006245"/>
<path d="M46.2551 5.11L45.6337 11.7581L44.3674 11.6326L44.8919 6.00493L43.5416 5.87941L43.308 8.43289C43.1 10.654 42.6328 11.6 41.5651 11.5001C41.2731 11.4687 41.0453 11.4408 40.8105 11.3502L40.8946 10.418C40.9811 10.4587 41.1505 10.4912 41.2965 10.5029C41.6913 10.5412 41.8618 10.3494 42.0978 7.93544L42.3898 4.74854L46.2551 5.11Z" fill="#006245"/>
<path d="M51.5076 6.37029L51.2541 7.34659L49.0114 6.77359L48.6189 8.27407L50.6549 8.79941L50.4061 9.78035L48.3701 9.25269L47.8479 11.2553L50.0848 11.8364L49.8232 12.8208L46.3574 11.9294L48.0407 5.4707L51.5076 6.37029Z" fill="#006245"/>
<path d="M53.0392 10.0152L55.6009 7.96261L56.9302 8.52631L54.2132 10.5161L54.33 14.6932L53.0275 14.1284L53.0544 11.239L52.3349 11.6446L51.5347 13.4915L50.3643 12.9929L53.0194 6.85498L54.1933 7.35824L53.0392 10.0152Z" fill="#006245"/>
<path d="M59.3682 12.5286L59.4441 12.4066C59.895 11.6965 59.8681 11.3327 59.4125 11.0549C58.9558 10.7667 58.6089 10.884 58.165 11.5977L56.7423 13.8199C56.2774 14.5521 56.3101 14.9124 56.7621 15.2007C57.1978 15.4796 57.5693 15.3587 58.0272 14.63L58.2269 14.3267L59.3039 15.0101L59.1427 15.2448C58.4897 16.2653 57.5693 16.9138 56.2225 16.0712C54.8172 15.1774 55.038 14.0861 55.677 13.0877L56.9794 11.0293C57.8216 9.71017 58.8075 9.46609 59.9732 10.2041C61.0724 10.9003 61.2768 11.8906 60.6215 12.9273L60.4405 13.2097L59.3682 12.5286Z" fill="#006245"/>
<path d="M59.5017 18.2403L58.5532 17.4012L62.9955 12.4116L64.7909 13.9993C65.6062 14.7106 65.535 15.8228 64.8248 16.6213C64.0807 17.4407 62.9605 17.6534 62.1463 16.9456L61.3134 16.2099L59.5017 18.2403ZM61.9711 15.4707L62.4512 15.8949C62.9313 16.3191 63.4032 16.2564 63.8284 15.7798C64.2512 15.3033 64.2512 14.8361 63.7665 14.4084L63.2887 13.9923L61.9711 15.4707Z" fill="#006245"/>
<path d="M69.5468 19.1236L68.7583 19.7722L67.2853 18.0032L66.074 18.997L67.4267 20.609L66.6417 21.2587L65.2972 19.6513L63.6969 20.9682L65.1699 22.7371L64.3861 23.3845L62.106 20.6474L67.2608 16.3877L69.5468 19.1236Z" fill="#006245"/>
<path d="M72.8843 24.4782L67.9759 27.3176L68.1792 27.6674L66.1268 28.8494L65.5182 27.7964L66.6817 27.12L65.2823 24.7397L64.12 25.4057L63.5103 24.3492L65.5521 23.1637L65.7518 23.51C66.837 23.4043 67.5741 23.1637 69.1791 22.2466L70.9768 21.2041L72.8843 24.4782ZM70.7245 22.7917L69.4045 23.5565C68.0729 24.3236 67.3054 24.5142 66.3873 24.5979L67.3311 26.2216L71.3646 23.9017L70.7245 22.7917Z" fill="#006245"/>
<path d="M72.6601 29.7012L72.8003 29.6512C73.5934 29.3607 73.7943 29.0678 73.6051 28.5564C73.4194 28.0601 73.0608 27.9392 72.2746 28.224L69.7913 29.1352C68.9689 29.4281 68.7738 29.7384 68.9596 30.237C69.1348 30.7147 69.4934 30.8518 70.3157 30.5589L70.651 30.4323L71.0879 31.6224L70.818 31.7177C69.6709 32.1385 68.5507 32.0815 68.0052 30.5973C67.427 29.0364 68.2832 28.2995 69.3953 27.8997L71.6894 27.0629C73.1589 26.5248 74.0992 26.9339 74.5688 28.2228C75.0208 29.442 74.5688 30.3544 73.4077 30.774L73.0911 30.8914L72.6601 29.7012Z" fill="#006245"/>
<path d="M69.4947 35.5734L69.2588 34.3286L74.8482 33.2535L74.5351 31.7112L75.5549 31.5229L76.3877 35.8535L75.3867 36.043L75.0806 34.503L69.4947 35.5734Z" fill="#006245"/>
<path d="M76.535 37.2734L76.6226 39.6131C76.6646 40.7904 75.9054 41.2855 75.0491 41.3146C74.402 41.346 73.6871 41.0264 73.5481 40.4801C73.3017 41.1437 72.8426 41.4948 71.9665 41.5261C70.8078 41.5668 69.9632 41.1007 69.9223 40.071L69.8242 37.5198L76.535 37.2734ZM70.8335 38.7518L70.8662 39.5701C70.879 40.0419 71.1804 40.2639 71.9291 40.236C72.5915 40.2035 72.9466 39.9641 72.936 39.491L72.9068 38.6763L70.8335 38.7518ZM73.8659 38.6426L73.8904 39.3039C73.9102 39.8618 74.2525 40.0826 74.8284 40.057C75.3949 40.0408 75.6776 39.8327 75.646 39.2597L75.6285 38.5763L73.8659 38.6426Z" fill="#006245"/>
<path d="M76.4507 44.2634L76.2381 45.9498L69.3872 46.5809L69.5577 45.228L71.3321 45.1327L71.5073 43.7066L69.8276 43.0895L69.9993 41.7471L76.4507 44.2634ZM72.3448 45.0967L75.5057 44.9793L72.478 43.9821L72.3448 45.0967Z" fill="#006245"/>
<path d="M67.124 50.5082C67.124 50.5082 67.9113 53.136 69.2593 53.3894C70.5571 53.6358 72.0242 52.3294 72.0242 52.3294L71.0897 51.9889C71.0897 51.9889 71.4402 49.7864 70.0338 49.6702C68.6437 49.5435 67.124 50.5082 67.124 50.5082Z" fill="#006245"/>
<path d="M72.4785 57.2795C72.4785 57.2795 74.3428 55.256 73.8662 53.9741C73.4083 52.7386 71.5451 52.1621 71.5451 52.1621L71.7157 53.1349C71.7157 53.1349 69.6423 53.9683 70.2614 55.2421C70.8665 56.4822 72.4785 57.2795 72.4785 57.2795Z" fill="#006245"/>
<path d="M75.7399 49.4681C75.7399 49.4681 73.0813 48.7615 72.1538 49.7703C71.2672 50.7385 71.6036 52.6632 71.6036 52.6632L72.3945 52.0611C72.3945 52.0611 74.1011 53.5047 74.9409 52.368C75.7598 51.2557 75.7399 49.4681 75.7399 49.4681Z" fill="#006245"/>
<path d="M6.01283 49.4891C6.01283 49.4891 8.67727 48.7929 9.5954 49.8087C10.4843 50.7803 10.1187 52.7027 10.1187 52.7027L9.3466 52.0879C9.3466 52.0879 7.63999 53.5314 6.79779 52.397C5.98362 51.279 6.01283 49.4891 6.01283 49.4891Z" fill="#006245"/>
<path d="M14.6132 50.5291C14.6132 50.5291 13.8388 53.157 12.4896 53.4115C11.2024 53.6753 9.73291 52.3783 9.73291 52.3783L10.6499 52.0215C10.6499 52.0215 10.2948 49.8306 11.707 49.6969C13.0819 49.5772 14.6132 50.5291 14.6132 50.5291Z" fill="#006245"/>
<path d="M9.58654 57.347C9.58654 57.347 7.6031 55.4595 7.9874 54.1415C8.35419 52.8863 10.1916 52.1831 10.1916 52.1831L10.0877 53.1617C10.0877 53.1617 12.2031 53.8637 11.6693 55.1724C11.1389 56.4428 9.58654 57.347 9.58654 57.347Z" fill="#006245"/>
</g>
<defs>
<clipPath id="clip0">
<rect width="381.4121" height="81" fill="white"/>
</clipPath>
</defs>
</svg>
