<svg width="40" height="40" viewBox="0 0 40 40" fill="none" xmlns="http://www.w3.org/2000/svg">
<path d="M18.7502 10.4102C20.3713 10.4102 21.6896 11.7285 21.6896 13.3496C21.6896 14.9658 20.3713 16.2842 18.7502 16.2842C17.1291 16.2842 15.8107 14.9658 15.8107 13.3496C15.8107 11.7285 17.1291 10.4102 18.7502 10.4102ZM18.7502 20.4443C22.6662 20.4443 25.8498 17.2607 25.8498 13.3496C25.8498 9.43359 22.6662 6.25 18.7502 6.25C14.8342 6.25 11.6555 9.43359 11.6555 13.3496C11.6555 17.2607 14.8342 20.4443 18.7502 20.4443ZM21.6213 26.2354C23.0666 25.9033 24.4582 25.332 25.7424 24.5264C26.7141 23.916 27.007 22.6318 26.3967 21.6602C25.7814 20.6836 24.5021 20.3906 23.5256 21.0059C20.6203 22.832 16.8801 22.832 13.9699 21.0059C12.9982 20.3906 11.7141 20.6836 11.1037 21.6602C10.4934 22.6318 10.7863 23.916 11.758 24.5264C13.0422 25.332 14.4338 25.9033 15.8791 26.2354L11.9094 30.2002C11.0988 31.0107 11.0988 32.3291 11.9094 33.1396C12.3195 33.5449 12.8469 33.75 13.3791 33.75C13.9113 33.75 14.4436 33.5449 14.8537 33.1396L18.7502 29.2432L22.6516 33.1396C23.4621 33.9551 24.7756 33.9551 25.591 33.1396C26.4016 32.3291 26.4016 31.0107 25.591 30.2002L21.6213 26.2354Z" fill="#222222"/>
</svg>
