<svg width="40" height="40" viewBox="0 0 40 40" fill="none" xmlns="http://www.w3.org/2000/svg">
<path d="M11.3672 6.25C8.56445 6.25 6.25 8.56445 6.25 11.3672V28.6328C6.25 31.4355 8.56445 33.75 11.3672 33.75H28.6328C31.4355 33.75 33.75 31.4355 33.75 28.6328V11.3672C33.75 8.56445 31.4355 6.25 28.6328 6.25H11.3672ZM11.3672 8.75H28.6328C30.083 8.75 31.25 9.91699 31.25 11.3672V28.6328C31.25 30.083 30.083 31.25 28.6328 31.25H11.3672C9.91699 31.25 8.75 30.083 8.75 28.6328V11.3672C8.75 9.91699 9.91699 8.75 11.3672 8.75ZM15.1172 13.2031V26.7969H20.7422C23.3105 26.7969 26.0547 25.6787 26.0547 22.6172C26.0547 20.1367 24.1211 19.5117 23.2812 19.3359V19.2969C23.8623 19.0527 25.1562 18.2227 25.1562 16.3672C25.1562 14.3701 23.8086 13.2031 20.4297 13.2031H15.1172ZM18.5938 15.7031C18.5938 15.7031 19.8877 15.7031 20.1953 15.7031C21.6064 15.7031 21.6797 16.8506 21.6797 17.0703C21.6797 17.9541 21.0449 18.5547 20.2344 18.5547C20 18.5547 18.5938 18.5938 18.5938 18.5938V15.7031ZM18.5938 20.8984C18.5938 20.8984 20.3027 20.8887 20.6641 20.8984C21.0254 20.9082 22.5391 20.9814 22.5391 22.5781C22.5391 24.1699 20.9619 24.2822 20.625 24.2969C20.2881 24.3115 18.5938 24.2969 18.5938 24.2969V20.8984Z" fill="#222222"/>
</svg>
