<svg width="40" height="40" viewBox="0 0 40 40" fill="none" xmlns="http://www.w3.org/2000/svg">
<path d="M8.75 6.25C7.38281 6.25 6.25 7.38281 6.25 8.75V31.25C6.25 32.6172 7.38281 33.75 8.75 33.75H31.25C32.6172 33.75 33.75 32.6172 33.75 31.25V8.75C33.75 7.38281 32.6172 6.25 31.25 6.25H8.75ZM8.75 8.75H31.25V31.25H24.7656V22.8125H28.0078L28.4766 19.0625H24.7656V16.6406C24.7656 15.5469 25.0342 14.8047 26.6016 14.8047H28.6328V11.4062C28.2861 11.3623 27.085 11.2891 25.7031 11.2891C22.8223 11.2891 20.8594 13.0225 20.8594 16.25V19.0625H17.5781V22.8125H20.8594V31.25H8.75V8.75Z" fill="#222222"/>
</svg>
