<svg width="90" height="91" viewBox="0 0 90 91" fill="none" xmlns="http://www.w3.org/2000/svg">
<g opacity="0.9" clip-path="url(#clip0)">
<path d="M79.5705 0.0297852C73.8192 0.0297852 69.1404 4.70859 69.1404 10.4592V17.3738C69.1404 25.733 75.0854 32.7299 82.9688 34.3593V72.6858C82.9688 78.3726 78.3428 82.9985 72.656 82.9985C66.9699 82.9985 62.344 78.3726 62.344 72.6858V20.8303C62.344 9.3613 53.0125 0.0297852 41.5427 0.0297852C30.0737 0.0297852 20.7422 9.3613 20.7422 20.8303V29.32L1.56555 42.1047C0.587769 42.7563 0 43.8542 0 45.0298V86.5142C0 88.456 1.57379 90.0298 3.51562 90.0298H45C46.9418 90.0298 48.5156 88.456 48.5156 86.5142V45.0298C48.5156 43.8542 47.9279 42.7563 46.9501 42.1047L27.7734 29.32V20.8303C27.7734 13.2381 33.9505 7.06104 41.5427 7.06104C49.1357 7.06104 55.3127 13.2381 55.3127 20.8303V72.6858C55.3127 82.2494 63.0931 90.0298 72.656 90.0298C82.2196 90.0298 90 82.2494 90 72.6858V10.4592C90 4.70859 85.3212 0.0297852 79.5705 0.0297852V0.0297852ZM41.4844 46.9112V82.9985H7.03125V46.9112L20.7422 37.7706V45.0298C20.7422 46.9716 22.316 48.5454 24.2578 48.5454C26.1996 48.5454 27.7734 46.9716 27.7734 45.0298V37.7706L41.4844 46.9112ZM82.9688 27.0685C79.0082 25.6286 76.1716 21.826 76.1716 17.3738V10.4592C76.1716 8.58539 77.6967 7.06104 79.5705 7.06104C81.4444 7.06104 82.9688 8.58539 82.9688 10.4592V27.0685Z" fill="#006245"/>
</g>
<defs>
<clipPath id="clip0">
<rect width="90" height="90" fill="white" transform="translate(0 0.0297852)"/>
</clipPath>
</defs>
</svg>
