<?xml version="1.0" encoding="utf-8"?>
<!-- Generator: Adobe Illustrator 20.1.0, SVG Export Plug-In . SVG Version: 6.00 Build 0)  -->
<svg version="1.0" id="Capa_1" xmlns="http://www.w3.org/2000/svg" xmlns:xlink="http://www.w3.org/1999/xlink" x="0px" y="0px"
	 viewBox="0 0 512 512" style="enable-background:new 0 0 512 512;" xml:space="preserve"  width="26" height="20">
<style type="text/css">
	.st0{fill:#FFFFFF;}
</style>
<g>
	<g>
		<path class="st0" d="M359.6,343.2L512,198.4L416.9,98.3L359.6,343.2z M477.5,197.5l-75.6,71.8l28.4-121.5L477.5,197.5z"/>
		<path class="st0" d="M401.8,88l-0.5-0.1L266.2,56.3l-0.5,2.1l82.7,258L401.8,88z M301.2,89.5l71.2,16.7L344.6,225L301.2,89.5z"/>
		<path class="st0" d="M113.9,97.1l4.9,15.2l214.8,214.8l0.1-0.4L246.5,54.6L113.9,97.1z M151.6,110.6l79.2-25.4L280,239.1
			L151.6,110.6z"/>
		<path class="st0" d="M344,359.7l0.7-0.7l-0.4-0.4L98.5,112.7l-0.2,0.2L0,211.2l246.2,246.2L344,359.7z M98.5,147.2l211.8,211.8
			l-64,64L34.5,211.2L98.5,147.2z"/>
		<path class="st0" d="M247,339.1c11.8,0,21.3,9.6,21.3,21.3c0,11.8-9.6,21.3-21.3,21.3c-11.8,0-21.3-9.6-21.3-21.3
			C225.7,348.6,235.2,339.1,247,339.1z"/>
	</g>
</g>
</svg>
