<?xml version="1.0" encoding="UTF-8" standalone="no"?>
<svg
   xmlns:dc="http://purl.org/dc/elements/1.1/"
   xmlns:cc="http://creativecommons.org/ns#"
   xmlns:rdf="http://www.w3.org/1999/02/22-rdf-syntax-ns#"
   xmlns:svg="http://www.w3.org/2000/svg"
   xmlns="http://www.w3.org/2000/svg"
   viewBox="0 0 816.38397 552.23199"
   height="100"
   width="160"
   xml:space="preserve"
   id="svg2"
   version="1.1"><metadata
     id="metadata8"><rdf:RDF><cc:Work
         rdf:about=""><dc:format>image/svg+xml</dc:format><dc:type
           rdf:resource="http://purl.org/dc/dcmitype/StillImage" /></cc:Work></rdf:RDF></metadata><defs
     id="defs6"><clipPath
       id="clipPath18"
       clipPathUnits="userSpaceOnUse"><path
         id="path16"
         d="M 0,414.174 H 612.288 V 0 H 0 Z" /></clipPath></defs><g
     transform="matrix(1.3333333,0,0,-1.3333333,0,552.232)"
     id="g10"><g
       id="g12"><g
         clip-path="url(#clipPath18)"
         id="g14"><g
           transform="translate(163.811,210.6357)"
           id="g20"><path
             id="path22"
             style="fill:#e60013;fill-opacity:1;fill-rule:nonzero;stroke:none"
             d="m 0,0 c 0,78.605 63.721,142.326 142.34,142.326 78.606,0 142.327,-63.721 142.327,-142.326 0,-78.605 -63.721,-142.341 -142.327,-142.341 C 63.721,-142.341 0,-78.605 0,0" /></g><g
           transform="translate(243.5894,204.3311)"
           id="g24"><path
             id="path26"
             style="fill:#ffffff;fill-opacity:1;fill-rule:nonzero;stroke:none"
             d="M 0,0 C -0.622,6.503 -6.841,11.04 -14.093,10.941 -21.33,10.855 -27.04,6.531 -28.454,-0.367 Z m -11.619,-23.507 c 10.8,0.128 17.725,6.263 22.644,6.333 5.203,0.07 8.68,-2.855 8.708,-7.139 0.099,-7.349 -13.5,-15.816 -32.242,-16.042 -21.217,-0.254 -37.529,13.527 -37.769,32.582 -0.241,19.11 15.195,33.655 35.846,33.895 20.665,0.24 35.338,-13.796 35.55,-30.504 0.085,-6.389 -3.336,-7.604 -10.559,-7.704 l -38.603,-0.48 c 1.06,-6.983 7.124,-11.053 16.425,-10.941" /></g><g
           transform="translate(306.5332,182.8311)"
           id="g28"><path
             id="path30"
             style="fill:#ffffff;fill-opacity:1;fill-rule:nonzero;stroke:none"
             d="M 0,0 C 8.058,0.086 14.021,6.206 13.909,15.79 13.768,25.642 7.675,31.607 -0.382,31.508 -8.468,31.395 -14.545,25.162 -14.432,15.465 -14.319,5.952 -8.071,-0.099 0,0 m -2.94,-17.484 c -17.514,-0.227 -33.416,13.809 -33.656,32.879 -0.226,18.983 14.927,33.145 32.835,33.372 6.574,0.07 12.058,-1.527 17.033,-5.131 l -0.197,17.075 c -0.113,9.145 3.25,13.669 10.63,13.753 7.251,0.099 10.742,-4.366 10.856,-13.498 l 0.762,-63.989 c 0.114,-9.147 -3.109,-13.683 -10.502,-13.769 -4.212,-0.042 -7.788,2.036 -10.333,5.909 -4.325,-4.199 -10.318,-6.531 -17.428,-6.601" /></g><g
           transform="translate(368.5303,171.3535)"
           id="g32"><path
             id="path34"
             style="fill:#ffffff;fill-opacity:1;fill-rule:nonzero;stroke:none"
             d="m 0,0 c -2.997,-3.236 -5.683,-4.933 -9.259,-4.975 -5.47,-0.057 -10.461,3.902 -10.503,9.117 -0.056,3.689 1.71,5.584 4.397,8.242 L 2.374,29.656 -12.85,42.76 c -2.629,2.332 -4.17,5.046 -4.212,7.534 -0.042,4.848 4.566,9.399 10.037,9.484 3.264,0.042 6.163,-1.088 8.933,-3.802 l 13.3,-12.977 11.874,12.948 c 2.446,2.629 5.98,4.439 8.693,4.482 6.037,0.055 11.139,-4.128 11.223,-9.104 0.015,-2.374 -1.582,-5.131 -4.707,-8.128 L 28.228,29.868 45.274,13.612 c 2.756,-2.586 5.117,-4.947 5.174,-9.202 0.056,-4.607 -4.269,-8.805 -9.754,-8.877 -3.957,-0.055 -6.727,1.696 -9.923,4.85 L 15.124,16.086 Z" /></g><g
           transform="translate(373.3779,224.1777)"
           id="g36"><path
             id="path38"
             style="fill:#ffffff;fill-opacity:1;fill-rule:nonzero;stroke:none"
             d="m 0,0 c 0,0 1.781,-1.768 2.205,-2.036 0.255,-0.269 1.329,-1.174 1.371,-1.23 0.085,-0.056 1.131,-0.82 1.287,-0.89 0.155,-0.085 1.215,-0.623 1.327,-0.651 0.128,-0.043 1.089,-0.41 1.57,-0.538 0.325,-0.07 1.089,-0.211 1.386,-0.239 0.338,-0.085 1.696,-0.085 1.908,-0.085 0.213,0 1.837,0.128 1.936,0.155 0.085,0.043 1.188,0.169 2.332,0.664 0.665,0.312 1.442,0.665 2.05,1.203 0.226,0.098 1.188,1.074 1.442,1.484 0.254,0.31 0.636,0.961 0.82,1.301 0.155,0.339 0.522,1.131 0.552,1.313 C 20.156,0.07 19.974,-3.973 19.125,-6.63 15.422,-8.1 7.718,-9.499 6.248,-8.312 4.735,-7.153 2.106,-5.556 1.611,-4.298 1.116,-3.025 0,0 0,0" /></g><g
           transform="translate(393.3936,224.6436)"
           id="g40"><path
             id="path42"
             style="fill:#ffffff;fill-opacity:1;fill-rule:nonzero;stroke:none"
             d="m 0,0 c 0,0 -1.64,-1.965 -2.05,-2.29 -0.268,-0.297 -1.286,-1.089 -1.343,-1.116 -0.084,-0.043 -1.13,-0.961 -1.272,-1.047 -0.169,-0.099 -1.201,-0.664 -1.3,-0.706 -0.113,-0.057 -1.102,-0.439 -1.569,-0.537 -0.297,-0.115 -1.046,-0.241 -1.371,-0.311 -0.354,-0.099 -1.697,-0.128 -1.908,-0.128 -0.198,0 -1.866,0.085 -1.937,0.128 -0.113,0.028 -1.201,0.141 -2.347,0.593 -0.678,0.297 -1.469,0.636 -2.12,1.159 -0.183,0.099 -1.187,1.032 -1.441,1.442 -0.27,0.296 -0.637,0.933 -0.834,1.272 -0.213,0.34 -0.58,1.117 -0.609,1.315 0.029,-0.382 0.354,-4.424 1.258,-7.068 3.746,-1.386 10.363,-4.509 11.846,-3.308 1.456,1.203 5.131,4.835 5.583,6.092 C -0.933,-3.265 0,0 0,0" /></g><g
           transform="translate(393.917,177.4463)"
           id="g44"><path
             id="path46"
             style="fill:#ffffff;fill-opacity:1;fill-rule:nonzero;stroke:none"
             d="m 0,0 c 0,0 -1.753,1.611 -2.163,1.908 -0.312,0.283 -1.216,1.145 -1.272,1.188 -0.072,0.055 -1.258,0.989 -1.415,1.059 -0.14,0.085 -1.229,0.622 -1.328,0.664 -0.127,0.03 -1.074,0.411 -1.597,0.524 -0.296,0.099 -1.032,0.212 -1.357,0.255 -0.353,0.085 -1.71,0.085 -1.923,0.071 -0.212,0 -1.837,-0.128 -1.936,-0.156 -0.084,-0.042 -1.173,-0.17 -2.332,-0.664 -0.664,-0.298 -1.442,-0.665 -2.049,-1.216 -0.24,-0.113 -1.189,-1.061 -1.442,-1.456 -0.241,-0.297 -0.581,-0.975 -0.791,-1.301 -0.199,-0.353 -0.552,-1.145 -0.552,-1.328 0,0.353 0.212,4.437 1.059,7.067 C -15.407,8.1 -7.719,9.484 -6.249,8.312 -4.75,7.152 -2.093,5.555 -1.612,4.27 -1.117,3.025 0,0 0,0" /></g><g
           transform="translate(373.4629,176.9229)"
           id="g48"><path
             id="path50"
             style="fill:#ffffff;fill-opacity:1;fill-rule:nonzero;stroke:none"
             d="m 0,0 c 0,0 2.078,2.051 2.487,2.348 0.269,0.282 1.315,1.228 1.385,1.285 0.058,0.042 1.075,0.805 1.217,0.891 0.169,0.084 1.229,0.65 1.314,0.678 0.114,0.042 1.075,0.453 1.555,0.566 0.311,0.098 1.074,0.254 1.399,0.283 0.339,0.112 1.668,0.141 1.923,0.141 0.212,0 1.838,-0.099 1.922,-0.128 C 13.272,6.051 14.39,5.938 15.534,5.485 16.213,5.188 17.02,4.835 17.641,4.313 17.838,4.198 18.842,3.279 19.097,2.885 19.365,2.588 19.761,1.937 19.944,1.598 20.129,1.259 20.51,0.467 20.524,0.297 20.51,0.651 20.199,4.707 19.295,7.323 15.563,8.723 7.831,9.909 6.36,8.707 4.904,7.506 2.318,5.866 1.865,4.58 1.399,3.308 0,0 0,0" /></g><g
           transform="translate(386.3682,186.4932)"
           id="g52"><path
             id="path54"
             style="fill:#ffffff;fill-opacity:1;fill-rule:nonzero;stroke:none"
             d="m 0,0 c 0.015,-0.722 -1.116,-1.301 -2.474,-1.329 -1.399,-0.014 -2.515,0.565 -2.53,1.258 0,0.721 1.089,1.314 2.474,1.329 C -1.145,1.271 0,0.721 0,0" /></g><g
           transform="translate(397.5635,239.2734)"
           id="g56"><path
             id="path58"
             style="fill:#ffffff;fill-opacity:1;fill-rule:nonzero;stroke:none"
             d="m 0,0 c 0.084,-7.831 -6.163,-14.248 -13.979,-14.333 -7.832,-0.113 -14.249,6.162 -14.348,13.993 -0.099,7.803 6.178,14.22 13.994,14.334 C -6.516,14.093 -0.085,7.831 0,0" /></g><g
           transform="translate(394.3838,245.0977)"
           id="g60"><path
             id="path62"
             style="fill:#ffffff;fill-opacity:1;fill-rule:nonzero;stroke:none"
             d="m 0,0 c 0.042,-3.916 -3.083,-7.139 -6.998,-7.167 -3.916,-0.057 -7.109,3.096 -7.166,6.997 -0.057,3.901 3.081,7.109 6.982,7.167 C -3.266,7.039 -0.044,3.901 0,0" /></g></g></g></g></svg>
