<?xml version="1.0" encoding="UTF-8" standalone="no"?>
<svg
   xmlns:dc="http://purl.org/dc/elements/1.1/"
   xmlns:cc="http://creativecommons.org/ns#"
   xmlns:rdf="http://www.w3.org/1999/02/22-rdf-syntax-ns#"
   xmlns:svg="http://www.w3.org/2000/svg"
   xmlns="http://www.w3.org/2000/svg"
   viewBox="0 0 240.89333 79.653336"
   height="79.653336"
   width="240.89333"
   xml:space="preserve"
   id="svg2"
   version="1.1"><metadata
     id="metadata8"><rdf:RDF><cc:Work
         rdf:about=""><dc:format>image/svg+xml</dc:format><dc:type
           rdf:resource="http://purl.org/dc/dcmitype/StillImage" /></cc:Work></rdf:RDF></metadata><defs
     id="defs6" /><g
     transform="matrix(1.3333333,0,0,-1.3333333,0,79.653333)"
     id="g10"><g
       transform="scale(0.1)"
       id="g12"><path
         id="path14"
         style="fill:#214395;fill-opacity:1;fill-rule:nonzero;stroke:none"
         d="m 244.258,595.98 c 3.347,1.958 8.824,1.958 12.172,0 L 494.176,456.305 c 3.344,-1.977 6.094,-6.746 6.094,-10.653 l -0.071,-295.738 c 0,-3.875 -2.742,-8.648 -6.101,-10.594 L 256.301,1.48047 c -3.367,-1.972658 -8.856,-1.972658 -12.215,0 L 6.10156,139.32 C 2.73828,141.266 -0.00390625,146.039 0,149.914 l 0.230469,295.93 c 0,3.902 2.726561,8.676 6.078121,10.636 L 244.258,595.98" /><path
         id="path16"
         style="fill:#1baeec;fill-opacity:1;fill-rule:nonzero;stroke:none"
         d="m 235.914,48.9961 c 0,-3.8633 -2.766,-5.4766 -6.133,-3.5703 L 36.6523,155.094 c -3.375,1.902 -6.1406,6.668 -6.1406,10.523 l -0.1094,251.137 c -0.0117,3.875 2.7383,5.469 6.0977,3.508 L 229.656,308.047 c 3.356,-1.949 6.11,-6.734 6.114,-10.625 l 0.144,-248.4259" /><path
         id="path18"
         style="fill:#f57c14;fill-opacity:1;fill-rule:nonzero;stroke:none"
         d="m 265.41,49.6133 c 0,-3.875 2.754,-5.5 6.137,-3.5625 L 464.668,155.707 c 3.375,1.914 6.137,6.66 6.137,10.535 l 0.117,251.121 c 0.008,3.875 -2.742,5.469 -6.098,3.508 L 271.664,308.656 c -3.351,-1.957 -6.105,-6.718 -6.113,-10.621 L 265.41,49.6133" /><path
         id="path20"
         style="fill:#80cc28;fill-opacity:1;fill-rule:nonzero;stroke:none"
         d="m 443.461,452.266 c 3.352,-1.957 3.352,-5.172 0,-7.145 L 256.02,335.219 c -3.348,-1.973 -8.829,-1.973 -12.176,0 L 56.7617,445.121 c -3.3398,1.973 -3.3398,5.188 0,7.145 L 243.855,562.184 c 3.34,1.972 8.821,1.972 12.176,0 l 187.43,-109.918" /><path
         id="path22"
         style="fill:#ffffff;fill-opacity:1;fill-rule:nonzero;stroke:none"
         d="m 128.316,301.531 13.575,-7.804 c 2.019,-1.172 3.668,-0.207 3.668,2.117 v 20.469 c 0,2.328 -1.649,5.195 -3.664,6.367 l -71.8286,41.508 c -2.0117,1.183 -3.6601,0.214 -3.6601,-2.11 v -20.359 c 0,-2.34 1.6445,-5.196 3.6601,-6.364 l 12.9063,-7.507 3.6211,-2.106 0.0312,-4.25 v -124.054 -4.192 l -3.6523,2.078 -12.9532,7.531 c -2.0156,1.172 -3.664,0.235 -3.6562,-2.097 l 0.0351,-20.625 c 0.0039,-2.324 1.6524,-5.195 3.6641,-6.367 L 198.754,98.4219 c 2,-1.1719 3.644,-0.2422 3.644,2.0821 v 48.23 c 0,2.305 -1.644,5.196 -3.66,6.36 l -24.234,14.101 c -2.02,1.2 -3.668,0.25 -3.668,-2.082 v -18.41 -4.351 l -3.668,2.246 -38.855,22.488 -3.665,2.18 v 4.148 123.981 4.308 l 3.668,-2.172" /><path
         id="path24"
         style="fill:#ffffff;fill-opacity:1;fill-rule:nonzero;stroke:none"
         d="m 391.785,284.711 c -1.265,-32.793 -41.043,-50 -41.043,-50 v 52.742 l 20.512,11.93 c 23.648,13.613 20.531,-14.672 20.531,-14.672 z m 39.301,-84.336 -2.727,3.273 -27.839,32.403 -2.77,3.191 3.141,2.852 c 0,0 28.8,26.062 28.98,66.047 0.168,40 -21.73,40.281 -51.918,24.968 -30.172,-15.312 -81.863,-47.246 -81.863,-47.246 -1.985,-1.25 -3.594,-4.148 -3.594,-6.484 v -21.531 c 0,-2.325 1.637,-3.262 3.652,-2.09 l 12.93,7.519 3.649,2.149 0.023,-4.262 V 135.785 l -0.023,-4.18 -3.633,-2.187 -12.973,-7.559 c -2,-1.191 -3.644,-4.043 -3.644,-6.367 l 0.019,-20.0779 c 0,-2.3516 1.637,-3.293 3.652,-2.1172 l 69.715,40.5231 c 2.024,1.172 3.664,4.043 3.664,6.371 v 20.223 c 0,2.332 -1.64,3.274 -3.664,2.117 l -11.461,-6.66 -3.679,-2.098 0.019,4.192 v 43.25 4.148 l 3.672,2.2 6.172,3.535 3.738,2.07 2.406,-3.387 35.715,-49.718 c 1.364,-1.868 4.118,-2.481 6.141,-1.309 l 37.707,21.965 c 2.02,1.16 3.711,4.019 3.766,6.336 l 0.515,20.508 c 0.063,2.343 -1.547,3.273 -3.562,2.097 l -12.223,-7.09 -3.703,-2.195" /><path
         id="path26"
         style="fill:#214395;fill-opacity:1;fill-rule:nonzero;stroke:none"
         d="M 697.105,369.285 H 619.641 V 520.426 H 582.09 V 336.273 h 115.015 v 33.012" /><path
         id="path28"
         style="fill:#214395;fill-opacity:1;fill-rule:nonzero;stroke:none"
         d="m 740.883,421.512 c 3.551,13.863 13.504,21.746 27.668,21.746 12.941,0 21.504,-8.258 22.82,-21.746 z m 32.207,-88.266 c 32.664,0 52.613,18.317 53.437,19.098 l 1.407,1.312 -14.746,27.399 -2.364,-2.032 c -0.156,-0.136 -15.922,-13.527 -35.457,-13.527 -14.726,0 -32.523,7.676 -35.781,29.059 h 88.285 l 0.199,2.281 c 0.032,0.359 0.77,8.738 0.77,12.582 0,38.613 -23.367,63.566 -59.527,63.566 -39.954,0 -67.86,-28.73 -67.86,-69.867 0,-40.484 30.129,-69.871 71.637,-69.871" /><path
         id="path30"
         style="fill:#214395;fill-opacity:1;fill-rule:nonzero;stroke:none"
         d="m 892.035,363.23 c -12.5,0 -16.933,7.625 -16.933,14.149 0,14.617 21.968,17.684 40.394,17.684 h 3.051 v -0.528 c 0,-14.781 -11.34,-31.305 -26.512,-31.305 z m -54.23,12.637 c 0,-27.98 23.215,-42.621 46.156,-42.621 15.797,0 26.168,6.414 32.086,11.797 1.695,1.559 3.223,3.195 4.519,4.777 0,-0.148 0,-0.3 0,-0.453 v -13.094 h 34.524 v 82.993 c 0,33.636 -20.93,53.718 -55.988,53.718 -31.055,0 -51.188,-15.773 -52.028,-16.441 l -1.621,-1.289 14.434,-27.356 2.336,1.711 c 0.16,0.118 16.492,11.879 33.847,11.879 14.684,0 21.957,-6.371 22.223,-19.472 h -1.789 c -50.75,0 -78.699,-16.387 -78.699,-46.149" /><path
         id="path32"
         style="fill:#214395;fill-opacity:1;fill-rule:nonzero;stroke:none"
         d="m 1017.59,389.738 c 0,8 0.87,14.598 2.65,20.192 5.88,18.613 20.75,25.25 32.69,25.25 4.03,0 7.16,-0.469 7.2,-0.473 l 2.88,-0.441 v 36.535 l -2.06,0.375 c -0.12,0.019 -3.04,0.551 -6.25,0.551 -15.63,0 -29.98,-9.149 -38.37,-23.661 v 21.895 H 980.535 V 336.273 h 37.055 v 53.465" /><path
         id="path34"
         style="fill:#214395;fill-opacity:1;fill-rule:nonzero;stroke:none"
         d="m 1118.48,397.816 c 0,6.789 0.67,11.989 2.15,16.411 4.71,15.101 17.04,24.484 32.18,24.484 12.9,0 17.93,-6.652 17.93,-23.734 v -78.704 h 36.8 v 85.258 c 0,34.141 -15.87,51.453 -47.16,51.453 -23.09,0 -36.44,-11.867 -43.16,-20.679 0,0.086 0,0.175 0,0.261 v 17.395 h -35.79 V 336.273 h 37.05 v 61.543" /><path
         id="path36"
         style="fill:#214395;fill-opacity:1;fill-rule:nonzero;stroke:none"
         d="m 1269.99,520.426 h -36.81 v -33.524 h 36.81 v 33.524" /><path
         id="path38"
         style="fill:#214395;fill-opacity:1;fill-rule:nonzero;stroke:none"
         d="m 1270.24,469.961 h -37.06 V 336.273 h 37.06 v 133.688" /><path
         id="path40"
         style="fill:#214395;fill-opacity:1;fill-rule:nonzero;stroke:none"
         d="m 1385.91,336.273 h 36.79 v 85.258 c 0,34.141 -15.87,51.453 -47.16,51.453 -23.1,0 -36.45,-11.867 -43.17,-20.679 0,0.086 0,0.175 0,0.261 v 17.395 h -35.79 V 336.273 h 37.05 v 61.543 c 0,6.789 0.69,11.989 2.16,16.411 4.71,15.101 17.03,24.484 32.18,24.484 12.9,0 17.94,-6.652 17.94,-23.734 v -78.704" /><path
         id="path42"
         style="fill:#214395;fill-opacity:1;fill-rule:nonzero;stroke:none"
         d="m 1477.86,407.406 c 0,20.864 10.38,33.324 27.77,33.324 19.99,0 29.29,-10.992 29.29,-34.589 0,-29.211 -14.82,-35.344 -27.26,-35.344 -18.1,0 -29.8,14.367 -29.8,36.609 z m 22.98,-68.613 c 14.28,0 25.25,4.18 33.33,12.738 v -7.207 c 0,-25.043 -21.2,-28.785 -33.84,-28.785 -18.54,0 -34.27,7.973 -34.42,8.051 l -2.46,1.273 -11.42,-29.136 1.96,-1.043 c 13.45,-7.141 30.97,-11.399 46.85,-11.399 34.02,0 70.38,16.629 70.38,63.317 v 123.359 h -35.04 v -9.719 c -5.45,5.215 -16.67,12.742 -36.1,12.742 -35.6,0 -59.52,-26.757 -59.52,-66.589 0,-39.805 24.79,-67.602 60.28,-67.602" /><path
         id="path44"
         style="fill:#214395;fill-opacity:1;fill-rule:nonzero;stroke:none"
         d="m 619.641,266.586 h 22.23 c 26.625,0 30.293,-12.129 30.293,-25.242 0,-16.379 -9.387,-25.766 -25.754,-25.766 h -26.769 z m 61.531,-73.523 c 17.746,8.496 29.047,27.781 29.047,50.039 0,23.757 -11.199,42.429 -30.739,51.234 -8.605,3.891 -18.32,5.269 -37.113,5.269 H 582.09 V 115.453 h 37.551 v 66.867 h 27.285 L 682.5,115.453 h 42.07 l -38.89,70.598 c -1.797,3.211 -3.36,5.496 -4.508,7.012" /><path
         id="path46"
         style="fill:#214395;fill-opacity:1;fill-rule:nonzero;stroke:none"
         d="m 794.723,222.438 c 12.945,0 21.504,-8.262 22.82,-21.743 h -50.492 c 3.554,13.86 13.496,21.743 27.672,21.743 z m 0.761,29.734 c -39.953,0 -67.855,-28.731 -67.855,-69.871 0,-40.488 30.125,-69.875 71.633,-69.875 32.664,0 52.609,18.32 53.437,19.101 l 1.406,1.321 -14.746,27.39 -2.363,-2.031 c -0.156,-0.137 -15.922,-13.523 -35.457,-13.523 -14.726,0 -32.523,7.675 -35.781,29.058 h 88.285 l 0.199,2.278 c 0.031,0.363 0.762,8.73 0.762,12.589 0,38.614 -23.359,63.563 -59.52,63.563" /><path
         id="path48"
         style="fill:#214395;fill-opacity:1;fill-rule:nonzero;stroke:none"
         d="m 925.898,197.094 c -10.918,4.386 -20.332,8.164 -20.332,13.711 0,6.718 7.481,9.109 13.899,9.109 18.379,0 29.715,-10.32 29.832,-10.426 l 2.449,-2.277 14.145,28.281 -1.235,1.281 c -0.601,0.625 -15.191,15.399 -44.937,15.399 -30.93,0 -51.707,-16.223 -51.707,-40.352 0,-26.297 23.097,-35.761 41.644,-43.371 11.235,-4.597 20.93,-8.57 20.93,-14.668 0,-6.289 -7.234,-9.097 -14.402,-9.097 -19.602,0 -33.172,13.261 -33.309,13.394 l -2.184,2.168 -17.39,-26.676 1.355,-1.437 c 0.766,-0.801 19.035,-19.707 51.782,-19.707 30.437,0 51.707,16.902 51.707,41.105 0,26.582 -24.422,36.395 -42.247,43.563" /><path
         id="path50"
         style="fill:#214395;fill-opacity:1;fill-rule:nonzero;stroke:none"
         d="m 1049.45,144.684 c -20.43,0 -35.85,16.171 -35.85,37.617 0,21.441 15.42,37.613 35.85,37.613 20.3,0 35.6,-16.172 35.6,-37.613 0,-21.446 -15.3,-37.617 -35.6,-37.617 z m -0.25,107.488 c -41.7,0 -73.145,-30.039 -73.145,-69.871 0,-39.836 31.555,-69.875 73.395,-69.875 41.7,0 73.16,30.039 73.16,69.875 0,39.832 -31.56,69.871 -73.41,69.871" /><path
         id="path52"
         style="fill:#214395;fill-opacity:1;fill-rule:nonzero;stroke:none"
         d="m 1227.24,187.594 c 0,-19.699 -10.52,-40.899 -33.59,-40.899 -12.54,0 -17.42,6.66 -17.42,23.739 v 78.703 h -37.05 v -85.254 c 0,-34.145 15.86,-51.457 47.16,-51.457 18.9,0 33.73,9.363 42.16,20.41 0,-0.09 0,-0.164 0,-0.242 v -17.141 h 35.78 v 133.684 h -37.04 v -61.543" /><path
         id="path54"
         style="fill:#214395;fill-opacity:1;fill-rule:nonzero;stroke:none"
         d="m 1365.05,250.902 c -15.62,0 -29.97,-9.148 -38.37,-23.664 v 21.899 H 1290.9 V 115.453 h 37.05 v 53.477 c 0,7.988 0.87,14.59 2.66,20.183 5.87,18.617 20.73,25.246 32.68,25.246 4.03,0 7.16,-0.468 7.19,-0.476 l 2.88,-0.434 v 36.543 l -2.06,0.371 c -0.12,0.024 -3.03,0.539 -6.25,0.539" /><path
         id="path56"
         style="fill:#214395;fill-opacity:1;fill-rule:nonzero;stroke:none"
         d="m 1488.18,160.324 c -0.14,-0.152 -15.64,-15.64 -36.06,-15.64 -24.7,0 -37.62,19.05 -37.62,37.871 0,21.648 15.4,37.359 36.61,37.359 18.82,0 31.62,-12.984 31.76,-13.113 l 2.19,-2.266 16.83,26.145 -1.16,1.406 c -0.68,0.82 -17.05,20.086 -51.38,20.086 -41.95,0 -72.4,-29.387 -72.4,-69.871 0,-40.488 30.45,-69.875 72.4,-69.875 35.28,0 54.08,20.91 54.86,21.797 l 1.16,1.308 -14.81,27.207 -2.38,-2.414" /><path
         id="path58"
         style="fill:#214395;fill-opacity:1;fill-rule:nonzero;stroke:none"
         d="m 1576.1,222.438 c 12.95,0 21.51,-8.262 22.83,-21.743 h -50.49 c 3.55,13.86 13.49,21.743 27.66,21.743 z m 0.77,29.734 c -39.96,0 -67.86,-28.731 -67.86,-69.871 0,-40.488 30.13,-69.875 71.63,-69.875 32.67,0 52.61,18.32 53.44,19.101 l 1.41,1.321 -14.76,27.39 -2.36,-2.031 c -0.16,-0.137 -15.91,-13.523 -35.45,-13.523 -14.73,0 -32.52,7.675 -35.78,29.058 h 88.29 l 0.2,2.278 c 0.02,0.363 0.76,8.73 0.76,12.589 0,38.614 -23.36,63.563 -59.52,63.563" /><path
         id="path60"
         style="fill:#214395;fill-opacity:1;fill-rule:nonzero;stroke:none"
         d="m 1707.28,197.094 c -10.91,4.386 -20.33,8.164 -20.33,13.711 0,6.718 7.48,9.109 13.9,9.109 18.37,0 29.72,-10.32 29.83,-10.426 l 2.45,-2.277 14.15,28.281 -1.24,1.281 c -0.6,0.625 -15.2,15.399 -44.94,15.399 -30.92,0 -51.71,-16.223 -51.71,-40.352 0,-26.297 23.1,-35.761 41.65,-43.371 11.24,-4.597 20.93,-8.57 20.93,-14.668 0,-6.289 -7.23,-9.097 -14.4,-9.097 -19.6,0 -33.18,13.261 -33.31,13.394 l -2.18,2.168 -17.39,-26.676 1.35,-1.437 c 0.77,-0.801 19.04,-19.707 51.78,-19.707 30.44,0 51.7,16.902 51.7,41.105 0,26.582 -24.41,36.395 -42.24,43.563" /><path
         id="path62"
         style="fill:#214395;fill-opacity:1;fill-rule:nonzero;stroke:none"
         d="m 1785.49,237.613 c 1.97,0 3.17,1.258 3.17,3.297 0,2.113 -1.2,3.254 -3.11,3.254 h -2.89 v -6.551 z m -7.94,10.274 h 9.13 c 4.33,0 7.21,-2.766 7.21,-6.977 0,-3.418 -2.34,-5.281 -3.9,-5.699 v -0.117 c 0,0 0.23,-0.246 0.78,-1.262 l 4.14,-7.93 h -5.64 l -3.72,8.106 h -2.89 v -8.106 h -5.11 z m 7.51,-28.293 c 9.26,0 16.35,7.566 16.35,17.179 0,9.547 -7.09,17.118 -16.35,17.118 -9.07,0 -16.1,-7.571 -16.1,-17.118 0,-9.613 7.03,-17.179 16.1,-17.179 z m 0,39.16 c 12.02,0 21.63,-9.785 21.63,-21.981 0,-12.199 -9.61,-22.05 -21.63,-22.05 -11.84,0 -21.45,9.851 -21.45,22.05 0,12.196 9.61,21.981 21.45,21.981" /></g></g></svg>