<?xml version="1.0" encoding="utf-8"?>
<!-- Generator: Adobe Illustrator 16.0.0, SVG Export Plug-In . SVG Version: 6.00 Build 0)  -->
<!DOCTYPE svg PUBLIC "-//W3C//DTD SVG 1.1//EN" "http://www.w3.org/Graphics/SVG/1.1/DTD/svg11.dtd">
<svg version="1.1" id="RGB_final_MB_xA0_Image_1_" xmlns="http://www.w3.org/2000/svg" xmlns:xlink="http://www.w3.org/1999/xlink"
	 x="0px" y="0px" width="2550.96px" height="2009.52px" viewBox="0 0 2550.96 2009.52" enable-background="new 0 0 2550.96 2009.52"
	 xml:space="preserve">
<path fill="#666666" d="M616.48,1381.26l78.5,409.5l-61,0.5l-12-77.5l-77,0.5l-12.5,77.5l-60.5-1.5l79.5-409.499L616.48,1381.26z
	 M583.48,1478.093l-29.667,183h59.667L583.48,1478.093z"/>
<path fill="#FF0000" d="M1099.73,1295.885l85.75-0.458c103.333-10.666,106.667-106.667,106.667-106.667v-884
	c-4.667-102.667-104.667-110.667-104.667-110.667l-324,1.333l-120.667,120L621.48,194.093c0,0-328.5,0.667-327.333,0.667
	C193.48,210.093,190.813,302.093,190.813,302.093l-0.667,888c14.667,98,105.833,105.668,105.833,105.668l85.5-0.001l-1-915l719-0.5
	L1099.73,1295.885z"/>
<path fill="#666666" d="M434.813,418.593l505.167,0.667c0,0,100-6,101,78.5s-0.5,229-0.5,229s3.333,48.333-49,71.333
	s-86.667,38.667-86.667,38.667l97.667,44.333c0,0,45,23.333,44.667,69s-0.167,275.667-0.167,275.667s0,68.5-110.5,68.5
	s-501,0.5-501,0.5L434.813,418.593z M622.146,530.092l-0.667,256l145.333-0.667l88-44.667V530.092H622.146z M622.48,1184.76l238,1
	v-251l-93-43h-146L622.48,1184.76z"/>
<polygon fill="#009900" points="1304.147,352.262 1489.98,1295.76 1691.48,1295.26 "/>
<polygon fill="#003399" points="1304.147,352.262 1731.48,1295.26 1949.98,1294.76 "/>
<polygon fill="#FF0000" points="1304.147,352.262 1986.48,1295.76 2202.23,1295.51 "/>
<path fill="#666666" d="M191.48,1382.093l-0.667,409.67l59-0.167l-0.583-208.836c0,0-0.25-26.75-3.25-34.25s40,135.25,53,205.25
	h31.5c0,0,49-191.665,52.333-204.999c0.804-3.218-2.251,18.242-2.333,39c-0.257,65.251-0.5,203.499-0.5,203.499l58,0.5
	l0.833-409.666l-57.333-0.667l-64.5,227.333c0,0-1.75,9.75-1.75,13s-0.625-7-1.75-12.75s-65.333-226.917-65.333-226.917H191.48z"/>
<polygon fill="none" points="583.48,1477.76 613.48,1661.093 553.813,1661.093 "/>
<path fill="#666666" d="M825.48,1572.76h106.667l-0.667,186c0,0,2,32.5-34.5,33s-138.25-0.5-138.25-0.5s-28.917-2.166-28.917-32.166
	s-0.333-346.084-0.333-346.084s2.75-31,32.25-31s139.75-0.25,139.75-0.25s30.5-0.5,30.5,34.25s0.5,91,0.5,91l-61.75-0.25l-0.5-71.5
	h-79l-0.75,303.834l80.5-0.333l0.125-114.501H825.23L825.48,1572.76z"/>
<polygon fill="#666666" points="982.147,1381.761 1043.98,1381.761 1044.146,1791.426 981.813,1791.76 "/>
<path fill="#666666" d="M1234.313,1515.427l61.333,0.334l-0.167-99.501c0,0,2.75-34.625-35.375-34.625s-133.958,0.292-133.958,0.292
	s-32.5-1.666-32.5,36.667s0,336.541,0,336.541s-2.042,36.875,33.958,36.875s134.125-0.5,134.125-0.5s34.125,0.75,34.125-34.125
	s-0.041-104.792-0.041-104.792l-61.5,0.167l-0.042,86.084l-78.958-0.083l-0.208-304.251l79.208,0.167V1515.427z"/>
<path fill="#666666" d="M1495.814,1381.594l166.072,0.312c0,0,32.874-2.81,33.201,36.745c0.329,39.553-0.164,107.191-0.164,107.191
	s1.095,22.624-16.109,33.392c-17.203,10.765-28.49,18.098-28.49,18.098l32.106,20.754c0,0,14.795,10.92,14.685,32.298
	c-0.11,21.375-0.055,129.035-0.055,129.035s0,32.063-36.325,32.063c-36.327,0-164.702,0.234-164.702,0.234L1495.814,1381.594z
	 M1557.398,1433.785l-0.221,119.83l47.779-0.313l28.93-20.906v-98.61H1557.398z M1557.508,1740.226l78.241,0.47v-117.491
	l-30.572-20.128h-48L1557.508,1740.226z"/>
<path fill="#666666" d="M1778.147,1382.094h140.667c0,0,32.333-1.833,32.333,33s0.084,343.666,0.084,343.666s2.166,32.5-33.917,32.5
	s-138.084,0.125-138.084,0.125s-34.125,1.875-34.125-32.875s0.125-341.375,0.125-341.375S1743.189,1382.094,1778.147,1382.094z
	 M1806.48,1738.761l84.167-0.167V1434.26l-84.167,0.167V1738.761z"/>
<polygon fill="#666666" points="1987.98,1382.01 2053.23,1381.76 2094.147,1515.427 2135.147,1381.427 2200.731,1381.677 
	2128.73,1579.76 2205.23,1791.51 2139.147,1791.427 2093.73,1648.26 2048.73,1791.51 1983.147,1790.76 2059.814,1582.427 "/>
</svg>
