<?xml version="1.0" encoding="UTF-8" standalone="no"?>
<svg
   xmlns:dc="http://purl.org/dc/elements/1.1/"
   xmlns:cc="http://creativecommons.org/ns#"
   xmlns:rdf="http://www.w3.org/1999/02/22-rdf-syntax-ns#"
   xmlns:svg="http://www.w3.org/2000/svg"
   xmlns="http://www.w3.org/2000/svg"
   viewBox="0 300 793.70667 522.52"
   height="522.52"
   width="793.70667"
   xml:space="preserve"
   id="svg2"
   version="1.1"><metadata
     id="metadata8"><rdf:RDF><cc:Work
         rdf:about=""><dc:format>image/svg+xml</dc:format><dc:type
           rdf:resource="http://purl.org/dc/dcmitype/StillImage" /></cc:Work></rdf:RDF></metadata><defs
     id="defs6"><clipPath
       id="clipPath18"
       clipPathUnits="userSpaceOnUse"><path
         id="path16"
         d="M 0,841.89 H 595.28 V 0 H 0 Z" /></clipPath></defs><g
     transform="matrix(1.3333333,0,0,-1.3333333,0,1122.52)"
     id="g10"><g
       id="g12"><g
         clip-path="url(#clipPath18)"
         id="g14"><g
           transform="translate(286.249,446.8203)"
           id="g20"><path
             id="path22"
             style="fill:#ed1c24;fill-opacity:1;fill-rule:evenodd;stroke:none"
             d="m 0,0 c 0.741,9.542 1.252,17.618 1.524,24.256 0.286,6.635 0.423,12.298 0.423,17.013 l -0.031,3.408 c 3.767,-0.046 6.535,-0.068 8.301,-0.068 1.38,0 3.883,0.022 7.509,0.068 -0.548,-6.458 -0.861,-11.574 -0.927,-15.352 h 12.398 c 0.096,1.968 0.177,4.168 0.237,6.616 0.065,2.434 0.096,4.143 0.096,5.128 0,0.827 -0.031,2.033 -0.078,3.608 l 8.388,-0.068 c 0.784,0 3.245,0.022 7.392,0.068 L 43.998,23.171 C 43.827,19.875 43.707,16.859 43.659,14.122 43.597,11.385 43.566,8.625 43.566,5.856 L 43.597,0 35.918,0.101 c -1.036,0 -3.794,-0.034 -8.281,-0.101 0.5,4.805 0.822,10.501 0.978,17.116 H 16.214 L 15.747,0 7.519,0.101 C 6.593,0.101 4.081,0.067 -0.008,0" /></g><g
           transform="translate(330.9941,446.8203)"
           id="g24"><path
             id="path26"
             style="fill:#ed1c24;fill-opacity:1;fill-rule:evenodd;stroke:none"
             d="m 0,0 2.348,4.548 4.648,9.629 11.194,24.054 2.715,6.446 c 4.243,-0.046 7.26,-0.068 9.058,-0.068 3.285,0 6.344,0.022 9.191,0.068 L 43.223,31.393 51.907,4.815 53.626,0 C 49.463,0.067 47.008,0.101 46.264,0.101 44.315,0.101 41.395,0.067 37.503,0 36.963,2.591 36.037,6.012 34.695,10.245 H 20.712 C 19.51,7.385 18.181,3.966 16.704,0 12.215,0.067 9.537,0.101 8.653,0.101 6.953,0.101 4.07,0.067 0,0 m 24.955,21.864 h 7.249 l -1.382,4.982 c -0.477,1.744 -0.996,3.731 -1.544,5.954 -0.577,-1.563 -1.049,-2.815 -1.409,-3.731 z" /></g><g
           transform="translate(386.6826,446.8203)"
           id="g28"><path
             id="path30"
             style="fill:#ed1c24;fill-opacity:1;fill-rule:evenodd;stroke:none"
             d="m 0,0 c 0.561,5.675 0.953,10.267 1.175,13.775 0.224,3.519 0.419,8.201 0.576,14.066 0.148,5.853 0.227,11.474 0.227,16.836 2.405,-0.09 4.338,-0.134 5.818,-0.134 1.601,0 3.657,0.066 6.162,0.179 2.5,0.122 4.986,0.189 7.449,0.189 2.972,0 5.378,-0.088 7.187,-0.244 1.821,-0.168 3.383,-0.504 4.715,-1.007 1.33,-0.502 2.416,-1.094 3.256,-1.776 0.841,-0.692 1.546,-1.497 2.132,-2.425 0.586,-0.928 1.045,-1.999 1.378,-3.229 0.334,-1.216 0.497,-2.536 0.497,-3.955 0,-3.082 -0.675,-5.708 -2.018,-7.91 -1.344,-2.188 -3.259,-3.93 -5.743,-5.217 L 35.646,9.62 38.627,0 c -3.94,0.067 -6.511,0.101 -7.731,0.101 -1.588,0 -4.354,-0.034 -8.287,-0.101 -0.34,1.609 -0.702,3.42 -1.085,5.417 -0.379,1.991 -0.791,4.012 -1.231,6.035 l -1.466,6.735 c -0.539,2.449 -1.077,4.828 -1.633,7.14 0.862,-0.168 1.702,-0.257 2.521,-0.257 1.28,0 2.397,0.178 3.333,0.536 0.95,0.368 1.664,0.928 2.153,1.709 0.49,0.771 0.736,1.598 0.736,2.469 0,0.637 -0.138,1.207 -0.403,1.709 -0.263,0.503 -0.605,0.873 -1.014,1.131 -0.416,0.244 -0.942,0.445 -1.596,0.59 -0.646,0.136 -1.829,0.213 -3.532,0.213 -0.565,0 -1.034,-0.012 -1.396,-0.032 L 15.979,33.259 C 15.757,29.661 15.551,25.248 15.385,20.031 15.148,12.636 15.013,5.954 14.955,0 10.943,0.067 8.399,0.101 7.335,0.101 6.075,0.101 3.63,0.067 0,0" /></g><g
           transform="translate(441.2598,446.8203)"
           id="g32"><path
             id="path34"
             style="fill:#ed1c24;fill-opacity:1;fill-rule:evenodd;stroke:none"
             d="m 0,0 -1.124,4.158 -7.043,23.437 -5.299,17.082 c 3.247,-0.046 6.101,-0.068 8.569,-0.068 1.453,0 3.838,0.022 7.167,0.068 L 3.039,41.079 7.332,24.478 9.771,14.01 c 0.839,2.636 1.551,4.772 2.148,6.379 1.088,3.016 2.417,6.548 3.979,10.602 l 3.491,9.005 c 0.382,0.983 0.929,2.547 1.636,4.681 3.453,-0.046 6.188,-0.068 8.191,-0.068 1.205,0 3.765,0.022 7.68,0.068 L 30.968,31.616 18.931,4.191 17.24,0 C 13.805,0.067 11.01,0.101 8.877,0.101 6.696,0.101 3.734,0.067 0,0" /></g><g
           transform="translate(477.3301,446.8203)"
           id="g36"><path
             id="path38"
             style="fill:#ed1c24;fill-opacity:1;fill-rule:evenodd;stroke:none"
             d="m 0,0 c 0.442,4.828 0.804,9.194 1.078,13.105 0.276,3.922 0.537,9.173 0.772,15.752 0.245,6.57 0.364,10.848 0.364,12.802 l -0.033,3.018 3.237,-0.035 h 3.491 l 3.607,-0.033 h 13.868 l 6.79,0.033 3.752,0.035 -0.117,-1.542 c 0,-0.078 -0.011,-0.257 -0.033,-0.514 l -0.339,-7.766 c -0.02,-0.165 -0.031,-0.435 -0.031,-0.78 l -0.055,-1.341 c -4.197,0.18 -7.13,0.267 -8.793,0.267 -2.806,0 -4.675,-0.009 -5.622,-0.033 -0.95,-0.021 -2.514,-0.077 -4.713,-0.168 L 16.92,28.443 c 2.921,-0.045 4.966,-0.067 6.141,-0.067 1.25,0 2.55,0.022 3.892,0.067 l 5.789,0.202 -0.686,-12.211 c -2.58,0.045 -4.812,0.067 -6.699,0.067 -2.739,0 -5.78,-0.078 -9.13,-0.234 l -0.324,-4.681 3.47,-0.034 c 0.418,0 0.843,0.011 1.263,0.034 l 11.509,0.357 c 0.459,0.023 1.562,0.1 3.323,0.234 C 35.225,8.356 34.999,4.301 34.813,0 30.109,0.067 24.498,0.101 17.966,0.101 L 11.376,0.067 3.813,0.034 Z" /></g><g
           transform="translate(518.4902,447.311)"
           id="g40"><path
             id="path42"
             style="fill:#ed1c24;fill-opacity:1;fill-rule:evenodd;stroke:none"
             d="m 0,0 c -0.323,5.843 -0.676,10.335 -1.057,13.452 2.161,-1.073 4.078,-1.822 5.751,-2.247 1.67,-0.424 3.253,-0.635 4.773,-0.635 0.681,0 1.379,0.065 2.091,0.201 0.705,0.122 1.212,0.345 1.535,0.647 0.311,0.313 0.47,0.693 0.47,1.15 0,0.214 -0.031,0.435 -0.089,0.671 -0.06,0.223 -0.134,0.425 -0.253,0.604 -0.196,0.345 -0.481,0.736 -0.863,1.149 -0.133,0.146 -0.985,0.985 -2.551,2.481 L 6.94,20.355 C 6.042,21.25 5.31,22.008 4.722,22.633 4.137,23.249 3.598,23.92 3.091,24.634 2.58,25.337 2.16,26.075 1.818,26.834 1.466,27.607 1.212,28.411 1.033,29.26 0.871,30.109 0.78,30.991 0.78,31.907 c 0,1.207 0.167,2.391 0.491,3.552 0.323,1.173 0.8,2.281 1.448,3.34 0.635,1.063 1.368,1.945 2.199,2.671 0.833,0.715 1.817,1.365 2.961,1.944 1.156,0.58 2.485,1.005 4.022,1.273 1.525,0.279 3.128,0.414 4.81,0.414 1.522,0 3.283,-0.112 5.283,-0.323 1.991,-0.225 4.096,-0.593 6.283,-1.117 0.08,-1.833 0.167,-3.542 0.266,-5.139 0.089,-1.588 0.305,-4.202 0.628,-7.821 -1.664,0.826 -3.247,1.419 -4.754,1.789 -1.517,0.355 -2.865,0.534 -4.067,0.534 -1.378,0 -2.427,-0.201 -3.139,-0.602 -0.715,-0.403 -1.077,-0.918 -1.077,-1.52 0,-0.223 0.031,-0.448 0.096,-0.693 0.071,-0.234 0.258,-0.581 0.561,-1.027 0.312,-0.447 0.791,-0.984 1.442,-1.61 0.668,-0.615 1.326,-1.218 1.968,-1.774 1.84,-1.577 3.072,-2.661 3.697,-3.265 0.637,-0.603 1.26,-1.283 1.879,-2.066 0.625,-0.771 1.145,-1.52 1.563,-2.235 0.42,-0.726 0.744,-1.384 0.958,-1.999 0.226,-0.614 0.384,-1.207 0.489,-1.798 0.109,-0.592 0.156,-1.218 0.156,-1.9 0,-2.056 -0.439,-4.034 -1.317,-5.944 -0.882,-1.91 -2.134,-3.474 -3.767,-4.714 -1.632,-1.23 -3.422,-2.079 -5.356,-2.547 -1.94,-0.469 -3.991,-0.705 -6.154,-0.705 -1.37,0 -3.129,0.113 -5.269,0.325 C 4.937,-0.826 2.58,-0.481 0,0" /></g><g
           transform="translate(561.6143,446.8203)"
           id="g44"><path
             id="path46"
             style="fill:#ed1c24;fill-opacity:1;fill-rule:evenodd;stroke:none"
             d="m 0,0 c 1.088,10.85 1.673,21.797 1.771,32.858 l -3.063,-0.068 -2.063,-0.033 -7.04,-0.257 0.34,10.312 0.033,1.865 c 5.67,-0.046 12.446,-0.068 20.308,-0.068 h 7.48 l 7.677,0.033 4.039,0.035 -0.255,-5.429 C 29.149,37.84 29.103,36.499 29.081,35.247 29.062,33.985 29.053,33.069 29.053,32.5 l -7.481,0.323 -1.665,0.035 H 16.925 C 16.184,24.266 15.733,13.316 15.557,0 11.646,0.067 9.171,0.101 8.137,0.101 7.217,0.101 4.508,0.067 0,0" /></g><g
           transform="translate(86.418,446.5601)"
           id="g48"><path
             id="path50"
             style="fill:#ed1c24;fill-opacity:1;fill-rule:evenodd;stroke:none"
             d="m 0,0 c 0.431,4.869 0.728,8.735 0.9,11.617 0.229,4.369 0.439,9.598 0.63,15.697 0.202,6.1 0.296,10.446 0.296,13.037 l -0.027,4.325 c 2.219,-0.09 4.065,-0.136 5.518,-0.136 1.761,0 3.934,0.068 6.534,0.18 2.594,0.124 5.234,0.188 7.921,0.188 3.445,0 6.076,-0.256 7.894,-0.769 1.816,-0.513 3.462,-1.34 4.916,-2.48 1.454,-1.128 2.688,-2.57 3.682,-4.302 1.006,-1.731 1.761,-3.764 2.287,-6.087 0.526,-2.325 0.785,-4.726 0.785,-7.219 0,-2.524 -0.248,-4.994 -0.755,-7.395 C 40.091,14.389 39.412,12.31 38.533,10.41 37.689,8.601 36.715,7.047 35.606,5.764 34.496,4.467 33.204,3.384 31.751,2.491 30.611,1.787 29.416,1.261 28.184,0.914 26.938,0.569 25.179,0.323 22.893,0.199 20.892,0.065 18.962,0 17.095,0 L 5.043,0.134 C 3.98,0.134 2.296,0.089 0,0 m 14.903,12.053 c 0.72,-0.133 1.446,-0.202 2.192,-0.202 2.181,0 3.952,0.449 5.299,1.331 1.341,0.882 2.325,2.323 2.958,4.312 0.62,1.999 0.935,4.101 0.935,6.301 0,2.972 -0.584,5.273 -1.75,6.928 -1.167,1.641 -3.146,2.467 -5.951,2.467 -0.84,0 -1.787,-0.078 -2.86,-0.235 z" /></g><g
           transform="translate(126.5576,446.5601)"
           id="g52"><path
             id="path54"
             style="fill:#ed1c24;fill-opacity:1;fill-rule:evenodd;stroke:none"
             d="m 0,0 2.295,4.545 4.543,9.632 10.953,24.052 2.661,6.447 c 4.151,-0.045 7.098,-0.068 8.858,-0.068 3.214,0 6.208,0.023 8.992,0.068 L 42.282,31.393 50.777,4.815 52.46,0 C 48.385,0.065 45.983,0.1 45.257,0.1 43.353,0.1 40.493,0.065 36.684,0 36.159,2.591 35.251,6.009 33.94,10.244 H 20.261 C 19.083,7.384 17.783,3.966 16.338,0 11.947,0.065 9.325,0.1 8.465,0.1 6.801,0.1 3.979,0.065 0,0 m 24.412,21.862 h 7.089 l -1.348,4.983 c -0.47,1.744 -0.978,3.732 -1.513,5.955 -0.564,-1.563 -1.024,-2.816 -1.377,-3.732 z" /></g><g
           transform="translate(187.0537,446.5601)"
           id="g56"><path
             id="path58"
             style="fill:#ed1c24;fill-opacity:1;fill-rule:evenodd;stroke:none"
             d="m 0,0 c 1.063,10.847 1.636,21.794 1.733,32.854 l -2.995,-0.065 -2.019,-0.035 -6.886,-0.256 0.333,10.312 0.029,1.866 c 5.548,-0.045 12.177,-0.068 19.869,-0.068 h 7.318 l 7.508,0.034 3.953,0.034 -0.248,-5.431 C 28.517,37.838 28.469,36.498 28.45,35.246 28.432,33.984 28.423,33.067 28.423,32.498 l -7.319,0.324 -1.626,0.032 H 16.56 C 15.833,24.266 15.391,13.316 15.221,0 11.395,0.065 8.974,0.1 7.96,0.1 7.06,0.1 4.411,0.065 0,0" /></g><g
           transform="translate(207.228,446.5601)"
           id="g60"><path
             id="path62"
             style="fill:#ed1c24;fill-opacity:1;fill-rule:evenodd;stroke:none"
             d="m 0,0 2.296,4.545 4.544,9.632 10.953,24.052 2.66,6.447 c 4.151,-0.045 7.099,-0.068 8.858,-0.068 3.215,0 6.209,0.023 8.992,0.068 L 42.282,31.393 50.778,4.815 52.461,0 C 48.386,0.065 45.984,0.1 45.259,0.1 43.354,0.1 40.495,0.065 36.686,0 36.16,2.591 35.251,6.009 33.941,10.244 H 20.263 C 19.085,7.384 17.784,3.966 16.34,0 11.948,0.065 9.327,0.1 8.467,0.1 6.802,0.1 3.981,0.065 0,0 m 24.414,21.862 h 7.087 l -1.346,4.983 c -0.472,1.744 -0.978,3.732 -1.513,5.955 -0.565,-1.563 -1.025,-2.816 -1.379,-3.732 z" /></g><g
           transform="translate(44.0859,315.0059)"
           id="g64"><path
             id="path66"
             style="fill:#ed1c24;fill-opacity:1;fill-rule:evenodd;stroke:none"
             d="M 0,0 0.071,-39.311 18.652,-39.498 18.761,0.008 16.627,0.125 9.285,-13.949 2.385,0.232 Z" /></g><g
           transform="translate(66.6587,379.123)"
           id="g68"><path
             id="path70"
             style="fill:#ed1c24;fill-opacity:1;fill-rule:evenodd;stroke:none"
             d="m 0,0 -9.497,-20.041 9.344,-20.023 9.665,19.929 z" /></g><g
           transform="translate(53.4829,365.3809)"
           id="g72"><path
             id="path74"
             style="fill:#ed1c24;fill-opacity:1;fill-rule:evenodd;stroke:none"
             d="M 0,0 -9.344,20.119 0.153,40.064 9.667,20.055 Z" /></g><g
           transform="translate(40.4507,431.1343)"
           id="g76"><path
             id="path78"
             style="fill:#ed1c24;fill-opacity:1;fill-rule:evenodd;stroke:none"
             d="m 0,0 -9.497,-20.042 9.344,-20.024 9.667,19.934 z" /></g><g
           transform="translate(26.8916,416.041)"
           id="g80"><path
             id="path82"
             style="fill:#ed1c24;fill-opacity:1;fill-rule:evenodd;stroke:none"
             d="M 0,0 -9.586,20.64 0.094,41.116 9.915,20.573 Z" /></g><g
           transform="translate(79.6929,365.1953)"
           id="g84"><path
             id="path86"
             style="fill:#ed1c24;fill-opacity:1;fill-rule:evenodd;stroke:none"
             d="M 0,0 -9.344,20.117 0.152,40.064 9.665,20.053 Z" /></g><g
           transform="translate(66.6719,391.0547)"
           id="g88"><path
             id="path90"
             style="fill:#ed1c24;fill-opacity:1;fill-rule:evenodd;stroke:none"
             d="M 0,0 -9.342,20.119 0.153,40.065 9.667,20.053 Z" /></g><g
           transform="translate(40.2891,442.104)"
           id="g92"><path
             id="path94"
             style="fill:#ed1c24;fill-opacity:1;fill-rule:evenodd;stroke:none"
             d="M 0,0 -9.586,20.638 0.157,41.103 9.917,20.572 Z" /></g><g
           transform="translate(90.8657,392.4805)"
           id="g96"><path
             id="path98"
             style="fill:#ed1c24;fill-opacity:1;fill-rule:evenodd;stroke:none"
             d="M 0,0 -9.226,19.867 0.153,39.565 9.547,19.803 Z" /></g><g
           transform="translate(53.292,467.668)"
           id="g100"><path
             id="path102"
             style="fill:#ed1c24;fill-opacity:1;fill-rule:evenodd;stroke:none"
             d="M 0,0 -9.586,20.638 0.156,41.104 9.917,20.573 Z" /></g><g
           transform="translate(53.5879,353.1602)"
           id="g104"><path
             id="path106"
             style="fill:#ed1c24;fill-opacity:1;fill-rule:evenodd;stroke:none"
             d="m 0,0 -9.498,-20.039 9.346,-20.025 9.664,19.933 z" /></g><g
           transform="translate(40.3667,379.2852)"
           id="g108"><path
             id="path110"
             style="fill:#ed1c24;fill-opacity:1;fill-rule:evenodd;stroke:none"
             d="m 0,0 -9.498,-20.041 9.345,-20.023 9.666,19.933 z" /></g><g
           transform="translate(26.8267,405.4102)"
           id="g112"><path
             id="path114"
             style="fill:#ed1c24;fill-opacity:1;fill-rule:evenodd;stroke:none"
             d="m 0,0 -9.497,-20.039 9.344,-20.024 9.666,19.928 z" /></g><g
           transform="translate(13.498,431.2861)"
           id="g116"><path
             id="path118"
             style="fill:#ed1c24;fill-opacity:1;fill-rule:evenodd;stroke:none"
             d="m 0,0 -9.498,-20.04 9.344,-20.025 9.665,19.933 z" /></g><g
           transform="translate(113.23,526.1323)"
           id="g120"><path
             id="path122"
             style="fill:#ed1c24;fill-opacity:1;fill-rule:evenodd;stroke:none"
             d="M 0,0 -9.605,20.019 0.152,39.868 9.93,19.953 0,-0.002 Z" /></g><g
           transform="translate(126.042,502.1143)"
           id="g124"><path
             id="path126"
             style="fill:#ed1c24;fill-opacity:1;fill-rule:evenodd;stroke:none"
             d="m 0,0 -9.451,19.621 9.6,19.447 9.62,-19.514 z" /></g><g
           transform="translate(100.2217,502.0239)"
           id="g128"><path
             id="path130"
             style="fill:#ed1c24;fill-opacity:1;fill-rule:evenodd;stroke:none"
             d="M 0,0 -9.449,19.619 0.149,39.07 9.769,19.553 Z" /></g><g
           transform="translate(161.8999,383.5586)"
           id="g132"><path
             id="path134"
             style="fill:#13100f;fill-opacity:1;fill-rule:nonzero;stroke:none"
             d="M 0,0 H 11.101 L 7.683,9.068 C 6.641,11.822 5.867,14.086 5.36,15.857 4.943,13.758 4.355,11.672 3.596,9.604 Z M -9.448,-13.447 3.127,19.297 H 7.795 L 21.196,-13.447 H 16.26 l -3.819,9.918 H -1.251 l -3.596,-9.918 z" /></g><g
           transform="translate(195.269,380.6328)"
           id="g136"><path
             id="path138"
             style="fill:#13100f;fill-opacity:1;fill-rule:nonzero;stroke:none"
             d="m 0,0 4.087,0.355 c 0.194,-1.636 0.644,-2.98 1.351,-4.031 0.708,-1.049 1.806,-1.898 3.295,-2.545 1.489,-0.648 3.164,-0.972 5.025,-0.972 1.653,0 3.112,0.246 4.378,0.738 1.266,0.49 2.207,1.164 2.825,2.019 0.618,0.858 0.927,1.791 0.927,2.805 0,1.027 -0.297,1.924 -0.893,2.692 -0.596,0.765 -1.578,1.41 -2.948,1.931 C 17.168,3.334 15.225,3.867 12.217,4.59 9.209,5.311 7.102,5.992 5.896,6.633 4.333,7.451 3.168,8.467 2.401,9.682 c -0.767,1.213 -1.15,2.572 -1.15,4.076 0,1.652 0.469,3.197 1.407,4.635 0.938,1.437 2.308,2.527 4.109,3.271 1.802,0.744 3.805,1.117 6.009,1.117 2.427,0 4.567,-0.39 6.421,-1.174 1.854,-0.781 3.28,-1.931 4.277,-3.449 0.998,-1.519 1.534,-3.238 1.608,-5.16 l -4.154,-0.312 c -0.223,2.07 -0.979,3.632 -2.267,4.689 -1.288,1.059 -3.19,1.586 -5.707,1.586 -2.62,0 -4.53,-0.481 -5.729,-1.44 -1.198,-0.96 -1.798,-2.119 -1.798,-3.474 0,-1.176 0.425,-2.145 1.273,-2.902 0.834,-0.76 3.012,-1.54 6.533,-2.334 3.522,-0.797 5.938,-1.495 7.248,-2.088 1.906,-0.879 3.313,-1.993 4.222,-3.34 0.908,-1.348 1.362,-2.901 1.362,-4.656 0,-1.745 -0.499,-3.385 -1.496,-4.926 -0.998,-1.541 -2.431,-2.74 -4.3,-3.596 -1.869,-0.857 -3.972,-1.285 -6.31,-1.285 -2.963,0 -5.446,0.432 -7.448,1.297 C 4.508,-8.92 2.937,-7.621 1.798,-5.887 0.659,-4.152 0.059,-2.189 0,0" /></g><g
           transform="translate(235.584,370.1113)"
           id="g140"><path
             id="path142"
             style="fill:#13100f;fill-opacity:1;fill-rule:nonzero;stroke:none"
             d="m 0,0 v 28.879 h -10.788 v 3.865 H 15.166 V 28.879 H 4.333 V 0 Z" /></g><g
           transform="translate(255.2837,370.1113)"
           id="g144"><path
             id="path146"
             style="fill:#13100f;fill-opacity:1;fill-rule:nonzero;stroke:none"
             d="M 0,0 V 32.744 H 23.675 V 28.879 H 4.333 V 18.852 H 22.447 V 15.01 H 4.333 V 3.865 H 24.434 V 0 Z" /></g><g
           transform="translate(285.5698,370.1113)"
           id="g148"><path
             id="path150"
             style="fill:#13100f;fill-opacity:1;fill-rule:nonzero;stroke:none"
             d="m 0,0 v 32.744 h 6.522 l 7.75,-23.183 c 0.715,-2.161 1.236,-3.776 1.564,-4.848 0.372,1.191 0.953,2.941 1.742,5.248 l 7.84,22.783 h 5.829 V 0 H 27.071 V 27.406 L 17.556,0 H 13.647 L 4.177,27.875 V 0 Z" /></g><g
           transform="translate(359.8799,381.5918)"
           id="g152"><path
             id="path154"
             style="fill:#13100f;fill-opacity:1;fill-rule:nonzero;stroke:none"
             d="M 0,0 4.333,-1.094 C 3.424,-4.652 1.79,-7.367 -0.57,-9.236 c -2.36,-1.868 -5.245,-2.803 -8.655,-2.803 -3.529,0 -6.399,0.719 -8.61,2.156 -2.211,1.438 -3.894,3.518 -5.048,6.242 -1.154,2.725 -1.731,5.651 -1.731,8.778 0,3.41 0.652,6.384 1.954,8.924 1.303,2.539 3.157,4.466 5.562,5.785 2.405,1.318 5.051,1.976 7.94,1.976 3.276,0 6.031,-0.834 8.264,-2.502 2.234,-1.668 3.79,-4.013 4.668,-7.035 l -4.266,-1.006 c -0.759,2.383 -1.862,4.117 -3.305,5.203 -1.445,1.088 -3.261,1.633 -5.45,1.633 -2.517,0 -4.62,-0.603 -6.31,-1.81 -1.69,-1.205 -2.877,-2.826 -3.562,-4.858 -0.685,-2.033 -1.028,-4.129 -1.028,-6.287 0,-2.785 0.406,-5.217 1.217,-7.293 0.812,-2.076 2.074,-3.629 3.786,-4.656 1.713,-1.027 3.566,-1.541 5.562,-1.541 2.427,0 4.482,0.699 6.164,2.098 1.683,1.4 2.822,3.478 3.418,6.232" /></g><g
           transform="translate(371.6729,381.9727)"
           id="g156"><path
             id="path158"
             style="fill:#13100f;fill-opacity:1;fill-rule:nonzero;stroke:none"
             d="m 0,0 c 0,-3.039 0.662,-5.312 1.987,-6.824 1.326,-1.512 2.993,-2.268 5.004,-2.268 1.995,0 3.655,0.76 4.98,2.278 1.326,1.519 1.988,3.835 1.988,6.947 0,2.933 -0.666,5.156 -1.999,6.668 C 10.627,8.311 8.971,9.068 6.991,9.068 4.98,9.068 3.313,8.316 1.987,6.811 0.662,5.307 0,3.037 0,0 m -4.132,0 c 0,4.391 1.221,7.645 3.663,9.76 2.04,1.756 4.526,2.635 7.46,2.635 3.26,0 5.926,-1.069 7.996,-3.204 2.069,-2.138 3.104,-5.089 3.104,-8.857 0,-3.053 -0.458,-5.453 -1.373,-7.203 -0.916,-1.75 -2.249,-3.11 -3.998,-4.076 -1.75,-0.967 -3.66,-1.451 -5.729,-1.451 -3.321,0 -6.005,1.064 -8.053,3.193 -2.047,2.129 -3.07,5.197 -3.07,9.203" /></g><g
           transform="translate(394.4766,370.1113)"
           id="g160"><path
             id="path162"
             style="fill:#13100f;fill-opacity:1;fill-rule:nonzero;stroke:none"
             d="m 0,0 v 23.721 h 3.597 v -3.328 c 0.743,1.162 1.734,2.095 2.969,2.802 1.237,0.707 2.643,1.061 4.222,1.061 1.757,0 3.197,-0.363 4.322,-1.094 1.124,-0.728 1.917,-1.75 2.378,-3.06 1.877,2.769 4.32,4.154 7.326,4.154 2.353,0 4.163,-0.651 5.428,-1.953 1.265,-1.303 1.899,-3.311 1.899,-6.02 V 0 h -3.998 v 14.943 c 0,1.608 -0.13,2.766 -0.392,3.473 -0.26,0.707 -0.732,1.277 -1.418,1.709 -0.685,0.432 -1.488,0.646 -2.412,0.646 -1.668,0 -3.053,-0.554 -4.153,-1.662 -1.103,-1.111 -1.654,-2.884 -1.654,-5.328 V 0 h -4.02 v 15.412 c 0,1.787 -0.327,3.127 -0.983,4.02 -0.655,0.894 -1.728,1.339 -3.216,1.339 -1.131,0 -2.178,-0.296 -3.139,-0.892 C 5.796,19.283 5.101,18.412 4.668,17.266 4.236,16.119 4.021,14.467 4.021,12.307 V 0 Z" /></g><g
           transform="translate(436.2207,381.8379)"
           id="g164"><path
             id="path166"
             style="fill:#13100f;fill-opacity:1;fill-rule:nonzero;stroke:none"
             d="m 0,0 c 0,-3.053 0.618,-5.309 1.854,-6.768 1.236,-1.459 2.733,-2.189 4.49,-2.189 1.787,0 3.316,0.756 4.591,2.268 1.272,1.511 1.908,3.853 1.908,7.025 0,3.021 -0.621,5.285 -1.864,6.789 C 9.735,8.629 8.25,9.381 6.522,9.381 4.811,9.381 3.295,8.58 1.978,6.979 0.659,5.379 0,3.053 0,0 m -3.64,-20.816 v 32.81 H 0.023 V 8.912 c 0.863,1.207 1.839,2.109 2.926,2.713 1.087,0.604 2.405,0.906 3.953,0.906 2.025,0 3.812,-0.521 5.361,-1.564 1.549,-1.043 2.717,-2.512 3.507,-4.412 0.789,-1.897 1.183,-3.979 1.183,-6.243 0,-2.427 -0.435,-4.611 -1.307,-6.554 -0.871,-1.944 -2.136,-3.432 -3.797,-4.467 -1.66,-1.035 -3.406,-1.553 -5.237,-1.553 -1.34,0 -2.543,0.283 -3.607,0.848 -1.065,0.566 -1.94,1.281 -2.625,2.144 v -11.546 z" /></g><g
           transform="translate(473.1641,382.0156)"
           id="g168"><path
             id="path170"
             style="fill:#13100f;fill-opacity:1;fill-rule:nonzero;stroke:none"
             d="m 0,0 c -1.459,-0.594 -3.648,-1.1 -6.567,-1.518 -1.652,-0.238 -2.822,-0.507 -3.506,-0.804 -0.685,-0.297 -1.214,-0.733 -1.586,-1.307 -0.372,-0.572 -0.558,-1.209 -0.558,-1.91 0,-1.072 0.404,-1.965 1.217,-2.68 0.811,-0.715 1.999,-1.072 3.562,-1.072 1.548,0 2.926,0.34 4.131,1.016 1.206,0.679 2.093,1.605 2.659,2.781 C -0.216,-4.586 0,-3.246 0,-1.473 Z m 0.335,-8.977 c -1.489,-1.267 -2.922,-2.16 -4.3,-2.681 -1.377,-0.522 -2.855,-0.781 -4.433,-0.781 -2.606,0 -4.609,0.636 -6.008,1.908 -1.401,1.273 -2.1,2.9 -2.1,4.881 0,1.162 0.265,2.222 0.793,3.183 0.528,0.961 1.221,1.731 2.076,2.311 0.857,0.582 1.822,1.021 2.894,1.318 0.789,0.209 1.979,0.41 3.573,0.604 3.246,0.386 5.636,0.849 7.17,1.384 0.015,0.551 0.021,0.901 0.021,1.049 0,1.639 -0.378,2.793 -1.138,3.463 -1.028,0.908 -2.553,1.363 -4.579,1.363 -1.891,0 -3.287,-0.332 -4.187,-0.994 -0.901,-0.664 -1.568,-1.836 -1.999,-3.519 l -3.931,0.537 c 0.357,1.683 0.945,3.041 1.764,4.076 0.819,1.035 2.003,1.832 3.551,2.389 1.549,0.56 3.343,0.84 5.383,0.84 2.025,0 3.671,-0.239 4.935,-0.717 C 1.087,11.162 2.018,10.563 2.612,9.84 3.209,9.117 3.626,8.205 3.863,7.104 3.998,6.418 4.064,5.182 4.064,3.396 v -5.361 c 0,-3.738 0.086,-6.101 0.257,-7.092 0.172,-0.99 0.511,-1.939 1.017,-2.847 H 1.139 c -0.417,0.834 -0.685,1.81 -0.804,2.927" /></g><g
           transform="translate(483.4609,370.1113)"
           id="g172"><path
             id="path174"
             style="fill:#13100f;fill-opacity:1;fill-rule:nonzero;stroke:none"
             d="m 0,0 v 23.721 h 3.618 v -3.373 c 1.742,2.605 4.258,3.908 7.549,3.908 1.43,0 2.744,-0.256 3.942,-0.77 1.199,-0.513 2.096,-1.187 2.692,-2.021 0.595,-0.834 1.011,-1.824 1.25,-2.971 0.149,-0.744 0.223,-2.047 0.223,-3.908 V 0 h -4.019 v 14.43 c 0,1.636 -0.157,2.861 -0.47,3.674 -0.312,0.81 -0.867,1.458 -1.664,1.943 -0.796,0.484 -1.73,0.724 -2.803,0.724 -1.713,0 -3.19,-0.542 -4.433,-1.628 C 4.642,18.055 4.02,15.992 4.02,12.955 V 0 Z" /></g><g
           transform="translate(508.7217,360.9766)"
           id="g176"><path
             id="path178"
             style="fill:#13100f;fill-opacity:1;fill-rule:nonzero;stroke:none"
             d="m 0,0 -0.447,3.775 c 0.88,-0.238 1.645,-0.357 2.301,-0.357 0.893,0 1.608,0.148 2.144,0.447 0.536,0.297 0.976,0.713 1.317,1.25 0.254,0.401 0.664,1.399 1.229,2.992 0.074,0.225 0.193,0.551 0.357,0.983 L -2.1,32.855 H 2.233 L 7.169,19.119 c 0.642,-1.742 1.214,-3.574 1.721,-5.494 0.462,1.846 1.012,3.648 1.652,5.404 l 5.07,13.826 h 4.02 L 10.609,8.734 C 9.642,6.127 8.89,4.334 8.354,3.352 7.638,2.025 6.819,1.053 5.896,0.436 4.974,-0.182 3.871,-0.492 2.591,-0.492 1.816,-0.492 0.953,-0.328 0,0" /></g></g></g></g></svg>
