<?xml version="1.0" encoding="UTF-8" standalone="no"?>
<svg
   xmlns:dc="http://purl.org/dc/elements/1.1/"
   xmlns:cc="http://creativecommons.org/ns#"
   xmlns:rdf="http://www.w3.org/1999/02/22-rdf-syntax-ns#"
   xmlns:svg="http://www.w3.org/2000/svg"
   xmlns="http://www.w3.org/2000/svg"
   viewBox="0 0 441.33334 197.33333"
   height="197.33333"
   width="441.33334"
   xml:space="preserve"
   id="svg2"
   version="1.1"><metadata
     id="metadata8"><rdf:RDF><cc:Work
         rdf:about=""><dc:format>image/svg+xml</dc:format><dc:type
           rdf:resource="http://purl.org/dc/dcmitype/StillImage" /></cc:Work></rdf:RDF></metadata><defs
     id="defs6"><clipPath
       id="clipPath18"
       clipPathUnits="userSpaceOnUse"><path
         id="path16"
         d="M 0,148 H 331 V 0 H 0 Z" /></clipPath></defs><g
     transform="matrix(1.3333333,0,0,-1.3333333,0,197.33333)"
     id="g10"><g
       id="g12"><g
         clip-path="url(#clipPath18)"
         id="g14"><g
           transform="translate(321.6084,14.9814)"
           id="g20"><path
             id="path22"
             style="fill:#173a79;fill-opacity:1;fill-rule:nonzero;stroke:none"
             d="m 0,0 c 0,-5.107 -4.141,-9.25 -9.249,-9.25 h -290.206 c -5.109,0 -9.249,4.143 -9.249,9.25 v 116.635 c 0,5.108 4.14,9.249 9.249,9.249 H -9.249 c 5.108,0 9.249,-4.141 9.249,-9.249 z" /></g><g
           transform="translate(89.1992,46.1465)"
           id="g24"><path
             id="path26"
             style="fill:#ffffff;fill-opacity:1;fill-rule:nonzero;stroke:none"
             d="m 0,0 -7.469,-0.723 c 0,0 9.027,23.109 9.788,25.162 C 3.082,26.493 4,29.553 4,29.553 l 7.471,0.721 -2.466,-5.646 c 0,0 3.814,3.797 7.117,5.334 3.302,1.539 6.958,2.045 6.958,2.045 l -3.271,-8.541 c 0,0 -6.005,-0.125 -8.199,-1.326 C 9.418,20.938 7.742,20.699 5.709,15.02 3.678,9.341 0,0 0,0" /></g><g
           transform="translate(134.582,73.6816)"
           id="g28"><path
             id="path30"
             style="fill:#ffffff;fill-opacity:1;fill-rule:nonzero;stroke:none"
             d="m 0,0 c 0,0 -4.049,2.962 -9.929,-0.502 -5.88,-3.461 -11.508,-12.61 -8.708,-17.823 2.797,-5.213 12.352,1.422 12.352,1.422 z m 0.715,-16.303 c -0.852,-2.442 -1.693,-6.788 -1.693,-6.788 l -7.353,-2.157 0.491,2.483 c 0,0 -2.712,-1.861 -7.288,-2.836 0,0 -14.252,-3.283 -12.107,10.024 2.152,13.355 14.779,21.152 20.978,22.131 6.202,0.98 9.123,-1.098 9.936,-1.096 0.811,0.004 6.266,1.596 6.266,1.596 0,0 -8.379,-20.914 -9.23,-23.357" /></g><g
           transform="translate(181.6338,84.2461)"
           id="g32"><path
             id="path34"
             style="fill:#ffffff;fill-opacity:1;fill-rule:nonzero;stroke:none"
             d="m 0,0 -2.147,-5.539 c 0,0 6.185,7.071 14.415,7.561 8.228,0.493 6.5,-6.453 4.499,-11.671 -2,-5.221 -7.074,-18.427 -7.074,-18.427 l -7.621,-0.737 c 0,0 5.447,13.548 7.171,18.209 1.726,4.66 -0.457,5.667 -3.724,5.349 -2.868,-0.277 -8.268,-2.389 -10.513,-8.25 -1.637,-4.269 -6.383,-16.685 -6.383,-16.685 l -7.546,-0.729 c 0,0 7.9,20.106 9.536,24.377 1.637,4.27 1.934,5.898 1.934,5.898 z" /></g><g
           transform="translate(234.2559,84.6113)"
           id="g36"><path
             id="path38"
             style="fill:#ffffff;fill-opacity:1;fill-rule:nonzero;stroke:none"
             d="m 0,0 c -1.293,6.626 -13.885,7.72 -23.55,-1.667 -9.663,-9.386 -12.141,-21.888 -4.932,-25.227 7.209,-3.339 19.05,3.29 19.05,3.29 l 3.296,7.018 c 0,0 -8.619,-6.087 -15.946,-4.891 -5.536,0.903 -2.73,8.113 -2.73,8.113 l 21.658,2.093 c 0,0 4.28,5.517 3.154,11.271 m -19.908,-5.122 c 0.518,0.549 3.829,4.228 8.888,4.361 5.418,0.143 3.186,-7.08 3.186,-7.08 l -14.939,-1.443 c 0,0 1.6,2.82 2.865,4.162" /></g><g
           transform="translate(263.9775,121.167)"
           id="g40"><path
             id="path42"
             style="fill:#ffffff;fill-opacity:1;fill-rule:nonzero;stroke:none"
             d="m 0,0 -7.077,0.002 -24.449,-61.025 7.467,0.722 z" /></g><g
           transform="translate(295.3662,93.7158)"
           id="g44"><path
             id="path46"
             style="fill:#ffffff;fill-opacity:1;fill-rule:nonzero;stroke:none"
             d="m 0,0 c 0,0 -2.895,2.843 -9.473,1.826 -6.577,-1.015 -13.468,-6.327 -14.067,-11.867 -0.595,-5.541 5.054,-6.941 7.466,-7.732 3.225,-1.06 3.347,-4.749 -1.335,-6.831 -5.256,-2.335 -10.428,2.495 -10.428,2.495 l -3.325,-7.479 c 0,0 7.137,-3.652 16.373,0.286 9.237,3.941 10.213,12.687 7.918,15.008 -3.299,3.335 -10.116,4.127 -8.426,7.714 1.428,3.032 6.106,3.483 8.751,2.141 2.647,-1.344 3.68,-2.31 3.68,-2.31 z" /></g><g
           transform="translate(56.2236,21.9961)"
           id="g48"><path
             id="path50"
             style="fill:#ffffff;fill-opacity:1;fill-rule:nonzero;stroke:none"
             d="m 0,0 11.624,28.06 c -2.3,-2.026 -10.115,-8.245 -16.946,-8.362 -1.641,-0.029 -3.15,-0.002 -4.739,0.449 -3.269,0.929 -5.365,2.738 -6.978,5.19 -3.271,4.975 -4.387,17.498 4.168,30.392 9.922,14.956 22.703,24.313 30.228,27.959 4.74,2.296 11.311,3.289 14.163,1.924 2.919,-1.396 4.408,-4.447 4.711,-6.695 0.621,-4.588 -1.429,-10.6 -1.429,-10.6 l -8.605,-1.155 c 0,0 3.215,7.539 1.974,9.771 -1.75,3.151 -10.176,-0.063 -18.35,-6.572 -12.424,-9.891 -25.42,-32.61 -19.468,-40.67 1.028,-1.391 3.619,-2.798 6.18,-2.753 6.242,0.109 13.858,5.436 17.155,9.674 2.335,3.002 7.061,15.506 7.107,15.633 l 0.128,0.356 0.446,0.045 6.622,0.685 0.931,0.097 L 28.628,52.692 7.594,0.02 Z" /></g><g
           transform="translate(161.4111,99.8574)"
           id="g52"><path
             id="path54"
             style="fill:#ffffff;fill-opacity:1;fill-rule:nonzero;stroke:none"
             d="m 0,0 -3.655,-8.973 -7.502,-0.735 -2.738,-6.541 7.805,0.766 c 0,0 -6.476,-18.542 -8.917,-24.34 -1.846,-4.375 -1.421,-6.891 -0.26,-8.182 3.231,0.203 9.053,0.791 9.053,0.791 0,0 -3.422,1.71 -1.821,6.478 1.597,4.765 9.477,25.829 9.477,25.829 l 9.392,0.99 2.585,6.525 -9.393,-0.989 4.268,10.694 z" /></g><g
           transform="translate(278.917,121.0811)"
           id="g56"><path
             id="path58"
             style="fill:#ffffff;fill-opacity:1;fill-rule:nonzero;stroke:none"
             d="m 0,0 -7.12,-0.001 -23.818,-59.477 7.467,0.724 z" /></g></g></g></g></svg>