<?xml version="1.0" encoding="utf-8"?>
<!-- Generator: Adobe Illustrator 20.1.0, SVG Export Plug-In . SVG Version: 6.00 Build 0)  -->
<svg version="1.0" id="Capa_1" xmlns="http://www.w3.org/2000/svg" xmlns:xlink="http://www.w3.org/1999/xlink" x="0px" y="0px"
	 viewBox="120 150 272 272" style="enable-background:new 0 0 512 512;" xml:space="preserve"  width="100" height="100">
<style type="text/css">
	.st0{fill:#FFFFFF;}
</style>
<path class="st0" d="M256,154.6c-71.9,0-130.4,58.5-130.4,130.4S184.1,415.4,256,415.4S386.4,356.9,386.4,285S327.9,154.6,256,154.6
	z M256,396.1c-61.3,0-111.1-49.8-111.1-111.1S194.7,173.9,256,173.9S367.1,223.7,367.1,285S317.3,396.1,256,396.1z"/>
<polygon class="st0" points="176.4,259.5 201,259.5 201,328.5 217.8,328.5 217.8,259.5 242.3,259.5 242.3,245.5 176.4,245.5 "/>
<polygon class="st0" points="293,302.1 278,245.5 252.9,245.5 252.9,328.5 268.5,328.5 268.5,263.1 284.9,328.5 301,328.5
	317.5,263.1 317.5,328.5 333.1,328.5 333.1,245.5 307.9,245.5 "/>
</svg>
