<?xml version="1.0" encoding="utf-8"?>
<!-- Generator: Adobe Illustrator 20.1.0, SVG Export Plug-In . SVG Version: 6.00 Build 0)  -->
<svg version="1.0" id="Capa_1" xmlns="http://www.w3.org/2000/svg" xmlns:xlink="http://www.w3.org/1999/xlink" x="0px" y="0px"
	 viewBox="0 0 512 512" style="enable-background:new 0 0 512 512;" xml:space="preserve"   width="100" height="100">
<style type="text/css">
	.st0{fill:#FFFFFF;}
</style>
<g>
	<g>
		<path class="st0" d="M475.4,257.2c-2.4-6.5-9.6-9.9-16.1-7.5l-117.6,43.1l95.1-95c2.4-2.3,3.7-5.5,3.7-8.9c0-3.3-1.3-6.5-3.7-8.9
			l-73.5-73.6c-4.9-4.9-12.8-4.9-17.8,0l-93.2,93.2l52.3-124.1c1.3-3.1,1.3-6.5,0.1-9.6c-1.3-3.1-3.7-5.5-6.8-6.8L202,18.7
			c-6.4-2.7-13.8,0.3-16.4,6.7l-51.6,122.5V17.5c0-6.9-5.6-12.6-12.6-12.6H12.6C5.6,4.9,0,10.5,0,17.5v477.1
			c0,6.9,5.6,12.6,12.6,12.6h108.8c1.5,0,3-0.3,4.3-0.8c1.4,0.5,2.8,0.8,4.2,0.8c1.4,0,2.9-0.2,4.3-0.8L503.8,371
			c6.5-2.4,9.9-9.6,7.5-16.1L475.4,257.2z M74.2,482H25.1v-20.7v-13.6v-9.3V406V30h83.7v177.5v32.3v32.3V343v17.7v17.4v0.4v77.8
			v13.1v4v0.7v8h-2.3H99L74.2,482L74.2,482z M276.5,77.4l-71.4,169.3l-12.9,30.7L179.3,308l-22.1,52.4L143.9,392l-10,23.7v-20.1
			v-26.7v-15.5v-17.8v-17.7V212.6l69.9-165.8L276.5,77.4z M176.1,380.2l13.3-31.6l36.9-87.6l128-127.9l55.8,55.8L285.7,313.3
			l-42.2,42.2l-98.3,98.2L176.1,380.2z M166.7,467.7L299.5,335l156.7-57.4l27.1,74.1L166.7,467.7z"/>
		<path class="st0" d="M67,430.4c-0.6,0-1.1,0.1-1.6,0.2c-4.7,0.4-8.9,2.6-11.8,5.9c-2,2.2-3.4,4.9-4.1,7.8
			c-0.3,1.4-0.6,2.8-0.6,4.2c0,4,1.3,7.6,3.5,10.6c3.3,4.5,8.6,7.5,14.6,7.5c0.9,0,1.7-0.1,2.6-0.3c3.6-0.5,6.9-2.1,9.5-4.4
			c1.3-1.1,2.4-2.4,3.3-3.8c1.5-2.4,2.4-5.1,2.7-8c0-0.5,0.2-1.1,0.2-1.6C85.1,438.5,77,430.4,67,430.4z"/>
	</g>
</g>
</svg>
