<?xml version="1.0" encoding="utf-8"?>
<!-- Generator: Adobe Illustrator 20.1.0, SVG Export Plug-In . SVG Version: 6.00 Build 0)  -->
<svg version="1.0" id="Capa_1" xmlns="http://www.w3.org/2000/svg" xmlns:xlink="http://www.w3.org/1999/xlink" x="0px" y="0px"
	 viewBox="0 0 512 512" style="enable-background:new 0 0 512 512;" xml:space="preserve"   width="92" height="100">
<style type="text/css">
	.st0{fill:#FFFFFF;}
</style>
<g>
	<g>
		<path class="st0" d="M58.1,0C37.5,0,20.8,16.8,20.8,37.4v437.3c0,20.6,16.8,37.4,37.4,37.4h146.7c20.6,0,37.4-16.8,37.4-37.4V37.4
			c0-20.6-16.8-37.4-37.4-37.4H58.1z M217.3,37.4v437.3c0,6.9-5.6,12.5-12.5,12.5H58.1c-6.9,0-12.5-5.6-12.5-12.5V37.4
			c0-6.9,5.6-12.5,12.5-12.5h146.7C211.7,24.9,217.3,30.5,217.3,37.4z"/>
		<path class="st0" d="M163.8,54H99.2c-20.6,0-37.4,16.8-37.4,37.4v96.9c0,20.6,16.8,37.4,37.4,37.4h64.6
			c20.6,0,37.4-16.8,37.4-37.4V91.3C201.1,70.7,184.4,54,163.8,54z M176.2,188.2c0,6.9-5.6,12.5-12.5,12.5H99.2
			c-6.9,0-12.5-5.6-12.5-12.5V91.3c0-6.9,5.6-12.5,12.5-12.5h64.6c6.9,0,12.5,5.6,12.5,12.5L176.2,188.2L176.2,188.2z"/>
		<path class="st0" d="M307.2,0c-20.6,0-37.4,16.8-37.4,37.4v437.3c0,20.6,16.8,37.4,37.4,37.4h146.7c20.6,0,37.4-16.8,37.4-37.4
			V37.4c0-20.6-16.8-37.4-37.4-37.4H307.2z M466.3,37.4v437.3c0,6.9-5.6,12.5-12.5,12.5H307.2c-6.9,0-12.5-5.6-12.5-12.5V37.4
			c0-6.9,5.6-12.5,12.5-12.5h146.7C460.7,24.9,466.3,30.5,466.3,37.4z"/>
		<path class="st0" d="M188.7,297.5H74.3c-6.9,0-12.5,5.6-12.5,12.5c0,6.9,5.6,12.5,12.5,12.5h114.4c6.9,0,12.5-5.6,12.5-12.5
			S195.5,297.5,188.7,297.5z"/>
		<path class="st0" d="M188.7,363.9H74.3c-6.9,0-12.5,5.6-12.5,12.5c0,6.9,5.6,12.5,12.5,12.5h114.4c6.9,0,12.5-5.6,12.5-12.5
			C201.1,369.5,195.5,363.9,188.7,363.9z"/>
		<path class="st0" d="M188.7,430.4H74.3c-6.9,0-12.5,5.6-12.5,12.5c0,6.9,5.6,12.5,12.5,12.5h114.4c6.9,0,12.5-5.6,12.5-12.5
			C201.1,435.9,195.5,430.4,188.7,430.4z"/>
		<path class="st0" d="M437.8,65H323.3c-6.9,0-12.5,5.6-12.5,12.5c0,6.9,5.6,12.5,12.5,12.5h114.4c6.9,0,12.5-5.6,12.5-12.5
			C450.2,70.6,444.6,65,437.8,65z"/>
		<path class="st0" d="M437.8,131.5H323.3c-6.9,0-12.5,5.6-12.5,12.5c0,6.9,5.6,12.5,12.5,12.5h114.4c6.9,0,12.5-5.6,12.5-12.5
			C450.2,137,444.6,131.5,437.8,131.5z"/>
		<path class="st0" d="M437.8,197.9H323.3c-6.9,0-12.5,5.6-12.5,12.5c0,6.9,5.6,12.5,12.5,12.5h114.4c6.9,0,12.5-5.6,12.5-12.5
			C450.2,203.4,444.6,197.9,437.8,197.9z"/>
	</g>
</g>
</svg>
