<?xml version="1.0" encoding="utf-8"?>
<!-- Generator: Adobe Illustrator 20.1.0, SVG Export Plug-In . SVG Version: 6.00 Build 0)  -->
<svg version="1.0" id="Capa_1" xmlns="http://www.w3.org/2000/svg" xmlns:xlink="http://www.w3.org/1999/xlink" x="0px" y="0px"
	 viewBox="0 0 512 512" style="enable-background:new 0 0 512 512;" xml:space="preserve"   width="116" height="100">
<style type="text/css">
	.st0{fill:#FFFFFF;}
</style>
<g>
	<g>
		<path class="st0" d="M472.1,35H39.9C17.9,35,0,53,0,75v302.2c0,22,17.9,39.9,39.9,39.9h201v29.7h-52.8V477h135.8v-30.2h-52.8
			v-29.7h201c22,0,39.9-17.9,39.9-39.9V75C512,52.9,494.1,35,472.1,35z M39.9,65.2h432.1c5.4,0,9.8,4.4,9.8,9.8v240.5H30.2V75
			C30.2,69.6,34.5,65.2,39.9,65.2z M472.1,386.9H39.9c-5.4,0-9.8-4.4-9.8-9.8v-31.5h451.7v31.5C481.8,382.6,477.5,386.9,472.1,386.9
			z"/>
	</g>
</g>
</svg>
