<?xml version="1.0" encoding="utf-8"?>
<!-- Generator: Adobe Illustrator 20.1.0, SVG Export Plug-In . SVG Version: 6.00 Build 0)  -->
<svg version="1.0" id="Слой_1" xmlns="http://www.w3.org/2000/svg" xmlns:xlink="http://www.w3.org/1999/xlink" x="0px" y="0px"
	 viewBox="50 50 400 370" style="enable-background:new 0 0 500 500;" xml:space="preserve" width="173" height="110">
<style type="text/css">
	.st0{fill:#6FBB31;}
	.st1{fill:#231F20;}
	.st2{fill:#EBF1E8;}
	.st3{fill:#49852E;}
	.st4{fill:#49862E;}
</style>
<g>
	<path class="st0" d="M71.2,377.3c6.1-2.3,12.2-4.7,18.4-6.7c6-1.9,11.9-3.9,18.2-4.5c1.9-0.2,0.7-1.2,0.5-1.8
		c-3.3-7.5-6.3-15.1-8.9-23c-4.9-14.9-7.7-30.1-7.1-45.9c0.6-14.8,4.5-28.8,10.6-42.3c7.1-15.6,16.5-29.9,26.6-43.8
		c0.1-0.1,0.2-0.1,0.5-0.3c0.3,0.9-0.2,1.7-0.5,2.4c-4.4,12.5-8.9,24.9-13.2,37.4c-3.6,10.4-6.3,21-7.4,31.9
		c-0.2,2.1-0.2,4.1-0.3,6.2c0,1.1,0.5,1.5,1.6,1.5c1.4,0,2.7-0.6,4-1.2c7.6-3.5,14.4-8.2,21.3-12.8c8.7-5.9,17.3-11.8,26-17.8
		c0.5-0.4,1.1-0.7,1.6-1c0.6,0.6,0.1,0.9-0.1,1.3c-9.9,16.4-23.2,28.8-41.1,36.2c-1.9,0.8-3.8,1.7-5.5,2.8c-5.9,3.8-7.4,9.4-6,15.9
		c2.6,12.1,4.5,24.4,8,36.4c2,6.7,4.8,12.9,10.4,17.5c5.6,4.6,12.3,6,19.3,6.1c7.2,0.1,14.4,0,21.5,1.5c4.1,0.9,8,2.6,11.7,4.5
		c1.4,0.4,2.7,1.1,3.8,2.1c2.9,2.5,5.6,5.1,7.9,8.2c0.4,0.6,1,1.3,0.7,2c-0.3,0.8-1.2,0.7-2,0.7c-0.2,0-0.4,0-0.6,0
		c-11.6-0.3-23.2,0.5-34.9,0.4c-11.5-0.1-23,0.3-34.5,0.5c-8.1,0.1-16.2-0.1-24.2,0.3c-10.8,0.6-21.7,0-32.5,0.4
		c-4.7,0.2-9.3,0.3-14,0.3c-0.7,0-1.3,0-2-0.1c-1.7-0.2-2.2-1.1-1.3-2.6c0.8-1.4,2.1-2.4,3.4-3.4c4.4-3.3,9.5-5.5,14.4-7.9
		C67.5,378.3,69.3,377.5,71.2,377.3z"/>
	<path class="st1" d="M454.7,322.4c3.2-5.9,6.3-11.5,9.3-17.2c4.4-8.1,8.8-16.2,13.1-24.3c0.5-0.9,1-1.5,2.3-1.5
		c6.4,0.1,12.8,0.1,19.3,0c1.2,0,1.6,0.3,1.6,1.6c0,26.1,0,52.3,0,78.4c0,1.3-0.3,1.7-1.7,1.7c-5.9-0.1-11.8-0.1-17.7,0
		c-1.6,0-1.8-0.5-1.8-1.9c0-13.4,0-26.9,0-40.3c0-0.7,0.2-1.4-0.3-2.4c-0.9,1.6-1.7,3-2.5,4.4c-4.1,7.4-8.3,14.8-12.4,22.2
		c-0.7,1.3-1.5,1.7-3,1.7c-4.1-0.1-8.2-0.1-12.2,0c-1.6,0-2.5-0.4-3.3-1.8c-4.5-8.3-9.2-16.5-13.9-24.8c-0.3-0.6-0.6-1.1-1.3-1.6
		c0,0.6,0,1.3,0,1.9c0,13.6,0,27.2,0,40.7c0,1.5-0.3,2-2,2c-5.7-0.1-11.5-0.1-17.3,0c-1.4,0-1.9-0.3-1.9-1.8c0.1-26,0-52,0-78
		c0-1.4,0.3-1.8,1.8-1.8c6.3,0.1,12.6,0.1,18.9,0c1.2,0,1.9,0.4,2.5,1.5C439.7,294.7,447.1,308.4,454.7,322.4z"/>
	<path class="st1" d="M335.2,320.2c0-12.9,0-25.8,0-38.7c0-1.6,0.4-2,2-2c20.3,0.1,40.5,0.1,60.8,0c1.7,0,2.1,0.5,2.1,2.1
		c-0.1,4-0.2,8,0,12c0.1,2-0.6,2.2-2.4,2.2c-13.1-0.1-26.2,0-39.3-0.1c-1.5,0-2.1,0.3-2,1.9c0.1,4,0.1,8,0,12c0,1.4,0.4,1.8,1.8,1.8
		c10.2-0.1,20.3,0,30.5-0.1c1.7,0,2.1,0.5,2.1,2.1c-0.1,4.1-0.1,8.3,0,12.4c0.1,1.7-0.5,1.9-2,1.9c-10.2-0.1-20.3,0-30.5-0.1
		c-1.6,0-1.9,0.4-1.8,1.9c0.1,4.3,0.1,8.7,0,13c0,1.7,0.5,1.9,2,1.9c13.2-0.1,26.4,0,39.5-0.1c1.9,0,2.2,0.5,2.1,2.2
		c-0.1,4.2-0.1,8.4,0,12.6c0,1.3-0.4,1.7-1.7,1.7c-20.5,0-40.9,0-61.4,0c-1.5,0-1.7-0.5-1.7-1.8
		C335.3,346.2,335.2,333.2,335.2,320.2z"/>
	<path class="st2" d="M71.2,377.3c-5.6,2.7-11.4,5-16.7,8.3c-2.2,1.3-4.3,2.7-5.9,4.7c-0.4,0.5-1,1.1-0.6,1.8
		c0.3,0.6,1.1,0.3,1.7,0.3c14.6-0.1,29.3-0.2,43.9-0.4c8.1-0.1,16.3-0.3,24.4-0.4c16.8-0.3,33.7-0.4,50.5-0.8
		c7.9-0.2,15.8-0.1,23.6-0.3c0.4,0,0.9,0,1.7,0c-3.4-5.2-7.7-9-12.4-12.3c4.7,0.1,9.4,0.6,14.1,1.1c4.2,0.5,8.5,0.8,12.7,1.3
		c9,1.1,17.9,2.3,26.5,5.2c1.2,0.4,2.3,1,3.4,1.6c2,1.2,2,2.8,0.1,4.1c-3.7,2.6-8.1,3.3-12.4,4.3c-7.7,1.7-15.6,2.6-23.4,3.6
		c-5.4,0.7-10.9,0.7-16.3,1.3c-7.7,0.8-15.5,1.1-23.3,1.5c-7.6,0.3-15.2,0.4-22.8,0.6c-10.7,0.3-21.4,0.4-32,0.2
		c-6.6-0.1-13.2-0.1-19.8-0.4c-6.4-0.3-12.8-0.4-19.2-0.8c-7.6-0.4-15.3-0.9-22.9-1.6c-11.9-1.2-23.9-2.3-35.6-5.2
		c-2.9-0.7-5.8-1.4-8.4-3.1c-2.4-1.6-2.4-3.4,0.2-4.8c2.4-1.4,5-2.1,7.7-2.8c7.4-1.8,15-2.9,22.6-3.8c7.7-0.9,15.5-1.6,23.2-2.2
		c2.6-0.2,5.3-0.6,8-0.5C66.3,377.8,68.7,376.9,71.2,377.3z"/>
	<path class="st1" d="M188.7,320.9c0-6.6,0-13.2,0-19.9c0-2.6,0.3-5.1,0.9-7.5c2.1-8.4,7.9-13,17.2-13.8c1.8-0.1,3.6-0.2,5.4-0.2
		c13.2,0,26.4,0,39.5-0.1c1.8,0,2.2,0.5,2.2,2.2c-0.1,4.1-0.1,8.2,0,12.2c0.1,1.7-0.5,1.9-2,1.9c-11.5-0.1-23,0-34.5,0
		c-5.6,0-7.8,2.1-7.8,7.8c0,11.8,0,23.5,0,35.3c0,4.7,2,6.7,6.7,6.7c6.2,0,12.5,0.5,18.6-0.2c5.7-0.7,11.3-0.4,17-0.7
		c1.6-0.1,2,0.5,2,2c-0.1,3.8-0.1,7.6,0,11.4c0.1,1.6-0.6,2.1-2,2.2c-4,0.6-8,1.1-12,1.1c-10,0-20.1,0-30.1,0
		c-2.9,0-5.9-0.3-8.7-1.2c-8.1-2.4-12.5-9-12.5-18.8C188.6,334.5,188.7,327.7,188.7,320.9z"/>
	<path class="st1" d="M292.4,279.5c11,0,21.9,0,32.9,0c1.5,0,2.1,0.3,2,2c-0.1,4.1-0.1,8.3,0,12.4c0,1.5-0.3,2-1.9,2
		c-6.9-0.1-13.8,0-20.7-0.1c-1.6,0-2,0.5-2,2c0.1,20.4,0,40.8,0.1,61.2c0,1.8-0.5,2.2-2.2,2.2c-5.6-0.1-11.2-0.1-16.9,0
		c-1.6,0-2-0.4-2-2c0.1-20.4,0-40.8,0.1-61.2c0-1.7-0.4-2.2-2.2-2.2c-6.9,0.1-13.8,0-20.7,0.1c-1.5,0-1.8-0.4-1.7-1.8
		c0.1-4.3,0.1-8.6,0-12.8c0-1.4,0.3-1.8,1.8-1.8C270.1,279.5,281.2,279.5,292.4,279.5z"/>
	<path class="st0" d="M178.3,266.1c-2.4,0-4.8-0.4-7.1-1.2c-2.4-0.8-2.5-1.2-1-3.1c2.2-2.7,4.8-5.1,7.2-7.5c1.5-1.5,3-2.9,4.1-4.7
		c0.3-0.5,0.8-1,0.4-1.6c-0.4-0.6-1.1-0.4-1.7-0.3c-4.3,0.9-8.3,2.5-12.4,3.7c-1,0.3-2,0.6-3.1,0.9c-3.1,0.8-3.4,0.5-2.9-2.7
		c0.7-5,3.2-9.1,6.6-12.8c5.8-6.4,13.3-9,21.8-9.6c8-0.6,16-0.1,24,0.9c0.7,0.1,1.8-0.1,1.2,1.3c-4.1,9.8-8.6,19.3-15.6,27.4
		C194.1,263.1,186.6,265.6,178.3,266.1z"/>
	<path class="st0" d="M72.2,239.5c-5.7,0.2-10.6-1.9-15.3-4.7c-7.2-4.3-13.6-9.7-19.6-15.4c-0.7-0.7-0.9-1.1,0.1-1.8
		c9.3-5.4,18.6-10.7,29.4-12.3c9.6-1.4,17.9,1.8,24.4,9.2c2.6,3,2.3,3.7-1.6,4.4c-3.7,0.7-7.4,1.1-11.1,1.8
		c-1.6,0.3-4.2,0.1-4.4,1.9c-0.1,1.5,2.5,1.8,4,2.4c3.9,1.5,7.9,2.8,11.9,4.2c2.6,1,2.6,1.5,0.7,3.4
		C85.6,237.8,79.2,239.3,72.2,239.5z"/>
	<path class="st0" d="M76.8,176.3c1.1,1.5,2.8,2.2,4.3,3.2c1.3,0.9,2.7,1.7,4.1,2.6c1.2,0.8,1.1,1.4-0.1,2.2
		c-4.2,2.8-11.5,2.7-16.2-0.4c-4.6-3-7.8-7.2-11-11.6c-0.9-1.3-1.6-1.7-3.4-1.3c-5.9,1.4-11.1,0-15.5-4.2c-3.6-3.3-6.6-7.2-9.3-11.2
		c-0.3-0.4-1.3-1.1,0-1.5c6.6-2.1,13.2-4.3,20.2-3c4.9,0.9,8.8,3.8,11.1,8.4c0.7,1.4,0.5,2.1-1.3,2c-2.7-0.2-5.3-0.3-8-0.4
		c-0.6,0-1.5-0.2-1.7,0.6c-0.1,0.6,0.7,0.9,1.1,1.2c2.5,1.6,5,3.1,7.4,4.7c0.7,0.5,1.4,0.1,2.1,0c4.4-1.2,8.8-2.3,13.4-2.1
		c6.2,0.3,10.9,3.3,13.8,8.9c0.7,1.3,0.4,2-1.2,1.9c-2.6-0.2-5.2-0.3-7.8-0.4C78.2,175.7,77.4,175.5,76.8,176.3z"/>
	<path class="st0" d="M164.5,97.1c5.2,6.3,10.2,12.6,13.1,20.2c3.1,8.1,1.9,15.6-3.8,22.2c-1.6,1.9-2.2,1.8-3.1-0.6
		c-1-2.8-1.9-5.6-2.8-8.4c-0.2-0.6-0.4-1.3-0.7-1.9c-0.4-0.7-0.5-2-1.5-1.8c-0.8,0.1-0.8,1.3-1,2c-0.7,3.7-1.3,7.3-2.1,11
		c-0.5,2.2-0.8,2.3-2.7,1c-6.1-4.2-9.2-14-7-22C154.6,112.7,159.9,102.6,164.5,97.1z"/>
	<path class="st0" d="M161.5,161.3c0.5,0.9,0.8,0.4,1.2-0.1c2.3-2.6,4.8-5,7.4-7.3c0.7-0.6,1.1-0.9,1.6,0.2
		c3.7,7.8,7.6,15.6,7.8,24.4c0.1,7.3-2.9,13.3-9,17.5c-1.9,1.3-2.4,1-2.6-1.2c-0.4-3.6-0.8-7.3-1.2-10.9c-0.1-0.7-0.1-1.7-0.8-1.9
		c-0.9-0.2-1.2,0.9-1.5,1.6c-1.5,3.3-2.9,6.7-4.5,10c-1.1,2.3-1.5,2.4-3,0.4c-4.9-6.5-5.3-13.6-2.4-21c0.5-1.2,1.2-2.4,1.8-3.6
		c0-1,0.7-1.7,1.2-2.4C158.8,165,160.3,163.3,161.5,161.3z"/>
	<path class="st0" d="M105.8,168.3c0-1.1,0.1-2.3,0-3.4c-0.2-1.7,0.3-2.2,2.1-1.6c6.1,2.1,12,4.3,17.6,7.6
		c7,4.1,10.6,10.2,11.3,18.1c0.1,1.6-0.2,3.2-0.5,4.8c-0.3,1.5-1.1,1.5-2.1,0.8c-2.4-1.9-4.8-3.8-7.2-5.7c-0.8-0.7-1.7-1.2-2.6-1.8
		c-0.4-0.3-0.9-0.5-1.3-0.2c-0.4,0.3-0.2,0.9-0.1,1.3c0.8,2.2,1.7,4.3,2.5,6.5c0.7,1.8,1.4,3.6,2.1,5.4c0.4,1.1,0,1.6-1.2,1.6
		c-3.3,0.1-6.2-1-8.9-2.6c-6.3-3.9-9.6-9.6-10.7-16.8C106.1,177.5,105.8,172.9,105.8,168.3z"/>
	<path class="st0" d="M220,183.1c-3.6,8.3-6.9,16.5-13.4,22.6c-5.5,5.2-12.2,6.9-19.7,4.9c-2.2-0.6-2.3-1.1-0.8-2.8
		c2.3-2.5,4.8-4.9,7.1-7.4c0.6-0.7,1.9-1.5,1.3-2.5c-0.6-0.9-1.9-0.2-2.8,0.1c-3.4,1-6.7,2.1-10.1,3c-2.1,0.6-2.4,0.3-2.1-1.9
		c1-7.5,8.1-14.7,16.3-16.3C203.8,181.4,211.8,182,220,183.1z"/>
	<path class="st3" d="M78.6,270c-3.2,0.1-6.4-1.1-9.5-2.8c-5.1-2.9-9.5-6.6-13.8-10.6c-0.6-0.6-1.1-1,0-1.6c6.6-3.8,13.2-7.7,21-8.3
		c6.2-0.5,11.7,1.8,15.7,6.8c1.3,1.6,1.1,2.1-0.9,2.5c-3.1,0.6-6.2,1-9.3,1.6c-0.7,0.1-1.7,0.2-1.8,1c0,0.8,1,0.9,1.7,1.2
		c3.1,1.1,6.1,2.2,9.2,3.3c1.5,0.5,1.6,1.2,0.5,2.4C88.6,268.2,84,270,78.6,270z"/>
	<path class="st0" d="M193.6,166.8c0.6-5.2,2.8-9.7,7.6-12.6c5.1-3.1,10.8-4.4,16.6-5.7c0.9-0.2,1.4,0,1.3,1.1
		c-0.6,5.3-1.2,10.6-3.1,15.7c-2.3,6.1-8.3,10.6-14,10.6c-1.7,0-2-0.6-1.3-2c1.1-2.3,2.3-4.7,3.4-7c0.3-0.6,0.8-1.3,0.2-1.8
		c-0.5-0.4-1.1,0.2-1.6,0.5c-2.1,1.4-4.1,2.9-6.2,4.4c-2.1,1.4-2.3,1.3-2.6-1.2C193.7,168.1,193.7,167.6,193.6,166.8z"/>
	<path class="st4" d="M162.7,220.4c-2.7,6.3-5.2,12.5-10.2,17.2c-4.1,3.8-9.1,5.1-14.7,3.7c-1.7-0.4-1.7-1.1-0.6-2.3
		c1.8-1.8,3.5-3.7,5.3-5.5c0.5-0.5,1-1.1,1.1-1.9c-1.8-0.4-3.3,0.5-4.9,0.9c-1.7,0.5-3.5,1-5.2,1.6c-1.3,0.4-1.6-0.1-1.4-1.3
		c0.3-2.1,1-4,2.2-5.7c2.9-4.2,6.9-6.6,12-7.2C151.7,219.3,157.1,219.6,162.7,220.4z"/>
	<path class="st0" d="M244.2,175.8c-3.2,0-3.4-0.2-2.5-2.1c1-2.2,2.2-4.4,3.2-6.7c0.3-0.6,0.9-1.4,0.2-2c-0.6-0.5-1.2,0.3-1.7,0.6
		c-2.1,1.5-4.2,3-6.4,4.5c-1.7,1.1-1.9,1-2.2-1c-0.9-5.6,2.5-12.3,7.9-15.3c5-2.8,10.5-4.2,16.1-5.3c0.9-0.2,1.4,0,1.3,1.1
		c-0.6,5.7-1.2,11.4-3.6,16.8C253.9,172.1,249.3,175,244.2,175.8z"/>
	<path class="st4" d="M230.4,197.5c-1.5-0.2-2.9,0.5-4.3,0.9c-1.7,0.5-3.4,1.1-5.2,1.6c-2,0.6-2.2,0.3-1.9-1.6
		c1.2-6.1,5.1-10,10.8-11.7c6-1.8,12.3-1.1,18.5-0.5c1,0.1,1,0.7,0.7,1.4c-2.3,5.5-4.8,10.9-9,15.3c-4.1,4.2-9.2,5.8-15,4.5
		c-2.3-0.5-2.4-0.9-0.9-2.6c1.5-1.6,3.1-3.2,4.6-4.8C229.5,199.4,230.4,198.7,230.4,197.5z"/>
	<path class="st0" d="M194.9,137.2c-2.7,1.1-4.6,3-6.8,4.4c-1,0.6-2,2-3.1,1.5c-1.1-0.6-0.9-2.2-0.8-3.5c0.3-5.3,2.5-9.6,6.9-12.5
		c5.3-3.5,11.3-4.9,17.4-6.1c0.9-0.2,1,0.2,1,0.9c-0.5,6.3-1.2,12.7-4.3,18.4c-2.7,4.9-7,7.6-12.6,8.1c-2,0.2-2.3-0.3-1.4-2.1
		c0.9-2.1,2-4.1,3-6.1C194.7,139.3,195.2,138.5,194.9,137.2z"/>
	<path class="st4" d="M20,217.5c-2.5,0.1-4.9-0.7-7.2-1.7c-4.4-1.9-8.4-4.6-12.3-7.4c-0.8-0.6-0.9-0.9-0.1-1.6
		c4.4-3.4,9-6.6,14.3-8.4c6.1-2.1,11.7-1.2,16.6,3.2c1.6,1.4,1.5,2-0.6,2.6c-2.5,0.8-5.1,1.5-7.7,2.3c-0.5,0.1-1.2,0.3-1.2,0.9
		c0,0.6,0.8,0.7,1.2,0.8c2.7,0.7,5.5,1.2,8.2,1.9c1.9,0.5,2,0.8,0.7,2.3C28.8,216,24.6,217.3,20,217.5z"/>
	<path class="st0" d="M38.4,246.5c1.8,1.2,3.9,1.2,5.9,1.8c0.8,0.2,1.7,0.3,2.5,0.5c0.9,0.3,2.3,0.1,2.5,1.2c0.2,1-0.9,1.7-1.6,2.4
		c-4.2,3.7-9.1,5-14.5,3.7c-6.1-1.5-11.2-5.2-16.2-8.8c-0.7-0.5-0.5-0.8,0.1-1.3c4.9-3.7,9.9-7.3,15.9-9c5.4-1.5,10.3-0.3,14.6,3.3
		c2.2,1.8,2,2.3-0.6,3.1c-2.1,0.6-4.2,1.2-6.3,1.8C39.8,245.4,38.8,245.6,38.4,246.5z"/>
	<path class="st4" d="M77.9,132.8c0-1.9,0-3.7,0-5.6c0-1,0.5-0.9,1.2-0.7c5.5,1.9,11,4,15.6,7.6c4.7,3.7,6.7,8.7,6,14.7
		c-0.3,2.6-0.9,2.8-2.9,1.1c-1.8-1.4-3.4-3-5.2-4.4c-0.6-0.5-1.3-1.4-2-0.9c-0.6,0.4,0,1.4,0.2,2c0.9,2.3,1.8,4.6,2.6,6.9
		c0.7,2,0.5,2.3-1.7,2.1c-4.7-0.3-10.4-4.9-12.2-10.1C78.1,141.4,77.8,137.1,77.9,132.8z"/>
	<path class="st0" d="M136.2,146.3c-0.1,1.9,0.2,3.8-1.1,4.5c-1.1,0.6-2.2-1.1-3.2-1.9c-1.6-1.3-3.2-2.7-4.8-3.9
		c-0.3-0.3-0.8-0.7-1.2-0.4c-0.4,0.3-0.2,0.9,0,1.3c1,2.6,2,5.1,2.9,7.7c0.8,2.1,0.6,2.3-1.6,2.2c-4.8-0.2-10.5-4.9-12.3-10.2
		c-2-6-1.7-12.1-1.6-18.3c0-0.9,0.4-1,1.1-0.8c5.7,2,11.3,4.1,16,8C134.3,137.6,135.8,141.9,136.2,146.3z"/>
	<path class="st4" d="M161.5,161.3c0,1-0.4,1.7-1,2.5c-1.5,1.8-2.8,3.7-4.2,5.5c-1-1.6-1.9-3.2-2.9-4.8c-0.3-0.5-0.6-1.4-1.4-1.1
		c-0.6,0.2-0.5,1.1-0.5,1.6c0.1,2.5,0.3,5.1,0.3,7.6c0,2.5-0.3,2.7-2.6,1.5c-4.7-2.4-8.3-8.9-8-14.3c0.4-5.9,2.2-11.3,4.3-16.8
		c0.4-1,0.7-1.2,1.7-0.5c4.3,3.4,8.4,7,11.6,11.5C160.3,156.2,161.4,158.5,161.5,161.3z"/>
	<path class="st0" d="M239.9,213.6c-2.2-0.8-4.3-0.4-6.2-0.6c-0.7-0.1-1.5,0.2-1.9-0.5c-0.4-0.7,0.3-1.3,0.7-1.9
		c2.4-3.6,7.5-5.2,12.6-3.9c3,0.7,5.9,2,8.7,3.4c0.9,0.4,1.3,0.8,0.4,1.7c-2.7,2.8-5.4,5.5-8.9,7.4c-3.8,2.1-7.6,1.9-11.2-0.2
		c-1.6-0.9-1.6-1.3,0-2.2C236,215.8,238.1,215.2,239.9,213.6z"/>
	<path class="st0" d="M227.7,242.2c-1.9-0.9-3.7-1-5.5-1.5c-0.6-0.2-1.5-0.1-1.7-0.8c-0.3-0.8,0.5-1.3,1.1-1.8
		c3-2.5,6.4-3.3,10.1-2.1c3.5,1.1,6.5,3.1,9.4,5.2c0.8,0.6,0.6,1,0,1.5c-2.9,2.2-5.8,4.3-9.3,5.4c-3.6,1.2-7,0.5-10-1.8
		c-0.5-0.4-1.1-0.8-1-1.4c0.1-0.7,0.9-0.7,1.4-0.9C223.9,243.5,225.8,243.4,227.7,242.2z"/>
</g>
</svg>
