<?xml version="1.0" encoding="UTF-8" standalone="no"?>
<!DOCTYPE svg PUBLIC "-//W3C//DTD SVG 1.1//EN"
"http://www.w3.org/Graphics/SVG/1.1/DTD/svg11.dtd">


<!-- Page 1 -->
<svg x="0" y="0" width="1286" height="609" viewBox="0 100 1286 609" version="1.1" xmlns="http://www.w3.org/2000/svg" xmlns:xlink="http://www.w3.org/1999/xlink"
style="display: block;margin-left: auto;margin-right: auto;">
<defs>

<style type="text/css"><![CDATA[

.g1_1{
fill: #EE1D23;
}


]]></style>

</defs>
<path d="M0,0
L0,909
L1286,909
L1286,0 Z "
fill="#FFFFFF" stroke="none" />
<path d="M506.1,279.9c0,-17,-13.8,-30.8,-30.8,-30.8c-17,0,-30.7,13.8,-30.7,30.8c0,14.3,9.8,26.3,23,29.7l-81.7,0l0,37.4l55.5,0l-38.6,67.7l32.4,18.7l38.6,-67.8L513,433.4l32.4,-18.7L506.3,347l55.1,0l0,-37.4l-78.5,0c13.3,-3.4,23.2,-15.4,23.2,-29.7Z" class="g1_1" />
<path d="M698.7,279c5.3,0,9.7,-4.3,9.7,-9.7c0,-5.3,-4.4,-9.6,-9.7,-9.6c-5.3,0,-9.6,4.3,-9.6,9.6c0,5.4,4.3,9.7,9.6,9.7Z" class="g1_1" />
<path d="M620.8,279c5.3,0,9.6,-4.3,9.6,-9.7c0,-5.3,-4.3,-9.6,-9.6,-9.6c-5.3,0,-9.6,4.3,-9.6,9.6c0,5.4,4.3,9.7,9.6,9.7Z" class="g1_1" />
<path d="M690.6,279.9c0,-17,-13.8,-30.8,-30.8,-30.8c-17,0,-30.8,13.8,-30.8,30.8c0,14.3,9.9,26.3,23.1,29.7l-81.7,0l0,37.4l55.4,0l-46.6,79.2l158.2,0L691,347l54.9,0l0,-37.4l-78.4,0c13.2,-3.4,23.1,-15.4,23.1,-29.7Z" class="g1_1" />
<path d="M930.4,309.6l-78.4,0c13.3,-3.4,23.1,-15.4,23.1,-29.7c0,-17,-13.8,-30.8,-30.8,-30.8c-16.9,0,-30.7,13.8,-30.7,30.8c0,14.3,9.8,26.3,23.1,29.7l-81.8,0l0,37.4l55.2,0l-39.9,68.5l32.4,18.7l40.1,-68.9L882,433.4l32.4,-18.7L875.3,347l55.1,0Z" class="g1_1" />
<path d="M197.2,561.1l0,-42.1c0,-8.3,1.2,-22.8,-12.7,-22.8c-11.5,0,-14.8,9.3,-14.8,20.1l0,44.8l-28.2,0l0,-86.5l28.2,0l0,11.1l0.3,0c6.5,-10.4,14.5,-14,25.5,-14c21.4,0,29.9,14.7,29.9,36l0,53.4Z" class="g1_1" />
<path d="M334.1,518c0,-29.5,-22.4,-46.3,-48,-46.3c-25.6,0,-48,16.8,-48,46.3c0,29.5,22.5,46,48,46c25.6,0,48,-16.7,48,-46m-29.9,0c0,10.9,-6.6,19.4,-18.1,19.4C274.6,537.4,268,528.9,268,518c0,-10.7,6.6,-19.6,18.1,-19.6c11.5,0,18.1,8.9,18.1,19.6Z" class="g1_1" />
<path d="M452.8,561.1l-18.3,0L414.8,513.8L395,561.1l-18.3,0L335.2,474.6l31.3,0l19.9,46.9l20,-46.9l16.7,0l20.1,46.9l20,-46.9l31.2,0Z" class="g1_1" />
<path d="M588.4,561.1l0,-86.5l-28.2,0l0,8.5c-5.9,-7.6,-15.5,-11.4,-24.7,-11.4c-23.6,0,-39.9,21.3,-39.9,46.1c0,24.8,16.6,46.2,40.2,46.2c9.3,0,19.1,-3.9,24.1,-12.5l0.3,0l0,9.6ZM561.1,518c0,10.9,-6.6,19.4,-18.1,19.4c-11.5,0,-18.2,-8.5,-18.2,-19.4c0,-10.7,6.7,-19.6,18.2,-19.6c11.5,0,18.1,8.9,18.1,19.6Z" class="g1_1" />
<path d="M685.6,564c-11.2,0,-22.4,-3.5,-32.1,-10l10.3,-21.3c5.7,4.3,15.3,8.7,22.3,8.7c3.6,0,8.9,-1.9,8.9,-6.6c0,-6.7,-8.9,-7,-17.7,-9.6c-8.9,-2.5,-17.7,-7.2,-17.7,-22.8c0,-21.2,17.7,-30.7,35.1,-30.7c9,0,18,1.6,26.2,5.6l-9.5,19.6c-4.3,-2.6,-10.4,-4.2,-15.2,-4.2c-3.3,0,-8.8,1.5,-8.8,5.9c0,5.9,8.8,6.7,12.7,7.6c13.2,2.8,23.1,9.6,23.1,25.6c0,22.8,-19.1,32.2,-37.6,32.2Z" class="g1_1" />
<path d="M779.2,535.7l33.5,0l0,25.4l-80.7,0l37.4,-61l-32.4,0l0,-25.5l79.4,0Z" class="g1_1" />
<path d="M888.8,561.1L857.9,525.9l0,35.2l-28.2,0l0,-118.9l28.2,0l0,63.6l29.4,-31.2l38.6,0l-39.9,40l42.4,46.5Z" class="g1_1" />
<path d="M1023.6,518c0,-29.5,-22.3,-46.3,-47.9,-46.3c-25.6,0,-48,16.8,-48,46.3c0,29.5,22.5,46,48,46c25.6,0,47.9,-16.7,47.9,-46m-29.8,0c0,10.9,-6.6,19.4,-18.1,19.4c-11.5,0,-18.2,-8.5,-18.2,-19.4c0,-10.7,6.7,-19.6,18.2,-19.6c11.5,0,18.1,8.9,18.1,19.6Z" class="g1_1" />
<path d="M1178.1,561.1l0,-86.5l-28.3,0l0,8.5c-5.9,-7.6,-15.5,-11.4,-24.7,-11.4c-23.5,0,-39.8,21.3,-39.8,46.1c0,24.8,16.6,46.2,40.2,46.2c9.3,0,19.1,-3.9,24.1,-12.5l0.2,0l0,9.6ZM1150.8,518c0,10.9,-6.7,19.4,-18.2,19.4c-11.5,0,-18.1,-8.5,-18.1,-19.4c0,-10.7,6.6,-19.6,18.1,-19.6c11.5,0,18.2,8.9,18.2,19.6Z" class="g1_1" />
<path d="M1070.8,500.4l0,60.9l-28.5,0l0,-46.6l-11.3,8.5l0,-23.6l11.3,-8.1l0,-49.7l28.5,0l0,35.5l11.7,-8.7l0,23.8Z" class="g1_1" />
<path d="M951.4,339.8c-6.4,0,-11.6,-5.2,-11.6,-11.6c0,-6.4,5.2,-11.5,11.6,-11.5c6.4,0,11.5,5.1,11.5,11.5c0,6.4,-5.1,11.6,-11.5,11.6m0,-27.7c-8.9,0,-16.1,7.2,-16.1,16.1c0,8.9,7.2,16.1,16.1,16.1c8.9,0,16.1,-7.2,16.1,-16.1c0,-8.9,-7.2,-16.1,-16.1,-16.1Z" class="g1_1" />
<path d="M949.9,326.8l0.4,0c1.4,0,2.9,-0.3,2.9,-2.1c0,-1.8,-1.5,-2,-2.9,-2l-0.4,0Zm9.1,9.1l-5.2,0l-4.1,-6.3l0,6.3l-4.3,0l0,-16.3l6.4,0c3.2,0,5.7,1.5,5.7,5c0,2.3,-1.3,4.2,-3.6,4.6Z" class="g1_1" />

</svg>
