<?xml version="1.0" encoding="UTF-8" standalone="no"?>
<!-- Created with Inkscape (http://www.inkscape.org/) -->
<svg xmlns:rdf="http://www.w3.org/1999/02/22-rdf-syntax-ns#" xmlns="http://www.w3.org/2000/svg" version="1.1" xmlns:cc="http://creativecommons.org/ns#" xmlns:dc="http://purl.org/dc/elements/1.1/" viewBox="0 0 87 119"  height="119">
 <metadata>
  <rdf:RDF>
   <cc:Work rdf:about="">
    <dc:format>image/svg+xml</dc:format>
    <dc:type rdf:resource="http://purl.org/dc/dcmitype/StillImage"/>
    <dc:title/>
   </cc:Work>
  </rdf:RDF>
 </metadata>
 <rect style="stroke-linejoin:round;enable-background:accumulate;color:#000000;stroke-dashoffset:0;stroke:#09af54;stroke-linecap:round;stroke-miterlimit:4;stroke-dasharray:none;stroke-width:4.5;fill:none;" rx="7.8571" ry="7.8571" height="43.492" width="58.849" y="37.537" x="10.941"/>
 <path style="stroke-linejoin:round;enable-background:accumulate;color:#000000;stroke-dashoffset:0;stroke:#09af54;stroke-linecap:round;stroke-miterlimit:4;stroke-dasharray:none;stroke-width:4.5;fill:none;" d="m61.256,21.711,15.997,16.039-0.0298,43.138l-16.039,15.996-42.937-0.03-15.997-16.038,0.0298-43.138,16.039-15.997z"/>
 <path style="stroke-linejoin:round;enable-background:accumulate;color:#000000;stroke-dashoffset:0;stroke:#09af54;stroke-linecap:round;stroke-miterlimit:4;stroke-dasharray:none;stroke-width:4;fill:none;" d="m33.669,89.193,12.857,0"/>
 <path d="m57.955,65.727,0-12.415" style="stroke-linejoin:round;enable-background:accumulate;color:#000000;stroke-dashoffset:0;stroke:#09af54;stroke-linecap:round;stroke-miterlimit:4;stroke-dasharray:none;stroke-width:4.5;fill:none;"/>
 <path style="stroke-linejoin:round;enable-background:accumulate;color:#000000;stroke-dashoffset:0;stroke:#09af54;stroke-linecap:round;stroke-miterlimit:4;stroke-dasharray:none;stroke-width:4.5;fill:none;" d="m50.063,65.727,0-12.415"/>
 <path style="stroke-linejoin:round;enable-background:accumulate;color:#000000;stroke-dashoffset:0;stroke:#09af54;stroke-linecap:round;stroke-miterlimit:4;stroke-dasharray:none;stroke-width:4.5;fill:none;" d="m30.05,65.727,0-12.415"/>
 <path d="m22.158,65.727,0-12.415" style="stroke-linejoin:round;enable-background:accumulate;color:#000000;stroke-dashoffset:0;stroke:#09af54;stroke-linecap:round;stroke-miterlimit:4;stroke-dasharray:none;stroke-width:4.5;fill:none;"/>
 <path style="enable-background:accumulate;color:#000000;fill:#09af54;" d="m283.39,79.55a1.7411,1.7411,0,1,1,-3.4822,0,1.7411,1.7411,0,1,1,3.4822,0z" transform="matrix(1.4358974,0,0,1.4358974,-364.32506,-58.692478)"/>
 <path style="enable-background:accumulate;color:#000000;fill:#09af54;" d="m283.39,79.55a1.7411,1.7411,0,1,1,-3.4822,0,1.7411,1.7411,0,1,1,3.4822,0z" transform="matrix(1.4358974,0,0,1.4358974,-364.32506,-50.656758)"/>
 <path style="stroke-linejoin:round;enable-background:accumulate;color:#000000;stroke-dashoffset:0;stroke:#09af54;stroke-linecap:round;stroke-miterlimit:4;stroke-dasharray:none;stroke-width:4;fill:none;" d="m84.812,70.083,0-5.0916"/>
 <path d="m84.812,58.087,0-9.0059" style="stroke-linejoin:round;enable-background:accumulate;color:#000000;stroke-dashoffset:0;stroke:#09af54;stroke-linecap:round;stroke-miterlimit:4;stroke-dasharray:none;stroke-width:4;fill:none;"/>
 <path d="m29.976,13.986,0-10.458" style="stroke-linejoin:round;enable-background:accumulate;color:#000000;stroke-dashoffset:0;stroke:#09af54;stroke-linecap:round;stroke-miterlimit:4;stroke-dasharray:none;stroke-width:5;fill:none;"/>
 <path style="stroke-linejoin:round;enable-background:accumulate;color:#000000;stroke-dashoffset:0;stroke:#09af54;stroke-linecap:round;stroke-miterlimit:4;stroke-dasharray:none;stroke-width:4.5;fill:none;" d="m50.053,13.986,0-10.458"/>
 <path style="stroke-linejoin:miter;enable-background:accumulate;color:#000000;stroke-dashoffset:0;stroke:#09af54;stroke-linecap:round;stroke-miterlimit:5;stroke-dasharray:none;stroke-width:4.5;fill:none;" d="m61.863,13.837-2.336-11.554-39.333,0-2.0203,11.617"/>
 <path style="stroke-linejoin:round;enable-background:accumulate;color:#000000;stroke-dashoffset:0;stroke:#09af54;stroke-linecap:round;stroke-miterlimit:4;stroke-dasharray:none;stroke-width:5;fill:none;" d="m29.976,105.05,0,10.458"/>
 <path d="m50.053,105.05,0,10.458" style="stroke-linejoin:round;enable-background:accumulate;color:#000000;stroke-dashoffset:0;stroke:#09af54;stroke-linecap:round;stroke-miterlimit:4;stroke-dasharray:none;stroke-width:4.5;fill:none;"/>
 <path d="m61.863,105.2-2.336,11.554-39.333,0-2.0203-11.617" style="stroke-linejoin:miter;enable-background:accumulate;color:#000000;stroke-dashoffset:0;stroke:#09af54;stroke-linecap:round;stroke-miterlimit:5;stroke-dasharray:none;stroke-width:4.5;fill:none;"/>
</svg>