<?xml version="1.0" encoding="UTF-8" standalone="no"?>
<!-- Created with Inkscape (http://www.inkscape.org/) -->

<svg
   xmlns:dc="http://purl.org/dc/elements/1.1/"
   xmlns:cc="http://creativecommons.org/ns#"
   xmlns:rdf="http://www.w3.org/1999/02/22-rdf-syntax-ns#"
   xmlns:svg="http://www.w3.org/2000/svg"
   xmlns="http://www.w3.org/2000/svg"
   version="1.1"
   viewBox="0 0 293 83" width="293">

  <path
     d="m 46.56925,53.968 0,-44.9309 -2.04091,0 c -0.22676,-0.1443 -0.34015,-0.2783 -0.34015,-0.402 0,-0.1031 0.11339,-0.2268 0.34015,-0.3711 l 9.122248,0 c 2.80366,0 5.097096,0.969 6.880336,2.9067 1.7832,1.9379 2.67481,4.6591 2.67482,8.1637 -1e-5,2.144 -0.30409,3.9942 -0.91222,5.5506 -0.60817,1.5565 -1.55131,2.8604 -2.82944,3.9118 -0.804006,0.6597 -2.020306,1.2884 -3.648896,1.8862 1.69044,0.6185 2.937656,1.2473 3.741666,1.8863 1.27813,1.0514 2.24704,2.3244 2.90675,3.819 0.65967,1.4946 0.98951,3.3345 0.98953,5.5197 -2e-5,2.8243 -0.48448,5.3291 -1.45338,7.5143 -0.6597,1.5255 -1.742,2.7985 -3.2469,3.819 -1.504916,1.0204 -3.308756,1.5307 -5.411496,1.5307 l -8.813018,0 c -0.22676,-0.1443 -0.34015,-0.2783 -0.34015,-0.402 0,-0.1237 0.11339,-0.2577 0.34015,-0.402 z m 6.370108,-44.9309 0,21.2749 1.63892,0 c 0.74213,0 1.29359,-0.1855 1.65437,-0.5566 0.36075,-0.3711 0.54114,-0.9895 0.54115,-1.8554 l 0,-16.1417 c -10e-6,-1.0514 -0.18555,-1.7677 -0.55661,-2.1492 -0.37109,-0.3813 -1.09262,-0.572 -2.1646,-0.572 z m 0,22.0789 0,22.852 0.98954,0 c 0.86582,0 1.55643,-0.2474 2.07183,-0.7422 0.51537,-0.4947 0.77306,-1.1647 0.77307,-2.01 l 0,-17.9662 c -10e-6,-0.7627 -0.14947,-1.309 -0.44838,-1.6389 -0.29894,-0.3298 -0.76793,-0.4947 -1.40699,-0.4947 z"
      />
  <path
     d="m 67.718054,9.0371 -1.91722,0 c -0.22676,-0.1443 -0.34015,-0.268 -0.34015,-0.3711 0,-0.1237 0.11339,-0.2577 0.34015,-0.402 l 10.29732,0 c 0.10306,0 0.19068,0.036 0.26284,0.1082 0.0721,0.072 0.10822,0.1598 0.10823,0.2629 -1e-5,0.1237 -0.0361,0.2216 -0.10823,0.2937 -0.0722,0.072 -0.15978,0.1083 -0.26284,0.1083 l -2.04091,0 0,44.9309 1.29876,0 c 0.92767,0 1.74198,-0.2629 2.44291,-0.7886 0.7009,-0.5257 1.3812,-1.6131 2.04091,-3.2623 0.9689,-2.4326 1.67497,-5.0868 2.11821,-7.9627 0.44321,-2.8758 0.67513,-4.7157 0.69577,-5.5197 0.0206,-0.2886 0.0618,-0.4741 0.12369,-0.5566 l 0.24738,-0.093 0.24738,0.093 c 0.0824,0.082 0.12368,0.1752 0.12369,0.2783 l -0.24738,18.6156 -17.34773,0 c -0.10307,0 -0.19069,-0.036 -0.26284,-0.1083 -0.0721,-0.072 -0.10823,-0.17 -0.10823,-0.2937 0,-0.1237 0.0361,-0.2216 0.10823,-0.2938 0.0721,-0.072 0.15977,-0.1082 0.26284,-0.1082 l 1.91722,0 z"
      />
  <path
     d="m 93.173554,8.9134 3.43244,0 5.504276,45.0546 1.39153,0 c 0.22675,0.1443 0.34013,0.2783 0.34015,0.402 -2e-5,0.1237 -0.1134,0.2577 -0.34015,0.402 l -9.307796,0 c -0.10308,0 -0.18554,-0.036 -0.24738,-0.1083 -0.0618,-0.072 -0.0928,-0.17 -0.0928,-0.2937 -1e-5,-0.1237 0.0309,-0.2216 0.0928,-0.2938 0.0618,-0.072 0.1443,-0.1082 0.24738,-0.1082 l 1.4843,0 -0.804,-8.7821 -5.59703,0 -0.68031,4.9786 c -0.0206,0.268 -0.0309,0.5463 -0.0309,0.8349 0,0.907 0.17008,1.5925 0.51023,2.0563 0.34015,0.4639 0.80914,0.7473 1.40699,0.8504 l 0.49477,0.1546 c 0.0824,0.082 0.12368,0.1856 0.12369,0.3093 -1e-5,0.1237 -0.0361,0.2216 -0.10823,0.2937 -0.0722,0.072 -0.15978,0.1083 -0.26285,0.1083 l -5.28781,0 c -0.10307,0 -0.19069,-0.036 -0.26284,-0.1083 -0.0722,-0.072 -0.10823,-0.17 -0.10823,-0.2937 0,-0.1237 0.0309,-0.2268 0.0928,-0.3093 l 0.37107,-0.1237 c 0.59784,-0.082 1.06169,-0.3504 1.39153,-0.804 0.49477,-0.7215 0.84522,-1.9172 1.05138,-3.587 z m -0.77307,11.5342 -3.03045,23.9343 5.41151,0 z"
      />
  <path
     d="m 120.53505,7.9238 0,18.3373 c -2e-5,0.1443 -0.0413,0.2629 -0.12369,0.3556 -0.0825,0.093 -0.18555,0.1392 -0.30923,0.1392 -0.12371,0 -0.22678,-0.041 -0.30923,-0.1237 -0.0825,-0.1031 -0.1237,-0.2268 -0.12369,-0.3711 l 0,-1.6389 c -1e-5,-2.5975 -0.29894,-5.2053 -0.89676,-7.8235 -0.76278,-3.4221 -1.81416,-5.8547 -3.15413,-7.2978 -0.5154,-0.5566 -1.18539,-0.8349 -2.00999,-0.8349 -0.55662,0 -0.99985,0.2165 -1.32968,0.6494 -0.43293,0.536 -0.64939,1.3606 -0.64938,2.4738 l 0,39.7049 c -1e-5,0.9896 0.19068,1.706 0.57207,2.1492 0.38137,0.4432 0.8916,0.6648 1.53068,0.6648 0.8246,0 1.66982,-0.3659 2.53568,-1.0977 0.86582,-0.7319 1.52551,-1.7163 1.97906,-2.9532 0.94829,-2.515 1.42244,-5.329 1.42245,-8.4419 l 0,-5.1023 c -1e-5,-0.2061 0.0412,-0.3607 0.12369,-0.4638 0.0824,-0.1031 0.18552,-0.1546 0.30923,-0.1546 0.10306,0 0.18552,0.041 0.24738,0.1236 0.12368,0.1444 0.18552,0.3093 0.18554,0.4948 l 0,5.1023 c -2e-5,4.8033 -0.88647,8.411 -2.65936,10.823 -1.25755,1.7317 -2.84492,2.5975 -4.76213,2.5975 -1.42246,0 -2.65937,-0.4484 -3.71074,-1.3451 -1.05138,-0.8968 -1.90691,-2.4275 -2.5666,-4.5921 -1.2163,-4.0612 -1.82445,-8.9573 -1.82445,-14.6883 l 0,-5.3188 c 0,-4.123 0.35561,-8.0347 1.06684,-11.7352 0.71122,-3.7004 1.87083,-6.3958 3.47882,-8.0863 1.09261,-1.1338 2.32952,-1.7007 3.71075,-1.7008 1.64921,1e-4 3.1335,1.1339 4.45289,3.4015 l 2.47383,-3.2469 z"
      />
  <path
     d="m 125.57813,9.068 -1.85537,0 c -0.12369,0 -0.22161,-0.036 -0.29376,-0.1082 -0.0722,-0.072 -0.10824,-0.1701 -0.10823,-0.2938 -10e-6,-0.1237 0.0361,-0.2216 0.10823,-0.2938 0.0722,-0.072 0.17007,-0.1082 0.29376,-0.1082 l 10.17363,0 c 0.20614,0.1443 0.30921,0.2783 0.30922,0.402 -1e-5,0.1237 -0.10308,0.2577 -0.30922,0.402 l -1.94815,0 0,22.5427 7.05042,-17.1621 c 0.4329,-1.0308 0.64936,-1.9687 0.64938,-2.814 -2e-5,-0.7009 -0.13402,-1.2575 -0.402,-1.6698 -0.26801,-0.4123 -0.6494,-0.6906 -1.14415,-0.835 l -1.17506,-0.093 c -0.14432,-0.082 -0.21648,-0.2061 -0.21646,-0.371 -2e-5,-0.1237 0.0361,-0.2216 0.10823,-0.2938 0.0721,-0.072 0.15975,-0.1082 0.26284,-0.1082 l 7.60703,0 c 0.10305,0 0.19066,0.036 0.26284,0.1082 0.0721,0.072 0.10821,0.1701 0.10823,0.2938 -2e-5,0.1649 -0.0619,0.2783 -0.18554,0.3401 l -1.4843,0.1546 c -0.72155,0.2268 -1.34516,0.7319 -1.87083,1.5153 -0.52571,0.7834 -1.27301,2.3707 -2.24191,4.7621 l -3.15413,7.6688 8.10179,30.8611 1.39153,0 c 0.10305,0 0.19067,0.036 0.26285,0.1082 0.0721,0.072 0.1082,0.1701 0.10823,0.2938 -3e-5,0.1237 -0.0361,0.2216 -0.10823,0.2937 -0.0722,0.072 -0.1598,0.1083 -0.26285,0.1083 l -9.83347,0 c -0.18555,-0.1443 -0.27832,-0.2783 -0.27831,-0.402 -1e-5,-0.1443 0.0928,-0.2783 0.27831,-0.402 l 2.00999,0 -5.84443,-21.5223 0,21.5223 1.94815,0 c 0.12368,0 0.2216,0.036 0.29376,0.1082 0.0721,0.072 0.10822,0.1701 0.10823,0.2938 -1e-5,0.1237 -0.0361,0.2216 -0.10823,0.2937 -0.0722,0.072 -0.17008,0.1083 -0.29376,0.1083 l -10.17363,0 -0.12369,-0.062 c -0.0619,-0.082 -0.0928,-0.1958 -0.0928,-0.3401 0,-0.1443 0.0721,-0.2783 0.21646,-0.402 l 1.85537,0 z"
      />
  <path
     d="m 160.78758,52.0817 c -0.70092,0.4947 -1.4173,1.108 -2.14914,1.8399 -0.73184,0.7318 -1.18022,1.0977 -1.34514,1.0977 -0.0618,0 -0.11339,-0.031 -0.15461,-0.093 -0.0412,-0.062 -0.0619,-0.1959 -0.0619,-0.402 l 0,-19.4196 c 0,-0.082 0.0258,-0.1494 0.0773,-0.201 0.0515,-0.051 0.10823,-0.077 0.17007,-0.077 0.10308,0 0.19585,0.062 0.27831,0.1856 0.1443,0.1855 0.21646,0.3917 0.21646,0.6184 l 0,1.3297 c 0,2.5769 0.40199,5.5146 1.20599,8.813 0.80399,3.2985 1.85537,5.6486 3.15413,7.0504 0.63907,0.7009 1.38122,1.0514 2.22645,1.0514 0.96891,0 1.81413,-0.4587 2.53567,-1.3761 0.72153,-0.9173 1.08229,-2.3037 1.0823,-4.1591 -1e-5,-1.7729 -0.32985,-3.6489 -0.98953,-5.628 -0.86585,-2.6387 -2.78306,-6.8648 -5.75165,-12.6783 -1.85538,-3.6283 -3.0356,-6.2515 -3.54067,-7.8699 -0.50507,-1.6182 -0.75761,-3.1901 -0.75761,-4.7157 0,-3.0304 0.71638,-5.4012 2.14914,-7.1123 1.43276,-1.711 3.06651,-2.5665 4.90127,-2.5666 1.56675,1e-4 2.9789,0.835 4.23644,2.5048 1.03075,-0.5566 2.03058,-1.2472 2.99952,-2.0718 0.32982,-0.2886 0.54628,-0.4329 0.64938,-0.433 0.0412,1e-4 0.0824,0.021 0.12369,0.062 0.0412,0.083 0.0618,0.2269 0.0618,0.433 l 0,16.7911 c -1e-5,0.2268 -0.0515,0.4123 -0.15461,0.5566 -0.0619,0.082 -0.14432,0.1237 -0.24738,0.1237 -0.12371,0 -0.21648,-0.052 -0.27831,-0.1546 -0.0619,-0.1031 -0.18555,-0.8452 -0.37108,-2.2265 -0.84523,-6.4113 -1.96876,-10.658 -3.37059,-12.7402 -0.82462,-1.1956 -1.76261,-1.7935 -2.81398,-1.7935 -0.78339,0 -1.46369,0.3505 -2.04091,1.0513 -0.57723,0.701 -0.86584,1.7318 -0.86584,3.0923 0,2.4533 1.40183,6.4836 4.20551,12.0909 l 2.72121,5.4733 c 1.87598,3.7726 3.1232,6.767 3.74167,8.9831 0.61844,2.2162 0.92767,4.2004 0.92769,5.9527 -2e-5,3.051 -0.75248,5.4424 -2.25737,7.1741 -1.50493,1.7317 -3.26753,2.5975 -5.28781,2.5975 -2.18523,0 -3.92721,-1.0514 -5.22597,-3.1541 z"
      />
  <path
     d="m 194.0089,26.2611 0,11.4105 c -2e-5,6.5763 -1.04109,11.3796 -3.12321,14.4101 -1.44308,2.1027 -3.24691,3.1541 -5.4115,3.1541 -1.46369,0 -2.81399,-0.5257 -4.0509,-1.5771 -1.23691,-1.0513 -2.20583,-2.5975 -2.90674,-4.6384 -1.13384,-3.2778 -1.70076,-6.9164 -1.70076,-10.9158 l 0,-13.3586 c 0,-6.2258 1.04107,-10.8436 3.12321,-13.8535 1.44306,-2.0821 3.22628,-3.1231 5.34965,-3.1232 1.03075,1e-4 1.97905,0.232 2.84491,0.6958 0.86582,0.4639 1.63889,1.1442 2.31921,2.0409 0.68029,0.8968 1.29359,2.0822 1.83991,3.5561 0.54629,1.4741 0.93282,3.0047 1.15961,4.5921 0.37106,2.7006 0.55659,5.2363 0.55661,7.607 z m -10.66839,23.9034 c -1e-5,1.6079 0.24738,2.7727 0.74215,3.4942 0.37107,0.5154 0.8246,0.7731 1.36061,0.7731 0.51537,0 0.9689,-0.2319 1.3606,-0.6958 0.39168,-0.4638 0.58753,-1.1286 0.58754,-1.9945 l 0,-39.6431 c -1e-5,-1.1131 -0.2577,-1.9996 -0.77307,-2.6593 -0.35047,-0.4741 -0.7937,-0.7112 -1.32969,-0.7113 -0.47416,10e-5 -0.88646,0.2269 -1.23691,0.6803 -0.47416,0.6185 -0.71124,1.5153 -0.71123,2.6903 z"
      />
  <path
     d="m 198.58208,9.0371 -1.91722,0 c -0.22676,-0.1443 -0.34015,-0.268 -0.34015,-0.3711 0,-0.1237 0.11339,-0.2577 0.34015,-0.402 l 10.29732,0 c 0.10306,0 0.19068,0.036 0.26284,0.1082 0.0721,0.072 0.10822,0.1598 0.10823,0.2629 -1e-5,0.1237 -0.0361,0.2216 -0.10823,0.2937 -0.0722,0.072 -0.15978,0.1083 -0.26284,0.1083 l -2.04091,0 0,44.9309 1.29876,0 c 0.92767,0 1.74197,-0.2629 2.44291,-0.7886 0.7009,-0.5257 1.3812,-1.6131 2.0409,-3.2623 0.96891,-2.4326 1.67498,-5.0868 2.11822,-7.9627 0.44321,-2.8758 0.67513,-4.7157 0.69576,-5.5197 0.0206,-0.2886 0.0618,-0.4741 0.1237,-0.5566 l 0.24738,-0.093 0.24738,0.093 c 0.0824,0.082 0.12368,0.1752 0.12369,0.2783 l -0.24738,18.6156 -17.34773,0 c -0.10307,0 -0.19069,-0.036 -0.26284,-0.1083 -0.0721,-0.072 -0.10823,-0.17 -0.10823,-0.2937 0,-0.1237 0.0361,-0.2216 0.10823,-0.2938 0.0722,-0.072 0.15977,-0.1082 0.26284,-0.1082 l 1.91722,0 z"
      />
  <path
     d="m 218.78485,53.937 0,-44.8999 -1.94814,0 c -0.14431,0 -0.25254,-0.036 -0.32469,-0.1083 -0.0721,-0.072 -0.10823,-0.17 -0.10823,-0.2937 0,-0.1031 0.0361,-0.1907 0.10823,-0.2629 0.0722,-0.072 0.18038,-0.1082 0.32469,-0.1082 l 8.00902,0 c 2.4532,0 4.45288,0.5567 5.99904,1.6698 1.54613,1.1133 2.67996,2.8965 3.40151,5.3497 0.94829,3.2778 1.42244,6.7721 1.42245,10.4828 l 0,11.4724 c -1e-5,3.8551 -0.46386,7.339 -1.39152,10.4519 -0.53602,1.7523 -1.21632,3.1181 -2.04091,4.0973 -0.82463,0.9792 -1.82447,1.7214 -2.99952,2.2265 -1.17508,0.505 -2.63876,0.7576 -4.39105,0.7576 l -8.00902,0 c -0.14431,0 -0.25254,-0.036 -0.32469,-0.1083 -0.0721,-0.072 -0.10823,-0.17 -0.10823,-0.2937 0,-0.1443 0.0361,-0.2526 0.10823,-0.3247 0.0722,-0.072 0.18038,-0.1083 0.32469,-0.1083 z m 6.40103,0 0.71123,0 c 1.25752,0 2.08213,-0.2216 2.47383,-0.6648 0.39168,-0.4432 0.58752,-1.5822 0.58753,-3.417 l 0,-37.3857 c -1e-5,-1.3399 -0.1907,-2.247 -0.57207,-2.7212 -0.38139,-0.4741 -0.96377,-0.7112 -1.74714,-0.7112 l -1.45338,0 z"
      />
  <path
     d="m 239.8977,9.0371 -1.85537,0 c -0.10308,0 -0.18554,-0.036 -0.24738,-0.1083 -0.0618,-0.072 -0.0928,-0.1597 -0.0928,-0.2628 0,-0.1237 0.0309,-0.2216 0.0928,-0.2938 0.0618,-0.072 0.1443,-0.1082 0.24738,-0.1082 l 10.04993,0 c 0.10307,0 0.19068,0.036 0.26284,0.1082 0.0722,0.072 0.10822,0.1598 0.10823,0.2629 -1e-5,0.1237 -0.0361,0.2216 -0.10823,0.2937 -0.0722,0.072 -0.15977,0.1083 -0.26284,0.1083 l -1.85537,0 0,44.9309 1.85537,0 c 0.20614,0.1443 0.30922,0.2783 0.30923,0.402 -1e-5,0.1443 -0.10309,0.2783 -0.30923,0.402 l -10.29731,0 c -0.22677,-0.1443 -0.34016,-0.2783 -0.34016,-0.402 0,-0.1237 0.11339,-0.2577 0.34016,-0.402 l 2.10275,0 z"
      />
  <path
     d="m 252.27968,9.0371 -1.97905,0 c -0.20615,-0.1443 -0.30923,-0.268 -0.30923,-0.3711 0,-0.1443 0.10308,-0.2783 0.30923,-0.402 l 17.56418,0 0,17.224 c -0.12371,0.2062 -0.2474,0.3093 -0.37108,0.3093 -0.1237,0 -0.21132,-0.036 -0.26284,-0.1083 -0.0516,-0.072 -0.0876,-0.3659 -0.10823,-0.8813 -0.14432,-3.4221 -0.68032,-6.6071 -1.60799,-9.5551 -0.9277,-2.948 -1.82446,-4.8137 -2.69029,-5.5971 -0.45355,-0.4122 -1.21631,-0.6184 -2.28829,-0.6184 l -1.91722,0 0,21.7696 c 1.17506,-0.1236 2.13367,-0.7421 2.87583,-1.8553 0.98952,-1.5049 1.48428,-3.8138 1.4843,-6.9267 l 0,-2.412 c -2e-5,-0.1031 0.0361,-0.1907 0.10823,-0.2629 0.0721,-0.072 0.15975,-0.1082 0.26284,-0.1082 0.10306,0 0.18552,0.036 0.24738,0.1082 0.0618,0.072 0.0928,0.1598 0.0928,0.2629 l 0,22.9757 c -10e-6,0.103 -0.0309,0.1907 -0.0928,0.2628 -0.0619,0.072 -0.14432,0.1082 -0.24738,0.1082 -0.10309,0 -0.1907,-0.036 -0.26284,-0.1082 -0.0722,-0.072 -0.10825,-0.1598 -0.10823,-0.2628 l 0,-2.2265 c -2e-5,-3.051 -0.55663,-5.4733 -1.66984,-7.2669 -0.6597,-1.0307 -1.35031,-1.5461 -2.07183,-1.5461 -0.18555,0 -0.32985,0.062 -0.43292,0.1855 -0.1237,0.1444 -0.18555,0.3711 -0.18554,0.6803 l 0,21.5533 0.98953,0 c 0.84522,0 1.68013,-0.3144 2.50476,-0.9432 0.82459,-0.6287 1.59766,-1.7213 2.31921,-3.2778 0.72152,-1.5564 1.27813,-3.2521 1.66984,-5.0868 0.63905,-2.9686 0.95859,-5.2878 0.9586,-6.9577 l 0,-2.0409 c 0.14429,-0.2267 0.27829,-0.3401 0.402,-0.3401 0.12367,0 0.2216,0.031 0.29377,0.093 0.0721,0.062 0.10821,0.1444 0.10823,0.2474 l 0,19.1104 -17.56418,0 c -0.14431,0 -0.25769,-0.041 -0.34015,-0.1237 -0.0825,-0.082 -0.12369,-0.1753 -0.12369,-0.2783 0,-0.1237 0.0412,-0.2216 0.12369,-0.2938 0.0825,-0.072 0.19584,-0.1082 0.34015,-0.1082 l 1.97905,0 z"
      />
  <path
     d="m 272.21361,9.0371 -1.82445,0 c -0.22677,-0.1237 -0.34015,-0.2577 -0.34015,-0.402 0,-0.1237 0.11338,-0.2474 0.34015,-0.3711 l 9.7407,0 c 2.41197,0 4.50442,1.0257 6.27734,3.0768 1.77289,2.0513 2.65935,4.8498 2.65937,8.3956 -2e-5,2.0409 -0.34017,3.8551 -1.02046,5.4424 -0.68032,1.5874 -1.69046,2.8965 -3.03044,3.9272 -0.80401,0.6185 -2.05123,1.2163 -3.74166,1.7935 1.89659,0.5566 3.21596,1.0926 3.95812,1.608 1.25752,0.8659 2.19035,1.9069 2.79852,3.1232 0.60813,1.2163 0.91221,2.7934 0.91223,4.7312 l 0,11.3178 c -2e-5,0.5154 0.0824,0.8761 0.24738,1.0823 0.1649,0.2061 0.38136,0.3092 0.64938,0.3092 0.41228,0 0.78336,-0.2577 1.11322,-0.7731 0.53598,-0.8246 0.87613,-2.3089 1.02046,-4.4529 0.0206,-0.371 0.0773,-0.6184 0.17007,-0.7421 0.0927,-0.1237 0.19067,-0.1855 0.29377,-0.1855 0.12367,0 0.22675,0.072 0.30923,0.2164 0.10305,0.1649 0.15459,0.4742 0.15461,0.9277 -2e-5,2.2883 -0.55148,4.0561 -1.65437,5.3033 -1.10294,1.2472 -2.48931,1.8708 -4.15913,1.8708 -1.48431,0 -2.60784,-0.3814 -3.37059,-1.1441 -0.76277,-0.7628 -1.14416,-1.8451 -1.14414,-3.2469 l 0,-16.3582 c -2e-5,-1.4019 -0.35048,-2.3398 -1.05138,-2.814 -0.41232,-0.268 -1.38123,-0.402 -2.90675,-0.402 l 0,22.6974 1.51522,0 c 0.16491,0 0.29376,0.041 0.38654,0.1237 0.0928,0.082 0.13914,0.1752 0.13915,0.2783 -1e-5,0.103 -0.0464,0.1958 -0.13915,0.2783 -0.0928,0.082 -0.22163,0.1237 -0.38654,0.1237 l -9.7407,0 c -0.12369,0 -0.22677,-0.036 -0.30923,-0.1083 -0.0825,-0.072 -0.12369,-0.17 -0.12369,-0.2937 0,-0.1237 0.0412,-0.2216 0.12369,-0.2938 0.0825,-0.072 0.18554,-0.1082 0.30923,-0.1082 l 1.82445,0 z m 6.40103,0 0,21.3986 1.51522,0 c 0.72152,0 1.30906,-0.2474 1.7626,-0.7422 0.45353,-0.4947 0.68029,-1.2162 0.68031,-2.1646 l 0,-16.0489 c -2e-5,-0.9277 -0.16494,-1.5667 -0.49477,-1.9172 -0.32986,-0.3505 -0.97923,-0.5257 -1.94814,-0.5257 z"
      />
  <path
     d="m 48.13485,77.467 c 1.57816,-0.037 2.70415,-0.4015 3.37798,-1.0927 0.673818,-0.6912 1.001858,-1.4854 0.984138,-2.3828 -0.0365,-1.0774 -0.401288,-1.8627 -1.094408,-2.3558 -0.69313,-0.4932 -1.4957,-0.8523 -2.4077,-1.0776 -0.91201,-0.2252 -1.71457,-0.4746 -2.4077,-0.7483 -0.69312,-0.2737 -1.05793,-0.7298 -1.0944,-1.3684 0.0126,-0.5671 0.24012,-1.02 0.68269,-1.3588 0.44256,-0.3387 1.02476,-0.5123 1.74662,-0.5208 0.65349,0 1.27486,0.1126 1.86409,0.3435 0.58922,0.2309 1.10862,0.5893 1.55822,1.075 l 0.886608,-1.0816 C 51.73448,66.3723 51.13602,65.9666 50.4356,65.6818 49.73517,65.397 48.93279,65.2529 48.02846,65.2496 c -1.18548,0.015 -2.15262,0.3177 -2.90143,0.9087 -0.74882,0.5911 -1.13523,1.3817 -1.15924,2.3717 0.0365,1.0274 0.40128,1.7688 1.09441,2.2243 0.69312,0.4555 1.49568,0.7913 2.40769,1.0074 0.91201,0.2161 1.71457,0.4788 2.4077,0.788 0.69312,0.3092 1.05792,0.8312 1.09441,1.566 0.0159,0.4806 -0.18435,0.9335 -0.60068,1.3587 -0.41634,0.4252 -1.1441,0.652 -2.18327,0.6805 -0.83564,-0.016 -1.56709,-0.1881 -2.19436,-0.5165 -0.62728,-0.3284 -1.13708,-0.7178 -1.5294,-1.1681 l -0.86888,1.1171 c 0.48727,0.5593 1.10863,1.01 1.8641,1.3521 0.75546,0.3421 1.64724,0.5179 2.67534,0.5275 z"
      />
  <path
     d="m 64.553874,77.2543 0,-11.8274 -1.47177,0 0,5.0891 -6.915546,0 0,-5.0891 -1.47178,0 0,11.8274 1.47178,0 0,-5.4261 6.915546,0 0,5.4261 z"
      />
  <path
     d="m 72.726634,77.467 c 1.77283,-0.037 3.18771,-0.6195 4.24464,-1.7488 1.05689,-1.1293 1.59846,-2.5856 1.62471,-4.3688 -0.0262,-1.7831 -0.56781,-3.2394 -1.62471,-4.3687 -1.05693,-1.1293 -2.47181,-1.7123 -4.24464,-1.7489 -1.78062,0.037 -3.19771,0.6196 -4.2513,1.7489 -1.05358,1.1293 -1.59294,2.5856 -1.61806,4.3687 0.0251,1.7832 0.56448,3.2395 1.61806,4.3688 1.05359,1.1293 2.47068,1.7123 4.2513,1.7488 z m 0,-1.3121 c -1.3447,-0.028 -2.40124,-0.4858 -3.16963,-1.3721 -0.7684,-0.8862 -1.15998,-2.0307 -1.17476,-3.4334 0.0148,-1.4104 0.40636,-2.5571 1.17476,-3.44 0.76839,-0.8829 1.82493,-1.338 3.16963,-1.3654 1.33692,0.027 2.39124,0.4825 3.16297,1.3654 0.77171,0.8829 1.16551,2.0296 1.18141,3.44 -0.0159,1.4027 -0.4097,2.5472 -1.18141,3.4334 -0.77173,0.8863 -1.82605,1.3436 -3.16297,1.3721 z"
      />
  <path
     d="m 91.551734,77.2543 3.36911,-11.8274 -1.63136,0 -2.60663,9.8591 -2.71302,-9.8591 -1.22352,0 -2.71303,9.8591 -2.62436,-9.8591 -1.63136,0 3.36911,11.8274 1.5959,0 2.60663,-9.54 2.60663,9.54 z"
      />
  <path
     d="m 105.1492,77.2543 -3.1918,-4.8232 c 0.83378,-0.072 1.54676,-0.3975 2.13895,-0.9753 0.59217,-0.5777 0.90174,-1.3993 0.92872,-2.4647 -0.0192,-1.1027 -0.36647,-1.9694 -1.04176,-2.6 -0.67531,-0.6306 -1.5634,-0.952 -2.66426,-0.9642 l -4.752236,0 0,11.8274 1.471772,0 0,-4.6991 2.358384,0 3.01447,4.6991 z m -4.00748,-5.9935 -3.103134,0 0,-4.5217 3.103134,0 c 0.71113,0.011 1.2793,0.2198 1.70451,0.6273 0.42519,0.4074 0.64315,0.949 0.65387,1.6247 -0.0107,0.6764 -0.22868,1.2209 -0.65387,1.6335 -0.42521,0.4127 -0.99338,0.6247 -1.70451,0.6362 z"
      />
  <path
     d="m 112.72846,77.467 c 1.77284,-0.037 3.18772,-0.6195 4.24464,-1.7488 1.0569,-1.1293 1.59847,-2.5856 1.62471,-4.3688 -0.0262,-1.7831 -0.56781,-3.2394 -1.62471,-4.3687 -1.05692,-1.1293 -2.4718,-1.7123 -4.24464,-1.7489 -1.78061,0.037 -3.19771,0.6196 -4.25129,1.7489 -1.05359,1.1293 -1.59295,2.5856 -1.61806,4.3687 0.0251,1.7832 0.56447,3.2395 1.61806,4.3688 1.05358,1.1293 2.47068,1.7123 4.25129,1.7488 z m 0,-1.3121 c -1.3447,-0.028 -2.40124,-0.4858 -3.16963,-1.3721 -0.7684,-0.8862 -1.15998,-2.0307 -1.17476,-3.4334 0.0148,-1.4104 0.40636,-2.5571 1.17476,-3.44 0.76839,-0.8829 1.82493,-1.338 3.16963,-1.3654 1.33692,0.027 2.39125,0.4825 3.16297,1.3654 0.77171,0.8829 1.16551,2.0296 1.18141,3.44 -0.0159,1.4027 -0.4097,2.5472 -1.18141,3.4334 -0.77172,0.8863 -1.82605,1.3436 -3.16297,1.3721 z"
      />
  <path
     d="m 126.30483,77.467 c 1.77284,-0.037 3.18772,-0.6195 4.24464,-1.7488 1.0569,-1.1293 1.59847,-2.5856 1.62471,-4.3688 -0.0262,-1.7831 -0.56781,-3.2394 -1.62471,-4.3687 -1.05692,-1.1293 -2.4718,-1.7123 -4.24464,-1.7489 -1.78061,0.037 -3.19771,0.6196 -4.25129,1.7489 -1.05359,1.1293 -1.59294,2.5856 -1.61806,4.3687 0.0251,1.7832 0.56447,3.2395 1.61806,4.3688 1.05358,1.1293 2.47068,1.7123 4.25129,1.7488 z m 0,-1.3121 c -1.3447,-0.028 -2.40124,-0.4858 -3.16963,-1.3721 -0.7684,-0.8862 -1.15998,-2.0307 -1.17476,-3.4334 0.0148,-1.4104 0.40636,-2.5571 1.17476,-3.44 0.76839,-0.8829 1.82493,-1.338 3.16963,-1.3654 1.33692,0.027 2.39125,0.4825 3.16297,1.3654 0.77171,0.8829 1.16551,2.0296 1.18141,3.44 -0.0159,1.4027 -0.4097,2.5472 -1.18141,3.4334 -0.77172,0.8863 -1.82605,1.3436 -3.16297,1.3721 z"
      />
  <path
     d="m 146.06974,77.2543 0,-11.8274 -2.11013,0 -3.6883,8.9016 -3.67056,-8.9016 -2.11013,0 0,11.8274 1.47177,0 0,-9.735 4.00748,9.735 0.60289,0 4.02521,-9.735 0,9.735 z"
      />
  <path
     d="m 34.92125,21.91752 -0.6333,-3.3248 -1.86824,-2.7549 -1.64658,-0.5383 c 0,0 -0.31665,-0.4749 -0.15832,-0.5699 0.12666,-0.063 -1.86824,-0.3483 -1.86824,-0.3483 l 0.44331,-0.855 -2.69153,-1.6782 -0.44331,0.5066 -0.31665,-0.2217 0.31665,-0.1583 -0.12666,-1.3616 -0.31665,0.3167 c 0,0 -0.0633,-0.3483 -0.12666,-0.9183 3.03984,0.1583 3.19817,-0.2532997 3.07151,-0.9815997 -0.28499,-2.8816 0.50664,-8.29629997 -6.23801,-8.99289997 -6.74465,-0.6966 -5.60471,8.67619997 -5.60471,8.67619997 0.56997,0.7916 1.3616,1.7098997 1.3616,1.7098997 l -0.25332,0.4433 -0.0633,0.6333 c 0,0 -2.69153,0.8233 -2.78652,1.615 -0.095,0.8232 0,2.3432 0,2.3432 l -1.61492,0.4433 c 0,0 -1.1716,1.5832 -1.55158,1.7416 -0.37998,0.7282 -1.20327,3.4198 -1.8682404,3.6414 0.0317,0.2533 0.3483204,0.4433 0.3483204,0.4433 l -1.5199304,5.1614 1.4249304,1.1083 -0.6966304,1.8366 -1.29827,0.8232 0.22166,1.0133 -0.22166,1.045 c 0,0 -2.3432097,2.4698 -2.3432097,3.0715 -1.13994,0.063 -1.67824,0.9816 -1.39326,1.5516 -0.47497,0.4433 -0.85495,0.6333 -0.85495,0.6333 l 0.28498,0.6649 0.50664,-0.2216 0.34832,0.6649 -0.69663,0.4434 -0.095,0.4749 -2.02656,0.9816 -0.12666,-0.095 -1.07661001,0.6017 0.41165001,0.8549 1.29826,-0.5066 -0.0317,-0.1583 1.83657,-0.9183 0.79162,0.475 1.39326,-0.6017 0.37998,0.2533 1.2982697,-0.9816 c 0.25332,0.285 0.5383,0.6967 0.47497,1.1716 -0.22165,1.8683 -0.6333,4.9398 -0.9182797,5.4781 -0.41165,0.7916 -0.88662,8.3912 -0.88662,8.3912 l -0.47498,10.2911 1.23494,2.8182 v 0.3483 c -0.47498,0.4117 -1.01328,0.665 -1.67825,0.7283 0.12666,0.2217 0.47498,0.2217 0.47498,0.2217 0,0 0.44331,-0.1267 1.04494,-0.4117 -0.6333,0.8867 -1.58325,1.71 -2.78652,1.7733 0.12666,0.2216 0.47498,0.2216 0.47498,0.2216 0,0 1.45659,-0.3799 2.50153,-1.4565 l 0.0317,1.9949 -3.32483,3.0715 -3.70480001,1.2666 c 0,0 -0.37998,0.7599 -0.22166,1.4565 0,0.032 -0.25332,0.095 -0.25332,0.1267 0,0.4117 -0.22165,0.855 0.0317,1.0133 0.60163,0.3166 3.57814001,0.5383 3.57814001,0.5383 0,0 2.75486,0.3483 5.1930597,-0.3483 0.25333,-0.063 0.50665,-0.3483 0.75997,-0.4433 0.3483104,-0.063 0.6016304,0.3799 0.8866204,0.3166 1.2666,-0.285 2.4382,-0.6966 2.84985,-0.9816 0.15832,-0.095 0.15832,-0.6333 0.12666,-1.3616 0,-0.095 -0.34832,-0.063 -0.34832,-0.1583 -0.0317,-0.4433 0.25332,-1.0766 0.18999,-1.5833 -0.12666,-1.1082 -0.66496,-2.4698 -0.66496,-2.4698 l -0.0633,-3.3882 2.34321,-2.9765 -1.10828,-6.7763 2.97651,-7.283 2.59653,3.9265 -1.23493,9.6578 3.29316,5.6047 -0.0317,0.38 c -0.79162,-0.032 -1.61491,-0.2216 -2.24822,-0.8233 -0.095,0.2533 0.15833,0.5067 0.15833,0.5067 0,0 0.88662,0.5383 2.05823,0.7283 l -0.0317,0.4433 c -0.44331,0.2849 -0.91829,0.4749 -1.48826,0.5066 0.12666,0.2217 0.47498,0.2217 0.47498,0.2217 0,0 0.41164,-0.1267 0.98161,-0.38 l -0.12666,2.1215 -1.23493,1.8366 c 0,0 -0.60164,1.0133 -1.64659,1.7099 -1.10827,0.6966 -2.12155,0.3167 -2.88151,0.95 -0.53831,0.6333 -0.37998,2.0265 -0.37998,2.0265 l -0.28499,0.285 0.0633,0.9816 c 1.2666,0.4433 3.38816,0.7917 4.87642,0.8233 3.95812,0.032 4.90807,-1.0766 4.90807,-1.0766 l 0.44331,0.2217 2.81819,-1.0133 0.0633,-1.0766 -0.37998,-0.3483 c 0.34831,-0.665 0.41164,-1.4566 0.28498,-2.3116 -0.82329,-2.3749 -1.51992,-3.4198 -1.1716,-6.048 l 2.97651,-4.0848 -0.56997,-6.428 -1.32993,-5.3197 -0.18999,-6.808 4.17978,-2.3749 -0.50664,-6.6813 -1.2666,-2.8815 0.31665,-4.2115 c 0,0 3.35649,-2.0582 3.51482,-2.4381 0.12666,-0.38 0.44331,-3.4199 0.47497,-3.7682 -0.0317,-0.3166 0.34832,-1.1082 0.34832,-1.1716 0,-0.063 -0.0317,-0.7916 0.47497,-0.8866 -0.37998,-0.76 -0.22165,-2.3749 -0.22165,-2.3749 z m -3.2615,-5.4147 c 0,0 2.6282,4.0215 1.86824,5.0031 -0.79163,-0.7283 -1.39326,-0.475 -1.39326,-0.475 0,0 0.69663,-2.7865 -1.20327,-3.0082 l -0.6333,-2.0265 1.36159,0.5066 z m -2.43821,-1.7732 v 0.063 c 0,0 -2.02656,2.3748 -2.34321,3.1031 -1.04494,-0.3166 -3.32482,-1.0766 -3.32482,-1.0766 0,0 3.67314,-0.9816 4.46476,-2.0265 0.47498,-0.063 1.20327,-0.063 1.20327,-0.063 z m -17.92239,22.4188 0.56997,-4.1165 14.81922,-9.8161 1.83657,0.19 -2.56486,2.3115 H 24.2818 l -5.0664,3.2932 -0.66497,1.9632 -6.68131,4.0531 v 2.3432 l -0.56997,-0.2216 z m 0.31665,1.0133 c 0,0.063 -0.79163,1.7099 -1.04495,1.8049 -0.25332,0.1266 -0.7599604,0.6649 -0.7599604,0.6649 l -0.47497,-0.1583 -0.37998,0.1583 c 0,0 -0.25333,-1.1399 -0.25333,-1.3932 0,-0.2217 0.94996,-1.1083 0.94996,-1.1083 l 0.3483104,0.2216 c 0,0 0.56997,-1.2982 0.66497,-1.2032 0.095,0.095 0.41164,0.8866 0.41164,0.8866 0,0 0.6333,-0.285 0.53831,0.1267 z M 21.24196,7.5099203 c -0.22165,-0.032 -0.44331,-0.032 -0.66496,-0.063 l 0.28498,-1.2032 c 0.0633,-0.2217 0.22166,-0.1584 0.34832,0.095 -0.095,0.285 -0.0317,0.7916 0.0317,1.1716 z m 0.22166,0.3484 1.10827,1.1716 c -1.07661,-0.095 -2.40654,-0.063 -3.32483,-0.032 l 0.94996,-1.2033 c 0.41164,-0.032 0.82329,0 1.2666,0.063 z m 2.37487,-1.425 c 0.47498,0.3483 0.50664,0.9183 0.50664,1.1716 0,0 0.095,0.285 0,0.665 -0.25332,-0.095 -0.69663,-0.2216 -1.13994,-0.3483 -0.12666,-0.2217 -0.37998,-0.475 -0.095,-0.5066 0.31665,-0.063 1.13994,-0.063 0.7283,-0.9817 z m -0.31665,-0.063 c -0.47497,-0.285 -1.20327,0 -1.20327,0 0,0 -0.12666,-0.1266 -0.25332,-0.19 0.0633,-0.095 0.7283,-0.2533 0.7283,-0.2533 l 0.56997,0.2217 c 0.0317,0.032 0.31665,0.1583 0.15832,0.2216 z m -0.0633,0.57 h 0.0317 c 0,0 0,0.2217 -0.44331,0.2533 -0.44331,0.032 -1.04494,-0.2216 -1.04494,-0.2216 l 1.45659,-0.032 z m 1.10828,1.8682 -0.34832,0.6333 c -0.15832,-0.1266 -0.37998,-0.1899 -0.6333,-0.2849 h 0.0317 l -1.74157,-1.235 c 1.39326,0.285 2.59653,0.855 2.69152,0.8866 z m 0.15832,1.8682997 c -0.15832,0 -0.28498,0.032 -0.41164,0.095 -0.12666,0.063 -0.22166,0.1266 -0.28499,0.2533 -0.12666,0.2216 -0.0633,0.475 0.095,0.665 0.0317,0.032 0.095,0.095 0.12666,0.1266 0.0633,0.032 0.095,0.063 0.15833,0.095 0.095,0.063 0.22165,0.063 0.34831,0.032 0.22166,-0.032 0.44331,-0.285 0.41165,-0.57 0.0633,0.1267 0.0633,0.3167 0,0.4434 -0.0633,0.1583 -0.18999,0.2849 -0.34832,0.3483 -0.15832,0.063 -0.34831,0.063 -0.50664,0 -0.0633,-0.032 -0.15832,-0.063 -0.22165,-0.1267 -0.0633,-0.063 -0.12666,-0.095 -0.18999,-0.1583 -0.095,-0.1267 -0.18999,-0.285 -0.18999,-0.475 0,-0.1583 0.0317,-0.3483 0.15832,-0.475 0.095,-0.1266 0.25332,-0.2216 0.41165,-0.2533 0.15832,-0.063 0.31665,-0.063 0.44331,0 z m -0.095,-0.38 0.34832,-2.6914997 0.50664,0.38 -0.37998,2.4064997 -0.47498,-0.095 z m -0.91828,0.1583 -0.095,0.38 -0.22166,0.032 -3.26149,0.3483 c -0.0633,-0.032 -0.25332,-0.1583 -0.50664,-0.3483 2.56486,-0.3483 3.35649,-0.4116 4.08478,-0.4116 z m -4.81309,-0.4116 c -0.095,-0.1266997 -0.15832,-0.2532997 -0.25332,-0.3799997 3.10318,-0.38 4.43311,-0.095 5.50972,-0.063 L 23.87018,10.10712 c -1.23493,-0.3798997 -3.89479,-0.1582997 -4.97141,-0.063 z m 4.02146,1.2982 -0.15832,0.475 -3.67315,0.475 0.0633,-0.38 3.76814,-0.57 z m -2.46987,1.615 c 0.12666,0 3.1665,-1.3616 3.1665,-1.3616 l 0.34832,0.6966 -2.27988,1.0449 c 0,0 -1.32993,-0.3799 -1.23494,-0.3799 z M 18.9621,6.4970203 c 0,0 -0.095,0.1267 -0.18999,0 0.15833,-0.4117 0.88663,-0.5383 0.88663,-0.5383 l 0.31665,0.19 c -0.31665,0.095 -0.98162,0.063 -1.01329,0.3483 z m 1.32994,0.475 -0.88663,0.2216 c 0,0 -0.31665,-0.095 -0.22165,-0.2533 0.18999,0.095 1.10828,0.032 1.10828,0.032 z m -0.095,0.2533 c 0.0317,0.095 -0.0317,0.19 -0.0633,0.2216 -0.63331,0.032 -1.29827,0.063 -1.77325,0.4434 0.0317,-0.4117 0.18999,-1.0133 0.22166,-1.0133 0.31665,0.1266 0.72829,0.7916 1.61492,0.3483 z m -0.8233,0.6966 -0.79162,1.1083 c -0.095,0 -0.15833,0 -0.22166,0 -0.0317,-0.095 -0.095,-0.2217 -0.12666,-0.3483 0.28499,-0.38 0.69663,-0.6333 1.13994,-0.76 z m -0.94995,2.5648997 0.7283,0.8549 -0.50664,0.2534 -0.50664,-0.6333 0.28498,-0.475 z m 7.25129,8.8029 -0.28498,2.4698 c 0,0 -9.27785,5.1298 -10.25947,6.3647 -0.50664,-1.8682 0,-3.3882 0,-3.3882 0,0 2.84985,-4.4647 3.38816,-5.3197 0.50664,-0.8549 6.9663,-1.6149 7.15629,-0.1266 z m 0.75996,-6.3964 c 0,0 1.86824,0.8233 1.83657,0.9183 -0.0317,0.095 -6.9663,2.4066 -8.54955,2.5332 l 0.18999,-0.3166 c 3.98979,-0.7283 5.88969,-2.4382 6.52299,-3.1349 z m 1.80491,-4.0530997 c 0.0317,0.095 0.0633,0.19 0.0633,0.3167 0,0.063 0,0.095 -0.0317,0.1583 0,0.063 -0.0317,0.095 -0.0317,0.1266 l -0.28499,0.1267 c 0.0633,-0.1583 0.18999,-0.5066 0.095,-0.665 -0.0633,-0.1583 -0.18999,-0.2849 -0.31665,-0.4116 -0.25332,-0.2533 -0.5383,-0.5066 -0.69663,-0.855 -0.18999,-0.3166 -0.28498,-0.6966 -0.34831,-1.0449 0,-0.095 -0.0317,-0.19 -0.0317,-0.285 0,-0.095 0,-0.1583 -0.0317,-0.2533 -0.0633,-0.1583 -0.15833,-0.285 -0.31665,-0.38 -0.25332,-0.19 -0.53831,-0.285 -0.85496,-0.38 0,-0.032 0,-0.063 0.0317,-0.095 0.31665,0.095 0.6333,0.19 0.88662,0.4117 0.15833,0.095 0.28499,0.2533 0.34832,0.4433 0.0317,0.095 0.0317,0.19 0.0317,0.285 0,0.095 0,0.19 0.0317,0.2533 0.0633,0.3483 0.15832,0.6966 0.34831,0.9816 0.18999,0.3167 0.44331,0.5383 0.69663,0.7916 0.18999,0.1584 0.31665,0.285 0.41165,0.475 z m -10.67111,-4.0215 -0.0317,-0.1583 c 0,0 0,0 0.0317,0 -0.095,-2.7232 2.31155,-3.86309997 2.43821,-3.92639997 0.25332,-0.1267 0.66496,-0.2217 0.98161,-0.2534 0.6333,-0.095 1.29827,-0.063 1.93157,0.032 0.69663,0.1267 1.36159,0.3484 1.99489,0.66499997 0.6333,0.3167 1.17161,0.76 1.61492,1.2983 0.44331,0.5383 0.75996,1.1716 0.91828,1.8365 -0.18999,-0.6649 -0.50664,-1.2666 -0.98161,-1.7732 -0.44331,-0.5066 -1.01328,-0.8866 -1.64658,-1.1716 -0.60164,-0.285 -1.2666,-0.47499997 -1.93157,-0.53829997 -0.60163,-0.063 -1.20327,0 -1.77324,0.1267 -2.02656,0.69659997 -1.9949,3.00809997 -1.96323,3.41979997 0.31665,-0.063 0.66497,-0.095 0.98162,-0.1267 0.88662,-0.095 1.77324,-0.095 2.62819,-0.063 0.88662,0.032 1.77324,0.1583 2.6282,0.3483 0.85495,0.2217 1.67824,0.5383 2.40654,1.0766 -0.7283,-0.5066 -1.55159,-0.8232 -2.40654,-1.0132 -0.85496,-0.19 -1.74158,-0.285 -2.59653,-0.3167 -0.88662,-0.032 -1.74158,0 -2.6282,0.095 -0.91829,0.032 -1.77324,0.19 -2.59653,0.4433 z m 0.6333,11.0827997 c 0.15832,0.3167 -1.32993,2.3749 -1.32993,2.3749 h -1.51992 l 2.84985,-2.3749 z m -2.27988,-3.1348 2.08989,-0.9816 c -0.91829,0.9499 -0.15833,2.4065 -0.15833,2.4065 -0.56997,0.9499 -1.77324,1.8366 -1.86823,1.8999 -0.79163,-1.9632 -0.0633,-3.3248 -0.0633,-3.3248 z m -0.94995,3.1348 0.60163,1.4566 -1.10827,0.665 -0.69663,-1.5516 1.20327,-0.57 z m -0.15833,3.7998 1.17161,-0.032 c -0.47498,1.3616 -3.54648,7.9479 -3.54648,7.9479 l 2.37487,-7.9162 z m -4.74975,4.5598 0.75996,-2.1849 0.34832,-0.1267 1.10827,-1.9949 -0.18999,5.1931 -2.02656,-0.8866 z m 0.50664,3.8631 c 0.0633,0 1.51992,0.1583 1.45659,0.3483 l -0.47497,1.3933 c 0,0 -0.94995,-0.6017 -1.42493,-0.38 -0.2533204,0.2217 0.37998,-1.3616 0.44331,-1.3616 z m 0.25332,1.7416 0.53831,0.2216 -1.01328,0.5383 -0.3799804,-0.4433 0.8549504,-0.3166 z m -1.4882504,0.285 1.0766104,0.9815 3.1665,-2.1215 c 0.0317,0 0.41164,0.6333 0.41164,0.6333 l -4.1481104,2.6915 -1.17161,-1.8049 0.66497,-0.3799 z m -2.1848897,4.3697 c 0.8232897,-0.7916 1.8365697,-1.8366 1.8365697,-2.4699 0,0 0.91829,1.5516 0.88662,1.5516 -0.0317,0 -3.2298297,2.2482 -3.2931597,2.3749 -0.0317,0.095 -0.25332,-0.665 0.56997,-1.4566 z m -2.31155,2.1215 c 0.18999,-0.6016 0.98162,-0.5066 1.32993,-0.5066 v 0.063 l -1.32993,0.8866 c 0,0.032 -0.18999,0.1584 0,-0.4433 z m -0.095,1.6466 -0.0317,-0.5383 5.9530301,-3.8315 0.25332,0.3484 -6.1746801,4.0214 z m 3.6098097,21.1206 0.41164,-0.665 4.4014404,1.5199 -4.8130804,-0.8549 z m 1.3616,-1.7733 -0.47498,-0.8866 3.9264604,1.7416 -3.4514804,-0.855 z m 1.0132804,-0.7599 2.62819,-9.7212 1.13994,1.3299 -3.76813,8.3913 z m 1.70991,-12.3494 c 3.48315,0.6967 8.67621,-1.6149 8.67621,-1.6149 l 0.18999,1.6149 c 0.0317,0 -6.14301,1.2033 -8.8662,0 z m -0.12666,-6.428 0.22165,-0.5066 5.22473,1.8366 1.67824,-2.2483 0.56998,-0.1583 -2.24822,3.0399 -5.44638,-1.9633 z m 5.22472,10.3861 2.53321,0.2217 1.07661,-0.665 5.35138,3.9582 -5.76303,-2.6916 c -0.66496,2.2483 -0.15832,4.2432 1.32993,5.8581 l 4.87641,1.0132 h -5.79469 v -1.4249 c -1.74158,-1.7099 -2.91319,-3.8314 -3.60982,-6.2697 z m 7.59961,-14.0276 c 0.34831,-0.063 0.60163,-0.095 0.60163,-0.095 0,0 0.82329,1.8365 0.7283,1.8999 -0.98162,0.2849 -2.72319,0.7916 -2.72319,0.7916 0,0 -0.22166,-1.0766 -0.7283,-2.0266 0.50664,-0.2216 1.17161,-0.38 1.74158,-0.475 0.095,-0.032 0.66496,1.52 0.88662,1.4883 0.0317,-0.032 -0.53831,-1.5833 -0.50664,-1.5833 z m -4.68642,26.187 2.02656,-0.38 -1.77324,2.8499 1.77324,2.8498 -2.65986,-1.0449 0.6333,-4.2748 z m 2.81818,18.2391 -0.34831,0.2216 -0.37998,-0.2216 -0.34832,0.2216 c -0.47497,-1.2666 -1.86823,-1.2349 -2.4382,-1.5832 1.77324,-0.032 3.51481,1.3616 3.51481,1.3616 z m -0.79162,-4.7815 c 0.98161,0 1.67824,0.1584 2.12155,0.3484 l 0.0633,-0.19 -0.50664,-1.3933 c -0.5383,-0.38 -1.45659,-0.475 -1.77324,-0.5383 0.66497,0 1.20327,0.063 1.64658,0.19 l -0.12666,-0.2217 1.20327,-0.3799 c 0.12666,2.6282 0.41165,4.718 1.01328,5.5097 l -2.40654,0.4749 0.25332,-1.0132 c -0.47497,-0.6017 -1.67824,-0.9816 -2.02656,-1.045 0.75996,0 1.51992,0.2533 2.15322,0.5383 l 0.37998,-1.5199 c -0.47497,-0.57 -1.64658,-0.665 -1.99489,-0.76 z m 4.81308,5.8897 0.25332,0.19 c -0.0633,0.063 -0.53831,0.1267 -0.60164,0.1584 -0.0317,0.032 -0.50664,0.1266 -0.60163,0.1899 -0.18999,0.095 -1.39326,0.57 -1.83657,0.6967 -0.82329,0.2216 -1.70991,0.4433 -2.56487,0.5383 -1.70991,0.19 -3.76814,0 -5.0664,-0.1583 1.45659,0.095 3.38816,0.1899 5.0664,-0.063 0.82329,-0.1266 1.67825,-0.38 2.46987,-0.6016 0.44331,-0.1583 2.59653,-0.855 2.88152,-0.95 z m -5.7947,-11.8427 0.75996,-1.2349 5.41472,1.0766 -6.17468,0.1583 z m 6.55466,-7.8846 -7.37795,-1.5199 0.44331,-1.5199 6.93464,3.0398 z m 1.20327,-14.5975 c -0.79163,0.4749 -3.73647,1.6465 -4.30644,1.6465 -0.56997,0 -1.83657,-5.2247 -1.83657,-5.2247 0,0 0.94995,-0.38 2.02656,-0.8233 0.18999,-0.063 0.85495,2.2166 1.48825,3.0082 0.18999,0.2533 1.20327,-0.2533 1.23494,-0.3166 0.22165,-0.38 -1.20327,-3.2299 -0.98162,-3.3249 0.53831,-0.2533 0.7283,-0.4433 1.07661,-0.6333 0,0 1.83657,5.3831 1.29827,5.6681 z m 4.21145,-16.0541 c 0,0 -2.21655,-0.032 -2.5332,0.2849 -0.31665,0.3167 0.72829,0.1267 1.13994,0.5383 0,0 -1.86824,2.0266 -4.30645,2.4699 -2.4382,0.4433 -6.49132,1.2666 -7.09296,1.7732 -0.60163,0.5066 -1.01328,1.7416 -1.17161,1.7416 -0.15832,0 -1.42492,0.8233 -1.67824,1.1399 -0.25332,0.3167 -0.22166,0.5383 -0.37998,0.5383 -0.15833,0 -0.44331,-0.1583 -0.44331,-0.1583 0,0 0.37998,-1.1083 0.25332,-1.1716 -0.095,-0.063 -0.44331,0.9183 -0.50664,0.9183 -0.0633,0 -0.7283,-0.475 -0.7283,-0.475 0,0 0.56997,-1.0766 0.44331,-1.1716 -0.095,-0.095 -0.79162,1.2033 -1.01328,1.2033 -0.22165,0 -0.44331,-0.475 -0.44331,-0.475 l 0.50664,-1.4249 c 0,0 -1.10827,0.4116 -1.45659,0.5383 -0.66496,0.2216 -1.51992,0.5699 -1.51992,0.5699 l -0.34831,-0.1899 c 0,0 0.37998,-0.285 0.69663,-0.5067 0.12666,-0.095 1.51992,-0.9816 2.15322,-1.3616 0.6333,-0.4116 2.65986,-1.3299 2.72319,-1.4249 0.0633,-0.063 1.77324,-0.063 2.84985,-0.6016 1.07661,-0.5383 3.07151,-0.9183 6.20634,-3.2298 0.50664,-0.38 1.01328,-0.9816 1.39326,-1.3933 0.75996,-0.8233 1.83657,-0.6016 2.12156,-2.0899 1.10828,-0.7916 3.38816,-0.3483 3.57815,0.285 0.095,0.665 -0.44331,3.6732 -0.44331,3.6732 z m 0.91828,-5.7314 c -2.46987,-1.3299 -4.5281,0.4116 -4.5281,0.4116 0,0 -0.095,0.38 -0.34831,0 0.37998,-0.8549 2.88152,-1.8682 4.87641,-0.6966 v 0.285 z m 0,-1.3933 c -2.46987,-1.3299 -4.5281,0.4117 -4.5281,0.4117 0,0 -0.095,0.38 -0.34831,0 0.37998,-0.855 2.88152,-1.8683 4.87641,-0.6967 v 0.285 z"
      />
</svg>
