<?xml version="1.0" encoding="UTF-8" standalone="no"?>
<!-- Created with Inkscape (http://www.inkscape.org/) -->

<svg
   xmlns:dc="http://purl.org/dc/elements/1.1/"
   xmlns:cc="http://creativecommons.org/ns#"
   xmlns:rdf="http://www.w3.org/1999/02/22-rdf-syntax-ns#"
   xmlns:svg="http://www.w3.org/2000/svg"
   xmlns="http://www.w3.org/2000/svg"
   version="1.1"
   viewBox="0 0 188 53" width="188">

  <g style="fill:#a2a2a2;fill-opacity:1">
    <path
       d="m 22.299193,13.995764 -0.4044,-2.1231 -1.19296,-1.7591 -1.05144,-0.3437002 c 0,0 -0.20219,-0.3033 -0.1011,-0.364 0.0809,-0.04 -1.19297,-0.2224 -1.19297,-0.2224 l 0.28308,-0.546 -1.71868,-1.0716 -0.28308,0.3235 -0.2022,-0.1415 0.2022,-0.1011 -0.0809,-0.8695 -0.2022,0.2022 c 0,0 -0.0404,-0.2224 -0.0809,-0.5863 1.94111,0.101 2.04221,-0.1618 1.96133,-0.6269 -0.18198,-1.84 0.32351,-5.29755998 -3.98331,-5.74239998 -4.30683,-0.44484 -3.57891,5.54019998 -3.57891,5.54019998 0.36396,0.5055 0.86945,1.0919 0.86945,1.0919 l -0.16176,0.2831 -0.0404,0.4044 c 0,0 -1.71868,0.5257 -1.77934,1.0312 -0.0607,0.5257 0,1.4963 0,1.4963 l -1.03121,0.2830002 c 0,0 -0.74814,1.011 -0.99078,1.1121 -0.24263,0.4651 -0.76835,2.1838 -1.19297,2.3253 0.0202,0.1618 0.22242,0.2831 0.22242,0.2831 l -0.97055,3.2958 0.90989,0.7077 -0.44483,1.1728 -0.82902,0.5256 0.14154,0.6471 -0.14154,0.6673 c 0,0 -1.49626,1.5771 -1.49626,1.9613 -0.72792,0.04 -1.07165,0.6268 -0.88968,0.9908 -0.30329,0.2831 -0.54593,0.4044 -0.54593,0.4044 l 0.18198,0.4246 0.32351,-0.1415 0.22242,0.4245 -0.44483,0.2832 -0.0607,0.3032 -1.29407,0.6268 -0.0809,-0.061 -0.68747999,0.3842 0.26286,0.5459 0.82901999,-0.3235 -0.0202,-0.101 1.17275,-0.5864 0.50549,0.3033 0.88967,-0.3842 0.24264,0.1617 0.82902,-0.6268 c 0.16175,0.182 0.34373,0.4449 0.30329,0.7481 -0.14154,1.1931 -0.40439,3.1544 -0.58637,3.4981 -0.26286,0.5055 -0.56616,5.3582 -0.56616,5.3582 l -0.30329,6.57152 0.78857,1.7995 v 0.2225 c -0.3033,0.2628 -0.64704,0.4246 -1.07165,0.465 0.0809,0.1416 0.30329,0.1416 0.30329,0.1416 0,0 0.28308,-0.081 0.66726,-0.2629 -0.4044,0.5662 -1.01099,1.0919 -1.77935,1.1323 0.0809,0.1415 0.3033,0.1415 0.3033,0.1415 0,0 0.93011,-0.2426 1.59737,-0.93 l 0.0202,1.2738 -2.12308,1.9614 -2.36571999,0.8087 c 0,0 -0.24264,0.4853 -0.14154,0.9301 0,0.02 -0.16176,0.061 -0.16176,0.081 0,0.2629 -0.14154,0.546 0.0202,0.647 0.38418,0.2022 2.28483999,0.3438 2.28483999,0.3438 0,0 1.75912,0.2224 3.31605,-0.2224 0.16176,-0.04 0.32352,-0.2224 0.48528,-0.2831 0.22242,-0.04 0.38417,0.2426 0.56615,0.2022 0.8088,-0.182 1.55693,-0.4448 1.81979,-0.6268 0.1011,-0.061 0.1011,-0.4044 0.0809,-0.8695 0,-0.061 -0.22242,-0.04 -0.22242,-0.1011 -0.0202,-0.2831 0.16176,-0.6875 0.12132,-1.011 -0.0809,-0.7077 -0.42462,-1.5771 -0.42462,-1.5771 l -0.0404,-2.1636 1.49627,-1.9006 -0.7077,-4.32702 1.90067,-4.6506 1.65802,2.5072 -0.78857,6.16712 2.10286,3.5789 -0.0202,0.2426 c -0.50549,-0.02 -1.03121,-0.1415 -1.4356,-0.5257 -0.0607,0.1618 0.10109,0.3236 0.10109,0.3236 0,0 0.56616,0.3437 1.31429,0.465 l -0.0202,0.2831 c -0.28307,0.1819 -0.58637,0.3032 -0.95033,0.3235 0.0809,0.1416 0.3033,0.1416 0.3033,0.1416 0,0 0.26286,-0.081 0.62681,-0.2427 l -0.0809,1.3547 -0.78857,1.1728 c 0,0 -0.38418,0.647 -1.05143,1.0918 -0.7077,0.4448 -1.35473,0.2023 -1.84001,0.6067 -0.34373,0.4043 -0.24263,1.294 -0.24263,1.294 l -0.18198,0.182 0.0404,0.6268 c 0.80879,0.283 2.16352,0.5055 3.11385,0.5257 2.52748,0.02 3.13408,-0.6875 3.13408,-0.6875 l 0.28307,0.1416 1.79957,-0.647 0.0404,-0.6875 -0.24264,-0.2224 c 0.22242,-0.4247 0.26286,-0.9301 0.18198,-1.4761 -0.52572,-1.5165 -0.97055,-2.1837 -0.74813,-3.862 l 1.90066,-2.6084 -0.36396,-4.10462 -0.84923,-3.3969 -0.12132,-4.3473 2.66902,-1.5165 -0.32352,-4.2663 -0.80879,-1.84 0.2022,-2.6893 c 0,0 2.1433,-1.3143 2.2444,-1.5569 0.0809,-0.2426 0.28307,-2.1838 0.30329,-2.4062 -0.0202,-0.2022 0.22242,-0.7077 0.22242,-0.7481 0,-0.04 -0.0202,-0.5055 0.3033,-0.5662 -0.24264,-0.4852 -0.14154,-1.5164 -0.14154,-1.5164 z m -2.08264,-3.4576 c 0,0 1.67824,2.5679 1.19297,3.1947 -0.5055,-0.465 -0.88967,-0.3033 -0.88967,-0.3033 0,0 0.44483,-1.7793 -0.76836,-1.9208 l -0.40439,-1.2941 0.86945,0.3235 z m -1.55693,-1.1323002 v 0.04 c 0,0 -1.29407,1.5165002 -1.49627,1.9815002 -0.66725,-0.2022 -2.12308,-0.6874 -2.12308,-0.6874 0,0 2.3455,-0.6268 2.851,-1.2941002 0.3033,-0.04 0.76835,-0.04 0.76835,-0.04 z m -11.44442,14.3157002 0.36395,-2.6286 9.46289,-6.2682 1.17275,0.1213 -1.63781,1.4761 h -1.07165 l -3.23517,2.1028 -0.42462,1.2537 -4.26639,2.5881 v 1.4963 l -0.36395,-0.1415 z m 0.2022,0.647 c 0,0.04 -0.5055,1.0919 -0.66726,1.1525 -0.16176,0.081 -0.48527,0.4246 -0.48527,0.4246 l -0.3033,-0.1011 -0.24264,0.1011 c 0,0 -0.16176,-0.7279 -0.16176,-0.8896 0,-0.1416 0.6066,-0.7077 0.6066,-0.7077 l 0.22241,0.1415 c 0,0 0.36396,-0.829 0.42462,-0.7683 0.0607,0.061 0.26286,0.5661 0.26286,0.5661 0,0 0.4044,-0.182 0.34374,0.081 z m 6.14682,-19.5728002 c -0.14153,-0.02 -0.28307,-0.02 -0.42461,-0.04 l 0.18198,-0.7684 c 0.0404,-0.1415 0.14154,-0.1011 0.22241,0.061 -0.0607,0.182 -0.0202,0.5055 0.0202,0.7482 z m 0.14154,0.2224 0.7077,0.7481 c -0.68748,-0.061 -1.53671,-0.04 -2.12308,-0.02 l 0.60659,-0.7683 c 0.26286,-0.02 0.52572,0 0.80879,0.04 z m 1.51649,-0.9099 c 0.3033,0.2224 0.32352,0.5864 0.32352,0.7481 0,0 0.0607,0.182 0,0.4247 -0.16176,-0.061 -0.44484,-0.1416 -0.72792,-0.2225 -0.0809,-0.1415 -0.24263,-0.3033 -0.0607,-0.3235 0.2022,-0.04 0.72792,-0.04 0.46506,-0.6268 z m -0.2022,-0.04 c -0.30329,-0.182 -0.76835,0 -0.76835,0 0,0 -0.0809,-0.081 -0.16176,-0.1213 0.0404,-0.061 0.46506,-0.1618 0.46506,-0.1618 l 0.36395,0.1416 c 0.0202,0.02 0.2022,0.1011 0.1011,0.1415 z m -0.0404,0.364 h 0.0202 c 0,0 0,0.1415 -0.28307,0.1617 -0.28308,0.02 -0.66726,-0.1415 -0.66726,-0.1415 l 0.93011,-0.02 z m 0.7077,1.1929 -0.22242,0.4044 c -0.1011,-0.081 -0.24264,-0.1213 -0.4044,-0.1819 h 0.0202 l -1.11209,-0.7886 c 0.88967,0.182 1.65803,0.5459 1.71869,0.5661 z m 0.1011,1.193 c -0.1011,0 -0.18198,0.02 -0.26286,0.061 -0.0809,0.04 -0.14154,0.081 -0.18198,0.1618 -0.0809,0.1415 -0.0404,0.3033 0.0607,0.4246 0.0202,0.02 0.0607,0.061 0.0809,0.081 0.0404,0.02 0.0607,0.04 0.1011,0.061 0.0607,0.04 0.14154,0.04 0.22242,0.02 0.14154,-0.02 0.28307,-0.182 0.26285,-0.364 0.0404,0.081 0.0404,0.2022 0,0.2831 -0.0404,0.1011 -0.12131,0.182 -0.22241,0.2224 -0.1011,0.04 -0.22242,0.04 -0.32352,0 -0.0404,-0.02 -0.1011,-0.04 -0.14154,-0.081 -0.0404,-0.04 -0.0809,-0.061 -0.12132,-0.1011 -0.0607,-0.081 -0.12132,-0.182 -0.12132,-0.3033 0,-0.1011 0.0202,-0.2224 0.1011,-0.3033 0.0607,-0.081 0.16176,-0.1415 0.26286,-0.1617 0.1011,-0.04 0.2022,-0.04 0.28308,0 z m -0.0607,-0.2426 0.22241,-1.7187 0.32352,0.2426 -0.24264,1.5367 -0.30329,-0.061 z m -0.58638,0.1011 -0.0607,0.2426 -0.14154,0.02 -2.08264,0.2224 c -0.0404,-0.02 -0.16176,-0.1011 -0.32352,-0.2224 1.63781,-0.2224 2.1433,-0.2628 2.60836,-0.2628 z m -3.07341,-0.2629 c -0.0607,-0.081 -0.1011,-0.1618 -0.16176,-0.2426 1.98154,-0.2427 2.83077,-0.061 3.51825,-0.04 l -0.18198,0.3235 c -0.78857,-0.2427 -2.48704,-0.1011 -3.17451,-0.04 z m 2.56792,0.829 -0.1011,0.3033 -2.3455,0.3033 0.0404,-0.2426 2.40616,-0.364 z m -1.57715,1.0312 c 0.0809,0 2.02198,-0.8694 2.02198,-0.8694 l 0.22242,0.4448 -1.45583,0.6673 c 0,0 -0.84923,-0.2427 -0.78857,-0.2427 z m -0.95033,-4.1248 c 0,0 -0.0607,0.081 -0.12132,0 0.1011,-0.2629 0.56615,-0.3438 0.56615,-0.3438 l 0.2022,0.1214 c -0.2022,0.061 -0.62681,0.04 -0.64703,0.2224 z m 0.84923,0.3033 -0.56616,0.1415 c 0,0 -0.20219,-0.061 -0.14153,-0.1617 0.12131,0.061 0.70769,0.02 0.70769,0.02 z m -0.0607,0.1617 c 0.0202,0.061 -0.0202,0.1214 -0.0404,0.1416 -0.4044,0.02 -0.82901,0.04 -1.13231,0.2831 0.0202,-0.2629 0.12132,-0.6471 0.14154,-0.6471 0.2022,0.081 0.46505,0.5055 1.03121,0.2224 z m -0.52572,0.4449 -0.50549,0.7077 c -0.0607,0 -0.1011,0 -0.14154,0 -0.0202,-0.061 -0.0607,-0.1416 -0.0809,-0.2224 0.18198,-0.2427 0.44483,-0.4044 0.72791,-0.4853 z m -0.60659,1.6378 0.46505,0.5459 -0.32351,0.1618 -0.32352,-0.4044 0.18198,-0.3033 z m 4.63034,5.6211002 -0.18198,1.5771 c 0,0 -5.92441,3.2757 -6.55122,4.0642 -0.32352,-1.1929 0,-2.1635 0,-2.1635 0,0 1.81978,-2.851 2.16352,-3.3969 0.32352,-0.546 4.44836,-1.0312 4.56968,-0.081 z m 0.48528,-4.0844002 c 0,0 1.19297,0.5257 1.17275,0.5864 -0.0202,0.061 -4.44837,1.5367002 -5.45936,1.6176002 l 0.12132,-0.2022 c 2.5477,-0.4651002 3.76089,-1.5570002 4.16529,-2.0018002 z m 1.15253,-2.5881 c 0.0202,0.061 0.0404,0.1213 0.0404,0.2022 0,0.04 0,0.061 -0.0202,0.1011 0,0.04 -0.0202,0.061 -0.0202,0.081 l -0.18198,0.081 c 0.0404,-0.1011 0.12132,-0.3236 0.0607,-0.4247 -0.0404,-0.1011 -0.12132,-0.1819 -0.2022,-0.2628 -0.16176,-0.1618 -0.34374,-0.3235 -0.44484,-0.546 -0.12132,-0.2022 -0.18198,-0.4448 -0.22242,-0.6672 0,-0.061 -0.0202,-0.1213 -0.0202,-0.182 0,-0.061 0,-0.1011 -0.0202,-0.1617 -0.0404,-0.1012 -0.10109,-0.182 -0.20219,-0.2427 -0.16176,-0.1213 -0.34374,-0.182 -0.54594,-0.2426 0,-0.02 0,-0.04 0.0202,-0.061 0.2022,0.061 0.4044,0.1213 0.56616,0.2628 0.1011,0.061 0.18197,0.1618 0.22241,0.2831 0.0202,0.061 0.0202,0.1213 0.0202,0.182 0,0.061 0,0.1213 0.0202,0.1617 0.0404,0.2225 0.1011,0.4449 0.22242,0.6269 0.12132,0.2022 0.28308,0.3437 0.44484,0.5055 0.12132,0.1011 0.2022,0.1819 0.26286,0.3033 z m -6.81409,-2.568 -0.0202,-0.1011 c 0,0 0,0 0.0202,0 -0.0607,-1.7389 1.47605,-2.46678998 1.55693,-2.50722998 0.16176,-0.0809 0.42462,-0.14154 0.62681,-0.16175 0.4044,-0.0607 0.82902,-0.0404 1.23341,0.0202 0.44484,0.0809 0.86946,0.22242 1.27385,0.42458 0.4044,0.2022 0.74814,0.48529998 1.03122,0.82909998 0.28307,0.3437 0.48527,0.7481 0.58637,1.1727 -0.12132,-0.4246 -0.32352,-0.8088 -0.62681,-1.1323 -0.28308,-0.3235 -0.64704,-0.5662 -1.05144,-0.74809998 -0.38417,-0.182 -0.80879,-0.30335 -1.23341,-0.34379 -0.38417,-0.0404 -0.76835,0 -1.13231,0.0809 -1.29407,0.44488998 -1.27385,1.92088998 -1.25363,2.18378998 0.2022,-0.04 0.42462,-0.061 0.62682,-0.081 0.56615,-0.061 1.13231,-0.061 1.67825,-0.04 0.56615,0.02 1.13231,0.1011 1.67824,0.2224 0.54594,0.1415 1.07165,0.3437 1.53671,0.6875 -0.46506,-0.3236 -0.99077,-0.5258 -1.53671,-0.6471 -0.54593,-0.1213 -1.11209,-0.182 -1.65802,-0.2022 -0.56616,-0.02 -1.1121,0 -1.67825,0.061 -0.58638,0.02 -1.13231,0.1213 -1.65803,0.2831 z m 0.4044,7.0770002 c 0.1011,0.2022 -0.84923,1.5165 -0.84923,1.5165 h -0.97056 l 1.81978,-1.5165 z m -1.45583,-2.0018002 1.33451,-0.6268 c -0.58637,0.6066 -0.1011,1.5367 -0.1011,1.5367 -0.36396,0.6066 -1.13231,1.1728002 -1.19297,1.2132002 -0.50549,-1.2536002 -0.0404,-2.1231002 -0.0404,-2.1231002 z m -0.60659,2.0018002 0.38417,0.9301 -0.70769,0.4246 -0.44484,-0.9908 0.76836,-0.3639 z m -0.1011,2.4264 0.74813,-0.02 c -0.3033,0.8694 -2.26463,5.0751 -2.26463,5.0751 l 1.51649,-5.0549 z m -3.03298,2.9116 0.48528,-1.3952 0.22242,-0.081 0.70769,-1.2738 -0.12132,3.316 -1.29407,-0.5661 z m 0.32352,2.4668 c 0.0404,0 0.97055,0.1011 0.93011,0.2224 l -0.3033,0.8897 c 0,0 -0.60659,-0.3842 -0.90989,-0.2426 -0.16176,0.1415 0.24264,-0.8695 0.28308,-0.8695 z m 0.16175,1.1121 0.34374,0.1416 -0.64703,0.3437 -0.24264,-0.2831 0.54593,-0.2022 z m -0.95033,0.182 0.68748,0.6268 2.02198,-1.3547 c 0.0202,0 0.26286,0.4044 0.26286,0.4044 l -2.6488,1.7187 -0.74813,-1.1526 0.42461,-0.2426 z m -1.39517,2.7903 c 0.52572,-0.5054 1.17275,-1.1727 1.17275,-1.5771 0,0 0.58638,0.9907 0.56616,0.9907 -0.0202,0 -2.06242,1.4356 -2.10286,1.5165 -0.0202,0.061 -0.16176,-0.4246 0.36395,-0.9301 z m -1.47604,1.3547 c 0.12131,-0.3841 0.62681,-0.3235 0.84923,-0.3235 v 0.04 l -0.84923,0.5662 c 0,0.02 -0.12132,0.1011 0,-0.2831 z m -0.0607,1.0515 -0.0202,-0.3438 3.80132,-2.4466 0.16176,0.2225 -3.94286,2.5679 z m 2.30506,13.4866 0.26286,-0.4246 2.81055,0.9705 -3.07341,-0.5459 z m 0.86945,-1.1323 -0.3033,-0.5662 2.50726,1.1121 -2.20396,-0.5459 z m 0.64703,-0.4853 1.67825,-6.2075 0.72791,0.8492 -2.40616,5.3583 z m 1.09187,-7.8857 c 2.22419,0.4448 5.54024,-1.0312 5.54024,-1.0312 l 0.12132,1.0312 c 0.0202,0 -3.92265,0.7683 -5.66156,0 z m -0.0809,-4.1047 0.14153,-0.3234 3.33628,1.1727 1.07165,-1.4356 0.36396,-0.1011 -1.43561,1.9411 -3.47781,-1.2537 z m 3.33627,6.6321 1.61758,0.1416 0.68748,-0.4246 3.41715,2.5275 -3.68001,-1.7187 c -0.42462,1.4356 -0.1011,2.7095 0.84923,3.7407 l 3.11386,0.647 h -3.70023 v -0.9099 c -1.11209,-1.0919 -1.86023,-2.4466 -2.30506,-4.0036 z m 4.85276,-8.9574 c 0.22242,-0.04 0.38417,-0.061 0.38417,-0.061 0,0 0.52572,1.1728 0.46506,1.2132 -0.62681,0.182 -1.73891,0.5055 -1.73891,0.5055 0,0 -0.14153,-0.6875 -0.46505,-1.2941 0.32352,-0.1415 0.74813,-0.2426 1.11209,-0.3033 0.0607,-0.02 0.42462,0.9706 0.56615,0.9504 0.0202,-0.02 -0.34373,-1.0111 -0.32351,-1.0111 z m -2.99254,16.7219 1.29407,-0.2427 -1.13231,1.8198 1.13231,1.81982 -1.69846,-0.6672 0.40439,-2.72972 z m 1.79957,11.64662 -0.22242,0.1415 -0.24264,-0.1415 -0.22242,0.1415 c -0.30329,-0.8088 -1.19297,-0.7885 -1.55692,-1.0109 1.13231,-0.02 2.2444,0.8694 2.2444,0.8694 z m -0.5055,-3.0532 c 0.62682,0 1.07165,0.1011 1.35473,0.2224 l 0.0404,-0.1213 -0.32352,-0.8897 c -0.34373,-0.2426 -0.93011,-0.3033 -1.13231,-0.3437 0.42462,0 0.76836,0.04 1.05143,0.1213 l -0.0809,-0.1416 0.76836,-0.2425 c 0.0809,1.6782 0.26285,3.0127 0.64703,3.5182 l -1.53671,0.3033 0.16176,-0.647 c -0.30329,-0.3842 -1.07165,-0.6268 -1.29407,-0.6673 0.48528,0 0.97056,0.1617 1.37495,0.3437 l 0.24264,-0.9705 c -0.3033,-0.364 -1.05143,-0.4247 -1.27385,-0.4853 z m 3.07342,3.7609 0.16175,0.1213 c -0.0404,0.04 -0.34373,0.081 -0.38417,0.1011 -0.0202,0.02 -0.32352,0.081 -0.38418,0.1213 -0.12132,0.061 -0.88967,0.364 -1.17275,0.4449 -0.52571,0.1415 -1.09187,0.2831 -1.63781,0.3437 -1.09187,0.1213 -2.40616,0 -3.23517,-0.1011 0.93011,0.061 2.16352,0.1213 3.23517,-0.04 0.52572,-0.081 1.07166,-0.2426 1.57715,-0.3841 0.28308,-0.1011 1.65803,-0.546 1.84001,-0.6066 z m -3.70023,-7.5622 0.48527,-0.7886 3.45759,0.6875 -3.94286,0.1011 z m 4.1855,-5.03482 -4.71122,-0.9705 0.28308,-0.9706 4.42814,1.9411 z m 0.76836,-9.3213 c -0.5055,0.3033 -2.38594,1.0514 -2.7499,1.0514 -0.36396,0 -1.17275,-3.3363 -1.17275,-3.3363 0,0 0.60659,-0.2426 1.29407,-0.5257 0.12132,-0.04 0.54593,1.4154 0.95033,1.9209 0.12132,0.1618 0.76835,-0.1617 0.78857,-0.2021 0.14154,-0.2427 -0.76835,-2.0625 -0.62681,-2.1232 0.34374,-0.1617 0.46505,-0.283 0.68747,-0.4044 0,0 1.17275,3.4374 0.82902,3.6194 z m 2.68923,-10.2514 c 0,0 -1.41539,-0.02 -1.61758,0.1819 -0.2022,0.2022 0.46505,0.081 0.72791,0.3438 0,0 -1.19297,1.2941 -2.7499,1.5771 -1.55692,0.2831 -4.14506,0.8088 -4.52924,1.1323 -0.38418,0.3235 -0.64703,1.1121 -0.74813,1.1121 -0.1011,0 -0.90989,0.5257 -1.07165,0.7279 -0.16176,0.2022 -0.14154,0.3437 -0.24264,0.3437 -0.1011,0 -0.28308,-0.101 -0.28308,-0.101 0,0 0.24264,-0.7078 0.16176,-0.7482 -0.0607,-0.04 -0.28308,0.5864 -0.32352,0.5864 -0.0404,0 -0.46505,-0.3033 -0.46505,-0.3033 0,0 0.36395,-0.6875 0.28307,-0.7481 -0.0607,-0.061 -0.50549,0.7683 -0.64703,0.7683 -0.14154,0 -0.28308,-0.3033 -0.28308,-0.3033 l 0.32352,-0.9098 c 0,0 -0.7077,0.2628 -0.93011,0.3437 -0.42462,0.1415 -0.97056,0.3639 -0.97056,0.3639 l -0.22241,-0.1213 c 0,0 0.24263,-0.182 0.44483,-0.3235 0.0809,-0.061 0.97055,-0.6268 1.37495,-0.8695 0.4044,-0.2628 1.69847,-0.8492 1.73891,-0.9098 0.0404,-0.04 1.13231,-0.04 1.81978,-0.3842 0.68748,-0.3437 1.96133,-0.5864 3.96309,-2.0624 0.32352,-0.2427 0.64703,-0.6268 0.88967,-0.8897 0.48528,-0.5257 1.17275,-0.3842 1.35473,-1.3345 0.70769,-0.5055 2.16352,-0.2224 2.28484,0.182 0.0607,0.4246 -0.28308,2.3455 -0.28308,2.3455 z m 0.58638,-3.6598 c -1.57715,-0.8493 -2.89144,0.2628 -2.89144,0.2628 0,0 -0.0607,0.2427 -0.22242,0 0.24264,-0.5459 1.84001,-1.1929 3.11386,-0.4448 v 0.182 z m 0,-0.8897 c -1.57715,-0.8492 -2.89144,0.2629 -2.89144,0.2629 0,0 -0.0607,0.2426 -0.22242,0 0.24264,-0.546 1.84001,-1.193 3.11386,-0.4449 v 0.182 z" />
    <path
       d="m 29.737203,34.823464 0,-28.6909002 -1.30323,0 c -0.1448,-0.092 -0.2172,-0.1777 -0.2172,-0.2567 0,-0.066 0.0724,-0.1448 0.2172,-0.2369 l 5.82505,0 c 1.79029,0 3.25478,0.6187 4.39347,1.8561 1.13867,1.2374 1.70801,2.9751002 1.70802,5.2129002 -10e-6,1.3691 -0.19418,2.5505 -0.5825,3.5444 -0.38835,0.9939 -0.9906,1.8265 -1.80675,2.4979 -0.51341,0.4212 -1.29008,0.8227 -2.33002,1.2044 1.07943,0.395 1.87585,0.7965 2.38925,1.2045 0.81616,0.6714 1.43486,1.4843 1.85612,2.4387 0.42123,0.9544 0.63186,2.1292 0.63187,3.5246 -1e-5,1.8035 -0.30937,3.4029 -0.92806,4.7983 -0.42126,0.9741 -1.11236,1.787 -2.07332,2.4386 -0.96098,0.6516 -2.11282,0.9775 -3.45554,0.9775 l -5.62759,0 c -0.1448,-0.092 -0.2172,-0.1777 -0.2172,-0.2567 0,-0.079 0.0724,-0.1646 0.2172,-0.2567 z m 4.06766,-28.6909002 0,13.5852002 1.04654,0 c 0.47389,0 0.82603,-0.1184 1.05641,-0.3554 0.23036,-0.237 0.34554,-0.6319 0.34555,-1.1848 l 0,-10.3073002 c -1e-5,-0.6714 -0.11848,-1.1288 -0.35543,-1.3724 -0.23696,-0.2435 -0.69769,-0.3653 -1.38221,-0.3653 z m 0,14.0986002 0,14.5923 0.63187,0 c 0.55288,0 0.99387,-0.158 1.32298,-0.474 0.32909,-0.3159 0.49364,-0.7437 0.49365,-1.2835 l 0,-11.4724 c -1e-5,-0.487 -0.0955,-0.8358 -0.28632,-1.0465 -0.19088,-0.2106 -0.49036,-0.3159 -0.89844,-0.3159 z" />
    <path
       d="m 43.241873,6.1325638 -1.22425,0 c -0.14481,-0.092 -0.21721,-0.1711 -0.21721,-0.2369 0,-0.079 0.0724,-0.1646 0.21721,-0.2567 l 6.57539,0 c 0.0658,0 0.12176,0.023 0.16784,0.069 0.0461,0.046 0.0691,0.102 0.0691,0.1678 -1e-5,0.079 -0.023,0.1415 -0.0691,0.1876 -0.0461,0.046 -0.10203,0.069 -0.16784,0.069 l -1.30323,0 0,28.6908002 0.82933,0 c 0.59237,0 1.11235,-0.1678 1.55993,-0.5035 0.44756,-0.3357 0.88197,-1.0301 1.30323,-2.0832 0.6187,-1.5533 1.06956,-3.2482 1.3526,-5.0846 0.28301,-1.8363 0.4311,-3.0112 0.44428,-3.5246 0.0131,-0.1843 0.0395,-0.3028 0.079,-0.3554 l 0.15797,-0.059 0.15796,0.059 c 0.0526,0.052 0.079,0.1118 0.079,0.1777 l -0.15796,11.887 -11.07747,0 c -0.0658,0 -0.12177,-0.023 -0.16784,-0.069 -0.0461,-0.046 -0.0691,-0.1085 -0.0691,-0.1875 0,-0.079 0.023,-0.1415 0.0691,-0.1876 0.0461,-0.046 0.10202,-0.069 0.16784,-0.069 l 1.22425,0 z" />
    <path
       d="m 59.496583,6.0535638 2.1918,0 3.51478,28.7699002 0.88856,0 c 0.1448,0.092 0.2172,0.1777 0.21721,0.2567 -1e-5,0.079 -0.0724,0.1645 -0.21721,0.2567 l -5.94352,0 c -0.0658,0 -0.11849,-0.023 -0.15797,-0.069 -0.0395,-0.046 -0.0592,-0.1086 -0.0592,-0.1876 -10e-6,-0.079 0.0197,-0.1415 0.0592,-0.1876 0.0395,-0.046 0.0921,-0.069 0.15797,-0.069 l 0.9478,0 -0.51339,-5.6078 -3.57402,0 -0.43441,3.1791 c -0.0132,0.1711 -0.0197,0.3488 -0.0197,0.5331 0,0.5792 0.1086,1.0169 0.32581,1.3131 0.2172,0.2962 0.51668,0.4772 0.89844,0.543 l 0.31594,0.099 c 0.0527,0.052 0.079,0.1185 0.079,0.1975 -1e-5,0.079 -0.023,0.1415 -0.0691,0.1875 -0.0461,0.046 -0.10203,0.069 -0.16785,0.069 l -3.37655,0 c -0.0658,0 -0.12177,-0.023 -0.16784,-0.069 -0.0461,-0.046 -0.0691,-0.1085 -0.0691,-0.1875 0,-0.079 0.0197,-0.1448 0.0592,-0.1975 l 0.23695,-0.079 c 0.38176,-0.052 0.67794,-0.2238 0.88857,-0.5134 0.31593,-0.4607 0.53972,-1.2242 0.67136,-2.2905 z m -0.49365,7.3653002 -1.9351,15.2833 3.45554,0 z" />
    <path
       d="m 76.968383,5.4217638 0,11.7093002 c -1e-5,0.092 -0.0264,0.1678 -0.079,0.2271 -0.0527,0.059 -0.11849,0.089 -0.19746,0.089 -0.079,0 -0.14481,-0.026 -0.19746,-0.079 -0.0527,-0.066 -0.079,-0.1448 -0.079,-0.237 l 0,-1.0465 c -1e-5,-1.6587 -0.19089,-3.3239 -0.57263,-4.9957 -0.48708,-2.1852002 -1.15844,-3.7386002 -2.01408,-4.6601002 -0.32912,-0.3554 -0.75694,-0.5331 -1.28349,-0.5331 -0.35543,0 -0.63846,0.1382 -0.84908,0.4147 -0.27644,0.3422 -0.41467,0.8688 -0.41466,1.5796 l 0,25.3538002 c -1e-5,0.6319 0.12176,1.0893 0.3653,1.3724 0.24352,0.283 0.56933,0.4245 0.97742,0.4245 0.52655,0 1.06627,-0.2337 1.61917,-0.701 0.55287,-0.4673 0.97412,-1.0959 1.26374,-1.8858 0.60553,-1.6059 0.9083,-3.4028 0.90831,-5.3906 l 0,-3.2581 c -1e-5,-0.1316 0.0263,-0.2303 0.079,-0.2961 0.0526,-0.066 0.11846,-0.099 0.19746,-0.099 0.0658,0 0.11846,0.026 0.15796,0.079 0.079,0.092 0.11847,0.1975 0.11848,0.3159 l 0,3.2581 c -1e-5,3.0672 -0.56606,5.3709 -1.69814,6.9111 -0.80302,1.1058 -1.81664,1.6586 -3.04088,1.6586 -0.90832,0 -1.69816,-0.2863 -2.36951,-0.8589 -0.67136,-0.5726 -1.21767,-1.5501 -1.63892,-2.9323 -0.77667,-2.5933 -1.16501,-5.7197 -1.16501,-9.3793 l 0,-3.3963 c 0,-2.6328 0.22708,-5.1306 0.68124,-7.4936 0.45415,-2.3629002 1.19463,-4.0841002 2.22142,-5.1635002 0.69769,-0.724 1.48752,-1.086 2.36951,-1.086 1.05311,0 2.00091,0.724 2.84341,2.172 l 1.57968,-2.0733 z" />
    <path
       d="m 80.188663,6.1523638 -1.18476,0 c -0.079,0 -0.14151,-0.023 -0.18758,-0.069 -0.0461,-0.046 -0.0691,-0.1086 -0.0691,-0.1876 0,-0.079 0.0231,-0.1415 0.0691,-0.1876 0.0461,-0.046 0.1086,-0.069 0.18758,-0.069 l 6.49642,0 c 0.13163,0.092 0.19745,0.1777 0.19745,0.2567 0,0.079 -0.0658,0.1646 -0.19745,0.2567 l -1.244,0 0,14.3947002 4.50208,-10.9589002 c 0.27643,-0.6582 0.41465,-1.2572 0.41466,-1.7969 -1e-5,-0.4476 -0.0856,-0.803 -0.2567,-1.0663 -0.17114,-0.2632 -0.41468,-0.441 -0.7306,-0.5331 l -0.75034,-0.059 c -0.0922,-0.053 -0.13823,-0.1316 -0.13822,-0.237 -1e-5,-0.079 0.0231,-0.1415 0.0691,-0.1876 0.046,-0.046 0.10201,-0.069 0.16784,-0.069 l 4.8575,0 c 0.0658,1e-4 0.12174,0.023 0.16783,0.069 0.046,0.046 0.0691,0.1087 0.0691,0.1876 -1e-5,0.1054 -0.0395,0.1778 -0.11847,0.2172 l -0.94781,0.099 c -0.46075,0.1449 -0.85896,0.4674 -1.19462,0.9676 -0.3357,0.5002 -0.81289,1.5139 -1.43159,3.0409002 l -2.01408,4.8969 5.17343,19.7065 0.88857,0 c 0.0658,0 0.12175,0.023 0.16784,0.069 0.046,0.046 0.0691,0.1086 0.0691,0.1876 -1e-5,0.079 -0.0231,0.1415 -0.0691,0.1876 -0.0461,0.046 -0.10204,0.069 -0.16784,0.069 l -6.2792,0 c -0.11849,-0.092 -0.17773,-0.1777 -0.17772,-0.2567 -1e-5,-0.092 0.0593,-0.1777 0.17772,-0.2567 l 1.28348,0 -3.73198,-13.7432 0,13.7432 1.244,0 c 0.079,0 0.1415,0.023 0.18758,0.069 0.046,0.046 0.0691,0.1086 0.0691,0.1876 -1e-5,0.079 -0.0231,0.1415 -0.0691,0.1875 -0.0461,0.046 -0.10861,0.069 -0.18758,0.069 l -6.49642,0 -0.079,-0.04 c -0.0395,-0.052 -0.0593,-0.125 -0.0593,-0.2172 0,-0.092 0.046,-0.1777 0.13822,-0.2567 l 1.18476,0 z" />
    <path
       d="m 102.86974,33.618964 c -0.44757,0.3159 -0.90502,0.7075 -1.37234,1.1748 -0.46732,0.4673 -0.75364,0.701 -0.85895,0.701 -0.0395,0 -0.0724,-0.02 -0.0987,-0.059 -0.0263,-0.04 -0.0395,-0.1251 -0.0395,-0.2567 l 0,-12.4005 c 0,-0.052 0.0165,-0.095 0.0494,-0.1283 0.0329,-0.033 0.0691,-0.049 0.1086,-0.049 0.0658,0 0.12506,0.04 0.17772,0.1185 0.0921,0.1184 0.13822,0.2501 0.13822,0.3949 l 0,0.849 c 0,1.6455 0.25669,3.5214 0.77009,5.6276 0.51339,2.1063 1.18475,3.607 2.01408,4.5021 0.40808,0.4475 0.88198,0.6714 1.42171,0.6714 0.6187,0 1.15842,-0.2929 1.61916,-0.8788 0.46074,-0.5857 0.6911,-1.471 0.69111,-2.6558 -1e-5,-1.1321 -0.21063,-2.33 -0.63187,-3.5937 -0.55289,-1.685 -1.77713,-4.3836 -3.67274,-8.0959 -1.18476,-2.3168 -1.93839,-3.9919 -2.26091,-5.0253 -0.32251,-1.0333 -0.48377,-2.0371 -0.48377,-3.0112 0,-1.9351002 0.45744,-3.4490002 1.37234,-4.5416002 0.91489,-1.0926 1.95813,-1.6389 3.12973,-1.6389 1.00045,0 1.90218,0.5332 2.70519,1.5994 0.65819,-0.3554 1.29664,-0.7964 1.91536,-1.323 0.21061,-0.1842 0.34883,-0.2764 0.41466,-0.2764 0.0263,0 0.0526,0.013 0.079,0.039 0.0263,0.053 0.0395,0.1448 0.0395,0.2764 l 0,10.7221002 c -1e-5,0.1448 -0.0329,0.2633 -0.0987,0.3554 -0.0395,0.053 -0.0922,0.079 -0.15796,0.079 -0.079,0 -0.13824,-0.033 -0.17772,-0.099 -0.0395,-0.066 -0.11848,-0.5397 -0.23696,-1.4217 -0.53972,-4.094 -1.25716,-6.8058002 -2.1523,-8.1353002 -0.52656,-0.7635 -1.12552,-1.1453 -1.79688,-1.1453 -0.50024,0 -0.93464,0.2238 -1.30323,0.6714 -0.36859,0.4476 -0.55289,1.1058 -0.55289,1.9746 0,1.5665002 0.89515,4.1400002 2.68545,7.7206002 l 1.73764,3.495 c 1.19792,2.4091 1.99433,4.3211 2.38926,5.7362 0.39491,1.4152 0.59237,2.6822 0.59238,3.8012 -10e-6,1.9482 -0.4805,3.4752 -1.44145,4.581 -0.96098,1.1058 -2.0865,1.6587 -3.37656,1.6587 -1.39538,0 -2.50773,-0.6714 -3.33706,-2.0141 z" />
    <path
       d="m 124.08336,17.131064 0,7.2862 c -2e-5,4.1994 -0.6648,7.2665 -1.99434,9.2017 -0.92149,1.3426 -2.07333,2.014 -3.45554,2.014 -0.93464,0 -1.79688,-0.3357 -2.58672,-1.007 -0.78983,-0.6714 -1.40854,-1.6587 -1.85611,-2.9619 -0.72402,-2.0931 -1.08603,-4.4165 -1.08603,-6.9703 l 0,-8.5303 c 0,-3.9755 0.66478,-6.9242002 1.99434,-8.8461002 0.92147,-1.3296 2.06016,-1.9943 3.41604,-1.9944 0.65819,10e-5 1.26374,0.1481 1.81663,0.4443 0.55288,0.2962 1.04652,0.7306 1.48095,1.3032 0.4344,0.5727 0.82602,1.3296 1.17488,2.2708 0.34883,0.9413002 0.59565,1.9187002 0.74047,2.9323002 0.23694,1.7245 0.35541,3.3437 0.35543,4.8575 z m -6.81235,15.2636 c -1e-5,1.0268 0.15797,1.7705 0.4739,2.2313 0.23695,0.3291 0.52656,0.4936 0.86883,0.4936 0.32909,0 0.61869,-0.1481 0.86881,-0.4443 0.25011,-0.2961 0.37517,-0.7207 0.37518,-1.2736 l 0,-25.3142002 c -1e-5,-0.7109 -0.16455,-1.2769 -0.49365,-1.6982 -0.22379,-0.3027 -0.50682,-0.4541 -0.84908,-0.4542 -0.30277,10e-5 -0.56605,0.1449 -0.78983,0.4345 -0.30278,0.3949 -0.45417,0.9675 -0.45416,1.7179 z" />
    <path
       d="m 127.00358,6.1325638 -1.22425,0 c -0.1448,-0.092 -0.2172,-0.1711 -0.2172,-0.2369 0,-0.079 0.0724,-0.1646 0.2172,-0.2567 l 6.5754,0 c 0.0658,0 0.12176,0.023 0.16784,0.069 0.046,0.046 0.0691,0.102 0.0691,0.1678 -1e-5,0.079 -0.0231,0.1415 -0.0691,0.1876 -0.0461,0.046 -0.10203,0.069 -0.16784,0.069 l -1.30323,0 0,28.6908002 0.82933,0 c 0.59236,0 1.11234,-0.1678 1.55993,-0.5035 0.44756,-0.3357 0.88197,-1.0301 1.30322,-2.0832 0.6187,-1.5533 1.06957,-3.2482 1.3526,-5.0846 0.28301,-1.8363 0.43111,-3.0112 0.44428,-3.5246 0.0132,-0.1843 0.0395,-0.3028 0.079,-0.3554 l 0.15797,-0.059 0.15796,0.059 c 0.0526,0.052 0.079,0.1118 0.079,0.1777 l -0.15796,11.887 -11.07747,0 c -0.0658,0 -0.12176,-0.023 -0.16784,-0.069 -0.046,-0.046 -0.0691,-0.1085 -0.0691,-0.1875 0,-0.079 0.0231,-0.1415 0.0691,-0.1876 0.0461,-0.046 0.10203,-0.069 0.16784,-0.069 l 1.22425,0 z" />
    <path
       d="m 139.90415,34.803664 0,-28.6711002 -1.244,0 c -0.0922,0 -0.16126,-0.023 -0.20733,-0.069 -0.046,-0.046 -0.0691,-0.1086 -0.0691,-0.1876 0,-0.066 0.0231,-0.1217 0.0691,-0.1678 0.0461,-0.046 0.11518,-0.069 0.20733,-0.069 l 5.1142,0 c 1.5665,0 2.8434,0.3554 3.83071,1.0663 0.98729,0.7108 1.7113,1.8495 2.17205,3.4160002 0.60553,2.0931 0.9083,4.3244 0.90831,6.6939 l 0,7.3257 c -1e-5,2.4617 -0.2962,4.6864 -0.88856,6.6741 -0.34228,1.119 -0.77669,1.9911 -1.30323,2.6164 -0.52657,0.6252 -1.16503,1.0992 -1.91536,1.4217 -0.75035,0.3225 -1.68499,0.4838 -2.80392,0.4838 l -5.1142,0 c -0.0922,0 -0.16126,-0.023 -0.20733,-0.069 -0.046,-0.046 -0.0691,-0.1086 -0.0691,-0.1876 0,-0.092 0.0231,-0.1613 0.0691,-0.2073 0.0461,-0.046 0.11518,-0.069 0.20733,-0.069 z m 4.0874,0 0.45416,0 c 0.80299,0 1.32955,-0.1415 1.57967,-0.4245 0.25011,-0.283 0.37517,-1.0104 0.37517,-2.182 l 0,-23.8728002 c 0,-0.8556 -0.12177,-1.4348 -0.36529,-1.7376 -0.24354,-0.3028 -0.61542,-0.4542 -1.11565,-0.4542 l -0.92806,0 z" />
    <path
       d="m 153.38585,6.1325638 -1.18476,0 c -0.0658,0 -0.11848,-0.023 -0.15796,-0.069 -0.0395,-0.046 -0.0593,-0.102 -0.0593,-0.1678 0,-0.079 0.0197,-0.1415 0.0593,-0.1876 0.0395,-0.046 0.0921,-0.069 0.15796,-0.069 l 6.41743,0 c 0.0658,0 0.12176,0.023 0.16784,0.069 0.0461,0.046 0.0691,0.102 0.0691,0.1678 -1e-5,0.079 -0.0231,0.1416 -0.0691,0.1876 -0.0461,0.046 -0.10203,0.069 -0.16784,0.069 l -1.18476,0 0,28.6909002 1.18476,0 c 0.13163,0.092 0.19745,0.1777 0.19746,0.2567 -1e-5,0.092 -0.0658,0.1777 -0.19746,0.2567 l -6.57539,0 c -0.14481,-0.092 -0.21721,-0.1777 -0.21721,-0.2567 0,-0.079 0.0724,-0.1646 0.21721,-0.2567 l 1.34272,0 z" />
    <path
       d="m 161.29242,6.1325638 -1.26374,0 c -0.13164,-0.092 -0.19746,-0.1711 -0.19746,-0.2369 0,-0.092 0.0658,-0.1777 0.19746,-0.2567 l 11.21569,0 0,10.9984002 c -0.079,0.1317 -0.15798,0.1975 -0.23695,0.1975 -0.079,0 -0.13494,-0.023 -0.16784,-0.069 -0.0329,-0.046 -0.0559,-0.2336 -0.0691,-0.5628 -0.0922,-2.1851 -0.43442,-4.219 -1.02679,-6.1014 -0.59239,-1.8825002 -1.16502,-3.0738002 -1.7179,-3.5741002 -0.28961,-0.2632 -0.77668,-0.3948 -1.4612,-0.3949 l -1.22424,0 0,13.9011002 c 0.75034,-0.079 1.36246,-0.4738 1.83637,-1.1847 0.63186,-0.961 0.94779,-2.4353 0.94781,-4.4231 l 0,-1.5402 c -2e-5,-0.066 0.0231,-0.1217 0.0691,-0.1678 0.046,-0.046 0.10201,-0.069 0.16783,-0.069 0.0658,0 0.11847,0.023 0.15797,0.069 0.0395,0.046 0.0593,0.102 0.0593,0.1678 l 0,14.6713 c -1e-5,0.066 -0.0197,0.1218 -0.0593,0.1678 -0.0395,0.046 -0.0922,0.069 -0.15797,0.069 -0.0658,0 -0.12177,-0.023 -0.16783,-0.069 -0.0461,-0.046 -0.0691,-0.102 -0.0691,-0.1678 l 0,-1.4218 c -2e-5,-1.9482 -0.35544,-3.495 -1.06629,-4.6403 -0.42125,-0.6581 -0.86224,-0.9872 -1.32297,-0.9872 -0.11849,0 -0.21063,0.04 -0.27645,0.1184 -0.079,0.092 -0.11848,0.237 -0.11847,0.4344 l 0,13.763 0.63186,0 c 0.53972,0 1.07286,-0.2008 1.59943,-0.6023 0.52655,-0.4015 1.02019,-1.0992 1.48094,-2.0931 0.46073,-0.9938 0.81616,-2.0766 1.06628,-3.2482 0.40807,-1.8956 0.61212,-3.3765 0.61212,-4.4428 l 0,-1.3033 c 0.0921,-0.1447 0.17771,-0.2171 0.2567,-0.2171 0.079,0 0.14151,0.02 0.18759,0.059 0.046,0.04 0.0691,0.092 0.0691,0.158 l 0,12.203 -11.21569,0 c -0.0921,0 -0.16455,-0.026 -0.2172,-0.079 -0.0527,-0.052 -0.079,-0.112 -0.079,-0.1777 0,-0.079 0.0263,-0.1415 0.079,-0.1876 0.0527,-0.046 0.12505,-0.069 0.2172,-0.069 l 1.26374,0 z" />
    <path
       d="m 174.02132,6.1325638 -1.16502,0 c -0.1448,-0.079 -0.2172,-0.1645 -0.2172,-0.2567 0,-0.079 0.0724,-0.1579 0.2172,-0.2369 l 6.21997,0 c 1.54017,0 2.87632,0.6549 4.00842,1.9647 1.13209,1.3098 1.69814,3.0968002 1.69815,5.3610002 -1e-5,1.3033 -0.21721,2.4617 -0.65161,3.4753 -0.43443,1.0136 -1.07945,1.8495 -1.9351,2.5077 -0.51341,0.395 -1.30983,0.7767 -2.38926,1.1453 1.21108,0.3554 2.05357,0.6977 2.52748,1.0268 0.80299,0.5529 1.39865,1.2176 1.787,1.9943 0.38833,0.7767 0.5825,1.7837 0.58251,3.0211 l 0,7.2271 c -1e-5,0.3291 0.0526,0.5594 0.15797,0.6911 0.1053,0.1316 0.24352,0.1974 0.41466,0.1974 0.26327,0 0.50022,-0.1645 0.71085,-0.4937 0.34226,-0.5265 0.55946,-1.4743 0.65162,-2.8434 0.0132,-0.2369 0.0494,-0.3949 0.1086,-0.4738 0.0592,-0.079 0.12175,-0.1185 0.18759,-0.1185 0.079,0 0.14479,0.046 0.19746,0.1382 0.0658,0.1053 0.0987,0.3028 0.0987,0.5924 -2e-5,1.4612 -0.35215,2.59 -1.05641,3.3864 -0.70429,0.7964 -1.58956,1.1946 -2.65583,1.1946 -0.94781,0 -1.66525,-0.2435 -2.1523,-0.7305 -0.48707,-0.4871 -0.73061,-1.1782 -0.7306,-2.0734 l 0,-10.4456 c -1e-5,-0.8952 -0.2238,-1.4941 -0.67136,-1.7969 -0.26329,-0.1711 -0.88199,-0.2567 -1.85612,-0.2567 l 0,14.4936 0.96755,0 c 0.1053,0 0.18758,0.026 0.24683,0.079 0.0593,0.052 0.0889,0.1118 0.0889,0.1777 0,0.066 -0.0296,0.125 -0.0889,0.1777 -0.0593,0.052 -0.14153,0.079 -0.24683,0.079 l -6.21997,0 c -0.079,0 -0.1448,-0.023 -0.19746,-0.069 -0.0527,-0.046 -0.079,-0.1086 -0.079,-0.1876 0,-0.079 0.0263,-0.1415 0.079,-0.1876 0.0527,-0.046 0.11848,-0.069 0.19746,-0.069 l 1.16502,0 z m 4.0874,0 0,13.6642002 0.96755,0 c 0.46073,0 0.83591,-0.158 1.12552,-0.4739 0.2896,-0.3159 0.4344,-0.7767 0.43441,-1.3822 l 0,-10.2482002 c -1e-5,-0.5923 -0.10532,-1.0004 -0.31594,-1.2242 -0.21063,-0.2238 -0.62529,-0.3357 -1.24399,-0.3357 z" />
    <path
       d="m 30.736923,49.828884 c 1.00774,-0.024 1.72675,-0.2564 2.15703,-0.6978 0.43026,-0.4414 0.63974,-0.9485 0.62842,-1.5215 -0.0233,-0.688 -0.25625,-1.1895 -0.69884,-1.5044 -0.4426,-0.3149 -0.95508,-0.5442 -1.53744,-0.6881 -0.58237,-0.1438 -1.09485,-0.303 -1.53745,-0.4778 -0.4426,-0.1748 -0.67555,-0.466 -0.69884,-0.8738 0.008,-0.3621 0.15333,-0.6513 0.43594,-0.8677 0.2826,-0.2162 0.65437,-0.3271 1.11531,-0.3325 0.41729,0 0.81407,0.072 1.19032,0.2193 0.37625,0.1475 0.70792,0.3763 0.99501,0.6865 l 0.56615,-0.6907 c -0.31705,-0.3361 -0.6992,-0.5952 -1.14645,-0.777 -0.44726,-0.1819 -0.95963,-0.2739 -1.5371,-0.276 -0.75698,0.01 -1.37456,0.2028 -1.85271,0.5802 -0.47816,0.3775 -0.72491,0.8823 -0.74024,1.5145 0.0233,0.656 0.25624,1.1295 0.69884,1.4203 0.44259,0.2909 0.95507,0.5053 1.53744,0.6433 0.58236,0.138 1.09484,0.3057 1.53745,0.5032 0.44259,0.1974 0.67554,0.5308 0.69884,1 0.0101,0.3069 -0.11772,0.5961 -0.38357,0.8676 -0.26586,0.2715 -0.73057,0.4163 -1.39414,0.4345 -0.5336,-0.01 -1.00067,-0.1201 -1.40121,-0.3298 -0.40056,-0.2097 -0.72609,-0.4584 -0.97661,-0.7459 l -0.55482,0.7133 c 0.31114,0.3572 0.70791,0.645 1.19032,0.8634 0.4824,0.2185 1.05185,0.3307 1.70835,0.3369 z" />
    <path
       d="m 41.221363,49.692984 0,-7.5524 -0.9398,0 0,3.2497 -4.41596,0 0,-3.2497 -0.9398,0 0,7.5524 0.9398,0 0,-3.4648 4.41596,0 0,3.4648 z" />
    <path
       d="m 46.440113,49.828884 c 1.13206,-0.024 2.03553,-0.3956 2.71043,-1.1168 0.67489,-0.7211 1.02071,-1.651 1.03747,-2.7897 -0.0168,-1.1386 -0.36258,-2.0685 -1.03747,-2.7896 -0.6749,-0.7211 -1.57837,-1.0934 -2.71043,-1.1168 -1.13702,0.024 -2.04191,0.3957 -2.71468,1.1168 -0.67277,0.7211 -1.01718,1.651 -1.03322,2.7896 0.016,1.1387 0.36045,2.0686 1.03322,2.7897 0.67277,0.7212 1.57766,1.0934 2.71468,1.1168 z m 0,-0.8379 c -0.85866,-0.018 -1.53332,-0.3102 -2.02398,-0.8762 -0.49066,-0.5658 -0.74071,-1.2967 -0.75014,-2.1924 0.009,-0.9006 0.25948,-1.6328 0.75014,-2.1966 0.49066,-0.5638 1.16532,-0.8544 2.02398,-0.8719 0.8537,0.017 1.52694,0.3081 2.01973,0.8719 0.49278,0.5638 0.74425,1.296 0.7544,2.1966 -0.0102,0.8957 -0.26162,1.6266 -0.7544,2.1924 -0.49279,0.566 -1.16603,0.858 -2.01973,0.8762 z" />
    <path
       d="m 58.460963,49.692984 2.15136,-7.5524 -1.04171,0 -1.66448,6.2956 -1.73241,-6.2956 -0.78128,0 -1.73242,6.2956 -1.67579,-6.2956 -1.04172,0 2.15137,7.5524 1.01906,0 1.66448,-6.0918 1.66447,6.0918 z" />
    <path
       d="m 67.143683,49.692984 -2.03814,-3.0798 c 0.53241,-0.046 0.98769,-0.2539 1.36584,-0.6228 0.37813,-0.3689 0.57581,-0.8936 0.59303,-1.5739 -0.0123,-0.7041 -0.23401,-1.2575 -0.66522,-1.6602 -0.43122,-0.4027 -0.99831,-0.6079 -1.70127,-0.6157 l -3.03456,0 0,7.5524 0.93981,0 0,-3.0006 1.50595,0 1.9249,3.0006 z m -2.559,-3.8271 -1.98151,0 0,-2.8874 1.98151,0 c 0.4541,0.01 0.81691,0.1404 1.08843,0.4006 0.2715,0.2601 0.41068,0.606 0.41753,1.0374 -0.007,0.4319 -0.14603,0.7796 -0.41753,1.0431 -0.27152,0.2635 -0.63433,0.3989 -1.08843,0.4063 z" />
    <path
       d="m 71.983453,49.828884 c 1.13205,-0.024 2.03553,-0.3956 2.71043,-1.1168 0.67489,-0.7211 1.02071,-1.651 1.03747,-2.7897 -0.0167,-1.1386 -0.36258,-2.0685 -1.03747,-2.7896 -0.6749,-0.7211 -1.57838,-1.0934 -2.71043,-1.1168 -1.13702,0.024 -2.04191,0.3957 -2.71468,1.1168 -0.67278,0.7211 -1.01719,1.651 -1.03322,2.7896 0.016,1.1387 0.36044,2.0686 1.03322,2.7897 0.67277,0.7212 1.57766,1.0934 2.71468,1.1168 z m 0,-0.8379 c -0.85867,-0.018 -1.53333,-0.3102 -2.02398,-0.8762 -0.49067,-0.5658 -0.74071,-1.2967 -0.75015,-2.1924 0.01,-0.9006 0.25948,-1.6328 0.75015,-2.1966 0.49065,-0.5638 1.16531,-0.8544 2.02398,-0.8719 0.85369,0.017 1.52694,0.3081 2.01972,0.8719 0.49278,0.5638 0.74425,1.296 0.7544,2.1966 -0.0102,0.8957 -0.26162,1.6266 -0.7544,2.1924 -0.49278,0.566 -1.16603,0.858 -2.01972,0.8762 z" />
    <path
       d="m 80.652703,49.828884 c 1.13205,-0.024 2.03553,-0.3956 2.71043,-1.1168 0.67489,-0.7211 1.02071,-1.651 1.03746,-2.7897 -0.0167,-1.1386 -0.36257,-2.0685 -1.03746,-2.7896 -0.6749,-0.7211 -1.57838,-1.0934 -2.71043,-1.1168 -1.13702,0.024 -2.04192,0.3957 -2.71468,1.1168 -0.67278,0.7211 -1.01718,1.651 -1.03322,2.7896 0.016,1.1387 0.36044,2.0686 1.03322,2.7897 0.67276,0.7212 1.57766,1.0934 2.71468,1.1168 z m 0,-0.8379 c -0.85867,-0.018 -1.53333,-0.3102 -2.02398,-0.8762 -0.49067,-0.5658 -0.74072,-1.2967 -0.75015,-2.1924 0.01,-0.9006 0.25948,-1.6328 0.75015,-2.1966 0.49065,-0.5638 1.16531,-0.8544 2.02398,-0.8719 0.85369,0.017 1.52694,0.3081 2.01972,0.8719 0.49278,0.5638 0.74425,1.296 0.7544,2.1966 -0.0102,0.8957 -0.26162,1.6266 -0.7544,2.1924 -0.49278,0.566 -1.16603,0.858 -2.01972,0.8762 z" />
    <path
       d="m 93.273663,49.692984 0,-7.5524 -1.34743,0 -2.35518,5.6841 -2.34385,-5.6841 -1.34743,0 0,7.5524 0.9398,0 0,-6.2163 2.559,6.2163 0.38497,0 2.57032,-6.2163 0,6.2163 z" />
  </g>
</svg>
