<?xml version="1.0" encoding="UTF-8" standalone="no"?>
<!-- Created with Inkscape (http://www.inkscape.org/) -->
<svg xmlns:rdf="http://www.w3.org/1999/02/22-rdf-syntax-ns#" xmlns="http://www.w3.org/2000/svg" version="1.1" xmlns:cc="http://creativecommons.org/ns#" xmlns:dc="http://purl.org/dc/elements/1.1/" viewBox="0 0 102 119"  height="119">
 <metadata>
  <rdf:RDF>
   <cc:Work rdf:about="">
    <dc:format>image/svg+xml</dc:format>
    <dc:type rdf:resource="http://purl.org/dc/dcmitype/StillImage"/>
    <dc:title/>
   </cc:Work>
  </rdf:RDF>
 </metadata>
 <path style="stroke-linejoin:miter;enable-background:accumulate;color:#000000;stroke-dashoffset:0;stroke:#09af54;stroke-linecap:round;stroke-miterlimit:4;stroke-width:4.5;fill:none;" d="M97.823,79.148c-8.839,21.022-34.636,25.702-47.056,37.602-12.038-11.81-36.906-15.38-46.484-37.095-6.0637-13.749,10.788-53.793-2.0328-65.529,10.468-10.411-0.009-0.128,10.214-10.725,10.997,11.331,25.237,12.87,38.381-1.0588,11.74,13.392,27.038,12.608,38.094,0.7276l10.722,10.713c-13.032,10.773,3.6827,52.235-1.8381,65.365z"/>
 <path d="M86.878,77.362c-5.349,9.69-21.479,16.855-36.277,25.018-14.459-8.088-33.604-16.043-36.016-26.446-4.2107-18.159,6.3414-40.813,1.9256-56.349,8.7905,3.8672,25.578,6.0919,34.228-2.803,9.0022,9.7563,25.324,6.0701,33.802,2.3703-2.7795,10.085,7.7589,45.881,2.3374,58.21z" style="stroke-linejoin:miter;enable-background:accumulate;color:#000000;stroke-dashoffset:0;stroke:#09af54;stroke-linecap:round;stroke-miterlimit:4;stroke-dasharray:none;stroke-width:4.5;fill:none;"/>
 <path style="stroke-linejoin:miter;enable-background:accumulate;color:#000000;stroke-dashoffset:0;stroke:#09af54;stroke-linecap:butt;stroke-miterlimit:4;stroke-dasharray:none;stroke-width:4.5;fill:none;" d="m50.514,99.883,0-18.75m0-45.714,0-15.679"/>
 <path style="stroke-linejoin:miter;enable-background:accumulate;color:#000000;stroke-dashoffset:0;stroke:#09af54;stroke-linecap:butt;stroke-miterlimit:4;stroke-dasharray:none;stroke-width:4.5;fill:none;" d="m468.21,90.398a22.5,22.5,0,1,1,-45,0,22.5,22.5,0,1,1,45,0z" transform="translate(-394.89988,-32.122571)"/>
 <path style="stroke-linejoin:round;enable-background:accumulate;color:#000000;stroke-dashoffset:0;stroke:#09af54;stroke-linecap:round;stroke-miterlimit:4;stroke-dasharray:none;stroke-width:4.5958519;fill:none;" transform="matrix(0.96717508,-0.15262724,-0.15262724,-0.96717508,-365.76583,214.04062)" d="m450.17,95.568c0.0321-0.03211-3.0967,8.2101-3.0519,8.203,0.0449-0.007-5.4778-6.8791-5.4374-6.8584,0.0405,0.02062-8.7652-0.40811-8.7446-0.36764s4.8496-7.3355,4.8425-7.2906c-0.007,0.04486-2.3205-8.4623-2.3526-8.4302-0.0321,0.03211,8.4751,2.3455,8.4302,2.3526-0.0448,0.0071,7.3311-4.8219,7.2906-4.8425-0.0405-0.02062,0.38826,8.7851,0.36765,8.7446-0.0206-0.04046,6.8513,5.4822,6.8584,5.4374,0.007-0.04485-8.2351,3.084-8.203,3.0519z"/>
</svg>