<?xml version="1.0" encoding="UTF-8" standalone="no"?>
<!-- Created with Inkscape (http://www.inkscape.org/) -->
<svg xmlns:rdf="http://www.w3.org/1999/02/22-rdf-syntax-ns#" xmlns="http://www.w3.org/2000/svg" version="1.1" xmlns:cc="http://creativecommons.org/ns#" xmlns:dc="http://purl.org/dc/elements/1.1/" viewBox="0 0 109 119"  height="119">
 <metadata>
  <rdf:RDF>
   <cc:Work rdf:about="">
    <dc:format>image/svg+xml</dc:format>
    <dc:type rdf:resource="http://purl.org/dc/dcmitype/StillImage"/>
    <dc:title/>
   </cc:Work>
  </rdf:RDF>
 </metadata>
 <path style="stroke-linejoin:round;stroke-opacity:0.95294118;stroke:#08ae53;stroke-linecap:round;stroke-miterlimit:4;stroke-dasharray:none;stroke-width:4;fill:none;" d="m87.435,57.564,19.543-10.893s-11.998-28.362-15.179-31.071c-2.067-1.76-13.578-7.6486-19.096-8.7593m-36.4-0.0465c-7.377,1.8656-17.656,6.9858-19.227,8.9838-1.964,2.5-15.078,31.607-15.078,31.607l20.792,10.714"/>
 <path style="stroke-linejoin:miter;stroke-opacity:0.95294118;stroke:#08ae53;stroke-linecap:butt;stroke-miterlimit:4;stroke-dasharray:none;stroke-width:4;fill:none;" d="m92.614,18.457c-4.1071,6.7857-6.9643,18.036-6.9643,23.036v73.543s-15.357,1.9643-31.964,1.9643-30.357-1.9643-30.357-1.9643v-74.079c0-5.5357-3.3929-14.643-7.1429-22.857"/>
 <path style="stroke-linejoin:miter;stroke-opacity:0.95294118;stroke:#08ae53;stroke-linecap:butt;stroke-miterlimit:4;stroke-dasharray:none;stroke-width:4;fill:none;" d="M105.11,41.671,86.007,52.028"/>
 <path d="m3.5067,41.671,19.107,10.357" style="stroke-linejoin:miter;stroke-opacity:0.95294118;stroke:#08ae53;stroke-linecap:butt;stroke-miterlimit:4;stroke-dasharray:none;stroke-width:4;fill:none;"/>
 <path style="enable-background:accumulate;fill-opacity:0.95294118;color:#000000;fill:#08ae53;" d="m616.96,5.8443a1.3393,1.3393,0,1,1,-2.6786,0,1.3393,1.3393,0,1,1,2.6786,0z" transform="matrix(1.12,0,0,1.12,-631.03726,26.359536)"/>
 <path style="stroke-linejoin:round;enable-background:accumulate;stroke-opacity:0.95294118;color:#000000;stroke-dashoffset:0;stroke:#08ae53;stroke-linecap:round;stroke-miterlimit:4;stroke-dasharray:none;stroke-width:3.55307484;fill:none;" transform="matrix(0.88650298,0,0,1.0945792,-467.92209,59.579356)" d="m589.3-28.122-14.216-24.623,28.432-0.000001z"/>
 <path style="stroke-linejoin:round;stroke-opacity:0.95294118;stroke:#08ae53;stroke-linecap:round;stroke-miterlimit:4;stroke-dasharray:none;stroke-width:3;fill:none;" d="m54.492,41.523,0-13.763"/>
 <path style="stroke-linejoin:round;enable-background:accumulate;stroke-opacity:0.95294118;color:#000000;stroke-dashoffset:0;stroke:#08ae53;stroke-linecap:round;stroke-miterlimit:4;stroke-dasharray:none;stroke-width:3.5;fill:none;" d="m51.453,24.082-11.518,3.125c-1.583-7.322-7.651-19.603,1.607-24.643"/>
 <path d="m57.59,24.082,11.518,3.125c1.583-7.322,7.65-19.603-1.608-24.643" style="stroke-linejoin:round;enable-background:accumulate;stroke-opacity:0.95294118;color:#000000;stroke-dashoffset:0;stroke:#08ae53;stroke-linecap:round;stroke-miterlimit:4;stroke-dasharray:none;stroke-width:3.5;fill:none;"/>
</svg>