<?xml version="1.0" encoding="UTF-8" standalone="no"?>
<!-- Created with Inkscape (http://www.inkscape.org/) -->
<svg xmlns:rdf="http://www.w3.org/1999/02/22-rdf-syntax-ns#" xmlns="http://www.w3.org/2000/svg" version="1.1" xmlns:cc="http://creativecommons.org/ns#" xmlns:dc="http://purl.org/dc/elements/1.1/" viewBox="0 0 137 119" height="119">
 <metadata>
  <rdf:RDF>
   <cc:Work rdf:about="">
    <dc:format>image/svg+xml</dc:format>
    <dc:type rdf:resource="http://purl.org/dc/dcmitype/StillImage"/>
    <dc:title/>
   </cc:Work>
  </rdf:RDF>
 </metadata>
 <path style="stroke-linejoin:miter;enable-background:accumulate;color:#000000;stroke-dashoffset:0;stroke:#09af54;stroke-linecap:round;stroke-miterlimit:4;stroke-dasharray:none;stroke-width:5;fill:none;" d="m47.746,93.843,41.214,0,0.00025-91.244-23.031,0-48.225,0-5.875,0c-4.7525,0-8.5937,3.8412-8.5938,8.5937l-0.00025,74.057c-0.00002,4.7525,3.8412,8.5937,8.5938,8.5937"/>
 <path style="stroke-linejoin:miter;enable-background:accumulate;color:#000000;stroke-dashoffset:0;stroke:#09af54;stroke-linecap:round;stroke-miterlimit:4;stroke-dasharray:none;stroke-width:5;fill:none;" d="m88.786,70.786-76.5,0"/>
 <path style="stroke-linejoin:miter;enable-background:accumulate;color:#000000;stroke-dashoffset:0;stroke:#09af54;stroke-linecap:round;stroke-miterlimit:4;stroke-dasharray:none;stroke-width:4.8780489;fill:none;" d="m148.21,123.97a4.6429,4.6429,0,1,1,-9.2857,0,4.6429,4.6429,0,1,1,9.2857,0z" transform="matrix(1.025,0,0,1.025,-35.160286,-33.068582)"/>
 <path style="stroke-linejoin:miter;enable-background:accumulate;color:#000000;stroke-dashoffset:0;stroke:#09af54;stroke-linecap:round;stroke-miterlimit:4;stroke-dasharray:none;stroke-width:1.70426488;fill:none;" d="m148.21,123.97a4.6429,4.6429,0,1,1,-9.2857,0,4.6429,4.6429,0,1,1,9.2857,0z" transform="matrix(2.9338162,0,0,2.9338162,-309.21174,-269.70321)"/>
 <path style="stroke-linejoin:miter;enable-background:accumulate;color:#000000;stroke-dashoffset:0;stroke:#09af54;stroke-linecap:round;stroke-miterlimit:4;stroke-dasharray:none;stroke-width:4.8780489;fill:none;" d="m148.21,123.97a4.6429,4.6429,0,1,1,-9.2857,0,4.6429,4.6429,0,1,1,9.2857,0z" transform="matrix(1.025,0,0,1.025,-113.37458,-33.068582)"/>
 <path style="stroke-linejoin:miter;enable-background:accumulate;color:#000000;stroke-dashoffset:0;stroke:#09af54;stroke-linecap:round;stroke-miterlimit:4;stroke-dasharray:none;stroke-width:1.70426488;fill:none;" d="m148.21,123.97a4.6429,4.6429,0,1,1,-9.2857,0,4.6429,4.6429,0,1,1,9.2857,0z" transform="matrix(2.9338162,0,0,2.9338162,-387.42603,-269.70321)"/>
 <path style="stroke-linejoin:miter;enable-background:accumulate;color:#000000;stroke-dashoffset:0;stroke:#09af54;stroke-linecap:round;stroke-miterlimit:4;stroke-dasharray:none;stroke-width:5;fill:none;" d="m2.5,116.5,31.643,0"/>
 <path d="m47.715,116.5,22.5,0" style="stroke-linejoin:miter;enable-background:accumulate;color:#000000;stroke-dashoffset:0;stroke:#09af54;stroke-linecap:round;stroke-miterlimit:4;stroke-dasharray:none;stroke-width:5;fill:none;"/>
 <path style="stroke-linejoin:miter;enable-background:accumulate;color:#000000;stroke-dashoffset:0;stroke:#09af54;stroke-linecap:round;stroke-miterlimit:4;stroke-dasharray:none;stroke-width:5;fill:none;" d="m84.5,116.5,5,0"/>
 <path d="M98.608,116.5,133,116.5" style="stroke-linejoin:miter;enable-background:accumulate;color:#000000;stroke-dashoffset:0;stroke:#09af54;stroke-linecap:round;stroke-miterlimit:4;stroke-dasharray:none;stroke-width:5;fill:none;"/>
 <path d="m130.21,70.964,3.0357,0" style="stroke-linejoin:miter;enable-background:accumulate;color:#000000;stroke-dashoffset:0;stroke:#09af54;stroke-linecap:round;stroke-miterlimit:4;stroke-dasharray:none;stroke-width:5;fill:none;"/>
 <path style="stroke-linejoin:miter;enable-background:accumulate;color:#000000;stroke-dashoffset:0;stroke:#09af54;stroke-linecap:round;stroke-miterlimit:4;stroke-dasharray:none;stroke-width:5;fill:none;" d="m111.82,51.5,4.6428-7.8571"/>
 <path style="stroke-linejoin:miter;enable-background:accumulate;color:#000000;stroke-dashoffset:0;stroke:#09af54;stroke-linecap:round;stroke-miterlimit:4;stroke-dasharray:none;stroke-width:5;fill:none;" d="m98.608,52.393,25.714,0"/>
 <path style="stroke-linejoin:round;enable-background:accumulate;color:#000000;stroke-dashoffset:0;stroke:#09af54;stroke-linecap:round;stroke-miterlimit:4;stroke-dasharray:none;stroke-width:5;fill:none;" d="m97.893,15.786h16.964c5.1786,0,8.0357,3.5714,8.5714,8.3928,0.53571,4.8214,2.3214,28.75,2.3214,28.75l8.75,9.4643v31.071h-8.3929"/>
</svg>