<?xml version="1.0" encoding="iso-8859-1"?>
<!-- Generator: Adobe Illustrator 19.0.0, SVG Export Plug-In . SVG Version: 6.00 Build 0)  -->
<svg version="1.1" id="Capa_1" xmlns="http://www.w3.org/2000/svg" xmlns:xlink="http://www.w3.org/1999/xlink" x="0px" y="0px"
	 viewBox="0 0 457.8 457.8" style="enable-background:new 0 0 457.8 457.8;" xml:space="preserve"  width="22" height="24">
<g>
	<path  fill="#959595" d="M422.4,86.4h-81.1v-25c0-33.3-27-61.4-61.4-61.4h-103c-33.3,0-61.4,27-61.4,61.4v25H35.4c-11.4,0-20.8,9.4-20.8,20.8V437
		c0,11.4,9.4,20.8,20.8,20.8h387c11.4,0,19.8-8.3,20.8-19.8V107.2C443.2,95.7,433.8,86.4,422.4,86.4z M157.1,61.4
		c0-11.4,9.4-20.8,20.8-20.8h103c11.4,0,20.8,9.4,20.8,20.8v25H157.1V61.4z M401.6,126.9v88.5l-151.9,41.1
		c-0.2-11.2-9.5-20.4-20.8-20.4s-20.6,9.1-20.8,20.4L56.2,215.4v-88.5H401.6z M56.2,417.2V257.7l151.9,40.8v10.4
		c0,11.4,9.4,20.8,20.8,20.8c11.4,0,20.8-9.4,20.8-20.8v-10.4l151.9-40.8v159.5H56.2z"/>
</g>
<g>
</g>
<g>
</g>
<g>
</g>
<g>
</g>
<g>
</g>
<g>
</g>
<g>
</g>
<g>
</g>
<g>
</g>
<g>
</g>
<g>
</g>
<g>
</g>
<g>
</g>
<g>
</g>
<g>
</g>
</svg>
