<?xml version="1.0" encoding="utf-8"?>
<!-- Generator: Adobe Illustrator 19.2.0, SVG Export Plug-In . SVG Version: 6.00 Build 0)  -->
<svg version="1.1" id="Layer_1" xmlns="http://www.w3.org/2000/svg" xmlns:xlink="http://www.w3.org/1999/xlink" x="0px" y="0px"
	viewBox="150 -30 226 226"
	height="95"
	width="240" style="enable-background:new 0 0 517.3 192.6;" xml:space="preserve">
<style type="text/css">
	.st0{fill:#FFFFFF;}
	.st1{fill:url(#SVGID_1_);}
	.st2{fill:url(#SVGID_2_);}
	.st3{fill:none;stroke:#000000;stroke-width:5;stroke-miterlimit:22.9256;}
	.st4{fill:url(#SVGID_3_);}
	.st5{fill:url(#SVGID_4_);}
	.st6{fill:url(#SVGID_5_);}
	.st7{fill:url(#SVGID_6_);}
	.st8{fill:url(#SVGID_7_);}
	.st9{fill:url(#SVGID_8_);}
	.st10{fill:url(#SVGID_9_);}
	.st11{fill:url(#SVGID_10_);}
	.st12{fill:url(#SVGID_11_);}
	.st13{fill:url(#SVGID_12_);}
	.st14{fill:url(#SVGID_13_);}
	.st15{fill:url(#SVGID_14_);}
	.st16{fill:url(#SVGID_15_);}
	.st17{fill:url(#SVGID_16_);}
	.st18{fill:url(#SVGID_17_);}
	.st19{fill:url(#SVGID_18_);}
	.st20{fill:url(#SVGID_19_);}
	.st21{fill:url(#SVGID_20_);}
	.st22{fill:url(#SVGID_21_);}
	.st23{fill:url(#SVGID_22_);}
	.st24{fill:url(#SVGID_23_);}
	.st25{fill:url(#SVGID_24_);}
	.st26{fill:url(#SVGID_25_);}
	.st27{fill:url(#SVGID_26_);}
	.st28{fill:url(#SVGID_27_);}
	.st29{fill:url(#SVGID_28_);}
	.st30{fill:url(#SVGID_29_);}
	.st31{fill:url(#SVGID_30_);}
</style>
<path class="st0" d="M189.3,65.8h38.4c1,0,2-0.2,2.9-0.6c0.9-0.4,1.5-1,1.8-1.7h2.2l-3.8,14.4c-0.6,2-2.5,3-5.5,3h-5.5l-10.5,44.7
	c-0.1,0.6,0.2,1.3,0.8,1.9c0.7,0.7,1.4,1,2.1,1l-0.7,2.2h-26.1c-2,0-3-1-3-3c0-0.3,0.1-0.8,0.2-1.5l10.6-45.3h-6.5
	c-1,0-1.8,0.2-2.5,0.7c-0.7,0.5-1.1,1.1-1.4,1.8h-2.3l3.8-15c0.2-0.9,0.8-1.5,1.5-1.9C186.5,66,187.7,65.8,189.3,65.8L189.3,65.8z
	 M251,98.7c0.5-2,2.2-3,5.2-3h4c2.1,0,3.8-0.4,5.2-1.1c1.4-0.8,2.3-1.9,2.9-3.6l2.7-11.7h-8.2c-2.5,0-4.5,1-6.1,3.1
	c-0.1,0.1-1,1.5-2.6,4.1h-1.1c0.4-1.3,0.6-2.4,0.6-3.2c0-2.3-1.5-3.5-4.6-3.5H228l-0.5,2.2c0.7,0,1.3,0.3,1.8,0.8
	c0.5,0.5,0.8,1.2,0.8,2l-0.2,1.7l-9.2,39.6l-0.3,2c0,0.7,0.3,1.3,0.8,1.8c0.6,0.5,1.3,0.8,2.2,0.8H247l0.6-2.2
	c-0.6,0-1.2-0.3-1.8-0.9c-0.6-0.6-0.8-1.3-0.8-2l0.1-1.5L251,98.7L251,98.7z M289.7,111.9l-0.7,3.3l-0.2,1.6c0,1.2,0.6,1.8,1.9,1.8
	h0.7c1.4,0,2.2-0.8,2.5-2.4l2-8.6h-2.2c-1,0-1.8,0.3-2.4,0.8C290.6,109,290.1,110.1,289.7,111.9L289.7,111.9z M313.9,79.9
	c2.8,0,5.1,0.8,6.9,2.4c1.8,1.6,2.6,3.7,2.6,6.5c0,1.6-0.2,3.1-0.5,4.3l-7.2,31.2l-0.3,2.1c0,0.8,0.3,1.3,0.9,1.6
	c0.6,0.3,1.3,0.5,2,0.5l-0.5,2.2h-21.2c-1.6,0-2.7-0.3-3.4-1c-0.7-0.7-1.1-1.5-1.1-2.6c0-0.3,0.1-0.7,0.2-1.3l0.3-1.2h-1.1
	c-1.6,2.8-3.1,4.6-4.7,5.5c-1.5,0.9-4.1,1.3-7.8,1.3h-3.9c-3.3,0-5.6-0.7-7.1-2c-1.8-1.6-2.6-4.3-2.6-8.1c0-0.9,0-1.6,0-2
	c0-0.4,0.3-1.9,0.8-4.6c1.4-6,3.4-10.3,6.1-12.8c2.7-2.5,6.2-3.8,10.6-3.8h12.4c1.7,0,2.7-0.8,3.1-2.3c0.1-0.2,0.1-0.6,0.1-1.1
	c0-1.1-0.7-1.7-2.2-1.7H284c-2.9,0-4.3-1.1-4.3-3.3l0.3-1.9l2-8H313.9L313.9,79.9z M344.7,79.9c1.4,0,2.7,0.4,3.7,1.2
	c1,0.8,1.6,1.8,1.6,2.8l0.4,15.3l6.2-13.2l0.4-1.5c0-0.7-0.3-1.3-0.8-1.8c-0.5-0.5-1.1-0.8-1.7-0.8l0.5-2.2h19.7
	c1.1,0,1.9,0.4,2.6,1.1c0.7,0.7,1,1.6,1,2.6c0,0.7-0.1,1.2-0.3,1.6l-24.6,45.5H331L326.9,85c-0.1-0.8-0.5-1.5-1.1-2.1
	c-0.6-0.6-1.3-0.8-2.2-0.8l0.5-2.2H344.7L344.7,79.9z M407.2,116.1c-2.1,0-3.7-0.2-4.6-0.5c-0.9-0.3-1.4-0.9-1.4-1.6l0.3-2.1
	l0.8-3.5h17.2c3.6,0,5.9-0.6,7-1.9c1.1-1.3,2.2-4.4,3.4-9.6c0.5-2.1,0.8-3.9,0.8-5.4c0-3.8-1.4-6.7-4.1-8.6
	c-2.8-1.9-7.1-2.9-13.1-2.9h-10.3c-5.3,0-10,1.6-14,4.9c-4,3.3-6.8,8-8.3,14.1l-2.4,9.4c-1,4.1-1.5,7.5-1.5,10.1c0,4,1.1,7,3.1,9.1
	c2.1,2,5.4,3.1,9.9,3.1h19.8c3.9,0,6.8-0.6,8.7-1.7c1.9-1.1,3.3-3.3,4-6.5l2.4-9.6h-2.4c-0.5,1.3-1.3,2.1-2.4,2.5
	c-1.1,0.4-2.9,0.7-5.4,0.7H407.2L407.2,116.1z M404.4,99l0.9-3.9c0.3-1.1,0.6-1.8,0.9-2.3c0.4-0.5,1.1-0.7,2.2-0.7
	c1.4,0,2.2,0.5,2.2,1.5c0,0.5-0.1,0.9-0.2,1.3l-0.5,1.8c-0.4,1.5-1.2,2.3-2.4,2.3H404.4L404.4,99z M430.7,126.2l12.4-53.3
	c0.1-0.4,0.2-0.8,0.2-1.1c0-0.4,0-0.7,0-0.8c0-0.7-0.3-1.3-0.8-2c-0.6-0.6-1.2-0.9-1.8-0.9l0.6-2.2h23.5c0.9,0,1.6,0.3,2.2,0.8
	c0.6,0.5,0.8,1.1,0.8,1.8l-0.3,2l-12.5,53.8l-0.1,1.5c0,0.7,0.3,1.3,0.8,2c0.6,0.6,1.2,0.9,1.8,0.9l-0.6,2.2h-23.5
	c-0.9,0-1.6-0.3-2.2-0.8c-0.6-0.5-0.8-1.1-0.8-1.8L430.7,126.2z"/>
<linearGradient id="SVGID_1_" gradientUnits="userSpaceOnUse" x1="320.6953" y1="134.4573" x2="320.6953" y2="66.6018">
	<stop  offset="0" style="stop-color:#000000"/>
	<stop  offset="0.2909" style="stop-color:#000000"/>
	<stop  offset="0.5515" style="stop-color:#7D7D7C"/>
	<stop  offset="0.7515" style="stop-color:#000000"/>
</linearGradient>
<path class="st1" d="M185.9,69h38.4c1,0,2-0.2,2.9-0.6c0.9-0.4,1.5-1,1.8-1.7h2.2L227.5,81c-0.6,2-2.5,3-5.5,3h-5.5l-10.5,44.7
	c-0.1,0.6,0.2,1.3,0.8,1.9c0.7,0.7,1.4,1,2.1,1l-0.7,2.2H182c-2,0-3-1-3-3c0-0.3,0.1-0.8,0.2-1.5L189.8,84h-6.5
	c-1,0-1.8,0.2-2.5,0.7c-0.7,0.5-1.1,1.1-1.4,1.8h-2.3l3.8-15c0.2-0.9,0.8-1.5,1.5-1.9C183.1,69.2,184.3,69,185.9,69L185.9,69z
	 M247.6,101.8c0.5-2,2.2-3,5.2-3h4c2.1,0,3.8-0.4,5.2-1.1c1.4-0.8,2.3-1.9,2.9-3.6l2.7-11.7h-8.2c-2.5,0-4.5,1-6.1,3.1
	c-0.1,0.1-1,1.5-2.6,4.1h-1.1c0.4-1.3,0.6-2.4,0.6-3.2c0-2.3-1.5-3.5-4.6-3.5h-20.9l-0.5,2.2c0.7,0,1.3,0.3,1.8,0.8
	c0.5,0.5,0.8,1.2,0.8,2l-0.2,1.7l-9.2,39.6l-0.3,2c0,0.7,0.3,1.3,0.8,1.8c0.6,0.5,1.3,0.8,2.2,0.8h23.5l0.6-2.2
	c-0.6,0-1.2-0.3-1.8-0.9c-0.6-0.6-0.8-1.3-0.8-2l0.1-1.5L247.6,101.8L247.6,101.8z M286.3,115l-0.8,3.3l-0.2,1.6
	c0,1.2,0.6,1.8,1.9,1.8h0.7c1.4,0,2.2-0.8,2.5-2.4l2-8.6h-2.2c-1,0-1.8,0.3-2.4,0.8C287.2,112.1,286.7,113.2,286.3,115L286.3,115z
	 M310.5,83c2.8,0,5.1,0.8,6.9,2.3c1.8,1.6,2.6,3.7,2.6,6.5c0,1.6-0.2,3.1-0.5,4.3l-7.2,31.2l-0.3,2.1c0,0.7,0.3,1.3,0.9,1.6
	c0.6,0.3,1.3,0.5,2,0.5l-0.5,2.2h-21.2c-1.6,0-2.7-0.3-3.4-1c-0.7-0.7-1.1-1.5-1.1-2.6c0-0.2,0.1-0.7,0.2-1.3l0.3-1.2h-1.1
	c-1.6,2.8-3.1,4.6-4.6,5.5c-1.5,0.9-4.1,1.3-7.8,1.3h-3.9c-3.3,0-5.6-0.7-7.1-2c-1.8-1.6-2.6-4.3-2.6-8.1c0-0.9,0-1.6,0-2
	c0-0.4,0.3-1.9,0.8-4.6c1.4-6,3.4-10.3,6.1-12.8c2.7-2.5,6.2-3.8,10.6-3.8H292c1.7,0,2.7-0.8,3.1-2.3c0.1-0.3,0.1-0.6,0.1-1.1
	c0-1.1-0.7-1.7-2.2-1.7h-12.5c-2.9,0-4.3-1.1-4.3-3.3l0.3-1.9l2-8H310.5L310.5,83z M341.3,83c1.4,0,2.7,0.4,3.7,1.2
	c1,0.8,1.6,1.8,1.6,2.8l0.4,15.3l6.2-13.2l0.4-1.5c0-0.7-0.3-1.3-0.8-1.8c-0.5-0.5-1.1-0.8-1.7-0.8l0.5-2.2h19.7
	c1.1,0,1.9,0.4,2.6,1.1c0.7,0.7,1,1.6,1,2.6c0,0.7-0.1,1.2-0.3,1.6l-24.6,45.5h-22.2l-4.1-45.7c-0.1-0.8-0.5-1.5-1.1-2.1
	c-0.6-0.6-1.3-0.8-2.2-0.8l0.5-2.2H341.3L341.3,83z M403.8,119.2c-2.1,0-3.7-0.2-4.6-0.5c-0.9-0.3-1.4-0.9-1.4-1.6l0.3-2.1l0.8-3.5
	h17.2c3.6,0,5.9-0.6,7-1.9c1.1-1.3,2.2-4.4,3.4-9.6c0.5-2.1,0.8-3.9,0.8-5.4c0-3.8-1.4-6.7-4.1-8.7C420.4,84,416,83,410.1,83h-10.3
	c-5.3,0-10,1.6-14,4.9c-4,3.3-6.8,8-8.3,14.1l-2.4,9.4c-1,4.1-1.5,7.5-1.5,10.2c0,4,1.1,7,3.1,9.1c2.1,2,5.4,3.1,9.9,3.1h19.8
	c3.9,0,6.8-0.6,8.7-1.7c1.9-1.1,3.3-3.3,4-6.5l2.3-9.6h-2.3c-0.5,1.3-1.3,2.1-2.4,2.5c-1.1,0.4-2.9,0.7-5.5,0.7H403.8L403.8,119.2z
	 M401,102.1l0.9-3.9c0.3-1.1,0.6-1.8,0.9-2.3c0.4-0.5,1.1-0.7,2.2-0.7c1.4,0,2.2,0.5,2.2,1.5c0,0.5-0.1,0.9-0.2,1.3l-0.5,1.8
	c-0.4,1.5-1.2,2.3-2.3,2.3H401L401,102.1z M427.3,129.3L439.7,76c0.1-0.4,0.2-0.8,0.2-1.1c0-0.4,0-0.7,0-0.8c0-0.7-0.3-1.3-0.9-2
	c-0.6-0.6-1.2-0.9-1.8-0.9l0.6-2.2h23.5c0.9,0,1.6,0.2,2.2,0.8c0.6,0.5,0.9,1.1,0.9,1.8l-0.3,2l-12.5,53.8l-0.1,1.5
	c0,0.7,0.3,1.3,0.8,2c0.6,0.6,1.2,0.9,1.8,0.9l-0.6,2.2H430c-0.9,0-1.6-0.3-2.2-0.8c-0.6-0.5-0.8-1.1-0.8-1.8L427.3,129.3z"/>
<path class="st0" d="M63.5,118.3h12.1c0.9,0,1.9-0.2,3-0.7c1-0.5,1.6-1,1.8-1.7h2.2l-2.7,11.8c-0.4,2.1-1.3,3.5-2.5,4.4
	c-1.6,1.1-4,1.7-7.2,1.7H48.9c-6.3,0-10.9-1.2-13.6-3.7c-2.4-2.2-3.7-5.5-3.7-10c0-2.9,0.5-6.4,1.5-10.5L38.3,87
	c1.3-5.9,3.9-10.4,7.6-13.6c3.4-2.9,7.4-4.4,11.8-4.4h32c-0.2,1.1-0.5,2.7-0.9,4.7c-0.4,2-0.8,3.6-1.1,4.7c-0.5,1.9-1.1,3.3-1.9,4
	c-1,1-2.6,1.5-4.9,1.5h-9.7c-2.3,0-3.9,0.5-4.9,1.6c-1,1.1-1.7,2.7-2.2,4.8L59,112.6c-0.2,0.7-0.3,1.3-0.3,1.9
	C58.7,117,60.3,118.3,63.5,118.3L63.5,118.3z M112.6,115l-0.8,3.3l-0.2,1.6c0,1.2,0.6,1.8,1.9,1.8h0.7c1.4,0,2.2-0.8,2.5-2.4l2-8.6
	h-2.2c-1,0-1.8,0.3-2.4,0.8C113.4,112.1,112.9,113.2,112.6,115L112.6,115z M136.8,83h-32l-2,8l-0.3,1.9c0,2.2,1.4,3.3,4.3,3.3h12.5
	c1.4,0,2.2,0.6,2.2,1.7c0,0.5,0,0.9-0.1,1.1c-0.4,1.5-1.4,2.3-3.1,2.3h-12.4c-4.4,0-7.9,1.3-10.6,3.8c-2.7,2.5-4.7,6.8-6.1,12.8
	c-0.5,2.7-0.8,4.2-0.8,4.6c0,0.4,0,1,0,2c0,3.8,0.9,6.5,2.6,8.1c1.5,1.3,3.9,2,7.1,2h3.9c3.6,0,6.2-0.4,7.8-1.3
	c1.5-0.9,3.1-2.7,4.6-5.5h1.1l-0.3,1.2c-0.1,0.6-0.2,1.1-0.2,1.3c0,1.1,0.4,1.9,1.1,2.6c0.7,0.7,1.9,1,3.4,1h21.2l0.5-2.2
	c-0.7,0-1.3-0.2-2-0.5c-0.6-0.3-0.9-0.9-0.9-1.6l0.3-2.1l7.2-31.2c0.3-1.3,0.5-2.7,0.5-4.3c0-2.8-0.9-4.9-2.6-6.5
	C141.9,83.8,139.6,83,136.8,83L136.8,83z M176.7,101.8l-5.9,25.4l-0.1,1.5c0,0.7,0.3,1.3,0.8,2c0.6,0.6,1.2,0.9,1.8,0.9l-0.6,2.2
	h-23.5c-0.9,0-1.6-0.3-2.2-0.8c-0.6-0.5-0.8-1.1-0.8-1.8l0.3-2l9.2-39.6l0.2-1.7c0-0.8-0.3-1.5-0.8-2c-0.5-0.5-1.1-0.8-1.8-0.8
	l0.5-2.2h20.9c3.1,0,4.6,1.2,4.6,3.5c0,0.8-0.2,1.9-0.6,3.2h1.1c1.6-2.6,2.5-4,2.6-4.1c1.6-2.1,3.6-3.1,6.1-3.1h8.2L194,94.1
	c-0.6,1.6-1.5,2.8-2.9,3.6c-1.4,0.8-3.1,1.1-5.2,1.1h-4C178.9,98.8,177.2,99.8,176.7,101.8z"/>
<linearGradient id="SVGID_2_" gradientUnits="userSpaceOnUse" x1="109.3608" y1="134.134" x2="109.3608" y2="68.6282">
	<stop  offset="0" style="stop-color:#A11A1F"/>
	<stop  offset="0.3273" style="stop-color:#A11A1F"/>
	<stop  offset="0.5515" style="stop-color:#DC8674"/>
	<stop  offset="0.7273" style="stop-color:#A11A1F"/>
</linearGradient>
<path class="st2" d="M58.7,118h12.1c0.9,0,1.9-0.2,3-0.7c1-0.5,1.6-1,1.8-1.7h2.2l-2.7,11.8c-0.4,2.1-1.3,3.5-2.5,4.4
	c-1.6,1.1-4,1.7-7.2,1.7H44.1c-6.3,0-10.9-1.2-13.6-3.7c-2.4-2.2-3.7-5.5-3.7-10c0-2.9,0.5-6.4,1.5-10.5l5.2-22.6
	c1.3-5.9,3.9-10.4,7.6-13.6c3.4-2.9,7.4-4.4,11.8-4.4h32c-0.2,1.1-0.5,2.7-0.9,4.7c-0.4,2-0.8,3.6-1.1,4.7c-0.5,1.9-1.1,3.3-1.9,4
	c-1,1-2.6,1.5-4.9,1.5h-9.7c-2.3,0-3.9,0.5-4.9,1.6c-1,1.1-1.7,2.7-2.2,4.8l-5.2,22.3c-0.2,0.7-0.3,1.3-0.3,1.9
	C53.9,116.7,55.5,118,58.7,118L58.7,118z M107.8,114.7L107,118l-0.2,1.6c0,1.2,0.6,1.8,1.9,1.8h0.7c1.4,0,2.2-0.8,2.5-2.4l2-8.6
	h-2.2c-1,0-1.8,0.3-2.4,0.8C108.6,111.8,108.1,112.9,107.8,114.7L107.8,114.7z M132,82.7h-32l-2,8l-0.3,1.9c0,2.2,1.4,3.3,4.3,3.3
	h12.5c1.4,0,2.2,0.6,2.2,1.7c0,0.5,0,0.9-0.1,1.1c-0.4,1.5-1.4,2.3-3.1,2.3h-12.4c-4.4,0-7.9,1.3-10.6,3.8
	c-2.7,2.5-4.7,6.8-6.1,12.8c-0.5,2.7-0.8,4.2-0.8,4.6c0,0.4,0,1,0,2c0,3.8,0.9,6.5,2.6,8.1c1.5,1.3,3.9,2,7.1,2h3.9
	c3.6,0,6.2-0.4,7.8-1.3c1.5-0.9,3.1-2.7,4.7-5.5h1.1l-0.3,1.2c-0.1,0.6-0.2,1.1-0.2,1.3c0,1.1,0.4,1.9,1.1,2.6c0.7,0.7,1.9,1,3.4,1
	H136l0.5-2.2c-0.7,0-1.3-0.2-2-0.5c-0.6-0.3-0.9-0.9-0.9-1.6l0.3-2.1l7.2-31.2c0.3-1.3,0.5-2.7,0.5-4.3c0-2.8-0.9-4.9-2.6-6.5
	C137.1,83.5,134.8,82.7,132,82.7L132,82.7z M171.9,101.5l-5.9,25.4l-0.1,1.5c0,0.7,0.3,1.3,0.8,2c0.6,0.6,1.2,0.9,1.8,0.9l-0.6,2.2
	h-23.5c-0.9,0-1.6-0.3-2.2-0.8c-0.6-0.5-0.8-1.1-0.8-1.8l0.3-2l9.2-39.6l0.2-1.7c0-0.8-0.3-1.5-0.8-2c-0.5-0.5-1.1-0.8-1.8-0.8
	l0.5-2.2h20.9c3.1,0,4.6,1.2,4.6,3.5c0,0.8-0.2,1.9-0.6,3.2h1.1c1.6-2.6,2.5-4,2.6-4.1c1.6-2.1,3.6-3.1,6.1-3.1h8.2l-2.7,11.7
	c-0.6,1.6-1.5,2.8-2.9,3.6c-1.4,0.8-3.1,1.1-5.2,1.1h-4C174.1,98.5,172.4,99.5,171.9,101.5z"/>
<path class="st3" d="M23.7,51.4c320.5-70.9,386.2-44.2,387.9,3 M22.8,52.6C146.1,55.8,386.4,40,476.1,66.8
	c49.8,14.9,13.1,59.2-19.4,66.7"/>
<path class="st0" d="M107.8,114.7L107,118l-0.2,1.6c0,1.2,0.6,1.8,1.9,1.8h0.7c1.4,0,2.2-0.8,2.5-2.4l2-8.6h-2.2
	c-1,0-1.8,0.3-2.4,0.8C108.6,111.8,108.1,112.9,107.8,114.7L107.8,114.7z"/>
<g>
	<linearGradient id="SVGID_3_" gradientUnits="userSpaceOnUse" x1="16.5051" y1="178.6408" x2="16.5051" y2="154.2961">
		<stop  offset="0" style="stop-color:#000000"/>
		<stop  offset="0.3599" style="stop-color:#000000"/>
		<stop  offset="0.6697" style="stop-color:#7D7D7C"/>
		<stop  offset="0.9436" style="stop-color:#000000"/>
	</linearGradient>
	<path class="st4" d="M18.5,178.6v-19.5h-4.1v19.5H8.9v-24.3h15.1v24.3H18.5z"/>
	<linearGradient id="SVGID_4_" gradientUnits="userSpaceOnUse" x1="34.8645" y1="178.6408" x2="34.8645" y2="154.2961">
		<stop  offset="0" style="stop-color:#000000"/>
		<stop  offset="0.3599" style="stop-color:#000000"/>
		<stop  offset="0.6697" style="stop-color:#7D7D7C"/>
		<stop  offset="0.9436" style="stop-color:#000000"/>
	</linearGradient>
	<path class="st5" d="M27.5,178.6v-24.3h7.3c5.1,0,7.4,3.7,7.4,7.9s-2.3,7.9-7.4,7.9H33v8.5H27.5z M36.6,162.2
		c0-1.9-0.9-3.1-2.4-3.1H33v6.2h1.2C35.7,165.3,36.6,164.1,36.6,162.2z"/>
	<linearGradient id="SVGID_5_" gradientUnits="userSpaceOnUse" x1="52.0193" y1="179.0783" x2="52.0193" y2="153.8947">
		<stop  offset="0" style="stop-color:#000000"/>
		<stop  offset="0.3599" style="stop-color:#000000"/>
		<stop  offset="0.6697" style="stop-color:#7D7D7C"/>
		<stop  offset="0.9436" style="stop-color:#000000"/>
	</linearGradient>
	<path class="st6" d="M43.8,166.5c0-7.3,2.6-12.6,8.2-12.6c5.7,0,8.2,5.3,8.2,12.6s-2.6,12.6-8.2,12.6
		C46.3,179.1,43.8,173.8,43.8,166.5z M54.6,166.5c0-4.5-0.7-7.7-2.6-7.7c-1.9,0-2.6,3.2-2.6,7.7c0,4.5,0.7,7.7,2.6,7.7
		C54,174.2,54.6,170.9,54.6,166.5z"/>
	<linearGradient id="SVGID_6_" gradientUnits="userSpaceOnUse" x1="71.1086" y1="178.6408" x2="71.1086" y2="154.2961">
		<stop  offset="0" style="stop-color:#000000"/>
		<stop  offset="0.3599" style="stop-color:#000000"/>
		<stop  offset="0.6697" style="stop-color:#7D7D7C"/>
		<stop  offset="0.9436" style="stop-color:#000000"/>
	</linearGradient>
	<path class="st7" d="M73.1,178.6l-3.3-8.7l-1.5,3.1v5.6h-5.5v-24.3h5.5v10.5l4.5-10.5h6l-5.8,11.4l6.2,13H73.1z"/>
	<linearGradient id="SVGID_7_" gradientUnits="userSpaceOnUse" x1="87.5701" y1="178.6408" x2="87.5701" y2="154.2961">
		<stop  offset="0" style="stop-color:#000000"/>
		<stop  offset="0.3599" style="stop-color:#000000"/>
		<stop  offset="0.6697" style="stop-color:#7D7D7C"/>
		<stop  offset="0.9436" style="stop-color:#000000"/>
	</linearGradient>
	<path class="st8" d="M90.3,178.6l-0.6-3.9h-4.2l-0.6,3.9h-5.7l5.2-24.3h6.4l5.2,24.3H90.3z M87.6,160.4l-1.5,9.5H89L87.6,160.4z"/>
	<linearGradient id="SVGID_8_" gradientUnits="userSpaceOnUse" x1="101.6409" y1="178.6408" x2="101.6409" y2="154.2961">
		<stop  offset="0" style="stop-color:#000000"/>
		<stop  offset="0.3599" style="stop-color:#000000"/>
		<stop  offset="0.6697" style="stop-color:#7D7D7C"/>
		<stop  offset="0.9436" style="stop-color:#000000"/>
	</linearGradient>
	<path class="st9" d="M98.9,178.6v-19.5h-3.6v-4.8H108v4.8h-3.6v19.5H98.9z"/>
	<linearGradient id="SVGID_9_" gradientUnits="userSpaceOnUse" x1="122.7556" y1="178.6408" x2="122.7556" y2="154.2961">
		<stop  offset="0" style="stop-color:#000000"/>
		<stop  offset="0.3599" style="stop-color:#000000"/>
		<stop  offset="0.6697" style="stop-color:#7D7D7C"/>
		<stop  offset="0.9436" style="stop-color:#000000"/>
	</linearGradient>
	<path class="st10" d="M125.5,178.6l-0.6-3.9h-4.2l-0.6,3.9h-5.7l5.2-24.3h6.4l5.2,24.3H125.5z M122.8,160.4l-1.5,9.5h2.9
		L122.8,160.4z"/>
	<linearGradient id="SVGID_10_" gradientUnits="userSpaceOnUse" x1="140.1658" y1="178.6408" x2="140.1658" y2="154.2961">
		<stop  offset="0" style="stop-color:#000000"/>
		<stop  offset="0.3599" style="stop-color:#000000"/>
		<stop  offset="0.6697" style="stop-color:#7D7D7C"/>
		<stop  offset="0.9436" style="stop-color:#000000"/>
	</linearGradient>
	<path class="st11" d="M132.8,178.6v-24.3h8.4c4.4,0,6.1,3,6.1,6.2c0,3-1.6,5-3.8,5.6c2.4,0.4,4.1,2.9,4.1,5.9
		c0,3.6-1.7,6.6-6.2,6.6H132.8z M141.6,161.5c0-1.5-0.5-2.4-2-2.4h-1.4v4.7h1.4C141,163.9,141.6,163,141.6,161.5z M141.9,171.2
		c0-1.5-0.8-2.6-2.2-2.6h-1.5v5.1h1.5C141.2,173.8,141.9,172.9,141.9,171.2z"/>
	<linearGradient id="SVGID_11_" gradientUnits="userSpaceOnUse" x1="155.3677" y1="178.6408" x2="155.3677" y2="154.2961">
		<stop  offset="0" style="stop-color:#000000"/>
		<stop  offset="0.3599" style="stop-color:#000000"/>
		<stop  offset="0.6697" style="stop-color:#7D7D7C"/>
		<stop  offset="0.9436" style="stop-color:#000000"/>
	</linearGradient>
	<path class="st12" d="M152.6,178.6v-19.5H149v-4.8h12.7v4.8h-3.6v19.5H152.6z"/>
	<linearGradient id="SVGID_12_" gradientUnits="userSpaceOnUse" x1="171.1541" y1="179.0783" x2="171.1541" y2="153.8947">
		<stop  offset="0" style="stop-color:#000000"/>
		<stop  offset="0.3599" style="stop-color:#000000"/>
		<stop  offset="0.6697" style="stop-color:#7D7D7C"/>
		<stop  offset="0.9436" style="stop-color:#000000"/>
	</linearGradient>
	<path class="st13" d="M162.9,166.5c0-7.3,2.6-12.6,8.2-12.6c5.7,0,8.2,5.3,8.2,12.6s-2.6,12.6-8.2,12.6
		C165.5,179.1,162.9,173.8,162.9,166.5z M173.7,166.5c0-4.5-0.7-7.7-2.6-7.7c-1.9,0-2.6,3.2-2.6,7.7c0,4.5,0.7,7.7,2.6,7.7
		C173.1,174.2,173.7,170.9,173.7,166.5z"/>
	<linearGradient id="SVGID_13_" gradientUnits="userSpaceOnUse" x1="192.0684" y1="178.6408" x2="192.0684" y2="154.2961">
		<stop  offset="0" style="stop-color:#000000"/>
		<stop  offset="0.3599" style="stop-color:#000000"/>
		<stop  offset="0.6697" style="stop-color:#7D7D7C"/>
		<stop  offset="0.9436" style="stop-color:#000000"/>
	</linearGradient>
	<path class="st14" d="M196.7,178.6v-13l-3.8,13h-1.8l-3.6-13v13H182v-24.3h6.9l3.2,11.1l3.2-11.1h6.8v24.3H196.7z"/>
	<linearGradient id="SVGID_14_" gradientUnits="userSpaceOnUse" x1="212.9827" y1="179.0783" x2="212.9827" y2="153.8947">
		<stop  offset="0" style="stop-color:#000000"/>
		<stop  offset="0.3599" style="stop-color:#000000"/>
		<stop  offset="0.6697" style="stop-color:#7D7D7C"/>
		<stop  offset="0.9436" style="stop-color:#000000"/>
	</linearGradient>
	<path class="st15" d="M204.7,166.5c0-7.3,2.6-12.6,8.2-12.6c5.7,0,8.2,5.3,8.2,12.6s-2.6,12.6-8.2,12.6
		C207.3,179.1,204.7,173.8,204.7,166.5z M215.6,166.5c0-4.5-0.7-7.7-2.6-7.7c-1.9,0-2.6,3.2-2.6,7.7c0,4.5,0.7,7.7,2.6,7.7
		C214.9,174.2,215.6,170.9,215.6,166.5z"/>
	<linearGradient id="SVGID_15_" gradientUnits="userSpaceOnUse" x1="231.196" y1="178.6408" x2="231.196" y2="154.2961">
		<stop  offset="0" style="stop-color:#000000"/>
		<stop  offset="0.3599" style="stop-color:#000000"/>
		<stop  offset="0.6697" style="stop-color:#7D7D7C"/>
		<stop  offset="0.9436" style="stop-color:#000000"/>
	</linearGradient>
	<path class="st16" d="M237.2,154.3v4.8h-7.8v3.7h1.8c5.1,0,7.4,3.7,7.4,7.9c0,4.2-2.3,7.9-7.4,7.9h-7.3v-24.3H237.2z M229.3,167.7
		v6.2h1.2c1.5,0,2.4-1.2,2.4-3.1c0-1.9-0.9-3.1-2.4-3.1H229.3z"/>
	<linearGradient id="SVGID_16_" gradientUnits="userSpaceOnUse" x1="248.4968" y1="178.6408" x2="248.4968" y2="154.2961">
		<stop  offset="0" style="stop-color:#000000"/>
		<stop  offset="0.3599" style="stop-color:#000000"/>
		<stop  offset="0.6697" style="stop-color:#7D7D7C"/>
		<stop  offset="0.9436" style="stop-color:#000000"/>
	</linearGradient>
	<path class="st17" d="M240.9,178.6v-24.3h5.5v11.4l4.1-11.4h5.5v24.3h-5.5v-11.9l-4.5,11.9H240.9z"/>
	<linearGradient id="SVGID_17_" gradientUnits="userSpaceOnUse" x1="266.4365" y1="179.0783" x2="266.4365" y2="154.2961">
		<stop  offset="0" style="stop-color:#000000"/>
		<stop  offset="0.3599" style="stop-color:#000000"/>
		<stop  offset="0.6697" style="stop-color:#7D7D7C"/>
		<stop  offset="0.9436" style="stop-color:#000000"/>
	</linearGradient>
	<path class="st18" d="M258.3,174.2c1.4,0,2.2-0.6,2.7-6.7l0.9-13.2h12.8v24.3H269v-19.5h-2.1l-0.5,8.5c-0.5,9.9-3.9,11.5-8.1,11.5
		V174.2z"/>
	<linearGradient id="SVGID_18_" gradientUnits="userSpaceOnUse" x1="283.7559" y1="178.6408" x2="283.7559" y2="154.2961">
		<stop  offset="0" style="stop-color:#000000"/>
		<stop  offset="0.3599" style="stop-color:#000000"/>
		<stop  offset="0.6697" style="stop-color:#7D7D7C"/>
		<stop  offset="0.9436" style="stop-color:#000000"/>
	</linearGradient>
	<path class="st19" d="M278,178.6v-24.3h11.5v4.8h-5.9v4.7h5.7v4.8h-5.7v5.1h5.9v4.8H278z"/>
	<linearGradient id="SVGID_19_" gradientUnits="userSpaceOnUse" x1="299.8887" y1="178.6408" x2="299.8887" y2="148.7483">
		<stop  offset="0" style="stop-color:#000000"/>
		<stop  offset="0.3599" style="stop-color:#000000"/>
		<stop  offset="0.6697" style="stop-color:#7D7D7C"/>
		<stop  offset="0.9436" style="stop-color:#000000"/>
	</linearGradient>
	<path class="st20" d="M292.3,178.6v-24.3h5.5v11.4l4.1-11.4h5.5v24.3h-5.5v-11.9l-4.5,11.9H292.3z M299.9,152.8
		c-1.9,0-3.6-0.9-4.6-2.3l2.3-1.7c0.5,0.8,1.4,1.3,2.4,1.3c0.9,0,1.8-0.5,2.4-1.3l2.2,1.7C303.4,151.9,301.8,152.8,299.9,152.8z"/>
	<linearGradient id="SVGID_20_" gradientUnits="userSpaceOnUse" x1="324.0884" y1="178.6408" x2="324.0884" y2="154.2961">
		<stop  offset="0" style="stop-color:#000000"/>
		<stop  offset="0.3599" style="stop-color:#000000"/>
		<stop  offset="0.6697" style="stop-color:#7D7D7C"/>
		<stop  offset="0.9436" style="stop-color:#000000"/>
	</linearGradient>
	<path class="st21" d="M316.7,178.6v-24.3h8.4c4.4,0,6.1,3,6.1,6.2c0,3-1.6,5-3.8,5.6c2.4,0.4,4.1,2.9,4.1,5.9
		c0,3.6-1.7,6.6-6.2,6.6H316.7z M325.5,161.5c0-1.5-0.5-2.4-2-2.4h-1.4v4.7h1.4C325,163.9,325.5,163,325.5,161.5z M325.8,171.2
		c0-1.5-0.8-2.6-2.2-2.6h-1.5v5.1h1.5C325.1,173.8,325.8,172.9,325.8,171.2z"/>
	<linearGradient id="SVGID_21_" gradientUnits="userSpaceOnUse" x1="348.1416" y1="178.6408" x2="348.1416" y2="154.2961">
		<stop  offset="0" style="stop-color:#000000"/>
		<stop  offset="0.3599" style="stop-color:#000000"/>
		<stop  offset="0.6697" style="stop-color:#7D7D7C"/>
		<stop  offset="0.9436" style="stop-color:#000000"/>
	</linearGradient>
	<path class="st22" d="M350.1,178.6l-3.3-8.7l-1.5,3.1v5.6h-5.5v-24.3h5.5v10.5l4.5-10.5h6l-5.8,11.4l6.2,13H350.1z"/>
	<linearGradient id="SVGID_22_" gradientUnits="userSpaceOnUse" x1="365.4063" y1="178.6408" x2="365.4063" y2="154.2961">
		<stop  offset="0" style="stop-color:#000000"/>
		<stop  offset="0.3599" style="stop-color:#000000"/>
		<stop  offset="0.6697" style="stop-color:#7D7D7C"/>
		<stop  offset="0.9436" style="stop-color:#000000"/>
	</linearGradient>
	<path class="st23" d="M358,178.6v-24.3h7.3c5.1,0,7.4,3.7,7.4,7.9s-2.3,7.9-7.4,7.9h-1.8v8.5H358z M367.2,162.2
		c0-1.9-0.9-3.1-2.4-3.1h-1.2v6.2h1.2C366.2,165.3,367.2,164.1,367.2,162.2z"/>
	<linearGradient id="SVGID_23_" gradientUnits="userSpaceOnUse" x1="380.5171" y1="178.6408" x2="380.5171" y2="154.2961">
		<stop  offset="0" style="stop-color:#000000"/>
		<stop  offset="0.3599" style="stop-color:#000000"/>
		<stop  offset="0.6697" style="stop-color:#7D7D7C"/>
		<stop  offset="0.9436" style="stop-color:#000000"/>
	</linearGradient>
	<path class="st24" d="M383.3,178.6l-0.6-3.9h-4.2l-0.6,3.9h-5.7l5.2-24.3h6.4l5.2,24.3H383.3z M380.5,160.4l-1.5,9.5h2.9
		L380.5,160.4z"/>
	<linearGradient id="SVGID_24_" gradientUnits="userSpaceOnUse" x1="396.7593" y1="179.0783" x2="396.7593" y2="153.8947">
		<stop  offset="0" style="stop-color:#000000"/>
		<stop  offset="0.3599" style="stop-color:#000000"/>
		<stop  offset="0.6697" style="stop-color:#7D7D7C"/>
		<stop  offset="0.9436" style="stop-color:#000000"/>
	</linearGradient>
	<path class="st25" d="M389.3,166.5c0-7.4,2.6-12.6,8.3-12.6c4.4,0,5.8,3.5,6.6,6.3l-4.4,1.6c-0.4-1.9-0.9-3-2.3-3
		c-2,0-2.6,3.1-2.6,7.7c0,4.6,0.7,7.7,2.6,7.7c1.4,0,2-1.5,2.3-3.5l4.4,1.6c-0.7,2.9-2.2,6.8-6.7,6.8
		C391.8,179.1,389.3,173.8,389.3,166.5z"/>
	<linearGradient id="SVGID_25_" gradientUnits="userSpaceOnUse" x1="414.0234" y1="178.6408" x2="414.0234" y2="154.2961">
		<stop  offset="0" style="stop-color:#000000"/>
		<stop  offset="0.3599" style="stop-color:#000000"/>
		<stop  offset="0.6697" style="stop-color:#7D7D7C"/>
		<stop  offset="0.9436" style="stop-color:#000000"/>
	</linearGradient>
	<path class="st26" d="M416.1,178.6v-10.1H412v10.1h-5.5v-24.3h5.5v9.4h4.1v-9.4h5.5v24.3H416.1z"/>
	<linearGradient id="SVGID_26_" gradientUnits="userSpaceOnUse" x1="432.4194" y1="179.0783" x2="432.4194" y2="153.8947">
		<stop  offset="0" style="stop-color:#000000"/>
		<stop  offset="0.3599" style="stop-color:#000000"/>
		<stop  offset="0.6697" style="stop-color:#7D7D7C"/>
		<stop  offset="0.9436" style="stop-color:#000000"/>
	</linearGradient>
	<path class="st27" d="M424.2,166.5c0-7.3,2.6-12.6,8.2-12.6c5.7,0,8.2,5.3,8.2,12.6s-2.6,12.6-8.2,12.6
		C426.7,179.1,424.2,173.8,424.2,166.5z M435,166.5c0-4.5-0.7-7.7-2.6-7.7s-2.6,3.2-2.6,7.7c0,4.5,0.7,7.7,2.6,7.7
		S435,170.9,435,166.5z"/>
	<linearGradient id="SVGID_27_" gradientUnits="userSpaceOnUse" x1="450.6523" y1="183.1301" x2="450.6523" y2="154.2961">
		<stop  offset="0" style="stop-color:#000000"/>
		<stop  offset="0.3599" style="stop-color:#000000"/>
		<stop  offset="0.6697" style="stop-color:#7D7D7C"/>
		<stop  offset="0.9436" style="stop-color:#000000"/>
	</linearGradient>
	<path class="st28" d="M441.6,174.2c1.4-0.3,2.3-0.6,2.7-6.9l0.9-13H458v19.5h1.7v9.3h-5.5v-4.5h-7v4.5h-5.5V174.2z M447.8,173.8
		h4.6v-14.7h-2.2l-0.4,7.3C449.6,169.9,448.9,172.3,447.8,173.8z"/>
	<linearGradient id="SVGID_28_" gradientUnits="userSpaceOnUse" x1="468.4087" y1="178.6408" x2="468.4087" y2="154.2961">
		<stop  offset="0" style="stop-color:#000000"/>
		<stop  offset="0.3599" style="stop-color:#000000"/>
		<stop  offset="0.6697" style="stop-color:#7D7D7C"/>
		<stop  offset="0.9436" style="stop-color:#000000"/>
	</linearGradient>
	<path class="st29" d="M471.1,178.6l-0.6-3.9h-4.2l-0.6,3.9H460l5.2-24.3h6.4l5.2,24.3H471.1z M468.4,160.4l-1.5,9.5h2.9
		L468.4,160.4z"/>
	<linearGradient id="SVGID_29_" gradientUnits="userSpaceOnUse" x1="485.7822" y1="178.6408" x2="485.7822" y2="154.2961">
		<stop  offset="0" style="stop-color:#000000"/>
		<stop  offset="0.3599" style="stop-color:#000000"/>
		<stop  offset="0.6697" style="stop-color:#7D7D7C"/>
		<stop  offset="0.9436" style="stop-color:#000000"/>
	</linearGradient>
	<path class="st30" d="M478.4,178.6v-24.3h7.3c5.1,0,7.4,3.7,7.4,7.9s-2.3,7.9-7.4,7.9h-1.8v8.5H478.4z M487.5,162.2
		c0-1.9-0.9-3.1-2.4-3.1h-1.2v6.2h1.2C486.6,165.3,487.5,164.1,487.5,162.2z"/>
	<linearGradient id="SVGID_30_" gradientUnits="userSpaceOnUse" x1="501.2578" y1="178.6408" x2="501.2578" y2="154.2961">
		<stop  offset="0" style="stop-color:#000000"/>
		<stop  offset="0.3599" style="stop-color:#000000"/>
		<stop  offset="0.6697" style="stop-color:#7D7D7C"/>
		<stop  offset="0.9436" style="stop-color:#000000"/>
	</linearGradient>
	<path class="st31" d="M495.5,178.6v-24.3H507v4.8H501v4.7h5.7v4.8H501v5.1h5.9v4.8H495.5z"/>
</g>
</svg>
