<svg id="Слой_1" data-name="Слой 1" xmlns="http://www.w3.org/2000/svg" viewBox="0 0 195.76 28.88" width="198" height="29">
  <defs>
    <style>
      .cls-1 {
        isolation: isolate;
      }
      .cls-2 {
        fill: #f92d2d;
      }
      .cls-3 {
        fill: #000002;
      }
    </style>
  </defs>
  <title>Logo_2</title>
  <g class="cls-1">
    <g class="cls-1"><path
      class="cls-2"
      d="M14.18,25h5.16a3,3,0,0,0,1.26-.3A1.26,1.26,0,0,0,21.38,24H22.3l-1.16,5a2.92,2.92,0,0,1-1.08,1.88,5.31,5.31,0,0,1-3.08.72H8q-4,0-5.8-1.56A5.4,5.4,0,0,1,.62,25.85a19.51,19.51,0,0,1,.64-4.47l2.2-9.63A10.26,10.26,0,0,1,6.7,6a7.54,7.54,0,0,1,5-1.88h13.6q-0.12.72-.4,2t-0.48,2a3.83,3.83,0,0,1-.8,1.72,2.86,2.86,0,0,1-2.08.64H17.46a2.75,2.75,0,0,0-2.08.68,4.13,4.13,0,0,0-.92,2l-2.2,9.45a3,3,0,0,0-.12.8Q12.14,25,14.18,25Z"
      transform="translate(-0.62 -3.04)"/><path
      class="cls-2"
      d="M45.38,10a4.22,4.22,0,0,1,2.92,1,3.51,3.51,0,0,1,1.12,2.76,7.65,7.65,0,0,1-.2,1.84L46.14,28.91,46,29.8a0.74,0.74,0,0,0,.4.7,1.71,1.71,0,0,0,.84.22l-0.2.92H38a2.12,2.12,0,0,1-1.46-.42,1.42,1.42,0,0,1-.46-1.1,3.34,3.34,0,0,1,.08-0.56L36.3,29H35.82a6,6,0,0,1-2,2.32,7.08,7.08,0,0,1-3.3.56H28.9a4.55,4.55,0,0,1-3-.84,4.44,4.44,0,0,1-1.12-3.44c0-.4,0-0.68,0-0.84s0.13-.81.34-2a10.57,10.57,0,0,1,2.6-5.44,6.37,6.37,0,0,1,4.52-1.6H37.5a1.21,1.21,0,0,0,1.32-1,2.27,2.27,0,0,0,0-.49,0.74,0.74,0,0,0-.92-0.73H32.62q-1.84,0-1.84-1.4l0.12-.8L31.74,10H45.38ZM35.06,23.64L34.74,25l-0.08.68a0.69,0.69,0,0,0,.8.76h0.28a1.07,1.07,0,0,0,1.08-1l0.84-3.64H36.74a1.5,1.5,0,0,0-1,.36A2.85,2.85,0,0,0,35.06,23.64Z"
      transform="translate(-0.62 -3.04)"/><path
      class="cls-2"
      d="M62.34,18l-2.52,10.8,0,0.64a1.24,1.24,0,0,0,.36.84,1,1,0,0,0,.76.4l-0.24.92h-10a1.33,1.33,0,0,1-.92-0.32,1,1,0,0,1-.36-0.76l0.12-.84,3.92-16.87,0.08-.72a1.17,1.17,0,0,0-.34-0.86,1.07,1.07,0,0,0-.78-0.34l0.2-.92h8.88q2,0,2,1.48a5.21,5.21,0,0,1-.24,1.36h0.48q1-1.68,1.12-1.76a3.15,3.15,0,0,1,2.6-1.28h3.48l-1.16,5a2.63,2.63,0,0,1-1.24,1.52,4.55,4.55,0,0,1-2.2.48H64.54Q62.66,16.76,62.34,18Z"
      transform="translate(-0.62 -3.04)"/></g>
    <g class="cls-1"><path
      class="cls-3"
      d="M74.42,4.08H90.78A3,3,0,0,0,92,3.81,1.28,1.28,0,0,0,92.78,3H93.7L92.1,9.19q-0.4,1.29-2.36,1.29H87.38l-4.48,19a0.9,0.9,0,0,0,.36.82,1.29,1.29,0,0,0,.88.42l-0.28.92H72.74a1.13,1.13,0,0,1-1.28-1.28,4.83,4.83,0,0,1,.08-0.64l4.52-19.24H73.3a1.83,1.83,0,0,0-1.06.29,1.49,1.49,0,0,0-.58.75h-1l1.6-6.37a1.29,1.29,0,0,1,.64-0.82A3.35,3.35,0,0,1,74.42,4.08Z"
      transform="translate(-0.62 -3.04)"/><path
      class="cls-3"
      d="M104.14,18l-2.52,10.8,0,0.64a1.24,1.24,0,0,0,.36.84,1,1,0,0,0,.76.4l-0.24.92h-10a1.33,1.33,0,0,1-.92-0.32,1,1,0,0,1-.36-0.76l0.12-.84,3.92-16.87,0.08-.72A1.17,1.17,0,0,0,95,11.26a1.07,1.07,0,0,0-.78-0.34l0.2-.92h8.88q2,0,2,1.48a5.21,5.21,0,0,1-.24,1.36h0.48q1-1.68,1.12-1.76a3.15,3.15,0,0,1,2.6-1.28h3.48l-1.16,5a2.63,2.63,0,0,1-1.24,1.52,4.55,4.55,0,0,1-2.2.48h-1.72Q104.46,16.76,104.14,18Z"
      transform="translate(-0.62 -3.04)"/><path
      class="cls-3"
      d="M130.94,10a4.22,4.22,0,0,1,2.92,1A3.51,3.51,0,0,1,135,13.76a7.65,7.65,0,0,1-.2,1.84L131.7,28.91l-0.12.88a0.74,0.74,0,0,0,.4.7,1.71,1.71,0,0,0,.84.22l-0.2.92h-9a2.12,2.12,0,0,1-1.46-.42,1.42,1.42,0,0,1-.46-1.1,3.34,3.34,0,0,1,.08-0.56l0.12-.52h-0.48a6,6,0,0,1-2,2.32,7.08,7.08,0,0,1-3.3.56h-1.64a4.55,4.55,0,0,1-3-.84,4.44,4.44,0,0,1-1.12-3.44c0-.4,0-0.68,0-0.84s0.13-.81.34-2a10.57,10.57,0,0,1,2.6-5.44,6.37,6.37,0,0,1,4.52-1.6h5.28a1.21,1.21,0,0,0,1.32-1,2.31,2.31,0,0,0,0-.49,0.74,0.74,0,0,0-.92-0.73h-5.32q-1.84,0-1.84-1.4l0.12-.8L117.3,10h13.64ZM120.62,23.64L120.3,25l-0.08.68a0.69,0.69,0,0,0,.8.76h0.28a1.07,1.07,0,0,0,1.08-1l0.84-3.64H122.3a1.5,1.5,0,0,0-1,.36A2.85,2.85,0,0,0,120.62,23.64Z"
      transform="translate(-0.62 -3.04)"/><path
      class="cls-3"
      d="M144,10a2.46,2.46,0,0,1,1.58.52,1.52,1.52,0,0,1,.66,1.21l0.16,6.55,2.64-5.63,0.16-.64a1,1,0,0,0-.34-0.76,1.06,1.06,0,0,0-.74-0.32l0.2-.92h8.4a1.42,1.42,0,0,1,1.1.46,1.58,1.58,0,0,1,.42,1.1,1.56,1.56,0,0,1-.12.68l-10.48,19.4h-9.44l-1.76-19.48a1.46,1.46,0,0,0-.48-0.88,1.34,1.34,0,0,0-.92-0.36l0.2-.92H144Z"
      transform="translate(-0.62 -3.04)"/><path
      class="cls-3"
      d="M170.62,25.44h3.24a6.92,6.92,0,0,0,2.32-.28,1.81,1.81,0,0,0,1-1.08h1l-1,4.08a4.06,4.06,0,0,1-1.72,2.76,7.59,7.59,0,0,1-3.72.72h-8.44a5.88,5.88,0,0,1-4.22-1.3,5.14,5.14,0,0,1-1.34-3.86,19.11,19.11,0,0,1,.64-4.32l1-4a11.14,11.14,0,0,1,3.54-6A9,9,0,0,1,168.9,10h4.4q3.8,0,5.56,1.24a4.23,4.23,0,0,1,1.76,3.69,10.48,10.48,0,0,1-.32,2.33,11.35,11.35,0,0,1-1.46,4.09q-0.7.8-3,.8h-7.32l-0.36,1.48-0.12.88a0.75,0.75,0,0,0,.6.7A6.24,6.24,0,0,0,170.62,25.44Zm-1.16-7.28h1.36a1,1,0,0,0,1-1l0.2-.77a1.84,1.84,0,0,0,.08-0.57q0-.65-0.92-0.65a1.13,1.13,0,0,0-.92.3,2.59,2.59,0,0,0-.4,1Z"
      transform="translate(-0.62 -3.04)"/><path
      class="cls-3"
      d="M180.62,29.72L185.9,7.08A1.51,1.51,0,0,0,186,6.6V6.24a1.24,1.24,0,0,0-.36-0.84,1,1,0,0,0-.76-0.4l0.24-.92h10a1.34,1.34,0,0,1,.92.32,1,1,0,0,1,.36.76L196.26,6l-5.32,22.85,0,0.64a1.24,1.24,0,0,0,.36.84,1,1,0,0,0,.76.4l-0.24.92h-10a1.33,1.33,0,0,1-.92-0.32,1,1,0,0,1-.36-0.76Z"
      transform="translate(-0.62 -3.04)"/></g>
  </g>
</svg>
