<svg xmlns="http://www.w3.org/2000/svg" viewBox="0 0 538.043 538.043" width="512" height="512"><path d="M526.745 312.866H511.74c-3.706-18.736-10.307-44.359-20.792-57.941-49.022-63.573-110.574-97.697-187.945-97.697-50.134 0-82.787 4.902-99.789 14.981-2.295 1.363-9.063 5.369-27.344 42.135-26.687.419-97.278 5.261-131.127 43.414-16.99 19.143-23.746 39.719-26.352 55.096h-7.078C5.058 312.854 0 317.924 0 324.177c0 6.241 5.058 11.323 11.311 11.323h5.655c.048.61.096 1.076.108 1.219.598 5.739 5.464 10.115 11.239 10.115h14.252c8.752 19.968 28.66 33.981 51.831 33.981s43.079-14.013 51.855-33.981h215.982c8.74 19.968 28.66 33.981 51.832 33.981s43.091-14.013 51.832-33.981h38.38c6.253 0 11.335-5.07 11.335-11.323h11.131c6.241 0 11.299-5.081 11.299-11.323.002-6.264-5.056-11.322-11.297-11.322zM94.397 358.169c-18.724 0-33.968-15.232-33.968-33.981 0-18.748 15.232-33.992 33.968-33.992 18.748 0 34.004 15.245 34.004 33.992.001 18.749-15.256 33.981-34.004 33.981zm200.786-131.736a5.656 5.656 0 0 1-5.667 5.667h-87.964c-1.937 0-3.742-1.016-4.783-2.666a5.594 5.594 0 0 1-.287-5.476c4.149-8.537 11.67-23.327 15.269-26.4 11.981-7.616 36.001-11.227 72.002-11.227 1.961 0 3.922.024 5.906.06 3.061.072 5.512 2.595 5.512 5.667l.012 34.375zm11.347 0V193.66c0-1.614.705-3.157 1.901-4.233 1.208-1.076 2.81-1.614 4.424-1.399 39.863 4.687 70.519 17.875 82.058 35.272a5.665 5.665 0 0 1 .263 5.811c-.968 1.841-2.905 2.989-4.998 2.989h-78.004c-3.097 0-5.644-2.535-5.644-5.667zm107.537 131.736c-18.724 0-33.98-15.232-33.98-33.981 0-18.748 15.244-33.992 33.98-33.992 18.736 0 33.98 15.245 33.98 33.992 0 18.749-15.256 33.981-33.98 33.981z" fill="#FFF"/></svg>