<svg xmlns="http://www.w3.org/2000/svg" width="13" height="14" viewBox="0 0 13 14"><title>Shape 6 copy</title><defs><clipPath id="a"><path d="M395 1256v-14h13v14zm1-11v7.1c0 1.1.895 2 2 2h7c1.104 0 2-.9 2-2v-7.1c0-1.11-.896-2-2-2h-7c-1.105 0-2 .89-2 2z" fill="#fff"/></clipPath></defs><path d="M3 1h7c1.104 0 2 .89 2 2v7.1c0 1.1-.896 2-2 2H3c-1.105 0-2-.9-2-2V3c0-1.11.895-2 2-2z" fill="#fff"/><path d="M398 1243h7c1.104 0 2 .89 2 2v7.1c0 1.1-.896 2-2 2h-7c-1.105 0-2-.9-2-2v-7.1c0-1.11.895-2 2-2z" fill="none" stroke-dasharray="0" stroke-linejoin="round" stroke-linecap="round" stroke="#e3e5e6" stroke-miterlimit="50" stroke-width="2" clip-path="url(&amp;quot;#a&amp;quot;)" transform="translate(-395 -1242)"/></svg>