<svg xmlns="http://www.w3.org/2000/svg" width="18" viewBox="-2 -2 20 20"><title>Эллипс 1</title><defs><clipPath id="a"><path d="M401.5 979.999a6.5 6.5 0 1 1 0 13 6.5 6.5 0 0 1 0-13z" fill="#fff"/></clipPath></defs><path d="M6.5.999a6.5 6.5 0 1 1 0 13 6.5 6.5 0 0 1 0-13z" fill="#fff"/><path d="M401.5 979.999a6.5 6.5 0 1 1 0 13 6.5 6.5 0 0 1 0-13z" fill="none" stroke-dasharray="0" stroke="#e3e5e6" stroke-miterlimit="50" stroke-width="2" clip-path="url(&amp;quot;#a&amp;quot;)" transform="translate(-395 -979)"/><path d="M6.5 4.999a2.5 2.5 0 1 1 0 5 2.5 2.5 0 0 1 0-5z" fill="#ed1c24"/></svg>