<svg xmlns="http://www.w3.org/2000/svg" viewBox="0 0 484.2 484.2" width="512" height="512"><g fill="#FFF"><path d="M422.7 268.6c-4.9-1.2-9.6-.8-13.8.6-8.2-30.2-25.5-56.6-48.9-76.1-3.6-15.9 2.1-30.4 8.7-41 4.8-7.7-1.6-17.8-10.7-16.6-28.1 3.5-44.2 16.6-53.2 28.4-11.9-3.4-24.4-5.3-37.3-5.6 5.3 14.2 8.3 29.5 8.3 45.6 0 71.4-58.1 129.5-129.6 129.5-28.2 0-54.4-9.1-75.7-24.5.1 44.6 19.5 84.6 50.3 112.1 10.2 9.1 16.3 22 16.3 35.7v17.7c0 5.4 4.4 9.8 9.8 9.8H207c5.4 0 9.8-4.4 9.8-9.8v-15.3c1.4 0 2.7.1 4.1.1h43.4v15.2c0 5.4 4.4 9.8 9.8 9.8h60.1c5.4 0 9.8-4.4 9.8-9.8v-14.3c0-14.4 6.5-27.8 17.4-37.2 22.6-19.4 39.4-45.4 47.4-75.1 4.2 1.4 8.9 1.8 13.8.6 11.2-2.8 18.9-13.2 18.9-24.8v-30.1c.1-11.6-7.5-22.2-18.8-24.9zm-74.3 2.5c-8.2 0-14.9-6.7-14.9-14.9s6.7-14.9 14.9-14.9 14.9 6.7 14.9 14.9-6.7 14.9-14.9 14.9zM259.9 138c25.7-11 43.7-36.5 43.7-66.1 0-39.7-32.2-71.9-71.9-71.9s-71.9 32.2-71.9 71.9c0 .4.1.8.1 1.2 42.7 4.4 79.4 29.4 100 64.9z"/><path d="M146.1 307.2c57.1 0 103.4-46.3 103.4-103.4s-46.3-103.4-103.4-103.4c-29.8 0-56.6 12.6-75.5 32.7-17.3 18.5-27.9 43.3-27.9 70.6.1 57.3 46.3 103.5 103.4 103.5zM110 244.8c.9-3.4 1.9-6.8 2.9-10.2 1.2-3.9 2.3-4.4 5.9-2.5 6.1 3.2 12.6 5 19.5 5.8 4.4.5 8.7.1 12.8-1.7 7.6-3.3 8.8-12.1 2.4-17.4-2.2-1.8-4.7-3.1-7.3-4.3-6.7-2.9-13.6-5.2-19.9-8.9-10.2-6.1-16.7-14.5-15.9-26.9.9-14 8.8-22.8 21.7-27.5 5.3-1.9 5.3-1.9 5.4-7.4v-5.6c.1-4.2.8-4.9 5-5h3.9c8.9 0 8.9 0 8.9 8.9 0 6.3 0 6.3 6.3 7.3 4.8.7 9.4 2.2 13.8 4.1 2.4 1.1 3.4 2.8 2.6 5.4-1.1 3.8-2.2 7.7-3.4 11.5-1.2 3.6-2.3 4.1-5.8 2.4-6.9-3.4-14.2-4.8-21.9-4.3-2 .1-4 .4-5.8 1.2-6.6 2.9-7.7 10.2-2.1 14.7 2.8 2.3 6.1 3.9 9.5 5.3 5.9 2.4 11.8 4.8 17.3 7.8 17.7 9.8 22.5 32.1 10 47.2-4.5 5.5-10.4 9.2-17.2 11-3 .8-4.3 2.4-4.2 5.5.1 3 0 6.1 0 9.2 0 2.7-1.4 4.2-4.1 4.2-3.3.1-6.6.1-9.9 0-2.9-.1-4.2-1.7-4.3-4.5 0-2.2 0-4.5-.1-6.7-.1-4.9-.2-5.1-4.9-5.9-6.1-1-12-2.3-17.5-5-4.4-2.1-4.8-3.2-3.6-7.7z"/></g></svg>