<svg xmlns="http://www.w3.org/2000/svg" preserveAspectRatio="none" viewBox="0 0 185 40"><title>Rounded Rectangle 23</title><defs><clipPath id="a"><path d="M680 835h179a3 3 0 0 1 3 3v27a3 3 0 0 1-3 3h-83.5l-5.5 5-5.75-5H680a3 3 0 0 1-3-3v-27a3 3 0 0 1 3-3z" fill="#fff"/></clipPath></defs><path d="M3 0h179a3 3 0 0 1 3 3v27a3 3 0 0 1-3 3H98.5L93 38l-5.75-5H3a3 3 0 0 1-3-3V3a3 3 0 0 1 3-3z" fill="#fff"/><path d="M680 835h179a3 3 0 0 1 3 3v27a3 3 0 0 1-3 3h-83.5l-5.5 5-5.75-5H680a3 3 0 0 1-3-3v-27a3 3 0 0 1 3-3z" fill="none" stroke-dasharray="0" stroke-linejoin="round" stroke-linecap="round" stroke="#000" stroke-miterlimit="50" stroke-width="2" clip-path="url(&amp;quot;#a&amp;quot;)" transform="translate(-677 -835)"/></svg>