<svg xmlns="http://www.w3.org/2000/svg" preserveAspectRatio="none" viewBox="0 0 270 124"><title>Rounded Rectangle 24</title><defs><clipPath id="a"><path d="M691 913h240c8.284 0 15 6.715 15 15v94c0 8.28-6.716 15-15 15H691c-8.284 0-15-6.72-15-15v-94c0-8.285 6.716-15 15-15z" fill="#fff"/></clipPath></defs><path d="M15 0h240c8.284 0 15 6.715 15 15v94c0 8.28-6.716 15-15 15H15c-8.284 0-15-6.72-15-15V15C0 6.715 6.716 0 15 0z"/><path d="M15 0h240c8.284 0 15 6.715 15 15v94c0 8.28-6.716 15-15 15H15c-8.284 0-15-6.72-15-15V15C0 6.715 6.716 0 15 0z"/><path d="M15 0h240c8.284 0 15 6.715 15 15v94c0 8.28-6.716 15-15 15H15c-8.284 0-15-6.72-15-15V15C0 6.715 6.716 0 15 0z" fill="#fff"/><path d="M691 913h240c8.284 0 15 6.715 15 15v94c0 8.28-6.716 15-15 15H691c-8.284 0-15-6.72-15-15v-94c0-8.285 6.716-15 15-15z" fill="none" stroke-dasharray="0" stroke-linejoin="round" stroke-linecap="round" stroke="#ed1c24" stroke-miterlimit="50" stroke-width="6" clip-path="url(&amp;quot;#a&amp;quot;)" transform="translate(-676 -913)"/></svg>