<?xml version="1.0" encoding="utf-8"?>
<!-- Generator: Adobe Illustrator 21.1.0, SVG Export Plug-In . SVG Version: 6.00 Build 0)  -->
<svg version="1.1" id="Слой_1" xmlns="http://www.w3.org/2000/svg" xmlns:xlink="http://www.w3.org/1999/xlink" x="0px" y="0px"
	 viewBox="-30 175.9 490 490" style="enable-background:new -30 175.9 490 490;" xml:space="preserve">
<style type="text/css">
	.st0{fill:#232323;}
</style>
<g>
	<path class="st0" d="M454,631.1L336.2,513.3c29.2-35.6,46.8-81.2,46.8-130.9c0-114-92.5-206.5-206.5-206.5
		C62.4,175.9-30,268.4-30,382.4s92.4,206.5,206.5,206.5c49.7,0,95.2-17.5,130.8-46.7l117.8,117.7c8,8,20.9,8,28.9,0
		C462,652,462,639,454,631.1z M176.5,547.8C85.2,547.8,11,473.6,11,382.4s74.2-165.5,165.5-165.5c91.2,0,165.5,74.3,165.5,165.5
		S267.7,547.8,176.5,547.8z"/>
</g>
</svg>
