<?xml version="1.0" encoding="utf-8"?>
<!-- Generator: Adobe Illustrator 21.1.0, SVG Export Plug-In . SVG Version: 6.00 Build 0)  -->
<svg version="1.1" id="Capa_1" xmlns="http://www.w3.org/2000/svg" xmlns:xlink="http://www.w3.org/1999/xlink" x="0px" y="0px"
	 viewBox="27.4 168.4 331.2 513.3" style="enable-background:new 27.4 168.4 331.2 513.3;" xml:space="preserve">
<style type="text/css">
	.st0{fill:#FFFFFF;}
	.st1{fill:#00A2FF;}
</style>
<g>
	<circle class="st0" cx="193" cy="333.4" r="99.4"/>
	<g>
		<g>
			<path class="st1" d="M193,175.9c-87.3,0-158.1,70.8-158.1,158.1c0,14.6,2,28.8,5.7,42.3c1.5,5.4,3.3,10.7,5.3,15.8l4.8,10.9
				L193,665.9l142.5-263.3l4.3-9.8c2.1-5.4,4-10.9,5.6-16.5c3.7-13.5,5.7-27.6,5.7-42.3C351.1,246.7,280.3,175.9,193,175.9z
				 M193,410.2c-42.8,0-77.6-34.8-77.6-77.6c0-42.8,34.8-77.6,77.6-77.6s77.6,34.8,77.6,77.6C270.6,375.3,235.8,410.2,193,410.2z"/>
			<path class="st0" d="M193,681.6L43.8,406l-4.9-11.2c-2.1-5.3-4-10.9-5.5-16.6c-4-14.4-6-29.3-6-44.3
				c0-91.3,74.3-165.6,165.6-165.6c91.3,0,165.6,74.3,165.6,165.6c0,15-2,29.9-6,44.3c-1.6,5.8-3.6,11.7-5.8,17.3l-0.1,0.2
				l-4.6,10.4L193,681.6z M57.4,399.6L193,650.1l135.7-250.9l4.1-9.4c2-5.1,3.8-10.3,5.3-15.6c3.6-13.1,5.5-26.6,5.5-40.3
				c0-83-67.6-150.6-150.6-150.6c-83,0-150.6,67.6-150.6,150.6c0,13.7,1.8,27.2,5.5,40.3c1.4,5.1,3.1,10.1,5,14.9L57.4,399.6z
				 M193,417.7c-46.9,0-85.1-38.2-85.1-85.1c0-46.9,38.2-85.1,85.1-85.1c46.9,0,85.1,38.2,85.1,85.1
				C278.1,379.5,239.9,417.7,193,417.7z M193,262.4c-38.7,0-70.1,31.4-70.1,70.1c0,38.7,31.5,70.1,70.1,70.1s70.1-31.5,70.1-70.1
				C263.1,293.9,231.7,262.4,193,262.4z"/>
		</g>
	</g>
</g>
</svg>
