<svg id="Layer_1" data-name="Layer 1" xmlns="http://www.w3.org/2000/svg" viewBox="0 0 287.61 167.37"><defs><style>.cls-1,.cls-4{fill:#fff}.cls-1{fill-rule:evenodd}.cls-2{fill:#e40520}.cls-3{fill:#0080c3}.cls-5{fill:none;stroke:#fff;stroke-width:.21px}</style></defs><title>ms</title><path class="cls-1" d="M0 0h287.61v167.37H0V0z"/><path class="cls-2" d="M196.17 161.57l4.02-.1 3.97-.31 3.9-.48 3.84-.7 3.79-.87 3.72-1.05 3.61-1.23 3.56-1.41 3.46-1.56 3.35-1.71 3.28-1.87 3.15-2.05 3.08-2.18 2.94-2.31 2.85-2.46 2.71-2.58 2.56-2.72 2.46-2.84 2.33-2.95 2.18-3.05 2.03-3.17 1.87-3.28 1.74-3.36 1.56-3.46 1.38-3.56 1.23-3.61 1.06-3.72.87-3.76.69-3.87.48-3.89.31-3.98.1-4.02-.1-3.99-.31-3.95-.48-3.87-.69-3.84-.87-3.74-1.06-3.69-1.23-3.61-1.38-3.54-1.56-3.43-1.74-3.35-1.87-3.26-2.03-3.17-2.18-3.05-2.33-2.95-2.46-2.82-2.56-2.71-2.71-2.56-2.85-2.47-2.94-2.3-3.08-2.18-3.15-2.02-3.28-1.87-3.35-1.74-3.46-1.57-3.56-1.38-3.61-1.23-3.72-1.05-3.79-.87-3.84-.69-3.9-.49-3.97-.31-4.02-.1-4.02.1-3.97.31-3.9.49-3.84.69-3.79.87-3.69 1.05-3.64 1.23-3.53 1.38-3.46 1.57-3.36 1.74-3.25 1.87-3.18 2.02-3.05 2.18-2.94 2.3-2.82 2.47-2.69 2.56-2.59 2.71-2.46 2.82-2.3 2.95-2.18 3.05-2.02 3.17-1.87 3.26-1.72 3.35-1.54 3.43-1.41 3.54-1.23 3.61-1.02 3.69-.87 3.74-.69 3.84-.49 3.87-.31 3.95-.1 3.99.1 4.02.31 3.98.49 3.89.69 3.87.87 3.76 1.02 3.72 1.23 3.61 1.41 3.56 1.54 3.46 1.72 3.36 1.87 3.28 2.02 3.17 2.18 3.05 2.3 2.95 2.46 2.84 2.59 2.72 2.69 2.58 2.82 2.46 2.94 2.31 3.05 2.18 3.18 2.05 3.25 1.87 3.36 1.71 3.46 1.56 3.53 1.41 3.64 1.23 3.69 1.05 3.79.87 3.84.7 3.9.48 3.97.31 4.02.1z"/><path class="cls-3" d="M92.78 161.57l4.02-.1 3.97-.31 3.89-.48 3.84-.7 3.8-.87 3.68-1.05 3.64-1.23 3.54-1.41 3.46-1.56 3.35-1.71 3.26-1.87 3.17-2.05 3.05-2.18 2.95-2.31 2.82-2.46 2.71-2.58 2.56-2.72 2.46-2.84 2.31-2.95 2.18-3.05 2.02-3.17 1.87-3.28 1.72-3.36 1.56-3.46 1.38-3.56 1.23-3.61 1.03-3.72.87-3.76.69-3.87.49-3.89.3-3.98.11-4.02-.11-3.99-.3-3.95-.49-3.87-.69-3.84-.87-3.74-1.03-3.69-1.23-3.61-1.38-3.54-1.56-3.43-1.72-3.35-1.87-3.26-2.02-3.17-2.18-3.05-2.31-2.95-2.46-2.82-2.56-2.71-2.71-2.56-2.82-2.47-2.95-2.3-3.05-2.18-3.17-2.02-3.26-1.87-3.35-1.74-3.46-1.57-3.54-1.38-3.64-1.23-3.68-1.05-3.8-.87-3.84-.69-3.89-.49-3.97-.31-4.02-.1-4.03.1-3.97.31-3.89.49-3.84.69-3.8.87-3.71 1.05-3.61 1.23-3.56 1.38-3.46 1.57-3.36 1.74-3.28 1.87-3.15 2.02-3.07 2.18-2.95 2.3-2.84 2.47-2.69 2.56-2.59 2.71-2.46 2.82-2.33 2.95-2.18 3.05-2.02 3.17-1.87 3.26-1.74 3.35-1.57 3.43-1.38 3.54-1.23 3.61-1.05 3.69-.87 3.74-.69 3.84-.49 3.87-.31 3.95-.1 3.99.1 4.02.31 3.98.49 3.89.69 3.87.87 3.76 1.05 3.72 1.23 3.61 1.38 3.56 1.57 3.46 1.74 3.36 1.87 3.28 2.02 3.17 2.18 3.05 2.33 2.95 2.46 2.84 2.59 2.72 2.69 2.58 2.84 2.46 2.95 2.31 3.07 2.18 3.15 2.05 3.28 1.87 3.36 1.71 3.46 1.56 3.56 1.41 3.61 1.23 3.71 1.05 3.8.87 3.84.7 3.89.48 3.97.31 4.03.1z"/><path class="cls-2" d="M134.87 35.35h39.53V31h-35.72l-3.81 4.35zm-6.2 9.23h45.73v-4.34h-42.97l-2.76 4.34zm-4.64 9.37h50.37V49.6h-48.24l-2.13 4.35zm-3.02 9.22h53.39v-4.33h-52.06l-1.33 4.33zm-1.98 9.25h55.37v-4.35h-54.57l-.8 4.35zm-.41 17.91h55.78v-4.36h-56.16l.38 4.36zm1.34 9.76h54.44v-4.36h-55.24l.8 4.36zm2.63 7.91h51.81v-4.35h-53.14l1.33 4.35zm3.95 9.64h47.86v-4.36h-49.96l2.1 4.36zm5.56 9.76h42.3v-4.36h-45.22l2.92 4.36zm6.97 9.37h34.94v-4.35h-38.76l3.82 4.35zm122.35-5.43l.23-.69.38-.64.49-.56.56-.46.65-.36.69-.23.74-.08.77.08.71.23.65.36.56.46.46.56.36.64.23.69h-.79l-.16-.48-.28-.54-.36-.46-.43-.36-.52-.28-.59-.18-.61-.05-.61.05-.59.18-.52.28-.46.36-.36.46-.28.54-.15.48h-.77z"/><path class="cls-2" d="M263.83 131.34v-.92h1.46l.33.03.28.02.26.08.2.1.16.13.12.15.08.18.03.23h-.67l-.02-.12-.06-.11-.07-.1-.1-.08-.13-.05-.13-.02-.13-.03h-.95v.51h-.66zm-2.46.67l.05-.64v-.03h.77l-.03.13-.05.54h-.74z"/><path class="cls-2" d="M263.83 132.01v-.67h.66v.54h1.11l.15-.02.13-.06.07-.05.08-.1.05-.13v-.18h.67l-.03.23-.05.21-.08.15-.07.08h-2.69zm4.35 0l-.05-.54-.02-.13h.79v.03l.08.64h-.8zm-6.81 0l-.03.13.08.77.23.71.38.62.49.56.56.44.65.33.69.21.74.07.77-.07.71-.21.65-.33.56-.44.46-.56.36-.62.23-.71.08-.77v-.13h-.8v.13l-.05.66-.18.62-.28.54-.36.46-.43.38-.52.28-.59.18-.61.05-.61-.05-.59-.18-.52-.28-.46-.38-.36-.46-.28-.54-.18-.62-.05-.66v-.13h-.74z"/><path class="cls-2" d="M263.83 132.01v1.59h.66v-1.31h.67l.79 1.31h.67l-.95-1.31.23-.02.23-.03.18-.08.16-.1.05-.05h-2.69z"/><path class="cls-4" d="M179.29 76.91l-.51-.03-.52-.05-.46-.08-.46-.05-.46-.08-.46-.07-.49-.08-.51-.08-.54-.05-.56-.05-.64-.05-.69-.03h-.77l-.85.03-.95.05-1.02.08-.74.1-.7.15-.64.21-.56.23-.51.28-.46.31-.39.36-.31.35-.22.42-.16.43-.08.44v.46l.11.48.18.49.28.49.36.48.74.67.87.54 1.02.46 1.11.38 1.15.39 1.2.38 1.23.44 1.18.51 1.1.62 1.05.74.93.95.76 1.12.59 1.39.39 1.64.13 1.94-.13 2.31-.28 1.72-.47 1.53-.58 1.39-.75 1.22-.87 1.08-.95.92-1.05.8-1.12.69-1.18.56-1.23.46-1.26.39-1.25.28-1.26.21-1.23.12-1.18.08-1.15.02h-1.59l-1.43-.02-1.31-.03-1.2-.02-1.1-.05-.98-.05-.92-.08-.82-.1-.77-.11-.71-.12-.67-.13-.67-.18-.61-.18-.62-.18-.61-.23-.64-.23 1.59-8.04.36.07.43.13.54.13.59.15.69.13.77.18.82.15.87.16.92.12.97.13 1 .1 1.05.11 1.05.05 1.08.02h1.08l1.1-.05 1.02-.18.85-.28.64-.41.51-.46.39-.54.28-.56.23-.56.15-.57.08-.59-.03-.51-.13-.49-.2-.41-.28-.41-.36-.36-.44-.33-.48-.31-.54-.28-.59-.28-.64-.28-.67-.26-.66-.25-.72-.29-.72-.28-.74-.3-.72-.31-.72-.33-.71-.39-.69-.41-.67-.43-.61-.49-.6-.56-.53-.59-.49-.67-.44-.72-.35-.79-.31-.85-.21-.94-.12-1.03-.03-1.13.08-1.2.07-.74.11-.72.1-.69.15-.67.16-.64.18-.64.23-.59.23-.59.28-.54.28-.53.33-.49.36-.49.39-.46.41-.43.43-.41.49-.39.51-.36.54-.33.59-.31.61-.3.64-.26.69-.26.72-.2.77-.21.82-.18.85-.15.87-.13.92-.1.97-.08 1.03-.05 1.05-.05h2.46l1.23.03 1.1.02 1.02.05.9.05.82.06.74.07.64.05.59.08.52.08.48.05.41.07.36.06.33.05.31.05.28.02-1.84 8.31z"/><path class="cls-5" d="M179.29 76.91l-.51-.03-.52-.05-.46-.08-.46-.05-.46-.08-.46-.07-.49-.08-.51-.08-.54-.05-.56-.05-.64-.05-.69-.03h-.77l-.85.03-.95.05-1.02.08-.74.1-.7.15-.64.21-.56.23-.51.28-.46.31-.39.36-.31.35-.22.42-.16.43-.08.44v.46l.11.48.18.49.28.49.36.48.74.67.87.54 1.02.46 1.11.38 1.15.39 1.2.38 1.23.44 1.18.51 1.1.62 1.05.74.93.95.76 1.12.59 1.39.39 1.64.13 1.94-.13 2.31-.28 1.72-.47 1.53-.58 1.39-.75 1.22-.87 1.08-.95.92-1.05.8-1.12.69-1.18.56-1.23.46-1.26.39-1.25.28-1.26.21-1.23.12-1.18.08-1.15.02h-1.59l-1.43-.02-1.31-.03-1.2-.02-1.1-.05-.98-.05-.92-.08-.82-.1-.77-.11-.71-.12-.67-.13-.67-.18-.61-.18-.62-.18-.61-.23-.64-.23 1.59-8.04.36.07.43.13.54.13.59.15.69.13.77.18.82.15.87.16.92.12.97.13 1 .1 1.05.11 1.05.05 1.08.02h1.08l1.1-.05 1.02-.18.85-.28.64-.41.51-.46.39-.54.28-.56.23-.56.15-.57.08-.59-.03-.51-.13-.49-.2-.41-.28-.41-.36-.36-.44-.33-.48-.31-.54-.28-.59-.28-.64-.28-.67-.26-.66-.25-.72-.29-.72-.28-.74-.3-.72-.31-.72-.33-.71-.39-.69-.41-.67-.43-.61-.49-.6-.56-.53-.59-.49-.67-.44-.72-.35-.79-.31-.85-.21-.94-.12-1.03-.03-1.13.08-1.2.07-.74.11-.72.1-.69.15-.67.16-.64.18-.64.23-.59.23-.59.28-.54.28-.53.33-.49.36-.49.39-.46.41-.43.43-.41.49-.39.51-.36.54-.33.59-.31.61-.3.64-.26.69-.26.72-.2.77-.21.82-.18.85-.15.87-.13.92-.1.97-.08 1.03-.05 1.05-.05h2.46l1.23.03 1.1.02 1.02.05.9.05.82.06.74.07.64.05.59.08.52.08.48.05.41.07.36.06.33.05.31.05.28.02-1.84 8.31"/><path class="cls-4" d="M187.72 59.77h10.29l-1.58 8.96h6.32l-1.43 8.18-6.48-.13-3.41 20.41-.05.44v.38l.05.34.1.31.16.25.18.26.23.2.25.16.31.15.31.13.36.1.36.05.4.08.41.02.44.03h1.26l.71-.05.67-.1.56-.13.44-.13.33-.13.21-.1.07-.03-1.05 7-.25.15-.29.13-.28.13-.28.12-.28.11-.31.1-.31.1-.35.1-.36.11-.39.07-.43.08-.46.08-.49.08-.51.07-.59.08-.62.07h-2.76l-1.46-.1-1.31-.15-1.15-.21-1-.28-.85-.31-.72-.38-.58-.43-.49-.49-.38-.54-.29-.59-.18-.64-.1-.72-.02-.74.02-.82.08-.85.13-.92 6.84-40.06z"/><path class="cls-5" d="M187.72 59.77h10.29l-1.58 8.96h6.32l-1.43 8.18-6.48-.13-3.41 20.41-.05.44v.38l.05.34.1.31.16.25.18.26.23.2.25.16.31.15.31.13.36.1.36.05.4.08.41.02.44.03h1.26l.71-.05.67-.1.56-.13.44-.13.33-.13.21-.1.07-.03-1.05 7-.25.15-.29.13-.28.13-.28.12-.28.11-.31.1-.31.1-.35.1-.36.11-.39.07-.43.08-.46.08-.49.08-.51.07-.59.08-.62.07h-2.76l-1.46-.1-1.31-.15-1.15-.21-1-.28-.85-.31-.72-.38-.58-.43-.49-.49-.38-.54-.29-.59-.18-.64-.1-.72-.02-.74.02-.82.08-.85.13-.92 6.84-40.06"/><path class="cls-4" d="M125.11 90.87l-.13.64-.03.64.05.69.16.66.2.7.31.69.36.67.43.63.49.62.56.59.59.51.64.49.7.41.71.33.77.26.77.18.92.12.92.13.95.11.95.05.97.02h.95l1-.05.97-.08 1-.15 1.03-.18 1.02-.25 1.03-.34 1.02-.38 1.08-.46 1.05-.57 1.07-.61-1.59 9.09-.58.31-.59.28-.54.23-.56.21-.57.2-.56.16-.59.12-.64.13-.67.08-.72.08-.79.07-.84.03-.93.05h-1.02l-1.13.02h-2.12l-.93-.05-.89-.05-.93-.1-.94-.13-.93-.15-.92-.21-.92-.2-.9-.28-.89-.28-.87-.34-.88-.38-.84-.44-.82-.46-.77-.51-.77-.56-.71-.62-.7-.67-.66-.71-.59-.77-.57-.85-.51-.87-.46-.95-.41-1-.36-1.07-.28-1.13-.23-1.18-.15-1.28-.11-1.33v-1.38l.06-1.49.12-1.54.08-.53.08-.62.1-.61.13-.67.13-.69.17-.72.21-.74.2-.77.26-.79.28-.77.33-.8.36-.79.41-.8.44-.79.49-.79.51-.77.59-.74.61-.75.67-.71.74-.67.77-.67.85-.61.89-.57.98-.53 1.02-.46 1.1-.44 1.15-.39 1.23-.3 1.31-.26 1.38-.18 1.44-.1 1.54-.05h.71l.72.05.74.05.75.08.74.1.77.15.74.18.74.21.75.23.74.28.72.31.69.36.66.41.67.43.62.51.61.54.56.59.54.64.49.72.43.74.41.82.36.87.31.95.23 1 .21 1.08.12 1.12.06 1.21v1.28l-.08 1.36-.13 1.43-.23 1.51-.31 1.59-.41 2.26h-26.61l1.58-7.13h15.96l.08-.97V82l-.05-.84-.16-.77-.2-.69-.26-.64-.33-.57-.38-.51-.44-.46-.49-.38-.51-.31-.54-.26-.58-.2-.62-.16-.64-.07-.67-.03h-.71l-.67.1-.67.13-.61.21-.59.28-.56.33-.54.39-.49.43-.46.51-.41.54-.38.59-.36.64-.31.67-.26.71-.2.77-.18.8-1.43 7.66z"/><path class="cls-5" d="M125.11 90.87l-.13.64-.03.64.05.69.16.66.2.7.31.69.36.67.43.63.49.62.56.59.59.51.64.49.7.41.71.33.77.26.77.18.92.12.92.13.95.11.95.05.97.02h.95l1-.05.97-.08 1-.15 1.03-.18 1.02-.25 1.03-.34 1.02-.38 1.08-.46 1.05-.57 1.07-.61-1.59 9.09-.58.31-.59.28-.54.23-.56.21-.57.2-.56.16-.59.12-.64.13-.67.08-.72.08-.79.07-.84.03-.93.05h-1.02l-1.13.02h-2.12l-.93-.05-.89-.05-.93-.1-.94-.13-.93-.15-.92-.21-.92-.2-.9-.28-.89-.28-.87-.34-.88-.38-.84-.44-.82-.46-.77-.51-.77-.56-.71-.62-.7-.67-.66-.71-.59-.77-.57-.85-.51-.87-.46-.95-.41-1-.36-1.07-.28-1.13-.23-1.18-.15-1.28-.11-1.33v-1.38l.06-1.49.12-1.54.08-.53.08-.62.1-.61.13-.67.13-.69.17-.72.21-.74.2-.77.26-.79.28-.77.33-.8.36-.79.41-.8.44-.79.49-.79.51-.77.59-.74.61-.75.67-.71.74-.67.77-.67.85-.61.89-.57.98-.53 1.02-.46 1.1-.44 1.15-.39 1.23-.3 1.31-.26 1.38-.18 1.44-.1 1.54-.05h.71l.72.05.74.05.75.08.74.1.77.15.74.18.74.21.75.23.74.28.72.31.69.36.66.41.67.43.62.51.61.54.56.59.54.64.49.72.43.74.41.82.36.87.31.95.23 1 .21 1.08.12 1.12.06 1.21v1.28l-.08 1.36-.13 1.43-.23 1.51-.31 1.59-.41 2.26h-26.61l1.58-7.13h15.96l.08-.97V82l-.05-.84-.16-.77-.2-.69-.26-.64-.33-.57-.38-.51-.44-.46-.49-.38-.51-.31-.54-.26-.58-.2-.62-.16-.64-.07-.67-.03h-.71l-.67.1-.67.13-.61.21-.59.28-.56.33-.54.39-.49.43-.46.51-.41.54-.38.59-.36.64-.31.67-.26.71-.2.77-.18.8-1.43 7.66"/><path class="cls-4" d="M110.86 99.83L109.4 108h-9.25l.11-.76.1-.77.1-.69.1-.64.11-.54.07-.46.1-.31.11-.18-.49.56-.61.57-.7.53-.79.52-.84.48-.93.47-.97.41-1 .38-1.05.33-1.08.29-1.07.2-1.08.15-1.07.08-1.05.03-1.03-.08-1-.15-1.3-.31-1.16-.41-1.05-.49-.92-.54-.82-.59-.69-.66-.62-.69-.51-.77-.43-.77-.36-.8-.28-.81-.24-.85-.15-.82-.1-.85-.05-.81-.03-.8.1-1.43.23-1.36.34-1.31.48-1.23.59-1.15.67-1.08.79-1 .85-.94.95-.85 1-.74 1.07-.69 1.13-.59 1.18-.52 1.2-.4 1.23-.31 1.26-.23h.05l.18-.03.28-.02.38-.06.44-.05.51-.05.56-.08.62-.05.61-.05.62-.07.64-.06.61-.05.57-.05.54-.02.48-.03h1.72l.46.03h.44l.41.02h.82l.35.03h.34l.28.02h.26l.2.03h.28l.08-.26.18-.61.13-.72v-.64l-.06-.46-.07-.44-.13-.41-.18-.38-.2-.36-.26-.33-.26-.31-.3-.31-.34-.25-.33-.21-.38-.2-.39-.18-.41-.13-.43-.1-.44-.08-.44-.05-1.05-.03-1.1.03-1.15.02-1.18.08-1.18.08-1.17.1-1.18.13-1.16.13-1.1.18-1.05.15-.95.18-.89.2-.8.21-.66.2-.54.21-.39.23 2.64-8.71.77-.36.82-.33.82-.28.87-.24.9-.17.92-.16.98-.13.99-.1 1.03-.05 1.05-.05 1.07-.03h3.49l1.23.03 1.28.02 1.05.11 1.1.15 1.15.28 1.16.34 1.15.43 1.15.54 1.08.61 1.02.72.95.82.85.9.71 1 .57 1.1.41 1.2.23 1.31.02 1.38-.2 1.51-3.82 19.24z"/><path class="cls-5" d="M110.86 99.83L109.4 108h-9.25l.11-.76.1-.77.1-.69.1-.64.11-.54.07-.46.1-.31.11-.18-.49.56-.61.57-.7.53-.79.52-.84.48-.93.47-.97.41-1 .38-1.05.33-1.08.29-1.07.2-1.08.15-1.07.08-1.05.03-1.03-.08-1-.15-1.3-.31-1.16-.41-1.05-.49-.92-.54-.82-.59-.69-.66-.62-.69-.51-.77-.43-.77-.36-.8-.28-.81-.24-.85-.15-.82-.1-.85-.05-.81-.03-.8.1-1.43.23-1.36.34-1.31.48-1.23.59-1.15.67-1.08.79-1 .85-.94.95-.85 1-.74 1.07-.69 1.13-.59 1.18-.52 1.2-.4 1.23-.31 1.26-.23h.05l.18-.03.28-.02.38-.06.44-.05.51-.05.56-.08.62-.05.61-.05.62-.07.64-.06.61-.05.57-.05.54-.02.48-.03h1.72l.46.03h.44l.41.02h.82l.35.03h.34l.28.02h.26l.2.03h.28l.08-.26.18-.61.13-.72v-.64l-.06-.46-.07-.44-.13-.41-.18-.38-.2-.36-.26-.33-.26-.31-.3-.31-.34-.25-.33-.21-.38-.2-.39-.18-.41-.13-.43-.1-.44-.08-.44-.05-1.05-.03-1.1.03-1.15.02-1.18.08-1.18.08-1.17.1-1.18.13-1.16.13-1.1.18-1.05.15-.95.18-.89.2-.8.21-.66.2-.54.21-.39.23 2.64-8.71.77-.36.82-.33.82-.28.87-.24.9-.17.92-.16.98-.13.99-.1 1.03-.05 1.05-.05 1.07-.03h3.49l1.23.03 1.28.02 1.05.11 1.1.15 1.15.28 1.16.34 1.15.43 1.15.54 1.08.61 1.02.72.95.82.85.9.71 1 .57 1.1.41 1.2.23 1.31.02 1.38-.2 1.51-3.82 19.24"/><path class="cls-3" d="M102.02 90.2L102 90l-.16-.16-.25-.13-.34-.07-.43-.05-.46-.03h-1.1l-.59.05-.62.08-.59.08-.59.1-.56.1-.54.1-.46.13-.41.13-.23.05-.31.1-.38.13-.41.18-.44.18-.48.23-.49.28-.49.28-.48.36-.46.39-.44.41-.38.46-.36.48-.26.54-.2.59-.13.62-.05 1.25.18.97.3.77.47.57.56.38.59.26.64.13.61.02 1.13-.02 1-.11.95-.18.84-.23.77-.25.69-.31.62-.36.54-.38.48-.39.41-.43.36-.41.31-.44.25-.43.21-.41.15-.41.13-.39.13-.56.13-.59.13-.62.12-.64.11-.61.1-.57.1-.53.1-.49z"/><path class="cls-4" d="M33.55 108H23.53l8.43-48.23h17.42l1.71 28.71 11.87-28.71h18.08L72.59 108H62.57l6.33-36.12h-.38L53.6 108H42.38l-.1-1.51-.23-4.02-.33-5.69-.38-6.53-.39-6.58-.33-5.82-.23-4.2-.11-1.77h-.51.1L33.55 108z"/><path class="cls-5" d="M33.55 108H23.53l8.43-48.23h17.42l1.71 28.71 11.87-28.71h18.08L72.59 108H62.57l6.33-36.12h-.38L53.6 108H42.38l-.1-1.51-.23-4.02-.33-5.69-.38-6.53-.39-6.58-.33-5.82-.23-4.2-.11-1.77h-.51.1L33.55 108"/><path class="cls-4" d="M200.91 108h10.43l3.56-20.82.15-.82.18-.8.21-.79.25-.74.28-.75.36-.69.44-.66.48-.65.59-.56.67-.51.79-.46.87-.41 1.03-.33 1.15-.26 1.28-.15 1.44-.11h.12l.16.03.2.02h.21l.18.03.15.03.1.02h.06l.02-.15.1-.44.13-.66.21-.85.25-.95.29-1.02.33-1.03.38-.97.28-.72.34-.69.33-.69.36-.64.31-.54.25-.44.18-.28.05-.1h-.05l-.13-.05-.18-.03-.25-.05-.26-.05-.31-.02-.28-.06h-.25l-1.13.08-1.03.13-.94.2-.87.23-.82.31-.75.34-.71.41-.64.43-.65.49-.58.54-.54.56-.57.61-.53.65-.52.69-.53.71-.54.75 1.2-6.59-10.42-.13-6.87 39.4z"/><path class="cls-5" d="M200.91 108h10.43l3.56-20.82.15-.82.18-.8.21-.79.25-.74.28-.75.36-.69.44-.66.48-.65.59-.56.67-.51.79-.46.87-.41 1.03-.33 1.15-.26 1.28-.15 1.44-.11h.12l.16.03.2.02h.21l.18.03.15.03.1.02h.06l.02-.15.1-.44.13-.66.21-.85.25-.95.29-1.02.33-1.03.38-.97.28-.72.34-.69.33-.69.36-.64.31-.54.25-.44.18-.28.05-.1h-.05l-.13-.05-.18-.03-.25-.05-.26-.05-.31-.02-.28-.06h-.25l-1.13.08-1.03.13-.94.2-.87.23-.82.31-.75.34-.71.41-.64.43-.65.49-.58.54-.54.56-.57.61-.53.65-.52.69-.53.71-.54.75 1.2-6.59-10.42-.13-6.87 39.4"/><path class="cls-4" d="M246.02 68.19l1.16.03 1.12.08 1.11.1 1.07.15 1.03.21.99.25.95.29.95.33.9.38.84.41.85.44.77.49.76.53.72.57.67.59.64.64.61.66.57.72.51.72.49.77.46.79.38.85.39.84.3.9.29.89.22.95.21.98.15 1 .11.99.05 1.05.02 1.08-.02 1.08-.08 1.3-.15 1.26-.18 1.2-.23 1.18-.26 1.13-.33 1.07-.36 1.05-.39 1-.46.95-.46.92-.53.87-.54.82-.59.8-.64.74-.67.69-.69.67-.72.61-.74.59-.79.54-.8.49-.84.46-.88.41-.87.38-.92.34-.92.3-.97.26-.98.21-.97.17-1.03.13-1.02.1-1.05.06-1.05.02-1.05-.02-1.05-.06-1-.1-1-.15-.97-.18-.98-.21-.92-.25-.9-.31-.89-.33-.85-.39-.82-.41-.79-.46-.77-.49-.72-.53-.72-.57-.66-.61-.62-.64-.61-.69-.54-.72-.54-.77-.46-.79-.46-.85-.38-.87-.36-.9-.31-.94-.28-1-.23-1.03-.18-1.05-.13-1.1-.08-1.13-.02-1.18.02-1.2.08-1.23.13-1.18.18-1.15.23-1.1.25-1.08.31-1.05.34-1 .38-.97.41-.95.46-.9.51-.84.54-.85.56-.77.62-.76.64-.69.67-.7.71-.64.75-.59.76-.56.8-.51.84-.46.88-.46.89-.39.9-.36.95-.3.97-.29 1-.23 1.02-.2 1.05-.13 1.08-.13 1.1-.05 1.1-.03z"/><path class="cls-5" d="M246.02 68.19l1.16.03 1.12.08 1.11.1 1.07.15 1.03.21.99.25.95.29.95.33.9.38.84.41.85.44.77.49.76.53.72.57.67.59.64.64.61.66.57.72.51.72.49.77.46.79.38.85.39.84.3.9.29.89.22.95.21.98.15 1 .11.99.05 1.05.02 1.08-.02 1.08-.08 1.3-.15 1.26-.18 1.2-.23 1.18-.26 1.13-.33 1.07-.36 1.05-.39 1-.46.95-.46.92-.53.87-.54.82-.59.8-.64.74-.67.69-.69.67-.72.61-.74.59-.79.54-.8.49-.84.46-.88.41-.87.38-.92.34-.92.3-.97.26-.98.21-.97.17-1.03.13-1.02.1-1.05.06-1.05.02-1.05-.02-1.05-.06-1-.1-1-.15-.97-.18-.98-.21-.92-.25-.9-.31-.89-.33-.85-.39-.82-.41-.79-.46-.77-.49-.72-.53-.72-.57-.66-.61-.62-.64-.61-.69-.54-.72-.54-.77-.46-.79-.46-.85-.38-.87-.36-.9-.31-.94-.28-1-.23-1.03-.18-1.05-.13-1.1-.08-1.13-.02-1.18.02-1.2.08-1.23.13-1.18.18-1.15.23-1.1.25-1.08.31-1.05.34-1 .38-.97.41-.95.46-.9.51-.84.54-.85.56-.77.62-.76.64-.69.67-.7.71-.64.75-.59.76-.56.8-.51.84-.46.88-.46.89-.39.9-.36.95-.3.97-.29 1-.23 1.02-.2 1.05-.13 1.08-.13 1.1-.05 1.1-.03"/><path class="cls-4" d="M261.34 106.03h3.03v.39h-1.18v2.51h-.67v-2.51h-1.18v-.39zm3.41 0h.92l1.08 2.23 1.05-2.23h.92v2.9h-.67v-2.23l-1.05 2.23h-.53l-1.05-2.23v2.23h-.67v-2.9z"/><path class="cls-2" d="M237.85 87.02l-.15 1.44-.08 1.33V91l.08 1.12.15 1.03.23.89.28.82.36.75.44.64.48.53.54.47.59.35.64.29.72.2.74.1.8.06.87-.03.84-.1.8-.18.76-.28.72-.36.69-.46.65-.54.61-.64.54-.72.51-.82.49-.92.41-1 .38-1.1.33-1.21.26-1.3.23-1.41.13-1.1.08-1.05V84l-.08-.97-.13-.9-.2-.87-.29-.79-.33-.75-.41-.66-.46-.57-.54-.51-.59-.41-.66-.33-.72-.21-.77-.12h-.85l-1.04.07-.98.18-.89.31-.85.38-.77.51-.72.57-.64.64-.56.72-.54.77-.46.82-.41.81-.33.88-.31.87-.26.87-.18.87-.15.84z"/></svg>