<svg id="Layer_1" data-name="Layer 1" xmlns="http://www.w3.org/2000/svg" viewBox="0 0 192.76 112.17"><defs><style>.cls-1{fill:#fff}.cls-1,.cls-2,.cls-3{fill-rule:evenodd}.cls-2{fill:#107db1}.cls-3,.cls-4{fill:#1b557d}</style></defs><title>pp</title><path class="cls-1" d="M0 0h192.76v112.17H0V0z"/><path class="cls-2" d="M145.59 72.8c-4.1 0-7.35 1.09-9.83 1.58l-.76 6.24a26.76 26.76 0 0 1 8.4-1.78c3.25-.1 5.15.59 4.49 3.37-9.64 0-16.13 2-17.47 8.22-1.91 10.69 9.83 10.4 14.51 5.74l-.57 2.57h8.59l3.72-17c1.52-7.26-5.07-9.04-11.08-8.94zm.57 17.42c-.48 2.28-2.29 3.27-4.48 3.37-1.91.1-3.63-1.59-2.39-3.57 1-1.68 3.63-2.08 5.25-2.08h2.1c-.19.8-.29 1.49-.48 2.28z" transform="translate(.38 -33.2)"/><path class="cls-2" d="M164.39 32.87l-7.11 32.67H166l7.2-32.67h-8.81z"/><path class="cls-2" d="M123.92 66.17h-16l-7.08 32.57h9.28l2.39-10.79h6.6a13.1 13.1 0 0 0 13.3-10.69c1.65-7.63-3.9-11.09-8.49-11.09zm-.29 11.09a6 6 0 0 1-5.46 4.46h-4.3l1.91-8.91h4.59c2.4-.01 3.84 1.97 3.26 4.44z" transform="translate(.38 -33.2)"/><path class="cls-3" d="M61.93 72.8c-4.05 0-7.26 1.09-9.62 1.58l-.75 6.24a24.86 24.86 0 0 1 8.2-1.78c3.21-.1 5.09.59 4.53 3.37-9.52 0-15.93 2-17.25 8.22-1.89 10.69 9.71 10.4 14.24 5.74l-.56 2.57h8.58l3.68-17c1.49-7.26-5.11-9.04-11.05-8.94zm.66 17.42c-.47 2.28-2.36 3.27-4.53 3.37-1.89.1-3.49-1.59-2.26-3.57.94-1.68 3.58-2.08 5.09-2.08h2.17a19.7 19.7 0 0 0-.47 2.28z" transform="translate(.38 -33.2)"/><path class="cls-3" d="M77.08 40.07h8.57l1.39 15.17 8.39-15.17h8.86L83.9 76.37h-9.59l6.27-10.67-3.5-25.63z"/><path class="cls-3" d="M40.59 66.17h-16l-7.1 32.57h9.4l2.3-10.79h6.71a13.09 13.09 0 0 0 13.23-10.7c1.62-7.62-3.84-11.08-8.54-11.08zm-.29 11.08a5.86 5.86 0 0 1-5.37 4.46h-4.41l2-8.91h4.6a3.3 3.3 0 0 1 3.18 4.45z" transform="translate(.38 -33.2)"/><path class="cls-4" d="M174.71 70.29v-3.85h-1.44v-.52h3.46v.52h-1.44v3.85zm2.59 0v-4.37h.87l1 3.09.21.65.23-.7 1-3h.78v4.37h-.56v-3.7l-1.27 3.66h-.52l-1.26-3.72v3.72z" transform="translate(.38 -33.2)"/></svg>