<svg width="375.03" height="490.41" version="1.1" viewBox="0 0 375.03381 490.41438" xmlns="http://www.w3.org/2000/svg">
  <path d="m276.6 34.067c4.4947-9.3907 12.943-16.713 21.271-22.787 8.98-6.552 38.647-19.677 35.72 0.5-1.0893 7.5107-4.9013 19.729-9.0787 27.855-3.328 6.4733-6.8387 12.437-12.208 19.427-7.4333 9.6773 0.32266 14.421 6.344 24.031 25.02 39.953 28.943 79.568 12.973 128.26-12.672 38.635-39.136 72.203-78.339 92.656-5.2027 2.708-9.6307 5.016-5.1613 9.2293 1.896 1.792 3.7973 3.5827 5.6933 5.3747 3.3747 4.7707 5.104 6.4227 5.5467 8.2813 3.604 15.145-18.527 7.068-25.016 4.6093-11.421-4.328-21.401-9.3333-33.631-12.891-33.088 2.2973-70.083-4.0933-99.984-18.943-62.14-30.855-80.177-85.505-91.437-139.46-3.344-16.031-18.084-75.593 2.2707-81.577 0.91733-0.27067 9.4787 4.52 14.745 10.197 23.927 25.776 46.479 51.532 78.047 68.428 18.031 9.6507 26.792 9.504 50.249 16.728 11.355 3.4907 21.532 10.74 22.24 6.896-1.208-1.0467-3.708-1.432-8.188-3.3333-4.7493-2.0093-10.391-5.4947-17.323-8.0627-13.511-5-29.187-9.5467-35.109-12.421-5.3173-2.5827-15.468-6.7187-23.385-12.151-21.349-14.652-45.672-37.719-60.755-57.547-5.5-7.2347-11.609-13.089-8.38-15.095 8.2187-5.104 32.323 7.376 38.364 10.855 26.755 15.412 50.797 30.057 71.749 44.984 17.163 12.224 31.292 24.385 51.267 39.396 13.588 10.203 28.905 19.688 46.681 21.369 22.724 2.1467 40.469-9.8067 48.771-30.395 7.652-18.98 10.396-35.417 10.959-45.928-1.6093-15.077-6.968-36.541-24.62-29.953-16.02 5.9853-42.312 13.808-50.567-0.02533-3.428-5.74 0-8.0107 5.6507-12.489 18.521-14.677 22.541-22.543 40.5-27.719 9.3013-2.6827 10.031 0.30133 14.14-8.2973z" style="fill-rule:evenodd;fill:#32b6af"/>
  <path d="m329.87 428.79c-1.224 13.235-9.708 17.057-14.703 16.828-4.3333-0.19733-9.9427-2.2133-11.708-10.875-0.31733-1.4427-0.49467-2.9693-0.52133-4.6147-0.44267-12.38 5.0627-22.437 14.469-26.484 7.6293-3.2867 14.891-1.9387 14.891-1.9387s-1.032 11.907-2.428 27.084zm11.839-44.855c-2.864 0-5.328 1.256-6.2907 3.7293-4.532-1.8067-11.709-3.4587-20.188-0.968-7.0933 2.0667-13.516 6.2813-18.609 11.995-5.2293 5.848-8.9013 13.208-10.609 21.307-2.5267 11.871-0.47467 23.213 5.6093 31.147 2.5 3.2493 5.5987 5.8587 9.208 7.708 3.7347 1.916 7.9067 3.0107 12.412 3.244 0.68134 0.048 1.3533 0.0627 2 0.0627 5.3227 0 12.005-2.5413 16.099-6.088 1.0733 3.8533 4.6093 6.5733 8.6507 6.5733 0.35466 0 0.70933-0.0213 1.0627-0.0533 4.9227-0.59867 8.464-5.0613 7.88-9.9893-0.0147-0.12933-1.4787-12.651-1.4787-29.911 0-17.167 1.448-28.579 1.464-28.688 0.64-4.9067-1.636-10.068-7.2093-10.068z" style="fill-rule:evenodd;fill:#32b6af"/>
  <path d="m208.55 394.87c-0.19733-2.0573-0.35333-3.244-0.35866-3.3853-0.48934-3.6667-3.104-6.5253-6.4533-7.4893-4.9947-0.81734-8.6667 2.8653-11.88 8.2813-4.876 8.5-10.136 16.547-15.604 23.729-4.6 6.0413-9.6667 11.443-14.663 16.749-1.4733 1.5427-2.8587 3.016-4.1507 4.3547 0.0467-4.1667 0.136-8.964 0.30267-14.172 0.568-17.339 2.2707-29.083 2.292-29.187 0.63466-4.928-2.8387-9.4387-7.7813-10.073-4.3027-0.57333-8.2867 2.0307-9.6573 5.9947-0.30133 0.69333-0.5 1.4587-0.59333 2.2453-0.0627 0.50934-1.604 12.583-1.604 31.02 5e-3 18.401 1.5413 31.928 1.588 32.484 0.33333 2.8333 1.964 5.2093 4.2187 6.5947 1.0947 0.66133 3.0107 0.94266 4.6253 0.78666 1.932-0.23466 3.656-1.152 6.032-2.672 4.8587-3.3227 9.88-7.5467 15.536-12.751 6.5307-6.3853 14.443-15.339 22.5-27.385-0.0213 1.2867-0.0573 2.584-0.14534 3.8547-0.90666 17.453-2.4173 28.62-2.428 28.719-0.64 4.932 2.844 9.448 7.7813 10.088 4.9227 0.62533 9.432-2.8387 10.084-7.7707 0.052-0.51067 1.5933-12.568 1.5933-31.036 0-13.224-0.79733-23.817-1.2653-28.943z" style="fill-rule:evenodd;fill:#32b6af"/>
  <path d="m262.81 415.61c-9e-3 0.92267-0.124 1.86-0.28133 2.828-0.47333 4.0893-1.6867 8.432-5.552 13.656-7.864 10.595-21.244 14.303-21.244 14.303-0.344-13.125-0.22933-21.645 0-29.109 0.16133-5.5733 0.54133-15.297 12.859-16.62 10.344-1.1093 14.495 9.1453 14.219 14.385zm7.4693-23.583c-4.984-4.256-10.489-6.5107-16.552-6.792-5.188-0.26-12.24 0.656-16.751 4.172-1.244-2.9693-4.0773-5.204-7.5093-5.516-4.9387-0.43734-9.3133 3.208-9.7613 8.1667-0.0413 0.48934-0.76534 8.6667-1.208 22.235l-0.0107 0.31733c-0.20267 6.084-0.33867 13.229-0.33867 21.235 0 20.057 0.88534 35.573 1.324 42.052 0.276 5.224 3.088 11.927 9.9213 11.495 4.948-0.40666 8.6253-4.7493 8.2347-9.6973-0.0107-0.10933-0.792-6.672-1.8133-17.376 9.2147-0.89067 18.563-5.812 28.215-13.536 4.6347-3.724 8.6813-8.6667 11.676-14.265 3.2347-6.0787 5.0053-12.527 5.084-18.656 0.0773-4.4533-0.74-8.6773-2.4067-12.557-1.8013-4.2613-4.416-8.152-8.104-11.276z" style="fill-rule:evenodd;fill:#32b6af"/>
  <path d="m121.26 383.71c-0.228-0.0573-0.47334-0.088-0.692-0.10933-1.8907-0.23334-3.8387 0.33333-6 2.0947l-0.42267 0.35867-0.104 0.0987c-2.2547 2-3.828 4.6933-5.5987 7.7147-11.916 20.619-19.812 27.489-19.812 27.489s-7.9533-6.8707-19.844-27.489c-1.776-3.0213-3.36-5.7147-5.5987-7.7147l-0.08933-0.0627-0.43733-0.39467c-2.1613-1.7613-4.1147-2.328-6.0107-2.0947-0.22933 0.0213-0.45333 0.052-0.68667 0.10933-3.756 0.80267-6.6147 3.8853-7.104 7.7133-0.06267 0.49067-1.6 12.62-1.6 31.172 0 13.005 0.74533 23.365 1.2093 28.557 0.74933 6.7973 3.452 10.073 6.5827 11.177 1.2027 0.396 2.5053 0.54133 3.844 0.38 1.5213-0.176 2.912-0.724 4.0733-1.5627 4.4627-3.3587 3.9-7.4947 3.5093-10.828-0.57733-4.5053-2.1867-15.119-2.1867-28.239 0-0.66134 0-2.964 0.01067-3.6253 3.0093 4.6973 6.176 8.588 8.3747 11.364 4.2493 5.4227 7.812 8.516 11.131 11.193 1.5467 1.2293 3.192 1.88 4.8227 1.88 1.588 0 3.2547-0.65066 4.7813-1.88 3.328-2.6773 6.88-5.7707 11.151-11.193 2.1667-2.776 5.344-6.6667 8.3547-11.364 9e-3 0.66134 9e-3 2.964 9e-3 3.6253 0 13.12-1.6147 23.733-2.208 28.239-0.37466 3.3333-0.93733 7.4693 3.516 10.828 1.1867 0.83867 2.552 1.3867 4.0933 1.5627 1.344 0.16133 2.6507 0.016 3.8493-0.38 3.1307-1.104 5.8227-4.38 6.5627-11.177 0.45733-5.192 1.2133-15.552 1.2133-28.557 0-18.552-1.532-30.681-1.5933-31.172-0.49067-3.828-3.3387-6.9107-7.1-7.7133z" style="fill-rule:evenodd;fill:#32b6af"/>
  <path d="m367.45 390.34c0-0.88534-0.47867-1.5627-2.3227-1.5627l-0.68266-5e-3v3.292c2.2453 0 3.0053-0.76 3.0053-1.724zm-2.12-2.8067c2.9267 0 3.7293 1.5253 3.7293 2.7227 0 1.2867-0.76533 2.0533-1.724 2.4907l1.6827 3.572c0.16133 0.36 0 0.6-0.40133 0.6h-0.55734c-0.32266 0-0.484-0.12-0.60933-0.396l-1.4373-3.412c-0.52667 0.0787-1.0467 0.0787-1.5267 0.0413v3.2093c0 0.31733-0.20267 0.52-0.52533 0.52h-0.48c-0.31734 0-0.52-0.20267-0.52-0.52v-8.344c0-0.32267 0.20266-0.52667 0.52-0.52667h1.8907zm7.26 4.6507c0-3.928-3.052-7.0987-6.7853-7.0987-3.7293 0-6.6933 3.1293-6.6933 7.0987 0 4.0107 3.0053 7.104 6.6933 7.104 3.776 0 6.7853-3.208 6.7853-7.104zm1.444-0.0373c0 4.7347-3.652 8.5427-8.188 8.5427-4.5733 0-8.26-3.688-8.26-8.5427 0-4.6973 3.6867-8.5467 8.26-8.5467 4.536 0 8.188 3.8493 8.188 8.5467z" style="fill-rule:evenodd;fill:#32b6af"/>
</svg>
