<?xml version="1.0" encoding="utf-8"?>
<!-- Generator: Adobe Illustrator 19.2.0, SVG Export Plug-In . SVG Version: 6.00 Build 0)  -->
<svg version="1.1" id="Слой_1" xmlns="http://www.w3.org/2000/svg" xmlns:xlink="http://www.w3.org/1999/xlink" x="0px" y="0px"
	 viewBox="0 0 137.9 136.6" style="enable-background:new 0 0 137.9 136.6;" xml:space="preserve" width="71" height="71">
<style type="text/css">
	.st0{fill:#DBCDB1;stroke:#000000;stroke-width:8;stroke-miterlimit:10;}
	.st1{fill:#64965B;}
	.st2{fill:#FFFFFF;}
	.st3{fill:#BCD353;}
	.st4{fill:#A2C758;}
</style>
<ellipse transform="matrix(0.9999 -1.578126e-002 1.578126e-002 0.9999 -1.0973 1.0614)" class="st0" cx="66.7" cy="70.1" rx="62.5" ry="62.5"/>
<path class="st1" d="M137.9,105.3c-29.1,30-77,30.8-107,1.7S0.1,30,29.2,0L137.9,105.3z"/>
<path class="st2" d="M132.9,100.5c-26.4,27.3-69.9,28-97.2,1.6s-27.9-70-1.5-97.2L132.9,100.5z"/>
<path class="st3" d="M128.1,95.9c-23.8,24.6-63.1,25.2-87.7,1.4S15.1,34.1,39,9.5L128.1,95.9z"/>
<path class="st4" d="M128.1,95.9c-23.8,24.6-63.1,25.2-87.7,1.4S15.1,34.1,39,9.5L37.6,11c0,0.8,17.2,18.4,16.1,19.1
	c-1.2,0.7-19.5-9.2-20.2-8.7c-0.8,0.6,6.5,5.9,6.7,7.4c0.3,2-9.7-4.3-10.3-2.4c-0.4,1.5,14.3,9.4,14,10.7c-0.5,2.5-15-1.5-15.5,1.5
	c-0.2,1.4,17.5,6.7,17.8,7.9c0.5,1.9-17.8,1.6-17.7,2.3c0.2,1.7,37.7,2.8,38.2,5.1c0.5,2.2-36.2,10.8-36.1,12.5
	c0.1,1.9,13.6-2,14.8,0.1c1,1.7-12.2,9.1-10.8,10.9c1,1.3,8.3-3.5,8.6-2.1c0.3,1.4-3.5,5.2-3.1,5.9c0.7,1.5,25.6-15.2,26.5-13.8
	c3.6,5.4,5.2-2,5.2,0.3c0,5.3-17.6,26-16.7,26.8c0.6,0.6,8.3-7.9,10.5-8.5c1.2-0.3-5.3,15.9-4.1,16.6c1.3,0.8,5.5-5.7,6.4-5.1
	c1.6,1.1,1.7,8.5,3.5,9.1c3,0.9,9.7-38.7,12-37.6c2,1.1,3.9,42.1,6.2,42c1.9,0,0.8-14,2.1-13.5c1.5,0.6,4.9,13.2,6.5,12.7
	c1.8-0.6-2.9-20.7-1.7-20.4c1.5,0.4,9.2,16.4,10.8,15.9c1.8-0.5-1.6-8.6-0.5-9.5c1.8-1.5,5.5,7.3,7,6.8c2-0.7-17.4-28.6-15.8-28.5
	c1.7,0.1,27.1,23,28.8,23L128.1,95.9z"/>
<rect x="15.3" y="51.7" transform="matrix(0.7182 0.6959 -0.6959 0.7182 61.3161 -40.7614)" class="st2" width="131.3" height="7.3"/>
<rect x="56.6" y="46.7" transform="matrix(0.7182 0.6959 -0.6959 0.7182 70.5743 -19.8261)" class="st2" width="6.3" height="61"/>
<polygon class="st2" points="85.4,59.6 78.8,60.2 78.4,119.6 84.9,119 "/>
<polygon class="st2" points="76.6,51 76.2,57.6 16.8,60 17.2,53.4 "/>
</svg>
