<?xml version="1.0" encoding="utf-8"?>
<!-- Generator: Adobe Illustrator 19.2.0, SVG Export Plug-In . SVG Version: 6.00 Build 0)  -->
<svg version="1.1" id="Слой_1" xmlns="http://www.w3.org/2000/svg" xmlns:xlink="http://www.w3.org/1999/xlink" x="0px" y="0px"
	 viewBox="0 0 458 95.7" style="enable-background:new 0 0 138 45.7;" xml:space="preserve" width="296" height="90">
<style type="text/css">
	.st0{fill:#DBCDB1;stroke:#000000;stroke-width:8;stroke-miterlimit:10;}
	.st1{fill:#64965B;}
	.st2{fill:#FFFFFF;}
	.st3{fill:#BCD353;}
	.st4{fill:#A2C758;}
</style>
<ellipse transform="matrix(0.9999 -1.578126e-002 1.578126e-002 0.9999 -0.7706 3.3689)" class="st0" cx="213.1" cy="50.5" rx="62.5" ry="62.5"/>
<path class="st1" d="M284.3,85.8c-29.1,30-77,30.8-107,1.7s-30.8-77-1.7-107L284.3,85.8z"/>
<path class="st2" d="M279.3,81c-26.4,27.3-69.9,28-97.2,1.6s-27.9-70-1.5-97.2L279.3,81z"/>
<path class="st3" d="M274.5,76.3c-23.8,24.6-63.1,25.2-87.7,1.4s-25.2-63.1-1.4-87.7L274.5,76.3z"/>
<path class="st4" d="M274.5,76.3c-23.8,24.6-63.1,25.2-87.7,1.4s-25.2-63.1-1.4-87.7l-1.4,1.4c0,0.8,17.2,18.4,16.1,19.1
	c-1.2,0.7-19.5-9.2-20.2-8.7c-0.8,0.6,6.5,5.9,6.7,7.4c0.3,2-9.7-4.3-10.3-2.4c-0.4,1.5,14.3,9.4,14,10.7c-0.5,2.5-15-1.5-15.5,1.5
	c-0.2,1.4,17.5,6.7,17.8,7.9c0.5,1.9-17.8,1.6-17.7,2.3c0.2,1.7,37.7,2.8,38.2,5.1c0.5,2.2-36.2,10.8-36.1,12.5
	c0.1,1.9,13.6-2,14.8,0.1c1,1.7-12.2,9.1-10.8,10.9c1,1.3,8.3-3.5,8.6-2.1c0.3,1.4-3.5,5.2-3.1,5.9c0.7,1.5,25.6-15.2,26.5-13.8
	c3.6,5.4,5.2-2,5.2,0.3c0,5.3-17.6,26-16.7,26.8c0.6,0.6,8.3-7.9,10.5-8.5c1.2-0.3-5.3,15.9-4.1,16.6c1.3,0.8,5.5-5.7,6.4-5.1
	c1.6,1.1,1.7,8.5,3.5,9.1c3,0.9,9.7-38.7,12-37.6c2,1.1,3.9,42.1,6.2,42c1.9,0,0.8-14,2.1-13.5c1.5,0.6,4.9,13.2,6.5,12.7
	c1.8-0.6-2.9-20.7-1.7-20.4c1.5,0.4,9.2,16.4,10.8,15.9c1.8-0.5-1.6-8.6-0.5-9.5c1.8-1.5,5.5,7.3,7,6.8c2-0.7-17.4-28.6-15.8-28.5
	c1.7,0.1,27.1,23,28.8,23L274.5,76.3z"/>
<rect x="161.7" y="32.1" transform="matrix(0.7182 0.6959 -0.6959 0.7182 88.9683 -148.1256)" class="st2" width="131.3" height="7.3"/>
<rect x="203" y="27.2" transform="matrix(0.7182 0.6959 -0.6959 0.7182 98.2265 -127.1903)" class="st2" width="6.3" height="61"/>
<polygon class="st2" points="231.8,40.1 225.2,40.6 224.7,100 231.3,99.5 "/>
<polygon class="st2" points="222.9,31.5 222.6,38.1 163.2,40.4 163.6,33.8 "/>
<g>
	<path d="M75.5,25.4C83.2,17,90.9,8.6,98.8,0c0,15.4,0,30.5,0,45.7c-3,0-6.1,0-9.3,0c0-7.3,0-14.6,0-22.4c-4.8,5.4-9.4,10.5-14,15.7
		c-4.6-5.2-9.1-10.3-13.9-15.6c0,7.6,0,14.9,0,22.3c-3.2,0-6.2,0-9.4,0c0-15.1,0-30.2,0-45.6C60,8.6,67.7,16.9,75.5,25.4z"/>
	<path d="M136.2,27.5c-6.3,0-12.6,0-19,0c0,3.2,0,6.2,0,9.4c6.9,0,13.8,0,20.8,0c0,3,0,5.9,0,8.8c-10.2,0-20.3,0-30.5,0
		c0-14.7,0-29.3,0-44c10,0,20,0,30.1,0c0,2.9,0,5.7,0,8.7c-6.8,0-13.5,0-20.3,0c0,2.8,0,5.5,0,8.4c6.3,0,12.6,0,19,0
		C136.2,21.7,136.2,24.5,136.2,27.5z"/>
	<path d="M26.9,36.9c0,3.1,0,5.9,0,8.8c-9,0-17.9,0-26.9,0C0,31,0,16.4,0,1.6c3.2,0,6.4,0,9.7,0c0,11.7,0,23.4,0,35.2
		C15.5,36.9,21.2,36.9,26.9,36.9z"/>
	<path d="M42.9,45.7c-3.2,0-6.4,0-9.6,0c0-14.7,0-29.4,0-44.1c3.2,0,6.3,0,9.6,0C42.9,16.3,42.9,31,42.9,45.7z"/>
</g>
<g>
	<path d="M432.5,93.9c3.5,0,6.9,0,10.3,0c3.4,0,6.8,0,10.3,0c0,3,0,5.9,0,8.8c-10.2,0-20.3,0-30.4,0c0-14.7,0-29.3,0-44
		c10,0,20,0,30.1,0c0,2.9,0,5.7,0,8.7c-6.8,0-13.5,0-20.3,0c0,2.8,0,5.5,0,8.4c6.3,0,12.6,0,19,0c0,3,0,5.8,0,8.7
		c-6.3,0-12.6,0-19,0C432.5,87.6,432.5,90.7,432.5,93.9z"/>
	<path d="M414.7,88.9c0,3.3,0,6.4,0,9.5c0,0.3-0.3,0.7-0.6,0.9c-4.2,3.1-9,4.3-14.1,4.1c-5.7-0.2-10.7-2.1-15-5.8c-4.6-4-7-9-7.5-15
		c-1-12.5,7.8-22.4,19.4-24.3c6.1-1,11.8-0.1,17,3.5c0.7,0.5,1,0.9,1,1.8c-0.1,2.9,0,5.8,0,9c-0.6-0.5-1.1-0.9-1.5-1.3
		c-5.1-4-10.8-5.6-17.1-3.6c-5.6,1.8-9.3,7.9-9,13.6c0.5,9.6,9.7,15.8,19.9,12.3c1.4-0.5,2.8-1.2,4-1.9
		C412.2,90.9,413.3,90,414.7,88.9z"/>
	<path d="M298.2,102.7c-3.4,0-6.5,0-9.7,0c0-14.7,0-29.3,0-44c9.6,0,19.2,0,28.9,0c0,2.8,0,5.7,0,8.6c-6.4,0-12.7,0-19.2,0
		c0,3.1,0,6.1,0,9.2c5.8,0,11.6,0,17.5,0c0,2.9,0,5.7,0,8.6c-5.8,0-11.6,0-17.5,0C298.2,91.1,298.2,96.8,298.2,102.7z"/>
	<path d="M324.5,58.7c9.7,0,19.3,0,28.9,0c0,2.9,0,5.7,0,8.7c-6.4,0-12.8,0-19.2,0c0,3.1,0,6,0,9.1c5.8,0,11.6,0,17.5,0
		c0,3,0,5.8,0,8.7c-5.9,0-11.7,0-17.6,0c0,5.9,0,11.6,0,17.5c-3.3,0-6.4,0-9.7,0C324.5,88.1,324.5,73.4,324.5,58.7z"/>
	<path d="M370.2,58.7c0,14.7,0,29.3,0,44c-3.2,0-6.4,0-9.6,0c0-14.6,0-29.3,0-44C363.8,58.7,367,58.7,370.2,58.7z"/>
</g>
</svg>
