<?xml version="1.0" encoding="iso-8859-1"?>
<!-- Generator: Adobe Illustrator 19.0.0, SVG Export Plug-In . SVG Version: 6.00 Build 0)  -->
<svg xmlns="http://www.w3.org/2000/svg" xmlns:xlink="http://www.w3.org/1999/xlink" version="1.1" id="Layer_1" x="0px" y="0px" viewBox="0 0 512 512" style="enable-background:new 0 0 512 512;" xml:space="preserve" width="32" height="32">
<g>
	<g>
		<path d="M510.964,158.267c-0.352-0.001-0.706-0.001-1.061-0.001c-21.041,0-46.985,0.289-70.954,18.104    c-4.139,3.076-8.064,6.58-11.778,10.517L439.677,0H72.323L84.83,186.887c-3.714-3.937-7.639-7.441-11.778-10.517    c-24.372-18.114-50.745-18.105-72.015-18.104H0v33.391h1.044c18.81,0.008,36.589-0.009,52.09,11.512    c16.749,12.447,29.461,38.01,37.878,76.105l0.806,12.034v94.373h147.486v55.755c-30.925,5.565-57.363,26.372-69.86,56.147    l30.789,12.921c7.245-17.261,21.745-29.845,39.071-34.822V512h33.391v-36.315c17.326,4.976,31.826,17.56,39.071,34.822    l30.789-12.921c-12.497-29.775-38.935-50.582-69.86-56.148v-55.755h147.487V291.31l0.806-12.034    c8.418-38.095,21.13-63.658,37.878-76.105c15.503-11.521,33.247-11.501,52.09-11.512H512v-33.391H510.964z M386.792,352.292    H125.208v-44.849h261.583V352.292z M387.871,274.051H124.129l-16.106-240.66h295.954L387.871,274.051z" fill="#93c252"/>
	</g>
</g>
<g>
</g>
<g>
</g>
<g>
</g>
<g>
</g>
<g>
</g>
<g>
</g>
<g>
</g>
<g>
</g>
<g>
</g>
<g>
</g>
<g>
</g>
<g>
</g>
<g>
</g>
<g>
</g>
<g>
</g>
</svg>
