<?xml version="1.0" encoding="iso-8859-1"?>
<!-- Generator: Adobe Illustrator 19.0.0, SVG Export Plug-In . SVG Version: 6.00 Build 0)  -->
<svg xmlns="http://www.w3.org/2000/svg" xmlns:xlink="http://www.w3.org/1999/xlink" version="1.1" id="Layer_1" x="0px" y="0px" viewBox="0 0 512 512" style="enable-background:new 0 0 512 512;" xml:space="preserve" width="32" height="32">
<g>
	<g>
		<path d="M482.925,270.829l16.702-99.552c3.842-22.904-2.558-46.209-17.56-63.938c-15.003-17.729-36.926-27.896-60.151-27.896    H90.084c-23.225,0-45.148,10.169-60.151,27.896c-15.003,17.73-21.403,41.033-17.56,63.938l16.702,99.552    C11.595,282.189,0,301.876,0,324.234c0,30.77,21.945,56.507,51.004,62.393v45.93h33.391v-44.662h343.209v44.662h33.391v-45.931    C490.055,380.741,512,355.003,512,324.234C512,301.876,500.405,282.189,482.925,270.829z M55.423,128.908    c8.645-10.217,21.279-16.075,34.661-16.075h331.832c13.382,0,26.016,5.859,34.661,16.075    c8.645,10.217,12.334,23.646,10.119,36.845l-15.919,94.881c-0.81-0.031-1.621-0.062-2.438-0.062H63.661    c-0.817,0-1.627,0.031-2.438,0.062l-15.919-94.881C43.089,152.555,46.778,139.125,55.423,128.908z M448.339,354.502H63.661    c-16.69,0-30.269-13.578-30.269-30.268c0-15.822,12.205-28.839,27.693-30.152h389.832c15.488,1.313,27.693,14.33,27.693,30.152    C478.609,340.924,465.03,354.502,448.339,354.502z" fill="#93c252"/>
	</g>
</g>
<g>
</g>
<g>
</g>
<g>
</g>
<g>
</g>
<g>
</g>
<g>
</g>
<g>
</g>
<g>
</g>
<g>
</g>
<g>
</g>
<g>
</g>
<g>
</g>
<g>
</g>
<g>
</g>
<g>
</g>
</svg>
