<?xml version="1.0" encoding="iso-8859-1"?>
<!-- Generator: Adobe Illustrator 19.0.0, SVG Export Plug-In . SVG Version: 6.00 Build 0)  -->
<svg xmlns="http://www.w3.org/2000/svg" xmlns:xlink="http://www.w3.org/1999/xlink" version="1.1" id="Layer_1" x="0px" y="0px" viewBox="0 0 512 512" style="enable-background:new 0 0 512 512;" xml:space="preserve" width="32" height="32">
<g>
	<g>
		<g>
			<path d="M40.308,0v484.174h62.57V512h33.391v-27.826h239.462V512h33.391v-27.826h62.57V0H40.308z M239.304,450.783H73.699     v-79.304h165.605V450.783z M239.304,338.087H73.699v-79.304h165.605V338.087z M239.304,225.391H73.699v-79.304h165.605V225.391z      M239.304,112.696H73.699V33.391h165.605V112.696z M438.301,450.783H272.696v-79.304h165.605V450.783z M438.301,338.087H272.696     v-79.304h165.605V338.087z M438.301,225.391H272.696v-79.304h165.605V225.391z M438.301,112.696H272.696V33.391h165.605V112.696z     " fill="#93c252"/>
			<circle cx="156.505" cy="73.038" r="15.616" fill="#93c252"/>
			<circle cx="156.505" cy="185.734" r="15.616" fill="#93c252"/>
			<circle cx="156.505" cy="298.429" r="15.616" fill="#93c252"/>
			<circle cx="156.505" cy="411.125" r="15.616" fill="#93c252"/>
			<circle cx="355.495" cy="73.038" r="15.616" fill="#93c252"/>
			<circle cx="355.495" cy="185.734" r="15.616" fill="#93c252"/>
			<circle cx="355.495" cy="298.429" r="15.616" fill="#93c252"/>
			<circle cx="355.495" cy="411.125" r="15.616" fill="#93c252"/>
		</g>
	</g>
</g>
<g>
</g>
<g>
</g>
<g>
</g>
<g>
</g>
<g>
</g>
<g>
</g>
<g>
</g>
<g>
</g>
<g>
</g>
<g>
</g>
<g>
</g>
<g>
</g>
<g>
</g>
<g>
</g>
<g>
</g>
</svg>
