<?xml version="1.0" encoding="UTF-8"?>
<!DOCTYPE svg PUBLIC "-//W3C//DTD SVG 1.1//EN" "http://www.w3.org/Graphics/SVG/1.1/DTD/svg11.dtd">
<!-- Creator: CorelDRAW X6 -->
<svg xmlns="http://www.w3.org/2000/svg" xml:space="preserve" width="14" height="14" version="1.1" style="shape-rendering:geometricPrecision; text-rendering:geometricPrecision; image-rendering:optimizeQuality; fill-rule:evenodd; clip-rule:evenodd"
viewBox="0 0 15 15"
 xmlns:xlink="http://www.w3.org/1999/xlink">
 <defs>
  <style type="text/css">
   <![CDATA[
    .fil0 {fill:#FEFEFE}
   ]]>
  </style>
 </defs>
 <g id="Слой_x0020_1">
  <metadata id="CorelCorpID_0Corel-Layer"/>
  <g id="_2298664272">
   <path class="fil0" d="M2 5c0,0 -1,0 -1,1l0 3c0,1 1,1 1,1 1,0 1,0 1,-1l0 -3c0,-1 0,-1 -1,-1zm11 0c-1,0 -1,0 -1,1l0 3c0,1 0,1 1,1 0,0 1,0 1,-1l0 -3c0,-1 -1,-1 -1,-1z"/>
   <path class="fil0" d="M4 5l0 6c0,1 0,1 0,1l1 0 0 2c0,0 0,1 1,1 0,0 1,-1 1,-1l0 -2 1 0 0 2c0,0 1,1 1,1 1,0 1,-1 1,-1l0 -2 1 0c0,0 0,0 0,-1l0 -6 -7 0z"/>
   <path class="fil0" d="M9 3c0,0 0,0 0,0 0,-1 0,-1 0,-1 0,0 1,0 1,1 0,0 -1,0 -1,0zm-3 0c0,0 -1,0 -1,0 0,-1 1,-1 1,-1 0,0 0,0 0,1 0,0 0,0 0,0zm3 -2l1 -1c0,0 0,0 0,0 0,0 0,0 0,0l-1 1c0,0 -1,0 -1,0 -1,0 -2,0 -2,0l-1 -1c0,0 0,0 0,0 0,0 0,0 0,0l1 1c-1,1 -2,2 -2,3l7 0c0,-1 -1,-2 -2,-3z"/>
  </g>
 </g>
</svg>
