<?xml version="1.0" encoding="UTF-8"?>
<!DOCTYPE svg PUBLIC "-//W3C//DTD SVG 1.1//EN" "http://www.w3.org/Graphics/SVG/1.1/DTD/svg11.dtd">
<!-- Creator: CorelDRAW X6 -->
<svg xmlns="http://www.w3.org/2000/svg" xml:space="preserve" width="30px" height="20px" version="1.1" style="shape-rendering:geometricPrecision; text-rendering:geometricPrecision; image-rendering:optimizeQuality; fill-rule:evenodd; clip-rule:evenodd"
viewBox="0 0 30 20"
 xmlns:xlink="http://www.w3.org/1999/xlink">
 <defs>
  <style type="text/css">
   <![CDATA[
    .fil2 {fill:#111D7E;fill-rule:nonzero}
    .fil1 {fill:#DC0031;fill-rule:nonzero}
    .fil0 {fill:white;fill-rule:nonzero}
   ]]>
  </style>
 </defs>
 <g id="Слой_x0020_1">
  <metadata id="CorelCorpID_0Corel-Layer"/>
  <g id="_2955262224">
   <g>
    <polygon class="fil0" points="0,20 30,20 30,0 0,0 "/>
    <polygon class="fil1" points="20,7 30,1 30,0 29,0 18,7 "/>
    <polygon class="fil1" points="20,13 30,20 30,18 22,13 "/>
    <polygon class="fil1" points="0,2 9,7 11,7 0,0 "/>
    <polygon class="fil1" points="10,13 0,20 0,20 2,20 13,13 "/>
    <polygon class="fil2" points="28,0 17,0 17,7 "/>
    <polygon class="fil2" points="13,0 2,0 13,7 "/>
    <polygon class="fil2" points="30,7 30,3 23,7 "/>
    <polygon class="fil2" points="30,18 30,13 23,13 "/>
    <polygon class="fil2" points="3,20 13,20 13,14 "/>
    <polygon class="fil2" points="17,20 27,20 17,14 "/>
    <polygon class="fil2" points="0,13 0,18 7,13 "/>
    <polygon class="fil2" points="0,7 7,7 0,2 "/>
    <polygon class="fil1" points="14,0 14,8 0,8 0,12 14,12 14,20 17,20 17,12 30,12 30,8 17,8 17,0 "/>
   </g>
  </g>
 </g>
</svg>
