<svg id="Слой_1" data-name="Слой 1" xmlns="http://www.w3.org/2000/svg" xmlns:xlink="http://www.w3.org/1999/xlink" viewBox="0 0 35.22 11.8"><defs><clipPath id="clip-path" transform="translate(0 0)"><rect width="35.22" height="11.8" style="fill:none"/></clipPath></defs><title>google-subscribe-button</title><g style="clip-path:url(#clip-path)"><path d="M1.75.41A1.34,1.34,0,0,0,.41,1.74v8.31a1.34,1.34,0,0,0,1.34,1.34H33.48a1.34,1.34,0,0,0,1.33-1.34V1.74A1.34,1.34,0,0,0,33.48.41ZM33.48,11.8H1.75A1.75,1.75,0,0,1,0,10.05V1.74A1.74,1.74,0,0,1,1.75,0H33.48a1.74,1.74,0,0,1,1.74,1.74v8.31a1.74,1.74,0,0,1-1.74,1.75" transform="translate(0 0)" style="fill:#191919"/><path d="M11.37,3a3.09,3.09,0,0,1-.13-.41h0A3.09,3.09,0,0,1,11.1,3Zm.33.41h-.23a1.25,1.25,0,0,0-.07-.27h-.33a1.25,1.25,0,0,0-.07.27h-.22A3.37,3.37,0,0,1,11,3a4.79,4.79,0,0,0,.17-.49h.28a3.91,3.91,0,0,0,.15.48c.1.29.15.45.15.47" transform="translate(0 0)" style="fill:#191919"/><path d="M12.65,3.44h-.18a2.16,2.16,0,0,0-.2-.31A1.64,1.64,0,0,1,12,2.71h0A1.57,1.57,0,0,1,12,3c0,.12,0,.27,0,.44h-.18c0-.15,0-.31,0-.49s0-.33,0-.46h.22a1.27,1.27,0,0,0,.18.31,1.69,1.69,0,0,1,.22.39h0c0-.11,0-.21,0-.29s0-.27,0-.41h.19c0,.12,0,.27,0,.46s0,.34,0,.49" transform="translate(0 0)" style="fill:#191919"/><path d="M13.51,3a.36.36,0,0,0-.08-.24.34.34,0,0,0-.25-.1h-.09c0,.1,0,.2,0,.31v.34h.1a.26.26,0,0,0,.23-.1A.36.36,0,0,0,13.51,3m.2,0a.56.56,0,0,1-.14.36.45.45,0,0,1-.37.15h-.3c0-.14,0-.31,0-.49s0-.33,0-.46h.31a.49.49,0,0,1,.38.13.45.45,0,0,1,.12.32" transform="translate(0 0)" style="fill:#191919"/><path d="M14.41,2.77c0-.1-.06-.14-.19-.14H14.1a2.36,2.36,0,0,1,0,.29h.07c.15,0,.23-.05.23-.16m.27.67h-.21a1.73,1.73,0,0,0-.13-.32.18.18,0,0,0-.15-.06h-.08c0,.13,0,.26,0,.38h-.21c0-.14,0-.31,0-.49s0-.33,0-.46h.35c.22,0,.34.07.34.23a.26.26,0,0,1-.2.25h0a.22.22,0,0,1,.13.12,2,2,0,0,1,.15.34" transform="translate(0 0)" style="fill:#191919"/><path d="M15.53,3a.41.41,0,0,0-.08-.25.23.23,0,0,0-.19-.09.23.23,0,0,0-.18.09A.41.41,0,0,0,15,3a.36.36,0,0,0,.08.24.23.23,0,0,0,.19.1.22.22,0,0,0,.19-.1A.36.36,0,0,0,15.53,3m.2,0a.52.52,0,0,1-.13.37.46.46,0,0,1-.34.15.42.42,0,0,1-.33-.14A.49.49,0,0,1,14.8,3a.53.53,0,0,1,.14-.37.43.43,0,0,1,.34-.15.42.42,0,0,1,.32.14.45.45,0,0,1,.13.34" transform="translate(0 0)" style="fill:#191919"/><path d="M16.15,3.44h-.21c0-.15,0-.31,0-.49s0-.33,0-.46h.21c0,.12,0,.28,0,.46s0,.35,0,.49" transform="translate(0 0)" style="fill:#191919"/><path d="M17,3a.32.32,0,0,0-.09-.24.31.31,0,0,0-.25-.1h-.08c0,.1,0,.2,0,.31v.34h.1a.26.26,0,0,0,.23-.1A.36.36,0,0,0,17,3m.2,0a.56.56,0,0,1-.14.36.47.47,0,0,1-.37.15h-.3c0-.14,0-.31,0-.49s0-.33,0-.46h.3a.5.5,0,0,1,.39.13.45.45,0,0,1,.12.32" transform="translate(0 0)" style="fill:#191919"/><path d="M18.27,3a4.09,4.09,0,0,1-.12-.41h0s-.05.16-.13.41Zm.34.41h-.23a2.67,2.67,0,0,0-.07-.27H18a2.67,2.67,0,0,0-.07.27h-.22s.06-.17.17-.46A3,3,0,0,0,18,2.49h.28a3.19,3.19,0,0,0,.16.48c.1.29.15.45.15.47" transform="translate(0 0)" style="fill:#191919"/><path d="M19.27,2.78c0-.1-.06-.15-.2-.15H19c0,.09,0,.19,0,.31h0c.18,0,.26-.06.26-.17m.19,0a.28.28,0,0,1-.13.26.51.51,0,0,1-.31.08H19v.36h-.2c0-.14,0-.3,0-.49s0-.33,0-.46h.36a.45.45,0,0,1,.24.06.22.22,0,0,1,.09.19" transform="translate(0 0)" style="fill:#191919"/><path d="M20.15,2.78q0-.15-.21-.15h-.11a2.91,2.91,0,0,1,0,.31h.05c.17,0,.26-.06.26-.17m.19,0a.28.28,0,0,1-.13.26.55.55,0,0,1-.32.08h-.05c0,.09,0,.21,0,.36h-.2c0-.14,0-.3,0-.49s0-.33,0-.46H20a.41.41,0,0,1,.23.06.21.21,0,0,1,.1.19" transform="translate(0 0)" style="fill:#191919"/><path d="M21.57,3a.36.36,0,0,0-.08-.25.23.23,0,0,0-.19-.09.23.23,0,0,0-.18.09A.41.41,0,0,0,21,3a.36.36,0,0,0,.08.24.25.25,0,0,0,.2.1.21.21,0,0,0,.18-.1A.36.36,0,0,0,21.57,3m.2,0a.52.52,0,0,1-.13.37.46.46,0,0,1-.34.15A.42.42,0,0,1,21,3.33.49.49,0,0,1,20.84,3,.53.53,0,0,1,21,2.62a.45.45,0,0,1,.34-.15.42.42,0,0,1,.32.14.45.45,0,0,1,.13.34" transform="translate(0 0)" style="fill:#191919"/><path d="M22.76,3.44h-.18a1.44,1.44,0,0,0-.2-.31,1.64,1.64,0,0,1-.24-.42h0c0,.11,0,.21,0,.29s0,.27,0,.44H22c0-.15,0-.31,0-.49s0-.33,0-.46h.22a1.27,1.27,0,0,0,.18.31,1.69,1.69,0,0,1,.22.39h0c0-.11,0-.21,0-.29s0-.27,0-.41h.18c0,.12,0,.27,0,.46s0,.34,0,.49" transform="translate(0 0)" style="fill:#191919"/><path d="M14.14,6.49a1.52,1.52,0,0,1-.42,1.13,1.61,1.61,0,0,1-1.24.5,1.74,1.74,0,0,1-1.25-.5,1.71,1.71,0,0,1-.51-1.26,1.74,1.74,0,0,1,1.76-1.77,1.81,1.81,0,0,1,.69.14,1.42,1.42,0,0,1,.53.38l-.3.3a1.12,1.12,0,0,0-.92-.4,1.3,1.3,0,0,0-1.32,1.35,1.28,1.28,0,0,0,.39,1,1.3,1.3,0,0,0,.93.38,1.27,1.27,0,0,0,.94-.38,1,1,0,0,0,.29-.69H12.48v-.4h1.64a2.29,2.29,0,0,1,0,.25" transform="translate(0 0)" style="fill:#191919"/><path d="M15,7.5a.74.74,0,0,0,.53.23A.72.72,0,0,0,16,7.5a.92.92,0,0,0,0-1.22.72.72,0,0,0-.53-.23.74.74,0,0,0-.53.23A.92.92,0,0,0,15,7.5M14.66,6a1.09,1.09,0,0,1,.85-.35,1.12,1.12,0,0,1,.86.35,1.23,1.23,0,0,1,.33.88,1.23,1.23,0,0,1-.33.88,1.12,1.12,0,0,1-.86.35,1.09,1.09,0,0,1-.85-.35,1.2,1.2,0,0,1-.34-.88A1.2,1.2,0,0,1,14.66,6" transform="translate(0 0)" style="fill:#191919"/><path d="M17.51,7.5a.72.72,0,0,0,.53.23.74.74,0,0,0,.53-.23.85.85,0,0,0,.22-.61.85.85,0,0,0-.22-.61A.74.74,0,0,0,18,6.05a.72.72,0,0,0-.53.23.92.92,0,0,0,0,1.22M17.18,6A1.12,1.12,0,0,1,18,5.66a1.1,1.1,0,0,1,.85.35,1.2,1.2,0,0,1,.34.88,1.2,1.2,0,0,1-.34.88,1.1,1.1,0,0,1-.85.35,1.12,1.12,0,0,1-.86-.35,1.23,1.23,0,0,1-.33-.88A1.23,1.23,0,0,1,17.18,6" transform="translate(0 0)" style="fill:#191919"/><path d="M20.55,7.73a.7.7,0,0,0,.52-.23.85.85,0,0,0,.21-.61.85.85,0,0,0-.21-.61.7.7,0,0,0-.52-.23.68.68,0,0,0-.52.23.85.85,0,0,0-.22.61A.85.85,0,0,0,20,7.5a.68.68,0,0,0,.52.23m0,1.41a1,1,0,0,1-.67-.2,1.24,1.24,0,0,1-.37-.47l.4-.17a.62.62,0,0,0,.24.32.71.71,0,0,0,.4.13.78.78,0,0,0,.57-.22.79.79,0,0,0,.2-.58V7.73h0a.94.94,0,0,1-.78.39,1,1,0,0,1-.78-.35A1.34,1.34,0,0,1,19.7,6a1,1,0,0,1,.78-.35.94.94,0,0,1,.78.39h0V5.73h.42v2.2a1.13,1.13,0,0,1-.35.9,1.2,1.2,0,0,1-.84.31" transform="translate(0 0)" style="fill:#191919"/></g><rect x="22.11" y="4.67" width="0.43" height="3.38" style="fill:#191919"/><g style="clip-path:url(#clip-path)"><path d="M24.61,6.61a.66.66,0,0,0-.19-.38.64.64,0,0,0-.5-.18.56.56,0,0,0-.41.16.79.79,0,0,0-.25.4ZM24,8.12a1.09,1.09,0,0,1-.85-.35,1.22,1.22,0,0,1-.33-.88A1.28,1.28,0,0,1,23.12,6a1,1,0,0,1,.81-.36,1.08,1.08,0,0,1,.83.33,1.33,1.33,0,0,1,.31.9V7H23.23a.83.83,0,0,0,.24.55.69.69,0,0,0,.5.21.65.65,0,0,0,.64-.4l.38.16a1,1,0,0,1-.37.45,1.1,1.1,0,0,1-.64.18" transform="translate(0 0)" style="fill:#191919"/><path d="M26.78,6.26h.73a.55.55,0,0,0,.43-.18.58.58,0,0,0,0-.82.55.55,0,0,0-.43-.18h-.73Zm0,1.79h-.44V4.66H27.5a1.08,1.08,0,0,1,.74.29.92.92,0,0,1,.31.72.92.92,0,0,1-.31.72,1.08,1.08,0,0,1-.74.29h-.72Z" transform="translate(0 0)" style="fill:#191919"/></g><rect x="28.84" y="4.67" width="0.43" height="3.38" style="fill:#191919"/><g style="clip-path:url(#clip-path)"><path d="M30.46,7.73a.73.73,0,0,0,.49-.2.64.64,0,0,0,.22-.48.86.86,0,0,0-.55-.15.74.74,0,0,0-.48.14.4.4,0,0,0-.16.32.32.32,0,0,0,.15.27.61.61,0,0,0,.33.1m-.07.39a.9.9,0,0,1-.61-.21.69.69,0,0,1-.25-.56.67.67,0,0,1,.29-.59,1.16,1.16,0,0,1,.72-.22,1.28,1.28,0,0,1,.63.14V6.62A.53.53,0,0,0,31,6.21a.65.65,0,0,0-.43-.16.7.7,0,0,0-.35.09.51.51,0,0,0-.21.25l-.39-.17a.92.92,0,0,1,.31-.39,1.09,1.09,0,0,1,.63-.17,1,1,0,0,1,.73.26.9.9,0,0,1,.3.73v1.4h-.42V7.73h0a.84.84,0,0,1-.76.39" transform="translate(0 0)" style="fill:#191919"/></g><polygon points="32.53 9.07 32.08 9.07 32.62 7.9 31.67 5.73 32.14 5.73 32.83 7.4 32.84 7.4 33.51 5.73 33.98 5.73 32.53 9.07" style="fill:#191919"/><g style="clip-path:url(#clip-path)"><path d="M2.61,6.3V3.06a.52.52,0,0,1,.12-.36s.06-.05.11,0L5,4.92,6.44,6.36s0,.07,0,.12L3,9.94a.12.12,0,0,1-.19,0,.44.44,0,0,1-.17-.37V6.3Z" transform="translate(0 0)" style="fill:#191919"/><path d="M3,2.58a.43.43,0,0,1,.21.06L7.68,5.13c.07,0,.07,0,0,.11-.33.32-.66.65-1,1,0,0-.06,0-.11,0L3.07,2.63l0,0" transform="translate(0 0)" style="fill:#191919"/><path d="M3.36,9.91,6.58,6.65c.07-.06.1-.05.16,0l.82.84c.05,0,.06.07,0,.1L3.42,9.87l-.06,0" transform="translate(0 0)" style="fill:#191919"/><path d="M9.5,6.33a.37.37,0,0,1-.15.27l-.21.13-1.25.69a.1.1,0,0,1-.14,0c-.29-.31-.59-.61-.89-.91,0,0-.05-.07,0-.11l1-1s.07,0,.12,0L9.26,6a.41.41,0,0,1,.24.32" transform="translate(0 0)" style="fill:#191919"/></g></svg>