<?xml version="1.0" encoding="utf-8"?>
<!-- Generator: Adobe Illustrator 22.1.0, SVG Export Plug-In . SVG Version: 6.00 Build 0)  -->
<svg version="1.1" xmlns="http://www.w3.org/2000/svg" xmlns:xlink="http://www.w3.org/1999/xlink" x="0px" y="0px"
	 viewBox="0 0 85 85" style="enable-background:new 0 0 85 85;" xml:space="preserve">
<g>
	<g>
		<path d="M42.5,46c-4.7,0-8.4,3.8-8.4,8.4c0,2.3,1,4.5,2.6,6.1v7.6c0,3.2,2.6,5.8,5.8,5.8c3.2,0,5.8-2.6,5.8-5.8v-7.6
			c1.7-1.6,2.6-3.8,2.6-6.1C51,49.7,47.2,46,42.5,46z M45.5,57.6c-0.8,0.8-1.3,1.8-1.3,2.9v7.7c0,0.9-0.8,1.7-1.7,1.7
			s-1.7-0.8-1.7-1.7v-7.7c0-1.1-0.5-2.2-1.3-2.9c-0.9-0.8-1.4-2-1.4-3.2c0-2.4,2-4.4,4.4-4.4c2.4,0,4.4,2,4.4,4.4
			C46.9,55.6,46.4,56.7,45.5,57.6z"/>
	</g>
</g>
<g>
	<g>
		<path d="M67.3,34.9h-6.1V18.6C61.1,8.4,52.8,0,42.5,0S23.9,8.4,23.9,18.6v16.2h-6.1c-3.4,0-6.1,2.8-6.1,6.1v37.9
			c0,3.4,2.8,6.1,6.1,6.1h49.5c3.4,0,6.1-2.8,6.1-6.1V41C73.4,37.6,70.6,34.9,67.3,34.9z M28,18.6c0-8,6.5-14.5,14.5-14.5
			c8,0,14.5,6.5,14.5,14.5v16.2H28V18.6z M69.3,78.9L69.3,78.9c0,1.1-0.9,2-2,2H17.8c-1.1,0-2-0.9-2-2V41c0-1.1,0.9-2,2-2h49.5
			c1.1,0,2,0.9,2,2V78.9z"/>
	</g>
</g>
</svg>
