<?xml version="1.0" encoding="UTF-8"?>
<!DOCTYPE svg PUBLIC "-//W3C//DTD SVG 1.1//EN" "http://www.w3.org/Graphics/SVG/1.1/DTD/svg11.dtd">
<!-- Creator: CorelDRAW X6 -->
<svg xmlns="http://www.w3.org/2000/svg" xml:space="preserve" width="270px" height="43px" version="1.1" style="shape-rendering:geometricPrecision; text-rendering:geometricPrecision; image-rendering:optimizeQuality; fill-rule:evenodd; clip-rule:evenodd"
viewBox="0 0 270 43"
 xmlns:xlink="http://www.w3.org/1999/xlink">
 <defs>
  <style type="text/css">
   <![CDATA[
    .fil0 {fill:#FEFEFE;fill-rule:nonzero}
   ]]>
  </style>
    <clipPath id="id0">
     <rect width="270" height="43.0004"/>
    </clipPath>
 </defs>
 <g id="Слой_x0020_1">
  <metadata id="CorelCorpID_0Corel-Layer"/>
  <g id="_2236775840">
   <g style="clip-path:url(#id0)">
    <image x="0" y="0" width="269.999" height="42.9992" xlink:href="logo_Images\logo_ImgID1.png"/>
   </g>
   <g>
    <polygon class="fil0" points="34,21 40,14 35,8 37,8 42,14 42,8 43,8 43,14 48,8 50,8 45,14 51,21 49,21 44,15 43,16 43,21 42,21 42,16 41,15 36,21 "/>
    <path class="fil0" d="M53 20l1 -1c0,1 1,1 2,1 1,0 1,-1 2,-2l0 0 -5 -10 2 0 4 8 4 -8 2 0 -6 11c-1,1 -1,2 -3,2 -1,0 -2,0 -3,-1z"/>
    <path class="fil0" d="M76 12c0,-1 -1,-2 -3,-2l-3 0 0 5 3 0c2,0 3,-1 3,-3zm-8 9l0 -13 5 0c3,0 4,2 4,4 0,2 -1,4 -4,4l-3 0 0 5 -2 0z"/>
    <polygon class="fil0" points="90,21 90,15 83,15 83,21 81,21 81,8 83,8 83,14 90,14 90,8 92,8 92,21 "/>
    <path class="fil0" d="M102 10l-3 7 5 0 -2 -7zm4 11l-1 -3 -7 0 -1 3 -1 0 5 -13 2 0 5 13 -2 0z"/>
    <path class="fil0" d="M110 20c2,0 3,-1 3,-5l1 -7 8 0 0 13 -2 0 0 -11 -5 0 0 5c-1,5 -2,6 -5,6l0 -1z"/>
   </g>
   <path class="fil0" d="M123 29c0,1 0,2 0,3 1,0 1,0 1,-1l0 2 0 0c0,0 0,0 0,0l0 5c-1,-1 -2,-2 -3,-4 -1,1 -1,2 -1,3 0,2 2,4 4,4l0 2c0,0 -1,0 -1,0 -3,0 -6,-2 -6,-5 0,-2 2,-4 4,-5 0,-1 -1,-2 -1,-3 0,-1 0,-2 2,-3l0 -1c1,0 1,0 2,-1l0 2c-1,0 -1,1 -1,2zm1 14c2,0 3,-1 4,-2 1,1 3,2 4,2 1,0 2,0 2,0 1,-1 2,-2 2,-3l0 0c-1,0 -1,1 -2,1 -1,0 -3,-1 -4,-2 1,-1 2,-2 2,-4 0,0 0,0 0,-1 1,0 2,1 3,1 0,-1 1,-2 1,-2l-8 0c0,0 -1,1 -1,1 1,0 2,0 2,0 1,1 1,2 1,2 0,1 0,2 -1,3 -2,-2 -3,-4 -5,-6l0 5c1,1 2,2 3,3 -1,0 -1,0 -2,0 -1,0 -1,0 -1,0l0 2zm0 -12c1,0 2,-1 2,-2 0,-1 -1,-2 -2,-2l0 0 0 -2c0,0 1,0 1,0 2,0 3,1 3,3 0,2 -2,4 -4,5l0 -2z"/>
   <g>
    <path class="fil0" d="M14 33l0 1 1 0c1,0 2,0 2,-1 1,-1 1,-1 1,-3 0,0 0,0 0,-1l3 -2c0,0 1,1 1,1 0,1 0,1 0,2 0,1 0,2 -1,3 0,1 -1,2 -2,2 1,1 1,2 2,3 1,1 2,2 3,3l1 1 0 1 -5 0 -1 -1c0,-1 -1,-2 -2,-3 0,-1 -1,-2 -1,-4l-2 0 0 6c0,0 0,1 1,1 0,0 0,0 1,0l0 1 -8 0 0 -1c0,0 0,0 1,0 0,0 0,-1 1,-1l0 -5 4 -3z"/>
    <path class="fil0" d="M42 25c0,1 -1,2 -1,3 0,1 0,1 0,2l-1 0 -1 -3 -5 0 0 6 3 0 1 -2 1 0c0,1 0,2 0,3 0,1 0,2 0,3l-1 0 -1 -2 -3 0 0 6 5 0 1 -3 1 0c0,1 1,1 1,1 0,1 0,1 0,2 0,0 0,0 0,1 0,0 0,1 0,1l-14 0 0 -1c0,0 1,0 1,0 0,0 1,-1 1,-1l0 -14c0,0 -1,0 -1,0 0,0 -1,-1 -1,-1l0 -1 14 0z"/>
    <path class="fil0" d="M59 43l-9 0 0 -1c0,0 0,0 1,0 0,0 1,-1 1,-1l0 -14 -3 0 -1 4 -1 0c-1,0 -1,0 -1,-1 0,0 0,-1 0,-2 0,0 0,-1 0,-1 0,-1 0,-1 0,-2l16 0c0,1 0,1 0,2 0,0 0,1 0,1 0,1 0,2 0,2 0,1 0,1 0,1l-1 0 -2 -4 -3 0 0 14c0,0 1,1 1,1 1,0 1,0 2,0l0 1z"/>
    <path class="fil0" d="M69 36l5 0 -2 -5 0 -2 -1 0 0 2 -2 5zm0 7l-6 0 0 -1c0,0 0,0 1,0 0,0 0,-1 1,-1l6 -16 2 0 7 16c0,0 0,1 1,1 0,0 0,0 1,0l0 1 -8 0 0 -1c0,0 0,0 1,0 0,0 0,-1 1,-1l-2 -4 -5 0 -2 4c1,0 2,1 2,1l0 1z"/>
    <path class="fil0" d="M93 43l-8 0 0 -1c1,0 1,0 2,-1l0 -14c0,0 -1,0 -1,0 0,0 -1,-1 -1,-1l0 -1 8 0 0 1c0,0 -1,1 -1,1 0,0 -1,0 -1,0l0 14c0,0 1,1 1,1 0,0 1,0 1,0l0 1z"/>
    <path class="fil0" d="M97 25l8 0 0 1c0,0 -1,1 -1,1 0,0 -1,0 -1,0l0 14 5 0 1 -4 1 0c0,0 1,1 1,1 0,1 0,1 0,2 0,1 0,1 0,2 0,0 0,1 0,1l-14 0 0 -1c0,0 1,0 1,0 0,0 1,-1 1,-1l0 -14c-1,0 -2,0 -2,-1l0 -1z"/>
   </g>
   <g>
    <path class="fil0" d="M140 25l9 0 0 1c-1,0 -1,0 -1,0 -1,1 -1,1 -2,1l0 14 5 0 2 -4 1 0c0,0 0,0 0,1 0,0 0,1 0,2 0,0 0,1 1,1 0,1 0,1 0,2l-15 0 0 -1c1,0 1,-1 1,-1 1,0 1,0 1,0l0 -14c0,0 -1,-1 -2,-1l0 -1z"/>
    <path class="fil0" d="M162 34c0,1 0,2 1,3 0,1 0,2 0,2 1,1 1,1 2,2 0,0 1,0 2,0 1,0 1,0 2,0 0,-1 1,-1 1,-2 0,0 1,-1 1,-2 0,-1 0,-2 0,-3 0,-1 0,-2 0,-3 0,-1 -1,-2 -1,-2 0,-1 -1,-2 -1,-2 -1,0 -2,-1 -3,-1 0,0 -1,1 -2,1 0,0 0,1 -1,2 0,0 0,1 0,2 -1,1 -1,2 -1,3zm-4 0c0,-1 0,-3 1,-4 0,-1 0,-2 1,-3 1,0 2,-1 3,-2 1,0 2,0 4,0 1,0 2,0 3,0 1,1 2,2 3,2 1,1 1,2 2,3 0,1 0,3 0,4 0,1 0,2 0,4 -1,1 -1,2 -2,2 -1,1 -2,2 -3,2 -1,1 -2,1 -3,1 -2,0 -3,0 -4,-1 -1,0 -2,-1 -3,-2 -1,0 -1,-1 -1,-2 -1,-2 -1,-3 -1,-4z"/>
    <path class="fil0" d="M189 25l7 0 0 1c-1,0 -1,0 -1,0 -1,1 -1,1 -1,1l-5 8 0 6c0,0 0,0 1,0 0,1 0,1 1,1l0 1 -8 0 0 -1c0,0 0,0 1,-1 0,0 1,0 1,0l0 -6 -5 -8c-1,0 -1,0 -1,-1 -1,0 -1,0 -1,0l0 -1 8 0 0 1c0,0 0,0 -1,0 0,1 0,1 -1,1l4 7 3 -7c0,0 0,0 -1,-1 0,0 0,0 -1,0l0 -1z"/>
    <path class="fil0" d="M202 35l4 0 -1 -4 -1 -3 0 0 0 3 -2 4zm0 8l-6 0 0 -1c0,0 0,0 1,-1 0,0 0,0 0,0l7 -16 2 0 7 16c0,0 0,0 1,0 0,1 0,1 0,1l0 1 -8 0 0 -1c1,0 1,0 1,-1 1,0 1,0 2,0l-2 -4 -6 0 -1 4c1,0 1,0 2,1l0 1z"/>
    <path class="fil0" d="M218 25l8 0 0 1c0,0 -1,0 -1,0 -1,1 -1,1 -1,1l0 14 5 0 1 -4 1 0c0,0 0,0 1,1 0,0 0,1 0,2 0,0 0,1 0,1 0,1 0,1 0,2l-14 0 0 -1c0,0 0,-1 1,-1 0,0 0,0 1,0l0 -14c-1,0 -2,-1 -2,-1l0 -1z"/>
    <path class="fil0" d="M245 43l-9 0 0 -1c1,0 1,0 2,-1 0,0 0,0 1,0l0 -14 -3 0 -2 4 -1 0c0,0 0,-1 0,-1 0,-1 0,-1 0,-2 0,0 0,-1 0,-2 0,0 0,-1 0,-1l16 0c0,0 0,1 0,1 0,1 0,2 0,2 0,1 0,1 0,2 0,0 0,1 -1,1l-1 0 -1 -4 -3 0 0 14c0,0 1,0 1,0 0,1 1,1 1,1l0 1z"/>
    <path class="fil0" d="M264 25l6 0 0 1c0,0 -1,0 -1,0 0,1 -1,1 -1,1l-5 8 0 6c1,0 1,0 1,0 1,1 1,1 1,1l0 1 -8 0 0 -1c0,0 1,0 1,-1 1,0 1,0 1,0l0 -6 -5 -8c0,0 -1,0 -1,-1 0,0 -1,0 -1,0l0 -1 8 0 0 1c0,0 0,0 0,0 -1,1 -1,1 -1,1l3 7 4 -7c-1,0 -1,0 -1,-1 -1,0 -1,0 -1,0l0 -1z"/>
   </g>
   <polygon class="fil0" points="16,11 0,11 0,23 "/>
   <path class="fil0" d="M23 9l0 0c0,-4 -4,-8 -8,-8 -5,0 -8,4 -8,8l-1 0c0,-4 4,-8 9,-8 4,0 8,4 8,8z"/>
   <path class="fil0" d="M23 10l0 0 -1 0 0 -1c0,-2 -1,-3 -2,-5 -2,-1 -3,-2 -5,-2 -2,0 -4,1 -5,2 -2,2 -2,3 -2,5l0 1 -1 0 -1 0 -1 0 0 -1c0,-2 1,-5 3,-6 2,-2 4,-3 7,-3 2,0 5,1 6,3 2,1 3,4 3,6l0 1 -1 0z"/>
   <path class="fil0" d="M29 21l0 -11 -10 0 -19 15 0 18 10 -7 0 -9c-1,0 -2,0 -2,-1l0 -1 2 0c1,0 1,0 2,0 0,0 0,0 1,0 0,0 1,0 1,0 1,0 1,0 2,0 1,0 2,0 2,0 1,1 2,1 2,1 1,1 1,1 1,1l8 -6zm-15 12l4 -4c0,0 0,0 0,0 0,-1 0,-1 -1,-1 0,-1 0,-1 -1,-1 0,0 -1,0 -1,0 -1,0 -1,0 -1,0l0 6z"/>
  </g>
 </g>
</svg>
