<svg class="svg-icon" xmlns="http://www.w3.org/2000/svg" viewBox="0 0 11.4 12.2" height="12.2" width="11.4">
    <title>Print</title>
    <path stroke="none" d="M1.8,9.7H2v2.2a.27.27,0,0,0,.3.3H9.1a.27.27,0,0,0,.3-.3V9.7h.2a1.79,1.79,0,0,0,1.8-1.8V4.3A1.79,1.79,0,0,0,9.6,2.5H9.4V.3A.27.27,0,0,0,9.1,0H2.3A.27.27,0,0,0,2,.3V2.6H1.8A1.79,1.79,0,0,0,0,4.4V8A1.77,1.77,0,0,0,1.8,9.7Zm7,1.9H2.6V9.7H8.8ZM2.6.6H8.8V4.2H2.6V.6ZM.6,4.3A1.22,1.22,0,0,1,1.8,3.1H2v1H1.4a.27.27,0,0,0-.3.3.27.27,0,0,0,.3.3H9.9a.27.27,0,0,0,.3-.3.27.27,0,0,0-.3-.3H9.4v-1h.2a1.22,1.22,0,0,1,1.2,1.2V7.9A1.22,1.22,0,0,1,9.6,9.1H1.8A1.16,1.16,0,0,1,.6,7.9V4.3Z"/>
    <path stroke="none" d="M2.3,7.9a.37.37,0,0,0,.4-.4.43.43,0,0,0-.4-.4.43.43,0,0,0-.4.4A.37.37,0,0,0,2.3,7.9Z"/>
    <path stroke="none" d="M8.1,3.2H3.3a.27.27,0,0,0-.3.3.27.27,0,0,0,.3.3H8.1a.27.27,0,0,0,.3-.3A.27.27,0,0,0,8.1,3.2Z"/>
    <path stroke="none" d="M8.1,2.1H3.3a.27.27,0,0,0-.3.3.27.27,0,0,0,.3.3H8.1a.27.27,0,0,0,.3-.3A.27.27,0,0,0,8.1,2.1Z"/>
</svg>
