<?xml version="1.0" encoding="utf-8"?>
<!-- Generator: Adobe Illustrator 22.1.0, SVG Export Plug-In . SVG Version: 6.00 Build 0)  -->
<svg version="1.1" id="Capa_1" xmlns="http://www.w3.org/2000/svg" xmlns:xlink="http://www.w3.org/1999/xlink" x="0px" y="0px"
	 viewBox="0 0 512 512" style="enable-background:new 0 0 512 512;" xml:space="preserve">
<style type="text/css">
	.st0{fill:#FFFFFF;}
</style>
<g>
	<g>
		<path class="st0" d="M310.7,260.2l-38.2-14.7l-21.9-21.9c-1.4-1.4-3.3-2.2-5.2-2.2v-17.9c10.4-11,17.8-25,20.7-40.8c0,0,0,0,0,0
			c1.9,0.1,3.8,0,5.7-0.4c10.3-2.1,17.8-11.7,17.8-22.8v-5.7c0-6.5-2.7-12.4-7-16.7c7-37.9,1.4-68.7-16.5-89.3
			C248.9,7.8,221.2-1.7,185.9,0.2c-32.9,1.8-54,17-60.4,22.4c-9.1,1.2-35.1,7.8-35.1,44.1c0,20.1,3.3,36.9,5.6,46.1
			c-7.7,3.6-12.9,11.7-12.9,20.9v5.7c0,11.1,7.5,20.6,17.8,22.8c1.9,0.4,3.8,0.5,5.7,0.4c0,0,0,0,0,0c2.9,15.8,10.3,29.8,20.7,40.8
			v17.9c-1.9,0-3.7,0.8-5.2,2.2l-21.9,21.9l-43,16.6c-20.7,8-34,28.2-33.1,50.3l6.1,152.4c0.2,4,3.5,7.2,7.5,7.2c0.1,0,0.2,0,0.3,0
			c4.1-0.2,7.4-3.7,7.2-7.8l-6.1-152.4c-0.2-4,0.3-8,1.4-11.8l24.4,24.4c6.9,6.9,10.8,16.2,10.8,26v114.1c0,4.1,3.4,7.5,7.5,7.5
			c4.1,0,7.5-3.4,7.5-7.5V350.3c0-13.8-5.4-26.8-15.1-36.6L48,286.3c3.9-4.5,8.8-8,14.6-10.2l40.1-15.5l30.6,45.9
			c3.7,5.6,9.7,9.1,16.3,9.8c0.7,0.1,1.5,0.1,2.2,0.1c4.1,0,8.1-1.1,11.5-3.2l-6.6,151c-0.2,4.1,3,7.6,7.2,7.8c0.1,0,0.2,0,0.3,0
			c4,0,7.3-3.1,7.5-7.2l6.1-140h17l6.1,140c0.2,4,3.5,7.2,7.5,7.2c0.1,0,0.2,0,0.3,0c4.1-0.2,7.3-3.7,7.2-7.8l-6.6-151
			c3.5,2.1,7.4,3.2,11.5,3.2c0.7,0,1.5,0,2.2-0.1c6.7-0.7,12.6-4.2,16.3-9.8l30.6-45.9l35.3,13.6c0.9,0.3,1.8,0.5,2.7,0.5
			c3,0,5.9-1.8,7-4.8C316.5,266,314.6,261.7,310.7,260.2z M121.3,159.8c-1.4-7.4-8.2-12.7-15.6-12.2c-0.6,0-1.3,0-1.9-0.1
			c-3.3-0.7-5.8-4.1-5.8-8.1v-5.7c0-3.8,2.6-7.3,5.9-7.9c2.8-0.5,5.4,0.5,7.1,2.7c1.4,1.8,3.3,3.1,5.4,3.8c3.1,0.9,6.5,0.4,9.2-1.5
			c6.1-4.3,11.3-9.8,15.4-16.2c2.2-3.5,1.2-8.1-2.3-10.4c-3.5-2.2-8.1-1.2-10.4,2.3c-2.3,3.7-5.1,6.9-8.3,9.7
			c-2.6-2.2-5.6-3.9-8.8-4.7c-2-7.6-5.7-24.4-5.7-44.9c0-12.2,3.8-20.8,11.3-25.5c5.8-3.7,12-3.8,12-3.8c1.9,0,3.8-0.8,5.2-2.1
			c0.2-0.2,19.6-18.2,53-20c30.5-1.7,54,6.1,68.1,22.3c14.2,16.4,18.9,41.7,13.7,73.3c-2.3-0.1-4.8,0.1-7.2,0.5l-7.5-18.1
			c-1.4-3.5-5.2-5.3-8.8-4.4c-0.7,0.2-73.6,18.8-104.4-19.5c-2.6-3.2-7.3-3.7-10.5-1.1c-3.2,2.6-3.7,7.3-1.2,10.5
			c31.2,38.8,93.3,30.1,113.5,26l5.8,14c2.4,5.7,8.5,8.9,14.5,7.4c2.4-0.6,4.9-0.7,6.1-0.4c3.4,0.7,5.9,4,5.9,7.8v5.7
			c0,3.9-2.5,7.4-5.8,8.1c-0.7,0.1-1.3,0.2-1.9,0.1c-7.4-0.5-14.2,4.8-15.6,12.2c-5.8,31.4-33.1,54.2-65,54.2
			C154.4,213.9,127.1,191.2,121.3,159.8z M156.9,299.2c-1.5,1.5-3.7,2.3-5.8,2.1c-2.2-0.2-4.1-1.4-5.3-3.2l-30.8-46.3l12.8-12.8
			l47.6,41.7L156.9,299.2z M178.4,309.8l0.5-11.4l7.4-7.4l7.4,7.4l0.5,11.4H178.4z M186.3,270.4l-44.1-38.6v-15.9
			c12.8,8.3,28,13,44.1,13c16.1,0,31.3-4.8,44.1-13v15.9L186.3,270.4z M226.9,298.1c-1.2,1.8-3.1,3-5.3,3.2c-1.3,0.1-3.7,0-5.8-2.1
			l-18.5-18.5l47.6-41.7l12.8,12.8L226.9,298.1z"/>
	</g>
</g>
<g>
	<g>
		<path class="st0" d="M488,352.2c0-17.4-14.2-31.5-31.5-31.5h-48.6v-16.5c0-13-10.6-23.5-23.5-23.5h-48.1
			c-13,0-23.5,10.6-23.5,23.5v16.5H264c-17.4,0-31.5,14.2-31.5,31.5v22.3c0,8.2,2.8,16.1,8,23.4v83.4c0,16.9,13.8,30.7,30.7,30.7
			h178c16.9,0,30.7-13.8,30.7-30.7v-83.4c5.3-7.3,8-15.2,8-23.4L488,352.2L488,352.2z M327.6,304.1L327.6,304.1
			c0-4.7,3.8-8.5,8.5-8.5h48.1c4.7,0,8.5,3.8,8.5,8.5v16.5h-65.2V304.1z M473,374.5c0,12.9-12.2,25.6-33.1,35.2v-1.3
			c0-4.1-3.4-7.5-7.5-7.5h-32.1c-4.1,0-7.5,3.4-7.5,7.5v24c0,13,10.6,23.5,23.5,23.5c13,0,23.5-10.6,23.5-23.5v-6.4
			c9.7-3.9,18.1-8.4,25.1-13.5v68.8c0,8.7-7.1,15.7-15.7,15.7h-178c-8.7,0-15.7-7.1-15.7-15.7v-68.8c6.9,5,15.3,9.6,25.1,13.5v6.4
			c0,13,10.6,23.5,23.5,23.5c11.1,0,20.5-7.8,22.9-18.2c10.8,1.4,21.9,2.2,33.2,2.2c2.7,0,5.5,0,8.3-0.1c4.1-0.1,7.4-3.6,7.3-7.7
			c-0.1-4.1-3.6-7.4-7.7-7.3c-2.6,0.1-5.2,0.1-7.8,0.1c-11.1,0-22-0.8-32.6-2.2v-14.3c0-4.1-3.4-7.5-7.5-7.5h-32.1
			c-4.1,0-7.5,3.4-7.5,7.5v1.3c-20.9-9.5-33.1-22.3-33.1-35.2v-22.3c0-9.1,7.4-16.5,16.5-16.5h192.4c9.1,0,16.5,7.4,16.5,16.5V374.5
			z M424.9,415.8v16.5c0,4.7-3.8,8.5-8.5,8.5s-8.5-3.8-8.5-8.5v-16.5H424.9z M295.6,432.4v-16.5h17.1v16.5c0,4.7-3.8,8.5-8.5,8.5
			C299.4,440.9,295.6,437.1,295.6,432.4z"/>
	</g>
</g>
</svg>
