<svg version="1.1" xmlns="http://www.w3.org/2000/svg" x="0px" y="0px"
	 viewBox="0 -3 15 23" width="17" height="17">
<style type="text/css">
	.st0{fill:#B71752;}
</style>
<path class="st0" d="M8.5,17C3.8,17,0,13.2,0,8.5C0,3.8,3.8,0,8.5,0C13.2,0,17,3.8,17,8.5C17,13.2,13.2,17,8.5,17z M8.5,1
	C4.4,1,1,4.4,1,8.5C1,12.6,4.4,16,8.5,16c4.1,0,7.5-3.4,7.5-7.5C16,4.4,12.6,1,8.5,1z"/>
<path class="st0" d="M13.5,10.3C13.5,10.3,13.4,10.2,13.5,10.3l-5.8-1C7.4,9.2,7,9,7,8.8V2.3C7,2,7.2,1.8,7.5,1.8C7.8,1.8,8,2,8,2.3
	v6.1l5.3,0.9c0.3,0,0.6,0.3,0.5,0.6C13.8,10.1,13.7,10.3,13.5,10.3z"/>
</svg>
