<svg version="1.1" xmlns="http://www.w3.org/2000/svg" x="0px" y="0px"
	 viewBox="0 0 20 13" width="20" height="13">
<style type="text/css">
	.st0{fill:#9B1D51;}
</style>
<path class="st0" d="M10,1c4,0,7.5,4,8.7,5.5C17.5,8,14,12,10,12c-4,0-7.5-4-8.7-5.5C2.5,5,6,1,10,1 M10,0C4.5,0,0,6.5,0,6.5
	S4.5,13,10,13c5.5,0,10-6.5,10-6.5S15.5,0,10,0z"/>
<path class="st0" d="M10,9.3C8.5,9.3,7.2,8,7.2,6.5C7.2,5,8.5,3.7,10,3.7c1.5,0,2.8,1.2,2.8,2.8C12.8,8,11.5,9.3,10,9.3z M10,4.7
	c-1,0-1.8,0.8-1.8,1.8c0,1,0.8,1.8,1.8,1.8c1,0,1.8-0.8,1.8-1.8C11.8,5.5,11,4.7,10,4.7z"/>
</svg>
