<svg xmlns="http://www.w3.org/2000/svg" width="70" viewBox="8000 7500 10000 9700" shape-rendering="geometricPrecision" text-rendering="geometricPrecision" image-rendering="optimizeQuality" fill-rule="evenodd" clip-rule="evenodd"><defs><style>.str0{stroke:#000;stroke-width:7.62}.fil0{fill:#000}</style></defs><path class="fil0 str0" d="M13617 13885c-84 75-1224 97-1110-140 110-230 398-627 543-887 260-463 336-942 401-205 14 157 187 1186 166 1232zm-1134-2879c-114 210 295 241 442 345 176 125-29 401-105 544-175 330-387 744-558 1099-280 579-264 748-762 254-952-942-1016-2575-111-3577 243-270 646-563 982-675 178-59 551-110 670-163 399-179 168-160 569-145 544 21 1623 893 1893 1421 402 788 249 1922-200 2653-224 365-454 606-820 836-296 185-257-82-313-360-48-242-82-466-126-707-55-297 20-1355-165-1471-220-139-1229-235-1396-54zm-2809 6026h201c0-16 1417-1533 1581-1762 157-220 523-913 786-817 498 181 1438 97 1469 108 1 1 415 1387 497 1562 319 683 1311 262 1074-81-237-342-541-985-680-1377-168-470-165-264 254-533 228-147 377-288 565-469 766-736 1146-2197 764-3142-352-868-981-1817-2017-2100-439-120-369-154-870-154-161 0-931-26-1017 17-520 257-839 337-1265 792-833 891-1089 1864-892 3068 115 706 648 1413 1221 1862 330 259 234 197-8 573-253 393-528 819-827 1231-254 351-836 854-836 1222z" id="Слой_x0020_1"/></svg>