<svg xmlns="http://www.w3.org/2000/svg" width="242" height="61" viewBox="0 0 242 61"><g fill="#1A9F29"><path d="M63.315 28.208c1.002 1.103 2.205 1.904 3.709 2.506 1.503.603 3.208.903 5.313.903 1.002 0 2.004-.101 2.807-.201a7.789 7.789 0 0 0 2.306-.601c.702-.201 1.303-.501 1.904-.703.501-.3 1.003-.5 1.404-.702l-.802-1.502-1.203.601c-.4.2-.802.301-1.303.501-.501.101-1.002.301-1.604.301-.602.099-1.303.099-2.105.099-1.504 0-2.806-.299-3.709-.901-1.002-.601-1.704-1.403-2.306-2.305a12.04 12.04 0 0 1-1.102-3.509 30.422 30.422 0 0 1-.301-4.41c0-1.204.1-2.507.2-3.81.101-1.303.401-2.406.902-3.409.501-1.002 1.103-1.804 2.005-2.506.902-.602 2.105-1.002 3.609-1.002 1.403 0 2.606.4 3.608 1.103 1.003.702 1.604 1.904 1.905 3.408h1.604V7.158a26.15 26.15 0 0 0-1.604-.602c-.601-.2-1.203-.301-1.905-.401-.701-.101-1.303-.101-2.004-.201-.602 0-1.203-.1-1.704-.1-2.206 0-4.01.301-5.614.902-1.503.602-2.807 1.503-3.809 2.606-1.003 1.103-1.705 2.506-2.206 4.11-.501 1.603-.702 3.508-.702 5.514 0 1.904.201 3.708.702 5.212.401 1.704 1.103 3.008 2.005 4.01zm97.788 2.607a8.537 8.537 0 0 0 3.309-1.003c1.003-.602 1.805-1.403 2.306-2.506.602-1.102.902-2.606.902-4.51 0-1.404-.2-2.506-.603-3.508-.4-1.002-1.002-1.705-1.904-2.406-.901-.603-2.004-1.003-3.407-1.304-1.403-.3-3.107-.4-5.112-.4h-2.105V9.312c0-.601.1-1.002.401-1.202.3-.201.801-.201 1.604-.201h3.006c.904 0 1.705 0 2.308.1.602.101 1.102.201 1.402.501.4.301.703.701.903 1.203.2.501.5 1.203.701 2.105h1.303V6.305h-18.444v.801c.101 0 .2.1.501.1.3.1.501.202.602.302.099.1.2.3.3.602 0 .301.101.601.101 1.002v19.096c0 .401 0 .802-.101 1.002 0 .301-.1.501-.3.602-.101.1-.302.3-.602.3-.301.1-.4.1-.501.1v.803h9.272c1.551.001 2.856.001 4.158-.2zm-6.116-1.805c-.199-.2-.3-.4-.3-.702 0-.301-.101-.701-.101-1.203V16.681h2.105c1.905 0 3.309.5 4.11 1.503.801 1.003 1.202 2.607 1.202 4.812 0 1.504-.1 2.606-.401 3.509-.301.902-.6 1.503-1.103 2.004-.5.401-1.003.702-1.503.901-.601.101-1.202.202-1.804.202-.602-.101-1.104-.101-1.404-.202-.299-.099-.6-.2-.801-.4zm-20.197 1.202c-.102 0-.202-.1-.502-.1-.302-.1-.501-.2-.602-.3-.101-.101-.2-.301-.3-.602 0-.3-.102-.601-.102-1.002v-6.917h2.507c1.303 0 2.506-.101 3.708-.301a9.467 9.467 0 0 0 3.107-1.103c.903-.601 1.604-1.303 2.104-2.405.503-1.003.804-2.407.804-4.11 0-1.604-.301-2.907-.701-3.81-.503-.902-1.204-1.704-2.006-2.205-.801-.501-1.803-.802-2.907-.902-1.103-.1-2.205-.201-3.408-.201h-9.823v.802c.101 0 .2.101.502.101.299.1.5.2.601.3.101.101.2.301.3.602 0 .301.102.602.102 1.003v18.996c0 .4 0 .802-.102 1.002 0 .301-.1.501-.3.601-.101.1-.302.301-.601.301-.302.1-.401.1-.502.1v.802h8.12v-.652zm-1.403-21.1c0-.2 0-.401.1-.602 0-.2.1-.3.2-.401.101-.1.3-.2.602-.2.3 0 .603-.101 1.103-.101.601 0 1.202.101 1.805.201.601.201 1.002.501 1.503.902.401.4.702 1.002 1.003 1.704.2.702.301 1.604.301 2.606 0 2.105-.301 3.709-.902 4.813-.603 1.102-1.704 1.703-3.207 1.703h-2.506V9.112zm-9.976 16.19h-1.604a18.587 18.587 0 0 1-.602 2.305c-.2.601-.401 1.002-.801 1.303-.301.3-.803.5-1.403.5-.602.101-1.403.101-2.507.101-1.001 0-1.804 0-2.305-.101-.601-.099-1.003-.2-1.303-.4-.301-.2-.501-.501-.501-.802-.1-.401-.1-.802-.1-1.403v-7.819h4.31c.4 0 .802.1 1.203.1.4 0 .801.101 1.203.201.4.1.702.2 1.002.4v-3.208c-.3.201-.602.301-1.002.401-.401.1-.802.2-1.203.2-.401.1-.803.1-1.203.1h-4.31V9.01c0-.501.1-.901.2-1.102.2-.201.501-.201 1.002-.201h2.707c.902 0 1.704 0 2.306.1.601.101 1.101.201 1.404.501.4.301.7.701.901 1.203.201.501.501 1.203.703 2.105h1.302V6.305h-17.192v.801c.101 0 .201.1.501.1.301.1.501.202.602.302.1.1.2.3.301.602 0 .301.1.601.1 1.002v18.997c0 .4 0 .802-.1 1.002 0 .299-.101.501-.301.601-.101.101-.301.301-.602.301-.3.1-.4.1-.501.1v.802h17.793v-5.613zm-27.216 5.513a8.537 8.537 0 0 0 3.309-1.003 6.447 6.447 0 0 0 2.406-2.506c.601-1.102.902-2.606.902-4.51 0-1.404-.2-2.506-.601-3.508-.401-1.002-1.002-1.705-1.904-2.406-.902-.603-2.005-1.003-3.409-1.304-1.403-.3-3.107-.4-5.112-.4h-2.105V9.312c0-.601.1-1.002.401-1.202.301-.201.803-.201 1.604-.201h3.007c.902 0 1.704 0 2.306.1.6.101 1.101.201 1.402.501.401.301.702.701.902 1.203.201.501.501 1.203.702 2.105h1.303V6.305H82.913v.801c.101 0 .2.1.501.1.301.1.501.202.601.302s.201.3.301.602c0 .301.1.601.1 1.002v19.045c0 .401 0 .702-.1 1.002 0 .301-.1.501-.301.601-.1.101-.301.301-.601.301-.301.101-.401.101-.501.101v.853h9.272c1.554.001 2.707.001 4.01-.2zM90.13 29.01c-.2-.2-.3-.4-.3-.702 0-.301-.101-.701-.101-1.203V16.681h2.105c1.904 0 3.308.5 4.109 1.503.802 1.003 1.203 2.607 1.203 4.812 0 1.504-.1 2.606-.401 3.509-.301.902-.601 1.503-1.102 2.004a5.917 5.917 0 0 1-1.504.901c-.602.101-1.204.202-1.805.202-.602-.101-1.002-.101-1.404-.202-.298-.099-.599-.2-.8-.4zm-29.622 8.972H241.85v2.405H60.508zm166.756-16.29c.502.701.902 1.303 1.402 1.905.403.602.904 1.203 1.305 1.804.4.602.802 1.203 1.304 1.805.5.702.901 1.303 1.304 2.004.399.602.701 1.304 1.002 1.905l8.42.1c-.903-.901-1.705-1.805-2.606-2.706-.802-.902-1.504-1.704-2.004-2.205a166.777 166.777 0 0 1-2.105-2.406 271.83 271.83 0 0 1-1.905-2.205c-.603-.702-1.203-1.503-1.704-2.205s-1.103-1.604-1.604-2.406l.401-.501c.602-.802 1.302-1.604 2.105-2.606.801-1.002 1.602-2.005 2.506-2.907.902-1.002 1.704-1.905 2.606-2.707.901-.802 1.603-1.404 2.305-1.904h-5.815c-.199.5-.5 1.103-.9 1.804-.401.702-.803 1.504-1.403 2.306-.502.803-1.104 1.705-1.604 2.607-.602.902-1.103 1.704-1.704 2.506-.602.802-1.103 1.604-1.604 2.206-.501.701-.901 1.203-1.202 1.704.497.699.999 1.401 1.5 2.102z"/><path d="M226.563 30.212c-.101 0-.2-.1-.501-.1-.301-.1-.502-.2-.602-.3-.101-.101-.2-.301-.301-.602 0-.3-.1-.601-.1-1.002V9.211c0-.4 0-.801.1-1.001 0-.301.101-.501.301-.602.1-.1.301-.2.602-.302.301-.1.4-.1.501-.1v-.901h-8.119v.801c.099 0 .199.1.501.1.301.1.502.202.601.302.101.1.201.3.302.602 0 .301.1.601.1 1.002v18.997c0 .4 0 .802-.1 1.002 0 .299-.101.501-.302.601-.099.101-.3.301-.601.301-.302.1-.402.1-.501.1v.802h8.119v-.703zm-53.781-2.205c.301-1.403.901-3.407 1.704-5.914h7.919l1.103 3.208c.5 1.403.901 2.606 1.103 3.608.302 1.002.501 1.704.501 2.205h6.316c-.302-.501-.602-1.203-1.002-2.004-.401-.803-.904-2.005-1.404-3.509l-5.714-16.189c-.302-.702-.4-1.303-.501-1.805-.101-.502-.101-.903-.201-1.203h-7.118v.801c.102 0 .201.1.502.1.301.102.501.202.603.302.099.1.2.301.3.602v.501c0 .601-.1 1.203-.3 1.604l-4.011 9.773c-.702 1.805-1.403 3.409-1.904 4.611-.502 1.203-1.002 2.306-1.304 3.108-.4.802-.7 1.504-1.003 2.005-.3.501-.501.902-.7 1.303h4.511c.099-.7.299-1.704.6-3.107zm5.713-17.592l3.309 9.974h-6.816l3.507-9.974zm22.404 19.797h-.2c-.101 0-.2-.1-.501-.1-.301-.1-.5-.2-.602-.3-.1-.101-.2-.301-.3-.602 0-.3-.101-.601-.101-1.002v-9.523h9.573v9.373c0 .4 0 .802-.1 1.002 0 .301-.101.501-.301.601-.103.1-.302.301-.603.301-.301.1-.4.1-.502.1v.802h8.12v-.802c-.1 0-.2-.1-.5-.1-.301-.1-.502-.201-.603-.301-.1-.1-.2-.3-.3-.601 0-.301-.101-.602-.101-1.002V8.961c0-.4 0-.802.101-1.002 0-.3.1-.501.3-.601.101-.101.302-.2.603-.301.3-.101.4-.101.5-.101v-.701h-7.919v.802c.101 0 .202.101.501.101.3.1.501.2.603.3.101.101.2.301.3.602 0 .301.101.602.101 1.003v7.918h-9.573V9.112c0-.401 0-.802.101-1.002 0-.301.1-.501.301-.601.1-.1.301-.202.601-.302.301-.1.401-.1.501-.1v-.802h-8.119v.801c.1 0 .2.1.501.1.301.1.501.202.602.302s.2.3.302.601c0 .301.099.602.099 1.002v19.097c0 .401 0 .702-.099 1.002 0 .301-.102.501-.302.602-.101.1-.301.3-.602.3-.301.1-.401.1-.501.1v.803h8.119v-.803zm-34.884 22.306c.903-.351 1.354-1.003 1.354-2.056 0-1.653-1.103-2.405-3.007-2.405h-3.007v9.272h3.208c2.203 0 3.256-.953 3.256-2.506-.001-1.204-.6-1.956-1.804-2.305zm-3.608-3.41h1.804c1.252 0 1.955.452 1.955 1.555 0 1.053-.602 1.654-1.955 1.654h-1.804v-3.209zm2.054 7.319h-2.054v-3.358h2.054c1.455 0 2.155.551 2.155 1.653 0 1.204-.7 1.705-2.155 1.705zm7.669-4.912c.601 0 1.054.251 1.554.602l.301-.853c-.501-.35-1.053-.601-1.804-.601-1.805 0-3.107 1.201-3.107 3.509 0 2.255 1.202 3.358 2.905 3.358.752 0 1.456-.251 1.956-.602l-.251-.853c-.45.351-.953.501-1.554.501-1.102 0-1.955-.801-1.955-2.505 0-1.805.853-2.556 1.955-2.556zm5.964-.752c-1.653 0-3.007 1.203-3.007 3.51 0 2.256 1.304 3.357 3.107 3.357.752 0 1.705-.252 2.406-.701l-.25-.853c-.753.351-1.354.602-2.056.602-1.178 0-1.921-.626-2.047-2.205h4.503v-.502c.001-2.156-1.102-3.208-2.656-3.208zm-1.854 2.807c.101-1.354.852-2.056 1.854-2.056.953 0 1.655.602 1.655 2.056h-3.509zm6.215 3.759h1.103v-5.663h2.907v-.853h-4.01zm10.477-6.516h-4.312c0 3.809-.651 5.112-1.403 5.764h-.501v2.507h1.052v-1.706h4.813v1.706h1.052v-2.507h-.7v-5.764zm-1.205 5.715h-3.357c.602-.702 1.104-1.855 1.203-4.813h2.154v4.813zm8.372-3.609c0-1.655-.902-2.256-2.257-2.256-1.002 0-1.954.251-2.655.702l.25.851c.702-.352 1.354-.602 2.306-.65.902 0 1.354.299 1.354 1.354v.451c-.451-.103-.802-.103-1.053-.103-2.155 0-3.106.904-3.106 2.258 0 1.252.852 1.954 1.953 1.954.853 0 1.555-.352 2.156-.951 0 .5.05.751.15.85h1.053c-.051-.148-.15-.4-.15-1.452v-3.008zm-1.154 2.806c-.501.502-1.203.953-1.904.853-.701 0-1.204-.351-1.204-1.203 0-.852.503-1.302 2.056-1.302.301 0 .552 0 1.053.1v1.552zm9.022-5.062c-.852 0-1.554.4-2.155 1.103v-.952h-1.001v9.272h1.102v-3.509c.501.602 1.203.953 1.955.953 1.454 0 2.656-1.204 2.656-3.51-.001-2.156-1.102-3.357-2.557-3.357zm-.351 6.015c-.702 0-1.303-.352-1.805-.953v-3.108c.553-.601 1.254-1.002 1.905-.95 1.002 0 1.705.751 1.705 2.506.001 1.753-.751 2.505-1.805 2.505zm4.41-3.91c0 .852.453 1.453 1.203 1.705l-1.703 2.856h1.102l1.555-2.656h1.804v2.656h1.104v-6.516h-2.557c-1.555 0-2.508.652-2.508 1.955zm4.062-1.052v2.305h-1.455c-1.102 0-1.553-.45-1.553-1.202 0-.651.451-1.103 1.553-1.103h1.455zm8.769-.903h-4.311c0 3.809-.7 5.112-1.402 5.764h-.502v2.507h1.053v-1.706h4.812v1.706h1.053v-2.507h-.702v-5.764zm-1.202 5.715h-3.358c.602-.702 1.103-1.855 1.203-4.813h2.155v4.813zm6.116-5.915c-1.653 0-3.008 1.053-3.008 3.459 0 2.405 1.253 3.458 2.907 3.458s3.007-1.104 3.007-3.458c0-2.406-1.254-3.459-2.906-3.459zm-.101 6.014c-1.053 0-1.904-.751-1.904-2.555 0-1.807.852-2.558 1.904-2.558 1.002 0 1.905.751 1.905 2.558 0 1.804-.852 2.555-1.905 2.555zm11.578-5.814v.05h-1.453l-1.554 3.858c-.15.502-.352 1.055-.501 1.556-.05-.501-.351-1.054-.502-1.556l-1.453-3.959h-1.303l-.703 6.517h1.054l.35-3.709c.102-.502.102-1.253.102-1.706.1.453.601 1.656.601 1.656l1.454 3.809h.951l1.556-3.809c.25-.602.501-1.404.602-1.656 0 .453.1 1.154.1 1.656l.35 3.809h1.055l-.603-6.516h-.103zM43.989 8.883a32.961 32.961 0 0 0-1.541-2.093L14.784 22.702 1.359 14.987a22.225 22.225 0 0 0-.629 2.622l14.055 8.086L43.989 8.883z"/><path d="M14.784 28.69L.389 20.403a15.73 15.73 0 0 0-.068 1.582c0 13.148 10.641 23.794 23.8 23.794 13.148 0 23.791-10.646 23.791-23.794 0-3.905-.938-7.598-2.606-10.847L14.784 28.69z"/><path d="M40.627 4.848a21.61 21.61 0 0 0-2.09-1.792L14.784 16.705l-11.348-6.51c-.425.739-.797 1.529-1.166 2.325l12.514 7.187L40.627 4.848z"/><path d="M36.125 1.436A23.896 23.896 0 0 0 33.352.051L14.784 10.722 6.513 5.968A24.809 24.809 0 0 0 4.85 8.007l9.935 5.719 21.34-12.29z"/></g></svg>