<?xml version="1.0" encoding="utf-8"?>
<!-- Generator: Adobe Illustrator 20.1.0, SVG Export Plug-In . SVG Version: 6.00 Build 0)  -->
<svg version="1.1" id="Слой_1" xmlns="http://www.w3.org/2000/svg" xmlns:xlink="http://www.w3.org/1999/xlink" x="0px" y="0px"
	 viewBox="10 10 72.5 60.3" style="enable-background:new 0 0 92.5 70.3;" xml:space="preserve" width="67">
<style type="text/css">
	.st0{fill:#0E6897;}
	.st1{fill:#FFBF00;}
	.st2{fill:none;}
	.st3{fill:#FF7F00;}
</style>
<g>
	<path class="st0" d="M79.1,21.8c0,0,0-1-5.8-1c-2.7,0-2.3,2.8-2.3,3.3c0,0.5-0.5,1-0.5,1s0,0-0.3-0.5c-3.2-5.9-5-7.5-7.4-10.2
		c-1.9-2.1-4.1-2.1-4.1-2.1H46.2v1.9l11.1,0c0,0,1.4,0.1,2.4,0.6c3,1.5,7.6,9.7,7.6,9.7c0.7,1.1-1,0.7-1,0.7H46.2v3.7H59
		c0.3,0,0.5,0.2,0.5,0.5v0c0,0.3-0.2,0.5-0.5,0.5H46.2v8.6h13.5c0,0,1.2,0.1,1.2,1.2c0,1.3-3.6,4.1-14.6,4.1c0,0,0,0,0,0v2.8
		c8.8,0,11.7,1.4,11.7,2c0,0.5-1,0.6-1,0.6H46.2v2.6c0,0,19.9,0,22.3,0c2.4,0,2.9-0.7,2.9-0.7s2.8-2.8,3.9-3.9c1.1-1.1,1-2.2,1-2.2
		s0-10.8,0-13.5c0-2.7-3.6-4.1-4.7-4.8c0.1-1.2,0.4-0.9,2.6-0.8c2.2,0.1,4.1-0.3,4.8-1.8C79.6,22.7,79.1,21.8,79.1,21.8z M74.5,34.1
		c0,0,0.2,1.9-0.8,2.8c-1.7,1.4-4.5,1.7-6.7,1.7s-3,0-3,0S74,29.1,74.5,34.1z"/>
	<g>
		<path class="st1" d="M76.2,47.4v8.5c0,0,0.1,2.2-2.2,2.2s-6.6,0-6.6,0s-2.2,0.2-2.2-2.2c0-2.3,0-3.9,0-3.9l3.3,0
			c0,0,2.3,0.3,3.4-1c1.5-1.4,4.4-4.4,4.4-4.4L76.2,47.4z"/>
	</g>
	<g>
		<path class="st2" d="M73.7,36.9c1-0.9,0.8-2.8,0.8-2.8c-0.5-5-10.6,4.5-10.6,4.5s0.8,0,3,0S72,38.3,73.7,36.9z"/>
		<path class="st2" d="M62.8,14.3c-1.9-2.1-4.1-2.1-4.1-2.1H46.2v1.9l11.1,0c0,0,1.4,0.1,2.4,0.6c1.9,0.9,4.5,4.6,6.1,7.2
			c0.6-0.6,1.2-1.1,1.8-1.6C65.8,17.6,64.5,16.3,62.8,14.3z"/>
		<path class="st2" d="M56.6,48.9H46.2v2.6c0,0,5.4,0,10.9,0C56.9,50.6,56.7,49.7,56.6,48.9z"/>
		<path class="st2" d="M56.4,42.4c-2.3,0.7-5.6,1.1-10.1,1.1c0,0,0,0,0,0v2.8c5.4,0,8.6,0.5,10.2,1.1C56.3,45.7,56.3,44.1,56.4,42.4
			z"/>
		<path class="st2" d="M46.2,25v3.7H59c0.3,0,0.5,0.2,0.5,0.5v0c0,0.3-0.2,0.5-0.5,0.5H46.2v8.6h10.7c1-5,3.1-9.5,6-13.2H46.2z"/>
		<path class="st1" d="M68.5,51.5c2.4,0,2.9-0.7,2.9-0.7s2.8-2.8,3.9-3.9c1.1-1.1,1-2.2,1-2.2s0-10.8,0-13.5c0-2.7-3.6-4.1-4.7-4.8
			c0.1-1.2,0.4-0.9,2.6-0.8c2.2,0.1,4.1-0.3,4.8-1.8c0.5-1,0-1.9,0-1.9s0-1-5.8-1c-2.7,0-2.3,2.8-2.3,3.3c0,0.5-0.5,1-0.5,1
			s0,0-0.3-0.5c-1-1.8-1.8-3.2-2.6-4.3c-0.6,0.5-1.2,1-1.8,1.6c0.9,1.4,1.5,2.5,1.5,2.5c0.7,1.1-1,0.7-1,0.7h-3.4
			c-2.9,3.7-5,8.2-6,13.2h2.8c0,0,1.2,0.1,1.2,1.2c0,0.8-1.2,2.1-4.5,3c-0.1,1.7-0.1,3.3,0.1,4.9c1,0.3,1.5,0.7,1.5,0.9
			c0,0.5-1,0.6-1,0.6h-0.3c0.1,0.9,0.3,1.7,0.5,2.6C62.1,51.5,67.3,51.5,68.5,51.5z M74.5,34.1c0,0,0.2,1.9-0.8,2.8
			c-1.7,1.4-4.5,1.7-6.7,1.7s-3,0-3,0S74,29.1,74.5,34.1z"/>
	</g>
	<g>
		<path class="st0" d="M13.4,23.7c0.8,1.5,2.6,1.9,4.8,1.8c2.2-0.1,2.5-0.4,2.6,0.8c-1.1,0.8-4.7,2.1-4.7,4.8c0,2.7,0,13.5,0,13.5
			s-0.1,1.1,1,2.2c1.1,1.1,3.9,3.9,3.9,3.9s0.4,0.7,2.9,0.7c2.4,0,22.3,0,22.3,0v-2.6H35.6c0,0-1,0-1-0.6c0-0.7,2.9-2,11.7-2v-2.8
			c0,0,0,0,0,0c-11,0-14.6-2.8-14.6-4.1c0-1.1,1.2-1.2,1.2-1.2h13.5v-8.6H33.5c-0.3,0-0.5-0.2-0.5-0.5v0c0-0.3,0.2-0.5,0.5-0.5h12.8
			V25H26.2c0,0-1.6,0.4-1-0.7c0,0,4.5-8.2,7.6-9.7c1-0.5,2.4-0.6,2.4-0.6l11.1,0v-1.9H33.9c0,0-2.3,0-4.1,2.1
			c-2.4,2.8-4.2,4.4-7.4,10.2C22,25.1,22,25.1,22,25.1s-0.5-0.5-0.5-1c0-0.5,0.4-3.3-2.3-3.3c-5.8,0-5.8,1-5.8,1
			S12.9,22.7,13.4,23.7z M28.6,38.6c0,0-0.8,0-3,0s-5-0.2-6.7-1.7c-1-0.9-0.8-2.8-0.8-2.8C18.5,29.1,28.6,38.6,28.6,38.6z"/>
		<g>
			<path class="st0" d="M16.3,47.4v8.5c0,0-0.1,2.2,2.2,2.2s6.6,0,6.6,0s2.2,0.2,2.2-2.2c0-2.3,0-3.9,0-3.9L24,52c0,0-2.3,0.3-3.4-1
				c-1.5-1.4-4.4-4.4-4.4-4.4L16.3,47.4z"/>
		</g>
	</g>
	<path class="st3" d="M25.2,24.4c0,0,4.5-8.2,7.6-9.7c1-0.5,2.4-0.6,2.4-0.6l11,0h0c0-0.6-0.1-1.3-0.1-1.9H33.9c0,0-2.3,0-4.1,2.1
		c-2.4,2.8-4.2,4.4-7.4,10.2C22,25.1,22,25.1,22,25.1s-0.5-0.5-0.5-1c0-0.5,0.4-3.3-2.3-3.3c-5.8,0-5.8,1-5.8,1s-0.5,0.9,0,1.9
		c0.8,1.5,2.6,1.9,4.8,1.8c2.2-0.1,2.5-0.4,2.6,0.8c-1.1,0.8-4.7,2.1-4.7,4.8c0,2.7,0,13.5,0,13.5s0,0.1,0,0.4c0.3,0,0.7,0.1,1,0.1
		c5.7,0.5,11.1-1.1,15.7-4.1c-1-0.6-1.4-1.2-1.4-1.7c0-1.1,1.2-1.2,1.2-1.2h3.8c2.6-2.4,4.8-5.3,6.4-8.6h-9.5
		c-0.3,0-0.5-0.2-0.5-0.5v0c0-0.3,0.2-0.5,0.5-0.5h10c0.5-1.2,1-2.4,1.4-3.7H26.2C26.2,25,24.6,25.5,25.2,24.4z M25.5,38.6
		c-2.3,0-5-0.2-6.7-1.7c-1-0.9-0.8-2.8-0.8-2.8c0.5-5,10.6,4.5,10.6,4.5S27.8,38.6,25.5,38.6z"/>
	<line class="st3" x1="46.2" y1="14.1" x2="46.2" y2="14.1"/>
</g>
</svg>
