<svg xmlns="http://www.w3.org/2000/svg" width="16" height="16" viewBox="0 0 16 16"><defs><clipPath id="a"><path fill="#fff" d="M291 517h12a2 2 0 0 1 2 2v12a2 2 0 0 1-2 2h-12a2 2 0 0 1-2-2v-12c0-1.1.9-2 2-2z"/></clipPath></defs><path fill="#fff" d="M2 0h12a2 2 0 0 1 2 2v12a2 2 0 0 1-2 2H2a2 2 0 0 1-2-2V2C0 .9.9 0 2 0z"/><path fill="none" stroke="#a5a5a5" stroke-miterlimit="50" stroke-width="2" d="M291 517h12a2 2 0 0 1 2 2v12a2 2 0 0 1-2 2h-12a2 2 0 0 1-2-2v-12c0-1.1.9-2 2-2z" clip-path="url(&quot;#a&quot;)" transform="translate(-289 -517)"/></svg>