<?xml version='1.0' encoding='iso-8859-1'?>
<!DOCTYPE svg PUBLIC '-//W3C//DTD SVG 1.1//EN' 'http://www.w3.org/Graphics/SVG/1.1/DTD/svg11.dtd'>
<svg version="1.1" xmlns="http://www.w3.org/2000/svg" viewBox="0 0 451.731 451.731" xmlns:xlink="http://www.w3.org/1999/xlink" enable-background="new 0 0 451.731 451.731">
  <g>
    <path d="m129,114.405c15.79,0 28.636-12.846 28.636-28.635s-12.846-28.635-28.636-28.635c-15.789,0-28.635,12.846-28.635,28.635s12.846,28.635 28.635,28.635zm0-42.27c7.519,0 13.636,6.117 13.636,13.635s-6.117,13.635-13.636,13.635-13.635-6.117-13.635-13.635 6.117-13.635 13.635-13.635z"/>
    <path d="m205.22,114.405c15.789,0 28.635-12.846 28.635-28.635s-12.846-28.635-28.635-28.635c-15.79,0-28.636,12.846-28.636,28.635s12.846,28.635 28.636,28.635zm0-42.27c7.519,0 13.635,6.117 13.635,13.635s-6.116,13.635-13.635,13.635-13.636-6.117-13.636-13.635 6.117-13.635 13.636-13.635z"/>
    <path d="m379.865,398.26h-26.882v-26.043c0-4.142-3.357-7.5-7.5-7.5h-6.063c3.749-5.493 5.945-12.126 5.945-19.264v-86.93c0-7.065-2.151-13.637-5.83-19.098 11.71,1.368 20.83,11.344 20.83,23.416v74.918c0,4.142 3.357,7.5 7.5,7.5s7.5-3.358 7.5-7.5v-74.918c0-21.274-17.308-38.582-38.582-38.582h-15.8v-20.5c0-4.142-3.357-7.5-7.5-7.5h-51.118v-22.086h25.5c3.538,0 6.596-2.473 7.335-5.933l34-159.174c0.473-2.214-0.08-4.523-1.504-6.284s-3.567-2.782-5.831-2.782h-250c-4.143,0-7.5,3.358-7.5,7.5v436.731c0,4.142 3.357,7.5 7.5,7.5h308c4.143,0 7.5-3.358 7.5-7.5v-38.471c0-4.143-3.357-7.5-7.5-7.5zm-264.5,0v-224.086h106v22.086h-83.5c-3.133,0-5.936,1.947-7.028,4.883-1.094,2.936-0.247,6.242 2.123,8.291l22.502,19.457c-10.211,5.939-17.096,16.994-17.096,29.634v86.93c0,7.138 2.196,13.77 5.945,19.264h-6.063c-4.143,0-7.5,3.358-7.5,7.5v26.043h-15.383zm30.382-18.545h26.882 138.473 26.882v18.543h-192.237v-18.543zm26.882-15c-10.622,0-19.264-8.642-19.264-19.264v-86.93c0-10.622 8.642-19.264 19.264-19.264h138.473c10.622,0 19.264,8.642 19.264,19.264v86.93c0,10.622-8.642,19.264-19.264,19.264h-138.473zm133.355-140.457h-132.944l-15.034-13h70.859 26 51.118v13zm-58.618-28h-11v-22.086h11v22.086zm62.397-168h-194.397v-13.26h197.229l-2.832,13.26zm62.603,408.471h-293v-421.731h21v20.76c0,4.142 3.357,7.5 7.5,7.5h198.692l-24.76,115.914h-26.933-26-121c-4.143,0-7.5,3.358-7.5,7.5v239.086c0,4.142 3.357,7.5 7.5,7.5h30.382 207.236 26.882v23.471z"/>
    <path d="m309.398,252.075c-4.143,0-7.5,3.358-7.5,7.5v82.496c0,4.142 3.357,7.5 7.5,7.5s7.5-3.358 7.5-7.5v-82.496c0-4.142-3.358-7.5-7.5-7.5z"/>
  </g>
</svg>
