<?xml version="1.0" encoding="utf-8"?>
<!-- Generator: Adobe Illustrator 20.1.0, SVG Export Plug-In . SVG Version: 6.00 Build 0)  -->
<svg version="1.1" id="Слой_1" xmlns="http://www.w3.org/2000/svg" xmlns:xlink="http://www.w3.org/1999/xlink" x="0px" y="0px"
	 viewBox="0 0 300 62.1" style="enable-background:new 0 0 300 62.1;" xml:space="preserve">
<style type="text/css">
	.st0{clip-path:url(#SVGID_2_);fill:#A52468;}
	.st1{clip-path:url(#SVGID_4_);fill:#646363;}
	.st2{clip-path:url(#SVGID_6_);fill:#A52468;}
	.st3{clip-path:url(#SVGID_8_);fill:none;stroke:#A52468;stroke-width:1.787;stroke-linecap:round;stroke-linejoin:round;}
	.st4{clip-path:url(#SVGID_10_);fill:none;stroke:#646363;stroke-width:1.787;stroke-linecap:round;stroke-linejoin:round;}
	.st5{clip-path:url(#SVGID_12_);fill:none;stroke:#A52468;stroke-width:1.787;stroke-linecap:round;stroke-linejoin:round;}
	.st6{fill:none;stroke:#A52468;stroke-width:1.787;}
	.st7{clip-path:url(#SVGID_14_);}
</style>
<g>
	<g>
		<g>
			<defs>
				<rect id="SVGID_1_" width="300" height="62.1"/>
			</defs>
			<clipPath id="SVGID_2_">
				<use xlink:href="#SVGID_1_"  style="overflow:visible;"/>
			</clipPath>
			<path class="st0" d="M280.1,34.6c0.4,1.1,0.9,2.4,1.5,3.8c0.5,1.4,1.1,2.8,1.7,4.3s1.2,3,1.7,4.5h-12.4c0.8-2,1.5-3.8,2.2-5.4
				c0.7-1.7,1.3-3.2,1.9-4.5s1-2.5,1.4-3.4s0.7-1.6,0.9-2C279.3,32.5,279.6,33.4,280.1,34.6 M300,61.9v-0.6c-0.8,0-1.4-0.2-2-0.4
				c-0.6-0.3-1-0.6-1.4-0.9c-0.4-0.3-0.7-0.7-0.9-1c-0.2-0.3-0.4-0.6-0.4-0.7c-0.4-0.9-0.8-1.6-1.1-2.3c-0.3-0.7-0.7-1.5-1-2.6
				c-0.8-2.1-1.6-4.2-2.4-6.3s-1.6-4.4-2.5-6.6c-0.8-2.3-1.7-4.7-2.7-7.1c-0.9-2.5-1.9-5.1-2.9-7.8h-0.4c-0.1,0.2-0.3,0.5-0.6,0.9
				c-0.2,0.4-0.6,0.7-0.9,1.1c-0.4,0.4-0.8,0.8-1.3,1.1c-0.5,0.4-1,0.7-1.6,0.9l0.5,1.1c-0.8,1.9-1.6,3.9-2.5,6s-1.8,4.3-2.7,6.4
				c-0.9,2.1-1.8,4.2-2.7,6.1c-0.9,2-1.6,3.8-2.3,5.3c-0.8,1.7-1.4,3-1.9,3.8c-0.5,0.9-0.9,1.4-1.1,1.6c-0.1,0.1-0.5,0.4-1.1,0.7
				c-0.6,0.4-1.4,0.6-2.2,0.7v0.5h10.6v-0.5c-0.4-0.1-0.9-0.1-1.4-0.2c-0.5-0.1-0.9-0.2-1.3-0.4s-0.8-0.4-1-0.7
				c-0.3-0.3-0.4-0.6-0.4-1.1c0-0.7,0.3-2,1-3.8c0.5-1.2,0.9-2.3,1.4-3.5c0.5-1.1,0.9-2.3,1.4-3.6h13.2c0.5,1.3,1,2.5,1.4,3.7
				s0.8,2.3,1.1,3.3c0.3,1,0.6,1.8,0.8,2.5c0.2,0.7,0.3,1.2,0.3,1.5c0,0.5-0.2,0.8-0.5,1.1s-0.7,0.5-1.1,0.7s-0.8,0.3-1.2,0.3
				c-0.4,0.1-0.6,0.1-0.7,0.1v0.5H300V61.9z M259,27.5c-0.7,0.5-1.3,1.2-1.7,2.1c-0.2,0.5-0.4,1.4-0.4,2.8c-0.1,1.3-0.1,2.8-0.2,4.3
				c-0.1,1.4-0.1,3.1-0.2,5s-0.1,4-0.1,6.2v3.2c0,1.2,0,2.3,0,3.6c0,1.2,0,2.4,0,3.6v3.2c0,0.1,0,0.2-0.1,0.3s-0.2,0.1-0.4,0.1
				c-0.3,0-0.6-0.2-0.9-0.5c-2.8-3.2-5.4-6.2-7.7-9c-2.3-2.7-4.5-5.3-6.6-7.8s-4.2-4.9-6.2-7.2c-2-2.4-4.2-4.8-6.4-7.3v21
				c0,1.7,0,3.2,0.1,4.6c0.1,1.4,0.3,2.4,0.6,3c0.4,0.8,0.9,1.3,1.7,1.7s1.8,0.7,3.2,0.8v0.5h-12.2v-0.5c0.8-0.1,1.6-0.3,2.4-0.6
				c0.8-0.3,1.4-0.8,1.9-1.6c0.5-0.7,0.8-1.7,0.9-3.1c0.1-1.4,0.2-3,0.3-4.9c0.1-1.4,0.1-3.1,0.1-5s0-4,0-6.2v-2.4v-1.8v-1.8
				c0-0.7,0-1.5,0-2.4c-0.1-1-0.3-1.7-0.7-2.4c-0.4-0.6-0.8-1.1-1.3-1.4s-1-0.6-1.6-0.7s-1.1-0.3-1.7-0.3v-0.5H232l23.6,27.6v-17
				c0-1.3,0-2.6,0-3.8s-0.2-2.2-0.4-2.9c-0.3-0.9-0.9-1.7-1.8-2.3c-0.8-0.6-2.1-1-3.7-1.2V26H262v0.5
				C260.7,26.8,259.7,27.1,259,27.5 M202.3,61.9v-0.5c0.8-0.1,1.6-0.3,2.3-0.6s1.3-0.7,1.8-1.3c0.2-0.2,0.3-0.5,0.4-0.8
				c0.1-0.4,0.1-0.8,0.2-1.3c0-0.5,0.1-1,0.1-1.6c0-0.5,0-1.1,0-1.6s0-1.1,0-1.9c0-0.8,0-1.7,0.1-2.6c0-0.9,0-1.9,0-2.9v-2.9v-9.7
				v-1.8c0-0.6,0-1.2-0.1-1.7s-0.1-1-0.2-1.4c-0.1-0.4-0.2-0.7-0.4-1c-0.5-0.6-1-1-1.7-1.2s-1.4-0.4-2.3-0.5v-0.5h14.9v0.5
				c-0.7,0.1-1.4,0.3-2.2,0.5c-0.8,0.3-1.4,0.8-1.8,1.6c-0.3,0.6-0.5,1.3-0.5,2.1c0,0.9,0,1.7-0.1,2.4c0,0.8,0,1.6,0,2.5
				c0,0.8,0,1.6,0,2.5v2.6v2.8v11.2c0,1,0,1.9,0.1,2.8c0,0.9,0.2,1.5,0.4,1.9c0.4,0.6,1,1,1.9,1.3s1.6,0.5,2.3,0.5v0.5L202.3,61.9
				L202.3,61.9z M198.4,61.9h-31.9v-0.5c0.8-0.1,1.6-0.3,2.5-0.6c0.8-0.3,1.4-0.7,1.9-1.2c0.2-0.2,0.3-0.5,0.4-0.9
				c0.1-0.4,0.2-0.8,0.3-1.3s0.1-1,0.2-1.6c0.1-0.5,0.1-1.1,0.1-1.6s0-1.1,0-1.9c0-0.8,0-1.7,0.1-2.6c0-0.9,0-1.9,0-2.9v-2.9v-9.6
				v-1.7c0-0.6,0-1.2-0.1-1.7c0-0.5-0.1-1-0.2-1.4c-0.1-0.4-0.2-0.7-0.4-0.9c-0.5-0.6-1.1-1-1.9-1.3c-0.8-0.3-1.6-0.5-2.5-0.6v-0.5
				h15.9v0.5c-0.4,0.1-0.9,0.2-1.5,0.3c-0.6,0.1-1.2,0.3-1.7,0.6c-0.5,0.3-1,0.7-1.4,1.3c-0.4,0.5-0.6,1.3-0.6,2.2
				c0,1.2-0.1,2.2-0.1,3.2s0,1.9-0.1,2.8c0,0.9,0,1.9,0,2.9v3.3v3.1V49c0,0.9,0,1.7,0,2.7c0,0.9,0,1.9,0,3.1c0,1.1,0.1,2.1,0.1,3
				c0,1,0.2,1.7,0.5,2.1c0.1,0.2,0.4,0.3,0.8,0.5c0.4,0.2,0.9,0.3,1.4,0.4c0.6,0.1,1.2,0.2,1.8,0.3c0.7,0.1,1.3,0.1,2,0.1
				c0.3,0,0.7,0,1.3,0s1.2,0,1.9-0.1s1.4-0.1,2.1-0.2c0.7-0.1,1.4-0.2,1.9-0.4c1.3-0.4,2.4-0.8,3.3-1.4c0.9-0.6,1.6-1.3,2.3-2.1
				c0.6-0.8,1.2-1.6,1.6-2.5c0.4-0.9,0.8-1.9,1.2-2.9l0.5,0.2L198.4,61.9z M146.5,34.6c0.4,1.1,0.9,2.4,1.5,3.8
				c0.5,1.4,1.1,2.8,1.7,4.3c0.6,1.5,1.2,3,1.7,4.5H139c0.8-2,1.5-3.8,2.2-5.4c0.7-1.7,1.3-3.2,1.9-4.5c0.6-1.3,1-2.5,1.4-3.4
				s0.7-1.6,0.9-2C145.7,32.5,146,33.4,146.5,34.6 M166.4,61.9v-0.6c-0.8,0-1.4-0.2-2-0.4c-0.6-0.3-1-0.6-1.4-0.9
				c-0.4-0.3-0.7-0.7-0.9-1s-0.4-0.6-0.4-0.7c-0.4-0.9-0.8-1.6-1.1-2.3s-0.7-1.5-1-2.6c-0.8-2.1-1.6-4.2-2.4-6.3
				c-0.8-2.1-1.6-4.4-2.5-6.6c-0.8-2.3-1.7-4.7-2.7-7.1c-0.9-2.5-1.9-5.1-2.9-7.8h-0.4c-0.1,0.2-0.3,0.5-0.6,0.9
				c-0.2,0.4-0.6,0.7-0.9,1.1c-0.4,0.4-0.8,0.8-1.3,1.1c-0.5,0.4-1,0.7-1.6,0.9l0.5,1.1c-0.8,1.9-1.6,3.9-2.5,6s-1.8,4.3-2.7,6.4
				c-0.9,2.1-1.8,4.2-2.7,6.1c-0.9,2-1.6,3.8-2.3,5.3c-0.8,1.7-1.4,3-1.9,3.8c-0.5,0.9-0.9,1.4-1.1,1.6c-0.1,0.1-0.5,0.4-1.1,0.7
				c-0.6,0.4-1.3,0.6-2.2,0.7v0.5h10.6v-0.5c-0.4-0.1-0.9-0.1-1.4-0.2c-0.5-0.1-0.9-0.2-1.3-0.4c-0.4-0.2-0.8-0.4-1-0.7
				c-0.3-0.3-0.4-0.6-0.4-1.1c0-0.7,0.3-2,1-3.8c0.5-1.2,0.9-2.3,1.4-3.5c0.5-1.1,0.9-2.3,1.4-3.6h13.2c0.5,1.3,1,2.5,1.4,3.7
				s0.8,2.3,1.1,3.3s0.6,1.8,0.8,2.5s0.3,1.2,0.3,1.5c0,0.5-0.2,0.8-0.5,1.1s-0.7,0.5-1.1,0.7c-0.4,0.2-0.8,0.3-1.2,0.3
				c-0.4,0.1-0.6,0.1-0.7,0.1v0.5h14.5L166.4,61.9L166.4,61.9z M111.2,61.9v-0.5c1.4-0.1,2.6-0.4,3.6-0.9s1.6-1.1,1.9-1.8
				c0.2-0.4,0.3-1,0.4-1.6s0.2-1.3,0.2-2c0.1-2.2,0.1-4.3,0.1-6.3v-6.2V28.5c-1.1,2.5-2.1,4.7-3,6.8s-1.8,4.1-2.7,6
				c-0.9,2-1.8,4-2.7,6c-0.9,2-1.9,4.3-3,6.7c-0.2,0.3-0.4,0.9-0.7,1.6c-0.3,0.7-0.6,1.4-0.9,2.2c-0.3,0.7-0.6,1.4-0.8,2
				c-0.3,0.6-0.4,1-0.5,1.2h-0.3c-1.1-2.5-2.1-4.9-3.2-7.3c-1-2.4-2.1-4.7-3.1-7c-1-2.2-1.9-4.3-2.8-6.3s-1.6-3.7-2.3-5.2
				s-1.3-2.8-1.7-3.8c-0.4-1-0.8-1.7-0.9-2.1c0,2.2,0,4.1,0,5.8s0,3.3,0,5c0,1.6,0,3.4,0,5.2v6.4c0,1.6,0,2.9,0.1,4.1
				c0.1,1.1,0.3,2.1,0.7,2.9c0.4,0.8,1,1.4,1.8,1.8c0.8,0.4,1.9,0.8,3.4,1V62h-13v-0.5c1.2-0.2,2.1-0.6,2.8-1
				c0.7-0.4,1.3-1.1,1.7-1.9c0.4-0.8,0.7-1.8,0.9-3c0.2-1.2,0.3-2.6,0.3-4.3c0.1-1.4,0.1-3.1,0.2-5c0-1.9,0-4,0-6.2v-2.4v-1.9v-1.9
				c0-0.7,0-1.5,0-2.4s-0.2-1.7-0.6-2.3c-0.4-0.6-0.8-1-1.3-1.4c-0.5-0.3-1-0.6-1.6-0.7s-1-0.3-1.4-0.3v-0.5h10.6l11.9,27.1
				c1.5-3.1,2.9-6.3,4.3-9.4c1.4-3.1,2.6-5.9,3.8-8.5c1.1-2.5,2-4.6,2.7-6.3c0.7-1.7,1.1-2.6,1.2-2.9h10.6v0.5
				c-1.4,0-2.4,0.3-3.1,0.8s-1.2,1.2-1.5,1.9c-0.2,0.6-0.3,1.4-0.4,2.6c-0.1,1.2-0.1,2.4-0.1,3.5c0,1.6,0,3.1,0,4.6v4.5V50
				c0,1.8,0,3.6,0,5.6c0,0.6,0,1.3,0.1,1.9c0.1,0.6,0.2,1.2,0.4,1.5c0,0.1,0.2,0.2,0.4,0.5c0.2,0.2,0.5,0.5,0.9,0.8s0.9,0.5,1.5,0.7
				s1.3,0.3,2.1,0.4v0.5H111.2z"/>
		</g>
	</g>
	<g>
		<g>
			<defs>
				<rect id="SVGID_3_" width="300" height="62.1"/>
			</defs>
			<clipPath id="SVGID_4_">
				<use xlink:href="#SVGID_3_"  style="overflow:visible;"/>
			</clipPath>
			<path class="st1" d="M72.1,37.7c-0.5-2.1-1.3-3.9-2.3-5.6c-1-1.7-2.3-3-3.9-4.1c-1.6-1-3.4-1.6-5.5-1.6c-2.2,0-4,0.5-5.6,1.6
				c-1.6,1-2.9,2.4-3.9,4.1s-1.8,3.5-2.2,5.6c-0.5,2.1-0.7,4.2-0.7,6.4c0,2.3,0.3,4.4,0.8,6.5s1.3,3.9,2.4,5.5
				c1,1.6,2.4,2.9,3.9,3.8c1.6,1,3.4,1.4,5.5,1.4s3.9-0.5,5.4-1.6s2.8-2.4,3.9-4.1c1-1.7,1.8-3.6,2.3-5.6c0.5-2.1,0.8-4.2,0.8-6.3
				C72.9,41.8,72.7,39.7,72.1,37.7 M77.6,51.1c-1,2.3-2.3,4.2-4.1,5.9c-1.7,1.7-3.7,2.9-6,3.8c-2.3,0.9-4.7,1.3-7.2,1.3
				s-4.9-0.4-7.2-1.3c-2.3-0.9-4.2-2.1-5.9-3.7c-1.7-1.6-3-3.5-4-5.8s-1.5-4.7-1.5-7.4c0-2.9,0.5-5.4,1.5-7.7s2.4-4.2,4.2-5.8
				c1.7-1.6,3.8-2.8,6.1-3.6c2.3-0.8,4.8-1.3,7.4-1.3c2.8,0,5.3,0.5,7.6,1.5c2.2,1,4.1,2.3,5.7,4c1.6,1.7,2.8,3.6,3.6,5.8
				c0.8,2.2,1.2,4.5,1.2,6.9C79.1,46.4,78.6,48.8,77.6,51.1"/>
		</g>
	</g>
	<g>
		<g>
			<defs>
				<rect id="SVGID_5_" width="300" height="62.1"/>
			</defs>
			<clipPath id="SVGID_6_">
				<use xlink:href="#SVGID_5_"  style="overflow:visible;"/>
			</clipPath>
			<path class="st2" d="M31.8,38c-0.6-1.8-1.4-3.5-2.5-4.9c-1.1-1.5-2.3-2.7-3.8-3.8s-3.1-1.7-4.8-2c-0.7-0.1-1.4-0.2-2.2-0.3
				c-0.8-0.1-1.8-0.1-2.9-0.1c-0.4,0-0.8,0-1.3,0s-0.9,0-1.4,0.1c-0.4,0-0.9,0.1-1.2,0.1c-0.4,0-0.7,0.1-0.9,0.2
				c-0.2,1.6-0.3,3.9-0.3,6.7c0,2.9-0.1,6.3-0.1,10.2V50c0,1.7,0,3.1,0.1,4.2c0,0.5,0,1,0.1,1.5c0,0.5,0.1,1.1,0.2,1.6
				c0.1,0.5,0.2,1,0.3,1.4s0.3,0.7,0.5,0.9c0.7,0.7,1.5,1.1,2.5,1.3s2,0.3,2.9,0.3c0.8,0,1.7,0,2.6-0.1s1.7-0.2,2.5-0.5
				c3.6-1,6.3-3,8-6c1.8-3,2.7-6.6,2.7-11C32.7,41.7,32.4,39.8,31.8,38 M37.9,50.1c-0.6,1.9-1.4,3.5-2.4,4.9s-2.2,2.5-3.6,3.4
				s-2.8,1.6-4.3,2.1c-1.5,0.5-3.1,0.9-4.7,1.1c-1.6,0.2-3.2,0.3-4.7,0.3H0v-0.5c0.8-0.1,1.6-0.3,2.4-0.6s1.4-0.7,1.8-1.2
				c0.2-0.2,0.3-0.4,0.4-0.8c0.1-0.4,0.2-0.8,0.2-1.3c0.1-0.5,0.1-1,0.1-1.6s0-1.1,0-1.6s0-1.1,0-1.9c0-0.8,0-1.7,0-2.6
				c0-0.9,0-1.9,0-2.9V44v-9.7v-1.8c0-0.6,0-1.2-0.1-1.7c0-0.5-0.1-1-0.2-1.4s-0.2-0.7-0.4-1c-0.5-0.6-1.1-1-1.8-1.2
				s-1.5-0.4-2.3-0.5v-0.5c1.4,0,3.4,0,6,0s5.8,0,9.5,0h3.2c1.1,0,2.2,0,3.3,0.1c1.1,0.1,2.2,0.3,3.3,0.5c1.1,0.2,2.2,0.6,3.2,1
				c1.4,0.6,2.7,1.4,3.9,2.3c1.2,0.9,2.3,2,3.2,3.3s1.6,2.8,2.2,4.4c0.5,1.7,0.8,3.6,0.8,5.7C38.8,46,38.5,48.2,37.9,50.1"/>
		</g>
	</g>
	<g>
		<g>
			<defs>
				<rect id="SVGID_7_" width="300" height="62.1"/>
			</defs>
			<clipPath id="SVGID_8_">
				<use xlink:href="#SVGID_7_"  style="overflow:visible;"/>
			</clipPath>
			<path class="st3" d="M79,21.1c-3.1-4.9-10-8.4-18-8.4s-14.9,3.4-18,8.4"/>
		</g>
	</g>
	<g>
		<g>
			<defs>
				<rect id="SVGID_9_" width="300" height="62.1"/>
			</defs>
			<clipPath id="SVGID_10_">
				<use xlink:href="#SVGID_9_"  style="overflow:visible;"/>
			</clipPath>
			<path class="st4" d="M73.5,21.1c-2.6-2.3-7.2-3.8-12.5-3.8s-9.9,1.5-12.5,3.8"/>
		</g>
	</g>
	<g>
		<g>
			<defs>
				<rect id="SVGID_11_" width="300" height="62.1"/>
			</defs>
			<clipPath id="SVGID_12_">
				<use xlink:href="#SVGID_11_"  style="overflow:visible;"/>
			</clipPath>
			<path class="st5" d="M60.8,8.3c2,0,3.6-1.7,3.6-3.7s-1.6-3.7-3.6-3.7s-3.6,1.7-3.6,3.7"/>
		</g>
	</g>
</g>
<line class="st6" x1="60.8" y1="8.5" x2="60.8" y2="13"/>
<g>
	<g>
		<g>
			<defs>
				<rect id="SVGID_13_" width="300" height="62.1"/>
			</defs>
			<clipPath id="SVGID_14_">
				<use xlink:href="#SVGID_13_"  style="overflow:visible;"/>
			</clipPath>
			<path class="st7" d="M277.4,21h5.8v-1.6H283c0,0.1,0,0.2-0.1,0.3c0,0.1-0.1,0.3-0.2,0.4s-0.2,0.2-0.3,0.3s-0.3,0.1-0.5,0.1h-3.1
				v-4.3h2.3c0.2,0,0.4,0.1,0.5,0.2s0.2,0.3,0.2,0.4h0.1V15h0.1c0,0.2-0.1,0.3-0.2,0.5c-0.1,0.1-0.3,0.2-0.5,0.2H279v-3.6h2.8
				c0.3,0,0.6,0.1,0.7,0.2c0.1,0.2,0.2,0.4,0.3,0.6h0.1v-1.3h-5.4v0.1h0.1c0.1,0,0.1,0,0.2,0.1s0.1,0.1,0.1,0.2s0.1,0.2,0.1,0.2
				c0,0.1,0,0.2,0,0.2v7.5c0,0.1,0,0.2,0,0.2c0,0.1-0.1,0.2-0.1,0.2c0,0.1-0.1,0.1-0.1,0.2c-0.1,0.1-0.1,0.1-0.2,0.1h-0.1V21H277.4z
				 M268.9,21h5.8v-1.6h-0.1c0,0.1,0,0.2-0.1,0.3c0,0.1-0.1,0.3-0.2,0.4s-0.2,0.2-0.3,0.3c-0.1,0.1-0.3,0.1-0.5,0.1h-3.1v-4.3h2.3
				c0.2,0,0.4,0.1,0.5,0.2s0.2,0.3,0.2,0.4h0.1V15h-0.1c0,0.2-0.1,0.3-0.2,0.5c-0.1,0.1-0.3,0.2-0.5,0.2h-2.3v-3.6h2.8
				c0.3,0,0.6,0.1,0.7,0.2c0.1,0.2,0.2,0.4,0.3,0.6h0.1v-1.3h-5.4v0.1h0.1c0.1,0,0.1,0,0.2,0.1s0.1,0.1,0.1,0.2
				c0,0.1,0.1,0.2,0.1,0.2c0,0.1,0,0.2,0,0.2v7.5c0,0.1,0,0.2,0,0.2c0,0.1-0.1,0.2-0.1,0.2c0,0.1-0.1,0.1-0.1,0.2
				c-0.1,0.1-0.1,0.1-0.2,0.1h-0.1L268.9,21L268.9,21z M259.8,11.9L259.8,11.9c0.1,0,0.2,0,0.3,0.1s0.1,0.1,0.1,0.2
				c0,0.1,0.1,0.2,0.1,0.3s0,0.2,0,0.2v7.8H257v-7.8c0-0.1,0-0.1,0-0.2s0-0.2,0.1-0.2c0-0.1,0.1-0.1,0.1-0.2
				c0.1-0.1,0.1-0.1,0.2-0.1h0.1v-0.1h-1.9V12h0.1c0.1,0,0.2,0,0.2,0.1c0.1,0.1,0.1,0.1,0.1,0.2c0,0.1,0.1,0.2,0.1,0.3s0,0.2,0,0.2
				v7.5c0,0.1,0,0.1,0,0.2s0,0.2-0.1,0.2c0,0.1-0.1,0.1-0.1,0.2c-0.1,0.1-0.1,0.1-0.2,0.1h-0.1l0,0h10.5v-0.1H266
				c-0.1,0-0.1,0-0.2-0.1s-0.1-0.1-0.1-0.2s-0.1-0.2-0.1-0.2c0-0.1,0-0.2,0-0.2v-7.5c0-0.1,0-0.1,0-0.2c0-0.1,0-0.2,0.1-0.3
				c0-0.1,0.1-0.1,0.1-0.2c0.1-0.1,0.1-0.1,0.2-0.1h0.1v-0.1h-1.9v0.1h0.1c0.1,0,0.1,0,0.2,0.1s0.1,0.1,0.1,0.2c0,0.1,0,0.2,0.1,0.2
				c0,0.1,0,0.2,0,0.2v7.8h-3.4v-7.9c0-0.1,0-0.1,0-0.2c0-0.1,0-0.2,0.1-0.2c0-0.1,0.1-0.1,0.1-0.2c0.1-0.1,0.1-0.1,0.2-0.1h0.1
				v-0.1h-1.9v0.2C259.9,11.9,259.8,11.9,259.8,11.9z M250.7,21h2v-0.1h-0.1c-0.1,0-0.1,0-0.2-0.1c-0.1-0.1-0.1-0.1-0.1-0.2
				s-0.1-0.1-0.1-0.2s0-0.2,0-0.2v-7.5c0-0.1,0-0.1,0-0.2c0-0.1,0-0.2,0.1-0.2s0.1-0.1,0.1-0.2c0.1-0.1,0.1-0.1,0.2-0.1h0.1v-0.1h-2
				V12h0.1c0.1,0,0.1,0,0.2,0.1c0,0.1,0.1,0.1,0.1,0.2c0,0.1,0.1,0.1,0.1,0.2c0,0.1,0,0.2,0,0.2v3.2c-0.2,0.2-0.5,0.3-0.7,0.4
				c-0.3,0.1-0.5,0.2-0.8,0.2s-0.5,0-0.8-0.1s-0.5-0.2-0.7-0.4c-0.2-0.2-0.4-0.4-0.5-0.7s-0.2-0.5-0.2-0.8v-1.7c0-0.1,0-0.1,0-0.2
				c0-0.1,0.1-0.2,0.1-0.2c0-0.1,0.1-0.1,0.1-0.2c0.1-0.1,0.1-0.1,0.2-0.1h0.1V12h-1.9v0.1h0.1c0.1,0,0.1,0,0.2,0.1
				c0.1,0.1,0.1,0.1,0.1,0.2c0,0.1,0.1,0.2,0.1,0.2c0,0.1,0,0.2,0,0.2v1.6c0,0.4,0.1,0.7,0.2,1.1c0.1,0.3,0.3,0.6,0.5,0.9
				c0.2,0.3,0.5,0.5,0.9,0.6c0.3,0.1,0.7,0.2,1.1,0.2c0.4,0,0.7-0.1,1-0.2s0.6-0.3,0.8-0.4v3.7c0,0.1,0,0.2,0,0.2
				c0,0.1,0,0.2-0.1,0.2c0,0.1-0.1,0.1-0.1,0.2C250.8,21,250.8,21,250.7,21L250.7,21L250.7,21L250.7,21z M236.3,11.9
				c0.3,0,0.5,0.2,0.6,0.4l2.9,6.4l-0.5,1.3c-0.1,0.1-0.1,0.2-0.2,0.3c-0.1,0.1-0.2,0.1-0.3,0.1s-0.3,0-0.4-0.1
				c-0.1-0.1-0.2-0.2-0.3-0.4l-0.4,0.8c0.1,0.1,0.2,0.2,0.3,0.2s0.2,0.1,0.3,0.1s0.2,0.1,0.4,0.1s0.4-0.1,0.6-0.2
				c0.2-0.1,0.3-0.3,0.4-0.6l3.4-8.1c0-0.1,0.1-0.2,0.2-0.3c0.1-0.1,0.2-0.1,0.4-0.1v-0.1h-1.5v0.1c0,0,0.1,0,0.2,0.1
				c0.1,0.1,0.1,0.1,0.1,0.3c0,0.1,0,0.1,0,0.2c0,0.1,0,0.1,0,0.1l-2.1,5.1l-2.4-5.2c0,0,0,0,0-0.1v-0.1c0-0.1,0-0.1,0.1-0.2
				c0-0.1,0.1-0.1,0.2-0.1h0.1v-0.1h-1.9v0.1C236.5,11.9,236.3,11.9,236.3,11.9z M230.2,13.2l2.6,7.3c0,0.1,0,0.1,0,0.1
				c0,0.1,0,0.2-0.1,0.2c-0.1,0.1-0.2,0.1-0.2,0.1V21h2v-0.1c-0.2,0-0.3-0.1-0.4-0.2c-0.1-0.1-0.2-0.2-0.3-0.4l-3.1-8.6h-1.2v0.1
				c0.1,0,0.2,0,0.2,0.1c0.1,0.1,0.1,0.2,0.1,0.3s0,0.2-0.1,0.3l-2.7,7.3c-0.1,0.2-0.2,0.3-0.3,0.4s-0.2,0.2-0.3,0.3
				c-0.1,0.1-0.2,0.1-0.3,0.2c-0.1,0-0.2,0-0.2,0V21h0.4c0.3,0,0.6-0.1,0.8-0.3c0.2-0.2,0.3-0.4,0.4-0.7L230.2,13.2z M213.3,21h5.8
				v-1.6H219c0,0.1,0,0.2-0.1,0.3c0,0.1-0.1,0.3-0.2,0.4s-0.2,0.2-0.3,0.3s-0.3,0.1-0.5,0.1h-3.1v-4.3h2.3c0.2,0,0.4,0.1,0.5,0.2
				s0.2,0.3,0.2,0.4h0.1V15h-0.1c0,0.2-0.1,0.3-0.2,0.5c-0.1,0.1-0.3,0.2-0.5,0.2h-2.3v-3.6h2.8c0.3,0,0.6,0.1,0.7,0.2
				c0.2,0.2,0.2,0.4,0.3,0.6h0.1v-1.3h-5.4v0.1h0.1c0.1,0,0.1,0,0.2,0.1c0.1,0.1,0.1,0.1,0.1,0.2c0,0.1,0.1,0.2,0.1,0.2
				c0,0.1,0,0.2,0,0.2v7.5c0,0.1,0,0.2,0,0.2c0,0.1-0.1,0.2-0.1,0.2c0,0.1-0.1,0.1-0.1,0.2c-0.1,0.1-0.1,0.1-0.2,0.1h-0.1V21z
				 M204.4,20.3c-0.5-0.3-0.9-0.6-1.2-1s-0.6-0.9-0.8-1.4s-0.3-1-0.3-1.6c0-0.5,0.1-1,0.3-1.5s0.4-0.9,0.7-1.3
				c0.3-0.4,0.7-0.7,1.2-1s1-0.4,1.6-0.4s1.1,0.1,1.6,0.4c0.5,0.3,0.9,0.6,1.2,1s0.6,0.9,0.8,1.4s0.3,1,0.3,1.6
				c0,0.5-0.1,0.9-0.2,1.4c-0.2,0.5-0.4,0.9-0.7,1.3s-0.7,0.7-1.2,1s-1,0.4-1.7,0.4C205.4,20.7,204.9,20.6,204.4,20.3 M203.9,12.1
				c-0.6,0.3-1.1,0.7-1.5,1.1c-0.4,0.5-0.7,1-0.9,1.6s-0.3,1.2-0.3,1.8c0,0.6,0.1,1.2,0.3,1.8c0.2,0.6,0.5,1.1,0.9,1.5
				s0.9,0.8,1.5,1c0.6,0.3,1.2,0.4,1.9,0.4s1.3-0.1,1.9-0.4c0.6-0.2,1.1-0.6,1.6-1c0.4-0.4,0.8-0.9,1.1-1.5s0.4-1.2,0.4-1.9
				c0-0.6-0.1-1.2-0.3-1.8s-0.5-1.1-0.9-1.5s-0.9-0.8-1.5-1s-1.2-0.4-2-0.4C205.2,11.6,204.5,11.8,203.9,12.1 M196.6,21h2v-0.1h-0.1
				c-0.1,0-0.1,0-0.2-0.1c-0.1-0.1-0.1-0.1-0.1-0.2s-0.1-0.2-0.1-0.2c0-0.1,0-0.2,0-0.2v-7.5c0-0.1,0-0.1,0-0.2c0-0.1,0-0.2,0.1-0.2
				c0-0.1,0.1-0.1,0.1-0.2c0.1-0.1,0.1-0.1,0.2-0.1h0.1v-0.1H197l-3.3,7.7l-3.3-7.7H189V12h0.1c0.1,0,0.1,0,0.2,0.1
				c0.1,0.1,0.1,0.1,0.1,0.2c0,0.1,0.1,0.2,0.1,0.2c0,0.1,0,0.2,0,0.2v7.5c0,0.1,0,0.2,0,0.2c0,0.1,0,0.2-0.1,0.2
				c0,0.1-0.1,0.1-0.1,0.2c-0.1,0.1-0.1,0.1-0.2,0.1H189V21h1.5v-0.1h-0.1c-0.1,0-0.1,0-0.2-0.1c-0.1-0.1-0.1-0.1-0.1-0.2
				s-0.1-0.2-0.1-0.2c0-0.1,0-0.2,0-0.2v-6.9l3.4,8l3.6-8.4v7.4c0,0.1,0,0.2,0,0.2c0,0.1,0,0.2-0.1,0.2c0,0.1-0.1,0.1-0.1,0.2
				C196.7,21,196.7,21,196.6,21h-0.1l0,0H196.6z M182.2,13.5l1.1,2.9h-2.2L182.2,13.5z M184.4,21h2.1v-0.1h-0.1
				c-0.2,0-0.3-0.1-0.5-0.3c-0.1-0.2-0.2-0.4-0.3-0.5l-3.1-8.5l-3.2,8.6c-0.1,0.2-0.2,0.4-0.3,0.5s-0.2,0.2-0.4,0.2h-0.1V21h1.6
				v-0.1H180c-0.1,0-0.1,0-0.2-0.1c-0.1-0.1-0.1-0.2-0.1-0.3c0-0.1,0-0.1,0-0.2L181,17h2.5l1.3,3.4c0,0.1,0,0.2,0,0.2
				c0,0.2-0.1,0.3-0.3,0.3h-0.1V21z M174.1,12.2c0.2,0,0.4,0.1,0.6,0.2c0.2,0.1,0.4,0.3,0.5,0.4c0.1,0.2,0.3,0.4,0.3,0.7h0.1V12
				c-0.1,0-0.2,0-0.3,0s-0.2-0.1-0.4-0.1c-0.2-0.1-0.4-0.1-0.7-0.2s-0.5-0.1-0.8-0.1c-0.9,0-1.6,0.1-2.2,0.4
				c-0.6,0.3-1.2,0.6-1.6,1.1c-0.4,0.5-0.7,1-0.9,1.5c-0.2,0.6-0.3,1.1-0.3,1.7c0,0.6,0.1,1.2,0.3,1.7c0.2,0.6,0.5,1.1,0.9,1.5
				s0.9,0.8,1.5,1.1c0.6,0.3,1.3,0.4,2.1,0.4c0.3,0,0.6,0,0.9-0.1s0.6-0.1,0.8-0.2c0.2,0,0.4-0.1,0.5-0.1c0.2,0,0.3-0.1,0.4-0.1
				v-1.6h-0.1c-0.1,0.3-0.3,0.6-0.4,0.8c-0.2,0.2-0.4,0.3-0.6,0.5c-0.2,0.1-0.5,0.2-0.7,0.2s-0.4,0.1-0.6,0.1
				c-0.6,0-1.1-0.1-1.6-0.4c-0.5-0.2-0.9-0.6-1.3-1c-0.4-0.4-0.7-0.9-0.9-1.4s-0.3-1.1-0.3-1.6s0.1-1,0.2-1.5
				c0.2-0.5,0.4-0.9,0.8-1.3c0.3-0.4,0.8-0.7,1.3-1s1.1-0.4,1.8-0.4C173.6,12.2,173.8,12.2,174.1,12.2 M156.9,12.7
				c0.5-0.3,1.2-0.4,2.1-0.4h0.2v3.6h-0.9c-0.3,0-0.6,0-0.9-0.1c-0.3-0.1-0.5-0.2-0.7-0.4s-0.3-0.4-0.5-0.6
				c-0.1-0.2-0.2-0.5-0.2-0.8C156.2,13.4,156.4,13,156.9,12.7 M158.7,21h2v-0.1h-0.1c-0.1,0-0.1,0-0.2-0.1c-0.1-0.1-0.1-0.1-0.1-0.2
				s-0.1-0.2-0.1-0.2c0-0.1,0-0.2,0-0.2v-7.5c0-0.1,0-0.1,0-0.2c0-0.1,0-0.2,0.1-0.2c0-0.1,0.1-0.1,0.1-0.2c0.1-0.1,0.1-0.1,0.2-0.1
				h0.1v-0.1h-2c-0.5,0-1,0.1-1.4,0.2s-0.8,0.3-1.1,0.5s-0.5,0.5-0.7,0.8s-0.2,0.6-0.2,1c0,0.3,0.1,0.5,0.2,0.8
				c0.1,0.2,0.3,0.5,0.5,0.7s0.5,0.4,0.8,0.5s0.7,0.2,1.1,0.2c-0.3,0.1-0.6,0.3-0.7,0.5c-0.2,0.2-0.3,0.4-0.4,0.7l-1.1,2
				c-0.1,0.1-0.2,0.3-0.3,0.5s-0.3,0.3-0.4,0.5c-0.2,0.1-0.3,0.3-0.5,0.4s-0.4,0.1-0.6,0.1V21h0.7c0.5,0,0.9-0.1,1.3-0.4
				c0.4-0.3,0.7-0.6,0.9-1c0.1-0.2,0.2-0.4,0.4-0.6c0.1-0.2,0.2-0.4,0.3-0.6c0.1-0.3,0.3-0.5,0.4-0.7c0.1-0.2,0.3-0.4,0.5-0.6
				s0.3-0.3,0.5-0.4s0.4-0.2,0.6-0.2v3.8c0,0.1,0,0.2,0,0.2l-0.1,0.2c0,0.1-0.1,0.1-0.1,0.2c-0.1,0.1-0.1,0.1-0.2,0.1H159l0,0H158.7
				z M149.2,21h2v-0.1h-0.1c-0.1,0-0.1,0-0.2-0.1c-0.1-0.1-0.1-0.1-0.1-0.2s-0.1-0.2-0.1-0.2c0-0.1,0-0.2,0-0.2v-7.5
				c0-0.1,0-0.1,0-0.2c0-0.1,0-0.2,0.1-0.2c0-0.1,0.1-0.1,0.1-0.2C151,12,151,12,151.1,12h0.1v-0.1h-2V12h0.1c0.1,0,0.1,0,0.2,0.1
				c0.1,0.1,0.1,0.1,0.1,0.2s0.1,0.2,0.1,0.2c0,0.1,0,0.2,0,0.2v3.2h-4.5v-3.2c0-0.1,0-0.1,0-0.2c0-0.1,0-0.2,0.1-0.2
				s0.1-0.1,0.1-0.2c0.1-0.1,0.1-0.1,0.2-0.1h0.1v-0.1h-2V12h0.1c0.1,0,0.1,0,0.2,0.1c0.1,0.1,0.1,0.1,0.1,0.2
				c0,0.1,0.1,0.2,0.1,0.2c0,0.1,0,0.2,0,0.2v7.5c0,0.1,0,0.2,0,0.2c0,0.1,0,0.2-0.1,0.3c0,0.1-0.1,0.1-0.1,0.2
				c-0.1,0.1-0.1,0.1-0.2,0.1h-0.1l0,0h2v-0.1h-0.1c-0.1,0-0.1,0-0.2-0.1c-0.1-0.1-0.1-0.1-0.1-0.2s-0.1-0.2-0.1-0.2
				c0-0.1,0-0.2,0-0.2v-3.8h4.5v3.8c0,0.1,0,0.2,0,0.2s0,0.2-0.1,0.3c0,0.1-0.1,0.1-0.1,0.2c-0.1,0.1-0.1,0.1-0.2,0.1H149.2
				L149.2,21z M135.2,21h5.8v-1.6h-0.1c0,0.1,0,0.2-0.1,0.3c0,0.1-0.1,0.3-0.2,0.4c-0.1,0.1-0.2,0.2-0.3,0.3
				c-0.1,0.1-0.3,0.1-0.5,0.1h-3.1v-4.3h2.3c0.2,0,0.4,0.1,0.5,0.2s0.2,0.3,0.2,0.4h0.1V15h-0.1c0,0.2-0.1,0.3-0.2,0.5
				c-0.1,0.1-0.3,0.2-0.5,0.2h-2.3v-3.6h2.8c0.3,0,0.6,0.1,0.7,0.2c0.1,0.2,0.2,0.4,0.3,0.6h0.1v-1.3h-5.4v0.1h0.1
				c0.1,0,0.1,0,0.2,0.1c0.1,0.1,0.1,0.1,0.1,0.2c0,0.1,0.1,0.2,0.1,0.2c0,0.1,0,0.2,0,0.2v7.5c0,0.1,0,0.2,0,0.2
				c0,0.1-0.1,0.2-0.1,0.2c0,0.1-0.1,0.1-0.1,0.2c-0.1,0.1-0.1,0.1-0.2,0.1h-0.1V21z M130.4,21h2v-0.1h-0.1c-0.1,0-0.1,0-0.2-0.1
				c-0.1-0.1-0.1-0.1-0.1-0.2s-0.1-0.2-0.1-0.2v-0.2v-7.5c0-0.1,0-0.1,0-0.2c0-0.1,0-0.2,0.1-0.2c0-0.1,0.1-0.1,0.1-0.2
				c0.1-0.1,0.1-0.1,0.2-0.1h0.1v-0.1h-1.6l-3.3,7.7l-3.3-7.7h-1.4V12h0.1c0.1,0,0.1,0,0.2,0.1s0.1,0.1,0.1,0.2
				c0,0.1,0.1,0.2,0.1,0.2c0,0.1,0,0.2,0,0.2v7.5c0,0.1,0,0.2,0,0.2c0,0.1,0,0.2-0.1,0.2c0,0.1-0.1,0.1-0.1,0.2
				c-0.1,0.1-0.1,0.1-0.2,0.1h-0.1V21h1.5v-0.1h-0.1c-0.1,0-0.1,0-0.2-0.1s-0.1-0.1-0.1-0.2s-0.1-0.2-0.1-0.2v-0.2v-6.9l3.4,8
				l3.6-8.4v7.4c0,0.1,0,0.2,0,0.2s0,0.2-0.1,0.2c0,0.1-0.1,0.1-0.1,0.2C130.5,21,130.5,21,130.4,21h-0.1l0,0H130.4z M111.3,12.7
				c0.5-0.3,1.2-0.4,2.1-0.4h0.2v3.6h-0.9c-0.3,0-0.6,0-0.9-0.1s-0.5-0.2-0.7-0.4s-0.3-0.4-0.5-0.6c-0.1-0.2-0.2-0.5-0.2-0.8
				C110.5,13.4,110.8,13,111.3,12.7 M113.1,21h2v-0.1H115c-0.1,0-0.1,0-0.2-0.1s-0.1-0.1-0.1-0.2s-0.1-0.2-0.1-0.2
				c0-0.1,0-0.2,0-0.2v-7.5c0-0.1,0-0.1,0-0.2c0-0.1,0-0.2,0.1-0.2c0-0.1,0.1-0.1,0.1-0.2c0.1-0.1,0.1-0.1,0.2-0.1h0.1v-0.1h-2
				c-0.5,0-1,0.1-1.4,0.2c-0.4,0.1-0.8,0.3-1.1,0.5c-0.3,0.2-0.5,0.5-0.7,0.8s-0.2,0.6-0.2,1c0,0.3,0.1,0.5,0.2,0.8
				c0.1,0.2,0.3,0.5,0.5,0.7s0.5,0.4,0.8,0.5s0.7,0.2,1.1,0.2c-0.3,0.1-0.6,0.3-0.7,0.5c-0.2,0.2-0.3,0.4-0.4,0.7l-1.1,2
				c-0.1,0.1-0.2,0.3-0.3,0.5c-0.1,0.2-0.3,0.3-0.4,0.5c-0.2,0.1-0.3,0.3-0.5,0.4s-0.4,0.1-0.6,0.1V21h0.7c0.5,0,0.9-0.1,1.3-0.4
				s0.7-0.6,0.9-1c0.1-0.2,0.2-0.4,0.4-0.6c0.1-0.2,0.2-0.4,0.3-0.6c0.1-0.3,0.3-0.5,0.4-0.7s0.3-0.4,0.5-0.6s0.3-0.3,0.5-0.4
				s0.4-0.2,0.6-0.2v3.8c0,0.1,0,0.2,0,0.2c0,0.1-0.1,0.2-0.1,0.2c0,0.1-0.1,0.1-0.1,0.2c-0.1,0.1-0.1,0.1-0.2,0.1h-0.1l0,0H113.1z
				 M101.3,13.2l2.6,7.3c0,0.1,0,0.1,0,0.1c0,0.1,0,0.2-0.1,0.2c-0.1,0.1-0.2,0.1-0.2,0.1V21h2v-0.1c-0.2,0-0.3-0.1-0.4-0.2
				s-0.2-0.2-0.3-0.4l-3.1-8.6h-1.2v0.1c0.1,0,0.2,0,0.2,0.1c0.1,0.1,0.1,0.2,0.1,0.3s0,0.2-0.1,0.3L98.2,20
				c-0.1,0.2-0.2,0.3-0.3,0.4c-0.1,0.1-0.2,0.2-0.3,0.3c-0.1,0.1-0.2,0.1-0.3,0.2c-0.1,0-0.2,0-0.2,0V21h0.4c0.3,0,0.6-0.1,0.8-0.3
				c0.2-0.2,0.3-0.4,0.4-0.7L101.3,13.2z M89.9,13.6l2.7,7h-5.4L89.9,13.6z M94,20.6c-0.2,0-0.3-0.1-0.4-0.2s-0.2-0.2-0.3-0.4
				L90,11.6L86.9,20c-0.1,0.3-0.3,0.5-0.6,0.5h-0.6v1.8h0.1c0-0.1,0-0.2,0.1-0.4c0.1-0.1,0.1-0.3,0.2-0.4s0.2-0.2,0.3-0.3
				c0.1-0.1,0.3-0.1,0.4-0.1h6.5c0.2,0,0.3,0,0.4,0.1s0.2,0.2,0.3,0.3s0.2,0.3,0.2,0.4c0.1,0.1,0.1,0.3,0.1,0.4h0.1v-1.8H94V20.6z"
				/>
		</g>
	</g>
</g>
</svg>
