<?xml version="1.0" encoding="utf-8"?>
<!-- Generator: Adobe Illustrator 20.1.0, SVG Export Plug-In . SVG Version: 6.00 Build 0)  -->
<svg version="1.1" id="Layer_1" xmlns="http://www.w3.org/2000/svg" xmlns:xlink="http://www.w3.org/1999/xlink" x="0px" y="0px"
	 viewBox="0 0 55 47.4" style="enable-background:new 0 0 55 47.4;" xml:space="preserve">

<g>
	<path fill="#fff" d="M49.6,16.8H27.4L23.5,24v4L14,19.2c0,0,0,0-0.1-0.1c-2.6-2-5.6-2.2-8.3-0.6C3,20,1.3,23,1.6,25.2c0.1,1.6,1.9,15.1,2.6,21
		c0.1,0.5,0.5,0.8,1,0.8h14.2c0.3,0,0.5-0.1,0.7-0.3s0.3-0.5,0.2-0.7l-0.8-8.4l3.7,3.3v5.6h30.3v-23L49.6,16.8z M39.7,18.8h8.8
		l2.7,4.6H39.7V18.8z M28.5,18.8h9.2v4.6H26.1L28.5,18.8z M19,34.6c-0.3-0.3-0.7-0.3-1.1-0.2c-0.4,0.2-0.6,0.6-0.5,1l0.9,9.9H6
		c-1-8-2.5-19.4-2.5-20.1v-0.1c-0.2-1.3,1-3.6,3.1-4.8c1.2-0.7,3.5-1.5,6.1,0.4l14.1,13.1c0.2,0.2,0.4,0.3,0.7,0.3h12
		c2.1,0.1,3.1,1.7,3.1,3.2c0,1.4-0.7,2.8-2.4,2.8H25.1L19,34.6z M51.6,44.6H25.2V42h15l0,0c2.8-0.1,4.3-2.5,4.3-4.8
		c0-2.5-1.7-5.1-5-5.1l0,0H27.8l-2.4-2.2l0,0v-4.6h26.2V44.6z"/>
	<path fill="#fff" d="M10.7,15.7c4.1,0,7.4-3.3,7.4-7.3c0-4.1-3.3-7.3-7.4-7.3C6.6,1,3.3,4.3,3.3,8.3C3.3,12.4,6.6,15.7,10.7,15.7z M10.7,2.9
		c3,0,5.4,2.4,5.4,5.4s-2.4,5.4-5.4,5.4s-5.4-2.4-5.4-5.4C5.3,5.4,7.7,2.9,10.7,2.9z"/>
</g>
</svg>
