<?xml version="1.0" encoding="utf-8"?>
<!-- Generator: Adobe Illustrator 20.1.0, SVG Export Plug-In . SVG Version: 6.00 Build 0)  -->
<svg version="1.1" id="Layer_1" xmlns="http://www.w3.org/2000/svg" xmlns:xlink="http://www.w3.org/1999/xlink" x="0px" y="0px"
	 viewBox="0 0 122.2 95.9" style="enable-background:new 0 0 122.2 95.9;" xml:space="preserve">
<style type="text/css">
	.st0{fill:url(#SVGID_1_);}
	.st1{fill:url(#SVGID_2_);}
	.st2{fill:#177CC0;}
	.st3{fill:url(#SVGID_3_);enable-background:new    ;}
	.st4{fill:url(#SVGID_4_);enable-background:new    ;}
</style>
<g>
	<g>
		
			<linearGradient id="SVGID_1_" gradientUnits="userSpaceOnUse" x1="29.9" y1="60.75" x2="68.9" y2="60.75" gradientTransform="matrix(1 0 0 -1 0 98)">
			<stop  offset="0" style="stop-color:#FFDE00"/>
			<stop  offset="0.3114" style="stop-color:#FFD200"/>
			<stop  offset="0.732" style="stop-color:#F4BA1C"/>
			<stop  offset="1" style="stop-color:#F4961C"/>
		</linearGradient>
		<path class="st0" d="M68.9,37.3c0,1.1-0.1,2.1-0.2,3.1c-0.2,1-0.4,2-0.7,3c-0.8,2.3-1.9,4.4-3.5,6.3c-0.6,0.8-1.4,1.5-2.1,2.2
			c-1.8,1.6-3.9,2.9-6.2,3.7c-1,0.4-1.9,0.6-3,0.8c-1.2,0.3-2.5,0.4-3.9,0.4c-1.1,0-2.3-0.1-3.3-0.3s-2-0.4-3-0.8
			c-2.3-0.8-4.4-2-6.2-3.5c-0.8-0.7-1.5-1.4-2.2-2.2c-1.6-1.8-2.8-3.9-3.6-6.2c-0.3-0.9-0.6-1.9-0.8-2.9c-0.2-1.2-0.3-2.4-0.3-3.7
			c0-1.2,0.1-2.3,0.3-3.5c0.2-1,0.4-2,0.8-2.9c0.8-2.3,2-4.4,3.5-6.2c0.6-0.8,1.3-1.5,2.1-2.1c1.8-1.6,3.8-2.8,6.1-3.6
			c0.9-0.3,1.9-0.6,2.9-0.8c1.2-0.2,2.5-0.4,3.8-0.4c1.1,0,2.2,0.1,3.3,0.3c1,0.2,2,0.4,2.9,0.7c2.3,0.8,4.4,1.9,6.2,3.4
			c0.8,0.6,1.5,1.3,2.2,2.1c1.6,1.8,2.9,3.8,3.7,6.1c0.4,0.9,0.6,1.9,0.9,2.9C68.7,34.5,68.9,35.9,68.9,37.3z"/>
		<g>
			
				<linearGradient id="SVGID_2_" gradientUnits="userSpaceOnUse" x1="12.3344" y1="60.8" x2="86.435" y2="60.8" gradientTransform="matrix(1 0 0 -1 0 98)">
				<stop  offset="0" style="stop-color:#FFDE00"/>
				<stop  offset="0.3114" style="stop-color:#FFD200"/>
				<stop  offset="0.7359" style="stop-color:#F4BA1C"/>
				<stop  offset="1" style="stop-color:#F4961C"/>
			</linearGradient>
			<path class="st1" d="M86.4,41c-4.3,0-5.9-4.2-7.6-7.1c-0.9-1.5-1.8-2.6-3-3.4c1.6-1.3,3.1-2.7,4.3-4.3c1-1.4,1.9-3.2,3.2-4.2
				c-3.7,2.2-7.2-0.7-10.1-2.4c-1.5-0.8-2.9-1.4-4.3-1.5c0.8-1.9,1.4-3.9,1.6-5.9c0.2-1.7,0.1-3.7,0.7-5.3c-2.1,3.7-6.6,3-10,3
				c-1.7,0-3.2,0.2-4.5,0.9c-0.3-2-0.8-4-1.5-5.9c-0.7-1.5-1.8-3.3-2-4.9c0,4.3-4.2,5.9-7.1,7.6c-1.5,0.9-2.6,1.8-3.4,3
				C41.4,9,40,7.5,38.4,6.3c-1.4-1-3.2-1.9-4.2-3.2c2.2,3.7-0.7,7.2-2.4,10.1c-0.8,1.5-1.4,2.9-1.5,4.3c-1.9-0.8-3.9-1.4-5.9-1.6
				c-1.7-0.2-3.7-0.1-5.3-0.7c3.7,2.1,3,6.6,3,10c0,1.7,0.2,3.2,0.8,4.5c-2,0.3-4,0.8-5.9,1.6c-1.5,0.7-3.3,1.8-4.9,2
				c4.3,0,5.9,4.2,7.6,7.1c0.9,1.5,1.8,2.6,3,3.4c-1.6,1.3-3.1,2.7-4.3,4.3c-1,1.4-1.9,3.2-3.2,4.2c3.7-2.2,7.2,0.7,10.1,2.4
				c1.5,0.8,2.9,1.4,4.3,1.5c-0.8,1.9-1.4,3.9-1.6,5.9c-0.2,1.7-0.1,3.7-0.7,5.3c2.1-3.7,6.6-3,10-3c1.7,0,3.2-0.2,4.5-0.8
				c0.3,2,0.8,4,1.6,5.9c0.7,1.5,1.8,3.3,2,4.9c0-4.3,4.2-5.9,7.1-7.6c1.5-0.9,2.7-1.8,3.4-3c1.3,1.6,2.7,3.1,4.3,4.3
				c1.3,1,3.2,1.9,4.2,3.2c-2.2-3.7,0.7-7.2,2.4-10.1c0.8-1.5,1.4-2.9,1.5-4.3c1.9,0.8,3.9,1.4,5.9,1.6c1.7,0.2,3.7,0,5.3,0.7
				c-3.7-2.1-3-6.6-3-10c0-1.7-0.2-3.2-0.8-4.5c2-0.3,4-0.8,5.9-1.6C83.1,42.3,84.8,41.2,86.4,41z M70.7,40.7
				c-0.2,1.1-0.4,2.2-0.8,3.3c-0.8,2.6-2.1,4.9-3.8,7c-0.7,0.9-1.5,1.7-2.3,2.4c-2,1.8-4.3,3.2-6.8,4.1c-1.1,0.4-2.1,0.7-3.3,0.9
				c-1.4,0.3-2.8,0.4-4.3,0.4c-1.3,0-2.5-0.1-3.7-0.3c-1.1-0.2-2.2-0.5-3.3-0.8c-2.6-0.9-4.9-2.2-6.9-3.9c-0.9-0.7-1.7-1.5-2.4-2.4
				c-1.7-2-3.1-4.3-4-6.8c-0.4-1-0.7-2.1-0.9-3.3c-0.3-1.3-0.4-2.7-0.4-4s0.1-2.6,0.3-3.9c0.2-1.1,0.5-2.2,0.8-3.2
				c0.9-2.5,2.2-4.8,3.9-6.8c0.7-0.9,1.5-1.6,2.3-2.4c2-1.7,4.3-3.1,6.8-4c1-0.4,2.1-0.7,3.2-0.9c1.4-0.3,2.8-0.4,4.2-0.4
				c1.2,0,2.4,0.1,3.6,0.3c1.1,0.2,2.2,0.5,3.2,0.8c2.5,0.8,4.9,2.1,6.9,3.8c0.9,0.7,1.7,1.5,2.4,2.3c1.8,2,3.2,4.2,4.1,6.7
				c0.4,1,0.7,2.1,0.9,3.2c0.3,1.4,0.5,2.9,0.5,4.5C71,38.4,70.9,39.6,70.7,40.7z"/>
		</g>
	</g>
	<g>
		<g>
			<path class="st2" d="M59.2,89.7c-10.8-3.4-20.8-8.6-32.4-8C18.5,81.9,5.5,83.6,0,90.8c2.8-5.5,13.3-12.5,18.8-14.4
				c5.8-2.2,11.3-2.8,17.7-1.9c12.2,1.7,23.2,10,35.1,11.1c10.2,0.8,21.6-8.3,14.1-18C81,61.5,74.4,59,67.2,60.4
				c-3.6,0.8-8.9,0.8-8-4.7c0.6-4.2,6.5-7.5,10.1-7.7c11.1-0.8,18.7,2,24.9,10.4C109.8,79.3,82.2,96.9,59.2,89.7z"/>
			<path class="st2" d="M103.4,70c-0.7,8.4-5.8,13.4-12.1,17.4c6.5-4.8,10.5-11.8,9.6-19.7c-1.1-8-7.6-16-12.9-21.8
				c-2.5-2.5-6.1-5.8-5.8-9.7c0.3-4.2,3.9-7.2,7.7-6.1c6.9,1.9,6.6,10.7,8.3,16.2C100.7,55,104.2,60.4,103.4,70z"/>
			<path class="st2" d="M115,41.8c-1.5,5.4-2.2,7.1-4.9,14.8c-1.3,3.7-4.2,12.5-5.6,16c1.7-10,0.6-14.3-1.4-20.7
				C98.6,37.4,118.8,28,115,41.8z"/>
			<path class="st2" d="M84.4,46c-4.2-0.3-18.1,1.1-16.9-6.6c0.5-3.2,5.5-4.6,8.3-3.2C79.1,37.8,79.8,41.8,84.4,46z"/>
			<path class="st2" d="M78,64.9c-3.9,0-5.7,5.1-8.9,4.3c-4.3-1.2-2.7-5.8,0-6C72.2,62.9,75.4,63.4,78,64.9z"/>
			<path class="st2" d="M110.6,59.7c4.7-4.9,10-4,11.2-7.2c1.8-4.7-3.7-5.9-5.5-3.8C114,51,112.4,55.3,110.6,59.7z"/>
			<path class="st2" d="M68.4,93.3c-4,0.9-7.9,2-12,2.4c-7.6,0.7-13.7-0.7-20.7-3.3c-11.1-4.3-22.3-5.7-33.4-1.3
				c9.6-7.4,25.8-8.3,37.3-5.3C49.2,88.3,51.6,91.7,68.4,93.3z"/>
		</g>
		
			<linearGradient id="SVGID_3_" gradientUnits="userSpaceOnUse" x1="36.9799" y1="2.0118" x2="80.5518" y2="45.5837" gradientTransform="matrix(1 0 0 -1 0 98)">
			<stop  offset="0" style="stop-color:#177CC0"/>
			<stop  offset="1" style="stop-color:#104684"/>
		</linearGradient>
		<path class="st3" d="M92.3,73.3c-0.6,9.3-8.1,15.5-19.9,15.5c-7.7,0-15.3-3.6-22.4-6.6c-6.5-2.7-11.6-5-18.6-5.9
			c-2.8-0.2-8.9-0.1-13.6,0.6c0.3-0.1,0.7-0.3,1-0.4c5.8-2.2,11.3-2.8,17.7-1.9c12.2,1.7,23.3,10,35.1,11.1
			c10.2,0.8,21.6-8.3,14.1-18c-4.7-6.1-11.3-8.6-18.5-7.2c-2.8,0.6-6.5,0.8-7.7-1.7c-2.4-8.4,12.7-7.7,19-5.3
			C87.4,56.8,92.8,64.4,92.3,73.3z"/>
		
			<linearGradient id="SVGID_4_" gradientUnits="userSpaceOnUse" x1="97.4504" y1="32.4592" x2="119.995" y2="55.0038" gradientTransform="matrix(1 0 0 -1 0 98)">
			<stop  offset="0" style="stop-color:#177CC0"/>
			<stop  offset="1" style="stop-color:#104684"/>
		</linearGradient>
		<path class="st4" d="M115,42c-1.5,5.3-2.2,7-4.8,14.6c-1.3,3.7-4.2,12.5-5.6,16c2.2-8,2.1-13.4,2.2-16.3c0.1-2.6,0.1-4.6,0.1-6.9
			c0-3,0.4-5.7,1.7-8.5C110.7,36.3,116.6,34.8,115,42z"/>
	</g>
</g>
</svg>
