<svg id="Layer_1" xmlns="http://www.w3.org/2000/svg" viewBox="-452 453.3 512 512"><style>.st0{fill:#4c56b5}</style><path class="st0" d="M34.5 873.4L-71.1 767.8l42.7-15.5c3.6-1.3 5.8-5.1 5.1-8.9l-11.4-64.9 32.9-57.1c1.9-3.4 1.2-7.6-1.8-10.1L-54 569l-11.4-64.9c-.7-3.8-4-6.6-7.9-6.6h-65.9l-50.5-42.3c-3-2.5-7.3-2.5-10.3 0l-50.5 42.3h-65.9c-3.9 0-7.2 2.8-7.9 6.6l-11.4 64.9-50.5 42.3c-3 2.5-3.7 6.8-1.8 10.1l32.9 57.1-11.4 64.9c-.7 3.8 1.5 7.6 5.1 8.9l40.9 14.9-106.2 106.2c-2.2 2.2-2.9 5.5-1.9 8.4 1.1 2.9 3.7 5 6.8 5.2l65.5 5.5 5.5 65.5c.3 3.1 2.3 5.8 5.2 6.8.9.3 1.8.5 2.7.5 2.1 0 4.1-.8 5.6-2.3L-196 822l140.9 141c1.5 1.5 3.6 2.3 5.6 2.3.9 0 1.9-.2 2.7-.5 2.9-1.1 5-3.7 5.2-6.8l5.5-65.5 65.5-5.5c3.1-.3 5.8-2.3 6.8-5.2 1.2-2.9.5-6.2-1.7-8.4zm-370.6 66.1l-4.6-55.1c-.3-3.9-3.4-7-7.3-7.3l-55.1-4.6 99.3-99.3 4.5 1.6 32.9 57.1c1.5 2.5 4.1 4 6.9 4 .9 0 1.8-.2 2.7-.5l38.9-14.2-118.2 118.3zm147.8-141.3l-3.8-1.4c-1.8-.6-3.7-.6-5.5 0l-5.6 2-52.7 19.2-31-53.8c-.9-1.6-2.4-2.9-4.2-3.5l-12-4.4-46.4-16.9 10.8-61.1c.3-1.9 0-3.8-.9-5.4l-31-53.8 47.6-39.9c1.4-1.2 2.4-2.9 2.7-4.7l10.8-61.1h62.1c1.9 0 3.7-.7 5.1-1.9l47.6-39.9 47.6 39.9c1.4 1.2 3.3 1.9 5.1 1.9h62l10.8 61.1c.3 1.8 1.3 3.5 2.7 4.7l47.6 39.9L-50 673c-.9 1.6-1.3 3.5-.9 5.4l10.8 61.1-48.2 17.5-10.2 3.7c-1.8.6-3.2 1.9-4.2 3.5l-31 53.8-54.6-19.8c.1 0 0 0 0 0zm144.2 78.9c-3.9.3-7 3.4-7.3 7.3l-4.6 55.1-119.7-119.7 42.8 15.6c.9.3 1.8.5 2.7.5 2.8 0 5.5-1.5 6.9-4l32.9-57.1 2.6-1L11 872.5l-55.1 4.6z"/><path class="st0" d="M-49.4 967.8c-2.8 0-5.4-1.1-7.4-3.1L-196 825.6l-139.2 139.2c-2 2-4.6 3.1-7.4 3.1-1.2 0-2.4-.2-3.6-.6-3.8-1.4-6.5-4.9-6.8-9l-5.3-63.4-63.4-5.3c-4.1-.3-7.6-3-9-6.8-1.4-3.8-.4-8.1 2.4-11l103.5-103.5-37.2-13.5c-4.8-1.7-7.6-6.7-6.7-11.7l11.3-64-32.5-56.3c-2.5-4.4-1.6-10 2.3-13.3l49.8-41.8 11.3-64c.9-5 5.2-8.7 10.3-8.7h65l49.8-41.8c3.9-3.3 9.6-3.3 13.5 0l49.8 41.8h65c5.1 0 9.4 3.6 10.3 8.7l11.3 64 49.8 41.8c3.9 3.3 4.9 8.9 2.3 13.3L-32.1 679l11.3 64c.9 5-1.9 9.9-6.7 11.7l-39 14.2L36.3 871.6c2.9 2.9 3.8 7.2 2.4 11s-4.9 6.5-9 6.8l-63.4 5.3-5.3 63.4c-.3 4.1-3 7.6-6.8 9-1.2.5-2.4.7-3.6.7zM-196 818.5l142.7 142.7c1.5 1.5 3.8 2 5.8 1.3s3.4-2.6 3.6-4.7l5.6-67.6 67.6-5.6c2.1-.2 4-1.6 4.7-3.6.7-2 .2-4.3-1.3-5.8L-75.6 766.8l46.4-16.9c2.5-.9 4-3.5 3.5-6.1L-37.3 678l33.4-57.8c1.3-2.3.8-5.2-1.2-6.9l-51.2-42.9-11.6-65.8c-.5-2.6-2.7-4.5-5.4-4.5h-66.8l-51.2-42.9c-2-1.7-5-1.7-7.1 0l-51.2 42.9h-66.8c-2.7 0-4.9 1.9-5.4 4.5l-11.6 65.8-51.2 42.9c-2 1.7-2.6 4.6-1.2 6.9l33.4 57.8-11.6 65.8c-.5 2.6 1 5.2 3.5 6.1l44.6 16.2-109 109c-1.5 1.5-2 3.8-1.3 5.8s2.6 3.4 4.7 3.6l67.6 5.6 5.6 67.6c.2 2.1 1.6 4 3.6 4.7 2 .7 4.3.2 5.8-1.3L-196 818.5zm142.1 126.6l-131.5-131.5L-132 833c.6.2 1.2.3 1.9.3 2 0 3.8-1.1 4.8-2.7l33.4-57.8 5-1.8L16.6 874.6l-60.5 5c-2.7.2-4.8 2.3-5 5l-5 60.5zm-112-119.1L-58 933.9l4.1-49.7c.4-5.1 4.5-9.2 9.6-9.6l49.7-4.1-93.7-93.7-.3.1-32.5 56.3c-1.9 3.2-5.3 5.2-9.1 5.2-1.2 0-2.4-.2-3.6-.6l-32.1-11.8zm-172.2 119.1l-5-60.5c-.2-2.7-2.3-4.8-5-5l-60.5-5 104.3-104.3 6.8 2.5 33.4 57.8c1 1.7 2.8 2.7 4.8 2.7.6 0 1.3-.1 1.9-.3l49.5-18-130.2 130.1zm-59.4-74.6l49.7 4.1c5.1.4 9.1 4.5 9.6 9.6l4.1 49.7 106.5-106.5-28.3 10.3c-1.2.4-2.4.6-3.6.6-3.7 0-7.2-2-9.1-5.2l-32.5-56.3-2.1-.8-94.3 94.5zm264.9-49.4l-60.3-22c-1.2-.4-2.5-.4-3.7 0l-60.3 22-32.1-55.6c-.6-1.1-1.7-2-2.9-2.4l-60.3-22 11.1-63.2c.2-1.3 0-2.6-.7-3.7l-32.1-55.6 49.2-41.3c1-.8 1.7-2 1.9-3.2l11.1-63.2h64.2c1.3 0 2.5-.5 3.5-1.3l49.2-41.3 49.2 41.3c1 .8 2.2 1.3 3.5 1.3h64.2l11.1 63.2c.2 1.3.9 2.4 1.9 3.2l49.2 41.3-32.1 55.6c-.6 1.1-.9 2.4-.7 3.7l11.1 63.2-60.3 22c-1.2.4-2.2 1.3-2.9 2.4l-32 55.6zm-54.7-25.2l52.5 19.1 30-52c1.2-2.1 3.2-3.8 5.5-4.6l56.4-20.5-10.4-59.1c-.4-2.4 0-4.9 1.2-7.1l30-51.9-46-38.6c-1.9-1.6-3.2-3.8-3.6-6.2l-10.4-59h-60c-2.5 0-4.9-.9-6.7-2.5l-46-38.6-46 38.6c-1.9 1.6-4.3 2.5-6.7 2.5h-60l-10.4 59.1c-.4 2.4-1.7 4.6-3.6 6.2l-46 38.6 30 52c1.2 2.1 1.7 4.6 1.2 7.1l-10.4 59.1 56.4 20.5c2.3.8 4.3 2.5 5.5 4.6l30 52 56.4-20.5c2.3-.8 4.9-.8 7.2 0l3.9 1.2z"/><path class="st0" d="M-196 521.8c-70.1 0-127.2 57.1-127.2 127.2s57.1 127.2 127.2 127.2S-68.8 719.1-68.8 649-125.9 521.8-196 521.8zm0 238.5c-61.3 0-111.2-49.9-111.2-111.2s49.9-111.2 111.2-111.2c61.3 0 111.2 49.9 111.2 111.2S-134.7 760.3-196 760.3z"/><path class="st0" d="M-196 778.7c-71.5 0-129.7-58.2-129.7-129.7 0-71.5 58.2-129.7 129.7-129.7 71.5 0 129.7 58.2 129.7 129.7 0 71.6-58.2 129.7-129.7 129.7zm0-254.4c-68.8 0-124.7 55.9-124.7 124.7 0 68.8 55.9 124.7 124.7 124.7 68.8 0 124.7-55.9 124.7-124.7 0-68.7-55.9-124.7-124.7-124.7zm0 238.5c-62.7 0-113.7-51-113.7-113.7s51-113.7 113.7-113.7 113.7 51 113.7 113.7-51 113.7-113.7 113.7zm0-222.5c-60 0-108.7 48.8-108.7 108.7S-256 757.8-196 757.8-87.3 709-87.3 649.1c0-60-48.7-108.8-108.7-108.8z"/><path class="st0" d="M-104.1 623.6c-1.1-3.3-4.1-5.5-7.6-5.5h-58.9l-18.2-56c-1.1-3.3-4.1-5.5-7.6-5.5s-6.5 2.2-7.6 5.5l-18.2 56h-58.9c-3.5 0-6.5 2.2-7.6 5.5-1.1 3.3.1 6.9 2.9 8.9l47.7 34.6-18.2 56c-1.1 3.3.1 6.9 2.9 8.9 1.4 1 3 1.5 4.7 1.5s3.3-.5 4.7-1.5l47.7-34.6 47.7 34.6c2.8 2 6.6 2 9.4 0 2.8-2 4-5.6 2.9-8.9l-18.2-56 47.7-34.6c2.6-2 3.8-5.6 2.7-8.9zm-64.7 34.1c-2.8 2-4 5.6-2.9 8.9l12.4 38.2-32.5-23.6c-2.8-2-6.6-2-9.4 0l-32.5 23.6 12.4-38.2c1.1-3.3-.1-6.9-2.9-8.9l-32.5-23.6h40.2c3.5 0 6.5-2.2 7.6-5.5l12.4-38.2 12.4 38.2c1.1 3.3 4.1 5.5 7.6 5.5h40.2l-32.5 23.6z"/><path class="st0" d="M-144.1 736.2c-2.2 0-4.3-.7-6.2-2l-46.2-33.6-46.2 33.6c-1.8 1.3-3.9 2-6.2 2-2.2 0-4.4-.7-6.2-2-3.7-2.7-5.2-7.4-3.8-11.7l17.6-54.3-46.2-33.6c-3.7-2.7-5.2-7.4-3.8-11.7 1.4-4.3 5.4-7.2 10-7.2h57.1l17.6-54.3c1.4-4.3 5.4-7.2 10-7.2s8.6 2.9 10 7.2l17.6 54.3h57.1c4.6 0 8.6 2.9 10 7.2 1.4 4.3-.1 9-3.8 11.7l-46.2 33.6 17.6 54.3c1.4 4.3-.1 9-3.8 11.7-1.7 1.3-3.8 2-6 2zm-52.3-41.8l49.1 35.7c1.9 1.4 4.5 1.4 6.4 0s2.7-3.9 2-6.1l-18.8-57.8 49.1-35.7c1.9-1.4 2.7-3.9 2-6.1s-2.8-3.8-5.2-3.8h-60.7l-18.8-57.8c-.7-2.3-2.8-3.8-5.2-3.8-2.4 0-4.5 1.5-5.2 3.8l-18.8 57.8h-60.7c-2.4 0-4.5 1.5-5.2 3.8-.7 2.3.1 4.7 2 6.1l49.1 35.7L-254 724c-.7 2.3.1 4.7 2 6.1 1.9 1.4 4.6 1.4 6.4 0l49.2-35.7zm-42 16.9l14.8-45.5c.7-2.3-.1-4.7-2-6.1l-38.7-28.1h47.8c2.4 0 4.5-1.5 5.2-3.8l14.8-45.5 14.8 45.5c.7 2.3 2.8 3.8 5.2 3.8h47.8l-38.7 28.1c-1.9 1.4-2.7 3.9-2 6.1l14.8 45.5-38.7-28.1c-1.9-1.4-4.5-1.4-6.4 0l-38.7 28.1zm-10.5-74.7l26.3 19.1c3.7 2.7 5.2 7.4 3.8 11.7l-10 30.9 26.3-19.1c3.7-2.7 8.6-2.7 12.3 0l26.3 19.1-10-30.9c-1.4-4.3.1-9 3.8-11.7l26.3-19.1h-32.5c-4.6 0-8.6-2.9-10-7.2l-10-30.9-10 30.9c-1.4 4.3-5.4 7.2-10 7.2h-32.6z"/></svg>