<svg xmlns="http://www.w3.org/2000/svg" width="45" height="45" viewBox="-3 -3 51 51"><title>Ellipse 1</title><defs><clipPath id="a"><path d="M514.5 1244c12.426 0 22.5 10.07 22.5 22.5s-10.074 22.5-22.5 22.5-22.5-10.07-22.5-22.5 10.074-22.5 22.5-22.5z" fill="#fff"/></clipPath></defs><path d="M514.5 1244c12.426 0 22.5 10.07 22.5 22.5s-10.074 22.5-22.5 22.5-22.5-10.07-22.5-22.5 10.074-22.5 22.5-22.5z" fill-opacity="0" fill="#fff" stroke-dasharray="0" stroke="#fff" stroke-miterlimit="50" stroke-width="2" clip-path="url(&amp;quot;#a&amp;quot;)" transform="translate(-492 -1244)"/><path d="M32.335 33.54a1.85 1.85 0 0 1-2.623-.21l-6.011-7.08a1.84 1.84 0 0 1-.358-1.74 6.841 6.841 0 0 1-4.131 1 6.748 6.748 0 0 1-6.185-7.29c.15-1.8.993-3.44 2.372-4.61 2.85-2.41 7.131-2.07 9.543.77 2.188 2.58 2.096 6.34-.072 8.82.609-.08 1.245.14 1.673.64l6.012 7.08c.664.78.566 1.96-.22 2.62zm-7.859-14.4a4.668 4.668 0 0 0-1.099-3.43c-1.681-1.98-4.666-2.22-6.655-.54-1.987 1.69-2.236 4.67-.554 6.65 1.681 1.98 4.666 2.22 6.654.54a4.71 4.71 0 0 0 1.654-3.22z" fill="#fff"/></svg>