<svg xmlns="http://www.w3.org/2000/svg" width="512" height="512" viewBox="0 0 504.734 504.735"><g fill="#4c56b5"><path d="M482.743 160.8l-65.192 30.868c26.101 56.399 18.078 124.667-24.289 173.694l-35.515-35.516v123.576h123.576l-36.782-36.782c64.428-71.169 77.093-172.641 38.202-255.84zM343.938 482.722l-30.896-65.164c-56.375 26.125-124.671 18.078-173.693-24.288l35.515-35.516H51.288V481.33l36.782-36.782c71.174 64.423 172.647 77.088 255.868 38.174zM111.451 139.351l35.515 35.515V51.29H23.385l36.777 36.777c-64.394 71.203-77.06 172.675-38.169 255.875l65.168-30.896c-26.124-56.377-18.077-124.672 24.29-173.695zm341.974 7.612V23.387l-36.777 36.777C345.445-4.229 243.973-16.895 160.774 21.996l30.892 65.164c56.4-26.101 124.671-18.078 173.693 24.289l-35.515 35.515h123.581z"/><circle cx="252.354" cy="252.356" r="98.728"/></g></svg>