<svg xmlns="http://www.w3.org/2000/svg" viewBox="0 0 58 58"><path d="M29 0S22.333 8 7 8v19.085c0 9.966 4.328 19.577 12.164 25.735C21.937 55 25.208 56.875 29 58c3.792-1.125 7.062-3 9.836-5.18C46.672 46.662 51 37.051 51 27.085V8C35.667 8 29 0 29 0z" fill="#26b99a"/><path d="M7 8v19.085c0 9.966 4.328 19.577 12.164 25.735C21.937 55 25.208 56.875 29 58V0S22.333 8 7 8z" fill="#22967a"/><path d="M29 51.661c-2.123-.833-4.178-2.025-6.128-3.558C16.69 43.245 13 35.388 13 27.085V13.628c7.391-.943 12.639-3.514 16-5.798 3.361 2.284 8.609 4.855 16 5.798v13.457c0 8.303-3.69 16.16-9.871 21.018-1.951 1.533-4.006 2.725-6.129 3.558z" fill="#14a085"/><path d="M13 13.628v13.457c0 8.303 3.69 16.16 9.872 21.018 1.95 1.533 4.005 2.725 6.128 3.558V7.831c-3.361 2.283-8.609 4.855-16 5.797z" fill="#26b99a"/></svg>