<svg id="Слой_1" xmlns="http://www.w3.org/2000/svg" viewBox="88 349.6 637.1 150.3"><style>.st0{enable-background:new}.st1{fill:#53483e}.st2{fill:#8a8684}.st3{fill:#d50a55}.st4{font-family:&amp;apos;Dosis-Regular&amp;apos;}.st5{font-size:110px}.st6{fill:none;stroke:#fff;stroke-width:2;stroke-linecap:round;stroke-linejoin:round;stroke-miterlimit:10}.st7{fill:#fff}.st8,.st9{fill:none;stroke:#fff;stroke-width:.5;stroke-miterlimit:10}.st9{stroke-width:.25}</style><g class="st0"><path class="st1" d="M237 439.7v-74.9c0-.9.3-1.6 1-2 .7-.4 1.5-.6 2.6-.6 1 0 1.9.2 2.6.7.7.4 1.1 1.1 1.1 2v74.9c0 .9-.4 1.6-1.1 2.1-.7.5-1.6.8-2.6.8s-1.9-.3-2.6-.8c-.6-.6-1-1.3-1-2.2zm23.5 0v-46.6c0-.8.3-1.4 1-1.9s1.5-.7 2.6-.7c.9 0 1.7.3 2.3.8.7.5 1 1.1 1 1.9v5.2c1.3-2.4 3.2-4.4 5.7-6 2.5-1.6 5.5-2.4 9-2.4 5.3 0 9.9 2 13.8 6 3.9 4 5.9 8.9 5.9 14.5v29.3c0 .9-.4 1.6-1.1 2.1-.7.5-1.6.8-2.6.8-.9 0-1.7-.3-2.5-.8-.7-.5-1.1-1.2-1.1-2.1v-29.2c0-3.6-1.4-6.8-4.1-9.6-2.7-2.9-5.9-4.3-9.6-4.3-3.5 0-6.5 1.3-9.1 3.8s-3.9 5.9-3.9 10.1v29.2c0 .8-.4 1.4-1.1 2-.7.6-1.6.9-2.6.9s-1.9-.3-2.6-.9c-.6-.7-1-1.3-1-2.1zm55.3-13.3v-58c0-.8.4-1.4 1.1-1.9.7-.5 1.6-.8 2.4-.8.9 0 1.8.3 2.6.8s1.1 1.2 1.1 1.9v22.1h14.1c.7 0 1.3.3 1.8.9.5.6.7 1.3.7 2.1s-.2 1.5-.7 2.1c-.5.6-1.1.9-1.8.9H323v29.9c0 3.6.8 6.1 2.3 7.5 1.5 1.4 4.2 2.1 7.9 2.1h3c1 0 1.7.3 2.3 1 .6.6.9 1.4.9 2.3 0 .9-.3 1.7-.9 2.3-.6.6-1.4 1-2.4 1H333c-5.8 0-10.1-1.3-13-3.9-2.7-2.7-4.2-6.7-4.2-12.3zm31.9-4v-12.3c0-5.5 2.1-10.3 6.2-14.3s9.1-6 14.9-6c5.6 0 10.4 1.9 14.5 5.7 4.1 3.8 6.1 8.6 6.1 14.3 0 1.6-.2 3-.6 4.2-.4 1.1-.8 2-1.4 2.6-.5.6-1.3 1.1-2.2 1.4-.9.3-1.8.5-2.5.6-.7.1-1.7.1-2.9.1H355v4c0 4.3 1.6 7.8 4.7 10.4s7.1 3.9 12 3.9c2 0 3.8-.2 5.4-.7 1.6-.5 2.8-1 3.6-1.5.8-.5 1.6-1 2.3-1.5s1.4-.7 1.9-.7c.8 0 1.5.4 2.2 1.1.6.8.9 1.5.9 2.2 0 1.6-1.6 3.2-4.7 4.8s-7.1 2.5-11.8 2.5c-7 0-12.7-1.9-17.1-5.8-4.5-3.7-6.7-8.7-6.7-15zm7.2-9h22c2.2 0 3.7-.2 4.4-.7.7-.5 1.1-1.5 1.1-3 0-3.7-1.3-6.9-3.9-9.7-2.6-2.8-5.9-4.2-9.8-4.2-3.8 0-7 1.3-9.7 3.9-2.7 2.6-4 5.8-4 9.5v4.2zm46.1 26.3v-46.6c0-.8.3-1.4 1-1.9s1.5-.8 2.6-.8c1 0 1.8.3 2.5.8s1 1.1 1 1.9v5.5c1.3-2.5 3.3-4.5 5.8-6.2 2.6-1.7 5.5-2.6 8.8-2.6h3.8c.8 0 1.5.3 2 1 .6.7.8 1.4.8 2.3 0 .9-.3 1.7-.8 2.4-.6.7-1.2 1-2 1h-3.8c-3.8 0-7.2 1.5-10.1 4.4-2.9 3-4.4 6.8-4.4 11.6v27.1c0 .8-.4 1.4-1.1 2-.7.6-1.6.9-2.6.9s-1.8-.3-2.5-.9c-.6-.5-1-1.1-1-1.9zm37.4-65.9c-1-.9-1.5-2-1.5-3.2 0-1.2.5-2.3 1.5-3.2 1-.9 2.1-1.3 3.5-1.3 1.3 0 2.4.4 3.4 1.3.9.9 1.4 2 1.4 3.2 0 1.2-.5 2.3-1.4 3.2-.9.9-2.1 1.4-3.4 1.4-1.4 0-2.6-.5-3.5-1.4zm-.2 65.9v-46.6c0-.8.3-1.4 1-1.9s1.5-.8 2.6-.8c1 0 1.9.3 2.6.8.7.5 1.1 1.1 1.1 1.9v46.6c0 .8-.4 1.4-1.1 2-.7.6-1.6.9-2.6.9s-1.8-.3-2.5-.9c-.7-.6-1.1-1.2-1.1-2z"/></g><g class="st0"><path class="st2" d="M466.7 453.4c0-2.9.9-5.4 2.6-7.4 1.8-2 4-3.5 6.7-4.6-1.9-.7-3.4-1.6-4.5-2.8-1-1.2-1.6-2.8-1.6-4.9 0-1.9.5-3.4 1.4-4.6.9-1.2 2.3-2.3 4.1-3.2-4-3.3-6.1-8-6.1-13.9v-4c0-5.3 1.7-9.7 5.2-13.1 3.5-3.4 8.1-5 13.8-5 5.1 0 9.4 1.5 12.8 4.6 1.1-2.1 2.3-3.8 3.7-5 1.4-1.2 2.8-1.8 4.1-1.8 1 0 1.8.3 2.4.9.6.6.9 1.2.9 2 0 .7-.2 1.2-.5 1.6-.4.4-.8.7-1.3.8-2.5.4-4.5 1.9-6.1 4.6 2 2.7 3 6.1 3 10.4v4.2c0 5.3-1.8 9.6-5.3 13.1-3.6 3.5-8.1 5.2-13.7 5.2-3.1 0-5.9-.6-8.5-1.8-2.3 1.2-3.4 2.6-3.4 4.3 0 1.4.6 2.5 1.9 3.2 1.2.8 2.9 1.3 4.9 1.6 2 .3 4.2.5 6.7.9 2.4.3 4.8.7 7.3 1.2s4.6 1.2 6.7 2c2 .9 3.6 2.2 4.9 4 1.2 1.8 1.9 4.1 1.9 6.7 0 5.1-2 8.9-5.9 11.6-3.9 2.7-9.1 4-15.6 4-6.6 0-12-1.3-16.1-4-4.3-2.7-6.4-6.3-6.4-10.8zm6.9-.6c0 3 1.4 5.4 4.1 7.3 2.8 1.8 6.5 2.8 11.2 2.8 4.5 0 8.1-.9 10.7-2.7s3.9-4.3 3.9-7.4c0-1.5-.4-2.7-1.1-3.8-.7-1.1-1.5-1.9-2.5-2.5s-2.3-1.1-3.9-1.5c-1.6-.4-3-.7-4.2-.8-1.2-.1-2.7-.3-4.6-.5-1.9-.2-3.1-.4-3.8-.4-6.5 1.8-9.8 5.1-9.8 9.5zm2.8-40.7c0 3.8 1.1 6.9 3.3 9.3 2.2 2.4 5.1 3.7 8.9 3.7 3.6 0 6.5-1.2 8.6-3.6 2.1-2.4 3.2-5.5 3.2-9.3V408c0-3.7-1.1-6.8-3.2-9.2-2.1-2.4-5.1-3.6-8.8-3.6-3.7 0-6.6 1.2-8.8 3.6-2.2 2.4-3.2 5.4-3.2 9.2v4.1zm45.2 27.6v-46.6c0-.8.3-1.4 1-1.9s1.5-.8 2.6-.8c1 0 1.8.3 2.5.8s1 1.1 1 1.9v5.5c1.3-2.5 3.3-4.5 5.8-6.2 2.6-1.7 5.5-2.6 8.8-2.6h3.8c.8 0 1.5.3 2 1 .6.7.8 1.4.8 2.3 0 .9-.3 1.7-.8 2.4-.6.7-1.2 1-2 1h-3.8c-3.8 0-7.2 1.5-10.1 4.4s-4.4 6.8-4.4 11.6v27.1c0 .8-.4 1.4-1.1 2-.7.6-1.6.9-2.6.9s-1.8-.3-2.5-.9c-.7-.5-1-1.1-1-1.9zm35.2-17.3v-12c0-5.5 2-10.4 6.1-14.4 4.1-4.1 9-6.1 14.7-6.1 5.7 0 10.6 2 14.8 6.1 4.2 4 6.3 8.9 6.3 14.5v12c0 5.5-2.1 10.3-6.3 14.6-4.2 4.2-9.1 6.3-14.7 6.3s-10.4-2.1-14.6-6.3c-4.2-4.3-6.3-9.2-6.3-14.7zm7.3 0c0 3.7 1.3 7 4 9.9 2.7 2.9 5.9 4.3 9.6 4.3 3.8 0 7-1.4 9.8-4.3 2.7-2.9 4.1-6.2 4.1-9.9v-11.9c0-3.6-1.4-6.8-4.1-9.6-2.7-2.8-6-4.2-9.7-4.2-3.8 0-7 1.4-9.6 4.2-2.7 2.8-4 6-4 9.6v11.9zm46.7.2v-29.4c0-.7.4-1.4 1.1-1.9.7-.6 1.6-.8 2.6-.8.9 0 1.8.3 2.5.9.7.6 1.1 1.2 1.1 1.9v29.3c0 3.6 1.3 6.9 4 9.8 2.7 2.9 5.9 4.3 9.7 4.3 3.7 0 6.9-1.4 9.6-4.3s4.1-6.1 4.1-9.8v-29.4c0-.7.4-1.3 1.1-1.8.7-.5 1.6-.8 2.6-.8s1.9.3 2.6.8c.7.5 1 1.1 1 1.9v29.5c0 5.5-2.1 10.3-6.2 14.5-4.2 4.1-9.1 6.2-14.7 6.2-3.8 0-7.3-1-10.5-2.9s-5.8-4.5-7.7-7.7c-1.9-3.3-2.9-6.7-2.9-10.3zm56.1 42.7v-72.2c0-.8.3-1.4 1-1.9s1.5-.8 2.6-.8c1 0 1.8.3 2.5.8s1 1.1 1 1.9v5.2c1.3-2.4 3.3-4.4 5.8-6 2.5-1.6 5.5-2.4 8.9-2.4 5.5 0 10.1 2 14 6 3.9 4 5.9 8.9 5.9 14.5v12c0 5.5-2 10.3-5.9 14.6-3.9 4.2-8.5 6.3-13.6 6.3-3.2 0-6.2-.8-8.9-2.5s-4.7-3.7-6-6.1v30.5c0 .7-.4 1.4-1.1 1.9-.7.6-1.6.8-2.6.8s-1.8-.3-2.5-.9c-.8-.3-1.1-1-1.1-1.7zm7.2-39.5c0 .9.3 1.9 1 3.1.7 1.2 1.6 2.4 2.8 3.5 1.1 1.2 2.6 2.1 4.3 3s3.5 1.2 5.4 1.2c3.6 0 6.7-1.5 9.5-4.4 2.8-2.9 4.1-6.2 4.1-9.8v-11.9c0-3.6-1.4-6.8-4.1-9.6-2.8-2.8-6-4.3-9.7-4.3-3.5 0-6.6 1.3-9.3 3.8s-4 5.9-4 10.1v15.3z"/></g><path class="st2" d="M213.5 491.6H93.8c-.3 0-.6-.3-.6-.6V361.2c0-.3.3-.6.6-.6h119.7c.3 0 .6.3.6.6V491c-.1.3-.3.6-.6.6z"/><path class="st6" d="M153.8 378.8l-37.7 63.9 21.6 30.7h31.6l21.9-30.8z"/><path class="st7" d="M153.6 383.6l-34.8 58.9 20.4 28.8h14.4z"/><path class="st2" d="M153.6 396.1L138.8 442l14.8 29.3z"/><path class="st7" d="M153.7 396.1l14.8 45.9-14.8 29.3z"/><path class="st2" d="M123.2 442.1l18.4 27.3h7.1l-13.5-27.3z"/><path class="st7" d="M184.9 442.1l-18.3 27.3h-7.1l13.4-27.3z"/><path class="st8" d="M210 487.8H97.3c-.3 0-.6-.3-.6-.6V365c0-.3.3-.6.6-.6H210c.3 0 .6.3.6.6v122.2c-.1.4-.3.6-.6.6z"/><path class="st9" d="M96.7 442.1h113.8m-56.8 45.7V364.4"/><path d="M235.7 490.9v-10h1v8.6c0-.1.1-.2.1-.2s.1-.1.1-.2c0 0 .1-.1.3-.4s.4-.5.7-.9.6-.8 1-1.3.7-1 1.1-1.5c.9-1.2 1.9-2.5 3-3.9 0-.1.1-.1.2-.2s.1-.1.2-.1h.5v10h-1v-8.6c0 .1-.1.2-.1.2s-.1.1-.1.2c0 0-.1.1-.3.4s-.4.5-.7.9-.6.8-1 1.3-.7 1-1.1 1.5c-.9 1.2-1.8 2.5-2.9 3.9 0 .1-.1.1-.2.2s-.1.1-.2.1h-.6zm15.5-1.3l.2-.3c.1-.1.1-.1.2-.1s.2.1.3.2c.1.1.3.2.5.4.2.1.5.3.8.4.3.1.7.2 1.2.2.4 0 .8-.1 1.2-.2.4-.1.7-.3.9-.5.3-.2.4-.4.6-.7s.2-.6.2-.9c0-.3-.1-.6-.2-.8s-.3-.5-.6-.7c-.3-.2-.6-.3-1-.4-.4-.1-.8-.2-1.3-.2h-1.1v-.7h1.1c.4 0 .8 0 1.2-.1s.6-.2.9-.4.4-.4.6-.6.2-.5.2-.8c0-.2-.1-.5-.2-.7s-.3-.4-.5-.6-.5-.3-.8-.4-.7-.2-1.2-.2c-.4 0-.8 0-1.1.1s-.6.2-.8.3-.4.2-.5.3-.2.1-.3.1h-.1l-.1-.1-.2-.4c.4-.3.8-.6 1.3-.8s1.1-.3 1.9-.3c.6 0 1.1.1 1.5.2s.8.3 1.1.6.5.5.7.8.2.6.2.9c0 .2 0 .4-.1.7s-.2.4-.4.7-.4.4-.7.6-.6.3-1 .4c.8.2 1.4.5 1.8.9s.6 1 .6 1.6c0 .4-.1.8-.3 1.2s-.5.7-.8.9c-.3.3-.7.5-1.2.6-.5.1-.9.2-1.5.2-.4 0-.7 0-1.1-.1-.3-.1-.7-.2-1-.3-.3-.1-.6-.3-.8-.5s-.2-.3-.3-.5zm13.3.6h.4c.2 0 .5 0 .7-.1s.5-.3.7-.5c.2-.3.4-.6.6-1 .2-.4.4-1 .5-1.7.2-.7.3-1.5.4-2.5s.2-2.1.3-3.4h5.8v9.2h1.8v4c0 .2-.1.3-.3.3h-.6v-3.6h-9.5v3.3c0 .1 0 .1-.1.2 0 .1-.1.1-.2.1h-.6v-4.3zm2.2 0h6.3v-8.5h-4c-.1 1.3-.2 2.5-.3 3.4-.1 1-.3 1.8-.5 2.5s-.4 1.2-.7 1.6c-.3.4-.6.8-.8 1zm15.3-4.5c0-.7.1-1.4.3-2 .2-.6.5-1.1.9-1.6.4-.4.9-.8 1.4-1 .6-.2 1.2-.4 1.9-.4.6 0 1.1.1 1.6.3.5.2.9.5 1.2.8.4.4.6.8.8 1.4.2.5.3 1.2.3 1.9 0 .1 0 .3-.1.3s-.1.1-.2.1H283v.2c0 .8.1 1.4.3 2s.4 1 .7 1.4c.3.4.7.7 1.2.9.5.2 1 .3 1.5.3s.9-.1 1.3-.2.7-.2.9-.4c.3-.1.4-.3.6-.4.1-.1.3-.2.3-.2.1 0 .2 0 .2.1l.3.3-.6.6c-.3.2-.6.3-.9.4-.3.1-.7.2-1 .3-.4.1-.7.1-1.1.1-.7 0-1.3-.1-1.9-.4-.6-.2-1-.6-1.4-1-.4-.5-.7-1-.9-1.7-.4-.5-.5-1.2-.5-2.1zm1-.8h6.6c0-.5-.1-1-.2-1.4-.1-.4-.4-.8-.6-1.1-.3-.3-.6-.5-1-.7-.4-.2-.8-.2-1.2-.2-.5 0-1 .1-1.4.2-.4.2-.8.4-1.1.7-.3.3-.5.7-.7 1.1s-.3.9-.4 1.4zm13.4 6v-.6h.4c.2 0 .5 0 .7-.1s.5-.3.7-.5c.2-.3.5-.6.7-1s.4-1 .6-1.7.3-1.5.5-2.5c.1-1 .2-2.1.3-3.4h5.8v10h-1v-9.2h-4c-.1 1.3-.2 2.5-.3 3.4-.1 1-.3 1.8-.5 2.5s-.4 1.3-.7 1.7c-.3.4-.5.8-.8 1-.3.3-.6.4-.9.5-.3.1-.6.1-.9.1h-.4c-.1 0-.2-.2-.2-.2zm18.1 0v-10h1v8.6c0-.1.1-.2.1-.2s.1-.1.1-.2c0 0 .1-.1.3-.4s.4-.5.7-.9.6-.8 1-1.3.7-1 1.1-1.5c.9-1.2 1.9-2.5 3-3.9 0-.1.1-.1.2-.2s.1-.1.2-.1h.5v10h-1v-8.6c0 .1-.1.2-.1.2s-.1.1-.1.2c0 0-.1.1-.3.4s-.4.5-.7.9-.6.8-1 1.3-.7 1-1.1 1.5c-.9 1.2-1.8 2.5-2.9 3.9 0 .1-.1.1-.2.2s-.1.1-.2.1h-.6zm15 0l3.4-4.1c.2-.3.4-.5.7-.6-.5 0-1-.1-1.4-.3-.4-.2-.7-.3-.9-.6-.2-.2-.4-.5-.5-.8-.1-.3-.2-.6-.2-.9 0-.3.1-.6.2-1 .1-.3.3-.6.6-.9.3-.3.6-.5 1.1-.6.4-.2 1-.2 1.6-.2h3.1v10h-1v-4.5h-1.7c-.1 0-.2.1-.3.1-.1 0-.2.1-.2.2-.1.1-.1.2-.2.3l-2.9 3.6c-.1.1-.1.2-.2.3-.1.1-.2.1-.4.1h-.8zm2-7.2c0 .3.1.6.2.9.1.3.3.5.6.6.2.2.5.3.9.4s.7.1 1.2.1h1.8v-4.2H334c-.5 0-.9.1-1.2.2-.3.1-.6.3-.8.5-.2.2-.3.4-.4.7-.1.3-.1.6-.1.8zm24.2 7.2v-10h1v8.6c0-.1.1-.2.1-.2s.1-.1.1-.2c0 0 .1-.1.3-.4s.4-.5.7-.9.6-.8 1-1.3.7-1 1.1-1.5c.9-1.2 1.9-2.5 3-3.9 0-.1.1-.1.2-.2s.1-.1.2-.1h.5v10h-1v-8.6c0 .1-.1.2-.1.2s-.1.1-.1.2c0 0-.1.1-.3.4s-.4.5-.7.9-.6.8-1 1.3-.7 1-1.1 1.5c-.9 1.2-1.8 2.5-2.9 3.9 0 .1-.1.1-.2.2s-.1.1-.2.1h-.6zm15.5-1.3l.2-.3c.1-.1.1-.1.2-.1s.2.1.3.2c.1.1.3.2.5.4.2.1.5.3.8.4.3.1.7.2 1.2.2.4 0 .8-.1 1.2-.2.4-.1.7-.3.9-.5.3-.2.4-.4.6-.7s.2-.6.2-.9c0-.3-.1-.6-.2-.8s-.3-.5-.6-.7c-.3-.2-.6-.3-1-.4-.4-.1-.8-.2-1.3-.2h-1.1v-.7h1.1c.4 0 .8 0 1.2-.1s.6-.2.9-.4.4-.4.6-.6.2-.5.2-.8c0-.2-.1-.5-.2-.7s-.3-.4-.5-.6-.5-.3-.8-.4-.7-.2-1.2-.2c-.4 0-.8 0-1.1.1s-.6.2-.8.3-.4.2-.5.3-.2.1-.3.1h-.1l-.1-.1-.2-.4c.4-.3.8-.6 1.3-.8s1.1-.3 1.9-.3c.6 0 1.1.1 1.5.2s.8.3 1.1.6.5.5.7.8.2.6.2.9c0 .2 0 .4-.1.7s-.2.4-.4.7-.4.4-.7.6-.6.3-1 .4c.8.2 1.4.5 1.8.9s.6 1 .6 1.6c0 .4-.1.8-.3 1.2s-.5.7-.8.9c-.3.3-.7.5-1.2.6-.5.1-.9.2-1.5.2-.4 0-.7 0-1.1-.1-.3-.1-.7-.2-1-.3-.3-.1-.6-.3-.8-.5s-.2-.3-.3-.5zm25.2 1.3v-10h1v8.6c0-.1.1-.2.1-.2s.1-.1.1-.2c0 0 .1-.1.3-.4s.4-.5.7-.9.6-.8 1-1.3.7-1 1.1-1.5c.9-1.2 1.9-2.5 3-3.9 0-.1.1-.1.2-.2s.1-.1.2-.1h.5v10h-1v-8.6c0 .1-.1.2-.1.2s-.1.1-.1.2c0 0-.1.1-.3.4s-.4.5-.7.9-.6.8-1 1.3-.7 1-1.1 1.5c-.9 1.2-1.8 2.5-2.9 3.9 0 .1-.1.1-.2.2s-.1.1-.2.1h-.6zm15.7-5c0-.8.1-1.5.3-2.1.2-.6.5-1.2.9-1.6.4-.5.9-.8 1.4-1.1.6-.3 1.2-.4 1.9-.4.6 0 1.2.1 1.7.3s.9.5 1.3.8l-.3.3-.1.1h-.1c-.1 0-.2 0-.3-.1s-.3-.2-.5-.3-.4-.2-.7-.3-.6-.1-1.1-.1c-.6 0-1.1.1-1.5.3-.4.2-.8.5-1.1.9-.3.4-.5.8-.7 1.4s-.2 1.1-.2 1.8.1 1.3.2 1.9c.2.5.4 1 .7 1.4.3.4.7.7 1.1.8.4.2.9.3 1.4.3.5 0 .9-.1 1.2-.2.3-.1.6-.2.8-.4.2-.1.4-.3.5-.4.1-.1.2-.2.3-.2s.1 0 .2.1l.3.3-.6.6c-.2.2-.5.3-.8.5-.3.1-.6.2-1 .3-.3.1-.7.1-1.1.1-.6 0-1.2-.1-1.7-.3-.5-.2-1-.6-1.3-1-.4-.4-.7-1-.9-1.6-.1-.6-.2-1.3-.2-2.1zm15 5v-10h1v4.6h1.2c.3 0 .5-.1.8-.2.3-.1.5-.3.6-.6l2.7-3.5.2-.2c.1-.1.2-.1.3-.1h.7l-2.9 3.9c-.2.2-.3.4-.5.5-.2.1-.4.3-.7.3.3.1.6.2.8.3.2.2.4.4.6.7l3 4.1h-.7c-.2 0-.3 0-.4-.1s-.2-.1-.3-.3L431 487c-.2-.3-.4-.5-.7-.6-.3-.1-.6-.2-.9-.2h-1.3v4.7h-1zm13.5-10h.8c.1 0 .2 0 .2.1.1 0 .1.1.1.2l3.3 7.7c0 .1.1.2.1.3s.1.2.1.3c0-.1.1-.2.1-.3s.1-.2.1-.3l3.3-7.7c0-.1.1-.1.1-.2s.1-.1.2-.1h.7l-5.7 13.2c0 .1-.1.2-.2.2-.1.1-.2.1-.3.1h-.7l1.7-3.9-3.9-9.6zm15.5 5c0-.8.1-1.5.3-2.1.2-.6.5-1.2.9-1.6s.9-.8 1.4-1.1c.6-.3 1.2-.4 1.9-.4.6 0 1.2.1 1.7.3.5.2.9.5 1.3.8l-.3.3-.1.1h-.1c-.1 0-.2 0-.3-.1-.1-.1-.3-.2-.5-.3-.2-.1-.4-.2-.7-.3-.3-.1-.6-.1-1.1-.1-.6 0-1.1.1-1.5.3-.4.2-.8.5-1.1.9-.3.4-.5.8-.7 1.4s-.2 1.1-.2 1.8.1 1.3.2 1.9c.2.5.4 1 .7 1.4.3.4.7.7 1.1.8.4.2.9.3 1.4.3.5 0 .9-.1 1.2-.2.3-.1.6-.2.8-.4.2-.1.4-.3.5-.4.1-.1.2-.2.3-.2s.1 0 .2.1l.3.3c-.2.2-.3.4-.6.6-.2.2-.5.3-.8.5-.3.1-.6.2-1 .3-.3.1-.7.1-1.1.1-.6 0-1.2-.1-1.7-.3-.5-.2-1-.6-1.3-1-.4-.4-.7-1-.9-1.6-.1-.6-.2-1.3-.2-2.1zm14.2 0c0-.8.1-1.5.3-2.1.2-.6.5-1.2.9-1.6s.9-.8 1.4-1.1c.6-.3 1.2-.4 1.9-.4.6 0 1.2.1 1.7.3.5.2.9.5 1.3.8l-.3.3-.1.1h-.1c-.1 0-.2 0-.3-.1-.1-.1-.3-.2-.5-.3-.2-.1-.4-.2-.7-.3-.3-.1-.6-.1-1.1-.1-.6 0-1.1.1-1.5.3-.4.2-.8.5-1.1.9-.3.4-.5.8-.7 1.4s-.2 1.1-.2 1.8.1 1.3.2 1.9c.2.5.4 1 .7 1.4.3.4.7.7 1.1.8.4.2.9.3 1.4.3.5 0 .9-.1 1.2-.2.3-.1.6-.2.8-.4.2-.1.4-.3.5-.4.1-.1.2-.2.3-.2s.1 0 .2.1l.3.3c-.2.2-.3.4-.6.6-.2.2-.5.3-.8.5-.3.1-.6.2-1 .3-.3.1-.7.1-1.1.1-.6 0-1.2-.1-1.7-.3-.5-.2-1-.6-1.3-1-.4-.4-.7-1-.9-1.6-.1-.6-.2-1.3-.2-2.1zm13.7-4.2v-.7h9.3v.7h-4.2v9.2h-1v-9.2H484zm16.2 9.2v-10h3.3c.6 0 1.1.1 1.5.2s.8.3 1 .5c.3.2.5.5.6.7.1.3.2.6.2.9 0 .2 0 .5-.1.7-.1.2-.2.5-.3.7s-.4.4-.6.6-.6.3-1 .4c.9.1 1.6.4 2 .8.4.4.6 1 .6 1.6 0 .4-.1.8-.3 1.2-.2.3-.4.6-.7.9-.3.2-.7.4-1.1.5-.4.1-.9.2-1.5.2h-3.6zm.9-5.5h2.4c.4 0 .7 0 1-.1.3-.1.6-.2.8-.4.2-.2.4-.4.5-.6.1-.3.2-.5.2-.8 0-.2 0-.4-.1-.7s-.2-.4-.4-.6-.5-.3-.8-.4c-.3-.1-.7-.1-1.2-.1h-2.4v3.7zm0 4.8h2.6c.4 0 .8 0 1.1-.1s.6-.2.9-.4c.2-.2.4-.4.5-.7.1-.3.2-.6.2-.9 0-.3-.1-.6-.2-.8-.1-.2-.3-.5-.5-.6s-.5-.3-.8-.4-.8-.1-1.2-.1h-2.6v4zm13.3-4.5c0-.7.1-1.4.3-2 .2-.6.5-1.1.9-1.6.4-.4.9-.8 1.4-1s1.2-.4 1.9-.4c.6 0 1.1.1 1.6.3s.9.5 1.2.8c.4.4.6.8.8 1.4.2.5.3 1.2.3 1.9 0 .1 0 .3-.1.3 0 .1-.1.1-.2.1h-7.2v.2c0 .8.1 1.4.3 2 .2.6.4 1 .7 1.4.3.4.7.7 1.2.9.5.2 1 .3 1.5.3s.9-.1 1.3-.2.7-.2.9-.4c.3-.1.4-.3.6-.4.1-.1.3-.2.3-.2.1 0 .2 0 .2.1l.3.3-.6.6c-.3.2-.6.3-.9.4-.3.1-.7.2-1 .3-.4.1-.7.1-1.1.1-.7 0-1.3-.1-1.9-.4s-1-.6-1.4-1c-.4-.5-.7-1-.9-1.7-.3-.5-.4-1.2-.4-2.1zm1-.8h6.6c0-.5-.1-1-.2-1.4-.2-.4-.4-.8-.6-1.1-.3-.3-.6-.5-1-.7-.4-.2-.8-.2-1.2-.2-.5 0-1 .1-1.4.2-.4.2-.8.4-1.1.7-.3.3-.5.7-.7 1.1-.2.4-.3.9-.4 1.4zm15.1 6v-10h1v4.2h5.9v-4.2h1v10h-1v-5h-5.9v5h-1zm16.1 0v-10h1v4.2h5.9v-4.2h1v10h-1v-5h-5.9v5h-1zm15.5-5c0-.8.1-1.5.3-2.1s.5-1.2.9-1.6c.4-.4.9-.8 1.4-1 .6-.2 1.2-.4 1.9-.4s1.4.1 1.9.4c.6.2 1 .6 1.4 1 .4.4.7 1 .9 1.6s.3 1.3.3 2.1-.1 1.5-.3 2.1-.5 1.2-.9 1.6c-.4.4-.9.8-1.4 1-.6.2-1.2.4-1.9.4s-1.3-.1-1.9-.4c-.6-.2-1-.6-1.4-1-.4-.5-.7-1-.9-1.6s-.3-1.3-.3-2.1zm.9 0c0 .7.1 1.3.2 1.8.2.5.4 1 .7 1.4.3.4.7.7 1.1.9.4.2 1 .3 1.6.3s1.1-.1 1.6-.3c.4-.2.8-.5 1.1-.9.3-.4.5-.8.7-1.4.1-.5.2-1.1.2-1.8s-.1-1.3-.2-1.8-.4-1-.7-1.4-.7-.7-1.1-.9c-.4-.2-1-.3-1.6-.3-.6 0-1.1.1-1.6.3-.4.2-.8.5-1.1.9s-.5.8-.7 1.4c-.1.5-.2 1.1-.2 1.8zm15.8 5v-10h6.1v.7h-5.1v9.2h-1zm11.8-5c0-.8.1-1.5.3-2.1s.5-1.2.9-1.6c.4-.4.9-.8 1.4-1 .6-.2 1.2-.4 1.9-.4s1.4.1 1.9.4c.6.2 1 .6 1.4 1 .4.4.7 1 .9 1.6s.3 1.3.3 2.1-.1 1.5-.3 2.1-.5 1.2-.9 1.6c-.4.4-.9.8-1.4 1-.6.2-1.2.4-1.9.4s-1.3-.1-1.9-.4c-.6-.2-1-.6-1.4-1-.4-.5-.7-1-.9-1.6s-.3-1.3-.3-2.1zm1 0c0 .7.1 1.3.2 1.8.2.5.4 1 .7 1.4.3.4.7.7 1.1.9.4.2 1 .3 1.6.3s1.1-.1 1.6-.3c.4-.2.8-.5 1.1-.9.3-.4.5-.8.7-1.4.1-.5.2-1.1.2-1.8s-.1-1.3-.2-1.8-.4-1-.7-1.4-.7-.7-1.1-.9c-.4-.2-1-.3-1.6-.3-.6 0-1.1.1-1.6.3-.4.2-.8.5-1.1.9s-.5.8-.7 1.4c-.2.5-.2 1.1-.2 1.8zm26.2 5v-10h1v4.6h1.2c.3 0 .5-.1.8-.2s.5-.3.6-.6l2.7-3.5.2-.2c.1-.1.2-.1.3-.1h.7l-2.9 3.9c-.2.2-.3.4-.5.5s-.4.3-.7.3c.3.1.6.2.8.3.2.2.4.4.6.7l3 4.1h-.7c-.2 0-.3 0-.4-.1s-.2-.1-.3-.3l-2.5-3.5c-.2-.3-.4-.5-.7-.6s-.6-.2-.9-.2h-1.3v4.7h-1zm13.9-2.4c0-.4.1-.8.4-1.2.2-.4.6-.7 1.1-.9.5-.3 1.2-.5 2-.6.8-.2 1.8-.3 2.9-.3v-1c0-.9-.2-1.6-.6-2.1-.4-.5-1-.7-1.8-.7-.5 0-.9.1-1.2.2-.3.1-.6.3-.9.4s-.4.3-.6.4c-.1.1-.3.2-.4.2-.1 0-.1 0-.2-.1l-.1-.1-.2-.3c.5-.5 1.1-.9 1.6-1.2.6-.3 1.2-.4 2-.4.5 0 1 .1 1.4.3s.7.4 1 .7.5.7.6 1.1c.1.4.2 1 .2 1.5v6.5h-.4c-.2 0-.3-.1-.4-.3l-.2-1.3c-.3.3-.5.5-.8.7-.3.2-.6.4-.8.5s-.6.3-.9.3c-.3.1-.7.1-1.1.1-.3 0-.7 0-1-.1-.3-.1-.6-.3-.8-.5s-.4-.5-.6-.8c-.1-.2-.2-.6-.2-1zm.9 0c0 .3.1.6.2.9.1.2.3.4.4.6s.4.3.6.3.5.1.8.1c.4 0 .7 0 1.1-.1s.6-.2.9-.4c.3-.2.5-.3.8-.5.2-.2.5-.4.7-.7v-2.6c-.9 0-1.8.1-2.5.2s-1.3.3-1.7.5-.8.4-1 .7-.3.6-.3 1zm14.6 2.4v-10h.9c.1 0 .1.1.2.2l4 6.5c.1.2.2.3.2.5.1-.2.1-.4.2-.5l3.9-6.5c0-.1.1-.2.2-.2h.9v10h-.9v-8.8l-4.1 6.9c0 .1-.1.1-.1.1s-.1.1-.2.1h-.1c-.1 0-.1 0-.2-.1l-.1-.1-4.2-6.9v8.8h-.6zm18.8 0v-10h1v4.2h5.9v-4.2h1v10h-1v-5H667v5h-1zm14.8 0l3.4-4.1c.2-.3.4-.5.7-.6-.5 0-1-.1-1.4-.3-.4-.2-.7-.3-.9-.6-.2-.2-.4-.5-.5-.8-.1-.3-.2-.6-.2-.9 0-.3.1-.6.2-1s.3-.6.6-.9c.3-.3.6-.5 1.1-.6.4-.2 1-.2 1.6-.2h3.1v10h-1v-4.5h-1.7c-.1 0-.2.1-.3.1s-.2.1-.2.2c-.1.1-.1.2-.2.3l-2.9 3.6c-.1.1-.1.2-.2.3-.1.1-.2.1-.4.1h-.8zm2-7.2c0 .3.1.6.2.9.1.3.3.5.6.6.2.2.5.3.9.4.4.1.7.1 1.2.1h1.8v-4.2h-2.1c-.5 0-.9.1-1.2.2-.3.1-.6.3-.8.5-.2.2-.3.4-.4.7-.1.3-.2.6-.2.8z" class="st0"/></svg>