<svg id="Capa_1" xmlns="http://www.w3.org/2000/svg" viewBox="-452 453.3 512 512"><style>.st0{fill:#4c56b5}</style><path class="st0" d="M-182.9 613.2c-4.5 4.5-4.5 11.9 0 16.4s11.9 4.5 16.4 0l9.6-9.6c3.4-3.4 4.4-8.7 2.3-13.1-6.4-13.7-9.6-27.9-9.6-42.2 0-29.1 12.6-56.4 34-75.3v75.8c0 3.8 1.9 7.4 5 9.5l55 38.1c4 2.7 9.2 2.7 13.2 0l55-38c3.1-2.2 5-5.7 5-9.5v-75.8c21.3 18.9 34 46.2 34 75.3 0 26.9-10.5 52.1-29.5 71.1-19 19-44.2 29.4-71 29.4h-.1c-9.2 0-27.4-4.5-33.6-6.2-4-1.1-8.3 0-11.3 3l-35.2 35.2c-4.5 4.5-4.5 11.9 0 16.4 2.3 2.3 5.2 3.4 8.2 3.4s5.9-1.1 8.2-3.4l30.5-30.5c8.5 2.1 23.1 5.3 33.1 5.3h.1c33 0 64.1-12.9 87.4-36.2C47.1 628.8 60 597.8 60 564.7c0-44.5-24.2-85.8-63-107.7-3.6-2-8-2-11.5.1-3.6 2.1-5.7 5.9-5.7 10v92.2l-43.4 30-43.4-30v-92.2c0-4.1-2.2-7.9-5.7-10-3.6-2.1-7.9-2.1-11.5-.1-38.9 22-63 63.3-63 107.8 0 15 2.9 29.9 8.6 44.4l-4.3 4z"/><path class="st0" d="M-135.6 719.5c-3.8 0-7.3-1.5-10-4.1-5.5-5.5-5.5-14.4 0-19.9l35.2-35.2c3.6-3.6 8.8-5 13.7-3.6 6.1 1.7 23.9 6.1 32.9 6.1 26.2 0 50.8-10.2 69.3-28.7s28.7-43.2 28.7-69.3c0-26.1-10.5-51.1-29-69.5v70c0 4.6-2.3 9-6.1 11.6l-55 38c-4.8 3.3-11.2 3.3-16 0l-55-38.1c-3.8-2.6-6.1-7-6.1-11.6v-70.1c-18.5 18.4-29 43.4-29 69.5 0 13.9 3.2 27.7 9.4 41.1 2.5 5.3 1.4 11.7-2.8 15.9l-9.6 9.6c-2.7 2.7-6.2 4.1-10 4.1s-7.3-1.5-10-4.1c-5.5-5.5-5.5-14.4 0-19.9l2.9-2.9c-5.4-14.3-8.1-29-8.1-43.8 0-45.4 24.6-87.6 64.3-110 4.3-2.5 9.7-2.4 14 .1 4.3 2.5 7 7.2 7 12.2v90.9l40.9 28.3 40.9-28.3V467c0-5 2.7-9.6 7-12.2 4.3-2.5 9.7-2.6 14-.1 39.7 22.4 64.3 64.5 64.3 109.9 0 33.7-13.1 65.4-37 89.3-23.8 23.8-55.5 37-89.2 37-9.9 0-24.1-3-32.5-5.1l-29.5 29.5c-2.3 2.7-5.9 4.2-9.6 4.2zm35.2-58.4c-2.4 0-4.7.9-6.4 2.7L-142 699c-3.5 3.5-3.5 9.3 0 12.8 1.7 1.7 4 2.7 6.4 2.7s4.7-.9 6.4-2.7l31.5-31.5 1.4.3c7.9 2 22.7 5.2 32.5 5.3 32.5 0 62.9-12.6 85.7-35.5 22.9-22.9 35.5-53.3 35.5-85.7 0-43.6-23.7-84.1-61.8-105.6-2.8-1.6-6.3-1.6-9 .1-2.8 1.6-4.5 4.6-4.5 7.8v93.5l-45.9 31.8-45.9-31.8V467c0-3.2-1.7-6.2-4.5-7.8-2.8-1.6-6.2-1.6-9-.1-38.1 21.5-61.7 62-61.7 105.6 0 14.7 2.8 29.3 8.4 43.5l.6 1.5-5.2 5.2c-3.5 3.5-3.5 9.3 0 12.8 1.7 1.7 4 2.7 6.4 2.7 2.4 0 4.7-.9 6.4-2.7l9.6-9.6c2.7-2.7 3.4-6.8 1.8-10.3-6.5-14-9.9-28.6-9.9-43.2 0-29.4 12.7-57.6 34.8-77.2l4.2-3.7v81.4c0 3 1.5 5.8 3.9 7.5l55 38.1c3.1 2.1 7.2 2.1 10.3 0l55-38c2.5-1.7 3.9-4.5 3.9-7.5v-81.4l4.2 3.7c22.1 19.6 34.8 47.7 34.8 77.1 0 27.5-10.7 53.4-30.2 72.9-19.4 19.5-45.3 30.2-72.8 30.2-9.6 0-28-4.5-34.3-6.3-.8-.2-1.6-.3-2.4-.3zM-213.6 767l-160.7 160.7c-6 6-14.1 9.4-22.6 9.4-8.5 0-16.6-3.3-22.6-9.4-6-6-9.4-14.1-9.3-22.6 0-8.5 3.3-16.5 9.4-22.6l138.2-138.2c4.5-4.5 4.5-11.9 0-16.4-4.5-4.5-11.9-4.5-16.4 0l-138.2 138.2c-10.4 10.4-16.2 24.2-16.2 38.9s5.7 28.6 16.1 39c10.4 10.4 24.3 16.2 39 16.2s28.6-5.8 39-16.2l160.7-160.7c4.5-4.5 4.5-11.9 0-16.4-4.5-4.4-11.9-4.4-16.4.1z"/><path class="st0" d="M-396.9 962.7c-15.4 0-29.9-6-40.8-16.9-10.9-10.9-16.9-25.4-16.9-40.8 0-15.4 6-29.8 16.9-40.7l138.2-138.2c5.5-5.5 14.4-5.5 19.9 0 5.5 5.5 5.5 14.4 0 19.9l-138.2 138.2c-5.6 5.6-8.6 12.9-8.6 20.8s3 15.3 8.6 20.9c5.6 5.6 13 8.6 20.8 8.6 7.9 0 15.3-3.1 20.9-8.6l160.7-160.7c5.5-5.5 14.4-5.5 19.9 0 5.5 5.5 5.5 14.4 0 19.9l-160.7 160.7c-10.8 10.9-25.3 16.9-40.7 16.9zM-289.4 727c-2.3 0-4.7.9-6.4 2.7L-434 867.9c-9.9 9.9-15.4 23.1-15.4 37.2 0 14.1 5.5 27.3 15.4 37.3 9.9 9.9 23.2 15.4 37.2 15.4 14.1 0 27.3-5.5 37.2-15.4L-199 781.6c3.5-3.5 3.5-9.3 0-12.8s-9.3-3.5-12.8 0l-160.7 160.7c-6.5 6.5-15.2 10.1-24.4 10.1s-17.9-3.6-24.4-10.1-10.1-15.2-10.1-24.4 3.6-17.8 10.1-24.3L-283 742.5c3.5-3.5 3.5-9.3 0-12.8-1.8-1.8-4.1-2.7-6.4-2.7z"/><path class="st0" d="M-397.1 891c-3.8 0-7.4 1.5-10 4.2-5.6 5.5-5.6 14.6-.1 20.2 2.8 2.8 6.4 4.2 10.1 4.2 3.7 0 7.3-1.4 10.1-4.2 5.5-5.6 5.5-14.6 0-20.1-2.6-2.8-6.2-4.3-10.1-4.3.1 0 .1 0 0 0z"/><path class="st0" d="M-397.1 922c-4.5 0-8.7-1.7-11.8-4.9l-.1-.1c-6.5-6.6-6.5-17.2.1-23.7 3.1-3.1 7.3-4.9 11.8-4.9 4.5 0 8.7 1.7 11.9 4.9 6.5 6.5 6.5 17.1 0 23.7-3.1 3.3-7.4 5-11.9 5zm0-31v2.5c-3.1 0-6.1 1.2-8.3 3.4-4.6 4.6-4.6 12-.1 16.6l.1.1c2.2 2.2 5.1 3.4 8.3 3.4 3.2 0 6.1-1.2 8.3-3.5 4.6-4.6 4.6-12 0-16.6-2.2-2.2-5.2-3.5-8.3-3.5V891zm378.8-58.7c-1.2-1.2-2.6-2.1-4.2-2.7l-33.2-12-120-120 19.4-19.4c4.5-4.5 4.5-11.9 0-16.4-3.4-3.4-8.5-4.3-12.7-2.5l-181.5-181.5c-11-11-25.6-17.1-41.2-17.1h-.1c-15.6 0-30.2 6.1-41.2 17.1-11 11-17.1 25.7-17.1 41.3 0 15.6 6.1 30.2 17.1 41.2l181.5 181.5c-1.8 4.2-.9 9.3 2.5 12.7 4.5 4.5 11.9 4.5 16.4 0l19.4-19.4 120 120 12 33.2c.6 1.6 1.5 3 2.7 4.2l67.3 67.3c2.3 2.3 5.2 3.4 8.2 3.4s5.9-1.1 8.2-3.4L49 916c2.2-2.2 3.4-5.1 3.4-8.2s-1.2-6-3.4-8.2l-67.3-67.3zm-182.1-142.9l-35.4 35.4-180.9-180.9c-6.6-6.6-10.3-15.5-10.3-24.8 0-9.4 3.7-18.2 10.3-24.9 6.6-6.6 15.4-10.3 24.8-10.3s18.2 3.7 24.8 10.3l180.9 180.9-14.2 14.3c.1-.1.1-.1 0 0zM-3 935.2l-57.3-57.3-12-33.2c-.6-1.6-1.5-3-2.7-4.2l-121.8-121.8 4.7-4.7 121.8 121.8c1.2 1.2 2.6 2.1 4.2 2.7l33.2 12 57.3 57.3L-3 935.2z"/><path class="st0" d="M-3 965.7c-3.8 0-7.3-1.5-10-4.1l-67.3-67.3c-1.4-1.4-2.6-3.2-3.3-5.2l-11.9-32.7-117.8-117.8-17.6 17.6c-5.5 5.5-14.4 5.5-19.9 0-3.7-3.7-5-8.9-3.6-13.8L-434.8 562c-11.5-11.5-17.8-26.7-17.8-43 0-16.2 6.3-31.5 17.8-43s26.7-17.8 43-17.8 31.6 6.4 43 17.8l180.4 180.4c4.9-1.4 10.1-.1 13.8 3.6 5.5 5.5 5.5 14.4 0 19.9l-17.6 17.6 117.8 117.8 32.7 11.9c1.9.7 3.7 1.8 5.2 3.3l67.3 67.3c2.7 2.7 4.1 6.2 4.1 10s-1.5 7.3-4.1 10L7 961.6c-2.7 2.6-6.2 4.1-10 4.1zm-210.3-234.2l122.2 122.2 12.2 33.7c.4 1.2 1.2 2.4 2.1 3.3L-9.4 958c1.7 1.7 4 2.7 6.4 2.7s4.7-.9 6.4-2.7l43.8-43.8c1.7-1.7 2.7-4 2.7-6.4 0-2.4-.9-4.7-2.7-6.4l-67.3-67.3c-.9-.9-2.1-1.7-3.3-2.1l-33.7-12.2-.4-.4-121.8-121.8 21.2-21.2c3.5-3.5 3.5-9.3 0-12.8-2.6-2.6-6.5-3.4-10-1.9l-1.5.7-182.7-182.7c-10.5-10.5-24.5-16.4-39.4-16.4-15 0-29 5.8-39.5 16.3-10.6 10.6-16.4 24.6-16.3 39.5 0 14.9 5.8 28.9 16.4 39.4l182.7 182.7-.7 1.5c-1.4 3.4-.7 7.3 1.9 10 3.5 3.5 9.3 3.5 12.8 0l21.1-21.2zM-3 938.8l-59.5-59.5-12.2-33.7c-.5-1.2-1.2-2.4-2.1-3.3l-123.6-123.6 8.2-8.2L-68.6 834c.9.9 2.1 1.7 3.3 2.1l33.7 12.2.4.4L28 907.8l-31 31zm-55.2-62.3L-3 931.7l23.9-23.9-55.2-55.2-32.7-11.8c-1.9-.7-3.7-1.8-5.2-3.3l-120-120-1.2 1.2 120 120c1.4 1.4 2.6 3.2 3.3 5.2l11.9 32.6zm-177.5-148.2l-182.7-182.7c-7.1-7.1-11-16.6-11-26.6 0-10.1 3.9-19.5 11-26.6 7.1-7.1 16.6-11 26.6-11 10.1 0 19.5 3.9 26.6 11l182.7 182.7-53.2 53.2zm-156.1-241.9c-8.8 0-16.9 3.4-23.1 9.5-6.2 6.2-9.6 14.4-9.6 23.1 0 8.7 3.4 16.9 9.6 23.1l179.1 179.1 33.6-33.6 12.5-12.5-179-179.1c-6.2-6.2-14.4-9.6-23.1-9.6z"/><path class="st0" d="M-383.7 510.7c-4.5-4.5-11.9-4.5-16.4 0-4.5 4.5-4.5 11.9 0 16.4l159.8 159.8c2.3 2.3 5.2 3.4 8.2 3.4s5.9-1.1 8.2-3.4c4.5-4.5 4.5-11.9 0-16.4l-159.8-159.8z"/><path class="st0" d="M-232.1 692.8c-3.8 0-7.3-1.5-10-4.1l-159.8-159.8c-5.5-5.5-5.5-14.4 0-19.9 5.5-5.5 14.4-5.5 19.9 0l159.8 159.8c5.5 5.5 5.5 14.4 0 19.9-2.6 2.7-6.1 4.1-9.9 4.1zm-159.8-182.9c-2.3 0-4.7.9-6.4 2.7-3.5 3.5-3.5 9.3 0 12.8l159.8 159.8c1.7 1.7 4 2.7 6.4 2.7 2.4 0 4.7-.9 6.4-2.7 3.5-3.5 3.5-9.3 0-12.8l-159.8-159.8c-1.7-1.9-4-2.7-6.4-2.7z"/></svg>