<svg xmlns="http://www.w3.org/2000/svg" viewBox="0 0 87 119" height="119"><rect rx="7.857" ry="7.857" height="43.492" width="58.849" y="37.537" x="10.941" stroke-linejoin="round" color="#000" stroke="#09af54" stroke-linecap="round" stroke-width="4.5" fill="none"/><path d="M61.256 21.711L77.253 37.75l-.03 43.138-16.039 15.996-42.937-.03L2.25 80.816l.03-43.138 16.039-15.997z" stroke-linejoin="round" color="#000" stroke="#09af54" stroke-linecap="round" stroke-width="4.5" fill="none"/><path d="M33.669 89.193h12.857" stroke-linejoin="round" color="#000" stroke="#09af54" stroke-linecap="round" stroke-width="4" fill="none"/><path d="M57.955 65.727V53.312m-7.892 12.415V53.312M30.05 65.727V53.312m-7.892 12.415V53.312" stroke-linejoin="round" color="#000" stroke="#09af54" stroke-linecap="round" stroke-width="4.5" fill="none"/><path d="M42.594 55.533a2.5 2.5 0 1 1-5 0 2.5 2.5 0 1 1 5 0zm0 8.036a2.5 2.5 0 1 1-5 0 2.5 2.5 0 1 1 5 0z" color="#000" fill="#09af54"/><path d="M84.812 70.083v-5.092m0-6.904v-9.006" stroke-linejoin="round" color="#000" stroke="#09af54" stroke-linecap="round" stroke-width="4" fill="none"/><path d="M29.976 13.986V3.528" stroke-linejoin="round" color="#000" stroke="#09af54" stroke-linecap="round" stroke-width="5" fill="none"/><path d="M50.053 13.986V3.528" stroke-linejoin="round" color="#000" stroke="#09af54" stroke-linecap="round" stroke-width="4.5" fill="none"/><path d="M61.863 13.837L59.527 2.283H20.194L18.174 13.9" color="#000" stroke="#09af54" stroke-linecap="round" stroke-miterlimit="5" stroke-width="4.5" fill="none"/><path d="M29.976 105.05v10.458" stroke-linejoin="round" color="#000" stroke="#09af54" stroke-linecap="round" stroke-width="5" fill="none"/><path d="M50.053 105.05v10.458" stroke-linejoin="round" color="#000" stroke="#09af54" stroke-linecap="round" stroke-width="4.5" fill="none"/><path d="M61.863 105.2l-2.336 11.554H20.194l-2.02-11.617" color="#000" stroke="#09af54" stroke-linecap="round" stroke-miterlimit="5" stroke-width="4.5" fill="none"/></svg>