<svg xmlns="http://www.w3.org/2000/svg" viewBox="0 0 188 53" width="188"><path d="M22.3 13.996l-.405-2.123-1.193-1.76-1.052-.343s-.202-.303-.1-.364c.08-.04-1.194-.223-1.194-.223l.283-.546-1.718-1.071-.283.323-.203-.141.203-.101-.081-.87-.202.202s-.04-.222-.081-.586c1.94.101 2.042-.162 1.961-.627-.182-1.84.323-5.297-3.983-5.742-4.307-.445-3.58 5.54-3.58 5.54.365.506.87 1.092.87 1.092l-.162.283-.04.404s-1.719.526-1.78 1.032c-.06.525 0 1.496 0 1.496l-1.03.283s-.749 1.011-.991 1.112c-.243.465-.769 2.184-1.193 2.325.02.162.222.283.222.283l-.97 3.296.91.708-.445 1.173-.83.525.142.647-.141.668s-1.497 1.577-1.497 1.961c-.728.04-1.071.627-.89.99-.303.284-.545.405-.545.405l.182.425.323-.142.223.425-.445.283-.06.303-1.295.627-.08-.06-.688.383.263.546.829-.323-.02-.101 1.172-.587.506.304.89-.385.242.162.829-.627c.162.182.344.445.303.748-.141 1.193-.404 3.155-.586 3.498-.263.506-.566 5.359-.566 5.359l-.304 6.571.789 1.8v.222a1.85 1.85 0 0 1-1.072.465c.081.142.304.142.304.142s.283-.081.667-.263c-.404.566-1.011 1.092-1.78 1.132.081.142.304.142.304.142s.93-.243 1.597-.93l.02 1.273-2.123 1.962-2.365.809s-.243.485-.142.93c0 .02-.162.06-.162.08 0 .264-.141.547.02.648.385.202 2.285.343 2.285.343s1.76.223 3.316-.222c.162-.04.324-.222.486-.283.222-.04.384.243.566.202.809-.182 1.557-.445 1.82-.627.1-.06.1-.404.08-.87 0-.06-.222-.04-.222-.1-.02-.283.162-.688.121-1.011-.08-.708-.424-1.577-.424-1.577l-.04-2.164 1.496-1.9-.708-4.328 1.9-4.65 1.659 2.507-.789 6.167 2.103 3.58-.02.242c-.506-.02-1.031-.142-1.436-.526-.06.162.101.324.101.324s.566.343 1.315.465l-.02.283a1.91 1.91 0 0 1-.951.323c.08.142.303.142.303.142s.263-.081.627-.243l-.08 1.355-.79 1.173s-.384.647-1.05 1.091c-.708.445-1.356.203-1.84.607-.345.404-.243 1.294-.243 1.294l-.182.182.04.627c.809.283 2.164.505 3.114.526 2.527.02 3.134-.688 3.134-.688l.283.142 1.8-.647.04-.688-.243-.222c.223-.425.263-.93.182-1.476-.525-1.517-.97-2.184-.748-3.862l1.9-2.609-.363-4.104-.85-3.397-.12-4.348 2.668-1.516-.323-4.266-.809-1.84.202-2.69s2.144-1.314 2.245-1.557c.08-.242.283-2.183.303-2.406-.02-.202.222-.707.222-.748 0-.04-.02-.505.304-.566-.243-.485-.142-1.516-.142-1.516zm-2.083-3.458s1.678 2.568 1.193 3.195c-.506-.465-.89-.303-.89-.303s.445-1.78-.769-1.921l-.404-1.294.87.323zM18.66 9.406v.04s-1.294 1.516-1.497 1.981c-.667-.202-2.123-.687-2.123-.687s2.346-.627 2.851-1.294c.304-.04.769-.04.769-.04zM7.215 23.722l.364-2.629 9.463-6.268 1.173.121-1.638 1.476h-1.072l-3.235 2.103-.424 1.254-4.267 2.588v1.496l-.364-.141zm.202.647c0 .04-.505 1.091-.667 1.152-.162.081-.485.425-.485.425l-.303-.101-.243.1s-.162-.727-.162-.889c0-.142.607-.708.607-.708l.222.142s.364-.83.425-.768c.06.06.263.566.263.566s.404-.182.343.08zm6.147-19.573c-.141-.02-.283-.02-.424-.04l.182-.769c.04-.141.141-.1.222.061-.06.182-.02.506.02.749zm.142.222l.707.748c-.687-.06-1.536-.04-2.123-.02l.607-.768c.263-.02.526 0 .809.04zm1.516-.91c.304.223.324.587.324.748 0 0 .06.182 0 .425-.162-.06-.445-.142-.728-.222-.081-.142-.243-.304-.06-.324.201-.04.727-.04.464-.627zm-.202-.04c-.303-.182-.768 0-.768 0s-.081-.08-.162-.121c.04-.061.465-.162.465-.162l.364.142c.02.02.202.1.101.141zm-.04.364H15s0 .142-.283.162c-.283.02-.667-.142-.667-.142l.93-.02zm.707 1.193l-.222.405c-.101-.081-.243-.122-.404-.182h.02l-1.112-.789c.89.182 1.658.546 1.718.566zm.101 1.193a.553.553 0 0 0-.262.061c-.081.04-.142.081-.182.162-.081.141-.04.303.06.425l.081.08c.04.02.06.04.101.062.061.04.142.04.223.02.141-.02.283-.182.263-.364.04.08.04.202 0 .283a.4.4 0 0 1-.223.222.451.451 0 0 1-.323 0c-.04-.02-.101-.04-.142-.08-.04-.04-.08-.062-.121-.102a.512.512 0 0 1-.122-.303c0-.101.02-.223.102-.304a.449.449 0 0 1 .262-.161.348.348 0 0 1 .284 0zm-.06-.242l.222-1.72.324.243-.243 1.537-.303-.06zm-.587.1l-.06.243-.142.02-2.083.223a3.176 3.176 0 0 1-.323-.223c1.638-.222 2.143-.263 2.608-.263zm-3.073-.262c-.06-.081-.101-.162-.162-.243 1.982-.243 2.831-.06 3.518-.04l-.182.324c-.788-.243-2.487-.101-3.174-.04zm2.568.829l-.101.303-2.346.303.04-.242 2.407-.364zm-1.577 1.031c.08 0 2.022-.87 2.022-.87l.222.445-1.456.668s-.849-.243-.788-.243zm-.95-4.125s-.061.081-.122 0c.101-.263.566-.344.566-.344l.202.122c-.202.06-.626.04-.647.222zm.849.303l-.567.142s-.202-.061-.141-.162c.121.061.708.02.708.02zm-.061.162c.02.061-.02.122-.04.142-.405.02-.83.04-1.133.283.02-.263.122-.647.142-.647.202.08.465.505 1.031.222zm-.526.445l-.505.708h-.142c-.02-.061-.06-.142-.08-.223.181-.242.444-.404.727-.485zm-.606 1.638l.465.546-.324.162L11.583 7l.182-.303zm4.63 5.621l-.182 1.577s-5.924 3.276-6.551 4.064c-.324-1.193 0-2.163 0-2.163s1.82-2.851 2.163-3.397c.324-.546 4.449-1.031 4.57-.081zm.485-4.084s1.193.525 1.173.586c-.02.061-4.448 1.537-5.46 1.618l.122-.203c2.548-.465 3.76-1.557 4.165-2.001zm1.153-2.589c.02.061.04.122.04.203 0 .04 0 .06-.02.1 0 .04-.02.062-.02.082l-.182.08c.04-.1.121-.323.06-.424a.814.814 0 0 0-.202-.263c-.161-.162-.343-.323-.445-.546-.12-.202-.182-.445-.222-.667 0-.06-.02-.121-.02-.182 0-.06 0-.101-.02-.162a.472.472 0 0 0-.203-.242c-.161-.122-.343-.182-.545-.243 0-.02 0-.04.02-.06.202.06.404.12.566.262a.524.524 0 0 1 .222.283c.02.061.02.121.02.182s0 .121.02.162c.041.222.102.445.223.627.121.202.283.343.445.505a.917.917 0 0 1 .263.303zm-6.814-2.568l-.02-.1h.02C11.158 1.236 12.695.51 12.776.468a2.04 2.04 0 0 1 .626-.162c.405-.06.83-.04 1.234.02.445.081.87.223 1.274.425a3.14 3.14 0 0 1 1.03.83c.284.343.486.747.587 1.172a2.721 2.721 0 0 0-.627-1.132 3.023 3.023 0 0 0-1.05-.747A3.74 3.74 0 0 0 14.616.53c-.385-.04-.769 0-1.133.08-1.294.446-1.274 1.922-1.253 2.184.202-.04.424-.06.626-.08a11.54 11.54 0 0 1 1.679-.04c.566.02 1.132.1 1.678.222.546.141 1.072.344 1.537.687a4.295 4.295 0 0 0-1.537-.647 9.285 9.285 0 0 0-1.658-.202c-.566-.02-1.112 0-1.678.061a6.314 6.314 0 0 0-1.658.283zm.404 7.077c.101.203-.85 1.517-.85 1.517h-.97l1.82-1.517zm-1.456-2.001l1.335-.627c-.587.606-.101 1.537-.101 1.537-.364.606-1.133 1.172-1.193 1.213-.506-1.254-.04-2.123-.04-2.123zm-.606 2.001l.384.93-.708.425-.445-.99.769-.365zm-.101 2.427l.748-.02c-.304.87-2.265 5.075-2.265 5.075l1.517-5.055zm-3.033 2.911l.485-1.395.222-.08.708-1.275-.121 3.316-1.294-.566zm.323 2.467c.04 0 .97.101.93.223l-.303.89s-.607-.385-.91-.243c-.162.141.243-.87.283-.87zm.162 1.112l.344.142-.647.344-.243-.283.546-.203zm-.95.182l.687.627 2.022-1.355c.02 0 .263.405.263.405l-2.649 1.719-.748-1.153.425-.243zm-1.396 2.79c.526-.505 1.173-1.172 1.173-1.576 0 0 .586.99.566.99-.02 0-2.062 1.436-2.103 1.517-.02.06-.161-.425.364-.93zM3.09 23.399c.122-.384.627-.323.85-.323v.04l-.85.566c0 .02-.121.101 0-.283zm-.06 1.052l-.02-.344 3.8-2.447.162.223L3.03 24.45zm2.305 13.486l.263-.424 2.81.97-3.073-.546zm.87-1.132l-.304-.566 2.507 1.112-2.204-.546zm.646-.485l1.679-6.21.728.85-2.406 5.358zm1.092-7.886c2.224.445 5.54-1.031 5.54-1.031l.122 1.031c.02 0-3.923.768-5.662 0zm-.08-4.105l.14-.323 3.337 1.173 1.072-1.436.364-.1-1.436 1.94-3.478-1.254zm3.335 6.633l1.618.141.687-.424 3.418 2.527-3.68-1.719c-.425 1.436-.102 2.71.849 3.741l3.114.647h-3.7v-.91c-1.113-1.092-1.86-2.446-2.306-4.003zm4.853-8.958c.223-.04.384-.06.384-.06s.526 1.172.465 1.212l-1.739.506s-.141-.688-.465-1.294c.324-.142.749-.243 1.113-.304.06-.02.424.971.566.95.02-.02-.344-1.01-.324-1.01zM13.06 38.725l1.294-.243-1.133 1.82 1.133 1.82-1.699-.667.405-2.73zm1.8 11.647l-.223.141-.243-.141-.222.141c-.304-.809-1.193-.788-1.557-1.01 1.132-.02 2.244.869 2.244.869zm-.506-3.054c.627 0 1.071.102 1.354.223l.04-.121-.323-.89c-.343-.243-.93-.303-1.132-.344.425 0 .768.04 1.051.121l-.08-.141.768-.243c.08 1.679.263 3.013.647 3.519l-1.537.303.162-.647c-.303-.384-1.072-.627-1.294-.667.485 0 .97.161 1.375.343l.242-.97c-.303-.364-1.051-.425-1.273-.486zm3.073 3.761l.162.122c-.04.04-.344.08-.384.1-.02.02-.324.082-.384.122-.122.061-.89.364-1.173.445-.526.141-1.092.283-1.638.344-1.092.121-2.406 0-3.235-.101.93.06 2.163.12 3.235-.04.526-.081 1.072-.243 1.577-.385.283-.1 1.658-.546 1.84-.606zm-3.7-7.562l.485-.788 3.458.687-3.943.101zm4.185-5.035l-4.71-.97.282-.97 4.428 1.94zm.769-9.32c-.506.302-2.386 1.05-2.75 1.05-.364 0-1.173-3.336-1.173-3.336s.607-.242 1.294-.526c.121-.04.546 1.416.95 1.921.122.162.769-.161.79-.202.14-.242-.77-2.062-.628-2.123.344-.162.465-.283.688-.404 0 0 1.172 3.437.829 3.62zM21.37 18.91s-1.415-.02-1.618.182c-.202.202.465.08.728.343 0 0-1.193 1.294-2.75 1.577-1.557.284-4.145.81-4.529 1.133-.384.323-.647 1.112-.748 1.112-.101 0-.91.526-1.072.728-.161.202-.141.343-.242.343s-.283-.1-.283-.1.242-.708.161-.749c-.06-.04-.283.587-.323.587-.04 0-.465-.304-.465-.304s.364-.687.283-.748c-.06-.06-.506.769-.647.769-.142 0-.283-.304-.283-.304l.323-.91s-.707.263-.93.344c-.424.142-.97.364-.97.364l-.223-.121s.243-.182.445-.324c.081-.06.97-.627 1.375-.87.404-.262 1.698-.848 1.739-.909.04-.04 1.132-.04 1.82-.384.687-.344 1.961-.587 3.963-2.063.323-.242.647-.626.89-.89.485-.525 1.172-.384 1.354-1.334.708-.505 2.164-.222 2.285.182.06.425-.283 2.346-.283 2.346zm.586-3.66c-1.577-.85-2.891.263-2.891.263s-.06.242-.223 0c.243-.546 1.84-1.193 3.114-.445v.182zm0-.89c-1.577-.849-2.891.263-2.891.263s-.06.243-.223 0c.243-.546 1.84-1.193 3.114-.445v.182zm7.781 20.463V6.133h-1.303c-.145-.092-.217-.178-.217-.257 0-.066.072-.145.217-.237h5.825c1.79 0 3.255.619 4.393 1.856 1.14 1.237 1.709 2.975 1.709 5.213 0 1.37-.195 2.55-.583 3.544a6.015 6.015 0 0 1-1.807 2.498c-.513.421-1.29.823-2.33 1.205 1.08.395 1.876.796 2.39 1.204a6.538 6.538 0 0 1 1.856 2.439c.42.954.631 2.13.631 3.524 0 1.804-.309 3.403-.928 4.799-.42.974-1.112 1.787-2.073 2.438-.96.652-2.113.978-3.455.978h-5.628c-.145-.092-.217-.178-.217-.257 0-.079.072-.164.217-.257zm4.068-28.69v13.585h1.046c.474 0 .826-.119 1.057-.356.23-.237.345-.632.345-1.184V7.87c0-.671-.118-1.129-.355-1.372-.237-.244-.698-.365-1.382-.365zm0 14.098v14.592h.632c.553 0 .994-.158 1.323-.474.329-.315.493-.743.493-1.283V21.594c0-.487-.095-.836-.286-1.047-.19-.21-.49-.316-.898-.316zm9.437-14.098h-1.224c-.145-.092-.218-.172-.218-.237 0-.08.073-.165.218-.257h6.575c.066 0 .122.023.168.069a.229.229 0 0 1 .069.168.253.253 0 0 1-.07.187.229.229 0 0 1-.167.07H47.29v28.69h.83c.591 0 1.111-.168 1.559-.503.448-.336.882-1.03 1.303-2.084.619-1.553 1.07-3.248 1.353-5.084.283-1.836.431-3.011.444-3.525.013-.184.04-.303.08-.355l.157-.06.158.06a.245.245 0 0 1 .08.178l-.159 11.887H42.018a.229.229 0 0 1-.168-.07.253.253 0 0 1-.07-.187c0-.079.024-.141.07-.188a.229.229 0 0 1 .168-.069h1.224zm16.255-.079h2.191l3.515 28.77h.889c.145.091.217.177.217.256 0 .08-.072.165-.217.257h-5.944a.198.198 0 0 1-.158-.07.279.279 0 0 1-.059-.187c0-.079.02-.141.06-.187a.198.198 0 0 1 .157-.07h.948l-.513-5.607h-3.574l-.435 3.179c-.013.171-.02.349-.02.533 0 .58.11 1.017.326 1.313.217.296.517.477.899.543l.316.1a.267.267 0 0 1 .079.197.253.253 0 0 1-.07.187.229.229 0 0 1-.167.07H54.56a.229.229 0 0 1-.168-.07.253.253 0 0 1-.069-.187.32.32 0 0 1 .06-.198l.236-.079c.382-.052.678-.224.889-.513.316-.46.54-1.224.671-2.29zm-.494 7.365l-1.935 15.283h3.455zm17.965-7.997v11.71a.33.33 0 0 1-.079.226.254.254 0 0 1-.197.09.267.267 0 0 1-.198-.08.368.368 0 0 1-.079-.237v-1.046c0-1.659-.19-3.324-.572-4.996-.487-2.185-1.159-3.739-2.014-4.66-.33-.356-.757-.533-1.284-.533-.355 0-.638.138-.849.414-.276.343-.414.87-.414 1.58v25.354c0 .632.121 1.09.365 1.372.243.283.57.425.977.425.527 0 1.067-.234 1.62-.701.552-.468.974-1.096 1.263-1.886.606-1.606.908-3.403.908-5.39v-3.259c0-.131.027-.23.08-.296a.243.243 0 0 1 .197-.099c.066 0 .118.026.158.08a.471.471 0 0 1 .118.315v3.258c0 3.067-.566 5.371-1.698 6.911-.803 1.106-1.816 1.659-3.04 1.659-.909 0-1.699-.286-2.37-.859-.672-.573-1.218-1.55-1.64-2.932-.776-2.594-1.164-5.72-1.164-9.38v-3.396c0-2.633.227-5.13.681-7.494.454-2.362 1.195-4.084 2.222-5.163.697-.724 1.487-1.086 2.37-1.086 1.052 0 2 .724 2.842 2.172l1.58-2.073zm3.221.73h-1.185a.254.254 0 0 1-.188-.069.253.253 0 0 1-.069-.187.25.25 0 0 1 .07-.188.254.254 0 0 1 .187-.069H85.5c.132.092.198.178.198.257 0 .079-.066.164-.198.257h-1.244v14.394l4.502-10.959c.277-.658.415-1.257.415-1.797 0-.447-.086-.803-.257-1.066a1.261 1.261 0 0 0-.73-.533l-.75-.059a.256.256 0 0 1-.139-.237c0-.079.023-.141.07-.188a.229.229 0 0 1 .167-.069h4.858a.23.23 0 0 1 .167.07c.046.045.07.108.07.187 0 .105-.04.178-.119.217l-.948.1c-.46.144-.859.467-1.194.967-.336.5-.813 1.514-1.432 3.04l-2.014 4.898 5.173 19.706h.889c.066 0 .122.023.168.07a.25.25 0 0 1 .069.187.254.254 0 0 1-.07.187.229.229 0 0 1-.167.07h-6.28c-.118-.093-.177-.178-.177-.257 0-.092.06-.178.178-.257h1.283l-3.732-13.743v13.743H85.5c.08 0 .142.023.188.069a.255.255 0 0 1 .069.188.253.253 0 0 1-.07.187.254.254 0 0 1-.187.07h-6.496l-.08-.04a.353.353 0 0 1-.058-.218c0-.092.046-.178.138-.257h1.185zm22.681 27.467c-.448.316-.905.707-1.373 1.175-.467.467-.753.7-.859.7-.039 0-.072-.02-.098-.058-.027-.04-.04-.125-.04-.257v-12.4c0-.052.017-.095.05-.129a.15.15 0 0 1 .108-.049c.066 0 .125.04.178.119.092.118.138.25.138.395v.849c0 1.645.257 3.521.77 5.627.514 2.107 1.185 3.607 2.014 4.502.408.448.882.672 1.422.672.619 0 1.158-.293 1.62-.879.46-.586.69-1.471.69-2.656 0-1.132-.21-2.33-.632-3.594-.552-1.685-1.777-4.383-3.672-8.095-1.185-2.317-1.939-3.992-2.261-5.026a10.083 10.083 0 0 1-.484-3.01c0-1.936.457-3.45 1.372-4.543.915-1.092 1.959-1.638 3.13-1.638 1 0 1.902.533 2.705 1.599a11.087 11.087 0 0 0 1.916-1.323c.21-.184.348-.276.414-.276.027 0 .053.013.08.039a.68.68 0 0 1 .039.276v10.722a.597.597 0 0 1-.099.355.187.187 0 0 1-.158.08.194.194 0 0 1-.178-.1c-.04-.066-.118-.54-.237-1.421-.54-4.094-1.257-6.806-2.152-8.136-.526-.763-1.125-1.145-1.797-1.145-.5 0-.934.224-1.303.672-.369.447-.553 1.105-.553 1.974 0 1.567.895 4.14 2.686 7.72l1.737 3.496c1.198 2.409 1.995 4.32 2.39 5.736.394 1.415.592 2.682.592 3.801 0 1.948-.48 3.475-1.442 4.581-.96 1.106-2.086 1.659-3.376 1.659-1.395 0-2.508-.672-3.337-2.014zm21.213-16.488v7.286c0 4.2-.664 7.267-1.994 9.202-.921 1.343-2.073 2.014-3.456 2.014-.934 0-1.796-.336-2.586-1.007-.79-.671-1.409-1.659-1.856-2.962-.724-2.093-1.086-4.416-1.086-6.97v-8.53c0-3.976.664-6.925 1.994-8.847.921-1.33 2.06-1.994 3.416-1.994a3.79 3.79 0 0 1 1.817.444c.553.296 1.046.73 1.48 1.303.435.573.827 1.33 1.175 2.271.35.942.596 1.919.74 2.933.238 1.724.356 3.343.356 4.857zm-6.812 15.264c0 1.026.158 1.77.474 2.231.237.33.526.494.869.494.329 0 .618-.149.869-.445.25-.296.375-.72.375-1.273V8.087c0-.71-.165-1.276-.494-1.698-.224-.302-.507-.454-.849-.454-.303 0-.566.145-.79.435-.303.394-.454.967-.454 1.717zm9.733-26.262h-1.225c-.144-.092-.217-.172-.217-.237 0-.08.073-.165.217-.257h6.576a.23.23 0 0 1 .168.069.229.229 0 0 1 .069.168.254.254 0 0 1-.07.187.229.229 0 0 1-.167.07h-1.304v28.69h.83c.592 0 1.112-.168 1.56-.503.447-.336.882-1.03 1.303-2.084.619-1.553 1.07-3.248 1.353-5.084.283-1.836.43-3.011.444-3.525.013-.184.04-.303.079-.355l.158-.06.158.06a.245.245 0 0 1 .079.178l-.158 11.887h-11.078a.229.229 0 0 1-.167-.07.253.253 0 0 1-.07-.187c0-.079.024-.141.07-.188a.229.229 0 0 1 .167-.069h1.225zm12.9 28.671V6.133h-1.244c-.092 0-.161-.023-.207-.07a.254.254 0 0 1-.07-.187.23.23 0 0 1 .07-.168c.046-.046.115-.069.207-.069h5.114c1.567 0 2.844.356 3.831 1.066.987.711 1.711 1.85 2.172 3.416.606 2.094.908 4.325.908 6.694v7.326c0 2.462-.296 4.686-.888 6.674-.342 1.12-.777 1.991-1.303 2.617a5.11 5.11 0 0 1-1.916 1.421c-.75.323-1.685.484-2.804.484h-5.114c-.092 0-.161-.023-.207-.069a.254.254 0 0 1-.07-.188c0-.092.024-.16.07-.207.046-.046.115-.069.207-.069zm4.088 0h.454c.803 0 1.33-.142 1.58-.425.25-.283.375-1.01.375-2.182V8.324c0-.855-.122-1.434-.366-1.737-.243-.303-.615-.454-1.115-.454h-.928zm9.394-28.671H152.2a.198.198 0 0 1-.158-.07.249.249 0 0 1-.06-.167c0-.08.02-.142.06-.188a.198.198 0 0 1 .158-.069h6.418c.065 0 .121.023.167.07.046.045.07.101.07.167a.254.254 0 0 1-.07.188.229.229 0 0 1-.167.069h-1.185v28.69h1.185c.131.092.197.178.197.257 0 .092-.066.178-.197.257h-6.576c-.145-.092-.217-.178-.217-.257 0-.079.072-.164.217-.257h1.343zm7.906 0h-1.263c-.132-.092-.198-.172-.198-.237 0-.092.066-.178.198-.257h11.215v10.998c-.079.132-.158.198-.237.198-.079 0-.135-.023-.167-.07-.033-.045-.056-.233-.07-.562-.092-2.185-.434-4.219-1.026-6.101-.593-1.883-1.165-3.074-1.718-3.574-.29-.264-.777-.395-1.461-.395h-1.225v13.9c.75-.078 1.363-.473 1.837-1.184.632-.96.948-2.435.948-4.423v-1.54c0-.066.023-.122.069-.168a.229.229 0 0 1 .167-.069c.066 0 .119.023.158.069.04.046.06.102.06.168v14.671c0 .066-.02.122-.06.168a.198.198 0 0 1-.158.069.229.229 0 0 1-.167-.07.228.228 0 0 1-.07-.167v-1.422c0-1.948-.355-3.495-1.066-4.64-.421-.658-.862-.987-1.323-.987-.118 0-.21.04-.276.118-.08.092-.119.237-.119.435v13.763h.632c.54 0 1.073-.201 1.6-.603.526-.401 1.02-1.099 1.48-2.093.461-.994.817-2.076 1.067-3.248.408-1.896.612-3.377.612-4.443v-1.303c.092-.145.178-.217.257-.217a.28.28 0 0 1 .187.059.2.2 0 0 1 .07.158v12.203h-11.216a.292.292 0 0 1-.218-.08.244.244 0 0 1-.079-.177c0-.079.027-.141.08-.188a.319.319 0 0 1 .217-.069h1.263zm12.729 0h-1.165c-.144-.08-.217-.165-.217-.257 0-.08.073-.158.217-.237h6.22c1.54 0 2.877.655 4.009 1.965 1.132 1.31 1.698 3.096 1.698 5.36 0 1.304-.217 2.462-.652 3.476a6.177 6.177 0 0 1-1.935 2.508c-.513.395-1.31.776-2.39 1.145 1.212.355 2.054.698 2.528 1.027.803.553 1.399 1.217 1.787 1.994.389.777.583 1.784.583 3.021v7.227c0 .33.052.56.158.691a.505.505 0 0 0 .414.198c.264 0 .5-.165.711-.494.343-.526.56-1.474.652-2.843.013-.237.05-.395.109-.474.059-.08.121-.119.187-.119.08 0 .145.046.198.139.065.105.098.302.098.592 0 1.461-.352 2.59-1.056 3.386-.704.797-1.59 1.195-2.656 1.195-.948 0-1.665-.244-2.152-.73-.487-.488-.73-1.179-.73-2.074V22.383c0-.895-.225-1.494-.672-1.796-.263-.172-.882-.257-1.856-.257v14.493h.967c.106 0 .188.026.247.08.06.051.089.111.089.177 0 .066-.03.125-.089.178a.362.362 0 0 1-.247.079h-6.22a.29.29 0 0 1-.197-.07.236.236 0 0 1-.08-.187c0-.079.027-.141.08-.187a.29.29 0 0 1 .197-.07h1.165zm4.088 0v13.664h.967c.461 0 .836-.158 1.126-.474.29-.316.434-.777.434-1.382V7.692c0-.592-.105-1-.316-1.224-.21-.224-.625-.335-1.244-.335zM30.737 49.829c1.008-.024 1.727-.257 2.157-.698.43-.441.64-.948.628-1.521-.023-.688-.256-1.19-.698-1.505a4.474 4.474 0 0 0-1.538-.688 12.128 12.128 0 0 1-1.537-.478c-.443-.175-.676-.466-.7-.874a1.07 1.07 0 0 1 .437-.867c.282-.216.654-.327 1.115-.333.417 0 .814.072 1.19.22.377.147.708.376.995.686l.567-.69a3.222 3.222 0 0 0-1.147-.778c-.447-.182-.96-.274-1.537-.276-.757.01-1.375.203-1.853.58-.478.378-.725.883-.74 1.515.023.656.256 1.13.699 1.42.442.291.955.506 1.537.644a8.716 8.716 0 0 1 1.538.503c.442.197.675.53.699 1 .01.307-.118.596-.384.867-.266.272-.73.417-1.394.435-.534-.01-1-.12-1.401-.33-.4-.21-.726-.458-.977-.746l-.555.714a3.42 3.42 0 0 0 1.19.863c.483.218 1.052.33 1.709.337zm10.484-.136v-7.552h-.94v3.25h-4.415v-3.25h-.94v7.552h.94v-3.465h4.416v3.465zm5.219.136c1.132-.024 2.036-.396 2.71-1.117.675-.721 1.021-1.65 1.038-2.79-.017-1.138-.363-2.068-1.037-2.79-.675-.72-1.579-1.093-2.71-1.116-1.138.024-2.043.396-2.716 1.117-.672.72-1.017 1.65-1.033 2.79.016 1.138.36 2.068 1.033 2.79.673.72 1.578 1.092 2.715 1.116zm0-.838c-.859-.018-1.533-.31-2.024-.876-.49-.566-.74-1.297-.75-2.193.009-.9.26-1.632.75-2.196.49-.564 1.165-.855 2.024-.872.854.017 1.527.308 2.02.872.493.564.744 1.296.754 2.196-.01.896-.261 1.627-.754 2.193-.493.566-1.166.858-2.02.876zm12.021.702l2.151-7.552h-1.041l-1.665 6.295-1.732-6.295h-.782l-1.732 6.295-1.676-6.295h-1.041l2.15 7.552h1.02l1.664-6.092 1.665 6.092zm8.683 0l-2.038-3.08a2.166 2.166 0 0 0 1.365-.623c.379-.369.576-.893.593-1.574-.012-.704-.234-1.257-.665-1.66-.431-.402-.998-.608-1.701-.615h-3.035v7.552h.94v-3h1.506l1.925 3zm-2.56-3.827h-1.98v-2.888h1.98c.455.01.818.14 1.09.401.27.26.41.606.417 1.037-.007.432-.146.78-.418 1.044-.271.263-.634.398-1.088.406zm7.399 3.963c1.133-.024 2.036-.396 2.71-1.117.676-.721 1.022-1.65 1.038-2.79-.016-1.138-.362-2.068-1.037-2.79-.675-.72-1.578-1.093-2.71-1.116-1.138.024-2.042.396-2.715 1.117-.673.72-1.017 1.65-1.033 2.79.016 1.138.36 2.068 1.033 2.79.673.72 1.577 1.092 2.714 1.116zm0-.838c-.858-.018-1.533-.31-2.024-.876-.49-.566-.74-1.297-.75-2.193.01-.9.26-1.632.75-2.196.491-.564 1.166-.855 2.024-.872.854.017 1.527.308 2.02.872.493.564.744 1.296.755 2.196-.01.896-.262 1.627-.755 2.193-.493.566-1.166.858-2.02.876zm8.67.838c1.132-.024 2.035-.396 2.71-1.117.675-.721 1.02-1.65 1.038-2.79-.017-1.138-.363-2.068-1.038-2.79-.675-.72-1.578-1.093-2.71-1.116-1.137.024-2.042.396-2.715 1.117-.673.72-1.017 1.65-1.033 2.79.016 1.138.36 2.068 1.033 2.79.673.72 1.578 1.092 2.715 1.116zm0-.838c-.859-.018-1.534-.31-2.024-.876-.49-.566-.741-1.297-.75-2.193.01-.9.26-1.632.75-2.196.49-.564 1.165-.855 2.024-.872.853.017 1.527.308 2.02.872.492.564.744 1.296.754 2.196-.01.896-.262 1.627-.755 2.193-.492.566-1.166.858-2.02.876zm12.621.702v-7.552h-1.348l-2.355 5.684-2.344-5.684H85.88v7.552h.94v-6.216l2.559 6.216h.385l2.57-6.216v6.216z" fill="#a2a2a2"/></svg>