<svg xmlns="http://www.w3.org/2000/svg" viewBox="0 0 293 83" width="293"><path d="M46.57 53.968V9.038h-2.042c-.226-.145-.34-.28-.34-.403 0-.103.114-.227.34-.371h9.123c2.803 0 5.097.969 6.88 2.907 1.783 1.938 2.675 4.659 2.675 8.163 0 2.144-.304 3.995-.912 5.551a9.419 9.419 0 0 1-2.83 3.912c-.804.66-2.02 1.288-3.649 1.886 1.69.619 2.938 1.247 3.742 1.886a10.238 10.238 0 0 1 2.907 3.82c.66 1.494.99 3.334.99 5.519 0 2.824-.485 5.33-1.454 7.514-.66 1.526-1.742 2.799-3.247 3.82-1.505 1.02-3.309 1.53-5.412 1.53h-8.813c-.226-.144-.34-.278-.34-.402s.114-.258.34-.402zm6.37-44.93v21.274h1.638c.742 0 1.294-.185 1.655-.557.36-.37.54-.99.54-1.855V11.758c0-1.051-.185-1.767-.556-2.149-.37-.381-1.092-.572-2.164-.572zm0 22.078v22.852h.989c.866 0 1.556-.247 2.072-.742.515-.495.773-1.165.773-2.01V33.25c0-.763-.15-1.31-.449-1.64-.299-.33-.768-.494-1.407-.494zM67.718 9.037h-1.917c-.227-.144-.34-.268-.34-.371 0-.124.113-.258.34-.402h10.297a.36.36 0 0 1 .263.108c.072.072.108.16.108.263a.397.397 0 0 1-.108.294.359.359 0 0 1-.263.108h-2.04v44.931h1.298c.928 0 1.742-.263 2.443-.789.7-.525 1.381-1.613 2.04-3.262.97-2.433 1.676-5.087 2.119-7.963.443-2.875.675-4.715.696-5.52.02-.288.062-.473.123-.556l.248-.093.247.093a.384.384 0 0 1 .124.278l-.247 18.616H65.8a.357.357 0 0 1-.263-.108.397.397 0 0 1-.108-.294c0-.124.036-.222.108-.294a.358.358 0 0 1 .263-.108h1.917zm25.456-.124h3.432l5.504 45.055h1.392c.227.144.34.278.34.402s-.113.258-.34.402h-9.308a.31.31 0 0 1-.247-.108.436.436 0 0 1-.093-.294.43.43 0 0 1 .093-.294.31.31 0 0 1 .247-.108h1.484l-.804-8.782h-5.597l-.68 4.979a10.9 10.9 0 0 0-.03.834c0 .907.17 1.593.51 2.057.34.464.808.747 1.406.85l.495.155a.42.42 0 0 1 .124.309.397.397 0 0 1-.108.294.359.359 0 0 1-.263.108h-5.288a.357.357 0 0 1-.263-.108.396.396 0 0 1-.108-.294.5.5 0 0 1 .093-.31l.37-.123c.598-.082 1.062-.35 1.392-.804.495-.721.845-1.917 1.052-3.587zM92.4 20.448l-3.03 23.934h5.412zm28.135-12.524V26.26a.516.516 0 0 1-.124.356.396.396 0 0 1-.309.139.419.419 0 0 1-.31-.124.575.575 0 0 1-.123-.37v-1.64a35.05 35.05 0 0 0-.897-7.823c-.762-3.422-1.814-5.855-3.154-7.298-.515-.557-1.185-.835-2.01-.835-.556 0-1 .217-1.33.65-.432.535-.649 1.36-.649 2.473v39.705c0 .99.191 1.706.572 2.15.382.443.892.664 1.531.664.825 0 1.67-.366 2.536-1.098.866-.732 1.525-1.716 1.979-2.953.948-2.515 1.422-5.329 1.422-8.442v-5.102c0-.206.041-.36.124-.464a.38.38 0 0 1 .31-.154c.102 0 .185.04.247.123a.74.74 0 0 1 .185.495v5.102c0 4.804-.886 8.411-2.66 10.823-1.257 1.732-2.844 2.598-4.761 2.598-1.423 0-2.66-.449-3.711-1.345-1.052-.897-1.907-2.428-2.567-4.592-1.216-4.062-1.824-8.958-1.824-14.689V29.29c0-4.123.355-8.034 1.067-11.735.71-3.7 1.87-6.396 3.478-8.086 1.093-1.134 2.33-1.7 3.711-1.7 1.65 0 3.134 1.133 4.453 3.4l2.474-3.246zm5.043 1.144h-1.855a.397.397 0 0 1-.294-.108.397.397 0 0 1-.108-.294c0-.124.036-.222.108-.294a.398.398 0 0 1 .294-.108h10.173c.207.144.31.278.31.402s-.103.258-.31.402h-1.948v22.543l7.05-17.162c.434-1.031.65-1.97.65-2.814 0-.701-.134-1.258-.402-1.67a1.976 1.976 0 0 0-1.144-.835l-1.175-.093a.4.4 0 0 1-.217-.371c0-.124.036-.222.109-.294a.358.358 0 0 1 .262-.108h7.607c.104 0 .191.036.263.108.072.072.109.17.109.294 0 .165-.062.278-.186.34l-1.484.155c-.722.226-1.345.731-1.871 1.515-.526.783-1.273 2.37-2.242 4.762l-3.154 7.669 8.102 30.86h1.391c.103 0 .19.037.263.109.072.072.108.17.108.294a.397.397 0 0 1-.108.294.359.359 0 0 1-.263.108h-9.833c-.186-.144-.279-.278-.279-.402 0-.144.093-.278.279-.402h2.01l-5.845-21.523v21.523h1.948c.124 0 .222.036.294.108.072.072.108.17.108.294a.397.397 0 0 1-.108.293.398.398 0 0 1-.294.109h-10.173l-.124-.062a.554.554 0 0 1-.093-.34c0-.145.072-.279.217-.402h1.855zm35.21 43.014a16.66 16.66 0 0 0-2.15 1.84c-.731.731-1.18 1.097-1.345 1.097-.061 0-.113-.03-.154-.093-.042-.062-.062-.196-.062-.402v-19.42c0-.081.026-.149.077-.2a.238.238 0 0 1 .17-.077c.103 0 .196.062.278.185a.983.983 0 0 1 .217.619v1.33c0 2.576.402 5.514 1.206 8.812.804 3.299 1.855 5.649 3.154 7.05.64.702 1.381 1.052 2.227 1.052.968 0 1.814-.458 2.535-1.376.722-.917 1.082-2.304 1.082-4.159 0-1.773-.33-3.649-.99-5.628-.865-2.639-2.782-6.865-5.75-12.678-1.856-3.629-3.036-6.252-3.541-7.87-.505-1.618-.758-3.19-.758-4.716 0-3.03.716-5.401 2.15-7.112 1.432-1.711 3.066-2.567 4.9-2.567 1.567 0 2.98.835 4.237 2.505a17.369 17.369 0 0 0 3-2.072c.33-.288.546-.433.649-.433.041 0 .082.021.123.062.042.083.062.227.062.433v16.791c0 .227-.051.413-.154.557a.295.295 0 0 1-.248.124.305.305 0 0 1-.278-.155c-.062-.103-.186-.845-.371-2.226-.845-6.412-1.969-10.658-3.37-12.74-.825-1.196-1.763-1.794-2.815-1.794-.783 0-1.463.35-2.04 1.051-.578.701-.866 1.732-.866 3.092 0 2.454 1.401 6.484 4.205 12.091l2.721 5.474c1.876 3.772 3.123 6.767 3.742 8.983.618 2.216.928 4.2.928 5.952 0 3.051-.753 5.443-2.258 7.175-1.505 1.731-3.267 2.597-5.288 2.597-2.185 0-3.927-1.051-5.226-3.154zm33.221-25.821v11.41c0 6.577-1.041 11.38-3.123 14.41-1.443 2.103-3.247 3.155-5.412 3.155-1.463 0-2.814-.526-4.05-1.577-1.238-1.052-2.207-2.598-2.907-4.639-1.134-3.278-1.701-6.916-1.701-10.916V24.747c0-6.226 1.04-10.844 3.123-13.854 1.443-2.082 3.226-3.123 5.35-3.123a5.93 5.93 0 0 1 2.845.696c.865.464 1.638 1.144 2.319 2.04.68.898 1.293 2.083 1.84 3.557a22.217 22.217 0 0 1 1.16 4.592c.37 2.7.556 5.236.556 7.607zM183.34 50.165c0 1.607.247 2.772.742 3.494.37.515.824.773 1.36.773.516 0 .97-.232 1.36-.696.393-.464.588-1.129.588-1.994V12.098c0-1.113-.257-2-.773-2.659-.35-.474-.793-.711-1.33-.711-.474 0-.886.227-1.236.68-.474.619-.711 1.515-.711 2.69zm15.242-41.128h-1.917c-.227-.144-.34-.268-.34-.371 0-.124.113-.258.34-.402h10.297a.36.36 0 0 1 .263.108c.072.072.108.16.108.263a.397.397 0 0 1-.108.294.359.359 0 0 1-.263.108h-2.04v44.931h1.298c.928 0 1.742-.263 2.443-.789.7-.525 1.381-1.613 2.04-3.262.97-2.433 1.676-5.087 2.12-7.963.442-2.875.674-4.715.695-5.52.02-.288.062-.473.124-.556l.247-.093.247.093a.384.384 0 0 1 .124.278l-.247 18.616h-17.348a.357.357 0 0 1-.263-.108.397.397 0 0 1-.108-.294c0-.124.036-.222.108-.294a.358.358 0 0 1 .263-.108h1.917zm20.203 44.9v-44.9h-1.948c-.145 0-.253-.036-.325-.108a.397.397 0 0 1-.108-.294.36.36 0 0 1 .108-.263c.072-.072.18-.108.325-.108h8.009c2.453 0 4.453.557 5.999 1.67 1.546 1.113 2.68 2.896 3.401 5.35.949 3.277 1.423 6.772 1.423 10.482V37.24c0 3.855-.464 7.339-1.392 10.452-.536 1.752-1.216 3.118-2.04 4.097a8 8 0 0 1-3 2.226c-1.175.505-2.639.758-4.391.758h-8.01c-.144 0-.252-.036-.324-.108a.397.397 0 0 1-.108-.294c0-.144.036-.253.108-.325.072-.072.18-.108.325-.108zm6.4 0h.712c1.258 0 2.082-.222 2.474-.665.392-.443.587-1.582.587-3.417V12.47c0-1.34-.19-2.247-.572-2.72-.381-.475-.963-.712-1.747-.712h-1.453zm14.713-44.9h-1.856a.31.31 0 0 1-.247-.108.39.39 0 0 1-.093-.263c0-.124.031-.222.093-.294a.31.31 0 0 1 .247-.108h10.05a.36.36 0 0 1 .263.108c.072.072.108.16.108.263a.397.397 0 0 1-.108.294.359.359 0 0 1-.263.108h-1.855v44.931h1.855c.206.144.31.278.31.402 0 .144-.104.278-.31.402h-10.297c-.227-.144-.34-.278-.34-.402s.113-.258.34-.402h2.103zm12.382 0h-1.98c-.206-.144-.309-.268-.309-.371 0-.144.103-.278.31-.402h17.564v17.224c-.124.206-.248.31-.371.31-.124 0-.212-.037-.263-.109-.052-.072-.088-.366-.108-.881-.145-3.422-.68-6.607-1.608-9.555-.928-2.948-1.825-4.814-2.69-5.597-.454-.413-1.217-.619-2.289-.619h-1.917v21.77c1.175-.124 2.134-.742 2.876-1.856.99-1.505 1.484-3.813 1.484-6.926v-2.412c0-.103.036-.191.108-.263a.358.358 0 0 1 .263-.108.31.31 0 0 1 .247.108.39.39 0 0 1 .093.263v22.975a.39.39 0 0 1-.093.263.31.31 0 0 1-.247.108.358.358 0 0 1-.263-.108.357.357 0 0 1-.108-.263v-2.226c0-3.051-.557-5.473-1.67-7.267-.66-1.03-1.35-1.546-2.072-1.546a.533.533 0 0 0-.433.185c-.123.145-.185.371-.185.68v21.554h.99c.845 0 1.68-.314 2.504-.943.825-.629 1.598-1.721 2.32-3.278a24.031 24.031 0 0 0 1.67-5.087c.638-2.968.958-5.288.958-6.957v-2.041c.144-.227.278-.34.402-.34.123 0 .221.03.294.092a.31.31 0 0 1 .108.248v19.11H250.3a.459.459 0 0 1-.34-.123.384.384 0 0 1-.124-.279.37.37 0 0 1 .123-.293.5.5 0 0 1 .34-.109h1.98zm19.934 0h-1.825c-.227-.124-.34-.258-.34-.402 0-.124.113-.247.34-.371h9.74c2.413 0 4.505 1.026 6.278 3.077 1.773 2.051 2.66 4.85 2.66 8.395 0 2.041-.34 3.856-1.02 5.443a9.673 9.673 0 0 1-3.031 3.927c-.804.619-2.052 1.216-3.742 1.794 1.897.556 3.216 1.092 3.958 1.608 1.258.865 2.19 1.906 2.799 3.123.608 1.216.912 2.793.912 4.73V51.68c0 .515.082.876.247 1.082.165.206.382.31.65.31.412 0 .783-.259 1.113-.774.536-.825.876-2.309 1.02-4.453.02-.37.078-.618.17-.742.093-.124.191-.185.294-.185.124 0 .227.072.31.216.102.165.154.474.154.928 0 2.288-.551 4.056-1.654 5.303-1.103 1.247-2.49 1.87-4.16 1.87-1.484 0-2.607-.38-3.37-1.143-.763-.763-1.144-1.845-1.144-3.247V34.487c0-1.402-.35-2.34-1.052-2.814-.412-.268-1.38-.402-2.906-.402v22.697h1.515c.165 0 .294.041.386.124.093.082.14.175.14.278a.367.367 0 0 1-.14.278.564.564 0 0 1-.386.124h-9.74a.452.452 0 0 1-.31-.108.37.37 0 0 1-.124-.294.37.37 0 0 1 .124-.294.453.453 0 0 1 .31-.108h1.824zm6.4 0v21.399h1.516c.721 0 1.309-.248 1.762-.743.454-.494.68-1.216.68-2.164V11.48c0-.928-.164-1.567-.494-1.917-.33-.35-.98-.526-1.948-.526zM48.135 77.467c1.578-.037 2.704-.402 3.378-1.093.674-.69 1.002-1.485.984-2.382-.037-1.078-.401-1.863-1.094-2.356a7.011 7.011 0 0 0-2.408-1.078 19 19 0 0 1-2.408-.748c-.693-.274-1.058-.73-1.094-1.369.012-.567.24-1.02.682-1.358.443-.34 1.025-.513 1.747-.521.654 0 1.275.112 1.864.343.59.231 1.109.59 1.558 1.075l.887-1.081a5.046 5.046 0 0 0-1.795-1.217c-.7-.285-1.503-.43-2.408-.432-1.185.015-2.152.317-2.901.908-.749.591-1.135 1.382-1.16 2.372.037 1.027.402 1.769 1.095 2.224.693.456 1.496.792 2.408 1.008.912.216 1.714.479 2.408.788.693.309 1.058.83 1.094 1.566.016.48-.184.933-.6 1.358-.417.426-1.145.652-2.184.68-.836-.015-1.567-.187-2.194-.516-.628-.328-1.137-.717-1.53-1.168l-.869 1.117c.488.56 1.109 1.01 1.865 1.352.755.343 1.647.518 2.675.528zm16.419-.213V65.427h-1.472v5.089h-6.915v-5.09h-1.472v11.828h1.472v-5.426h6.915v5.426zm8.173.213c1.772-.037 3.187-.62 4.244-1.749 1.057-1.13 1.599-2.585 1.625-4.369-.026-1.783-.568-3.239-1.625-4.368-1.057-1.13-2.472-1.713-4.244-1.75-1.781.038-3.198.62-4.252 1.75-1.053 1.129-1.593 2.585-1.618 4.368.025 1.784.565 3.24 1.618 4.37 1.054 1.129 2.471 1.712 4.252 1.748zm0-1.312c-1.345-.028-2.402-.486-3.17-1.372-.768-.886-1.16-2.03-1.175-3.434.015-1.41.407-2.557 1.175-3.44s1.825-1.338 3.17-1.365c1.337.027 2.39.482 3.163 1.365.771.883 1.165 2.03 1.181 3.44-.016 1.403-.41 2.548-1.181 3.434-.772.886-1.826 1.343-3.163 1.372zm18.825 1.099l3.369-11.827h-1.632l-2.606 9.859-2.713-9.86h-1.224l-2.713 9.86-2.624-9.86h-1.631l3.369 11.828h1.596l2.606-9.54 2.607 9.54zm13.598 0l-3.193-4.823a3.392 3.392 0 0 0 2.14-.975c.592-.578.901-1.4.928-2.465-.02-1.103-.366-1.97-1.042-2.6-.675-.63-1.563-.952-2.664-.964h-4.752v11.827h1.472v-4.699h2.358l3.014 4.7zm-4.008-5.993h-3.103v-4.522h3.103c.71.011 1.279.22 1.704.627.425.408.643.95.654 1.625-.01.677-.229 1.221-.654 1.634-.425.412-.993.624-1.704.636zm11.586 6.206c1.773-.037 3.188-.62 4.245-1.749 1.057-1.13 1.599-2.585 1.625-4.369-.026-1.783-.568-3.239-1.625-4.368-1.057-1.13-2.472-1.713-4.245-1.75-1.78.038-3.197.62-4.25 1.75-1.054 1.129-1.594 2.585-1.619 4.368.025 1.784.565 3.24 1.618 4.37 1.054 1.129 2.47 1.712 4.251 1.748zm0-1.312c-1.344-.028-2.4-.486-3.17-1.372-.768-.886-1.16-2.03-1.174-3.434.015-1.41.406-2.557 1.175-3.44.768-.883 1.825-1.338 3.17-1.365 1.336.027 2.39.482 3.162 1.365.772.883 1.166 2.03 1.182 3.44-.016 1.403-.41 2.548-1.182 3.434-.771.886-1.826 1.343-3.163 1.372zm13.577 1.312c1.773-.037 3.188-.62 4.244-1.749 1.057-1.13 1.599-2.585 1.625-4.369-.026-1.783-.568-3.239-1.625-4.368-1.056-1.13-2.471-1.713-4.244-1.75-1.78.038-3.198.62-4.251 1.75-1.054 1.129-1.593 2.585-1.619 4.368.026 1.784.565 3.24 1.619 4.37 1.053 1.129 2.47 1.712 4.25 1.748zm0-1.312c-1.345-.028-2.401-.486-3.17-1.372-.768-.886-1.16-2.03-1.175-3.434.015-1.41.407-2.557 1.175-3.44.769-.883 1.825-1.338 3.17-1.365 1.337.027 2.391.482 3.163 1.365.772.883 1.165 2.03 1.181 3.44-.016 1.403-.41 2.548-1.181 3.434-.772.886-1.826 1.343-3.163 1.372zm19.765 1.099V65.427h-2.11l-3.689 8.901-3.67-8.901h-2.11v11.827h1.471V67.52l4.008 9.735h.603l4.025-9.735v9.735zM34.921 21.918l-.633-3.325-1.868-2.755-1.647-.538s-.317-.475-.158-.57c.126-.063-1.868-.349-1.868-.349l.443-.855-2.692-1.678-.443.507-.317-.222.317-.158-.127-1.362-.316.317s-.064-.348-.127-.918c3.04.158 3.198-.254 3.072-.982-.285-2.882.506-8.296-6.238-8.993-6.745-.697-5.605 8.676-5.605 8.676.57.792 1.361 1.71 1.361 1.71l-.253.443-.063.634s-2.692.823-2.787 1.615c-.095.823 0 2.343 0 2.343l-1.615.443s-1.171 1.583-1.551 1.742c-.38.728-1.203 3.42-1.868 3.641.031.254.348.444.348.444l-1.52 5.16 1.425 1.11-.697 1.836-1.298.823.222 1.013-.222 1.045s-2.343 2.47-2.343 3.072c-1.14.063-1.678.981-1.393 1.551-.475.444-.855.634-.855.634l.285.665.506-.222.349.665-.697.443-.095.475-2.027.982-.126-.095-1.077.602.412.854 1.298-.506-.032-.158 1.837-.919.791.475 1.394-.601.38.253 1.298-.982c.253.285.538.697.475 1.172-.222 1.868-.633 4.94-.918 5.478-.412.792-.887 8.391-.887 8.391l-.475 10.291 1.235 2.818v.349a2.896 2.896 0 0 1-1.678.728c.126.222.475.222.475.222s.443-.127 1.045-.412c-.634.887-1.584 1.71-2.787 1.773.127.222.475.222.475.222s1.457-.38 2.502-1.457l.031 1.995-3.324 3.072L.565 75.81s-.38.76-.222 1.457c0 .032-.253.095-.253.127 0 .411-.222.855.031 1.013.602.317 3.579.538 3.579.538s2.754.349 5.193-.348c.253-.063.506-.348.76-.443.348-.063.601.38.886.316 1.267-.285 2.438-.696 2.85-.981.158-.095.158-.634.127-1.362 0-.095-.349-.063-.349-.158-.031-.444.254-1.077.19-1.584-.126-1.108-.665-2.47-.665-2.47l-.063-3.388 2.343-2.976-1.108-6.776 2.977-7.283 2.596 3.926-1.235 9.658 3.293 5.605-.031.38c-.792-.032-1.615-.222-2.249-.824-.095.254.159.507.159.507s.886.538 2.058.728l-.032.444c-.443.285-.918.475-1.488.506.127.222.475.222.475.222s.412-.127.982-.38l-.127 2.121-1.235 1.837s-.602 1.013-1.647 1.71c-1.108.697-2.121.317-2.881.95-.538.633-.38 2.026-.38 2.026l-.285.285.063.982c1.267.443 3.388.792 4.877.823 3.958.032 4.908-1.076 4.908-1.076l.443.221 2.818-1.013.064-1.076-.38-.349c.348-.665.411-1.456.285-2.311-.824-2.375-1.52-3.42-1.172-6.048l2.976-4.085-.57-6.428-1.33-5.32-.19-6.808 4.18-2.375-.506-6.681-1.267-2.882.317-4.211s3.356-2.058 3.515-2.438c.126-.38.443-3.42.475-3.768-.032-.317.348-1.109.348-1.172 0-.063-.032-.792.475-.887-.38-.76-.222-2.374-.222-2.374zm-3.261-5.415s2.628 4.021 1.868 5.003c-.792-.728-1.393-.475-1.393-.475s.696-2.787-1.204-3.008l-.633-2.027 1.362.507zm-2.438-1.773v.063s-2.027 2.374-2.344 3.103c-1.045-.317-3.324-1.077-3.324-1.077s3.673-.981 4.464-2.026c.475-.063 1.204-.063 1.204-.063zM11.299 37.148l.57-4.116 14.82-9.816 1.836.19-2.565 2.311h-1.678l-5.067 3.294-.665 1.963-6.68 4.053v2.343l-.57-.222zm.317 1.014c0 .063-.792 1.71-1.045 1.805-.253.126-.76.665-.76.665l-.475-.159-.38.159s-.253-1.14-.253-1.394c0-.221.95-1.108.95-1.108l.348.222s.57-1.299.665-1.204c.095.095.411.887.411.887s.634-.285.539.127zM21.242 7.51c-.222-.032-.443-.032-.665-.063l.285-1.203c.063-.222.222-.159.348.095-.095.285-.031.791.032 1.171zm.222.348l1.108 1.172c-1.077-.095-2.407-.063-3.325-.032l.95-1.203c.412-.032.823 0 1.267.063zm2.374-1.425c.475.349.507.919.507 1.172 0 0 .095.285 0 .665a17.875 17.875 0 0 0-1.14-.348c-.126-.222-.38-.475-.095-.507.317-.063 1.14-.063.728-.982zm-.316-.063c-.475-.285-1.203 0-1.203 0s-.127-.126-.254-.19c.064-.095.729-.253.729-.253l.57.222c.031.032.316.158.158.221zm-.063.57h.031s0 .222-.443.254-1.045-.222-1.045-.222l1.457-.032zm1.108 1.869l-.349.633c-.158-.127-.38-.19-.633-.285h.032l-1.742-1.235c1.394.285 2.597.855 2.692.887zm.158 1.868a.88.88 0 0 0-.412.095c-.126.063-.221.126-.284.253-.127.222-.064.475.095.665l.126.127c.063.032.095.063.159.095.095.063.221.063.348.032.221-.032.443-.285.411-.57a.541.541 0 0 1 0 .443.627.627 0 0 1-.348.348.703.703 0 0 1-.506 0c-.064-.032-.159-.063-.222-.126s-.127-.095-.19-.159c-.095-.126-.19-.285-.19-.475 0-.158.032-.348.158-.475a.704.704 0 0 1 .412-.253.542.542 0 0 1 .443 0zm-.095-.38l.348-2.692.507.38-.38 2.407-.475-.095zm-.918.158l-.095.38-.222.032-3.261.348a5.089 5.089 0 0 1-.507-.348c2.565-.348 3.357-.411 4.085-.411zm-4.813-.411c-.095-.127-.159-.254-.254-.38 3.104-.38 4.434-.095 5.51-.063l-.285.506c-1.235-.38-3.895-.158-4.971-.063zm4.021 1.298l-.158.475-3.673.475.063-.38 3.768-.57zm-2.47 1.615c.127 0 3.167-1.362 3.167-1.362l.348.697-2.28 1.045s-1.33-.38-1.235-.38zm-1.488-6.46s-.095.127-.19 0c.158-.412.887-.538.887-.538l.316.19c-.316.095-.981.063-1.013.348zm1.33.475l-.887.222s-.316-.095-.221-.254c.19.095 1.108.032 1.108.032zm-.095.253c.032.095-.032.19-.063.222-.634.032-1.299.063-1.774.443.032-.411.19-1.013.222-1.013.317.127.728.792 1.615.348zm-.823.697l-.792 1.108h-.222c-.031-.095-.095-.221-.126-.348a2.15 2.15 0 0 1 1.14-.76zm-.95 2.565l.728.855-.507.253-.506-.633.285-.475zm7.251 8.803l-.285 2.47s-9.278 5.13-10.26 6.364c-.506-1.868 0-3.388 0-3.388s2.85-4.465 3.389-5.32c.506-.855 6.966-1.615 7.156-.126zm.76-6.397s1.868.824 1.837.919c-.032.095-6.967 2.406-8.55 2.533l.19-.317c3.99-.728 5.89-2.438 6.523-3.135zM28.24 8.84a.93.93 0 0 1 .063.317c0 .063 0 .095-.031.158 0 .063-.032.095-.032.127l-.285.127c.063-.159.19-.507.095-.665-.063-.159-.19-.285-.317-.412-.253-.253-.538-.507-.696-.855-.19-.317-.285-.697-.349-1.045 0-.095-.031-.19-.031-.285 0-.095 0-.158-.032-.253a.74.74 0 0 0-.317-.38c-.253-.19-.538-.285-.855-.38 0-.032 0-.063.032-.095.317.095.633.19.887.411a.819.819 0 0 1 .348.444c.032.095.032.19.032.285 0 .095 0 .19.031.253.064.348.159.697.349.982.19.316.443.538.696.791.19.159.317.285.412.475zM17.569 4.82l-.032-.159h.032C17.474 1.937 19.88.797 20.007.734c.253-.127.665-.222.982-.253.633-.095 1.298-.063 1.931.032a7.4 7.4 0 0 1 1.995.665 4.96 4.96 0 0 1 1.615 1.298 4.57 4.57 0 0 1 .918 1.836 4.261 4.261 0 0 0-.981-1.773c-.444-.506-1.014-.886-1.647-1.171a5.856 5.856 0 0 0-1.93-.539 5.538 5.538 0 0 0-1.774.127c-2.026.697-1.995 3.008-1.963 3.42.317-.063.665-.095.982-.127.886-.095 1.773-.095 2.628-.063.887.032 1.773.158 2.628.348.855.222 1.678.539 2.407 1.077-.729-.507-1.552-.823-2.407-1.013a14.544 14.544 0 0 0-2.596-.317 18.19 18.19 0 0 0-2.629.095 9.92 9.92 0 0 0-2.596.443zm.633 11.083c.158.316-1.33 2.374-1.33 2.374h-1.52l2.85-2.374zm-2.28-3.135l2.09-.982c-.918.95-.158 2.407-.158 2.407-.57.95-1.773 1.836-1.868 1.9-.792-1.964-.064-3.325-.064-3.325zm-.95 3.135l.602 1.456-1.108.665-.697-1.551 1.203-.57zm-.158 3.8l1.172-.033c-.475 1.362-3.547 7.948-3.547 7.948l2.375-7.916zm-4.75 4.56l.76-2.186.349-.126 1.108-1.995-.19 5.193-2.027-.887zm.507 3.862c.063 0 1.52.159 1.456.349l-.475 1.393s-.95-.602-1.424-.38c-.254.222.38-1.362.443-1.362zm.253 1.742l.539.221-1.014.539-.38-.444.855-.316zm-1.488.285l1.077.981 3.166-2.121c.032 0 .412.633.412.633l-4.148 2.692L8.67 30.53l.665-.38zM7.15 34.52c.823-.792 1.837-1.837 1.837-2.47 0 0 .918 1.551.886 1.551-.031 0-3.23 2.248-3.293 2.375-.032.095-.253-.665.57-1.456zm-2.312 2.121c.19-.602.982-.507 1.33-.507v.063l-1.33.887c0 .032-.19.158 0-.443zm-.095 1.647l-.031-.539 5.953-3.831.253.348-6.175 4.022zm3.61 21.12l.412-.665 4.401 1.52-4.813-.855zm1.362-1.773l-.475-.887 3.926 1.742-3.451-.855zm1.013-.76l2.628-9.721 1.14 1.33-3.768 8.391zm1.71-12.35c3.483.697 8.676-1.614 8.676-1.614l.19 1.615c.032 0-6.143 1.203-8.866 0zm-.127-6.427l.222-.507 5.225 1.837 1.678-2.249.57-.158-2.248 3.04-5.447-1.963zm5.225 10.386l2.533.221 1.077-.665L26.498 52l-5.763-2.692c-.665 2.248-.158 4.243 1.33 5.858l4.877 1.013h-5.795v-1.425c-1.742-1.71-2.913-3.831-3.61-6.27zm7.6-14.028c.348-.063.601-.095.601-.095s.824 1.837.729 1.9l-2.723.792s-.222-1.077-.729-2.027c.507-.222 1.172-.38 1.742-.475.095-.032.665 1.52.886 1.488.032-.032-.538-1.583-.506-1.583zM20.45 60.644l2.027-.38-1.773 2.85 1.773 2.85-2.66-1.045.633-4.275zm2.819 18.24l-.349.22-.38-.22-.348.22c-.475-1.266-1.868-1.234-2.438-1.582 1.773-.032 3.515 1.361 3.515 1.361zm-.792-4.782c.982 0 1.678.158 2.121.348l.064-.19-.507-1.393c-.538-.38-1.456-.475-1.773-.538.665 0 1.203.063 1.646.19l-.126-.222 1.203-.38c.127 2.628.412 4.718 1.013 5.51l-2.406.475.253-1.014c-.475-.601-1.678-.981-2.026-1.045.76 0 1.52.254 2.153.539l.38-1.52c-.475-.57-1.647-.665-1.995-.76zm4.813 5.89l.253.19c-.063.062-.538.126-.601.158-.032.032-.507.126-.602.19-.19.095-1.393.57-1.837.696-.823.222-1.71.444-2.564.539-1.71.19-3.769 0-5.067-.159 1.457.095 3.388.19 5.067-.063.823-.126 1.678-.38 2.47-.601.443-.158 2.596-.855 2.881-.95zm-5.795-11.843l.76-1.235 5.415 1.076-6.175.159zm6.555-7.885l-7.378-1.52.443-1.52 6.935 3.04zm1.203-14.597c-.791.475-3.736 1.646-4.306 1.646-.57 0-1.837-5.225-1.837-5.225s.95-.38 2.027-.823c.19-.063.855 2.217 1.488 3.008.19.254 1.203-.253 1.235-.316.222-.38-1.203-3.23-.982-3.325.539-.253.729-.443 1.077-.633 0 0 1.837 5.383 1.298 5.668zm4.212-16.054s-2.217-.032-2.534.284c-.316.317.729.127 1.14.539 0 0-1.868 2.026-4.306 2.47-2.438.443-6.491 1.266-7.093 1.773-.602.506-1.013 1.741-1.172 1.741-.158 0-1.425.824-1.678 1.14-.253.317-.222.539-.38.539S17 37.94 17 37.94s.38-1.108.253-1.171c-.095-.063-.443.918-.506.918-.064 0-.729-.475-.729-.475s.57-1.077.444-1.172c-.095-.095-.792 1.204-1.014 1.204-.221 0-.443-.475-.443-.475l.507-1.425s-1.109.411-1.457.538c-.665.222-1.52.57-1.52.57l-.348-.19s.38-.285.696-.507c.127-.095 1.52-.981 2.154-1.361.633-.412 2.66-1.33 2.723-1.425.063-.063 1.773-.063 2.85-.602 1.076-.538 3.071-.918 6.206-3.23.507-.38 1.013-.981 1.393-1.393.76-.823 1.837-.601 2.122-2.09 1.108-.791 3.388-.348 3.578.285.095.665-.443 3.674-.443 3.674zm.918-5.732c-2.47-1.33-4.528.412-4.528.412s-.095.38-.348 0c.38-.855 2.881-1.868 4.876-.697v.285zm0-1.393c-2.47-1.33-4.528.412-4.528.412s-.095.38-.348 0c.38-.855 2.881-1.869 4.876-.697v.285z"/></svg>