<svg xmlns="http://www.w3.org/2000/svg" viewBox="0 0 102 119" height="119"><path d="M97.823 79.148c-8.839 21.022-34.636 25.702-47.056 37.602-12.038-11.81-36.906-15.38-46.484-37.095-6.064-13.749 10.788-53.793-2.033-65.529 10.468-10.411-.009-.128 10.214-10.725 10.997 11.331 25.237 12.87 38.381-1.059 11.74 13.392 27.038 12.608 38.094.728l10.722 10.713c-13.032 10.773 3.683 52.235-1.838 65.365z" color="#000" stroke="#09af54" stroke-linecap="round" stroke-width="4.5" fill="none"/><path d="M86.878 77.362c-5.349 9.69-21.479 16.855-36.277 25.018-14.459-8.088-33.604-16.043-36.016-26.446-4.21-18.159 6.341-40.813 1.926-56.349 8.79 3.867 25.578 6.092 34.228-2.803 9.002 9.756 25.324 6.07 33.802 2.37-2.78 10.085 7.759 45.881 2.337 58.21z" color="#000" stroke="#09af54" stroke-linecap="round" stroke-width="4.5" fill="none"/><path d="M50.514 99.883v-18.75m0-45.714V19.74M73.31 58.275a22.5 22.5 0 1 1-45 0 22.5 22.5 0 1 1 45 0z" color="#000" stroke="#09af54" stroke-width="4.5" fill="none"/><path d="M55.041 52.901c.036.027-4.248-7.468-4.204-7.468.045 0-4.248 7.49-4.212 7.464.036-.026-8.415 1.732-8.401 1.69s5.81 6.354 5.796 6.312c-.014-.042-.953 8.539-.989 8.513-.036-.027 7.84-3.562 7.795-3.562-.045 0 7.826 3.544 7.79 3.57-.036.027-.965-8.556-.979-8.513-.014.042 5.79-6.348 5.803-6.306.014.042-8.435-1.726-8.4-1.7z" stroke-linejoin="round" color="#000" stroke="#09af54" stroke-linecap="round" stroke-width="4.5" fill="none"/></svg>