<svg xmlns="http://www.w3.org/2000/svg" viewBox="0 0 109 119" height="119"><path d="M87.435 57.564l19.543-10.893S94.98 18.309 91.799 15.6c-2.067-1.76-13.578-7.649-19.096-8.76m-36.4-.046c-7.377 1.866-17.656 6.986-19.227 8.984-1.964 2.5-15.078 31.607-15.078 31.607L22.79 58.099" stroke-linejoin="round" stroke-opacity=".953" stroke="#08ae53" stroke-linecap="round" stroke-width="4" fill="none"/><path d="M92.614 18.457c-4.107 6.786-6.964 18.036-6.964 23.036v73.543S70.293 117 53.686 117s-30.357-1.964-30.357-1.964V40.957c0-5.536-3.393-14.643-7.143-22.857m88.924 23.571L86.007 52.028m-82.5-10.357l19.107 10.357" stroke-opacity=".953" stroke="#08ae53" stroke-width="4" fill="none"/><path d="M59.958 32.905a1.5 1.5 0 1 1-3 0 1.5 1.5 0 1 1 3 0z" fill-opacity=".953" color="#000" fill="#08ae53"/><path transform="matrix(.8865 0 0 1.09458 -467.922 59.58)" d="M589.3-28.122l-14.216-24.623h28.432z" stroke-linejoin="round" stroke-opacity=".953" color="#000" stroke="#08ae53" stroke-linecap="round" stroke-width="3.553" fill="none"/><path d="M54.492 41.523V27.76" stroke-linejoin="round" stroke-opacity=".953" stroke="#08ae53" stroke-linecap="round" stroke-width="3" fill="none"/><path d="M51.453 24.082l-11.518 3.125c-1.583-7.322-7.651-19.603 1.607-24.643M57.59 24.082l11.518 3.125c1.583-7.322 7.65-19.603-1.608-24.643" stroke-linejoin="round" stroke-opacity=".953" color="#000" stroke="#08ae53" stroke-linecap="round" stroke-width="3.5" fill="none"/></svg>