<svg xmlns="http://www.w3.org/2000/svg" viewBox="0 0 137 119" height="119"><path d="M47.746 93.843H88.96V2.599H11.83a8.586 8.586 0 0 0-8.594 8.594V85.25a8.586 8.586 0 0 0 8.594 8.593m76.956-23.057h-76.5M116.755 94a4.759 4.759 0 1 1-9.518 0 4.759 4.759 0 1 1 9.518 0z" color="#000" stroke="#09af54" stroke-linecap="round" stroke-width="5" fill="none"/><path d="M125.61 94.002a13.621 13.621 0 1 1-27.243 0 13.621 13.621 0 1 1 27.242 0z" color="#000" stroke="#09af54" stroke-linecap="round" stroke-width="4.999" fill="none"/><path d="M38.54 94a4.759 4.759 0 1 1-9.517 0 4.759 4.759 0 1 1 9.518 0z" color="#000" stroke="#09af54" stroke-linecap="round" stroke-width="5" fill="none"/><path d="M47.395 94.002a13.621 13.621 0 1 1-27.243 0 13.621 13.621 0 1 1 27.243 0z" color="#000" stroke="#09af54" stroke-linecap="round" stroke-width="4.999" fill="none"/><path d="M2.5 116.5h31.643m13.572 0h22.5m14.285 0h5m9.108 0H133m-2.79-45.536h3.036M111.82 51.5l4.643-7.857m-17.855 8.75h25.714" color="#000" stroke="#09af54" stroke-linecap="round" stroke-width="5" fill="none"/><path d="M97.893 15.786h16.964c5.179 0 8.036 3.571 8.571 8.393.536 4.821 2.322 28.75 2.322 28.75l8.75 9.464v31.071h-8.393" stroke-linejoin="round" color="#000" stroke="#09af54" stroke-linecap="round" stroke-width="5" fill="none"/></svg>