<svg id="SvgjsSvg1018" xmlns="http://www.w3.org/2000/svg" version="1.1" xmlns:xlink="http://www.w3.org/1999/xlink" xmlns:svgjs="http://svgjs.com/svgjs" width="13" height="14" viewBox="0 0 13 14"><title>Shape 6 copy</title><desc>Created with Avocode.</desc><defs id="SvgjsDefs1019"><clipPath id="SvgjsClipPath1023"><path id="SvgjsPath1022" d="M395 1256L395 1242L408 1242L408 1256ZM396 1245L396 1252.1C396 1253.1999999999998 396.895 1254.1 398 1254.1L405 1254.1C406.104 1254.1 407 1253.1999999999998 407 1252.1L407 1245C407 1243.89 406.104 1243 405 1243L398 1243C396.895 1243 396 1243.89 396 1245Z " fill="#ffffff"></path></clipPath></defs><path id="SvgjsPath1020" d="M398 1243L405 1243C406.104 1243 407 1243.89 407 1245L407 1252.1C407 1253.1999999999998 406.104 1254.1 405 1254.1L398 1254.1C396.895 1254.1 396 1253.1999999999998 396 1252.1L396 1245C396 1243.89 396.895 1243 398 1243Z " fill="#ffffff" fill-opacity="1" transform="matrix(1,0,0,1,-395,-1242)"></path><path id="SvgjsPath1021" d="M398 1243L405 1243C406.104 1243 407 1243.89 407 1245L407 1252.1C407 1253.1999999999998 406.104 1254.1 405 1254.1L398 1254.1C396.895 1254.1 396 1253.1999999999998 396 1252.1L396 1245C396 1243.89 396.895 1243 398 1243Z " fill-opacity="0" fill="#ffffff" stroke-dasharray="0" stroke-linejoin="round" stroke-linecap="round" stroke-opacity="1" stroke="#e3e5e6" stroke-miterlimit="50" stroke-width="2" clip-path="url(&quot;#SvgjsClipPath1023&quot;)" transform="matrix(1,0,0,1,-395,-1242)"></path></svg>