<svg id="SvgjsSvg1024" xmlns="http://www.w3.org/2000/svg" version="1.1" xmlns:xlink="http://www.w3.org/1999/xlink" xmlns:svgjs="http://svgjs.com/svgjs" width="13" height="14" viewBox="0 0 13 14"><title>Shape 6</title><desc>Created with Avocode.</desc><defs id="SvgjsDefs1025"><clipPath id="SvgjsClipPath1029"><path id="SvgjsPath1028" d="M395 1223L395 1209L408 1209L408 1223ZM396 1212L396 1219.1C396 1220.1999999999998 396.895 1221.1 398 1221.1L405 1221.1C406.104 1221.1 407 1220.1999999999998 407 1219.1L407 1212C407 1210.89 406.104 1210 405 1210L398 1210C396.895 1210 396 1210.89 396 1212Z " fill="#ffffff"></path></clipPath></defs><path id="SvgjsPath1026" d="M398 1210L405 1210C406.104 1210 407 1210.89 407 1212L407 1219.1C407 1220.1999999999998 406.104 1221.1 405 1221.1L398 1221.1C396.895 1221.1 396 1220.1999999999998 396 1219.1L396 1212C396 1210.89 396.895 1210 398 1210Z " fill="#ffffff" fill-opacity="1" transform="matrix(1,0,0,1,-395,-1209)"></path><path id="SvgjsPath1027" d="M398 1210L405 1210C406.104 1210 407 1210.89 407 1212L407 1219.1C407 1220.1999999999998 406.104 1221.1 405 1221.1L398 1221.1C396.895 1221.1 396 1220.1999999999998 396 1219.1L396 1212C396 1210.89 396.895 1210 398 1210Z " fill-opacity="0" fill="#ffffff" stroke-dasharray="0" stroke-linejoin="round" stroke-linecap="round" stroke-opacity="1" stroke="#e3e5e6" stroke-miterlimit="50" stroke-width="2" clip-path="url(&quot;#SvgjsClipPath1029&quot;)" transform="matrix(1,0,0,1,-395,-1209)"></path><path id="SvgjsPath1030" d="M395.992 1215.71L397.711 1213.99L400.88081 1217.16276L405.84 1212.21L407.25399999999996 1213.6200000000001L401.08599999999996 1219.7900000000002L400.79781999999994 1219.50059L400.28899999999993 1220.01Z " fill="#ed1c24" fill-opacity="1" transform="matrix(1,0,0,1,-395,-1209)"></path></svg>