<svg id="SvgjsSvg1000" xmlns="http://www.w3.org/2000/svg" version="1.1" xmlns:xlink="http://www.w3.org/1999/xlink" xmlns:svgjs="http://svgjs.com/svgjs" width="18" viewBox="-2 -2 20 20"><title>Эллипс 1 копия</title><desc>Created with Avocode.</desc><defs id="SvgjsDefs1001"><clipPath id="SvgjsClipPath1010"><path id="SvgjsPath1009" d="M401.5 1013C405.09 1013 408 1015.91 408 1019.5C408 1023.09 405.09 1026 401.5 1026C397.91 1026 395 1023.09 395 1019.5C395 1015.91 397.91 1013 401.5 1013Z " fill="#ffffff"></path></clipPath></defs><path id="SvgjsPath1007" d="M401.5 1013C405.09 1013 408 1015.91 408 1019.5C408 1023.09 405.09 1026 401.5 1026C397.91 1026 395 1023.09 395 1019.5C395 1015.91 397.91 1013 401.5 1013Z " fill="#ffffff" fill-opacity="1" transform="matrix(1,0,0,1,-395,-1013)"></path><path id="SvgjsPath1008" d="M401.5 1013C405.09 1013 408 1015.91 408 1019.5C408 1023.09 405.09 1026 401.5 1026C397.91 1026 395 1023.09 395 1019.5C395 1015.91 397.91 1013 401.5 1013Z " fill-opacity="0" fill="#ffffff" stroke-dasharray="0" stroke-linejoin="miter" stroke-linecap="butt" stroke-opacity="1" stroke="#e3e5e6" stroke-miterlimit="50" stroke-width="2" clip-path="url(&quot;#SvgjsClipPath1010&quot;)" transform="matrix(1,0,0,1,-395,-1013)"></path></svg>
