<svg id="SvgjsSvg1011" xmlns="http://www.w3.org/2000/svg" version="1.1" xmlns:xlink="http://www.w3.org/1999/xlink" xmlns:svgjs="http://svgjs.com/svgjs" width="18"  viewBox="-2 -2 20 20"><title>Эллипс 1</title><desc>Created with Avocode.</desc><defs id="SvgjsDefs1012"><clipPath id="SvgjsClipPath1016"><path id="SvgjsPath1015" d="M401.5 979.999C405.09 979.999 408 982.91 408 986.499C408 990.089 405.09 993 401.5 993C397.91 993 395 990.089 395 986.499C395 982.91 397.91 979.999 401.5 979.999Z " fill="#ffffff"></path></clipPath></defs><path id="SvgjsPath1013" d="M401.5 979.999C405.09 979.999 408 982.91 408 986.499C408 990.089 405.09 993 401.5 993C397.91 993 395 990.089 395 986.499C395 982.91 397.91 979.999 401.5 979.999Z " fill="#ffffff" fill-opacity="1" transform="matrix(1,0,0,1,-395,-979)"></path><path id="SvgjsPath1014" d="M401.5 979.999C405.09 979.999 408 982.91 408 986.499C408 990.089 405.09 993 401.5 993C397.91 993 395 990.089 395 986.499C395 982.91 397.91 979.999 401.5 979.999Z " fill-opacity="0" fill="#ffffff" stroke-dasharray="0" stroke-linejoin="miter" stroke-linecap="butt" stroke-opacity="1" stroke="#e3e5e6" stroke-miterlimit="50" stroke-width="2" clip-path="url(&quot;#SvgjsClipPath1016&quot;)" transform="matrix(1,0,0,1,-395,-979)"></path><path id="SvgjsPath1017" d="M401.5 983.999C402.881 983.999 404 985.118 404 986.499C404 987.88 402.881 989 401.5 989C400.119 989 399 987.88 399 986.499C399 985.118 400.119 983.999 401.5 983.999Z " fill="#ed1c24" fill-opacity="1" transform="matrix(1,0,0,1,-395,-979)"></path></svg>
