<svg id="SvgjsSvg1000" xmlns="http://www.w3.org/2000/svg" version="1.1" xmlns:xlink="http://www.w3.org/1999/xlink" xmlns:svgjs="http://svgjs.com/svgjs" preserveAspectRatio="none" viewBox="0 0 185 40"><title>Rounded Rectangle 23</title><desc>Created with Avocode.</desc><defs id="SvgjsDefs1001"><clipPath id="SvgjsClipPath1010"><path id="SvgjsPath1009" d="M680 835L859 835C860.657 835 862 836.343 862 838L862 865C862 866.657 860.657 868 859 868L775.5 868L770 873L764.25 868L680 868C678.343 868 677 866.657 677 865L677 838C677 836.343 678.343 835 680 835Z " fill="#ffffff"></path></clipPath></defs><path id="SvgjsPath1007" d="M680 835L859 835C860.657 835 862 836.343 862 838L862 865C862 866.657 860.657 868 859 868L775.5 868L770 873L764.25 868L680 868C678.343 868 677 866.657 677 865L677 838C677 836.343 678.343 835 680 835Z " fill="#ffffff" fill-opacity="1" transform="matrix(1,0,0,1,-677,-835)"></path><path id="SvgjsPath1008" d="M680 835L859 835C860.657 835 862 836.343 862 838L862 865C862 866.657 860.657 868 859 868L775.5 868L770 873L764.25 868L680 868C678.343 868 677 866.657 677 865L677 838C677 836.343 678.343 835 680 835Z " fill-opacity="0" fill="#ffffff" stroke-dasharray="0" stroke-linejoin="round" stroke-linecap="round" stroke-opacity="1" stroke="#000000" stroke-miterlimit="50" stroke-width="2" clip-path="url(&quot;#SvgjsClipPath1010&quot;)" transform="matrix(1,0,0,1,-677,-835)"></path></svg>
