<svg id="SvgjsSvg1011" xmlns="http://www.w3.org/2000/svg" version="1.1" xmlns:xlink="http://www.w3.org/1999/xlink" xmlns:svgjs="http://svgjs.com/svgjs" preserveAspectRatio="none" viewBox="0 0 270 124"><title>Rounded Rectangle 24</title><desc>Created with Avocode.</desc><defs id="SvgjsDefs1012"><clipPath id="SvgjsClipPath1018"><path id="SvgjsPath1017" d="M691 913L931 913C939.284 913 946 919.715 946 928L946 1022C946 1030.28 939.284 1037 931 1037L691 1037C682.716 1037 676 1030.28 676 1022L676 928C676 919.715 682.716 913 691 913Z " fill="#ffffff"></path></clipPath></defs><path id="SvgjsPath1013" d="M691 913L931 913C939.284 913 946 919.715 946 928L946 1022C946 1030.28 939.284 1037 931 1037L691 1037C682.716 1037 676 1030.28 676 1022L676 928C676 919.715 682.716 913 691 913Z " fill="#000000" fill-opacity="1" transform="matrix(1,0,0,1,-676,-913)"></path><path id="SvgjsPath1014" d="M691 913L931 913C939.284 913 946 919.715 946 928L946 1022C946 1030.28 939.284 1037 931 1037L691 1037C682.716 1037 676 1030.28 676 1022L676 928C676 919.715 682.716 913 691 913Z " fill="#000000" fill-opacity="1" transform="matrix(1,0,0,1,-676,-913)"></path><path id="SvgjsPath1015" d="M691 913L931 913C939.284 913 946 919.715 946 928L946 1022C946 1030.28 939.284 1037 931 1037L691 1037C682.716 1037 676 1030.28 676 1022L676 928C676 919.715 682.716 913 691 913Z " fill="#ffffff" fill-opacity="1" transform="matrix(1,0,0,1,-676,-913)"></path><path id="SvgjsPath1016" d="M691 913L931 913C939.284 913 946 919.715 946 928L946 1022C946 1030.28 939.284 1037 931 1037L691 1037C682.716 1037 676 1030.28 676 1022L676 928C676 919.715 682.716 913 691 913Z " fill-opacity="0" fill="#ffffff" stroke-dasharray="0" stroke-linejoin="round" stroke-linecap="round" stroke-opacity="1" stroke="#ed1c24" stroke-miterlimit="50" stroke-width="6" clip-path="url(&quot;#SvgjsClipPath1018&quot;)" transform="matrix(1,0,0,1,-676,-913)"></path></svg>
