<svg xmlns="http://www.w3.org/2000/svg" width="16" height="16" viewBox="0 0 16 16"><title>Прямоугольник 8 копия 5</title><defs><clipPath id="a"><path d="M1302 481v-16h16v16z" fill="#fff"/></clipPath></defs><path d="M1302 481v-16h16v16z" fill-opacity="0" fill="#fff" stroke-dasharray="0" stroke="#d1d1d1" stroke-miterlimit="50" stroke-width="4" clip-path="url(&amp;quot;#a&amp;quot;)" transform="translate(-1302 -465)"/><path fill="#7c7c7c" d="M12.134 3.95a.673.673 0 0 0-.517.235L6.625 9.696 4.387 7.222a.673.673 0 0 0-.517-.235.673.673 0 0 0-.518.235l-1.034 1.14a.819.819 0 0 0-.213.57c0 .225.07.415.213.571l2.754 3.037 1.035 1.14a.673.673 0 0 0 .518.236.673.673 0 0 0 .517-.235l1.035-1.141 5.51-6.073a.819.819 0 0 0 .213-.57.819.819 0 0 0-.213-.571l-1.035-1.141a.673.673 0 0 0-.518-.235z"/></svg>