<svg xmlns="http://www.w3.org/2000/svg" width="35" height="37" viewBox="0 0 35 37"><title>pin copy 7</title><defs><linearGradient id="a" gradientUnits="userSpaceOnUse" x1="253" y1="247.429" x2="255" y2="247.429"><stop stop-color="#ebebeb" offset="0"/><stop stop-color="#a5a5a5" offset="1"/></linearGradient><clipPath id="b"><path d="M252 266v-37h4v37zm1-35v33c0 .552.448.857 1 .857s1-.305 1-.857v-33a1 1 0 0 0-2 0z" fill="#fff"/></clipPath><linearGradient gradientTransform="translate(-252.173 -229.046)" id="c" gradientUnits="userSpaceOnUse" x1="269.3" y1="251.37" x2="269.3" y2="230.71"><stop stop-color="#9356b9" offset="0"/><stop stop-color="#ba59ec" offset="1"/></linearGradient><mask id="d"><path d="M252.09 251.37c2.121-.572 31.411-8.816 33.204-9.33 1.608-.461 1.635-1.56 0-2.021-2.49-.701-31.67-8.903-33.13-9.309z" fill="#fff"/></mask><filter id="e" width="2" height="2" x="-.5" y="-.5"><feGaussianBlur stdDeviation="1.5" result="SvgjsFeGaussianBlur1274Out" in="SourceGraphic"/></filter><clipPath id="f"><path d="M252.09 251.37c2.121-.572 31.411-8.816 33.204-9.33 1.608-.461 1.635-1.56 0-2.021-2.49-.701-31.67-8.903-33.13-9.309z" fill="#fff"/></clipPath></defs><path d="M2 1a1 1 0 0 1 1 1v33c0 .552-.448.857-1 .857S1 35.552 1 35V2a1 1 0 0 1 1-1z" fill="#b7b7b7"/><path d="M2 1a1 1 0 0 1 1 1v33c0 .552-.448.857-1 .857S1 35.552 1 35V2a1 1 0 0 1 1-1z" fill="#b7b7b7"/><path d="M254 230a1 1 0 0 1 1 1v33c0 .552-.448.857-1 .857s-1-.305-1-.857v-33a1 1 0 0 1 1-1z" fill="url(#a)" transform="translate(-252 -229)"/><path d="M254 230a1 1 0 0 1 1 1v33c0 .552-.448.857-1 .857s-1-.305-1-.857v-33a1 1 0 0 1 1-1z" fill-opacity="0" fill="#fff" stroke-dasharray="0" stroke-linejoin="round" stroke-linecap="round" stroke="#9e9e9e" stroke-miterlimit="50" stroke-width="2" clip-path="url(&amp;quot;#b&amp;quot;)" transform="translate(-252 -229)"/><path d="M-.083 22.324c2.121-.572 31.411-8.816 33.204-9.33 1.608-.46 1.635-1.56 0-2.02-2.49-.702-31.67-8.904-33.13-9.31z" fill="#404040"/><path d="M-.083 22.324c2.121-.572 31.411-8.816 33.204-9.33 1.608-.46 1.635-1.56 0-2.02-2.49-.702-31.67-8.904-33.13-9.31z" fill="#404040"/><path d="M-.083 22.324c2.121-.572 31.411-8.816 33.204-9.33 1.608-.46 1.635-1.56 0-2.02-2.49-.702-31.67-8.904-33.13-9.31z" fill="#404040"/><path d="M-.083 22.324c2.121-.572 31.411-8.816 33.204-9.33 1.608-.46 1.635-1.56 0-2.02-2.49-.702-31.67-8.904-33.13-9.31z" fill="url(#c)"/><path d="M249 255v-28h41v28zm3.09-3.63c2.121-.572 31.411-8.816 33.204-9.33 1.608-.461 1.635-1.56 0-2.021-2.49-.701-31.67-8.903-33.13-9.309z" mask="url(#d)" transform="translate(-252.173 -229.046)" fill="#fff" fill-opacity=".7" stroke="#fff" stroke-width="0" stroke-opacity=".7" filter="url(#e)"/><path d="M249 255v-28h41v28zm3.09-3.63c2.121-.572 31.411-8.816 33.204-9.33 1.608-.461 1.635-1.56 0-2.021-2.49-.701-31.67-8.903-33.13-9.309z" mask="url(#d)" transform="translate(-252.173 -229.046)" fill="#fff" fill-opacity=".7" stroke="#fff" stroke-width="0" stroke-opacity=".7" filter="url(#e)"/><path d="M252.09 251.37c2.121-.572 31.411-8.816 33.204-9.33 1.608-.461 1.635-1.56 0-2.021-2.49-.701-31.67-8.903-33.13-9.309z" stroke-miterlimit="50" clip-path="url(#f)" transform="translate(-252.142 -229.046)" fill="#fff" fill-opacity="0" stroke="#7d4697" stroke-width="2" stroke-linecap="round" stroke-linejoin="round"/></svg>