<svg id="Слой_1" xmlns="http://www.w3.org/2000/svg" xmlns:xlink="http://www.w3.org/1999/xlink" viewBox="220 350 159.3 041.9" width="165"><style>.st0,.st1{fill:#fff}.st1{stroke:#cecece;stroke-width:.25;stroke-miterlimit:10}.st2{font-family:&amp;apos;DINPro-Bold&amp;apos;}.st3{font-size:22px}</style><image width="54" height="53" xlink:href="D824A82.png" transform="translate(212.496 344.386)" overflow="visible" opacity=".4"/><path class="st0" d="M241.6 353.6l-13 13 4.6 4.6 2.3-2.2c.4-3.2 2.6-5.3 5.7-5.7l7.1-7.2c-2-1.2-4.2-2.1-6.7-2.5zm8.4 3.9l-6 6c3.1.7 5 3.2 5 6.8 0 1.3-.8 3.2-1.7 5l5.4 5.4c2.1-2.9 3.4-6.4 3.4-10.2 0-5.2-2.3-9.9-6.1-13z"/><path class="st0" d="M242.2 365.5c-3 0-4.7 1.8-4.7 4.9 0 1.3 1.6 4.9 4.7 9.1 2.8-3.9 4.7-7.6 4.7-9.1 0-3.2-1.7-4.9-4.7-4.9zm-.2 7.1c-1.2 0-2.2-1-2.2-2.2 0-1.2 1-2.2 2.2-2.2 1.2 0 2.2 1 2.2 2.2.1 1.2-.9 2.2-2.2 2.2z"/><path class="st0" d="M246.2 377.3c-1.4 2.3-2.9 4.2-3.2 4.6l-.8 1.1-.8-1.1c-.5-.7-4.7-6.2-5.7-10l-9.8 9.7c3.1 3.7 7.9 6.1 13.1 6.1 4.9 0 9.3-2 12.4-5.3l-5.2-5.1zm-23.1-13.1c-.8 2-1.2 4.1-1.2 6.4 0 3.4 1 6.6 2.7 9.3l7.1-7.1-8.6-8.6zm1-2.1l3 3 11.7-11.7c-6.3.1-11.8 3.6-14.7 8.7z"/><image width="123" height="44" xlink:href="D824A86.png" transform="translate(261.496 349.386)" overflow="visible" opacity=".4"/><text transform="translate(271 377.723)" class="st1 st2 st3">MAXREST</text></svg>