<svg xmlns="http://www.w3.org/2000/svg" width="32" height="42" viewBox="-1 -1 34 42"><title>marker copy</title><defs><filter id="a" width="200%" height="200%" x="-50%" y="-50%"><feMorphology operator="dilate" result="SvgjsFeMorphology1106Out" in="SourceGraphic"/><feOffset dy="1" result="SvgjsFeOffset1107Out" in="SvgjsFeMorphology1106Out"/><feGaussianBlur result="SvgjsFeGaussianBlur1108Out" in="SvgjsFeOffset1107Out"/><feComposite in="SvgjsFeGaussianBlur1108Out" in2="SourceAlpha" operator="out" result="SvgjsFeComposite1109Out"/></filter><linearGradient id="b" gradientUnits="userSpaceOnUse" x1="266" y1="161.011" x2="266" y2="121.006"><stop stop-color="#5e97ac" offset="0"/><stop stop-color="#6db6e0" offset="1"/></linearGradient><clipPath id="c"><path d="M250 136.867c0-8.761 7.163-15.861 16-15.861 8.836 0 16 7.1 16 15.861 0 8.759-16 24.144-16 24.144s-16-15.385-16-24.144zm5.733-.799c0 5.621 4.597 10.178 10.267 10.178 5.67 0 10.267-4.557 10.267-10.178S271.67 125.89 266 125.89c-5.67 0-10.267 4.557-10.267 10.178z" fill="#fff"/></clipPath><mask id="d"><path d="M265.733 123.776c6.701 0 12.134 5.385 12.134 12.028 0 6.643-5.433 12.028-12.134 12.028-6.701 0-12.133-5.385-12.133-12.028 0-6.643 5.432-12.028 12.133-12.028z" fill="#fff"/></mask><filter id="e" width="2" height="2" x="-.5" y="-.5"><feGaussianBlur stdDeviation="2" result="SvgjsFeGaussianBlur1100Out" in="SourceGraphic"/></filter><filter id="f" width="2" height="2" x="-.5" y="-.5"><feMorphology operator="dilate" result="SvgjsFeMorphology1087Out" in="SourceGraphic"/><feOffset dy="1" result="SvgjsFeOffset1088Out" in="SvgjsFeMorphology1087Out"/><feGaussianBlur stdDeviation="1" result="SvgjsFeGaussianBlur1089Out" in="SvgjsFeOffset1088Out"/><feComposite in="SvgjsFeGaussianBlur1089Out" in2="SourceAlpha" operator="out" result="SvgjsFeComposite1090Out"/></filter></defs><path d="M250 136.867c0-8.761 7.163-15.861 16-15.861 8.836 0 16 7.1 16 15.861 0 8.759-16 24.144-16 24.144s-16-15.385-16-24.144zm5.733-.799c0 5.621 4.597 10.178 10.267 10.178 5.67 0 10.267-4.557 10.267-10.178S271.67 125.89 266 125.89c-5.67 0-10.267 4.557-10.267 10.178z" fill-opacity=".2" filter="url(#a)" transform="translate(-250 -121)"/><path d="M0 15.867C0 7.106 7.163.006 16 .006c8.836 0 16 7.1 16 15.861 0 8.759-16 24.144-16 24.144S0 24.626 0 15.867zm5.733-.799c0 5.621 4.597 10.178 10.267 10.178 5.67 0 10.267-4.557 10.267-10.178S21.67 4.89 16 4.89c-5.67 0-10.267 4.557-10.267 10.178z" fill="#ececec" fill-opacity="0"/><path d="M0 15.867C0 7.106 7.163.006 16 .006c8.836 0 16 7.1 16 15.861 0 8.759-16 24.144-16 24.144S0 24.626 0 15.867zm5.733-.799c0 5.621 4.597 10.178 10.267 10.178 5.67 0 10.267-4.557 10.267-10.178S21.67 4.89 16 4.89c-5.67 0-10.267 4.557-10.267 10.178z" fill="#ececec" fill-opacity="0"/><path d="M0 15.867C0 7.106 7.163.006 16 .006c8.836 0 16 7.1 16 15.861 0 8.759-16 24.144-16 24.144S0 24.626 0 15.867zm5.733-.799c0 5.621 4.597 10.178 10.267 10.178 5.67 0 10.267-4.557 10.267-10.178S21.67 4.89 16 4.89c-5.67 0-10.267 4.557-10.267 10.178z" fill="#ececec" fill-opacity="0"/><path d="M0 15.867C0 7.106 7.163.006 16 .006c8.836 0 16 7.1 16 15.861 0 8.759-16 24.144-16 24.144S0 24.626 0 15.867zm5.733-.799c0 5.621 4.597 10.178 10.267 10.178 5.67 0 10.267-4.557 10.267-10.178S21.67 4.89 16 4.89c-5.67 0-10.267 4.557-10.267 10.178z" fill="#ececec" fill-opacity="0"/><path d="M250 136.867c0-8.761 7.163-15.861 16-15.861 8.836 0 16 7.1 16 15.861 0 8.759-16 24.144-16 24.144s-16-15.385-16-24.144zm5.733-.799c0 5.621 4.597 10.178 10.267 10.178 5.67 0 10.267-4.557 10.267-10.178S271.67 125.89 266 125.89c-5.67 0-10.267 4.557-10.267 10.178z" fill="url(#b)" transform="translate(-250 -121)"/><path d="M250 136.867c0-8.761 7.163-15.861 16-15.861 8.836 0 16 7.1 16 15.861 0 8.759-16 24.144-16 24.144s-16-15.385-16-24.144zm5.733-.799c0 5.621 4.597 10.178 10.267 10.178 5.67 0 10.267-4.557 10.267-10.178S271.67 125.89 266 125.89c-5.67 0-10.267 4.557-10.267 10.178z" fill-opacity="0" fill="#fff" stroke-dasharray="0" stroke-linejoin="round" stroke-linecap="round" stroke="#357b88" stroke-miterlimit="50" stroke-width="2" clip-path="url(&amp;quot;#c&amp;quot;)" transform="translate(-250 -121)"/><path d="M16.153 4.498c6.168.06 11.117 4.773 11.055 10.528-.063 5.755-5.114 10.372-11.281 10.313-6.168-.06-11.116-4.774-11.054-10.529.063-5.755 5.113-10.372 11.28-10.312z" fill="#367b86"/><path d="M249 155v-39h33v39zm4.6-16.196c0 6.643 5.432 12.028 12.133 12.028 6.701 0 12.134-5.385 12.134-12.028 0-6.643-5.433-12.028-12.134-12.028-6.701 0-12.133 5.385-12.133 12.028z" mask="url(#d)" transform="matrix(.86411 0 0 .8686 -213.56 -103.636)" fill="#5d7a3e" fill-opacity=".2" stroke="#5d7a3e" stroke-width="0" stroke-opacity=".2" filter="url(#e)"/><path d="M16.045 8.187l1.944 3.495 3.955.753-2.753 2.914.5 3.961-3.646-1.695-3.646 1.695.5-3.96-2.753-2.915 3.954-.753 1.945-3.495" fill="#536f37" fill-opacity=".45" filter="url(#f)"/><path d="M16.045 8.187l1.944 3.495 3.955.753-2.753 2.914.5 3.961-3.646-1.695-3.646 1.695.5-3.96-2.753-2.915 3.954-.753 1.945-3.495" fill="#fff"/><path d="M16.045 8.187l1.944 3.495 3.955.753-2.753 2.914.5 3.961-3.646-1.695-3.646 1.695.5-3.96-2.753-2.915 3.954-.753 1.945-3.495" fill="#fff"/><path d="M16.045 8.187l1.944 3.495 3.955.753-2.753 2.914.5 3.961-3.646-1.695-3.646 1.695.5-3.96-2.753-2.915 3.954-.753 1.945-3.495" stroke-miterlimit="50" fill="#fff" fill-opacity="0" stroke="#dedede" stroke-linecap="round" stroke-linejoin="round"/></svg>