<?xml version="1.0" encoding="utf-8"?>
<!-- Generator: Adobe Illustrator 20.1.0, SVG Export Plug-In . SVG Version: 6.00 Build 0)  -->
<svg version="1.1" id="Layer_1" xmlns="http://www.w3.org/2000/svg" xmlns:xlink="http://www.w3.org/1999/xlink" x="0px" y="0px"
	 viewBox="240 100 115.3 139.5" style="enable-background:new 0 0 595.3 419.5;" xml:space="preserve">
<style type="text/css">
	.st0{fill-rule:evenodd;clip-rule:evenodd;fill:#DF8844;}
</style>
<path class="st0" d="M336,197.5c-1-4.5-3.1-8-6-10.5c-1-1.1-2.2-1.8-3.6-2.6c-0.7-0.4-1.2-0.7-2.1-1c-1.5-0.6-3.5-1.3-6-1
	c1.2-0.6,3.1-0.7,5-0.6c1.6,0.2,2.9,0.6,4.3,1c1.1,0.6,2.3,1.2,3.4,1.9c2.8-8.2,1.7-19.5-1.4-26.7c-3-7.6-7.3-13.9-12.9-18.8
	c-5.5-5.1-12.2-9-21-10.8c-4.3-0.9-9.8-0.8-13.8,0.1c-4.2,1.1-7.6,2.9-10.7,5.1c-2.8,2.5-5.5,5.1-7.4,8.5c-0.7,0.7-1,1.7-1.5,2.5
	c-0.4,1-0.8,1.9-1.3,2.8c-0.6,2-1.4,3.9-1.8,6.1c-1,4.1-1.2,9.8-0.5,14.2c0.5,4.8,1.9,8.6,3.4,12.4c0.9,1.8,1.7,3.6,2.8,5.3
	c1,1.7,2.2,3.1,3.3,4.6c2.5,2.7,5.2,5.3,8.4,7.4c6.4,4.2,13.8,7.4,23.8,7.9c0.2-0.4-0.3-1.2-0.4-1.8c-0.2-0.6-0.2-1.3-0.4-1.9
	c-0.1-1.4-0.2-2.9,0-4.3c0.4,0.1,0.4,0.6,0.6,0.9c0.2,0.2,0.3,0.6,0.6,0.8c0.3,0.7,0.8,1.1,1.1,1.8c0.9,1,1.7,2.2,2.9,2.9
	c1,1,2.2,1.6,3.4,2.4c1.2,0.6,2.3,1.5,3.8,1.9c2.5,1.3,5.8,1.8,9.2,2.3c3.4,0.5,6.6,1,9.7,1.8c2.8,1,5.7,1.9,8,3.4
	c1.2,0.7,2.4,1.4,3.5,2.3c0.5,0.4,1.2,0.7,1.6,1.3c0.7,0.3,1,0.9,1.6,1.1c1.9,1.9,3.9,3.7,5.5,5.9c0.7,1.2,1.6,2.2,2.1,3.6
	c0.5,0.5,0.6,1.3,1,1.9c0,0.7,0.7,1.6,0.1,2.1c-0.9,0.1-0.7-0.8-1.1-1.3c-0.3-0.5-0.7-0.9-0.9-1.5c-1.5-1.5-2.8-3.2-4.4-4.6
	c-1.6-1.4-3.2-2.8-5-3.9c-3.5-2.5-7.6-4.4-12.3-5.6c-4.7-1.3-9.9-1.9-15.9-1.5c-2.7,0.3-5.2,0.8-7.4,1.6c-2.4,0.6-5,0.9-7.7,1.3
	c-10.3,0.6-21.7-1.8-29.4-5.5c-4.1-1.9-7.8-4.1-11-6.9c-1.7-1.3-3.2-2.9-4.6-4.4c-1.3-1.6-2.8-3.2-3.8-5.1c-1.3-1.7-2.1-3.9-3.3-5.8
	c-0.7-2.2-1.8-4.2-2.3-6.6c-0.8-2.2-1.2-4.8-1.5-7.5c0-0.8-0.4-2.2-0.4-3.4c0-0.1,0.1-0.2,0.1-0.4c-0.1-1.1-0.3-2.7,0-3.6
	c-0.1-2.5,0.4-5.5,0.9-7.9c0.4-2.5,1.1-4.8,1.9-7c0.7-2.3,1.7-4.3,2.6-6.4c0.6-0.9,1.1-1.9,1.6-2.9c0.5-1,1.2-1.7,1.6-2.8
	c0.5-0.3,0.6-0.9,1-1.3c0.2-0.6,0.7-0.8,0.9-1.4c0.4-0.3,0.7-0.8,1-1.3c0.4-0.4,0.8-0.7,1-1.3c1.5-1.5,2.8-3.1,4.4-4.5
	c1.6-1.5,3.3-2.7,4.9-4.1c1-0.5,1.8-1.3,2.8-1.8c0.8-0.7,1.9-1.1,2.6-1.8c2.1-0.9,3.9-2.1,6.1-2.9c2-1,4.3-1.6,6.5-2.4
	c4.8-1.2,9.7-2.1,15.7-1.9c0.2,0,0.3-0.2,0.4,0c11.4,0.3,19.7,3.8,26.7,8.4c7,4.7,12.4,10.9,16.3,18.7c3.8,7.7,5.9,18.2,4.1,29.2
	c-0.9,5-2.4,9.4-4.1,13.4c-1,1.9-1.9,3.9-3.1,5.6c-0.5,0.9-1.1,1.8-1.8,2.6c-0.2,0.5-0.5,0.9-0.9,1.3c-0.1,0.2-0.3,0.4-0.5,0.6
	c-0.1,0.1-0.1,0.2-0.3,0.3C336.1,197.6,336,197.7,336,197.5z"/>
<path class="st0" d="M332.9,200.8c-1.5-0.6-1.7-2.4-2.4-3.8c-0.1-0.5-0.2-1.3,0-1.8c0.1,0,0.1-0.1,0.3-0.1c0.4-0.2,0.7,0.1,1.3,0.3
	c0.7,0.8,1.2,1.9,1.5,3.1C333.6,199.5,333.7,200.6,332.9,200.8z"/>
<path class="st0" d="M321.9,198.7c0-0.1,0.1-0.1,0.1,0c2.2,0.3,3.2,1.8,3.4,4.1c-0.2,1.3-0.9,2.1-2.1,2.4c-3,0.1-4.7-2.7-3.6-5.5
	C320.2,199.2,320.7,198.5,321.9,198.7z"/>
</svg>
