<?xml version="1.0" encoding="utf-8"?>
<!-- Generator: Adobe Illustrator 20.1.0, SVG Export Plug-In . SVG Version: 6.00 Build 0)  -->
<svg version="1.1" id="Слой_1" xmlns="http://www.w3.org/2000/svg" xmlns:xlink="http://www.w3.org/1999/xlink" x="0px" y="0px"
	 viewBox="70 70 60 60" style="enable-background:new 0 0 200 200;" xml:space="preserve">
<style type="text/css">
	.st0{fill:#FFFFFF;}
	.st1{fill-rule:evenodd;clip-rule:evenodd;fill:#0761AF;}
</style>
<rect class="st0" width="200" height="200"/>
<g>
	<path class="st1" d="M99.9,74.1c4.1,0,7.9,0.9,11.3,2.6c0.5,0.3,1.1,0.5,1.6,0.8l-2.4,2.1l-3.6-3.7l-6,5.4l-3.6-3.9L86,87.7
		l7.2,7.9l-2.8,2.5l7.1,8l-2.8,2.5l10.1,11.3l6-5.5l5.2,5.9c-1,0.8-2.2,1.6-3.4,2.3c-3.8,2.1-8.1,3.4-12.7,3.4
		c-14.2,0-25.9-11.6-25.9-25.9S85.7,74.1,99.9,74.1L99.9,74.1z"/>
	<polygon class="st1" points="95.2,98.4 101.3,92.8 106.9,99 100.7,104.5 95.2,98.4 	"/>
	<polygon class="st1" points="99.6,109 105.7,103.5 111.2,109.6 105.1,115.1 99.6,109 	"/>
	<polygon class="st1" points="90.8,87.9 96.9,82.3 102.5,88.5 96.3,94 90.8,87.9 	"/>
	<polygon class="st1" points="102.1,84.9 106.7,80.7 110.8,85.3 106.2,89.5 102.1,84.9 	"/>
	<polygon class="st1" points="110.3,103.9 114.9,99.8 119,104.4 114.4,108.5 110.3,103.9 	"/>
	<polygon class="st1" points="114.3,113.2 118.9,109.1 123.1,113.7 118.5,117.8 114.3,113.2 	"/>
	<polygon class="st1" points="116.2,91.9 119.3,89.1 122,92.2 118.9,94.9 116.2,91.9 	"/>
	<polygon class="st1" points="112.3,82.7 115.3,80 118.1,83 115,85.8 112.3,82.7 	"/>
	<polygon class="st1" points="120.1,101 123.2,98.2 125.9,101.3 122.9,104.1 120.1,101 	"/>
	<polygon class="st1" points="106.3,94.2 110.9,90 115.1,94.6 110.5,98.8 106.3,94.2 	"/>
</g>
</svg>
