<svg xmlns="http://www.w3.org/2000/svg" viewBox="0 0 33.87 33.87" width="35"><defs><style>.cls-1{fill:#fff;}</style></defs><title>arrow_in_circle</title><g id="Layer_2" data-name="Layer 2"><g id="icons"><path class="cls-1" d="M16.93,0A16.93,16.93,0,1,0,33.87,16.93,16.93,16.93,0,0,0,16.93,0Zm0,32.37A15.43,15.43,0,1,1,32.37,16.93,15.45,15.45,0,0,1,16.93,32.37Z"/><path class="cls-1" d="M12.84,7.37a.84.84,0,0,0-.6,1.44l8.41,8.41-8.41,8.41a.84.84,0,0,0,1.19,1.19l9-9,0,0a.87.87,0,0,0,0-1.21l0,0-9-9a.84.84,0,0,0-.6-.25Z"/></g></g></svg>
