<svg xmlns="http://www.w3.org/2000/svg" viewBox="0 0 34.09 32.29"><defs><style>.cls-1{fill:#fff;}</style></defs><title>arrow_in_cloud</title><g id="Layer_2" data-name="Layer 2"><g id="icons"><path class="cls-1" d="M10.1,19.59h5.14c0,5.62-1.28,8.83-5.57,12.71,0,0,11.45-2.37,11.37-12.71h4.56l-7.67-8.51Z"/><path class="cls-1" d="M27.16,10.3c0-.06,0-.12,0-.18a10.12,10.12,0,1,0-20.24,0c0,.06,0,.12,0,.18a8.06,8.06,0,0,0,1.14,16v-1.5a6.56,6.56,0,0,1-.31-13.11l.78,0-.07-.78c0-.26,0-.52,0-.79a8.62,8.62,0,1,1,17.24,0c0,.27,0,.53,0,.79l-.07.78.78,0A6.56,6.56,0,0,1,26,24.84v1.5a8.06,8.06,0,0,0,1.14-16Z"/></g></g></svg>