<svg xmlns="http://www.w3.org/2000/svg" viewBox="0 0 30.57 26.49"><defs><style>.cls-1{fill:#fff;}</style></defs><title>browser</title><g id="Layer_2" data-name="Layer 2"><g id="icons"><circle class="cls-1" cx="5.1" cy="4.7" r="0.85"/><circle class="cls-1" cx="8.5" cy="4.7" r="0.85"/><path class="cls-1" d="M25.48,3.85H11.9a.85.85,0,1,0,0,1.7H25.48a.85.85,0,1,0,0-1.7Z"/><path class="cls-1" d="M27.51,0H3.06A3.06,3.06,0,0,0,0,3.06V23.79L.3,24a21.15,21.15,0,0,0,9.84,2.53,16.89,16.89,0,0,0,5.34-.85A36.8,36.8,0,0,1,29.88,24l.69.09V3.06A3.06,3.06,0,0,0,27.51,0Zm1.83,22.77a38.08,38.08,0,0,0-14.25,1.72,15.67,15.67,0,0,1-5,.78,20.43,20.43,0,0,1-8.92-2.2v-20A1.84,1.84,0,0,1,3.06,1.22H27.51a1.84,1.84,0,0,1,1.83,1.83Z"/></g></g></svg>