<svg xmlns="http://www.w3.org/2000/svg" viewBox="0 0 26.96 26.34"><defs><style>.cls-1{fill:#fff;}</style></defs><title>Asset 13</title><g id="Layer_2" data-name="Layer 2"><g id="icons"><polygon class="cls-1" points="14.37 26.34 14.37 16.06 16.73 16.06 13.48 12.81 10.23 16.06 12.59 16.06 12.59 26.34 14.37 26.34"/><path class="cls-1" d="M0,14.5a6.05,6.05,0,0,0,6.05,6.05h4.71V18.77H6.05a4.27,4.27,0,0,1-.2-8.53l1.86-.09L7.54,8.3c0-.21,0-.38,0-.55a6,6,0,1,1,11.94,0c0,.16,0,.34,0,.55l-.17,1.86,1.86.09a4.27,4.27,0,0,1-.2,8.53H16.2v1.78h4.71A6,6,0,0,0,21.2,8.46c0-.23,0-.47,0-.71a7.75,7.75,0,1,0-15.5,0c0,.24,0,.48,0,.71A6,6,0,0,0,0,14.5Z"/></g></g></svg>