<svg xmlns="http://www.w3.org/2000/svg" viewBox="0 0 34.09 26.34"><defs><style>.cls-1{fill:#fff;}</style></defs><title>cloud</title><g id="Layer_2" data-name="Layer 2"><g id="icons"><path class="cls-1" d="M26,26.34h-18a8.06,8.06,0,0,1-1.14-16c0-.06,0-.12,0-.18a10.12,10.12,0,1,1,20.24,0c0,.06,0,.12,0,.18a8.06,8.06,0,0,1-1.14,16ZM17,1.5a8.63,8.63,0,0,0-8.62,8.62c0,.27,0,.53,0,.79l.07.78-.78,0a6.56,6.56,0,0,0,.31,13.11H26a6.56,6.56,0,0,0,.31-13.11l-.78,0,.07-.78c0-.26,0-.52,0-.79A8.63,8.63,0,0,0,17,1.5Z"/></g></g></svg>