<svg xmlns="http://www.w3.org/2000/svg" viewBox="0 0 30.75 30.75"><defs><style>.cls-1{fill:#fff;}</style></defs><title>code</title><g id="Layer_2" data-name="Layer 2"><g id="icons"><path class="cls-1" d="M15.38,0c-.52,0-1,0-1.56.08L12.16.24l-1.25,3.5-.6.25L7,2.4,5.67,3.46A15.47,15.47,0,0,0,3.46,5.66L2.4,7,4,10.31c-.09.2-.17.4-.25.6L.24,12.16.08,13.83c-.05.52-.08,1-.08,1.55s0,1,.08,1.55l.16,1.67,3.51,1.25q.12.3.25.6L2.4,23.79l1.05,1.29a15.46,15.46,0,0,0,2.21,2.21L7,28.35l3.35-1.59.6.25,1.25,3.5,1.66.17c.52.05,1,.08,1.56.08a15.49,15.49,0,0,0,1.56-.08l1.66-.17L19.84,27l.6-.25,3.35,1.59,1.29-1.05a15.57,15.57,0,0,0,2.21-2.21l1.05-1.29-1.59-3.35c.09-.2.17-.4.25-.6l3.5-1.24.17-1.66c.05-.51.08-1,.08-1.55s0-1-.08-1.56l-.17-1.66L27,10.91c-.08-.2-.16-.4-.25-.6L28.35,7,27.29,5.66a15.57,15.57,0,0,0-2.21-2.21L23.79,2.4,20.44,4l-.6-.25L18.59.24,16.93.08C16.41,0,15.89,0,15.38,0ZM10.31,5.66l.32-.15A10.91,10.91,0,0,1,11.75,5l.34-.12,1.17-3.28L14,1.57c.47,0,.94-.07,1.41-.07s.93,0,1.41.07l.71.07,1.17,3.28L19,5a11,11,0,0,1,1.12.46l.32.16,3.14-1.49.56.45a14,14,0,0,1,2,2l.46.56L25.09,10.3l.16.32a11,11,0,0,1,.46,1.12l.12.34,3.28,1.16.07.72c0,.46.07.94.07,1.41s0,.94-.07,1.41l-.07.72-3.28,1.17-.12.34a10.84,10.84,0,0,1-.46,1.12l-.16.32,1.49,3.14-.46.56a14,14,0,0,1-2,2l-.56.45-3.13-1.49-.32.16a10.53,10.53,0,0,1-1.12.46l-.34.12L17.5,29.11l-.72.07c-.47,0-.94.07-1.41.07s-.93,0-1.4-.07l-.71-.07-1.17-3.28-.34-.12a10.72,10.72,0,0,1-1.12-.46l-.32-.16L7.17,26.58l-.56-.45a13.94,13.94,0,0,1-2-2l-.45-.56,1.49-3.14-.16-.32A11,11,0,0,1,5,19l-.12-.34L1.64,17.5l-.07-.72c0-.47-.07-.94-.07-1.4s0-.93.07-1.4l.07-.72,3.28-1.17L5,11.75a10.89,10.89,0,0,1,.46-1.12l.16-.32L4.17,7.17l.45-.56a14,14,0,0,1,2-2l.56-.45,3.13,1.49Z"/><path class="cls-1" d="M17.95,11a.58.58,0,0,0-.41,1l3.38,3.38-3.35,3.35a.58.58,0,0,0,.81.81l3.73-3.73,0,0a.59.59,0,0,0,0-.83l0,0L18.35,11.2a.57.57,0,0,0-.41-.17Z"/><path class="cls-1" d="M13.49,11a.57.57,0,0,0-.41.17L9.35,14.93l0,0a.59.59,0,0,0,0,.83l0,0,3.76,3.76a.58.58,0,0,0,.81-.81l-3.38-3.38L13.9,12a.58.58,0,0,0-.41-1Z"/></g></g></svg>