<svg xmlns="http://www.w3.org/2000/svg" viewBox="0 0 21.67 24.7"><defs><style>.cls-1{fill:#fff;}</style></defs><title>documents</title><g id="Layer_2" data-name="Layer 2"><g id="icons"><rect class="cls-1" x="4.11" y="4.82" width="10" height="1.43"/><rect class="cls-1" x="4.11" y="8.39" width="10" height="1.43"/><rect class="cls-1" x="4.11" y="11.96" width="5" height="1.43"/><path class="cls-1" d="M19.64,3.36V3.16A3.18,3.18,0,0,0,16.45,0H3.19A3.18,3.18,0,0,0,0,3.16V19.35A3.18,3.18,0,0,0,3.19,22.5H16.45a3.18,3.18,0,0,0,3.19-3.16V4.49a1.54,1.54,0,0,1,1,1.41V22.08A1.57,1.57,0,0,1,19,23.63H5.75a1.57,1.57,0,0,1-1.5-1.07H3.61a2.66,2.66,0,0,1-.47,0A2.65,2.65,0,0,0,5.75,24.7H19a2.64,2.64,0,0,0,2.65-2.62V5.89A2.62,2.62,0,0,0,19.64,3.36Zm-1.07,16a2.1,2.1,0,0,1-2.12,2.08H3.19a2.1,2.1,0,0,1-2.12-2.08V3.16A2.1,2.1,0,0,1,3.19,1.07H16.45a2.1,2.1,0,0,1,2.12,2.08Z"/></g></g></svg>