<svg xmlns="http://www.w3.org/2000/svg" viewBox="0 0 223.88 35.52"><defs><style>.cls-1{fill:#fff;}</style></defs><title>dynamics_hor</title><g id="Layer_2" data-name="Layer 2"><g id="icons"><path class="cls-1" d="M153.76,33.33l-.37-.17V31.75l.4.05a1.93,1.93,0,0,0,2.3-1.06,23.56,23.56,0,0,0,1-2.29,1,1,0,0,0-.08-.61q-1.87-4.83-3.76-9.65c-.07-.17-.12-.34-.22-.6.62,0,1.18,0,1.73,0,.1,0,.22.22.27.36q1.48,4.25,2.94,8.51a.79.79,0,0,0,.07.12l1-2.87c.7-1.91,1.41-3.82,2.1-5.73.11-.3.24-.43.57-.41s.83,0,1.33,0c-.13.36-.24.66-.36,1q-2.28,5.74-4.56,11.49a11.23,11.23,0,0,1-.49,1A4.17,4.17,0,0,1,155,33.33Z"/><path class="cls-1" d="M1.84,34.06c.13-.06.26-.12.38-.19A35.64,35.64,0,0,1,16.69,29c.71-.08,1.43-.14,2.14-.2s.68-.14.68-.74c0-2.46,0-4.91,0-7.37a1.4,1.4,0,0,1,.42-1.06A44,44,0,0,0,28.36,6.47c0-.09.08-.19.12-.28s0,0,.07-.07c.75.15.75.15.75.87q0,11.48,0,23c0,.29,0,.75-.12.83A1.88,1.88,0,0,1,28,31a39,39,0,0,0-7.25-.83,38.1,38.1,0,0,0-18.59,4,.77.77,0,0,0-.36.32l.4-.15a45,45,0,0,1,14.46-3.57,38.72,38.72,0,0,1,12.32,1c.72.18,1-.05,1-.78,0-3.81,0-7.62,0-11.43a1.07,1.07,0,0,1,.38-.86c2.31-2.2,4.6-4.42,6.89-6.64l.09,0c.46.08.58.35.58.81q0,10.93,0,21.86c0,.66-.41,1-1.06.74a46.42,46.42,0,0,0-8.44-2.11c-2.56-.35-5.13-.67-7.71-.79A56.71,56.71,0,0,0,2.56,34.66c-.66.18-1.3.41-2,.61-.17.05-.34.07-.6.12,0-1,0-1.86,0-2.75,0-.13.17-.27.29-.39a73.7,73.7,0,0,0,9.86-13,62.18,62.18,0,0,0,7.3-17.21c.16-.68.29-1.37.43-2,.77-.07.9,0,.9.75q0,13.26,0,26.52c0,.72,0,.77-.78.85A33.13,33.13,0,0,0,7.5,30.85c-1.83.84-3.55,1.9-5.32,2.87A3.44,3.44,0,0,0,1.8,34Z"/><path class="cls-1" d="M50.15,15.51V28.13h-1.6v-15c.7,0,1.4,0,2.09,0,.13,0,.29.24.36.4q2,4.41,3.89,8.84c.43,1,.84,2,1.27,3,.33-.78.63-1.54,1-2.29,1.43-3.18,2.87-6.35,4.29-9.54a.61.61,0,0,1,.68-.43c.55,0,1.1,0,1.69,0v15c-.49,0-1,0-1.45,0-.1,0-.26-.27-.26-.41,0-1.32,0-2.64,0-4q0-3.61.07-7.21c0-.37,0-.73.05-1.15a.72.72,0,0,0-.11.14L57.55,26c-.27.61-.56,1.21-.8,1.83-.12.3-.31.33-.58.34a.52.52,0,0,1-.57-.34c-1.65-3.72-3.32-7.43-5-11.15-.17-.38-.28-.79-.41-1.19Z"/><path class="cls-1" d="M140.47,28.3v-15s.08-.06.13-.06c2,0,4.08,0,6.1.18,3.48.36,5.53,2.65,5.77,6.14A8.44,8.44,0,0,1,151.27,25,6.73,6.73,0,0,1,146.33,28C144.41,28.29,142.45,28.23,140.47,28.3Zm1.76-13.5V26.62c1.11,0,2.18.06,3.24,0a5.28,5.28,0,0,0,5-4.12,8.71,8.71,0,0,0,.11-3.28A4.69,4.69,0,0,0,147,15.1,18.43,18.43,0,0,0,142.23,14.8Z"/><path class="cls-1" d="M119.19,28.14c0-1.28,0-2.5,0-3.72,0-1.69,0-3.37,0-5.06,0-.36-.09-.52-.47-.49s-.83,0-1.29,0V17.47h1.77c0-.74,0-1.42,0-2.1a3.34,3.34,0,0,1,1.56-2.82,3.62,3.62,0,0,1,2.75-.39.45.45,0,0,1,.28.31c0,.39,0,.79,0,1.22-.31-.07-.57-.14-.83-.19a1.62,1.62,0,0,0-2,1.37,17.39,17.39,0,0,0-.1,2.29c0,.09.13.27.2.27,1.36,0,2.73,0,4.14,0,0-.78,0-1.5,0-2.21a.48.48,0,0,1,.42-.56c.42-.11.82-.25,1.31-.41v3.19c.75,0,1.43,0,2.11,0,.43,0,.62.1.56.55a7.32,7.32,0,0,0,0,.85H127c0,.23,0,.41,0,.58q0,2.81,0,5.61c0,.07,0,.13,0,.2,0,1.42,1,2,2.31,1.56l.35-.11c0,.42,0,.8,0,1.18a.45.45,0,0,1-.26.31,3.55,3.55,0,0,1-2.87-.14,2.24,2.24,0,0,1-1.16-1.93c-.08-1-.07-2-.08-3.05,0-1.37,0-2.74,0-4.18h-1.17c-.89,0-1.77,0-2.66,0-.41,0-.54.11-.54.53,0,2.71,0,5.41,0,8.12,0,.2,0,.39,0,.62Z"/><path class="cls-1" d="M186.24,28.24v-.51c0-3.19,0-6.38,0-9.57,0-.46.13-.63.59-.58s.7,0,1.1,0v1.52l.09.08a3.69,3.69,0,0,1,3.26-1.87,3.14,3.14,0,0,1,3.09,2.15l.31-.42a3.93,3.93,0,0,1,4.54-1.55,3.1,3.1,0,0,1,2.16,3c.12,1.55.09,3.1.11,4.65,0,1,0,2,0,3.1h-1.7c0-.24,0-.46,0-.67,0-2.15,0-4.31-.08-6.46a2.15,2.15,0,0,0-2.63-2.34,2.43,2.43,0,0,0-2,1.65,5.05,5.05,0,0,0-.38,1.79c0,1.8,0,3.61,0,5.41v.62H193V27.7c0-2,0-3.94,0-5.91a6,6,0,0,0-.1-1,2.18,2.18,0,0,0-1.75-1.95,2.39,2.39,0,0,0-2.59,1.1,3.91,3.91,0,0,0-.6,2.19q0,2.78,0,5.56v.59Z"/><path class="cls-1" d="M91.86,28.42a4.87,4.87,0,0,1-5.15-4.8,9.28,9.28,0,0,1,.17-2.53,4.74,4.74,0,0,1,4.57-3.86A7.5,7.5,0,0,1,94,17.5a4.49,4.49,0,0,1,3.09,3.89A7.48,7.48,0,0,1,97,24.62,5,5,0,0,1,91.86,28.42Zm3.64-5.48c-.07-.58-.09-1-.17-1.5a3.16,3.16,0,0,0-2.76-2.76,3.33,3.33,0,0,0-3.8,2.08,5.51,5.51,0,0,0,0,4.24,3.34,3.34,0,0,0,3.35,2,3.07,3.07,0,0,0,3.07-2.39A14.94,14.94,0,0,0,95.5,22.94Z"/><path class="cls-1" d="M111.5,28.42a5,5,0,0,1-5.21-5.14,7.29,7.29,0,0,1,.44-2.95c1-2.46,3.26-3.43,5.89-3.07a4.56,4.56,0,0,1,4.13,4.49,10.14,10.14,0,0,1-.15,2.83A4.87,4.87,0,0,1,111.5,28.42Zm3.64-5.5c-.06-.55-.09-1-.16-1.44a3.18,3.18,0,0,0-2.78-2.8,3.35,3.35,0,0,0-3.8,2.09,5.69,5.69,0,0,0,0,4.06A3.33,3.33,0,0,0,111.74,27a3.1,3.1,0,0,0,3.15-2.49C115,24,115.06,23.38,115.13,22.92Z"/><path class="cls-1" d="M183.51,28.25h-1.65V26.59c-.16.2-.23.29-.29.38a3.82,3.82,0,0,1-4.64,1.28,2.74,2.74,0,0,1-1.82-2.73,2.89,2.89,0,0,1,1.84-3.08,21.2,21.2,0,0,1,3.21-.71c.54-.11,1.09-.16,1.63-.23a2.15,2.15,0,0,0-2-2.74,5.18,5.18,0,0,0-3.11.93l-.48.32c0-.55,0-1,0-1.5a.47.47,0,0,1,.23-.34,7,7,0,0,1,4.8-.69,2.93,2.93,0,0,1,2.3,2.93C183.58,23,183.51,25.61,183.51,28.25Zm-1.69-5.47c-1.31.25-2.6.44-3.85.75a1.58,1.58,0,0,0-1.15,1.74A1.74,1.74,0,0,0,178,26.93a2.84,2.84,0,0,0,3.13-.85A4.19,4.19,0,0,0,181.82,22.79Z"/><path class="cls-1" d="M173.3,28.25h-1.7v-.62c0-1.84,0-3.68,0-5.51a7.58,7.58,0,0,0-.14-1.34,2.2,2.2,0,0,0-1.69-2,2.74,2.74,0,0,0-2.78.86,3.58,3.58,0,0,0-.89,2.49c0,1.84,0,3.68,0,5.51v.57h-1.66V17.62h1.65v1.56l.11,0,.32-.41a4,4,0,0,1,4.6-1.29,3.39,3.39,0,0,1,2.09,3,13.09,13.09,0,0,1,.1,1.85C173.31,24.28,173.3,26.23,173.3,28.25Z"/><path class="cls-1" d="M217.28,26.08a4.45,4.45,0,0,0,3.44,1,1.42,1.42,0,0,0,1.37-1.12,1.39,1.39,0,0,0-.77-1.63c-.5-.3-1-.54-1.55-.81-.31-.16-.63-.31-.93-.48a2.74,2.74,0,0,1-1.5-2.73A2.81,2.81,0,0,1,219,17.78a4.88,4.88,0,0,1,4.08-.12.54.54,0,0,1,.27.39c0,.43,0,.87,0,1.37l-.42-.21a4,4,0,0,0-2.42-.44A1.59,1.59,0,0,0,219.07,20a1.47,1.47,0,0,0,.81,1.67c.58.32,1.21.57,1.8.87a3.48,3.48,0,0,1,2,2,2.92,2.92,0,0,1-1.86,3.72,5.74,5.74,0,0,1-4.2-.11.53.53,0,0,1-.39-.6C217.3,27.06,217.28,26.63,217.28,26.08Z"/><path class="cls-1" d="M104.64,19.36a4.25,4.25,0,0,0-2.79-.7,1.51,1.51,0,0,0-1.42,2,1.56,1.56,0,0,0,.57.72,15,15,0,0,0,1.46.76c.42.21.84.41,1.24.64a2.88,2.88,0,0,1-.26,5.13,5.45,5.45,0,0,1-4.56,0,.57.57,0,0,1-.3-.39c0-.48,0-1,0-1.52l.47.28a4.26,4.26,0,0,0,3,.63,1.45,1.45,0,0,0,1.31-1.06,1.4,1.4,0,0,0-.73-1.65c-.5-.3-1-.55-1.55-.81l-.81-.4a2.8,2.8,0,0,1-1.64-3.12,3,3,0,0,1,2.23-2.45,5.16,5.16,0,0,1,3.39.09.47.47,0,0,1,.39.54C104.61,18.44,104.64,18.85,104.64,19.36Z"/><path class="cls-1" d="M216,19.38a13.73,13.73,0,0,0-2.36-.6,3.47,3.47,0,0,0-3.7,2.53,5.29,5.29,0,0,0,0,3.4,3.62,3.62,0,0,0,5.13,2c.29-.13.56-.3.91-.49,0,.51,0,1,0,1.42,0,.13-.22.28-.37.35-3.11,1.39-7.34.23-7.64-4.43a5.57,5.57,0,0,1,2.2-5.25,5.73,5.73,0,0,1,5.53-.6.63.63,0,0,1,.31.46A11.61,11.61,0,0,1,216,19.38Z"/><path class="cls-1" d="M78.83,19.32a11.74,11.74,0,0,0-2-.62,3.7,3.7,0,0,0-4.31,3.65,6.83,6.83,0,0,0,.14,1.94,3.56,3.56,0,0,0,5.05,2.39c.33-.14.65-.32,1-.52a10.3,10.3,0,0,1,0,1.34.7.7,0,0,1-.41.42,5.43,5.43,0,0,1-5.52-.43,5.31,5.31,0,0,1-2-5.1,5.29,5.29,0,0,1,2.3-4.25,5.86,5.86,0,0,1,5.37-.55.45.45,0,0,1,.37.51C78.82,18.5,78.83,18.93,78.83,19.32Z"/><path class="cls-1" d="M82.56,28.14h-1.7v-.53c0-3.19,0-6.38,0-9.56,0-.46.13-.63.59-.58s.7,0,1.1,0v2l.1,0,.26-.52A2.83,2.83,0,0,1,86,17.29c.31,0,.44.15.43.47s0,.83,0,1.28c-.33-.07-.61-.14-.9-.19a2.13,2.13,0,0,0-2.22,1,4.51,4.51,0,0,0-.72,2.56c0,1.7,0,3.41,0,5.11C82.56,27.73,82.56,27.91,82.56,28.14Z"/><path class="cls-1" d="M67,17.47c.49,0,.94,0,1.38,0,.1,0,.22.18.29.29s0,.2,0,.3c0,3.17,0,6.34,0,9.51,0,.44-.09.65-.58.59a10,10,0,0,0-1.11,0Z"/><path class="cls-1" d="M205.82,28.28c-.51,0-.92,0-1.34,0s-.36-.12-.34-.36c0-.07,0-.13,0-.2,0-3.19,0-6.38,0-9.58,0-.42.08-.59.55-.58,1.14,0,1.14,0,1.14,1.13q0,4.46,0,8.92Z"/><path class="cls-1" d="M69,13.9A1.1,1.1,0,0,1,67.85,15,1.11,1.11,0,1,1,69,13.9Z"/><path class="cls-1" d="M203.91,14a1.1,1.1,0,1,1,2.21,0A1.1,1.1,0,0,1,205,15.14,1.07,1.07,0,0,1,203.91,14Z"/></g></g></svg>