<svg xmlns="http://www.w3.org/2000/svg" viewBox="0 0 28.43 28.43"><defs><style>.cls-1{fill:#fff;}</style></defs><title>earth</title><g id="Layer_2" data-name="Layer 2"><g id="icons"><path id="earth" class="cls-1" d="M14.22,28.43A14.22,14.22,0,1,0,0,14.22,14.23,14.23,0,0,0,14.22,28.43Zm4.37-2.23a13.88,13.88,0,0,0,2.7-5.14c1.34.45,2.15,1.06,2.3,1.8A12.79,12.79,0,0,1,18.59,26.21Zm6-4.63a5.43,5.43,0,0,0-3-1.93,24.09,24.09,0,0,0,.58-4.7H27A12.67,12.67,0,0,1,24.63,21.58Zm0-14.74A12.69,12.69,0,0,1,27,13.49H22.24a24.27,24.27,0,0,0-.59-4.74A5.55,5.55,0,0,0,24.62,6.84Zm-1-1.27c-.16.73-1,1.34-2.3,1.79a13.82,13.82,0,0,0-2.7-5.13A12.82,12.82,0,0,1,23.59,5.57Zm-8.65-4C17,2,18.81,4.4,19.85,7.74a26.9,26.9,0,0,1-4.91.48Zm0,8.14a28.6,28.6,0,0,0,5.28-.55,22.41,22.41,0,0,1,.55,4.36H14.95Zm0,5.26h5.84a22.53,22.53,0,0,1-.55,4.32,28.69,28.69,0,0,0-5.29-.53Zm0,5.26a26.92,26.92,0,0,1,4.91.48c-1,3.35-2.85,5.75-4.91,6.21ZM4.88,22.9c.14-.73.94-1.34,2.28-1.8a13.81,13.81,0,0,0,2.69,5.11A12.8,12.8,0,0,1,4.88,22.9Zm8.61,4c-2.06-.46-3.86-2.85-4.9-6.19a26.07,26.07,0,0,1,4.9-.5Zm0-8.15a28.31,28.31,0,0,0-5.28.55,22.49,22.49,0,0,1-.55-4.35h5.84Zm0-5.25H7.65a22.42,22.42,0,0,1,.56-4.36,28.36,28.36,0,0,0,5.28.55Zm0-11.95V8.22a26.13,26.13,0,0,1-4.9-.5C9.63,4.39,11.43,2,13.49,1.54Zm-3.64.69a13.81,13.81,0,0,0-2.69,5.1C5.83,6.87,5,6.26,4.88,5.53A12.8,12.8,0,0,1,9.84,2.23Zm-6,4.58A5.46,5.46,0,0,0,6.78,8.74a24.36,24.36,0,0,0-.59,4.75H1.48A12.68,12.68,0,0,1,3.84,6.81ZM1.48,14.95H6.19a24.25,24.25,0,0,0,.59,4.74,5.45,5.45,0,0,0-2.95,1.94A12.7,12.7,0,0,1,1.48,14.95Z"/></g></g></svg>