<svg xmlns="http://www.w3.org/2000/svg" viewBox="0 0 30.23 19.13"><title>envelope</title><g id="Layer_2" data-name="Layer 2"><g id="icons"><g id="envelope"><path d="M27.9,1.5,17.05,7.33l-1,.55a2.42,2.42,0,0,1-1.84,0L12,6.71,2.33,1.5H27.9M1.5,8.39l11.29,5.74a4.57,4.57,0,0,0,2.32.53,4.57,4.57,0,0,0,2.32-.53L28.73,8.39v9.25H1.5V8.39M30.22,0H0V2L13.48,9.2a3.52,3.52,0,0,0,1.63.36,3.52,3.52,0,0,0,1.63-.36L30.23,2c0-.57,0-2,0-2Zm0,5.94L16.74,12.79a3.08,3.08,0,0,1-1.63.36,3.08,3.08,0,0,1-1.63-.36L0,5.94V19.13H30.23V5.94Z"/></g></g></g></svg>