<svg xmlns="http://www.w3.org/2000/svg" viewBox="0 0 18.06 25.37"><defs><style>.cls-1{fill:#fff;}</style></defs><title>feather</title><g id="Layer_2" data-name="Layer 2"><g id="icons"><path class="cls-1" d="M1.64,25.37H1.48a1.28,1.28,0,0,1-1-1.4,22.17,22.17,0,0,1,1.16-5.45,8.94,8.94,0,0,1-1.21-7.9L.89,9.06l.5,1.53a19.91,19.91,0,0,0,1.75,3.66c0-.35-.06-.75-.1-1.14-.21-2.34-.53-5.88.43-7.89A11.55,11.55,0,0,1,8.19,1L9.51.38,8.84,1.66A6.42,6.42,0,0,0,8,5.77C8.34,5.4,8.8,4.61,9.16,4c1.35-2.28,2.38-3.9,3.45-4,1.62-.15,4.69,1.34,5.27,2.57a5.14,5.14,0,0,1-1.09,4.55c-1.27,1.26-3.16,1.53-4.68,1.75a9.49,9.49,0,0,0-1.54.3,1.33,1.33,0,0,0,.31.27c.37.24,1.47.74,3.67.24l1.25-.28-.73,1.05A9.09,9.09,0,0,1,8,14.32l-.48.06a3,3,0,0,0,.69.54,2.81,2.81,0,0,0,2.17.37l1.19-.37L10.92,16c-1.76,3.21-3.13,3.3-5.22,3.45-.48,0-1,.07-1.59.15C3.7,21,3.34,22.07,3.05,23c-.21.67-.39,1.24-.54,1.73h0A.89.89,0,0,1,1.64,25.37ZM1.06,12.42a8.28,8.28,0,0,0,1.56,5.75l.13.21-.09.23A21,21,0,0,0,1.48,24a.46.46,0,0,0,.1.34L2.1,22.7c.31-1,.7-2.21,1.15-3.69l.09-.3.31,0c.76-.12,1.41-.17,2-.21,1.71-.12,2.67-.19,3.91-2.08a4.36,4.36,0,0,1-2.52-1A1.55,1.55,0,0,1,6.35,14c.09-.56.68-.62,1.5-.71a8.33,8.33,0,0,0,5.62-2.46c-2.35.2-3.61-.69-3.91-1.46a.77.77,0,0,1,.28-1A6.44,6.44,0,0,1,12,7.89c1.37-.2,3.08-.44,4.12-1.47A4.31,4.31,0,0,0,17,3c-.34-.72-2.91-2.12-4.27-2-.64.06-2,2.3-2.68,3.51C8.95,6.33,8.53,7,8,6.92a.89.89,0,0,1-.73-.5,5.48,5.48,0,0,1,.11-3.8,9.62,9.62,0,0,0-3,3C3.53,7.42,3.83,10.79,4,13c.18,1.94.23,2.53-.26,2.76a.66.66,0,0,1-.55,0C2.59,15.52,1.68,13.79,1.06,12.42Z"/></g></g></svg>