<svg xmlns="http://www.w3.org/2000/svg" viewBox="0 0 21.55 18.3"><defs><style>.cls-1{fill:#fff;}</style></defs><title>fluid</title><g id="Layer_2" data-name="Layer 2"><g id="icons"><path class="cls-1" d="M16.26,5.59H17V7.76l4.53-3.88L17,0V2.57h-.76c-4,0-6.22,2.95-8.2,5.55-1.78,2.34-3.32,4.36-5.8,4.36H0v3H2.26c4,0,6.22-2.95,8.21-5.55C12.24,7.61,13.78,5.59,16.26,5.59ZM5.83,7.49l.51-.67c.42-.55.87-1.14,1.35-1.72A7.72,7.72,0,0,0,2.26,2.79H0v3H2.26A5,5,0,0,1,5.83,7.49ZM17,12.7h-.76a5.15,5.15,0,0,1-3.76-1.87l-.33.43c-.48.62-1,1.29-1.55,2a7.83,7.83,0,0,0,5.64,2.5H17V18.3l4.53-3.88L17,10.55Z"/></g></g></svg>