<svg xmlns="http://www.w3.org/2000/svg" viewBox="0 0 27.02 22.4"><defs><style>.cls-1{fill:#fff;}</style></defs><title>folder_cloud</title><g id="Layer_2" data-name="Layer 2"><g id="icons"><g id="cloud_folder"><polygon class="cls-1" points="6.93 19.11 0 19.11 0 3.58 13.05 3.58 13.05 0 22.3 0 22.3 7.51 20.8 7.51 20.8 1.5 14.55 1.5 14.55 5.08 1.5 5.08 1.5 17.61 6.93 17.61 6.93 19.11"/><path class="cls-1" d="M22.41,22.4H12.94a4.61,4.61,0,0,1-1-9.12,5.69,5.69,0,0,1,11.38,0,4.61,4.61,0,0,1-1,9.12ZM17.67,9.29a4.2,4.2,0,0,0-4.19,4.19c0,.13,0,.26,0,.38l.07.78-.78,0a3.11,3.11,0,0,0,.15,6.21h9.47a3.11,3.11,0,0,0,.15-6.21l-.78,0,.07-.78c0-.13,0-.26,0-.38A4.2,4.2,0,0,0,17.67,9.29Z"/></g></g></g></svg>