<svg xmlns="http://www.w3.org/2000/svg" viewBox="0 0 31.33 32"><defs><style>.cls-1{fill:#fff;}</style></defs><title>icn-rocket</title><g id="Слой_2" data-name="Слой 2"><g id="white_arrow" data-name="white arrow"><g id="mission-Layer_2" data-name="mission-Layer 2"><g id="mission-icons"><path class="cls-1" d="M10.19,32A1.74,1.74,0,0,1,9,31.55,2.3,2.3,0,0,1,8.58,29l1.19-3.26L6.11,22,3,23.21a2.25,2.25,0,0,1-2.44-.35A2.11,2.11,0,0,1,.3,20.4c.42-1,.78-2,1.12-2.77,2.32-5.89,3.09-7.17,9.52-6.54C12.68,8.82,20.56-1.12,29.82.1a1.64,1.64,0,0,1,.94.44,1.74,1.74,0,0,1,.45,1c1.26,9.47-8.54,17.67-10.74,19.3.68,6.57-.61,7.38-6.4,9.77l-2.7,1.15A3,3,0,0,1,10.19,32ZM6.54,20l5.23,5.35-1.53,4.31a1,1,0,0,0,0,.65,1.74,1.74,0,0,0,.51-.14L13.48,29c5.51-2.28,6-2.48,5.23-8.46V20l.42-.3c.12,0,11.7-8.58,10.46-18C20.42.56,12.21,12.4,12.07,12.52l-.3.44h-.52c-5.82-.75-6-.31-8.25,5.34-.33.84-.7,1.74-1.13,2.79a1,1,0,0,0-.12.59h.09a1.33,1.33,0,0,0,.47-.09Zm16.6-8.07a3.49,3.49,0,0,1-2.48-1,3.61,3.61,0,0,1,0-5,3.49,3.49,0,0,1,4.93,0l0,0a3.61,3.61,0,0,1,0,5A3.49,3.49,0,0,1,23.14,11.91Zm0-5.39A1.74,1.74,0,0,0,21.91,7a1.87,1.87,0,0,0,0,2.58,1.74,1.74,0,0,0,2.47,0h0a1.87,1.87,0,0,0,0-2.64h0A1.74,1.74,0,0,0,23.14,6.52Z"/></g></g></g></g></svg>