<svg xmlns="http://www.w3.org/2000/svg" viewBox="0 0 31.94 31.99"><defs><style>.cls-1{fill:#fff;}</style></defs><title>Ресурс 1</title><g id="Слой_2" data-name="Слой 2"><g id="white_arrow" data-name="white arrow"><g id="inovation-Layer_2" data-name="inovation-Layer 2"><g id="inovation-icons"><path class="cls-1" d="M16,9.4a6.6,6.6,0,1,0,6.6,6.6h0A6.6,6.6,0,0,0,16,9.4Zm0,11.14A4.54,4.54,0,1,1,20.51,16h0A4.55,4.55,0,0,1,16,20.55Z"/><path class="cls-1" d="M31.9,14.39l-.13-1.3-1.23-.44L28,11.82a12.71,12.71,0,0,0-.55-1.31l1.12-2.36L29.18,7l-.8-1a16.15,16.15,0,0,0-2.3-2.3l-1-.83-1.18.56L21.53,4.43a12.75,12.75,0,0,0-1.31-.55l-.87-2.41L18.9.25,17.6.09C17,.09,16.5,0,16,0a10.08,10.08,0,0,0-1.63.09L13,.21l-.43,1.27-.83,2.44a12.74,12.74,0,0,0-1.36.52L8.07,3.31,6.88,2.75l-1,.86a16.12,16.12,0,0,0-2.3,2.3l-.83,1L3.31,8.1,4.4,10.46a12.76,12.76,0,0,0-.52,1.36l-2.44.83-1.24.44-.13,1.3C.07,14.92,0,15.47,0,16a11.75,11.75,0,0,0,.07,1.61l.13,1.3,1.24.44,2.48.89a12.75,12.75,0,0,0,.55,1.31L3.35,23.92,2.79,25.1l.83,1a16.13,16.13,0,0,0,2.26,2.3l1,.83,1.18-.56,2.36-1.12a12.74,12.74,0,0,0,1.36.52l.89,2.47.44,1.23,1.3.13c.55,0,1.09.09,1.63.09a10.08,10.08,0,0,0,1.63-.09l1.3-.13.44-1.23.8-2.47a12.71,12.71,0,0,0,1.31-.55l2.36,1.12,1.18.56,1-.83a16.13,16.13,0,0,0,2.3-2.3l.83-1-.56-1.18-1.12-2.36A12.69,12.69,0,0,0,28,20.24l2.47-.87,1.23-.44.13-1.3c0-.53.07-1.08.07-1.63A14.56,14.56,0,0,0,31.9,14.39Zm-2.05,3-3.46,1.23a10.64,10.64,0,0,1-1.18,2.85l1.57,3.31a14,14,0,0,1-2,2l-3.31-1.57a10.68,10.68,0,0,1-2.85,1.18L17.37,29.9a14.06,14.06,0,0,1-2.84,0l-1.27-3.49a10.68,10.68,0,0,1-2.85-1.18L7.17,26.81a14,14,0,0,1-2-2L6.72,21.5a10.68,10.68,0,0,1-1.18-2.85L2.08,17.42v-3L5.55,13.3a10.68,10.68,0,0,1,1.18-2.85L5.17,7.19a14,14,0,0,1,2-2l3.31,1.57a10.68,10.68,0,0,1,2.79-1.18l1.23-3.46a14,14,0,0,1,2.84,0l1.23,3.46a10.7,10.7,0,0,1,2.85,1.18L24.72,5.2a14,14,0,0,1,2,2L25.2,10.5a10.64,10.64,0,0,1,1.18,2.79l3.46,1.23v2.9Z"/></g></g></g></g></svg>