<svg xmlns="http://www.w3.org/2000/svg" viewBox="0 0 16.68 23.83"><defs><style>.cls-1{fill:#fff;fill-rule:evenodd;}</style></defs><title>idea</title><g id="Layer_2" data-name="Layer 2"><g id="icons"><path class="cls-1" d="M5,22.84a5.76,5.76,0,0,0,3.35,1,5.76,5.76,0,0,0,3.35-1V20.37H5Zm6.57-3.9c0-5.19,5.52-6.85,5.1-12C16.4,3.66,14.19,0,8.34,0S.28,3.66,0,6.92c-.41,5.17,5.1,6.83,5.1,12Zm-9-11.83C2.79,4,4.9,2.44,8.34,2.44S13.89,4,14.13,7.11c.14,1.7-.84,2.83-2.16,4.68a15.18,15.18,0,0,0-2.65,5.08h-2A15.17,15.17,0,0,0,4.7,11.79C3.39,9.94,2.41,8.81,2.55,7.11Z"/></g></g></svg>