<svg xmlns="http://www.w3.org/2000/svg" viewBox="0 0 21.66 21.66"><defs><style>.cls-1{fill:#fff;}</style></defs><title>inovation</title><g id="Layer_2" data-name="Layer 2"><g id="icons"><path class="cls-1" d="M10.83,6.36a4.47,4.47,0,1,0,4.47,4.47A4.47,4.47,0,0,0,10.83,6.36Zm0,7.54a3.07,3.07,0,1,1,3.07-3.07A3.08,3.08,0,0,1,10.83,13.91Z"/><path class="cls-1" d="M21.61,9.74l-.09-.88-.83-.3L19,8a8.6,8.6,0,0,0-.37-.89l.76-1.6.38-.8L19.23,4a10.93,10.93,0,0,0-1.56-1.56L17,1.88l-.8.38L14.59,3a8.63,8.63,0,0,0-.89-.37L13.11,1l-.3-.83L11.93.06c-.37,0-.74-.06-1.1-.06s-.73,0-1.1.06L8.85.14,8.56,1,8,2.65A8.62,8.62,0,0,0,7.08,3l-1.6-.76-.8-.38L4,2.44A10.91,10.91,0,0,0,2.44,4l-.56.68.38.8L3,7.08A8.64,8.64,0,0,0,2.65,8L1,8.56l-.84.3-.09.88c0,.36-.05.73-.05,1.09s0,.73.05,1.09l.09.88.84.3,1.68.6a8.63,8.63,0,0,0,.37.89l-.76,1.6-.38.8.56.68A10.92,10.92,0,0,0,4,19.23l.68.56.8-.38,1.6-.76A8.62,8.62,0,0,0,8,19l.6,1.67.3.83.88.09c.37,0,.74.06,1.1.06s.73,0,1.1-.06l.88-.09.3-.83L13.7,19a8.6,8.6,0,0,0,.89-.37l1.6.76.8.38.68-.56a10.92,10.92,0,0,0,1.56-1.56l.56-.68-.38-.8-.76-1.6A8.59,8.59,0,0,0,19,13.7l1.67-.59.83-.3.09-.88c0-.36.05-.73.05-1.1S21.65,10.1,21.61,9.74Zm-1.39,2.06-2.34.83a7.2,7.2,0,0,1-.8,1.93l1.06,2.24a9.51,9.51,0,0,1-1.36,1.36l-2.24-1.06a7.23,7.23,0,0,1-1.93.8l-.83,2.34a9.52,9.52,0,0,1-1.92,0L9,17.88a7.23,7.23,0,0,1-1.93-.8L4.87,18.15a9.49,9.49,0,0,1-1.36-1.36l1.06-2.24a7.23,7.23,0,0,1-.8-1.93l-2.34-.83c0-.31,0-.63,0-1s0-.64,0-1L3.78,9a7.23,7.23,0,0,1,.8-1.93L3.52,4.87A9.49,9.49,0,0,1,4.87,3.52L7.11,4.58A7.23,7.23,0,0,1,9,3.78l.83-2.34a9.5,9.5,0,0,1,1.92,0l.83,2.34a7.24,7.24,0,0,1,1.93.8l2.24-1.06a9.51,9.51,0,0,1,1.36,1.36L17.08,7.11A7.2,7.2,0,0,1,17.88,9l2.34.83q0,.47,0,1T20.22,11.79Z"/></g></g></svg>