<svg xmlns="http://www.w3.org/2000/svg" viewBox="0 0 27.15 20.87"><defs><style>.cls-1{fill:#fff;}</style></defs><title>knowledge</title><g id="Layer_2" data-name="Layer 2"><g id="icons"><path class="cls-1" d="M26.11,13.58,26,13.49l0,0a3.18,3.18,0,0,1-.29-4,3.46,3.46,0,0,0,.74-2.73A2.73,2.73,0,0,0,25.28,5,.49.49,0,0,0,25.1,5a1.51,1.51,0,0,0-.34-.19L13.85.2A3.24,3.24,0,0,0,11.6.2L.69,4.79C.09,5,0,5.43,0,5.64s.09.6.69.85l5,2.11a.49.49,0,0,0,0,.2V16c0,1.77,3.55,2.7,7.06,2.7s7.06-.93,7.06-2.7V8.8a.49.49,0,0,0,0-.2l5-2.11a1.43,1.43,0,0,0,.39-.24,1.59,1.59,0,0,1,.33.68,2.55,2.55,0,0,1-.59,1.94,4.07,4.07,0,0,0-.08,4.68A3.76,3.76,0,0,0,22,17a3.46,3.46,0,0,0,2.91,3.82H25a.5.5,0,0,0,.39-.81,1.74,1.74,0,0,1-.26-1.25,1.34,1.34,0,0,1,.84-.78,1.88,1.88,0,0,0,1.16-1.26C27.45,15.41,26.25,13.76,26.11,13.58ZM18.79,16c0,.7-2.36,1.71-6.07,1.71s-6.07-1-6.07-1.71V9l4.94,2.08a3.24,3.24,0,0,0,2.25,0L18.79,9Zm-5.33-5.8a2.27,2.27,0,0,1-1.48,0L1.23,5.64,12,1.12a2.27,2.27,0,0,1,1.48,0L24.22,5.64Zm12.65,6.36a.89.89,0,0,1-.59.6,2.27,2.27,0,0,0-1.41,1.42,2.15,2.15,0,0,0,0,1A2.49,2.49,0,0,1,23,17.1a2.87,2.87,0,0,1,2.52-2.68A3.2,3.2,0,0,1,26.12,16.52Z"/><ellipse class="cls-1" cx="12.77" cy="5.43" rx="1.24" ry="0.74"/></g></g></svg>