<svg xmlns="http://www.w3.org/2000/svg" viewBox="0 0 15.41 15.2"><defs><style>.cls-1{fill:#31679a;}</style></defs><title>linkedin</title><g id="Layer_2" data-name="Layer 2"><g id="icons"><g id="linkedIN"><path class="cls-1" d="M3.49,1.65A1.64,1.64,0,0,1,1.71,3.3,1.62,1.62,0,0,1,0,1.65,1.64,1.64,0,0,1,1.76,0,1.63,1.63,0,0,1,3.49,1.65ZM.09,15.2V4.6h3.3V15.2Z"/><path class="cls-1" d="M5.35,8c0-1.32,0-2.43-.09-3.38H8.13l.15,1.47h.06a3.81,3.81,0,0,1,3.27-1.71c2.17,0,3.79,1.45,3.79,4.57V15.2h-3.3V9.32C12.12,8,11.64,7,10.45,7A1.81,1.81,0,0,0,8.76,8.26a2.37,2.37,0,0,0-.11.82V15.2H5.35Z"/></g></g></g></svg>