<svg xmlns="http://www.w3.org/2000/svg" viewBox="0 0 22.3 23.41"><defs><style>.cls-1{fill:#fff;}</style></defs><title>lock_folder</title><g id="Layer_2" data-name="Layer 2"><g id="icons"><g id="cloud_folder"><polygon class="cls-1" points="6.93 19.11 0 19.11 0 3.58 13.05 3.58 13.05 0 22.3 0 22.3 7.51 20.8 7.51 20.8 1.5 14.55 1.5 14.55 5.08 1.5 5.08 1.5 17.61 6.93 17.61 6.93 19.11"/></g><path class="cls-1" d="M20.65,15.29H19.32v-1c0-2.14-1-3.4-3-3.4s-3,1.26-3,3.4v1H11.94a.88.88,0,0,0-.74.89v5.76a1.08,1.08,0,0,0,.7,1l.88.28a5.64,5.64,0,0,0,1.44.23h4.28a5.64,5.64,0,0,0,1.44-.23l.88-.28a1.08,1.08,0,0,0,.7-1V16.18A1,1,0,0,0,20.65,15.29ZM14.89,14a1.48,1.48,0,1,1,3,0v1.33h-3Z"/></g></g></svg>