<svg xmlns="http://www.w3.org/2000/svg" viewBox="0 0 136.25 87.86"><defs><style>.cls-1{isolation:isolate;}.cls-2{mix-blend-mode:overlay;}.cls-3{fill:#33679a;}.cls-4{fill:#73abc3;}.cls-5{fill:#4e90cd;}.cls-6{fill:#a2c2d4;}.cls-7{fill:#84a2b3;}</style></defs><title>logo</title><g class="cls-1"><g id="Layer_2" data-name="Layer 2"><g id="icons"><g id="logo"><g class="cls-2"><path class="cls-3" d="M0,86.8V75.47a1.05,1.05,0,0,1,1.06-1.06H3.78A3.65,3.65,0,0,1,6.7,80.25a4.11,4.11,0,0,1-2.17,7.6H1.13a0,0,0,0,1,0,0s0,0-.06,0A1.07,1.07,0,0,1,0,86.8m2.13-7.18H3.78A1.54,1.54,0,0,0,5.3,78.06a1.51,1.51,0,0,0-1.52-1.52H2.13Zm0,6.11h2.4a2,2,0,0,0,0-4H2.13Z"/><path class="cls-3" d="M11.41,86.8V75.47a1,1,0,0,1,1.06-1.06h6.28a1.07,1.07,0,0,1,1.06,1.06,1.08,1.08,0,0,1-1.06,1.08h-5.2v3.51H18a1.07,1.07,0,0,1,0,2.13H13.54v3.53h5.2a1.07,1.07,0,0,1,0,2.13H12.52s0,0,0,0l0,0a1.05,1.05,0,0,1-1.06-1.06"/><path class="cls-3" d="M24.9,86.8a1,1,0,1,1-2.09,0V75.63a1,1,0,0,1,.42-.88,1.06,1.06,0,0,1,1.46.23l6.2,8.58V75.64a1,1,0,0,1,1-1,1.06,1.06,0,0,1,1.06,1V86.8a1.07,1.07,0,0,1-1.06,1.06,1,1,0,0,1-.79-.38.5.5,0,0,1-.1-.11L24.9,78.83Z"/><path class="cls-3" d="M45.62,76.55H42.57V86.8a1,1,0,0,1-1.06,1.06,1.05,1.05,0,0,1-1.06-1.06V76.55h-3a1.07,1.07,0,0,1-1.06-1.08,1,1,0,0,1,1.06-1.06h8.2a1.05,1.05,0,0,1,1.06,1.06,1.08,1.08,0,0,1-1.06,1.08"/><path class="cls-3" d="M59.39,76.09a7.05,7.05,0,0,1,0,9.72,6.29,6.29,0,0,1-4.59,2.05,6.48,6.48,0,0,1-4.7-2.05,7.16,7.16,0,0,1,0-9.72A6.41,6.41,0,0,1,54.8,74a6.22,6.22,0,0,1,4.59,2.05m-.25,4.86a5,5,0,0,0-1.31-3.36,4.14,4.14,0,0,0-6.14,0,4.88,4.88,0,0,0-1.31,3.36,4.8,4.8,0,0,0,1.31,3.34,4.1,4.1,0,0,0,6.14,0,4.89,4.89,0,0,0,1.31-3.34"/><path class="cls-3" d="M70.28,80.94a7,7,0,0,1,7-6.91,7.18,7.18,0,0,1,4.44,1.5,1.1,1.1,0,0,1-1.34,1.75,4.79,4.79,0,0,0-3.09-1.06,5.08,5.08,0,0,0-3.46,1.38,4.74,4.74,0,0,0-1.4,3.34,4.67,4.67,0,0,0,1.4,3.34,5.08,5.08,0,0,0,3.46,1.38,4.82,4.82,0,0,0,3.09-1.06,1.16,1.16,0,0,1,1.54.21,1.13,1.13,0,0,1-.19,1.54,7.18,7.18,0,0,1-4.44,1.5,7,7,0,0,1-7-6.91"/><path class="cls-3" d="M85.67,86.8V75.47a1.05,1.05,0,0,1,1.06-1.06,1.07,1.07,0,0,1,1.08,1.06V85.73H93a1.07,1.07,0,0,1,0,2.13H86.73a1.05,1.05,0,0,1-1.06-1.06"/><path class="cls-3" d="M106.32,76.09a7.05,7.05,0,0,1,0,9.72,6.29,6.29,0,0,1-4.59,2.05A6.48,6.48,0,0,1,97,85.8a7.16,7.16,0,0,1,0-9.72,6.41,6.41,0,0,1,4.7-2.05,6.22,6.22,0,0,1,4.59,2.05m-.25,4.86a5,5,0,0,0-1.31-3.36,4.14,4.14,0,0,0-6.14,0,4.88,4.88,0,0,0-1.31,3.36,4.8,4.8,0,0,0,1.31,3.34,4.1,4.1,0,0,0,6.14,0,4.89,4.89,0,0,0,1.31-3.34"/><path class="cls-3" d="M116.74,87.86a5.54,5.54,0,0,1-5.55-5.55V75.47a1,1,0,0,1,1.06-1.06,1.07,1.07,0,0,1,1.08,1.06v6.84a3.42,3.42,0,0,0,6.84,0V75.47a1.06,1.06,0,0,1,1.08-1.06,1,1,0,0,1,1.06,1.06v6.84a5.55,5.55,0,0,1-5.55,5.55"/><path class="cls-3" d="M126.23,86.8V75.47a1,1,0,0,1,1.06-1.06h2.27a6.72,6.72,0,0,1,0,13.44h-2.27a1.05,1.05,0,0,1-1.06-1.06m2.13-1.08h1.19a4.59,4.59,0,0,0,0-9.18h-1.19Z"/></g><g class="cls-2"><path class="cls-3" d="M73,3.61A24.83,24.83,0,0,1,95.64,18.4a15.47,15.47,0,0,1,12.64,10.84A12,12,0,0,1,118,41.61a11.58,11.58,0,0,1-12,10.92H31.57c-9.33,0-13.51-6.2-13.51-12.35,0-6.51,4.76-13.46,12-14a20.42,20.42,0,0,1,19.71-15.2,20.09,20.09,0,0,1,5.05.64,24.75,24.75,0,0,1,18.2-8M73,0A28.49,28.49,0,0,0,53.61,7.63a24,24,0,0,0-26.37,15.3c-8,2-12.8,10.07-12.8,17.25,0,7.69,5.36,16,17.13,16H106a15.12,15.12,0,0,0,15.59-14.31A15.46,15.46,0,0,0,111,26.28,19.11,19.11,0,0,0,98.11,15.2,28.4,28.4,0,0,0,73,0"/></g><path class="cls-3" d="M74.87,35.27V46.62A1.09,1.09,0,0,0,76,47.71H87.69a1.09,1.09,0,0,0,1.09-1.09V35.27a1.09,1.09,0,0,0-1.09-1.09H76a1.09,1.09,0,0,0-1.09,1.09"/><g class="cls-2"><path class="cls-4" d="M87.69,30.57H76a1.09,1.09,0,0,1-1.09-1.09V9.77a1.09,1.09,0,0,1,1.27-1.08A19.9,19.9,0,0,1,88.54,16a1.1,1.1,0,0,1,.24.68V29.48a1.09,1.09,0,0,1-1.09,1.09"/></g><g class="cls-2"><path class="cls-5" d="M70,8.66a20,20,0,0,0-13.12,7.89,1.08,1.08,0,0,1-1.28.38A15.53,15.53,0,0,0,34.27,29.35a1.09,1.09,0,0,0,1.08,1.22H70.17a1.09,1.09,0,0,0,1.09-1.09V9.74A1.09,1.09,0,0,0,70,8.66"/></g><g class="cls-2"><path class="cls-6" d="M106,33.73a5.61,5.61,0,0,0-2,.22c0-.09,0-.19,0-.28a10.6,10.6,0,0,0-10.6-10.6h0a1.09,1.09,0,0,0-1.09,1.09V46.62a1.09,1.09,0,0,0,1.09,1.09H106c9,0,10.09-12.75.07-14"/></g><path class="cls-7" d="M25.43,34.18a1.07,1.07,0,0,0-.89.47c-3.25,5-2.22,13.06,7,13.06H70.17a1.09,1.09,0,0,0,1.09-1.09V35.27a1.09,1.09,0,0,0-1.09-1.09Z"/></g></g></g></g></svg>