<svg xmlns="http://www.w3.org/2000/svg" viewBox="0 0 66.37 67.36"><title>man</title><g id="Layer_2" data-name="Layer 2"><g id="icons"><path d="M0,58.38s0-.75.1-1.11a4,4,0,0,1,2.26-3.06C4.57,53.1,6.8,52,9,51c4-1.88,8-3.74,12-5.62a1.54,1.54,0,0,0,.62-.57,8.16,8.16,0,0,0,1.23-3.05,3.05,3.05,0,0,0,0-1c-.05-.29,0-.41.29-.49s.6-.25.92-.32.49-.33.52-.69c.13-1.37.29-2.75.43-4.12A.76.76,0,0,0,25,34.7a22.78,22.78,0,0,1-2.84-7,1.08,1.08,0,0,1-1.11-.82,21.17,21.17,0,0,1-.69-2c0-.12-.32-1.48-.35-1.72-.09-.72-.21-1.44-.23-2.17,0-1.11.13-1.25,1.32-1.34A24.34,24.34,0,0,1,19.71,6c1.78.62,3.14-.15,4.42-1.17a8.51,8.51,0,0,0,1.31-1.24A9.48,9.48,0,0,1,30.85.45a13.54,13.54,0,0,1,8.28.43,7.65,7.65,0,0,1,4.38,4,1.24,1.24,0,0,0,.33.4,9.85,9.85,0,0,1,3.51,7.34A15.48,15.48,0,0,1,46.21,19c-.07.18-.13.36-.19.54a1.65,1.65,0,0,1,.54,1.87c-.26,1.57-.61,3.12-1,4.67a3.7,3.7,0,0,1-.44,1c-.21.37-.48.67-1,.57a27,27,0,0,1-2.1,5.75,2.84,2.84,0,0,1-.41.72,2.07,2.07,0,0,0-.37,1.82q.21,1.69.37,3.39c0,.35.13.59.51.65a1.21,1.21,0,0,1,.23.08c.3.11.71.14.88.36s0,.59,0,.9a8.29,8.29,0,0,0,1.46,3.78,1.23,1.23,0,0,0,.52.33L63.51,54a4.44,4.44,0,0,1,2.64,2.89,12.8,12.8,0,0,1,.22,1.51s-11.25,9-33.18,9S0,58.38,0,58.38Z"/></g></g></svg>