<svg xmlns="http://www.w3.org/2000/svg" viewBox="0 0 24.38 25.48"><defs><style>.cls-1{fill:#fff;}</style></defs><title>megaphone</title><g id="Layer_2" data-name="Layer 2"><g id="icons"><path class="cls-1" d="M10.31,25.48A2.22,2.22,0,0,1,8.58,24L7,20.4c0-.08,0-.1-.39-.15a2.39,2.39,0,0,1-1.5-.73l-.67.23c-1.52.62-3.52-.7-4.17-2.2a4.18,4.18,0,0,1,0-3,2.46,2.46,0,0,1,1.32-1.41c9.83-4,10.65-7.78,11.19-10.28.26-1.19.48-2.21,1.65-2.69,2.33-.95,6,3.61,8,8.38h0c1.74,4,2.38,8.28,1.56,10.29A2,2,0,0,1,23,20c-1.17.48-2.09-.1-3.17-.76a10,10,0,0,0-7.13-1.7,1.19,1.19,0,0,0-.89.43.4.4,0,0,0,0,.39c.17.41.64,1.49,1,2.25l.29.67a1.31,1.31,0,0,0,.5.42,1.82,1.82,0,0,1,.81.77,1.41,1.41,0,0,1,0,1.11,1.53,1.53,0,0,1-.89.82l-2.79,1.06A1,1,0,0,1,10.31,25.48ZM5.47,18.35l.21.29a1.41,1.41,0,0,0,1.1.62A1.29,1.29,0,0,1,7.92,20l1.58,3.62c.24.56.71.88.83.86l2.79-1.06a.54.54,0,0,0,.32-.27.4.4,0,0,0,0-.32,1.35,1.35,0,0,0-.41-.32,2,2,0,0,1-.9-.87L11.81,21c-.34-.77-.82-1.86-1-2.28a1.4,1.4,0,0,1,.08-1.28,2.11,2.11,0,0,1,1.65-.91,10.89,10.89,0,0,1,7.76,1.84c1.06.66,1.6,1,2.26.69a1.06,1.06,0,0,0,.52-.63c.62-1.5.28-5.25-1.55-9.51h0c-2.15-5-5.42-8.38-6.72-7.85-.65.27-.8.83-1,2C13.23,5.57,12.3,9.82,2,14a1.52,1.52,0,0,0-.77.87,3.17,3.17,0,0,0,0,2.27c.45,1.05,1.93,2,2.87,1.67.23-.09,1.06-.36,1.06-.36Zm15.78-1c-1.13,0-3.7-2.78-5.12-6.1-1.5-3.5-1.57-6.92-1.19-7.85A.72.72,0,0,1,15.32,3c1-.41,3.76,3,5.26,6.49,1.44,3.34,1.65,6.46,1.26,7.42a.73.73,0,0,1-.39.43A.53.53,0,0,1,21.25,17.33ZM15.78,4.11A14.56,14.56,0,0,0,17,10.83,13.3,13.3,0,0,0,21,16.2a14,14,0,0,0-1.32-6.36A16.79,16.79,0,0,0,15.78,4.11Z"/></g></g></svg>