<svg xmlns="http://www.w3.org/2000/svg" viewBox="0 0 28.73 24.37"><defs><style>.cls-1{fill:#fff;}</style></defs><title>message</title><g id="Layer_2" data-name="Layer 2"><g id="icons"><path class="cls-1" d="M7.73,24.37,3,17.36a2.74,2.74,0,0,1-1.68-.8C-.06,15.12,0,12,0,8.09,0,7.41,0,6.7,0,6A6,6,0,0,1,6,0H22.75a6,6,0,0,1,6,6v5.79a6,6,0,0,1-6,6H12.25l-.39.67ZM6,1.5A4.48,4.48,0,0,0,1.53,6c0,.73,0,1.44,0,2.13,0,3.44-.07,6.41.92,7.4a1.36,1.36,0,0,0,1,.38h.4l3.89,5.82,2.84-4.1.79-1.37H22.75a4.48,4.48,0,0,0,4.47-4.47V6A4.48,4.48,0,0,0,22.75,1.5Z"/></g></g></svg>