<svg xmlns="http://www.w3.org/2000/svg" viewBox="0 0 155.79 33.27"><defs><style>.cls-1{fill:#fff;}</style></defs><title>microsoft</title><g id="Layer_2" data-name="Layer 2"><g id="icons"><path class="cls-1" d="M0,0H15.83q0,7.91,0,15.83H0V0Z"/><path class="cls-1" d="M17.44,0H33.27q0,7.91,0,15.83H17.44q0-7.91,0-15.83Z"/><path class="cls-1" d="M69.43,6.23a2.09,2.09,0,0,1,1.89.67,2,2,0,0,1,.24,2.22,2.13,2.13,0,0,1-2.28,1A1.94,1.94,0,0,1,67.7,8.17a2,2,0,0,1,1.74-1.94Z"/><path class="cls-1" d="M43.2,6.65h5q2.32,5.9,4.66,11.8c.4,1,.77,2,1.18,3,2-4.92,4-9.82,6-14.74,1.6,0,3.19,0,4.79,0q0,10,0,20c-1.15,0-2.3,0-3.45,0,0-4.91,0-9.82,0-14.73,0-.22,0-.44,0-.66a2.63,2.63,0,0,0-.18.32c-2,5-4,10-6,15.07-.82,0-1.64,0-2.46,0-2-5-4.06-10.06-6.09-15.09-.05-.1-.11-.21-.17-.3,0,2.15,0,4.3,0,6.45q0,4.47,0,8.94H43.2q0-10,0-20Z"/><path class="cls-1" d="M78.85,12.29a9.37,9.37,0,0,1,5.08,0,4.1,4.1,0,0,1,1,.41c0,1.09,0,2.18,0,3.27A5.44,5.44,0,0,0,81,14.79a4,4,0,0,0-2.84,1.58,5.52,5.52,0,0,0-.91,4,4.29,4.29,0,0,0,1.38,2.84,4.33,4.33,0,0,0,3.2,1,6.52,6.52,0,0,0,3.07-1.26c0,1,0,2.07,0,3.1a8.32,8.32,0,0,1-4.68,1,6.94,6.94,0,0,1-4.46-1.86,7.13,7.13,0,0,1-2.07-4.79A8.67,8.67,0,0,1,75.05,15a6.89,6.89,0,0,1,3.8-2.68Z"/><path class="cls-1" d="M116.24,12.08a9.05,9.05,0,0,1,4.74.49c0,1,0,2.1,0,3.15a6,6,0,0,0-3.59-1.06,1.84,1.84,0,0,0-1.63.9,1.48,1.48,0,0,0,.5,1.75c1,.65,2.13.92,3.13,1.51a4.51,4.51,0,0,1,2,1.86,4.17,4.17,0,0,1-.89,4.82,6.55,6.55,0,0,1-4.76,1.45,10.18,10.18,0,0,1-3.48-.8c0-1.1,0-2.21,0-3.31a7.48,7.48,0,0,0,3.11,1.34,4,4,0,0,0,2.36-.22,1.37,1.37,0,0,0,.41-1.94,4.12,4.12,0,0,0-1.49-1,14.32,14.32,0,0,1-3-1.51,3.54,3.54,0,0,1-1.28-1.94,4.36,4.36,0,0,1,.47-3.41,5.1,5.1,0,0,1,3.41-2.09Z"/><path class="cls-1" d="M92.56,12.53a3.86,3.86,0,0,1,3.18-.27c0,1.14,0,2.28,0,3.42a3.64,3.64,0,0,0-2.31-.54,2.84,2.84,0,0,0-2.14,1.71,6.33,6.33,0,0,0-.49,2.92q0,3.42,0,6.84H87.42q0-7.15,0-14.3c1.13,0,2.25,0,3.38,0,0,.82,0,1.64,0,2.46a4.38,4.38,0,0,1,1.77-2.24Z"/><path class="cls-1" d="M68,12.31c1.13,0,2.27,0,3.41,0,0,4.76,0,9.53,0,14.3H68q0-7.15,0-14.3Z"/><path class="cls-1" d="M109.93,15.65a6.05,6.05,0,0,0-3-3A9.08,9.08,0,0,0,102,12a6.83,6.83,0,0,0-4.5,2.4A7.62,7.62,0,0,0,96,18.82a8.21,8.21,0,0,0,1.25,5.34,6.48,6.48,0,0,0,4,2.58,9.83,9.83,0,0,0,4,0,6.62,6.62,0,0,0,3.93-2.42,7.59,7.59,0,0,0,1.5-4.17A9.39,9.39,0,0,0,109.93,15.65Zm-3.31,6.57a3.13,3.13,0,0,1-1.68,1.65,4.61,4.61,0,0,1-2.79.12A3.42,3.42,0,0,1,100,22.22a6.6,6.6,0,0,1-.52-3.58,4.55,4.55,0,0,1,1.32-3,3.58,3.58,0,0,1,2.25-.89,3.68,3.68,0,0,1,2.86,1,4.62,4.62,0,0,1,1.18,3A7.5,7.5,0,0,1,106.62,22.21Z"/><path class="cls-1" d="M137.34,16.06a6.11,6.11,0,0,0-2.94-3.33,8.87,8.87,0,0,0-5.08-.69,7.09,7.09,0,0,0-3.78,1.62,7,7,0,0,0-2.26,4.39,9.47,9.47,0,0,0,.54,5,6.34,6.34,0,0,0,3.48,3.37,9.2,9.2,0,0,0,4.82.41,6.68,6.68,0,0,0,4.21-2.46,7.83,7.83,0,0,0,1.55-4.87A9.12,9.12,0,0,0,137.34,16.06Zm-3.09,4.85a4.46,4.46,0,0,1-.88,2.1,3.2,3.2,0,0,1-2,1.08,4.52,4.52,0,0,1-2.45-.27,3.47,3.47,0,0,1-1.81-1.89,6.79,6.79,0,0,1-.41-3.12,5,5,0,0,1,1-2.85,3.5,3.5,0,0,1,2.5-1.2,3.75,3.75,0,0,1,2.74.81,3.92,3.92,0,0,1,1.24,2.28A8.69,8.69,0,0,1,134.25,20.91Z"/><path class="cls-1" d="M155.79,15.09V12.31c-1.13,0-2.26,0-3.39,0,0-1.43,0-2.86,0-4.28-1.13.34-2.25.7-3.39,1,0,1.08,0,2.17,0,3.25h-5A21.53,21.53,0,0,1,144,9.74a2,2,0,0,1,1.14-1.6,3.26,3.26,0,0,1,2.52.23c0-1,0-2,0-2.93a6.21,6.21,0,0,0-5,.59,4.67,4.67,0,0,0-1.93,2.63,14.59,14.59,0,0,0-.24,3.65c-.79,0-1.58,0-2.37,0,0,.91,0,1.83,0,2.74.79,0,1.59,0,2.38,0q0,5.77,0,11.54H144q0-5.77,0-11.55h5c0,2.45,0,4.91,0,7.36a5.11,5.11,0,0,0,1,3.27,3.81,3.81,0,0,0,2.7,1.24,6.69,6.69,0,0,0,3.13-.48V23.64a2.55,2.55,0,0,1-2.6.24,1.72,1.72,0,0,1-.74-1.36c-.1-.88,0-1.77-.06-2.66,0-1.6,0-3.2,0-4.79C153.52,15.07,154.65,15,155.79,15.09Z"/><path class="cls-1" d="M0,17.44H15.83q0,7.91,0,15.82H0V17.44Z"/><path class="cls-1" d="M17.44,17.44H33.27V33.27H17.44q0-7.91,0-15.82Z"/></g></g></svg>