<svg xmlns="http://www.w3.org/2000/svg" viewBox="0 0 17.96 18.35"><defs><style>.cls-1{fill:#fff;}</style></defs><title>mission</title><g id="Layer_2" data-name="Layer 2"><g id="icons"><path class="cls-1" d="M5.84,18.35a1,1,0,0,1-.7-.26,1.32,1.32,0,0,1-.22-1.44l.68-1.87L3.5,12.63l-1.81.68a1.29,1.29,0,0,1-1.4-.2,1.21,1.21,0,0,1-.12-1.41c.24-.59.45-1.12.64-1.59C2.14,6.73,2.58,6,6.27,6.36c1-1.3,5.52-7,10.83-6.3a.94.94,0,0,1,.54.25,1,1,0,0,1,.26.56C18.62,6.3,13,11,11.74,11.94c.39,3.77-.35,4.23-3.67,5.6l-1.55.66A1.7,1.7,0,0,1,5.84,18.35ZM3.75,11.46l3,3.07L5.87,17a.55.55,0,0,0,0,.37,1,1,0,0,0,.29-.08l1.57-.66c3.16-1.31,3.42-1.42,3-4.85l0-.29.24-.17c.07,0,6.71-4.92,6-10.3C11.71.32,7,7.11,6.92,7.18l-.17.25-.3,0C3.11,7,3,7.25,1.72,10.49c-.19.48-.4,1-.65,1.6a.58.58,0,0,0-.07.34h.05a.76.76,0,0,0,.27-.05Zm9.52-4.63a2,2,0,0,1-1.42-.6,2.07,2.07,0,0,1,0-2.88,2,2,0,0,1,2.85,0,2.07,2.07,0,0,1,0,2.88A2,2,0,0,1,13.27,6.83Zm0-3.09a1,1,0,0,0-.71.3,1.07,1.07,0,0,0,0,1.48h0a1,1,0,0,0,1.42,0A1.07,1.07,0,0,0,14,4,1,1,0,0,0,13.27,3.74Z"/></g></g></svg>