<svg xmlns="http://www.w3.org/2000/svg" viewBox="0 0 128.15 21.49"><defs><style>.cls-1{fill:#fff;}</style></defs><title>one_note</title><g id="Layer_2" data-name="Layer 2"><g id="icons"><path id="path4256" class="cls-1" d="M11.78,21.36c-2.2-.55-3.42-2.3-3.43-4.89a4.22,4.22,0,0,1,.27-1.76,4.72,4.72,0,0,1,3.62-2.66c.88-.18,1.15-.37,1.15-.82a4.35,4.35,0,0,1,.23-.93,6.48,6.48,0,0,1,2.81-3.67,5.85,5.85,0,0,1,3.27-.73,5.32,5.32,0,0,1,4.54,2L25,8.7l.71-.25c3.44-1.19,6.87.84,7.14,4.22l.08.93.68.24a3.82,3.82,0,0,1,2.68,4.29,3.66,3.66,0,0,1-1.8,3.07l-.49.26-10.83,0c-8.32,0-11,0-11.42-.13Z"/><path id="path4248" class="cls-1" d="M3.66,19.86A5.39,5.39,0,0,1,.38,17.13,3.46,3.46,0,0,1,0,15a3.69,3.69,0,0,1,.32-2.05,4.79,4.79,0,0,1,3.23-2.6,1.55,1.55,0,0,0,.64-.28,3.46,3.46,0,0,0,.11-.89A6.11,6.11,0,0,1,8.48,3.56a6.68,6.68,0,0,1,4.29.26c.44.18.39.21,1.33-1A8.56,8.56,0,0,1,16.68.72,6.92,6.92,0,0,1,19.93,0a7.85,7.85,0,0,1,7.49,5.43c.35,1,.33,1.34-.08,1.35A7.25,7.25,0,0,0,26.19,7l-.82.21-.75-.75a7.38,7.38,0,0,0-8.46-1.12,7,7,0,0,0-2.81,2.48,8.81,8.81,0,0,0-1.15,2.55c0,.25-.2.38-1.08.66a5.71,5.71,0,0,0-4.27,5.55,7,7,0,0,0,.59,2.78c.13.25.2.49.16.53a24.29,24.29,0,0,1-3.93,0Z"/><g id="text3027"><path id="path3010" class="cls-1" d="M48.44,19.24a6.58,6.58,0,0,1-5.11-2.1,7.79,7.79,0,0,1-1.92-5.47,8.26,8.26,0,0,1,2-5.77,6.83,6.83,0,0,1,5.32-2.15,6.43,6.43,0,0,1,5,2.09,7.82,7.82,0,0,1,1.9,5.47,8.29,8.29,0,0,1-1.94,5.8A6.7,6.7,0,0,1,48.44,19.24Zm.13-13.91A4.83,4.83,0,0,0,44.73,7a6.6,6.6,0,0,0-1.47,4.48A6.64,6.64,0,0,0,44.69,16a4.69,4.69,0,0,0,3.75,1.69,4.92,4.92,0,0,0,3.89-1.61,6.58,6.58,0,0,0,1.42-4.51A6.88,6.88,0,0,0,52.37,7,4.73,4.73,0,0,0,48.57,5.33Z"/><path id="path3012" class="cls-1" d="M67.2,19H65.48V12.88q0-3.41-2.49-3.41a2.7,2.7,0,0,0-2.13,1A3.58,3.58,0,0,0,60,12.88V19H58.31V8.28H60v1.78h0a3.86,3.86,0,0,1,3.51-2,3.28,3.28,0,0,1,2.69,1.13,5.05,5.05,0,0,1,.93,3.28Z"/><path id="path3014" class="cls-1" d="M79,14.06H71.48a4,4,0,0,0,1,2.76,3.32,3.32,0,0,0,2.53,1A5.26,5.26,0,0,0,78.3,16.6v1.61a6.21,6.21,0,0,1-3.73,1A4.53,4.53,0,0,1,71,17.78a6,6,0,0,1-1.3-4.1A5.85,5.85,0,0,1,71.12,9.6,4.54,4.54,0,0,1,74.64,8a4,4,0,0,1,3.25,1.36A5.67,5.67,0,0,1,79,13.17Zm-1.76-1.45a3.49,3.49,0,0,0-.72-2.31,2.44,2.44,0,0,0-2-.83,2.77,2.77,0,0,0-2.06.87,3.94,3.94,0,0,0-1,2.27Z"/><path id="path3016" class="cls-1" d="M81.88,19V4H86q7.93,0,7.93,7.31a7.37,7.37,0,0,1-2.2,5.58A8.16,8.16,0,0,1,85.85,19Zm1.76-13.4V17.4h2.24a6.35,6.35,0,0,0,4.59-1.58,5.92,5.92,0,0,0,1.64-4.48q0-5.76-6.13-5.76Z"/><path id="path3018" class="cls-1" d="M102.25,10a2.1,2.1,0,0,0-1.3-.35,2.19,2.19,0,0,0-1.84,1,4.79,4.79,0,0,0-.74,2.82V19H96.66V8.28h1.71v2.21h0a3.74,3.74,0,0,1,1.12-1.76,2.55,2.55,0,0,1,1.68-.63,2.8,2.8,0,0,1,1,.15Z"/><path id="path3020" class="cls-1" d="M105,5.56a1.09,1.09,0,0,1-.78-.31,1.06,1.06,0,0,1-.32-.79A1.1,1.1,0,0,1,105,3.34a1.11,1.11,0,0,1,.8.32,1.07,1.07,0,0,1,.33.8,1.06,1.06,0,0,1-.33.78A1.1,1.1,0,0,1,105,5.56ZM105.82,19h-1.71V8.28h1.71Z"/><path id="path3022" class="cls-1" d="M117.71,8.28,113.44,19h-1.68L107.7,8.28h1.88l2.72,7.78a7,7,0,0,1,.38,1.5h0a7.07,7.07,0,0,1,.33-1.45l2.84-7.82Z"/><path id="path3024" class="cls-1" d="M128.15,14.06h-7.56a4,4,0,0,0,1,2.76,3.32,3.32,0,0,0,2.53,1,5.26,5.26,0,0,0,3.32-1.19v1.61a6.21,6.21,0,0,1-3.73,1,4.53,4.53,0,0,1-3.57-1.46,6,6,0,0,1-1.3-4.1,5.85,5.85,0,0,1,1.42-4.07A4.54,4.54,0,0,1,123.74,8,4,4,0,0,1,127,9.39a5.67,5.67,0,0,1,1.15,3.77Zm-1.76-1.45a3.49,3.49,0,0,0-.72-2.31,2.44,2.44,0,0,0-2-.83,2.77,2.77,0,0,0-2.06.87,3.94,3.94,0,0,0-1,2.27Z"/></g></g></g></svg>