<svg xmlns="http://www.w3.org/2000/svg" viewBox="0 0 23.93 18.84"><defs><style>.cls-1{fill:#fff;}</style></defs><title>parirus</title><g id="Layer_2" data-name="Layer 2"><g id="icons"><path class="cls-1" d="M10.8,18.84c-3.51,0-7.64,0-8.18-.09A3.23,3.23,0,0,1,.93,18a2.69,2.69,0,0,1-.28-3.78,2.24,2.24,0,0,1,1.84-.77c.49,0,1.17,0,2.37,0,0-2-.05-10.31-.05-10.72A2.67,2.67,0,0,1,5.45.79,2.25,2.25,0,0,1,7.29,0C8,0,19.48,0,21,0l.12,0A3.22,3.22,0,0,1,23,.8a2.69,2.69,0,0,1,.28,3.78,2.23,2.23,0,0,1-3.15.23,1.87,1.87,0,0,1-.2-2.64,1.58,1.58,0,0,1,1-.54.44.44,0,1,1,.1.88.7.7,0,0,0-.46.24,1,1,0,0,0,.1,1.4A1.35,1.35,0,0,0,22.61,4a1.8,1.8,0,0,0-.19-2.54,2.36,2.36,0,0,0-3.33.25,3.05,3.05,0,0,0-.74,2.13c0,.27,0,1.28,0,3.09l.08,5.9c0,1.89,0,3,0,3.52a2.24,2.24,0,0,1-.77,1.84,2.66,2.66,0,0,1-1.93.64ZM2.34,14.31a1.34,1.34,0,0,0-1,.47,1.8,1.8,0,0,0,.19,2.54,2.35,2.35,0,0,0,1.23.55c.72.09,9.67.08,13.06.07h0a1.79,1.79,0,0,0,1.31-.43,1.34,1.34,0,0,0,.47-1.13s0,0,0,0c0-.45,0-1.63,0-3.5l-.08-5.9c0-1.77,0-2.8,0-3.06a3.93,3.93,0,0,1,1-2.74l.25-.26c-3.91,0-11,0-11.39,0h0a1.34,1.34,0,0,0-1.13.47,1.79,1.79,0,0,0-.43,1.31v0l.06,11.06c0,.47-.24.57-.43.57H5c-1.28,0-2,0-2.48,0H2.34Z"/><path class="cls-1" d="M17.77,14.33H5.3a.44.44,0,0,1,0-.88H17.77a.44.44,0,0,1,0,.88Z"/><path class="cls-1" d="M16.35,18.66l-.12,0A3.39,3.39,0,0,1,15,18a2.62,2.62,0,0,1-1-1.84,2.59,2.59,0,0,1,.68-1.94,2.38,2.38,0,0,1,1.9-.76h1a.44.44,0,0,1,0,.88h-1a1.49,1.49,0,0,0-1.2.47,1.72,1.72,0,0,0-.45,1.29,1.75,1.75,0,0,0,.65,1.23,2.51,2.51,0,0,0,.89.47.44.44,0,0,1-.12.86Z"/><path class="cls-1" d="M15.19,4.53H7.93a.44.44,0,0,1,0-.88h7.27a.44.44,0,0,1,0,.88Z"/><path class="cls-1" d="M15.19,7.17H7.93a.44.44,0,0,1,0-.88h7.27a.44.44,0,0,1,0,.88Z"/><path class="cls-1" d="M15.15,10.07H8a.44.44,0,0,1,0-.88h7.14a.44.44,0,0,1,0,.88Z"/></g></g></svg>