<?xml version="1.0" encoding="utf-8"?>
<!-- Generator: Adobe Illustrator 20.1.0, SVG Export Plug-In . SVG Version: 6.00 Build 0)  -->
<svg version="1.1" id="Layer_1" xmlns="http://www.w3.org/2000/svg" xmlns:xlink="http://www.w3.org/1999/xlink" x="0px" y="0px"
	 viewBox="0 0 33.7 31.9" style="enable-background:new 0 0 33.7 31.9;" xml:space="preserve">
<style type="text/css">
	.st0{fill:#FFFFFF;}
</style>
<title>project</title>
<g id="Layer_2">
	<g id="icons">
		<path class="st0" d="M0,3.1L19.5,0v31.9L0,28.8V3.1z M8.9,17.7h1c1.2,0,2.3-0.6,3.1-1.5c0.9-1.5,0.8-3.3-0.3-4.7
			c-1.4-1.3-3.9-0.6-5.8-0.5v10.2l1,0l1,0.1L8.9,17.7z M8.9,12.7h0.8c0.4,0.1,0.9,0.1,1.2,0.4c0.7,0.7,0.4,2.5-0.5,2.8
			C10.1,15.9,9.9,16,9.7,16H8.9V12.7z M33.7,3.5v24.8H20.4v-6.2l3.1,3.1l4.4-4.4l-4.4-4.4l-3.1,3.1V9.8h7.1v5.3h-2.7l3.5,3.5
			l3.5-3.5h-2.7V8h-8.9V3.5H33.7z"/>
	</g>
</g>
</svg>
