<svg xmlns="http://www.w3.org/2000/svg" viewBox="0 0 25.73 25.59"><defs><style>.cls-1{fill:#fff;}</style></defs><title>puzle</title><g id="Layer_2" data-name="Layer 2"><g id="icons"><rect class="cls-1" x="12.66" width="13.07" height="13.07" rx="3" ry="3"/><path class="cls-1" d="M7.58,1.77H3.5A3.5,3.5,0,0,0,0,5.27V9.36a3.5,3.5,0,0,0,3.5,3.5H7.58a3.5,3.5,0,0,0,3.5-3.5V5.27A3.5,3.5,0,0,0,7.58,1.77Zm2.5,7.58a2.5,2.5,0,0,1-2.5,2.5H3.5A2.5,2.5,0,0,1,1,9.36V5.27a2.5,2.5,0,0,1,2.5-2.5H7.58a2.5,2.5,0,0,1,2.5,2.5Z"/><path class="cls-1" d="M7.58,14.51H3.5A3.5,3.5,0,0,0,0,18v4.08a3.5,3.5,0,0,0,3.5,3.5H7.58a3.5,3.5,0,0,0,3.5-3.5V18A3.5,3.5,0,0,0,7.58,14.51Zm2.5,7.58a2.5,2.5,0,0,1-2.5,2.5H3.5A2.5,2.5,0,0,1,1,22.09V18a2.5,2.5,0,0,1,2.5-2.5H7.58a2.5,2.5,0,0,1,2.5,2.5Z"/><path class="cls-1" d="M20.16,14.51H16.08a3.5,3.5,0,0,0-3.5,3.5v4.08a3.5,3.5,0,0,0,3.5,3.5h4.08a3.5,3.5,0,0,0,3.5-3.5V18A3.5,3.5,0,0,0,20.16,14.51Zm2.5,7.58a2.5,2.5,0,0,1-2.5,2.5H16.08a2.5,2.5,0,0,1-2.5-2.5V18a2.5,2.5,0,0,1,2.5-2.5h4.08a2.5,2.5,0,0,1,2.5,2.5Z"/></g></g></svg>