<svg xmlns="http://www.w3.org/2000/svg" viewBox="0 0 30.49 30.49"><defs><style>.cls-1{fill:#fff;}</style></defs><title>services</title><g id="Layer_2" data-name="Layer 2"><g id="icons"><g id="services"><path class="cls-1" d="M15.24,30.49c-5,0-9.38-3.12-10.64-4.33l-.34-.33.15-.45a11,11,0,0,1,6.42-6.54h0a.22.22,0,0,0,.06-.37,6.48,6.48,0,1,1,8.37-.12.22.22,0,0,0,.07.37,10.93,10.93,0,0,1,6.74,6.67l.16.48-.67.56A15.09,15.09,0,0,1,15.24,30.49ZM6,25.39A15.59,15.59,0,0,0,15.24,29a13.46,13.46,0,0,0,9.23-3.6,9.53,9.53,0,0,0-5.65-5.25,1.72,1.72,0,0,1-.55-2.91,5,5,0,1,0-6.43.09,1.72,1.72,0,0,1-.47,2.93A9.6,9.6,0,0,0,6,25.39Z"/><path class="cls-1" d="M15.24,30.49A15.24,15.24,0,1,1,30.49,15.24,15.26,15.26,0,0,1,15.24,30.49Zm0-29A13.74,13.74,0,1,0,29,15.24,13.76,13.76,0,0,0,15.24,1.5Z"/></g></g></g></svg>