<svg xmlns="http://www.w3.org/2000/svg" viewBox="0 0 21.99 21.99"><defs><style>.cls-1{fill:#fff;}</style></defs><title>settings</title><g id="Layer_2" data-name="Layer 2"><g id="icons"><g id="settings"><path class="cls-1" d="M22,0H0V22H22ZM20.54,20.54H1.45V1.45H20.54Z"/><polygon class="cls-1" points="13.57 18.84 15.02 18.84 15.02 14.68 16.31 14.68 16.31 12.87 15.02 12.87 15.02 3.15 13.57 3.15 13.57 12.87 12.29 12.87 12.29 14.68 13.57 14.68 13.57 18.84"/><polygon class="cls-1" points="6.92 18.84 8.37 18.84 8.37 10.67 9.65 10.67 9.65 8.85 8.37 8.85 8.37 3.15 6.92 3.15 6.92 8.85 5.63 8.85 5.63 10.67 6.92 10.67 6.92 18.84"/></g></g></g></svg>