<svg xmlns="http://www.w3.org/2000/svg" viewBox="0 0 27.5 29.29"><defs><style>.cls-1{fill:#fff;}</style></defs><title>shield</title><g id="Layer_2" data-name="Layer 2"><g id="icons"><path class="cls-1" d="M13.75,29.29l-.36-.2A28.66,28.66,0,0,1,0,4.73V3.92L.81,4S1,4,1.42,4A21.73,21.73,0,0,0,13.33.29L13.75,0l.42.29A21.73,21.73,0,0,0,26.08,4c.38,0,.6,0,.62,0l.81-.06v.81A28.66,28.66,0,0,1,14.11,29.09ZM1.51,5.5A27.11,27.11,0,0,0,13.75,27.56,27.16,27.16,0,0,0,26,5.5,23.31,23.31,0,0,1,13.75,1.81,23.31,23.31,0,0,1,1.51,5.5Z"/></g></g></svg>