<svg xmlns="http://www.w3.org/2000/svg" viewBox="0 0 22.75 23.75"><defs><style>.cls-1{fill:#fff;}</style></defs><title>structure</title><g id="Layer_2" data-name="Layer 2"><g id="icons"><path id="structure" class="cls-1" d="M13.89,1.5v5h-5v-5h5m7.36,19.1v1.65H19.6V20.6h1.65m-9.05,0v1.65H10.55V20.6H12.2m-9.05,0v1.65H1.5V20.6H3.15M15.39,0h-8V8h3.14v4.8h-9v1.06h0V19.1H0v4.65H4.65V19.1H3.14V14.46h7.36V19.1H9.05v4.65H13.7V19.1H12.14V14.46h7.47V19.1H18.1v4.65h4.65V19.1H21.25V14.46h0V12.82h-9.1V8h3.25V0Z"/></g></g></svg>