<svg xmlns="http://www.w3.org/2000/svg" viewBox="0 0 16.75 13.62"><defs><style>.cls-1{fill:#31679a;}</style></defs><title>twitter</title><g id="Layer_2" data-name="Layer 2"><g id="icons"><path id="twitter" class="cls-1" d="M16.75,1.61a6.88,6.88,0,0,1-2,.54A3.45,3.45,0,0,0,16.29.25a6.89,6.89,0,0,1-2.18.83A3.44,3.44,0,0,0,8.25,4.22,9.76,9.76,0,0,1,1.17.63,3.44,3.44,0,0,0,2.23,5.22,3.42,3.42,0,0,1,.67,4.79v0A3.44,3.44,0,0,0,3.43,8.2a3.44,3.44,0,0,1-1.55.06,3.44,3.44,0,0,0,3.21,2.39A6.9,6.9,0,0,1,.82,12.12a6.89,6.89,0,0,1-.82,0,9.72,9.72,0,0,0,5.27,1.54A9.71,9.71,0,0,0,15,3.84q0-.22,0-.44A7,7,0,0,0,16.75,1.61Z"/></g></g></svg>