<svg xmlns="http://www.w3.org/2000/svg" viewBox="0 0 24.2 23.52"><defs><style>.cls-1{fill:#fff;}</style></defs><title>user</title><g id="Layer_2" data-name="Layer 2"><g id="icons"><path class="cls-1" d="M22.52,23.52H1.68A1.65,1.65,0,0,1,0,22c0-.32,0-.54,0-.78a10.88,10.88,0,0,1,5.32-9.18,7.82,7.82,0,1,1,13.24-.19,10.85,10.85,0,0,1,5.64,9.37c0,.23,0,.46,0,.68A1.67,1.67,0,0,1,22.52,23.52ZM11.88,1.5A6.31,6.31,0,0,0,7,11.81l.58.71L6.77,13A9.48,9.48,0,0,0,1.5,21.23c0,.19,0,.38,0,.56s.08.23.15.23H22.52a.14.14,0,0,0,.14-.13c0-.28,0-.47,0-.66a9.46,9.46,0,0,0-5.56-8.42l-.83-.4.57-.73a6.31,6.31,0,0,0-5-10.17Z"/></g></g></svg>