<svg xmlns="http://www.w3.org/2000/svg" viewBox="0 0 90.44 31.71"><defs><style>.cls-1{fill:#fff;}</style></defs><title>visio</title><g id="Layer_2" data-name="Layer 2"><g id="icons"><path class="cls-1" d="M59.59,9,54.09,23.88H52.18L46.8,9h1.93L52.84,20.8a7,7,0,0,1,.3,1.31h0a6.43,6.43,0,0,1,.34-1.33L57.71,9Z"/><path class="cls-1" d="M62.36,10.59a1.07,1.07,0,0,1-.78-.31,1,1,0,0,1-.32-.79,1.09,1.09,0,0,1,1.1-1.11,1.09,1.09,0,0,1,.79.32,1.1,1.1,0,0,1,0,1.57A1.08,1.08,0,0,1,62.36,10.59Zm.83,13.28h-1.7V13.28h1.7Z"/><path class="cls-1" d="M66,23.49V21.67a5,5,0,0,0,3.05,1q2.23,0,2.23-1.49a1.29,1.29,0,0,0-.19-.72,1.92,1.92,0,0,0-.52-.52,4,4,0,0,0-.77-.41l-.95-.38a12,12,0,0,1-1.24-.56,3.73,3.73,0,0,1-.89-.64,2.39,2.39,0,0,1-.54-.81A2.87,2.87,0,0,1,66,16.1a2.53,2.53,0,0,1,.34-1.32,3,3,0,0,1,.91-1,4.24,4.24,0,0,1,1.3-.58,5.76,5.76,0,0,1,1.5-.2,6.08,6.08,0,0,1,2.46.48v1.72a4.8,4.8,0,0,0-2.69-.77,3.15,3.15,0,0,0-.86.11,2.1,2.1,0,0,0-.66.31,1.41,1.41,0,0,0-.42.47,1.23,1.23,0,0,0-.15.6,1.44,1.44,0,0,0,.15.69,1.51,1.51,0,0,0,.44.5,3.37,3.37,0,0,0,.7.39l.94.38a13.1,13.1,0,0,1,1.26.55,4.35,4.35,0,0,1,1,.64,2.49,2.49,0,0,1,.6.82A2.65,2.65,0,0,1,73,21a2.61,2.61,0,0,1-.35,1.37,3,3,0,0,1-.93,1,4.24,4.24,0,0,1-1.33.57,6.59,6.59,0,0,1-1.58.19A6,6,0,0,1,66,23.49Z"/><path class="cls-1" d="M76.48,10.59a1.07,1.07,0,0,1-.78-.31,1,1,0,0,1-.32-.79,1.09,1.09,0,0,1,1.1-1.11,1.09,1.09,0,0,1,.79.32,1.1,1.1,0,0,1,0,1.57A1.08,1.08,0,0,1,76.48,10.59Zm.83,13.28h-1.7V13.28h1.7Z"/><path class="cls-1" d="M85.17,24.12a4.91,4.91,0,0,1-3.75-1.48A5.5,5.5,0,0,1,80,18.7a5.73,5.73,0,0,1,1.46-4.17A5.24,5.24,0,0,1,85.41,13a4.75,4.75,0,0,1,3.7,1.46,5.78,5.78,0,0,1,1.33,4A5.69,5.69,0,0,1,89,22.6,5,5,0,0,1,85.17,24.12Zm.12-9.66a3.23,3.23,0,0,0-2.59,1.11,4.57,4.57,0,0,0-1,3.07,4.32,4.32,0,0,0,1,3,3.27,3.27,0,0,0,2.58,1.09,3.1,3.1,0,0,0,2.53-1.07,4.63,4.63,0,0,0,.88-3,4.71,4.71,0,0,0-.88-3.06A3.09,3.09,0,0,0,85.29,14.46Z"/><line class="cls-1" y1="3.67" y2="28.17"/><path class="cls-1" d="M0,3.67v24.5l19.06,3.54V0ZM10.17,21.24H7.41l-3-11.18H7.55l.85,5c.16,1,.32,2,.48,3.13h0c.14-1.14.27-2.08.43-3.13l.87-5h2.95Z"/><polygon class="cls-1" points="33.67 28.04 19.06 28.04 19.06 26.73 32.36 26.73 32.36 4.32 19.06 4.32 19.06 3.01 33.67 3.01 33.67 28.04"/><path class="cls-1" d="M26.64,14.72,22.13,10.2l4.51-4.51,4.51,4.51ZM24,10.2l2.66,2.66,2.66-2.66L26.64,7.54Z"/><rect class="cls-1" x="17.36" y="9.55" width="5.7" height="1.31"/><polygon class="cls-1" points="27.3 21.36 22.89 21.36 22.89 20.05 25.99 20.05 25.99 13.79 27.3 13.79 27.3 21.36"/><path class="cls-1" d="M23.55,24.76H15.89V17.1h7.66ZM17.2,23.45h5v-5h-5Z"/></g></g></svg>