<?xml version="1.0" encoding="iso-8859-1"?>
<!-- Generator: Adobe Illustrator 19.1.0, SVG Export Plug-In . SVG Version: 6.00 Build 0)  -->
<svg xmlns="http://www.w3.org/2000/svg" xmlns:xlink="http://www.w3.org/1999/xlink" version="1.1" id="Capa_1" x="0px" y="0px" viewBox="0 0 48 48" style="enable-background:new 0 0 48 48;" xml:space="preserve" width="512px" height="512px">
<g id="purse_1_">
	<g>
		<path d="M37.999,33.001c1.105,0,2-0.895,2-2c0-1.105-0.895-2-2-2c-1.104,0-2,0.895-2,2C35.999,32.105,36.895,33.001,37.999,33.001    z M43.998,22.001v-7.999L36,14V0L0,13.001V48h43.998v-7.999h4.001l0.001-18L43.998,22.001z M32,6v8H9L32,6z M39.999,44H4V18.001    l35.999,0v3.999H28v18h11.999V44z M43.999,36.001l-12,0v-10l12,0V36.001z" fill="#FFFFFF"/>
	</g>
</g>
<g>
</g>
<g>
</g>
<g>
</g>
<g>
</g>
<g>
</g>
<g>
</g>
<g>
</g>
<g>
</g>
<g>
</g>
<g>
</g>
<g>
</g>
<g>
</g>
<g>
</g>
<g>
</g>
<g>
</g>
</svg>
