<svg xmlns="http://www.w3.org/2000/svg" viewBox="0 0 66.32 65.94"><title>woman</title><g id="Layer_2" data-name="Layer 2"><g id="icons"><path d="M45.19,9.45a32.1,32.1,0,0,1,1.87,8.19c.27,2.67.4,5.35.71,8,.21,1.78.81,4.11.42,6.09.2.94,1.19,1,2,1.73-.43.32-.81.65-1.23.91a18.44,18.44,0,0,1-6.14,2.25,8.65,8.65,0,0,1-1,.19c-.32,0-.36.19-.33.46.07.56.12,1.13.2,1.69a.66.66,0,0,0,.22.44,5.9,5.9,0,0,1,2.72,3.88,3.87,3.87,0,0,1,.17,1,.73.73,0,0,0,.51.72q8.76,4.09,17.51,8.21a10.71,10.71,0,0,1,1.74,1,4,4,0,0,1,1.73,3.38c0,.11,0,.22,0,.39,0,0-16.5,8-33.16,8S0,57.93,0,57.93a10.52,10.52,0,0,1,.08-1.06,4.26,4.26,0,0,1,2.5-3.22Q5.31,52.31,8.06,51c2.23-1.06,4.47-2.1,6.7-3.14.12-.05,5.9-2.75,6.42-3a4,4,0,0,0,.91-1.52,4.07,4.07,0,0,1,2.29-4,.59.59,0,0,0,.22-.39c.09-.61.14-1.23.21-1.84,0-.3-.12-.34-.36-.38A20.75,20.75,0,0,1,18,34.77c-.65-.35-1.24-.81-1.89-1.24,1.36-1.3,2.14-.69,2.36-2.32-1.22-2.37.22-8,.52-10.82.13-1.29.27-2.58.4-3.88,0-.39.63-8.39,4.88-12.55a10.29,10.29,0,0,1,7-3.85A13.77,13.77,0,0,1,37,.5a1.86,1.86,0,0,1,.71.47c.34.35.62.75,1,1.16L39,1.82l-.34-.5.07-.1c.61.44,1.26.84,1.84,1.32"/></g></g></svg>