<svg id="Слой_1" xmlns="http://www.w3.org/2000/svg" viewBox="0 0 32 32.1"><style>.st0{display:none}.st1{display:inline}.st2{fill:#fff}</style><g class="st0"><path class="st1" d="M-135-31h461.5v244H-135z"/></g><path class="st2" d="M16.2 2.5l2.1 2.7.7 1 1.1-.5L23 4.3l.3 3.4.1 1.3 1.3.1 3.3.3-1.5 2.5-.7 1.1 1 .8 2.8 2.3-2.5 2.2-.8.7.5 1 1.1 2.6-3.3.1h-1.4l-.1 1.4-.3 3.4-2.7-1.3-1.1-.6-.7 1.1-1.8 2.8-2.1-2.8-.7-1-1.1.5-3.1 1.5-.2-3.2-.1-1.3-1.3-.1-3.4-.4 1.3-2.9.5-1.1-1-.7-2.7-2 2.5-1.5 1.1-.7-.5-1.2-1.4-3.4L7.9 9l1.4-.1.1-1.4.2-3.4 2.9 1.5 1.2.6.8-1.1 1.7-2.6m0-2.5l-3.1 4.4-5-2.6-.3 5.7-5.6.3 2.1 5.4L0 15.8l4.4 3.3-2.2 4.7 5.5.6L8 30l5.1-2.4 3.4 4.5 3-4.5 4.7 2.3.4-5.6 5.5-.1-2-4.6 3.9-3.3-4.2-3.4L30.5 8l-5.7-.4-.5-5.6-4.8 2.3L16.2 0z"/><path class="st2" d="M15.6 12.8c0 2.3-1.4 3.5-2.9 3.5-1.6 0-2.8-1.2-2.9-3.4 0-2.1 1.2-3.5 2.9-3.5 1.9.1 2.9 1.4 2.9 3.4zm-4.2.1c0 1.3.4 2.2 1.3 2.2s1.3-.9 1.3-2.3c0-1.2-.3-2.2-1.3-2.2-.8.1-1.3 1.1-1.3 2.3zm1.3 8.1l6.5-11.5h1.2L13.9 21h-1.2zm10.6-3.5c0 2.3-1.4 3.5-2.9 3.5s-2.8-1.2-2.8-3.4c0-2.1 1.2-3.5 2.9-3.5s2.8 1.3 2.8 3.4zm-4.2.1c0 1.3.5 2.2 1.3 2.2.9 0 1.3-.9 1.3-2.3 0-1.3-.3-2.2-1.3-2.2-.8 0-1.3 1-1.3 2.3z"/><g class="st0"><g class="st1"><path d="M12.7 11c-.9 0-1.3 1-1.3 2.3s.4 2.2 1.3 2.2 1.3-.9 1.3-2.3c0-1.2-.4-2.2-1.3-2.2zm7.7 4.7c-.9 0-1.3 1-1.3 2.3s.5 2.2 1.3 2.2c.9 0 1.3-.9 1.3-2.3 0-1.3-.3-2.2-1.3-2.2z"/><path d="M32 16.1l-4.2-3.4L30.5 8l-5.7-.4-.5-5.6-4.8 2.3L16.2 0l-3.1 4.4-5-2.6-.3 5.7-5.6.3 2.1 5.4L0 15.8l4.4 3.3-2.2 4.7 5.5.6L8 30l5.1-2.4 3.4 4.5 3-4.5 4.7 2.3.4-5.6 5.5-.1-2-4.6 3.9-3.5zM9.8 13.4c0-2.1 1.2-3.5 2.9-3.5 1.8 0 2.8 1.3 2.8 3.3 0 2.4-1.4 3.5-2.9 3.5s-2.7-1.2-2.8-3.3zm4.1 8h-1.2l6.5-11.5h1.2l-6.5 11.5zm6.5-.1c-1.5 0-2.8-1.2-2.8-3.4 0-2.1 1.2-3.5 2.9-3.5 1.8 0 2.8 1.3 2.8 3.3 0 2.4-1.4 3.6-2.9 3.6z"/></g></g></svg>