<svg xmlns="http://www.w3.org/2000/svg" width="13" height="15" viewBox="-1 0 14 15"><title>Shape 6</title><defs><clipPath id="a"><path d="M135 405v-15h13v15zm1-11.001v7.1a2 2 0 0 0 2 1.999h7a2 2 0 0 0 2-1.999v-7.1a2 2 0 0 0-2-2.001h-7a2 2 0 0 0-2 2.001z" fill="#fff"/></clipPath></defs><path d="M3 1.998h7a2 2 0 0 1 2 2.001v7.1a2 2 0 0 1-2 1.999H3a2 2 0 0 1-2-1.999v-7.1a2 2 0 0 1 2-2.001z" fill="#fff"/><path d="M138 391.998h7a2 2 0 0 1 2 2.001v7.1a2 2 0 0 1-2 1.999h-7a2 2 0 0 1-2-1.999v-7.1a2 2 0 0 1 2-2.001z" fill-opacity="0" fill="#fff" stroke-dasharray="0" stroke-linejoin="round" stroke-linecap="round" stroke="#e3e5e6" stroke-miterlimit="50" stroke-width="2" clip-path="url(&amp;quot;#a&amp;quot;)" transform="translate(-135 -390)"/><path d="M.992 7.71l1.719-1.719 4.296 4.297-1.718 1.719zm9.848-3.505l1.414 1.415-6.168 6.168-1.414-1.414z" fill="#ed1c24"/></svg>