<svg xmlns="http://www.w3.org/2000/svg" width="13" height="15" viewBox="-1 0 14 15"><title>Shape 6 copy</title><defs><clipPath id="a"><path d="M135 438v-15h13v15zm1-11.002v7.101a2 2 0 0 0 2 2h7a2 2 0 0 0 2-2v-7.101a2 2 0 0 0-2-2h-7a2 2 0 0 0-2 2z" fill="#fff"/></clipPath></defs><path d="M3 1.998h7a2 2 0 0 1 2 2v7.101a2 2 0 0 1-2 2H3a2 2 0 0 1-2-2V3.998a2 2 0 0 1 2-2z" fill="#fff"/><path d="M138 424.998h7a2 2 0 0 1 2 2v7.101a2 2 0 0 1-2 2h-7a2 2 0 0 1-2-2v-7.101a2 2 0 0 1 2-2z" fill-opacity="0" fill="#fff" stroke-dasharray="0" stroke-linejoin="round" stroke-linecap="round" stroke="#e3e5e6" stroke-miterlimit="50" stroke-width="2" clip-path="url(&amp;quot;#a&amp;quot;)" transform="translate(-135 -423)"/></svg>