<svg id="Слой_1" xmlns="http://www.w3.org/2000/svg" viewBox="0 0 32 26"><style>.st0{fill:#fff}</style><path class="st0" d="M21.5 1020.4s-.1 0 0 0H6v26h20v-21.7l-.1-.1-.1-.1-3.9-3.9-.1-.1-.1-.1h-.2zm-14.5 1h14v4h4v20H7v-24zm15 .7l2.3 2.3H22v-2.3zm-10 1.3v1h7v-1h-7zm-3 3v1h14v-1H9zm0 2v1h14v-1H9zm0 2v1h14v-1H9zm0 2v1h14v-1H9zm0 2v1h14v-1H9zm0 2v1h10v-1H9zm7 4c-.8 0-1.5.7-1.5 1.5s.7 1.5 1.5 1.5 1.5-.7 1.5-1.5c0-.9-.7-1.5-1.5-1.5zm-7 1v1h4v-1H9zm7 0c.3 0 .5.2.5.5s-.2.5-.5.5-.5-.2-.5-.5.2-.5.5-.5zm3 0v1h4v-1h-4z" transform="translate(0 -1020.362)"/></svg>