<svg id="Слой_1" xmlns="http://www.w3.org/2000/svg" viewBox="0 0 67 69.5" width="17" height="19"><style>.st0{fill:#353434}</style><title>Artboard</title><path class="st0" d="M10.4 56H2.5C1.1 56 0 57.1 0 58.5S1.1 61 2.5 61h8.2m17 0h36.8c1.4 0 2.5-1.1 2.5-2.5S65.9 56 64.5 56H27.6"/><path class="st0" d="M19 47c-6.2 0-11.2 5-11.2 11.2s5 11.2 11.2 11.2 11.2-5 11.2-11.2S25.2 47 19 47zm0 17.5c-3.4 0-6.2-2.8-6.2-6.2S15.5 52 19 52s6.2 2.8 6.2 6.2-2.8 6.3-6.2 6.3zM10.4 9H2.5C1.1 9 0 10.1 0 11.5S1.1 14 2.5 14h8.2m17 0h36.8c1.4 0 2.5-1.1 2.5-2.5S65.9 9 64.5 9H27.6"/><path class="st0" d="M19 0C12.8 0 7.8 5 7.8 11.2s5 11.2 11.2 11.2 11.2-5 11.2-11.2S25.2 0 19 0zm0 17.5c-3.4 0-6.2-2.8-6.2-6.2S15.5 5 19 5s6.2 2.8 6.2 6.2-2.8 6.3-6.2 6.3zM56.6 37h7.9c1.4 0 2.5-1.1 2.5-2.5S65.9 32 64.5 32h-8.2m-17 0H2.5C1.1 32 0 33.1 0 34.5S1.1 37 2.5 37h36.9"/><path class="st0" d="M48 45.9c6.2 0 11.2-5 11.2-11.2s-5-11.2-11.2-11.2-11.2 5-11.2 11.2 5 11.2 11.2 11.2zm0-17.4c3.4 0 6.2 2.8 6.2 6.2s-2.8 6.2-6.2 6.2-6.2-2.8-6.2-6.2 2.8-6.2 6.2-6.2z"/></svg>