<svg id="Layer_1" xmlns="http://www.w3.org/2000/svg" viewBox="0 0 265.5 50.2"><style>.st0{fill-rule:evenodd;clip-rule:evenodd;fill:#fff}</style><path class="st0" d="M69.5 26.6c-.2.8-.1 1-.1 1.1.2.4 1 .4 1.4.4h6.3c.7 0 1.4 0 2.2-.5.8-.6 1-1.7 1.1-2.2.2-.7.3-1.5-.2-2.1-.4-.5-1.2-.5-1.9-.5h-7.9l-.9 3.8zm16.2-12H73.6c-.4 0-.8 0-1.1.2-.4.2-.5.7-.5 1l-.9 4h9.8c1 0 2.6.2 3.3 1.4.6.9.5 2.4.1 4.2-.6 2.5-1.4 3.7-2.1 4.3-.5.5-1.8 1.3-3.8 1.3H67.3c-1.1 0-1.6-.4-1.9-.8-.4-.5-.3-1.2-.2-1.8l3.1-13.8c.1-.7.4-1.5 1.2-2.1.4-.3 1.2-.7 2.3-.7h14.6l-.7 2.8zm12.8 16.3l2.5-10.3c0-.2.1-.4-.1-.4-.1 0-.2.1-.5.4l-9 9.3c-.8.8-1.4 1.1-2.5 1.1-2 0-2-1.3-1.8-2.1L90 16.3h3.5L91 26.6c-.1.2-.1.4.1.4s.3-.2.5-.4l9.1-9.5c.8-.8 1.6-1 2.3-1 .5 0 2.3.1 1.8 2.2L102 30.9h-3.5zm7.6-2.5h7.9c.6 0 1.2 0 1.7-.4.3-.2.7-.7.9-1.6.1-.5.2-1.1-.3-1.4-.4-.3-1-.4-1.4-.4h-7.4l.6-2.5h7.6c.5 0 1 0 1.5-.4.3-.2.6-.6.8-1.3.2-.7 0-1.1-.2-1.3-.4-.4-1.1-.4-1.4-.4h-7.6l.6-2.5h8.9c1.1 0 2.3.1 3 .9.7.8.6 1.9.4 2.8-.3 1.3-.8 2-1.3 2.4-.4.4-1.1.8-2 .8v.1c.8.1 1.3.5 1.6.8.3.4.5 1.2.2 2.5-.4 1.7-1.2 2.7-1.9 3.2-1.1.8-2.3.8-3.3.8h-9.2l.3-2.1zm27.1 2.5l1.5-6.3h-7.5l-1.4 6.3h-3.5l3.3-14.5h3.5l-1.4 5.8h7.5l1.3-5.8h3.5l-3.3 14.5zm19.3-8.7c.7 0 .9-.5 1-.8.2-.9-.1-1.6-.6-1.9-.7-.6-1.8-.7-2.8-.7-.9 0-2.3 0-3.5 1-.9.7-1 1.5-1.3 2.5h7.2v-.1zm-6.8 8.7c-1.6 0-3.5-.1-4.4-1.8-.7-1.4-.4-3.4.1-5.3.6-2.7 1.2-4.7 3.2-6.1 2-1.4 4.7-1.4 6.2-1.4 1.8 0 3.7.1 5 .9 1.6 1.1 1.6 2.9 1.1 4.7-.2.7-.4 1.6-1.2 2.2-.6.4-1.2.5-1.8.5h-9.1c-.1.6-.3 1.6-.2 2 .1 1.6 1.5 1.7 2.8 1.7h7.6l-.6 2.5h-8.7zm18 0c-1.2 0-3.2-.2-4.3-1.8-1-1.4-.7-3.2-.2-5.3.4-1.7 1-4.2 3.1-5.9.8-.6 2.3-1.6 5.1-1.6h6.7l-.6 2.5H168c-2.3 0-3.7 1.1-4.4 2.3-.4.8-.8 2.3-.9 2.7-.2.8-.4 2.2-.2 3 .5 1.4 2.1 1.5 3.6 1.5h5.6l-.6 2.5h-7.4zm12.7-8.8h10.5l-.6 2.8h-10.6zm24 7.7c-.4.6-1 1.2-2.3 1.2-1.2 0-1.6-.6-1.7-1.2l-1.9-9.4c0-.1 0-.3-.2-.3s-.2.2-.2.2l-2.2 10.5h-3.5l2.8-12.6c.3-1.4 1.7-2.1 3.2-2.1 1.3 0 2.1.4 2.3 1.6l1.9 9.2c0 .1.2.6.3.6.1 0 .5-.4.6-.6l6-9.2c.8-1.2 1.7-1.6 3-1.6 1.4 0 2.5.7 2.2 2.1l-2.9 12.6h-3.5l2.5-10.5c0-.2-.1-.3-.1-.3-.1 0-.3.2-.3.3l-6 9.5zm16-2.4c.8 1.1 2.2 1.2 3.5 1.2 1.3 0 2.7-.1 4-1.2 1.3-1.1 1.6-2.5 1.9-3.7.2-1.1.7-2.7-.1-3.8-.8-1-2.2-1.1-3.5-1.1-1.1 0-2.8.1-4 1.1-1.2 1-1.6 2.9-1.8 3.8-.4 1.2-.7 2.6 0 3.7zm12.3-9.6c1.4 1.6 1 4.3.7 5.8-.7 3.1-2 4.9-3.3 5.9-2 1.4-4.9 1.6-6.7 1.6-1.9 0-4.6-.1-6-1.6-1.5-1.6-1-4.3-.7-5.8.4-1.6 1.2-4.4 3.4-5.9 2-1.5 4.8-1.5 6.7-1.5 1.8-.1 4.5 0 5.9 1.5zm6 10.6h8.1l-1.7-9c0-.1 0-.4-.2-.4-.1 0-.3.2-.4.4l-5.8 9zm3.9-10.8c.5-.8 1.3-1.4 2.9-1.4 1.7 0 2 .7 2.2 1.4l2.5 10.8h1.4l-.6 2.5h-17.6l.6-2.5h1.4l7.2-10.8zm16.8 6.7c-.2 0-.9 0-1.4.5-.1.1-.5.5-.7 1.6-.1.4-.2 1.2.1 1.6.2.2.6.4 1 .4h4.8c.2 0 .5 0 .8-.2.3-.2.3-.4.4-.6l.8-3.3h-5.8zm6.6-7.9c1.3 0 2.4.4 3 1.1.5.6.7 1.8.4 3.4l-1.7 7.5c-.1.5-.4 1.3-1 1.9-.7.5-1.5.6-2.3.6h-7.5c-.9 0-1.9 0-2.7-.7-1-1-.7-2.9-.5-3.9.3-1.3.7-2.6 2.1-3.5 1.2-.8 2.2-.8 3.1-.8h6.8l.2-1c.1-.4.2-.9-.1-1.4-.3-.5-1-.6-1.5-.6h-7.7l.6-2.5h8.8zM66.5 46.8l2.3-10h-4.9l.2-.8h10.6l-.1.8h-4.9l-2.3 10zm6.9-1.4c.5.7 1.6.8 2.5.8.9 0 2-.1 2.9-.8.9-.7 1.2-2 1.3-2.6.2-.7.5-2-.1-2.7-.5-.7-1.7-.8-2.6-.8-.8 0-2.1.1-2.9.8-.9.7-1.2 2-1.3 2.7 0 .6-.3 1.8.2 2.6zm.8-6c1-.8 2.3-.9 3.5-.9 1.1 0 2.4.1 3.1.9.8.9.6 2.3.4 3.2-.4 1.8-1.2 2.8-1.8 3.3-1.2.9-2.7.9-3.5.9-.8 0-2.3 0-3-.9-.4-.5-.8-1.5-.4-3.3.1-.8.6-2.3 1.7-3.2zM86 46.1c.8 0 1.7-.3 2.3-.9.5-.6.8-1.4 1.1-2.4.3-1.1.3-1.7.2-2.2-.2-.9-1.1-1.2-1.9-1.2h-2.5c-.1 0-.2.1-.3.1-.1.1-.2.2-.2.3l-1.4 6.3H86zm-3.6 3.3h-.9l2.2-9.8c.1-.4.4-.7.6-.8.4-.2.8-.2 1-.2h2.2c.6 0 1.7.1 2.4.9.7.9.5 2 .2 3-.2 1-.5 2.1-1.4 3-.9 1-2 1.2-3.4 1.2H83l-.6 2.7zm8.9-2.6l1.6-7c.1-.2.1-.6.3-.8.3-.3.7-.4 1-.4h5.6l-.2.7h-5.3c-.2 0-.3.1-.4.1-.1.1-.2.4-.2.5l-1.6 6.8h-.8zm9.6-1.4c.5.7 1.6.8 2.5.8.9 0 2-.1 2.9-.8.9-.7 1.2-2 1.3-2.6.2-.7.5-2-.1-2.7-.5-.7-1.7-.8-2.6-.8-.8 0-2.1.1-2.9.8-.9.7-1.2 2-1.3 2.7-.1.6-.4 1.8.2 2.6zm.8-6c1-.8 2.3-.9 3.5-.9 1.1 0 2.4.1 3.1.9.8.9.6 2.3.4 3.2-.4 1.8-1.2 2.8-1.8 3.3-1.2.9-2.7.9-3.5.9-.8 0-2.3 0-3-.9-.4-.5-.8-1.5-.4-3.3.1-.8.5-2.3 1.7-3.2zm13.7 2.8c.4 0 .7 0 1-.3.4-.3.5-.7.6-1.1.1-.3.2-.8-.1-1.1-.2-.3-.6-.3-.9-.3h-3.5c-.1 0-.2 0-.3.1-.1 0-.1.2-.1.2l-.6 2.5h3.9zm-4.6 3.4c0 .1-.1.3 0 .4.1.1.2.1.4.1h3.1c.5 0 .9 0 1.2-.4.4-.4.5-.8.6-1.3.1-.4.2-.8 0-1.2-.2-.3-.5-.4-.9-.4h-3.9l-.5 2.8zm.5-6c.1-.3.2-.5.4-.7.2-.2.5-.3.8-.3h3.8c.4 0 1.1 0 1.5.6.3.4.2 1.1.1 1.6-.1.4-.2.9-.6 1.2-.2.2-.5.4-1 .5.4.1.7.3.8.5.2.4.1.8 0 1.2-.2.7-.4 1.4-1 2-.5.4-1 .5-1.4.5h-4.1c-.3 0-.6-.1-.7-.3-.2-.2-.1-.5-.1-.7l1.5-6.1zm10.1 3c-.5 0-.9.2-1.1.4-.3.3-.4.7-.6 1.3-.1.5-.2 1.1 0 1.4.1.2.4.4.8.4h3.6c.1 0 .3 0 .4-.1.1-.1.2-.2.2-.3l.7-3.1h-4zm3.7-4c.6 0 1.1.2 1.4.6.4.5.3 1.1.2 1.6l-1.1 4.9c0 .2-.2.6-.5.8-.3.2-.7.2-1 .2h-3.4c-.5 0-1.1 0-1.5-.4-.6-.6-.4-1.7-.3-2.2.1-.7.4-1.4 1.2-1.9.6-.4 1.2-.4 1.7-.4h3.8l.3-1.2c.1-.3 0-.7-.1-1-.1-.2-.4-.4-.8-.4h-4.3l.2-.7h4.2zm6.2 5.3c.1-.1.2-.1.2-.2s-.1-.1-.1-.1h-.9c-.6 0-1.2-.1-1.5-.7-.3-.6-.2-1.3 0-1.8.1-.6.4-1.4 1-1.9.4-.3 1-.5 1.6-.5h3.7c.3 0 .7 0 1 .2.2.3.1.7.1 1l-1.6 6.9h-.9l1.6-6.8c0-.1.1-.3 0-.5-.1-.1-.3-.1-.5-.1h-3.5c-.3 0-.6.1-.9.4-.3.3-.4.8-.5 1.2-.2.7-.2 1.1-.1 1.3.2.4.5.5.9.5h1.6c.3 0 .7 0 .6.5 0 .2-.1.4-.3.5l-4 2.9h-1.2l3.7-2.8zm15.7 2.9l-3-3.2c-.4-.4-.4-.7-.3-1 .1-.4.6-.8.9-1.1l4-2.9h1.2l-4.7 3.4c-.1.1-.4.3-.5.5 0 .1.1.4.2.4l3.5 3.8H147v.1zm-5.5 0h.9l1.8-8.2h-.9l-1.8 8.2zm9.7-1.4c.5.7 1.6.8 2.5.8.9 0 2-.1 2.9-.8.9-.7 1.2-2 1.3-2.6.2-.7.5-2-.1-2.7-.5-.7-1.7-.8-2.6-.8-.8 0-2.1.1-2.9.8-.9.7-1.2 2-1.3 2.7 0 .6-.3 1.8.2 2.6zm.8-6c1-.8 2.3-.9 3.5-.9 1.1 0 2.4.1 3.1.9.8.9.6 2.3.4 3.2-.4 1.8-1.2 2.8-1.8 3.3-1.2.9-2.7.9-3.5.9-.8 0-2.3 0-3-.9-.4-.5-.8-1.5-.4-3.3.1-.8.6-2.3 1.7-3.2zm13.7 6.9c-.3.4-.7.6-.9.6-.3 0-.6-.2-.7-.6l-1.5-6.6s0-.1-.1-.1-.1.1-.1.1l-1.6 7.2h-.8l1.7-7.4c.1-.5.5-.8 1-.8s.6.2.7.6l1.5 6.6c0 .2.1.3.1.3s.1-.1.2-.3l4.4-6.6c.3-.4.5-.6 1-.6s.8.3.6.8l-1.7 7.4h-.9l1.6-7.2v-.1l-.1.1-4.4 6.6zm13.9-7.7c.5 0 .7.2.8.4.1.2.1.6 0 .8l-1.6 7h-.8l1.6-7c0-.1.1-.3 0-.4 0 0-.2-.1-.3-.1h-4.5c-.1 0-.2 0-.3.1-.1.1-.1.2-.2.4l-1.6 7h-.9l1.6-7c.1-.3.2-.6.4-.8.1-.1.4-.4 1-.4h4.8zm4.4 4c-.5 0-.9.2-1.1.4-.3.3-.4.7-.6 1.3-.1.5-.2 1.1 0 1.4.1.2.4.4.8.4h3.6c.1 0 .3 0 .4-.1.1-.1.2-.2.2-.3l.7-3.1h-4zm3.7-4c.6 0 1.1.2 1.4.6.4.5.3 1.1.2 1.6l-1.1 4.9c0 .2-.2.6-.5.8-.3.2-.7.2-1 .2h-3.4c-.5 0-1.1 0-1.5-.4-.6-.6-.4-1.7-.3-2.2.2-.7.4-1.4 1.2-1.9.6-.4 1.2-.4 1.7-.4h3.8l.3-1.2c.1-.3 0-.7-.1-1-.1-.2-.4-.4-.8-.4h-4.3l.2-.7h4.2zm8.7 8.2l.9-3.8H192l-.9 3.8h-.9l1.9-8.2h.9l-.9 3.6h5.3l.8-3.6h.9l-1.8 8.2zm9.7 0l1.6-7.1c0-.1.1-.2 0-.2 0 0-.1 0-.2.2l-6 6.6c-.4.4-.6.6-1.1.6-.5 0-.7-.3-.6-.8l1.7-7.4h.9l-1.6 7.1c0 .1 0 .2.1.2s.1-.1.2-.2L207 39c.3-.3.6-.5 1-.5.7 0 .6.7.6.9l-1.7 7.3h-.8zm6.8-2.9c.1-.1.2-.1.2-.2s-.1-.1-.1-.1h-.9c-.6 0-1.2-.1-1.5-.7-.3-.6-.2-1.3 0-1.8.1-.6.4-1.4 1-1.9.4-.3 1-.5 1.6-.5h3.7c.3 0 .7 0 1 .2.2.3.1.7.1 1l-1.6 6.9h-.9l1.6-6.8c0-.1.1-.3 0-.5-.1-.1-.3-.1-.5-.1h-3.5c-.3 0-.6.1-.9.4-.3.3-.4.8-.5 1.2-.2.7-.2 1.1-.1 1.3.2.4.5.5.9.5h1.6c.3 0 .7 0 .6.5 0 .2-.1.4-.3.5l-4 2.9h-1.2l3.7-2.8zM24 28.5s2.1-.3 3.5-.9c1.4-.7 3-2.4 3-2.4l1.8-1.7s.8-.9 2-1.6c.1 0 .2-.1.2-.1l-2.2 4c-.8.6-1.5 1.3-1.5 1.3l-1.3 1.3s-1.3 1.4-2.5 2c-1.2.6-2.7.9-2.7.9l-8.1 1.4 1.4-2.5.2-.4 6.2-1.3zM53.6 5.3C47-3.2 30.2-1.2 16.2 9.7c-5.3 4.2-9.5 9-12.3 13.9l2.9-.5 1.7-.3.8-.1 6.5-1.1-1.6 2.8-1.2 2.1-4.8 8.7L5.7 40 19 37.8s2.1-.3 3.5-.9c1.4-.7 3-2.4 3-2.4l1.8-1.7s.8-.9 2-1.6c1.1-.7 2.9-1 2.9-1l4.2-.7.5-.9 3.7-6.7s.5-.8.9-1.8l3-5.6-3.6.6s-1.9.3-2.8.8c-.9.5-2.2 1.8-2.2 1.8L34.6 19s-1.3 1.4-2.5 2c-1.2.6-2.7.9-2.7.9l-8 1.4 1.4-2.4s.1-.2.3-.5l6.1-1.1s2.2-.3 3.5-.9c1.4-.7 3-2.4 3-2.4l1.8-1.7s.8-.9 2-1.6c1.1-.7 2.9-1 2.9-1l4.3-.7 3-5.6L46 6s-1.9.3-2.8.8c-.9.5-2.2 1.8-2.2 1.8l-1.3 1.3s-1.3 1.4-2.5 2c-1.2.6-2.7.9-2.7.9L14.8 16c1.2-1.1 2.4-2.2 3.7-3.2C31.7 2.5 46.4-.6 51.4 5.8S49.8 25.7 36.6 36C23.5 46.3 8.8 49.4 3.8 43c-2.9-3.7-1.9-9.8 2.1-16.3l-3.9.6C-.8 34-.8 40.5 2.7 44.9c6.6 8.5 23.4 6.5 37.4-4.5C54.2 29.5 60.2 13.8 53.6 5.3z"/></svg>