<svg id="Слой_1" xmlns="http://www.w3.org/2000/svg" viewBox="0 0 100 76"><style>.st0{fill:#fff}</style><path class="st0" d="M35.2 952.4C25.1 962.5 14.7 972.9 6 981.5v46.8h88v-76c-20.6.1-41.1.1-58.8.1zm2.8 4h52v68H10v-38h28v-30zm12 3.9v4h34v-4H50zm0 8v4h34v-4H50zm0 8v4h34v-4H50zm0 8v4h34v-4H50zm-38 8v4h34v-4H12zm41 0c-1.1 0-2 1-2 2v23.9c0 1.1.9 2 2 2h28c1 0 2-1 2-2v-23.9c0-1.1-.9-2-2-2H53zm2 4h24v20H55v-20zm-43 4v4h34v-4H12zm0 8v4h34v-4H12zm0 8v4h34v-4H12z" transform="translate(0 -952.362)"/></svg>