<svg xmlns="http://www.w3.org/2000/svg" width="38" height="38" viewBox="0 0 38 38"><title>Эллипс 5 копия 7</title><defs><clipPath id="a"><path d="M250 726c10.493 0 19 8.507 19 19s-8.507 19-19 19-19-8.507-19-19 8.507-19 19-19z" fill="#fff"/></clipPath></defs><path d="M19 0c10.493 0 19 8.507 19 19s-8.507 19-19 19S0 29.493 0 19 8.507 0 19 0z" fill="#00b200"/><path d="M250 726c10.493 0 19 8.507 19 19s-8.507 19-19 19-19-8.507-19-19 8.507-19 19-19z" fill-opacity="0" fill="#fff" stroke-dasharray="0" stroke="#e8e8e8" stroke-miterlimit="50" stroke-width="0" clip-path="url(&amp;quot;#a&amp;quot;)" transform="translate(-231 -726)"/></svg>