<svg xmlns="http://www.w3.org/2000/svg" width="23" height="23" viewBox="-2 -2 23 23"><title>Эллипс 1</title><defs><clipPath id="a"><path d="M451 290c5.523 0 10 4.477 10 10s-4.477 10-10 10-10-4.477-10-10 4.477-10 10-10z" fill="#fff"/></clipPath></defs><path d="M10 0c5.523 0 10 4.477 10 10s-4.477 10-10 10S0 15.523 0 10 4.477 0 10 0z" fill="#fff"/><path d="M451 290c5.523 0 10 4.477 10 10s-4.477 10-10 10-10-4.477-10-10 4.477-10 10-10z" fill-opacity="0" fill="#fff" stroke-dasharray="0" stroke-linejoin="round" stroke="#e8e8e8" stroke-miterlimit="50" stroke-width="2" clip-path="url(&amp;quot;#a&amp;quot;)" transform="translate(-441 -290)"/><path d="M10 6a4 4 0 1 1 0 8 4 4 0 0 1 0-8z" fill="#2f95cd"/></svg>