<svg xmlns="http://www.w3.org/2000/svg" width="10.469" height="13.094" viewBox="0 0 10.469 13.094">
  <metadata><?xpacket begin="﻿" id="W5M0MpCehiHzreSzNTczkc9d"?>
<x:xmpmeta xmlns:x="adobe:ns:meta/" x:xmptk="Adobe XMP Core 5.6-c138 79.159824, 2016/09/14-01:09:01        ">
   <rdf:RDF xmlns:rdf="http://www.w3.org/1999/02/22-rdf-syntax-ns#">
      <rdf:Description rdf:about=""/>
   </rdf:RDF>
</x:xmpmeta>
                                                                                                    
                                                                                                    
                                                                                                    
                                                                                                    
                                                                                                    
                                                                                                    
                                                                                                    
                                                                                                    
                                                                                                    
                                                                                                    
                                                                                                    
                                                                                                    
                                                                                                    
                                                                                                    
                                                                                                    
                                                                                                    
                                                                                                    
                                                                                                    
                                                                                                    
                                                                                                    
                           
<?xpacket end="w"?></metadata>
<defs>
    <style>
      .cls-1 {
        fill: #fff;
        fill-rule: evenodd;
      }
    </style>
  </defs>
  <path id="В" class="cls-1" d="M246.092,322.549a3.573,3.573,0,0,0-1.943-1.042v-0.07a2.812,2.812,0,0,0,1.323-1.1,3.1,3.1,0,0,0,.479-1.706,2.994,2.994,0,0,0-.347-1.459,2.525,2.525,0,0,0-1.05-1.01,4.183,4.183,0,0,0-1.393-.462,16.168,16.168,0,0,0-2.184-.11h-4.624v13.087h5.239a8.544,8.544,0,0,0,2.245-.246,4.6,4.6,0,0,0,1.622-.826,3.515,3.515,0,0,0,.993-1.221,3.8,3.8,0,0,0,.369-1.714A3,3,0,0,0,246.092,322.549Zm-3.63-2.5a1.059,1.059,0,0,1-.545.51,1.865,1.865,0,0,1-.7.184c-0.225.013-.619,0.018-1.182,0.018h-0.413v-2.768h0.229q0.878,0,1.322.013a2.086,2.086,0,0,1,.769.154,0.978,0.978,0,0,1,.506.483,1.488,1.488,0,0,1,.162.65A1.8,1.8,0,0,1,242.462,320.048Zm0.769,5.41a1.311,1.311,0,0,1-.655.567,2.792,2.792,0,0,1-1,.238q-0.492.017-1.775,0.017h-0.176V323h0.606q0.879,0,1.4.014a2.565,2.565,0,0,1,.822.127,1.488,1.488,0,0,1,.738.518,1.606,1.606,0,0,1,.246.95A1.72,1.72,0,0,1,243.231,325.458Z" transform="translate(-236.344 -315.594)"/>
</svg>
