<svg xmlns="http://www.w3.org/2000/svg" viewBox="0 0 448.3 184.7"><path fill="#FFF" d="M53.6 102.5h-15c-.8 0-1.2.1-1.1-.9v-1c0-6.5-1-9.6-10.4-9.6-8.4 0-9.8 2.9-9.8 9.4v59.1c0 6.5 1.4 9.4 9.8 9.4 8.7 0 10.4-3.4 10.4-9.7V158c0-.3.1-.8.6-.7H54c.5 0 .7.2.7.7v1.2c0 17.6-8.5 25.4-27.6 25.4-18.8.1-27.1-7.5-27.1-24.3V99.7c0-17.1 8.1-24.4 27.1-24.4 19.4 0 27.6 7.6 27.6 25.3v1c.1.6-.1.9-1.1.9m97.8-26.6h-15.6c-.5 0-.9.4-.9.9v105.6c0 .5.4.9.9.9h44.7c.5 0 .9-.4.9-.9V168c0-.5-.4-.9-.9-.9h-27.4c-.5 0-.9-.4-.9-.9V76.8c.1-.5-.3-.9-.8-.9m127.4 24.2c0-6.4 1.5-9.4 9.8-9.4 8.9 0 10.4 2.9 10.4 9.4v59.1c0 6.1-1.7 9.4-10.4 9.4-8.4 0-9.8-2.9-9.8-9.4v-59.1zm9.8-25.1c-19 0-27.1 7.3-27.1 24.4v60.4c0 16.9 8.3 24.4 27.1 24.4 18.9 0 27-6.9 27-23.6l.7-61.3c-.1-16.8-8.6-24.3-27.7-24.3m143.3 1.9V129L414 76.7c-.1-.4-.5-.7-1-.7h-15.3c-.5 0-.9.4-.9.9v105.6c0 .5.4.9.9.9h15.4c.5 0 1-.4 1-1v-51.5l17.5 51.8c.1.4.5.7 1 .7h14.9c.5 0 .9-.4.9-.9V76.9c0-.5-.4-.9-.9-.9h-14.7c-.6 0-.9.4-.9.9M122.8 182.3L99.9 76.2c-.1-.8-.5-.8-.8-.8h-14c-.4 0-.8.3-.9.7L62.5 181.3l-.2.8c-.4.8.1 1.1.7 1.1h14.6c.4 0 .8-.3.9-.7l5.3-23.8.5-2.2c1.6-2.7 4.5-4.1 8.6-4.1 4.3 0 7 1.4 8.3 4.3l.4 2 5.1 23.9c.1.4.4.7.9.7H122c.5.1.9-.5.8-1zm-34.6-46l3.8-25.6c.1-.7 1.1-.7 1.2 0l3.8 25.6c.1.4-.2.7-.6.6-1.2-.1-2.4-.1-3.6-.1-1.4 0-2.7.1-4 .2-.3 0-.6-.3-.6-.7zM230 112.8c-5.4-1.2-12.2-1.3-17.7-.1-.4.1-.7-.2-.7-.6V76.9c0-.5-.4-.9-.9-.9h-15.6c-.5 0-.9.4-.9.9v105.5c0 .5.4.9.9.9h15.6c.5 0 .9-.4.9-.9V136c.4-5.8 3.3-8.4 9.2-8.4 6 0 9.5 3 9.9 8.5V182l.1 1.3h16.4c.5 0 .9-.4.9-.9V76.9c0-.5-.4-.9-.9-.9h-15.6c-.5 0-.9.4-.9.9v35.4c0 .3-.4.6-.7.5zm136.2 45.7c0 6.5-3.4 9.9-10 9.9-6.4 0-9.3-3-9.3-9.9V76.8c0-.5-.4-.8-.8-.8h-15.6c-.5 0-.8.4-.8.8v82.4c0 16 9.4 24.8 26.5 24.8 17.5 0 27.2-8.8 27.2-24.8V76.8c0-.5-.4-.8-.8-.8H367c-.5 0-.8.4-.8.8v81.7zm47.1-116.4c1.8.5 2.7-2 1.1-2.9C362.1 13.1 298.5 0 221.8 0c-75 0-138.3 13.4-189.2 39.2-1.6.8-.7 3.3 1.1 2.8C89.9 27.4 153 19.9 222.5 19.9c70.2 0 133.8 7.3 190.8 22.2z"/></svg>