<?xml version="1.0" encoding="UTF-8"?>
<svg  viewBox="0 0 53 50" version="1.1" xmlns="http://www.w3.org/2000/svg" xmlns:xlink="http://www.w3.org/1999/xlink">
    <!-- Generator: Sketch 52.3 (67297) - http://www.bohemiancoding.com/sketch -->
    <title>noun_mobile message_664855</title>
    <desc>Created with Sketch.</desc>
    <g id="Page-1" stroke="none" stroke-width="1" fill="none" fill-rule="evenodd">
        <g id="medical-land" transform="translate(-504.000000, -1168.000000)">
            <g id="noun_mobile-message_664855" transform="translate(504.000000, 1168.000000)">
                <circle id="Oval" fill="#FAE210" cx="19.5" cy="28.5" r="17.5"></circle>
                <g id="Group" fill="#3E4955">
                    <path d="M30.7741935,29.0645161 L30.7741935,25.816129 L29.9193548,25.816129 L28.7225806,26.9274194 L28.7225806,39.1516129 L2.22258065,39.1516129 L2.22258065,5.21451613 C2.22258065,3.41935484 3.2483871,2.39354839 5.04354839,2.39354839 L11.9677419,2.39354839 C15.1306452,2.39354839 17.4387097,2.39354839 20.516129,2.39354839 L20.6016129,2.39354839 C21.0290323,1.79516129 21.4564516,1.28225806 22.0548387,0.85483871 C22.1403226,0.85483871 22.2258065,0.769354839 22.3112903,0.769354839 C22.3967742,0.683870968 22.3967742,0.683870968 22.4822581,0.598387097 L22.6532258,0.427419355 L22.3967742,0.427419355 C18.7209677,0.427419355 15.8145161,0.427419355 12.0532258,0.427419355 L5.12903226,0.427419355 C2.22258065,0.427419355 0.256451613,2.39354839 0.256451613,5.3 L0.256451613,34.3645161 C0.256451613,36.3306452 0.256451613,42.2290323 0.256451613,44.2806452 C0.256451613,45.6483871 0.683870968,46.9306452 1.62419355,47.7854839 C2.56451613,48.6403226 3.84677419,49.2387097 5.12903226,49.2387097 L5.21451613,49.2387097 C8.63387097,49.2387097 12.0532258,49.2387097 15.6435484,49.2387097 C18.8064516,49.2387097 22.2258065,49.2387097 25.9016129,49.2387097 C27.2693548,49.2387097 28.5516129,48.7258065 29.4064516,47.7854839 C30.3467742,46.8451613 30.7741935,45.6483871 30.7741935,44.366129 C30.7741935,43.4258065 30.7741935,35.6467742 30.7741935,29.0645161 Z M25.9016129,47.1016129 C22.2258065,47.1016129 18.8919355,47.1016129 15.6435484,47.1016129 C12.0532258,47.1016129 8.63387097,47.1016129 5.21451613,47.1016129 C4.35967742,47.1016129 3.59032258,46.8451613 3.07741935,46.2467742 C2.56451613,45.733871 2.30806452,45.05 2.30806452,44.1951613 C2.30806452,43.2548387 2.30806452,42.2290323 2.30806452,41.2887097 L28.8080645,41.2887097 C28.8080645,41.6306452 28.8080645,42.0580645 28.8080645,42.4 C28.8080645,42.9983871 28.8080645,43.6822581 28.8080645,44.2806452 C28.8080645,45.05 28.5516129,45.733871 28.0387097,46.2467742 C27.4403226,46.8451613 26.7564516,47.1016129 25.9016129,47.1016129 Z" id="Shape" fill-rule="nonzero"></path>
                    <path d="M15.5580645,42.8274194 C14.7887097,42.8274194 14.1903226,43.4258065 14.1903226,44.1951613 C14.1903226,44.9645161 14.7887097,45.5629032 15.5580645,45.5629032 C16.3274194,45.5629032 16.9258065,44.8790323 16.9258065,44.1951613 C16.9258065,43.5112903 16.3274194,42.8274194 15.5580645,42.8274194 Z" id="Shape" fill-rule="nonzero"></path>
                    <path d="M52.7435484,7.77903226 L52.7435484,7.60806452 C52.6580645,5.38548387 51.6322581,3.33387097 49.8370968,1.96612903 C48.4693548,0.940322581 46.9306452,0.427419355 45.3064516,0.427419355 L44.7080645,0.427419355 C42.9983871,0.427419355 41.4596774,0.427419355 39.9209677,0.427419355 L39.3225806,0.427419355 C37.6983871,0.427419355 34.1080645,0.427419355 32.5693548,0.427419355 C31.116129,0.427419355 31.0306452,0.427419355 30.8596774,0.427419355 C30.7741935,0.427419355 30.5177419,0.427419355 29.5774194,0.427419355 L29.15,0.427419355 C28.6370968,0.427419355 28.0387097,0.512903226 27.4403226,0.598387097 C26.2435484,0.85483871 25.1322581,1.45322581 24.2774194,2.22258065 C22.6532258,3.59032258 21.7129032,5.55645161 21.7129032,7.77903226 L21.7129032,27.6112903 C21.7129032,28.2951613 22.2258065,28.8080645 22.8241935,28.8080645 C23.166129,28.8080645 23.4225806,28.7225806 23.6790323,28.466129 L26.7564516,25.4741935 C27.6112903,24.6193548 28.466129,23.7645161 29.0645161,23.166129 L29.2354839,22.9951613 C29.2354839,22.9951613 29.4064516,22.9096774 29.4064516,22.9096774 L30.8596774,22.9096774 C32.5693548,22.9096774 34.3645161,22.9096774 36.416129,22.9951613 L36.7580645,22.9951613 C38.1258065,22.9951613 39.2370968,22.9951613 39.6645161,22.9951613 C40.6903226,22.9951613 41.8870968,22.9096774 43.5112903,22.3967742 C46.0758065,21.6274194 48.383871,20.0032258 50.1790323,17.866129 C50.9483871,16.8403226 51.5467742,15.8145161 52.0596774,14.6177419 C52.9145161,12.1387097 52.8290323,10.1725806 52.7435484,7.77903226 Z M50.0080645,13.933871 C49.5806452,14.8741935 49.0677419,15.8145161 48.383871,16.6693548 C46.9306452,18.55 44.8790323,19.9177419 42.7419355,20.516129 C41.2887097,20.9435484 40.2629032,21.0290323 39.4080645,21.0290323 C38.9806452,21.0290323 37.8693548,21.0290323 36.5870968,21.0290323 C34.6209677,21.0290323 32.5693548,21.0290323 30.6887097,20.9435484 L29.2354839,20.9435484 C29.15,20.9435484 28.9790323,20.9435484 28.8080645,20.9435484 C28.3806452,21.0290323 27.9532258,21.2854839 27.6112903,21.5419355 L27.4403226,21.7129032 C26.7564516,22.3967742 25.816129,23.3370968 24.8758065,24.2774194 L23.5935484,25.6451613 L23.5935484,7.86451613 C23.5935484,5.04354839 25.5596774,3.33387097 27.2693548,2.73548387 C27.8677419,2.56451613 28.3806452,2.39354839 28.9790323,2.39354839 L29.3209677,2.39354839 C29.3209677,2.39354839 29.3209677,2.39354839 29.3209677,2.39354839 C29.4064516,2.39354839 29.5774194,2.39354839 29.6629032,2.39354839 C30.3467742,2.39354839 30.5177419,2.39354839 30.6032258,2.39354839 C30.7741935,2.39354839 30.8596774,2.39354839 32.3129032,2.39354839 C33.0822581,2.39354839 34.3645161,2.39354839 35.6467742,2.39354839 C36.9290323,2.39354839 38.2112903,2.39354839 39.066129,2.39354839 L39.6645161,2.39354839 C41.2032258,2.39354839 42.7419355,2.39354839 44.4516129,2.39354839 L45.05,2.39354839 C46.2467742,2.39354839 47.4435484,2.82096774 48.383871,3.50483871 C49.666129,4.53064516 50.5209677,5.98387097 50.5209677,7.60806452 L50.5209677,7.77903226 C50.7774194,10.0870968 50.8629032,11.7112903 50.0080645,13.933871 Z" id="Shape" fill-rule="nonzero"></path>
                    <path d="M19.1483871,6.24032258 C18.8919355,5.81290323 18.55,5.55645161 18.1225806,5.55645161 L12.9080645,5.55645161 C12.3096774,5.55645161 11.7967742,6.06935484 11.7967742,6.66774194 C11.7967742,7.26612903 12.3096774,7.77903226 12.9080645,7.77903226 L18.1225806,7.77903226 C18.4645161,7.77903226 18.8064516,7.60806452 18.9774194,7.3516129 C19.1483871,7.18064516 19.233871,6.92419355 19.233871,6.66774194 C19.3193548,6.58225806 19.233871,6.41129032 19.1483871,6.24032258 Z" id="Path"></path>
                    <path d="M47.4435484,7.3516129 C47.2725806,7.00967742 46.9306452,6.83870968 46.5032258,6.83870968 C46.3322581,6.83870968 46.1612903,6.92419355 45.9048387,7.00967742 C45.8193548,7.09516129 45.733871,7.09516129 45.733871,7.18064516 L40.0064516,12.2241935 C39.6645161,12.566129 39.4080645,12.8225806 39.066129,13.0790323 C38.5532258,13.5064516 37.8693548,13.7629032 37.2709677,13.7629032 L37.1,13.7629032 C36.5016129,13.7629032 35.8177419,13.5064516 35.3048387,13.0790323 C34.9629032,12.8225806 34.7064516,12.566129 34.3645161,12.2241935 L28.6370968,7.18064516 C28.5516129,7.09516129 28.466129,7.09516129 28.466129,7.00967742 L28.3806452,6.92419355 C27.9532258,6.66774194 27.183871,6.83870968 26.9274194,7.3516129 C26.6709677,7.77903226 26.7564516,8.46290323 27.183871,8.71935484 L30.8596774,11.9677419 L28.7225806,14.1048387 C28.5516129,14.2758065 28.3806452,14.6177419 28.3806452,14.8741935 C28.3806452,15.1306452 28.466129,15.3870968 28.7225806,15.6435484 C29.0645161,15.9854839 29.833871,15.9854839 30.2612903,15.6435484 L32.483871,13.4209677 L32.9112903,13.7629032 C33.2532258,14.1048387 33.5951613,14.3612903 33.9370968,14.7032258 C34.8774194,15.4725806 35.9887097,15.9 37.1854839,15.9 C38.3822581,15.9 39.4935484,15.4725806 40.433871,14.7032258 C40.7758065,14.4467742 41.1177419,14.1048387 41.4596774,13.7629032 L41.8870968,13.4209677 L44.0241935,15.6435484 C44.366129,15.9854839 45.1354839,16.0709677 45.5629032,15.6435484 C45.733871,15.4725806 45.8193548,15.1306452 45.8193548,14.8741935 C45.8193548,14.6177419 45.733871,14.2758065 45.4774194,14.1048387 L43.4258065,11.9677419 L47.1016129,8.80483871 C47.5290323,8.37741935 47.7,7.77903226 47.4435484,7.3516129 Z" id="Path"></path>
                </g>
            </g>
        </g>
    </g>
</svg>
