<?xml version="1.0" encoding="UTF-8"?>
<svg  viewBox="0 0 52 53" preserveAspectRatio="none" version="1.1" xmlns="http://www.w3.org/2000/svg" xmlns:xlink="http://www.w3.org/1999/xlink">
    <!-- Generator: Sketch 52.3 (67297) - http://www.bohemiancoding.com/sketch -->
    <title>Group 16</title>
    <desc>Created with Sketch.</desc>
    <g id="Page-1" stroke="none" stroke-width="1" fill="none" fill-rule="evenodd">
        <g id="medical-land" transform="translate(-949.000000, -929.000000)">
            <g id="Group-16" transform="translate(949.000000, 929.000000)">
                <circle id="Oval-Copy" fill="#FAE210" cx="29.3875086" cy="25.4250058" r="17.5"></circle>
                <g id="noun_Speech-Bubbles_664879" fill="#3E4955">
                    <g id="Group">
                        <path d="M51.2048387,10.6854839 L51.2048387,10.3435484 C51.2048387,4.10322581 45.9048387,0.170967742 41.0322581,0.170967742 L40.8612903,0.170967742 C37.6129032,0.256451613 34.3645161,0.256451613 30.6032258,0.256451613 C28.5516129,0.256451613 26.5,0.256451613 24.3629032,0.256451613 L23.6790323,0.256451613 C21.5419355,0.256451613 19.233871,0.256451613 16.8403226,0.256451613 L15.9854839,0.256451613 C13.6774194,0.256451613 11.5403226,1.02580645 9.74516129,2.39354839 C7.26612903,4.27419355 5.81290323,7.09516129 5.72741935,10.1725806 C5.64193548,13.5919355 5.55645161,17.1822581 6.92419355,20.6870968 C7.60806452,22.2258065 8.46290323,23.7645161 9.48870968,25.1322581 C11.8822581,28.1241935 15.0451613,30.3467742 18.55,31.3725806 C20.8580645,32.0564516 22.4822581,32.1419355 23.85,32.1419355 C24.4483871,32.1419355 25.1322581,32.1419355 25.816129,32.0564516 L25.9016129,32.0564516 C26.6709677,32.0564516 27.6112903,31.9709677 28.5516129,31.9709677 C32.5693548,31.9709677 36.6725806,31.9709677 40.6903226,31.9709677 C40.6903226,31.9709677 40.8612903,31.9709677 40.8612903,32.0564516 L41.0322581,32.2274194 C42.4,33.5951613 44.5370968,35.7322581 46.3322581,37.4419355 L48.2983871,39.4080645 C48.6403226,39.75 49.0677419,39.9209677 49.4951613,39.9209677 C50.4354839,39.9209677 51.2048387,39.1516129 51.2048387,38.2112903 C51.2048387,38.2112903 51.2048387,16.583871 51.2048387,10.6854839 Z M15.9854839,2.39354839 L16.8403226,2.39354839 C19.233871,2.39354839 21.4564516,2.39354839 23.6790323,2.39354839 L24.1064516,2.39354839 C26.3290323,2.39354839 28.3806452,2.39354839 30.6032258,2.39354839 C34.3645161,2.39354839 37.6983871,2.39354839 40.9467742,2.30806452 L41.0322581,2.30806452 C44.8790323,2.30806452 49.0677419,5.38548387 49.0677419,10.3435484 L49.0677419,10.6 C49.0677419,15.7290323 49.0677419,32.7403226 49.0677419,37.1 L47.1016129,35.133871 C45.4774194,33.5096774 43.6822581,31.7145161 42.4854839,30.6032258 L42.3145161,30.4322581 C41.8870968,30.0048387 41.2887097,29.7483871 40.6903226,29.7483871 C36.6725806,29.7483871 32.5693548,29.7483871 28.5516129,29.7483871 C27.5258065,29.7483871 26.6709677,29.7483871 25.816129,29.833871 C25.1322581,29.833871 24.4483871,29.9193548 23.85,29.9193548 C22.6532258,29.9193548 21.2,29.833871 19.1483871,29.2354839 C16.0709677,28.3806452 13.25,26.4145161 11.1983871,23.7645161 C10.2580645,22.5677419 9.48870968,21.2854839 8.89032258,19.8322581 C7.60806452,16.7548387 7.69354839,13.4209677 7.77903226,10.1725806 C7.86451613,7.77903226 8.97580645,5.55645161 10.9419355,4.01774194 C12.4806452,2.99193548 14.1903226,2.39354839 15.9854839,2.39354839 Z" id="Shape" fill-rule="nonzero"></path>
                        <circle id="Oval" cx="40.0064516" cy="16.583871" r="2.0516129"></circle>
                        <circle id="Oval" cx="28.3806452" cy="16.583871" r="2.0516129"></circle>
                        <circle id="Oval" cx="17.2677419" cy="16.583871" r="2.0516129"></circle>
                        <path d="M20.516129,46.5032258 C21.1145161,46.5032258 21.6274194,46.5032258 22.1403226,46.5032258 C23.2516129,46.5032258 24.533871,46.4177419 26.4145161,45.9048387 C29.2354839,45.05 31.8,43.2548387 33.766129,40.8612903 C34.6209677,39.75 35.3048387,38.5532258 35.8177419,37.2709677 C36.1596774,36.416129 36.416129,35.4758065 36.5870968,34.5354839 C35.8177419,34.5354839 35.0483871,34.5354839 34.2790323,34.5354839 C34.1080645,35.2193548 33.9370968,35.8177419 33.6806452,36.416129 C33.2532258,37.5274194 32.6548387,38.4677419 31.8854839,39.4080645 C30.2612903,41.4596774 28.0387097,42.9983871 25.7306452,43.6822581 C24.1064516,44.1096774 23.0806452,44.1951613 22.0548387,44.1951613 C21.5419355,44.1951613 21.0290323,44.1951613 20.516129,44.1951613 L20.3451613,44.1951613 C19.7467742,44.1951613 19.0629032,44.1096774 18.3790323,44.1096774 L8.71935484,44.1096774 C8.20645161,44.1096774 7.60806452,44.366129 7.18064516,44.7080645 L7.00967742,44.8790323 C6.32580645,45.5629032 5.38548387,46.5032258 4.35967742,47.5290323 L2.30806452,49.5806452 L2.30806452,29.0645161 C2.30806452,26.8419355 3.50483871,24.7903226 5.47096774,23.7645161 C5.12903226,23.0806452 4.78709677,22.3967742 4.53064516,21.7129032 C1.79516129,23.166129 0.085483871,25.9016129 0.085483871,29.0645161 L0.085483871,29.3209677 C0.085483871,34.0225806 0.085483871,51.2048387 0.085483871,51.2048387 C0.085483871,52.1451613 0.85483871,52.8290323 1.70967742,52.8290323 C2.13709677,52.8290323 2.56451613,52.6580645 2.82096774,52.316129 L8.71935484,46.5032258 L8.89032258,46.5032258 C12.0532258,46.5032258 15.1306452,46.5032258 18.2935484,46.5032258 C19.1483871,46.4177419 19.8322581,46.5032258 20.516129,46.5032258 Z" id="Path"></path>
                    </g>
                </g>
            </g>
        </g>
    </g>
</svg>
